<svg class="main-svg" xmlns="http://www.w3.org/2000/svg" xmlns:xlink="http://www.w3.org/1999/xlink" width="300" height="135" style="" viewBox="0 0 300 135"><rect x="0" y="0" width="300" height="135" style="fill: rgb(255, 255, 255); fill-opacity: 1;"/><defs id="defs-9eab5c"><g class="clips"><clipPath id="clip9eab5cxyplot" class="plotclip"><rect width="280" height="75"/></clipPath><clipPath class="axesclip" id="clip9eab5cx"><rect x="10" y="0" width="280" height="135"/></clipPath><clipPath class="axesclip" id="clip9eab5cy"><rect x="0" y="50" width="300" height="75"/></clipPath><clipPath class="axesclip" id="clip9eab5cxy"><rect x="10" y="50" width="280" height="75"/></clipPath></g><g class="gradients"/><g class="patterns"/></defs><g class="bglayer"/><g class="layer-below"><g class="imagelayer"/><g class="shapelayer"/></g><g class="cartesianlayer"><g class="subplot xy"><g class="layer-subplot"><g class="shapelayer"/><g class="imagelayer"/></g><g class="minor-gridlayer"><g class="x"/><g class="y"/></g><g class="gridlayer"><g class="x"><path class="xgrid crisp" transform="translate(76.84,0)" d="M0,50v75" style="stroke: rgb(235, 240, 248); stroke-opacity: 1; stroke-width: 1px;"/><path class="xgrid crisp" transform="translate(156.31,0)" d="M0,50v75" style="stroke: rgb(235, 240, 248); stroke-opacity: 1; stroke-width: 1px;"/><path class="xgrid crisp" transform="translate(235.79,0)" d="M0,50v75" style="stroke: rgb(235, 240, 248); stroke-opacity: 1; stroke-width: 1px;"/></g><g class="y"><path class="ygrid crisp" transform="translate(0,97.18)" d="M10,0h280" style="stroke: rgb(235, 240, 248); stroke-opacity: 1; stroke-width: 1px;"/><path class="ygrid crisp" transform="translate(0,69.35)" d="M10,0h280" style="stroke: rgb(235, 240, 248); stroke-opacity: 1; stroke-width: 1px;"/></g></g><g class="zerolinelayer"><path class="yzl zl crisp" transform="translate(0,125)" d="M10,0h280" style="stroke: rgb(235, 240, 248); stroke-opacity: 1; stroke-width: 2px;"/></g><path class="xlines-below"/><path class="ylines-below"/><g class="overlines-below"/><g class="xaxislayer-below"/><g class="yaxislayer-below"/><g class="overaxes-below"/><g class="plot" transform="translate(10,50)" clip-path="url(#clip9eab5cxyplot)"><g class="scatterlayer mlayer"><g class="trace scatter trace0a0743" style="stroke-miterlimit: 2; opacity: 1;"><g class="fills"/><g class="errorbars"/><g class="lines"><path class="js-line" d="M0,24.11Q2.56,19.27 4.14,18.53C5.33,17.97 6.98,18.59 8.06,18.75C8.83,18.86 9.6,19.19 10.02,19.21C10.21,19.22 10.22,19.14 10.45,19.15C11.34,19.2 15.53,20.18 16.98,20.82C17.78,21.17 18.1,21.44 18.72,21.96C19.59,22.7 20.64,23.92 21.56,25.02C22.53,26.18 23.4,27.16 24.39,28.76C25.89,31.18 27.73,36.04 29.18,38.43C30.11,39.96 30.59,40.88 31.79,42.01C33.38,43.5 36.96,45.39 38.32,46.16C38.91,46.49 39.17,46.56 39.63,46.81C40.17,47.1 40.75,47.5 41.37,47.79C42.04,48.11 42.7,48.34 43.55,48.62C44.7,49 46.81,49.59 47.68,49.77C48.07,49.85 48.31,49.88 48.55,49.88C48.72,49.88 48.79,49.83 48.99,49.83C49.38,49.82 50.25,49.95 50.73,49.96C51.07,49.97 51.22,49.9 51.6,49.94C52.38,50.01 53.98,50.62 55.09,50.69C56.08,50.75 57.52,50.46 57.92,50.43C58.03,50.42 58.02,50.43 58.13,50.42C58.59,50.38 60.92,50.02 61.62,49.99C61.92,49.98 62.01,50 62.27,50.02C62.67,50.06 63.44,50.19 63.79,50.24C63.98,50.27 64.01,50.28 64.23,50.3C64.95,50.36 67.8,50.45 68.8,50.44C69.29,50.44 69.57,50.4 69.89,50.39C70.13,50.38 70.23,50.39 70.54,50.37C71.27,50.33 73.38,50.16 74.25,50.09C74.72,50.05 74.9,50.06 75.33,50C75.97,49.92 76.83,49.75 77.73,49.57C78.88,49.34 80.34,49.11 81.65,48.73C83.03,48.33 84.85,47.49 85.79,47.19C86.26,47.04 86.44,46.99 86.87,46.91C87.51,46.79 88.28,46.84 89.27,46.6C90.97,46.19 96.02,44.21 96.02,44.21C96.02,44.21 96.02,44.21 96.02,44.21C96.02,44.21 100.59,42.24 100.59,42.24C100.59,42.24 100.59,42.24 100.59,42.24C100.59,42.24 101.03,42.36 101.46,42.39C102.62,42.47 105.77,42.6 107.99,42.21C110.41,41.78 113.22,40.73 115.4,39.72C117.29,38.84 119.32,37.16 120.4,36.67C120.88,36.45 120.99,36.49 121.49,36.32C122.64,35.94 125.6,34.99 127.15,34.4C128.26,33.97 129.25,33.29 129.98,33.19C130.42,33.13 130.59,33.24 131.07,33.34C132.04,33.54 134.34,34.4 135.43,34.52C136.06,34.59 136.31,34.44 136.95,34.44C138.06,34.43 139.82,34.72 141.52,34.62C143.7,34.5 147.26,33.86 148.93,33.49C149.8,33.3 150.27,33.02 150.89,32.92C151.42,32.83 151.83,32.85 152.41,32.84C153.21,32.83 154.63,32.93 155.24,32.91C155.53,32.9 155.6,32.85 155.89,32.85C156.44,32.85 157.48,32.94 158.29,33.05C159.15,33.17 159.87,33.44 160.9,33.57C162.34,33.75 164.97,33.75 166.13,33.85C166.71,33.9 166.82,33.94 167.43,34.01C168.91,34.18 173.04,34.82 175.05,34.79C176.37,34.77 177.31,34.44 178.32,34.35C179.18,34.27 179.86,34.25 180.72,34.22C181.72,34.18 182.86,34.21 183.98,34.14C185.18,34.07 186.34,33.96 187.68,33.79C189.28,33.59 191.43,33.13 192.91,32.98C193.99,32.87 194.62,32.93 195.74,32.85C197.39,32.74 200.73,32.41 201.84,32.3C202.26,32.26 202.38,32.24 202.71,32.2C203.15,32.15 203.59,32.12 204.23,32.05C205.34,31.93 207.87,31.58 208.8,31.51C209.2,31.48 209.27,31.53 209.67,31.49C210.6,31.41 213.71,30.88 214.25,30.79C214.37,30.77 214.35,30.77 214.46,30.75C214.9,30.68 216.81,30.42 217.73,30.27C218.4,30.16 218.93,30.05 219.47,29.94C219.94,29.84 220.3,29.75 220.78,29.64C221.37,29.5 222.26,29.28 222.74,29.17C223.01,29.11 223.07,29.09 223.39,29.02C224.27,28.83 227.28,28.28 228.4,28.02C228.98,27.89 229.35,27.82 229.7,27.68C229.97,27.57 230.08,27.44 230.36,27.3C230.8,27.07 231.58,26.62 232.1,26.47C232.5,26.36 232.82,26.44 233.19,26.35C233.61,26.25 234.04,26.04 234.49,25.85C234.98,25.63 236.02,25.1 236.02,25.1C236.02,25.1 236.02,25.1 236.02,25.1C236.02,25.1 238.44,24.93 239.28,24.95C239.82,24.96 240.15,25.04 240.59,25.08C241.03,25.12 241.58,25.17 241.9,25.17C242.08,25.17 242.21,25.14 242.33,25.13C242.42,25.12 242.44,25.13 242.55,25.11C242.92,25.04 244.21,24.5 244.95,24.43C245.57,24.37 246.11,24.55 246.69,24.6C247.27,24.65 247.99,24.73 248.43,24.74C248.7,24.75 248.85,24.75 249.08,24.72C249.35,24.69 249.57,24.62 249.95,24.53C250.69,24.35 252.48,23.87 253.22,23.66C253.6,23.55 253.77,23.46 254.09,23.41C254.48,23.35 254.91,23.42 255.4,23.36C256.03,23.29 256.94,23.08 257.57,22.95C258.06,22.85 258.52,22.74 258.88,22.64C259.14,22.57 259.33,22.5 259.53,22.45C259.69,22.41 259.78,22.39 259.97,22.35C260.32,22.27 260.94,22.12 261.49,21.99C262.15,21.83 262.91,21.63 263.67,21.44C264.5,21.23 265.52,20.91 266.28,20.76C266.85,20.65 267.32,20.64 267.81,20.55C268.26,20.47 268.86,20.3 269.11,20.24C269.21,20.22 269.26,20.21 269.33,20.19C269.4,20.17 269.47,20.16 269.55,20.14C269.67,20.11 269.82,20.04 269.98,20C270.18,19.95 270.42,19.91 270.64,19.87C270.86,19.83 271.04,19.79 271.29,19.74C271.65,19.67 272.16,19.52 272.6,19.5C273.03,19.48 273.58,19.58 273.9,19.6C274.09,19.61 274.34,19.61 274.34,19.61C274.34,19.61 274.34,19.61 274.34,19.61C274.34,19.61 275.89,19.62 276.52,19.64C277.01,19.66 277.33,19.76 277.82,19.72Q278.46,19.67 280,19.22" style="vector-effect: none; fill: none; stroke: rgb(238, 58, 67); stroke-opacity: 1; stroke-width: 5px; opacity: 1;"/></g><g class="points"/><g class="text"/></g><g class="trace scatter trace89e651" style="stroke-miterlimit: 2; opacity: 1;"><g class="fills"/><g class="errorbars"/><g class="lines"><path class="js-line" d="M0,55.63Q2.78,56.41 4.14,56.45C5.46,56.49 6.98,55.98 8.06,55.91C8.82,55.86 9.6,55.94 10.02,55.93C10.22,55.92 10.22,55.9 10.45,55.9C11.34,55.91 15.5,56.43 16.98,56.55C17.74,56.61 18.07,56.6 18.72,56.65C19.55,56.72 20.62,56.82 21.56,56.95C22.51,57.08 23.32,57.26 24.39,57.44C25.78,57.68 27.82,58.15 29.18,58.26C30.18,58.34 30.73,58.16 31.79,58.22C33.48,58.32 36.97,59.03 38.32,59.12C38.92,59.16 39.16,59.11 39.63,59.11C40.17,59.11 40.76,59.18 41.37,59.15C42.06,59.12 42.71,58.94 43.55,58.9C44.71,58.84 46.81,58.92 47.68,58.95C48.08,58.96 48.31,58.99 48.55,59C48.72,59 48.79,59 48.99,59C49.38,58.99 50.25,58.97 50.73,58.94C51.07,58.92 51.21,58.9 51.6,58.86C52.38,58.77 53.99,58.45 55.09,58.4C56.08,58.35 57.52,58.48 57.92,58.5C58.03,58.5 58.02,58.51 58.13,58.51C58.59,58.52 60.92,58.46 61.62,58.43C61.92,58.42 62.01,58.41 62.27,58.39C62.67,58.37 63.44,58.31 63.79,58.3C63.98,58.29 64.01,58.3 64.23,58.3C64.95,58.3 67.8,58.26 68.8,58.29C69.29,58.31 69.57,58.36 69.89,58.36C70.13,58.36 70.24,58.38 70.54,58.33C71.27,58.22 73.38,57.62 74.25,57.38C74.72,57.25 74.9,57.17 75.33,57.06C75.97,56.9 76.83,56.76 77.73,56.55C78.88,56.28 80.32,55.79 81.65,55.57C83,55.35 84.86,55.28 85.79,55.23C86.27,55.2 86.44,55.25 86.87,55.2C87.51,55.13 88.26,54.83 89.27,54.71C90.94,54.52 96.02,54.53 96.02,54.53C96.02,54.53 96.02,54.53 96.02,54.53C96.02,54.53 100.59,54.34 100.59,54.34C100.59,54.34 100.59,54.34 100.59,54.34C100.59,54.34 101.03,54.22 101.46,54.14C102.62,53.91 105.74,53.35 107.99,53.07C110.38,52.77 113.17,52.38 115.4,52.43C117.23,52.47 119.34,53.05 120.4,53.07C120.89,53.08 120.98,52.97 121.49,52.97C122.64,52.96 125.59,53.18 127.15,53.43C128.26,53.61 129.25,54.05 129.98,54.1C130.43,54.13 130.59,54.08 131.07,53.99C132.04,53.82 134.35,53.05 135.43,52.86C136.06,52.75 136.31,52.81 136.95,52.71C138.07,52.54 139.81,52.08 141.52,51.78C143.69,51.39 147.25,50.9 148.93,50.65C149.79,50.52 150.28,50.48 150.89,50.37C151.43,50.27 151.82,50.09 152.41,50.05C153.2,49.99 154.63,50.21 155.24,50.24C155.53,50.25 155.61,50.23 155.89,50.26C156.44,50.31 157.47,50.53 158.29,50.61C159.14,50.69 159.88,50.64 160.9,50.71C162.34,50.81 164.97,51.25 166.13,51.2C166.71,51.17 166.82,51.09 167.43,50.96C168.92,50.65 173.03,49.52 175.05,49.18C176.36,48.96 177.32,48.98 178.32,48.85C179.18,48.74 179.86,48.57 180.72,48.47C181.72,48.35 182.86,48.38 183.98,48.22C185.18,48.05 186.34,47.73 187.68,47.42C189.28,47.04 191.42,46.27 192.91,46.09C193.99,45.96 194.62,46.16 195.74,46.11C197.39,46.04 200.73,45.69 201.84,45.55C202.26,45.5 202.38,45.44 202.71,45.41C203.15,45.38 203.59,45.47 204.23,45.42C205.35,45.33 207.87,44.77 208.8,44.65C209.2,44.6 209.27,44.61 209.67,44.57C210.6,44.48 213.71,44.21 214.25,44.12C214.37,44.1 214.35,44.09 214.46,44.07C214.9,43.99 216.81,43.77 217.73,43.59C218.4,43.46 218.94,43.33 219.47,43.17C219.94,43.03 220.3,42.86 220.78,42.69C221.37,42.49 222.26,42.17 222.74,42.04C223.01,41.97 223.07,41.92 223.39,41.9C224.27,41.83 227.28,42.05 228.4,42.19C228.98,42.26 229.34,42.36 229.7,42.44C229.96,42.5 230.09,42.57 230.36,42.61C230.8,42.68 231.59,42.73 232.1,42.71C232.51,42.69 232.81,42.61 233.19,42.54C233.61,42.46 234.04,42.32 234.49,42.27C234.98,42.21 236.02,42.23 236.02,42.23C236.02,42.23 236.02,42.23 236.02,42.23C236.02,42.23 238.44,41.49 239.28,41.24C239.81,41.08 240.15,40.94 240.59,40.87C241.02,40.81 241.58,40.86 241.9,40.84C242.08,40.83 242.21,40.81 242.33,40.79C242.42,40.78 242.44,40.79 242.55,40.76C242.92,40.66 244.21,40.12 244.95,39.83C245.58,39.59 246.11,39.35 246.69,39.15C247.27,38.96 247.99,38.76 248.43,38.66C248.7,38.6 248.85,38.6 249.08,38.54C249.35,38.47 249.57,38.4 249.95,38.27C250.69,38.03 252.48,37.36 253.22,37.13C253.6,37.01 253.77,36.97 254.09,36.89C254.48,36.79 254.91,36.72 255.4,36.6C256.03,36.45 256.94,36.24 257.57,36.04C258.07,35.88 258.52,35.72 258.88,35.55C259.14,35.43 259.33,35.29 259.53,35.18C259.69,35.09 259.78,35.06 259.97,34.96C260.32,34.78 260.93,34.46 261.49,34.19C262.15,33.88 262.92,33.59 263.67,33.21C264.51,32.79 265.52,32.14 266.28,31.75C266.85,31.45 267.32,31.25 267.81,31.02C268.26,30.81 268.86,30.54 269.11,30.43C269.21,30.39 269.26,30.36 269.33,30.34C269.4,30.32 269.47,30.31 269.55,30.29C269.67,30.26 269.82,30.19 269.98,30.14C270.18,30.08 270.42,30.03 270.64,29.97C270.86,29.91 271.03,29.85 271.29,29.79C271.65,29.7 272.16,29.58 272.6,29.49C273.03,29.4 273.58,29.28 273.9,29.23C274.08,29.2 274.34,29.18 274.34,29.18C274.34,29.18 274.34,29.18 274.34,29.18C274.34,29.18 275.89,28.81 276.52,28.67C277.01,28.56 277.33,28.49 277.82,28.4Q278.45,28.29 280,28.09" style="vector-effect: none; fill: none; stroke: rgb(0, 180, 219); stroke-opacity: 1; stroke-width: 5px; opacity: 1;"/></g><g class="points"/><g class="text"/></g><g class="trace scatter trace75f315" style="stroke-miterlimit: 2; opacity: 1;"><g class="fills"/><g class="errorbars"/><g class="lines"><path class="js-line" d="M29.18,43.45Q30.6,39.97 31.79,37.99C33.39,35.32 36.9,30.57 38.32,29.1C38.87,28.53 39.16,28.44 39.63,28.06C40.17,27.62 40.77,27.17 41.37,26.63C42.07,26.01 42.71,25.35 43.55,24.52C44.71,23.37 46.8,21.18 47.68,20.35C48.07,19.98 48.3,19.78 48.55,19.58C48.72,19.45 48.8,19.41 48.99,19.26C49.38,18.94 50.24,18.07 50.73,17.67C51.06,17.4 51.18,17.18 51.6,17.03C52.35,16.76 53.99,16.92 55.09,16.81C56.08,16.71 57.52,16.52 57.92,16.42C58.03,16.39 58.02,16.38 58.13,16.34C58.59,16.17 60.92,15.34 61.62,15.13C61.92,15.04 62.01,15.05 62.27,14.96C62.68,14.82 63.43,14.42 63.79,14.28C63.98,14.21 64,14.2 64.23,14.13C64.95,13.92 67.8,13.28 68.8,12.99C69.29,12.85 69.57,12.69 69.89,12.63C70.13,12.58 70.24,12.62 70.54,12.58C71.27,12.48 73.39,12.08 74.25,11.82C74.73,11.67 74.89,11.49 75.33,11.37C75.96,11.2 76.83,11.21 77.73,11.09C78.88,10.94 80.33,10.51 81.65,10.53C83.01,10.55 84.86,11.09 85.79,11.23C86.27,11.3 86.44,11.33 86.87,11.36C87.51,11.4 88.28,11.28 89.27,11.4C90.96,11.61 96.02,13 96.02,13C96.02,13 96.02,13 96.02,13C96.02,13 100.59,14.19 100.59,14.19C100.59,14.19 100.59,14.19 100.59,14.19C100.59,14.19 101.04,14.32 101.46,14.46C102.63,14.84 105.77,15.76 107.99,16.64C110.41,17.6 113.14,19.22 115.4,20.09C117.2,20.78 119.33,21.42 120.4,21.63C120.89,21.72 120.98,21.7 121.49,21.72C122.64,21.77 125.59,21.87 127.15,21.72C128.26,21.61 129.26,21.2 129.98,21.18C130.43,21.17 130.59,21.25 131.07,21.34C132.04,21.52 134.35,22.1 135.43,22.29C136.06,22.4 136.31,22.37 136.95,22.48C138.07,22.68 139.83,23.05 141.52,23.55C143.71,24.2 147.25,25.67 148.93,26.24C149.79,26.53 150.28,26.65 150.89,26.85C151.43,27.03 151.82,27.37 152.41,27.39C153.2,27.42 154.63,26.78 155.24,26.63C155.53,26.56 155.61,26.56 155.89,26.48C156.44,26.33 157.47,25.92 158.29,25.68C159.14,25.44 159.89,25.32 160.9,25.04C162.35,24.64 164.97,23.72 166.13,23.41C166.7,23.26 166.82,23.26 167.43,23.12C168.92,22.78 173.04,21.84 175.05,21.31C176.37,20.96 177.31,20.56 178.32,20.36C179.17,20.19 179.86,20.13 180.72,20.08C181.72,20.02 182.86,19.96 183.98,20.05C185.18,20.15 186.35,20.39 187.68,20.71C189.28,21.1 191.42,22.2 192.91,22.33C193.99,22.43 194.62,22.09 195.74,21.98C197.39,21.82 200.72,21.58 201.84,21.52C202.26,21.5 202.38,21.53 202.71,21.49C203.15,21.44 203.58,21.26 204.23,21.19C205.34,21.06 207.87,21.1 208.8,21.05C209.2,21.03 209.27,20.99 209.67,20.99C210.6,20.98 213.71,21.19 214.25,21.22C214.37,21.23 214.35,21.22 214.46,21.23C214.9,21.26 216.81,21.38 217.73,21.47C218.4,21.54 218.93,21.59 219.47,21.68C219.94,21.76 220.3,21.82 220.78,21.95C221.37,22.11 222.26,22.45 222.74,22.61C223.02,22.7 223.07,22.71 223.39,22.83C224.28,23.15 227.27,24.41 228.4,24.78C228.97,24.96 229.34,25.02 229.7,25.12C229.96,25.19 230.08,25.26 230.36,25.3C230.8,25.37 231.59,25.3 232.1,25.35C232.51,25.39 232.82,25.42 233.19,25.54C233.61,25.67 234.04,25.91 234.49,26.14C234.98,26.39 236.02,27 236.02,27C236.02,27 236.02,27 236.02,27C236.02,27 238.44,27.85 239.28,28.18C239.82,28.39 240.15,28.57 240.59,28.74C241.02,28.91 241.58,29.1 241.9,29.21C242.08,29.27 242.21,29.31 242.33,29.35C242.42,29.38 242.44,29.39 242.55,29.43C242.92,29.56 244.21,30.06 244.95,30.25C245.57,30.41 246.11,30.45 246.69,30.56C247.27,30.67 247.99,30.83 248.43,30.93C248.7,30.99 248.85,31.05 249.08,31.08C249.35,31.12 249.57,31.09 249.95,31.14C250.69,31.24 252.48,31.6 253.22,31.77C253.6,31.86 253.77,31.94 254.09,32.01C254.48,32.09 254.91,32.12 255.4,32.19C256.03,32.28 256.94,32.37 257.57,32.52C258.07,32.64 258.52,32.84 258.88,32.94C259.13,33.01 259.33,33.05 259.53,33.09C259.69,33.12 259.78,33.11 259.97,33.15C260.33,33.23 260.94,33.47 261.49,33.66C262.15,33.88 262.92,34.09 263.67,34.39C264.51,34.73 265.51,35.36 266.28,35.61C266.84,35.79 267.33,35.77 267.81,35.9C268.27,36.02 268.86,36.25 269.11,36.35C269.21,36.39 269.26,36.42 269.33,36.44C269.4,36.46 269.47,36.46 269.55,36.48C269.67,36.51 269.82,36.59 269.98,36.64C270.17,36.7 270.42,36.73 270.64,36.79C270.86,36.85 271.04,36.93 271.29,37.02C271.65,37.15 272.16,37.35 272.6,37.48C273.03,37.6 273.58,37.68 273.9,37.78C274.09,37.84 274.34,37.95 274.34,37.95C274.34,37.95 274.34,37.95 274.34,37.95C274.34,37.95 275.88,38.86 276.52,39.17C277,39.41 277.32,39.58 277.82,39.72Q278.44,39.89 280,40.02" style="vector-effect: none; fill: none; stroke: rgb(138, 44, 81); stroke-opacity: 1; stroke-width: 5px; opacity: 1;"/></g><g class="points"/><g class="text"/></g><g class="trace scatter traced7e96a" style="stroke-miterlimit: 2; opacity: 1;"><g class="fills"/><g class="errorbars"/><g class="lines"><path class="js-line" d="M81.65,70.54Q84.82,67.55 85.79,66.92C86.24,66.63 86.43,66.56 86.87,66.42C87.5,66.22 88.27,66.18 89.27,65.96C90.95,65.59 96.02,64.27 96.02,64.27C96.02,64.27 96.02,64.27 96.02,64.27C96.02,64.27 100.59,63.57 100.59,63.57C100.59,63.57 100.59,63.57 100.59,63.57C100.59,63.57 101.03,63.7 101.46,63.72C102.62,63.78 105.76,63.6 107.99,63.23C110.4,62.83 113.18,61.95 115.4,61.32C117.24,60.8 119.33,59.91 120.4,59.78C120.89,59.72 120.98,59.83 121.49,59.85C122.64,59.89 125.59,59.96 127.15,59.91C128.26,59.87 129.26,59.78 129.98,59.7C130.43,59.65 130.59,59.62 131.07,59.54C132.04,59.38 134.35,58.99 135.43,58.77C136.07,58.64 136.3,58.52 136.95,58.42C138.06,58.26 139.82,58.27 141.52,58.12C143.69,57.93 147.25,57.5 148.93,57.33C149.79,57.24 150.28,57.13 150.89,57.15C151.43,57.17 151.82,57.34 152.41,57.39C153.21,57.46 154.63,57.42 155.24,57.46C155.53,57.48 155.6,57.52 155.89,57.53C156.44,57.54 157.47,57.39 158.29,57.39C159.14,57.39 159.88,57.55 160.9,57.55C162.34,57.55 164.97,57.25 166.13,57.25C166.71,57.25 166.82,57.29 167.43,57.32C168.91,57.39 173.04,57.53 175.05,57.58C176.37,57.61 177.32,57.55 178.32,57.62C179.18,57.68 179.86,57.93 180.72,57.95C181.72,57.98 182.86,57.7 183.98,57.69C185.17,57.68 186.34,57.95 187.68,57.91C189.28,57.86 191.43,57.28 192.91,57.26C194,57.25 194.62,57.55 195.74,57.55C197.39,57.54 200.73,57.1 201.84,56.87C202.27,56.78 202.38,56.7 202.71,56.61C203.14,56.5 203.58,56.35 204.23,56.27C205.34,56.13 207.87,56.15 208.8,56.1C209.2,56.08 209.27,56.07 209.67,56.04C210.6,55.98 213.71,55.8 214.25,55.77C214.37,55.76 214.35,55.77 214.46,55.76C214.9,55.73 216.81,55.6 217.73,55.46C218.4,55.36 218.93,55.18 219.47,55.09C219.94,55.02 220.3,55.02 220.78,54.95C221.37,54.87 222.26,54.71 222.74,54.61C223.02,54.55 223.07,54.49 223.39,54.46C224.27,54.38 227.27,54.63 228.4,54.68C228.97,54.7 229.34,54.7 229.7,54.73C229.96,54.75 230.09,54.81 230.36,54.8C230.8,54.79 231.59,54.61 232.1,54.52C232.51,54.45 232.81,54.37 233.19,54.32C233.6,54.27 234.04,54.28 234.49,54.23C234.98,54.18 236.02,54 236.02,54C236.02,54 236.02,54 236.02,54C236.02,54 238.43,53.28 239.28,53.14C239.81,53.05 240.15,53.1 240.59,53.05C241.03,53 241.58,52.89 241.9,52.85C242.08,52.83 242.21,52.8 242.33,52.8C242.42,52.8 242.44,52.82 242.55,52.81C242.92,52.79 244.21,52.49 244.95,52.44C245.57,52.39 246.11,52.49 246.69,52.45C247.27,52.41 247.99,52.26 248.43,52.22C248.7,52.19 248.85,52.21 249.08,52.18C249.35,52.15 249.57,52.06 249.95,52.01C250.69,51.92 252.48,51.93 253.22,51.85C253.6,51.81 253.77,51.75 254.09,51.7C254.48,51.64 254.91,51.57 255.4,51.51C256.03,51.44 256.94,51.35 257.57,51.33C258.06,51.32 258.52,51.36 258.88,51.36C259.13,51.36 259.33,51.35 259.53,51.36C259.69,51.37 259.78,51.4 259.97,51.4C260.32,51.41 260.94,51.35 261.49,51.32C262.15,51.28 262.91,51.21 263.67,51.17C264.5,51.13 265.53,51.06 266.28,51.09C266.86,51.11 267.32,51.24 267.81,51.26C268.26,51.28 268.86,51.24 269.11,51.23C269.21,51.23 269.26,51.22 269.33,51.22C269.4,51.22 269.46,51.23 269.55,51.24C269.67,51.25 269.82,51.26 269.98,51.28C270.18,51.31 270.42,51.37 270.64,51.4C270.86,51.43 271.04,51.42 271.29,51.44C271.65,51.47 272.16,51.53 272.6,51.55C273.03,51.57 273.58,51.6 273.9,51.58C274.09,51.57 274.34,51.51 274.34,51.51C274.34,51.51 274.34,51.51 274.34,51.51C274.34,51.51 275.88,51.16 276.52,51.05C277.01,50.97 277.33,50.9 277.82,50.88Q278.45,50.85 280,50.96" style="vector-effect: none; fill: none; stroke: rgb(153, 51, 0); stroke-opacity: 1; stroke-width: 5px; opacity: 1;"/></g><g class="points"/><g class="text"/></g><g class="trace scatter trace931a71" style="stroke-miterlimit: 2; opacity: 1;"><g class="fills"/><g class="errorbars"/><g class="lines"><path class="js-line" d="M0,5.39Q2.8,5.71 4.14,5.48C5.49,5.25 6.96,4.28 8.06,4.01C8.81,3.82 9.62,3.64 10.02,3.75C10.23,3.8 10.22,3.91 10.45,4.07C11.33,4.67 15.47,7.42 16.98,8.11C17.72,8.44 18.08,8.39 18.72,8.64C19.56,8.97 20.64,9.47 21.56,10.03C22.53,10.62 23.29,11.44 24.39,12.12C25.75,12.95 27.87,13.65 29.18,14.52C30.23,15.21 30.74,15.79 31.79,16.73C33.49,18.26 36.92,21.98 38.32,22.98C38.88,23.38 39.16,23.43 39.63,23.66C40.17,23.92 40.78,24.1 41.37,24.47C42.08,24.91 42.69,25.61 43.55,26.22C44.69,27.03 46.8,28.4 47.68,28.82C48.06,29 48.31,29 48.55,29.11C48.73,29.19 48.79,29.26 48.99,29.36C49.37,29.55 50.25,29.87 50.73,30.11C51.08,30.28 51.21,30.4 51.6,30.6C52.37,30.99 54,31.59 55.09,32.15C56.1,32.67 57.51,33.59 57.92,33.8C58.03,33.86 58.02,33.84 58.13,33.9C58.59,34.14 60.92,35.54 61.62,35.93C61.92,36.1 62,36.18 62.27,36.28C62.66,36.42 63.44,36.49 63.79,36.57C63.98,36.61 64.01,36.63 64.23,36.68C64.95,36.85 67.81,37.41 68.8,37.74C69.3,37.9 69.57,38.14 69.89,38.21C70.13,38.26 70.24,38.16 70.54,38.22C71.28,38.36 73.38,39.3 74.25,39.6C74.72,39.76 74.91,39.76 75.33,39.94C75.98,40.22 76.81,40.86 77.73,41.28C78.86,41.8 80.37,42.08 81.65,42.75C83.06,43.49 84.84,45.07 85.79,45.62C86.25,45.89 86.43,45.97 86.87,46.14C87.5,46.38 88.27,46.54 89.27,46.84C90.95,47.35 96.02,48.94 96.02,48.94C96.02,48.94 96.02,48.94 96.02,48.94C96.02,48.94 100.59,50.1 100.59,50.1C100.59,50.1 100.59,50.1 100.59,50.1C100.59,50.1 101.04,50.09 101.46,50.09C102.62,50.08 105.75,50.14 107.99,50.06C110.38,49.98 113.17,49.53 115.4,49.59C117.23,49.64 119.34,50.16 120.4,50.18C120.89,50.19 120.99,50.08 121.49,50.1C122.64,50.14 125.59,50.66 127.15,50.96C128.26,51.17 129.25,51.58 129.98,51.62C130.43,51.65 130.59,51.56 131.07,51.5C132.04,51.39 134.35,50.96 135.43,50.95C136.07,50.94 136.31,51.09 136.95,51.1C138.06,51.12 139.81,50.87 141.52,50.84C143.69,50.8 147.25,50.84 148.93,50.96C149.8,51.02 150.28,51.16 150.89,51.21C151.43,51.25 151.83,51.18 152.41,51.24C153.21,51.32 154.63,51.65 155.24,51.74C155.53,51.78 155.6,51.8 155.89,51.81C156.44,51.83 157.48,51.78 158.29,51.69C159.14,51.6 159.88,51.34 160.9,51.24C162.34,51.1 164.97,51.2 166.13,51.11C166.71,51.06 166.82,51.01 167.43,50.93C168.91,50.74 173.05,49.89 175.05,50.08C176.38,50.21 177.31,50.85 178.32,51.09C179.17,51.29 179.86,51.34 180.72,51.49C181.72,51.67 182.86,52.03 183.98,52.09C185.17,52.15 186.34,51.76 187.68,51.79C189.27,51.83 191.43,52.35 192.91,52.48C193.99,52.58 194.62,52.53 195.74,52.62C197.39,52.75 200.73,53.19 201.84,53.31C202.26,53.36 202.38,53.37 202.71,53.4C203.15,53.44 203.59,53.52 204.23,53.55C205.34,53.61 207.87,53.55 208.8,53.59C209.2,53.61 209.27,53.62 209.67,53.65C210.6,53.73 213.71,54.09 214.25,54.12C214.37,54.13 214.35,54.12 214.46,54.12C214.9,54.12 216.81,54.12 217.73,54.16C218.4,54.19 218.93,54.27 219.47,54.3C219.94,54.32 220.3,54.3 220.78,54.32C221.37,54.35 222.26,54.44 222.74,54.48C223.02,54.5 223.07,54.53 223.39,54.54C224.27,54.56 227.27,54.3 228.4,54.33C228.97,54.35 229.34,54.41 229.7,54.46C229.96,54.49 230.09,54.51 230.36,54.57C230.8,54.67 231.59,54.93 232.1,55.07C232.51,55.18 232.81,55.28 233.19,55.37C233.6,55.47 234.04,55.54 234.49,55.64C234.98,55.75 236.02,55.99 236.02,55.99C236.02,55.99 236.02,55.99 236.02,55.99C236.02,55.99 238.43,56.9 239.28,57.16C239.81,57.33 240.15,57.42 240.59,57.51C241.02,57.6 241.58,57.67 241.9,57.7C242.08,57.72 242.21,57.72 242.33,57.71C242.42,57.71 242.44,57.69 242.55,57.68C242.92,57.65 244.22,57.65 244.95,57.58C245.58,57.52 246.11,57.43 246.69,57.33C247.27,57.23 247.99,57.07 248.43,57C248.7,56.96 248.85,56.93 249.08,56.91C249.35,56.89 249.57,56.92 249.95,56.9C250.69,56.86 252.48,56.62 253.22,56.57C253.6,56.55 253.77,56.55 254.09,56.55C254.48,56.55 254.91,56.57 255.4,56.6C256.03,56.63 256.94,56.74 257.57,56.75C258.06,56.76 258.52,56.71 258.88,56.7C259.13,56.7 259.33,56.7 259.53,56.7C259.69,56.7 259.78,56.69 259.97,56.69C260.32,56.69 260.94,56.72 261.49,56.73C262.15,56.74 262.91,56.76 263.67,56.75C264.5,56.74 265.53,56.68 266.28,56.66C266.86,56.65 267.32,56.63 267.81,56.64C268.26,56.65 268.86,56.67 269.11,56.69C269.21,56.7 269.26,56.71 269.33,56.71C269.4,56.71 269.46,56.71 269.55,56.71C269.67,56.71 269.82,56.7 269.98,56.69C270.18,56.67 270.42,56.64 270.64,56.61C270.86,56.58 271.04,56.55 271.29,56.53C271.65,56.5 272.16,56.5 272.6,56.48C273.03,56.46 273.58,56.4 273.9,56.39C274.09,56.38 274.34,56.38 274.34,56.38C274.34,56.38 274.34,56.38 274.34,56.38C274.34,56.38 275.89,56.45 276.52,56.46C277.01,56.47 277.33,56.45 277.82,56.46Q278.45,56.48 280,56.59" style="vector-effect: none; fill: none; stroke: rgb(97, 162, 41); stroke-opacity: 1; stroke-width: 5px; opacity: 1;"/></g><g class="points"/><g class="text"/></g></g></g><g class="overplot"/><path class="xlines-above crisp" d="M0,0" style="fill: none;"/><path class="ylines-above crisp" d="M0,0" style="fill: none;"/><g class="overlines-above"/><g class="xaxislayer-above"/><g class="yaxislayer-above"/><g class="overaxes-above"/></g></g><g class="polarlayer"/><g class="smithlayer"/><g class="ternarylayer"/><g class="geolayer"/><g class="funnelarealayer"/><g class="pielayer"/><g class="iciclelayer"/><g class="treemaplayer"/><g class="sunburstlayer"/><g class="glimages"/><defs id="topdefs-9eab5c"><g class="clips"/></defs><g class="layer-above"><g class="imagelayer"/><g class="shapelayer"/></g><g class="infolayer"><g class="g-gtitle"><text class="gtitle" x="15" y="25" text-anchor="start" dy="0em" style="font-family: Ubuntu, verdana, arial, sans-serif; font-size: 16px; fill: rgb(233, 84, 32); opacity: 1; font-weight: normal; white-space: pre;">NRSR 2020-2023</text></g><g class="g-xtitle"/><g class="g-ytitle"/></g></svg>