<svg class="main-svg" xmlns="http://www.w3.org/2000/svg" xmlns:xlink="http://www.w3.org/1999/xlink" width="400" height="400" style="" viewBox="0 0 400 400"><rect x="0" y="0" width="400" height="400" style="fill: rgb(255, 255, 255); fill-opacity: 1;"/><defs id="defs-348609"><g class="clips"><clipPath id="clip348609xyplot" class="plotclip"><rect width="204" height="330"/></clipPath><clipPath class="axesclip" id="clip348609x"><rect x="50" y="0" width="204" height="400"/></clipPath><clipPath class="axesclip" id="clip348609y"><rect x="0" y="20" width="400" height="330"/></clipPath><clipPath class="axesclip" id="clip348609xy"><rect x="50" y="20" width="204" height="330"/></clipPath></g><g class="gradients"/><g class="patterns"/></defs><g class="bglayer"/><g class="layer-below"><g class="imagelayer"/><g class="shapelayer"/></g><g class="cartesianlayer"><g class="subplot xy"><g class="layer-subplot"><g class="shapelayer"/><g class="imagelayer"/></g><g class="minor-gridlayer"><g class="x"/><g class="y"/></g><g class="gridlayer"><g class="x"><path class="xgrid crisp" transform="translate(65.57,0)" d="M0,20v330" style="stroke: rgb(235, 240, 248); stroke-opacity: 1; stroke-width: 1px;"/><path class="xgrid crisp" transform="translate(112.28999999999999,0)" d="M0,20v330" style="stroke: rgb(235, 240, 248); stroke-opacity: 1; stroke-width: 1px;"/><path class="xgrid crisp" transform="translate(160.56,0)" d="M0,20v330" style="stroke: rgb(235, 240, 248); stroke-opacity: 1; stroke-width: 1px;"/><path class="xgrid crisp" transform="translate(208.84,0)" d="M0,20v330" style="stroke: rgb(235, 240, 248); stroke-opacity: 1; stroke-width: 1px;"/></g><g class="y"><path class="ygrid crisp" transform="translate(0,285.23)" d="M50,0h204" style="stroke: rgb(235, 240, 248); stroke-opacity: 1; stroke-width: 1px;"/><path class="ygrid crisp" transform="translate(0,220.45)" d="M50,0h204" style="stroke: rgb(235, 240, 248); stroke-opacity: 1; stroke-width: 1px;"/><path class="ygrid crisp" transform="translate(0,155.68)" d="M50,0h204" style="stroke: rgb(235, 240, 248); stroke-opacity: 1; stroke-width: 1px;"/><path class="ygrid crisp" transform="translate(0,90.91)" d="M50,0h204" style="stroke: rgb(235, 240, 248); stroke-opacity: 1; stroke-width: 1px;"/><path class="ygrid crisp" transform="translate(0,26.14)" d="M50,0h204" style="stroke: rgb(235, 240, 248); stroke-opacity: 1; stroke-width: 1px;"/></g></g><g class="zerolinelayer"><path class="yzl zl crisp" transform="translate(0,350)" d="M50,0h204" style="stroke: rgb(235, 240, 248); stroke-opacity: 1; stroke-width: 2px;"/></g><path class="xlines-below"/><path class="ylines-below"/><g class="overlines-below"/><g class="xaxislayer-below"/><g class="yaxislayer-below"/><g class="overaxes-below"/><g class="plot" transform="translate(50,20)" clip-path="url(#clip348609xyplot)"><g class="scatterlayer mlayer"><g class="trace scatter trace6e8950" style="stroke-miterlimit: 2; opacity: 1;"><g class="fills"/><g class="errorbars"/><g class="lines"><path class="js-line" d="M0,98.11L1.56,103.3L3.11,103.94L4.67,102L6.23,102.65L7.79,102L9.34,103.3L12.46,102L14.02,102L17.13,102.65L18.69,109.77L21.8,111.07L23.36,114.31L26.47,116.9L28.03,115.6L31.15,116.9L32.7,116.9L37.37,116.9L38.93,114.95L40.49,114.95L42.05,113.01L43.6,124.02L45.16,122.08L46.72,127.26L48.27,127.26L51.39,125.97L52.95,125.97L57.62,125.32L59.18,131.8L60.73,136.33L62.29,136.33L70.08,138.27L71.63,138.27L79.42,137.63L80.98,136.98L84.09,122.08L85.65,122.08L88.76,120.14L90.32,120.14L93.44,120.14L94.99,116.9L96.55,113.66L98.11,113.66L101.22,112.36L102.78,109.77L109.01,109.77L110.56,107.18L113.68,107.18L115.24,101.35L118.35,101.35L119.91,83.22L126.14,49.53L127.69,49.53L129.25,49.53L130.81,52.77L132.37,52.77L133.92,50.83L137.04,52.13L138.6,55.36L144.82,56.01L146.38,41.76L151.05,51.48L152.61,51.48L155.73,51.48L157.28,55.36L163.51,65.73L165.07,65.73L177.53,65.73L179.08,61.84L180.64,56.01L182.2,56.01L185.31,56.01L186.87,54.07L188.43,42.41L189.98,41.76L196.21,44.35L197.77,48.24L199.33,63.78L200.89,57.95L202.44,50.83L204,50.18L211.79,16.5" style="vector-effect: none; fill: none; stroke: rgb(238, 58, 67); stroke-opacity: 1; stroke-width: 5px; opacity: 1;"/></g><g class="points"/><g class="text"/></g><g class="trace scatter trace8fd693" style="stroke-miterlimit: 2; opacity: 1;"><g class="fills"/><g class="errorbars"/><g class="lines"><path class="js-line" d="M0,75.44L1.56,75.44L3.11,92.28L4.67,102L6.23,124.02L7.79,123.38L9.34,112.36L10.9,123.38L12.46,123.38L17.13,124.02L18.69,136.98L20.24,144.75L21.8,138.92L24.92,140.86L26.47,140.86L28.03,138.27L29.59,140.86L37.37,140.86L38.93,142.16L42.05,142.81L43.6,136.98L46.72,140.86L48.27,140.86L52.95,140.22L54.5,140.22L56.06,140.22L57.62,145.4L62.29,117.55L63.85,115.6L66.96,112.36L68.52,112.36L70.08,108.48L71.63,108.48L74.75,108.48L76.31,104.59L77.86,101.35L79.42,101.35L80.98,98.11L82.53,107.18L84.09,110.42L85.65,110.42L88.76,112.36L90.32,112.36L93.44,112.36L94.99,116.9L98.11,126.61L99.66,125.97L105.89,124.67L107.45,124.67L113.68,125.32L115.24,127.91L118.35,127.91L119.91,137.63L126.14,165.48L127.69,165.48L129.25,165.48L130.81,177.78L132.37,177.78L133.92,176.49L137.04,179.08L138.6,182.97L146.38,182.32L151.05,164.83L155.73,164.83L157.28,162.24L158.84,162.89L160.4,165.48L165.07,168.07L166.63,168.07L177.53,168.07L179.08,169.36L182.2,171.31L183.76,171.31L185.31,171.31L186.87,172.6L188.43,179.08L189.98,179.08L191.54,178.43L193.1,174.55L197.77,173.9L199.33,166.13L200.89,162.89L202.44,167.42L204,169.36L211.79,26.86" style="vector-effect: none; fill: none; stroke: rgb(138, 44, 81); stroke-opacity: 1; stroke-width: 5px; opacity: 1;"/></g><g class="points"/><g class="text"/></g><g class="trace scatter trace832b61" style="stroke-miterlimit: 2; opacity: 1;"><g class="fills"/><g class="errorbars"/><g class="lines"><path class="js-line" d="M0,202.4L1.56,197.86L3.11,188.8L4.67,181.02L6.23,157.06L7.79,156.41L9.34,161.59L10.9,156.41L12.46,156.41L15.57,156.41L17.13,155.11L20.24,123.38L21.8,127.91L24.92,121.43L26.47,120.78L28.03,124.02L29.59,120.78L37.37,120.78L38.93,118.84L40.49,118.84L42.05,120.78L46.72,102L48.27,102L52.95,101.35L54.5,101.35L56.06,101.35L57.62,99.41L62.29,111.72L63.85,113.66L71.63,118.84L73.19,118.84L76.31,118.84L77.86,120.14L79.42,120.14L80.98,122.73L82.53,121.43L84.09,122.08L93.44,122.08L94.99,120.14L98.11,113.66L99.66,114.95L104.34,117.55L105.89,117.55L113.68,118.19L115.24,120.78L118.35,120.78L119.91,127.91L124.58,125.32L126.14,127.26L129.25,127.26L130.81,112.36L132.37,112.36L133.92,114.95L137.04,111.72L138.6,103.94L144.82,102.65L146.38,117.55L151.05,125.97L152.61,125.97L157.28,125.32L158.84,121.43L160.4,114.31L163.51,109.12L177.53,109.12L179.08,111.07L180.64,114.95L182.2,114.95L186.87,115.6L188.43,120.78L196.21,124.02L197.77,119.49L199.33,113.01L200.89,121.43L202.44,123.38L204,122.73L211.79,298.91" style="vector-effect: none; fill: none; stroke: rgb(0, 180, 219); stroke-opacity: 1; stroke-width: 5px; opacity: 1;"/></g><g class="points"/><g class="text"/></g><g class="trace scatter tracee8a955" style="stroke-miterlimit: 2; opacity: 1;"><g class="fills"/><g class="errorbars"/><g class="lines"><path class="js-line" d="M0,296.32L1.56,296.32L3.11,287.9L4.67,287.25L6.23,288.55L7.79,290.49L9.34,295.02L10.9,290.49L12.46,290.49L17.13,290.49L18.69,293.08L20.24,293.08L21.8,295.02L26.47,294.38L28.03,294.38L37.37,294.38L38.93,295.67L43.6,296.32L45.16,298.26L46.72,302.15L48.27,302.15L49.83,304.74L51.39,304.74L56.06,304.74L57.62,302.15L59.18,301.5L60.73,306.03L71.63,306.03L73.19,307.33L74.75,307.33L76.31,311.22L77.86,313.81L79.42,313.81L82.53,316.4L84.09,317.69L94.99,318.34L96.55,318.99L101.22,318.99L102.78,320.28L113.68,320.93L115.24,322.23L118.35,322.23L119.91,323.52" style="vector-effect: none; fill: none; stroke: rgb(1, 27, 58); stroke-opacity: 1; stroke-width: 5px; opacity: 1;"/></g><g class="points"/><g class="text"/></g></g></g><g class="overplot"/><path class="xlines-above crisp" d="M0,0" style="fill: none;"/><path class="ylines-above crisp" d="M0,0" style="fill: none;"/><g class="overlines-above"/><g class="xaxislayer-above"><g class="xtick"><text text-anchor="middle" x="0" y="363" transform="translate(65.57,0)" style="font-family: 'Open Sans', verdana, arial, sans-serif; font-size: 12px; fill: rgb(42, 63, 95); fill-opacity: 1; white-space: pre; opacity: 1;">1.6.23</text></g><g class="xtick"><text text-anchor="middle" x="0" y="363" style="font-family: 'Open Sans', verdana, arial, sans-serif; font-size: 12px; fill: rgb(42, 63, 95); fill-opacity: 1; white-space: pre; opacity: 1;" transform="translate(112.28999999999999,0)">1.7.23</text></g><g class="xtick"><text text-anchor="middle" x="0" y="363" style="font-family: 'Open Sans', verdana, arial, sans-serif; font-size: 12px; fill: rgb(42, 63, 95); fill-opacity: 1; white-space: pre; opacity: 1;" transform="translate(160.56,0)">1.8.23</text></g><g class="xtick"><text text-anchor="middle" x="0" y="363" style="font-family: 'Open Sans', verdana, arial, sans-serif; font-size: 12px; fill: rgb(42, 63, 95); fill-opacity: 1; white-space: pre; opacity: 1;" transform="translate(208.84,0)">1.9.23</text></g></g><g class="yaxislayer-above"><g class="ytick"><text text-anchor="end" x="49" y="4.199999999999999" transform="translate(0,350)" style="font-family: 'Open Sans', verdana, arial, sans-serif; font-size: 12px; fill: rgb(42, 63, 95); fill-opacity: 1; white-space: pre; opacity: 1;">0%</text></g><g class="ytick"><text text-anchor="end" x="49" y="4.199999999999999" style="font-family: 'Open Sans', verdana, arial, sans-serif; font-size: 12px; fill: rgb(42, 63, 95); fill-opacity: 1; white-space: pre; opacity: 1;" transform="translate(0,285.23)">10%</text></g><g class="ytick"><text text-anchor="end" x="49" y="4.199999999999999" style="font-family: 'Open Sans', verdana, arial, sans-serif; font-size: 12px; fill: rgb(42, 63, 95); fill-opacity: 1; white-space: pre; opacity: 1;" transform="translate(0,220.45)">20%</text></g><g class="ytick"><text text-anchor="end" x="49" y="4.199999999999999" style="font-family: 'Open Sans', verdana, arial, sans-serif; font-size: 12px; fill: rgb(42, 63, 95); fill-opacity: 1; white-space: pre; opacity: 1;" transform="translate(0,155.68)">30%</text></g><g class="ytick"><text text-anchor="end" x="49" y="4.199999999999999" style="font-family: 'Open Sans', verdana, arial, sans-serif; font-size: 12px; fill: rgb(42, 63, 95); fill-opacity: 1; white-space: pre; opacity: 1;" transform="translate(0,90.91)">40%</text></g><g class="ytick"><text text-anchor="end" x="49" y="4.199999999999999" style="font-family: 'Open Sans', verdana, arial, sans-serif; font-size: 12px; fill: rgb(42, 63, 95); fill-opacity: 1; white-space: pre; opacity: 1;" transform="translate(0,26.14)">50%</text></g></g><g class="overaxes-above"/></g></g><g class="polarlayer"/><g class="smithlayer"/><g class="ternarylayer"/><g class="geolayer"/><g class="funnelarealayer"/><g class="pielayer"/><g class="iciclelayer"/><g class="treemaplayer"/><g class="sunburstlayer"/><g class="glimages"/><defs id="topdefs-348609"><g class="clips"/><clipPath id="legend348609"><rect width="130" height="86" x="0" y="0"/></clipPath></defs><g class="layer-above"><g class="imagelayer"/><g class="shapelayer"/></g><g class="infolayer"><g class="legend" pointer-events="all" transform="translate(258.08000000000004,20)"><rect class="bg" shape-rendering="crispEdges" width="130" height="86" x="0" y="0" style="stroke: rgb(68, 68, 68); stroke-opacity: 1; fill: rgb(255, 255, 255); fill-opacity: 1; stroke-width: 0px;"/><g class="scrollbox" transform="" clip-path="url(#legend348609)"><g class="groups"><g class="traces" transform="translate(0,14.5)" style="opacity: 1;"><text class="legendtext" text-anchor="start" x="40" y="4.680000000000001" style="font-family: 'Open Sans', verdana, arial, sans-serif; font-size: 12px; fill: rgb(42, 63, 95); fill-opacity: 1; white-space: pre;">Fico Robert</text><g class="layers" style="opacity: 1;"><g class="legendfill"/><g class="legendlines"><path class="js-line" d="M5,0h30" style="fill: none; stroke: rgb(238, 58, 67); stroke-opacity: 1; stroke-width: 5px;"/></g><g class="legendsymbols"><g class="legendpoints"/></g></g><rect class="legendtoggle" x="0" y="-9.5" width="124.03125" height="19" style="fill: rgb(0, 0, 0); fill-opacity: 0;"/></g><g class="traces" transform="translate(0,33.5)" style="opacity: 1;"><text class="legendtext" text-anchor="start" x="40" y="4.680000000000001" style="font-family: 'Open Sans', verdana, arial, sans-serif; font-size: 12px; fill: rgb(42, 63, 95); fill-opacity: 1; white-space: pre;">Pellegrini Peter</text><g class="layers" style="opacity: 1;"><g class="legendfill"/><g class="legendlines"><path class="js-line" d="M5,0h30" style="fill: none; stroke: rgb(138, 44, 81); stroke-opacity: 1; stroke-width: 5px;"/></g><g class="legendsymbols"><g class="legendpoints"/></g></g><rect class="legendtoggle" x="0" y="-9.5" width="124.03125" height="19" style="fill: rgb(0, 0, 0); fill-opacity: 0;"/></g><g class="traces" transform="translate(0,52.5)" style="opacity: 1;"><text class="legendtext" text-anchor="start" x="40" y="4.680000000000001" style="font-family: 'Open Sans', verdana, arial, sans-serif; font-size: 12px; fill: rgb(42, 63, 95); fill-opacity: 1; white-space: pre;">Šimečka Michal</text><g class="layers" style="opacity: 1;"><g class="legendfill"/><g class="legendlines"><path class="js-line" d="M5,0h30" style="fill: none; stroke: rgb(0, 180, 219); stroke-opacity: 1; stroke-width: 5px;"/></g><g class="legendsymbols"><g class="legendpoints"/></g></g><rect class="legendtoggle" x="0" y="-9.5" width="124.03125" height="19" style="fill: rgb(0, 0, 0); fill-opacity: 0;"/></g><g class="traces" transform="translate(0,71.5)" style="opacity: 1;"><text class="legendtext" text-anchor="start" x="40" y="4.680000000000001" style="font-family: 'Open Sans', verdana, arial, sans-serif; font-size: 12px; fill: rgb(42, 63, 95); fill-opacity: 1; white-space: pre;">Kollár Boris</text><g class="layers" style="opacity: 1;"><g class="legendfill"/><g class="legendlines"><path class="js-line" d="M5,0h30" style="fill: none; stroke: rgb(1, 27, 58); stroke-opacity: 1; stroke-width: 5px;"/></g><g class="legendsymbols"><g class="legendpoints"/></g></g><rect class="legendtoggle" x="0" y="-9.5" width="124.03125" height="19" style="fill: rgb(0, 0, 0); fill-opacity: 0;"/></g></g></g><rect class="scrollbar" rx="20" ry="3" width="0" height="0" x="0" y="0" style="fill: rgb(128, 139, 164); fill-opacity: 1;"/></g><g class="g-gtitle"/><g class="g-xtitle"/><g class="g-ytitle"/></g></svg>