<svg class="main-svg" xmlns="http://www.w3.org/2000/svg" xmlns:xlink="http://www.w3.org/1999/xlink" width="300" height="135" style="" viewBox="0 0 300 135"><rect x="0" y="0" width="300" height="135" style="fill: rgb(255, 255, 255); fill-opacity: 1;"/><defs id="defs-075d39"><g class="clips"><clipPath id="clip075d39xyplot" class="plotclip"><rect width="280" height="75"/></clipPath><clipPath class="axesclip" id="clip075d39x"><rect x="10" y="0" width="280" height="135"/></clipPath><clipPath class="axesclip" id="clip075d39y"><rect x="0" y="50" width="300" height="75"/></clipPath><clipPath class="axesclip" id="clip075d39xy"><rect x="10" y="50" width="280" height="75"/></clipPath></g><g class="gradients"/><g class="patterns"/></defs><g class="bglayer"/><g class="layer-below"><g class="imagelayer"/><g class="shapelayer"/></g><g class="cartesianlayer"><g class="subplot xy"><g class="layer-subplot"><g class="shapelayer"/><g class="imagelayer"/></g><g class="gridlayer"><g class="x"><path class="xgrid crisp" transform="translate(80.29,0)" d="M0,50v75" style="stroke: rgb(235, 240, 248); stroke-opacity: 1; stroke-width: 1px;"/><path class="xgrid crisp" transform="translate(163.85,0)" d="M0,50v75" style="stroke: rgb(235, 240, 248); stroke-opacity: 1; stroke-width: 1px;"/><path class="xgrid crisp" transform="translate(247.42,0)" d="M0,50v75" style="stroke: rgb(235, 240, 248); stroke-opacity: 1; stroke-width: 1px;"/></g><g class="y"><path class="ygrid crisp" transform="translate(0,97.18)" d="M10,0h280" style="stroke: rgb(235, 240, 248); stroke-opacity: 1; stroke-width: 1px;"/><path class="ygrid crisp" transform="translate(0,69.35)" d="M10,0h280" style="stroke: rgb(235, 240, 248); stroke-opacity: 1; stroke-width: 1px;"/></g></g><g class="zerolinelayer"><path class="yzl zl crisp" transform="translate(0,125)" d="M10,0h280" style="stroke: rgb(235, 240, 248); stroke-opacity: 1; stroke-width: 2px;"/></g><path class="xlines-below"/><path class="ylines-below"/><g class="overlines-below"/><g class="xaxislayer-below"/><g class="yaxislayer-below"/><g class="overaxes-below"/><g class="plot" transform="translate(10,50)" clip-path="url(#clip075d39xyplot)"><g class="scatterlayer mlayer"><g class="trace scatter tracee4e16c" style="stroke-miterlimit: 2; opacity: 1;"><g class="fills"/><g class="errorbars"/><g class="lines"><path class="js-line" d="M0,24.11Q2.7,19.28 4.35,18.53C5.61,17.96 7.34,18.59 8.47,18.75C9.28,18.86 10.09,19.19 10.53,19.21C10.74,19.22 10.75,19.14 10.99,19.15C11.93,19.2 16.33,20.18 17.86,20.82C18.7,21.17 19.04,21.44 19.69,21.96C20.6,22.7 21.7,23.92 22.67,25.02C23.69,26.18 24.6,27.16 25.64,28.76C27.21,31.18 29.16,36.04 30.68,38.43C31.66,39.97 32.17,40.88 33.43,42.01C35.11,43.51 38.86,45.39 40.29,46.16C40.91,46.49 41.18,46.56 41.67,46.81C42.24,47.1 42.84,47.5 43.5,47.79C44.21,48.11 44.9,48.34 45.79,48.62C47,49 49.23,49.59 50.14,49.77C50.55,49.85 50.8,49.88 51.05,49.88C51.23,49.88 51.31,49.83 51.51,49.83C51.92,49.82 52.83,49.95 53.34,49.96C53.7,49.97 53.85,49.9 54.26,49.94C55.08,50.01 56.76,50.62 57.92,50.69C58.96,50.75 60.47,50.46 60.9,50.43C61.02,50.42 61.01,50.43 61.13,50.42C61.62,50.38 64.05,50.02 64.79,49.99C65.11,49.98 65.2,49.99 65.48,50.02C65.9,50.06 66.71,50.19 67.08,50.24C67.28,50.27 67.31,50.28 67.54,50.3C68.3,50.36 71.3,50.45 72.35,50.44C72.86,50.44 73.16,50.4 73.49,50.39C73.75,50.38 73.86,50.39 74.18,50.37C74.95,50.33 77.16,50.16 78.07,50.09C78.57,50.05 78.76,50.06 79.22,50C79.9,49.92 80.79,49.75 81.73,49.57C82.94,49.34 84.47,49.11 85.85,48.73C87.29,48.33 89.21,47.48 90.2,47.19C90.7,47.04 90.89,46.99 91.35,46.91C92.02,46.79 92.83,46.84 93.87,46.6C95.65,46.19 100.96,44.21 100.96,44.21C100.96,44.21 100.96,44.21 100.96,44.21C100.96,44.21 105.77,42.24 105.77,42.24C105.77,42.24 105.77,42.24 105.77,42.24C105.77,42.24 106.24,42.36 106.69,42.39C107.91,42.47 111.23,42.61 113.56,42.21C116.1,41.78 119.05,40.74 121.34,39.72C123.32,38.84 125.48,37.16 126.61,36.67C127.11,36.45 127.22,36.49 127.75,36.32C128.96,35.94 132.07,34.99 133.7,34.4C134.87,33.97 135.91,33.29 136.68,33.19C137.14,33.13 137.32,33.24 137.83,33.34C138.85,33.54 141.26,34.4 142.4,34.52C143.07,34.59 143.33,34.44 144.01,34.44C145.18,34.43 147.02,34.72 148.81,34.62C151.1,34.5 154.84,33.86 156.6,33.49C157.51,33.3 158.01,33.02 158.66,32.92C159.22,32.83 159.64,32.85 160.26,32.84C161.1,32.83 162.6,32.93 163.24,32.91C163.55,32.9 163.62,32.85 163.92,32.85C164.49,32.85 165.58,32.94 166.44,33.05C167.34,33.17 168.11,33.44 169.19,33.57C170.7,33.75 173.47,33.75 174.69,33.85C175.3,33.9 175.41,33.94 176.06,34.01C177.62,34.18 181.96,34.82 184.07,34.79C185.46,34.77 186.45,34.44 187.51,34.35C188.41,34.27 189.12,34.25 190.02,34.22C191.08,34.18 192.28,34.21 193.46,34.14C194.72,34.07 195.94,33.96 197.35,33.79C199.03,33.59 201.29,33.13 202.85,32.98C203.99,32.87 204.64,32.93 205.82,32.85C207.55,32.74 211.06,32.41 212.23,32.3C212.68,32.26 212.8,32.24 213.15,32.2C213.61,32.15 214.07,32.12 214.75,32.05C215.92,31.93 218.59,31.58 219.56,31.51C219.98,31.48 220.05,31.53 220.47,31.49C221.44,31.41 224.7,30.87 225.28,30.79C225.41,30.77 225.39,30.78 225.51,30.76C225.98,30.7 227.98,30.43 228.95,30.28C229.66,30.17 230.22,30.06 230.78,29.95C231.27,29.85 231.65,29.76 232.15,29.65C232.77,29.51 233.71,29.29 234.21,29.18C234.5,29.12 234.56,29.1 234.9,29.03C235.83,28.84 238.97,28.3 240.16,28.04C240.77,27.91 241.17,27.85 241.54,27.7C241.82,27.59 241.93,27.46 242.22,27.32C242.68,27.09 243.51,26.64 244.06,26.49C244.48,26.38 244.81,26.46 245.2,26.37C245.64,26.27 246.1,26.07 246.57,25.88C247.09,25.67 248.18,25.13 248.18,25.13C248.18,25.13 248.18,25.13 248.18,25.13C248.18,25.13 250.73,24.97 251.61,25C252.17,25.02 252.52,25.11 252.98,25.15C253.44,25.19 254.02,25.25 254.36,25.25C254.55,25.25 254.69,25.23 254.82,25.22C254.91,25.21 254.93,25.21 255.04,25.19C255.42,25.12 256.78,24.6 257.56,24.55C258.21,24.51 258.78,24.69 259.39,24.76C260,24.83 260.77,24.93 261.23,24.95C261.51,24.96 261.67,24.97 261.91,24.95C262.19,24.93 262.43,24.87 262.83,24.79C263.61,24.64 265.48,24.22 266.26,24.03C266.67,23.93 266.84,23.83 267.18,23.79C267.59,23.74 268.04,23.85 268.55,23.83C269.22,23.8 270.17,23.64 270.84,23.54C271.36,23.46 271.84,23.38 272.22,23.3C272.49,23.24 272.69,23.17 272.9,23.13C273.07,23.1 273.16,23.1 273.36,23.07C273.73,23.02 274.38,22.94 274.96,22.86C275.66,22.76 276.45,22.65 277.25,22.5Q278.13,22.34 280,21.9" style="vector-effect: non-scaling-stroke; fill: none; stroke: rgb(238, 58, 67); stroke-opacity: 1; stroke-width: 5px; opacity: 1;"/></g><g class="points"/><g class="text"/></g><g class="trace scatter trace6eb65d" style="stroke-miterlimit: 2; opacity: 1;"><g class="fills"/><g class="errorbars"/><g class="lines"><path class="js-line" d="M30.68,43.45Q32.19,39.97 33.43,37.99C35.12,35.31 38.8,30.57 40.29,29.1C40.87,28.52 41.18,28.44 41.67,28.06C42.24,27.62 42.87,27.17 43.5,26.63C44.23,26.01 44.91,25.35 45.79,24.52C47.01,23.37 49.22,21.18 50.14,20.35C50.55,19.98 50.79,19.78 51.05,19.58C51.23,19.45 51.31,19.41 51.51,19.26C51.92,18.94 52.82,18.07 53.34,17.67C53.69,17.4 53.82,17.18 54.26,17.03C55.05,16.76 56.76,16.92 57.92,16.81C58.97,16.71 60.47,16.52 60.9,16.42C61.02,16.39 61.01,16.38 61.13,16.34C61.62,16.17 64.05,15.34 64.79,15.13C65.11,15.04 65.21,15.05 65.48,14.96C65.91,14.82 66.71,14.42 67.08,14.28C67.28,14.21 67.3,14.2 67.54,14.13C68.3,13.92 71.3,13.28 72.35,12.99C72.86,12.85 73.15,12.69 73.49,12.63C73.75,12.58 73.86,12.62 74.18,12.58C74.95,12.48 77.16,12.08 78.07,11.82C78.58,11.67 78.75,11.49 79.22,11.37C79.89,11.21 80.79,11.21 81.73,11.09C82.93,10.94 84.46,10.51 85.85,10.53C87.28,10.55 89.21,11.1 90.2,11.23C90.71,11.3 90.89,11.33 91.35,11.36C92.03,11.4 92.83,11.28 93.87,11.4C95.64,11.61 100.96,13 100.96,13C100.96,13 100.96,13 100.96,13C100.96,13 105.77,14.19 105.77,14.19C105.77,14.19 105.77,14.19 105.77,14.19C105.77,14.19 106.24,14.32 106.69,14.46C107.92,14.84 111.22,15.75 113.56,16.64C116.1,17.6 118.97,19.22 121.34,20.09C123.24,20.79 125.49,21.42 126.61,21.63C127.12,21.72 127.22,21.7 127.75,21.72C128.96,21.77 132.06,21.87 133.7,21.72C134.87,21.61 135.92,21.2 136.68,21.18C137.15,21.17 137.32,21.25 137.83,21.34C138.85,21.52 141.26,22.1 142.4,22.29C143.07,22.4 143.33,22.37 144.01,22.48C145.19,22.68 147.03,23.05 148.81,23.55C151.11,24.2 154.83,25.67 156.6,26.24C157.5,26.53 158.02,26.65 158.66,26.85C159.23,27.03 159.64,27.37 160.26,27.39C161.1,27.42 162.6,26.78 163.24,26.63C163.55,26.56 163.62,26.56 163.92,26.48C164.5,26.33 165.58,25.92 166.44,25.68C167.33,25.44 168.12,25.32 169.19,25.04C170.71,24.64 173.47,23.72 174.69,23.41C175.3,23.26 175.41,23.26 176.06,23.12C177.62,22.78 181.96,21.84 184.07,21.31C185.46,20.96 186.45,20.56 187.51,20.36C188.41,20.19 189.12,20.13 190.02,20.08C191.08,20.02 192.28,19.96 193.46,20.05C194.72,20.15 195.95,20.39 197.35,20.71C199.04,21.1 201.29,22.2 202.85,22.33C203.98,22.43 204.64,22.09 205.82,21.98C207.55,21.82 211.06,21.59 212.23,21.52C212.67,21.49 212.8,21.52 213.15,21.48C213.61,21.43 214.07,21.26 214.75,21.19C215.92,21.07 218.59,21.09 219.56,21.04C219.98,21.02 220.05,20.98 220.47,20.98C221.44,20.97 224.7,21.18 225.28,21.21C225.41,21.22 225.39,21.21 225.51,21.22C225.98,21.25 227.98,21.37 228.95,21.46C229.66,21.53 230.22,21.58 230.78,21.67C231.27,21.75 231.65,21.81 232.15,21.94C232.77,22.1 233.71,22.43 234.21,22.59C234.5,22.68 234.56,22.69 234.9,22.81C235.83,23.13 238.96,24.4 240.16,24.76C240.76,24.94 241.16,25 241.54,25.09C241.81,25.16 241.94,25.22 242.22,25.26C242.68,25.32 243.52,25.26 244.06,25.31C244.49,25.35 244.81,25.38 245.2,25.49C245.64,25.62 246.1,25.85 246.57,26.08C247.09,26.33 248.18,26.94 248.18,26.94C248.18,26.94 248.18,26.94 248.18,26.94C248.18,26.94 250.73,27.77 251.61,28.09C252.17,28.3 252.52,28.47 252.98,28.64C253.44,28.81 254.02,29 254.36,29.1C254.55,29.16 254.7,29.19 254.82,29.23C254.91,29.26 254.93,29.27 255.04,29.31C255.42,29.44 256.78,29.9 257.56,30.08C258.21,30.23 258.78,30.25 259.39,30.35C260,30.45 260.77,30.58 261.23,30.67C261.51,30.72 261.66,30.78 261.91,30.81C262.19,30.84 262.43,30.8 262.83,30.83C263.61,30.89 265.48,31.15 266.26,31.29C266.67,31.36 266.84,31.44 267.18,31.49C267.59,31.54 268.04,31.53 268.55,31.56C269.22,31.6 270.18,31.59 270.84,31.69C271.36,31.77 271.84,31.95 272.22,32.02C272.48,32.07 272.7,32.09 272.9,32.1C273.07,32.11 273.16,32.07 273.36,32.08C273.73,32.11 274.38,32.27 274.96,32.37C275.65,32.49 276.47,32.51 277.25,32.76Q278.14,33.04 280,34.07" style="vector-effect: non-scaling-stroke; fill: none; stroke: rgb(138, 44, 81); stroke-opacity: 1; stroke-width: 5px; opacity: 1;"/></g><g class="points"/><g class="text"/></g><g class="trace scatter trace1d707d" style="stroke-miterlimit: 2; opacity: 1;"><g class="fills"/><g class="errorbars"/><g class="lines"><path class="js-line" d="M0,55.63Q2.92,56.41 4.35,56.45C5.74,56.49 7.33,55.98 8.47,55.91C9.27,55.86 10.09,55.94 10.53,55.93C10.74,55.92 10.75,55.9 10.99,55.9C11.93,55.91 16.3,56.43 17.86,56.55C18.66,56.61 19.01,56.6 19.69,56.65C20.56,56.72 21.68,56.82 22.67,56.95C23.66,57.08 24.52,57.26 25.64,57.44C27.1,57.68 29.25,58.15 30.68,58.26C31.73,58.34 32.31,58.16 33.43,58.22C35.21,58.32 38.87,59.03 40.29,59.12C40.92,59.16 41.18,59.11 41.67,59.11C42.24,59.11 42.86,59.18 43.5,59.15C44.22,59.12 44.9,58.94 45.79,58.9C47.01,58.84 49.23,58.92 50.14,58.95C50.56,58.96 50.8,58.99 51.05,59C51.23,59 51.31,59 51.51,59C51.92,58.99 52.83,58.97 53.34,58.94C53.7,58.92 53.85,58.9 54.26,58.86C55.08,58.77 56.76,58.45 57.92,58.4C58.96,58.35 60.47,58.48 60.9,58.5C61.02,58.5 61.01,58.51 61.13,58.51C61.62,58.52 64.05,58.46 64.79,58.43C65.11,58.42 65.2,58.41 65.48,58.39C65.9,58.37 66.71,58.31 67.08,58.3C67.28,58.29 67.31,58.3 67.54,58.3C68.3,58.3 71.3,58.26 72.35,58.29C72.86,58.31 73.16,58.36 73.49,58.36C73.75,58.36 73.86,58.38 74.18,58.33C74.95,58.22 77.16,57.62 78.07,57.38C78.57,57.25 78.76,57.17 79.22,57.06C79.89,56.9 80.79,56.76 81.73,56.55C82.94,56.28 84.45,55.79 85.85,55.57C87.27,55.35 89.21,55.28 90.2,55.23C90.71,55.2 90.89,55.25 91.35,55.2C92.03,55.13 92.81,54.83 93.87,54.71C95.63,54.52 100.96,54.53 100.96,54.53C100.96,54.53 100.96,54.53 100.96,54.53C100.96,54.53 105.77,54.34 105.77,54.34C105.77,54.34 105.77,54.34 105.77,54.34C105.77,54.34 106.24,54.22 106.69,54.14C107.92,53.91 111.19,53.35 113.56,53.07C116.07,52.77 119,52.38 121.34,52.43C123.27,52.47 125.49,53.05 126.61,53.07C127.13,53.08 127.22,52.97 127.75,52.97C128.96,52.96 132.06,53.18 133.7,53.43C134.87,53.61 135.92,54.05 136.68,54.1C137.15,54.13 137.32,54.08 137.83,53.99C138.85,53.82 141.26,53.05 142.4,52.86C143.07,52.75 143.33,52.81 144.01,52.71C145.19,52.54 147.01,52.08 148.81,51.78C151.09,51.39 154.84,50.9 156.6,50.65C157.51,50.52 158.02,50.48 158.66,50.37C159.23,50.27 159.64,50.09 160.26,50.05C161.1,49.99 162.6,50.21 163.24,50.24C163.55,50.25 163.62,50.24 163.92,50.26C164.5,50.31 165.58,50.53 166.44,50.61C167.33,50.69 168.12,50.64 169.19,50.71C170.71,50.81 173.47,51.25 174.69,51.2C175.3,51.17 175.42,51.09 176.06,50.96C177.62,50.65 181.95,49.52 184.07,49.18C185.45,48.96 186.46,48.98 187.51,48.85C188.41,48.74 189.12,48.57 190.02,48.47C191.07,48.35 192.28,48.38 193.46,48.22C194.72,48.05 195.94,47.73 197.35,47.42C199.03,47.04 201.29,46.27 202.85,46.09C203.98,45.96 204.64,46.16 205.82,46.11C207.55,46.04 211.06,45.69 212.23,45.55C212.68,45.5 212.8,45.44 213.15,45.41C213.61,45.38 214.08,45.47 214.75,45.42C215.93,45.33 218.59,44.77 219.56,44.65C219.98,44.6 220.05,44.61 220.47,44.57C221.44,44.48 224.71,44.2 225.28,44.12C225.41,44.1 225.39,44.1 225.51,44.08C225.98,44.01 227.99,43.78 228.95,43.6C229.66,43.47 230.22,43.34 230.78,43.18C231.27,43.04 231.65,42.87 232.15,42.7C232.77,42.5 233.7,42.18 234.21,42.05C234.5,41.98 234.56,41.94 234.9,41.92C235.83,41.86 238.98,42.08 240.16,42.22C240.77,42.29 241.16,42.4 241.54,42.48C241.81,42.54 241.94,42.61 242.22,42.65C242.68,42.72 243.52,42.78 244.06,42.76C244.49,42.74 244.8,42.67 245.2,42.6C245.64,42.53 246.09,42.39 246.57,42.34C247.08,42.29 248.18,42.32 248.18,42.32C248.18,42.32 248.18,42.32 248.18,42.32C248.18,42.32 250.72,41.59 251.61,41.36C252.17,41.21 252.52,41.08 252.98,41.02C253.44,40.96 254.02,41.03 254.36,41.02C254.55,41.01 254.69,40.99 254.82,40.98C254.91,40.97 254.93,40.98 255.04,40.96C255.43,40.88 256.79,40.36 257.56,40.1C258.22,39.88 258.77,39.66 259.39,39.49C260,39.32 260.76,39.17 261.23,39.09C261.51,39.04 261.67,39.05 261.91,39.01C262.19,38.96 262.43,38.89 262.83,38.79C263.61,38.6 265.48,38.08 266.26,37.92C266.66,37.84 266.84,37.82 267.18,37.78C267.59,37.73 268.04,37.71 268.55,37.66C269.22,37.6 270.18,37.54 270.84,37.44C271.36,37.36 271.84,37.27 272.22,37.16C272.49,37.08 272.69,36.95 272.9,36.88C273.07,36.82 273.16,36.81 273.36,36.76C273.73,36.67 274.38,36.48 274.96,36.39C275.65,36.28 276.46,36.32 277.25,36.21Q278.13,36.08 280,35.63" style="vector-effect: non-scaling-stroke; fill: none; stroke: rgb(0, 180, 219); stroke-opacity: 1; stroke-width: 5px; opacity: 1;"/></g><g class="points"/><g class="text"/></g><g class="trace scatter trace5f6d52" style="stroke-miterlimit: 2; opacity: 1;"><g class="fills"/><g class="errorbars"/><g class="lines"><path class="js-line" d="M85.85,70.54Q89.18,67.55 90.2,66.92C90.68,66.62 90.88,66.56 91.35,66.42C92.02,66.22 92.82,66.18 93.87,65.96C95.64,65.59 100.96,64.27 100.96,64.27C100.96,64.27 100.96,64.27 100.96,64.27C100.96,64.27 105.77,63.57 105.77,63.57C105.77,63.57 105.77,63.57 105.77,63.57C105.77,63.57 106.24,63.7 106.69,63.72C107.92,63.78 111.21,63.6 113.56,63.23C116.09,62.83 119,61.95 121.34,61.32C123.27,60.8 125.49,59.91 126.61,59.78C127.12,59.72 127.22,59.83 127.75,59.85C128.96,59.89 132.06,59.96 133.7,59.91C134.86,59.87 135.92,59.78 136.68,59.7C137.15,59.65 137.32,59.62 137.83,59.54C138.85,59.38 141.27,58.99 142.4,58.77C143.08,58.64 143.33,58.52 144.01,58.42C145.18,58.26 147.02,58.27 148.81,58.12C151.1,57.93 154.84,57.5 156.6,57.33C157.51,57.24 158.02,57.13 158.66,57.15C159.23,57.17 159.64,57.34 160.26,57.39C161.1,57.46 162.6,57.42 163.24,57.46C163.55,57.48 163.62,57.52 163.92,57.53C164.49,57.54 165.58,57.39 166.44,57.39C167.34,57.39 168.12,57.55 169.19,57.55C170.71,57.55 173.47,57.25 174.69,57.25C175.3,57.25 175.41,57.29 176.06,57.32C177.62,57.39 181.96,57.53 184.07,57.58C185.46,57.61 186.46,57.54 187.51,57.62C188.41,57.68 189.12,57.93 190.02,57.95C191.08,57.98 192.28,57.7 193.46,57.69C194.72,57.68 195.94,57.95 197.35,57.91C199.03,57.86 201.3,57.28 202.85,57.26C203.99,57.25 204.64,57.55 205.82,57.55C207.55,57.54 211.06,57.1 212.23,56.87C212.68,56.78 212.8,56.7 213.15,56.61C213.61,56.5 214.07,56.35 214.75,56.27C215.92,56.13 218.59,56.14 219.56,56.1C219.98,56.08 220.05,56.07 220.47,56.05C221.44,56 224.7,55.8 225.28,55.77C225.41,55.76 225.39,55.77 225.51,55.76C225.98,55.73 227.99,55.6 228.95,55.46C229.66,55.36 230.21,55.18 230.78,55.09C231.27,55.02 231.65,55.02 232.15,54.95C232.77,54.87 233.71,54.71 234.21,54.61C234.5,54.55 234.56,54.49 234.9,54.46C235.83,54.38 238.97,54.65 240.16,54.69C240.77,54.71 241.16,54.7 241.54,54.73C241.81,54.75 241.94,54.81 242.22,54.81C242.68,54.8 243.52,54.62 244.06,54.53C244.49,54.46 244.8,54.38 245.2,54.33C245.63,54.28 246.1,54.29 246.57,54.24C247.09,54.19 248.18,54.02 248.18,54.02C248.18,54.02 248.18,54.02 248.18,54.02C248.18,54.02 250.72,53.29 251.61,53.15C252.16,53.06 252.52,53.12 252.98,53.07C253.44,53.02 254.02,52.9 254.36,52.86C254.55,52.84 254.69,52.82 254.82,52.82C254.91,52.82 254.93,52.84 255.04,52.83C255.42,52.81 256.79,52.51 257.56,52.46C258.22,52.42 258.78,52.52 259.39,52.48C260,52.44 260.77,52.29 261.23,52.24C261.51,52.21 261.67,52.22 261.91,52.19C262.19,52.15 262.42,52.08 262.83,52.03C263.61,51.94 265.48,51.95 266.26,51.86C266.67,51.81 266.84,51.75 267.18,51.69C267.59,51.62 268.03,51.54 268.55,51.47C269.21,51.38 270.17,51.27 270.84,51.24C271.36,51.22 271.84,51.27 272.22,51.27C272.49,51.27 272.7,51.24 272.9,51.25C273.07,51.25 273.16,51.29 273.36,51.29C273.73,51.29 274.38,51.22 274.96,51.14C275.66,51.05 276.45,50.9 277.25,50.75Q278.13,50.58 280,50.17" style="vector-effect: non-scaling-stroke; fill: none; stroke: rgb(153, 51, 0); stroke-opacity: 1; stroke-width: 5px; opacity: 1;"/></g><g class="points"/><g class="text"/></g><g class="trace scatter trace919683" style="stroke-miterlimit: 2; opacity: 1;"><g class="fills"/><g class="errorbars"/><g class="lines"><path class="js-line" d="M0,5.39Q2.94,5.71 4.35,5.48C5.76,5.25 7.32,4.28 8.47,4.01C9.26,3.82 10.1,3.64 10.53,3.75C10.75,3.8 10.74,3.91 10.99,4.07C11.93,4.67 16.27,7.43 17.86,8.11C18.64,8.44 19.02,8.39 19.69,8.64C20.57,8.97 21.7,9.47 22.67,10.03C23.69,10.62 24.49,11.45 25.64,12.12C27.07,12.96 29.29,13.65 30.68,14.52C31.78,15.21 32.33,15.78 33.43,16.73C35.22,18.26 38.83,21.98 40.29,22.98C40.89,23.39 41.18,23.43 41.67,23.66C42.23,23.92 42.88,24.1 43.5,24.47C44.25,24.91 44.88,25.61 45.79,26.22C46.99,27.03 49.21,28.4 50.14,28.82C50.54,29 50.8,29 51.05,29.11C51.23,29.19 51.3,29.26 51.51,29.36C51.91,29.55 52.84,29.87 53.34,30.11C53.7,30.28 53.85,30.4 54.26,30.6C55.07,30.99 56.78,31.59 57.92,32.15C58.98,32.67 60.47,33.59 60.9,33.8C61.02,33.86 61.01,33.84 61.13,33.9C61.62,34.14 64.05,35.54 64.79,35.93C65.11,36.1 65.19,36.18 65.48,36.28C65.9,36.42 66.71,36.49 67.08,36.57C67.28,36.61 67.31,36.63 67.54,36.68C68.3,36.85 71.31,37.41 72.35,37.74C72.87,37.9 73.15,38.14 73.49,38.21C73.74,38.26 73.86,38.16 74.18,38.22C74.96,38.36 77.15,39.3 78.07,39.6C78.56,39.76 78.77,39.76 79.22,39.94C79.91,40.22 80.77,40.86 81.73,41.28C82.92,41.81 84.5,42.08 85.85,42.75C87.33,43.49 89.2,45.07 90.2,45.62C90.69,45.89 90.88,45.97 91.35,46.14C92.02,46.38 92.82,46.54 93.87,46.84C95.64,47.35 100.96,48.94 100.96,48.94C100.96,48.94 100.96,48.94 100.96,48.94C100.96,48.94 105.77,50.1 105.77,50.1C105.77,50.1 105.77,50.1 105.77,50.1C105.77,50.1 106.24,50.09 106.69,50.09C107.92,50.08 111.2,50.14 113.56,50.06C116.07,49.98 119,49.53 121.34,49.59C123.27,49.64 125.49,50.16 126.61,50.18C127.13,50.19 127.22,50.08 127.75,50.1C128.96,50.14 132.06,50.66 133.7,50.96C134.87,51.17 135.92,51.58 136.68,51.62C137.15,51.65 137.32,51.56 137.83,51.5C138.85,51.39 141.26,50.97 142.4,50.95C143.07,50.94 143.33,51.09 144.01,51.1C145.18,51.12 147.02,50.87 148.81,50.84C151.09,50.8 154.84,50.84 156.6,50.96C157.51,51.02 158.02,51.16 158.66,51.21C159.23,51.25 159.65,51.18 160.26,51.24C161.1,51.32 162.6,51.65 163.24,51.74C163.55,51.78 163.62,51.8 163.92,51.81C164.49,51.83 165.58,51.78 166.44,51.69C167.34,51.6 168.11,51.34 169.19,51.24C170.7,51.1 173.47,51.2 174.69,51.11C175.3,51.06 175.41,51.01 176.06,50.93C177.62,50.74 181.97,49.89 184.07,50.08C185.47,50.21 186.45,50.85 187.51,51.09C188.41,51.29 189.12,51.34 190.02,51.49C191.08,51.67 192.27,52.03 193.46,52.09C194.71,52.15 195.94,51.76 197.35,51.79C199.03,51.83 201.29,52.35 202.85,52.48C203.99,52.58 204.64,52.53 205.82,52.62C207.55,52.75 211.06,53.19 212.23,53.31C212.67,53.36 212.8,53.37 213.15,53.4C213.61,53.44 214.07,53.52 214.75,53.55C215.92,53.61 218.59,53.55 219.56,53.59C219.98,53.61 220.05,53.62 220.47,53.65C221.44,53.73 224.7,54.09 225.28,54.12C225.41,54.13 225.39,54.12 225.51,54.12C225.98,54.12 227.98,54.12 228.95,54.16C229.66,54.19 230.21,54.27 230.78,54.29C231.27,54.31 231.65,54.29 232.15,54.31C232.77,54.34 233.71,54.44 234.21,54.48C234.5,54.5 234.56,54.53 234.9,54.54C235.83,54.56 238.97,54.3 240.16,54.33C240.77,54.35 241.16,54.41 241.54,54.46C241.81,54.49 241.94,54.5 242.22,54.56C242.69,54.66 243.52,54.92 244.06,55.07C244.48,55.18 244.8,55.28 245.2,55.37C245.63,55.47 246.1,55.53 246.57,55.63C247.09,55.73 248.18,55.98 248.18,55.98C248.18,55.98 248.18,55.98 248.18,55.98C248.18,55.98 250.72,56.89 251.61,57.16C252.17,57.33 252.52,57.43 252.98,57.52C253.44,57.61 254.02,57.69 254.36,57.72C254.55,57.74 254.69,57.74 254.82,57.73C254.91,57.73 254.93,57.71 255.04,57.7C255.42,57.67 256.79,57.67 257.56,57.6C258.22,57.54 258.78,57.46 259.39,57.36C260,57.26 260.77,57.1 261.23,57.02C261.51,56.97 261.67,56.94 261.91,56.92C262.19,56.9 262.43,56.94 262.83,56.92C263.61,56.88 265.48,56.62 266.26,56.57C266.66,56.54 266.84,56.54 267.18,56.54C267.59,56.54 268.04,56.57 268.55,56.6C269.22,56.64 270.17,56.77 270.84,56.78C271.36,56.79 271.84,56.73 272.22,56.72C272.49,56.71 272.7,56.72 272.9,56.72C273.07,56.72 273.16,56.71 273.36,56.71C273.73,56.71 274.38,56.76 274.96,56.78C275.66,56.81 276.45,56.86 277.25,56.85Q278.12,56.84 280,56.72" style="vector-effect: non-scaling-stroke; fill: none; stroke: rgb(97, 162, 41); stroke-opacity: 1; stroke-width: 5px; opacity: 1;"/></g><g class="points"/><g class="text"/></g></g></g><g class="overplot"/><path class="xlines-above crisp" d="M0,0" style="fill: none;"/><path class="ylines-above crisp" d="M0,0" style="fill: none;"/><g class="overlines-above"/><g class="xaxislayer-above"/><g class="yaxislayer-above"/><g class="overaxes-above"/></g></g><g class="polarlayer"/><g class="smithlayer"/><g class="ternarylayer"/><g class="geolayer"/><g class="funnelarealayer"/><g class="pielayer"/><g class="iciclelayer"/><g class="treemaplayer"/><g class="sunburstlayer"/><g class="glimages"/><defs id="topdefs-075d39"><g class="clips"/></defs><g class="layer-above"><g class="imagelayer"/><g class="shapelayer"/></g><g class="infolayer"><g class="g-gtitle"><text class="gtitle" x="15" y="25" text-anchor="start" dy="0em" style="font-family: Ubuntu, verdana, arial, sans-serif; font-size: 16px; fill: rgb(233, 84, 32); opacity: 1; font-weight: normal; white-space: pre;">NRSR 2020-2023</text></g><g class="g-xtitle"/><g class="g-ytitle"/></g></svg>