<svg class="main-svg" xmlns="http://www.w3.org/2000/svg" xmlns:xlink="http://www.w3.org/1999/xlink" width="300" height="135" style="" viewBox="0 0 300 135"><rect x="0" y="0" width="300" height="135" style="fill: rgb(255, 255, 255); fill-opacity: 1;"/><defs id="defs-2e9929"><g class="clips"><clipPath id="clip2e9929xyplot" class="plotclip"><rect width="280" height="75"/></clipPath><clipPath class="axesclip" id="clip2e9929x"><rect x="10" y="0" width="280" height="135"/></clipPath><clipPath class="axesclip" id="clip2e9929y"><rect x="0" y="50" width="300" height="75"/></clipPath><clipPath class="axesclip" id="clip2e9929xy"><rect x="10" y="50" width="280" height="75"/></clipPath></g><g class="gradients"/><g class="patterns"/></defs><g class="bglayer"/><g class="layer-below"><g class="imagelayer"/><g class="shapelayer"/></g><g class="cartesianlayer"><g class="subplot xy"><g class="layer-subplot"><g class="shapelayer"/><g class="imagelayer"/></g><g class="minor-gridlayer"><g class="x"/><g class="y"/></g><g class="gridlayer"><g class="x"><path class="xgrid crisp" transform="translate(75.92,0)" d="M0,50v75" style="stroke: rgb(235, 240, 248); stroke-opacity: 1; stroke-width: 1px;"/><path class="xgrid crisp" transform="translate(154.29,0)" d="M0,50v75" style="stroke: rgb(235, 240, 248); stroke-opacity: 1; stroke-width: 1px;"/><path class="xgrid crisp" transform="translate(232.67,0)" d="M0,50v75" style="stroke: rgb(235, 240, 248); stroke-opacity: 1; stroke-width: 1px;"/></g><g class="y"><path class="ygrid crisp" transform="translate(0,97.18)" d="M10,0h280" style="stroke: rgb(235, 240, 248); stroke-opacity: 1; stroke-width: 1px;"/><path class="ygrid crisp" transform="translate(0,69.35)" d="M10,0h280" style="stroke: rgb(235, 240, 248); stroke-opacity: 1; stroke-width: 1px;"/></g></g><g class="zerolinelayer"><path class="yzl zl crisp" transform="translate(0,125)" d="M10,0h280" style="stroke: rgb(235, 240, 248); stroke-opacity: 1; stroke-width: 2px;"/></g><path class="xlines-below"/><path class="ylines-below"/><g class="overlines-below"/><g class="xaxislayer-below"/><g class="yaxislayer-below"/><g class="overaxes-below"/><g class="plot" transform="translate(10,50)" clip-path="url(#clip2e9929xyplot)"><g class="scatterlayer mlayer"><g class="trace scatter tracedb7b53" style="stroke-miterlimit: 2; opacity: 1;"><g class="fills"/><g class="errorbars"/><g class="lines"><path class="js-line" d="M0,24.11Q2.51,19.27 4.08,18.53C5.25,17.98 6.88,18.6 7.94,18.75C8.7,18.86 9.46,19.19 9.88,19.21C10.07,19.22 10.08,19.14 10.31,19.15C11.19,19.2 15.32,20.18 16.75,20.82C17.55,21.17 17.86,21.44 18.47,21.96C19.33,22.7 20.36,23.93 21.26,25.02C22.22,26.18 23.08,27.17 24.05,28.76C25.53,31.18 27.34,36.04 28.77,38.43C29.69,39.96 30.16,40.88 31.35,42.01C32.92,43.5 36.45,45.39 37.79,46.16C38.37,46.49 38.62,46.56 39.08,46.81C39.62,47.1 40.18,47.5 40.8,47.79C41.46,48.11 42.1,48.34 42.94,48.62C44.07,49 46.16,49.59 47.02,49.77C47.41,49.85 47.64,49.88 47.88,49.88C48.05,49.88 48.12,49.83 48.31,49.83C48.69,49.82 49.55,49.95 50.03,49.96C50.37,49.97 50.51,49.9 50.89,49.94C51.66,50.01 53.24,50.62 54.33,50.69C55.3,50.75 56.72,50.46 57.12,50.43C57.23,50.42 57.22,50.43 57.33,50.42C57.78,50.38 60.08,50.02 60.77,49.99C61.07,49.98 61.15,50 61.41,50.02C61.81,50.06 62.56,50.19 62.91,50.24C63.1,50.27 63.12,50.28 63.34,50.3C64.05,50.36 66.86,50.45 67.85,50.44C68.33,50.44 68.62,50.4 68.93,50.39C69.17,50.38 69.27,50.39 69.57,50.37C70.29,50.33 72.37,50.16 73.22,50.09C73.68,50.05 73.86,50.06 74.29,50C74.93,49.92 75.78,49.75 76.66,49.57C77.79,49.34 79.23,49.11 80.52,48.73C81.88,48.33 83.67,47.49 84.6,47.19C85.07,47.04 85.24,46.99 85.67,46.91C86.3,46.79 87.07,46.84 88.04,46.6C89.71,46.19 94.69,44.21 94.69,44.21C94.69,44.21 94.69,44.21 94.69,44.21C94.69,44.21 99.2,42.24 99.2,42.24C99.2,42.24 99.2,42.24 99.2,42.24C99.2,42.24 99.64,42.36 100.06,42.39C101.21,42.47 104.32,42.6 106.5,42.21C108.89,41.78 111.65,40.73 113.8,39.72C115.66,38.84 117.67,37.16 118.74,36.67C119.21,36.45 119.32,36.49 119.82,36.32C120.96,35.94 123.87,34.99 125.4,34.4C126.5,33.97 127.47,33.29 128.19,33.19C128.62,33.13 128.79,33.24 129.26,33.34C130.22,33.54 132.49,34.4 133.56,34.52C134.18,34.59 134.43,34.44 135.06,34.44C136.16,34.43 137.89,34.72 139.57,34.62C141.72,34.5 145.23,33.86 146.87,33.49C147.73,33.3 148.19,33.02 148.8,32.92C149.33,32.83 149.73,32.85 150.31,32.84C151.1,32.83 152.5,32.93 153.1,32.91C153.39,32.9 153.46,32.85 153.74,32.85C154.28,32.85 155.3,32.94 156.1,33.05C156.94,33.17 157.67,33.44 158.68,33.57C160.1,33.75 162.69,33.75 163.83,33.85C164.4,33.9 164.51,33.94 165.12,34.01C166.59,34.18 170.66,34.82 172.64,34.79C173.94,34.77 174.87,34.44 175.86,34.35C176.71,34.27 177.37,34.25 178.22,34.22C179.21,34.18 180.33,34.21 181.44,34.14C182.62,34.07 183.77,33.96 185.09,33.79C186.66,33.59 188.79,33.13 190.25,32.98C191.32,32.87 191.93,32.93 193.04,32.85C194.66,32.74 197.95,32.41 199.05,32.3C199.47,32.26 199.58,32.24 199.91,32.2C200.34,32.15 200.78,32.12 201.41,32.05C202.51,31.93 205.01,31.58 205.92,31.51C206.32,31.48 206.38,31.53 206.78,31.49C207.7,31.41 210.76,30.88 211.29,30.79C211.41,30.77 211.39,30.77 211.5,30.75C211.94,30.68 213.81,30.42 214.72,30.27C215.38,30.16 215.91,30.05 216.44,29.94C216.9,29.84 217.26,29.75 217.73,29.64C218.31,29.5 219.19,29.28 219.66,29.17C219.93,29.11 219.99,29.09 220.31,29.02C221.19,28.83 224.14,28.28 225.25,28.02C225.82,27.89 226.18,27.82 226.53,27.68C226.79,27.57 226.91,27.45 227.18,27.3C227.61,27.07 228.38,26.61 228.9,26.46C229.29,26.35 229.6,26.43 229.97,26.34C230.39,26.24 230.82,26.04 231.26,25.85C231.75,25.64 232.76,25.1 232.76,25.1C232.76,25.1 232.76,25.1 232.76,25.1C232.76,25.1 235.15,24.93 235.98,24.95C236.51,24.96 236.84,25.04 237.27,25.08C237.7,25.11 238.25,25.16 238.56,25.16C238.74,25.16 238.87,25.14 238.99,25.13C239.07,25.12 239.09,25.12 239.2,25.1C239.56,25.02 240.83,24.49 241.56,24.42C242.17,24.36 242.71,24.54 243.28,24.59C243.85,24.64 244.57,24.72 245,24.73C245.26,24.73 245.41,24.73 245.64,24.7C245.91,24.66 246.12,24.6 246.5,24.51C247.23,24.33 248.99,23.85 249.72,23.64C250.1,23.53 250.26,23.43 250.58,23.38C250.96,23.32 251.39,23.39 251.87,23.33C252.5,23.26 253.4,23.05 254.02,22.92C254.51,22.82 254.96,22.71 255.31,22.61C255.56,22.54 255.76,22.47 255.95,22.42C256.11,22.38 256.19,22.36 256.38,22.31C256.73,22.22 257.34,22.09 257.88,21.96C258.53,21.8 259.28,21.61 260.03,21.42C260.85,21.21 261.86,20.92 262.61,20.77C263.17,20.66 263.63,20.64 264.11,20.56C264.56,20.48 265.15,20.35 265.4,20.29C265.5,20.27 265.54,20.25 265.61,20.24C265.68,20.22 265.75,20.22 265.83,20.2C265.95,20.17 266.1,20.11 266.26,20.07C266.45,20.02 266.69,20 266.9,19.96C267.12,19.92 267.3,19.89 267.55,19.85C267.9,19.8 268.4,19.68 268.83,19.67C269.26,19.66 269.8,19.78 270.12,19.8C270.3,19.81 270.55,19.82 270.55,19.82C270.55,19.82 270.55,19.82 270.55,19.82C270.55,19.82 272.07,19.9 272.7,19.95C273.19,19.99 273.51,20.07 273.99,20.08C274.61,20.1 275.78,19.96 276.13,19.97C276.24,19.97 276.28,19.98 276.35,19.99C276.42,20 276.46,20 276.56,20.01C276.86,20.03 277.77,20.04 278.28,20.07C278.68,20.09 279.14,20.15 279.36,20.16C279.46,20.17 279.5,20.16 279.57,20.17C279.64,20.18 279.72,20.2 279.79,20.2Q279.86,20.2 280,20.2" style="vector-effect: none; fill: none; stroke: rgb(238, 58, 67); stroke-opacity: 1; stroke-width: 5px; opacity: 1;"/></g><g class="points"/><g class="text"/></g><g class="trace scatter trace556555" style="stroke-miterlimit: 2; opacity: 1;"><g class="fills"/><g class="errorbars"/><g class="lines"><path class="js-line" d="M0,55.63Q2.74,56.41 4.08,56.45C5.38,56.49 6.87,55.98 7.94,55.91C8.69,55.86 9.47,55.94 9.88,55.93C10.08,55.92 10.08,55.9 10.31,55.9C11.19,55.91 15.29,56.43 16.75,56.55C17.51,56.61 17.83,56.6 18.47,56.65C19.29,56.72 20.33,56.82 21.26,56.95C22.19,57.08 23,57.26 24.05,57.44C25.42,57.68 27.43,58.15 28.77,58.26C29.75,58.34 30.3,58.16 31.35,58.22C33.02,58.32 36.46,59.03 37.79,59.12C38.38,59.16 38.62,59.11 39.08,59.11C39.61,59.11 40.2,59.18 40.8,59.15C41.48,59.12 42.11,58.94 42.94,58.9C44.08,58.84 46.16,58.92 47.02,58.95C47.41,58.96 47.64,58.99 47.88,59C48.05,59 48.12,59 48.31,59C48.69,58.99 49.56,58.97 50.03,58.94C50.37,58.92 50.51,58.9 50.89,58.86C51.66,58.77 53.24,58.45 54.33,58.4C55.31,58.35 56.72,58.48 57.12,58.5C57.23,58.5 57.22,58.51 57.33,58.51C57.78,58.52 60.08,58.46 60.77,58.43C61.07,58.42 61.15,58.41 61.41,58.39C61.81,58.37 62.56,58.31 62.91,58.3C63.1,58.29 63.12,58.3 63.34,58.3C64.05,58.3 66.86,58.26 67.85,58.29C68.33,58.31 68.62,58.36 68.93,58.36C69.17,58.36 69.27,58.38 69.57,58.33C70.29,58.22 72.37,57.62 73.22,57.38C73.68,57.25 73.86,57.17 74.29,57.06C74.92,56.9 75.78,56.76 76.66,56.55C77.79,56.28 79.21,55.79 80.52,55.57C81.85,55.35 83.68,55.28 84.6,55.23C85.07,55.2 85.25,55.25 85.67,55.2C86.31,55.13 87.04,54.83 88.04,54.71C89.69,54.52 94.69,54.53 94.69,54.53C94.69,54.53 94.69,54.53 94.69,54.53C94.69,54.53 99.2,54.34 99.2,54.34C99.2,54.34 99.2,54.34 99.2,54.34C99.2,54.34 99.64,54.22 100.06,54.14C101.21,53.91 104.28,53.35 106.5,53.07C108.85,52.77 111.61,52.38 113.8,52.43C115.61,52.47 117.69,53.05 118.74,53.07C119.23,53.08 119.32,52.97 119.82,52.97C120.96,52.96 123.87,53.18 125.4,53.43C126.5,53.61 127.48,54.05 128.19,54.1C128.63,54.13 128.79,54.08 129.26,53.99C130.22,53.82 132.49,53.05 133.56,52.86C134.18,52.75 134.43,52.81 135.06,52.71C136.16,52.54 137.88,52.08 139.57,51.78C141.71,51.39 145.22,50.9 146.87,50.65C147.72,50.52 148.2,50.48 148.8,50.37C149.34,50.27 149.73,50.09 150.31,50.05C151.1,49.99 152.5,50.21 153.1,50.24C153.39,50.25 153.46,50.23 153.74,50.26C154.28,50.31 155.29,50.53 156.1,50.61C156.94,50.69 157.67,50.64 158.68,50.71C160.1,50.81 162.69,51.25 163.83,51.2C164.41,51.17 164.51,51.09 165.12,50.96C166.59,50.65 170.65,49.52 172.64,49.18C173.93,48.96 174.87,48.98 175.86,48.85C176.71,48.74 177.37,48.57 178.22,48.47C179.21,48.35 180.34,48.38 181.44,48.22C182.62,48.05 183.77,47.73 185.09,47.42C186.66,47.04 188.78,46.27 190.25,46.09C191.31,45.96 191.94,46.16 193.04,46.11C194.67,46.04 197.95,45.69 199.05,45.55C199.47,45.5 199.58,45.44 199.91,45.41C200.34,45.38 200.78,45.47 201.41,45.42C202.51,45.33 205,44.77 205.92,44.65C206.32,44.6 206.38,44.61 206.78,44.57C207.69,44.48 210.76,44.21 211.29,44.12C211.41,44.1 211.39,44.09 211.5,44.07C211.94,43.99 213.82,43.77 214.72,43.59C215.39,43.46 215.91,43.33 216.44,43.17C216.91,43.03 217.26,42.86 217.73,42.69C218.31,42.49 219.18,42.17 219.66,42.04C219.93,41.97 219.99,41.92 220.31,41.9C221.18,41.83 224.14,42.05 225.25,42.19C225.82,42.26 226.18,42.36 226.53,42.44C226.78,42.5 226.91,42.57 227.18,42.61C227.61,42.68 228.4,42.73 228.9,42.7C229.3,42.68 229.6,42.6 229.97,42.53C230.38,42.45 230.81,42.31 231.26,42.26C231.74,42.2 232.76,42.22 232.76,42.22C232.76,42.22 232.76,42.22 232.76,42.22C232.76,42.22 235.15,41.47 235.98,41.22C236.51,41.06 236.84,40.92 237.27,40.85C237.7,40.79 238.25,40.84 238.56,40.82C238.74,40.81 238.87,40.79 238.99,40.77C239.07,40.76 239.09,40.77 239.2,40.74C239.56,40.64 240.84,40.08 241.56,39.79C242.18,39.54 242.7,39.3 243.28,39.1C243.85,38.9 244.56,38.7 245,38.6C245.26,38.54 245.41,38.54 245.64,38.48C245.91,38.41 246.12,38.32 246.5,38.19C247.23,37.93 248.99,37.26 249.72,37.02C250.1,36.9 250.26,36.85 250.58,36.77C250.97,36.67 251.39,36.59 251.87,36.46C252.5,36.3 253.4,36.07 254.02,35.86C254.51,35.7 254.96,35.52 255.31,35.35C255.57,35.22 255.76,35.07 255.95,34.96C256.11,34.87 256.19,34.83 256.38,34.73C256.73,34.54 257.33,34.2 257.88,33.92C258.53,33.59 259.29,33.27 260.03,32.87C260.86,32.43 261.86,31.77 262.61,31.37C263.17,31.07 263.63,30.85 264.11,30.62C264.55,30.4 265.15,30.12 265.4,30.01C265.5,29.97 265.54,29.95 265.61,29.92C265.68,29.9 265.75,29.89 265.83,29.86C265.95,29.82 266.1,29.76 266.26,29.7C266.45,29.63 266.69,29.56 266.9,29.49C267.12,29.42 267.3,29.36 267.55,29.28C267.9,29.17 268.4,29.01 268.83,28.89C269.26,28.76 269.8,28.61 270.12,28.53C270.3,28.49 270.55,28.44 270.55,28.44C270.55,28.44 270.55,28.44 270.55,28.44C270.55,28.44 272.07,27.9 272.7,27.68C273.18,27.51 273.51,27.41 273.99,27.25C274.61,27.05 275.78,26.67 276.13,26.58C276.24,26.55 276.28,26.55 276.35,26.53C276.42,26.52 276.46,26.51 276.56,26.49C276.86,26.42 277.78,26.15 278.28,25.98C278.68,25.85 279.14,25.64 279.36,25.58C279.46,25.55 279.5,25.55 279.57,25.54C279.64,25.53 279.72,25.54 279.79,25.53Q279.86,25.52 280,25.5" style="vector-effect: none; fill: none; stroke: rgb(0, 180, 219); stroke-opacity: 1; stroke-width: 5px; opacity: 1;"/></g><g class="points"/><g class="text"/></g><g class="trace scatter trace3417e1" style="stroke-miterlimit: 2; opacity: 1;"><g class="fills"/><g class="errorbars"/><g class="lines"><path class="js-line" d="M28.77,43.45Q30.18,39.97 31.35,37.99C32.93,35.32 36.39,30.57 37.79,29.1C38.33,28.53 38.62,28.44 39.08,28.06C39.61,27.62 40.21,27.17 40.8,26.63C41.49,26.01 42.12,25.35 42.94,24.52C44.09,23.37 46.16,21.18 47.02,20.35C47.4,19.98 47.64,19.78 47.88,19.58C48.04,19.45 48.12,19.41 48.31,19.26C48.7,18.94 49.55,18.07 50.03,17.67C50.36,17.4 50.48,17.18 50.89,17.03C51.63,16.76 53.25,16.92 54.33,16.81C55.31,16.71 56.72,16.52 57.12,16.42C57.23,16.39 57.22,16.38 57.33,16.34C57.78,16.17 60.08,15.34 60.77,15.13C61.07,15.04 61.16,15.05 61.41,14.96C61.81,14.82 62.56,14.42 62.91,14.28C63.09,14.21 63.12,14.2 63.34,14.13C64.05,13.92 66.87,13.28 67.85,12.99C68.34,12.85 68.61,12.69 68.93,12.63C69.17,12.58 69.27,12.62 69.57,12.58C70.29,12.48 72.37,12.08 73.22,11.82C73.69,11.67 73.85,11.49 74.29,11.37C74.92,11.2 75.78,11.21 76.66,11.09C77.79,10.94 79.22,10.51 80.52,10.53C81.86,10.55 83.68,11.09 84.6,11.23C85.07,11.3 85.24,11.33 85.67,11.36C86.3,11.4 87.06,11.28 88.04,11.4C89.71,11.61 94.69,13 94.69,13C94.69,13 94.69,13 94.69,13C94.69,13 99.2,14.19 99.2,14.19C99.2,14.19 99.2,14.19 99.2,14.19C99.2,14.19 99.64,14.32 100.06,14.46C101.21,14.84 104.31,15.76 106.5,16.64C108.88,17.6 111.58,19.22 113.8,20.09C115.58,20.78 117.68,21.42 118.74,21.63C119.22,21.72 119.32,21.7 119.82,21.72C120.96,21.77 123.86,21.87 125.4,21.72C126.5,21.61 127.48,21.2 128.19,21.18C128.63,21.17 128.79,21.25 129.26,21.34C130.22,21.52 132.49,22.1 133.56,22.29C134.19,22.4 134.43,22.37 135.06,22.48C136.16,22.68 137.9,23.05 139.57,23.55C141.73,24.2 145.21,25.67 146.87,26.24C147.72,26.53 148.2,26.65 148.8,26.85C149.34,27.03 149.73,27.37 150.31,27.39C151.09,27.42 152.5,26.78 153.1,26.63C153.39,26.56 153.46,26.56 153.74,26.48C154.28,26.33 155.29,25.92 156.1,25.68C156.94,25.44 157.68,25.32 158.68,25.04C160.11,24.64 162.68,23.72 163.83,23.41C164.4,23.26 164.51,23.26 165.12,23.12C166.59,22.78 170.66,21.84 172.64,21.31C173.94,20.96 174.86,20.56 175.86,20.36C176.7,20.19 177.37,20.13 178.22,20.08C179.21,20.02 180.34,19.96 181.44,20.05C182.62,20.15 183.78,20.39 185.09,20.71C186.67,21.1 188.78,22.2 190.25,22.33C191.31,22.43 191.93,22.09 193.04,21.98C194.66,21.82 197.95,21.58 199.05,21.52C199.47,21.5 199.59,21.53 199.91,21.49C200.34,21.44 200.77,21.26 201.41,21.19C202.51,21.06 205.01,21.1 205.92,21.05C206.32,21.03 206.38,20.99 206.78,20.99C207.69,20.98 210.76,21.19 211.29,21.22C211.41,21.23 211.39,21.22 211.5,21.23C211.94,21.26 213.81,21.38 214.72,21.47C215.38,21.54 215.91,21.59 216.44,21.68C216.9,21.76 217.26,21.82 217.73,21.95C218.31,22.11 219.19,22.45 219.66,22.61C219.93,22.7 219.99,22.71 220.31,22.83C221.19,23.15 224.13,24.42 225.25,24.79C225.81,24.97 226.17,25.04 226.53,25.13C226.78,25.2 226.91,25.26 227.18,25.3C227.61,25.36 228.4,25.3 228.9,25.35C229.3,25.39 229.6,25.43 229.97,25.55C230.39,25.68 230.82,25.91 231.26,26.14C231.75,26.39 232.76,27.01 232.76,27.01C232.76,27.01 232.76,27.01 232.76,27.01C232.76,27.01 235.15,27.86 235.98,28.19C236.51,28.4 236.84,28.58 237.27,28.75C237.7,28.92 238.24,29.12 238.56,29.23C238.74,29.29 238.87,29.32 238.99,29.36C239.07,29.39 239.09,29.4 239.2,29.44C239.56,29.57 240.83,30.08 241.56,30.27C242.17,30.43 242.71,30.47 243.28,30.58C243.85,30.7 244.57,30.86 245,30.96C245.27,31.02 245.41,31.08 245.64,31.12C245.9,31.16 246.12,31.13 246.5,31.18C247.23,31.28 248.99,31.65 249.72,31.83C250.1,31.92 250.26,32 250.58,32.07C250.96,32.15 251.39,32.18 251.87,32.26C252.5,32.36 253.4,32.46 254.02,32.61C254.51,32.73 254.95,32.94 255.31,33.04C255.56,33.11 255.76,33.15 255.95,33.19C256.11,33.22 256.2,33.21 256.38,33.26C256.73,33.35 257.33,33.6 257.88,33.79C258.53,34.02 259.29,34.24 260.03,34.54C260.86,34.88 261.85,35.5 262.61,35.75C263.16,35.93 263.63,35.91 264.11,36.04C264.56,36.16 265.15,36.39 265.4,36.48C265.5,36.52 265.54,36.55 265.61,36.57C265.68,36.59 265.75,36.59 265.83,36.61C265.95,36.64 266.1,36.71 266.26,36.76C266.45,36.82 266.69,36.85 266.9,36.91C267.12,36.97 267.3,37.04 267.55,37.13C267.91,37.25 268.4,37.45 268.83,37.57C269.26,37.69 269.81,37.76 270.12,37.84C270.3,37.89 270.55,37.98 270.55,37.98C270.55,37.98 270.55,37.98 270.55,37.98C270.55,37.98 272.07,38.7 272.7,38.91C273.18,39.07 273.5,39.17 273.99,39.22C274.61,39.28 275.78,39.19 276.13,39.16C276.24,39.15 276.28,39.13 276.35,39.13C276.42,39.13 276.46,39.12 276.56,39.13C276.86,39.16 277.77,39.34 278.28,39.45C278.68,39.54 279.14,39.68 279.36,39.71C279.46,39.72 279.5,39.72 279.57,39.72C279.64,39.72 279.72,39.71 279.79,39.71Q279.86,39.71 280,39.73" style="vector-effect: none; fill: none; stroke: rgb(138, 44, 81); stroke-opacity: 1; stroke-width: 5px; opacity: 1;"/></g><g class="points"/><g class="text"/></g><g class="trace scatter trace4f0598" style="stroke-miterlimit: 2; opacity: 1;"><g class="fills"/><g class="errorbars"/><g class="lines"><path class="js-line" d="M80.52,70.54Q83.65,67.55 84.6,66.92C85.04,66.63 85.23,66.56 85.67,66.42C86.3,66.22 87.05,66.18 88.04,65.96C89.7,65.59 94.69,64.27 94.69,64.27C94.69,64.27 94.69,64.27 94.69,64.27C94.69,64.27 99.2,63.57 99.2,63.57C99.2,63.57 99.2,63.57 99.2,63.57C99.2,63.57 99.64,63.7 100.06,63.72C101.21,63.78 104.3,63.6 106.5,63.23C108.87,62.83 111.61,61.95 113.8,61.32C115.61,60.8 117.68,59.91 118.74,59.78C119.22,59.72 119.32,59.83 119.82,59.85C120.96,59.89 123.86,59.96 125.4,59.91C126.49,59.87 127.48,59.78 128.19,59.7C128.63,59.65 128.78,59.62 129.26,59.54C130.21,59.38 132.5,58.99 133.56,58.77C134.19,58.64 134.42,58.52 135.06,58.42C136.15,58.26 137.89,58.27 139.57,58.12C141.71,57.93 145.22,57.5 146.87,57.33C147.72,57.24 148.2,57.13 148.8,57.15C149.34,57.17 149.73,57.34 150.31,57.39C151.1,57.46 152.5,57.42 153.1,57.46C153.39,57.48 153.46,57.52 153.74,57.53C154.28,57.54 155.3,57.39 156.1,57.39C156.94,57.39 157.67,57.55 158.68,57.55C160.1,57.55 162.68,57.25 163.83,57.25C164.4,57.25 164.51,57.29 165.12,57.32C166.59,57.39 170.66,57.53 172.64,57.58C173.94,57.61 174.87,57.55 175.86,57.62C176.71,57.68 177.37,57.93 178.22,57.95C179.21,57.98 180.33,57.7 181.44,57.69C182.62,57.68 183.77,57.95 185.09,57.91C186.66,57.86 188.79,57.28 190.25,57.26C191.32,57.25 191.93,57.56 193.04,57.55C194.66,57.54 197.96,57.1 199.05,56.87C199.47,56.78 199.58,56.7 199.91,56.61C200.34,56.5 200.77,56.35 201.41,56.27C202.5,56.13 205.01,56.15 205.92,56.1C206.32,56.08 206.38,56.07 206.78,56.04C207.69,55.98 210.76,55.8 211.29,55.77C211.41,55.76 211.39,55.77 211.5,55.76C211.94,55.73 213.82,55.6 214.72,55.46C215.39,55.36 215.91,55.18 216.44,55.09C216.9,55.02 217.26,55.02 217.73,54.95C218.31,54.87 219.19,54.71 219.66,54.61C219.94,54.55 219.99,54.49 220.31,54.46C221.18,54.38 224.14,54.63 225.25,54.68C225.82,54.7 226.18,54.7 226.53,54.73C226.78,54.75 226.91,54.81 227.18,54.8C227.62,54.79 228.39,54.61 228.9,54.52C229.3,54.45 229.6,54.37 229.97,54.32C230.38,54.27 230.81,54.28 231.26,54.23C231.74,54.18 232.76,54 232.76,54C232.76,54 232.76,54 232.76,54C232.76,54 235.14,53.28 235.98,53.14C236.5,53.05 236.84,53.1 237.27,53.05C237.7,53 238.24,52.89 238.56,52.85C238.74,52.83 238.87,52.81 238.99,52.81C239.07,52.81 239.09,52.83 239.2,52.82C239.56,52.8 240.83,52.5 241.56,52.45C242.18,52.4 242.71,52.5 243.28,52.46C243.85,52.42 244.57,52.28 245,52.23C245.26,52.2 245.41,52.21 245.64,52.18C245.91,52.14 246.12,52.06 246.5,52.02C247.23,51.94 248.99,51.95 249.72,51.87C250.1,51.83 250.26,51.77 250.58,51.72C250.97,51.66 251.38,51.59 251.87,51.54C252.49,51.47 253.39,51.38 254.02,51.37C254.5,51.36 254.95,51.41 255.31,51.42C255.56,51.42 255.76,51.41 255.95,51.42C256.11,51.43 256.19,51.46 256.38,51.46C256.73,51.47 257.34,51.43 257.88,51.4C258.53,51.37 259.28,51.31 260.03,51.28C260.85,51.25 261.87,51.21 262.61,51.25C263.18,51.28 263.63,51.41 264.11,51.44C264.56,51.47 265.15,51.44 265.4,51.44C265.5,51.44 265.54,51.44 265.61,51.44C265.68,51.44 265.74,51.45 265.83,51.46C265.95,51.47 266.1,51.48 266.26,51.51C266.45,51.54 266.68,51.62 266.9,51.65C267.11,51.68 267.3,51.68 267.55,51.71C267.91,51.75 268.4,51.84 268.83,51.88C269.26,51.92 269.81,51.97 270.12,51.97C270.3,51.97 270.55,51.95 270.55,51.95C270.55,51.95 270.55,51.95 270.55,51.95C270.55,51.95 272.07,51.82 272.7,51.82C273.18,51.82 273.51,51.84 273.99,51.91C274.62,52 275.78,52.31 276.13,52.39C276.24,52.42 276.28,52.43 276.35,52.44C276.42,52.45 276.46,52.44 276.56,52.44C276.86,52.44 277.77,52.43 278.28,52.44C278.68,52.45 279.14,52.47 279.36,52.49C279.46,52.5 279.5,52.51 279.57,52.51C279.64,52.52 279.72,52.52 279.79,52.52Q279.86,52.52 280,52.52" style="vector-effect: none; fill: none; stroke: rgb(153, 51, 0); stroke-opacity: 1; stroke-width: 5px; opacity: 1;"/></g><g class="points"/><g class="text"/></g><g class="trace scatter trace40db55" style="stroke-miterlimit: 2; opacity: 1;"><g class="fills"/><g class="errorbars"/><g class="lines"><path class="js-line" d="M0,5.39Q2.76,5.71 4.08,5.48C5.41,5.25 6.86,4.28 7.94,4.01C8.68,3.82 9.48,3.65 9.88,3.75C10.09,3.8 10.08,3.91 10.31,4.07C11.19,4.67 15.25,7.42 16.75,8.11C17.48,8.44 17.84,8.39 18.47,8.64C19.3,8.97 20.35,9.47 21.26,10.03C22.22,10.62 22.96,11.44 24.05,12.12C25.39,12.95 27.47,13.65 28.77,14.52C29.81,15.21 30.31,15.79 31.35,16.73C33.03,18.26 36.41,21.98 37.79,22.98C38.35,23.38 38.62,23.43 39.08,23.66C39.61,23.92 40.22,24.1 40.8,24.47C41.5,24.91 42.09,25.61 42.94,26.22C44.06,27.03 46.15,28.4 47.02,28.82C47.4,29 47.65,29 47.88,29.11C48.05,29.19 48.12,29.26 48.31,29.36C48.69,29.55 49.56,29.87 50.03,30.11C50.37,30.28 50.5,30.4 50.89,30.6C51.65,30.99 53.26,31.59 54.33,32.15C55.32,32.67 56.72,33.59 57.12,33.8C57.23,33.86 57.22,33.84 57.33,33.9C57.79,34.14 60.08,35.54 60.77,35.93C61.07,36.1 61.14,36.18 61.41,36.28C61.8,36.42 62.56,36.49 62.91,36.57C63.1,36.61 63.12,36.63 63.34,36.68C64.05,36.85 66.87,37.42 67.85,37.74C68.34,37.9 68.61,38.14 68.93,38.21C69.17,38.26 69.28,38.16 69.57,38.22C70.3,38.36 72.36,39.3 73.22,39.6C73.68,39.76 73.87,39.76 74.29,39.94C74.94,40.22 75.76,40.86 76.66,41.28C77.77,41.8 79.26,42.08 80.52,42.75C81.91,43.49 83.66,45.07 84.6,45.62C85.06,45.89 85.23,45.97 85.67,46.14C86.3,46.38 87.05,46.54 88.04,46.84C89.7,47.35 94.69,48.94 94.69,48.94C94.69,48.94 94.69,48.94 94.69,48.94C94.69,48.94 99.2,50.1 99.2,50.1C99.2,50.1 99.2,50.1 99.2,50.1C99.2,50.1 99.64,50.09 100.06,50.09C101.21,50.08 104.29,50.14 106.5,50.06C108.86,49.98 111.61,49.53 113.8,49.59C115.61,49.64 117.69,50.16 118.74,50.18C119.23,50.19 119.32,50.08 119.82,50.1C120.96,50.14 123.86,50.66 125.4,50.96C126.49,51.17 127.48,51.58 128.19,51.62C128.63,51.65 128.78,51.56 129.26,51.5C130.21,51.39 132.49,50.96 133.56,50.95C134.19,50.94 134.43,51.09 135.06,51.1C136.16,51.12 137.89,50.87 139.57,50.84C141.71,50.8 145.22,50.84 146.87,50.96C147.72,51.02 148.19,51.16 148.8,51.21C149.33,51.25 149.73,51.18 150.31,51.24C151.1,51.32 152.5,51.65 153.1,51.74C153.39,51.78 153.46,51.8 153.74,51.81C154.28,51.83 155.3,51.78 156.1,51.69C156.94,51.6 157.67,51.34 158.68,51.24C160.1,51.1 162.69,51.2 163.83,51.11C164.4,51.06 164.51,51.01 165.12,50.93C166.59,50.74 170.67,49.89 172.64,50.08C173.95,50.21 174.86,50.85 175.86,51.09C176.7,51.29 177.37,51.34 178.22,51.49C179.21,51.67 180.33,52.03 181.44,52.09C182.61,52.15 183.77,51.76 185.09,51.79C186.66,51.83 188.79,52.35 190.25,52.48C191.32,52.58 191.94,52.53 193.04,52.62C194.67,52.75 197.95,53.19 199.05,53.31C199.47,53.36 199.58,53.37 199.91,53.4C200.34,53.44 200.77,53.52 201.41,53.55C202.51,53.61 205.01,53.55 205.92,53.59C206.32,53.61 206.38,53.62 206.78,53.65C207.69,53.73 210.76,54.09 211.29,54.12C211.4,54.13 211.39,54.12 211.5,54.12C211.94,54.12 213.81,54.12 214.72,54.16C215.38,54.19 215.91,54.27 216.44,54.3C216.9,54.32 217.26,54.3 217.73,54.32C218.31,54.35 219.19,54.44 219.66,54.48C219.93,54.5 219.99,54.53 220.31,54.54C221.19,54.56 224.14,54.3 225.25,54.33C225.82,54.35 226.18,54.41 226.53,54.46C226.78,54.49 226.91,54.51 227.18,54.57C227.62,54.67 228.39,54.93 228.9,55.07C229.3,55.18 229.6,55.28 229.97,55.37C230.38,55.47 230.81,55.54 231.26,55.64C231.74,55.74 232.76,55.98 232.76,55.98C232.76,55.98 232.76,55.98 232.76,55.98C232.76,55.98 235.14,56.88 235.98,57.15C236.5,57.32 236.84,57.42 237.27,57.51C237.7,57.6 238.24,57.68 238.56,57.7C238.74,57.71 238.87,57.71 238.99,57.7C239.07,57.69 239.09,57.68 239.2,57.67C239.56,57.64 240.84,57.64 241.56,57.57C242.18,57.51 242.71,57.42 243.28,57.32C243.85,57.22 244.56,57.06 245,56.99C245.26,56.95 245.41,56.92 245.64,56.9C245.9,56.88 246.12,56.9 246.5,56.88C247.23,56.83 248.99,56.6 249.72,56.55C250.1,56.52 250.26,56.52 250.58,56.52C250.97,56.52 251.39,56.54 251.87,56.57C252.5,56.6 253.39,56.7 254.02,56.71C254.5,56.71 254.95,56.66 255.31,56.65C255.56,56.64 255.76,56.64 255.95,56.64C256.11,56.64 256.19,56.63 256.38,56.63C256.73,56.63 257.34,56.65 257.88,56.65C258.53,56.65 259.28,56.66 260.03,56.64C260.85,56.62 261.87,56.54 262.61,56.51C263.18,56.49 263.63,56.48 264.11,56.48C264.56,56.48 265.15,56.49 265.4,56.5C265.5,56.5 265.54,56.51 265.61,56.51C265.68,56.51 265.74,56.5 265.83,56.5C265.95,56.49 266.1,56.49 266.26,56.47C266.45,56.45 266.69,56.4 266.9,56.37C267.12,56.34 267.3,56.3 267.55,56.27C267.9,56.23 268.4,56.21 268.83,56.17C269.26,56.13 269.81,56.05 270.12,56.02C270.3,56 270.55,55.98 270.55,55.98C270.55,55.98 270.55,55.98 270.55,55.98C270.55,55.98 272.08,55.9 272.7,55.84C273.19,55.79 273.51,55.74 273.99,55.68C274.61,55.6 275.78,55.46 276.13,55.41C276.24,55.39 276.28,55.38 276.35,55.37C276.42,55.36 276.46,55.35 276.56,55.33C276.86,55.26 277.77,54.95 278.28,54.82C278.68,54.71 279.14,54.61 279.36,54.57C279.46,54.55 279.5,54.55 279.57,54.55C279.64,54.55 279.72,54.55 279.79,54.56Q279.86,54.56 280,54.58" style="vector-effect: none; fill: none; stroke: rgb(97, 162, 41); stroke-opacity: 1; stroke-width: 5px; opacity: 1;"/></g><g class="points"/><g class="text"/></g></g></g><g class="overplot"/><path class="xlines-above crisp" d="M0,0" style="fill: none;"/><path class="ylines-above crisp" d="M0,0" style="fill: none;"/><g class="overlines-above"/><g class="xaxislayer-above"/><g class="yaxislayer-above"/><g class="overaxes-above"/></g></g><g class="polarlayer"/><g class="smithlayer"/><g class="ternarylayer"/><g class="geolayer"/><g class="funnelarealayer"/><g class="pielayer"/><g class="iciclelayer"/><g class="treemaplayer"/><g class="sunburstlayer"/><g class="glimages"/><defs id="topdefs-2e9929"><g class="clips"/></defs><g class="layer-above"><g class="imagelayer"/><g class="shapelayer"/></g><g class="infolayer"><g class="g-gtitle"><text class="gtitle" x="15" y="25" text-anchor="start" dy="0em" style="font-family: Ubuntu, verdana, arial, sans-serif; font-size: 16px; fill: rgb(233, 84, 32); opacity: 1; font-weight: normal; white-space: pre;">NRSR 2020-2023</text></g><g class="g-xtitle"/><g class="g-ytitle"/></g></svg>