<svg class="main-svg" xmlns="http://www.w3.org/2000/svg" xmlns:xlink="http://www.w3.org/1999/xlink" width="300" height="135" style="" viewBox="0 0 300 135"><rect x="0" y="0" width="300" height="135" style="fill: rgb(255, 255, 255); fill-opacity: 1;"/><defs id="defs-440d50"><g class="clips"><clipPath id="clip440d50xyplot" class="plotclip"><rect width="280" height="75"/></clipPath><clipPath class="axesclip" id="clip440d50x"><rect x="10" y="0" width="280" height="135"/></clipPath><clipPath class="axesclip" id="clip440d50y"><rect x="0" y="50" width="300" height="75"/></clipPath><clipPath class="axesclip" id="clip440d50xy"><rect x="10" y="50" width="280" height="75"/></clipPath></g><g class="gradients"/><g class="patterns"/></defs><g class="bglayer"/><g class="layer-below"><g class="imagelayer"/><g class="shapelayer"/></g><g class="cartesianlayer"><g class="subplot xy"><g class="layer-subplot"><g class="shapelayer"/><g class="imagelayer"/></g><g class="minor-gridlayer"><g class="x"/><g class="y"/></g><g class="gridlayer"><g class="x"><path class="xgrid crisp" transform="translate(76.07,0)" d="M0,50v75" style="stroke: rgb(235, 240, 248); stroke-opacity: 1; stroke-width: 1px;"/><path class="xgrid crisp" transform="translate(154.63,0)" d="M0,50v75" style="stroke: rgb(235, 240, 248); stroke-opacity: 1; stroke-width: 1px;"/><path class="xgrid crisp" transform="translate(233.18,0)" d="M0,50v75" style="stroke: rgb(235, 240, 248); stroke-opacity: 1; stroke-width: 1px;"/></g><g class="y"><path class="ygrid crisp" transform="translate(0,97.18)" d="M10,0h280" style="stroke: rgb(235, 240, 248); stroke-opacity: 1; stroke-width: 1px;"/><path class="ygrid crisp" transform="translate(0,69.35)" d="M10,0h280" style="stroke: rgb(235, 240, 248); stroke-opacity: 1; stroke-width: 1px;"/></g></g><g class="zerolinelayer"><path class="yzl zl crisp" transform="translate(0,125)" d="M10,0h280" style="stroke: rgb(235, 240, 248); stroke-opacity: 1; stroke-width: 2px;"/></g><path class="xlines-below"/><path class="ylines-below"/><g class="overlines-below"/><g class="xaxislayer-below"/><g class="yaxislayer-below"/><g class="overaxes-below"/><g class="plot" transform="translate(10,50)" clip-path="url(#clip440d50xyplot)"><g class="scatterlayer mlayer"><g class="trace scatter trace7a2b3e" style="stroke-miterlimit: 2; opacity: 1;"><g class="fills"/><g class="errorbars"/><g class="lines"><path class="js-line" d="M0,24.11Q2.52,19.27 4.09,18.53C5.26,17.98 6.9,18.59 7.96,18.75C8.72,18.86 9.48,19.19 9.9,19.21C10.09,19.22 10.1,19.14 10.33,19.15C11.22,19.2 15.36,20.18 16.79,20.82C17.59,21.17 17.9,21.44 18.51,21.96C19.37,22.7 20.4,23.92 21.31,25.02C22.27,26.18 23.13,27.17 24.1,28.76C25.58,31.18 27.4,36.04 28.84,38.43C29.76,39.96 30.23,40.88 31.42,42.01C32.99,43.5 36.54,45.39 37.88,46.16C38.46,46.49 38.71,46.56 39.17,46.81C39.71,47.1 40.27,47.5 40.89,47.79C41.56,48.11 42.2,48.34 43.04,48.62C44.18,49 46.27,49.59 47.13,49.77C47.52,49.85 47.75,49.88 47.99,49.88C48.16,49.88 48.23,49.83 48.42,49.83C48.8,49.82 49.67,49.95 50.15,49.96C50.49,49.97 50.63,49.9 51.01,49.94C51.78,50.01 53.36,50.62 54.45,50.69C55.43,50.75 56.85,50.46 57.25,50.43C57.36,50.42 57.35,50.43 57.46,50.42C57.92,50.38 60.22,50.02 60.91,49.99C61.21,49.98 61.29,50 61.55,50.02C61.95,50.06 62.71,50.19 63.06,50.24C63.25,50.27 63.27,50.28 63.49,50.3C64.2,50.36 67.02,50.45 68.01,50.44C68.49,50.44 68.78,50.4 69.09,50.39C69.33,50.38 69.43,50.39 69.73,50.37C70.45,50.33 72.53,50.16 73.39,50.09C73.86,50.05 74.04,50.06 74.47,50C75.11,49.92 75.95,49.75 76.83,49.57C77.97,49.34 79.41,49.11 80.71,48.73C82.07,48.33 83.87,47.49 84.8,47.19C85.27,47.04 85.44,46.99 85.87,46.91C86.5,46.79 87.27,46.84 88.24,46.6C89.92,46.19 94.91,44.21 94.91,44.21C94.91,44.21 94.91,44.21 94.91,44.21C94.91,44.21 99.43,42.24 99.43,42.24C99.43,42.24 99.43,42.24 99.43,42.24C99.43,42.24 99.87,42.36 100.29,42.39C101.44,42.47 104.56,42.6 106.75,42.21C109.15,41.78 111.92,40.73 114.07,39.72C115.94,38.84 117.95,37.16 119.02,36.67C119.49,36.45 119.59,36.49 120.09,36.32C121.23,35.94 124.15,34.99 125.69,34.4C126.79,33.97 127.77,33.29 128.49,33.19C128.92,33.13 129.09,33.24 129.56,33.34C130.52,33.54 132.8,34.4 133.87,34.52C134.49,34.59 134.74,34.44 135.37,34.44C136.47,34.43 138.21,34.72 139.89,34.62C142.04,34.5 145.56,33.86 147.21,33.49C148.07,33.3 148.54,33.02 149.15,32.92C149.68,32.83 150.07,32.85 150.65,32.84C151.44,32.83 152.84,32.93 153.45,32.91C153.74,32.9 153.82,32.85 154.1,32.85C154.64,32.85 155.66,32.94 156.46,33.05C157.31,33.17 158.03,33.44 159.05,33.57C160.47,33.75 163.06,33.75 164.21,33.85C164.78,33.9 164.89,33.94 165.5,34.01C166.97,34.18 171.05,34.82 173.04,34.79C174.34,34.77 175.27,34.44 176.26,34.35C177.11,34.27 177.78,34.25 178.63,34.22C179.62,34.18 180.75,34.21 181.86,34.14C183.04,34.07 184.2,33.96 185.52,33.79C187.1,33.59 189.22,33.13 190.68,32.98C191.75,32.87 192.37,32.93 193.48,32.85C195.11,32.74 198.41,32.41 199.51,32.3C199.93,32.26 200.04,32.24 200.37,32.2C200.8,32.15 201.24,32.12 201.88,32.05C202.98,31.93 205.48,31.58 206.4,31.51C206.8,31.48 206.86,31.53 207.26,31.49C208.18,31.41 211.25,30.88 211.78,30.79C211.9,30.77 211.88,30.77 211.99,30.75C212.43,30.68 214.31,30.42 215.22,30.27C215.88,30.16 216.41,30.05 216.94,29.94C217.4,29.84 217.76,29.75 218.23,29.64C218.81,29.5 219.7,29.28 220.17,29.17C220.44,29.11 220.5,29.09 220.81,29.02C221.68,28.83 224.64,28.28 225.76,28.02C226.34,27.89 226.71,27.83 227.06,27.68C227.32,27.57 227.43,27.45 227.7,27.3C228.13,27.07 228.9,26.61 229.42,26.46C229.81,26.35 230.13,26.43 230.5,26.34C230.92,26.24 231.35,26.04 231.79,25.85C232.28,25.64 233.3,25.1 233.3,25.1C233.3,25.1 233.3,25.1 233.3,25.1C233.3,25.1 235.7,24.93 236.53,24.95C237.06,24.96 237.39,25.04 237.82,25.08C238.25,25.12 238.8,25.17 239.11,25.17C239.29,25.17 239.42,25.14 239.54,25.13C239.62,25.12 239.64,25.12 239.75,25.1C240.11,25.02 241.39,24.49 242.12,24.43C242.73,24.38 243.27,24.55 243.84,24.6C244.41,24.65 245.12,24.72 245.56,24.73C245.83,24.74 245.98,24.74 246.21,24.71C246.48,24.68 246.69,24.61 247.07,24.52C247.8,24.34 249.57,23.86 250.3,23.65C250.68,23.54 250.84,23.44 251.16,23.39C251.54,23.33 251.97,23.4 252.45,23.34C253.08,23.27 253.97,23.06 254.6,22.93C255.09,22.83 255.54,22.72 255.9,22.62C256.15,22.55 256.35,22.48 256.54,22.43C256.7,22.39 256.78,22.37 256.97,22.33C257.32,22.25 257.93,22.1 258.48,21.97C259.13,21.81 259.88,21.62 260.63,21.43C261.45,21.22 262.46,20.91 263.21,20.76C263.78,20.65 264.24,20.65 264.72,20.56C265.17,20.48 265.76,20.33 266.01,20.27C266.11,20.25 266.16,20.24 266.23,20.22C266.3,20.21 266.36,20.2 266.44,20.18C266.56,20.15 266.71,20.09 266.87,20.05C267.06,20 267.3,19.97 267.52,19.93C267.73,19.89 267.91,19.86 268.16,19.82C268.52,19.76 269.02,19.63 269.45,19.62C269.88,19.61 270.43,19.72 270.75,19.74C270.93,19.75 271.18,19.76 271.18,19.76C271.18,19.76 271.18,19.76 271.18,19.76C271.18,19.76 272.7,19.82 273.33,19.87C273.82,19.9 274.14,19.99 274.62,19.99C275.25,19.99 276.42,19.81 276.77,19.81C276.88,19.81 276.92,19.82 276.99,19.83C277.06,19.84 277.1,19.85 277.2,19.85C277.5,19.86 278.41,19.82 278.92,19.83Q279.32,19.84 280,19.88" style="vector-effect: none; fill: none; stroke: rgb(238, 58, 67); stroke-opacity: 1; stroke-width: 5px; opacity: 1;"/></g><g class="points"/><g class="text"/></g><g class="trace scatter tracee2c443" style="stroke-miterlimit: 2; opacity: 1;"><g class="fills"/><g class="errorbars"/><g class="lines"><path class="js-line" d="M0,55.63Q2.74,56.41 4.09,56.45C5.39,56.49 6.89,55.98 7.96,55.91C8.72,55.86 9.49,55.94 9.9,55.93C10.1,55.92 10.1,55.9 10.33,55.9C11.21,55.91 15.32,56.43 16.79,56.55C17.55,56.61 17.87,56.6 18.51,56.65C19.33,56.72 20.38,56.82 21.31,56.95C22.24,57.08 23.05,57.26 24.1,57.44C25.47,57.68 27.49,58.15 28.84,58.26C29.83,58.34 30.37,58.16 31.42,58.22C33.09,58.32 36.55,59.03 37.88,59.12C38.47,59.16 38.71,59.11 39.17,59.11C39.7,59.11 40.29,59.18 40.89,59.15C41.57,59.12 42.21,58.94 43.04,58.9C44.18,58.84 46.27,58.92 47.13,58.95C47.52,58.96 47.75,58.99 47.99,59C48.16,59 48.23,59 48.42,59C48.8,58.99 49.67,58.97 50.15,58.94C50.49,58.92 50.63,58.9 51.01,58.86C51.78,58.77 53.36,58.45 54.45,58.4C55.43,58.35 56.85,58.48 57.25,58.5C57.36,58.5 57.35,58.51 57.46,58.51C57.92,58.52 60.22,58.46 60.91,58.43C61.21,58.42 61.29,58.41 61.55,58.39C61.95,58.37 62.71,58.31 63.06,58.3C63.25,58.29 63.27,58.3 63.49,58.3C64.2,58.3 67.02,58.26 68.01,58.29C68.49,58.31 68.78,58.36 69.09,58.36C69.33,58.36 69.43,58.38 69.73,58.33C70.45,58.22 72.53,57.62 73.39,57.38C73.86,57.25 74.04,57.17 74.47,57.06C75.1,56.9 75.95,56.76 76.83,56.55C77.97,56.28 79.39,55.79 80.71,55.57C82.05,55.35 83.88,55.28 84.8,55.23C85.27,55.2 85.45,55.25 85.87,55.2C86.51,55.13 87.24,54.83 88.24,54.71C89.89,54.52 94.91,54.53 94.91,54.53C94.91,54.53 94.91,54.53 94.91,54.53C94.91,54.53 99.43,54.34 99.43,54.34C99.43,54.34 99.43,54.34 99.43,54.34C99.43,54.34 99.87,54.22 100.29,54.14C101.44,53.91 104.52,53.35 106.75,53.07C109.11,52.77 111.87,52.38 114.07,52.43C115.88,52.47 117.97,53.05 119.02,53.07C119.51,53.08 119.59,52.97 120.09,52.97C121.23,52.96 124.15,53.18 125.69,53.43C126.79,53.61 127.77,54.05 128.49,54.1C128.93,54.13 129.09,54.08 129.56,53.99C130.52,53.82 132.8,53.05 133.87,52.86C134.49,52.75 134.74,52.81 135.37,52.71C136.47,52.54 138.2,52.08 139.89,51.78C142.03,51.39 145.55,50.9 147.21,50.65C148.06,50.52 148.55,50.48 149.15,50.37C149.68,50.27 150.07,50.09 150.65,50.05C151.44,49.99 152.84,50.21 153.45,50.24C153.74,50.25 153.82,50.23 154.1,50.26C154.64,50.31 155.65,50.53 156.46,50.61C157.3,50.69 158.04,50.64 159.05,50.71C160.48,50.81 163.07,51.25 164.21,51.2C164.79,51.17 164.89,51.09 165.5,50.96C166.97,50.65 171.04,49.52 173.04,49.18C174.33,48.96 175.27,48.98 176.26,48.85C177.11,48.74 177.78,48.57 178.63,48.47C179.62,48.35 180.76,48.38 181.86,48.22C183.05,48.05 184.2,47.73 185.52,47.42C187.1,47.04 189.21,46.27 190.68,46.09C191.75,45.96 192.37,46.16 193.48,46.11C195.11,46.04 198.41,45.69 199.51,45.55C199.93,45.5 200.04,45.44 200.37,45.41C200.8,45.38 201.24,45.47 201.88,45.42C202.99,45.33 205.48,44.77 206.4,44.65C206.8,44.6 206.86,44.61 207.26,44.57C208.18,44.48 211.25,44.21 211.78,44.12C211.9,44.1 211.88,44.09 211.99,44.07C212.43,43.99 214.31,43.77 215.22,43.59C215.89,43.46 216.41,43.33 216.94,43.17C217.41,43.03 217.75,42.86 218.23,42.69C218.81,42.49 219.7,42.17 220.17,42.04C220.44,41.97 220.49,41.92 220.81,41.9C221.68,41.83 224.64,42.05 225.76,42.19C226.34,42.26 226.7,42.36 227.06,42.44C227.31,42.5 227.43,42.57 227.7,42.61C228.13,42.68 228.91,42.72 229.42,42.7C229.82,42.68 230.13,42.61 230.5,42.54C230.91,42.46 231.34,42.31 231.79,42.26C232.27,42.2 233.3,42.23 233.3,42.23C233.3,42.23 233.3,42.23 233.3,42.23C233.3,42.23 235.69,41.47 236.53,41.22C237.06,41.06 237.39,40.92 237.82,40.86C238.25,40.8 238.8,40.85 239.11,40.83C239.29,40.82 239.42,40.8 239.54,40.78C239.62,40.77 239.64,40.78 239.75,40.75C240.12,40.65 241.39,40.09 242.12,39.8C242.74,39.55 243.26,39.32 243.84,39.12C244.41,38.93 245.12,38.73 245.56,38.63C245.83,38.57 245.98,38.57 246.21,38.51C246.48,38.44 246.69,38.35 247.07,38.22C247.8,37.96 249.56,37.29 250.3,37.06C250.68,36.94 250.84,36.9 251.16,36.82C251.55,36.72 251.97,36.64 252.45,36.52C253.08,36.36 253.98,36.13 254.6,35.93C255.09,35.77 255.55,35.6 255.9,35.43C256.16,35.31 256.35,35.16 256.54,35.05C256.7,34.96 256.78,34.92 256.97,34.82C257.32,34.63 257.93,34.3 258.48,34.02C259.13,33.69 259.89,33.39 260.63,33C261.46,32.57 262.46,31.93 263.21,31.53C263.78,31.23 264.24,31.02 264.72,30.79C265.17,30.58 265.76,30.31 266.01,30.19C266.11,30.14 266.16,30.12 266.23,30.09C266.3,30.07 266.36,30.06 266.44,30.04C266.56,30.01 266.71,29.94 266.87,29.89C267.06,29.83 267.3,29.76 267.52,29.69C267.73,29.63 267.91,29.57 268.16,29.5C268.51,29.4 269.02,29.26 269.45,29.15C269.88,29.04 270.43,28.89 270.75,28.83C270.93,28.79 271.18,28.76 271.18,28.76C271.18,28.76 271.18,28.76 271.18,28.76C271.18,28.76 272.7,28.29 273.33,28.11C273.81,27.97 274.13,27.87 274.62,27.74C275.24,27.57 276.42,27.28 276.77,27.2C276.88,27.18 276.92,27.17 276.99,27.16C277.06,27.15 277.1,27.15 277.2,27.14C277.5,27.1 278.42,26.93 278.92,26.82Q279.32,26.73 280,26.53" style="vector-effect: none; fill: none; stroke: rgb(0, 180, 219); stroke-opacity: 1; stroke-width: 5px; opacity: 1;"/></g><g class="points"/><g class="text"/></g><g class="trace scatter trace5f6b13" style="stroke-miterlimit: 2; opacity: 1;"><g class="fills"/><g class="errorbars"/><g class="lines"><path class="js-line" d="M28.84,43.45Q30.25,39.97 31.42,37.99C33,35.32 36.48,30.57 37.88,29.1C38.42,28.53 38.71,28.44 39.17,28.06C39.7,27.62 40.3,27.17 40.89,26.63C41.58,26.01 42.21,25.35 43.04,24.52C44.19,23.37 46.26,21.18 47.13,20.35C47.51,19.98 47.75,19.78 47.99,19.58C48.15,19.45 48.23,19.41 48.42,19.26C48.81,18.94 49.66,18.07 50.15,17.67C50.48,17.4 50.6,17.18 51.01,17.03C51.75,16.76 53.36,16.92 54.45,16.81C55.43,16.71 56.85,16.52 57.25,16.42C57.36,16.39 57.35,16.38 57.46,16.34C57.91,16.17 60.22,15.34 60.91,15.13C61.21,15.04 61.3,15.05 61.55,14.96C61.95,14.82 62.71,14.42 63.06,14.28C63.24,14.21 63.27,14.2 63.49,14.13C64.2,13.92 67.02,13.28 68.01,12.99C68.5,12.85 68.77,12.69 69.09,12.63C69.33,12.58 69.43,12.62 69.73,12.58C70.45,12.48 72.54,12.08 73.39,11.82C73.87,11.67 74.03,11.49 74.47,11.37C75.1,11.21 75.95,11.21 76.83,11.09C77.96,10.94 79.4,10.51 80.71,10.53C82.06,10.55 83.88,11.09 84.8,11.23C85.27,11.3 85.44,11.33 85.87,11.36C86.5,11.4 87.26,11.28 88.24,11.4C89.91,11.61 94.91,13 94.91,13C94.91,13 94.91,13 94.91,13C94.91,13 99.43,14.19 99.43,14.19C99.43,14.19 99.43,14.19 99.43,14.19C99.43,14.19 99.87,14.32 100.29,14.46C101.44,14.84 104.56,15.76 106.75,16.64C109.14,17.6 111.84,19.22 114.07,20.09C115.85,20.78 117.97,21.42 119.02,21.63C119.5,21.72 119.59,21.7 120.09,21.72C121.22,21.77 124.15,21.87 125.69,21.72C126.79,21.61 127.78,21.2 128.49,21.18C128.93,21.17 129.09,21.25 129.56,21.34C130.52,21.52 132.8,22.1 133.87,22.29C134.5,22.4 134.74,22.37 135.37,22.48C136.48,22.68 138.22,23.05 139.89,23.55C142.05,24.2 145.55,25.67 147.21,26.24C148.06,26.53 148.55,26.65 149.15,26.85C149.68,27.03 150.07,27.37 150.65,27.39C151.43,27.42 152.84,26.78 153.45,26.63C153.74,26.56 153.82,26.56 154.1,26.48C154.64,26.33 155.65,25.92 156.46,25.68C157.3,25.43 158.04,25.32 159.05,25.04C160.48,24.64 163.06,23.72 164.21,23.41C164.78,23.26 164.89,23.26 165.5,23.12C166.97,22.78 171.06,21.84 173.04,21.31C174.34,20.96 175.26,20.56 176.26,20.36C177.1,20.19 177.78,20.13 178.63,20.08C179.62,20.02 180.75,19.96 181.86,20.05C183.05,20.15 184.21,20.39 185.52,20.71C187.1,21.1 189.21,22.2 190.68,22.33C191.74,22.43 192.37,22.09 193.48,21.98C195.11,21.82 198.41,21.58 199.51,21.52C199.93,21.5 200.04,21.53 200.37,21.49C200.8,21.44 201.24,21.26 201.88,21.19C202.98,21.06 205.49,21.1 206.4,21.05C206.8,21.03 206.86,20.99 207.26,20.99C208.18,20.98 211.25,21.19 211.78,21.22C211.9,21.23 211.88,21.22 211.99,21.23C212.43,21.26 214.31,21.38 215.22,21.47C215.88,21.54 216.41,21.59 216.94,21.68C217.4,21.76 217.76,21.82 218.23,21.95C218.82,22.11 219.7,22.45 220.17,22.61C220.44,22.7 220.5,22.71 220.81,22.83C221.68,23.15 224.63,24.43 225.76,24.79C226.33,24.97 226.7,25.02 227.06,25.12C227.31,25.19 227.43,25.26 227.7,25.3C228.13,25.37 228.91,25.3 229.42,25.35C229.82,25.39 230.13,25.43 230.5,25.55C230.92,25.68 231.35,25.91 231.79,26.14C232.28,26.39 233.3,27 233.3,27C233.3,27 233.3,27 233.3,27C233.3,27 235.7,27.86 236.53,28.19C237.06,28.4 237.39,28.58 237.82,28.75C238.25,28.92 238.79,29.11 239.11,29.22C239.29,29.28 239.42,29.31 239.54,29.35C239.62,29.38 239.64,29.4 239.75,29.44C240.11,29.58 241.39,30.07 242.12,30.26C242.73,30.42 243.27,30.46 243.84,30.57C244.41,30.68 245.12,30.84 245.56,30.94C245.83,31 245.98,31.06 246.21,31.1C246.47,31.14 246.69,31.11 247.07,31.16C247.81,31.26 249.57,31.63 250.3,31.8C250.68,31.89 250.84,31.97 251.16,32.04C251.54,32.12 251.97,32.15 252.45,32.22C253.08,32.31 253.98,32.41 254.6,32.56C255.09,32.68 255.54,32.89 255.9,32.99C256.15,33.06 256.35,33.1 256.54,33.14C256.7,33.17 256.79,33.16 256.97,33.21C257.32,33.3 257.93,33.53 258.48,33.72C259.13,33.94 259.89,34.16 260.63,34.46C261.46,34.79 262.45,35.41 263.21,35.66C263.77,35.84 264.24,35.82 264.72,35.95C265.17,36.07 265.76,36.3 266.01,36.39C266.11,36.43 266.16,36.45 266.23,36.47C266.3,36.49 266.36,36.49 266.44,36.51C266.56,36.54 266.71,36.62 266.87,36.66C267.06,36.71 267.31,36.74 267.52,36.8C267.74,36.86 267.91,36.94 268.16,37.02C268.52,37.14 269.02,37.33 269.45,37.44C269.88,37.55 270.44,37.62 270.75,37.7C270.93,37.75 271.18,37.84 271.18,37.84C271.18,37.84 271.18,37.84 271.18,37.84C271.18,37.84 272.7,38.57 273.33,38.78C273.81,38.94 274.13,39.05 274.62,39.09C275.24,39.14 276.42,39.01 276.77,38.96C276.88,38.94 276.92,38.92 276.99,38.91C277.06,38.9 277.1,38.9 277.2,38.91C277.5,38.94 278.42,39.1 278.92,39.21Q279.32,39.3 280,39.49" style="vector-effect: none; fill: none; stroke: rgb(138, 44, 81); stroke-opacity: 1; stroke-width: 5px; opacity: 1;"/></g><g class="points"/><g class="text"/></g><g class="trace scatter tracee6fbdd" style="stroke-miterlimit: 2; opacity: 1;"><g class="fills"/><g class="errorbars"/><g class="lines"><path class="js-line" d="M80.71,70.54Q83.84,67.55 84.8,66.92C85.24,66.63 85.43,66.56 85.87,66.42C86.5,66.22 87.25,66.18 88.24,65.96C89.9,65.59 94.91,64.27 94.91,64.27C94.91,64.27 94.91,64.27 94.91,64.27C94.91,64.27 99.43,63.57 99.43,63.57C99.43,63.57 99.43,63.57 99.43,63.57C99.43,63.57 99.87,63.7 100.29,63.72C101.44,63.78 104.55,63.6 106.75,63.23C109.13,62.83 111.87,61.95 114.07,61.32C115.89,60.8 117.97,59.91 119.02,59.78C119.5,59.72 119.59,59.83 120.09,59.85C121.23,59.89 124.14,59.96 125.69,59.91C126.78,59.87 127.78,59.78 128.49,59.7C128.93,59.65 129.08,59.62 129.56,59.54C130.52,59.38 132.81,58.99 133.87,58.77C134.5,58.64 134.73,58.52 135.37,58.42C136.47,58.26 138.2,58.27 139.89,58.12C142.04,57.93 145.55,57.5 147.21,57.33C148.06,57.24 148.55,57.13 149.15,57.15C149.68,57.17 150.07,57.34 150.65,57.39C151.44,57.46 152.84,57.42 153.45,57.46C153.74,57.48 153.82,57.52 154.1,57.53C154.64,57.54 155.66,57.39 156.46,57.39C157.3,57.39 158.04,57.55 159.05,57.55C160.48,57.55 163.06,57.25 164.21,57.25C164.78,57.25 164.89,57.29 165.5,57.32C166.97,57.39 171.05,57.53 173.04,57.58C174.34,57.61 175.27,57.55 176.26,57.62C177.11,57.68 177.78,57.93 178.63,57.95C179.62,57.98 180.75,57.7 181.86,57.69C183.04,57.68 184.2,57.95 185.52,57.91C187.09,57.86 189.22,57.28 190.68,57.26C191.75,57.25 192.37,57.56 193.48,57.55C195.11,57.54 198.41,57.1 199.51,56.87C199.93,56.78 200.04,56.7 200.37,56.61C200.8,56.5 201.24,56.35 201.88,56.27C202.98,56.13 205.49,56.15 206.4,56.1C206.8,56.08 206.86,56.07 207.26,56.04C208.18,55.98 211.25,55.8 211.78,55.77C211.9,55.76 211.88,55.77 211.99,55.76C212.43,55.73 214.32,55.6 215.22,55.46C215.89,55.36 216.41,55.18 216.94,55.09C217.4,55.02 217.76,55.02 218.23,54.95C218.81,54.87 219.7,54.71 220.17,54.61C220.44,54.55 220.49,54.49 220.81,54.46C221.68,54.38 224.64,54.63 225.76,54.68C226.33,54.7 226.7,54.7 227.06,54.73C227.31,54.75 227.44,54.81 227.7,54.8C228.14,54.79 228.91,54.61 229.42,54.52C229.82,54.45 230.12,54.37 230.5,54.32C230.91,54.27 231.34,54.28 231.79,54.23C232.27,54.18 233.3,54 233.3,54C233.3,54 233.3,54 233.3,54C233.3,54 235.69,53.28 236.53,53.14C237.05,53.05 237.39,53.1 237.82,53.05C238.25,53 238.79,52.89 239.11,52.85C239.29,52.83 239.42,52.81 239.54,52.81C239.62,52.81 239.64,52.83 239.75,52.82C240.11,52.8 241.39,52.5 242.12,52.45C242.74,52.4 243.27,52.5 243.84,52.46C244.41,52.42 245.12,52.28 245.56,52.23C245.83,52.2 245.98,52.21 246.21,52.18C246.48,52.14 246.69,52.06 247.07,52.02C247.8,51.94 249.57,51.95 250.3,51.87C250.68,51.83 250.84,51.77 251.16,51.72C251.55,51.66 251.96,51.58 252.45,51.53C253.07,51.46 253.97,51.38 254.6,51.36C255.09,51.35 255.54,51.39 255.9,51.4C256.15,51.41 256.35,51.4 256.54,51.41C256.7,51.42 256.78,51.44 256.97,51.44C257.32,51.45 257.93,51.41 258.48,51.38C259.13,51.35 259.88,51.28 260.63,51.25C261.45,51.22 262.47,51.17 263.21,51.21C263.78,51.24 264.24,51.37 264.72,51.4C265.17,51.43 265.76,51.39 266.01,51.39C266.11,51.39 266.16,51.39 266.23,51.39C266.3,51.39 266.36,51.4 266.44,51.41C266.56,51.42 266.71,51.44 266.87,51.46C267.06,51.49 267.3,51.56 267.52,51.59C267.73,51.62 267.91,51.62 268.16,51.65C268.52,51.69 269.02,51.77 269.45,51.81C269.88,51.85 270.43,51.89 270.75,51.89C270.93,51.89 271.18,51.86 271.18,51.86C271.18,51.86 271.18,51.86 271.18,51.86C271.18,51.86 272.7,51.69 273.33,51.67C273.81,51.66 274.14,51.66 274.62,51.72C275.25,51.8 276.42,52.12 276.77,52.2C276.88,52.23 276.92,52.24 276.99,52.25C277.06,52.26 277.1,52.25 277.2,52.25C277.5,52.24 278.41,52.16 278.92,52.14Q279.32,52.12 280,52.11" style="vector-effect: none; fill: none; stroke: rgb(153, 51, 0); stroke-opacity: 1; stroke-width: 5px; opacity: 1;"/></g><g class="points"/><g class="text"/></g><g class="trace scatter trace75028a" style="stroke-miterlimit: 2; opacity: 1;"><g class="fills"/><g class="errorbars"/><g class="lines"><path class="js-line" d="M0,5.39Q2.77,5.71 4.09,5.48C5.42,5.25 6.88,4.28 7.96,4.01C8.7,3.82 9.5,3.65 9.9,3.75C10.11,3.8 10.1,3.91 10.33,4.07C11.21,4.67 15.29,7.42 16.79,8.11C17.52,8.44 17.88,8.39 18.51,8.64C19.34,8.97 20.4,9.47 21.31,10.03C22.27,10.62 23.01,11.45 24.1,12.12C25.44,12.95 27.54,13.65 28.84,14.52C29.88,15.21 30.38,15.79 31.42,16.73C33.11,18.27 36.5,21.98 37.88,22.98C38.44,23.38 38.71,23.43 39.17,23.66C39.7,23.92 40.31,24.1 40.89,24.47C41.59,24.91 42.19,25.61 43.04,26.22C44.17,27.03 46.26,28.4 47.13,28.82C47.51,29 47.76,29 47.99,29.11C48.16,29.19 48.22,29.26 48.42,29.36C48.8,29.55 49.68,29.87 50.15,30.11C50.49,30.28 50.62,30.4 51.01,30.6C51.77,30.99 53.38,31.59 54.45,32.15C55.45,32.67 56.85,33.59 57.25,33.8C57.36,33.86 57.35,33.84 57.46,33.9C57.92,34.14 60.22,35.54 60.91,35.93C61.21,36.1 61.28,36.18 61.55,36.28C61.94,36.42 62.71,36.49 63.06,36.57C63.25,36.61 63.27,36.63 63.49,36.68C64.2,36.85 67.03,37.41 68.01,37.74C68.5,37.9 68.77,38.14 69.09,38.21C69.33,38.26 69.44,38.16 69.73,38.22C70.46,38.36 72.53,39.3 73.39,39.6C73.85,39.76 74.05,39.76 74.47,39.94C75.12,40.22 75.93,40.86 76.83,41.28C77.95,41.8 79.44,42.08 80.71,42.75C82.1,43.49 83.86,45.07 84.8,45.62C85.26,45.89 85.43,45.97 85.87,46.14C86.5,46.38 87.25,46.54 88.24,46.84C89.9,47.35 94.91,48.94 94.91,48.94C94.91,48.94 94.91,48.94 94.91,48.94C94.91,48.94 99.43,50.1 99.43,50.1C99.43,50.1 99.43,50.1 99.43,50.1C99.43,50.1 99.87,50.09 100.29,50.09C101.44,50.08 104.53,50.14 106.75,50.06C109.11,49.98 111.87,49.53 114.07,49.59C115.88,49.64 117.97,50.16 119.02,50.18C119.51,50.19 119.6,50.08 120.09,50.1C121.23,50.14 124.15,50.66 125.69,50.96C126.79,51.17 127.77,51.58 128.49,51.62C128.93,51.65 129.08,51.56 129.56,51.5C130.52,51.39 132.8,50.96 133.87,50.95C134.5,50.94 134.73,51.09 135.37,51.1C136.47,51.12 138.2,50.87 139.89,50.84C142.04,50.8 145.55,50.84 147.21,50.96C148.07,51.02 148.54,51.17 149.15,51.21C149.68,51.25 150.08,51.18 150.65,51.24C151.44,51.32 152.84,51.65 153.45,51.74C153.74,51.78 153.82,51.8 154.1,51.81C154.64,51.83 155.66,51.78 156.46,51.69C157.31,51.6 158.04,51.34 159.05,51.24C160.47,51.1 163.07,51.2 164.21,51.11C164.79,51.06 164.89,51.01 165.5,50.93C166.97,50.74 171.07,49.89 173.04,50.08C174.35,50.21 175.26,50.85 176.26,51.09C177.1,51.29 177.78,51.34 178.63,51.49C179.62,51.67 180.75,52.03 181.86,52.09C183.04,52.15 184.2,51.76 185.52,51.79C187.09,51.83 189.22,52.35 190.68,52.48C191.75,52.58 192.37,52.53 193.48,52.62C195.11,52.75 198.41,53.19 199.51,53.31C199.93,53.36 200.04,53.37 200.37,53.4C200.8,53.44 201.24,53.52 201.88,53.55C202.98,53.61 205.49,53.55 206.4,53.59C206.8,53.61 206.86,53.62 207.26,53.65C208.18,53.73 211.25,54.09 211.78,54.12C211.89,54.13 211.88,54.12 211.99,54.12C212.43,54.12 214.31,54.12 215.22,54.16C215.88,54.19 216.41,54.27 216.94,54.3C217.4,54.32 217.76,54.3 218.23,54.32C218.81,54.35 219.7,54.44 220.17,54.48C220.44,54.5 220.5,54.53 220.81,54.54C221.68,54.56 224.64,54.3 225.76,54.33C226.33,54.35 226.7,54.41 227.06,54.46C227.31,54.49 227.44,54.51 227.7,54.57C228.14,54.67 228.91,54.93 229.42,55.07C229.82,55.18 230.12,55.28 230.5,55.37C230.91,55.47 231.34,55.54 231.79,55.64C232.27,55.75 233.3,55.98 233.3,55.98C233.3,55.98 233.3,55.98 233.3,55.98C233.3,55.98 235.69,56.88 236.53,57.15C237.05,57.32 237.39,57.42 237.82,57.51C238.25,57.6 238.79,57.67 239.11,57.7C239.29,57.72 239.42,57.72 239.54,57.71C239.62,57.7 239.64,57.68 239.75,57.67C240.11,57.63 241.39,57.64 242.12,57.57C242.74,57.51 243.27,57.43 243.84,57.33C244.41,57.23 245.12,57.06 245.56,56.99C245.83,56.95 245.98,56.92 246.21,56.9C246.48,56.88 246.69,56.91 247.07,56.89C247.8,56.85 249.57,56.61 250.3,56.56C250.68,56.53 250.84,56.53 251.16,56.53C251.55,56.53 251.97,56.55 252.45,56.58C253.08,56.61 253.97,56.71 254.6,56.72C255.09,56.72 255.54,56.67 255.9,56.66C256.15,56.65 256.35,56.66 256.54,56.66C256.7,56.66 256.78,56.65 256.97,56.65C257.32,56.65 257.93,56.67 258.48,56.68C259.13,56.69 259.88,56.7 260.63,56.68C261.45,56.66 262.46,56.58 263.21,56.56C263.78,56.54 264.24,56.53 264.72,56.53C265.17,56.53 265.76,56.55 266.01,56.56C266.11,56.56 266.16,56.57 266.23,56.57C266.3,56.57 266.36,56.57 266.44,56.57C266.56,56.57 266.71,56.56 266.87,56.54C267.06,56.52 267.3,56.48 267.52,56.45C267.73,56.42 267.91,56.39 268.16,56.36C268.51,56.32 269.02,56.31 269.45,56.27C269.88,56.23 270.43,56.17 270.75,56.14C270.93,56.12 271.18,56.11 271.18,56.11C271.18,56.11 271.18,56.11 271.18,56.11C271.18,56.11 272.7,56.06 273.33,56.02C273.82,55.99 274.14,55.94 274.62,55.89C275.25,55.83 276.42,55.73 276.77,55.68C276.88,55.66 276.92,55.65 276.99,55.64C277.06,55.63 277.1,55.62 277.2,55.6C277.5,55.53 278.41,55.23 278.92,55.09Q279.32,54.98 280,54.81" style="vector-effect: none; fill: none; stroke: rgb(97, 162, 41); stroke-opacity: 1; stroke-width: 5px; opacity: 1;"/></g><g class="points"/><g class="text"/></g></g></g><g class="overplot"/><path class="xlines-above crisp" d="M0,0" style="fill: none;"/><path class="ylines-above crisp" d="M0,0" style="fill: none;"/><g class="overlines-above"/><g class="xaxislayer-above"/><g class="yaxislayer-above"/><g class="overaxes-above"/></g></g><g class="polarlayer"/><g class="smithlayer"/><g class="ternarylayer"/><g class="geolayer"/><g class="funnelarealayer"/><g class="pielayer"/><g class="iciclelayer"/><g class="treemaplayer"/><g class="sunburstlayer"/><g class="glimages"/><defs id="topdefs-440d50"><g class="clips"/></defs><g class="layer-above"><g class="imagelayer"/><g class="shapelayer"/></g><g class="infolayer"><g class="g-gtitle"><text class="gtitle" x="15" y="25" text-anchor="start" dy="0em" style="font-family: Ubuntu, verdana, arial, sans-serif; font-size: 16px; fill: rgb(233, 84, 32); opacity: 1; font-weight: normal; white-space: pre;">NRSR 2020-2023</text></g><g class="g-xtitle"/><g class="g-ytitle"/></g></svg>