<svg class="main-svg" xmlns="http://www.w3.org/2000/svg" xmlns:xlink="http://www.w3.org/1999/xlink" width="300" height="135" style="" viewBox="0 0 300 135"><rect x="0" y="0" width="300" height="135" style="fill: rgb(255, 255, 255); fill-opacity: 1;"/><defs id="defs-5b4ec1"><g class="clips"><clipPath id="clip5b4ec1xyplot" class="plotclip"><rect width="280" height="75"/></clipPath><clipPath class="axesclip" id="clip5b4ec1x"><rect x="10" y="0" width="280" height="135"/></clipPath><clipPath class="axesclip" id="clip5b4ec1y"><rect x="0" y="50" width="300" height="75"/></clipPath><clipPath class="axesclip" id="clip5b4ec1xy"><rect x="10" y="50" width="280" height="75"/></clipPath></g><g class="gradients"/><g class="patterns"/></defs><g class="bglayer"/><g class="layer-below"><g class="imagelayer"/><g class="shapelayer"/></g><g class="cartesianlayer"><g class="subplot xy"><g class="layer-subplot"><g class="shapelayer"/><g class="imagelayer"/></g><g class="gridlayer"><g class="x"><path class="xgrid crisp" transform="translate(87.37,0)" d="M0,50v75" style="stroke: rgb(235, 240, 248); stroke-opacity: 1; stroke-width: 1px;"/><path class="xgrid crisp" transform="translate(179.36,0)" d="M0,50v75" style="stroke: rgb(235, 240, 248); stroke-opacity: 1; stroke-width: 1px;"/><path class="xgrid crisp" transform="translate(271.35,0)" d="M0,50v75" style="stroke: rgb(235, 240, 248); stroke-opacity: 1; stroke-width: 1px;"/></g><g class="y"><path class="ygrid crisp" transform="translate(0,109.62)" d="M10,0h280" style="stroke: rgb(235, 240, 248); stroke-opacity: 1; stroke-width: 1px;"/><path class="ygrid crisp" transform="translate(0,94.25)" d="M10,0h280" style="stroke: rgb(235, 240, 248); stroke-opacity: 1; stroke-width: 1px;"/><path class="ygrid crisp" transform="translate(0,78.87)" d="M10,0h280" style="stroke: rgb(235, 240, 248); stroke-opacity: 1; stroke-width: 1px;"/><path class="ygrid crisp" transform="translate(0,63.5)" d="M10,0h280" style="stroke: rgb(235, 240, 248); stroke-opacity: 1; stroke-width: 1px;"/></g></g><g class="zerolinelayer"><path class="yzl zl crisp" transform="translate(0,125)" d="M10,0h280" style="stroke: rgb(235, 240, 248); stroke-opacity: 1; stroke-width: 2px;"/></g><path class="xlines-below"/><path class="ylines-below"/><g class="overlines-below"/><g class="xaxislayer-below"/><g class="yaxislayer-below"/><g class="overaxes-below"/><g class="plot" transform="translate(10,50)" clip-path="url(#clip5b4ec1xyplot)"><g class="scatterlayer mlayer"><g class="trace scatter trace98eaf6" style="stroke-miterlimit: 2; opacity: 1;"><g class="fills"/><g class="errorbars"/><g class="lines"><path class="js-line" d="M0,14.39Q3.19,12.84 4.79,12.59C6.3,12.36 8.07,12.66 9.32,12.83C10.21,12.95 11.1,13.32 11.59,13.34C11.82,13.35 11.83,13.26 12.1,13.27C13.14,13.32 17.98,14.41 19.66,15.12C20.59,15.51 20.96,15.8 21.67,16.38C22.68,17.19 23.89,18.55 24.95,19.76C26.08,21.04 27.08,22.13 28.23,23.9C29.96,26.57 32.09,31.95 33.77,34.59C34.85,36.29 35.41,37.3 36.8,38.54C38.65,40.2 42.79,42.28 44.36,43.13C45.04,43.5 45.33,43.58 45.87,43.85C46.5,44.17 47.16,44.61 47.88,44.93C48.66,45.28 49.43,45.53 50.41,45.84C51.74,46.26 54.18,46.92 55.19,47.11C55.65,47.2 55.92,47.23 56.2,47.23C56.4,47.23 56.48,47.18 56.71,47.18C57.16,47.17 58.16,47.31 58.72,47.33C59.11,47.34 59.28,47.27 59.73,47.31C60.63,47.39 62.48,48.07 63.76,48.14C64.9,48.2 66.57,47.86 67.04,47.84C67.17,47.83 67.16,47.85 67.29,47.84C67.83,47.81 70.51,47.39 71.32,47.36C71.67,47.35 71.78,47.36 72.08,47.39C72.55,47.43 73.43,47.57 73.84,47.63C74.06,47.66 74.09,47.68 74.35,47.7C75.18,47.77 78.48,47.87 79.64,47.86C80.2,47.86 80.53,47.81 80.9,47.8C81.19,47.79 81.3,47.8 81.66,47.78C82.51,47.74 84.94,47.55 85.94,47.47C86.48,47.43 86.7,47.43 87.2,47.37C87.95,47.28 88.93,47.08 89.97,46.89C91.3,46.64 92.99,46.39 94.51,45.97C96.1,45.53 98.21,44.59 99.3,44.26C99.85,44.09 100.05,44.04 100.56,43.95C101.3,43.82 102.19,43.88 103.33,43.62C105.29,43.18 108.8,41.85 111.14,40.97C113.09,40.24 115.36,38.91 116.44,38.79C116.89,38.74 116.95,38.93 117.44,38.96C118.78,39.06 122.43,39.2 125,38.76C127.8,38.28 131.04,37.13 133.57,36.01C135.75,35.04 138.12,33.19 139.37,32.64C139.92,32.4 140.05,32.43 140.63,32.25C141.96,31.83 145.38,30.79 147.18,30.13C148.47,29.66 149.61,28.9 150.46,28.79C150.97,28.73 151.16,28.85 151.72,28.96C152.84,29.18 155.5,30.15 156.76,30.27C157.49,30.34 157.78,30.18 158.52,30.17C159.81,30.16 161.85,30.47 163.82,30.37C166.34,30.24 170.46,29.54 172.39,29.13C173.39,28.92 173.94,28.62 174.65,28.5C175.27,28.4 175.74,28.41 176.42,28.4C177.34,28.39 178.98,28.5 179.69,28.48C180.03,28.47 180.12,28.42 180.45,28.42C181.08,28.42 182.28,28.51 183.22,28.64C184.21,28.77 185.06,29.07 186.25,29.21C187.92,29.41 190.96,29.41 192.3,29.52C192.97,29.58 193.1,29.62 193.81,29.7C195.53,29.89 200.31,30.59 202.63,30.56C204.15,30.54 205.25,30.19 206.41,30.08C207.4,29.99 208.18,29.97 209.18,29.93C210.34,29.89 211.66,29.92 212.96,29.85C214.35,29.77 215.7,29.64 217.25,29.46C219.09,29.24 221.58,28.73 223.29,28.57C224.55,28.45 225.27,28.52 226.57,28.44C228.48,28.32 232.34,27.98 233.63,27.86C234.12,27.81 234.26,27.79 234.64,27.75C235.15,27.7 235.66,27.67 236.4,27.6C237.69,27.48 240.62,27.11 241.69,27.05C242.16,27.02 242.23,27.07 242.7,27.04C243.77,26.97 247.36,26.45 247.99,26.36C248.13,26.34 248.11,26.34 248.24,26.32C248.76,26.25 250.97,26.04 252.03,25.9C252.81,25.8 253.42,25.7 254.04,25.6C254.58,25.51 255,25.44 255.55,25.34C256.23,25.22 257.26,25.03 257.82,24.94C258.14,24.89 258.21,24.88 258.58,24.84C259.61,24.72 263.06,24.44 264.37,24.28C265.04,24.2 265.48,24.18 265.89,24.05C266.19,23.95 266.32,23.81 266.64,23.67C267.15,23.45 268.06,23 268.66,22.93C269.12,22.88 269.48,23.1 269.92,23.09C270.4,23.08 270.91,22.96 271.43,22.84C272,22.71 272.43,22.42 273.2,22.32C274.56,22.15 277.85,22.42 278.99,22.53Q279.47,22.58 280,22.69" style="vector-effect: non-scaling-stroke; fill: none; stroke: rgb(238, 58, 67); stroke-opacity: 1; stroke-width: 5px; opacity: 1;"/></g><g class="points"/><g class="text"/></g><g class="trace scatter traced32c70" style="stroke-miterlimit: 2; opacity: 1;"><g class="fills"/><g class="errorbars"/><g class="lines"><path class="js-line" d="M0,74.35Q3.22,74.2 4.79,74.08C6.32,73.96 8.07,73.79 9.32,73.63C10.21,73.52 11.1,73.38 11.59,73.28C11.82,73.23 11.84,73.24 12.1,73.15C13.15,72.79 17.98,70.78 19.66,69.82C20.58,69.3 20.96,69.03 21.67,68.39C22.68,67.48 23.94,66.12 24.95,64.65C26.16,62.9 27.13,61.12 28.23,58.43C30.05,54 32.02,44.53 33.77,40.13C34.81,37.52 35.43,36.28 36.8,34.1C38.66,31.14 42.73,25.9 44.36,24.27C45,23.63 45.33,23.54 45.87,23.12C46.49,22.64 47.18,22.13 47.88,21.54C48.69,20.85 49.44,20.12 50.41,19.21C51.76,17.94 54.18,15.53 55.19,14.61C55.64,14.2 55.92,13.97 56.2,13.75C56.39,13.6 56.49,13.57 56.71,13.4C57.17,13.05 58.15,12.08 58.72,11.64C59.1,11.34 59.25,11.1 59.73,10.93C60.6,10.63 62.49,10.81 63.76,10.69C64.91,10.58 66.57,10.37 67.04,10.26C67.17,10.23 67.16,10.22 67.29,10.17C67.83,9.99 70.5,9.08 71.32,8.84C71.67,8.74 71.78,8.75 72.08,8.65C72.55,8.49 73.43,8.04 73.84,7.89C74.06,7.81 74.09,7.8 74.35,7.73C75.18,7.5 78.49,6.79 79.64,6.47C80.21,6.31 80.53,6.14 80.9,6.07C81.18,6.02 81.31,6.07 81.66,6.02C82.51,5.91 84.95,5.47 85.94,5.18C86.49,5.02 86.69,4.81 87.2,4.68C87.93,4.5 88.93,4.5 89.97,4.37C91.3,4.21 92.98,3.73 94.51,3.75C96.09,3.77 98.22,4.37 99.3,4.52C99.85,4.6 100.06,4.63 100.56,4.66C101.3,4.71 102.18,4.57 103.33,4.71C105.28,4.95 108.79,5.92 111.14,6.48C113.08,6.94 115.37,7.49 116.44,7.79C116.91,7.92 116.95,7.95 117.44,8.1C118.78,8.52 122.43,9.52 125,10.5C127.8,11.56 130.96,13.36 133.57,14.32C135.66,15.09 138.13,15.79 139.37,16.02C139.94,16.12 140.05,16.1 140.63,16.12C141.96,16.17 145.38,16.28 147.18,16.12C148.47,16 149.62,15.54 150.46,15.52C150.98,15.51 151.16,15.6 151.72,15.7C152.84,15.9 155.51,16.55 156.76,16.75C157.49,16.87 157.78,16.83 158.52,16.96C159.82,17.18 161.86,17.58 163.82,18.14C166.35,18.86 170.45,20.49 172.39,21.11C173.38,21.43 173.94,21.56 174.65,21.78C175.28,21.98 175.74,22.35 176.42,22.38C177.34,22.41 178.98,21.71 179.69,21.54C180.03,21.46 180.12,21.46 180.45,21.37C181.09,21.2 182.27,20.75 183.22,20.49C184.2,20.22 185.07,20.1 186.25,19.79C187.93,19.35 190.95,18.32 192.3,17.98C192.97,17.81 193.1,17.82 193.81,17.66C195.53,17.28 200.31,16.25 202.63,15.66C204.16,15.27 205.24,14.84 206.41,14.61C207.4,14.42 208.18,14.36 209.18,14.3C210.34,14.23 211.66,14.17 212.96,14.27C214.35,14.38 215.71,14.63 217.25,14.99C219.1,15.42 221.57,16.63 223.29,16.78C224.54,16.89 225.27,16.52 226.57,16.39C228.48,16.21 232.34,15.93 233.63,15.86C234.12,15.83 234.26,15.86 234.64,15.82C235.15,15.76 235.65,15.57 236.4,15.48C237.69,15.33 240.62,15.34 241.69,15.28C242.16,15.25 242.23,15.21 242.7,15.2C243.77,15.18 247.36,15.36 247.99,15.38C248.13,15.39 248.11,15.38 248.24,15.39C248.76,15.41 250.97,15.48 252.03,15.55C252.81,15.6 253.42,15.65 254.04,15.73C254.58,15.8 255,15.85 255.55,15.97C256.23,16.12 257.27,16.46 257.82,16.61C258.14,16.7 258.21,16.71 258.58,16.82C259.61,17.14 263.05,18.42 264.37,18.77C265.03,18.95 265.47,18.99 265.89,19.08C266.18,19.14 266.33,19.22 266.64,19.24C267.15,19.27 268.07,19.06 268.66,19.04C269.13,19.03 269.49,19 269.92,19.09C270.41,19.19 270.92,19.44 271.43,19.69C272.01,19.98 272.41,20.4 273.2,20.75C274.55,21.35 277.85,22.22 278.99,22.51Q279.46,22.63 280,22.71" style="vector-effect: non-scaling-stroke; fill: none; stroke: rgb(255, 192, 203); stroke-opacity: 1; stroke-width: 5px; opacity: 1;"/></g><g class="points"/><g class="text"/></g><g class="trace scatter traceb95c86" style="stroke-miterlimit: 2; opacity: 1;"><g class="fills"/><g class="errorbars"/><g class="lines"><path class="js-line" d="M0,71.44Q3.25,70.62 4.79,69.98C6.35,69.33 8.1,68.39 9.32,67.56C10.25,66.93 11.08,65.86 11.59,65.63C11.8,65.54 11.86,65.67 12.1,65.56C13.18,65.07 17.89,60.22 19.66,59.04C20.5,58.48 20.9,58.32 21.67,58.04C22.61,57.69 23.85,57.39 24.95,57.23C26.04,57.07 26.99,57.08 28.23,57.07C29.84,57.05 32.2,57.27 33.77,57.21C34.93,57.17 35.56,56.92 36.8,56.92C38.75,56.91 42.8,57.55 44.36,57.59C45.05,57.61 45.33,57.55 45.87,57.54C46.49,57.53 47.17,57.6 47.88,57.56C48.68,57.52 49.43,57.32 50.41,57.26C51.75,57.18 54.19,57.25 55.19,57.28C55.65,57.29 55.92,57.33 56.2,57.34C56.4,57.35 56.48,57.34 56.71,57.34C57.16,57.33 58.16,57.29 58.72,57.26C59.11,57.24 59.28,57.23 59.73,57.18C60.63,57.09 62.48,56.72 63.76,56.66C64.91,56.61 66.57,56.75 67.04,56.77C67.17,56.77 67.16,56.78 67.29,56.78C67.83,56.78 70.51,56.73 71.32,56.69C71.67,56.67 71.77,56.66 72.08,56.64C72.55,56.61 73.43,56.55 73.84,56.54C74.06,56.53 74.09,56.54 74.35,56.54C75.19,56.54 78.48,56.49 79.64,56.53C80.2,56.55 80.53,56.61 80.9,56.61C81.19,56.61 81.31,56.63 81.66,56.58C82.51,56.46 84.94,55.8 85.94,55.53C86.49,55.38 86.7,55.29 87.2,55.17C87.94,54.99 88.94,54.84 89.97,54.61C91.3,54.32 92.97,53.77 94.51,53.53C96.08,53.28 98.22,53.21 99.3,53.15C99.85,53.12 100.06,53.17 100.56,53.11C101.31,53.03 102.17,52.7 103.33,52.57C105.27,52.36 108.79,52.46 111.14,52.38C113.08,52.32 115.37,52.31 116.44,52.17C116.91,52.11 116.95,52.04 117.44,51.95C118.78,51.7 122.4,51.07 125,50.76C127.76,50.43 130.99,50 133.57,50.05C135.69,50.09 138.14,50.75 139.37,50.77C139.94,50.78 140.05,50.66 140.63,50.65C141.96,50.64 145.38,50.89 147.18,51.16C148.47,51.35 149.62,51.85 150.46,51.9C150.98,51.93 151.16,51.87 151.72,51.78C152.84,51.59 155.51,50.74 156.76,50.53C157.49,50.4 157.78,50.47 158.52,50.36C159.82,50.17 161.84,49.67 163.82,49.33C166.33,48.9 170.45,48.36 172.39,48.09C173.39,47.95 173.94,47.9 174.65,47.78C175.28,47.67 175.74,47.47 176.42,47.42C177.34,47.36 178.98,47.61 179.69,47.64C180.03,47.66 180.12,47.63 180.45,47.66C181.09,47.71 182.27,47.96 183.22,48.04C184.21,48.13 185.07,48.08 186.25,48.16C187.92,48.27 190.96,48.75 192.3,48.69C192.97,48.66 193.1,48.57 193.81,48.43C195.53,48.09 200.29,46.83 202.63,46.46C204.14,46.22 205.25,46.24 206.41,46.1C207.41,45.98 208.18,45.79 209.18,45.68C210.34,45.55 211.67,45.58 212.96,45.4C214.35,45.21 215.7,44.88 217.25,44.53C219.1,44.12 221.57,43.25 223.29,43.05C224.54,42.91 225.27,43.13 226.57,43.08C228.48,43.01 232.34,42.61 233.63,42.46C234.12,42.4 234.26,42.34 234.64,42.31C235.14,42.28 235.66,42.38 236.4,42.33C237.69,42.23 240.62,41.61 241.69,41.48C242.16,41.42 242.23,41.43 242.7,41.39C243.77,41.29 247.36,40.99 247.99,40.9C248.13,40.88 248.11,40.87 248.24,40.85C248.76,40.76 250.97,40.52 252.03,40.32C252.81,40.17 253.42,40.03 254.04,39.84C254.58,39.68 254.99,39.49 255.55,39.29C256.23,39.05 257.26,38.68 257.82,38.52C258.14,38.43 258.2,38.38 258.58,38.35C259.6,38.26 263.07,38.48 264.37,38.64C265.04,38.73 265.47,38.84 265.89,38.95C266.19,39.03 266.33,39.12 266.64,39.18C267.15,39.27 268.07,39.34 268.66,39.3C269.13,39.27 269.48,39.16 269.92,39.05C270.4,38.93 270.9,38.69 271.43,38.59C271.99,38.48 272.45,38.56 273.2,38.43C274.58,38.19 277.85,36.95 278.99,36.94Q279.46,36.94 280,37.19" style="vector-effect: non-scaling-stroke; fill: none; stroke: rgb(0, 180, 219); stroke-opacity: 1; stroke-width: 5px; opacity: 1;"/></g><g class="points"/><g class="text"/></g><g class="trace scatter trace8dbd4a" style="stroke-miterlimit: 2; opacity: 1;"><g class="fills"/><g class="errorbars"/><g class="lines"><path class="js-line" d="M0,45.86Q3.2,44.44 4.79,44.29C6.3,44.14 8.07,44.94 9.32,44.86C10.21,44.8 11.1,44.39 11.59,44.28C11.82,44.23 11.83,44.19 12.1,44.17C13.14,44.09 17.96,44.29 19.66,44.59C20.56,44.75 20.91,45.06 21.67,45.2C22.62,45.37 23.86,45.42 24.95,45.41C26.04,45.4 27.04,44.87 28.23,45.15C29.89,45.54 32.15,47.92 33.77,48.46C34.89,48.83 35.56,48.68 36.8,48.76C38.75,48.88 42.81,48.76 44.36,48.98C45.06,49.08 45.33,49.21 45.87,49.38C46.5,49.57 47.16,49.9 47.88,50.09C48.67,50.29 49.44,50.32 50.41,50.52C51.76,50.8 54.19,51.4 55.19,51.68C55.65,51.81 55.92,51.91 56.2,52.01C56.4,52.08 56.48,52.12 56.71,52.21C57.16,52.39 58.16,52.77 58.72,52.99C59.11,53.15 59.28,53.22 59.73,53.4C60.63,53.77 62.48,54.59 63.76,55.06C64.9,55.47 66.57,55.95 67.04,56.1C67.17,56.14 67.16,56.14 67.29,56.18C67.82,56.32 70.5,56.87 71.32,56.99C71.67,57.04 71.77,57.04 72.08,57.06C72.54,57.09 73.43,57.11 73.84,57.13C74.06,57.14 74.09,57.14 74.35,57.15C75.19,57.2 78.48,57.46 79.64,57.54C80.2,57.58 80.53,57.61 80.9,57.62C81.19,57.63 81.3,57.61 81.66,57.61C82.51,57.6 84.94,57.6 85.94,57.55C86.49,57.52 86.7,57.52 87.2,57.45C87.95,57.35 88.95,57.2 89.97,56.92C91.31,56.56 92.99,55.94 94.51,55.3C96.1,54.63 98.2,53.26 99.3,52.97C99.84,52.83 100.06,52.92 100.56,52.9C101.3,52.87 102.17,52.85 103.33,52.84C105.27,52.83 108.79,52.86 111.14,52.93C113.08,52.99 115.37,53.24 116.44,53.2C116.91,53.18 116.95,53.11 117.44,53.07C118.78,52.95 122.4,52.65 125,52.72C127.77,52.8 130.99,53.47 133.57,53.59C135.69,53.69 138.14,53.6 139.37,53.56C139.94,53.54 140.05,53.53 140.63,53.48C141.96,53.36 145.37,52.89 147.18,52.74C148.46,52.63 149.63,52.44 150.46,52.55C150.99,52.62 151.15,52.83 151.72,52.98C152.83,53.28 155.51,53.74 156.76,53.99C157.5,54.14 157.77,54.23 158.52,54.34C159.81,54.52 161.84,54.65 163.82,54.81C166.33,55.02 170.45,55.33 172.39,55.47C173.39,55.54 173.94,55.59 174.65,55.63C175.28,55.66 175.74,55.7 176.42,55.69C177.34,55.68 178.98,55.5 179.69,55.49C180.03,55.48 180.12,55.51 180.45,55.51C181.08,55.51 182.28,55.47 183.22,55.43C184.21,55.39 185.07,55.38 186.25,55.29C187.92,55.16 190.96,54.67 192.3,54.65C192.97,54.64 193.1,54.7 193.81,54.76C195.53,54.92 200.3,55.54 202.63,55.73C204.15,55.85 205.25,55.95 206.41,55.93C207.41,55.92 208.19,55.85 209.18,55.71C210.35,55.54 211.65,55.04 212.96,54.92C214.34,54.8 215.7,55.08 217.25,55.03C219.09,54.97 221.58,54.67 223.29,54.47C224.55,54.32 225.27,54.21 226.57,54.01C228.48,53.72 232.34,52.98 233.63,52.84C234.12,52.79 234.26,52.8 234.64,52.79C235.15,52.78 235.66,52.8 236.4,52.78C237.69,52.75 240.62,52.58 241.69,52.58C242.16,52.58 242.23,52.59 242.7,52.61C243.77,52.66 247.36,52.92 247.99,52.93C248.13,52.93 248.11,52.93 248.24,52.92C248.76,52.89 250.97,52.76 252.03,52.67C252.81,52.61 253.42,52.54 254.04,52.48C254.58,52.43 255,52.39 255.55,52.35C256.23,52.3 257.27,52.24 257.82,52.24C258.14,52.24 258.21,52.29 258.58,52.28C259.61,52.24 263.07,51.73 264.37,51.51C265.04,51.39 265.47,51.27 265.89,51.19C266.18,51.13 266.33,51.06 266.64,51.06C267.15,51.07 268.06,51.38 268.66,51.46C269.13,51.52 269.48,51.51 269.92,51.54C270.4,51.57 270.91,51.63 271.43,51.66C272,51.69 272.44,51.69 273.2,51.7C274.57,51.71 277.86,51.78 278.99,51.68Q279.47,51.64 280,51.51" style="vector-effect: non-scaling-stroke; fill: none; stroke: rgb(11, 76, 159); stroke-opacity: 1; stroke-width: 5px; opacity: 1;"/></g><g class="points"/><g class="text"/></g><g class="trace scatter trace82cccf" style="stroke-miterlimit: 2; opacity: 1;"><g class="fills"/><g class="errorbars"/><g class="lines"><path class="js-line" d="M0,53.51Q3.24,53.03 4.79,52.53C6.35,52.03 8.05,50.97 9.32,50.51C10.19,50.2 11.1,49.94 11.59,49.88C11.82,49.85 11.83,49.93 12.1,49.9C13.14,49.78 17.96,48.41 19.66,47.84C20.55,47.54 20.9,47.23 21.67,47.05C22.62,46.83 23.86,46.91 24.95,46.79C26.05,46.67 27,46.53 28.23,46.33C29.84,46.07 32.2,45.63 33.77,45.31C34.93,45.07 35.57,44.97 36.8,44.63C38.76,44.09 42.81,42.7 44.36,42.13C45.06,41.87 45.34,41.76 45.87,41.51C46.5,41.22 47.16,40.8 47.88,40.47C48.67,40.1 49.43,39.78 50.41,39.41C51.74,38.91 54.18,38.05 55.19,37.84C55.64,37.74 55.92,37.77 56.2,37.74C56.4,37.72 56.49,37.72 56.71,37.68C57.16,37.59 58.16,37.25 58.72,37.12C59.11,37.03 59.29,37.05 59.73,36.93C60.63,36.68 62.49,35.95 63.76,35.47C64.91,35.03 66.57,34.39 67.04,34.17C67.17,34.11 67.15,34.1 67.29,34.04C67.82,33.79 70.51,32.73 71.32,32.39C71.67,32.24 71.77,32.16 72.08,32.06C72.54,31.91 73.43,31.69 73.84,31.65C74.06,31.63 74.09,31.63 74.35,31.66C75.19,31.75 78.48,32.64 79.64,32.73C80.2,32.77 80.53,32.71 80.9,32.68C81.19,32.66 81.3,32.6 81.66,32.6C82.51,32.61 84.93,33.11 85.94,33.17C86.48,33.2 86.7,33.1 87.2,33.15C87.95,33.23 88.93,33.55 89.97,33.76C91.3,34.02 93,34.13 94.51,34.57C96.11,35.03 98.2,36.3 99.3,36.51C99.84,36.62 100.06,36.57 100.56,36.51C101.31,36.42 102.16,36.03 103.33,35.85C105.26,35.56 108.79,35.42 111.14,35.35C113.08,35.29 115.37,35.48 116.44,35.36C116.91,35.31 116.95,35.22 117.44,35.13C118.78,34.88 122.4,34.31 125,34.01C127.76,33.69 131,33.14 133.57,33.3C135.7,33.43 138.14,34.48 139.37,34.51C139.94,34.52 140.05,34.32 140.63,34.31C141.96,34.29 145.39,34.67 147.18,35.13C148.49,35.46 149.61,36.28 150.46,36.43C150.97,36.52 151.16,36.44 151.72,36.4C152.84,36.33 155.51,35.9 156.76,35.88C157.5,35.87 157.78,36.05 158.52,36.01C159.82,35.93 161.83,35.17 163.82,34.98C166.32,34.74 170.46,34.78 172.39,34.96C173.39,35.06 173.94,35.37 174.65,35.4C175.27,35.42 175.74,35.25 176.42,35.2C177.34,35.14 178.98,35.08 179.69,35.13C180.03,35.15 180.12,35.22 180.45,35.25C181.08,35.31 182.28,35.39 183.22,35.34C184.21,35.29 185.07,34.9 186.25,34.94C187.93,35 190.96,36.22 192.3,36.17C192.98,36.14 193.09,35.85 193.81,35.74C195.52,35.47 200.32,35.12 202.63,35.4C204.17,35.58 205.24,36.34 206.41,36.47C207.4,36.58 208.2,36.19 209.18,36.32C210.36,36.48 211.65,37.52 212.96,37.57C214.34,37.62 215.7,36.49 217.25,36.5C219.09,36.51 221.58,37.63 223.29,38.09C224.55,38.43 225.3,38.49 226.57,38.98C228.51,39.72 232.35,41.75 233.63,42.53C234.14,42.84 234.25,43.02 234.64,43.27C235.14,43.58 235.63,43.92 236.4,44.21C237.67,44.69 240.63,45.07 241.69,45.45C242.17,45.62 242.22,45.75 242.7,45.94C243.76,46.37 247.36,47.51 247.99,47.66C248.12,47.69 248.11,47.66 248.24,47.7C248.76,47.85 250.96,48.91 252.03,49.3C252.8,49.58 253.42,49.75 254.04,49.92C254.58,50.06 255.01,50.08 255.55,50.27C256.24,50.51 257.26,51.15 257.82,51.33C258.13,51.43 258.21,51.43 258.58,51.48C259.6,51.62 263.07,51.67 264.37,51.87C265.05,51.97 265.47,52.15 265.89,52.24C266.18,52.3 266.33,52.32 266.64,52.38C267.15,52.49 268.06,52.78 268.66,52.85C269.13,52.9 269.48,52.9 269.92,52.85C270.4,52.79 270.91,52.59 271.43,52.47C272,52.34 272.43,52.16 273.2,52.09C274.57,51.96 277.86,52.13 278.99,52.25Q279.47,52.3 280,52.44" style="vector-effect: non-scaling-stroke; fill: none; stroke: rgb(177, 199, 12); stroke-opacity: 1; stroke-width: 5px; opacity: 1;"/></g><g class="points"/><g class="text"/></g></g></g><g class="overplot"/><path class="xlines-above crisp" d="M0,0" style="fill: none;"/><path class="ylines-above crisp" d="M0,0" style="fill: none;"/><g class="overlines-above"/><g class="xaxislayer-above"/><g class="yaxislayer-above"/><g class="overaxes-above"/></g></g><g class="polarlayer"/><g class="smithlayer"/><g class="ternarylayer"/><g class="geolayer"/><g class="funnelarealayer"/><g class="pielayer"/><g class="iciclelayer"/><g class="treemaplayer"/><g class="sunburstlayer"/><g class="glimages"/><defs id="topdefs-5b4ec1"><g class="clips"/></defs><g class="layer-above"><g class="imagelayer"/><g class="shapelayer"/></g><g class="infolayer"><g class="g-gtitle"><text class="gtitle" x="15" y="25" text-anchor="start" dy="0em" style="font-family: Ubuntu, verdana, arial, sans-serif; font-size: 16px; fill: rgb(233, 84, 32); opacity: 1; font-weight: normal; white-space: pre;">NRSR 2020-2023</text></g><g class="g-xtitle"/><g class="g-ytitle"/></g></svg>