<svg class="main-svg" xmlns="http://www.w3.org/2000/svg" xmlns:xlink="http://www.w3.org/1999/xlink" width="300" height="135" style="" viewBox="0 0 300 135"><rect x="0" y="0" width="300" height="135" style="fill: rgb(255, 255, 255); fill-opacity: 1;"/><defs id="defs-43b5eb"><g class="clips"><clipPath id="clip43b5ebxyplot" class="plotclip"><rect width="280" height="75"/></clipPath><clipPath class="axesclip" id="clip43b5ebx"><rect x="10" y="0" width="280" height="135"/></clipPath><clipPath class="axesclip" id="clip43b5eby"><rect x="0" y="50" width="300" height="75"/></clipPath><clipPath class="axesclip" id="clip43b5ebxy"><rect x="10" y="50" width="280" height="75"/></clipPath></g><g class="gradients"/><g class="patterns"/></defs><g class="bglayer"/><g class="layer-below"><g class="imagelayer"/><g class="shapelayer"/></g><g class="cartesianlayer"><g class="subplot xy"><g class="layer-subplot"><g class="shapelayer"/><g class="imagelayer"/></g><g class="gridlayer"><g class="x"><path class="xgrid crisp" transform="translate(86.41,0)" d="M0,50v75" style="stroke: rgb(235, 240, 248); stroke-opacity: 1; stroke-width: 1px;"/><path class="xgrid crisp" transform="translate(177.25,0)" d="M0,50v75" style="stroke: rgb(235, 240, 248); stroke-opacity: 1; stroke-width: 1px;"/><path class="xgrid crisp" transform="translate(268.1,0)" d="M0,50v75" style="stroke: rgb(235, 240, 248); stroke-opacity: 1; stroke-width: 1px;"/></g><g class="y"><path class="ygrid crisp" transform="translate(0,109.62)" d="M10,0h280" style="stroke: rgb(235, 240, 248); stroke-opacity: 1; stroke-width: 1px;"/><path class="ygrid crisp" transform="translate(0,94.25)" d="M10,0h280" style="stroke: rgb(235, 240, 248); stroke-opacity: 1; stroke-width: 1px;"/><path class="ygrid crisp" transform="translate(0,78.87)" d="M10,0h280" style="stroke: rgb(235, 240, 248); stroke-opacity: 1; stroke-width: 1px;"/><path class="ygrid crisp" transform="translate(0,63.5)" d="M10,0h280" style="stroke: rgb(235, 240, 248); stroke-opacity: 1; stroke-width: 1px;"/></g></g><g class="zerolinelayer"><path class="yzl zl crisp" transform="translate(0,125)" d="M10,0h280" style="stroke: rgb(235, 240, 248); stroke-opacity: 1; stroke-width: 2px;"/></g><path class="xlines-below"/><path class="ylines-below"/><g class="overlines-below"/><g class="xaxislayer-below"/><g class="yaxislayer-below"/><g class="overaxes-below"/><g class="plot" transform="translate(10,50)" clip-path="url(#clip43b5ebxyplot)"><g class="scatterlayer mlayer"><g class="trace scatter trace95b618" style="stroke-miterlimit: 2; opacity: 1;"><g class="fills"/><g class="errorbars"/><g class="lines"><path class="js-line" d="M0,18.76Q2.93,13.42 4.73,12.59C6.1,11.96 7.98,12.66 9.21,12.83C10.09,12.95 10.97,13.32 11.45,13.34C11.68,13.35 11.69,13.26 11.95,13.27C12.97,13.32 17.75,14.41 19.41,15.12C20.33,15.51 20.69,15.8 21.4,16.38C22.4,17.19 23.59,18.55 24.64,19.76C25.75,21.04 26.75,22.13 27.88,23.9C29.59,26.57 31.69,31.95 33.35,34.59C34.41,36.29 34.97,37.29 36.34,38.54C38.16,40.2 42.25,42.28 43.8,43.13C44.48,43.5 44.77,43.58 45.3,43.85C45.92,44.17 46.58,44.61 47.29,44.93C48.06,45.28 48.81,45.53 49.78,45.84C51.1,46.26 53.52,46.92 54.51,47.11C54.96,47.2 55.23,47.23 55.5,47.23C55.69,47.23 55.78,47.18 56,47.18C56.44,47.17 57.44,47.31 57.99,47.33C58.38,47.34 58.55,47.27 58.99,47.31C59.88,47.39 61.71,48.07 62.97,48.14C64.1,48.2 65.73,47.86 66.2,47.84C66.33,47.83 66.32,47.85 66.45,47.84C66.98,47.81 69.64,47.39 70.44,47.36C70.78,47.35 70.88,47.36 71.18,47.39C71.64,47.43 72.52,47.57 72.92,47.63C73.14,47.66 73.16,47.68 73.42,47.7C74.24,47.77 77.51,47.87 78.65,47.86C79.21,47.86 79.53,47.81 79.89,47.8C80.17,47.79 80.29,47.8 80.64,47.78C81.48,47.74 83.88,47.55 84.87,47.47C85.41,47.43 85.62,47.43 86.12,47.37C86.86,47.28 87.83,47.08 88.85,46.89C90.16,46.64 91.83,46.39 93.33,45.97C94.9,45.53 96.98,44.59 98.06,44.26C98.6,44.09 98.81,44.04 99.31,43.95C100.04,43.82 100.92,43.88 102.04,43.62C103.98,43.18 109.76,40.97 109.76,40.97C109.76,40.97 109.76,40.97 109.76,40.97C109.76,40.97 114.99,38.79 114.99,38.79C114.99,38.79 114.99,38.79 114.99,38.79C114.99,38.79 115.49,38.93 115.98,38.96C117.31,39.06 120.91,39.2 123.45,38.76C126.22,38.28 129.42,37.13 131.91,36.01C134.06,35.04 136.41,33.19 137.64,32.64C138.19,32.4 138.31,32.43 138.88,32.25C140.19,31.83 143.57,30.79 145.35,30.13C146.63,29.66 147.75,28.9 148.59,28.79C149.09,28.73 149.28,28.85 149.83,28.96C150.94,29.18 153.57,30.15 154.81,30.27C155.53,30.34 155.81,30.18 156.55,30.17C157.83,30.16 159.83,30.47 161.78,30.37C164.27,30.24 168.33,29.54 170.24,29.13C171.24,28.92 171.77,28.62 172.48,28.5C173.09,28.4 173.55,28.41 174.22,28.4C175.13,28.39 176.76,28.5 177.46,28.48C177.79,28.47 177.88,28.42 178.2,28.42C178.82,28.42 180.01,28.51 180.94,28.64C181.92,28.77 182.76,29.07 183.93,29.21C185.57,29.41 188.57,29.41 189.9,29.52C190.57,29.58 190.69,29.62 191.4,29.7C193.1,29.89 197.81,30.59 200.11,30.56C201.61,30.54 202.69,30.19 203.84,30.08C204.82,29.99 205.6,29.97 206.58,29.93C207.73,29.89 209.03,29.92 210.31,29.85C211.68,29.77 213.01,29.64 214.54,29.46C216.36,29.24 218.83,28.73 220.52,28.57C221.76,28.45 222.47,28.51 223.75,28.43C225.63,28.31 229.44,27.96 230.72,27.84C231.2,27.79 231.34,27.77 231.72,27.73C232.22,27.68 232.73,27.65 233.46,27.58C234.73,27.46 237.62,27.08 238.68,27.01C239.14,26.98 239.22,27.03 239.68,26.99C240.74,26.91 244.28,26.36 244.91,26.28C245.05,26.26 245.03,26.27 245.16,26.25C245.67,26.19 247.84,25.93 248.89,25.78C249.66,25.67 250.27,25.57 250.88,25.46C251.41,25.37 251.82,25.29 252.37,25.18C253.04,25.05 254.06,24.83 254.61,24.73C254.93,24.67 254.99,24.66 255.36,24.6C256.37,24.44 259.79,24.03 261.08,23.81C261.74,23.7 262.18,23.65 262.58,23.5C262.88,23.39 263.01,23.24 263.32,23.09C263.82,22.84 264.72,22.35 265.32,22.23C265.77,22.14 266.13,22.29 266.56,22.23C267.04,22.16 267.54,21.98 268.05,21.79C268.62,21.58 269.14,21.23 269.8,20.99C270.6,20.7 271.59,20.42 272.53,20.25C273.5,20.07 274.79,20.05 275.52,19.96C275.94,19.91 276.11,19.96 276.52,19.8Q277.35,19.48 280,17.58" style="vector-effect: non-scaling-stroke; fill: none; stroke: rgb(238, 58, 67); stroke-opacity: 1; stroke-width: 5px; opacity: 1;"/></g><g class="points"/><g class="text"/></g><g class="trace scatter tracef258cf" style="stroke-miterlimit: 2; opacity: 1;"><g class="fills"/><g class="errorbars"/><g class="lines"><path class="js-line" d="M33.35,40.13Q34.99,36.28 36.34,34.1C38.17,31.14 42.18,25.9 43.8,24.27C44.43,23.63 44.77,23.54 45.3,23.12C45.92,22.64 46.6,22.13 47.29,21.54C48.09,20.85 48.82,20.12 49.78,19.21C51.11,17.94 53.51,15.53 54.51,14.61C54.95,14.2 55.22,13.97 55.5,13.75C55.69,13.6 55.78,13.57 56,13.4C56.45,13.05 57.43,12.08 57.99,11.64C58.37,11.34 58.51,11.1 58.99,10.93C59.85,10.63 61.71,10.81 62.97,10.69C64.1,10.58 65.73,10.37 66.2,10.26C66.33,10.23 66.32,10.22 66.45,10.17C66.98,9.99 69.64,9.08 70.44,8.84C70.78,8.74 70.89,8.75 71.18,8.65C71.64,8.49 72.51,8.04 72.92,7.89C73.13,7.81 73.16,7.8 73.42,7.73C74.24,7.5 77.51,6.79 78.65,6.47C79.21,6.31 79.52,6.14 79.89,6.07C80.17,6.02 80.29,6.07 80.64,6.02C81.48,5.91 83.89,5.47 84.87,5.18C85.42,5.02 85.61,4.81 86.12,4.68C86.84,4.5 87.83,4.5 88.85,4.37C90.16,4.2 91.82,3.73 93.33,3.75C94.89,3.77 96.99,4.37 98.06,4.52C98.61,4.6 98.81,4.63 99.31,4.66C100.04,4.71 100.91,4.57 102.04,4.71C103.97,4.95 109.76,6.48 109.76,6.48C109.76,6.48 109.76,6.48 109.76,6.48C109.76,6.48 114.99,7.79 114.99,7.79C114.99,7.79 114.99,7.79 114.99,7.79C114.99,7.79 115.5,7.95 115.98,8.1C117.31,8.52 120.91,9.52 123.45,10.5C126.21,11.56 129.33,13.36 131.91,14.32C133.98,15.09 136.42,15.79 137.64,16.02C138.2,16.12 138.3,16.1 138.88,16.12C140.19,16.17 143.57,16.28 145.35,16.12C146.62,16 147.76,15.54 148.59,15.52C149.1,15.51 149.28,15.6 149.83,15.7C150.94,15.9 153.57,16.55 154.81,16.75C155.54,16.87 155.82,16.83 156.55,16.96C157.83,17.18 159.85,17.58 161.78,18.14C164.28,18.86 168.32,20.49 170.24,21.11C171.22,21.43 171.78,21.56 172.48,21.78C173.1,21.98 173.55,22.35 174.22,22.38C175.13,22.42 176.76,21.71 177.46,21.54C177.79,21.46 177.88,21.46 178.2,21.37C178.83,21.2 180,20.75 180.94,20.49C181.91,20.22 182.77,20.1 183.93,19.79C185.59,19.35 188.57,18.32 189.9,17.98C190.56,17.81 190.69,17.82 191.4,17.66C193.1,17.28 197.82,16.25 200.11,15.66C201.62,15.27 202.68,14.84 203.84,14.61C204.82,14.42 205.59,14.36 206.58,14.3C207.73,14.23 209.03,14.17 210.31,14.27C211.68,14.38 213.02,14.63 214.54,14.99C216.37,15.42 218.82,16.63 220.52,16.78C221.75,16.89 222.47,16.52 223.75,16.4C225.63,16.22 229.44,15.94 230.72,15.87C231.2,15.84 231.34,15.87 231.72,15.83C232.22,15.77 232.72,15.58 233.46,15.49C234.73,15.34 237.62,15.36 238.68,15.3C239.14,15.28 239.22,15.24 239.68,15.23C240.74,15.21 244.28,15.4 244.91,15.42C245.05,15.43 245.03,15.42 245.16,15.43C245.67,15.45 247.84,15.54 248.89,15.62C249.66,15.68 250.27,15.73 250.88,15.81C251.41,15.88 251.83,15.94 252.37,16.07C253.04,16.23 254.06,16.57 254.61,16.73C254.93,16.83 254.99,16.84 255.36,16.96C256.38,17.29 259.78,18.59 261.08,18.96C261.73,19.15 262.17,19.2 262.58,19.29C262.87,19.36 263.01,19.43 263.32,19.46C263.82,19.5 264.73,19.33 265.32,19.34C265.78,19.35 266.14,19.34 266.56,19.45C267.04,19.57 267.54,19.82 268.05,20.08C268.62,20.37 269.13,20.83 269.8,21.11C270.59,21.45 271.61,21.55 272.53,21.87C273.52,22.21 274.79,22.85 275.52,23.14C275.94,23.3 276.09,23.34 276.52,23.5Q277.33,23.79 280,24.77" style="vector-effect: non-scaling-stroke; fill: none; stroke: rgb(255, 192, 203); stroke-opacity: 1; stroke-width: 5px; opacity: 1;"/></g><g class="points"/><g class="text"/></g><g class="trace scatter trace530d0e" style="stroke-miterlimit: 2; opacity: 1;"><g class="fills"/><g class="errorbars"/><g class="lines"><path class="js-line" d="M0,53.6Q3.17,54.46 4.73,54.5C6.24,54.54 7.97,53.98 9.21,53.9C10.08,53.85 10.97,53.93 11.45,53.92C11.68,53.91 11.69,53.89 11.95,53.89C12.97,53.91 17.72,54.48 19.41,54.61C20.28,54.68 20.66,54.66 21.4,54.72C22.35,54.79 23.56,54.9 24.64,55.05C25.72,55.2 26.66,55.4 27.88,55.6C29.47,55.87 31.8,56.39 33.35,56.5C34.49,56.58 35.12,56.38 36.34,56.45C38.27,56.56 42.26,57.35 43.8,57.45C44.49,57.49 44.76,57.44 45.3,57.44C45.92,57.44 46.59,57.51 47.29,57.48C48.07,57.45 48.82,57.26 49.78,57.21C51.1,57.15 53.52,57.22 54.51,57.26C54.96,57.28 55.23,57.31 55.5,57.32C55.69,57.33 55.78,57.32 56,57.32C56.44,57.31 57.44,57.28 57.99,57.25C58.38,57.23 58.55,57.21 58.99,57.16C59.88,57.06 61.71,56.71 62.97,56.65C64.1,56.6 65.73,56.76 66.2,56.77C66.33,56.77 66.32,56.77 66.45,56.77C66.98,56.76 69.64,56.73 70.44,56.69C70.79,56.67 70.88,56.66 71.18,56.64C71.64,56.61 72.52,56.55 72.92,56.54C73.14,56.53 73.17,56.54 73.42,56.54C74.24,56.54 77.51,56.49 78.65,56.53C79.21,56.55 79.53,56.61 79.89,56.61C80.17,56.61 80.29,56.63 80.64,56.58C81.48,56.46 83.88,55.8 84.87,55.53C85.41,55.38 85.62,55.29 86.12,55.17C86.85,54.99 87.83,54.84 88.85,54.61C90.16,54.32 91.81,53.77 93.33,53.53C94.88,53.28 96.99,53.21 98.06,53.15C98.61,53.12 98.82,53.17 99.31,53.11C100.05,53.03 100.89,52.7 102.04,52.57C103.95,52.36 109.76,52.38 109.76,52.38C109.76,52.38 109.76,52.38 109.76,52.38C109.76,52.38 114.99,52.17 114.99,52.17C114.99,52.17 114.99,52.17 114.99,52.17C114.99,52.17 115.49,52.04 115.98,51.95C117.31,51.7 120.88,51.07 123.45,50.76C126.18,50.43 129.37,50 131.91,50.05C134.01,50.09 136.43,50.75 137.64,50.77C138.2,50.78 138.3,50.66 138.88,50.65C140.19,50.64 143.57,50.89 145.35,51.16C146.62,51.35 147.76,51.85 148.59,51.9C149.1,51.93 149.28,51.87 149.83,51.78C150.94,51.59 153.57,50.74 154.81,50.53C155.53,50.4 155.82,50.47 156.55,50.36C157.83,50.17 159.82,49.67 161.78,49.33C164.26,48.9 168.32,48.36 170.24,48.09C171.23,47.95 171.78,47.9 172.48,47.78C173.1,47.67 173.55,47.47 174.22,47.42C175.13,47.36 176.76,47.61 177.46,47.64C177.79,47.66 177.88,47.63 178.2,47.66C178.83,47.71 180,47.96 180.94,48.04C181.91,48.13 182.76,48.08 183.93,48.16C185.58,48.27 188.57,48.75 189.9,48.69C190.57,48.66 190.7,48.57 191.4,48.43C193.11,48.09 197.8,46.83 200.11,46.46C201.6,46.22 202.69,46.24 203.84,46.1C204.83,45.98 205.59,45.79 206.58,45.68C207.73,45.55 209.03,45.58 210.31,45.4C211.68,45.21 213.01,44.88 214.54,44.53C216.36,44.12 218.82,43.25 220.52,43.05C221.75,42.91 222.47,43.13 223.75,43.08C225.63,43.01 229.44,42.62 230.72,42.46C231.21,42.4 231.34,42.33 231.72,42.3C232.22,42.26 232.73,42.38 233.46,42.32C234.74,42.22 237.62,41.6 238.68,41.47C239.14,41.41 239.22,41.42 239.68,41.38C240.74,41.28 244.29,40.97 244.91,40.88C245.05,40.86 245.03,40.85 245.16,40.83C245.67,40.74 247.84,40.49 248.89,40.29C249.66,40.14 250.27,40 250.88,39.81C251.42,39.65 251.82,39.46 252.37,39.26C253.04,39.02 254.06,38.65 254.61,38.49C254.92,38.4 254.99,38.35 255.36,38.32C256.37,38.23 259.79,38.42 261.08,38.57C261.74,38.65 262.17,38.75 262.58,38.85C262.87,38.92 263.01,39.01 263.32,39.06C263.82,39.14 264.74,39.19 265.32,39.14C265.79,39.1 266.13,38.99 266.56,38.88C267.04,38.76 267.53,38.53 268.05,38.42C268.6,38.3 269.15,38.33 269.8,38.22C270.61,38.09 271.6,37.86 272.53,37.64C273.51,37.41 274.79,36.92 275.52,36.88C275.94,36.86 276.08,37.01 276.52,37.03Q277.33,37.06 280,36.8" style="vector-effect: non-scaling-stroke; fill: none; stroke: rgb(0, 180, 219); stroke-opacity: 1; stroke-width: 5px; opacity: 1;"/></g><g class="points"/><g class="text"/></g><g class="trace scatter trace225345" style="stroke-miterlimit: 2; opacity: 1;"><g class="fills"/><g class="errorbars"/><g class="lines"><path class="js-line" d="M93.33,70.07Q96.95,66.76 98.06,66.07C98.58,65.75 98.8,65.68 99.31,65.52C100.03,65.3 100.9,65.25 102.04,65.01C103.96,64.6 109.76,63.14 109.76,63.14C109.76,63.14 109.76,63.14 109.76,63.14C109.76,63.14 114.99,62.36 114.99,62.36C114.99,62.36 114.99,62.36 114.99,62.36C114.99,62.36 115.49,62.51 115.98,62.53C117.31,62.6 120.9,62.41 123.45,62C126.2,61.56 129.37,60.57 131.91,59.88C134.01,59.31 136.42,58.32 137.64,58.18C138.2,58.12 138.3,58.24 138.88,58.26C140.19,58.31 143.56,58.39 145.35,58.33C146.62,58.29 147.77,58.18 148.59,58.09C149.1,58.03 149.28,58 149.83,57.91C150.94,57.74 153.58,57.3 154.81,57.06C155.54,56.92 155.81,56.78 156.55,56.68C157.82,56.5 159.83,56.51 161.78,56.35C164.26,56.14 168.32,55.66 170.24,55.47C171.23,55.37 171.78,55.25 172.48,55.27C173.1,55.29 173.55,55.47 174.22,55.53C175.13,55.61 176.76,55.56 177.46,55.61C177.79,55.63 177.87,55.69 178.2,55.7C178.82,55.72 180.01,55.54 180.94,55.54C181.91,55.54 182.76,55.71 183.93,55.71C185.58,55.71 188.57,55.38 189.9,55.38C190.57,55.38 190.69,55.43 191.4,55.46C193.1,55.53 197.81,55.69 200.11,55.74C201.61,55.77 202.69,55.71 203.84,55.79C204.83,55.86 205.59,56.12 206.58,56.15C207.73,56.18 209.03,55.88 210.31,55.87C211.68,55.86 213.01,56.17 214.54,56.12C216.36,56.06 218.83,55.42 220.52,55.4C221.76,55.39 222.47,55.72 223.75,55.72C225.63,55.71 229.45,55.23 230.72,54.98C231.21,54.88 231.34,54.79 231.72,54.69C232.22,54.56 232.72,54.41 233.46,54.32C234.73,54.16 237.62,54.18 238.68,54.13C239.14,54.11 239.22,54.1 239.68,54.08C240.74,54.02 244.28,53.82 244.91,53.79C245.05,53.78 245.03,53.79 245.16,53.78C245.67,53.75 247.84,53.61 248.89,53.46C249.66,53.35 250.26,53.15 250.88,53.06C251.41,52.98 251.82,52.98 252.37,52.91C253.04,52.82 254.06,52.64 254.61,52.54C254.93,52.48 254.99,52.41 255.36,52.38C256.37,52.3 259.79,52.65 261.08,52.73C261.74,52.77 262.17,52.77 262.58,52.82C262.87,52.85 263.01,52.94 263.32,52.94C263.82,52.94 264.73,52.73 265.32,52.64C265.78,52.57 266.13,52.48 266.56,52.43C267.03,52.38 267.53,52.42 268.05,52.37C268.61,52.32 269.16,52.29 269.8,52.13C270.62,51.93 271.59,51.37 272.53,51.15C273.49,50.93 274.79,50.98 275.52,50.84C275.95,50.76 276.09,50.67 276.52,50.55Q277.33,50.32 280,49.58" style="vector-effect: non-scaling-stroke; fill: none; stroke: rgb(219, 31, 34); stroke-opacity: 1; stroke-width: 5px; opacity: 1;"/></g><g class="points"/><g class="text"/></g><g class="trace scatter trace5f78e4" style="stroke-miterlimit: 2; opacity: 1;"><g class="fills"/><g class="errorbars"/><g class="lines"><path class="js-line" d="M0,49.66Q2.98,44.95 4.73,44.29C6.12,43.77 7.98,44.94 9.21,44.86C10.09,44.8 10.97,44.39 11.45,44.28C11.68,44.23 11.68,44.19 11.95,44.17C12.97,44.09 17.73,44.29 19.41,44.59C20.3,44.75 20.65,45.06 21.4,45.2C22.34,45.37 23.56,45.42 24.64,45.41C25.72,45.4 26.71,44.87 27.88,45.15C29.52,45.54 31.75,47.92 33.35,48.46C34.45,48.83 35.12,48.68 36.34,48.76C38.27,48.88 42.27,48.76 43.8,48.98C44.5,49.08 44.77,49.21 45.3,49.38C45.92,49.57 46.58,49.9 47.29,50.09C48.07,50.29 48.82,50.32 49.78,50.52C51.11,50.8 53.52,51.4 54.51,51.68C54.97,51.81 55.23,51.91 55.5,52.01C55.7,52.08 55.78,52.12 56,52.21C56.44,52.39 57.44,52.77 57.99,52.99C58.38,53.15 58.55,53.22 58.99,53.4C59.88,53.77 61.7,54.59 62.97,55.06C64.09,55.47 65.73,55.95 66.2,56.1C66.33,56.14 66.32,56.14 66.45,56.18C66.98,56.32 69.64,56.87 70.44,56.99C70.78,57.04 70.88,57.04 71.18,57.06C71.64,57.09 72.52,57.11 72.92,57.13C73.14,57.14 73.17,57.14 73.42,57.15C74.24,57.2 77.51,57.46 78.65,57.54C79.21,57.58 79.53,57.61 79.89,57.62C80.17,57.63 80.29,57.61 80.64,57.61C81.48,57.6 83.88,57.6 84.87,57.55C85.41,57.52 85.63,57.52 86.12,57.45C86.86,57.35 87.84,57.2 88.85,56.92C90.17,56.56 91.83,55.94 93.33,55.3C94.9,54.63 96.97,53.26 98.06,52.97C98.59,52.83 98.81,52.92 99.31,52.9C100.04,52.87 100.9,52.85 102.04,52.84C103.96,52.83 109.76,52.93 109.76,52.93C109.76,52.93 109.76,52.93 109.76,52.93C109.76,52.93 114.99,53.2 114.99,53.2C114.99,53.2 114.99,53.2 114.99,53.2C114.99,53.2 115.49,53.11 115.98,53.07C117.31,52.95 120.89,52.65 123.45,52.72C126.19,52.8 129.36,53.47 131.91,53.59C134,53.69 136.43,53.6 137.64,53.56C138.2,53.54 138.31,53.53 138.88,53.48C140.19,53.36 143.56,52.89 145.35,52.74C146.61,52.63 147.77,52.44 148.59,52.55C149.11,52.62 149.27,52.83 149.83,52.98C150.93,53.28 153.58,53.74 154.81,53.99C155.54,54.14 155.81,54.23 156.55,54.34C157.82,54.52 159.83,54.65 161.78,54.81C164.26,55.02 168.32,55.33 170.24,55.47C171.23,55.54 171.78,55.59 172.48,55.63C173.1,55.66 173.55,55.7 174.22,55.69C175.13,55.68 176.76,55.5 177.46,55.49C177.79,55.48 177.88,55.51 178.2,55.51C178.82,55.51 180.01,55.47 180.94,55.43C181.92,55.39 182.76,55.38 183.93,55.29C185.58,55.16 188.57,54.67 189.9,54.65C190.57,54.64 190.69,54.69 191.4,54.76C193.1,54.92 197.81,55.54 200.11,55.73C201.61,55.85 202.69,55.95 203.84,55.93C204.82,55.92 205.6,55.85 206.58,55.71C207.73,55.54 209.02,55.04 210.31,54.92C211.67,54.8 213.01,55.08 214.54,55.03C216.36,54.97 218.83,54.67 220.52,54.47C221.76,54.32 222.47,54.21 223.75,54.01C225.63,53.72 229.44,52.98 230.72,52.84C231.2,52.79 231.34,52.8 231.72,52.79C232.22,52.78 232.72,52.8 233.46,52.79C234.73,52.76 237.62,52.59 238.68,52.58C239.14,52.58 239.22,52.59 239.68,52.61C240.74,52.66 244.28,52.92 244.91,52.93C245.05,52.93 245.03,52.93 245.16,52.92C245.67,52.89 247.84,52.76 248.89,52.68C249.66,52.62 250.26,52.55 250.88,52.5C251.41,52.45 251.82,52.41 252.37,52.37C253.04,52.33 254.06,52.27 254.61,52.27C254.93,52.27 254.99,52.32 255.36,52.31C256.37,52.28 259.79,51.83 261.08,51.62C261.74,51.51 262.17,51.39 262.58,51.32C262.87,51.27 263.01,51.2 263.32,51.21C263.83,51.23 264.73,51.54 265.32,51.63C265.78,51.7 266.13,51.7 266.56,51.74C267.03,51.79 267.53,51.86 268.05,51.9C268.61,51.95 269.15,51.97 269.8,52.01C270.61,52.06 271.6,52.14 272.53,52.2C273.5,52.26 274.79,52.37 275.52,52.39C275.94,52.4 276.09,52.33 276.52,52.38Q277.33,52.47 280,53.2" style="vector-effect: non-scaling-stroke; fill: none; stroke: rgb(11, 76, 159); stroke-opacity: 1; stroke-width: 5px; opacity: 1;"/></g><g class="points"/><g class="text"/></g></g></g><g class="overplot"/><path class="xlines-above crisp" d="M0,0" style="fill: none;"/><path class="ylines-above crisp" d="M0,0" style="fill: none;"/><g class="overlines-above"/><g class="xaxislayer-above"/><g class="yaxislayer-above"/><g class="overaxes-above"/></g></g><g class="polarlayer"/><g class="smithlayer"/><g class="ternarylayer"/><g class="geolayer"/><g class="funnelarealayer"/><g class="pielayer"/><g class="iciclelayer"/><g class="treemaplayer"/><g class="sunburstlayer"/><g class="glimages"/><defs id="topdefs-43b5eb"><g class="clips"/></defs><g class="layer-above"><g class="imagelayer"/><g class="shapelayer"/></g><g class="infolayer"><g class="g-gtitle"><text class="gtitle" x="15" y="25" text-anchor="start" dy="0em" style="font-family: Ubuntu, verdana, arial, sans-serif; font-size: 16px; fill: rgb(233, 84, 32); opacity: 1; font-weight: normal; white-space: pre;">NRSR 2020-2023</text></g><g class="g-xtitle"/><g class="g-ytitle"/></g></svg>