<svg class="main-svg" xmlns="http://www.w3.org/2000/svg" xmlns:xlink="http://www.w3.org/1999/xlink" width="300" height="135" style="" viewBox="0 0 300 135"><rect x="0" y="0" width="300" height="135" style="fill: rgb(255, 255, 255); fill-opacity: 1;"/><defs id="defs-728630"><g class="clips"><clipPath id="clip728630xyplot" class="plotclip"><rect width="280" height="75"/></clipPath><clipPath class="axesclip" id="clip728630x"><rect x="10" y="0" width="280" height="135"/></clipPath><clipPath class="axesclip" id="clip728630y"><rect x="0" y="50" width="300" height="75"/></clipPath><clipPath class="axesclip" id="clip728630xy"><rect x="10" y="50" width="280" height="75"/></clipPath></g><g class="gradients"/><g class="patterns"/></defs><g class="bglayer"/><g class="layer-below"><g class="imagelayer"/><g class="shapelayer"/></g><g class="cartesianlayer"><g class="subplot xy"><g class="layer-subplot"><g class="shapelayer"/><g class="imagelayer"/></g><g class="gridlayer"><g class="x"><path class="xgrid crisp" transform="translate(82.66,0)" d="M0,50v75" style="stroke: rgb(235, 240, 248); stroke-opacity: 1; stroke-width: 1px;"/><path class="xgrid crisp" transform="translate(169.05,0)" d="M0,50v75" style="stroke: rgb(235, 240, 248); stroke-opacity: 1; stroke-width: 1px;"/><path class="xgrid crisp" transform="translate(255.44,0)" d="M0,50v75" style="stroke: rgb(235, 240, 248); stroke-opacity: 1; stroke-width: 1px;"/></g><g class="y"><path class="ygrid crisp" transform="translate(0,109.62)" d="M10,0h280" style="stroke: rgb(235, 240, 248); stroke-opacity: 1; stroke-width: 1px;"/><path class="ygrid crisp" transform="translate(0,94.25)" d="M10,0h280" style="stroke: rgb(235, 240, 248); stroke-opacity: 1; stroke-width: 1px;"/><path class="ygrid crisp" transform="translate(0,78.87)" d="M10,0h280" style="stroke: rgb(235, 240, 248); stroke-opacity: 1; stroke-width: 1px;"/><path class="ygrid crisp" transform="translate(0,63.5)" d="M10,0h280" style="stroke: rgb(235, 240, 248); stroke-opacity: 1; stroke-width: 1px;"/></g></g><g class="zerolinelayer"><path class="yzl zl crisp" transform="translate(0,125)" d="M10,0h280" style="stroke: rgb(235, 240, 248); stroke-opacity: 1; stroke-width: 2px;"/></g><path class="xlines-below"/><path class="ylines-below"/><g class="overlines-below"/><g class="xaxislayer-below"/><g class="yaxislayer-below"/><g class="overaxes-below"/><g class="plot" transform="translate(10,50)" clip-path="url(#clip728630xyplot)"><g class="scatterlayer mlayer"><g class="trace scatter traceb5e6d9" style="stroke-miterlimit: 2; opacity: 1;"><g class="fills"/><g class="errorbars"/><g class="lines"><path class="js-line" d="M0,18.76Q2.77,13.41 4.5,12.59C5.79,11.98 7.59,12.66 8.76,12.83C9.6,12.95 10.43,13.32 10.89,13.34C11.1,13.35 11.11,13.26 11.36,13.27C12.33,13.32 16.88,14.42 18.46,15.12C19.34,15.51 19.69,15.8 20.36,16.38C21.31,17.19 22.43,18.55 23.43,19.76C24.49,21.05 25.44,22.14 26.51,23.9C28.14,26.58 30.14,31.94 31.72,34.59C32.73,36.28 33.25,37.29 34.56,38.54C36.29,40.19 40.18,42.28 41.66,43.13C42.3,43.5 42.58,43.58 43.08,43.85C43.67,44.17 44.29,44.61 44.97,44.93C45.7,45.28 46.42,45.53 47.34,45.84C48.59,46.26 50.88,46.92 51.83,47.11C52.26,47.2 52.52,47.23 52.78,47.23C52.96,47.23 53.04,47.18 53.25,47.18C53.67,47.17 54.63,47.31 55.15,47.33C55.52,47.34 55.67,47.27 56.09,47.31C56.93,47.39 58.68,48.07 59.88,48.14C60.95,48.2 62.51,47.86 62.96,47.84C63.08,47.83 63.07,47.85 63.2,47.84C63.71,47.81 66.22,47.39 66.98,47.36C67.31,47.35 67.4,47.36 67.69,47.39C68.13,47.43 68.97,47.57 69.35,47.63C69.55,47.66 69.58,47.68 69.82,47.7C70.6,47.77 73.7,47.87 74.79,47.86C75.32,47.86 75.63,47.81 75.98,47.8C76.25,47.79 76.36,47.8 76.69,47.78C77.48,47.74 79.77,47.55 80.71,47.47C81.22,47.43 81.42,47.43 81.89,47.37C82.59,47.28 83.53,47.08 84.5,46.89C85.75,46.64 87.34,46.39 88.76,45.97C90.25,45.53 92.23,44.59 93.25,44.26C93.77,44.09 93.96,44.04 94.44,43.95C95.14,43.82 95.97,43.88 97.04,43.62C98.88,43.18 104.38,40.97 104.38,40.97C104.38,40.97 104.38,40.97 104.38,40.97C104.38,40.97 109.35,38.79 109.35,38.79C109.35,38.79 109.35,38.79 109.35,38.79C109.35,38.79 109.83,38.93 110.3,38.96C111.57,39.05 114.99,39.2 117.4,38.76C120.03,38.28 123.07,37.13 125.44,36.01C127.49,35.04 129.71,33.19 130.89,32.64C131.41,32.4 131.52,32.43 132.07,32.25C133.32,31.83 136.53,30.79 138.22,30.13C139.43,29.66 140.5,28.9 141.3,28.79C141.78,28.73 141.97,28.85 142.49,28.96C143.55,29.18 146.04,30.15 147.22,30.27C147.91,30.34 148.18,30.18 148.88,30.17C150.09,30.16 152,30.47 153.85,30.37C156.21,30.24 160.08,29.54 161.89,29.13C162.84,28.92 163.35,28.62 164.02,28.5C164.6,28.4 165.04,28.41 165.68,28.4C166.55,28.39 168.09,28.5 168.76,28.48C169.08,28.47 169.16,28.42 169.47,28.42C170.06,28.42 171.19,28.51 172.07,28.64C173,28.77 173.79,29.07 174.91,29.21C176.47,29.41 179.33,29.41 180.59,29.52C181.22,29.58 181.34,29.62 182.01,29.7C183.63,29.89 188.12,30.59 190.3,30.56C191.73,30.54 192.76,30.19 193.85,30.08C194.78,29.99 195.52,29.97 196.45,29.93C197.54,29.89 198.78,29.92 200,29.85C201.3,29.77 202.57,29.64 204.02,29.45C205.75,29.23 208.09,28.72 209.7,28.56C210.88,28.44 211.56,28.5 212.78,28.42C214.57,28.3 218.2,27.94 219.41,27.81C219.87,27.76 220,27.74 220.36,27.7C220.83,27.65 221.31,27.62 222.01,27.54C223.22,27.41 225.97,27.02 226.98,26.94C227.42,26.91 227.49,26.95 227.93,26.91C228.94,26.82 232.3,26.25 232.9,26.15C233.03,26.13 233.01,26.13 233.14,26.11C233.63,26.03 235.69,25.75 236.69,25.58C237.42,25.46 238,25.34 238.58,25.22C239.09,25.11 239.48,25.02 240,24.9C240.64,24.75 241.61,24.5 242.13,24.38C242.43,24.31 242.49,24.29 242.84,24.22C243.8,24.02 247.06,23.41 248.28,23.13C248.91,22.99 249.32,22.92 249.7,22.76C249.99,22.64 250.11,22.51 250.41,22.35C250.89,22.1 251.74,21.59 252.31,21.43C252.74,21.31 253.08,21.4 253.49,21.3C253.95,21.19 254.42,20.97 254.91,20.76C255.45,20.52 256.57,19.93 256.57,19.93C256.57,19.93 256.57,19.93 256.57,19.93C256.57,19.93 259.2,19.78 260.12,19.82C260.7,19.85 261.07,19.95 261.54,20C262.01,20.05 262.61,20.13 262.96,20.13C263.16,20.13 263.3,20.11 263.43,20.1C263.52,20.09 263.55,20.1 263.67,20.08C264.08,20.01 265.47,19.43 266.27,19.39C266.95,19.36 267.54,19.6 268.17,19.7C268.8,19.8 269.58,19.96 270.06,20.01C270.35,20.04 270.52,20.06 270.77,20.05C271.06,20.04 271.3,19.99 271.72,19.92C272.53,19.79 274.47,19.4 275.27,19.22C275.69,19.13 275.86,19 276.21,18.99C276.63,18.98 277.09,19.2 277.63,19.25Q278.32,19.32 280,19.29" style="vector-effect: non-scaling-stroke; fill: none; stroke: rgb(238, 58, 67); stroke-opacity: 1; stroke-width: 5px; opacity: 1;"/></g><g class="points"/><g class="text"/></g><g class="trace scatter tracee73e2f" style="stroke-miterlimit: 2; opacity: 1;"><g class="fills"/><g class="errorbars"/><g class="lines"><path class="js-line" d="M31.72,40.13Q33.27,36.29 34.56,34.1C36.3,31.15 40.12,25.9 41.66,24.27C42.26,23.64 42.57,23.54 43.08,23.12C43.67,22.64 44.32,22.13 44.97,21.54C45.73,20.85 46.43,20.12 47.34,19.21C48.61,17.94 50.88,15.53 51.83,14.61C52.26,14.2 52.51,13.97 52.78,13.75C52.96,13.6 53.05,13.57 53.25,13.4C53.68,13.04 54.62,12.09 55.15,11.64C55.51,11.34 55.64,11.1 56.09,10.93C56.9,10.63 58.68,10.81 59.88,10.69C60.96,10.58 62.51,10.37 62.96,10.26C63.09,10.23 63.07,10.22 63.2,10.17C63.71,9.99 66.22,9.08 66.98,8.84C67.31,8.74 67.41,8.75 67.69,8.65C68.13,8.49 68.96,8.04 69.35,7.89C69.55,7.81 69.58,7.8 69.82,7.73C70.6,7.5 73.71,6.79 74.79,6.47C75.33,6.31 75.63,6.14 75.98,6.07C76.24,6.02 76.36,6.07 76.69,6.02C77.49,5.91 79.78,5.47 80.71,5.18C81.23,5.02 81.41,4.81 81.89,4.68C82.58,4.5 83.52,4.5 84.5,4.37C85.75,4.21 87.32,3.73 88.76,3.75C90.24,3.77 92.23,4.37 93.25,4.52C93.77,4.6 93.97,4.63 94.44,4.66C95.14,4.71 95.96,4.57 97.04,4.71C98.88,4.95 104.38,6.48 104.38,6.48C104.38,6.48 104.38,6.48 104.38,6.48C104.38,6.48 109.35,7.79 109.35,7.79C109.35,7.79 109.35,7.79 109.35,7.79C109.35,7.79 109.84,7.95 110.3,8.1C111.57,8.52 114.99,9.52 117.4,10.5C120.03,11.56 122.99,13.36 125.44,14.32C127.4,15.09 129.73,15.79 130.89,16.02C131.42,16.12 131.52,16.1 132.07,16.12C133.32,16.17 136.53,16.28 138.22,16.12C139.43,16 140.51,15.54 141.3,15.52C141.79,15.51 141.96,15.6 142.49,15.7C143.55,15.9 146.04,16.55 147.22,16.75C147.91,16.87 148.18,16.83 148.88,16.96C150.1,17.18 152.01,17.59 153.85,18.14C156.23,18.86 160.06,20.49 161.89,21.11C162.82,21.43 163.36,21.56 164.02,21.78C164.61,21.98 165.04,22.35 165.68,22.38C166.54,22.41 168.09,21.71 168.76,21.54C169.08,21.46 169.16,21.46 169.47,21.37C170.07,21.2 171.18,20.75 172.07,20.49C172.99,20.22 173.81,20.1 174.91,19.79C176.48,19.35 179.32,18.32 180.59,17.98C181.22,17.81 181.34,17.82 182.01,17.66C183.63,17.28 188.12,16.25 190.3,15.66C191.74,15.27 192.75,14.83 193.85,14.61C194.78,14.42 195.51,14.37 196.45,14.31C197.54,14.24 198.78,14.17 200,14.27C201.3,14.38 202.58,14.63 204.02,14.99C205.76,15.42 208.08,16.64 209.7,16.79C210.87,16.9 211.56,16.53 212.78,16.41C214.57,16.23 218.2,15.96 219.41,15.89C219.87,15.86 220,15.89 220.36,15.85C220.84,15.79 221.31,15.6 222.01,15.52C223.22,15.38 225.97,15.41 226.98,15.36C227.42,15.34 227.49,15.3 227.93,15.29C228.94,15.28 232.3,15.51 232.9,15.54C233.03,15.55 233.01,15.54 233.14,15.55C233.63,15.58 235.69,15.71 236.69,15.81C237.42,15.88 238,15.95 238.58,16.04C239.09,16.12 239.48,16.19 240,16.33C240.64,16.5 241.61,16.87 242.13,17.05C242.43,17.15 242.49,17.16 242.84,17.29C243.8,17.64 247.05,19.02 248.28,19.42C248.9,19.62 249.31,19.68 249.7,19.78C249.98,19.85 250.11,19.93 250.41,19.97C250.89,20.04 251.75,19.96 252.31,20.01C252.75,20.05 253.09,20.08 253.49,20.2C253.95,20.34 254.42,20.59 254.91,20.84C255.45,21.11 256.57,21.78 256.57,21.78C256.57,21.78 256.57,21.78 256.57,21.78C256.57,21.78 259.21,22.67 260.12,23.02C260.7,23.24 261.06,23.43 261.54,23.61C262.01,23.79 262.61,23.99 262.96,24.1C263.16,24.16 263.3,24.2 263.43,24.24C263.52,24.27 263.55,24.28 263.67,24.32C264.07,24.45 265.46,24.95 266.27,25.13C266.95,25.28 267.54,25.29 268.17,25.38C268.8,25.47 269.58,25.59 270.06,25.67C270.35,25.72 270.52,25.78 270.77,25.8C271.06,25.82 271.3,25.75 271.72,25.75C272.53,25.76 274.47,25.92 275.27,26.01C275.69,26.06 275.86,26.15 276.21,26.16C276.63,26.17 277.1,26.1 277.63,26.02Q278.32,25.92 280,25.54" style="vector-effect: non-scaling-stroke; fill: none; stroke: rgb(138, 44, 81); stroke-opacity: 1; stroke-width: 5px; opacity: 1;"/></g><g class="points"/><g class="text"/></g><g class="trace scatter trace43e662" style="stroke-miterlimit: 2; opacity: 1;"><g class="fills"/><g class="errorbars"/><g class="lines"><path class="js-line" d="M0,53.6Q3.02,54.46 4.5,54.5C5.94,54.54 7.58,53.98 8.76,53.9C9.59,53.85 10.44,53.93 10.89,53.92C11.1,53.91 11.11,53.89 11.36,53.89C12.33,53.91 16.85,54.48 18.46,54.61C19.29,54.68 19.65,54.66 20.36,54.72C21.26,54.79 22.41,54.9 23.43,55.05C24.46,55.2 25.35,55.4 26.51,55.6C28.02,55.87 30.24,56.39 31.72,56.5C32.8,56.58 33.4,56.38 34.56,56.45C36.4,56.56 40.2,57.35 41.66,57.45C42.31,57.49 42.57,57.44 43.08,57.44C43.67,57.44 44.31,57.51 44.97,57.48C45.72,57.45 46.42,57.26 47.34,57.21C48.6,57.15 50.89,57.23 51.83,57.26C52.26,57.28 52.52,57.31 52.78,57.32C52.96,57.33 53.04,57.32 53.25,57.32C53.67,57.31 54.63,57.28 55.15,57.25C55.52,57.23 55.67,57.21 56.09,57.16C56.93,57.06 58.68,56.71 59.88,56.65C60.96,56.6 62.51,56.76 62.96,56.77C63.09,56.77 63.07,56.77 63.2,56.77C63.71,56.76 66.22,56.72 66.98,56.69C67.31,56.67 67.4,56.66 67.69,56.64C68.13,56.61 68.97,56.55 69.35,56.54C69.55,56.53 69.58,56.54 69.82,56.54C70.6,56.54 73.7,56.49 74.79,56.53C75.32,56.55 75.63,56.61 75.98,56.61C76.25,56.61 76.36,56.63 76.69,56.58C77.49,56.46 79.77,55.8 80.71,55.53C81.22,55.39 81.42,55.29 81.89,55.17C82.59,54.99 83.53,54.84 84.5,54.61C85.75,54.32 87.31,53.77 88.76,53.53C90.23,53.28 92.23,53.21 93.25,53.15C93.77,53.12 93.97,53.17 94.44,53.11C95.14,53.03 95.95,52.7 97.04,52.57C98.86,52.36 104.38,52.38 104.38,52.38C104.38,52.38 104.38,52.38 104.38,52.38C104.38,52.38 109.35,52.17 109.35,52.17C109.35,52.17 109.35,52.17 109.35,52.17C109.35,52.17 109.83,52.04 110.3,51.95C111.57,51.7 114.95,51.07 117.4,50.76C119.99,50.43 123.02,50 125.44,50.05C127.44,50.09 129.74,50.75 130.89,50.77C131.43,50.78 131.52,50.66 132.07,50.65C133.32,50.64 136.53,50.89 138.22,51.16C139.43,51.35 140.51,51.85 141.3,51.9C141.79,51.93 141.97,51.87 142.49,51.78C143.55,51.59 146.04,50.74 147.22,50.53C147.91,50.4 148.18,50.47 148.88,50.36C150.1,50.17 151.99,49.67 153.85,49.33C156.2,48.9 160.07,48.36 161.89,48.09C162.83,47.95 163.36,47.9 164.02,47.78C164.61,47.67 165.04,47.47 165.68,47.42C166.55,47.36 168.09,47.61 168.76,47.64C169.08,47.66 169.16,47.63 169.47,47.66C170.07,47.71 171.18,47.96 172.07,48.04C172.99,48.13 173.8,48.08 174.91,48.16C176.48,48.27 179.33,48.75 180.59,48.69C181.22,48.66 181.34,48.57 182.01,48.43C183.63,48.09 188.1,46.83 190.3,46.46C191.72,46.22 192.76,46.24 193.85,46.1C194.79,45.98 195.51,45.79 196.45,45.68C197.54,45.55 198.79,45.58 200,45.4C201.3,45.21 202.57,44.87 204.02,44.52C205.75,44.11 208.08,43.25 209.7,43.05C210.87,42.9 211.56,43.12 212.78,43.07C214.57,42.99 218.2,42.6 219.41,42.45C219.87,42.39 220,42.33 220.36,42.3C220.83,42.26 221.32,42.37 222.01,42.31C223.22,42.21 225.97,41.59 226.98,41.46C227.42,41.4 227.49,41.41 227.93,41.37C228.94,41.27 232.3,40.97 232.9,40.88C233.03,40.86 233.01,40.85 233.14,40.83C233.63,40.74 235.7,40.49 236.69,40.3C237.42,40.16 238,40.02 238.58,39.84C239.09,39.68 239.48,39.5 240,39.32C240.64,39.1 241.61,38.74 242.13,38.6C242.43,38.52 242.49,38.48 242.84,38.46C243.8,38.4 247.06,38.65 248.28,38.81C248.91,38.89 249.31,39.01 249.7,39.1C249.98,39.17 250.11,39.25 250.41,39.3C250.89,39.38 251.75,39.45 252.31,39.43C252.75,39.41 253.08,39.33 253.49,39.26C253.94,39.18 254.42,39.03 254.91,38.98C255.44,38.93 256.57,38.98 256.57,38.98C256.57,38.98 256.57,38.98 256.57,38.98C256.57,38.98 259.2,38.22 260.12,37.97C260.7,37.81 261.06,37.65 261.54,37.6C262.01,37.55 262.61,37.65 262.96,37.64C263.16,37.64 263.3,37.62 263.43,37.61C263.52,37.6 263.55,37.62 263.67,37.59C264.08,37.5 265.47,36.97 266.27,36.7C266.95,36.47 267.53,36.24 268.17,36.07C268.8,35.9 269.58,35.74 270.06,35.68C270.35,35.64 270.52,35.67 270.77,35.64C271.07,35.6 271.3,35.53 271.72,35.44C272.53,35.26 274.46,34.77 275.27,34.64C275.68,34.57 275.86,34.55 276.21,34.54C276.63,34.53 277.1,34.57 277.63,34.6Q278.32,34.65 280,34.81" style="vector-effect: non-scaling-stroke; fill: none; stroke: rgb(0, 180, 219); stroke-opacity: 1; stroke-width: 5px; opacity: 1;"/></g><g class="points"/><g class="text"/></g><g class="trace scatter trace03a386" style="stroke-miterlimit: 2; opacity: 1;"><g class="fills"/><g class="errorbars"/><g class="lines"><path class="js-line" d="M88.76,70.07Q92.19,66.76 93.25,66.07C93.74,65.75 93.96,65.68 94.44,65.52C95.13,65.3 95.96,65.25 97.04,65.01C98.87,64.6 104.38,63.14 104.38,63.14C104.38,63.14 104.38,63.14 104.38,63.14C104.38,63.14 109.35,62.36 109.35,62.36C109.35,62.36 109.35,62.36 109.35,62.36C109.35,62.36 109.83,62.51 110.3,62.53C111.57,62.59 114.98,62.41 117.4,62C120.02,61.56 123.03,60.57 125.44,59.88C127.44,59.3 129.73,58.32 130.89,58.18C131.42,58.12 131.52,58.24 132.07,58.26C133.32,58.31 136.52,58.39 138.22,58.33C139.42,58.29 140.51,58.18 141.3,58.09C141.79,58.03 141.96,58 142.49,57.91C143.54,57.74 146.05,57.3 147.22,57.06C147.92,56.92 148.17,56.78 148.88,56.68C150.09,56.5 152,56.51 153.85,56.35C156.21,56.14 160.07,55.66 161.89,55.47C162.83,55.37 163.36,55.25 164.02,55.27C164.61,55.29 165.04,55.47 165.68,55.53C166.55,55.61 168.09,55.56 168.76,55.61C169.08,55.63 169.16,55.69 169.47,55.7C170.06,55.72 171.18,55.54 172.07,55.54C173,55.54 173.8,55.71 174.91,55.71C176.48,55.71 179.33,55.38 180.59,55.38C181.22,55.38 181.34,55.43 182.01,55.46C183.63,55.53 188.11,55.69 190.3,55.74C191.73,55.77 192.76,55.71 193.85,55.79C194.79,55.86 195.51,56.12 196.45,56.15C197.54,56.18 198.78,55.88 200,55.87C201.3,55.86 202.57,56.16 204.02,56.11C205.75,56.05 208.09,55.41 209.7,55.39C210.88,55.38 211.56,55.71 212.78,55.71C214.57,55.7 218.2,55.22 219.41,54.97C219.88,54.87 220,54.78 220.36,54.68C220.83,54.55 221.31,54.39 222.01,54.3C223.22,54.14 225.97,54.16 226.98,54.11C227.42,54.09 227.49,54.08 227.93,54.05C228.94,53.99 232.3,53.78 232.9,53.75C233.03,53.74 233.01,53.75 233.14,53.74C233.63,53.71 235.7,53.56 236.69,53.41C237.42,53.3 237.99,53.09 238.58,53C239.08,52.92 239.48,52.92 240,52.85C240.64,52.76 241.61,52.57 242.13,52.47C242.43,52.41 242.49,52.34 242.84,52.31C243.8,52.23 247.05,52.52 248.28,52.57C248.91,52.6 249.31,52.59 249.7,52.62C249.98,52.64 250.12,52.72 250.41,52.71C250.89,52.7 251.75,52.5 252.31,52.4C252.75,52.32 253.08,52.24 253.49,52.19C253.94,52.13 254.42,52.14 254.91,52.09C255.44,52.03 256.57,51.85 256.57,51.85C256.57,51.85 256.57,51.85 256.57,51.85C256.57,51.85 259.2,51.05 260.12,50.9C260.69,50.81 261.07,50.86 261.54,50.81C262.01,50.76 262.61,50.63 262.96,50.59C263.16,50.57 263.3,50.55 263.43,50.55C263.52,50.55 263.55,50.57 263.67,50.56C264.07,50.54 265.47,50.21 266.27,50.16C266.95,50.12 267.54,50.23 268.17,50.2C268.8,50.17 269.58,50 270.06,49.95C270.35,49.92 270.52,49.93 270.77,49.9C271.06,49.86 271.3,49.76 271.72,49.71C272.52,49.61 274.47,49.68 275.27,49.57C275.69,49.51 275.86,49.43 276.21,49.35C276.63,49.25 277.09,49.14 277.63,49.04Q278.32,48.91 280,48.64" style="vector-effect: non-scaling-stroke; fill: none; stroke: rgb(153, 51, 0); stroke-opacity: 1; stroke-width: 5px; opacity: 1;"/></g><g class="points"/><g class="text"/></g><g class="trace scatter trace646893" style="stroke-miterlimit: 2; opacity: 1;"><g class="fills"/><g class="errorbars"/><g class="lines"><path class="js-line" d="M0,49.66Q2.82,44.94 4.5,44.29C5.81,43.78 7.59,44.94 8.76,44.86C9.6,44.8 10.44,44.4 10.89,44.28C11.1,44.23 11.11,44.19 11.36,44.17C12.33,44.09 16.86,44.29 18.46,44.59C19.31,44.75 19.64,45.06 20.36,45.2C21.25,45.37 22.41,45.42 23.43,45.41C24.46,45.4 25.4,44.88 26.51,45.15C28.08,45.54 30.19,47.93 31.72,48.46C32.76,48.82 33.4,48.68 34.56,48.76C36.39,48.88 40.21,48.76 41.66,48.98C42.32,49.08 42.58,49.21 43.08,49.38C43.67,49.57 44.3,49.9 44.97,50.09C45.71,50.29 46.43,50.32 47.34,50.52C48.6,50.8 50.89,51.4 51.83,51.68C52.27,51.81 52.52,51.91 52.78,52.01C52.97,52.08 53.04,52.12 53.25,52.21C53.67,52.39 54.63,52.77 55.15,52.99C55.52,53.15 55.67,53.22 56.09,53.4C56.93,53.77 58.67,54.59 59.88,55.06C60.95,55.47 62.51,55.95 62.96,56.1C63.09,56.14 63.07,56.14 63.2,56.18C63.71,56.32 66.22,56.87 66.98,56.99C67.31,57.04 67.4,57.04 67.69,57.06C68.13,57.09 68.97,57.11 69.35,57.13C69.55,57.14 69.58,57.14 69.82,57.15C70.6,57.2 73.7,57.46 74.79,57.54C75.32,57.58 75.63,57.61 75.98,57.62C76.25,57.63 76.36,57.61 76.69,57.61C77.48,57.6 79.77,57.6 80.71,57.55C81.22,57.52 81.42,57.52 81.89,57.45C82.59,57.35 83.54,57.2 84.5,56.92C85.76,56.56 87.34,55.94 88.76,55.3C90.26,54.63 92.21,53.26 93.25,52.97C93.75,52.83 93.97,52.92 94.44,52.9C95.14,52.87 95.95,52.85 97.04,52.84C98.87,52.83 104.38,52.93 104.38,52.93C104.38,52.93 104.38,52.93 104.38,52.93C104.38,52.93 109.35,53.2 109.35,53.2C109.35,53.2 109.35,53.2 109.35,53.2C109.35,53.2 109.83,53.11 110.3,53.07C111.57,52.95 114.96,52.65 117.4,52.72C120,52.8 123.02,53.47 125.44,53.59C127.43,53.69 129.74,53.6 130.89,53.56C131.43,53.54 131.52,53.53 132.07,53.48C133.32,53.36 136.52,52.89 138.22,52.74C139.42,52.63 140.52,52.44 141.3,52.55C141.8,52.62 141.95,52.83 142.49,52.98C143.54,53.28 146.05,53.74 147.22,53.99C147.91,54.14 148.17,54.23 148.88,54.34C150.09,54.52 151.99,54.65 153.85,54.81C156.21,55.02 160.07,55.33 161.89,55.47C162.83,55.54 163.35,55.59 164.02,55.63C164.61,55.66 165.04,55.7 165.68,55.69C166.55,55.68 168.09,55.5 168.76,55.49C169.08,55.48 169.16,55.51 169.47,55.51C170.06,55.51 171.18,55.47 172.07,55.43C173,55.39 173.8,55.38 174.91,55.29C176.48,55.16 179.33,54.67 180.59,54.65C181.22,54.64 181.34,54.7 182.01,54.76C183.63,54.92 188.11,55.54 190.3,55.73C191.73,55.85 192.76,55.95 193.85,55.93C194.78,55.92 195.52,55.85 196.45,55.71C197.55,55.54 198.77,55.04 200,54.92C201.29,54.8 202.57,55.08 204.02,55.03C205.75,54.97 208.1,54.67 209.7,54.47C210.88,54.32 211.56,54.21 212.78,54.01C214.57,53.72 218.19,52.98 219.41,52.84C219.87,52.79 220,52.8 220.36,52.79C220.83,52.78 221.31,52.8 222.01,52.79C223.22,52.77 225.97,52.59 226.98,52.59C227.42,52.59 227.49,52.6 227.93,52.62C228.94,52.67 232.3,52.93 232.9,52.94C233.03,52.94 233.01,52.94 233.14,52.93C233.63,52.9 235.69,52.78 236.69,52.7C237.42,52.64 237.99,52.58 238.58,52.53C239.09,52.49 239.48,52.44 240,52.41C240.64,52.37 241.61,52.31 242.13,52.32C242.43,52.32 242.49,52.38 242.84,52.37C243.8,52.35 247.06,51.96 248.28,51.8C248.91,51.72 249.31,51.62 249.7,51.57C249.98,51.53 250.12,51.48 250.41,51.5C250.89,51.53 251.75,51.83 252.31,51.92C252.75,51.99 253.08,52.01 253.49,52.06C253.94,52.12 254.42,52.19 254.91,52.25C255.44,52.31 256.57,52.41 256.57,52.41C256.57,52.41 256.57,52.41 256.57,52.41C256.57,52.41 259.2,52.33 260.12,52.29C260.7,52.27 261.07,52.25 261.54,52.22C262.01,52.19 262.61,52.11 262.96,52.09C263.16,52.08 263.3,52.09 263.43,52.09C263.52,52.09 263.55,52.08 263.67,52.09C264.08,52.14 265.47,52.57 266.27,52.71C266.95,52.82 267.54,52.84 268.17,52.9C268.8,52.96 269.58,53.05 270.06,53.08C270.35,53.1 270.52,53.07 270.77,53.1C271.07,53.14 271.3,53.25 271.72,53.34C272.53,53.52 274.46,53.93 275.27,54.03C275.68,54.08 275.86,54.09 276.21,54.09C276.63,54.09 277.1,54 277.63,53.99Q278.32,53.98 280,54.06" style="vector-effect: non-scaling-stroke; fill: none; stroke: rgb(1, 27, 58); stroke-opacity: 1; stroke-width: 5px; opacity: 1;"/></g><g class="points"/><g class="text"/></g></g></g><g class="overplot"/><path class="xlines-above crisp" d="M0,0" style="fill: none;"/><path class="ylines-above crisp" d="M0,0" style="fill: none;"/><g class="overlines-above"/><g class="xaxislayer-above"/><g class="yaxislayer-above"/><g class="overaxes-above"/></g></g><g class="polarlayer"/><g class="smithlayer"/><g class="ternarylayer"/><g class="geolayer"/><g class="funnelarealayer"/><g class="pielayer"/><g class="iciclelayer"/><g class="treemaplayer"/><g class="sunburstlayer"/><g class="glimages"/><defs id="topdefs-728630"><g class="clips"/></defs><g class="layer-above"><g class="imagelayer"/><g class="shapelayer"/></g><g class="infolayer"><g class="g-gtitle"><text class="gtitle" x="15" y="25" text-anchor="start" dy="0em" style="font-family: Ubuntu, verdana, arial, sans-serif; font-size: 16px; fill: rgb(233, 84, 32); opacity: 1; font-weight: normal; white-space: pre;">NRSR 2020-2023</text></g><g class="g-xtitle"/><g class="g-ytitle"/></g></svg>