<svg class="main-svg" xmlns="http://www.w3.org/2000/svg" xmlns:xlink="http://www.w3.org/1999/xlink" width="300" height="135" style="" viewBox="0 0 300 135"><rect x="0" y="0" width="300" height="135" style="fill: rgb(255, 255, 255); fill-opacity: 1;"/><defs id="defs-3cc240"><g class="clips"><clipPath id="clip3cc240xyplot" class="plotclip"><rect width="280" height="75"/></clipPath><clipPath class="axesclip" id="clip3cc240x"><rect x="10" y="0" width="280" height="135"/></clipPath><clipPath class="axesclip" id="clip3cc240y"><rect x="0" y="50" width="300" height="75"/></clipPath><clipPath class="axesclip" id="clip3cc240xy"><rect x="10" y="50" width="280" height="75"/></clipPath></g><g class="gradients"/><g class="patterns"/></defs><g class="bglayer"/><g class="layer-below"><g class="imagelayer"/><g class="shapelayer"/></g><g class="cartesianlayer"><g class="subplot xy"><g class="layer-subplot"><g class="shapelayer"/><g class="imagelayer"/></g><g class="minor-gridlayer"><g class="x"/><g class="y"/></g><g class="gridlayer"><g class="x"><path class="xgrid crisp" transform="translate(77.37,0)" d="M0,50v75" style="stroke: rgb(235, 240, 248); stroke-opacity: 1; stroke-width: 1px;"/><path class="xgrid crisp" transform="translate(157.46,0)" d="M0,50v75" style="stroke: rgb(235, 240, 248); stroke-opacity: 1; stroke-width: 1px;"/><path class="xgrid crisp" transform="translate(237.55,0)" d="M0,50v75" style="stroke: rgb(235, 240, 248); stroke-opacity: 1; stroke-width: 1px;"/></g><g class="y"><path class="ygrid crisp" transform="translate(0,97.18)" d="M10,0h280" style="stroke: rgb(235, 240, 248); stroke-opacity: 1; stroke-width: 1px;"/><path class="ygrid crisp" transform="translate(0,69.35)" d="M10,0h280" style="stroke: rgb(235, 240, 248); stroke-opacity: 1; stroke-width: 1px;"/></g></g><g class="zerolinelayer"><path class="yzl zl crisp" transform="translate(0,125)" d="M10,0h280" style="stroke: rgb(235, 240, 248); stroke-opacity: 1; stroke-width: 2px;"/></g><path class="xlines-below"/><path class="ylines-below"/><g class="overlines-below"/><g class="xaxislayer-below"/><g class="yaxislayer-below"/><g class="overaxes-below"/><g class="plot" transform="translate(10,50)" clip-path="url(#clip3cc240xyplot)"><g class="scatterlayer mlayer"><g class="trace scatter trace249fe1" style="stroke-miterlimit: 2; opacity: 1;"><g class="fills"/><g class="errorbars"/><g class="lines"><path class="js-line" d="M0,24.11Q2.58,19.27 4.17,18.53C5.37,17.97 7.04,18.59 8.12,18.75C8.9,18.86 9.67,19.19 10.09,19.21C10.29,19.22 10.3,19.14 10.53,19.15C11.43,19.2 15.66,20.18 17.12,20.82C17.93,21.17 18.25,21.44 18.87,21.96C19.75,22.7 20.8,23.92 21.72,25.02C22.7,26.18 23.58,27.16 24.58,28.76C26.09,31.18 27.94,36.04 29.4,38.43C30.34,39.97 30.82,40.88 32.04,42.01C33.65,43.5 37.25,45.39 38.62,46.16C39.22,46.49 39.47,46.56 39.94,46.81C40.49,47.1 41.06,47.5 41.69,47.79C42.37,48.11 43.03,48.34 43.89,48.62C45.05,49 47.18,49.59 48.06,49.77C48.45,49.85 48.69,49.88 48.93,49.88C49.1,49.88 49.17,49.83 49.37,49.83C49.76,49.82 50.64,49.95 51.13,49.96C51.47,49.97 51.62,49.9 52.01,49.94C52.79,50.01 54.41,50.62 55.52,50.69C56.51,50.75 57.96,50.46 58.37,50.43C58.48,50.42 58.47,50.43 58.59,50.42C59.06,50.38 61.39,50.02 62.1,49.99C62.41,49.98 62.5,50 62.76,50.02C63.17,50.06 63.93,50.19 64.29,50.24C64.48,50.27 64.51,50.28 64.73,50.3C65.45,50.36 68.33,50.45 69.34,50.44C69.83,50.44 70.12,50.4 70.44,50.39C70.69,50.38 70.79,50.39 71.1,50.37C71.84,50.33 73.96,50.16 74.83,50.09C75.3,50.05 75.49,50.06 75.92,50C76.57,49.92 77.44,49.75 78.34,49.57C79.5,49.34 80.97,49.11 82.29,48.73C83.68,48.33 85.51,47.49 86.46,47.19C86.94,47.04 87.11,46.99 87.55,46.91C88.19,46.79 88.97,46.84 89.97,46.6C91.68,46.19 96.77,44.21 96.77,44.21C96.77,44.21 96.77,44.21 96.77,44.21C96.77,44.21 101.38,42.24 101.38,42.24C101.38,42.24 101.38,42.24 101.38,42.24C101.38,42.24 101.83,42.36 102.26,42.39C103.43,42.47 106.61,42.6 108.84,42.21C111.28,41.78 114.1,40.73 116.3,39.72C118.2,38.84 120.26,37.16 121.35,36.67C121.83,36.45 121.94,36.49 122.45,36.32C123.61,35.94 126.59,34.99 128.15,34.4C129.27,33.97 130.26,33.29 131,33.19C131.44,33.13 131.62,33.24 132.1,33.34C133.08,33.54 135.39,34.4 136.49,34.52C137.13,34.59 137.38,34.44 138.03,34.44C139.15,34.43 140.92,34.72 142.63,34.62C144.82,34.5 148.41,33.86 150.09,33.49C150.97,33.3 151.45,33.02 152.07,32.92C152.61,32.83 153.02,32.85 153.61,32.84C154.41,32.83 155.84,32.93 156.46,32.91C156.76,32.9 156.83,32.85 157.12,32.85C157.67,32.85 158.71,32.94 159.53,33.05C160.39,33.17 161.13,33.44 162.16,33.57C163.61,33.75 166.26,33.75 167.43,33.85C168.02,33.9 168.13,33.94 168.75,34.01C170.25,34.18 174.41,34.82 176.43,34.79C177.76,34.77 178.71,34.44 179.72,34.35C180.58,34.27 181.26,34.25 182.13,34.22C183.14,34.18 184.29,34.21 185.42,34.14C186.63,34.07 187.8,33.96 189.15,33.79C190.76,33.59 192.93,33.13 194.42,32.98C195.51,32.87 196.14,32.93 197.27,32.85C198.93,32.74 202.3,32.41 203.42,32.3C203.84,32.26 203.96,32.24 204.29,32.2C204.73,32.15 205.18,32.12 205.83,32.05C206.96,31.93 209.5,31.58 210.44,31.51C210.85,31.48 210.91,31.53 211.32,31.49C212.25,31.41 215.37,30.88 215.92,30.79C216.04,30.77 216.02,30.77 216.14,30.75C216.59,30.68 218.51,30.42 219.44,30.27C220.12,30.16 220.65,30.05 221.19,29.94C221.66,29.84 222.03,29.75 222.51,29.64C223.1,29.5 224,29.28 224.48,29.17C224.76,29.11 224.82,29.09 225.14,29.02C226.03,28.83 229.06,28.28 230.19,28.02C230.77,27.89 231.15,27.83 231.5,27.68C231.77,27.57 231.88,27.44 232.16,27.3C232.6,27.07 233.39,26.62 233.92,26.47C234.32,26.36 234.64,26.44 235.02,26.35C235.44,26.25 235.88,26.04 236.33,25.85C236.83,25.63 237.87,25.1 237.87,25.1C237.87,25.1 237.87,25.1 237.87,25.1C237.87,25.1 240.31,24.92 241.16,24.95C241.7,24.97 242.04,25.05 242.48,25.09C242.92,25.13 243.47,25.17 243.79,25.17C243.98,25.17 244.11,25.15 244.23,25.14C244.32,25.13 244.34,25.13 244.45,25.11C244.82,25.03 246.12,24.5 246.87,24.44C247.5,24.39 248.04,24.56 248.62,24.61C249.21,24.66 249.94,24.74 250.38,24.75C250.65,24.76 250.8,24.76 251.03,24.73C251.3,24.7 251.52,24.63 251.91,24.54C252.66,24.36 254.45,23.88 255.2,23.68C255.59,23.57 255.75,23.48 256.08,23.43C256.47,23.37 256.91,23.43 257.4,23.38C258.04,23.31 258.95,23.11 259.59,22.98C260.09,22.88 260.55,22.77 260.91,22.68C261.17,22.61 261.37,22.54 261.57,22.49C261.73,22.45 261.82,22.43 262.01,22.39C262.37,22.31 262.98,22.17 263.54,22.04C264.21,21.88 264.97,21.7 265.74,21.51C266.58,21.3 267.61,20.99 268.37,20.84C268.95,20.73 269.42,20.73 269.91,20.64C270.37,20.56 270.97,20.41 271.22,20.35C271.32,20.33 271.37,20.32 271.44,20.3C271.51,20.28 271.57,20.27 271.66,20.25C271.78,20.22 271.94,20.16 272.1,20.12C272.3,20.07 272.54,20.04 272.76,20C272.98,19.96 273.16,19.92 273.42,19.88C273.78,19.82 274.29,19.69 274.73,19.68C275.17,19.67 275.73,19.8 276.05,19.83C276.24,19.85 276.49,19.86 276.49,19.86C276.49,19.86 276.49,19.86 276.49,19.86C276.49,19.86 278.04,19.99 278.68,20.08Q279.18,20.15 280,20.34" style="vector-effect: none; fill: none; stroke: rgb(238, 58, 67); stroke-opacity: 1; stroke-width: 5px; opacity: 1;"/></g><g class="points"/><g class="text"/></g><g class="trace scatter tracebd0150" style="stroke-miterlimit: 2; opacity: 1;"><g class="fills"/><g class="errorbars"/><g class="lines"><path class="js-line" d="M0,55.63Q2.8,56.41 4.17,56.45C5.5,56.49 7.03,55.98 8.12,55.91C8.89,55.86 9.67,55.94 10.09,55.93C10.29,55.92 10.3,55.9 10.53,55.9C11.43,55.91 15.63,56.43 17.12,56.55C17.89,56.61 18.22,56.6 18.87,56.65C19.71,56.72 20.77,56.82 21.72,56.95C22.67,57.08 23.5,57.26 24.58,57.44C25.98,57.68 28.03,58.15 29.4,58.26C30.41,58.34 30.97,58.16 32.04,58.22C33.74,58.32 37.26,59.03 38.62,59.12C39.23,59.16 39.47,59.11 39.94,59.11C40.48,59.11 41.07,59.18 41.69,59.15C42.38,59.12 43.04,58.94 43.89,58.9C45.06,58.84 47.19,58.92 48.06,58.95C48.46,58.96 48.69,58.99 48.93,59C49.1,59 49.17,59 49.37,59C49.76,58.99 50.64,58.97 51.13,58.94C51.47,58.92 51.62,58.9 52.01,58.86C52.79,58.77 54.41,58.45 55.52,58.4C56.52,58.35 57.96,58.48 58.37,58.5C58.48,58.5 58.47,58.51 58.59,58.51C59.06,58.52 61.39,58.46 62.1,58.43C62.41,58.42 62.49,58.41 62.76,58.39C63.16,58.37 63.93,58.31 64.29,58.3C64.48,58.29 64.51,58.3 64.73,58.3C65.46,58.3 68.33,58.26 69.34,58.29C69.83,58.31 70.12,58.36 70.44,58.36C70.69,58.36 70.79,58.38 71.1,58.33C71.84,58.22 73.96,57.62 74.83,57.38C75.3,57.25 75.48,57.17 75.92,57.06C76.57,56.9 77.44,56.76 78.34,56.55C79.5,56.28 80.95,55.79 82.29,55.57C83.65,55.35 85.52,55.28 86.46,55.23C86.94,55.2 87.12,55.25 87.55,55.2C88.2,55.13 88.95,54.83 89.97,54.71C91.66,54.52 96.77,54.53 96.77,54.53C96.77,54.53 96.77,54.53 96.77,54.53C96.77,54.53 101.38,54.34 101.38,54.34C101.38,54.34 101.38,54.34 101.38,54.34C101.38,54.34 101.83,54.22 102.26,54.14C103.43,53.91 106.57,53.35 108.84,53.07C111.24,52.77 114.06,52.38 116.3,52.43C118.15,52.47 120.28,53.05 121.35,53.07C121.85,53.08 121.94,52.97 122.45,52.97C123.61,52.96 126.58,53.18 128.15,53.43C129.27,53.61 130.27,54.05 131,54.1C131.45,54.13 131.62,54.08 132.1,53.99C133.08,53.82 135.4,53.05 136.49,52.86C137.13,52.75 137.38,52.81 138.03,52.71C139.16,52.54 140.91,52.08 142.63,51.78C144.81,51.39 148.4,50.9 150.09,50.65C150.96,50.52 151.45,50.48 152.07,50.37C152.62,50.27 153.02,50.09 153.61,50.05C154.41,49.99 155.84,50.21 156.46,50.24C156.76,50.25 156.83,50.23 157.12,50.26C157.67,50.31 158.71,50.53 159.53,50.61C160.39,50.69 161.13,50.64 162.16,50.71C163.62,50.81 166.26,51.25 167.43,51.2C168.02,51.17 168.13,51.09 168.75,50.96C170.25,50.65 174.4,49.52 176.43,49.18C177.75,48.96 178.71,48.98 179.72,48.85C180.59,48.74 181.26,48.57 182.13,48.47C183.14,48.35 184.29,48.38 185.42,48.22C186.63,48.05 187.8,47.73 189.15,47.42C190.76,47.04 192.92,46.27 194.42,46.09C195.51,45.96 196.14,46.16 197.27,46.11C198.93,46.04 202.3,45.69 203.42,45.55C203.84,45.5 203.96,45.44 204.29,45.41C204.73,45.38 205.18,45.47 205.83,45.42C206.96,45.33 209.5,44.77 210.44,44.65C210.85,44.6 210.91,44.61 211.32,44.57C212.25,44.48 215.37,44.21 215.92,44.12C216.04,44.1 216.02,44.09 216.14,44.07C216.59,43.99 218.52,43.77 219.44,43.59C220.12,43.46 220.65,43.33 221.19,43.17C221.67,43.03 222.02,42.86 222.51,42.69C223.1,42.49 224,42.17 224.48,42.04C224.76,41.97 224.81,41.92 225.14,41.9C226.03,41.83 229.06,42.05 230.19,42.19C230.77,42.26 231.14,42.36 231.5,42.44C231.76,42.5 231.88,42.58 232.16,42.62C232.6,42.69 233.4,42.74 233.92,42.71C234.33,42.69 234.64,42.61 235.02,42.54C235.44,42.46 235.87,42.32 236.33,42.27C236.82,42.22 237.87,42.24 237.87,42.24C237.87,42.24 237.87,42.24 237.87,42.24C237.87,42.24 240.31,41.49 241.16,41.24C241.7,41.08 242.04,40.93 242.48,40.87C242.91,40.81 243.47,40.87 243.79,40.85C243.98,40.84 244.11,40.82 244.23,40.8C244.32,40.79 244.34,40.8 244.45,40.77C244.83,40.67 246.13,40.13 246.87,39.84C247.5,39.6 248.03,39.36 248.62,39.16C249.2,38.97 249.93,38.77 250.38,38.67C250.65,38.61 250.8,38.62 251.03,38.56C251.3,38.49 251.52,38.41 251.91,38.28C252.66,38.03 254.45,37.38 255.2,37.15C255.58,37.03 255.76,37 256.08,36.92C256.47,36.83 256.91,36.75 257.4,36.63C258.04,36.48 258.96,36.27 259.59,36.08C260.09,35.93 260.55,35.77 260.91,35.6C261.17,35.48 261.37,35.32 261.57,35.22C261.73,35.14 261.82,35.1 262.01,35.01C262.37,34.84 262.98,34.5 263.54,34.24C264.2,33.93 264.98,33.65 265.74,33.28C266.59,32.86 267.6,32.23 268.37,31.84C268.95,31.55 269.42,31.34 269.91,31.11C270.36,30.9 270.97,30.63 271.22,30.52C271.32,30.48 271.37,30.45 271.44,30.43C271.51,30.41 271.57,30.41 271.66,30.39C271.78,30.36 271.94,30.3 272.1,30.25C272.3,30.19 272.54,30.14 272.76,30.08C272.98,30.03 273.16,29.98 273.42,29.92C273.78,29.84 274.29,29.72 274.73,29.64C275.17,29.55 275.73,29.45 276.05,29.41C276.24,29.39 276.49,29.38 276.49,29.38C276.49,29.38 276.49,29.38 276.49,29.38C276.49,29.38 278.04,29.07 278.68,28.97Q279.17,28.89 280,28.8" style="vector-effect: none; fill: none; stroke: rgb(0, 180, 219); stroke-opacity: 1; stroke-width: 5px; opacity: 1;"/></g><g class="points"/><g class="text"/></g><g class="trace scatter trace1efeb5" style="stroke-miterlimit: 2; opacity: 1;"><g class="fills"/><g class="errorbars"/><g class="lines"><path class="js-line" d="M29.4,43.45Q30.84,39.97 32.04,37.99C33.66,35.32 37.19,30.57 38.62,29.1C39.18,28.53 39.47,28.44 39.94,28.06C40.48,27.62 41.08,27.17 41.69,26.63C42.39,26.01 43.05,25.35 43.89,24.52C45.06,23.37 47.18,21.18 48.06,20.35C48.45,19.98 48.68,19.78 48.93,19.58C49.1,19.45 49.18,19.41 49.37,19.26C49.77,18.94 50.63,18.07 51.13,17.67C51.47,17.4 51.59,17.18 52.01,17.03C52.77,16.76 54.41,16.92 55.52,16.81C56.52,16.71 57.96,16.52 58.37,16.42C58.49,16.39 58.47,16.38 58.59,16.34C59.06,16.17 61.39,15.34 62.1,15.13C62.4,15.04 62.5,15.05 62.76,14.96C63.17,14.82 63.93,14.42 64.29,14.28C64.48,14.21 64.5,14.2 64.73,14.13C65.45,13.92 68.33,13.28 69.34,12.99C69.84,12.85 70.12,12.69 70.44,12.63C70.68,12.58 70.79,12.62 71.1,12.58C71.84,12.48 73.97,12.08 74.83,11.82C75.31,11.67 75.48,11.49 75.92,11.37C76.56,11.2 77.44,11.21 78.34,11.09C79.5,10.94 80.96,10.51 82.29,10.53C83.66,10.55 85.52,11.09 86.46,11.23C86.94,11.3 87.11,11.33 87.55,11.36C88.2,11.4 88.97,11.28 89.97,11.4C91.67,11.61 96.77,13 96.77,13C96.77,13 96.77,13 96.77,13C96.77,13 101.38,14.19 101.38,14.19C101.38,14.19 101.38,14.19 101.38,14.19C101.38,14.19 101.83,14.32 102.26,14.46C103.44,14.84 106.6,15.76 108.84,16.64C111.28,17.6 114.03,19.22 116.3,20.09C118.12,20.79 120.27,21.42 121.35,21.63C121.84,21.72 121.94,21.7 122.45,21.72C123.61,21.77 126.58,21.87 128.15,21.72C129.27,21.61 130.27,21.2 131,21.18C131.45,21.17 131.61,21.25 132.1,21.34C133.08,21.52 135.4,22.1 136.49,22.29C137.13,22.4 137.38,22.37 138.03,22.48C139.16,22.68 140.93,23.05 142.63,23.55C144.83,24.2 148.39,25.67 150.09,26.24C150.96,26.53 151.45,26.65 152.07,26.85C152.62,27.03 153.01,27.37 153.61,27.39C154.41,27.42 155.84,26.78 156.46,26.63C156.76,26.56 156.83,26.56 157.12,26.48C157.67,26.33 158.7,25.92 159.53,25.68C160.38,25.44 161.14,25.32 162.16,25.04C163.62,24.64 166.25,23.72 167.43,23.41C168.01,23.26 168.13,23.26 168.75,23.12C170.25,22.78 174.41,21.84 176.43,21.31C177.76,20.96 178.7,20.56 179.72,20.36C180.58,20.19 181.26,20.13 182.13,20.08C183.14,20.02 184.29,19.96 185.42,20.05C186.63,20.15 187.81,20.39 189.15,20.71C190.77,21.1 192.92,22.2 194.42,22.33C195.5,22.43 196.14,22.09 197.27,21.98C198.93,21.82 202.3,21.58 203.42,21.52C203.84,21.5 203.96,21.53 204.29,21.49C204.73,21.44 205.18,21.26 205.83,21.19C206.95,21.06 209.51,21.1 210.44,21.05C210.85,21.03 210.91,20.99 211.32,20.98C212.25,20.97 215.37,21.19 215.92,21.22C216.04,21.23 216.02,21.22 216.14,21.23C216.59,21.26 218.51,21.38 219.44,21.47C220.12,21.54 220.65,21.59 221.19,21.68C221.66,21.76 222.03,21.82 222.51,21.95C223.11,22.11 224,22.44 224.48,22.6C224.76,22.69 224.82,22.71 225.14,22.83C226.04,23.16 229.05,24.41 230.19,24.78C230.76,24.96 231.14,25.03 231.5,25.12C231.76,25.19 231.88,25.25 232.16,25.29C232.6,25.35 233.4,25.3 233.92,25.35C234.33,25.39 234.65,25.42 235.02,25.54C235.45,25.67 235.88,25.91 236.33,26.14C236.83,26.39 237.87,27 237.87,27C237.87,27 237.87,27 237.87,27C237.87,27 240.31,27.85 241.16,28.18C241.7,28.39 242.04,28.57 242.48,28.74C242.92,28.91 243.47,29.1 243.79,29.21C243.97,29.27 244.11,29.3 244.23,29.34C244.32,29.37 244.34,29.38 244.45,29.42C244.82,29.55 246.12,30.05 246.87,30.24C247.49,30.4 248.04,30.44 248.62,30.55C249.21,30.66 249.94,30.82 250.38,30.92C250.65,30.98 250.8,31.04 251.03,31.07C251.3,31.11 251.53,31.08 251.91,31.13C252.66,31.23 254.45,31.58 255.2,31.75C255.59,31.84 255.75,31.92 256.08,31.99C256.47,32.07 256.9,32.09 257.4,32.16C258.04,32.25 258.96,32.33 259.59,32.48C260.09,32.6 260.54,32.8 260.91,32.9C261.17,32.97 261.37,33.01 261.57,33.04C261.73,33.07 261.82,33.06 262.01,33.1C262.37,33.18 262.98,33.42 263.54,33.6C264.21,33.82 264.98,34.02 265.74,34.32C266.59,34.65 267.6,35.28 268.37,35.52C268.94,35.7 269.42,35.66 269.91,35.79C270.37,35.91 270.97,36.14 271.22,36.24C271.32,36.28 271.37,36.31 271.44,36.33C271.51,36.35 271.58,36.34 271.66,36.36C271.78,36.39 271.94,36.47 272.1,36.51C272.3,36.56 272.54,36.59 272.76,36.65C272.98,36.71 273.16,36.78 273.42,36.87C273.78,36.99 274.29,37.19 274.73,37.31C275.17,37.43 275.73,37.48 276.05,37.57C276.24,37.62 276.49,37.72 276.49,37.72C276.49,37.72 276.49,37.72 276.49,37.72C276.49,37.72 278.03,38.57 278.68,38.86Q279.17,39.08 280,39.35" style="vector-effect: none; fill: none; stroke: rgb(138, 44, 81); stroke-opacity: 1; stroke-width: 5px; opacity: 1;"/></g><g class="points"/><g class="text"/></g><g class="trace scatter traceab226a" style="stroke-miterlimit: 2; opacity: 1;"><g class="fills"/><g class="errorbars"/><g class="lines"><path class="js-line" d="M82.29,70.54Q85.49,67.55 86.46,66.92C86.91,66.63 87.1,66.56 87.55,66.42C88.19,66.22 88.96,66.18 89.97,65.96C91.67,65.59 96.77,64.27 96.77,64.27C96.77,64.27 96.77,64.27 96.77,64.27C96.77,64.27 101.38,63.57 101.38,63.57C101.38,63.57 101.38,63.57 101.38,63.57C101.38,63.57 101.83,63.7 102.26,63.72C103.43,63.78 106.59,63.6 108.84,63.23C111.27,62.83 114.06,61.95 116.3,61.32C118.15,60.8 120.27,59.91 121.35,59.78C121.84,59.72 121.94,59.83 122.45,59.85C123.61,59.89 126.58,59.96 128.15,59.91C129.26,59.87 130.27,59.78 131,59.7C131.45,59.65 131.61,59.62 132.1,59.54C133.08,59.38 135.4,58.99 136.49,58.77C137.14,58.64 137.37,58.52 138.03,58.42C139.15,58.26 140.91,58.27 142.63,58.12C144.82,57.93 148.4,57.5 150.09,57.33C150.96,57.24 151.45,57.13 152.07,57.15C152.62,57.17 153.02,57.34 153.61,57.39C154.41,57.46 155.84,57.42 156.46,57.46C156.76,57.48 156.83,57.52 157.12,57.53C157.67,57.54 158.71,57.39 159.53,57.39C160.39,57.39 161.13,57.55 162.16,57.55C163.61,57.55 166.26,57.25 167.43,57.25C168.02,57.25 168.13,57.29 168.75,57.32C170.25,57.39 174.4,57.53 176.43,57.58C177.76,57.61 178.71,57.55 179.72,57.62C180.59,57.68 181.26,57.93 182.13,57.95C183.14,57.98 184.29,57.7 185.42,57.69C186.62,57.68 187.8,57.95 189.15,57.91C190.76,57.86 192.93,57.28 194.42,57.26C195.51,57.25 196.14,57.55 197.27,57.55C198.93,57.54 202.3,57.1 203.42,56.87C203.85,56.78 203.96,56.7 204.29,56.61C204.73,56.5 205.17,56.35 205.83,56.27C206.95,56.13 209.51,56.15 210.44,56.1C210.85,56.08 210.91,56.07 211.32,56.04C212.25,55.98 215.37,55.8 215.92,55.77C216.04,55.76 216.02,55.77 216.14,55.76C216.59,55.73 218.52,55.6 219.44,55.46C220.12,55.36 220.65,55.18 221.19,55.09C221.66,55.02 222.03,55.02 222.51,54.95C223.1,54.87 224,54.71 224.48,54.61C224.76,54.55 224.81,54.49 225.14,54.46C226.03,54.38 229.05,54.63 230.19,54.68C230.77,54.7 231.14,54.7 231.5,54.73C231.76,54.75 231.89,54.81 232.16,54.8C232.61,54.79 233.4,54.61 233.92,54.52C234.33,54.45 234.64,54.37 235.02,54.32C235.44,54.27 235.88,54.28 236.33,54.23C236.82,54.18 237.87,54 237.87,54C237.87,54 237.87,54 237.87,54C237.87,54 240.3,53.28 241.16,53.14C241.69,53.05 242.04,53.1 242.48,53.05C242.92,53 243.47,52.89 243.79,52.85C243.98,52.83 244.11,52.82 244.23,52.81C244.32,52.81 244.34,52.82 244.45,52.81C244.82,52.78 246.13,52.49 246.87,52.44C247.5,52.4 248.04,52.5 248.62,52.46C249.21,52.42 249.94,52.26 250.38,52.22C250.65,52.19 250.8,52.21 251.03,52.18C251.3,52.15 251.52,52.06 251.91,52.01C252.66,51.92 254.45,51.93 255.2,51.85C255.59,51.81 255.76,51.75 256.08,51.7C256.48,51.64 256.9,51.57 257.4,51.51C258.04,51.44 258.95,51.35 259.59,51.33C260.08,51.32 260.55,51.36 260.91,51.36C261.17,51.36 261.37,51.35 261.57,51.36C261.73,51.37 261.82,51.39 262.01,51.39C262.37,51.39 262.98,51.35 263.54,51.32C264.21,51.28 264.97,51.2 265.74,51.16C266.58,51.12 267.61,51.05 268.37,51.08C268.95,51.1 269.42,51.23 269.91,51.25C270.36,51.27 270.97,51.23 271.22,51.22C271.32,51.22 271.37,51.21 271.44,51.21C271.51,51.21 271.57,51.22 271.66,51.23C271.78,51.24 271.94,51.25 272.1,51.27C272.3,51.3 272.54,51.36 272.76,51.39C272.98,51.42 273.16,51.41 273.42,51.43C273.78,51.46 274.29,51.52 274.73,51.54C275.17,51.56 275.73,51.6 276.05,51.57C276.24,51.56 276.49,51.49 276.49,51.49C276.49,51.49 276.49,51.49 276.49,51.49C276.49,51.49 278.04,51.11 278.68,50.98Q279.17,50.88 280,50.77" style="vector-effect: none; fill: none; stroke: rgb(153, 51, 0); stroke-opacity: 1; stroke-width: 5px; opacity: 1;"/></g><g class="points"/><g class="text"/></g><g class="trace scatter tracefcbec8" style="stroke-miterlimit: 2; opacity: 1;"><g class="fills"/><g class="errorbars"/><g class="lines"><path class="js-line" d="M0,5.39Q2.82,5.71 4.17,5.48C5.53,5.25 7.02,4.28 8.12,4.01C8.88,3.82 9.68,3.65 10.09,3.75C10.3,3.8 10.29,3.91 10.53,4.07C11.43,4.67 15.59,7.42 17.12,8.11C17.86,8.44 18.23,8.39 18.87,8.64C19.72,8.97 20.79,9.47 21.72,10.03C22.7,10.62 23.47,11.44 24.58,12.12C25.95,12.95 28.07,13.65 29.4,14.52C30.46,15.21 30.98,15.79 32.04,16.73C33.76,18.26 37.21,21.98 38.62,22.98C39.19,23.38 39.47,23.43 39.94,23.66C40.48,23.92 41.1,24.1 41.69,24.47C42.41,24.91 43.02,25.61 43.89,26.22C45.04,27.03 47.17,28.4 48.06,28.82C48.44,29 48.69,29 48.93,29.11C49.11,29.19 49.17,29.26 49.37,29.36C49.76,29.55 50.65,29.87 51.13,30.11C51.48,30.28 51.61,30.4 52.01,30.6C52.78,30.99 54.43,31.59 55.52,32.15C56.53,32.67 57.95,33.59 58.37,33.8C58.48,33.86 58.48,33.84 58.59,33.9C59.06,34.14 61.39,35.54 62.1,35.93C62.4,36.1 62.49,36.18 62.76,36.28C63.16,36.42 63.93,36.49 64.29,36.57C64.48,36.61 64.51,36.63 64.73,36.68C65.45,36.85 68.34,37.41 69.34,37.74C69.84,37.9 70.11,38.14 70.44,38.21C70.68,38.26 70.8,38.16 71.1,38.22C71.84,38.36 73.95,39.3 74.83,39.6C75.3,39.76 75.5,39.76 75.92,39.94C76.58,40.22 77.42,40.86 78.34,41.28C79.48,41.8 81,42.08 82.29,42.75C83.71,43.49 85.5,45.07 86.46,45.62C86.93,45.89 87.11,45.97 87.55,46.14C88.19,46.38 88.96,46.54 89.97,46.84C91.67,47.35 96.77,48.94 96.77,48.94C96.77,48.94 96.77,48.94 96.77,48.94C96.77,48.94 101.38,50.1 101.38,50.1C101.38,50.1 101.38,50.1 101.38,50.1C101.38,50.1 101.83,50.09 102.26,50.09C103.43,50.08 106.58,50.14 108.84,50.06C111.25,49.98 114.06,49.53 116.3,49.59C118.15,49.64 120.28,50.16 121.35,50.18C121.85,50.19 121.94,50.08 122.45,50.1C123.61,50.14 126.58,50.66 128.15,50.96C129.27,51.17 130.27,51.58 131,51.62C131.45,51.65 131.61,51.56 132.1,51.5C133.08,51.39 135.4,50.96 136.49,50.95C137.13,50.94 137.38,51.09 138.03,51.1C139.15,51.12 140.91,50.87 142.63,50.84C144.82,50.8 148.4,50.84 150.09,50.96C150.96,51.02 151.45,51.16 152.07,51.21C152.61,51.25 153.02,51.18 153.61,51.24C154.42,51.32 155.84,51.65 156.46,51.74C156.76,51.78 156.83,51.8 157.12,51.81C157.67,51.83 158.71,51.78 159.53,51.69C160.39,51.6 161.13,51.34 162.16,51.24C163.61,51.1 166.26,51.2 167.43,51.11C168.02,51.06 168.13,51.01 168.75,50.93C170.25,50.74 174.42,49.89 176.43,50.08C177.77,50.21 178.7,50.85 179.72,51.09C180.58,51.29 181.26,51.34 182.13,51.49C183.14,51.67 184.29,52.03 185.42,52.09C186.62,52.15 187.8,51.76 189.15,51.79C190.76,51.83 192.93,52.35 194.42,52.48C195.51,52.58 196.14,52.53 197.27,52.62C198.93,52.75 202.3,53.19 203.42,53.31C203.84,53.36 203.96,53.37 204.29,53.4C204.73,53.44 205.18,53.52 205.83,53.55C206.95,53.61 209.51,53.55 210.44,53.59C210.85,53.61 210.91,53.62 211.32,53.65C212.25,53.73 215.37,54.09 215.92,54.12C216.04,54.13 216.02,54.12 216.14,54.12C216.59,54.12 218.51,54.12 219.44,54.16C220.12,54.19 220.65,54.27 221.19,54.3C221.66,54.32 222.03,54.3 222.51,54.32C223.1,54.35 224,54.44 224.48,54.48C224.76,54.5 224.82,54.53 225.14,54.54C226.03,54.56 229.05,54.3 230.19,54.33C230.77,54.35 231.14,54.41 231.5,54.46C231.76,54.49 231.89,54.51 232.16,54.57C232.61,54.67 233.4,54.93 233.92,55.07C234.33,55.18 234.64,55.28 235.02,55.37C235.44,55.47 235.88,55.54 236.33,55.64C236.82,55.75 237.87,55.98 237.87,55.98C237.87,55.98 237.87,55.98 237.87,55.98C237.87,55.98 240.31,56.89 241.16,57.16C241.69,57.33 242.04,57.42 242.48,57.51C242.91,57.6 243.47,57.67 243.79,57.7C243.98,57.72 244.11,57.72 244.23,57.71C244.32,57.71 244.34,57.69 244.45,57.68C244.82,57.65 246.13,57.65 246.87,57.58C247.5,57.52 248.04,57.43 248.62,57.33C249.21,57.23 249.94,57.07 250.38,57C250.65,56.96 250.8,56.93 251.03,56.91C251.3,56.89 251.52,56.92 251.91,56.9C252.66,56.86 254.45,56.62 255.2,56.57C255.59,56.55 255.76,56.55 256.08,56.55C256.48,56.55 256.9,56.56 257.4,56.59C258.04,56.62 258.95,56.74 259.59,56.75C260.09,56.76 260.55,56.7 260.91,56.69C261.17,56.68 261.37,56.69 261.57,56.69C261.73,56.69 261.82,56.68 262.01,56.68C262.37,56.68 262.98,56.71 263.54,56.72C264.21,56.73 264.97,56.75 265.74,56.74C266.58,56.73 267.61,56.66 268.37,56.64C268.95,56.63 269.42,56.61 269.91,56.62C270.36,56.63 270.97,56.65 271.22,56.67C271.32,56.68 271.37,56.69 271.44,56.69C271.51,56.69 271.57,56.68 271.66,56.68C271.78,56.68 271.94,56.68 272.1,56.67C272.3,56.65 272.54,56.61 272.76,56.58C272.98,56.55 273.16,56.51 273.42,56.49C273.78,56.46 274.29,56.46 274.73,56.43C275.17,56.4 275.73,56.35 276.05,56.33C276.24,56.32 276.49,56.31 276.49,56.31C276.49,56.31 276.49,56.31 276.49,56.31C276.49,56.31 278.04,56.36 278.68,56.35Q279.18,56.34 280,56.29" style="vector-effect: none; fill: none; stroke: rgb(97, 162, 41); stroke-opacity: 1; stroke-width: 5px; opacity: 1;"/></g><g class="points"/><g class="text"/></g></g></g><g class="overplot"/><path class="xlines-above crisp" d="M0,0" style="fill: none;"/><path class="ylines-above crisp" d="M0,0" style="fill: none;"/><g class="overlines-above"/><g class="xaxislayer-above"/><g class="yaxislayer-above"/><g class="overaxes-above"/></g></g><g class="polarlayer"/><g class="smithlayer"/><g class="ternarylayer"/><g class="geolayer"/><g class="funnelarealayer"/><g class="pielayer"/><g class="iciclelayer"/><g class="treemaplayer"/><g class="sunburstlayer"/><g class="glimages"/><defs id="topdefs-3cc240"><g class="clips"/></defs><g class="layer-above"><g class="imagelayer"/><g class="shapelayer"/></g><g class="infolayer"><g class="g-gtitle"><text class="gtitle" x="15" y="25" text-anchor="start" dy="0em" style="font-family: Ubuntu, verdana, arial, sans-serif; font-size: 16px; fill: rgb(233, 84, 32); opacity: 1; font-weight: normal; white-space: pre;">NRSR 2020-2023</text></g><g class="g-xtitle"/><g class="g-ytitle"/></g></svg>