<svg class="main-svg" xmlns="http://www.w3.org/2000/svg" xmlns:xlink="http://www.w3.org/1999/xlink" width="300" height="135" style="" viewBox="0 0 300 135"><rect x="0" y="0" width="300" height="135" style="fill: rgb(255, 255, 255); fill-opacity: 1;"/><defs id="defs-5ba029"><g class="clips"><clipPath id="clip5ba029xyplot" class="plotclip"><rect width="280" height="75"/></clipPath><clipPath class="axesclip" id="clip5ba029x"><rect x="10" y="0" width="280" height="135"/></clipPath><clipPath class="axesclip" id="clip5ba029y"><rect x="0" y="50" width="300" height="75"/></clipPath><clipPath class="axesclip" id="clip5ba029xy"><rect x="10" y="50" width="280" height="75"/></clipPath></g><g class="gradients"/><g class="patterns"/></defs><g class="bglayer"/><g class="layer-below"><g class="imagelayer"/><g class="shapelayer"/></g><g class="cartesianlayer"><g class="subplot xy"><g class="layer-subplot"><g class="shapelayer"/><g class="imagelayer"/></g><g class="gridlayer"><g class="x"><path class="xgrid crisp" transform="translate(85.87,0)" d="M0,50v75" style="stroke: rgb(235, 240, 248); stroke-opacity: 1; stroke-width: 1px;"/><path class="xgrid crisp" transform="translate(176.07,0)" d="M0,50v75" style="stroke: rgb(235, 240, 248); stroke-opacity: 1; stroke-width: 1px;"/><path class="xgrid crisp" transform="translate(266.28,0)" d="M0,50v75" style="stroke: rgb(235, 240, 248); stroke-opacity: 1; stroke-width: 1px;"/></g><g class="y"><path class="ygrid crisp" transform="translate(0,109.62)" d="M10,0h280" style="stroke: rgb(235, 240, 248); stroke-opacity: 1; stroke-width: 1px;"/><path class="ygrid crisp" transform="translate(0,94.25)" d="M10,0h280" style="stroke: rgb(235, 240, 248); stroke-opacity: 1; stroke-width: 1px;"/><path class="ygrid crisp" transform="translate(0,78.87)" d="M10,0h280" style="stroke: rgb(235, 240, 248); stroke-opacity: 1; stroke-width: 1px;"/><path class="ygrid crisp" transform="translate(0,63.5)" d="M10,0h280" style="stroke: rgb(235, 240, 248); stroke-opacity: 1; stroke-width: 1px;"/></g></g><g class="zerolinelayer"><path class="yzl zl crisp" transform="translate(0,125)" d="M10,0h280" style="stroke: rgb(235, 240, 248); stroke-opacity: 1; stroke-width: 2px;"/></g><path class="xlines-below"/><path class="ylines-below"/><g class="overlines-below"/><g class="xaxislayer-below"/><g class="yaxislayer-below"/><g class="overaxes-below"/><g class="plot" transform="translate(10,50)" clip-path="url(#clip5ba029xyplot)"><g class="scatterlayer mlayer"><g class="trace scatter trace3e0af5" style="stroke-miterlimit: 2; opacity: 1;"><g class="fills"/><g class="errorbars"/><g class="lines"><path class="js-line" d="M0,18.76Q2.91,13.42 4.7,12.59C6.05,11.96 7.92,12.66 9.14,12.83C10.02,12.95 10.89,13.32 11.37,13.34C11.59,13.35 11.6,13.26 11.86,13.27C12.87,13.32 17.63,14.41 19.28,15.12C20.19,15.51 20.55,15.8 21.25,16.38C22.24,17.19 23.43,18.55 24.47,19.76C25.57,21.04 26.56,22.13 27.68,23.9C29.38,26.58 31.47,31.95 33.12,34.59C34.18,36.29 34.72,37.29 36.08,38.54C37.89,40.2 41.96,42.28 43.5,43.13C44.17,43.5 44.45,43.58 44.98,43.85C45.59,44.17 46.24,44.61 46.95,44.93C47.72,45.28 48.46,45.53 49.43,45.84C50.74,46.26 53.13,46.92 54.12,47.11C54.57,47.2 54.84,47.23 55.11,47.23C55.3,47.23 55.38,47.18 55.6,47.18C56.04,47.17 57.03,47.31 57.58,47.33C57.97,47.34 58.13,47.27 58.57,47.31C59.45,47.39 61.27,48.07 62.52,48.14C63.64,48.2 65.28,47.86 65.74,47.84C65.87,47.83 65.85,47.85 65.98,47.84C66.5,47.81 69.14,47.39 69.94,47.36C70.28,47.35 70.38,47.36 70.68,47.39C71.14,47.43 72.01,47.57 72.41,47.63C72.62,47.66 72.65,47.68 72.9,47.7C73.71,47.77 76.95,47.87 78.09,47.86C78.65,47.86 78.97,47.81 79.33,47.8C79.61,47.79 79.72,47.8 80.07,47.78C80.9,47.74 83.28,47.55 84.27,47.47C84.81,47.43 85.02,47.43 85.51,47.37C86.24,47.28 87.21,47.08 88.23,46.89C89.53,46.64 91.18,46.39 92.67,45.97C94.23,45.53 96.3,44.59 97.37,44.26C97.91,44.09 98.11,44.04 98.61,43.95C99.34,43.82 100.2,43.88 101.32,43.62C103.24,43.18 108.98,40.97 108.98,40.97C108.98,40.97 108.98,40.97 108.98,40.97C108.98,40.97 114.17,38.79 114.17,38.79C114.17,38.79 114.17,38.79 114.17,38.79C114.17,38.79 114.67,38.93 115.16,38.96C116.48,39.05 120.06,39.2 122.58,38.76C125.33,38.28 128.51,37.13 130.98,36.01C133.12,35.04 135.43,33.19 136.66,32.64C137.2,32.4 137.33,32.43 137.9,32.25C139.21,31.83 142.56,30.79 144.32,30.13C145.59,29.66 146.71,28.9 147.54,28.79C148.04,28.73 148.23,28.85 148.77,28.96C149.87,29.18 152.49,30.15 153.72,30.27C154.44,30.34 154.72,30.18 155.45,30.17C156.72,30.16 158.71,30.47 160.64,30.37C163.11,30.24 167.15,29.54 169.04,29.13C170.03,28.92 170.56,28.62 171.26,28.5C171.87,28.4 172.32,28.41 172.99,28.4C173.9,28.39 175.5,28.5 176.2,28.48C176.54,28.47 176.62,28.42 176.95,28.42C177.57,28.42 178.74,28.51 179.66,28.64C180.63,28.77 181.46,29.07 182.63,29.21C184.26,29.41 187.24,29.41 188.56,29.52C189.22,29.58 189.34,29.62 190.04,29.7C191.73,29.89 196.41,30.59 198.69,30.56C200.19,30.54 201.26,30.19 202.4,30.08C203.38,29.99 204.14,29.97 205.12,29.93C206.26,29.89 207.56,29.92 208.83,29.85C210.19,29.77 211.51,29.65 213.03,29.46C214.84,29.24 217.28,28.72 218.96,28.56C220.19,28.44 220.9,28.51 222.17,28.43C224.04,28.31 227.82,27.97 229.09,27.84C229.57,27.79 229.7,27.76 230.08,27.72C230.58,27.67 231.08,27.64 231.81,27.57C233.08,27.45 235.95,27.07 237,27C237.46,26.97 237.53,27.02 237.99,26.98C239.04,26.9 242.57,26.34 243.18,26.26C243.31,26.24 243.29,26.25 243.42,26.23C243.92,26.17 246.09,25.9 247.13,25.75C247.89,25.64 248.5,25.54 249.11,25.43C249.64,25.34 250.05,25.25 250.59,25.14C251.26,25.01 252.28,24.78 252.82,24.68C253.13,24.62 253.2,24.61 253.56,24.55C254.56,24.39 257.96,23.95 259.24,23.72C259.9,23.6 260.32,23.56 260.72,23.41C261.02,23.3 261.16,23.16 261.47,23.01C261.97,22.77 262.85,22.28 263.44,22.16C263.89,22.07 264.25,22.21 264.68,22.15C265.16,22.08 265.65,21.9 266.16,21.71C266.72,21.5 267.24,21.17 267.89,20.95C268.68,20.68 269.72,20.43 270.61,20.29C271.45,20.16 272.36,20.18 273.08,20.12C273.64,20.07 274.2,20.04 274.56,19.96C274.77,19.91 274.83,19.89 275.06,19.79C275.64,19.55 277.11,18.51 278.02,18.34Q278.73,18.21 280,18.5" style="vector-effect: non-scaling-stroke; fill: none; stroke: rgb(238, 58, 67); stroke-opacity: 1; stroke-width: 5px; opacity: 1;"/></g><g class="points"/><g class="text"/></g><g class="trace scatter traceae93d0" style="stroke-miterlimit: 2; opacity: 1;"><g class="fills"/><g class="errorbars"/><g class="lines"><path class="js-line" d="M33.12,40.13Q34.74,36.28 36.08,34.1C37.9,31.14 41.9,25.9 43.5,24.27C44.13,23.64 44.45,23.54 44.98,23.12C45.59,22.64 46.27,22.13 46.95,21.54C47.74,20.85 48.48,20.12 49.43,19.21C50.75,17.94 53.13,15.53 54.12,14.61C54.56,14.2 54.83,13.97 55.11,13.75C55.3,13.6 55.39,13.57 55.6,13.4C56.05,13.04 57.02,12.09 57.58,11.64C57.96,11.34 58.1,11.1 58.57,10.93C59.42,10.63 61.27,10.81 62.52,10.69C63.65,10.58 65.28,10.37 65.74,10.26C65.87,10.23 65.85,10.22 65.98,10.17C66.5,9.98 69.14,9.08 69.94,8.84C70.28,8.74 70.39,8.75 70.68,8.65C71.14,8.49 72.01,8.04 72.41,7.89C72.62,7.81 72.65,7.8 72.9,7.73C73.71,7.5 76.96,6.79 78.09,6.47C78.65,6.31 78.97,6.14 79.33,6.07C79.6,6.02 79.72,6.07 80.07,6.02C80.9,5.91 83.29,5.47 84.27,5.18C84.82,5.02 85.01,4.81 85.51,4.68C86.23,4.5 87.21,4.5 88.23,4.37C89.53,4.21 91.17,3.73 92.67,3.75C94.22,3.77 96.31,4.37 97.37,4.52C97.91,4.6 98.12,4.63 98.61,4.66C99.34,4.71 100.2,4.57 101.32,4.71C103.23,4.95 108.98,6.48 108.98,6.48C108.98,6.48 108.98,6.48 108.98,6.48C108.98,6.48 114.17,7.79 114.17,7.79C114.17,7.79 114.17,7.79 114.17,7.79C114.17,7.79 114.68,7.95 115.16,8.1C116.48,8.52 120.06,9.52 122.58,10.5C125.32,11.56 128.42,13.36 130.98,14.32C133.03,15.09 135.45,15.79 136.66,16.02C137.22,16.12 137.33,16.1 137.9,16.12C139.21,16.17 142.55,16.28 144.32,16.12C145.58,16 146.72,15.54 147.54,15.52C148.05,15.51 148.22,15.6 148.77,15.7C149.87,15.9 152.49,16.55 153.72,16.75C154.44,16.87 154.72,16.83 155.45,16.96C156.72,17.18 158.72,17.58 160.64,18.14C163.12,18.86 167.13,20.49 169.04,21.11C170.01,21.43 170.57,21.56 171.26,21.78C171.87,21.98 172.32,22.35 172.99,22.38C173.89,22.42 175.5,21.71 176.2,21.54C176.54,21.46 176.63,21.46 176.95,21.37C177.58,21.2 178.73,20.75 179.66,20.49C180.62,20.22 181.48,20.1 182.63,19.79C184.27,19.35 187.24,18.32 188.56,17.98C189.21,17.81 189.34,17.82 190.04,17.66C191.73,17.28 196.41,16.24 198.69,15.66C200.19,15.27 201.25,14.84 202.4,14.61C203.37,14.42 204.14,14.36 205.12,14.3C206.26,14.23 207.56,14.17 208.83,14.27C210.19,14.38 211.52,14.63 213.03,14.99C214.85,15.42 217.27,16.63 218.96,16.78C220.18,16.89 220.9,16.52 222.17,16.4C224.04,16.22 227.82,15.94 229.09,15.87C229.57,15.84 229.71,15.88 230.08,15.84C230.58,15.78 231.07,15.58 231.81,15.5C233.07,15.36 235.95,15.38 237,15.32C237.46,15.29 237.53,15.25 237.99,15.24C239.04,15.22 242.57,15.42 243.18,15.45C243.31,15.46 243.29,15.45 243.42,15.46C243.92,15.48 246.09,15.59 247.13,15.67C247.89,15.73 248.5,15.79 249.11,15.87C249.64,15.94 250.05,16 250.59,16.13C251.26,16.29 252.28,16.64 252.82,16.81C253.13,16.91 253.2,16.92 253.56,17.04C254.57,17.38 257.95,18.69 259.24,19.07C259.89,19.26 260.31,19.32 260.72,19.42C261.01,19.49 261.16,19.56 261.47,19.59C261.97,19.64 262.86,19.49 263.44,19.51C263.9,19.53 264.26,19.54 264.68,19.65C265.16,19.78 265.66,20.03 266.16,20.29C266.72,20.57 267.23,21.02 267.89,21.3C268.68,21.63 269.73,21.77 270.61,22.06C271.46,22.34 272.36,22.76 273.08,23C273.63,23.18 274.2,23.34 274.56,23.43C274.77,23.48 274.83,23.47 275.06,23.53C275.64,23.68 277.12,24.32 278.02,24.47Q278.74,24.59 280,24.51" style="vector-effect: non-scaling-stroke; fill: none; stroke: rgb(138, 44, 81); stroke-opacity: 1; stroke-width: 5px; opacity: 1;"/></g><g class="points"/><g class="text"/></g><g class="trace scatter trace029865" style="stroke-miterlimit: 2; opacity: 1;"><g class="fills"/><g class="errorbars"/><g class="lines"><path class="js-line" d="M0,53.6Q3.15,54.46 4.7,54.5C6.2,54.54 7.91,53.98 9.14,53.9C10.01,53.85 10.9,53.93 11.37,53.92C11.59,53.91 11.6,53.89 11.86,53.89C12.87,53.91 17.6,54.48 19.28,54.61C20.15,54.68 20.51,54.66 21.25,54.72C22.19,54.79 23.4,54.9 24.47,55.05C25.54,55.2 26.47,55.4 27.68,55.6C29.26,55.87 31.58,56.39 33.12,56.5C34.25,56.58 34.87,56.38 36.08,56.45C38,56.56 41.97,57.35 43.5,57.45C44.18,57.49 44.45,57.44 44.98,57.44C45.59,57.44 46.26,57.51 46.95,57.48C47.73,57.45 48.47,57.26 49.43,57.21C50.74,57.15 53.14,57.22 54.12,57.26C54.57,57.28 54.84,57.31 55.11,57.32C55.3,57.33 55.38,57.32 55.6,57.32C56.04,57.31 57.03,57.28 57.58,57.25C57.97,57.23 58.13,57.21 58.57,57.16C59.45,57.06 61.27,56.71 62.52,56.65C63.65,56.6 65.28,56.76 65.74,56.77C65.87,56.77 65.85,56.77 65.98,56.77C66.5,56.76 69.14,56.72 69.94,56.69C70.28,56.67 70.38,56.66 70.68,56.64C71.14,56.61 72.01,56.55 72.41,56.54C72.62,56.53 72.65,56.54 72.9,56.54C73.71,56.54 76.95,56.49 78.09,56.53C78.65,56.55 78.97,56.61 79.33,56.61C79.61,56.61 79.73,56.63 80.07,56.58C80.9,56.46 83.29,55.8 84.27,55.53C84.81,55.38 85.01,55.29 85.51,55.17C86.24,54.99 87.22,54.84 88.23,54.61C89.53,54.32 91.16,53.77 92.67,53.53C94.2,53.28 96.31,53.21 97.37,53.15C97.92,53.12 98.12,53.17 98.61,53.11C99.34,53.03 100.18,52.7 101.32,52.57C103.22,52.36 108.98,52.38 108.98,52.38C108.98,52.38 108.98,52.38 108.98,52.38C108.98,52.38 114.17,52.17 114.17,52.17C114.17,52.17 114.17,52.17 114.17,52.17C114.17,52.17 114.67,52.04 115.16,51.95C116.48,51.7 120.02,51.07 122.58,50.76C125.29,50.43 128.46,50 130.98,50.05C133.06,50.09 135.45,50.75 136.66,50.77C137.22,50.78 137.33,50.65 137.9,50.65C139.21,50.64 142.55,50.89 144.32,51.16C145.59,51.35 146.72,51.85 147.54,51.9C148.04,51.93 148.23,51.87 148.77,51.78C149.87,51.59 152.49,50.74 153.72,50.53C154.44,50.4 154.72,50.47 155.45,50.36C156.72,50.17 158.7,49.67 160.64,49.33C163.1,48.9 167.14,48.36 169.04,48.09C170.02,47.95 170.57,47.9 171.26,47.78C171.87,47.67 172.32,47.47 172.99,47.42C173.89,47.36 175.5,47.61 176.2,47.64C176.54,47.66 176.62,47.63 176.95,47.66C177.57,47.71 178.73,47.96 179.66,48.04C180.63,48.13 181.47,48.08 182.63,48.16C184.27,48.27 187.25,48.75 188.56,48.69C189.22,48.66 189.34,48.57 190.04,48.43C191.73,48.09 196.4,46.83 198.69,46.46C200.18,46.22 201.26,46.24 202.4,46.1C203.38,45.98 204.14,45.79 205.12,45.68C206.26,45.55 207.56,45.58 208.83,45.4C210.19,45.21 211.51,44.87 213.03,44.52C214.84,44.11 217.27,43.25 218.96,43.05C220.18,42.9 220.9,43.12 222.17,43.07C224.04,42.99 227.83,42.6 229.09,42.45C229.57,42.39 229.7,42.33 230.08,42.3C230.58,42.26 231.08,42.37 231.81,42.31C233.08,42.21 235.95,41.6 237,41.46C237.46,41.4 237.53,41.41 237.99,41.36C239.04,41.26 242.57,40.95 243.18,40.86C243.31,40.84 243.29,40.83 243.42,40.81C243.92,40.72 246.09,40.47 247.13,40.26C247.9,40.11 248.5,39.96 249.11,39.77C249.64,39.61 250.05,39.42 250.59,39.22C251.26,38.98 252.27,38.61 252.82,38.45C253.13,38.36 253.19,38.31 253.56,38.28C254.56,38.18 257.96,38.35 259.24,38.48C259.9,38.55 260.31,38.65 260.72,38.74C261.01,38.8 261.16,38.89 261.47,38.93C261.97,39 262.86,39.03 263.44,38.97C263.9,38.92 264.25,38.81 264.68,38.69C265.15,38.56 265.64,38.34 266.16,38.22C266.71,38.1 267.25,38.1 267.89,37.98C268.7,37.83 269.73,37.56 270.61,37.34C271.45,37.13 272.36,36.77 273.08,36.7C273.63,36.65 274.2,36.81 274.56,36.81C274.77,36.81 274.82,36.79 275.06,36.76C275.64,36.68 277.13,36.4 278.02,36.22Q278.75,36.07 280,35.79" style="vector-effect: non-scaling-stroke; fill: none; stroke: rgb(0, 180, 219); stroke-opacity: 1; stroke-width: 5px; opacity: 1;"/></g><g class="points"/><g class="text"/></g><g class="trace scatter trace7ca227" style="stroke-miterlimit: 2; opacity: 1;"><g class="fills"/><g class="errorbars"/><g class="lines"><path class="js-line" d="M92.67,70.07Q96.27,66.76 97.37,66.07C97.89,65.75 98.11,65.68 98.61,65.52C99.33,65.3 100.19,65.25 101.32,65.01C103.23,64.6 108.98,63.14 108.98,63.14C108.98,63.14 108.98,63.14 108.98,63.14C108.98,63.14 114.17,62.36 114.17,62.36C114.17,62.36 114.17,62.36 114.17,62.36C114.17,62.36 114.67,62.51 115.16,62.53C116.48,62.6 120.05,62.41 122.58,62C125.31,61.56 128.46,60.57 130.98,59.88C133.06,59.31 135.45,58.32 136.66,58.18C137.22,58.12 137.33,58.24 137.9,58.26C139.21,58.31 142.55,58.39 144.32,58.33C145.58,58.29 146.72,58.18 147.54,58.09C148.05,58.03 148.22,58 148.77,57.91C149.87,57.74 152.5,57.3 153.72,57.06C154.45,56.92 154.71,56.78 155.45,56.68C156.71,56.5 158.7,56.51 160.64,56.35C163.11,56.14 167.14,55.66 169.04,55.47C170.02,55.37 170.57,55.25 171.26,55.27C171.87,55.29 172.32,55.47 172.99,55.53C173.89,55.61 175.5,55.56 176.2,55.61C176.54,55.63 176.62,55.69 176.95,55.7C177.57,55.72 178.74,55.54 179.66,55.54C180.63,55.54 181.47,55.71 182.63,55.71C184.27,55.71 187.24,55.38 188.56,55.38C189.22,55.38 189.34,55.43 190.04,55.46C191.73,55.53 196.41,55.69 198.69,55.74C200.18,55.77 201.26,55.71 202.4,55.79C203.38,55.86 204.14,56.12 205.12,56.15C206.26,56.18 207.55,55.88 208.83,55.87C210.19,55.86 211.51,56.17 213.03,56.12C214.84,56.06 217.28,55.42 218.96,55.4C220.19,55.39 220.9,55.73 222.17,55.72C224.04,55.71 227.83,55.22 229.09,54.97C229.58,54.87 229.7,54.78 230.08,54.68C230.57,54.55 231.07,54.4 231.81,54.31C233.07,54.15 235.95,54.18 237,54.13C237.46,54.11 237.53,54.1 237.99,54.07C239.04,54.01 242.57,53.79 243.18,53.77C243.31,53.77 243.29,53.78 243.42,53.77C243.92,53.75 246.09,53.59 247.13,53.44C247.9,53.33 248.5,53.12 249.11,53.03C249.64,52.95 250.05,52.95 250.59,52.88C251.26,52.79 252.28,52.61 252.82,52.5C253.13,52.44 253.19,52.36 253.56,52.33C254.56,52.24 257.96,52.57 259.24,52.63C259.89,52.66 260.31,52.66 260.72,52.7C261.01,52.73 261.16,52.8 261.47,52.8C261.97,52.79 262.86,52.58 263.44,52.48C263.9,52.4 264.25,52.3 264.68,52.25C265.15,52.19 265.65,52.21 266.16,52.15C266.72,52.08 267.26,52.02 267.89,51.85C268.7,51.63 269.71,51.08 270.61,50.86C271.44,50.65 272.37,50.67 273.08,50.52C273.64,50.4 274.2,50.19 274.56,50.09C274.77,50.03 274.82,50.01 275.06,49.97C275.63,49.88 277.14,49.71 278.02,49.78Q278.75,49.84 280,50.25" style="vector-effect: non-scaling-stroke; fill: none; stroke: rgb(153, 51, 0); stroke-opacity: 1; stroke-width: 5px; opacity: 1;"/></g><g class="points"/><g class="text"/></g><g class="trace scatter trace538d89" style="stroke-miterlimit: 2; opacity: 1;"><g class="fills"/><g class="errorbars"/><g class="lines"><path class="js-line" d="M0,49.66Q2.96,44.95 4.7,44.29C6.07,43.77 7.92,44.94 9.14,44.86C10.02,44.8 10.89,44.4 11.37,44.28C11.59,44.23 11.6,44.19 11.86,44.17C12.87,44.09 17.61,44.29 19.28,44.59C20.16,44.75 20.5,45.06 21.25,45.2C22.18,45.37 23.4,45.42 24.47,45.41C25.54,45.4 26.52,44.87 27.68,45.15C29.31,45.54 31.53,47.93 33.12,48.46C34.21,48.83 34.87,48.68 36.08,48.76C37.99,48.89 41.98,48.76 43.5,48.98C44.19,49.08 44.46,49.21 44.98,49.38C45.59,49.57 46.25,49.9 46.95,50.09C47.72,50.29 48.48,50.32 49.43,50.52C50.75,50.8 53.14,51.4 54.12,51.68C54.58,51.81 54.84,51.91 55.11,52.01C55.3,52.08 55.38,52.12 55.6,52.21C56.04,52.39 57.03,52.77 57.58,52.99C57.97,53.15 58.13,53.22 58.57,53.4C59.45,53.77 61.26,54.59 62.52,55.06C63.64,55.47 65.28,55.95 65.74,56.1C65.87,56.14 65.85,56.15 65.98,56.18C66.5,56.32 69.14,56.87 69.94,56.99C70.28,57.04 70.38,57.04 70.68,57.06C71.14,57.09 72.01,57.11 72.41,57.13C72.62,57.14 72.65,57.14 72.9,57.15C73.71,57.2 76.95,57.46 78.09,57.54C78.65,57.58 78.97,57.61 79.33,57.62C79.61,57.63 79.72,57.61 80.07,57.61C80.9,57.6 83.28,57.6 84.27,57.55C84.81,57.52 85.02,57.52 85.51,57.45C86.24,57.35 87.23,57.2 88.23,56.92C89.54,56.56 91.19,55.94 92.67,55.3C94.23,54.63 96.29,53.26 97.37,52.97C97.9,52.83 98.12,52.92 98.61,52.9C99.34,52.87 100.19,52.85 101.32,52.84C103.22,52.83 108.98,52.93 108.98,52.93C108.98,52.93 108.98,52.93 108.98,52.93C108.98,52.93 114.17,53.2 114.17,53.2C114.17,53.2 114.17,53.2 114.17,53.2C114.17,53.2 114.68,53.11 115.16,53.07C116.48,52.95 120.03,52.65 122.58,52.72C125.3,52.8 128.45,53.47 130.98,53.59C133.05,53.69 135.45,53.6 136.66,53.56C137.22,53.54 137.33,53.53 137.9,53.48C139.21,53.36 142.54,52.89 144.32,52.74C145.57,52.63 146.73,52.44 147.54,52.55C148.06,52.62 148.22,52.83 148.77,52.98C149.86,53.28 152.49,53.74 153.72,53.99C154.44,54.14 154.72,54.23 155.45,54.34C156.71,54.52 158.7,54.65 160.64,54.81C163.1,55.02 167.14,55.33 169.04,55.47C170.02,55.54 170.57,55.59 171.26,55.63C171.87,55.66 172.33,55.7 172.99,55.69C173.9,55.68 175.5,55.5 176.2,55.49C176.54,55.48 176.62,55.51 176.95,55.51C177.57,55.51 178.74,55.47 179.66,55.43C180.63,55.39 181.47,55.38 182.63,55.29C184.27,55.16 187.24,54.67 188.56,54.65C189.22,54.64 189.34,54.7 190.04,54.76C191.73,54.92 196.41,55.54 198.69,55.73C200.18,55.85 201.26,55.95 202.4,55.93C203.38,55.92 204.15,55.85 205.12,55.71C206.27,55.54 207.55,55.04 208.83,54.92C210.18,54.8 211.51,55.08 213.03,55.03C214.84,54.97 217.29,54.67 218.96,54.47C220.19,54.32 220.9,54.21 222.17,54.01C224.04,53.72 227.82,52.98 229.09,52.84C229.57,52.79 229.7,52.8 230.08,52.79C230.58,52.78 231.08,52.8 231.81,52.79C233.08,52.76 235.95,52.59 237,52.58C237.46,52.58 237.53,52.59 237.99,52.61C239.04,52.66 242.57,52.92 243.18,52.93C243.31,52.93 243.29,52.93 243.42,52.92C243.92,52.89 246.09,52.76 247.13,52.68C247.89,52.62 248.5,52.55 249.11,52.5C249.64,52.45 250.05,52.41 250.59,52.37C251.26,52.33 252.28,52.27 252.82,52.27C253.13,52.27 253.2,52.32 253.56,52.31C254.57,52.28 257.96,51.83 259.24,51.63C259.9,51.53 260.31,51.42 260.72,51.35C261.01,51.3 261.16,51.23 261.47,51.24C261.97,51.25 262.86,51.56 263.44,51.65C263.9,51.72 264.25,51.72 264.68,51.76C265.15,51.8 265.65,51.87 266.16,51.91C266.71,51.96 267.25,51.98 267.89,52.02C268.69,52.07 269.73,52.13 270.61,52.18C271.45,52.23 272.36,52.29 273.08,52.3C273.64,52.31 274.2,52.25 274.56,52.27C274.77,52.28 274.82,52.29 275.06,52.33C275.64,52.42 277.13,52.84 278.02,52.94Q278.74,53.02 280,52.97" style="vector-effect: non-scaling-stroke; fill: none; stroke: rgb(1, 27, 58); stroke-opacity: 1; stroke-width: 5px; opacity: 1;"/></g><g class="points"/><g class="text"/></g></g></g><g class="overplot"/><path class="xlines-above crisp" d="M0,0" style="fill: none;"/><path class="ylines-above crisp" d="M0,0" style="fill: none;"/><g class="overlines-above"/><g class="xaxislayer-above"/><g class="yaxislayer-above"/><g class="overaxes-above"/></g></g><g class="polarlayer"/><g class="smithlayer"/><g class="ternarylayer"/><g class="geolayer"/><g class="funnelarealayer"/><g class="pielayer"/><g class="iciclelayer"/><g class="treemaplayer"/><g class="sunburstlayer"/><g class="glimages"/><defs id="topdefs-5ba029"><g class="clips"/></defs><g class="layer-above"><g class="imagelayer"/><g class="shapelayer"/></g><g class="infolayer"><g class="g-gtitle"><text class="gtitle" x="15" y="25" text-anchor="start" dy="0em" style="font-family: Ubuntu, verdana, arial, sans-serif; font-size: 16px; fill: rgb(233, 84, 32); opacity: 1; font-weight: normal; white-space: pre;">NRSR 2020-2023</text></g><g class="g-xtitle"/><g class="g-ytitle"/></g></svg>