<svg class="main-svg" xmlns="http://www.w3.org/2000/svg" xmlns:xlink="http://www.w3.org/1999/xlink" width="1200" height="600" style="" viewBox="0 0 1200 600"><rect x="0" y="0" width="1200" height="600" style="fill: rgb(255, 255, 255); fill-opacity: 1;"/><defs id="defs-a1090d"><g class="clips"><clipPath id="clipa1090dxyplot" class="plotclip"><rect width="988" height="530"/></clipPath><clipPath class="axesclip" id="clipa1090dx"><rect x="50" y="0" width="988" height="600"/></clipPath><clipPath class="axesclip" id="clipa1090dy"><rect x="0" y="20" width="1200" height="530"/></clipPath><clipPath class="axesclip" id="clipa1090dxy"><rect x="50" y="20" width="988" height="530"/></clipPath></g><g class="gradients"/><g class="patterns"/></defs><g class="bglayer"/><g class="layer-below"><g class="imagelayer"/><g class="shapelayer"/></g><g class="cartesianlayer"><g class="subplot xy"><g class="layer-subplot"><g class="shapelayer"/><g class="imagelayer"/></g><g class="minor-gridlayer"><g class="x"/><g class="y"/></g><g class="gridlayer"><g class="x"><path class="xgrid crisp" transform="translate(148.05,0)" d="M0,20v530" style="stroke: rgb(235, 240, 248); stroke-opacity: 1; stroke-width: 1px;"/><path class="xgrid crisp" transform="translate(253.63,0)" d="M0,20v530" style="stroke: rgb(235, 240, 248); stroke-opacity: 1; stroke-width: 1px;"/><path class="xgrid crisp" transform="translate(359.22,0)" d="M0,20v530" style="stroke: rgb(235, 240, 248); stroke-opacity: 1; stroke-width: 1px;"/><path class="xgrid crisp" transform="translate(464.81,0)" d="M0,20v530" style="stroke: rgb(235, 240, 248); stroke-opacity: 1; stroke-width: 1px;"/><path class="xgrid crisp" transform="translate(570.4,0)" d="M0,20v530" style="stroke: rgb(235, 240, 248); stroke-opacity: 1; stroke-width: 1px;"/><path class="xgrid crisp" transform="translate(675.98,0)" d="M0,20v530" style="stroke: rgb(235, 240, 248); stroke-opacity: 1; stroke-width: 1px;"/><path class="xgrid crisp" transform="translate(781.57,0)" d="M0,20v530" style="stroke: rgb(235, 240, 248); stroke-opacity: 1; stroke-width: 1px;"/><path class="xgrid crisp" transform="translate(887.16,0)" d="M0,20v530" style="stroke: rgb(235, 240, 248); stroke-opacity: 1; stroke-width: 1px;"/><path class="xgrid crisp" transform="translate(992.75,0)" d="M0,20v530" style="stroke: rgb(235, 240, 248); stroke-opacity: 1; stroke-width: 1px;"/></g><g class="y"><path class="ygrid crisp" transform="translate(0,490.48)" d="M50,0h988" style="stroke: rgb(235, 240, 248); stroke-opacity: 1; stroke-width: 1px;"/><path class="ygrid crisp" transform="translate(0,430.97)" d="M50,0h988" style="stroke: rgb(235, 240, 248); stroke-opacity: 1; stroke-width: 1px;"/><path class="ygrid crisp" transform="translate(0,371.45)" d="M50,0h988" style="stroke: rgb(235, 240, 248); stroke-opacity: 1; stroke-width: 1px;"/><path class="ygrid crisp" transform="translate(0,311.94)" d="M50,0h988" style="stroke: rgb(235, 240, 248); stroke-opacity: 1; stroke-width: 1px;"/><path class="ygrid crisp" transform="translate(0,252.42)" d="M50,0h988" style="stroke: rgb(235, 240, 248); stroke-opacity: 1; stroke-width: 1px;"/><path class="ygrid crisp" transform="translate(0,192.91)" d="M50,0h988" style="stroke: rgb(235, 240, 248); stroke-opacity: 1; stroke-width: 1px;"/><path class="ygrid crisp" transform="translate(0,133.39)" d="M50,0h988" style="stroke: rgb(235, 240, 248); stroke-opacity: 1; stroke-width: 1px;"/><path class="ygrid crisp" transform="translate(0,73.88)" d="M50,0h988" style="stroke: rgb(235, 240, 248); stroke-opacity: 1; stroke-width: 1px;"/></g></g><g class="zerolinelayer"><path class="yzl zl crisp" transform="translate(0,550)" d="M50,0h988" style="stroke: rgb(235, 240, 248); stroke-opacity: 1; stroke-width: 2px;"/></g><path class="xlines-below"/><path class="ylines-below"/><g class="overlines-below"/><g class="xaxislayer-below"/><g class="yaxislayer-below"/><g class="overaxes-below"/><g class="plot" transform="translate(50,20)" clip-path="url(#clipa1090dxyplot)"><g class="scatterlayer mlayer"><g class="trace scatter trace8e9418" style="stroke-miterlimit: 2; opacity: 1;"><g class="fills"/><g class="errorbars"/><g class="lines"><path class="js-line" d="M0,80.45L7.54,90.68L15.08,85.12L22.63,81.05L30.17,83.5L37.71,83.5L45.25,89.23L52.79,83.5L60.34,83.5L75.42,83.5L82.96,85.15L90.5,99.53L98.05,103.14L105.59,104.65L113.13,110.15L128.21,114.8L135.76,113.06L143.3,114.8L150.84,114.8L181.01,114.8L188.55,112.83L196.09,112.83L203.63,108.69L211.18,130.55L218.72,128.27L226.26,140.53L233.8,140.53L271.51,140.53L279.05,136.66L294.14,160.1L301.68,160.92L316.76,162.47L324.31,162.84L331.85,162.84L339.39,164.3L362.02,164.3L369.56,165.74L384.64,166.82L392.18,166.1L399.73,149.39L407.27,140.72L414.81,140.72L422.35,136.78L452.52,136.78L460.06,132.44L475.15,138.39L482.69,138.39L490.23,138.39L497.77,134.82L527.94,134.82L535.48,127.68L550.56,127.68L558.11,112.2L573.19,112.2L580.73,78.87L603.36,41.97L610.9,26.5L686.32,27" style="vector-effect: none; fill: none; stroke: rgb(238, 58, 67); stroke-opacity: 1; stroke-width: 5px; opacity: 1;"/></g><g class="points"/><g class="text"/></g><g class="trace scatter trace2ad725" style="stroke-miterlimit: 2; opacity: 1;"><g class="fills"/><g class="errorbars"/><g class="lines"><path class="js-line" d="M0,283.44L7.54,273.64L15.08,252.08L22.63,237.59L30.17,190.7L37.71,190.7L45.25,202.69L52.79,190.7L60.34,190.7L75.42,190.7L82.96,187.55L90.5,146.28L98.05,127.66L105.59,136.53L113.13,126.9L128.21,122.7L135.76,128.75L143.3,122.7L150.84,122.7L181.01,122.7L188.55,120.76L196.09,120.76L203.63,124.55L211.18,113.34L218.72,108.81L226.26,92.13L233.8,92.13L271.51,92.13L279.05,87.49L286.6,95.46L294.14,110.31L324.31,122.57L331.85,122.57L339.39,127.73L346.93,127.73L362.02,127.73L369.56,130.49L377.1,134.01L384.64,134.01L392.18,140.27L399.73,138.75L407.27,140.72L414.81,140.72L444.98,140.34L452.52,140.34L460.06,138.39L467.6,138.39L475.15,138.39L482.69,141.96L497.77,147.91L505.31,147.91L573.19,147.91L580.73,161L603.36,161L610.9,166.96L625.98,166.96L633.53,134.82L641.07,134.82L648.61,141.96L663.69,134.82L671.24,116.96L686.32,112.62" style="vector-effect: none; fill: none; stroke: rgb(0, 180, 219); stroke-opacity: 1; stroke-width: 5px; opacity: 1;"/></g><g class="points"/><g class="text"/></g><g class="trace scatter trace775bac" style="stroke-miterlimit: 2; opacity: 1;"><g class="fills"/><g class="errorbars"/><g class="lines"><path class="js-line" d="M0,35.81L7.54,35.37L15.08,62.49L22.63,81.05L30.17,125.49L37.71,125.49L45.25,107.77L52.79,125.49L60.34,125.49L75.42,125.49L82.96,126.99L90.5,153.88L98.05,168.9L105.59,158.51L113.13,162.63L128.21,162.19L135.76,157.89L143.3,162.19L150.84,162.19L181.01,162.19L188.55,166.11L203.63,166.45L211.18,155.81L218.72,162.61L226.26,167.03L271.51,167.03L279.05,175.54L286.6,155.04L294.14,129.28L316.76,117.42L324.31,114.28L331.85,114.28L339.39,107.67L362.02,107.67L369.56,103.46L377.1,98.87L384.64,98.87L392.18,93.32L399.73,111.56L407.27,118.24L414.81,118.24L422.35,122.57L429.89,122.57L452.52,122.57L460.06,132.44L467.6,152.67L475.15,161L573.19,161L580.73,178.86L595.82,209.81L603.36,219.33L610.9,234.8L618.44,234.8L625.98,234.8L633.53,253.85L648.61,253.85L663.69,256.23L671.24,259.8L686.32,260.07" style="vector-effect: none; fill: none; stroke: rgb(138, 44, 81); stroke-opacity: 1; stroke-width: 5px; opacity: 1;"/></g><g class="points"/><g class="text"/></g></g></g><g class="overplot"/><path class="xlines-above crisp" d="M0,0" style="fill: none;"/><path class="ylines-above crisp" d="M0,0" style="fill: none;"/><g class="overlines-above"/><g class="xaxislayer-above"><g class="xtick"><text text-anchor="middle" x="0" y="563" transform="translate(148.05,0)" style="font-family: 'Open Sans', verdana, arial, sans-serif; font-size: 12px; fill: rgb(42, 63, 95); fill-opacity: 1; white-space: pre; opacity: 1;">4.6.23</text></g><g class="xtick"><text text-anchor="middle" x="0" y="563" style="font-family: 'Open Sans', verdana, arial, sans-serif; font-size: 12px; fill: rgb(42, 63, 95); fill-opacity: 1; white-space: pre; opacity: 1;" transform="translate(253.63,0)">18.6.23</text></g><g class="xtick"><text text-anchor="middle" x="0" y="563" style="font-family: 'Open Sans', verdana, arial, sans-serif; font-size: 12px; fill: rgb(42, 63, 95); fill-opacity: 1; white-space: pre; opacity: 1;" transform="translate(359.22,0)">2.7.23</text></g><g class="xtick"><text text-anchor="middle" x="0" y="563" style="font-family: 'Open Sans', verdana, arial, sans-serif; font-size: 12px; fill: rgb(42, 63, 95); fill-opacity: 1; white-space: pre; opacity: 1;" transform="translate(464.81,0)">16.7.23</text></g><g class="xtick"><text text-anchor="middle" x="0" y="563" style="font-family: 'Open Sans', verdana, arial, sans-serif; font-size: 12px; fill: rgb(42, 63, 95); fill-opacity: 1; white-space: pre; opacity: 1;" transform="translate(570.4,0)">30.7.23</text></g><g class="xtick"><text text-anchor="middle" x="0" y="563" style="font-family: 'Open Sans', verdana, arial, sans-serif; font-size: 12px; fill: rgb(42, 63, 95); fill-opacity: 1; white-space: pre; opacity: 1;" transform="translate(675.98,0)">13.8.23</text></g><g class="xtick"><text text-anchor="middle" x="0" y="563" style="font-family: 'Open Sans', verdana, arial, sans-serif; font-size: 12px; fill: rgb(42, 63, 95); fill-opacity: 1; white-space: pre; opacity: 1;" transform="translate(781.57,0)">27.8.23</text></g><g class="xtick"><text text-anchor="middle" x="0" y="563" style="font-family: 'Open Sans', verdana, arial, sans-serif; font-size: 12px; fill: rgb(42, 63, 95); fill-opacity: 1; white-space: pre; opacity: 1;" transform="translate(887.16,0)">10.9.23</text></g><g class="xtick"><text text-anchor="middle" x="0" y="563" style="font-family: 'Open Sans', verdana, arial, sans-serif; font-size: 12px; fill: rgb(42, 63, 95); fill-opacity: 1; white-space: pre; opacity: 1;" transform="translate(992.75,0)">24.9.23</text></g></g><g class="yaxislayer-above"><g class="ytick"><text text-anchor="end" x="49" y="4.199999999999999" transform="translate(0,550)" style="font-family: 'Open Sans', verdana, arial, sans-serif; font-size: 12px; fill: rgb(42, 63, 95); fill-opacity: 1; white-space: pre; opacity: 1;">0%</text></g><g class="ytick"><text text-anchor="end" x="49" y="4.199999999999999" style="font-family: 'Open Sans', verdana, arial, sans-serif; font-size: 12px; fill: rgb(42, 63, 95); fill-opacity: 1; white-space: pre; opacity: 1;" transform="translate(0,490.48)">5%</text></g><g class="ytick"><text text-anchor="end" x="49" y="4.199999999999999" style="font-family: 'Open Sans', verdana, arial, sans-serif; font-size: 12px; fill: rgb(42, 63, 95); fill-opacity: 1; white-space: pre; opacity: 1;" transform="translate(0,430.97)">10%</text></g><g class="ytick"><text text-anchor="end" x="49" y="4.199999999999999" style="font-family: 'Open Sans', verdana, arial, sans-serif; font-size: 12px; fill: rgb(42, 63, 95); fill-opacity: 1; white-space: pre; opacity: 1;" transform="translate(0,371.45)">15%</text></g><g class="ytick"><text text-anchor="end" x="49" y="4.199999999999999" style="font-family: 'Open Sans', verdana, arial, sans-serif; font-size: 12px; fill: rgb(42, 63, 95); fill-opacity: 1; white-space: pre; opacity: 1;" transform="translate(0,311.94)">20%</text></g><g class="ytick"><text text-anchor="end" x="49" y="4.199999999999999" style="font-family: 'Open Sans', verdana, arial, sans-serif; font-size: 12px; fill: rgb(42, 63, 95); fill-opacity: 1; white-space: pre; opacity: 1;" transform="translate(0,252.42)">25%</text></g><g class="ytick"><text text-anchor="end" x="49" y="4.199999999999999" style="font-family: 'Open Sans', verdana, arial, sans-serif; font-size: 12px; fill: rgb(42, 63, 95); fill-opacity: 1; white-space: pre; opacity: 1;" transform="translate(0,192.91)">30%</text></g><g class="ytick"><text text-anchor="end" x="49" y="4.199999999999999" style="font-family: 'Open Sans', verdana, arial, sans-serif; font-size: 12px; fill: rgb(42, 63, 95); fill-opacity: 1; white-space: pre; opacity: 1;" transform="translate(0,133.39)">35%</text></g><g class="ytick"><text text-anchor="end" x="49" y="4.199999999999999" style="font-family: 'Open Sans', verdana, arial, sans-serif; font-size: 12px; fill: rgb(42, 63, 95); fill-opacity: 1; white-space: pre; opacity: 1;" transform="translate(0,73.88)">40%</text></g></g><g class="overaxes-above"/></g></g><g class="polarlayer"/><g class="smithlayer"/><g class="ternarylayer"/><g class="geolayer"/><g class="funnelarealayer"/><g class="pielayer"/><g class="iciclelayer"/><g class="treemaplayer"/><g class="sunburstlayer"/><g class="glimages"/><defs id="topdefs-a1090d"><g class="clips"/><clipPath id="legenda1090d"><rect width="130" height="67" x="0" y="0"/></clipPath></defs><g class="layer-above"><g class="imagelayer"/><g class="shapelayer"/></g><g class="infolayer"><g class="legend" pointer-events="all" transform="translate(1057.76,20)"><rect class="bg" shape-rendering="crispEdges" style="stroke: rgb(68, 68, 68); stroke-opacity: 1; fill: rgb(255, 255, 255); fill-opacity: 1; stroke-width: 0px;" width="130" height="67" x="0" y="0"/><g class="scrollbox" transform="" clip-path="url(#legenda1090d)"><g class="groups"><g class="traces" transform="translate(0,14.5)" style="opacity: 1;"><text class="legendtext" text-anchor="start" x="40" y="4.680000000000001" style="font-family: 'Open Sans', verdana, arial, sans-serif; font-size: 12px; fill: rgb(42, 63, 95); fill-opacity: 1; white-space: pre;">Fico Robert</text><g class="layers" style="opacity: 1;"><g class="legendfill"/><g class="legendlines"><path class="js-line" d="M5,0h30" style="fill: none; stroke: rgb(238, 58, 67); stroke-opacity: 1; stroke-width: 5px;"/></g><g class="legendsymbols"><g class="legendpoints"/></g></g><rect class="legendtoggle" x="0" y="-9.5" width="124.03125" height="19" style="fill: rgb(0, 0, 0); fill-opacity: 0;"/></g><g class="traces" transform="translate(0,33.5)" style="opacity: 1;"><text class="legendtext" text-anchor="start" x="40" y="4.680000000000001" style="font-family: 'Open Sans', verdana, arial, sans-serif; font-size: 12px; fill: rgb(42, 63, 95); fill-opacity: 1; white-space: pre;">Šimečka Michal</text><g class="layers" style="opacity: 1;"><g class="legendfill"/><g class="legendlines"><path class="js-line" d="M5,0h30" style="fill: none; stroke: rgb(0, 180, 219); stroke-opacity: 1; stroke-width: 5px;"/></g><g class="legendsymbols"><g class="legendpoints"/></g></g><rect class="legendtoggle" x="0" y="-9.5" width="124.03125" height="19" style="fill: rgb(0, 0, 0); fill-opacity: 0;"/></g><g class="traces" transform="translate(0,52.5)" style="opacity: 1;"><text class="legendtext" text-anchor="start" x="40" y="4.680000000000001" style="font-family: 'Open Sans', verdana, arial, sans-serif; font-size: 12px; fill: rgb(42, 63, 95); fill-opacity: 1; white-space: pre;">Pellegrini Peter</text><g class="layers" style="opacity: 1;"><g class="legendfill"/><g class="legendlines"><path class="js-line" d="M5,0h30" style="fill: none; stroke: rgb(138, 44, 81); stroke-opacity: 1; stroke-width: 5px;"/></g><g class="legendsymbols"><g class="legendpoints"/></g></g><rect class="legendtoggle" x="0" y="-9.5" width="124.03125" height="19" style="fill: rgb(0, 0, 0); fill-opacity: 0;"/></g></g></g><rect class="scrollbar" rx="20" ry="3" width="0" height="0" style="fill: rgb(128, 139, 164); fill-opacity: 1;" x="0" y="0"/></g><g class="g-gtitle"/><g class="g-xtitle"/><g class="g-ytitle"/></g></svg>