<svg class="main-svg" xmlns="http://www.w3.org/2000/svg" xmlns:xlink="http://www.w3.org/1999/xlink" width="300" height="135" style="" viewBox="0 0 300 135"><rect x="0" y="0" width="300" height="135" style="fill: rgb(255, 255, 255); fill-opacity: 1;"/><defs id="defs-d1ab4b"><g class="clips"><clipPath id="clipd1ab4bxyplot" class="plotclip"><rect width="280" height="75"/></clipPath><clipPath class="axesclip" id="clipd1ab4bx"><rect x="10" y="0" width="280" height="135"/></clipPath><clipPath class="axesclip" id="clipd1ab4by"><rect x="0" y="50" width="300" height="75"/></clipPath><clipPath class="axesclip" id="clipd1ab4bxy"><rect x="10" y="50" width="280" height="75"/></clipPath></g><g class="gradients"/><g class="patterns"/></defs><g class="bglayer"/><g class="layer-below"><g class="imagelayer"/><g class="shapelayer"/></g><g class="cartesianlayer"><g class="subplot xy"><g class="layer-subplot"><g class="shapelayer"/><g class="imagelayer"/></g><g class="minor-gridlayer"><g class="x"/><g class="y"/></g><g class="gridlayer"><g class="x"><path class="xgrid crisp" transform="translate(76.33,0)" d="M0,50v75" style="stroke: rgb(235, 240, 248); stroke-opacity: 1; stroke-width: 1px;"/><path class="xgrid crisp" transform="translate(155.19,0)" d="M0,50v75" style="stroke: rgb(235, 240, 248); stroke-opacity: 1; stroke-width: 1px;"/><path class="xgrid crisp" transform="translate(234.04,0)" d="M0,50v75" style="stroke: rgb(235, 240, 248); stroke-opacity: 1; stroke-width: 1px;"/></g><g class="y"><path class="ygrid crisp" transform="translate(0,97.18)" d="M10,0h280" style="stroke: rgb(235, 240, 248); stroke-opacity: 1; stroke-width: 1px;"/><path class="ygrid crisp" transform="translate(0,69.35)" d="M10,0h280" style="stroke: rgb(235, 240, 248); stroke-opacity: 1; stroke-width: 1px;"/></g></g><g class="zerolinelayer"><path class="yzl zl crisp" transform="translate(0,125)" d="M10,0h280" style="stroke: rgb(235, 240, 248); stroke-opacity: 1; stroke-width: 2px;"/></g><path class="xlines-below"/><path class="ylines-below"/><g class="overlines-below"/><g class="xaxislayer-below"/><g class="yaxislayer-below"/><g class="overaxes-below"/><g class="plot" transform="translate(10,50)" clip-path="url(#clipd1ab4bxyplot)"><g class="scatterlayer mlayer"><g class="trace scatter traceaec537" style="stroke-miterlimit: 2; opacity: 1;"><g class="fills"/><g class="errorbars"/><g class="lines"><path class="js-line" d="M0,24.11Q2.53,19.27 4.1,18.53C5.28,17.97 6.92,18.59 7.99,18.75C8.76,18.86 9.52,19.19 9.94,19.21C10.13,19.22 10.14,19.14 10.37,19.15C11.26,19.2 15.41,20.18 16.85,20.82C17.65,21.17 17.97,21.44 18.58,21.96C19.45,22.7 20.48,23.92 21.39,25.02C22.36,26.18 23.22,27.16 24.2,28.76C25.69,31.18 27.51,36.04 28.95,38.43C29.87,39.96 30.34,40.88 31.54,42.01C33.12,43.5 36.67,45.39 38.02,46.16C38.61,46.49 38.86,46.56 39.32,46.81C39.86,47.1 40.43,47.5 41.05,47.79C41.72,48.11 42.37,48.34 43.21,48.62C44.35,49 46.44,49.59 47.31,49.77C47.7,49.85 47.94,49.88 48.18,49.88C48.35,49.88 48.42,49.83 48.61,49.83C48.99,49.82 49.86,49.95 50.34,49.96C50.68,49.97 50.82,49.9 51.2,49.94C51.97,50.01 53.56,50.62 54.66,50.69C55.64,50.75 57.06,50.46 57.47,50.43C57.58,50.42 57.57,50.43 57.69,50.42C58.15,50.38 60.44,50.02 61.14,49.99C61.44,49.98 61.53,50 61.79,50.02C62.19,50.06 62.95,50.19 63.3,50.24C63.49,50.27 63.51,50.28 63.73,50.3C64.44,50.36 67.28,50.45 68.27,50.44C68.75,50.44 69.04,50.4 69.35,50.39C69.59,50.38 69.7,50.39 70,50.37C70.72,50.33 72.81,50.16 73.67,50.09C74.14,50.05 74.32,50.06 74.75,50C75.39,49.92 76.24,49.75 77.13,49.57C78.27,49.34 79.72,49.11 81.02,48.73C82.38,48.33 84.19,47.49 85.12,47.19C85.59,47.04 85.77,46.99 86.2,46.91C86.84,46.79 87.6,46.84 88.58,46.6C90.26,46.19 95.28,44.21 95.28,44.21C95.28,44.21 95.28,44.21 95.28,44.21C95.28,44.21 99.81,42.24 99.81,42.24C99.81,42.24 99.81,42.24 99.81,42.24C99.81,42.24 100.25,42.36 100.68,42.39C101.84,42.47 104.96,42.6 107.16,42.21C109.56,41.78 112.35,40.73 114.51,39.72C116.38,38.84 118.41,37.16 119.48,36.67C119.95,36.45 120.06,36.49 120.56,36.32C121.7,35.94 124.63,34.99 126.17,34.4C127.28,33.97 128.25,33.29 128.98,33.19C129.41,33.13 129.58,33.24 130.06,33.34C131.02,33.54 133.3,34.4 134.38,34.52C135.01,34.59 135.26,34.44 135.9,34.44C137.01,34.43 138.74,34.72 140.43,34.62C142.59,34.5 146.13,33.86 147.78,33.49C148.64,33.3 149.11,33.02 149.72,32.92C150.25,32.83 150.65,32.85 151.23,32.84C152.02,32.83 153.43,32.93 154.04,32.91C154.33,32.9 154.41,32.85 154.69,32.85C155.23,32.85 156.26,32.94 157.07,33.05C157.92,33.17 158.64,33.44 159.66,33.57C161.09,33.75 163.7,33.75 164.85,33.85C165.43,33.9 165.53,33.94 166.14,34.01C167.61,34.18 171.71,34.82 173.7,34.79C175.01,34.77 175.94,34.44 176.94,34.35C177.79,34.27 178.47,34.25 179.32,34.22C180.32,34.18 181.45,34.21 182.56,34.14C183.75,34.07 184.9,33.96 186.23,33.79C187.81,33.59 189.95,33.13 191.42,32.98C192.5,32.87 193.12,32.93 194.23,32.85C195.87,32.74 199.18,32.41 200.28,32.3C200.7,32.26 200.81,32.24 201.14,32.2C201.57,32.15 202.01,32.12 202.65,32.05C203.76,31.93 206.27,31.58 207.19,31.51C207.59,31.48 207.66,31.53 208.06,31.49C208.98,31.41 212.04,30.88 212.59,30.79C212.71,30.77 212.69,30.77 212.81,30.75C213.26,30.68 215.14,30.42 216.05,30.27C216.72,30.16 217.25,30.05 217.78,29.94C218.24,29.84 218.6,29.75 219.07,29.64C219.65,29.5 220.54,29.28 221.02,29.17C221.29,29.11 221.35,29.09 221.67,29.02C222.55,28.83 225.52,28.28 226.64,28.02C227.21,27.89 227.58,27.82 227.93,27.68C228.19,27.57 228.31,27.45 228.58,27.3C229.01,27.07 229.79,26.61 230.31,26.46C230.7,26.35 231.02,26.43 231.39,26.34C231.81,26.24 232.25,26.04 232.69,25.85C233.18,25.64 234.2,25.1 234.2,25.1C234.2,25.1 234.2,25.1 234.2,25.1C234.2,25.1 236.6,24.93 237.44,24.95C237.97,24.96 238.3,25.04 238.73,25.08C239.16,25.12 239.71,25.17 240.03,25.17C240.21,25.17 240.34,25.14 240.46,25.13C240.55,25.12 240.57,25.12 240.68,25.1C241.05,25.02 242.33,24.49 243.06,24.43C243.67,24.38 244.21,24.55 244.78,24.6C245.36,24.65 246.07,24.72 246.51,24.73C246.78,24.74 246.93,24.74 247.16,24.71C247.43,24.68 247.64,24.61 248.02,24.52C248.76,24.34 250.54,23.86 251.27,23.65C251.65,23.54 251.81,23.44 252.13,23.39C252.52,23.33 252.94,23.4 253.43,23.34C254.06,23.27 254.96,23.06 255.59,22.93C256.08,22.83 256.52,22.71 256.88,22.62C257.13,22.55 257.33,22.48 257.53,22.43C257.69,22.39 257.77,22.37 257.96,22.33C258.31,22.25 258.93,22.11 259.48,21.98C260.14,21.82 260.89,21.62 261.64,21.43C262.46,21.22 263.48,20.91 264.23,20.76C264.8,20.65 265.26,20.65 265.74,20.56C266.19,20.48 266.79,20.33 267.04,20.27C267.14,20.25 267.18,20.24 267.25,20.22C267.32,20.2 267.38,20.19 267.47,20.17C267.59,20.14 267.74,20.08 267.9,20.04C268.09,19.99 268.33,19.96 268.55,19.92C268.77,19.88 268.95,19.84 269.2,19.8C269.56,19.74 270.06,19.61 270.49,19.6C270.92,19.59 271.47,19.69 271.79,19.71C271.97,19.72 272.22,19.73 272.22,19.73C272.22,19.73 272.22,19.73 272.22,19.73C272.22,19.73 273.75,19.79 274.38,19.83C274.87,19.86 275.19,19.94 275.68,19.94C276.31,19.93 277.49,19.72 277.84,19.72C277.95,19.72 277.99,19.73 278.06,19.74C278.13,19.75 278.17,19.76 278.27,19.76Q278.57,19.77 280,19.68" style="vector-effect: none; fill: none; stroke: rgb(238, 58, 67); stroke-opacity: 1; stroke-width: 5px; opacity: 1;"/></g><g class="points"/><g class="text"/></g><g class="trace scatter tracef7258f" style="stroke-miterlimit: 2; opacity: 1;"><g class="fills"/><g class="errorbars"/><g class="lines"><path class="js-line" d="M0,55.63Q2.75,56.41 4.1,56.45C5.41,56.49 6.91,55.98 7.99,55.91C8.75,55.86 9.52,55.94 9.94,55.93C10.14,55.92 10.14,55.9 10.37,55.9C11.26,55.91 15.38,56.43 16.85,56.55C17.61,56.61 17.93,56.6 18.58,56.65C19.4,56.72 20.46,56.82 21.39,56.95C22.33,57.08 23.14,57.26 24.2,57.44C25.58,57.68 27.6,58.15 28.95,58.26C29.94,58.34 30.49,58.16 31.54,58.22C33.22,58.32 36.68,59.03 38.02,59.12C38.62,59.16 38.86,59.11 39.32,59.11C39.86,59.11 40.44,59.18 41.05,59.15C41.73,59.12 42.37,58.94 43.21,58.9C44.36,58.84 46.45,58.92 47.31,58.95C47.71,58.96 47.94,58.99 48.18,59C48.35,59 48.42,59 48.61,59C48.99,58.99 49.86,58.97 50.34,58.94C50.68,58.92 50.82,58.9 51.2,58.86C51.97,58.77 53.56,58.45 54.66,58.4C55.64,58.35 57.06,58.48 57.47,58.5C57.58,58.5 57.57,58.51 57.69,58.51C58.15,58.52 60.44,58.46 61.14,58.43C61.44,58.42 61.53,58.41 61.79,58.39C62.19,58.37 62.95,58.31 63.3,58.3C63.49,58.29 63.51,58.3 63.73,58.3C64.44,58.3 67.28,58.26 68.27,58.29C68.75,58.31 69.04,58.36 69.35,58.36C69.59,58.36 69.7,58.38 70,58.33C70.73,58.22 72.81,57.62 73.67,57.38C74.14,57.25 74.32,57.17 74.75,57.06C75.39,56.9 76.24,56.76 77.13,56.55C78.27,56.28 79.7,55.79 81.02,55.57C82.36,55.35 84.19,55.28 85.12,55.23C85.6,55.2 85.77,55.25 86.2,55.2C86.84,55.13 87.58,54.83 88.58,54.71C90.24,54.52 95.28,54.53 95.28,54.53C95.28,54.53 95.28,54.53 95.28,54.53C95.28,54.53 99.81,54.34 99.81,54.34C99.81,54.34 99.81,54.34 99.81,54.34C99.81,54.34 100.25,54.22 100.68,54.14C101.84,53.91 104.93,53.35 107.16,53.07C109.53,52.77 112.3,52.38 114.51,52.43C116.33,52.47 118.43,53.05 119.48,53.07C119.97,53.08 120.06,52.97 120.56,52.97C121.7,52.96 124.63,53.18 126.17,53.43C127.27,53.61 128.26,54.05 128.98,54.1C129.42,54.13 129.58,54.08 130.06,53.99C131.02,53.82 133.3,53.05 134.38,52.86C135.01,52.75 135.26,52.81 135.9,52.71C137.01,52.54 138.73,52.08 140.43,51.78C142.58,51.39 146.12,50.9 147.78,50.65C148.63,50.52 149.12,50.48 149.72,50.37C150.26,50.27 150.65,50.09 151.23,50.05C152.02,49.99 153.43,50.21 154.04,50.24C154.33,50.25 154.41,50.23 154.69,50.26C155.24,50.31 156.26,50.53 157.07,50.61C157.91,50.69 158.65,50.64 159.66,50.71C161.09,50.81 163.7,51.25 164.85,51.2C165.43,51.17 165.53,51.09 166.14,50.96C167.62,50.65 171.7,49.52 173.7,49.18C175,48.96 175.94,48.98 176.94,48.85C177.8,48.74 178.46,48.57 179.32,48.47C180.31,48.35 181.45,48.38 182.56,48.22C183.75,48.05 184.9,47.73 186.23,47.42C187.81,47.04 189.94,46.27 191.42,46.09C192.49,45.96 193.12,46.16 194.23,46.11C195.87,46.04 199.18,45.69 200.28,45.55C200.7,45.5 200.81,45.44 201.14,45.41C201.57,45.38 202.01,45.47 202.65,45.42C203.76,45.33 206.27,44.77 207.19,44.65C207.59,44.6 207.66,44.61 208.06,44.57C208.98,44.48 212.05,44.21 212.59,44.12C212.71,44.1 212.69,44.09 212.81,44.07C213.26,43.99 215.14,43.77 216.05,43.59C216.72,43.46 217.25,43.33 217.78,43.17C218.25,43.03 218.59,42.86 219.07,42.69C219.65,42.48 220.54,42.17 221.02,42.04C221.29,41.97 221.35,41.92 221.67,41.9C222.55,41.83 225.52,42.05 226.64,42.19C227.21,42.26 227.57,42.36 227.93,42.44C228.18,42.5 228.31,42.57 228.58,42.61C229.02,42.68 229.8,42.72 230.31,42.7C230.71,42.68 231.01,42.61 231.39,42.54C231.8,42.46 232.24,42.31 232.69,42.26C233.17,42.2 234.2,42.23 234.2,42.23C234.2,42.23 234.2,42.23 234.2,42.23C234.2,42.23 236.6,41.48 237.44,41.23C237.97,41.07 238.29,40.93 238.73,40.86C239.16,40.79 239.71,40.85 240.03,40.83C240.21,40.82 240.34,40.8 240.46,40.78C240.55,40.77 240.57,40.78 240.68,40.75C241.05,40.65 242.33,40.1 243.06,39.81C243.68,39.57 244.2,39.33 244.78,39.13C245.35,38.94 246.07,38.74 246.51,38.64C246.78,38.58 246.93,38.58 247.16,38.52C247.43,38.45 247.64,38.36 248.02,38.23C248.76,37.98 250.53,37.31 251.27,37.08C251.65,36.96 251.81,36.92 252.13,36.84C252.52,36.74 252.94,36.66 253.43,36.54C254.06,36.38 254.97,36.16 255.59,35.96C256.08,35.8 256.53,35.63 256.88,35.46C257.14,35.33 257.33,35.19 257.53,35.08C257.69,34.99 257.77,34.96 257.96,34.86C258.31,34.68 258.93,34.34 259.48,34.07C260.13,33.75 260.9,33.45 261.64,33.07C262.47,32.64 263.48,32.01 264.23,31.61C264.8,31.31 265.25,31.1 265.74,30.87C266.19,30.66 266.79,30.39 267.04,30.28C267.14,30.24 267.18,30.21 267.25,30.19C267.32,30.17 267.39,30.16 267.47,30.14C267.59,30.11 267.74,30.04 267.9,29.99C268.09,29.93 268.33,29.87 268.55,29.81C268.77,29.75 268.95,29.69 269.2,29.62C269.56,29.52 270.06,29.4 270.49,29.3C270.92,29.2 271.47,29.07 271.79,29.01C271.97,28.98 272.22,28.95 272.22,28.95C272.22,28.95 272.22,28.95 272.22,28.95C272.22,28.95 273.75,28.54 274.38,28.39C274.87,28.27 275.19,28.19 275.68,28.09C276.31,27.96 277.49,27.75 277.84,27.7C277.95,27.69 277.99,27.68 278.06,27.68C278.13,27.68 278.17,27.69 278.27,27.69Q278.57,27.69 280,27.65" style="vector-effect: none; fill: none; stroke: rgb(0, 180, 219); stroke-opacity: 1; stroke-width: 5px; opacity: 1;"/></g><g class="points"/><g class="text"/></g><g class="trace scatter traceef1990" style="stroke-miterlimit: 2; opacity: 1;"><g class="fills"/><g class="errorbars"/><g class="lines"><path class="js-line" d="M28.95,43.45Q30.36,39.97 31.54,37.99C33.13,35.32 36.61,30.57 38.02,29.1C38.57,28.53 38.86,28.44 39.32,28.06C39.86,27.62 40.45,27.17 41.05,26.63C41.74,26.01 42.38,25.35 43.21,24.52C44.36,23.37 46.44,21.18 47.31,20.35C47.7,19.98 47.94,19.78 48.18,19.58C48.35,19.45 48.42,19.41 48.61,19.26C49,18.94 49.85,18.07 50.34,17.67C50.67,17.4 50.79,17.18 51.2,17.03C51.94,16.76 53.57,16.92 54.66,16.81C55.65,16.71 57.06,16.52 57.47,16.42C57.59,16.39 57.57,16.38 57.69,16.34C58.15,16.17 60.44,15.34 61.14,15.13C61.44,15.04 61.53,15.05 61.79,14.96C62.19,14.82 62.95,14.42 63.3,14.28C63.48,14.21 63.51,14.2 63.73,14.13C64.44,13.92 67.28,13.28 68.27,12.99C68.76,12.85 69.03,12.69 69.35,12.63C69.59,12.58 69.7,12.62 70,12.58C70.73,12.48 72.82,12.08 73.67,11.82C74.15,11.67 74.31,11.49 74.75,11.37C75.38,11.21 76.24,11.21 77.13,11.09C78.27,10.94 79.71,10.51 81.02,10.53C82.37,10.55 84.19,11.09 85.12,11.23C85.59,11.3 85.77,11.33 86.2,11.36C86.84,11.4 87.59,11.28 88.58,11.4C90.26,11.61 95.28,13 95.28,13C95.28,13 95.28,13 95.28,13C95.28,13 99.81,14.19 99.81,14.19C99.81,14.19 99.81,14.19 99.81,14.19C99.81,14.19 100.26,14.32 100.68,14.46C101.84,14.83 104.96,15.76 107.16,16.64C109.56,17.6 112.27,19.22 114.51,20.09C116.3,20.78 118.42,21.42 119.48,21.63C119.96,21.72 120.06,21.7 120.56,21.72C121.7,21.77 124.63,21.87 126.17,21.72C127.27,21.61 128.26,21.2 128.98,21.18C129.42,21.17 129.58,21.25 130.06,21.34C131.02,21.52 133.3,22.1 134.38,22.29C135.01,22.4 135.26,22.37 135.9,22.48C137.01,22.68 138.75,23.05 140.43,23.55C142.6,24.2 146.11,25.67 147.78,26.24C148.63,26.53 149.12,26.65 149.72,26.85C150.26,27.03 150.64,27.37 151.23,27.39C152.02,27.42 153.43,26.78 154.04,26.63C154.33,26.56 154.41,26.56 154.69,26.48C155.24,26.33 156.25,25.92 157.07,25.68C157.91,25.44 158.65,25.32 159.66,25.04C161.1,24.64 163.69,23.72 164.85,23.41C165.42,23.26 165.53,23.26 166.14,23.12C167.61,22.78 171.71,21.84 173.7,21.31C175.01,20.96 175.94,20.56 176.94,20.36C177.79,20.19 178.46,20.13 179.32,20.08C180.32,20.02 181.45,19.96 182.56,20.05C183.75,20.15 184.91,20.39 186.23,20.71C187.82,21.1 189.94,22.2 191.42,22.33C192.49,22.43 193.11,22.09 194.23,21.98C195.86,21.82 199.18,21.58 200.28,21.52C200.7,21.5 200.81,21.53 201.14,21.49C201.57,21.44 202.01,21.26 202.65,21.19C203.75,21.06 206.27,21.1 207.19,21.05C207.59,21.03 207.66,20.99 208.06,20.99C208.98,20.98 212.04,21.19 212.59,21.22C212.71,21.23 212.69,21.22 212.81,21.23C213.26,21.26 215.14,21.38 216.05,21.47C216.72,21.54 217.25,21.59 217.78,21.68C218.24,21.76 218.6,21.82 219.07,21.95C219.66,22.11 220.54,22.45 221.02,22.61C221.29,22.7 221.35,22.71 221.67,22.83C222.55,23.15 225.51,24.41 226.64,24.78C227.2,24.96 227.57,25.02 227.93,25.12C228.18,25.19 228.31,25.26 228.58,25.3C229.02,25.37 229.8,25.3 230.31,25.35C230.71,25.39 231.02,25.42 231.39,25.54C231.81,25.67 232.25,25.91 232.69,26.14C233.18,26.39 234.2,27 234.2,27C234.2,27 234.2,27 234.2,27C234.2,27 236.61,27.86 237.44,28.19C237.97,28.4 238.3,28.58 238.73,28.75C239.16,28.92 239.71,29.11 240.03,29.22C240.21,29.28 240.34,29.31 240.46,29.35C240.55,29.38 240.57,29.39 240.68,29.43C241.05,29.56 242.32,30.06 243.06,30.25C243.67,30.41 244.21,30.46 244.78,30.57C245.36,30.69 246.07,30.84 246.51,30.94C246.78,31 246.93,31.06 247.16,31.09C247.43,31.13 247.64,31.1 248.02,31.15C248.76,31.25 250.54,31.62 251.27,31.79C251.65,31.88 251.81,31.97 252.13,32.03C252.52,32.11 252.94,32.13 253.43,32.2C254.06,32.29 254.97,32.39 255.59,32.54C256.08,32.66 256.52,32.86 256.88,32.96C257.13,33.03 257.33,33.07 257.53,33.11C257.69,33.14 257.78,33.13 257.96,33.17C258.31,33.25 258.93,33.49 259.48,33.68C260.14,33.9 260.9,34.12 261.64,34.41C262.47,34.74 263.47,35.35 264.23,35.59C264.79,35.77 265.26,35.75 265.74,35.87C266.19,35.99 266.79,36.21 267.04,36.3C267.14,36.34 267.18,36.36 267.25,36.38C267.32,36.4 267.39,36.4 267.47,36.42C267.59,36.45 267.74,36.52 267.9,36.56C268.09,36.61 268.33,36.64 268.55,36.7C268.77,36.76 268.95,36.82 269.2,36.9C269.56,37.01 270.06,37.2 270.49,37.31C270.92,37.41 271.48,37.46 271.79,37.53C271.97,37.57 272.22,37.66 272.22,37.66C272.22,37.66 272.22,37.66 272.22,37.66C272.22,37.66 273.74,38.34 274.38,38.53C274.86,38.67 275.19,38.77 275.68,38.78C276.31,38.79 277.49,38.55 277.84,38.47C277.95,38.44 277.99,38.42 278.06,38.4C278.13,38.38 278.17,38.38 278.27,38.37Q278.57,38.35 280,38.38" style="vector-effect: none; fill: none; stroke: rgb(138, 44, 81); stroke-opacity: 1; stroke-width: 5px; opacity: 1;"/></g><g class="points"/><g class="text"/></g><g class="trace scatter trace9c7e97" style="stroke-miterlimit: 2; opacity: 1;"><g class="fills"/><g class="errorbars"/><g class="lines"><path class="js-line" d="M81.02,70.54Q84.16,67.55 85.12,66.92C85.57,66.63 85.76,66.56 86.2,66.42C86.83,66.22 87.59,66.18 88.58,65.96C90.25,65.59 95.28,64.27 95.28,64.27C95.28,64.27 95.28,64.27 95.28,64.27C95.28,64.27 99.81,63.57 99.81,63.57C99.81,63.57 99.81,63.57 99.81,63.57C99.81,63.57 100.25,63.7 100.68,63.72C101.84,63.78 104.95,63.6 107.16,63.23C109.55,62.83 112.31,61.95 114.51,61.32C116.33,60.8 118.42,59.91 119.48,59.78C119.96,59.72 120.06,59.83 120.56,59.85C121.7,59.89 124.62,59.96 126.17,59.91C127.27,59.87 128.26,59.78 128.98,59.7C129.43,59.65 129.58,59.62 130.06,59.54C131.02,59.38 133.31,58.99 134.38,58.77C135.02,58.64 135.25,58.52 135.9,58.42C137,58.26 138.74,58.27 140.43,58.12C142.59,57.93 146.12,57.5 147.78,57.33C148.63,57.24 149.11,57.13 149.72,57.15C150.26,57.17 150.65,57.34 151.23,57.39C152.02,57.46 153.43,57.42 154.04,57.46C154.33,57.48 154.41,57.52 154.69,57.53C155.23,57.54 156.26,57.39 157.07,57.39C157.92,57.39 158.65,57.55 159.66,57.55C161.09,57.55 163.7,57.25 164.85,57.25C165.42,57.25 165.53,57.29 166.14,57.32C167.61,57.39 171.71,57.53 173.7,57.58C175.01,57.61 175.95,57.55 176.94,57.62C177.8,57.68 178.46,57.93 179.32,57.95C180.32,57.98 181.45,57.7 182.56,57.69C183.74,57.68 184.9,57.95 186.23,57.91C187.81,57.86 189.95,57.28 191.42,57.26C192.5,57.25 193.12,57.56 194.23,57.55C195.87,57.54 199.18,57.1 200.28,56.87C200.7,56.78 200.81,56.7 201.14,56.61C201.57,56.5 202.01,56.35 202.65,56.27C203.75,56.13 206.27,56.15 207.19,56.1C207.59,56.08 207.66,56.07 208.06,56.04C208.98,55.98 212.04,55.8 212.59,55.77C212.71,55.76 212.69,55.77 212.81,55.76C213.26,55.73 215.14,55.6 216.05,55.46C216.72,55.36 217.24,55.18 217.78,55.09C218.24,55.02 218.6,55.02 219.07,54.95C219.65,54.87 220.55,54.71 221.02,54.61C221.3,54.55 221.35,54.49 221.67,54.46C222.55,54.38 225.52,54.63 226.64,54.68C227.21,54.7 227.57,54.7 227.93,54.73C228.18,54.75 228.31,54.81 228.58,54.8C229.02,54.79 229.8,54.61 230.31,54.52C230.71,54.45 231.01,54.37 231.39,54.32C231.8,54.27 232.24,54.28 232.69,54.23C233.18,54.18 234.2,54 234.2,54C234.2,54 234.2,54 234.2,54C234.2,54 236.6,53.28 237.44,53.14C237.96,53.05 238.3,53.1 238.73,53.05C239.16,53 239.71,52.89 240.03,52.85C240.21,52.83 240.34,52.81 240.46,52.81C240.55,52.81 240.57,52.83 240.68,52.82C241.05,52.8 242.33,52.5 243.06,52.45C243.68,52.4 244.21,52.5 244.78,52.46C245.36,52.42 246.07,52.28 246.51,52.23C246.78,52.2 246.93,52.21 247.16,52.18C247.43,52.14 247.64,52.06 248.02,52.02C248.75,51.94 250.54,51.95 251.27,51.87C251.65,51.83 251.81,51.77 252.13,51.72C252.52,51.66 252.94,51.58 253.43,51.53C254.06,51.46 254.96,51.37 255.59,51.36C256.07,51.35 256.52,51.39 256.88,51.4C257.13,51.41 257.34,51.4 257.53,51.41C257.69,51.42 257.77,51.44 257.96,51.44C258.31,51.45 258.93,51.41 259.48,51.38C260.14,51.35 260.89,51.28 261.64,51.25C262.46,51.22 263.48,51.17 264.23,51.21C264.8,51.24 265.25,51.37 265.74,51.4C266.19,51.43 266.79,51.39 267.04,51.39C267.14,51.39 267.18,51.39 267.25,51.39C267.32,51.39 267.38,51.4 267.47,51.41C267.59,51.42 267.74,51.44 267.9,51.46C268.09,51.49 268.33,51.56 268.55,51.59C268.77,51.62 268.95,51.62 269.2,51.65C269.56,51.69 270.06,51.77 270.49,51.81C270.92,51.85 271.47,51.9 271.79,51.9C271.97,51.9 272.22,51.87 272.22,51.87C272.22,51.87 272.22,51.87 272.22,51.87C272.22,51.87 273.75,51.69 274.38,51.68C274.87,51.67 275.2,51.67 275.68,51.74C276.31,51.83 277.49,52.17 277.84,52.26C277.95,52.29 277.99,52.31 278.06,52.32C278.13,52.33 278.17,52.32 278.27,52.32Q278.57,52.31 280,52.24" style="vector-effect: none; fill: none; stroke: rgb(153, 51, 0); stroke-opacity: 1; stroke-width: 5px; opacity: 1;"/></g><g class="points"/><g class="text"/></g><g class="trace scatter tracec58a7a" style="stroke-miterlimit: 2; opacity: 1;"><g class="fills"/><g class="errorbars"/><g class="lines"><path class="js-line" d="M0,5.39Q2.77,5.71 4.1,5.48C5.44,5.25 6.9,4.28 7.99,4.01C8.74,3.82 9.54,3.65 9.94,3.75C10.15,3.8 10.14,3.91 10.37,4.07C11.25,4.67 15.35,7.42 16.85,8.11C17.58,8.44 17.95,8.39 18.58,8.64C19.42,8.97 20.48,9.47 21.39,10.03C22.35,10.62 23.11,11.44 24.2,12.12C25.55,12.95 27.65,13.65 28.95,14.52C29.99,15.21 30.5,15.79 31.54,16.73C33.23,18.27 36.63,21.98 38.02,22.98C38.58,23.38 38.85,23.43 39.32,23.66C39.85,23.92 40.46,24.1 41.05,24.47C41.76,24.91 42.35,25.61 43.21,26.22C44.34,27.03 46.43,28.4 47.31,28.82C47.69,29 47.94,29 48.18,29.11C48.35,29.19 48.41,29.26 48.61,29.36C48.99,29.55 49.87,29.87 50.34,30.11C50.68,30.28 50.81,30.4 51.2,30.6C51.96,30.99 53.58,31.59 54.66,32.15C55.66,32.67 57.06,33.59 57.47,33.8C57.58,33.86 57.58,33.84 57.69,33.9C58.16,34.14 60.44,35.54 61.14,35.93C61.44,36.1 61.52,36.18 61.79,36.28C62.18,36.42 62.95,36.49 63.3,36.57C63.49,36.61 63.51,36.63 63.73,36.68C64.44,36.85 67.29,37.41 68.27,37.74C68.76,37.9 69.03,38.14 69.35,38.21C69.59,38.26 69.7,38.16 70,38.22C70.73,38.36 72.81,39.3 73.67,39.6C74.13,39.76 74.33,39.76 74.75,39.94C75.4,40.22 76.22,40.86 77.13,41.28C78.25,41.8 79.75,42.08 81.02,42.75C82.42,43.49 84.18,45.07 85.12,45.62C85.58,45.89 85.76,45.97 86.2,46.14C86.83,46.38 87.59,46.54 88.58,46.84C90.25,47.35 95.28,48.94 95.28,48.94C95.28,48.94 95.28,48.94 95.28,48.94C95.28,48.94 99.81,50.1 99.81,50.1C99.81,50.1 99.81,50.1 99.81,50.1C99.81,50.1 100.26,50.09 100.68,50.09C101.84,50.08 104.93,50.14 107.16,50.06C109.53,49.98 112.3,49.53 114.51,49.59C116.33,49.64 118.43,50.16 119.48,50.18C119.97,50.19 120.06,50.08 120.56,50.1C121.7,50.14 124.62,50.66 126.17,50.96C127.27,51.17 128.26,51.58 128.98,51.62C129.42,51.65 129.58,51.56 130.06,51.5C131.02,51.39 133.31,50.97 134.38,50.95C135.02,50.94 135.26,51.09 135.9,51.1C137.01,51.12 138.74,50.87 140.43,50.84C142.58,50.8 146.12,50.84 147.78,50.96C148.64,51.02 149.11,51.16 149.72,51.21C150.25,51.25 150.65,51.18 151.23,51.24C152.02,51.32 153.43,51.65 154.04,51.74C154.33,51.78 154.4,51.8 154.69,51.81C155.23,51.83 156.26,51.78 157.07,51.69C157.92,51.6 158.64,51.34 159.66,51.24C161.09,51.1 163.7,51.2 164.85,51.11C165.43,51.06 165.53,51.01 166.14,50.93C167.61,50.74 171.72,49.89 173.7,50.08C175.02,50.21 175.94,50.85 176.94,51.09C177.79,51.29 178.47,51.34 179.32,51.49C180.32,51.67 181.44,52.03 182.56,52.09C183.74,52.15 184.9,51.76 186.23,51.79C187.81,51.83 189.95,52.35 191.42,52.48C192.5,52.58 193.12,52.53 194.23,52.62C195.87,52.75 199.18,53.19 200.28,53.31C200.7,53.36 200.81,53.37 201.14,53.4C201.57,53.44 202.01,53.52 202.65,53.55C203.76,53.61 206.27,53.55 207.19,53.59C207.59,53.61 207.66,53.62 208.06,53.65C208.98,53.73 212.04,54.09 212.59,54.12C212.71,54.13 212.69,54.12 212.81,54.12C213.26,54.12 215.14,54.12 216.05,54.16C216.72,54.19 217.25,54.27 217.78,54.3C218.24,54.32 218.6,54.3 219.07,54.32C219.65,54.35 220.54,54.44 221.02,54.48C221.29,54.5 221.35,54.53 221.67,54.54C222.55,54.56 225.52,54.3 226.64,54.33C227.21,54.35 227.57,54.41 227.93,54.46C228.18,54.49 228.31,54.51 228.58,54.57C229.02,54.67 229.8,54.93 230.31,55.07C230.71,55.18 231.01,55.28 231.39,55.37C231.8,55.47 232.24,55.54 232.69,55.64C233.17,55.74 234.2,55.98 234.2,55.98C234.2,55.98 234.2,55.98 234.2,55.98C234.2,55.98 236.6,56.89 237.44,57.16C237.96,57.33 238.3,57.42 238.73,57.51C239.16,57.6 239.71,57.67 240.03,57.7C240.21,57.72 240.34,57.72 240.46,57.71C240.55,57.71 240.57,57.69 240.68,57.68C241.05,57.65 242.33,57.65 243.06,57.58C243.68,57.52 244.21,57.43 244.78,57.33C245.36,57.23 246.07,57.07 246.51,57C246.78,56.96 246.93,56.93 247.16,56.91C247.43,56.89 247.64,56.91 248.02,56.89C248.76,56.85 250.53,56.62 251.27,56.57C251.65,56.54 251.81,56.54 252.13,56.54C252.52,56.54 252.94,56.56 253.43,56.59C254.06,56.62 254.96,56.73 255.59,56.74C256.07,56.75 256.52,56.69 256.88,56.68C257.13,56.67 257.34,56.68 257.53,56.68C257.69,56.68 257.77,56.67 257.96,56.67C258.31,56.67 258.93,56.7 259.48,56.71C260.14,56.72 260.89,56.73 261.64,56.72C262.46,56.71 263.48,56.64 264.23,56.62C264.8,56.61 265.26,56.6 265.74,56.6C266.19,56.6 266.79,56.63 267.04,56.64C267.14,56.64 267.18,56.65 267.25,56.65C267.32,56.65 267.38,56.65 267.47,56.65C267.59,56.65 267.74,56.64 267.9,56.63C268.09,56.61 268.33,56.57 268.55,56.54C268.77,56.51 268.95,56.48 269.2,56.46C269.56,56.43 270.06,56.43 270.49,56.4C270.92,56.37 271.47,56.32 271.79,56.3C271.97,56.29 272.22,56.28 272.22,56.28C272.22,56.28 272.22,56.28 272.22,56.28C272.22,56.28 273.75,56.29 274.38,56.28C274.87,56.27 275.19,56.24 275.68,56.23C276.31,56.21 277.49,56.21 277.84,56.19C277.95,56.18 277.99,56.18 278.06,56.17C278.13,56.17 278.17,56.17 278.27,56.16Q278.57,56.13 280,55.91" style="vector-effect: none; fill: none; stroke: rgb(97, 162, 41); stroke-opacity: 1; stroke-width: 5px; opacity: 1;"/></g><g class="points"/><g class="text"/></g></g></g><g class="overplot"/><path class="xlines-above crisp" d="M0,0" style="fill: none;"/><path class="ylines-above crisp" d="M0,0" style="fill: none;"/><g class="overlines-above"/><g class="xaxislayer-above"/><g class="yaxislayer-above"/><g class="overaxes-above"/></g></g><g class="polarlayer"/><g class="smithlayer"/><g class="ternarylayer"/><g class="geolayer"/><g class="funnelarealayer"/><g class="pielayer"/><g class="iciclelayer"/><g class="treemaplayer"/><g class="sunburstlayer"/><g class="glimages"/><defs id="topdefs-d1ab4b"><g class="clips"/></defs><g class="layer-above"><g class="imagelayer"/><g class="shapelayer"/></g><g class="infolayer"><g class="g-gtitle"><text class="gtitle" x="15" y="25" text-anchor="start" dy="0em" style="font-family: Ubuntu, verdana, arial, sans-serif; font-size: 16px; fill: rgb(233, 84, 32); opacity: 1; font-weight: normal; white-space: pre;">NRSR 2020-2023</text></g><g class="g-xtitle"/><g class="g-ytitle"/></g></svg>