<svg class="main-svg" xmlns="http://www.w3.org/2000/svg" xmlns:xlink="http://www.w3.org/1999/xlink" width="300" height="135" style="" viewBox="0 0 300 135"><rect x="0" y="0" width="300" height="135" style="fill: rgb(255, 255, 255); fill-opacity: 1;"/><defs id="defs-9cf9f6"><g class="clips"><clipPath id="clip9cf9f6xyplot" class="plotclip"><rect width="280" height="75"/></clipPath><clipPath class="axesclip" id="clip9cf9f6x"><rect x="10" y="0" width="280" height="135"/></clipPath><clipPath class="axesclip" id="clip9cf9f6y"><rect x="0" y="50" width="300" height="75"/></clipPath><clipPath class="axesclip" id="clip9cf9f6xy"><rect x="10" y="50" width="280" height="75"/></clipPath></g><g class="gradients"/><g class="patterns"/></defs><g class="bglayer"/><g class="layer-below"><g class="imagelayer"/><g class="shapelayer"/></g><g class="cartesianlayer"><g class="subplot xy"><g class="layer-subplot"><g class="shapelayer"/><g class="imagelayer"/></g><g class="gridlayer"><g class="x"><path class="xgrid crisp" transform="translate(85.34,0)" d="M0,50v75" style="stroke: rgb(235, 240, 248); stroke-opacity: 1; stroke-width: 1px;"/><path class="xgrid crisp" transform="translate(174.91,0)" d="M0,50v75" style="stroke: rgb(235, 240, 248); stroke-opacity: 1; stroke-width: 1px;"/><path class="xgrid crisp" transform="translate(264.48,0)" d="M0,50v75" style="stroke: rgb(235, 240, 248); stroke-opacity: 1; stroke-width: 1px;"/></g><g class="y"><path class="ygrid crisp" transform="translate(0,109.62)" d="M10,0h280" style="stroke: rgb(235, 240, 248); stroke-opacity: 1; stroke-width: 1px;"/><path class="ygrid crisp" transform="translate(0,94.25)" d="M10,0h280" style="stroke: rgb(235, 240, 248); stroke-opacity: 1; stroke-width: 1px;"/><path class="ygrid crisp" transform="translate(0,78.87)" d="M10,0h280" style="stroke: rgb(235, 240, 248); stroke-opacity: 1; stroke-width: 1px;"/><path class="ygrid crisp" transform="translate(0,63.5)" d="M10,0h280" style="stroke: rgb(235, 240, 248); stroke-opacity: 1; stroke-width: 1px;"/></g></g><g class="zerolinelayer"><path class="yzl zl crisp" transform="translate(0,125)" d="M10,0h280" style="stroke: rgb(235, 240, 248); stroke-opacity: 1; stroke-width: 2px;"/></g><path class="xlines-below"/><path class="ylines-below"/><g class="overlines-below"/><g class="xaxislayer-below"/><g class="yaxislayer-below"/><g class="overaxes-below"/><g class="plot" transform="translate(10,50)" clip-path="url(#clip9cf9f6xyplot)"><g class="scatterlayer mlayer"><g class="trace scatter tracef21933" style="stroke-miterlimit: 2; opacity: 1;"><g class="fills"/><g class="errorbars"/><g class="lines"><path class="js-line" d="M0,18.76Q2.88,13.42 4.66,12.59C6,11.97 7.87,12.66 9.08,12.83C9.95,12.95 10.82,13.32 11.29,13.34C11.51,13.35 11.52,13.26 11.78,13.27C12.79,13.32 17.51,14.41 19.14,15.12C20.05,15.51 20.41,15.8 21.1,16.38C22.08,17.19 23.26,18.55 24.29,19.76C25.39,21.04 26.37,22.13 27.48,23.9C29.17,26.58 31.24,31.95 32.88,34.59C33.93,36.29 34.47,37.29 35.83,38.54C37.63,40.19 41.66,42.28 43.19,43.13C43.85,43.5 44.14,43.58 44.66,43.85C45.27,44.17 45.92,44.61 46.63,44.93C47.39,45.28 48.13,45.53 49.08,45.84C50.38,46.26 52.76,46.92 53.74,47.11C54.18,47.2 54.45,47.23 54.72,47.23C54.91,47.23 54.99,47.18 55.21,47.18C55.65,47.17 56.64,47.31 57.18,47.33C57.56,47.34 57.73,47.27 58.16,47.31C59.04,47.39 60.84,48.07 62.09,48.14C63.2,48.2 64.82,47.86 65.28,47.84C65.41,47.83 65.39,47.85 65.52,47.84C66.04,47.81 68.66,47.39 69.45,47.36C69.79,47.35 69.89,47.36 70.18,47.39C70.63,47.43 71.5,47.57 71.9,47.63C72.11,47.66 72.14,47.68 72.39,47.7C73.2,47.77 76.42,47.87 77.55,47.86C78.1,47.86 78.41,47.81 78.77,47.8C79.05,47.79 79.16,47.8 79.51,47.78C80.33,47.74 82.7,47.55 83.68,47.47C84.21,47.43 84.42,47.43 84.91,47.37C85.64,47.28 86.6,47.08 87.61,46.89C88.9,46.64 90.54,46.39 92.02,45.97C93.57,45.53 95.63,44.59 96.69,44.26C97.22,44.1 97.42,44.04 97.91,43.95C98.63,43.82 99.5,43.88 100.61,43.62C102.52,43.18 108.22,40.97 108.22,40.97C108.22,40.97 108.22,40.97 108.22,40.97C108.22,40.97 113.37,38.79 113.37,38.79C113.37,38.79 113.37,38.79 113.37,38.79C113.37,38.79 113.87,38.93 114.36,38.96C115.67,39.05 119.22,39.2 121.72,38.76C124.45,38.28 127.6,37.13 130.06,36.01C132.19,35.04 134.49,33.19 135.71,32.64C136.25,32.4 136.36,32.43 136.93,32.25C138.22,31.83 141.56,30.79 143.31,30.13C144.57,29.66 145.67,28.9 146.5,28.79C147,28.73 147.19,28.85 147.73,28.96C148.83,29.18 151.42,30.15 152.64,30.27C153.35,30.34 153.63,30.18 154.36,30.17C155.62,30.16 157.59,30.47 159.51,30.37C161.96,30.24 165.97,29.54 167.85,29.13C168.83,28.92 169.36,28.62 170.06,28.5C170.66,28.4 171.12,28.41 171.78,28.4C172.68,28.39 174.28,28.5 174.97,28.48C175.3,28.47 175.39,28.42 175.71,28.42C176.33,28.42 177.49,28.51 178.4,28.64C179.36,28.77 180.19,29.07 181.35,29.21C182.97,29.41 185.93,29.41 187.24,29.52C187.89,29.58 188.02,29.62 188.71,29.7C190.39,29.89 195.04,30.59 197.3,30.56C198.78,30.54 199.85,30.19 200.98,30.08C201.95,29.99 202.71,29.97 203.68,29.93C204.81,29.89 206.1,29.92 207.36,29.85C208.71,29.77 210.02,29.64 211.53,29.45C213.33,29.23 215.75,28.72 217.42,28.56C218.64,28.44 219.35,28.5 220.61,28.42C222.47,28.3 226.22,27.95 227.48,27.82C227.96,27.77 228.09,27.74 228.47,27.7C228.96,27.65 229.46,27.62 230.18,27.54C231.44,27.41 234.29,27.03 235.34,26.95C235.79,26.92 235.87,26.96 236.32,26.92C237.36,26.83 240.85,26.24 241.47,26.16C241.61,26.14 241.59,26.15 241.72,26.13C242.23,26.06 244.37,25.77 245.4,25.6C246.16,25.48 246.75,25.36 247.36,25.24C247.89,25.13 248.29,25.04 248.83,24.92C249.49,24.77 250.5,24.53 251.04,24.41C251.35,24.34 251.42,24.32 251.78,24.25C252.78,24.05 256.15,23.46 257.42,23.18C258.08,23.04 258.5,22.97 258.9,22.81C259.2,22.69 259.32,22.55 259.63,22.39C260.12,22.13 261.01,21.62 261.6,21.46C262.04,21.34 262.4,21.44 262.82,21.34C263.29,21.23 263.79,21.01 264.29,20.79C264.85,20.55 266.01,19.93 266.01,19.93C266.01,19.93 266.01,19.93 266.01,19.93C266.01,19.93 267.83,19.8 268.71,19.83C269.55,19.86 270.45,20.03 271.17,20.09C271.72,20.14 272.28,20.2 272.64,20.2C272.85,20.2 273,20.17 273.13,20.16C273.22,20.15 273.25,20.16 273.37,20.13C273.79,20.03 275.23,19.26 276.07,19.18C276.77,19.11 277.38,19.36 278.04,19.46Q278.69,19.56 280,19.78" style="vector-effect: non-scaling-stroke; fill: none; stroke: rgb(238, 58, 67); stroke-opacity: 1; stroke-width: 5px; opacity: 1;"/></g><g class="points"/><g class="text"/></g><g class="trace scatter traced24156" style="stroke-miterlimit: 2; opacity: 1;"><g class="fills"/><g class="errorbars"/><g class="lines"><path class="js-line" d="M32.88,40.13Q34.49,36.29 35.83,34.1C37.64,31.14 41.6,25.9 43.19,24.27C43.81,23.64 44.14,23.54 44.66,23.12C45.27,22.64 45.95,22.13 46.63,21.54C47.42,20.85 48.14,20.12 49.08,19.21C50.39,17.94 52.75,15.53 53.74,14.61C54.18,14.2 54.44,13.97 54.72,13.75C54.91,13.6 55,13.57 55.21,13.4C55.65,13.05 56.63,12.09 57.18,11.64C57.55,11.34 57.69,11.1 58.16,10.93C59.01,10.63 60.85,10.81 62.09,10.69C63.21,10.58 64.82,10.37 65.28,10.26C65.41,10.23 65.39,10.22 65.52,10.17C66.04,9.99 68.66,9.08 69.45,8.84C69.79,8.74 69.89,8.75 70.18,8.65C70.64,8.49 71.5,8.04 71.9,7.89C72.11,7.81 72.14,7.8 72.39,7.73C73.2,7.5 76.43,6.79 77.55,6.47C78.1,6.31 78.41,6.14 78.77,6.07C79.04,6.02 79.17,6.07 79.51,6.02C80.34,5.91 82.71,5.47 83.68,5.18C84.22,5.02 84.41,4.81 84.91,4.68C85.63,4.5 86.6,4.5 87.61,4.37C88.9,4.21 90.53,3.73 92.02,3.75C93.56,3.77 95.64,4.37 96.69,4.52C97.23,4.6 97.42,4.63 97.91,4.66C98.63,4.71 99.49,4.57 100.61,4.71C102.51,4.95 108.22,6.48 108.22,6.48C108.22,6.48 108.22,6.48 108.22,6.48C108.22,6.48 113.37,7.79 113.37,7.79C113.37,7.79 113.37,7.79 113.37,7.79C113.37,7.79 113.88,7.95 114.36,8.1C115.68,8.52 119.22,9.52 121.72,10.5C124.44,11.56 127.52,13.36 130.06,14.32C132.1,15.09 134.51,15.79 135.71,16.02C136.26,16.12 136.36,16.1 136.93,16.12C138.22,16.17 141.55,16.28 143.31,16.12C144.56,16 145.68,15.54 146.5,15.52C147,15.51 147.19,15.6 147.73,15.7C148.82,15.9 151.42,16.55 152.64,16.75C153.36,16.87 153.64,16.83 154.36,16.96C155.62,17.18 157.61,17.58 159.51,18.14C161.98,18.86 165.96,20.49 167.85,21.11C168.82,21.43 169.37,21.56 170.06,21.78C170.67,21.98 171.11,22.35 171.78,22.38C172.68,22.42 174.28,21.71 174.97,21.54C175.3,21.46 175.39,21.46 175.71,21.37C176.33,21.2 177.48,20.75 178.4,20.49C179.36,20.22 180.2,20.1 181.35,19.79C182.98,19.35 185.93,18.32 187.24,17.98C187.89,17.81 188.02,17.82 188.71,17.66C190.39,17.28 195.04,16.25 197.3,15.66C198.79,15.27 199.84,14.84 200.98,14.61C201.94,14.42 202.71,14.36 203.68,14.3C204.81,14.23 206.1,14.17 207.36,14.27C208.71,14.38 210.03,14.63 211.53,14.99C213.34,15.42 215.74,16.64 217.42,16.79C218.63,16.9 219.34,16.53 220.61,16.4C222.46,16.22 226.22,15.95 227.48,15.88C227.96,15.85 228.1,15.89 228.47,15.85C228.96,15.79 229.45,15.59 230.18,15.51C231.43,15.37 234.3,15.4 235.34,15.35C235.8,15.33 235.86,15.29 236.32,15.28C237.36,15.27 240.85,15.48 241.47,15.51C241.61,15.52 241.59,15.51 241.72,15.52C242.23,15.55 244.37,15.67 245.4,15.76C246.16,15.83 246.76,15.89 247.36,15.98C247.89,16.06 248.29,16.12 248.83,16.26C249.5,16.43 250.5,16.79 251.04,16.96C251.35,17.06 251.42,17.08 251.78,17.2C252.78,17.55 256.14,18.88 257.42,19.27C258.06,19.46 258.49,19.52 258.9,19.62C259.19,19.69 259.32,19.76 259.63,19.79C260.12,19.85 261.02,19.74 261.6,19.78C262.06,19.81 262.4,19.84 262.82,19.95C263.3,20.08 263.79,20.32 264.29,20.56C264.85,20.82 266.01,21.46 266.01,21.46C266.01,21.46 266.01,21.46 266.01,21.46C266.01,21.46 267.84,21.97 268.71,22.27C269.55,22.56 270.45,22.97 271.17,23.22C271.72,23.41 272.28,23.59 272.64,23.69C272.85,23.75 273,23.77 273.13,23.81C273.22,23.84 273.25,23.85 273.37,23.88C273.78,23.99 275.23,24.46 276.07,24.58C276.77,24.68 277.38,24.61 278.04,24.63Q278.69,24.65 280,24.68" style="vector-effect: non-scaling-stroke; fill: none; stroke: rgb(138, 44, 81); stroke-opacity: 1; stroke-width: 5px; opacity: 1;"/></g><g class="points"/><g class="text"/></g><g class="trace scatter trace89cd01" style="stroke-miterlimit: 2; opacity: 1;"><g class="fills"/><g class="errorbars"/><g class="lines"><path class="js-line" d="M0,53.6Q3.12,54.46 4.66,54.5C6.15,54.54 7.86,53.98 9.08,53.9C9.94,53.85 10.82,53.93 11.29,53.92C11.51,53.91 11.52,53.89 11.78,53.89C12.79,53.91 17.47,54.48 19.14,54.61C20,54.68 20.37,54.66 21.1,54.72C22.04,54.79 23.23,54.9 24.29,55.05C25.36,55.2 26.28,55.4 27.48,55.6C29.04,55.87 31.35,56.39 32.88,56.5C34.01,56.58 34.63,56.38 35.83,56.45C37.74,56.56 41.67,57.35 43.19,57.45C43.87,57.49 44.13,57.44 44.66,57.44C45.27,57.44 45.94,57.51 46.63,57.48C47.4,57.45 48.13,57.26 49.08,57.21C50.38,57.15 52.76,57.22 53.74,57.26C54.19,57.28 54.45,57.31 54.72,57.32C54.91,57.33 54.99,57.32 55.21,57.32C55.65,57.31 56.64,57.28 57.18,57.25C57.56,57.23 57.72,57.21 58.16,57.16C59.03,57.06 60.85,56.71 62.09,56.65C63.21,56.6 64.82,56.76 65.28,56.77C65.41,56.77 65.39,56.77 65.52,56.77C66.04,56.76 68.66,56.73 69.45,56.69C69.79,56.67 69.89,56.66 70.18,56.64C70.63,56.61 71.5,56.55 71.9,56.54C72.11,56.53 72.14,56.54 72.39,56.54C73.2,56.54 76.42,56.49 77.55,56.53C78.1,56.55 78.41,56.61 78.77,56.61C79.05,56.61 79.17,56.63 79.51,56.58C80.34,56.46 82.7,55.8 83.68,55.53C84.21,55.38 84.42,55.29 84.91,55.17C85.63,54.99 86.6,54.84 87.61,54.61C88.9,54.32 90.52,53.77 92.02,53.53C93.54,53.28 95.64,53.21 96.69,53.15C97.23,53.12 97.43,53.17 97.91,53.11C98.64,53.03 99.48,52.7 100.61,52.57C102.5,52.36 108.22,52.38 108.22,52.38C108.22,52.38 108.22,52.38 108.22,52.38C108.22,52.38 113.37,52.17 113.37,52.17C113.37,52.17 113.37,52.17 113.37,52.17C113.37,52.17 113.88,52.04 114.36,51.95C115.67,51.7 119.18,51.07 121.72,50.76C124.41,50.43 127.55,50 130.06,50.05C132.13,50.09 134.51,50.75 135.71,50.77C136.26,50.78 136.36,50.66 136.93,50.65C138.22,50.64 141.56,50.89 143.31,51.16C144.56,51.35 145.68,51.85 146.5,51.9C147,51.93 147.19,51.87 147.73,51.78C148.83,51.59 151.42,50.74 152.64,50.53C153.35,50.4 153.64,50.47 154.36,50.36C155.62,50.17 157.58,49.67 159.51,49.33C161.95,48.9 165.96,48.36 167.85,48.09C168.82,47.95 169.37,47.9 170.06,47.78C170.67,47.67 171.12,47.47 171.78,47.42C172.68,47.36 174.28,47.61 174.97,47.64C175.3,47.66 175.39,47.63 175.71,47.66C176.33,47.71 177.48,47.96 178.4,48.04C179.36,48.13 180.2,48.08 181.35,48.16C182.98,48.27 185.93,48.75 187.24,48.69C187.9,48.66 188.02,48.57 188.71,48.43C190.39,48.09 195.03,46.83 197.3,46.46C198.77,46.22 199.85,46.24 200.98,46.1C201.95,45.98 202.71,45.79 203.68,45.68C204.81,45.55 206.1,45.58 207.36,45.4C208.71,45.21 210.02,44.87 211.53,44.52C213.33,44.11 215.74,43.25 217.42,43.05C218.63,42.9 219.35,43.12 220.61,43.07C222.47,42.99 226.22,42.62 227.48,42.46C227.96,42.4 228.09,42.33 228.47,42.3C228.96,42.26 229.46,42.37 230.18,42.32C231.44,42.22 234.29,41.6 235.34,41.47C235.79,41.41 235.87,41.42 236.32,41.38C237.36,41.28 240.85,40.99 241.47,40.9C241.61,40.88 241.59,40.87 241.72,40.85C242.23,40.76 244.37,40.51 245.4,40.32C246.16,40.18 246.76,40.04 247.36,39.86C247.89,39.7 248.29,39.52 248.83,39.34C249.49,39.12 250.5,38.77 251.04,38.63C251.35,38.55 251.42,38.51 251.78,38.49C252.78,38.43 256.15,38.71 257.42,38.88C258.08,38.97 258.49,39.08 258.9,39.18C259.19,39.25 259.32,39.33 259.63,39.39C260.12,39.48 261.02,39.56 261.6,39.55C262.06,39.54 262.4,39.46 262.82,39.4C263.29,39.33 263.78,39.18 264.29,39.14C264.84,39.1 266.01,39.18 266.01,39.18C266.01,39.18 266.01,39.18 266.01,39.18C266.01,39.18 267.83,38.71 268.71,38.49C269.55,38.28 270.45,37.96 271.17,37.9C271.72,37.86 272.28,38 272.64,38.01C272.85,38.02 273,38 273.13,38C273.22,38 273.25,38.02 273.37,38C273.79,37.94 275.24,37.42 276.07,37.15C276.78,36.91 277.38,36.64 278.04,36.46Q278.69,36.28 280,36.05" style="vector-effect: non-scaling-stroke; fill: none; stroke: rgb(0, 180, 219); stroke-opacity: 1; stroke-width: 5px; opacity: 1;"/></g><g class="points"/><g class="text"/></g><g class="trace scatter trace7f90ef" style="stroke-miterlimit: 2; opacity: 1;"><g class="fills"/><g class="errorbars"/><g class="lines"><path class="js-line" d="M92.02,70.07Q95.6,66.76 96.69,66.07C97.2,65.75 97.41,65.68 97.91,65.52C98.62,65.3 99.49,65.25 100.61,65.01C102.51,64.6 108.22,63.14 108.22,63.14C108.22,63.14 108.22,63.14 108.22,63.14C108.22,63.14 113.37,62.36 113.37,62.36C113.37,62.36 113.37,62.36 113.37,62.36C113.37,62.36 113.87,62.51 114.36,62.53C115.67,62.59 119.21,62.41 121.72,62C124.43,61.56 127.56,60.57 130.06,59.88C132.13,59.3 134.51,58.32 135.71,58.18C136.26,58.12 136.36,58.24 136.93,58.26C138.22,58.31 141.55,58.39 143.31,58.33C144.56,58.29 145.69,58.18 146.5,58.09C147.01,58.03 147.18,58 147.73,57.91C148.82,57.74 151.42,57.3 152.64,57.06C153.36,56.92 153.63,56.78 154.36,56.68C155.61,56.5 157.59,56.51 159.51,56.35C161.96,56.14 165.96,55.66 167.85,55.47C168.82,55.37 169.37,55.25 170.06,55.27C170.67,55.29 171.12,55.47 171.78,55.53C172.68,55.61 174.28,55.56 174.97,55.61C175.3,55.63 175.39,55.69 175.71,55.7C176.33,55.72 177.48,55.54 178.4,55.54C179.36,55.54 180.2,55.71 181.35,55.71C182.98,55.71 185.93,55.38 187.24,55.38C187.89,55.38 188.02,55.43 188.71,55.46C190.39,55.53 195.03,55.69 197.3,55.74C198.78,55.77 199.85,55.71 200.98,55.79C201.95,55.86 202.71,56.12 203.68,56.15C204.81,56.18 206.09,55.88 207.36,55.87C208.71,55.86 210.02,56.17 211.53,56.12C213.33,56.06 215.75,55.42 217.42,55.4C218.64,55.38 219.35,55.72 220.61,55.71C222.47,55.7 226.23,55.22 227.48,54.97C227.96,54.87 228.09,54.78 228.47,54.68C228.96,54.56 229.45,54.4 230.18,54.31C231.43,54.15 234.3,54.17 235.34,54.12C235.8,54.1 235.87,54.09 236.32,54.06C237.36,54 240.85,53.77 241.47,53.75C241.61,53.75 241.59,53.76 241.72,53.75C242.23,53.73 244.37,53.57 245.4,53.42C246.16,53.31 246.75,53.1 247.36,53.01C247.88,52.93 248.29,52.93 248.83,52.86C249.49,52.77 250.5,52.59 251.04,52.49C251.35,52.43 251.41,52.36 251.78,52.33C252.78,52.25 256.15,52.54 257.42,52.6C258.07,52.63 258.49,52.63 258.9,52.66C259.19,52.68 259.33,52.75 259.63,52.75C260.13,52.74 261.02,52.54 261.6,52.45C262.06,52.38 262.39,52.29 262.82,52.24C263.29,52.19 263.78,52.2 264.29,52.15C264.84,52.09 266.01,51.91 266.01,51.91C266.01,51.91 266.01,51.91 266.01,51.91C266.01,51.91 267.82,51.34 268.71,51.2C269.54,51.07 270.46,51.15 271.17,51.07C271.72,51.01 272.28,50.87 272.64,50.83C272.85,50.8 273,50.79 273.13,50.79C273.22,50.79 273.25,50.82 273.37,50.82C273.78,50.82 275.24,50.45 276.07,50.43C276.78,50.41 277.38,50.61 278.04,50.6Q278.69,50.59 280,50.37" style="vector-effect: non-scaling-stroke; fill: none; stroke: rgb(153, 51, 0); stroke-opacity: 1; stroke-width: 5px; opacity: 1;"/></g><g class="points"/><g class="text"/></g><g class="trace scatter trace10034f" style="stroke-miterlimit: 2; opacity: 1;"><g class="fills"/><g class="errorbars"/><g class="lines"><path class="js-line" d="M0,49.66Q2.93,44.95 4.66,44.29C6.03,43.77 7.87,44.94 9.08,44.86C9.95,44.8 10.82,44.39 11.29,44.28C11.51,44.23 11.52,44.19 11.78,44.17C12.78,44.09 17.48,44.29 19.14,44.59C20.01,44.75 20.36,45.06 21.1,45.2C22.03,45.37 23.23,45.42 24.29,45.41C25.35,45.4 26.33,44.87 27.48,45.15C29.1,45.54 31.3,47.92 32.88,48.46C33.96,48.83 34.62,48.68 35.83,48.76C37.73,48.88 41.68,48.76 43.19,48.98C43.88,49.08 44.14,49.22 44.66,49.38C45.27,49.57 45.93,49.9 46.63,50.09C47.39,50.29 48.14,50.32 49.08,50.52C50.39,50.8 52.77,51.4 53.74,51.68C54.19,51.81 54.45,51.91 54.72,52.01C54.91,52.08 54.99,52.12 55.21,52.21C55.65,52.39 56.64,52.77 57.18,52.99C57.56,53.15 57.72,53.22 58.16,53.4C59.03,53.77 60.84,54.59 62.09,55.06C63.2,55.47 64.82,55.95 65.28,56.1C65.41,56.14 65.39,56.15 65.52,56.18C66.04,56.32 68.66,56.87 69.45,56.99C69.79,57.04 69.88,57.04 70.18,57.06C70.63,57.09 71.5,57.11 71.9,57.13C72.11,57.14 72.14,57.14 72.39,57.15C73.2,57.2 76.42,57.46 77.55,57.54C78.1,57.58 78.41,57.61 78.77,57.62C79.05,57.63 79.16,57.61 79.51,57.61C80.33,57.6 82.7,57.6 83.68,57.55C84.21,57.52 84.42,57.52 84.91,57.45C85.64,57.35 86.61,57.2 87.61,56.92C88.91,56.56 90.55,55.94 92.02,55.3C93.57,54.63 95.62,53.26 96.69,52.97C97.21,52.83 97.42,52.92 97.91,52.9C98.63,52.87 99.48,52.85 100.61,52.84C102.5,52.83 108.22,52.93 108.22,52.93C108.22,52.93 108.22,52.93 108.22,52.93C108.22,52.93 113.37,53.2 113.37,53.2C113.37,53.2 113.37,53.2 113.37,53.2C113.37,53.2 113.88,53.11 114.36,53.07C115.68,52.95 119.19,52.65 121.72,52.72C124.42,52.8 127.55,53.47 130.06,53.59C132.12,53.69 134.52,53.6 135.71,53.56C136.27,53.54 136.37,53.53 136.93,53.48C138.22,53.36 141.55,52.89 143.31,52.74C144.55,52.63 145.69,52.44 146.5,52.55C147.01,52.62 147.18,52.83 147.73,52.98C148.82,53.28 151.42,53.74 152.64,53.99C153.36,54.14 153.63,54.23 154.36,54.34C155.61,54.52 157.59,54.65 159.51,54.81C161.96,55.02 165.96,55.33 167.85,55.47C168.82,55.54 169.37,55.59 170.06,55.63C170.67,55.66 171.12,55.7 171.78,55.69C172.68,55.68 174.28,55.5 174.97,55.49C175.3,55.48 175.39,55.51 175.71,55.51C176.33,55.51 177.48,55.47 178.4,55.43C179.36,55.39 180.2,55.38 181.35,55.29C182.98,55.16 185.93,54.67 187.24,54.65C187.89,54.64 188.02,54.7 188.71,54.76C190.39,54.92 195.03,55.54 197.3,55.73C198.78,55.85 199.85,55.95 200.98,55.93C201.95,55.92 202.72,55.85 203.68,55.71C204.82,55.54 206.09,55.04 207.36,54.92C208.7,54.8 210.02,55.08 211.53,55.03C213.33,54.97 215.76,54.67 217.42,54.47C218.65,54.32 219.35,54.21 220.61,54.01C222.47,53.72 226.22,52.98 227.48,52.84C227.96,52.79 228.1,52.8 228.47,52.79C228.96,52.78 229.46,52.8 230.18,52.79C231.44,52.77 234.3,52.59 235.34,52.59C235.79,52.59 235.87,52.6 236.32,52.62C237.36,52.67 240.85,52.93 241.47,52.94C241.61,52.94 241.59,52.94 241.72,52.93C242.23,52.9 244.37,52.78 245.4,52.7C246.16,52.64 246.75,52.57 247.36,52.52C247.89,52.47 248.29,52.43 248.83,52.4C249.49,52.36 250.5,52.3 251.04,52.31C251.35,52.31 251.42,52.37 251.78,52.36C252.78,52.34 256.15,51.95 257.42,51.78C258.07,51.69 258.49,51.6 258.9,51.54C259.19,51.5 259.33,51.44 259.63,51.46C260.13,51.49 261.02,51.8 261.6,51.89C262.05,51.96 262.39,51.97 262.82,52.02C263.29,52.07 263.78,52.14 264.29,52.2C264.84,52.26 266.01,52.37 266.01,52.37C266.01,52.37 266.01,52.37 266.01,52.37C266.01,52.37 267.83,52.29 268.71,52.24C269.55,52.2 270.46,52.17 271.17,52.1C271.72,52.05 272.28,51.94 272.64,51.91C272.85,51.89 273,51.9 273.13,51.9C273.22,51.9 273.25,51.89 273.37,51.9C273.78,51.95 275.24,52.42 276.07,52.56C276.77,52.68 277.38,52.68 278.04,52.75Q278.69,52.82 280,52.97" style="vector-effect: non-scaling-stroke; fill: none; stroke: rgb(1, 27, 58); stroke-opacity: 1; stroke-width: 5px; opacity: 1;"/></g><g class="points"/><g class="text"/></g></g></g><g class="overplot"/><path class="xlines-above crisp" d="M0,0" style="fill: none;"/><path class="ylines-above crisp" d="M0,0" style="fill: none;"/><g class="overlines-above"/><g class="xaxislayer-above"/><g class="yaxislayer-above"/><g class="overaxes-above"/></g></g><g class="polarlayer"/><g class="smithlayer"/><g class="ternarylayer"/><g class="geolayer"/><g class="funnelarealayer"/><g class="pielayer"/><g class="iciclelayer"/><g class="treemaplayer"/><g class="sunburstlayer"/><g class="glimages"/><defs id="topdefs-9cf9f6"><g class="clips"/></defs><g class="layer-above"><g class="imagelayer"/><g class="shapelayer"/></g><g class="infolayer"><g class="g-gtitle"><text class="gtitle" x="15" y="25" text-anchor="start" dy="0em" style="font-family: Ubuntu, verdana, arial, sans-serif; font-size: 16px; fill: rgb(233, 84, 32); opacity: 1; font-weight: normal; white-space: pre;">NRSR 2020-2023</text></g><g class="g-xtitle"/><g class="g-ytitle"/></g></svg>