<svg class="main-svg" xmlns="http://www.w3.org/2000/svg" xmlns:xlink="http://www.w3.org/1999/xlink" width="400" height="400" style="" viewBox="0 0 400 400"><rect x="0" y="0" width="400" height="400" style="fill: rgb(255, 255, 255); fill-opacity: 1;"/><defs id="defs-382ebc"><g class="clips"><clipPath id="clip382ebcxyplot" class="plotclip"><rect width="196" height="330"/></clipPath><clipPath class="axesclip" id="clip382ebcx"><rect x="50" y="0" width="196" height="400"/></clipPath><clipPath class="axesclip" id="clip382ebcy"><rect x="0" y="20" width="400" height="330"/></clipPath><clipPath class="axesclip" id="clip382ebcxy"><rect x="50" y="20" width="196" height="330"/></clipPath></g><g class="gradients"/><g class="patterns"/></defs><g class="bglayer"/><g class="layer-below"><g class="imagelayer"/><g class="shapelayer"/></g><g class="cartesianlayer"><g class="subplot xy"><g class="layer-subplot"><g class="shapelayer"/><g class="imagelayer"/></g><g class="minor-gridlayer"><g class="x"/><g class="y"/></g><g class="gridlayer"><g class="x"><path class="xgrid crisp" transform="translate(64.96000000000001,0)" d="M0,20v330" style="stroke: rgb(235, 240, 248); stroke-opacity: 1; stroke-width: 1px;"/><path class="xgrid crisp" transform="translate(109.85,0)" d="M0,20v330" style="stroke: rgb(235, 240, 248); stroke-opacity: 1; stroke-width: 1px;"/><path class="xgrid crisp" transform="translate(156.23000000000002,0)" d="M0,20v330" style="stroke: rgb(235, 240, 248); stroke-opacity: 1; stroke-width: 1px;"/><path class="xgrid crisp" transform="translate(202.61,0)" d="M0,20v330" style="stroke: rgb(235, 240, 248); stroke-opacity: 1; stroke-width: 1px;"/></g><g class="y"><path class="ygrid crisp" transform="translate(0,313.82)" d="M50,0h196" style="stroke: rgb(235, 240, 248); stroke-opacity: 1; stroke-width: 1px;"/><path class="ygrid crisp" transform="translate(0,277.64)" d="M50,0h196" style="stroke: rgb(235, 240, 248); stroke-opacity: 1; stroke-width: 1px;"/><path class="ygrid crisp" transform="translate(0,241.47)" d="M50,0h196" style="stroke: rgb(235, 240, 248); stroke-opacity: 1; stroke-width: 1px;"/><path class="ygrid crisp" transform="translate(0,205.29)" d="M50,0h196" style="stroke: rgb(235, 240, 248); stroke-opacity: 1; stroke-width: 1px;"/><path class="ygrid crisp" transform="translate(0,169.11)" d="M50,0h196" style="stroke: rgb(235, 240, 248); stroke-opacity: 1; stroke-width: 1px;"/><path class="ygrid crisp" transform="translate(0,132.93)" d="M50,0h196" style="stroke: rgb(235, 240, 248); stroke-opacity: 1; stroke-width: 1px;"/><path class="ygrid crisp" transform="translate(0,96.76)" d="M50,0h196" style="stroke: rgb(235, 240, 248); stroke-opacity: 1; stroke-width: 1px;"/><path class="ygrid crisp" transform="translate(0,60.58)" d="M50,0h196" style="stroke: rgb(235, 240, 248); stroke-opacity: 1; stroke-width: 1px;"/><path class="ygrid crisp" transform="translate(0,24.4)" d="M50,0h196" style="stroke: rgb(235, 240, 248); stroke-opacity: 1; stroke-width: 1px;"/></g></g><g class="zerolinelayer"><path class="yzl zl crisp" transform="translate(0,350)" d="M50,0h196" style="stroke: rgb(235, 240, 248); stroke-opacity: 1; stroke-width: 2px;"/></g><path class="xlines-below"/><path class="ylines-below"/><g class="overlines-below"/><g class="xaxislayer-below"/><g class="yaxislayer-below"/><g class="overaxes-below"/><g class="plot" transform="translate(50,20)" clip-path="url(#clip382ebcxyplot)"><g class="scatterlayer mlayer"><g class="trace scatter tracee408c4" style="stroke-miterlimit: 2; opacity: 1;"><g class="fills"/><g class="errorbars"/><g class="lines"><path class="js-line" d="M0,87.79L1.5,93.11L2.99,91.05L4.49,87.3L5.98,87.55L7.48,86.57L8.98,88.93L10.47,86.57L11.97,86.57L16.46,87.64L17.95,92.7L20.95,97.95L22.44,97.57L26.93,101.53L28.43,99.64L32.92,99.64L34.41,102.08L35.91,102.08L37.4,97.63L38.9,97.63L40.4,95.35L41.89,107.15L43.39,105.76L44.89,110.27L46.38,110.27L49.37,109.35L50.87,109.35L55.36,108.6L56.85,115.88L59.85,120.21L61.34,120.88L70.32,121.64L71.82,121.64L74.81,119.68L76.31,119.68L77.8,118.9L79.3,105.98L80.79,100.34L82.29,100.3L85.28,98.21L86.78,98.21L89.77,98.21L91.27,94.84L92.76,91.19L94.26,91L97.25,89.56L98.75,84.06L104.73,84.06L106.23,80.86L109.22,80.86L110.72,74.35L113.71,74.35L115.21,54.01L121.19,16.5L122.69,16.5L124.18,16.5L125.68,20.22L127.18,20.22L128.67,18.38L131.66,19.32L133.16,23.28L137.65,24.29" style="vector-effect: none; fill: none; stroke: rgb(238, 58, 67); stroke-opacity: 1; stroke-width: 5px; opacity: 1;"/></g><g class="points"/><g class="text"/></g><g class="trace scatter trace83598d" style="stroke-miterlimit: 2; opacity: 1;"><g class="fills"/><g class="errorbars"/><g class="lines"><path class="js-line" d="M0,196.79L1.5,191.56L2.99,180.62L4.49,171.76L5.98,145.54L7.48,144.8L8.98,151.14L10.47,144.8L11.97,144.8L14.96,144.8L16.46,143.38L19.45,109.93L20.95,115.8L23.94,105.31L25.44,103.95L26.93,110.31L28.43,104.11L32.92,104.11L34.41,106.51L35.91,106.51L37.4,102.14L38.9,102.14L40.4,104.38L44.89,83.35L46.38,83.35L49.37,82.31L50.87,82.31L53.86,82.31L55.36,80.92L59.85,93.41L61.34,95.29L68.82,101.08L70.32,100.44L76.31,100.48L77.8,103.53L79.3,99.79L80.79,100.34L89.77,100.18L91.27,97.84L94.26,90.85L95.76,92.32L97.25,93.75L98.75,92.54L109.22,93.75L110.72,96.39L113.71,96.39L115.21,104.61L118.2,101.02L119.69,101.36L121.19,103.87L122.69,103.87L124.18,103.87L125.68,86.6L127.18,86.6L128.67,89.45L131.66,85.89L133.16,77.75L137.65,76.2" style="vector-effect: none; fill: none; stroke: rgb(0, 180, 219); stroke-opacity: 1; stroke-width: 5px; opacity: 1;"/></g><g class="points"/><g class="text"/></g><g class="trace scatter trace208002" style="stroke-miterlimit: 2; opacity: 1;"><g class="fills"/><g class="errorbars"/><g class="lines"><path class="js-line" d="M0,63.57L1.5,63.5L2.99,78.84L4.49,87.3L5.98,110.56L7.48,109.68L8.98,98.98L10.47,109.68L11.97,109.68L16.46,110.64L17.95,122.13L19.45,132.54L20.95,127.48L25.44,125.72L26.93,126.01L32.92,125.87L34.41,128.03L40.4,127.48L41.89,121.22L43.39,125.09L44.89,125.18L53.86,124.32L55.36,130.74L59.85,99.83L61.34,97.33L65.83,93.79L67.33,89.9L71.82,89.23L73.31,84.25L74.81,80.09L76.31,80.09L77.8,76.58L79.3,83.56L80.79,87.44L82.29,87.4L85.28,89.62L86.78,89.62L89.77,89.62L91.27,94.84L94.26,104.96L95.76,104.27L97.25,103.61L98.75,100.45L109.22,101.62L110.72,104.18L113.71,104.18L115.21,115.34L121.19,146.08L122.69,146.08L124.18,146.08L125.68,159.62L128.67,158.61L131.66,161.24L133.16,165.42L136.15,165.96L137.65,165.96" style="vector-effect: none; fill: none; stroke: rgb(138, 44, 81); stroke-opacity: 1; stroke-width: 5px; opacity: 1;"/></g><g class="points"/><g class="text"/></g><g class="trace scatter trace2fe234" style="stroke-miterlimit: 2; opacity: 1;"><g class="fills"/><g class="errorbars"/><g class="lines"><path class="js-line" d="M0,294.48L1.5,294.47L2.99,285.22L4.49,284.52L5.98,286.06L7.48,288.01L8.98,293.04L10.47,288.01L11.97,288.01L16.46,288.19L17.95,289.96L20.95,292.87L22.44,291.68L31.42,291.23L32.92,291.23L41.89,293.65L43.39,296.04L44.89,299.8L46.38,299.8L47.88,302.7L49.37,302.7L53.86,302.7L55.36,300.11L56.85,299.49L58.35,303.92L68.82,304.03L70.32,305.44L71.82,305.44L73.31,309.57L74.81,311.97L76.31,311.97L82.29,316.31L83.79,316.3L91.27,316.89L92.76,317.74L97.25,317.55L98.75,319.41L109.22,320.21L110.72,321.53L115.21,322.49" style="vector-effect: none; fill: none; stroke: rgb(1, 27, 58); stroke-opacity: 1; stroke-width: 5px; opacity: 1;"/></g><g class="points"/><g class="text"/></g></g></g><g class="overplot"/><path class="xlines-above crisp" d="M0,0" style="fill: none;"/><path class="ylines-above crisp" d="M0,0" style="fill: none;"/><g class="overlines-above"/><g class="xaxislayer-above"><g class="xtick"><text text-anchor="middle" x="0" y="363" transform="translate(64.96000000000001,0)" style="font-family: 'Open Sans', verdana, arial, sans-serif; font-size: 12px; fill: rgb(42, 63, 95); fill-opacity: 1; white-space: pre; opacity: 1;">1.6.23</text></g><g class="xtick"><text text-anchor="middle" x="0" y="363" style="font-family: 'Open Sans', verdana, arial, sans-serif; font-size: 12px; fill: rgb(42, 63, 95); fill-opacity: 1; white-space: pre; opacity: 1;" transform="translate(109.85,0)">1.7.23</text></g><g class="xtick"><text text-anchor="middle" x="0" y="363" style="font-family: 'Open Sans', verdana, arial, sans-serif; font-size: 12px; fill: rgb(42, 63, 95); fill-opacity: 1; white-space: pre; opacity: 1;" transform="translate(156.23000000000002,0)">1.8.23</text></g><g class="xtick"><text text-anchor="middle" x="0" y="363" style="font-family: 'Open Sans', verdana, arial, sans-serif; font-size: 12px; fill: rgb(42, 63, 95); fill-opacity: 1; white-space: pre; opacity: 1;" transform="translate(202.61,0)">1.9.23</text></g></g><g class="yaxislayer-above"><g class="ytick"><text text-anchor="end" x="49" y="4.199999999999999" transform="translate(0,350)" style="font-family: 'Open Sans', verdana, arial, sans-serif; font-size: 12px; fill: rgb(42, 63, 95); fill-opacity: 1; white-space: pre; opacity: 1;">0%</text></g><g class="ytick"><text text-anchor="end" x="49" y="4.199999999999999" style="font-family: 'Open Sans', verdana, arial, sans-serif; font-size: 12px; fill: rgb(42, 63, 95); fill-opacity: 1; white-space: pre; opacity: 1;" transform="translate(0,313.82)">5%</text></g><g class="ytick"><text text-anchor="end" x="49" y="4.199999999999999" style="font-family: 'Open Sans', verdana, arial, sans-serif; font-size: 12px; fill: rgb(42, 63, 95); fill-opacity: 1; white-space: pre; opacity: 1;" transform="translate(0,277.64)">10%</text></g><g class="ytick"><text text-anchor="end" x="49" y="4.199999999999999" style="font-family: 'Open Sans', verdana, arial, sans-serif; font-size: 12px; fill: rgb(42, 63, 95); fill-opacity: 1; white-space: pre; opacity: 1;" transform="translate(0,241.47)">15%</text></g><g class="ytick"><text text-anchor="end" x="49" y="4.199999999999999" style="font-family: 'Open Sans', verdana, arial, sans-serif; font-size: 12px; fill: rgb(42, 63, 95); fill-opacity: 1; white-space: pre; opacity: 1;" transform="translate(0,205.29)">20%</text></g><g class="ytick"><text text-anchor="end" x="49" y="4.199999999999999" style="font-family: 'Open Sans', verdana, arial, sans-serif; font-size: 12px; fill: rgb(42, 63, 95); fill-opacity: 1; white-space: pre; opacity: 1;" transform="translate(0,169.11)">25%</text></g><g class="ytick"><text text-anchor="end" x="49" y="4.199999999999999" style="font-family: 'Open Sans', verdana, arial, sans-serif; font-size: 12px; fill: rgb(42, 63, 95); fill-opacity: 1; white-space: pre; opacity: 1;" transform="translate(0,132.93)">30%</text></g><g class="ytick"><text text-anchor="end" x="49" y="4.199999999999999" style="font-family: 'Open Sans', verdana, arial, sans-serif; font-size: 12px; fill: rgb(42, 63, 95); fill-opacity: 1; white-space: pre; opacity: 1;" transform="translate(0,96.76)">35%</text></g><g class="ytick"><text text-anchor="end" x="49" y="4.199999999999999" style="font-family: 'Open Sans', verdana, arial, sans-serif; font-size: 12px; fill: rgb(42, 63, 95); fill-opacity: 1; white-space: pre; opacity: 1;" transform="translate(0,60.58)">40%</text></g><g class="ytick"><text text-anchor="end" x="49" y="4.199999999999999" style="font-family: 'Open Sans', verdana, arial, sans-serif; font-size: 12px; fill: rgb(42, 63, 95); fill-opacity: 1; white-space: pre; opacity: 1;" transform="translate(0,24.4)">45%</text></g></g><g class="overaxes-above"/></g></g><g class="polarlayer"/><g class="smithlayer"/><g class="ternarylayer"/><g class="geolayer"/><g class="funnelarealayer"/><g class="pielayer"/><g class="iciclelayer"/><g class="treemaplayer"/><g class="sunburstlayer"/><g class="glimages"/><defs id="topdefs-382ebc"><g class="clips"/><clipPath id="legend382ebc"><rect width="138" height="86" x="0" y="0"/></clipPath></defs><g class="layer-above"><g class="imagelayer"/><g class="shapelayer"/></g><g class="infolayer"><g class="legend" pointer-events="all" transform="translate(249.92000000000002,20)"><rect class="bg" shape-rendering="crispEdges" width="138" height="86" x="0" y="0" style="stroke: rgb(68, 68, 68); stroke-opacity: 1; fill: rgb(255, 255, 255); fill-opacity: 1; stroke-width: 0px;"/><g class="scrollbox" transform="" clip-path="url(#legend382ebc)"><g class="groups"><g class="traces" transform="translate(0,14.5)" style="opacity: 1;"><text class="legendtext" text-anchor="start" x="40" y="4.680000000000001" style="font-family: 'Open Sans', verdana, arial, sans-serif; font-size: 12px; fill: rgb(42, 63, 95); fill-opacity: 1; white-space: pre;">Fico Robert</text><g class="layers" style="opacity: 1;"><g class="legendfill"/><g class="legendlines"><path class="js-line" d="M5,0h30" style="fill: none; stroke: rgb(238, 58, 67); stroke-opacity: 1; stroke-width: 5px;"/></g><g class="legendsymbols"><g class="legendpoints"/></g></g><rect class="legendtoggle" x="0" y="-9.5" width="132.859375" height="19" style="fill: rgb(0, 0, 0); fill-opacity: 0;"/></g><g class="traces" transform="translate(0,33.5)" style="opacity: 1;"><text class="legendtext" text-anchor="start" x="40" y="4.680000000000001" style="font-family: 'Open Sans', verdana, arial, sans-serif; font-size: 12px; fill: rgb(42, 63, 95); fill-opacity: 1; white-space: pre;">Šimečka Michal</text><g class="layers" style="opacity: 1;"><g class="legendfill"/><g class="legendlines"><path class="js-line" d="M5,0h30" style="fill: none; stroke: rgb(0, 180, 219); stroke-opacity: 1; stroke-width: 5px;"/></g><g class="legendsymbols"><g class="legendpoints"/></g></g><rect class="legendtoggle" x="0" y="-9.5" width="132.859375" height="19" style="fill: rgb(0, 0, 0); fill-opacity: 0;"/></g><g class="traces" transform="translate(0,52.5)" style="opacity: 1;"><text class="legendtext" text-anchor="start" x="40" y="4.680000000000001" style="font-family: 'Open Sans', verdana, arial, sans-serif; font-size: 12px; fill: rgb(42, 63, 95); fill-opacity: 1; white-space: pre;">Pellegrini Peter</text><g class="layers" style="opacity: 1;"><g class="legendfill"/><g class="legendlines"><path class="js-line" d="M5,0h30" style="fill: none; stroke: rgb(138, 44, 81); stroke-opacity: 1; stroke-width: 5px;"/></g><g class="legendsymbols"><g class="legendpoints"/></g></g><rect class="legendtoggle" x="0" y="-9.5" width="132.859375" height="19" style="fill: rgb(0, 0, 0); fill-opacity: 0;"/></g><g class="traces" transform="translate(0,71.5)" style="opacity: 1;"><text class="legendtext" text-anchor="start" x="40" y="4.680000000000001" style="font-family: 'Open Sans', verdana, arial, sans-serif; font-size: 12px; fill: rgb(42, 63, 95); fill-opacity: 1; white-space: pre;">Kollár Boris</text><g class="layers" style="opacity: 1;"><g class="legendfill"/><g class="legendlines"><path class="js-line" d="M5,0h30" style="fill: none; stroke: rgb(1, 27, 58); stroke-opacity: 1; stroke-width: 5px;"/></g><g class="legendsymbols"><g class="legendpoints"/></g></g><rect class="legendtoggle" x="0" y="-9.5" width="132.859375" height="19" style="fill: rgb(0, 0, 0); fill-opacity: 0;"/></g></g></g><rect class="scrollbar" rx="20" ry="3" width="0" height="0" x="0" y="0" style="fill: rgb(128, 139, 164); fill-opacity: 1;"/></g><g class="g-gtitle"/><g class="g-xtitle"/><g class="g-ytitle"/></g></svg>