<svg class="main-svg" xmlns="http://www.w3.org/2000/svg" xmlns:xlink="http://www.w3.org/1999/xlink" width="300" height="135" style="" viewBox="0 0 300 135"><rect x="0" y="0" width="300" height="135" style="fill: rgb(255, 255, 255); fill-opacity: 1;"/><defs id="defs-e69af4"><g class="clips"><clipPath id="clipe69af4xyplot" class="plotclip"><rect width="280" height="75"/></clipPath><clipPath class="axesclip" id="clipe69af4x"><rect x="10" y="0" width="280" height="135"/></clipPath><clipPath class="axesclip" id="clipe69af4y"><rect x="0" y="50" width="300" height="75"/></clipPath><clipPath class="axesclip" id="clipe69af4xy"><rect x="10" y="50" width="280" height="75"/></clipPath></g><g class="gradients"/><g class="patterns"/></defs><g class="bglayer"/><g class="layer-below"><g class="imagelayer"/><g class="shapelayer"/></g><g class="cartesianlayer"><g class="subplot xy"><g class="layer-subplot"><g class="shapelayer"/><g class="imagelayer"/></g><g class="gridlayer"><g class="x"><path class="xgrid crisp" transform="translate(81.99,0)" d="M0,50v75" style="stroke: rgb(235, 240, 248); stroke-opacity: 1; stroke-width: 1px;"/><path class="xgrid crisp" transform="translate(167.59,0)" d="M0,50v75" style="stroke: rgb(235, 240, 248); stroke-opacity: 1; stroke-width: 1px;"/><path class="xgrid crisp" transform="translate(253.18,0)" d="M0,50v75" style="stroke: rgb(235, 240, 248); stroke-opacity: 1; stroke-width: 1px;"/></g><g class="y"><path class="ygrid crisp" transform="translate(0,109.62)" d="M10,0h280" style="stroke: rgb(235, 240, 248); stroke-opacity: 1; stroke-width: 1px;"/><path class="ygrid crisp" transform="translate(0,94.25)" d="M10,0h280" style="stroke: rgb(235, 240, 248); stroke-opacity: 1; stroke-width: 1px;"/><path class="ygrid crisp" transform="translate(0,78.87)" d="M10,0h280" style="stroke: rgb(235, 240, 248); stroke-opacity: 1; stroke-width: 1px;"/><path class="ygrid crisp" transform="translate(0,63.5)" d="M10,0h280" style="stroke: rgb(235, 240, 248); stroke-opacity: 1; stroke-width: 1px;"/></g></g><g class="zerolinelayer"><path class="yzl zl crisp" transform="translate(0,125)" d="M10,0h280" style="stroke: rgb(235, 240, 248); stroke-opacity: 1; stroke-width: 2px;"/></g><path class="xlines-below"/><path class="ylines-below"/><g class="overlines-below"/><g class="xaxislayer-below"/><g class="yaxislayer-below"/><g class="overaxes-below"/><g class="plot" transform="translate(10,50)" clip-path="url(#clipe69af4xyplot)"><g class="scatterlayer mlayer"><g class="trace scatter trace49a1ed" style="stroke-miterlimit: 2; opacity: 1;"><g class="fills"/><g class="errorbars"/><g class="lines"><path class="js-line" d="M0,18.76Q2.74,13.41 4.46,12.59C5.74,11.98 7.52,12.66 8.68,12.83C9.51,12.95 10.34,13.32 10.79,13.34C11,13.35 11.01,13.26 11.26,13.27C12.23,13.32 16.73,14.42 18.29,15.12C19.16,15.51 19.51,15.81 20.17,16.38C21.11,17.2 22.23,18.55 23.22,19.76C24.27,21.05 25.2,22.14 26.26,23.9C27.87,26.58 29.85,31.94 31.42,34.59C32.42,36.28 32.94,37.29 34.24,38.54C35.95,40.18 39.81,42.28 41.27,43.13C41.91,43.5 42.18,43.58 42.68,43.85C43.27,44.17 43.89,44.61 44.56,44.93C45.29,45.28 45.99,45.53 46.9,45.84C48.14,46.26 50.42,46.92 51.36,47.11C51.78,47.2 52.03,47.23 52.29,47.23C52.47,47.23 52.55,47.18 52.76,47.18C53.18,47.17 54.12,47.31 54.64,47.33C55.01,47.34 55.17,47.27 55.58,47.31C56.42,47.39 58.14,48.07 59.33,48.14C60.39,48.2 61.94,47.86 62.38,47.84C62.5,47.83 62.49,47.85 62.61,47.84C63.11,47.81 65.61,47.39 66.37,47.36C66.7,47.35 66.79,47.36 67.07,47.39C67.5,47.43 68.33,47.57 68.71,47.63C68.91,47.66 68.94,47.68 69.18,47.7C69.95,47.77 73.02,47.87 74.1,47.86C74.63,47.86 74.94,47.81 75.28,47.8C75.54,47.79 75.65,47.8 75.98,47.78C76.77,47.74 79.04,47.55 79.97,47.47C80.48,47.43 80.68,47.43 81.14,47.37C81.83,47.28 82.76,47.08 83.72,46.89C84.96,46.64 86.53,46.39 87.94,45.97C89.42,45.53 91.39,44.59 92.4,44.26C92.91,44.1 93.1,44.04 93.57,43.95C94.26,43.82 95.09,43.88 96.15,43.62C97.98,43.18 103.42,40.97 103.42,40.97C103.42,40.97 103.42,40.97 103.42,40.97C103.42,40.97 108.34,38.79 108.34,38.79C108.34,38.79 108.34,38.79 108.34,38.79C108.34,38.79 108.82,38.93 109.28,38.96C110.53,39.05 113.93,39.19 116.31,38.76C118.92,38.28 121.95,37.13 124.29,36.01C126.32,35.04 128.52,33.19 129.68,32.64C130.19,32.4 130.31,32.43 130.85,32.25C132.09,31.83 135.28,30.79 136.95,30.13C138.15,29.66 139.21,28.9 140,28.79C140.47,28.73 140.65,28.85 141.17,28.96C142.22,29.18 144.69,30.15 145.86,30.27C146.54,30.34 146.81,30.18 147.5,30.17C148.7,30.16 150.6,30.47 152.43,30.37C154.77,30.24 158.6,29.54 160.4,29.13C161.34,28.92 161.84,28.62 162.51,28.5C163.08,28.4 163.52,28.41 164.15,28.4C165.01,28.39 166.54,28.5 167.2,28.48C167.52,28.47 167.6,28.42 167.91,28.42C168.5,28.42 169.62,28.51 170.49,28.64C171.41,28.77 172.2,29.07 173.3,29.21C174.85,29.41 177.68,29.41 178.93,29.52C179.56,29.58 179.67,29.62 180.34,29.7C181.94,29.89 186.38,30.59 188.54,30.56C189.96,30.54 190.98,30.19 192.06,30.08C192.98,29.99 193.71,29.97 194.64,29.93C195.72,29.89 196.95,29.92 198.16,29.85C199.45,29.77 200.7,29.64 202.14,29.45C203.86,29.23 206.17,28.72 207.77,28.56C208.94,28.44 209.61,28.49 210.82,28.41C212.6,28.29 216.19,27.94 217.39,27.81C217.84,27.76 217.97,27.74 218.32,27.7C218.79,27.65 219.27,27.62 219.97,27.54C221.17,27.41 223.89,27.02 224.89,26.94C225.33,26.91 225.4,26.95 225.83,26.91C226.83,26.82 230.16,26.25 230.75,26.15C230.88,26.13 230.86,26.13 230.99,26.11C231.48,26.03 233.52,25.75 234.51,25.58C235.23,25.45 235.8,25.33 236.38,25.21C236.88,25.1 237.27,25.01 237.79,24.89C238.42,24.74 239.39,24.49 239.9,24.37C240.2,24.3 240.26,24.28 240.6,24.21C241.55,24.01 244.79,23.4 246,23.12C246.62,22.98 247.02,22.91 247.4,22.75C247.69,22.63 247.81,22.49 248.11,22.33C248.58,22.07 249.41,21.57 249.98,21.41C250.41,21.29 250.76,21.38 251.16,21.28C251.61,21.17 252.08,20.95 252.56,20.74C253.09,20.5 254.2,19.91 254.2,19.91C254.2,19.91 254.2,19.91 254.2,19.91C254.2,19.91 256.81,19.74 257.72,19.78C258.3,19.8 258.66,19.9 259.13,19.95C259.6,20 260.2,20.07 260.54,20.07C260.74,20.07 260.88,20.04 261.01,20.03C261.1,20.02 261.12,20.03 261.24,20.01C261.64,19.94 263.02,19.35 263.82,19.3C264.49,19.26 265.07,19.48 265.7,19.57C266.32,19.66 267.1,19.79 267.57,19.83C267.86,19.85 268.02,19.86 268.27,19.84C268.56,19.82 268.8,19.77 269.21,19.69C270.01,19.53 271.93,19.06 272.73,18.86C273.14,18.75 273.32,18.63 273.67,18.6C274.09,18.56 274.55,18.71 275.08,18.7C275.76,18.68 276.66,18.55 277.42,18.42C278.14,18.3 279.08,18.02 279.53,17.96Q279.74,17.93 280,17.93" style="vector-effect: non-scaling-stroke; fill: none; stroke: rgb(238, 58, 67); stroke-opacity: 1; stroke-width: 5px; opacity: 1;"/></g><g class="points"/><g class="text"/></g><g class="trace scatter trace2a2e7c" style="stroke-miterlimit: 2; opacity: 1;"><g class="fills"/><g class="errorbars"/><g class="lines"><path class="js-line" d="M31.42,40.13Q32.96,36.29 34.24,34.1C35.97,31.15 39.74,25.9 41.27,24.27C41.86,23.64 42.18,23.54 42.68,23.12C43.26,22.64 43.91,22.13 44.56,21.54C45.31,20.85 46,20.12 46.9,19.21C48.15,17.94 50.42,15.53 51.36,14.61C51.78,14.2 52.03,13.97 52.29,13.75C52.47,13.6 52.56,13.57 52.76,13.4C53.18,13.04 54.11,12.09 54.64,11.64C55,11.34 55.13,11.1 55.58,10.93C56.39,10.63 58.15,10.81 59.33,10.69C60.4,10.58 61.94,10.37 62.38,10.26C62.5,10.23 62.49,10.22 62.61,10.17C63.11,9.99 65.61,9.08 66.37,8.84C66.69,8.74 66.79,8.75 67.07,8.65C67.51,8.49 68.33,8.04 68.71,7.89C68.91,7.81 68.94,7.8 69.18,7.73C69.95,7.5 73.03,6.79 74.1,6.47C74.63,6.31 74.93,6.14 75.28,6.07C75.54,6.02 75.65,6.07 75.98,6.02C76.77,5.91 79.05,5.47 79.97,5.18C80.49,5.02 80.66,4.81 81.14,4.68C81.82,4.5 82.76,4.5 83.72,4.37C84.96,4.21 86.52,3.73 87.94,3.75C89.41,3.77 91.39,4.37 92.4,4.52C92.91,4.6 93.1,4.63 93.57,4.66C94.26,4.71 95.08,4.57 96.15,4.71C97.97,4.95 103.42,6.48 103.42,6.48C103.42,6.48 103.42,6.48 103.42,6.48C103.42,6.48 108.34,7.79 108.34,7.79C108.34,7.79 108.34,7.79 108.34,7.79C108.34,7.79 108.82,7.95 109.28,8.1C110.54,8.52 113.92,9.52 116.31,10.5C118.92,11.56 121.86,13.36 124.29,14.32C126.23,15.09 128.53,15.79 129.68,16.02C130.2,16.12 130.31,16.1 130.85,16.12C132.09,16.17 135.27,16.28 136.95,16.12C138.15,16 139.22,15.54 140,15.52C140.48,15.51 140.65,15.6 141.17,15.7C142.21,15.9 144.69,16.55 145.86,16.75C146.54,16.87 146.81,16.83 147.5,16.96C148.71,17.18 150.61,17.59 152.43,18.14C154.79,18.86 158.59,20.49 160.4,21.11C161.32,21.43 161.85,21.56 162.51,21.78C163.09,21.98 163.51,22.35 164.15,22.38C165.01,22.42 166.54,21.71 167.2,21.54C167.52,21.46 167.6,21.46 167.91,21.37C168.5,21.2 169.61,20.75 170.49,20.49C171.4,20.22 172.21,20.1 173.3,19.79C174.86,19.35 177.67,18.32 178.93,17.98C179.55,17.81 179.68,17.82 180.34,17.66C181.94,17.28 186.38,16.24 188.54,15.66C189.96,15.27 190.97,14.83 192.06,14.61C192.98,14.42 193.71,14.37 194.64,14.31C195.72,14.24 196.96,14.17 198.16,14.27C199.45,14.38 200.71,14.63 202.14,14.99C203.87,15.42 206.16,16.64 207.77,16.79C208.93,16.9 209.61,16.53 210.82,16.41C212.59,16.23 216.19,15.96 217.39,15.89C217.84,15.86 217.97,15.89 218.32,15.85C218.79,15.79 219.27,15.6 219.97,15.52C221.17,15.38 223.89,15.42 224.89,15.37C225.33,15.35 225.39,15.31 225.83,15.3C226.83,15.29 230.16,15.52 230.75,15.55C230.88,15.56 230.86,15.55 230.99,15.56C231.48,15.59 233.52,15.72 234.51,15.82C235.23,15.89 235.8,15.96 236.38,16.05C236.88,16.13 237.28,16.2 237.79,16.34C238.43,16.51 239.39,16.88 239.9,17.06C240.2,17.16 240.26,17.17 240.6,17.3C241.56,17.65 244.78,19.04 246,19.44C246.61,19.64 247.01,19.7 247.4,19.8C247.68,19.87 247.81,19.95 248.11,19.99C248.58,20.06 249.43,19.98 249.98,20.03C250.42,20.07 250.76,20.11 251.16,20.23C251.62,20.37 252.08,20.62 252.56,20.87C253.09,21.14 254.2,21.81 254.2,21.81C254.2,21.81 254.2,21.81 254.2,21.81C254.2,21.81 256.81,22.71 257.72,23.06C258.3,23.28 258.66,23.47 259.13,23.65C259.6,23.83 260.2,24.03 260.54,24.14C260.74,24.2 260.88,24.24 261.01,24.28C261.1,24.31 261.12,24.32 261.24,24.36C261.64,24.49 263.02,25 263.82,25.18C264.49,25.33 265.07,25.34 265.7,25.43C266.32,25.52 267.1,25.65 267.57,25.73C267.86,25.78 268.02,25.83 268.27,25.85C268.56,25.87 268.8,25.81 269.21,25.82C270.01,25.84 271.93,26.01 272.73,26.11C273.14,26.16 273.32,26.24 273.67,26.26C274.09,26.28 274.55,26.22 275.08,26.17C275.76,26.11 276.66,25.9 277.42,25.89C278.14,25.88 279.08,26.11 279.53,26.08Q279.74,26.07 280,25.98" style="vector-effect: non-scaling-stroke; fill: none; stroke: rgb(138, 44, 81); stroke-opacity: 1; stroke-width: 5px; opacity: 1;"/></g><g class="points"/><g class="text"/></g><g class="trace scatter trace171b71" style="stroke-miterlimit: 2; opacity: 1;"><g class="fills"/><g class="errorbars"/><g class="lines"><path class="js-line" d="M0,53.6Q2.99,54.46 4.46,54.5C5.88,54.54 7.51,53.98 8.68,53.9C9.5,53.85 10.34,53.93 10.79,53.92C11,53.91 11.01,53.89 11.26,53.89C12.22,53.91 16.69,54.48 18.29,54.61C19.12,54.68 19.47,54.66 20.17,54.72C21.07,54.79 22.21,54.9 23.22,55.05C24.24,55.2 25.11,55.4 26.26,55.6C27.75,55.87 29.95,56.39 31.42,56.5C32.5,56.58 33.09,56.38 34.24,56.45C36.06,56.56 39.82,57.35 41.27,57.45C41.92,57.49 42.18,57.44 42.68,57.44C43.26,57.44 43.9,57.51 44.56,57.48C45.3,57.45 45.99,57.26 46.9,57.21C48.15,57.15 50.43,57.22 51.36,57.26C51.79,57.28 52.03,57.31 52.29,57.32C52.47,57.33 52.55,57.32 52.76,57.32C53.18,57.31 54.12,57.28 54.64,57.25C55.01,57.23 55.16,57.21 55.58,57.16C56.41,57.06 58.14,56.71 59.33,56.65C60.4,56.6 61.94,56.76 62.38,56.77C62.5,56.77 62.49,56.77 62.61,56.77C63.11,56.76 65.61,56.72 66.37,56.69C66.7,56.67 66.79,56.66 67.07,56.64C67.5,56.61 68.33,56.55 68.71,56.54C68.91,56.53 68.94,56.54 69.18,56.54C69.95,56.54 73.02,56.49 74.1,56.53C74.63,56.55 74.94,56.61 75.28,56.61C75.54,56.61 75.65,56.63 75.98,56.58C76.77,56.46 79.04,55.8 79.97,55.53C80.48,55.39 80.67,55.29 81.14,55.17C81.83,54.99 82.76,54.84 83.72,54.61C84.96,54.32 86.5,53.77 87.94,53.53C89.4,53.28 91.39,53.21 92.4,53.15C92.92,53.12 93.11,53.17 93.57,53.11C94.27,53.03 95.06,52.7 96.15,52.57C97.95,52.36 103.42,52.38 103.42,52.38C103.42,52.38 103.42,52.38 103.42,52.38C103.42,52.38 108.34,52.17 108.34,52.17C108.34,52.17 108.34,52.17 108.34,52.17C108.34,52.17 108.82,52.04 109.28,51.95C110.53,51.7 113.89,51.07 116.31,50.76C118.88,50.43 121.89,50 124.29,50.05C126.27,50.09 128.54,50.75 129.68,50.77C130.21,50.78 130.31,50.66 130.85,50.65C132.09,50.64 135.27,50.89 136.95,51.16C138.15,51.35 139.22,51.85 140,51.9C140.48,51.93 140.65,51.87 141.17,51.78C142.22,51.59 144.69,50.74 145.86,50.53C146.54,50.4 146.81,50.47 147.5,50.36C148.71,50.17 150.59,49.67 152.43,49.33C154.76,48.9 158.59,48.36 160.4,48.09C161.33,47.95 161.85,47.9 162.51,47.78C163.09,47.67 163.52,47.47 164.15,47.42C165.01,47.36 166.54,47.61 167.2,47.64C167.52,47.66 167.6,47.63 167.91,47.66C168.5,47.71 169.61,47.96 170.49,48.04C171.4,48.13 172.2,48.09 173.3,48.16C174.86,48.27 177.68,48.75 178.93,48.69C179.56,48.66 179.68,48.57 180.34,48.43C181.95,48.09 186.37,46.83 188.54,46.46C189.95,46.22 190.98,46.24 192.06,46.1C192.99,45.98 193.71,45.79 194.64,45.68C195.72,45.55 196.96,45.58 198.16,45.4C199.45,45.21 200.7,44.87 202.14,44.52C203.86,44.11 206.17,43.25 207.77,43.05C208.93,42.9 209.61,43.12 210.82,43.07C212.6,42.99 216.19,42.6 217.39,42.45C217.84,42.39 217.96,42.33 218.32,42.3C218.79,42.26 219.28,42.37 219.97,42.31C221.18,42.21 223.89,41.59 224.89,41.46C225.32,41.4 225.39,41.41 225.83,41.37C226.83,41.27 230.16,40.97 230.75,40.88C230.88,40.86 230.86,40.85 230.99,40.83C231.48,40.74 233.52,40.5 234.51,40.3C235.24,40.15 235.8,40.01 236.38,39.83C236.89,39.67 237.27,39.49 237.79,39.31C238.42,39.09 239.38,38.73 239.9,38.59C240.19,38.51 240.25,38.47 240.6,38.45C241.55,38.39 244.79,38.63 246,38.79C246.62,38.87 247.01,38.99 247.4,39.08C247.68,39.15 247.81,39.22 248.11,39.27C248.58,39.35 249.43,39.41 249.98,39.39C250.42,39.37 250.75,39.29 251.16,39.22C251.61,39.14 252.07,38.99 252.56,38.94C253.08,38.89 254.2,38.92 254.2,38.92C254.2,38.92 254.2,38.92 254.2,38.92C254.2,38.92 256.81,38.15 257.72,37.89C258.29,37.73 258.66,37.57 259.13,37.51C259.6,37.45 260.2,37.54 260.54,37.53C260.74,37.52 260.88,37.5 261.01,37.49C261.1,37.48 261.12,37.49 261.24,37.46C261.64,37.36 263.03,36.81 263.82,36.53C264.5,36.29 265.07,36.05 265.7,35.86C266.32,35.68 267.09,35.5 267.57,35.42C267.86,35.37 268.02,35.39 268.27,35.35C268.56,35.3 268.8,35.22 269.21,35.11C270.01,34.9 271.93,34.3 272.73,34.12C273.14,34.03 273.32,34 273.67,33.95C274.09,33.89 274.55,33.88 275.08,33.82C275.76,33.75 276.67,33.7 277.42,33.54C278.15,33.38 279.08,32.97 279.53,32.87Q279.74,32.83 280,32.82" style="vector-effect: non-scaling-stroke; fill: none; stroke: rgb(0, 180, 219); stroke-opacity: 1; stroke-width: 5px; opacity: 1;"/></g><g class="points"/><g class="text"/></g><g class="trace scatter traceb53260" style="stroke-miterlimit: 2; opacity: 1;"><g class="fills"/><g class="errorbars"/><g class="lines"><path class="js-line" d="M87.94,70.07Q91.36,66.76 92.4,66.07C92.89,65.75 93.09,65.68 93.57,65.52C94.25,65.3 95.08,65.25 96.15,65.01C97.96,64.6 103.42,63.14 103.42,63.14C103.42,63.14 103.42,63.14 103.42,63.14C103.42,63.14 108.34,62.36 108.34,62.36C108.34,62.36 108.34,62.36 108.34,62.36C108.34,62.36 108.82,62.51 109.28,62.53C110.53,62.59 113.91,62.41 116.31,62C118.91,61.56 121.9,60.57 124.29,59.88C126.27,59.31 128.53,58.32 129.68,58.18C130.2,58.12 130.31,58.24 130.85,58.26C132.09,58.31 135.27,58.39 136.95,58.33C138.14,58.29 139.22,58.18 140,58.09C140.48,58.03 140.65,58 141.17,57.91C142.21,57.74 144.7,57.3 145.86,57.06C146.55,56.92 146.8,56.78 147.5,56.68C148.7,56.5 150.59,56.51 152.43,56.35C154.77,56.14 158.59,55.66 160.4,55.47C161.33,55.37 161.85,55.25 162.51,55.27C163.09,55.29 163.52,55.47 164.15,55.53C165.01,55.61 166.54,55.56 167.2,55.61C167.52,55.63 167.6,55.69 167.91,55.7C168.5,55.72 169.61,55.54 170.49,55.54C171.41,55.54 172.2,55.71 173.3,55.71C174.85,55.71 177.68,55.38 178.93,55.38C179.56,55.38 179.68,55.43 180.34,55.46C181.94,55.53 186.38,55.69 188.54,55.74C189.96,55.77 190.98,55.71 192.06,55.79C192.99,55.86 193.71,56.12 194.64,56.15C195.72,56.18 196.95,55.88 198.16,55.87C199.45,55.86 200.7,56.16 202.14,56.11C203.86,56.05 206.18,55.41 207.77,55.39C208.94,55.38 209.61,55.71 210.82,55.71C212.6,55.7 216.2,55.22 217.39,54.97C217.85,54.87 217.96,54.78 218.32,54.68C218.79,54.55 219.27,54.39 219.97,54.3C221.17,54.14 223.89,54.16 224.89,54.11C225.33,54.09 225.39,54.08 225.83,54.05C226.83,53.99 230.16,53.78 230.75,53.75C230.88,53.74 230.86,53.75 230.99,53.74C231.48,53.71 233.52,53.56 234.51,53.41C235.24,53.3 235.8,53.09 236.38,53C236.88,52.92 237.27,52.92 237.79,52.85C238.42,52.76 239.39,52.57 239.9,52.47C240.2,52.41 240.25,52.34 240.6,52.31C241.55,52.23 244.79,52.51 246,52.56C246.62,52.59 247.01,52.59 247.4,52.62C247.68,52.64 247.82,52.71 248.11,52.7C248.59,52.69 249.43,52.48 249.98,52.39C250.42,52.31 250.75,52.23 251.16,52.18C251.61,52.12 252.08,52.13 252.56,52.08C253.09,52.02 254.2,51.84 254.2,51.84C254.2,51.84 254.2,51.84 254.2,51.84C254.2,51.84 256.8,51.04 257.72,50.89C258.29,50.8 258.66,50.85 259.13,50.8C259.6,50.75 260.2,50.63 260.54,50.58C260.74,50.55 260.88,50.53 261.01,50.53C261.1,50.53 261.12,50.55 261.24,50.55C261.64,50.54 263.03,50.2 263.82,50.15C264.49,50.11 265.08,50.22 265.7,50.19C266.33,50.16 267.1,49.99 267.57,49.94C267.86,49.91 268.02,49.92 268.27,49.89C268.56,49.85 268.79,49.76 269.21,49.71C270.01,49.62 271.93,49.67 272.73,49.58C273.15,49.53 273.32,49.46 273.67,49.39C274.09,49.31 274.55,49.22 275.08,49.14C275.76,49.04 276.66,48.9 277.42,48.88C278.14,48.86 279.08,48.94 279.53,49.01Q279.74,49.04 280,49.12" style="vector-effect: non-scaling-stroke; fill: none; stroke: rgb(153, 51, 0); stroke-opacity: 1; stroke-width: 5px; opacity: 1;"/></g><g class="points"/><g class="text"/></g><g class="trace scatter trace9c1c04" style="stroke-miterlimit: 2; opacity: 1;"><g class="fills"/><g class="errorbars"/><g class="lines"><path class="js-line" d="M0,49.66Q2.8,44.94 4.46,44.29C5.76,43.78 7.52,44.94 8.68,44.86C9.51,44.8 10.34,44.39 10.79,44.28C11,44.23 11.01,44.19 11.26,44.17C12.22,44.09 16.71,44.29 18.29,44.59C19.13,44.75 19.46,45.06 20.17,45.2C21.06,45.37 22.2,45.42 23.22,45.41C24.23,45.4 25.16,44.88 26.26,45.15C27.81,45.53 29.9,47.93 31.42,48.46C32.45,48.82 33.09,48.68 34.24,48.76C36.06,48.88 39.83,48.76 41.27,48.98C41.93,49.08 42.18,49.21 42.68,49.38C43.27,49.57 43.89,49.9 44.56,50.09C45.29,50.29 46,50.32 46.9,50.52C48.15,50.8 50.43,51.4 51.36,51.68C51.79,51.81 52.03,51.91 52.29,52.01C52.47,52.08 52.55,52.12 52.76,52.21C53.18,52.39 54.12,52.77 54.64,52.99C55.01,53.15 55.16,53.22 55.58,53.4C56.41,53.77 58.13,54.59 59.33,55.06C60.39,55.47 61.94,55.95 62.38,56.1C62.5,56.14 62.49,56.15 62.61,56.18C63.11,56.32 65.61,56.87 66.37,56.99C66.69,57.04 66.79,57.04 67.07,57.06C67.5,57.09 68.33,57.11 68.71,57.13C68.91,57.14 68.94,57.14 69.18,57.15C69.95,57.2 73.02,57.46 74.1,57.54C74.63,57.58 74.94,57.61 75.28,57.62C75.54,57.63 75.65,57.61 75.98,57.61C76.77,57.6 79.04,57.6 79.97,57.55C80.48,57.52 80.68,57.52 81.14,57.45C81.83,57.35 82.77,57.2 83.72,56.92C84.97,56.55 86.53,55.94 87.94,55.3C89.43,54.63 91.37,53.26 92.4,52.97C92.9,52.83 93.1,52.92 93.57,52.9C94.26,52.87 95.07,52.85 96.15,52.84C97.96,52.83 103.42,52.93 103.42,52.93C103.42,52.93 103.42,52.93 103.42,52.93C103.42,52.93 108.34,53.2 108.34,53.2C108.34,53.2 108.34,53.2 108.34,53.2C108.34,53.2 108.82,53.11 109.28,53.07C110.53,52.95 113.9,52.65 116.31,52.72C118.89,52.8 121.89,53.47 124.29,53.59C126.26,53.69 128.54,53.6 129.68,53.56C130.21,53.54 130.31,53.53 130.85,53.48C132.09,53.36 135.26,52.89 136.95,52.74C138.14,52.63 139.23,52.44 140,52.55C140.49,52.62 140.64,52.83 141.17,52.98C142.2,53.28 144.7,53.74 145.86,53.99C146.55,54.14 146.8,54.23 147.5,54.34C148.7,54.52 150.59,54.65 152.43,54.81C154.77,55.02 158.59,55.33 160.4,55.47C161.33,55.54 161.85,55.59 162.51,55.63C163.09,55.66 163.52,55.7 164.15,55.69C165.01,55.68 166.54,55.5 167.2,55.49C167.52,55.48 167.6,55.51 167.91,55.51C168.5,55.51 169.61,55.47 170.49,55.43C171.41,55.39 172.2,55.38 173.3,55.29C174.86,55.16 177.68,54.67 178.93,54.65C179.56,54.64 179.68,54.69 180.34,54.76C181.94,54.92 186.37,55.54 188.54,55.73C189.96,55.85 190.98,55.95 192.06,55.93C192.99,55.92 193.72,55.85 194.64,55.71C195.73,55.54 196.94,55.04 198.16,54.92C199.44,54.8 200.7,55.08 202.14,55.03C203.86,54.97 206.18,54.67 207.77,54.47C208.94,54.32 209.61,54.21 210.82,54.01C212.6,53.72 216.19,52.98 217.39,52.84C217.84,52.79 217.97,52.8 218.32,52.79C218.79,52.78 219.27,52.8 219.97,52.79C221.17,52.77 223.89,52.59 224.89,52.59C225.33,52.59 225.39,52.6 225.83,52.62C226.83,52.67 230.16,52.93 230.75,52.94C230.88,52.94 230.86,52.94 230.99,52.93C231.48,52.9 233.52,52.78 234.51,52.7C235.23,52.64 235.8,52.58 236.38,52.53C236.88,52.49 237.27,52.44 237.79,52.41C238.42,52.37 239.39,52.33 239.9,52.33C240.2,52.33 240.26,52.38 240.6,52.37C241.55,52.35 244.79,51.97 246,51.81C246.62,51.73 247.01,51.63 247.4,51.58C247.68,51.54 247.82,51.49 248.11,51.51C248.59,51.54 249.43,51.84 249.98,51.93C250.42,52 250.75,52.02 251.16,52.07C251.61,52.13 252.07,52.2 252.56,52.26C253.08,52.32 254.2,52.43 254.2,52.43C254.2,52.43 254.2,52.43 254.2,52.43C254.2,52.43 256.81,52.34 257.72,52.31C258.3,52.29 258.66,52.29 259.13,52.26C259.6,52.23 260.2,52.15 260.54,52.13C260.74,52.12 260.88,52.13 261.01,52.13C261.1,52.13 261.12,52.12 261.24,52.14C261.64,52.2 263.02,52.63 263.82,52.77C264.49,52.89 265.07,52.9 265.7,52.97C266.32,53.03 267.1,53.13 267.57,53.16C267.86,53.18 268.02,53.15 268.27,53.19C268.56,53.23 268.8,53.34 269.21,53.43C270.01,53.61 271.93,54.03 272.73,54.13C273.14,54.18 273.32,54.19 273.67,54.19C274.09,54.2 274.55,54.13 275.08,54.14C275.76,54.15 276.66,54.24 277.42,54.28C278.14,54.32 279.08,54.37 279.53,54.4Q279.74,54.41 280,54.43" style="vector-effect: non-scaling-stroke; fill: none; stroke: rgb(1, 27, 58); stroke-opacity: 1; stroke-width: 5px; opacity: 1;"/></g><g class="points"/><g class="text"/></g></g></g><g class="overplot"/><path class="xlines-above crisp" d="M0,0" style="fill: none;"/><path class="ylines-above crisp" d="M0,0" style="fill: none;"/><g class="overlines-above"/><g class="xaxislayer-above"/><g class="yaxislayer-above"/><g class="overaxes-above"/></g></g><g class="polarlayer"/><g class="smithlayer"/><g class="ternarylayer"/><g class="geolayer"/><g class="funnelarealayer"/><g class="pielayer"/><g class="iciclelayer"/><g class="treemaplayer"/><g class="sunburstlayer"/><g class="glimages"/><defs id="topdefs-e69af4"><g class="clips"/></defs><g class="layer-above"><g class="imagelayer"/><g class="shapelayer"/></g><g class="infolayer"><g class="g-gtitle"><text class="gtitle" x="15" y="25" text-anchor="start" dy="0em" style="font-family: Ubuntu, verdana, arial, sans-serif; font-size: 16px; fill: rgb(233, 84, 32); opacity: 1; font-weight: normal; white-space: pre;">NRSR 2020-2023</text></g><g class="g-xtitle"/><g class="g-ytitle"/></g></svg>