<svg class="main-svg" xmlns="http://www.w3.org/2000/svg" xmlns:xlink="http://www.w3.org/1999/xlink" width="1200" height="600" style="" viewBox="0 0 1200 600"><rect x="0" y="0" width="1200" height="600" style="fill: rgb(255, 255, 255); fill-opacity: 1;"/><defs id="defs-0af9e1"><g class="clips"><clipPath id="clip0af9e1xyplot" class="plotclip"><rect width="988" height="530"/></clipPath><clipPath class="axesclip" id="clip0af9e1x"><rect x="50" y="0" width="988" height="600"/></clipPath><clipPath class="axesclip" id="clip0af9e1y"><rect x="0" y="20" width="1200" height="530"/></clipPath><clipPath class="axesclip" id="clip0af9e1xy"><rect x="50" y="20" width="988" height="530"/></clipPath></g><g class="gradients"/><g class="patterns"/></defs><g class="bglayer"/><g class="layer-below"><g class="imagelayer"/><g class="shapelayer"/></g><g class="cartesianlayer"><g class="subplot xy"><g class="layer-subplot"><g class="shapelayer"/><g class="imagelayer"/></g><g class="minor-gridlayer"><g class="x"/><g class="y"/></g><g class="gridlayer"><g class="x"><path class="xgrid crisp" transform="translate(148.05,0)" d="M0,20v530" style="stroke: rgb(235, 240, 248); stroke-opacity: 1; stroke-width: 1px;"/><path class="xgrid crisp" transform="translate(253.63,0)" d="M0,20v530" style="stroke: rgb(235, 240, 248); stroke-opacity: 1; stroke-width: 1px;"/><path class="xgrid crisp" transform="translate(359.22,0)" d="M0,20v530" style="stroke: rgb(235, 240, 248); stroke-opacity: 1; stroke-width: 1px;"/><path class="xgrid crisp" transform="translate(464.81,0)" d="M0,20v530" style="stroke: rgb(235, 240, 248); stroke-opacity: 1; stroke-width: 1px;"/><path class="xgrid crisp" transform="translate(570.4,0)" d="M0,20v530" style="stroke: rgb(235, 240, 248); stroke-opacity: 1; stroke-width: 1px;"/><path class="xgrid crisp" transform="translate(675.98,0)" d="M0,20v530" style="stroke: rgb(235, 240, 248); stroke-opacity: 1; stroke-width: 1px;"/><path class="xgrid crisp" transform="translate(781.57,0)" d="M0,20v530" style="stroke: rgb(235, 240, 248); stroke-opacity: 1; stroke-width: 1px;"/><path class="xgrid crisp" transform="translate(887.16,0)" d="M0,20v530" style="stroke: rgb(235, 240, 248); stroke-opacity: 1; stroke-width: 1px;"/><path class="xgrid crisp" transform="translate(992.75,0)" d="M0,20v530" style="stroke: rgb(235, 240, 248); stroke-opacity: 1; stroke-width: 1px;"/></g><g class="y"><path class="ygrid crisp" transform="translate(0,445.97)" d="M50,0h988" style="stroke: rgb(235, 240, 248); stroke-opacity: 1; stroke-width: 1px;"/><path class="ygrid crisp" transform="translate(0,341.94)" d="M50,0h988" style="stroke: rgb(235, 240, 248); stroke-opacity: 1; stroke-width: 1px;"/><path class="ygrid crisp" transform="translate(0,237.91)" d="M50,0h988" style="stroke: rgb(235, 240, 248); stroke-opacity: 1; stroke-width: 1px;"/><path class="ygrid crisp" transform="translate(0,133.88)" d="M50,0h988" style="stroke: rgb(235, 240, 248); stroke-opacity: 1; stroke-width: 1px;"/><path class="ygrid crisp" transform="translate(0,29.86)" d="M50,0h988" style="stroke: rgb(235, 240, 248); stroke-opacity: 1; stroke-width: 1px;"/></g></g><g class="zerolinelayer"><path class="yzl zl crisp" transform="translate(0,550)" d="M50,0h988" style="stroke: rgb(235, 240, 248); stroke-opacity: 1; stroke-width: 2px;"/></g><path class="xlines-below"/><path class="ylines-below"/><g class="overlines-below"/><g class="xaxislayer-below"/><g class="yaxislayer-below"/><g class="overaxes-below"/><g class="plot" transform="translate(50,20)" clip-path="url(#clip0af9e1xyplot)"><g class="scatterlayer mlayer"><g class="trace scatter tracea9e478" style="stroke-miterlimit: 2; opacity: 1;"><g class="fills"/><g class="errorbars"/><g class="lines"><path class="js-line" d="M0,157.58L7.54,165.9L15.08,166.94L22.63,163.82L30.17,164.86L37.71,163.82L45.25,165.9L52.79,163.82L60.34,163.82L82.96,164.86L90.5,176.3L105.59,178.38L113.13,183.58L128.21,187.74L135.76,185.66L143.3,187.74L150.84,187.74L181.01,187.74L188.55,184.62L196.09,184.62L203.63,181.5L211.18,199.19L218.72,196.07L226.26,204.39L233.8,204.39L241.34,202.31L248.89,202.31L279.05,201.27L286.6,211.67L294.14,218.95L301.68,218.95L324.31,221.03L331.85,221.03L346.93,222.07L354.47,222.07L384.64,221.03L392.18,219.99L399.73,204.39L407.27,196.07L414.81,196.07L422.35,192.95L452.52,192.95L460.06,187.74L467.6,182.54L475.15,182.54L490.23,180.46L497.77,176.3L527.94,176.3L535.48,172.14L550.56,172.14L558.11,162.78L573.19,162.78L580.73,133.65L595.82,105.56L603.36,95.16L610.9,79.55L618.44,79.55L625.98,79.55L633.53,84.76L641.07,84.76L648.61,81.64L663.69,83.72L671.24,88.92L701.4,89.96L708.95,67.07L731.57,82.68L739.11,82.68L754.2,82.68L761.74,88.92L769.28,93.08L776.82,100.36L791.91,105.56L799.45,105.56L859.79,105.56L867.33,99.32L874.87,89.96L882.41,89.96L897.5,89.96L905.04,86.84L912.58,68.11L920.12,67.07L927.66,68.11L935.21,71.23L950.29,71.23L957.83,77.47L965.37,102.44L972.92,93.08L980.46,81.64L988,80.6L1025.71,26.5" style="vector-effect: none; fill: none; stroke: rgb(238, 58, 67); stroke-opacity: 1; stroke-width: 5px; opacity: 1;"/></g><g class="points"/><g class="text"/></g><g class="trace scatter trace1f6139" style="stroke-miterlimit: 2; opacity: 1;"><g class="fills"/><g class="errorbars"/><g class="lines"><path class="js-line" d="M0,121.17L7.54,121.17L15.08,148.21L22.63,163.82L30.17,199.19L37.71,198.15L45.25,180.46L52.79,198.15L60.34,198.15L82.96,199.19L90.5,219.99L98.05,232.48L105.59,223.11L113.13,226.24L120.67,226.24L128.21,226.24L135.76,222.07L143.3,226.24L150.84,226.24L181.01,226.24L188.55,228.32L203.63,229.36L211.18,219.99L218.72,225.2L226.26,226.24L271.51,225.2L279.05,233.52L286.6,216.87L294.14,192.95L309.22,185.66L316.76,182.54L324.31,180.46L331.85,180.46L339.39,174.22L346.93,174.22L362.02,174.22L369.56,167.98L377.1,162.78L384.64,162.78L392.18,157.58L399.73,172.14L407.27,177.34L414.81,177.34L422.35,180.46L429.89,180.46L452.52,180.46L460.06,187.74L467.6,199.19L475.15,203.35L505.31,200.23L512.85,200.23L550.56,201.27L558.11,205.43L573.19,205.43L580.73,221.03L610.9,265.77L618.44,265.77L625.98,265.77L633.53,285.53L641.07,285.53L648.61,283.45L663.69,287.61L671.24,293.85L708.95,292.81L731.57,264.73L754.2,264.73L761.74,260.57L769.28,261.61L776.82,265.77L791.91,269.93L799.45,269.93L859.79,269.93L867.33,272.01L874.87,275.13L882.41,275.13L897.5,275.13L905.04,277.21L912.58,287.61L920.12,287.61L927.66,286.57L935.21,280.33L957.83,279.29L965.37,266.81L972.92,261.61L980.46,268.89L988,272.01L1025.71,43.14" style="vector-effect: none; fill: none; stroke: rgb(138, 44, 81); stroke-opacity: 1; stroke-width: 5px; opacity: 1;"/></g><g class="points"/><g class="text"/></g><g class="trace scatter trace94cde2" style="stroke-miterlimit: 2; opacity: 1;"><g class="fills"/><g class="errorbars"/><g class="lines"><path class="js-line" d="M0,325.06L7.54,317.78L15.08,303.22L22.63,290.73L30.17,252.24L37.71,251.2L45.25,259.52L52.79,251.2L60.34,251.2L75.42,251.2L82.96,249.12L90.5,213.75L98.05,198.15L105.59,205.43L113.13,197.11L128.21,193.99L135.76,199.19L143.3,193.99L150.84,193.99L181.01,193.99L188.55,190.87L196.09,190.87L203.63,193.99L211.18,184.62L218.72,179.42L226.26,163.82L233.8,163.82L248.89,162.78L256.43,162.78L271.51,162.78L279.05,159.66L286.6,166.94L294.14,177.34L324.31,186.7L331.85,186.7L339.39,190.87L346.93,190.87L369.56,190.87L377.1,192.95L384.64,192.95L392.18,197.11L399.73,195.03L407.27,196.07L452.52,196.07L460.06,192.95L467.6,185.66L475.15,182.54L497.77,188.79L505.31,188.79L550.56,189.83L558.11,193.99L573.19,193.99L580.73,205.43L595.82,201.27L603.36,201.27L610.9,204.39L618.44,204.39L625.98,204.39L633.53,180.46L641.07,180.46L648.61,184.62L663.69,179.42L671.24,166.94L693.86,164.86L701.4,164.86L708.95,188.79L731.57,202.31L761.74,201.27L769.28,195.03L776.82,183.58L791.91,175.26L859.79,175.26L867.33,178.38L874.87,184.62L882.41,184.62L905.04,185.66L912.58,193.99L927.66,195.03L935.21,198.15L950.29,199.19L957.83,191.91L965.37,181.5L972.92,195.03L980.46,198.15L988,197.11L1025.71,480.07" style="vector-effect: none; fill: none; stroke: rgb(0, 180, 219); stroke-opacity: 1; stroke-width: 5px; opacity: 1;"/></g><g class="points"/><g class="text"/></g><g class="trace scatter trace21be20" style="stroke-miterlimit: 2; opacity: 1;"><g class="fills"/><g class="errorbars"/><g class="lines"><path class="js-line" d="M0,475.9L7.54,475.9L15.08,462.38L22.63,461.34L30.17,463.42L37.71,466.54L45.25,473.82L52.79,466.54L60.34,466.54L82.96,466.54L90.5,470.7L98.05,470.7L105.59,473.82L120.67,472.78L128.21,472.78L181.01,472.78L188.55,474.86L211.18,475.9L218.72,479.03L226.26,485.27L233.8,485.27L241.34,489.43L248.89,489.43L271.51,489.43L279.05,485.27L286.6,484.23L294.14,491.51L346.93,491.51L354.47,493.59L362.02,493.59L369.56,499.83L377.1,503.99L384.64,503.99L392.18,505.03L399.73,508.15L407.27,510.23L414.81,510.23L460.06,511.27L467.6,512.32L490.23,512.32L497.77,514.4L550.56,515.44L558.11,517.52L573.19,517.52L580.73,519.6" style="vector-effect: none; fill: none; stroke: rgb(1, 27, 58); stroke-opacity: 1; stroke-width: 5px; opacity: 1;"/></g><g class="points"/><g class="text"/></g></g></g><g class="overplot"/><path class="xlines-above crisp" d="M0,0" style="fill: none;"/><path class="ylines-above crisp" d="M0,0" style="fill: none;"/><g class="overlines-above"/><g class="xaxislayer-above"><g class="xtick"><text text-anchor="middle" x="0" y="563" transform="translate(148.05,0)" style="font-family: 'Open Sans', verdana, arial, sans-serif; font-size: 12px; fill: rgb(42, 63, 95); fill-opacity: 1; white-space: pre; opacity: 1;">4.6.23</text></g><g class="xtick"><text text-anchor="middle" x="0" y="563" style="font-family: 'Open Sans', verdana, arial, sans-serif; font-size: 12px; fill: rgb(42, 63, 95); fill-opacity: 1; white-space: pre; opacity: 1;" transform="translate(253.63,0)">18.6.23</text></g><g class="xtick"><text text-anchor="middle" x="0" y="563" style="font-family: 'Open Sans', verdana, arial, sans-serif; font-size: 12px; fill: rgb(42, 63, 95); fill-opacity: 1; white-space: pre; opacity: 1;" transform="translate(359.22,0)">2.7.23</text></g><g class="xtick"><text text-anchor="middle" x="0" y="563" style="font-family: 'Open Sans', verdana, arial, sans-serif; font-size: 12px; fill: rgb(42, 63, 95); fill-opacity: 1; white-space: pre; opacity: 1;" transform="translate(464.81,0)">16.7.23</text></g><g class="xtick"><text text-anchor="middle" x="0" y="563" style="font-family: 'Open Sans', verdana, arial, sans-serif; font-size: 12px; fill: rgb(42, 63, 95); fill-opacity: 1; white-space: pre; opacity: 1;" transform="translate(570.4,0)">30.7.23</text></g><g class="xtick"><text text-anchor="middle" x="0" y="563" style="font-family: 'Open Sans', verdana, arial, sans-serif; font-size: 12px; fill: rgb(42, 63, 95); fill-opacity: 1; white-space: pre; opacity: 1;" transform="translate(675.98,0)">13.8.23</text></g><g class="xtick"><text text-anchor="middle" x="0" y="563" style="font-family: 'Open Sans', verdana, arial, sans-serif; font-size: 12px; fill: rgb(42, 63, 95); fill-opacity: 1; white-space: pre; opacity: 1;" transform="translate(781.57,0)">27.8.23</text></g><g class="xtick"><text text-anchor="middle" x="0" y="563" style="font-family: 'Open Sans', verdana, arial, sans-serif; font-size: 12px; fill: rgb(42, 63, 95); fill-opacity: 1; white-space: pre; opacity: 1;" transform="translate(887.16,0)">10.9.23</text></g><g class="xtick"><text text-anchor="middle" x="0" y="563" style="font-family: 'Open Sans', verdana, arial, sans-serif; font-size: 12px; fill: rgb(42, 63, 95); fill-opacity: 1; white-space: pre; opacity: 1;" transform="translate(992.75,0)">24.9.23</text></g></g><g class="yaxislayer-above"><g class="ytick"><text text-anchor="end" x="49" y="4.199999999999999" transform="translate(0,550)" style="font-family: 'Open Sans', verdana, arial, sans-serif; font-size: 12px; fill: rgb(42, 63, 95); fill-opacity: 1; white-space: pre; opacity: 1;">0%</text></g><g class="ytick"><text text-anchor="end" x="49" y="4.199999999999999" style="font-family: 'Open Sans', verdana, arial, sans-serif; font-size: 12px; fill: rgb(42, 63, 95); fill-opacity: 1; white-space: pre; opacity: 1;" transform="translate(0,445.97)">10%</text></g><g class="ytick"><text text-anchor="end" x="49" y="4.199999999999999" style="font-family: 'Open Sans', verdana, arial, sans-serif; font-size: 12px; fill: rgb(42, 63, 95); fill-opacity: 1; white-space: pre; opacity: 1;" transform="translate(0,341.94)">20%</text></g><g class="ytick"><text text-anchor="end" x="49" y="4.199999999999999" style="font-family: 'Open Sans', verdana, arial, sans-serif; font-size: 12px; fill: rgb(42, 63, 95); fill-opacity: 1; white-space: pre; opacity: 1;" transform="translate(0,237.91)">30%</text></g><g class="ytick"><text text-anchor="end" x="49" y="4.199999999999999" style="font-family: 'Open Sans', verdana, arial, sans-serif; font-size: 12px; fill: rgb(42, 63, 95); fill-opacity: 1; white-space: pre; opacity: 1;" transform="translate(0,133.88)">40%</text></g><g class="ytick"><text text-anchor="end" x="49" y="4.199999999999999" style="font-family: 'Open Sans', verdana, arial, sans-serif; font-size: 12px; fill: rgb(42, 63, 95); fill-opacity: 1; white-space: pre; opacity: 1;" transform="translate(0,29.86)">50%</text></g></g><g class="overaxes-above"/></g></g><g class="polarlayer"/><g class="smithlayer"/><g class="ternarylayer"/><g class="geolayer"/><g class="funnelarealayer"/><g class="pielayer"/><g class="iciclelayer"/><g class="treemaplayer"/><g class="sunburstlayer"/><g class="glimages"/><defs id="topdefs-0af9e1"><g class="clips"/><clipPath id="legend0af9e1"><rect width="130" height="86" x="0" y="0"/></clipPath></defs><g class="layer-above"><g class="imagelayer"/><g class="shapelayer"/></g><g class="infolayer"><g class="legend" pointer-events="all" transform="translate(1057.76,20)"><rect class="bg" shape-rendering="crispEdges" style="stroke: rgb(68, 68, 68); stroke-opacity: 1; fill: rgb(255, 255, 255); fill-opacity: 1; stroke-width: 0px;" width="130" height="86" x="0" y="0"/><g class="scrollbox" transform="" clip-path="url(#legend0af9e1)"><g class="groups"><g class="traces" transform="translate(0,14.5)" style="opacity: 1;"><text class="legendtext" text-anchor="start" x="40" y="4.680000000000001" style="font-family: 'Open Sans', verdana, arial, sans-serif; font-size: 12px; fill: rgb(42, 63, 95); fill-opacity: 1; white-space: pre;">Fico Robert</text><g class="layers" style="opacity: 1;"><g class="legendfill"/><g class="legendlines"><path class="js-line" d="M5,0h30" style="fill: none; stroke: rgb(238, 58, 67); stroke-opacity: 1; stroke-width: 5px;"/></g><g class="legendsymbols"><g class="legendpoints"/></g></g><rect class="legendtoggle" x="0" y="-9.5" width="124.03125" height="19" style="fill: rgb(0, 0, 0); fill-opacity: 0;"/></g><g class="traces" transform="translate(0,33.5)" style="opacity: 1;"><text class="legendtext" text-anchor="start" x="40" y="4.680000000000001" style="font-family: 'Open Sans', verdana, arial, sans-serif; font-size: 12px; fill: rgb(42, 63, 95); fill-opacity: 1; white-space: pre;">Pellegrini Peter</text><g class="layers" style="opacity: 1;"><g class="legendfill"/><g class="legendlines"><path class="js-line" d="M5,0h30" style="fill: none; stroke: rgb(138, 44, 81); stroke-opacity: 1; stroke-width: 5px;"/></g><g class="legendsymbols"><g class="legendpoints"/></g></g><rect class="legendtoggle" x="0" y="-9.5" width="124.03125" height="19" style="fill: rgb(0, 0, 0); fill-opacity: 0;"/></g><g class="traces" transform="translate(0,52.5)" style="opacity: 1;"><text class="legendtext" text-anchor="start" x="40" y="4.680000000000001" style="font-family: 'Open Sans', verdana, arial, sans-serif; font-size: 12px; fill: rgb(42, 63, 95); fill-opacity: 1; white-space: pre;">Šimečka Michal</text><g class="layers" style="opacity: 1;"><g class="legendfill"/><g class="legendlines"><path class="js-line" d="M5,0h30" style="fill: none; stroke: rgb(0, 180, 219); stroke-opacity: 1; stroke-width: 5px;"/></g><g class="legendsymbols"><g class="legendpoints"/></g></g><rect class="legendtoggle" x="0" y="-9.5" width="124.03125" height="19" style="fill: rgb(0, 0, 0); fill-opacity: 0;"/></g><g class="traces" transform="translate(0,71.5)" style="opacity: 1;"><text class="legendtext" text-anchor="start" x="40" y="4.680000000000001" style="font-family: 'Open Sans', verdana, arial, sans-serif; font-size: 12px; fill: rgb(42, 63, 95); fill-opacity: 1; white-space: pre;">Kollár Boris</text><g class="layers" style="opacity: 1;"><g class="legendfill"/><g class="legendlines"><path class="js-line" d="M5,0h30" style="fill: none; stroke: rgb(1, 27, 58); stroke-opacity: 1; stroke-width: 5px;"/></g><g class="legendsymbols"><g class="legendpoints"/></g></g><rect class="legendtoggle" x="0" y="-9.5" width="124.03125" height="19" style="fill: rgb(0, 0, 0); fill-opacity: 0;"/></g></g></g><rect class="scrollbar" rx="20" ry="3" width="0" height="0" style="fill: rgb(128, 139, 164); fill-opacity: 1;" x="0" y="0"/></g><g class="g-gtitle"/><g class="g-xtitle"/><g class="g-ytitle"/></g></svg>