<svg class="main-svg" xmlns="http://www.w3.org/2000/svg" xmlns:xlink="http://www.w3.org/1999/xlink" width="300" height="135" style="" viewBox="0 0 300 135"><rect x="0" y="0" width="300" height="135" style="fill: rgb(255, 255, 255); fill-opacity: 1;"/><defs id="defs-6b7be5"><g class="clips"><clipPath id="clip6b7be5xyplot" class="plotclip"><rect width="280" height="75"/></clipPath><clipPath class="axesclip" id="clip6b7be5x"><rect x="10" y="0" width="280" height="135"/></clipPath><clipPath class="axesclip" id="clip6b7be5y"><rect x="0" y="50" width="300" height="75"/></clipPath><clipPath class="axesclip" id="clip6b7be5xy"><rect x="10" y="50" width="280" height="75"/></clipPath></g><g class="gradients"/><g class="patterns"/></defs><g class="bglayer"/><g class="layer-below"><g class="imagelayer"/><g class="shapelayer"/></g><g class="cartesianlayer"><g class="subplot xy"><g class="layer-subplot"><g class="shapelayer"/><g class="imagelayer"/></g><g class="gridlayer"><g class="x"><path class="xgrid crisp" transform="translate(83.85,0)" d="M0,50v75" style="stroke: rgb(235, 240, 248); stroke-opacity: 1; stroke-width: 1px;"/><path class="xgrid crisp" transform="translate(177.44,0)" d="M0,50v75" style="stroke: rgb(235, 240, 248); stroke-opacity: 1; stroke-width: 1px;"/><path class="xgrid crisp" transform="translate(271.03,0)" d="M0,50v75" style="stroke: rgb(235, 240, 248); stroke-opacity: 1; stroke-width: 1px;"/></g><g class="y"><path class="ygrid crisp" transform="translate(0,109.62)" d="M10,0h280" style="stroke: rgb(235, 240, 248); stroke-opacity: 1; stroke-width: 1px;"/><path class="ygrid crisp" transform="translate(0,94.25)" d="M10,0h280" style="stroke: rgb(235, 240, 248); stroke-opacity: 1; stroke-width: 1px;"/><path class="ygrid crisp" transform="translate(0,78.87)" d="M10,0h280" style="stroke: rgb(235, 240, 248); stroke-opacity: 1; stroke-width: 1px;"/><path class="ygrid crisp" transform="translate(0,63.5)" d="M10,0h280" style="stroke: rgb(235, 240, 248); stroke-opacity: 1; stroke-width: 1px;"/></g></g><g class="zerolinelayer"><path class="yzl zl crisp" transform="translate(0,125)" d="M10,0h280" style="stroke: rgb(235, 240, 248); stroke-opacity: 1; stroke-width: 2px;"/></g><path class="xlines-below"/><path class="ylines-below"/><g class="overlines-below"/><g class="xaxislayer-below"/><g class="yaxislayer-below"/><g class="overaxes-below"/><g class="plot" transform="translate(10,50)" clip-path="url(#clip6b7be5xyplot)"><g class="scatterlayer mlayer"><g class="trace scatter trace8cb22e" style="stroke-miterlimit: 2; opacity: 1;"><g class="fills"/><g class="errorbars"/><g class="lines"><path class="js-line" d="M0,11.41Q3.35,12.05 4.62,12.37C5.52,12.6 6.42,13 6.92,13.05C7.15,13.07 7.17,12.98 7.44,13.01C8.5,13.11 13.42,14.32 15.13,15.06C16.07,15.47 16.45,15.75 17.18,16.34C18.2,17.17 19.43,18.54 20.51,19.77C21.65,21.06 22.68,22.15 23.85,23.93C25.61,26.61 27.79,31.99 29.49,34.63C30.59,36.33 31.15,37.33 32.56,38.57C34.44,40.23 38.66,42.29 40.26,43.14C40.95,43.51 41.25,43.59 41.79,43.86C42.43,44.18 43.11,44.62 43.85,44.94C44.65,45.29 45.41,45.54 46.41,45.85C47.77,46.27 50.25,46.93 51.28,47.12C51.75,47.21 52.03,47.23 52.31,47.23C52.51,47.23 52.59,47.19 52.82,47.19C53.27,47.19 54.3,47.32 54.87,47.33C55.27,47.34 55.45,47.27 55.9,47.31C56.82,47.39 58.7,48.07 60,48.14C61.16,48.2 62.84,47.86 63.33,47.84C63.47,47.83 63.45,47.85 63.59,47.84C64.14,47.81 66.86,47.39 67.69,47.36C68.05,47.35 68.15,47.36 68.46,47.39C68.94,47.43 69.84,47.57 70.26,47.63C70.48,47.66 70.51,47.68 70.77,47.7C71.61,47.77 74.97,47.87 76.15,47.86C76.73,47.86 77.07,47.81 77.44,47.8C77.73,47.79 77.85,47.8 78.21,47.78C79.07,47.74 81.54,47.55 82.56,47.47C83.12,47.43 83.34,47.43 83.85,47.37C84.61,47.28 85.62,47.08 86.67,46.89C88.02,46.64 89.74,46.39 91.28,45.97C92.9,45.53 95.04,44.59 96.15,44.26C96.71,44.09 96.92,44.04 97.44,43.95C98.2,43.82 99.1,43.88 100.26,43.62C102.26,43.18 105.83,41.85 108.21,40.97C110.19,40.24 112.49,38.91 113.59,38.79C114.06,38.74 114.11,38.93 114.62,38.96C115.99,39.05 119.7,39.2 122.31,38.76C125.16,38.28 128.46,37.13 131.03,36.01C133.24,35.04 135.65,33.19 136.92,32.64C137.49,32.4 137.61,32.44 138.21,32.25C139.57,31.83 143.04,30.79 144.87,30.13C146.18,29.66 147.35,28.9 148.21,28.79C148.73,28.73 148.93,28.85 149.49,28.96C150.63,29.18 153.34,30.15 154.62,30.27C155.36,30.34 155.65,30.18 156.41,30.17C157.72,30.16 159.79,30.47 161.79,30.37C164.35,30.24 168.54,29.54 170.51,29.13C171.54,28.92 172.09,28.62 172.82,28.5C173.45,28.4 173.93,28.41 174.62,28.4C175.56,28.39 177.23,28.5 177.95,28.48C178.3,28.47 178.38,28.42 178.72,28.42C179.37,28.42 180.58,28.51 181.54,28.64C182.55,28.77 183.41,29.07 184.62,29.21C186.31,29.41 189.4,29.41 190.77,29.52C191.46,29.58 191.58,29.62 192.31,29.7C194.06,29.89 198.91,30.59 201.28,30.56C202.83,30.54 203.94,30.19 205.13,30.08C206.14,29.99 206.94,29.97 207.95,29.93C209.13,29.89 210.47,29.92 211.79,29.85C213.2,29.77 214.57,29.64 216.15,29.46C218.03,29.24 220.57,28.73 222.31,28.57C223.59,28.45 224.32,28.52 225.64,28.44C227.58,28.32 231.51,27.98 232.82,27.86C233.32,27.81 233.46,27.79 233.85,27.75C234.36,27.7 234.88,27.67 235.64,27.6C236.95,27.48 239.94,27.11 241.03,27.05C241.5,27.02 241.58,27.07 242.05,27.04C243.14,26.97 246.8,26.45 247.44,26.36C247.58,26.34 247.56,26.34 247.69,26.32C248.21,26.25 250.46,26.04 251.54,25.9C252.33,25.8 252.96,25.7 253.59,25.6C254.14,25.51 254.56,25.44 255.13,25.34C255.82,25.22 256.88,25.03 257.44,24.94C257.76,24.89 257.83,24.88 258.21,24.84C259.25,24.72 262.77,24.44 264.1,24.28C264.78,24.2 265.22,24.18 265.64,24.05C265.95,23.95 266.09,23.81 266.41,23.67C266.92,23.45 267.85,23 268.46,22.93C268.93,22.88 269.29,23.1 269.74,23.09C270.23,23.08 270.75,22.96 271.28,22.84C271.86,22.71 272.3,22.42 273.08,22.32C274.47,22.15 277.81,22.42 278.97,22.53Q279.46,22.58 280,22.69" style="vector-effect: non-scaling-stroke; fill: none; stroke: rgb(238, 58, 67); stroke-opacity: 1; stroke-width: 5px; opacity: 1;"/></g><g class="points"/><g class="text"/></g><g class="trace scatter tracea8d580" style="stroke-miterlimit: 2; opacity: 1;"><g class="fills"/><g class="errorbars"/><g class="lines"><path class="js-line" d="M0,73.9Q3.35,73.67 4.62,73.53C5.52,73.43 6.43,73.29 6.92,73.19C7.16,73.14 7.17,73.15 7.44,73.06C8.5,72.7 13.41,70.67 15.13,69.72C16.07,69.2 16.46,68.94 17.18,68.3C18.21,67.39 19.48,66.04 20.51,64.56C21.73,62.81 22.73,61.02 23.85,58.33C25.7,53.9 27.71,44.42 29.49,40.03C30.55,37.42 31.17,36.19 32.56,34.02C34.45,31.07 38.6,25.87 40.26,24.25C40.91,23.61 41.24,23.52 41.79,23.1C42.43,22.62 43.14,22.11 43.85,21.52C44.67,20.84 45.43,20.11 46.41,19.2C47.78,17.93 50.25,15.51 51.28,14.6C51.74,14.19 52.02,13.97 52.31,13.75C52.51,13.6 52.6,13.56 52.82,13.39C53.28,13.03 54.29,12.09 54.87,11.64C55.26,11.34 55.41,11.09 55.9,10.92C56.79,10.61 58.71,10.81 60,10.69C61.17,10.58 62.85,10.37 63.33,10.26C63.47,10.23 63.45,10.22 63.59,10.17C64.14,9.99 66.86,9.08 67.69,8.84C68.05,8.74 68.15,8.75 68.46,8.65C68.94,8.49 69.84,8.04 70.26,7.89C70.48,7.81 70.51,7.8 70.77,7.73C71.61,7.5 74.97,6.79 76.15,6.47C76.73,6.31 77.06,6.14 77.44,6.07C77.73,6.02 77.85,6.07 78.21,6.02C79.07,5.91 81.55,5.47 82.56,5.18C83.13,5.02 83.33,4.81 83.85,4.68C84.6,4.5 85.62,4.5 86.67,4.37C88.02,4.21 89.72,3.73 91.28,3.75C92.88,3.77 95.05,4.37 96.15,4.52C96.72,4.6 96.93,4.63 97.44,4.66C98.2,4.71 99.09,4.57 100.26,4.71C102.25,4.95 105.82,5.92 108.21,6.48C110.18,6.94 112.5,7.49 113.59,7.79C114.07,7.92 114.12,7.95 114.62,8.1C115.99,8.52 119.69,9.52 122.31,10.5C125.15,11.56 128.38,13.36 131.03,14.32C133.16,15.09 135.66,15.79 136.92,16.02C137.5,16.12 137.61,16.1 138.21,16.12C139.57,16.17 143.04,16.28 144.87,16.12C146.18,16 147.36,15.54 148.21,15.52C148.74,15.51 148.92,15.6 149.49,15.7C150.63,15.9 153.35,16.55 154.62,16.75C155.37,16.87 155.66,16.83 156.41,16.96C157.73,17.18 159.8,17.58 161.79,18.14C164.37,18.86 168.53,20.49 170.51,21.11C171.52,21.43 172.1,21.56 172.82,21.78C173.46,21.98 173.92,22.35 174.62,22.38C175.56,22.41 177.23,21.71 177.95,21.54C178.3,21.46 178.39,21.46 178.72,21.37C179.37,21.2 180.57,20.75 181.54,20.49C182.54,20.22 183.42,20.1 184.62,19.79C186.32,19.35 189.4,18.32 190.77,17.98C191.45,17.81 191.58,17.82 192.31,17.66C194.06,17.28 198.92,16.24 201.28,15.66C202.84,15.27 203.94,14.84 205.13,14.61C206.13,14.42 206.94,14.36 207.95,14.3C209.13,14.23 210.47,14.17 211.79,14.27C213.2,14.38 214.58,14.63 216.15,14.99C218.04,15.42 220.56,16.63 222.31,16.78C223.58,16.89 224.32,16.52 225.64,16.39C227.58,16.21 231.5,15.93 232.82,15.86C233.32,15.83 233.46,15.86 233.85,15.82C234.37,15.76 234.88,15.57 235.64,15.48C236.95,15.33 239.94,15.34 241.03,15.28C241.5,15.25 241.58,15.21 242.05,15.2C243.14,15.18 246.8,15.36 247.44,15.38C247.58,15.39 247.56,15.38 247.69,15.39C248.21,15.41 250.46,15.48 251.54,15.55C252.33,15.6 252.96,15.65 253.59,15.73C254.14,15.8 254.57,15.85 255.13,15.97C255.83,16.12 256.88,16.46 257.44,16.61C257.77,16.7 257.84,16.71 258.21,16.82C259.25,17.14 262.76,18.42 264.1,18.77C264.77,18.95 265.21,18.99 265.64,19.08C265.94,19.14 266.09,19.22 266.41,19.24C266.93,19.27 267.86,19.06 268.46,19.04C268.94,19.03 269.3,19 269.74,19.09C270.24,19.19 270.76,19.44 271.28,19.69C271.87,19.98 272.28,20.4 273.08,20.75C274.45,21.35 277.81,22.22 278.97,22.51Q279.45,22.63 280,22.71" style="vector-effect: non-scaling-stroke; fill: none; stroke: rgb(255, 192, 203); stroke-opacity: 1; stroke-width: 5px; opacity: 1;"/></g><g class="points"/><g class="text"/></g><g class="trace scatter tracecae221" style="stroke-miterlimit: 2; opacity: 1;"><g class="fills"/><g class="errorbars"/><g class="lines"><path class="js-line" d="M0,69.01Q3.38,67.73 4.62,66.98C5.56,66.41 6.4,65.34 6.92,65.14C7.14,65.05 7.19,65.2 7.44,65.1C8.53,64.66 13.33,59.88 15.13,58.75C15.99,58.21 16.4,58.07 17.18,57.81C18.14,57.49 19.39,57.21 20.51,57.07C21.62,56.93 22.59,56.96 23.85,56.96C25.49,56.96 27.89,57.2 29.49,57.16C30.67,57.13 31.31,56.89 32.56,56.89C34.55,56.89 38.68,57.53 40.26,57.58C40.96,57.6 41.24,57.55 41.79,57.54C42.43,57.53 43.13,57.59 43.85,57.55C44.66,57.51 45.42,57.31 46.41,57.26C47.77,57.19 50.26,57.25 51.28,57.28C51.75,57.29 52.03,57.33 52.31,57.34C52.51,57.35 52.59,57.34 52.82,57.34C53.27,57.33 54.3,57.29 54.87,57.26C55.27,57.24 55.44,57.23 55.9,57.18C56.81,57.09 58.7,56.72 60,56.66C61.17,56.61 62.85,56.75 63.33,56.77C63.47,56.77 63.45,56.78 63.59,56.78C64.14,56.78 66.86,56.73 67.69,56.69C68.05,56.67 68.15,56.66 68.46,56.64C68.93,56.61 69.84,56.55 70.26,56.54C70.48,56.53 70.51,56.54 70.77,56.54C71.61,56.54 74.97,56.49 76.15,56.53C76.73,56.55 77.07,56.61 77.44,56.61C77.73,56.61 77.85,56.63 78.21,56.58C79.07,56.46 81.54,55.8 82.56,55.53C83.12,55.38 83.33,55.29 83.85,55.17C84.61,54.99 85.62,54.84 86.67,54.61C88.02,54.32 89.71,53.77 91.28,53.53C92.87,53.28 95.05,53.21 96.15,53.15C96.72,53.12 96.93,53.17 97.44,53.11C98.2,53.03 99.08,52.7 100.26,52.57C102.23,52.36 105.82,52.46 108.21,52.38C110.18,52.32 112.5,52.31 113.59,52.17C114.07,52.11 114.12,52.04 114.62,51.95C115.99,51.7 119.66,51.07 122.31,50.76C125.12,50.43 128.41,50 131.03,50.05C133.19,50.09 135.67,50.75 136.92,50.77C137.51,50.78 137.61,50.65 138.21,50.65C139.57,50.64 143.04,50.89 144.87,51.16C146.18,51.35 147.36,51.85 148.21,51.9C148.73,51.93 148.93,51.87 149.49,51.78C150.63,51.59 153.34,50.74 154.62,50.53C155.36,50.4 155.66,50.47 156.41,50.36C157.73,50.17 159.78,49.67 161.79,49.33C164.34,48.9 168.53,48.36 170.51,48.09C171.53,47.95 172.1,47.9 172.82,47.78C173.46,47.67 173.92,47.47 174.62,47.42C175.56,47.36 177.23,47.61 177.95,47.64C178.3,47.66 178.38,47.63 178.72,47.66C179.37,47.71 180.58,47.96 181.54,48.04C182.54,48.13 183.42,48.08 184.62,48.16C186.32,48.27 189.4,48.75 190.77,48.69C191.46,48.66 191.59,48.57 192.31,48.43C194.06,48.09 198.9,46.83 201.28,46.46C202.82,46.22 203.95,46.24 205.13,46.1C206.14,45.98 206.94,45.79 207.95,45.68C209.13,45.55 210.48,45.58 211.79,45.4C213.2,45.21 214.58,44.88 216.15,44.53C218.03,44.12 220.56,43.25 222.31,43.05C223.58,42.91 224.32,43.13 225.64,43.08C227.58,43.01 231.51,42.61 232.82,42.46C233.32,42.4 233.46,42.34 233.85,42.31C234.36,42.28 234.89,42.38 235.64,42.33C236.96,42.23 239.94,41.61 241.03,41.48C241.5,41.42 241.58,41.43 242.05,41.39C243.14,41.29 246.8,40.99 247.44,40.9C247.58,40.88 247.56,40.87 247.69,40.85C248.21,40.76 250.46,40.52 251.54,40.32C252.33,40.17 252.96,40.03 253.59,39.84C254.14,39.68 254.56,39.49 255.13,39.29C255.82,39.05 256.87,38.68 257.44,38.52C257.76,38.43 257.83,38.38 258.21,38.35C259.25,38.26 262.78,38.48 264.1,38.64C264.78,38.73 265.22,38.84 265.64,38.95C265.94,39.03 266.09,39.12 266.41,39.18C266.93,39.27 267.86,39.34 268.46,39.3C268.94,39.27 269.3,39.16 269.74,39.05C270.23,38.93 270.74,38.69 271.28,38.59C271.85,38.48 272.31,38.56 273.08,38.43C274.48,38.19 277.81,36.95 278.97,36.94Q279.45,36.94 280,37.19" style="vector-effect: non-scaling-stroke; fill: none; stroke: rgb(0, 180, 219); stroke-opacity: 1; stroke-width: 5px; opacity: 1;"/></g><g class="points"/><g class="text"/></g><g class="trace scatter traceeae2eb" style="stroke-miterlimit: 2; opacity: 1;"><g class="fills"/><g class="errorbars"/><g class="lines"><path class="js-line" d="M0,43.26Q3.34,44.45 4.62,44.48C5.52,44.5 6.43,44.1 6.92,44C7.15,43.95 7.16,43.92 7.44,43.9C8.5,43.84 13.4,44.17 15.13,44.5C16.04,44.67 16.4,44.98 17.18,45.13C18.15,45.31 19.4,45.37 20.51,45.37C21.62,45.37 22.64,44.85 23.85,45.13C25.54,45.53 27.84,47.91 29.49,48.45C30.62,48.82 31.3,48.68 32.56,48.76C34.55,48.89 38.69,48.75 40.26,48.98C40.97,49.08 41.25,49.22 41.79,49.38C42.43,49.57 43.12,49.9 43.85,50.09C44.65,50.29 45.42,50.32 46.41,50.52C47.78,50.8 50.26,51.4 51.28,51.68C51.75,51.81 52.03,51.91 52.31,52.01C52.51,52.08 52.59,52.12 52.82,52.21C53.27,52.39 54.3,52.78 54.87,53C55.27,53.16 55.44,53.22 55.9,53.4C56.81,53.76 58.7,54.59 60,55.06C61.16,55.48 62.84,55.97 63.33,56.11C63.46,56.15 63.45,56.15 63.59,56.18C64.14,56.31 66.86,56.87 67.69,56.99C68.05,57.04 68.15,57.04 68.46,57.06C68.93,57.09 69.84,57.11 70.26,57.13C70.48,57.14 70.51,57.14 70.77,57.15C71.61,57.2 74.97,57.46 76.15,57.54C76.73,57.58 77.07,57.61 77.44,57.62C77.73,57.63 77.85,57.61 78.21,57.61C79.07,57.6 81.54,57.6 82.56,57.55C83.12,57.52 83.34,57.52 83.85,57.45C84.61,57.35 85.63,57.2 86.67,56.92C88.03,56.56 89.74,55.94 91.28,55.3C92.9,54.63 95.03,53.26 96.15,52.97C96.7,52.83 96.93,52.92 97.44,52.9C98.2,52.87 99.08,52.85 100.26,52.84C102.24,52.83 105.82,52.86 108.21,52.93C110.18,52.99 112.5,53.24 113.59,53.2C114.07,53.18 114.12,53.11 114.62,53.07C115.99,52.95 119.67,52.65 122.31,52.72C125.13,52.8 128.4,53.47 131.03,53.59C133.18,53.69 135.67,53.6 136.92,53.56C137.51,53.54 137.61,53.53 138.21,53.48C139.57,53.36 143.03,52.89 144.87,52.74C146.17,52.63 147.37,52.44 148.21,52.55C148.75,52.62 148.91,52.83 149.49,52.98C150.62,53.28 153.35,53.74 154.62,53.99C155.37,54.14 155.65,54.23 156.41,54.34C157.72,54.52 159.78,54.65 161.79,54.81C164.35,55.02 168.53,55.33 170.51,55.47C171.53,55.54 172.1,55.59 172.82,55.63C173.46,55.66 173.93,55.7 174.62,55.69C175.56,55.68 177.23,55.5 177.95,55.49C178.3,55.48 178.38,55.51 178.72,55.51C179.37,55.51 180.58,55.47 181.54,55.43C182.54,55.39 183.42,55.38 184.62,55.29C186.32,55.16 189.4,54.67 190.77,54.65C191.45,54.64 191.58,54.69 192.31,54.76C194.06,54.92 198.91,55.54 201.28,55.73C202.83,55.85 203.95,55.95 205.13,55.93C206.14,55.92 206.94,55.85 207.95,55.71C209.14,55.54 210.46,55.04 211.79,54.92C213.19,54.8 214.57,55.08 216.15,55.03C218.03,54.97 220.57,54.67 222.31,54.47C223.59,54.32 224.32,54.21 225.64,54.01C227.58,53.72 231.5,52.98 232.82,52.84C233.32,52.79 233.46,52.8 233.85,52.79C234.36,52.78 234.88,52.8 235.64,52.78C236.95,52.75 239.94,52.58 241.03,52.58C241.5,52.58 241.58,52.59 242.05,52.61C243.14,52.66 246.8,52.92 247.44,52.93C247.58,52.93 247.56,52.93 247.69,52.92C248.21,52.89 250.46,52.76 251.54,52.67C252.33,52.61 252.96,52.54 253.59,52.48C254.14,52.43 254.56,52.39 255.13,52.35C255.82,52.3 256.88,52.24 257.44,52.24C257.77,52.24 257.83,52.29 258.21,52.28C259.25,52.24 262.77,51.73 264.1,51.51C264.78,51.39 265.21,51.27 265.64,51.19C265.94,51.13 266.09,51.06 266.41,51.06C266.93,51.07 267.85,51.38 268.46,51.46C268.93,51.52 269.29,51.51 269.74,51.54C270.23,51.57 270.75,51.63 271.28,51.66C271.86,51.69 272.31,51.69 273.08,51.7C274.48,51.71 277.81,51.78 278.97,51.68Q279.46,51.64 280,51.51" style="vector-effect: non-scaling-stroke; fill: none; stroke: rgb(11, 76, 159); stroke-opacity: 1; stroke-width: 5px; opacity: 1;"/></g><g class="points"/><g class="text"/></g><g class="trace scatter trace8d01ee" style="stroke-miterlimit: 2; opacity: 1;"><g class="fills"/><g class="errorbars"/><g class="lines"><path class="js-line" d="M0,51.89Q3.33,50.5 4.62,50.1C5.51,49.83 6.42,49.61 6.92,49.57C7.15,49.55 7.17,49.63 7.44,49.61C8.5,49.52 13.39,48.24 15.13,47.7C16.04,47.42 16.4,47.1 17.18,46.93C18.14,46.72 19.4,46.82 20.51,46.71C21.62,46.6 22.59,46.46 23.85,46.27C25.49,46.02 27.9,45.59 29.49,45.28C30.67,45.05 31.32,44.95 32.56,44.61C34.56,44.07 38.68,42.69 40.26,42.12C40.97,41.86 41.25,41.75 41.79,41.5C42.43,41.21 43.12,40.8 43.85,40.47C44.65,40.1 45.41,39.77 46.41,39.4C47.77,38.9 50.25,38.05 51.28,37.84C51.74,37.74 52.03,37.77 52.31,37.74C52.51,37.72 52.6,37.72 52.82,37.68C53.28,37.59 54.3,37.25 54.87,37.12C55.27,37.03 55.45,37.05 55.9,36.93C56.82,36.68 58.71,35.95 60,35.47C61.17,35.03 62.85,34.38 63.33,34.17C63.47,34.11 63.45,34.1 63.59,34.04C64.14,33.79 66.86,32.73 67.69,32.39C68.05,32.24 68.14,32.16 68.46,32.06C68.93,31.91 69.84,31.69 70.26,31.65C70.48,31.63 70.51,31.63 70.77,31.66C71.62,31.75 74.97,32.64 76.15,32.73C76.72,32.78 77.07,32.71 77.44,32.68C77.73,32.66 77.85,32.6 78.21,32.6C79.07,32.61 81.54,33.11 82.56,33.17C83.12,33.2 83.34,33.1 83.85,33.15C84.61,33.23 85.61,33.55 86.67,33.76C88.02,34.02 89.74,34.13 91.28,34.57C92.9,35.03 95.03,36.3 96.15,36.51C96.7,36.62 96.93,36.57 97.44,36.51C98.2,36.42 99.07,36.03 100.26,35.85C102.23,35.56 105.82,35.42 108.21,35.35C110.18,35.29 112.5,35.48 113.59,35.36C114.07,35.31 114.11,35.22 114.62,35.13C115.99,34.88 119.66,34.31 122.31,34.01C125.12,33.69 128.42,33.14 131.03,33.3C133.2,33.43 135.67,34.48 136.92,34.51C137.5,34.52 137.61,34.32 138.21,34.31C139.57,34.29 143.05,34.67 144.87,35.13C146.2,35.46 147.35,36.28 148.21,36.43C148.73,36.52 148.92,36.44 149.49,36.4C150.63,36.33 153.35,35.9 154.62,35.88C155.37,35.87 155.66,36.05 156.41,36.01C157.73,35.93 159.77,35.17 161.79,34.98C164.34,34.74 168.54,34.78 170.51,34.96C171.53,35.06 172.1,35.37 172.82,35.4C173.46,35.42 173.93,35.25 174.62,35.2C175.56,35.14 177.23,35.08 177.95,35.13C178.3,35.15 178.38,35.22 178.72,35.25C179.36,35.31 180.58,35.39 181.54,35.34C182.55,35.29 183.42,34.9 184.62,34.94C186.32,35 189.41,36.22 190.77,36.17C191.46,36.14 191.57,35.85 192.31,35.74C194.05,35.47 198.93,35.12 201.28,35.4C202.85,35.58 203.94,36.34 205.13,36.47C206.13,36.58 206.95,36.19 207.95,36.32C209.15,36.48 210.46,37.52 211.79,37.57C213.19,37.62 214.57,36.49 216.15,36.5C218.03,36.51 220.57,37.63 222.31,38.09C223.59,38.43 224.35,38.49 225.64,38.98C227.61,39.72 231.52,41.75 232.82,42.53C233.34,42.84 233.45,43.02 233.85,43.27C234.36,43.58 234.86,43.92 235.64,44.21C236.93,44.69 239.95,45.07 241.03,45.45C241.52,45.62 241.57,45.75 242.05,45.94C243.13,46.37 246.8,47.51 247.44,47.66C247.58,47.69 247.56,47.66 247.69,47.7C248.22,47.85 250.45,48.91 251.54,49.3C252.32,49.58 252.95,49.75 253.59,49.92C254.14,50.06 254.58,50.08 255.13,50.27C255.83,50.51 256.87,51.15 257.44,51.33C257.76,51.43 257.83,51.43 258.21,51.48C259.25,51.62 262.78,51.67 264.1,51.87C264.79,51.97 265.21,52.15 265.64,52.24C265.94,52.3 266.09,52.31 266.41,52.38C266.93,52.49 267.85,52.78 268.46,52.85C268.93,52.9 269.3,52.9 269.74,52.85C270.23,52.79 270.75,52.59 271.28,52.47C271.86,52.34 272.3,52.16 273.08,52.09C274.47,51.96 277.81,52.13 278.97,52.25Q279.46,52.3 280,52.44" style="vector-effect: non-scaling-stroke; fill: none; stroke: rgb(177, 199, 12); stroke-opacity: 1; stroke-width: 5px; opacity: 1;"/></g><g class="points"/><g class="text"/></g></g></g><g class="overplot"/><path class="xlines-above crisp" d="M0,0" style="fill: none;"/><path class="ylines-above crisp" d="M0,0" style="fill: none;"/><g class="overlines-above"/><g class="xaxislayer-above"/><g class="yaxislayer-above"/><g class="overaxes-above"/></g></g><g class="polarlayer"/><g class="smithlayer"/><g class="ternarylayer"/><g class="geolayer"/><g class="funnelarealayer"/><g class="pielayer"/><g class="iciclelayer"/><g class="treemaplayer"/><g class="sunburstlayer"/><g class="glimages"/><defs id="topdefs-6b7be5"><g class="clips"/></defs><g class="layer-above"><g class="imagelayer"/><g class="shapelayer"/></g><g class="infolayer"><g class="g-gtitle"><text class="gtitle" x="15" y="25" text-anchor="start" dy="0em" style="font-family: Ubuntu, verdana, arial, sans-serif; font-size: 16px; fill: rgb(233, 84, 32); opacity: 1; font-weight: normal; white-space: pre;">NRSR 2020-2023</text></g><g class="g-xtitle"/><g class="g-ytitle"/></g></svg>