<svg class="main-svg" xmlns="http://www.w3.org/2000/svg" xmlns:xlink="http://www.w3.org/1999/xlink" width="300" height="135" style="" viewBox="0 0 300 135"><rect x="0" y="0" width="300" height="135" style="fill: rgb(255, 255, 255); fill-opacity: 1;"/><defs id="defs-caa7fe"><g class="clips"><clipPath id="clipcaa7fexyplot" class="plotclip"><rect width="280" height="75"/></clipPath><clipPath class="axesclip" id="clipcaa7fex"><rect x="10" y="0" width="280" height="135"/></clipPath><clipPath class="axesclip" id="clipcaa7fey"><rect x="0" y="50" width="300" height="75"/></clipPath><clipPath class="axesclip" id="clipcaa7fexy"><rect x="10" y="50" width="280" height="75"/></clipPath></g><g class="gradients"/><g class="patterns"/></defs><g class="bglayer"/><g class="layer-below"><g class="imagelayer"/><g class="shapelayer"/></g><g class="cartesianlayer"><g class="subplot xy"><g class="layer-subplot"><g class="shapelayer"/><g class="imagelayer"/></g><g class="gridlayer"><g class="x"><path class="xgrid crisp" transform="translate(81.57,0)" d="M0,50v75" style="stroke: rgb(235, 240, 248); stroke-opacity: 1; stroke-width: 1px;"/><path class="xgrid crisp" transform="translate(166.67,0)" d="M0,50v75" style="stroke: rgb(235, 240, 248); stroke-opacity: 1; stroke-width: 1px;"/><path class="xgrid crisp" transform="translate(251.77,0)" d="M0,50v75" style="stroke: rgb(235, 240, 248); stroke-opacity: 1; stroke-width: 1px;"/></g><g class="y"><path class="ygrid crisp" transform="translate(0,109.62)" d="M10,0h280" style="stroke: rgb(235, 240, 248); stroke-opacity: 1; stroke-width: 1px;"/><path class="ygrid crisp" transform="translate(0,94.25)" d="M10,0h280" style="stroke: rgb(235, 240, 248); stroke-opacity: 1; stroke-width: 1px;"/><path class="ygrid crisp" transform="translate(0,78.87)" d="M10,0h280" style="stroke: rgb(235, 240, 248); stroke-opacity: 1; stroke-width: 1px;"/><path class="ygrid crisp" transform="translate(0,63.5)" d="M10,0h280" style="stroke: rgb(235, 240, 248); stroke-opacity: 1; stroke-width: 1px;"/></g></g><g class="zerolinelayer"><path class="yzl zl crisp" transform="translate(0,125)" d="M10,0h280" style="stroke: rgb(235, 240, 248); stroke-opacity: 1; stroke-width: 2px;"/></g><path class="xlines-below"/><path class="ylines-below"/><g class="overlines-below"/><g class="xaxislayer-below"/><g class="yaxislayer-below"/><g class="overaxes-below"/><g class="plot" transform="translate(10,50)" clip-path="url(#clipcaa7fexyplot)"><g class="scatterlayer mlayer"><g class="trace scatter trace443197" style="stroke-miterlimit: 2; opacity: 1;"><g class="fills"/><g class="errorbars"/><g class="lines"><path class="js-line" d="M0,18.76Q2.72,13.41 4.43,12.59C5.7,11.98 7.48,12.66 8.63,12.83C9.45,12.95 10.27,13.32 10.72,13.34C10.93,13.35 10.94,13.26 11.19,13.27C12.15,13.32 16.63,14.42 18.18,15.12C19.05,15.51 19.39,15.81 20.05,16.38C20.99,17.2 22.1,18.55 23.08,19.76C24.12,21.05 25.05,22.14 26.11,23.9C27.71,26.58 29.68,31.94 31.24,34.59C32.24,36.28 32.74,37.29 34.04,38.54C35.74,40.18 39.57,42.28 41.03,43.13C41.66,43.5 41.93,43.58 42.43,43.85C43.01,44.17 43.63,44.61 44.3,44.93C45.02,45.28 45.72,45.53 46.63,45.84C47.86,46.26 50.13,46.92 51.06,47.11C51.48,47.2 51.73,47.23 51.99,47.23C52.17,47.23 52.25,47.18 52.46,47.18C52.87,47.17 53.81,47.31 54.32,47.33C54.68,47.34 54.84,47.27 55.25,47.31C56.08,47.39 57.8,48.07 58.98,48.14C60.04,48.2 61.57,47.86 62.01,47.84C62.13,47.83 62.12,47.85 62.25,47.84C62.75,47.81 65.23,47.39 65.98,47.36C66.3,47.35 66.4,47.36 66.68,47.39C67.11,47.43 67.93,47.57 68.31,47.63C68.51,47.66 68.54,47.68 68.78,47.7C69.55,47.77 72.6,47.87 73.67,47.86C74.19,47.86 74.5,47.81 74.84,47.8C75.1,47.79 75.21,47.8 75.54,47.78C76.32,47.74 78.57,47.55 79.5,47.47C80.01,47.43 80.21,47.43 80.67,47.37C81.36,47.28 82.27,47.08 83.23,46.89C84.46,46.64 86.03,46.39 87.43,45.97C88.9,45.53 90.85,44.59 91.86,44.26C92.37,44.1 92.55,44.04 93.02,43.95C93.7,43.82 94.53,43.88 95.59,43.62C97.41,43.18 102.81,40.97 102.81,40.97C102.81,40.97 102.81,40.97 102.81,40.97C102.81,40.97 107.71,38.79 107.71,38.79C107.71,38.79 107.71,38.79 107.71,38.79C107.71,38.79 108.18,38.93 108.64,38.96C109.88,39.05 113.27,39.19 115.64,38.76C118.23,38.28 121.23,37.13 123.56,36.01C125.59,35.04 127.77,33.19 128.93,32.64C129.44,32.4 129.55,32.43 130.09,32.25C131.32,31.83 134.49,30.79 136.15,30.13C137.34,29.66 138.39,28.9 139.18,28.79C139.65,28.73 139.84,28.85 140.35,28.96C141.39,29.18 143.85,30.15 145.01,30.27C145.69,30.34 145.95,30.18 146.64,30.17C147.83,30.16 149.72,30.47 151.54,30.37C153.87,30.24 157.68,29.54 159.47,29.13C160.4,28.92 160.91,28.62 161.57,28.5C162.14,28.4 162.57,28.41 163.2,28.4C164.05,28.39 165.57,28.5 166.23,28.48C166.55,28.47 166.62,28.42 166.93,28.42C167.52,28.42 168.62,28.51 169.49,28.64C170.41,28.77 171.19,29.07 172.29,29.21C173.83,29.41 176.65,29.41 177.89,29.52C178.51,29.58 178.62,29.62 179.28,29.7C180.87,29.89 185.29,30.59 187.44,30.56C188.85,30.54 189.86,30.19 190.94,30.08C191.86,29.99 192.59,29.97 193.51,29.93C194.58,29.89 195.8,29.92 197,29.85C198.28,29.77 199.54,29.64 200.97,29.45C202.68,29.23 204.98,28.72 206.56,28.56C207.72,28.44 208.39,28.49 209.59,28.41C211.35,28.29 214.93,27.94 216.12,27.81C216.57,27.76 216.7,27.74 217.05,27.7C217.52,27.65 217.99,27.61 218.68,27.53C219.88,27.4 222.59,27.02 223.58,26.94C224.01,26.91 224.08,26.95 224.51,26.91C225.5,26.82 228.83,26.25 229.41,26.15C229.54,26.13 229.52,26.13 229.64,26.11C230.12,26.03 232.16,25.74 233.14,25.57C233.86,25.45 234.42,25.33 235,25.21C235.5,25.1 235.89,25.01 236.4,24.89C237.03,24.74 237.99,24.48 238.5,24.36C238.8,24.29 238.86,24.27 239.2,24.2C240.15,24 243.35,23.39 244.56,23.11C245.18,22.97 245.58,22.9 245.96,22.74C246.24,22.62 246.37,22.48 246.66,22.32C247.13,22.06 247.97,21.56 248.53,21.4C248.95,21.28 249.29,21.37 249.69,21.27C250.14,21.16 250.61,20.94 251.09,20.73C251.62,20.49 252.72,19.9 252.72,19.9C252.72,19.9 252.72,19.9 252.72,19.9C252.72,19.9 255.32,19.74 256.22,19.77C256.79,19.79 257.15,19.88 257.62,19.93C258.09,19.98 258.68,20.05 259.02,20.05C259.21,20.05 259.35,20.02 259.48,20.01C259.57,20 259.6,20.01 259.72,19.99C260.12,19.92 261.49,19.34 262.28,19.29C262.95,19.25 263.53,19.46 264.15,19.54C264.77,19.62 265.54,19.75 266.01,19.78C266.3,19.8 266.46,19.81 266.71,19.79C267,19.77 267.23,19.71 267.64,19.63C268.44,19.47 270.35,19.02 271.14,18.83C271.55,18.73 271.73,18.62 272.07,18.59C272.49,18.55 272.94,18.69 273.47,18.68C274.15,18.67 275.12,18.53 275.8,18.44C276.33,18.37 276.81,18.29 277.2,18.22C277.47,18.17 277.69,18.1 277.9,18.07C278.07,18.04 278.17,18.04 278.37,18.02Q278.75,17.99 280,17.95" style="vector-effect: non-scaling-stroke; fill: none; stroke: rgb(238, 58, 67); stroke-opacity: 1; stroke-width: 5px; opacity: 1;"/></g><g class="points"/><g class="text"/></g><g class="trace scatter trace6b46a8" style="stroke-miterlimit: 2; opacity: 1;"><g class="fills"/><g class="errorbars"/><g class="lines"><path class="js-line" d="M31.24,40.13Q32.77,36.29 34.04,34.1C35.75,31.15 39.51,25.9 41.03,24.27C41.62,23.64 41.93,23.54 42.43,23.12C43.01,22.64 43.66,22.13 44.3,21.54C45.05,20.85 45.73,20.12 46.63,19.21C47.88,17.94 50.12,15.53 51.06,14.61C51.48,14.2 51.73,13.97 51.99,13.75C52.17,13.6 52.26,13.57 52.46,13.4C52.88,13.05 53.8,12.09 54.32,11.64C54.67,11.34 54.8,11.1 55.25,10.93C56.05,10.63 57.8,10.81 58.98,10.69C60.04,10.58 61.57,10.37 62.01,10.26C62.14,10.23 62.12,10.22 62.25,10.17C62.75,9.99 65.23,9.08 65.98,8.84C66.3,8.74 66.4,8.75 66.68,8.65C67.12,8.49 67.93,8.04 68.31,7.89C68.51,7.81 68.54,7.8 68.78,7.73C69.55,7.5 72.6,6.79 73.67,6.47C74.2,6.31 74.5,6.14 74.84,6.07C75.1,6.02 75.21,6.07 75.54,6.02C76.32,5.91 78.58,5.47 79.5,5.18C80.02,5.02 80.19,4.81 80.67,4.68C81.35,4.5 82.27,4.5 83.23,4.37C84.46,4.2 86.01,3.73 87.43,3.75C88.89,3.77 90.86,4.37 91.86,4.52C92.37,4.6 92.56,4.63 93.02,4.66C93.71,4.71 94.53,4.57 95.59,4.71C97.4,4.95 102.81,6.48 102.81,6.48C102.81,6.48 102.81,6.48 102.81,6.48C102.81,6.48 107.71,7.79 107.71,7.79C107.71,7.79 107.71,7.79 107.71,7.79C107.71,7.79 108.19,7.95 108.64,8.1C109.89,8.52 113.26,9.52 115.64,10.5C118.23,11.56 121.14,13.36 123.56,14.32C125.49,15.09 127.79,15.79 128.93,16.02C129.45,16.12 129.55,16.1 130.09,16.12C131.32,16.17 134.48,16.28 136.15,16.12C137.34,16 138.4,15.54 139.18,15.52C139.66,15.51 139.83,15.6 140.35,15.7C141.39,15.9 143.85,16.55 145.01,16.75C145.69,16.87 145.96,16.83 146.64,16.96C147.84,17.18 149.73,17.59 151.54,18.14C153.89,18.86 157.67,20.49 159.47,21.11C160.39,21.43 160.92,21.56 161.57,21.78C162.15,21.98 162.57,22.35 163.2,22.38C164.05,22.41 165.57,21.71 166.23,21.54C166.54,21.46 166.63,21.46 166.93,21.37C167.52,21.2 168.61,20.75 169.49,20.49C170.4,20.22 171.2,20.1 172.29,19.79C173.84,19.35 176.64,18.32 177.89,17.98C178.5,17.81 178.62,17.82 179.28,17.66C180.87,17.28 185.29,16.24 187.44,15.66C188.86,15.27 189.85,14.83 190.94,14.61C191.85,14.42 192.59,14.37 193.51,14.31C194.58,14.24 195.8,14.17 197,14.27C198.29,14.38 199.55,14.63 200.97,14.99C202.69,15.42 204.97,16.64 206.56,16.79C207.71,16.9 208.39,16.53 209.59,16.41C211.35,16.23 214.93,15.96 216.12,15.89C216.57,15.86 216.7,15.89 217.05,15.85C217.52,15.79 217.99,15.6 218.68,15.52C219.87,15.38 222.59,15.42 223.58,15.37C224.01,15.35 224.08,15.31 224.51,15.3C225.5,15.29 228.83,15.52 229.41,15.55C229.54,15.56 229.52,15.55 229.64,15.56C230.12,15.59 232.16,15.72 233.14,15.82C233.86,15.89 234.43,15.96 235,16.06C235.5,16.14 235.89,16.21 236.4,16.35C237.03,16.52 237.99,16.89 238.5,17.07C238.8,17.17 238.86,17.19 239.2,17.32C240.15,17.68 243.34,19.06 244.56,19.46C245.17,19.66 245.57,19.73 245.96,19.83C246.23,19.9 246.37,19.98 246.66,20.02C247.13,20.09 247.98,20 248.53,20.06C248.96,20.1 249.29,20.14 249.69,20.27C250.14,20.41 250.61,20.67 251.09,20.92C251.62,21.19 252.72,21.86 252.72,21.86C252.72,21.86 252.72,21.86 252.72,21.86C252.72,21.86 255.32,22.77 256.22,23.13C256.8,23.36 257.15,23.55 257.62,23.73C258.08,23.91 258.68,24.12 259.02,24.23C259.21,24.29 259.35,24.33 259.48,24.37C259.57,24.4 259.6,24.42 259.72,24.46C260.12,24.6 261.49,25.11 262.28,25.3C262.95,25.46 263.53,25.48 264.15,25.58C264.77,25.68 265.54,25.83 266.01,25.92C266.3,25.98 266.46,26.03 266.71,26.06C267,26.09 267.23,26.04 267.64,26.07C268.43,26.13 270.35,26.39 271.14,26.52C271.55,26.59 271.73,26.67 272.07,26.71C272.49,26.76 272.94,26.74 273.47,26.75C274.15,26.77 275.13,26.71 275.8,26.79C276.33,26.86 276.81,27.06 277.2,27.12C277.47,27.16 277.69,27.17 277.9,27.16C278.07,27.15 278.17,27.1 278.37,27.1Q278.75,27.09 280,27.26" style="vector-effect: non-scaling-stroke; fill: none; stroke: rgb(138, 44, 81); stroke-opacity: 1; stroke-width: 5px; opacity: 1;"/></g><g class="points"/><g class="text"/></g><g class="trace scatter trace0556f0" style="stroke-miterlimit: 2; opacity: 1;"><g class="fills"/><g class="errorbars"/><g class="lines"><path class="js-line" d="M0,53.6Q2.97,54.46 4.43,54.5C5.85,54.54 7.47,53.98 8.63,53.9C9.44,53.85 10.27,53.93 10.72,53.92C10.93,53.91 10.94,53.89 11.19,53.89C12.15,53.91 16.59,54.48 18.18,54.61C19,54.68 19.35,54.66 20.05,54.72C20.94,54.79 22.07,54.9 23.08,55.05C24.09,55.2 24.97,55.4 26.11,55.6C27.6,55.87 29.78,56.39 31.24,56.5C32.31,56.58 32.9,56.38 34.04,56.45C35.85,56.56 39.59,57.35 41.03,57.45C41.67,57.49 41.93,57.44 42.43,57.44C43.01,57.44 43.64,57.51 44.3,57.48C45.04,57.45 45.73,57.26 46.63,57.21C47.87,57.15 50.13,57.22 51.06,57.26C51.49,57.28 51.73,57.31 51.99,57.32C52.17,57.33 52.25,57.32 52.46,57.32C52.87,57.31 53.81,57.28 54.32,57.25C54.68,57.23 54.84,57.21 55.25,57.16C56.08,57.06 57.8,56.71 58.98,56.65C60.04,56.6 61.57,56.76 62.01,56.77C62.13,56.77 62.12,56.77 62.25,56.77C62.75,56.76 65.23,56.72 65.98,56.69C66.31,56.67 66.4,56.66 66.68,56.64C67.11,56.61 67.93,56.55 68.31,56.54C68.51,56.53 68.54,56.54 68.78,56.54C69.55,56.54 72.6,56.49 73.67,56.53C74.19,56.55 74.5,56.61 74.84,56.61C75.1,56.61 75.22,56.63 75.54,56.58C76.33,56.46 78.57,55.8 79.5,55.53C80.01,55.38 80.2,55.29 80.67,55.17C81.36,54.99 82.27,54.84 83.23,54.61C84.46,54.32 86,53.77 87.43,53.53C88.88,53.28 90.86,53.21 91.86,53.15C92.37,53.12 92.56,53.17 93.02,53.11C93.71,53.03 94.51,52.7 95.59,52.57C97.38,52.36 102.81,52.38 102.81,52.38C102.81,52.38 102.81,52.38 102.81,52.38C102.81,52.38 107.71,52.17 107.71,52.17C107.71,52.17 107.71,52.17 107.71,52.17C107.71,52.17 108.18,52.04 108.64,51.95C109.88,51.7 113.23,51.07 115.64,50.76C118.19,50.43 121.18,50 123.56,50.05C125.53,50.09 127.79,50.75 128.93,50.77C129.46,50.78 129.55,50.66 130.09,50.65C131.32,50.64 134.49,50.89 136.15,51.16C137.34,51.35 138.4,51.85 139.18,51.9C139.66,51.93 139.84,51.87 140.35,51.78C141.39,51.59 143.85,50.74 145.01,50.53C145.69,50.4 145.95,50.47 146.64,50.36C147.84,50.17 149.71,49.67 151.54,49.33C153.86,48.9 157.67,48.36 159.47,48.09C160.39,47.95 160.92,47.9 161.57,47.78C162.15,47.67 162.57,47.47 163.2,47.42C164.05,47.36 165.57,47.61 166.23,47.64C166.54,47.66 166.62,47.63 166.93,47.66C167.52,47.71 168.62,47.96 169.49,48.04C170.4,48.13 171.2,48.08 172.29,48.16C173.84,48.27 176.65,48.75 177.89,48.69C178.51,48.66 178.63,48.57 179.28,48.43C180.87,48.09 185.28,46.83 187.44,46.46C188.84,46.22 189.87,46.24 190.94,46.1C191.86,45.98 192.59,45.79 193.51,45.68C194.58,45.55 195.81,45.58 197,45.4C198.29,45.21 199.54,44.87 200.97,44.52C202.68,44.11 204.97,43.25 206.56,43.05C207.71,42.9 208.39,43.12 209.59,43.07C211.36,42.99 214.93,42.6 216.12,42.45C216.57,42.39 216.7,42.33 217.05,42.3C217.52,42.26 217.99,42.37 218.68,42.31C219.88,42.21 222.59,41.59 223.58,41.46C224.01,41.4 224.08,41.41 224.51,41.37C225.5,41.27 228.83,40.97 229.41,40.88C229.54,40.86 229.52,40.85 229.64,40.83C230.12,40.74 232.16,40.5 233.14,40.3C233.86,40.15 234.43,40.01 235,39.83C235.5,39.67 235.88,39.48 236.4,39.3C237.03,39.08 237.98,38.73 238.5,38.59C238.79,38.51 238.85,38.47 239.2,38.44C240.15,38.37 243.35,38.62 244.56,38.78C245.18,38.86 245.57,38.97 245.96,39.06C246.23,39.13 246.37,39.21 246.66,39.26C247.13,39.34 247.98,39.4 248.53,39.38C248.96,39.36 249.29,39.28 249.69,39.21C250.14,39.13 250.6,38.97 251.09,38.92C251.61,38.86 252.72,38.9 252.72,38.9C252.72,38.9 252.72,38.9 252.72,38.9C252.72,38.9 255.31,38.12 256.22,37.86C256.79,37.7 257.15,37.54 257.62,37.48C258.08,37.42 258.68,37.5 259.02,37.49C259.22,37.48 259.35,37.46 259.48,37.45C259.57,37.44 259.6,37.45 259.72,37.42C260.12,37.32 261.49,36.77 262.28,36.49C262.95,36.25 263.52,36 264.15,35.82C264.77,35.64 265.54,35.47 266.01,35.39C266.3,35.34 266.46,35.35 266.71,35.31C267,35.26 267.23,35.18 267.64,35.08C268.43,34.88 270.34,34.32 271.14,34.15C271.55,34.06 271.73,34.04 272.07,34C272.49,33.95 272.94,33.95 273.47,33.91C274.15,33.86 275.12,33.81 275.8,33.72C276.33,33.65 276.82,33.56 277.2,33.44C277.48,33.35 277.69,33.2 277.9,33.12C278.07,33.06 278.17,33.04 278.37,32.99Q278.75,32.89 280,32.62" style="vector-effect: non-scaling-stroke; fill: none; stroke: rgb(0, 180, 219); stroke-opacity: 1; stroke-width: 5px; opacity: 1;"/></g><g class="points"/><g class="text"/></g><g class="trace scatter trace5823d3" style="stroke-miterlimit: 2; opacity: 1;"><g class="fills"/><g class="errorbars"/><g class="lines"><path class="js-line" d="M87.43,70.07Q90.82,66.76 91.86,66.07C92.34,65.75 92.55,65.68 93.02,65.52C93.7,65.3 94.52,65.25 95.59,65.01C97.39,64.6 102.81,63.14 102.81,63.14C102.81,63.14 102.81,63.14 102.81,63.14C102.81,63.14 107.71,62.36 107.71,62.36C107.71,62.36 107.71,62.36 107.71,62.36C107.71,62.36 108.18,62.51 108.64,62.53C109.88,62.6 113.25,62.41 115.64,62C118.22,61.56 121.18,60.57 123.56,59.88C125.53,59.3 127.79,58.32 128.93,58.18C129.45,58.12 129.55,58.24 130.09,58.26C131.32,58.31 134.48,58.39 136.15,58.33C137.33,58.29 138.41,58.18 139.18,58.09C139.66,58.03 139.83,58 140.35,57.91C141.39,57.74 143.86,57.3 145.01,57.06C145.7,56.92 145.95,56.78 146.64,56.68C147.83,56.5 149.71,56.51 151.54,56.35C153.87,56.14 157.67,55.66 159.47,55.47C160.39,55.37 160.92,55.25 161.57,55.27C162.15,55.29 162.57,55.47 163.2,55.53C164.05,55.61 165.58,55.56 166.23,55.61C166.55,55.63 166.62,55.69 166.93,55.7C167.52,55.72 168.62,55.54 169.49,55.54C170.4,55.54 171.2,55.71 172.29,55.71C173.84,55.71 176.65,55.38 177.89,55.38C178.51,55.38 178.62,55.43 179.28,55.46C180.87,55.53 185.29,55.69 187.44,55.74C188.85,55.77 189.87,55.71 190.94,55.79C191.87,55.86 192.59,56.12 193.51,56.15C194.58,56.18 195.8,55.88 197,55.87C198.28,55.86 199.54,56.16 200.97,56.11C202.68,56.05 204.98,55.41 206.56,55.39C207.72,55.38 208.39,55.71 209.59,55.71C211.35,55.7 214.93,55.22 216.12,54.97C216.58,54.87 216.69,54.78 217.05,54.68C217.52,54.55 217.99,54.39 218.68,54.3C219.87,54.14 222.59,54.16 223.58,54.11C224.01,54.09 224.08,54.08 224.51,54.05C225.5,53.99 228.83,53.76 229.41,53.74C229.54,53.74 229.52,53.75 229.64,53.74C230.12,53.72 232.16,53.56 233.14,53.41C233.86,53.3 234.42,53.09 235,53C235.5,52.92 235.89,52.92 236.4,52.85C237.03,52.76 237.99,52.57 238.5,52.47C238.8,52.41 238.85,52.34 239.2,52.31C240.15,52.23 243.35,52.51 244.56,52.56C245.18,52.59 245.57,52.58 245.96,52.61C246.23,52.63 246.37,52.7 246.66,52.69C247.13,52.68 247.98,52.48 248.53,52.38C248.96,52.3 249.28,52.22 249.69,52.17C250.13,52.11 250.61,52.12 251.09,52.07C251.61,52.01 252.72,51.83 252.72,51.83C252.72,51.83 252.72,51.83 252.72,51.83C252.72,51.83 255.31,51.03 256.22,50.88C256.79,50.79 257.15,50.84 257.62,50.79C258.09,50.74 258.68,50.62 259.02,50.57C259.21,50.54 259.35,50.52 259.48,50.52C259.57,50.52 259.6,50.54 259.72,50.53C260.12,50.51 261.49,50.19 262.28,50.14C262.95,50.09 263.53,50.2 264.15,50.17C264.77,50.14 265.54,49.98 266.01,49.93C266.3,49.9 266.46,49.91 266.71,49.88C267,49.84 267.23,49.75 267.64,49.71C268.43,49.62 270.35,49.68 271.14,49.59C271.55,49.54 271.73,49.47 272.07,49.41C272.49,49.34 272.94,49.26 273.47,49.2C274.15,49.12 275.12,49.02 275.8,49.02C276.33,49.02 276.81,49.1 277.2,49.12C277.47,49.14 277.69,49.14 277.9,49.16C278.07,49.18 278.17,49.22 278.37,49.24Q278.75,49.27 280,49.26" style="vector-effect: non-scaling-stroke; fill: none; stroke: rgb(153, 51, 0); stroke-opacity: 1; stroke-width: 5px; opacity: 1;"/></g><g class="points"/><g class="text"/></g><g class="trace scatter traced88c0f" style="stroke-miterlimit: 2; opacity: 1;"><g class="fills"/><g class="errorbars"/><g class="lines"><path class="js-line" d="M0,49.66Q2.77,44.94 4.43,44.29C5.72,43.78 7.48,44.94 8.63,44.86C9.45,44.8 10.27,44.39 10.72,44.28C10.93,44.23 10.94,44.19 11.19,44.17C12.15,44.09 16.6,44.29 18.18,44.59C19.02,44.75 19.34,45.06 20.05,45.2C20.93,45.37 22.07,45.42 23.08,45.41C24.09,45.4 25.02,44.88 26.11,45.15C27.66,45.53 29.73,47.93 31.24,48.46C32.27,48.82 32.9,48.68 34.04,48.76C35.84,48.88 39.6,48.76 41.03,48.98C41.68,49.08 41.93,49.22 42.43,49.38C43.01,49.57 43.63,49.9 44.3,50.09C45.03,50.29 45.73,50.32 46.63,50.52C47.88,50.8 50.14,51.4 51.06,51.68C51.49,51.81 51.73,51.91 51.99,52.01C52.17,52.08 52.25,52.12 52.46,52.21C52.87,52.39 53.81,52.77 54.32,52.99C54.68,53.15 54.84,53.22 55.25,53.4C56.08,53.77 57.79,54.59 58.98,55.06C60.03,55.47 61.57,55.95 62.01,56.1C62.13,56.14 62.12,56.14 62.25,56.18C62.75,56.32 65.23,56.87 65.98,56.99C66.3,57.04 66.4,57.04 66.68,57.06C67.11,57.09 67.93,57.11 68.31,57.13C68.51,57.14 68.54,57.14 68.78,57.15C69.55,57.2 72.6,57.46 73.67,57.54C74.19,57.58 74.5,57.61 74.84,57.62C75.1,57.63 75.21,57.61 75.54,57.61C76.32,57.6 78.57,57.6 79.5,57.55C80.01,57.52 80.21,57.52 80.67,57.45C81.36,57.35 82.28,57.2 83.23,56.92C84.47,56.55 86.03,55.94 87.43,55.3C88.91,54.63 90.84,53.26 91.86,52.97C92.35,52.83 92.56,52.92 93.02,52.9C93.71,52.87 94.52,52.85 95.59,52.84C97.39,52.83 102.81,52.93 102.81,52.93C102.81,52.93 102.81,52.93 102.81,52.93C102.81,52.93 107.71,53.2 107.71,53.2C107.71,53.2 107.71,53.2 107.71,53.2C107.71,53.2 108.18,53.11 108.64,53.07C109.89,52.95 113.24,52.65 115.64,52.72C118.2,52.8 121.17,53.47 123.56,53.59C125.52,53.69 127.79,53.6 128.93,53.56C129.46,53.54 129.55,53.53 130.09,53.48C131.32,53.36 134.47,52.89 136.15,52.74C137.33,52.63 138.41,52.44 139.18,52.55C139.67,52.62 139.82,52.83 140.35,52.98C141.38,53.28 143.86,53.74 145.01,53.99C145.69,54.14 145.95,54.23 146.64,54.34C147.83,54.52 149.71,54.65 151.54,54.81C153.87,55.02 157.67,55.33 159.47,55.47C160.39,55.54 160.91,55.59 161.57,55.63C162.15,55.66 162.57,55.7 163.2,55.69C164.05,55.68 165.57,55.5 166.23,55.49C166.54,55.48 166.62,55.51 166.93,55.51C167.52,55.51 168.62,55.47 169.49,55.43C170.4,55.39 171.2,55.38 172.29,55.29C173.84,55.16 176.65,54.67 177.89,54.65C178.51,54.64 178.62,54.7 179.28,54.76C180.87,54.92 185.28,55.54 187.44,55.73C188.85,55.85 189.86,55.95 190.94,55.93C191.86,55.92 192.59,55.85 193.51,55.71C194.59,55.54 195.79,55.04 197,54.92C198.27,54.8 199.54,55.08 200.97,55.03C202.68,54.97 204.98,54.67 206.56,54.47C207.73,54.32 208.39,54.21 209.59,54.01C211.36,53.72 214.92,52.98 216.12,52.84C216.57,52.79 216.7,52.8 217.05,52.79C217.52,52.78 217.99,52.8 218.68,52.79C219.88,52.77 222.59,52.59 223.58,52.59C224.01,52.59 224.08,52.6 224.51,52.62C225.5,52.67 228.83,52.93 229.41,52.94C229.54,52.94 229.52,52.94 229.64,52.93C230.12,52.9 232.16,52.78 233.14,52.7C233.86,52.64 234.42,52.58 235,52.53C235.5,52.49 235.89,52.44 236.4,52.41C237.03,52.37 237.99,52.33 238.5,52.33C238.8,52.33 238.86,52.38 239.2,52.37C240.15,52.35 243.35,51.97 244.56,51.81C245.18,51.73 245.57,51.64 245.96,51.59C246.23,51.55 246.37,51.49 246.66,51.51C247.13,51.54 247.98,51.85 248.53,51.94C248.96,52.01 249.29,52.02 249.69,52.07C250.14,52.13 250.61,52.2 251.09,52.26C251.61,52.32 252.72,52.43 252.72,52.43C252.72,52.43 252.72,52.43 252.72,52.43C252.72,52.43 255.32,52.35 256.22,52.32C256.79,52.3 257.15,52.3 257.62,52.27C258.09,52.24 258.68,52.16 259.02,52.14C259.21,52.13 259.35,52.14 259.48,52.14C259.57,52.14 259.6,52.13 259.72,52.15C260.12,52.21 261.49,52.64 262.28,52.78C262.95,52.9 263.53,52.9 264.15,52.97C264.77,53.03 265.54,53.14 266.01,53.17C266.3,53.19 266.46,53.16 266.71,53.19C267,53.23 267.23,53.33 267.64,53.42C268.43,53.59 270.34,53.96 271.14,54.05C271.55,54.1 271.73,54.1 272.07,54.1C272.49,54.1 272.94,54.03 273.47,54.02C274.15,54.01 275.12,54.08 275.8,54.09C276.33,54.1 276.81,54.08 277.2,54.09C277.47,54.09 277.69,54.1 277.9,54.11C278.07,54.12 278.17,54.13 278.37,54.13Q278.75,54.13 280,54.05" style="vector-effect: non-scaling-stroke; fill: none; stroke: rgb(1, 27, 58); stroke-opacity: 1; stroke-width: 5px; opacity: 1;"/></g><g class="points"/><g class="text"/></g></g></g><g class="overplot"/><path class="xlines-above crisp" d="M0,0" style="fill: none;"/><path class="ylines-above crisp" d="M0,0" style="fill: none;"/><g class="overlines-above"/><g class="xaxislayer-above"/><g class="yaxislayer-above"/><g class="overaxes-above"/></g></g><g class="polarlayer"/><g class="smithlayer"/><g class="ternarylayer"/><g class="geolayer"/><g class="funnelarealayer"/><g class="pielayer"/><g class="iciclelayer"/><g class="treemaplayer"/><g class="sunburstlayer"/><g class="glimages"/><defs id="topdefs-caa7fe"><g class="clips"/></defs><g class="layer-above"><g class="imagelayer"/><g class="shapelayer"/></g><g class="infolayer"><g class="g-gtitle"><text class="gtitle" x="15" y="25" text-anchor="start" dy="0em" style="font-family: Ubuntu, verdana, arial, sans-serif; font-size: 16px; fill: rgb(233, 84, 32); opacity: 1; font-weight: normal; white-space: pre;">NRSR 2020-2023</text></g><g class="g-xtitle"/><g class="g-ytitle"/></g></svg>