<svg class="main-svg" xmlns="http://www.w3.org/2000/svg" xmlns:xlink="http://www.w3.org/1999/xlink" width="300" height="135" style="" viewBox="0 0 300 135"><rect x="0" y="0" width="300" height="135" style="fill: rgb(255, 255, 255); fill-opacity: 1;"/><defs id="defs-923061"><g class="clips"><clipPath id="clip923061xyplot" class="plotclip"><rect width="280" height="75"/></clipPath><clipPath class="axesclip" id="clip923061x"><rect x="10" y="0" width="280" height="135"/></clipPath><clipPath class="axesclip" id="clip923061y"><rect x="0" y="50" width="300" height="75"/></clipPath><clipPath class="axesclip" id="clip923061xy"><rect x="10" y="50" width="280" height="75"/></clipPath></g><g class="gradients"/><g class="patterns"/></defs><g class="bglayer"/><g class="layer-below"><g class="imagelayer"/><g class="shapelayer"/></g><g class="cartesianlayer"><g class="subplot xy"><g class="layer-subplot"><g class="shapelayer"/><g class="imagelayer"/></g><g class="minor-gridlayer"><g class="x"/><g class="y"/></g><g class="gridlayer"><g class="x"><path class="xgrid crisp" transform="translate(24.14,0)" d="M0,50v75" style="stroke: rgb(235, 240, 248); stroke-opacity: 1; stroke-width: 1px;"/><path class="xgrid crisp" transform="translate(111.82,0)" d="M0,50v75" style="stroke: rgb(235, 240, 248); stroke-opacity: 1; stroke-width: 1px;"/><path class="xgrid crisp" transform="translate(198.08,0)" d="M0,50v75" style="stroke: rgb(235, 240, 248); stroke-opacity: 1; stroke-width: 1px;"/><path class="xgrid crisp" transform="translate(284.34,0)" d="M0,50v75" style="stroke: rgb(235, 240, 248); stroke-opacity: 1; stroke-width: 1px;"/></g><g class="y"><path class="ygrid crisp" transform="translate(0,101.94)" d="M10,0h280" style="stroke: rgb(235, 240, 248); stroke-opacity: 1; stroke-width: 1px;"/><path class="ygrid crisp" transform="translate(0,78.88)" d="M10,0h280" style="stroke: rgb(235, 240, 248); stroke-opacity: 1; stroke-width: 1px;"/><path class="ygrid crisp" transform="translate(0,55.83)" d="M10,0h280" style="stroke: rgb(235, 240, 248); stroke-opacity: 1; stroke-width: 1px;"/></g></g><g class="zerolinelayer"><path class="yzl zl crisp" transform="translate(0,125)" d="M10,0h280" style="stroke: rgb(235, 240, 248); stroke-opacity: 1; stroke-width: 2px;"/></g><path class="xlines-below"/><path class="ylines-below"/><g class="overlines-below"/><g class="xaxislayer-below"/><g class="yaxislayer-below"/><g class="overaxes-below"/><g class="plot" transform="translate(10,50)" clip-path="url(#clip923061xyplot)"><g class="scatterlayer mlayer"><g class="trace scatter traceb63fa3" style="stroke-miterlimit: 2; opacity: 1;"><g class="fills"/><g class="errorbars"/><g class="lines"><path class="js-line" d="M0,50.9L4.24,47.91L5.66,47.91L11.31,48.14L12.73,47.33L32.53,46.41L33.94,45.72L60.81,44.91L62.22,40.07L79.19,40.07L82.02,43.41L86.26,42.72L87.68,42.72L97.58,42.49L98.99,45.02L101.82,46.29L103.23,45.83L104.65,45.37L106.06,46.41L142.83,45.72L144.24,43.41L147.07,44.33L148.48,44.33L149.9,44.1L151.31,40.3L154.14,37.99L155.56,37.99L156.97,37.42L158.38,33.61L161.21,31.42L162.63,31.42L166.87,30.73L168.28,29.69L172.53,27.15L173.94,27.15L185.25,27.5L186.67,28.65L197.98,28.65L199.39,27.04L200.81,27.04L202.22,24.27L207.88,24.27L209.29,21.16L217.78,21.16L219.19,19.31L227.68,16.32L229.09,16.32L230.51,12.4L231.92,12.4L233.33,12.4L234.75,10.44L236.16,5.71L237.58,5.71L248.89,5.71L250.3,7.44L253.13,8.25L254.55,8.25L255.96,8.71L257.37,10.55L260.2,10.78L261.62,9.98L275.76,10.09L277.17,6.29L278.59,3.75L280,3.98" style="vector-effect: none; fill: none; stroke: rgb(138, 44, 81); stroke-opacity: 1; stroke-width: 5px; opacity: 1;"/></g><g class="points"/><g class="text"/></g><g class="trace scatter trace80758b" style="stroke-miterlimit: 2; opacity: 1;"><g class="fills"/><g class="errorbars"/><g class="lines"><path class="js-line" d="M0,24.73L5.66,26.35L7.07,26.35L11.31,26.12L12.73,25.42L82.02,26.46L83.43,29.69L97.58,28.65L98.99,26L100.4,22.08L101.82,22.08L104.65,24.16L106.06,20.7L118.79,20.7L120.2,22.43L121.62,22.43L123.03,20.7L124.44,22.43L125.86,20.35L128.69,19.89L130.1,22.08L132.93,19.89L134.34,19.89L135.76,19.89L137.17,22.08L138.59,22.08L140,19.89L142.83,22.08L144.24,20.01L147.07,22.66L148.48,22.66L155.56,23.35L156.97,23.93L159.8,26.58L161.21,26.69L182.42,27.5L183.84,28.19L200.81,28.31L202.22,29.46L217.78,29.23L219.19,31.07L229.09,33.5L230.51,31.3L234.75,32.46L236.16,33.96L248.89,33.96L250.3,32.34L253.13,31.42L254.55,31.42L255.96,30.96L257.37,28.31L260.2,27.73L261.62,28.08L275.76,27.5L277.17,30.5L278.59,32.69L280,32.46" style="vector-effect: none; fill: none; stroke: rgb(0, 174, 239); stroke-opacity: 1; stroke-width: 5px; opacity: 1;"/></g><g class="points"/><g class="text"/></g><g class="trace scatter trace86a7cc" style="stroke-miterlimit: 2; opacity: 1;"><g class="fills"/><g class="errorbars"/><g class="lines"><path class="js-line" d="M0,63.36L9.9,64.51L11.31,63.82L15.56,63.13L16.97,63.13L60.81,63.36L62.22,64.74L82.02,63.82L83.43,56.32L98.99,57.01L100.4,57.71L125.86,58.05L127.27,58.51L142.83,57.71L144.24,61.05L147.07,58.74L148.48,58.74L149.9,58.86L151.31,60.59L154.14,61.97L155.56,61.97L156.97,61.63L158.38,62.78L166.87,62.89L168.28,62.78L178.18,63.47L179.6,63.47L182.42,63.01L183.84,61.97L185.25,61.97L186.67,60.36L197.98,60.36L199.39,61.86L205.05,63.93L206.46,63.93L226.26,65.08L227.68,65.2L229.09,65.2L230.51,68.77L248.89,69.93L250.3,70.04L258.79,70.96L260.2,71.2L264.44,71.66L265.86,71.66L275.76,72.12L277.17,72.92L280,73.27" style="vector-effect: none; fill: none; stroke: rgb(255, 1, 170); stroke-opacity: 1; stroke-width: 5px; opacity: 1;"/></g><g class="points"/><g class="text"/></g><g class="trace scatter trace9655d0" style="stroke-miterlimit: 2; opacity: 1;"><g class="fills"/><g class="errorbars"/><g class="lines"><path class="js-line" d="M0,65.89L8.48,66.12L9.9,64.51L12.73,68.08L14.14,68.08L101.82,68.66L103.23,69.12L106.06,68.77L107.47,68.77L151.31,69.93L152.73,70.16L166.87,71.08L168.28,71.43L178.18,72L179.6,72L224.85,73.16L226.26,73.27L234.75,73.85" style="vector-effect: none; fill: none; stroke: rgb(202, 166, 105); stroke-opacity: 1; stroke-width: 5px; opacity: 1;"/></g><g class="points"/><g class="text"/></g><g class="trace scatter traceecae4f" style="stroke-miterlimit: 2; opacity: 1;"><g class="fills"/><g class="errorbars"/><g class="lines"><path class="js-line" d="M0,66.93L15.56,67.04L16.97,67.04L52.32,67.39L53.74,68.31L79.19,69.24L82.02,67.85L83.43,70.85L86.26,70.85L104.65,71.77L106.06,72.23L166.87,73.04L168.28,73.5L207.88,73.5" style="vector-effect: none; fill: none; stroke: rgb(255, 192, 203); stroke-opacity: 1; stroke-width: 5px; opacity: 1;"/></g><g class="points"/><g class="text"/></g></g></g><g class="overplot"/><path class="xlines-above crisp" d="M0,0" style="fill: none;"/><path class="ylines-above crisp" d="M0,0" style="fill: none;"/><g class="overlines-above"/><g class="xaxislayer-above"/><g class="yaxislayer-above"/><g class="overaxes-above"/></g></g><g class="polarlayer"/><g class="smithlayer"/><g class="ternarylayer"/><g class="geolayer"/><g class="funnelarealayer"/><g class="pielayer"/><g class="iciclelayer"/><g class="treemaplayer"/><g class="sunburstlayer"/><g class="glimages"/><defs id="topdefs-923061"><g class="clips"/></defs><g class="layer-above"><g class="imagelayer"/><g class="shapelayer"/></g><g class="infolayer"><g class="g-gtitle"><text class="gtitle" x="15" y="25" text-anchor="start" dy="0em" style="font-family: Ubuntu, verdana, arial, sans-serif; font-size: 16px; fill: rgb(233, 84, 32); opacity: 1; font-weight: normal; white-space: pre;">Prezident/ka 2024</text></g><g class="g-xtitle"/><g class="g-ytitle"/></g></svg>