<svg class="main-svg" xmlns="http://www.w3.org/2000/svg" xmlns:xlink="http://www.w3.org/1999/xlink" width="300" height="135" style="" viewBox="0 0 300 135"><rect x="0" y="0" width="300" height="135" style="fill: rgb(255, 255, 255); fill-opacity: 1;"/><defs id="defs-d7b82d"><g class="clips"><clipPath id="clipd7b82dxyplot" class="plotclip"><rect width="280" height="75"/></clipPath><clipPath class="axesclip" id="clipd7b82dx"><rect x="10" y="0" width="280" height="135"/></clipPath><clipPath class="axesclip" id="clipd7b82dy"><rect x="0" y="50" width="300" height="75"/></clipPath><clipPath class="axesclip" id="clipd7b82dxy"><rect x="10" y="50" width="280" height="75"/></clipPath></g><g class="gradients"/><g class="patterns"/></defs><g class="bglayer"/><g class="layer-below"><g class="imagelayer"/><g class="shapelayer"/></g><g class="cartesianlayer"><g class="subplot xy"><g class="layer-subplot"><g class="shapelayer"/><g class="imagelayer"/></g><g class="minor-gridlayer"><g class="x"/><g class="y"/></g><g class="gridlayer"><g class="x"><path class="xgrid crisp" transform="translate(21.240000000000002,0)" d="M0,50v75" style="stroke: rgb(235, 240, 248); stroke-opacity: 1; stroke-width: 1px;"/><path class="xgrid crisp" transform="translate(90.96,0)" d="M0,50v75" style="stroke: rgb(235, 240, 248); stroke-opacity: 1; stroke-width: 1px;"/><path class="xgrid crisp" transform="translate(159.56,0)" d="M0,50v75" style="stroke: rgb(235, 240, 248); stroke-opacity: 1; stroke-width: 1px;"/><path class="xgrid crisp" transform="translate(228.15,0)" d="M0,50v75" style="stroke: rgb(235, 240, 248); stroke-opacity: 1; stroke-width: 1px;"/></g><g class="y"><path class="ygrid crisp" transform="translate(0,102.77000000000001)" d="M10,0h280" style="stroke: rgb(235, 240, 248); stroke-opacity: 1; stroke-width: 1px;"/><path class="ygrid crisp" transform="translate(0,80.53999999999999)" d="M10,0h280" style="stroke: rgb(235, 240, 248); stroke-opacity: 1; stroke-width: 1px;"/><path class="ygrid crisp" transform="translate(0,58.31)" d="M10,0h280" style="stroke: rgb(235, 240, 248); stroke-opacity: 1; stroke-width: 1px;"/></g></g><g class="zerolinelayer"><path class="yzl zl crisp" transform="translate(0,125)" d="M10,0h280" style="stroke: rgb(235, 240, 248); stroke-opacity: 1; stroke-width: 2px;"/></g><path class="xlines-below"/><path class="ylines-below"/><g class="overlines-below"/><g class="xaxislayer-below"/><g class="yaxislayer-below"/><g class="overaxes-below"/><g class="plot" transform="translate(10,50)" clip-path="url(#clipd7b82dxyplot)"><g class="scatterlayer mlayer"><g class="trace scatter tracebd71f7" style="stroke-miterlimit: 2; opacity: 1;"><g class="fills"/><g class="errorbars"/><g class="lines"><path class="js-line" d="M264.26,21.65L280,21.65" style="vector-effect: none; fill: none; stroke: rgb(187, 187, 187); stroke-opacity: 1; stroke-width: 5px; opacity: 1;"/></g><g class="points"/><g class="text"/></g><g class="trace scatter traced8c0fb" style="stroke-miterlimit: 2; opacity: 1;"><g class="fills"/><g class="errorbars"/><g class="lines"><path class="js-line" d="M0,51.77L3.37,48.88L4.5,48.88L9,49.1L10.12,48.32L25.86,47.43L26.99,46.77L48.35,45.99L49.48,41.32L62.97,41.32L65.22,44.54L68.59,43.88L69.72,43.88L77.59,43.65L78.71,46.1L80.96,47.32L82.09,46.88L83.21,46.43L84.34,47.43L113.57,46.77L114.7,44.54L116.95,45.43L118.07,45.43L119.2,45.21L120.32,41.54L122.57,39.32L123.69,39.32L124.82,38.76L125.94,35.1L128.19,32.98L129.32,32.98L132.69,32.32L133.82,31.32L137.19,28.87L138.31,28.87L147.31,29.2L148.43,30.32L157.43,30.32L158.55,28.76L159.68,28.76L160.8,26.09L165.3,26.09L166.43,23.09L173.17,23.09L174.3,21.31L181.04,18.42L182.17,18.42L184.42,14.64L185.54,14.64L186.67,12.75L187.79,8.2L197.91,8.2L199.04,9.86L201.29,10.64L202.41,10.64L204.66,12.86L205.78,13.53L211.41,12.31L212.53,12.31L219.28,12.42L220.4,8.75L222.65,5.08L223.78,4.97L227.15,5.86L228.27,3.75L231.65,4.75L232.77,5.64L235.02,6.75L236.14,10.53L237.27,11.86L238.39,10.53L240.64,10.64L241.77,8.86L244.02,8.97L245.14,9.09L247.39,8.64L248.51,7.75L251.89,4.64L253.01,4.64L256.39,6.64L257.51,5.75L259.76,6.42L260.88,8.64L263.13,14.87L264.26,43.65L275.5,43.88L276.63,42.21L280,40.54" style="vector-effect: none; fill: none; stroke: rgb(138, 44, 81); stroke-opacity: 1; stroke-width: 5px; opacity: 1;"/></g><g class="points"/><g class="text"/></g><g class="trace scatter traceaa64ec" style="stroke-miterlimit: 2; opacity: 1;"><g class="fills"/><g class="errorbars"/><g class="lines"><path class="js-line" d="M0,26.54L4.5,28.09L5.62,28.09L9,27.87L10.12,27.2L65.22,28.2L66.35,31.32L77.59,30.32L78.71,27.76L80.96,23.98L82.09,24.98L83.21,25.98L84.34,22.65L94.46,22.65L95.58,24.31L96.71,24.31L97.83,22.65L98.96,24.31L100.08,22.31L102.33,21.87L103.45,23.98L105.7,21.87L106.83,21.87L107.95,21.87L109.08,23.98L110.2,23.98L111.33,21.87L113.57,23.98L114.7,21.98L116.95,24.54L118.07,24.54L124.82,25.76L125.94,27.65L129.32,28.43L130.44,28.43L145.06,29.2L146.18,29.87L173.17,30.87L174.3,32.65L182.17,34.98L183.29,32.87L186.67,33.98L187.79,35.43L197.91,35.43L199.04,33.87L201.29,32.98L202.41,32.98L203.53,32.54L204.66,29.98L206.91,29.43L208.03,29.76L219.28,29.2L220.4,32.09L222.65,35.43L223.78,35.54L226.02,33.76L227.15,32.98L229.4,35.1L230.52,34.54L235.02,32.09L236.14,28.32L237.27,26.98L238.39,28.32L240.64,28.2L241.77,29.98L244.02,29.87L245.14,29.76L247.39,30.2L248.51,31.09L251.89,34.21L253.01,34.21L256.39,32.21L257.51,33.09L259.76,32.43L260.88,30.2L263.13,23.98L264.26,48.66L275.5,48.43L276.63,50.21L280,51.77" style="vector-effect: none; fill: none; stroke: rgb(0, 174, 239); stroke-opacity: 1; stroke-width: 5px; opacity: 1;"/></g><g class="points"/><g class="text"/></g><g class="trace scatter trace018ddd" style="stroke-miterlimit: 2; opacity: 1;"><g class="fills"/><g class="errorbars"/><g class="lines"><path class="js-line" d="M0,63.77L7.87,64.88L9,64.22L12.37,63.55L13.49,63.55L48.35,63.77L49.48,65.11L65.22,64.22L66.35,56.99L78.71,57.66L79.84,58.33L100.08,58.66L101.2,59.1L113.57,58.33L114.7,61.55L116.95,59.33L118.07,59.33L119.2,59.44L120.32,61.11L122.57,62.44L123.69,62.44L124.82,62.11L125.94,63.22L132.69,63.33L133.82,63.22L141.69,63.88L142.81,63.88L145.06,63.44L146.18,62.44L147.31,62.44L148.43,60.88L157.43,60.88L158.55,62.33L164.18,64.33L165.3,64.33L167.55,65.22L168.67,65.22L182.17,65.55L183.29,69L203.53,70.11L204.66,71.11L219.28,72.22L220.4,73L226.02,73.55" style="vector-effect: none; fill: none; stroke: rgb(255, 1, 170); stroke-opacity: 1; stroke-width: 5px; opacity: 1;"/></g><g class="points"/><g class="text"/></g><g class="trace scatter trace36b583" style="stroke-miterlimit: 2; opacity: 1;"><g class="fills"/><g class="errorbars"/><g class="lines"><path class="js-line" d="M0,66.22L6.75,66.44L7.87,64.88L10.12,68.33L11.24,68.33L80.96,68.89L82.09,69.33L84.34,69L85.46,69L120.32,70.11L121.45,70.33L133.82,71.55L134.94,71.78L139.44,72.11L140.56,72.11L182.17,73.33L183.29,73.67L186.67,73.89" style="vector-effect: none; fill: none; stroke: rgb(202, 166, 105); stroke-opacity: 1; stroke-width: 5px; opacity: 1;"/></g><g class="points"/><g class="text"/></g></g></g><g class="overplot"/><path class="xlines-above crisp" d="M0,0" style="fill: none;"/><path class="ylines-above crisp" d="M0,0" style="fill: none;"/><g class="overlines-above"/><g class="xaxislayer-above"/><g class="yaxislayer-above"/><g class="overaxes-above"/></g></g><g class="polarlayer"/><g class="smithlayer"/><g class="ternarylayer"/><g class="geolayer"/><g class="funnelarealayer"/><g class="pielayer"/><g class="iciclelayer"/><g class="treemaplayer"/><g class="sunburstlayer"/><g class="glimages"/><defs id="topdefs-d7b82d"><g class="clips"/></defs><g class="layer-above"><g class="imagelayer"/><g class="shapelayer"/></g><g class="infolayer"><g class="g-gtitle"><text class="gtitle" x="15" y="25" text-anchor="start" dy="0em" style="font-family: Ubuntu, verdana, arial, sans-serif; font-size: 16px; fill: rgb(233, 84, 32); opacity: 1; font-weight: normal; white-space: pre;">Prezident/ka 2024</text></g><g class="g-xtitle"/><g class="g-ytitle"/></g></svg>