<svg class="main-svg" xmlns="http://www.w3.org/2000/svg" xmlns:xlink="http://www.w3.org/1999/xlink" width="300" height="135" style="" viewBox="0 0 300 135"><rect x="0" y="0" width="300" height="135" style="fill: rgb(255, 255, 255); fill-opacity: 1;"/><defs id="defs-2f868c"><g class="clips"><clipPath id="clip2f868cxyplot" class="plotclip"><rect width="280" height="75"/></clipPath><clipPath class="axesclip" id="clip2f868cx"><rect x="10" y="0" width="280" height="135"/></clipPath><clipPath class="axesclip" id="clip2f868cy"><rect x="0" y="50" width="300" height="75"/></clipPath><clipPath class="axesclip" id="clip2f868cxy"><rect x="10" y="50" width="280" height="75"/></clipPath></g><g class="gradients"/><g class="patterns"/></defs><g class="bglayer"/><g class="layer-below"><g class="imagelayer"/><g class="shapelayer"/></g><g class="cartesianlayer"><g class="subplot xy"><g class="layer-subplot"><g class="shapelayer"/><g class="imagelayer"/></g><g class="minor-gridlayer"><g class="x"/><g class="y"/></g><g class="gridlayer"><g class="x"><path class="xgrid crisp" transform="translate(24.21,0)" d="M0,50v75" style="stroke: rgb(235, 240, 248); stroke-opacity: 1; stroke-width: 1px;"/><path class="xgrid crisp" transform="translate(112.34,0)" d="M0,50v75" style="stroke: rgb(235, 240, 248); stroke-opacity: 1; stroke-width: 1px;"/><path class="xgrid crisp" transform="translate(199.04,0)" d="M0,50v75" style="stroke: rgb(235, 240, 248); stroke-opacity: 1; stroke-width: 1px;"/><path class="xgrid crisp" transform="translate(285.74,0)" d="M0,50v75" style="stroke: rgb(235, 240, 248); stroke-opacity: 1; stroke-width: 1px;"/></g><g class="y"><path class="ygrid crisp" transform="translate(0,101.97999999999999)" d="M10,0h280" style="stroke: rgb(235, 240, 248); stroke-opacity: 1; stroke-width: 1px;"/><path class="ygrid crisp" transform="translate(0,78.96000000000001)" d="M10,0h280" style="stroke: rgb(235, 240, 248); stroke-opacity: 1; stroke-width: 1px;"/><path class="ygrid crisp" transform="translate(0,55.94)" d="M10,0h280" style="stroke: rgb(235, 240, 248); stroke-opacity: 1; stroke-width: 1px;"/></g></g><g class="zerolinelayer"><path class="yzl zl crisp" transform="translate(0,125)" d="M10,0h280" style="stroke: rgb(235, 240, 248); stroke-opacity: 1; stroke-width: 2px;"/></g><path class="xlines-below"/><path class="ylines-below"/><g class="overlines-below"/><g class="xaxislayer-below"/><g class="yaxislayer-below"/><g class="overaxes-below"/><g class="plot" transform="translate(10,50)" clip-path="url(#clip2f868cxyplot)"><g class="scatterlayer mlayer"><g class="trace scatter tracea15712" style="stroke-miterlimit: 2; opacity: 1;"><g class="fills"/><g class="errorbars"/><g class="lines"><path class="js-line" d="M0,50.94L4.26,47.95L5.69,47.95L11.37,48.18L12.79,47.37L32.69,46.45L34.11,45.76L61.12,44.96L62.54,40.12L79.59,40.12L82.44,43.46L86.7,42.77L88.12,42.77L98.07,42.54L99.49,45.07L102.34,46.34L103.76,45.88L105.18,45.42L106.6,46.45L143.55,45.76L144.97,43.46L147.82,44.38L149.24,44.38L150.66,44.15L152.08,40.35L154.92,38.05L156.35,38.05L157.77,37.48L159.19,33.68L162.03,31.49L163.45,31.49L167.72,30.8L169.14,29.76L173.4,27.23L174.82,27.23L186.19,27.58L187.61,28.73L198.98,28.73L200.41,27.12L201.83,27.12L203.25,24.35L208.93,24.35L210.36,21.25L218.88,21.25L220.3,19.4L228.83,16.41L230.25,16.41L231.68,12.5L233.1,12.5L234.52,12.5L235.94,10.54L237.36,5.82L238.78,5.82L250.15,5.82L251.57,7.55L254.42,8.35L255.84,8.35L257.26,8.81L258.68,10.66L261.52,10.89L262.94,10.08L277.16,10.2L278.58,6.4L280,3.75" style="vector-effect: none; fill: none; stroke: rgb(138, 44, 81); stroke-opacity: 1; stroke-width: 5px; opacity: 1;"/></g><g class="points"/><g class="text"/></g><g class="trace scatter tracefb809a" style="stroke-miterlimit: 2; opacity: 1;"><g class="fills"/><g class="errorbars"/><g class="lines"><path class="js-line" d="M0,24.81L5.69,26.43L7.11,26.43L11.37,26.2L12.79,25.5L82.44,26.54L83.86,29.76L98.07,28.73L99.49,26.08L100.91,22.17L102.34,22.17L105.18,24.24L106.6,20.79L119.39,20.79L120.81,22.51L122.23,22.51L123.65,20.79L125.08,22.51L126.5,20.44L129.34,19.98L130.76,22.17L133.6,19.98L135.03,19.98L136.45,19.98L137.87,22.17L139.29,22.17L140.71,19.98L143.55,22.17L144.97,20.09L147.82,22.74L149.24,22.74L156.35,23.43L157.77,24.01L160.61,26.66L162.03,26.77L183.35,27.58L184.77,28.27L201.83,28.38L203.25,29.53L218.88,29.3L220.3,31.14L230.25,33.56L231.68,31.38L235.94,32.53L237.36,34.02L250.15,34.02L251.57,32.41L254.42,31.49L255.84,31.49L257.26,31.03L258.68,28.38L261.52,27.81L262.94,28.15L277.16,27.58L278.58,30.57L280,32.87" style="vector-effect: none; fill: none; stroke: rgb(0, 174, 239); stroke-opacity: 1; stroke-width: 5px; opacity: 1;"/></g><g class="points"/><g class="text"/></g><g class="trace scatter trace1f6204" style="stroke-miterlimit: 2; opacity: 1;"><g class="fills"/><g class="errorbars"/><g class="lines"><path class="js-line" d="M0,63.37L9.95,64.53L11.37,63.83L15.63,63.14L17.06,63.14L61.12,63.37L62.54,64.76L82.44,63.83L83.86,56.35L99.49,57.04L100.91,57.73L126.5,58.08L127.92,58.54L143.55,57.73L144.97,61.07L147.82,58.77L149.24,58.77L150.66,58.89L152.08,60.61L154.92,61.99L156.35,61.99L157.77,61.65L159.19,62.8L166.29,63.03L167.72,62.91L176.24,63.49L177.66,63.49L183.35,63.03L184.77,61.99L186.19,61.99L187.61,60.38L198.98,60.38L200.41,61.88L206.09,63.95L207.51,63.95L227.41,65.1L228.83,65.22L230.25,65.22L231.68,68.78L250.15,69.94L251.57,70.05L260.1,70.97L261.52,71.2L265.79,71.66L267.21,71.66L277.16,72.12L278.58,72.93L280,73.27" style="vector-effect: none; fill: none; stroke: rgb(255, 1, 170); stroke-opacity: 1; stroke-width: 5px; opacity: 1;"/></g><g class="points"/><g class="text"/></g><g class="trace scatter trace227c37" style="stroke-miterlimit: 2; opacity: 1;"><g class="fills"/><g class="errorbars"/><g class="lines"><path class="js-line" d="M0,66.94L14.21,67.06L15.63,67.06L52.59,67.4L54.01,68.32L79.59,69.24L82.44,67.86L83.86,70.86L86.7,70.86L105.18,71.78L106.6,72.24L167.72,73.04L169.14,73.5L208.93,73.5" style="vector-effect: none; fill: none; stroke: rgb(255, 192, 203); stroke-opacity: 1; stroke-width: 5px; opacity: 1;"/></g><g class="points"/><g class="text"/></g><g class="trace scatter trace1fa11b" style="stroke-miterlimit: 2; opacity: 1;"><g class="fills"/><g class="errorbars"/><g class="lines"><path class="js-line" d="M0,65.91L8.53,66.14L9.95,64.53L12.79,68.09L14.21,68.09L102.34,68.67L103.76,69.13L106.6,68.78L108.02,68.78L152.08,69.94L153.5,70.17L167.72,71.09L169.14,71.43L179.09,72.01L180.51,72.01L225.99,73.16L227.41,73.27L235.94,73.85" style="vector-effect: none; fill: none; stroke: rgb(202, 166, 105); stroke-opacity: 1; stroke-width: 5px; opacity: 1;"/></g><g class="points"/><g class="text"/></g></g></g><g class="overplot"/><path class="xlines-above crisp" d="M0,0" style="fill: none;"/><path class="ylines-above crisp" d="M0,0" style="fill: none;"/><g class="overlines-above"/><g class="xaxislayer-above"/><g class="yaxislayer-above"/><g class="overaxes-above"/></g></g><g class="polarlayer"/><g class="smithlayer"/><g class="ternarylayer"/><g class="geolayer"/><g class="funnelarealayer"/><g class="pielayer"/><g class="iciclelayer"/><g class="treemaplayer"/><g class="sunburstlayer"/><g class="glimages"/><defs id="topdefs-2f868c"><g class="clips"/></defs><g class="layer-above"><g class="imagelayer"/><g class="shapelayer"/></g><g class="infolayer"><g class="g-gtitle"><text class="gtitle" x="15" y="25" text-anchor="start" dy="0em" style="font-family: Ubuntu, verdana, arial, sans-serif; font-size: 16px; fill: rgb(233, 84, 32); opacity: 1; font-weight: normal; white-space: pre;">Prezident/ka 2024</text></g><g class="g-xtitle"/><g class="g-ytitle"/></g></svg>