<svg class="main-svg" xmlns="http://www.w3.org/2000/svg" xmlns:xlink="http://www.w3.org/1999/xlink" width="300" height="135" style="" viewBox="0 0 300 135"><rect x="0" y="0" width="300" height="135" style="fill: rgb(255, 255, 255); fill-opacity: 1;"/><defs id="defs-bd551d"><g class="clips"><clipPath id="clipbd551dxyplot" class="plotclip"><rect width="280" height="75"/></clipPath><clipPath class="axesclip" id="clipbd551dx"><rect x="10" y="0" width="280" height="135"/></clipPath><clipPath class="axesclip" id="clipbd551dy"><rect x="0" y="50" width="300" height="75"/></clipPath><clipPath class="axesclip" id="clipbd551dxy"><rect x="10" y="50" width="280" height="75"/></clipPath></g><g class="gradients"/><g class="patterns"/></defs><g class="bglayer"/><g class="layer-below"><g class="imagelayer"/><g class="shapelayer"/></g><g class="cartesianlayer"><g class="subplot xy"><g class="layer-subplot"><g class="shapelayer"/><g class="imagelayer"/></g><g class="minor-gridlayer"><g class="x"/><g class="y"/></g><g class="gridlayer"><g class="x"><path class="xgrid crisp" transform="translate(23.73,0)" d="M0,50v75" style="stroke: rgb(235, 240, 248); stroke-opacity: 1; stroke-width: 1px;"/><path class="xgrid crisp" transform="translate(108.82,0)" d="M0,50v75" style="stroke: rgb(235, 240, 248); stroke-opacity: 1; stroke-width: 1px;"/><path class="xgrid crisp" transform="translate(192.55,0)" d="M0,50v75" style="stroke: rgb(235, 240, 248); stroke-opacity: 1; stroke-width: 1px;"/><path class="xgrid crisp" transform="translate(276.27,0)" d="M0,50v75" style="stroke: rgb(235, 240, 248); stroke-opacity: 1; stroke-width: 1px;"/></g><g class="y"><path class="ygrid crisp" transform="translate(0,102.77000000000001)" d="M10,0h280" style="stroke: rgb(235, 240, 248); stroke-opacity: 1; stroke-width: 1px;"/><path class="ygrid crisp" transform="translate(0,80.53999999999999)" d="M10,0h280" style="stroke: rgb(235, 240, 248); stroke-opacity: 1; stroke-width: 1px;"/><path class="ygrid crisp" transform="translate(0,58.31)" d="M10,0h280" style="stroke: rgb(235, 240, 248); stroke-opacity: 1; stroke-width: 1px;"/></g></g><g class="zerolinelayer"><path class="yzl zl crisp" transform="translate(0,125)" d="M10,0h280" style="stroke: rgb(235, 240, 248); stroke-opacity: 1; stroke-width: 2px;"/></g><path class="xlines-below"/><path class="ylines-below"/><g class="overlines-below"/><g class="xaxislayer-below"/><g class="yaxislayer-below"/><g class="overaxes-below"/><g class="plot" transform="translate(10,50)" clip-path="url(#clipbd551dxyplot)"><g class="scatterlayer mlayer"><g class="trace scatter traceeb2ddc" style="stroke-miterlimit: 2; opacity: 1;"><g class="fills"/><g class="errorbars"/><g class="lines"><path class="js-line" d="M0,51.77L4.12,48.88L5.49,48.88L10.98,49.1L12.35,48.32L31.57,47.43L32.94,46.77L59.02,45.99L60.39,41.32L76.86,41.32L79.61,44.54L83.73,43.88L85.1,43.88L94.71,43.65L96.08,46.1L98.82,47.32L100.2,46.88L101.57,46.43L102.94,47.43L138.63,46.77L140,44.54L142.75,45.43L144.12,45.43L145.49,45.21L146.86,41.54L149.61,39.32L150.98,39.32L152.35,38.76L153.73,35.1L156.47,32.98L157.84,32.98L161.96,32.32L163.33,31.32L167.45,28.87L168.82,28.87L179.8,29.2L181.18,30.32L192.16,30.32L193.53,28.76L194.9,28.76L196.27,26.09L201.76,26.09L203.14,23.09L211.37,23.09L212.75,21.31L220.98,18.42L222.35,18.42L223.73,14.64L225.1,14.64L226.47,14.64L227.84,12.75L229.22,8.2L230.59,8.2L241.57,8.2L242.94,9.86L245.69,10.64L247.06,10.64L248.43,11.09L249.8,12.86L252.55,13.09L253.92,12.31L267.65,12.42L269.02,8.75L271.76,5.08L273.14,4.97L277.25,5.86L278.63,3.75L280,3.75" style="vector-effect: none; fill: none; stroke: rgb(138, 44, 81); stroke-opacity: 1; stroke-width: 5px; opacity: 1;"/></g><g class="points"/><g class="text"/></g><g class="trace scatter trace2f432d" style="stroke-miterlimit: 2; opacity: 1;"><g class="fills"/><g class="errorbars"/><g class="lines"><path class="js-line" d="M0,26.54L5.49,28.09L6.86,28.09L10.98,27.87L12.35,27.2L79.61,28.2L80.98,31.32L94.71,30.32L96.08,27.76L97.45,23.98L98.82,23.98L101.57,25.98L102.94,22.65L115.29,22.65L116.67,24.31L118.04,24.31L119.41,22.65L120.78,24.31L122.16,22.31L124.9,21.87L126.27,23.98L129.02,21.87L130.39,21.87L131.76,21.87L133.14,23.98L134.51,23.98L135.88,21.87L138.63,23.98L140,21.98L142.75,24.54L144.12,24.54L152.35,25.76L153.73,27.65L157.84,28.43L159.22,28.43L177.06,29.2L178.43,29.87L211.37,30.87L212.75,32.65L222.35,34.98L223.73,32.87L227.84,33.98L229.22,35.43L241.57,35.43L242.94,33.87L245.69,32.98L247.06,32.98L248.43,32.54L249.8,29.98L252.55,29.43L253.92,29.76L267.65,29.2L269.02,32.09L271.76,35.43L273.14,35.54L275.88,33.76L277.25,32.98L280,35.1" style="vector-effect: none; fill: none; stroke: rgb(0, 174, 239); stroke-opacity: 1; stroke-width: 5px; opacity: 1;"/></g><g class="points"/><g class="text"/></g><g class="trace scatter tracee5785a" style="stroke-miterlimit: 2; opacity: 1;"><g class="fills"/><g class="errorbars"/><g class="lines"><path class="js-line" d="M0,63.33L8.24,63.77L9.61,63.33L35.69,64.66L37.06,64.66L59.02,64.44L60.39,66.11L79.61,65.44L80.98,66.89L96.08,67.22L97.45,68.44L100.2,67.77L101.57,67.11L104.31,69L105.69,69L140,68.11L141.37,67.33L146.86,68.55L148.24,69.11L161.96,70.33L163.33,70.78L172.94,71.55L174.31,71.55L222.35,71.55L223.73,73.67L227.84,73.89" style="vector-effect: none; fill: none; stroke: rgb(238, 58, 67); stroke-opacity: 1; stroke-width: 5px; opacity: 1;"/></g><g class="points"/><g class="text"/></g><g class="trace scatter trace469c9a" style="stroke-miterlimit: 2; opacity: 1;"><g class="fills"/><g class="errorbars"/><g class="lines"><path class="js-line" d="M0,63.77L9.61,64.88L10.98,64.22L15.1,63.55L16.47,63.55L59.02,63.77L60.39,65.11L79.61,64.22L80.98,56.99L96.08,57.66L97.45,58.33L122.16,58.66L123.53,59.1L138.63,58.33L140,61.55L142.75,59.33L144.12,59.33L145.49,59.44L146.86,61.11L149.61,62.44L150.98,62.44L152.35,62.11L153.73,63.22L161.96,63.33L163.33,63.22L172.94,63.88L174.31,63.88L177.06,63.44L178.43,62.44L179.8,62.44L181.18,60.88L192.16,60.88L193.53,62.33L199.02,64.33L200.39,64.33L222.35,65.55L223.73,69L248.43,70.11L249.8,71.11L267.65,72.22L269.02,73L275.88,73.55" style="vector-effect: none; fill: none; stroke: rgb(255, 1, 170); stroke-opacity: 1; stroke-width: 5px; opacity: 1;"/></g><g class="points"/><g class="text"/></g><g class="trace scatter tracea2c56d" style="stroke-miterlimit: 2; opacity: 1;"><g class="fills"/><g class="errorbars"/><g class="lines"><path class="js-line" d="M0,66.22L8.24,66.44L9.61,64.88L12.35,68.33L13.73,68.33L98.82,68.89L100.2,69.33L102.94,69L104.31,69L146.86,70.11L148.24,70.33L163.33,71.55L164.71,71.78L170.2,72.11L171.57,72.11L222.35,73.33L223.73,73.67L227.84,73.89" style="vector-effect: none; fill: none; stroke: rgb(202, 166, 105); stroke-opacity: 1; stroke-width: 5px; opacity: 1;"/></g><g class="points"/><g class="text"/></g></g></g><g class="overplot"/><path class="xlines-above crisp" d="M0,0" style="fill: none;"/><path class="ylines-above crisp" d="M0,0" style="fill: none;"/><g class="overlines-above"/><g class="xaxislayer-above"/><g class="yaxislayer-above"/><g class="overaxes-above"/></g></g><g class="polarlayer"/><g class="smithlayer"/><g class="ternarylayer"/><g class="geolayer"/><g class="funnelarealayer"/><g class="pielayer"/><g class="iciclelayer"/><g class="treemaplayer"/><g class="sunburstlayer"/><g class="glimages"/><defs id="topdefs-bd551d"><g class="clips"/></defs><g class="layer-above"><g class="imagelayer"/><g class="shapelayer"/></g><g class="infolayer"><g class="g-gtitle"><text class="gtitle" x="15" y="25" text-anchor="start" dy="0em" style="font-family: Ubuntu, verdana, arial, sans-serif; font-size: 16px; fill: rgb(233, 84, 32); opacity: 1; font-weight: normal; white-space: pre;">Prezident/ka 2024</text></g><g class="g-xtitle"/><g class="g-ytitle"/></g></svg>