<svg class="main-svg" xmlns="http://www.w3.org/2000/svg" xmlns:xlink="http://www.w3.org/1999/xlink" width="1200" height="600" style="" viewBox="0 0 1200 600"><rect x="0" y="0" width="1200" height="600" style="fill: rgb(255, 255, 255); fill-opacity: 1;"/><defs id="defs-c744ca"><g class="clips"><clipPath id="clipc744caxyplot" class="plotclip"><rect width="990" height="530"/></clipPath><clipPath class="axesclip" id="clipc744cax"><rect x="50" y="0" width="990" height="600"/></clipPath><clipPath class="axesclip" id="clipc744cay"><rect x="0" y="20" width="1200" height="530"/></clipPath><clipPath class="axesclip" id="clipc744caxy"><rect x="50" y="20" width="990" height="530"/></clipPath></g><g class="gradients"/><g class="patterns"/></defs><g class="bglayer"/><g class="layer-below"><g class="imagelayer"/><g class="shapelayer"/></g><g class="cartesianlayer"><g class="subplot xy"><g class="layer-subplot"><g class="shapelayer"/><g class="imagelayer"/></g><g class="minor-gridlayer"><g class="x"/><g class="y"/></g><g class="gridlayer"><g class="x"><path class="xgrid crisp" transform="translate(84.14,0)" d="M0,20v530" style="stroke: rgb(235, 240, 248); stroke-opacity: 1; stroke-width: 1px;"/><path class="xgrid crisp" transform="translate(189.97,0)" d="M0,20v530" style="stroke: rgb(235, 240, 248); stroke-opacity: 1; stroke-width: 1px;"/><path class="xgrid crisp" transform="translate(295.78999999999996,0)" d="M0,20v530" style="stroke: rgb(235, 240, 248); stroke-opacity: 1; stroke-width: 1px;"/><path class="xgrid crisp" transform="translate(398.21,0)" d="M0,20v530" style="stroke: rgb(235, 240, 248); stroke-opacity: 1; stroke-width: 1px;"/><path class="xgrid crisp" transform="translate(504.03,0)" d="M0,20v530" style="stroke: rgb(235, 240, 248); stroke-opacity: 1; stroke-width: 1px;"/><path class="xgrid crisp" transform="translate(606.45,0)" d="M0,20v530" style="stroke: rgb(235, 240, 248); stroke-opacity: 1; stroke-width: 1px;"/><path class="xgrid crisp" transform="translate(712.28,0)" d="M0,20v530" style="stroke: rgb(235, 240, 248); stroke-opacity: 1; stroke-width: 1px;"/><path class="xgrid crisp" transform="translate(818.1,0)" d="M0,20v530" style="stroke: rgb(235, 240, 248); stroke-opacity: 1; stroke-width: 1px;"/><path class="xgrid crisp" transform="translate(917.1,0)" d="M0,20v530" style="stroke: rgb(235, 240, 248); stroke-opacity: 1; stroke-width: 1px;"/><path class="xgrid crisp" transform="translate(1022.93,0)" d="M0,20v530" style="stroke: rgb(235, 240, 248); stroke-opacity: 1; stroke-width: 1px;"/></g><g class="y"><path class="ygrid crisp" transform="translate(0,477.13)" d="M50,0h990" style="stroke: rgb(235, 240, 248); stroke-opacity: 1; stroke-width: 1px;"/><path class="ygrid crisp" transform="translate(0,404.27)" d="M50,0h990" style="stroke: rgb(235, 240, 248); stroke-opacity: 1; stroke-width: 1px;"/><path class="ygrid crisp" transform="translate(0,331.4)" d="M50,0h990" style="stroke: rgb(235, 240, 248); stroke-opacity: 1; stroke-width: 1px;"/><path class="ygrid crisp" transform="translate(0,258.53999999999996)" d="M50,0h990" style="stroke: rgb(235, 240, 248); stroke-opacity: 1; stroke-width: 1px;"/><path class="ygrid crisp" transform="translate(0,185.67)" d="M50,0h990" style="stroke: rgb(235, 240, 248); stroke-opacity: 1; stroke-width: 1px;"/><path class="ygrid crisp" transform="translate(0,112.81)" d="M50,0h990" style="stroke: rgb(235, 240, 248); stroke-opacity: 1; stroke-width: 1px;"/><path class="ygrid crisp" transform="translate(0,39.94)" d="M50,0h990" style="stroke: rgb(235, 240, 248); stroke-opacity: 1; stroke-width: 1px;"/></g></g><g class="zerolinelayer"><path class="yzl zl crisp" transform="translate(0,550)" d="M50,0h990" style="stroke: rgb(235, 240, 248); stroke-opacity: 1; stroke-width: 2px;"/></g><path class="xlines-below"/><path class="ylines-below"/><g class="overlines-below"/><g class="xaxislayer-below"/><g class="yaxislayer-below"/><g class="overaxes-below"/><g class="plot" transform="translate(50,20)" clip-path="url(#clipc744caxyplot)"><g class="scatterlayer mlayer"><g class="trace scatter tracea0d3a2" style="stroke-miterlimit: 2; opacity: 1;"><g class="fills"/><g class="errorbars"/><g class="lines"><path class="js-line" d="M0,377.71L6.83,358.77L10.24,358.77L20.48,358.77L23.9,363.87L30.72,355.12L34.14,355.12L47.79,355.12L51.21,352.94L61.45,352.94L64.86,350.75L68.28,349.29L71.69,349.29L78.52,349.29L81.93,344.92L126.31,344.92L129.72,339.82L146.79,339.82L150.21,309.22L191.17,309.22L198,330.35L201.41,325.98L208.24,325.98L232.14,325.25L235.55,324.52L238.97,340.55L242.38,348.57L245.79,348.57L249.21,345.65L252.62,342.74L256.03,349.29L286.76,349.29L290.17,346.38L293.59,346.38L297,349.29L300.41,346.38L303.83,348.57L307.24,346.38L310.66,346.38L314.07,344.92L317.48,346.38L327.72,346.38L331.14,344.92L334.55,344.92L337.97,346.38L341.38,344.92L344.79,344.92L348.21,330.35L351.62,336.18L358.45,336.18L361.86,334.72L365.28,310.68L368.69,296.1L375.52,296.1L378.93,292.46L382.34,268.41L385.76,256.75L389.17,254.57L392.59,254.57L399.41,254.57L402.83,250.2L409.66,237.81L413.07,227.61L440.38,228.34L443.79,229.79L447.21,229.79L450.62,237.08L477.93,237.08L481.34,226.88L484.76,226.88L488.17,209.39L501.83,209.39L505.24,189.72L525.72,189.72L529.14,178.06L532.55,173.69L535.97,173.69L539.38,173.69L542.79,169.32L546.21,162.76L549.62,159.12L553.03,159.12L556.45,134.34L563.28,134.34L566.69,121.95L570.1,92.08L573.52,92.08L600.83,92.08L604.24,103.01L607.66,108.11L611.07,108.11L614.48,108.11L617.9,111.02L621.31,122.68L624.72,127.05L628.14,124.14L631.55,119.04L655.45,119.04L658.86,117.58L662.28,121.23L665.69,119.77L672.52,79.69L675.93,71.68L679.34,70.95L682.76,73.13L686.17,81.88L689.59,76.78L693,62.93L696.41,62.93L703.24,69.49L706.66,75.32L710.07,81.88L713.48,82.61L716.9,107.38L720.31,116.12L723.72,107.38L727.14,111.02L730.55,108.11L733.97,96.45L737.38,93.54L740.79,97.18L747.62,99.37L751.03,94.99L754.45,89.16L757.86,78.96L761.28,68.76L764.69,68.76L768.1,68.76L771.52,71.68L774.93,80.42L778.34,81.88L781.76,76.05L785.17,75.32L788.59,80.42L792,94.99L795.41,123.41L798.83,135.8L802.24,134.34L805.66,134.34L809.07,135.07L812.48,141.63L815.9,143.81L819.31,142.36L822.72,134.34L826.14,142.36L832.97,147.46L836.38,137.26L839.79,115.4L843.21,102.28L846.62,92.81L850.03,92.08L853.45,76.05L856.86,76.78L860.28,76.05L863.69,72.41L867.1,77.51L870.52,89.16L880.76,89.16L884.17,85.52L887.59,84.06L891,79.69L897.83,79.69L901.24,76.78L904.66,69.49L908.07,66.58L911.48,62.2L914.9,42.53L918.31,35.97L921.72,35.97L925.14,28.69L928.55,27.23L931.97,26.5" style="vector-effect: none; fill: none; stroke: rgb(138, 44, 81); stroke-opacity: 1; stroke-width: 5px; opacity: 1;"/></g><g class="points"/><g class="text"/></g><g class="trace scatter tracef40bc6" style="stroke-miterlimit: 2; opacity: 1;"><g class="fills"/><g class="errorbars"/><g class="lines"><path class="js-line" d="M0,212.31L6.83,222.51L10.24,222.51L20.48,222.51L23.9,227.61L30.72,216.68L34.14,216.68L61.45,216.68L64.86,218.14L68.28,219.59L71.69,219.59L78.52,219.59L81.93,223.24L198,223.24L201.41,243.64L228.72,243.64L232.14,240L235.55,237.08L238.97,220.32L242.38,195.55L245.79,195.55L252.62,208.66L256.03,186.8L286.76,186.8L290.17,197.73L293.59,197.73L297,186.8L300.41,197.73L303.83,184.62L307.24,181.7L310.66,181.7L314.07,195.55L317.48,181.7L327.72,181.7L331.14,195.55L334.55,195.55L337.97,181.7L341.38,195.55L344.79,195.55L348.21,182.43L351.62,199.19L361.86,199.19L365.28,203.56L375.52,203.56L378.93,207.21L382.34,219.59L385.76,223.97L392.59,224.69L396,224.69L406.24,224.69L409.66,226.88L416.48,227.61L419.9,227.61L436.97,227.61L440.38,229.79L443.79,234.17L447.21,234.17L450.62,237.08L457.45,237.08L481.34,237.81L484.76,234.9L488.17,242.18L491.59,242.18L501.83,242.18L505.24,240.72L525.72,240.72L529.14,252.38L532.55,255.3L535.97,255.3L539.38,255.3L542.79,259.67L549.62,267.68L553.03,267.68L556.45,253.84L559.86,253.84L563.28,253.84L566.69,261.13L570.1,270.6L573.52,270.6L600.83,270.6L604.24,260.4L607.66,254.57L611.07,254.57L614.48,254.57L617.9,251.65L621.31,234.9L624.72,229.79L631.55,233.44L634.97,233.44L652.03,233.44L655.45,231.98L658.86,233.44L662.28,229.79L665.69,229.79L669.1,248.74L672.52,262.58L675.93,270.6L679.34,271.33L682.76,269.14L686.17,259.67L689.59,254.57L693,268.41L696.41,268.41L703.24,261.86L706.66,256.03L710.07,249.47L713.48,248.74L716.9,223.97L720.31,215.22L723.72,223.97L727.14,220.32L730.55,223.24L733.97,234.9L737.38,237.81L740.79,234.17L747.62,231.98L751.03,236.35L754.45,242.18L757.86,252.38L761.28,262.58L764.69,262.58L768.1,262.58L771.52,259.67L774.93,250.93L778.34,249.47L781.76,255.3L785.17,256.03L788.59,250.93L792,236.35L795.41,207.93L798.83,195.55L802.24,197.01L805.66,197.01L809.07,196.28L812.48,189.72L815.9,187.53L819.31,188.99L822.72,197.01L826.14,188.99L832.97,183.89L836.38,194.09L839.79,215.95L843.21,229.07L846.62,238.54L850.03,239.27L853.45,255.3L856.86,254.57L860.28,255.3L863.69,258.94L867.1,253.84L870.52,242.18L880.76,242.18L884.17,245.82L887.59,247.28L891,251.65L897.83,251.65L901.24,254.57L904.66,261.86L908.07,264.77L911.48,269.14L914.9,288.82L918.31,295.37L921.72,295.37L925.14,302.66L928.55,304.12L931.97,304.85" style="vector-effect: none; fill: none; stroke: rgb(0, 174, 239); stroke-opacity: 1; stroke-width: 5px; opacity: 1;"/></g><g class="points"/><g class="text"/></g><g class="trace scatter trace315eee" style="stroke-miterlimit: 2; opacity: 1;"><g class="fills"/><g class="errorbars"/><g class="lines"><path class="js-line" d="M0,453.49L6.83,456.41L10.24,456.41L20.48,456.41L23.9,453.49L27.31,454.22L30.72,457.86L61.45,458.59L64.86,460.78L68.28,462.24L71.69,462.24L126.31,462.24L129.72,460.78L146.79,460.78L150.21,471.71L191.17,471.71L198,467.34L201.41,476.81L208.24,476.81L232.14,477.54L235.55,478.99L238.97,478.99L242.38,487.01L245.79,487.01L249.21,482.64L252.62,478.27L256.03,490.65L286.76,490.65L290.17,484.82L293.59,484.82L297,490.65L300.41,484.82L303.83,489.92L310.66,489.92L314.07,484.09L317.48,489.92L320.9,489.92L327.72,489.92L331.14,484.09L334.55,484.09L337.97,489.92L341.38,484.09L344.79,484.09L348.21,484.82L351.62,479.72L361.86,480.45L365.28,487.74L368.69,491.38L372.1,491.38L375.52,491.38L378.93,492.84L389.17,497.94L392.59,497.94L399.41,497.94L402.83,499.4L413.07,507.41L416.48,507.41L501.83,507.41L505.24,506.68L553.03,507.41L556.45,521.26L563.28,521.26L566.69,522.71" style="vector-effect: none; fill: none; stroke: rgb(238, 58, 67); stroke-opacity: 1; stroke-width: 5px; opacity: 1;"/></g><g class="points"/><g class="text"/></g><g class="trace scatter trace2bff64" style="stroke-miterlimit: 2; opacity: 1;"><g class="fills"/><g class="errorbars"/><g class="lines"><path class="js-line" d="M0,478.99L10.24,481.18L13.66,481.18L23.9,480.45L27.31,478.99L34.14,479.72L37.55,479.72L47.79,479.72L51.21,481.18L78.52,480.45L81.93,481.91L126.31,481.91L129.72,487.74L146.79,487.74L150.21,493.57L191.17,493.57L198,484.82L201.41,503.77L208.24,503.77L238.97,504.5L242.38,509.6L252.62,509.6L256.03,512.51L286.76,512.51L290.17,511.05L293.59,511.05L297,512.51L300.41,511.05L303.83,512.51L310.66,512.51L314.07,511.05L317.48,512.51L320.9,512.51L327.72,512.51L331.14,511.05L334.55,511.05L337.97,512.51L341.38,511.05L344.79,511.05L348.21,513.24L351.62,511.78L375.52,512.51L378.93,513.24L385.76,515.43L389.17,516.16L399.41,516.16L402.83,517.61L406.24,520.53L409.66,520.53L416.48,521.26L419.9,521.26L501.83,520.53" style="vector-effect: none; fill: none; stroke: rgb(255, 192, 203); stroke-opacity: 1; stroke-width: 5px; opacity: 1;"/></g><g class="points"/><g class="text"/></g><g class="trace scatter tracec76ce8" style="stroke-miterlimit: 2; opacity: 1;"><g class="fills"/><g class="errorbars"/><g class="lines"><path class="js-line" d="M0,456.41L6.83,458.59L10.24,458.59L20.48,458.59L23.9,463.69L30.72,454.95L34.14,454.95L47.79,454.95L51.21,456.41L64.86,455.68L68.28,454.95L126.31,454.95L129.72,456.41L146.79,456.41L150.21,465.15L191.17,465.15L198,459.32L201.41,411.96L208.24,411.96L228.72,411.96L232.14,414.14L235.55,416.33L238.97,416.33L242.38,420.7L245.79,420.7L252.62,415.6L256.03,421.43L286.76,421.43L290.17,418.52L293.59,418.52L297,421.43L300.41,418.52L303.83,422.89L307.24,425.8L310.66,425.8L314.07,420.7L317.48,425.8L327.72,425.8L331.14,420.7L334.55,420.7L337.97,425.8L341.38,420.7L344.79,420.7L348.21,441.83L351.62,427.26L361.86,427.99L365.28,438.92L368.69,447.66L372.1,447.66L375.52,447.66L378.93,445.48L382.34,452.76L385.76,454.22L402.83,453.49L406.24,452.76L409.66,454.22L413.07,457.13L436.97,457.13L440.38,454.22L443.79,447.66L447.21,447.66L450.62,437.46L457.45,437.46L477.93,437.46L481.34,446.93L484.76,449.85L488.17,460.05L501.83,460.05L505.24,465.88L542.79,466.61L546.21,467.34L553.03,468.06L556.45,490.65L563.28,490.65L566.69,493.57L570.1,497.94L573.52,497.94L617.9,497.94L621.31,504.5L624.72,504.5L628.14,505.95L631.55,508.87L634.97,508.87L652.03,508.87L655.45,510.33L662.28,510.33L665.69,511.78L669.1,516.88L672.52,519.07L682.76,519.07L686.17,520.53" style="vector-effect: none; fill: none; stroke: rgb(255, 1, 170); stroke-opacity: 1; stroke-width: 5px; opacity: 1;"/></g><g class="points"/><g class="text"/></g><g class="trace scatter traced69e1d" style="stroke-miterlimit: 2; opacity: 1;"><g class="fills"/><g class="errorbars"/><g class="lines"><path class="js-line" d="M0,472.44L10.24,473.89L13.66,473.89L20.48,473.89L23.9,463.69L30.72,486.28L34.14,486.28L64.86,485.55L68.28,484.82L146.79,484.09L150.21,487.74L191.17,487.74L198,486.28L201.41,489.2L208.24,489.2L232.14,489.92L235.55,490.65L245.79,489.92L249.21,492.84L252.62,495.75L256.03,490.65L286.76,490.65L290.17,492.84L293.59,492.84L297,490.65L300.41,492.84L303.83,492.11L307.24,495.02L310.66,495.02L314.07,495.75L317.48,495.02L344.79,495.75L348.21,497.94L365.28,497.94L368.69,499.4L378.93,500.13L382.34,500.85L389.17,503.77L392.59,503.77L399.41,503.77L402.83,505.23L413.07,511.05L416.48,511.05L501.83,511.05L505.24,518.34L553.03,519.07L556.45,521.26L563.28,521.26L566.69,522.71" style="vector-effect: none; fill: none; stroke: rgb(202, 166, 105); stroke-opacity: 1; stroke-width: 5px; opacity: 1;"/></g><g class="points"/><g class="text"/></g></g></g><g class="overplot"/><path class="xlines-above crisp" d="M0,0" style="fill: none;"/><path class="ylines-above crisp" d="M0,0" style="fill: none;"/><g class="overlines-above"/><g class="xaxislayer-above"><g class="xtick"><text text-anchor="middle" x="0" y="563" transform="translate(84.14,0)" style="font-family: 'Open Sans', verdana, arial, sans-serif; font-size: 12px; fill: rgb(42, 63, 95); fill-opacity: 1; white-space: pre; opacity: 1;">1.7.23</text></g><g class="xtick"><text text-anchor="middle" x="0" y="563" style="font-family: 'Open Sans', verdana, arial, sans-serif; font-size: 12px; fill: rgb(42, 63, 95); fill-opacity: 1; white-space: pre; opacity: 1;" transform="translate(189.97,0)">1.8.23</text></g><g class="xtick"><text text-anchor="middle" x="0" y="563" style="font-family: 'Open Sans', verdana, arial, sans-serif; font-size: 12px; fill: rgb(42, 63, 95); fill-opacity: 1; white-space: pre; opacity: 1;" transform="translate(295.78999999999996,0)">1.9.23</text></g><g class="xtick"><text text-anchor="middle" x="0" y="563" style="font-family: 'Open Sans', verdana, arial, sans-serif; font-size: 12px; fill: rgb(42, 63, 95); fill-opacity: 1; white-space: pre; opacity: 1;" transform="translate(398.21,0)">1.10.23</text></g><g class="xtick"><text text-anchor="middle" x="0" y="563" style="font-family: 'Open Sans', verdana, arial, sans-serif; font-size: 12px; fill: rgb(42, 63, 95); fill-opacity: 1; white-space: pre; opacity: 1;" transform="translate(504.03,0)">1.11.23</text></g><g class="xtick"><text text-anchor="middle" x="0" y="563" style="font-family: 'Open Sans', verdana, arial, sans-serif; font-size: 12px; fill: rgb(42, 63, 95); fill-opacity: 1; white-space: pre; opacity: 1;" transform="translate(606.45,0)">1.12.23</text></g><g class="xtick"><text text-anchor="middle" x="0" y="563" style="font-family: 'Open Sans', verdana, arial, sans-serif; font-size: 12px; fill: rgb(42, 63, 95); fill-opacity: 1; white-space: pre; opacity: 1;" transform="translate(712.28,0)">1.1.24</text></g><g class="xtick"><text text-anchor="middle" x="0" y="563" style="font-family: 'Open Sans', verdana, arial, sans-serif; font-size: 12px; fill: rgb(42, 63, 95); fill-opacity: 1; white-space: pre; opacity: 1;" transform="translate(818.1,0)">1.2.24</text></g><g class="xtick"><text text-anchor="middle" x="0" y="563" style="font-family: 'Open Sans', verdana, arial, sans-serif; font-size: 12px; fill: rgb(42, 63, 95); fill-opacity: 1; white-space: pre; opacity: 1;" transform="translate(917.1,0)">1.3.24</text></g><g class="xtick"><text text-anchor="middle" x="0" y="563" style="font-family: 'Open Sans', verdana, arial, sans-serif; font-size: 12px; fill: rgb(42, 63, 95); fill-opacity: 1; white-space: pre; opacity: 1;" transform="translate(1022.93,0)">1.4.24</text></g></g><g class="yaxislayer-above"><g class="ytick"><text text-anchor="end" x="49" y="4.199999999999999" transform="translate(0,550)" style="font-family: 'Open Sans', verdana, arial, sans-serif; font-size: 12px; fill: rgb(42, 63, 95); fill-opacity: 1; white-space: pre; opacity: 1;">0%</text></g><g class="ytick"><text text-anchor="end" x="49" y="4.199999999999999" style="font-family: 'Open Sans', verdana, arial, sans-serif; font-size: 12px; fill: rgb(42, 63, 95); fill-opacity: 1; white-space: pre; opacity: 1;" transform="translate(0,477.13)">10%</text></g><g class="ytick"><text text-anchor="end" x="49" y="4.199999999999999" style="font-family: 'Open Sans', verdana, arial, sans-serif; font-size: 12px; fill: rgb(42, 63, 95); fill-opacity: 1; white-space: pre; opacity: 1;" transform="translate(0,404.27)">20%</text></g><g class="ytick"><text text-anchor="end" x="49" y="4.199999999999999" style="font-family: 'Open Sans', verdana, arial, sans-serif; font-size: 12px; fill: rgb(42, 63, 95); fill-opacity: 1; white-space: pre; opacity: 1;" transform="translate(0,331.4)">30%</text></g><g class="ytick"><text text-anchor="end" x="49" y="4.199999999999999" style="font-family: 'Open Sans', verdana, arial, sans-serif; font-size: 12px; fill: rgb(42, 63, 95); fill-opacity: 1; white-space: pre; opacity: 1;" transform="translate(0,258.53999999999996)">40%</text></g><g class="ytick"><text text-anchor="end" x="49" y="4.199999999999999" style="font-family: 'Open Sans', verdana, arial, sans-serif; font-size: 12px; fill: rgb(42, 63, 95); fill-opacity: 1; white-space: pre; opacity: 1;" transform="translate(0,185.67)">50%</text></g><g class="ytick"><text text-anchor="end" x="49" y="4.199999999999999" style="font-family: 'Open Sans', verdana, arial, sans-serif; font-size: 12px; fill: rgb(42, 63, 95); fill-opacity: 1; white-space: pre; opacity: 1;" transform="translate(0,112.81)">60%</text></g><g class="ytick"><text text-anchor="end" x="49" y="4.199999999999999" style="font-family: 'Open Sans', verdana, arial, sans-serif; font-size: 12px; fill: rgb(42, 63, 95); fill-opacity: 1; white-space: pre; opacity: 1;" transform="translate(0,39.94)">70%</text></g></g><g class="overaxes-above"/></g></g><g class="polarlayer"/><g class="smithlayer"/><g class="ternarylayer"/><g class="geolayer"/><g class="funnelarealayer"/><g class="pielayer"/><g class="iciclelayer"/><g class="treemaplayer"/><g class="sunburstlayer"/><g class="glimages"/><defs id="topdefs-c744ca"><g class="clips"/><clipPath id="legendc744ca"><rect width="128" height="124" x="0" y="0"/></clipPath></defs><g class="layer-above"><g class="imagelayer"/><g class="shapelayer"/></g><g class="infolayer"><g class="legend" pointer-events="all" transform="translate(1059.8000000000002,20)"><rect class="bg" shape-rendering="crispEdges" style="stroke: rgb(68, 68, 68); stroke-opacity: 1; fill: rgb(255, 255, 255); fill-opacity: 1; stroke-width: 0px;" width="128" height="124" x="0" y="0"/><g class="scrollbox" transform="" clip-path="url(#legendc744ca)"><g class="groups"><g class="traces" transform="translate(0,14.5)" style="opacity: 1;"><text class="legendtext" text-anchor="start" x="40" y="4.680000000000001" style="font-family: 'Open Sans', verdana, arial, sans-serif; font-size: 12px; fill: rgb(42, 63, 95); fill-opacity: 1; white-space: pre;">Pellegrini Peter</text><g class="layers" style="opacity: 1;"><g class="legendfill"/><g class="legendlines"><path class="js-line" d="M5,0h30" style="fill: none; stroke: rgb(138, 44, 81); stroke-opacity: 1; stroke-width: 5px;"/></g><g class="legendsymbols"><g class="legendpoints"/></g></g><rect class="legendtoggle" x="0" y="-9.5" width="122.703125" height="19" style="fill: rgb(0, 0, 0); fill-opacity: 0;"/></g><g class="traces" transform="translate(0,33.5)" style="opacity: 1;"><text class="legendtext" text-anchor="start" x="40" y="4.680000000000001" style="font-family: 'Open Sans', verdana, arial, sans-serif; font-size: 12px; fill: rgb(42, 63, 95); fill-opacity: 1; white-space: pre;">Korčok Ivan</text><g class="layers" style="opacity: 1;"><g class="legendfill"/><g class="legendlines"><path class="js-line" d="M5,0h30" style="fill: none; stroke: rgb(0, 174, 239); stroke-opacity: 1; stroke-width: 5px;"/></g><g class="legendsymbols"><g class="legendpoints"/></g></g><rect class="legendtoggle" x="0" y="-9.5" width="122.703125" height="19" style="fill: rgb(0, 0, 0); fill-opacity: 0;"/></g><g class="traces" transform="translate(0,52.5)" style="opacity: 1;"><text class="legendtext" text-anchor="start" x="40" y="4.680000000000001" style="font-family: 'Open Sans', verdana, arial, sans-serif; font-size: 12px; fill: rgb(42, 63, 95); fill-opacity: 1; white-space: pre;">Fico Robert</text><g class="layers" style="opacity: 1;"><g class="legendfill"/><g class="legendlines"><path class="js-line" d="M5,0h30" style="fill: none; stroke: rgb(238, 58, 67); stroke-opacity: 1; stroke-width: 5px;"/></g><g class="legendsymbols"><g class="legendpoints"/></g></g><rect class="legendtoggle" x="0" y="-9.5" width="122.703125" height="19" style="fill: rgb(0, 0, 0); fill-opacity: 0;"/></g><g class="traces" transform="translate(0,71.5)" style="opacity: 1;"><text class="legendtext" text-anchor="start" x="40" y="4.680000000000001" style="font-family: 'Open Sans', verdana, arial, sans-serif; font-size: 12px; fill: rgb(42, 63, 95); fill-opacity: 1; white-space: pre;">Lajčák Miroslav</text><g class="layers" style="opacity: 1;"><g class="legendfill"/><g class="legendlines"><path class="js-line" d="M5,0h30" style="fill: none; stroke: rgb(255, 192, 203); stroke-opacity: 1; stroke-width: 5px;"/></g><g class="legendsymbols"><g class="legendpoints"/></g></g><rect class="legendtoggle" x="0" y="-9.5" width="122.703125" height="19" style="fill: rgb(0, 0, 0); fill-opacity: 0;"/></g><g class="traces" transform="translate(0,90.5)" style="opacity: 1;"><text class="legendtext" text-anchor="start" x="40" y="4.680000000000001" style="font-family: 'Open Sans', verdana, arial, sans-serif; font-size: 12px; fill: rgb(42, 63, 95); fill-opacity: 1; white-space: pre;">Kubiš Ján</text><g class="layers" style="opacity: 1;"><g class="legendfill"/><g class="legendlines"><path class="js-line" d="M5,0h30" style="fill: none; stroke: rgb(255, 1, 170); stroke-opacity: 1; stroke-width: 5px;"/></g><g class="legendsymbols"><g class="legendpoints"/></g></g><rect class="legendtoggle" x="0" y="-9.5" width="122.703125" height="19" style="fill: rgb(0, 0, 0); fill-opacity: 0;"/></g><g class="traces" transform="translate(0,109.5)" style="opacity: 1;"><text class="legendtext" text-anchor="start" x="40" y="4.680000000000001" style="font-family: 'Open Sans', verdana, arial, sans-serif; font-size: 12px; fill: rgb(42, 63, 95); fill-opacity: 1; white-space: pre;">Mistrík Robert</text><g class="layers" style="opacity: 1;"><g class="legendfill"/><g class="legendlines"><path class="js-line" d="M5,0h30" style="fill: none; stroke: rgb(202, 166, 105); stroke-opacity: 1; stroke-width: 5px;"/></g><g class="legendsymbols"><g class="legendpoints"/></g></g><rect class="legendtoggle" x="0" y="-9.5" width="122.703125" height="19" style="fill: rgb(0, 0, 0); fill-opacity: 0;"/></g></g></g><rect class="scrollbar" rx="20" ry="3" width="0" height="0" style="fill: rgb(128, 139, 164); fill-opacity: 1;" x="0" y="0"/></g><g class="g-gtitle"/><g class="g-xtitle"/><g class="g-ytitle"/></g></svg>