<svg class="main-svg" xmlns="http://www.w3.org/2000/svg" xmlns:xlink="http://www.w3.org/1999/xlink" width="300" height="135" style="" viewBox="0 0 300 135"><rect x="0" y="0" width="300" height="135" style="fill: rgb(255, 255, 255); fill-opacity: 1;"/><defs id="defs-e3f106"><g class="clips"><clipPath id="clipe3f106xyplot" class="plotclip"><rect width="280" height="75"/></clipPath><clipPath class="axesclip" id="clipe3f106x"><rect x="10" y="0" width="280" height="135"/></clipPath><clipPath class="axesclip" id="clipe3f106y"><rect x="0" y="50" width="300" height="75"/></clipPath><clipPath class="axesclip" id="clipe3f106xy"><rect x="10" y="50" width="280" height="75"/></clipPath></g><g class="gradients"/><g class="patterns"/></defs><g class="bglayer"/><g class="layer-below"><g class="imagelayer"/><g class="shapelayer"/></g><g class="cartesianlayer"><g class="subplot xy"><g class="layer-subplot"><g class="shapelayer"/><g class="imagelayer"/></g><g class="minor-gridlayer"><g class="x"/><g class="y"/></g><g class="gridlayer"><g class="x"><path class="xgrid crisp" transform="translate(23.46,0)" d="M0,50v75" style="stroke: rgb(235, 240, 248); stroke-opacity: 1; stroke-width: 1px;"/><path class="xgrid crisp" transform="translate(106.92,0)" d="M0,50v75" style="stroke: rgb(235, 240, 248); stroke-opacity: 1; stroke-width: 1px;"/><path class="xgrid crisp" transform="translate(189.04,0)" d="M0,50v75" style="stroke: rgb(235, 240, 248); stroke-opacity: 1; stroke-width: 1px;"/><path class="xgrid crisp" transform="translate(271.15,0)" d="M0,50v75" style="stroke: rgb(235, 240, 248); stroke-opacity: 1; stroke-width: 1px;"/></g><g class="y"><path class="ygrid crisp" transform="translate(0,102.77000000000001)" d="M10,0h280" style="stroke: rgb(235, 240, 248); stroke-opacity: 1; stroke-width: 1px;"/><path class="ygrid crisp" transform="translate(0,80.53999999999999)" d="M10,0h280" style="stroke: rgb(235, 240, 248); stroke-opacity: 1; stroke-width: 1px;"/><path class="ygrid crisp" transform="translate(0,58.31)" d="M10,0h280" style="stroke: rgb(235, 240, 248); stroke-opacity: 1; stroke-width: 1px;"/></g></g><g class="zerolinelayer"><path class="yzl zl crisp" transform="translate(0,125)" d="M10,0h280" style="stroke: rgb(235, 240, 248); stroke-opacity: 1; stroke-width: 2px;"/></g><path class="xlines-below"/><path class="ylines-below"/><g class="overlines-below"/><g class="xaxislayer-below"/><g class="yaxislayer-below"/><g class="overaxes-below"/><g class="plot" transform="translate(10,50)" clip-path="url(#clipe3f106xyplot)"><g class="scatterlayer mlayer"><g class="trace scatter trace52b100" style="stroke-miterlimit: 2; opacity: 1;"><g class="fills"/><g class="errorbars"/><g class="lines"><path class="js-line" d="M0,51.77L4.04,48.88L5.38,48.88L10.77,49.1L12.12,48.32L30.96,47.43L32.31,46.77L57.88,45.99L59.23,41.32L75.38,41.32L78.08,44.54L82.12,43.88L83.46,43.88L92.88,43.65L94.23,46.1L96.92,47.32L98.27,46.88L99.62,46.43L100.96,47.43L135.96,46.77L137.31,44.54L140,45.43L141.35,45.43L142.69,45.21L144.04,41.54L146.73,39.32L148.08,39.32L149.42,38.76L150.77,35.1L153.46,32.98L154.81,32.98L158.85,32.32L160.19,31.32L164.23,28.87L165.58,28.87L176.35,29.2L177.69,30.32L188.46,30.32L189.81,28.76L191.15,28.76L192.5,26.09L197.88,26.09L199.23,23.09L207.31,23.09L208.65,21.31L216.73,18.42L218.08,18.42L219.42,14.64L220.77,14.64L222.12,14.64L223.46,12.75L224.81,8.2L226.15,8.2L236.92,8.2L238.27,9.86L240.96,10.64L242.31,10.64L245,12.86L246.35,13.53L251.73,12.31L253.08,12.31L262.5,12.42L263.85,8.75L266.54,5.08L267.88,4.97L271.92,5.86L273.27,3.75L277.31,4.75L278.65,5.64L280,6.86" style="vector-effect: none; fill: none; stroke: rgb(138, 44, 81); stroke-opacity: 1; stroke-width: 5px; opacity: 1;"/></g><g class="points"/><g class="text"/></g><g class="trace scatter trace879a7b" style="stroke-miterlimit: 2; opacity: 1;"><g class="fills"/><g class="errorbars"/><g class="lines"><path class="js-line" d="M0,26.54L5.38,28.09L6.73,28.09L10.77,27.87L12.12,27.2L78.08,28.2L79.42,31.32L92.88,30.32L94.23,27.76L95.58,23.98L96.92,23.98L99.62,25.98L100.96,22.65L113.08,22.65L114.42,24.31L115.77,24.31L117.12,22.65L118.46,24.31L119.81,22.31L122.5,21.87L123.85,23.98L126.54,21.87L127.88,21.87L129.23,21.87L130.58,23.98L131.92,23.98L133.27,21.87L135.96,23.98L137.31,21.98L140,24.54L141.35,24.54L149.42,25.76L150.77,27.65L154.81,28.43L156.15,28.43L173.65,29.2L175,29.87L207.31,30.87L208.65,32.65L218.08,34.98L219.42,32.87L223.46,33.98L224.81,35.43L236.92,35.43L238.27,33.87L240.96,32.98L242.31,32.98L243.65,32.54L245,29.98L247.69,29.43L249.04,29.76L262.5,29.2L263.85,32.09L266.54,35.43L267.88,35.54L270.58,33.76L271.92,32.98L274.62,35.1L275.96,34.54L280,31.98" style="vector-effect: none; fill: none; stroke: rgb(0, 174, 239); stroke-opacity: 1; stroke-width: 5px; opacity: 1;"/></g><g class="points"/><g class="text"/></g><g class="trace scatter trace9e9dcf" style="stroke-miterlimit: 2; opacity: 1;"><g class="fills"/><g class="errorbars"/><g class="lines"><path class="js-line" d="M0,63.77L9.42,64.88L10.77,64.22L14.81,63.55L16.15,63.55L57.88,63.77L59.23,65.11L78.08,64.22L79.42,56.99L94.23,57.66L95.58,58.33L119.81,58.66L121.15,59.1L135.96,58.33L137.31,61.55L140,59.33L141.35,59.33L142.69,59.44L144.04,61.11L146.73,62.44L148.08,62.44L149.42,62.11L150.77,63.22L158.85,63.33L160.19,63.22L169.62,63.88L170.96,63.88L173.65,63.44L175,62.44L176.35,62.44L177.69,60.88L188.46,60.88L189.81,62.33L195.19,64.33L196.54,64.33L218.08,65.55L219.42,69L243.65,70.11L245,71.11L262.5,72.22L263.85,73L270.58,73.55" style="vector-effect: none; fill: none; stroke: rgb(255, 1, 170); stroke-opacity: 1; stroke-width: 5px; opacity: 1;"/></g><g class="points"/><g class="text"/></g><g class="trace scatter traceea8c50" style="stroke-miterlimit: 2; opacity: 1;"><g class="fills"/><g class="errorbars"/><g class="lines"><path class="js-line" d="M0,63.33L8.08,63.77L9.42,63.33L35,64.66L36.35,64.66L57.88,64.44L59.23,66.11L78.08,65.44L79.42,66.89L94.23,67.22L95.58,68.44L98.27,67.77L99.62,67.11L102.31,69L103.65,69L137.31,68.11L138.65,67.33L144.04,68.55L145.38,69.11L158.85,70.33L160.19,70.78L169.62,71.55L170.96,71.55L218.08,71.55L219.42,73.67L223.46,73.89" style="vector-effect: none; fill: none; stroke: rgb(238, 58, 67); stroke-opacity: 1; stroke-width: 5px; opacity: 1;"/></g><g class="points"/><g class="text"/></g><g class="trace scatter trace4f5486" style="stroke-miterlimit: 2; opacity: 1;"><g class="fills"/><g class="errorbars"/><g class="lines"><path class="js-line" d="M0,67.22L14.81,67.33L16.15,67.33L57.88,68.55L59.23,69.44L75.38,69.44L78.08,68.11L79.42,71L82.12,71L99.62,71.89L100.96,72.33L158.85,73.11L160.19,73.55L197.88,73.55" style="vector-effect: none; fill: none; stroke: rgb(255, 192, 203); stroke-opacity: 1; stroke-width: 5px; opacity: 1;"/></g><g class="points"/><g class="text"/></g></g></g><g class="overplot"/><path class="xlines-above crisp" d="M0,0" style="fill: none;"/><path class="ylines-above crisp" d="M0,0" style="fill: none;"/><g class="overlines-above"/><g class="xaxislayer-above"/><g class="yaxislayer-above"/><g class="overaxes-above"/></g></g><g class="polarlayer"/><g class="smithlayer"/><g class="ternarylayer"/><g class="geolayer"/><g class="funnelarealayer"/><g class="pielayer"/><g class="iciclelayer"/><g class="treemaplayer"/><g class="sunburstlayer"/><g class="glimages"/><defs id="topdefs-e3f106"><g class="clips"/></defs><g class="layer-above"><g class="imagelayer"/><g class="shapelayer"/></g><g class="infolayer"><g class="g-gtitle"><text class="gtitle" x="15" y="25" text-anchor="start" dy="0em" style="font-family: Ubuntu, verdana, arial, sans-serif; font-size: 16px; fill: rgb(233, 84, 32); opacity: 1; font-weight: normal; white-space: pre;">Prezident/ka 2024</text></g><g class="g-xtitle"/><g class="g-ytitle"/></g></svg>