<svg class="main-svg" xmlns="http://www.w3.org/2000/svg" xmlns:xlink="http://www.w3.org/1999/xlink" width="300" height="135" style="" viewBox="0 0 300 135"><rect x="0" y="0" width="300" height="135" style="fill: rgb(255, 255, 255); fill-opacity: 1;"/><defs id="defs-dec9f3"><g class="clips"><clipPath id="clipdec9f3xyplot" class="plotclip"><rect width="280" height="75"/></clipPath><clipPath class="axesclip" id="clipdec9f3x"><rect x="10" y="0" width="280" height="135"/></clipPath><clipPath class="axesclip" id="clipdec9f3y"><rect x="0" y="50" width="300" height="75"/></clipPath><clipPath class="axesclip" id="clipdec9f3xy"><rect x="10" y="50" width="280" height="75"/></clipPath></g><g class="gradients"/><g class="patterns"/></defs><g class="bglayer"/><g class="layer-below"><g class="imagelayer"/><g class="shapelayer"/></g><g class="cartesianlayer"><g class="subplot xy"><g class="layer-subplot"><g class="shapelayer"/><g class="imagelayer"/></g><g class="minor-gridlayer"><g class="x"/><g class="y"/></g><g class="gridlayer"><g class="x"><path class="xgrid crisp" transform="translate(29.44,0)" d="M0,50v75" style="stroke: rgb(235, 240, 248); stroke-opacity: 1; stroke-width: 1px;"/><path class="xgrid crisp" transform="translate(89.72,0)" d="M0,50v75" style="stroke: rgb(235, 240, 248); stroke-opacity: 1; stroke-width: 1px;"/><path class="xgrid crisp" transform="translate(150,0)" d="M0,50v75" style="stroke: rgb(235, 240, 248); stroke-opacity: 1; stroke-width: 1px;"/><path class="xgrid crisp" transform="translate(208.33,0)" d="M0,50v75" style="stroke: rgb(235, 240, 248); stroke-opacity: 1; stroke-width: 1px;"/><path class="xgrid crisp" transform="translate(268.61,0)" d="M0,50v75" style="stroke: rgb(235, 240, 248); stroke-opacity: 1; stroke-width: 1px;"/></g><g class="y"><path class="ygrid crisp" transform="translate(0,109.38)" d="M10,0h280" style="stroke: rgb(235, 240, 248); stroke-opacity: 1; stroke-width: 1px;"/><path class="ygrid crisp" transform="translate(0,93.75)" d="M10,0h280" style="stroke: rgb(235, 240, 248); stroke-opacity: 1; stroke-width: 1px;"/><path class="ygrid crisp" transform="translate(0,78.13)" d="M10,0h280" style="stroke: rgb(235, 240, 248); stroke-opacity: 1; stroke-width: 1px;"/><path class="ygrid crisp" transform="translate(0,62.5)" d="M10,0h280" style="stroke: rgb(235, 240, 248); stroke-opacity: 1; stroke-width: 1px;"/></g></g><g class="zerolinelayer"><path class="yzl zl crisp" transform="translate(0,125)" d="M10,0h280" style="stroke: rgb(235, 240, 248); stroke-opacity: 1; stroke-width: 2px;"/></g><path class="xlines-below"/><path class="ylines-below"/><g class="overlines-below"/><g class="xaxislayer-below"/><g class="yaxislayer-below"/><g class="overaxes-below"/><g class="plot" transform="translate(10,50)" clip-path="url(#clipdec9f3xyplot)"><g class="scatterlayer mlayer"><g class="trace scatter trace865902" style="stroke-miterlimit: 2; opacity: 1;"><g class="fills"/><g class="errorbars"/><g class="lines"><path class="js-line" d="M0,43.44L3.89,39.38L5.83,39.38L15.56,39.53L17.5,38.75L44.72,37.66L46.67,36.88L83.61,35.78L85.56,29.69L108.89,29.69L112.78,33.75L114.72,32.97L118.61,32.97L134.17,32.66L136.11,35.94L140,37.34L141.94,36.88L143.89,36.25L145.83,37.66L196.39,36.88L198.33,34.06L202.22,35L204.17,35L206.11,34.69L208.06,29.69L210,26.72L211.94,26.72L215.83,25.78L217.78,20.63L219.72,18.13L221.67,17.66L229.44,16.72L231.39,15L237.22,11.41L239.17,11.41L254.72,11.87L256.67,13.44L272.22,13.44L274.17,11.25L276.11,11.25L278.06,7.5L280,7.5" style="vector-effect: none; fill: none; stroke: rgb(138, 44, 81); stroke-opacity: 1; stroke-width: 5px; opacity: 1;"/></g><g class="points"/><g class="text"/></g><g class="trace scatter trace08e904" style="stroke-miterlimit: 2; opacity: 1;"><g class="fills"/><g class="errorbars"/><g class="lines"><path class="js-line" d="M0,9.06L5.83,11.25L7.78,11.25L15.56,10.63L17.5,10.16L44.72,10.94L46.67,11.56L112.78,11.56L114.72,15.94L132.22,15.16L134.17,14.53L138.06,5.78L140,5.78L143.89,8.44L145.83,3.91L163.33,3.91L165.28,6.25L167.22,6.25L169.17,3.91L171.11,6.25L173.06,3.75L176.94,3.75L178.89,6.09L180.83,3.75L182.78,3.75L186.67,3.75L188.61,6.09L190.56,6.09L192.5,3.75L194.44,6.09L196.39,6.09L198.33,3.75L200.28,6.72L213.89,7.66L215.83,8.13L219.72,11.41L221.67,11.41L250.83,11.72L252.78,12.66L276.11,12.97L278.06,14.53L280,14.53" style="vector-effect: none; fill: none; stroke: rgb(0, 174, 239); stroke-opacity: 1; stroke-width: 5px; opacity: 1;"/></g><g class="points"/><g class="text"/></g><g class="trace scatter trace18e0b5" style="stroke-miterlimit: 2; opacity: 1;"><g class="fills"/><g class="errorbars"/><g class="lines"><path class="js-line" d="M0,59.69L13.61,61.09L15.56,60.31L19.44,59.53L21.39,59.53L83.61,59.84L85.56,61.72L108.89,61.72L112.78,60.31L114.72,50.78L118.61,50.78L136.11,51.56L138.06,52.34L171.11,51.88L173.06,52.97L176.94,53.59L178.89,52.5L182.78,53.59L184.72,53.59L196.39,52.5L198.33,57.03L200.28,53.75L202.22,53.75L206.11,53.91L208.06,56.25L210,57.97L211.94,57.97L215.83,57.5L217.78,58.91L227.5,59.22L229.44,59.06L239.17,59.53L241.11,59.53L250.83,59.06L252.78,57.81L254.72,57.81L256.67,55.47L272.22,55.47L274.17,57.5L276.11,58.13L278.06,60.31L280,60.31" style="vector-effect: none; fill: none; stroke: rgb(255, 1, 170); stroke-opacity: 1; stroke-width: 5px; opacity: 1;"/></g><g class="points"/><g class="text"/></g><g class="trace scatter trace5fec02" style="stroke-miterlimit: 2; opacity: 1;"><g class="fills"/><g class="errorbars"/><g class="lines"><path class="js-line" d="M0,59.22L11.67,59.69L13.61,58.91L25.28,60L27.22,60L40.83,60.94L42.78,60.94L83.61,60.78L85.56,63.13L112.78,62.03L114.72,64.06L136.11,64.38L138.06,66.09L141.94,65.16L143.89,64.38L145.83,66.88L147.78,66.88L198.33,65.78L200.28,64.53L206.11,64.69L208.06,66.25L211.94,67.03L213.89,67.03L233.33,69.38L235.28,70.16L280,70.31" style="vector-effect: none; fill: none; stroke: rgb(238, 58, 67); stroke-opacity: 1; stroke-width: 5px; opacity: 1;"/></g><g class="points"/><g class="text"/></g><g class="trace scatter traceee084b" style="stroke-miterlimit: 2; opacity: 1;"><g class="fills"/><g class="errorbars"/><g class="lines"><path class="js-line" d="M0,62.97L11.67,63.44L13.61,61.09L17.5,65.94L19.44,65.94L132.22,66.72L134.17,66.88L196.39,67.81L198.33,68.44L210,68.59L211.94,68.59L229.44,69.84L231.39,70.31L248.89,71.09L250.83,71.09L280,71.09" style="vector-effect: none; fill: none; stroke: rgb(202, 166, 105); stroke-opacity: 1; stroke-width: 5px; opacity: 1;"/></g><g class="points"/><g class="text"/></g></g></g><g class="overplot"/><path class="xlines-above crisp" d="M0,0" style="fill: none;"/><path class="ylines-above crisp" d="M0,0" style="fill: none;"/><g class="overlines-above"/><g class="xaxislayer-above"/><g class="yaxislayer-above"/><g class="overaxes-above"/></g></g><g class="polarlayer"/><g class="smithlayer"/><g class="ternarylayer"/><g class="geolayer"/><g class="funnelarealayer"/><g class="pielayer"/><g class="iciclelayer"/><g class="treemaplayer"/><g class="sunburstlayer"/><g class="glimages"/><defs id="topdefs-dec9f3"><g class="clips"/></defs><g class="layer-above"><g class="imagelayer"/><g class="shapelayer"/></g><g class="infolayer"><g class="g-gtitle"><text class="gtitle" x="15" y="25" text-anchor="start" dy="0em" style="font-family: Ubuntu, verdana, arial, sans-serif; font-size: 16px; fill: rgb(233, 84, 32); opacity: 1; font-weight: normal; white-space: pre;">Prezident/ka 2024</text></g><g class="g-xtitle"/><g class="g-ytitle"/></g></svg>