<svg class="main-svg" xmlns="http://www.w3.org/2000/svg" xmlns:xlink="http://www.w3.org/1999/xlink" width="300" height="135" style="" viewBox="0 0 300 135"><rect x="0" y="0" width="300" height="135" style="fill: rgb(255, 255, 255); fill-opacity: 1;"/><defs id="defs-a449df"><g class="clips"><clipPath id="clipa449dfxyplot" class="plotclip"><rect width="280" height="75"/></clipPath><clipPath class="axesclip" id="clipa449dfx"><rect x="10" y="0" width="280" height="135"/></clipPath><clipPath class="axesclip" id="clipa449dfy"><rect x="0" y="50" width="300" height="75"/></clipPath><clipPath class="axesclip" id="clipa449dfxy"><rect x="10" y="50" width="280" height="75"/></clipPath></g><g class="gradients"/><g class="patterns"/></defs><g class="bglayer"/><g class="layer-below"><g class="imagelayer"/><g class="shapelayer"/></g><g class="cartesianlayer"><g class="subplot xy"><g class="layer-subplot"><g class="shapelayer"/><g class="imagelayer"/></g><g class="minor-gridlayer"><g class="x"/><g class="y"/></g><g class="gridlayer"><g class="x"><path class="xgrid crisp" transform="translate(24.07,0)" d="M0,50v75" style="stroke: rgb(235, 240, 248); stroke-opacity: 1; stroke-width: 1px;"/><path class="xgrid crisp" transform="translate(111.31,0)" d="M0,50v75" style="stroke: rgb(235, 240, 248); stroke-opacity: 1; stroke-width: 1px;"/><path class="xgrid crisp" transform="translate(197.14,0)" d="M0,50v75" style="stroke: rgb(235, 240, 248); stroke-opacity: 1; stroke-width: 1px;"/><path class="xgrid crisp" transform="translate(282.96,0)" d="M0,50v75" style="stroke: rgb(235, 240, 248); stroke-opacity: 1; stroke-width: 1px;"/></g><g class="y"><path class="ygrid crisp" transform="translate(0,102.42)" d="M10,0h280" style="stroke: rgb(235, 240, 248); stroke-opacity: 1; stroke-width: 1px;"/><path class="ygrid crisp" transform="translate(0,79.83)" d="M10,0h280" style="stroke: rgb(235, 240, 248); stroke-opacity: 1; stroke-width: 1px;"/><path class="ygrid crisp" transform="translate(0,57.25)" d="M10,0h280" style="stroke: rgb(235, 240, 248); stroke-opacity: 1; stroke-width: 1px;"/></g></g><g class="zerolinelayer"><path class="yzl zl crisp" transform="translate(0,125)" d="M10,0h280" style="stroke: rgb(235, 240, 248); stroke-opacity: 1; stroke-width: 2px;"/></g><path class="xlines-below"/><path class="ylines-below"/><g class="overlines-below"/><g class="xaxislayer-below"/><g class="yaxislayer-below"/><g class="overaxes-below"/><g class="plot" transform="translate(10,50)" clip-path="url(#clipa449dfxyplot)"><g class="scatterlayer mlayer"><g class="trace scatter trace4a06b2" style="stroke-miterlimit: 2; opacity: 1;"><g class="fills"/><g class="errorbars"/><g class="lines"><path class="js-line" d="M0,51.4L4.22,48.46L5.63,48.46L11.26,48.69L12.66,47.9L32.36,47L33.77,46.32L60.5,45.53L61.91,40.79L78.79,40.79L81.61,44.06L85.83,43.38L87.24,43.38L97.09,43.16L98.49,45.64L101.31,46.88L102.71,46.43L104.12,45.98L105.53,47L142.11,46.32L143.52,44.06L146.33,44.96L147.74,44.96L149.15,44.74L150.55,41.01L153.37,38.75L154.77,38.75L156.18,38.19L157.59,34.46L160.4,32.32L161.81,32.32L166.03,31.64L167.44,30.62L171.66,28.14L173.07,28.14L184.32,28.48L185.73,29.61L196.98,29.61L198.39,28.03L199.8,28.03L201.21,25.32L206.83,25.32L208.24,22.27L216.68,22.27L218.09,20.46L226.53,17.53L227.94,17.53L229.35,13.69L230.75,13.69L232.16,13.69L233.57,11.77L234.97,7.14L236.38,7.14L247.64,7.14L249.05,8.83L251.86,9.62L253.27,9.62L254.67,10.07L256.08,11.88L258.89,12.11L260.3,11.32L274.37,11.43L275.78,7.7L278.59,3.98L280,3.75" style="vector-effect: none; fill: none; stroke: rgb(138, 44, 81); stroke-opacity: 1; stroke-width: 5px; opacity: 1;"/></g><g class="points"/><g class="text"/></g><g class="trace scatter trace9f52a6" style="stroke-miterlimit: 2; opacity: 1;"><g class="fills"/><g class="errorbars"/><g class="lines"><path class="js-line" d="M0,25.77L5.63,27.35L7.04,27.35L11.26,27.12L12.66,26.45L81.61,27.46L83.02,30.62L97.09,29.61L98.49,27.01L99.9,23.17L101.31,23.17L104.12,25.2L105.53,21.82L118.19,21.82L119.6,23.51L121.01,23.51L122.41,21.82L123.82,23.51L125.23,21.48L128.04,21.03L129.45,23.17L132.26,21.03L133.67,21.03L135.08,21.03L136.48,23.17L137.89,23.17L139.3,21.03L142.11,23.17L143.52,21.14L146.33,23.74L147.74,23.74L156.18,24.98L157.59,26.9L161.81,27.69L163.22,27.69L181.51,28.48L182.91,29.16L216.68,30.17L218.09,31.98L227.94,34.35L229.35,32.2L233.57,33.33L234.97,34.8L247.64,34.8L249.05,33.22L251.86,32.32L253.27,32.32L254.67,31.87L256.08,29.27L258.89,28.7L260.3,29.04L274.37,28.48L275.78,31.41L278.59,34.8L280,35.03" style="vector-effect: none; fill: none; stroke: rgb(0, 174, 239); stroke-opacity: 1; stroke-width: 5px; opacity: 1;"/></g><g class="points"/><g class="text"/></g><g class="trace scatter tracef75ee3" style="stroke-miterlimit: 2; opacity: 1;"><g class="fills"/><g class="errorbars"/><g class="lines"><path class="js-line" d="M0,63.6L9.85,64.72L11.26,64.05L15.48,63.37L16.88,63.37L60.5,63.6L61.91,64.95L81.61,64.05L83.02,56.71L98.49,57.39L99.9,58.06L125.23,58.4L126.63,58.85L142.11,58.06L143.52,61.34L146.33,59.08L147.74,59.08L149.15,59.19L150.55,60.89L153.37,62.24L154.77,62.24L156.18,61.9L157.59,63.03L164.62,63.26L166.03,63.14L174.47,63.71L175.88,63.71L181.51,63.26L182.91,62.24L184.32,62.24L185.73,60.66L196.98,60.66L198.39,62.13L204.02,64.16L205.43,64.16L227.94,65.4L229.35,68.9L254.67,70.03L256.08,71.05L274.37,72.18L275.78,72.97L280,73.31" style="vector-effect: none; fill: none; stroke: rgb(255, 1, 170); stroke-opacity: 1; stroke-width: 5px; opacity: 1;"/></g><g class="points"/><g class="text"/></g><g class="trace scatter trace49cfe8" style="stroke-miterlimit: 2; opacity: 1;"><g class="fills"/><g class="errorbars"/><g class="lines"><path class="js-line" d="M0,66.08L8.44,66.31L9.85,64.72L12.66,68.23L14.07,68.23L101.31,68.79L102.71,69.24L105.53,68.9L106.93,68.9L150.55,70.03L151.96,70.26L167.44,71.5L168.84,71.73L174.47,72.06L175.88,72.06L227.94,73.31L229.35,73.65L233.57,73.87" style="vector-effect: none; fill: none; stroke: rgb(202, 166, 105); stroke-opacity: 1; stroke-width: 5px; opacity: 1;"/></g><g class="points"/><g class="text"/></g><g class="trace scatter trace3c89fe" style="stroke-miterlimit: 2; opacity: 1;"><g class="fills"/><g class="errorbars"/><g class="lines"><path class="js-line" d="M0,63.14L8.44,63.6L9.85,63.14L35.18,64.5L36.58,64.5L60.5,64.27L61.91,65.97L81.61,65.29L83.02,66.76L98.49,67.1L99.9,68.34L102.71,67.66L104.12,66.98L106.93,68.9L108.34,68.9L143.52,68L144.92,67.21L150.55,68.45L151.96,69.02L166.03,70.26L167.44,70.71L177.29,71.5L178.69,71.5L227.94,71.5L229.35,73.65L233.57,73.87" style="vector-effect: none; fill: none; stroke: rgb(238, 58, 67); stroke-opacity: 1; stroke-width: 5px; opacity: 1;"/></g><g class="points"/><g class="text"/></g></g></g><g class="overplot"/><path class="xlines-above crisp" d="M0,0" style="fill: none;"/><path class="ylines-above crisp" d="M0,0" style="fill: none;"/><g class="overlines-above"/><g class="xaxislayer-above"/><g class="yaxislayer-above"/><g class="overaxes-above"/></g></g><g class="polarlayer"/><g class="smithlayer"/><g class="ternarylayer"/><g class="geolayer"/><g class="funnelarealayer"/><g class="pielayer"/><g class="iciclelayer"/><g class="treemaplayer"/><g class="sunburstlayer"/><g class="glimages"/><defs id="topdefs-a449df"><g class="clips"/></defs><g class="layer-above"><g class="imagelayer"/><g class="shapelayer"/></g><g class="infolayer"><g class="g-gtitle"><text class="gtitle" x="15" y="25" text-anchor="start" dy="0em" style="font-family: Ubuntu, verdana, arial, sans-serif; font-size: 16px; fill: rgb(233, 84, 32); opacity: 1; font-weight: normal; white-space: pre;">Prezident/ka 2024</text></g><g class="g-xtitle"/><g class="g-ytitle"/></g></svg>