<svg class="main-svg" xmlns="http://www.w3.org/2000/svg" xmlns:xlink="http://www.w3.org/1999/xlink" width="300" height="135" style="" viewBox="0 0 300 135"><rect x="0" y="0" width="300" height="135" style="fill: rgb(255, 255, 255); fill-opacity: 1;"/><defs id="defs-2bf814"><g class="clips"><clipPath id="clip2bf814xyplot" class="plotclip"><rect width="280" height="75"/></clipPath><clipPath class="axesclip" id="clip2bf814x"><rect x="10" y="0" width="280" height="135"/></clipPath><clipPath class="axesclip" id="clip2bf814y"><rect x="0" y="50" width="300" height="75"/></clipPath><clipPath class="axesclip" id="clip2bf814xy"><rect x="10" y="50" width="280" height="75"/></clipPath></g><g class="gradients"/><g class="patterns"/></defs><g class="bglayer"/><g class="layer-below"><g class="imagelayer"/><g class="shapelayer"/></g><g class="cartesianlayer"><g class="subplot xy"><g class="layer-subplot"><g class="shapelayer"/><g class="imagelayer"/></g><g class="minor-gridlayer"><g class="x"/><g class="y"/></g><g class="gridlayer"><g class="x"><path class="xgrid crisp" transform="translate(29.18,0)" d="M0,50v75" style="stroke: rgb(235, 240, 248); stroke-opacity: 1; stroke-width: 1px;"/><path class="xgrid crisp" transform="translate(88.63,0)" d="M0,50v75" style="stroke: rgb(235, 240, 248); stroke-opacity: 1; stroke-width: 1px;"/><path class="xgrid crisp" transform="translate(148.08,0)" d="M0,50v75" style="stroke: rgb(235, 240, 248); stroke-opacity: 1; stroke-width: 1px;"/><path class="xgrid crisp" transform="translate(205.62,0)" d="M0,50v75" style="stroke: rgb(235, 240, 248); stroke-opacity: 1; stroke-width: 1px;"/><path class="xgrid crisp" transform="translate(265.07,0)" d="M0,50v75" style="stroke: rgb(235, 240, 248); stroke-opacity: 1; stroke-width: 1px;"/></g><g class="y"><path class="ygrid crisp" transform="translate(0,109.38)" d="M10,0h280" style="stroke: rgb(235, 240, 248); stroke-opacity: 1; stroke-width: 1px;"/><path class="ygrid crisp" transform="translate(0,93.75)" d="M10,0h280" style="stroke: rgb(235, 240, 248); stroke-opacity: 1; stroke-width: 1px;"/><path class="ygrid crisp" transform="translate(0,78.13)" d="M10,0h280" style="stroke: rgb(235, 240, 248); stroke-opacity: 1; stroke-width: 1px;"/><path class="ygrid crisp" transform="translate(0,62.5)" d="M10,0h280" style="stroke: rgb(235, 240, 248); stroke-opacity: 1; stroke-width: 1px;"/></g></g><g class="zerolinelayer"><path class="yzl zl crisp" transform="translate(0,125)" d="M10,0h280" style="stroke: rgb(235, 240, 248); stroke-opacity: 1; stroke-width: 2px;"/></g><path class="xlines-below"/><path class="ylines-below"/><g class="overlines-below"/><g class="xaxislayer-below"/><g class="yaxislayer-below"/><g class="overaxes-below"/><g class="plot" transform="translate(10,50)" clip-path="url(#clip2bf814xyplot)"><g class="scatterlayer mlayer"><g class="trace scatter traceb5f11e" style="stroke-miterlimit: 2; opacity: 1;"><g class="fills"/><g class="errorbars"/><g class="lines"><path class="js-line" d="M0,43.44L3.84,39.38L5.75,39.38L15.34,39.53L17.26,38.75L44.11,37.66L46.03,36.88L82.47,35.78L84.38,29.69L107.4,29.69L111.23,33.75L113.15,32.97L116.99,32.97L132.33,32.66L134.25,35.94L138.08,37.34L140,36.88L141.92,36.25L143.84,37.66L193.7,36.88L195.62,34.06L199.45,35L201.37,35L203.29,34.69L205.21,29.69L207.12,26.72L209.04,26.72L212.88,25.78L214.79,20.63L218.63,17.66L220.55,17.66L226.3,16.72L228.22,15L233.97,11.41L235.89,11.41L251.23,11.87L253.15,13.44L268.49,13.44L270.41,11.25L272.33,11.25L274.25,7.5L280,7.5" style="vector-effect: none; fill: none; stroke: rgb(138, 44, 81); stroke-opacity: 1; stroke-width: 5px; opacity: 1;"/></g><g class="points"/><g class="text"/></g><g class="trace scatter tracefc856b" style="stroke-miterlimit: 2; opacity: 1;"><g class="fills"/><g class="errorbars"/><g class="lines"><path class="js-line" d="M0,9.06L5.75,11.25L7.67,11.25L15.34,10.63L17.26,10.16L44.11,10.94L46.03,11.56L111.23,11.56L113.15,15.94L130.41,15.16L132.33,14.53L136.16,5.78L138.08,5.78L141.92,8.44L143.84,3.91L161.1,3.91L163.01,6.25L164.93,6.25L166.85,3.91L168.77,6.25L170.68,3.75L174.52,3.75L176.44,6.09L178.36,3.75L180.27,3.75L184.11,3.75L186.03,6.09L187.95,6.09L189.86,3.75L191.78,6.09L193.7,6.09L195.62,3.75L197.53,6.72L210.96,7.66L212.88,8.13L216.71,11.41L218.63,11.41L247.4,11.72L249.32,12.66L272.33,12.97L274.25,14.53L280,14.53" style="vector-effect: none; fill: none; stroke: rgb(0, 174, 239); stroke-opacity: 1; stroke-width: 5px; opacity: 1;"/></g><g class="points"/><g class="text"/></g><g class="trace scatter traceb51332" style="stroke-miterlimit: 2; opacity: 1;"><g class="fills"/><g class="errorbars"/><g class="lines"><path class="js-line" d="M0,59.69L13.42,61.09L15.34,60.31L19.18,59.53L21.1,59.53L82.47,59.84L84.38,61.72L107.4,61.72L111.23,60.31L113.15,50.78L116.99,50.78L134.25,51.56L136.16,52.34L168.77,51.88L170.68,52.97L174.52,53.59L176.44,52.5L180.27,53.59L182.19,53.59L193.7,52.5L195.62,57.03L197.53,53.75L199.45,53.75L203.29,53.91L205.21,56.25L207.12,57.97L209.04,57.97L212.88,57.5L214.79,58.91L224.38,59.22L226.3,59.06L235.89,59.53L237.81,59.53L247.4,59.06L249.32,57.81L251.23,57.81L253.15,55.47L268.49,55.47L270.41,57.5L272.33,58.13L274.25,60.31L280,60.31" style="vector-effect: none; fill: none; stroke: rgb(255, 1, 170); stroke-opacity: 1; stroke-width: 5px; opacity: 1;"/></g><g class="points"/><g class="text"/></g><g class="trace scatter trace815297" style="stroke-miterlimit: 2; opacity: 1;"><g class="fills"/><g class="errorbars"/><g class="lines"><path class="js-line" d="M0,59.22L11.51,59.69L13.42,58.91L24.93,60L26.85,60L40.27,60.94L42.19,60.94L82.47,60.78L84.38,63.13L111.23,62.03L113.15,64.06L134.25,64.38L136.16,66.09L140,65.16L141.92,64.38L143.84,66.88L145.75,66.88L195.62,65.78L197.53,64.53L203.29,64.69L205.21,66.25L209.04,67.03L210.96,67.03L230.14,69.38L232.05,70.16L280,70.31" style="vector-effect: none; fill: none; stroke: rgb(238, 58, 67); stroke-opacity: 1; stroke-width: 5px; opacity: 1;"/></g><g class="points"/><g class="text"/></g><g class="trace scatter trace50be22" style="stroke-miterlimit: 2; opacity: 1;"><g class="fills"/><g class="errorbars"/><g class="lines"><path class="js-line" d="M0,62.97L11.51,63.44L13.42,61.09L17.26,65.94L19.18,65.94L130.41,66.72L132.33,66.88L193.7,67.81L195.62,68.44L207.12,68.59L209.04,68.59L226.3,69.84L228.22,70.31L245.48,71.09L247.4,71.09L280,71.09" style="vector-effect: none; fill: none; stroke: rgb(202, 166, 105); stroke-opacity: 1; stroke-width: 5px; opacity: 1;"/></g><g class="points"/><g class="text"/></g></g></g><g class="overplot"/><path class="xlines-above crisp" d="M0,0" style="fill: none;"/><path class="ylines-above crisp" d="M0,0" style="fill: none;"/><g class="overlines-above"/><g class="xaxislayer-above"/><g class="yaxislayer-above"/><g class="overaxes-above"/></g></g><g class="polarlayer"/><g class="smithlayer"/><g class="ternarylayer"/><g class="geolayer"/><g class="funnelarealayer"/><g class="pielayer"/><g class="iciclelayer"/><g class="treemaplayer"/><g class="sunburstlayer"/><g class="glimages"/><defs id="topdefs-2bf814"><g class="clips"/></defs><g class="layer-above"><g class="imagelayer"/><g class="shapelayer"/></g><g class="infolayer"><g class="g-gtitle"><text class="gtitle" x="15" y="25" text-anchor="start" dy="0em" style="font-family: Ubuntu, verdana, arial, sans-serif; font-size: 16px; fill: rgb(233, 84, 32); opacity: 1; font-weight: normal; white-space: pre;">Prezident/ka 2024</text></g><g class="g-xtitle"/><g class="g-ytitle"/></g></svg>