<svg class="main-svg" xmlns="http://www.w3.org/2000/svg" xmlns:xlink="http://www.w3.org/1999/xlink" width="300" height="135" style="" viewBox="0 0 300 135"><rect x="0" y="0" width="300" height="135" style="fill: rgb(255, 255, 255); fill-opacity: 1;"/><defs id="defs-a843ba"><g class="clips"><clipPath id="clipa843baxyplot" class="plotclip"><rect width="280" height="75"/></clipPath><clipPath class="axesclip" id="clipa843bax"><rect x="10" y="0" width="280" height="135"/></clipPath><clipPath class="axesclip" id="clipa843bay"><rect x="0" y="50" width="300" height="75"/></clipPath><clipPath class="axesclip" id="clipa843baxy"><rect x="10" y="50" width="280" height="75"/></clipPath></g><g class="gradients"/><g class="patterns"/></defs><g class="bglayer"/><g class="layer-below"><g class="imagelayer"/><g class="shapelayer"/></g><g class="cartesianlayer"><g class="subplot xy"><g class="layer-subplot"><g class="shapelayer"/><g class="imagelayer"/></g><g class="minor-gridlayer"><g class="x"/><g class="y"/></g><g class="gridlayer"><g class="x"><path class="xgrid crisp" transform="translate(27.07,0)" d="M0,50v75" style="stroke: rgb(235, 240, 248); stroke-opacity: 1; stroke-width: 1px;"/><path class="xgrid crisp" transform="translate(132.93,0)" d="M0,50v75" style="stroke: rgb(235, 240, 248); stroke-opacity: 1; stroke-width: 1px;"/><path class="xgrid crisp" transform="translate(237.07,0)" d="M0,50v75" style="stroke: rgb(235, 240, 248); stroke-opacity: 1; stroke-width: 1px;"/></g><g class="y"><path class="ygrid crisp" transform="translate(0,98.75999999999999)" d="M10,0h280" style="stroke: rgb(235, 240, 248); stroke-opacity: 1; stroke-width: 1px;"/><path class="ygrid crisp" transform="translate(0,72.51)" d="M10,0h280" style="stroke: rgb(235, 240, 248); stroke-opacity: 1; stroke-width: 1px;"/></g></g><g class="zerolinelayer"><path class="yzl zl crisp" transform="translate(0,125)" d="M10,0h280" style="stroke: rgb(235, 240, 248); stroke-opacity: 1; stroke-width: 2px;"/></g><path class="xlines-below"/><path class="ylines-below"/><g class="overlines-below"/><g class="xaxislayer-below"/><g class="yaxislayer-below"/><g class="overaxes-below"/><g class="plot" transform="translate(10,50)" clip-path="url(#clipa843baxyplot)"><g class="scatterlayer mlayer"><g class="trace scatter trace022b36" style="stroke-miterlimit: 2; opacity: 1;"><g class="fills"/><g class="errorbars"/><g class="lines"><path class="js-line" d="M0,47.58L5.12,44.16L6.83,44.16L13.66,44.43L15.37,43.51L39.27,42.46L40.98,41.67L73.41,40.75L75.12,35.24L95.61,35.24L99.02,39.05L100.73,38.26L104.15,38.26L117.8,38L119.51,40.88L122.93,42.33L124.63,41.8L126.34,41.28L128.05,42.46L172.44,41.67L174.15,39.05L177.56,40.1L179.27,40.1L180.98,39.83L182.68,35.5L184.39,32.88L186.1,32.88L189.51,32.22L191.22,27.89L194.63,25.4L196.34,25.4L201.46,24.61L203.17,23.43L208.29,20.55L210,20.55L223.66,20.94L225.37,22.25L239.02,22.25L240.73,20.41L242.44,20.41L244.15,17.27L250.98,17.27L252.68,13.72L262.93,13.72L264.63,11.62L268.05,10.84L269.76,10.84L276.59,8.21L278.29,3.75L280,3.75" style="vector-effect: none; fill: none; stroke: rgb(138, 44, 81); stroke-opacity: 1; stroke-width: 5px; opacity: 1;"/></g><g class="points"/><g class="text"/></g><g class="trace scatter tracecb73b5" style="stroke-miterlimit: 2; opacity: 1;"><g class="fills"/><g class="errorbars"/><g class="lines"><path class="js-line" d="M0,17.79L5.12,19.63L6.83,19.63L13.66,19.36L15.37,18.58L73.41,19.76L75.12,19.89L99.02,19.76L100.73,23.43L117.8,22.25L119.51,19.23L121.22,14.77L122.93,14.77L126.34,17.13L128.05,13.2L143.41,13.2L145.12,15.17L146.83,15.17L148.54,13.2L150.24,15.17L151.95,12.8L155.37,12.28L157.07,14.77L158.78,12.28L160.49,12.28L163.9,12.28L165.61,14.77L167.32,14.77L169.02,12.28L170.73,14.77L172.44,14.77L174.15,12.41L175.85,15.43L187.8,16.22L189.51,16.87L192.93,19.89L194.63,20.02L220.24,20.94L221.95,21.73L242.44,21.86L244.15,23.17L262.93,22.91L264.63,25.01L276.59,27.76L278.29,25.27L280,25.27" style="vector-effect: none; fill: none; stroke: rgb(0, 174, 239); stroke-opacity: 1; stroke-width: 5px; opacity: 1;"/></g><g class="points"/><g class="text"/></g><g class="trace scatter trace0606ab" style="stroke-miterlimit: 2; opacity: 1;"><g class="fills"/><g class="errorbars"/><g class="lines"><path class="js-line" d="M0,61.75L11.95,63.06L13.66,62.27L17.07,61.48L18.78,61.48L73.41,61.75L75.12,63.32L99.02,62.27L100.73,53.74L119.51,54.53L121.22,55.32L150.24,54.92L151.95,55.71L155.37,56.24L157.07,55.32L160.49,56.24L162.2,56.24L172.44,55.32L174.15,59.12L175.85,56.5L177.56,56.5L180.98,56.63L182.68,58.6L186.1,60.17L187.8,60.17L189.51,59.78L191.22,61.09L199.76,61.35L201.46,61.22L208.29,61.88L210,61.88L220.24,61.35L221.95,60.17L223.66,60.17L225.37,58.34L239.02,58.34L240.73,60.04L247.56,62.4L249.27,62.4L271.46,63.58L273.17,63.72L276.59,63.85L278.29,67.91L280,67.91" style="vector-effect: none; fill: none; stroke: rgb(255, 1, 170); stroke-opacity: 1; stroke-width: 5px; opacity: 1;"/></g><g class="points"/><g class="text"/></g><g class="trace scatter tracea11d15" style="stroke-miterlimit: 2; opacity: 1;"><g class="fills"/><g class="errorbars"/><g class="lines"><path class="js-line" d="M0,61.22L10.24,61.75L11.95,61.22L40.98,62.8L42.68,62.8L73.41,62.53L75.12,64.5L99.02,63.72L100.73,65.42L119.51,65.81L121.22,67.26L124.63,66.47L126.34,65.68L128.05,67.91L129.76,67.91L174.15,66.86L175.85,65.95L180.98,66.08L182.68,67.39L187.8,68.05L189.51,68.31L198.05,69.23L199.76,69.23L213.41,70.93L215.12,70.93L276.59,70.93L278.29,73.43L280,73.43" style="vector-effect: none; fill: none; stroke: rgb(238, 58, 67); stroke-opacity: 1; stroke-width: 5px; opacity: 1;"/></g><g class="points"/><g class="text"/></g><g class="trace scatter trace4eca5c" style="stroke-miterlimit: 2; opacity: 1;"><g class="fills"/><g class="errorbars"/><g class="lines"><path class="js-line" d="M0,64.63L10.24,64.9L11.95,63.06L15.37,67.13L17.07,67.13L122.93,67.78L124.63,68.31L126.34,68.83L128.05,67.91L172.44,68.83L174.15,69.23L199.76,70.28L201.46,70.54L210,71.59L211.71,71.59L250.98,71.59L252.68,72.9L280,73.43" style="vector-effect: none; fill: none; stroke: rgb(202, 166, 105); stroke-opacity: 1; stroke-width: 5px; opacity: 1;"/></g><g class="points"/><g class="text"/></g></g></g><g class="overplot"/><path class="xlines-above crisp" d="M0,0" style="fill: none;"/><path class="ylines-above crisp" d="M0,0" style="fill: none;"/><g class="overlines-above"/><g class="xaxislayer-above"/><g class="yaxislayer-above"/><g class="overaxes-above"/></g></g><g class="polarlayer"/><g class="smithlayer"/><g class="ternarylayer"/><g class="geolayer"/><g class="funnelarealayer"/><g class="pielayer"/><g class="iciclelayer"/><g class="treemaplayer"/><g class="sunburstlayer"/><g class="glimages"/><defs id="topdefs-a843ba"><g class="clips"/></defs><g class="layer-above"><g class="imagelayer"/><g class="shapelayer"/></g><g class="infolayer"><g class="g-gtitle"><text class="gtitle" x="15" y="25" text-anchor="start" dy="0em" style="font-family: Ubuntu, verdana, arial, sans-serif; font-size: 16px; fill: rgb(233, 84, 32); opacity: 1; font-weight: normal; white-space: pre;">Prezident/ka 2024</text></g><g class="g-xtitle"/><g class="g-ytitle"/></g></svg>