<svg class="main-svg" xmlns="http://www.w3.org/2000/svg" xmlns:xlink="http://www.w3.org/1999/xlink" width="1200" height="600" style="" viewBox="0 0 1200 600"><rect x="0" y="0" width="1200" height="600" style="fill: rgb(255, 255, 255); fill-opacity: 1;"/><defs id="defs-294a4a"><g class="clips"><clipPath id="clip294a4axyplot" class="plotclip"><rect width="990" height="530"/></clipPath><clipPath class="axesclip" id="clip294a4ax"><rect x="50" y="0" width="990" height="600"/></clipPath><clipPath class="axesclip" id="clip294a4ay"><rect x="0" y="20" width="1200" height="530"/></clipPath><clipPath class="axesclip" id="clip294a4axy"><rect x="50" y="20" width="990" height="530"/></clipPath></g><g class="gradients"/><g class="patterns"/></defs><g class="bglayer"/><g class="layer-below"><g class="imagelayer"/><g class="shapelayer"/></g><g class="cartesianlayer"><g class="subplot xy"><g class="layer-subplot"><g class="shapelayer"/><g class="imagelayer"/></g><g class="minor-gridlayer"><g class="x"/><g class="y"/></g><g class="gridlayer"><g class="x"><path class="xgrid crisp" transform="translate(83,0)" d="M0,20v530" style="stroke: rgb(235, 240, 248); stroke-opacity: 1; stroke-width: 1px;"/><path class="xgrid crisp" transform="translate(185.3,0)" d="M0,20v530" style="stroke: rgb(235, 240, 248); stroke-opacity: 1; stroke-width: 1px;"/><path class="xgrid crisp" transform="translate(287.6,0)" d="M0,20v530" style="stroke: rgb(235, 240, 248); stroke-opacity: 1; stroke-width: 1px;"/><path class="xgrid crisp" transform="translate(386.6,0)" d="M0,20v530" style="stroke: rgb(235, 240, 248); stroke-opacity: 1; stroke-width: 1px;"/><path class="xgrid crisp" transform="translate(488.9,0)" d="M0,20v530" style="stroke: rgb(235, 240, 248); stroke-opacity: 1; stroke-width: 1px;"/><path class="xgrid crisp" transform="translate(587.9,0)" d="M0,20v530" style="stroke: rgb(235, 240, 248); stroke-opacity: 1; stroke-width: 1px;"/><path class="xgrid crisp" transform="translate(690.2,0)" d="M0,20v530" style="stroke: rgb(235, 240, 248); stroke-opacity: 1; stroke-width: 1px;"/><path class="xgrid crisp" transform="translate(792.5,0)" d="M0,20v530" style="stroke: rgb(235, 240, 248); stroke-opacity: 1; stroke-width: 1px;"/><path class="xgrid crisp" transform="translate(888.2,0)" d="M0,20v530" style="stroke: rgb(235, 240, 248); stroke-opacity: 1; stroke-width: 1px;"/><path class="xgrid crisp" transform="translate(990.5,0)" d="M0,20v530" style="stroke: rgb(235, 240, 248); stroke-opacity: 1; stroke-width: 1px;"/></g><g class="y"><path class="ygrid crisp" transform="translate(0,466.22)" d="M50,0h990" style="stroke: rgb(235, 240, 248); stroke-opacity: 1; stroke-width: 1px;"/><path class="ygrid crisp" transform="translate(0,382.45)" d="M50,0h990" style="stroke: rgb(235, 240, 248); stroke-opacity: 1; stroke-width: 1px;"/><path class="ygrid crisp" transform="translate(0,298.67)" d="M50,0h990" style="stroke: rgb(235, 240, 248); stroke-opacity: 1; stroke-width: 1px;"/><path class="ygrid crisp" transform="translate(0,214.89)" d="M50,0h990" style="stroke: rgb(235, 240, 248); stroke-opacity: 1; stroke-width: 1px;"/><path class="ygrid crisp" transform="translate(0,131.11)" d="M50,0h990" style="stroke: rgb(235, 240, 248); stroke-opacity: 1; stroke-width: 1px;"/><path class="ygrid crisp" transform="translate(0,47.34)" d="M50,0h990" style="stroke: rgb(235, 240, 248); stroke-opacity: 1; stroke-width: 1px;"/></g></g><g class="zerolinelayer"><path class="yzl zl crisp" transform="translate(0,550)" d="M50,0h990" style="stroke: rgb(235, 240, 248); stroke-opacity: 1; stroke-width: 2px;"/></g><path class="xlines-below"/><path class="ylines-below"/><g class="overlines-below"/><g class="xaxislayer-below"/><g class="yaxislayer-below"/><g class="overaxes-below"/><g class="plot" transform="translate(50,20)" clip-path="url(#clip294a4axyplot)"><g class="scatterlayer mlayer"><g class="trace scatter traceff46d1" style="stroke-miterlimit: 2; opacity: 1;"><g class="fills"/><g class="errorbars"/><g class="lines"><path class="js-line" d="M0,354.91L6.6,333.12L9.9,333.12L19.8,333.12L23.1,338.99L29.7,328.94L33,328.94L46.2,328.94L49.5,326.42L59.4,326.42L62.7,323.91L66,322.23L69.3,322.23L75.9,322.23L79.2,317.21L122.1,317.21L125.4,311.34L141.9,311.34L145.2,276.16L184.8,276.16L191.4,300.45L194.7,295.42L201.3,295.42L224.4,294.59L227.7,293.75L231,312.18L234.3,321.4L237.6,321.4L240.9,318.04L244.2,314.69L247.5,322.23L277.2,322.23L280.5,318.88L283.8,318.88L287.1,322.23L290.4,318.88L293.7,321.4L297,318.88L300.3,318.88L303.6,317.21L306.9,318.88L316.8,318.88L320.1,317.21L323.4,317.21L326.7,318.88L330,317.21L333.3,317.21L336.6,300.45L339.9,307.15L346.5,307.15L349.8,305.48L353.1,277.83L356.4,261.08L363,261.08L366.3,256.89L369.6,229.24L372.9,215.84L376.2,213.32L379.5,213.32L386.1,213.32L389.4,208.3L396,194.05L399.3,182.33L425.7,183.16L429,184.84L432.3,184.84L435.6,193.22L462,193.22L465.3,181.49L468.6,181.49L471.9,161.38L485.1,161.38L488.4,138.76L508.2,138.76L511.5,125.36L514.8,120.33L518.1,120.33L521.4,120.33L524.7,115.3L528,107.76L531.3,103.57L534.6,103.57L537.9,75.09L544.5,75.09L547.8,60.85L551.1,26.5L554.4,26.5L580.8,26.5L584.1,39.07L587.4,44.93L590.7,44.93L594,44.93L597.3,48.28L600.6,61.69L603.9,66.71L607.2,66.71" style="vector-effect: none; fill: none; stroke: rgb(138, 44, 81); stroke-opacity: 1; stroke-width: 5px; opacity: 1;"/></g><g class="points"/><g class="text"/></g><g class="trace scatter traceab979f" style="stroke-miterlimit: 2; opacity: 1;"><g class="fills"/><g class="errorbars"/><g class="lines"><path class="js-line" d="M0,164.73L6.6,176.46L9.9,176.46L19.8,176.46L23.1,182.33L29.7,169.76L33,169.76L59.4,169.76L62.7,171.43L66,173.11L69.3,173.11L75.9,173.11L79.2,177.3L191.4,177.3L194.7,200.76L221.1,200.76L224.4,196.57L227.7,193.22L231,173.95L234.3,145.46L237.6,145.46L244.2,160.54L247.5,135.41L277.2,135.41L280.5,147.98L283.8,147.98L287.1,135.41L290.4,147.98L293.7,132.9L297,129.55L300.3,129.55L303.6,145.46L306.9,129.55L316.8,129.55L320.1,145.46L323.4,145.46L326.7,129.55L330,145.46L333.3,145.46L336.6,130.38L339.9,149.65L349.8,149.65L353.1,154.68L363,154.68L366.3,158.87L369.6,173.11L372.9,178.14L379.5,178.97L382.8,178.97L392.7,178.97L396,181.49L402.6,182.33L405.9,182.33L422.4,182.33L425.7,184.84L429,189.87L432.3,189.87L435.6,193.22L442.2,193.22L465.3,194.05L468.6,190.7L471.9,199.08L475.2,199.08L485.1,199.08L488.4,197.41L508.2,197.41L511.5,210.81L514.8,214.16L518.1,214.16L521.4,214.16L524.7,219.19L531.3,228.4L534.6,228.4L537.9,212.49L541.2,212.49L544.5,212.49L547.8,220.86L551.1,231.75L554.4,231.75L580.8,231.75L584.1,220.02L587.4,213.32L590.7,213.32L594,213.32L597.3,209.97L600.6,190.7L603.9,184.84L607.2,184.84" style="vector-effect: none; fill: none; stroke: rgb(0, 174, 239); stroke-opacity: 1; stroke-width: 5px; opacity: 1;"/></g><g class="points"/><g class="text"/></g><g class="trace scatter tracef467a3" style="stroke-miterlimit: 2; opacity: 1;"><g class="fills"/><g class="errorbars"/><g class="lines"><path class="js-line" d="M0,445.39L6.6,447.9L9.9,447.9L19.8,447.9L23.1,453.76L29.7,443.71L33,443.71L46.2,443.71L49.5,445.39L62.7,444.55L66,443.71L122.1,443.71L125.4,445.39L141.9,445.39L145.2,455.44L184.8,455.44L191.4,448.74L194.7,394.28L201.3,394.28L221.1,394.28L224.4,396.79L227.7,399.31L231,399.31L234.3,404.33L237.6,404.33L244.2,398.47L247.5,405.17L277.2,405.17L280.5,401.82L283.8,401.82L287.1,405.17L290.4,401.82L293.7,406.85L297,410.2L300.3,410.2L303.6,404.33L306.9,410.2L316.8,410.2L320.1,404.33L323.4,404.33L326.7,410.2L330,404.33L333.3,404.33L336.6,428.63L339.9,411.87L349.8,412.71L353.1,425.28L356.4,435.33L359.7,435.33L363,435.33L366.3,432.82L369.6,441.2L372.9,442.87L389.4,442.03L392.7,441.2L396,442.87L399.3,446.22L422.4,446.22L425.7,442.87L429,435.33L432.3,435.33L435.6,423.6L442.2,423.6L462,423.6L465.3,434.49L468.6,437.85L471.9,449.57L485.1,449.57L488.4,456.28L524.7,457.11L528,457.95L534.6,458.79L537.9,484.76L544.5,484.76L547.8,488.11L551.1,493.14L554.4,493.14L597.3,493.14L600.6,500.68L607.2,500.68" style="vector-effect: none; fill: none; stroke: rgb(255, 1, 170); stroke-opacity: 1; stroke-width: 5px; opacity: 1;"/></g><g class="points"/><g class="text"/></g><g class="trace scatter tracefd5fbf" style="stroke-miterlimit: 2; opacity: 1;"><g class="fills"/><g class="errorbars"/><g class="lines"><path class="js-line" d="M0,442.03L6.6,445.39L9.9,445.39L19.8,445.39L23.1,442.03L26.4,442.87L29.7,447.06L59.4,447.9L62.7,450.41L66,452.09L69.3,452.09L122.1,452.09L125.4,450.41L141.9,450.41L145.2,462.98L184.8,462.98L191.4,457.95L194.7,468.84L201.3,468.84L224.4,469.68L227.7,471.36L231,471.36L234.3,480.57L237.6,480.57L240.9,475.54L244.2,470.52L247.5,484.76L277.2,484.76L280.5,478.06L283.8,478.06L287.1,484.76L290.4,478.06L293.7,483.92L300.3,483.92L303.6,477.22L306.9,483.92L310.2,483.92L316.8,483.92L320.1,477.22L323.4,477.22L326.7,483.92L330,477.22L333.3,477.22L336.6,478.06L339.9,472.19L349.8,473.03L353.1,481.41L356.4,485.6L359.7,485.6L363,485.6L366.3,487.27L372.9,492.3L376.2,493.14L386.1,493.14L389.4,494.81L399.3,504.03L402.6,504.03L485.1,504.03L488.4,503.19L534.6,504.03L537.9,519.95L544.5,519.95L547.8,521.62" style="vector-effect: none; fill: none; stroke: rgb(238, 58, 67); stroke-opacity: 1; stroke-width: 5px; opacity: 1;"/></g><g class="points"/><g class="text"/></g><g class="trace scatter trace3a44ee" style="stroke-miterlimit: 2; opacity: 1;"><g class="fills"/><g class="errorbars"/><g class="lines"><path class="js-line" d="M0,471.36L9.9,473.87L13.2,473.87L23.1,473.03L26.4,471.36L33,472.19L36.3,472.19L46.2,472.19L49.5,473.87L75.9,473.03L79.2,474.71L122.1,474.71L125.4,481.41L141.9,481.41L145.2,488.11L184.8,488.11L191.4,478.06L194.7,499.84L201.3,499.84L231,500.68L234.3,506.54L244.2,506.54L247.5,509.89L277.2,509.89L280.5,508.22L283.8,508.22L287.1,509.89L290.4,508.22L293.7,509.89L300.3,509.89L303.6,508.22L306.9,509.89L310.2,509.89L316.8,509.89L320.1,508.22L323.4,508.22L326.7,509.89L330,508.22L333.3,508.22L336.6,510.73L339.9,509.06L363,509.89L366.3,510.73L372.9,513.24L376.2,514.08L386.1,514.08L389.4,515.76L392.7,519.11L396,519.11L402.6,519.95L405.9,519.95L485.1,519.11" style="vector-effect: none; fill: none; stroke: rgb(255, 192, 203); stroke-opacity: 1; stroke-width: 5px; opacity: 1;"/></g><g class="points"/><g class="text"/></g><g class="trace scatter trace7114e4" style="stroke-miterlimit: 2; opacity: 1;"><g class="fills"/><g class="errorbars"/><g class="lines"><path class="js-line" d="M0,463.82L9.9,465.49L13.2,465.49L19.8,465.49L23.1,453.76L29.7,479.73L33,479.73L62.7,478.9L66,478.06L141.9,477.22L145.2,481.41L184.8,481.41L191.4,479.73L194.7,483.08L201.3,483.08L224.4,483.92L227.7,484.76L237.6,483.92L240.9,487.27L244.2,490.62L247.5,484.76L277.2,484.76L280.5,487.27L283.8,487.27L287.1,484.76L290.4,487.27L293.7,486.44L297,489.79L300.3,489.79L303.6,490.62L306.9,489.79L333.3,490.62L336.6,493.14L353.1,493.14L356.4,494.81L366.3,495.65L369.6,496.49L372.9,499L376.2,499.84L386.1,499.84L389.4,501.52L399.3,508.22L402.6,508.22L485.1,508.22L488.4,516.6L534.6,517.43L537.9,519.95L544.5,519.95L547.8,521.62" style="vector-effect: none; fill: none; stroke: rgb(202, 166, 105); stroke-opacity: 1; stroke-width: 5px; opacity: 1;"/></g><g class="points"/><g class="text"/></g></g></g><g class="overplot"/><path class="xlines-above crisp" d="M0,0" style="fill: none;"/><path class="ylines-above crisp" d="M0,0" style="fill: none;"/><g class="overlines-above"/><g class="xaxislayer-above"><g class="xtick"><text text-anchor="middle" x="0" y="563" transform="translate(83,0)" style="font-family: 'Open Sans', verdana, arial, sans-serif; font-size: 12px; fill: rgb(42, 63, 95); fill-opacity: 1; white-space: pre; opacity: 1;">1.7.23</text></g><g class="xtick"><text text-anchor="middle" x="0" y="563" style="font-family: 'Open Sans', verdana, arial, sans-serif; font-size: 12px; fill: rgb(42, 63, 95); fill-opacity: 1; white-space: pre; opacity: 1;" transform="translate(185.3,0)">1.8.23</text></g><g class="xtick"><text text-anchor="middle" x="0" y="563" style="font-family: 'Open Sans', verdana, arial, sans-serif; font-size: 12px; fill: rgb(42, 63, 95); fill-opacity: 1; white-space: pre; opacity: 1;" transform="translate(287.6,0)">1.9.23</text></g><g class="xtick"><text text-anchor="middle" x="0" y="563" style="font-family: 'Open Sans', verdana, arial, sans-serif; font-size: 12px; fill: rgb(42, 63, 95); fill-opacity: 1; white-space: pre; opacity: 1;" transform="translate(386.6,0)">1.10.23</text></g><g class="xtick"><text text-anchor="middle" x="0" y="563" style="font-family: 'Open Sans', verdana, arial, sans-serif; font-size: 12px; fill: rgb(42, 63, 95); fill-opacity: 1; white-space: pre; opacity: 1;" transform="translate(488.9,0)">1.11.23</text></g><g class="xtick"><text text-anchor="middle" x="0" y="563" style="font-family: 'Open Sans', verdana, arial, sans-serif; font-size: 12px; fill: rgb(42, 63, 95); fill-opacity: 1; white-space: pre; opacity: 1;" transform="translate(587.9,0)">1.12.23</text></g><g class="xtick"><text text-anchor="middle" x="0" y="563" style="font-family: 'Open Sans', verdana, arial, sans-serif; font-size: 12px; fill: rgb(42, 63, 95); fill-opacity: 1; white-space: pre; opacity: 1;" transform="translate(690.2,0)">1.1.24</text></g><g class="xtick"><text text-anchor="middle" x="0" y="563" style="font-family: 'Open Sans', verdana, arial, sans-serif; font-size: 12px; fill: rgb(42, 63, 95); fill-opacity: 1; white-space: pre; opacity: 1;" transform="translate(792.5,0)">1.2.24</text></g><g class="xtick"><text text-anchor="middle" x="0" y="563" style="font-family: 'Open Sans', verdana, arial, sans-serif; font-size: 12px; fill: rgb(42, 63, 95); fill-opacity: 1; white-space: pre; opacity: 1;" transform="translate(888.2,0)">1.3.24</text></g><g class="xtick"><text text-anchor="middle" x="0" y="563" style="font-family: 'Open Sans', verdana, arial, sans-serif; font-size: 12px; fill: rgb(42, 63, 95); fill-opacity: 1; white-space: pre; opacity: 1;" transform="translate(990.5,0)">1.4.24</text></g></g><g class="yaxislayer-above"><g class="ytick"><text text-anchor="end" x="49" y="4.199999999999999" transform="translate(0,550)" style="font-family: 'Open Sans', verdana, arial, sans-serif; font-size: 12px; fill: rgb(42, 63, 95); fill-opacity: 1; white-space: pre; opacity: 1;">0%</text></g><g class="ytick"><text text-anchor="end" x="49" y="4.199999999999999" style="font-family: 'Open Sans', verdana, arial, sans-serif; font-size: 12px; fill: rgb(42, 63, 95); fill-opacity: 1; white-space: pre; opacity: 1;" transform="translate(0,466.22)">10%</text></g><g class="ytick"><text text-anchor="end" x="49" y="4.199999999999999" style="font-family: 'Open Sans', verdana, arial, sans-serif; font-size: 12px; fill: rgb(42, 63, 95); fill-opacity: 1; white-space: pre; opacity: 1;" transform="translate(0,382.45)">20%</text></g><g class="ytick"><text text-anchor="end" x="49" y="4.199999999999999" style="font-family: 'Open Sans', verdana, arial, sans-serif; font-size: 12px; fill: rgb(42, 63, 95); fill-opacity: 1; white-space: pre; opacity: 1;" transform="translate(0,298.67)">30%</text></g><g class="ytick"><text text-anchor="end" x="49" y="4.199999999999999" style="font-family: 'Open Sans', verdana, arial, sans-serif; font-size: 12px; fill: rgb(42, 63, 95); fill-opacity: 1; white-space: pre; opacity: 1;" transform="translate(0,214.89)">40%</text></g><g class="ytick"><text text-anchor="end" x="49" y="4.199999999999999" style="font-family: 'Open Sans', verdana, arial, sans-serif; font-size: 12px; fill: rgb(42, 63, 95); fill-opacity: 1; white-space: pre; opacity: 1;" transform="translate(0,131.11)">50%</text></g><g class="ytick"><text text-anchor="end" x="49" y="4.199999999999999" style="font-family: 'Open Sans', verdana, arial, sans-serif; font-size: 12px; fill: rgb(42, 63, 95); fill-opacity: 1; white-space: pre; opacity: 1;" transform="translate(0,47.34)">60%</text></g></g><g class="overaxes-above"/></g></g><g class="polarlayer"/><g class="smithlayer"/><g class="ternarylayer"/><g class="geolayer"/><g class="funnelarealayer"/><g class="pielayer"/><g class="iciclelayer"/><g class="treemaplayer"/><g class="sunburstlayer"/><g class="glimages"/><defs id="topdefs-294a4a"><g class="clips"/><clipPath id="legend294a4a"><rect width="128" height="124" x="0" y="0"/></clipPath></defs><g class="layer-above"><g class="imagelayer"/><g class="shapelayer"/></g><g class="infolayer"><g class="legend" pointer-events="all" transform="translate(1059.8000000000002,20)"><rect class="bg" shape-rendering="crispEdges" style="stroke: rgb(68, 68, 68); stroke-opacity: 1; fill: rgb(255, 255, 255); fill-opacity: 1; stroke-width: 0px;" width="128" height="124" x="0" y="0"/><g class="scrollbox" transform="" clip-path="url(#legend294a4a)"><g class="groups"><g class="traces" transform="translate(0,14.5)" style="opacity: 1;"><text class="legendtext" text-anchor="start" x="40" y="4.680000000000001" style="font-family: 'Open Sans', verdana, arial, sans-serif; font-size: 12px; fill: rgb(42, 63, 95); fill-opacity: 1; white-space: pre;">Pellegrini Peter</text><g class="layers" style="opacity: 1;"><g class="legendfill"/><g class="legendlines"><path class="js-line" d="M5,0h30" style="fill: none; stroke: rgb(138, 44, 81); stroke-opacity: 1; stroke-width: 5px;"/></g><g class="legendsymbols"><g class="legendpoints"/></g></g><rect class="legendtoggle" x="0" y="-9.5" width="122.703125" height="19" style="fill: rgb(0, 0, 0); fill-opacity: 0;"/></g><g class="traces" transform="translate(0,33.5)" style="opacity: 1;"><text class="legendtext" text-anchor="start" x="40" y="4.680000000000001" style="font-family: 'Open Sans', verdana, arial, sans-serif; font-size: 12px; fill: rgb(42, 63, 95); fill-opacity: 1; white-space: pre;">Korčok Ivan</text><g class="layers" style="opacity: 1;"><g class="legendfill"/><g class="legendlines"><path class="js-line" d="M5,0h30" style="fill: none; stroke: rgb(0, 174, 239); stroke-opacity: 1; stroke-width: 5px;"/></g><g class="legendsymbols"><g class="legendpoints"/></g></g><rect class="legendtoggle" x="0" y="-9.5" width="122.703125" height="19" style="fill: rgb(0, 0, 0); fill-opacity: 0;"/></g><g class="traces" transform="translate(0,52.5)" style="opacity: 1;"><text class="legendtext" text-anchor="start" x="40" y="4.680000000000001" style="font-family: 'Open Sans', verdana, arial, sans-serif; font-size: 12px; fill: rgb(42, 63, 95); fill-opacity: 1; white-space: pre;">Kubiš Ján</text><g class="layers" style="opacity: 1;"><g class="legendfill"/><g class="legendlines"><path class="js-line" d="M5,0h30" style="fill: none; stroke: rgb(255, 1, 170); stroke-opacity: 1; stroke-width: 5px;"/></g><g class="legendsymbols"><g class="legendpoints"/></g></g><rect class="legendtoggle" x="0" y="-9.5" width="122.703125" height="19" style="fill: rgb(0, 0, 0); fill-opacity: 0;"/></g><g class="traces" transform="translate(0,71.5)" style="opacity: 1;"><text class="legendtext" text-anchor="start" x="40" y="4.680000000000001" style="font-family: 'Open Sans', verdana, arial, sans-serif; font-size: 12px; fill: rgb(42, 63, 95); fill-opacity: 1; white-space: pre;">Fico Robert</text><g class="layers" style="opacity: 1;"><g class="legendfill"/><g class="legendlines"><path class="js-line" d="M5,0h30" style="fill: none; stroke: rgb(238, 58, 67); stroke-opacity: 1; stroke-width: 5px;"/></g><g class="legendsymbols"><g class="legendpoints"/></g></g><rect class="legendtoggle" x="0" y="-9.5" width="122.703125" height="19" style="fill: rgb(0, 0, 0); fill-opacity: 0;"/></g><g class="traces" transform="translate(0,90.5)" style="opacity: 1;"><text class="legendtext" text-anchor="start" x="40" y="4.680000000000001" style="font-family: 'Open Sans', verdana, arial, sans-serif; font-size: 12px; fill: rgb(42, 63, 95); fill-opacity: 1; white-space: pre;">Lajčák Miroslav</text><g class="layers" style="opacity: 1;"><g class="legendfill"/><g class="legendlines"><path class="js-line" d="M5,0h30" style="fill: none; stroke: rgb(255, 192, 203); stroke-opacity: 1; stroke-width: 5px;"/></g><g class="legendsymbols"><g class="legendpoints"/></g></g><rect class="legendtoggle" x="0" y="-9.5" width="122.703125" height="19" style="fill: rgb(0, 0, 0); fill-opacity: 0;"/></g><g class="traces" transform="translate(0,109.5)" style="opacity: 1;"><text class="legendtext" text-anchor="start" x="40" y="4.680000000000001" style="font-family: 'Open Sans', verdana, arial, sans-serif; font-size: 12px; fill: rgb(42, 63, 95); fill-opacity: 1; white-space: pre;">Mistrík Robert</text><g class="layers" style="opacity: 1;"><g class="legendfill"/><g class="legendlines"><path class="js-line" d="M5,0h30" style="fill: none; stroke: rgb(202, 166, 105); stroke-opacity: 1; stroke-width: 5px;"/></g><g class="legendsymbols"><g class="legendpoints"/></g></g><rect class="legendtoggle" x="0" y="-9.5" width="122.703125" height="19" style="fill: rgb(0, 0, 0); fill-opacity: 0;"/></g></g></g><rect class="scrollbar" rx="20" ry="3" width="0" height="0" style="fill: rgb(128, 139, 164); fill-opacity: 1;" x="0" y="0"/></g><g class="g-gtitle"/><g class="g-xtitle"/><g class="g-ytitle"/></g></svg>