<svg class="main-svg" xmlns="http://www.w3.org/2000/svg" xmlns:xlink="http://www.w3.org/1999/xlink" width="300" height="135" style="" viewBox="0 0 300 135"><rect x="0" y="0" width="300" height="135" style="fill: rgb(255, 255, 255); fill-opacity: 1;"/><defs id="defs-c75f1b"><g class="clips"><clipPath id="clipc75f1bxyplot" class="plotclip"><rect width="280" height="75"/></clipPath><clipPath class="axesclip" id="clipc75f1bx"><rect x="10" y="0" width="280" height="135"/></clipPath><clipPath class="axesclip" id="clipc75f1by"><rect x="0" y="50" width="300" height="75"/></clipPath><clipPath class="axesclip" id="clipc75f1bxy"><rect x="10" y="50" width="280" height="75"/></clipPath></g><g class="gradients"/><g class="patterns"/></defs><g class="bglayer"/><g class="layer-below"><g class="imagelayer"/><g class="shapelayer"/></g><g class="cartesianlayer"><g class="subplot xy"><g class="layer-subplot"><g class="shapelayer"/><g class="imagelayer"/></g><g class="minor-gridlayer"><g class="x"/><g class="y"/></g><g class="gridlayer"><g class="x"><path class="xgrid crisp" transform="translate(28.54,0)" d="M0,50v75" style="stroke: rgb(235, 240, 248); stroke-opacity: 1; stroke-width: 1px;"/><path class="xgrid crisp" transform="translate(86.03,0)" d="M0,50v75" style="stroke: rgb(235, 240, 248); stroke-opacity: 1; stroke-width: 1px;"/><path class="xgrid crisp" transform="translate(143.51,0)" d="M0,50v75" style="stroke: rgb(235, 240, 248); stroke-opacity: 1; stroke-width: 1px;"/><path class="xgrid crisp" transform="translate(199.14,0)" d="M0,50v75" style="stroke: rgb(235, 240, 248); stroke-opacity: 1; stroke-width: 1px;"/><path class="xgrid crisp" transform="translate(256.62,0)" d="M0,50v75" style="stroke: rgb(235, 240, 248); stroke-opacity: 1; stroke-width: 1px;"/></g><g class="y"><path class="ygrid crisp" transform="translate(0,95.19)" d="M10,0h280" style="stroke: rgb(235, 240, 248); stroke-opacity: 1; stroke-width: 1px;"/><path class="ygrid crisp" transform="translate(0,65.38)" d="M10,0h280" style="stroke: rgb(235, 240, 248); stroke-opacity: 1; stroke-width: 1px;"/></g></g><g class="zerolinelayer"><path class="yzl zl crisp" transform="translate(0,125)" d="M10,0h280" style="stroke: rgb(235, 240, 248); stroke-opacity: 1; stroke-width: 2px;"/></g><path class="xlines-below"/><path class="ylines-below"/><g class="overlines-below"/><g class="xaxislayer-below"/><g class="yaxislayer-below"/><g class="overaxes-below"/><g class="plot" transform="translate(10,50)" clip-path="url(#clipc75f1bxyplot)"><g class="scatterlayer mlayer"><g class="trace scatter tracefd55f2" style="stroke-miterlimit: 2; opacity: 1;"><g class="fills"/><g class="errorbars"/><g class="lines"><path class="js-line" d="M0,43.85L5.56,39.97L7.42,39.97L14.83,40.27L16.69,39.23L42.65,38.03L44.5,37.14L79.74,36.1L81.59,29.84L103.84,29.84L107.55,34.16L109.4,33.26L113.11,33.26L127.95,32.97L129.8,36.24L133.51,37.88L135.36,37.29L137.22,36.69L139.07,38.03L187.28,37.14L189.14,34.16L192.85,35.35L194.7,35.35L196.56,35.05L198.41,30.13L200.26,27.15L202.12,27.15L205.83,26.41L207.68,21.49L211.39,18.66L213.25,18.66L218.81,17.76L220.66,16.42L226.23,13.14L228.08,13.14L242.91,13.59L244.77,15.08L259.6,15.08L261.46,12.99L263.31,12.99L265.17,9.41L272.58,9.41L274.44,5.39L280,5.39" style="vector-effect: none; fill: none; stroke: rgb(138, 44, 81); stroke-opacity: 1; stroke-width: 5px; opacity: 1;"/></g><g class="points"/><g class="text"/></g><g class="trace scatter trace084c09" style="stroke-miterlimit: 2; opacity: 1;"><g class="fills"/><g class="errorbars"/><g class="lines"><path class="js-line" d="M0,10.01L5.56,12.1L7.42,12.1L12.98,13.14L14.83,11.8L18.54,10.9L20.4,10.9L42.65,11.5L44.5,12.25L107.55,12.25L109.4,16.42L126.09,15.67L127.95,15.08L131.66,6.58L133.51,6.58L137.22,9.27L139.07,4.79L155.76,4.79L157.62,7.03L159.47,7.03L161.32,4.79L163.18,7.03L165.03,4.35L168.74,3.75L170.6,6.58L172.45,3.75L174.3,3.75L178.01,3.75L179.87,6.58L181.72,6.58L183.58,3.75L185.43,6.58L187.28,6.58L189.14,3.9L190.99,7.33L203.97,8.22L205.83,8.97L209.54,12.4L211.39,12.54L239.21,13.59L241.06,14.48L263.31,14.63L265.17,16.12L280,15.82" style="vector-effect: none; fill: none; stroke: rgb(0, 174, 239); stroke-opacity: 1; stroke-width: 5px; opacity: 1;"/></g><g class="points"/><g class="text"/></g><g class="trace scatter trace2814e2" style="stroke-miterlimit: 2; opacity: 1;"><g class="fills"/><g class="errorbars"/><g class="lines"><path class="js-line" d="M0,59.95L9.27,60.39L11.13,60.39L12.98,61.44L14.83,60.54L18.54,59.65L20.4,59.65L79.74,59.95L81.59,61.73L107.55,60.54L109.4,50.85L129.8,51.75L131.66,52.64L163.18,52.19L165.03,53.09L168.74,53.68L170.6,52.64L174.3,53.68L176.16,53.68L187.28,52.64L189.14,56.96L190.99,53.98L192.85,53.98L196.56,54.13L198.41,56.37L200.26,58.16L202.12,58.16L205.83,57.71L207.68,59.2L216.95,59.5L218.81,59.35L224.37,60.09L226.23,60.09L239.21,59.5L241.06,58.16L242.91,58.16L244.77,56.07L259.6,56.07L261.46,58.01L263.31,58.6L265.17,60.69L280,61.88" style="vector-effect: none; fill: none; stroke: rgb(255, 1, 170); stroke-opacity: 1; stroke-width: 5px; opacity: 1;"/></g><g class="points"/><g class="text"/></g><g class="trace scatter trace271376" style="stroke-miterlimit: 2; opacity: 1;"><g class="fills"/><g class="errorbars"/><g class="lines"><path class="js-line" d="M0,59.35L11.13,59.95L12.98,59.35L42.65,61.14L44.5,61.14L79.74,60.84L81.59,63.08L107.55,62.18L109.4,64.12L129.8,64.57L131.66,66.21L135.36,65.31L137.22,64.42L139.07,66.95L140.93,66.95L168.74,66.8L170.6,65.61L174.3,66.8L176.16,66.8L189.14,65.76L190.99,64.71L196.56,64.86L198.41,66.35L202.12,67.1L203.97,67.1L229.93,70.38L231.79,70.38L280,70.23" style="vector-effect: none; fill: none; stroke: rgb(238, 58, 67); stroke-opacity: 1; stroke-width: 5px; opacity: 1;"/></g><g class="points"/><g class="text"/></g><g class="trace scatter tracee7cecb" style="stroke-miterlimit: 2; opacity: 1;"><g class="fills"/><g class="errorbars"/><g class="lines"><path class="js-line" d="M0,63.22L11.13,63.52L12.98,61.44L16.69,66.06L18.54,66.06L126.09,66.8L127.95,66.95L187.28,67.99L189.14,68.44L209.54,69.48L211.39,69.63L222.52,70.68L224.37,71.12L272.58,71.12L274.44,72.62L280,72.62" style="vector-effect: none; fill: none; stroke: rgb(202, 166, 105); stroke-opacity: 1; stroke-width: 5px; opacity: 1;"/></g><g class="points"/><g class="text"/></g></g></g><g class="overplot"/><path class="xlines-above crisp" d="M0,0" style="fill: none;"/><path class="ylines-above crisp" d="M0,0" style="fill: none;"/><g class="overlines-above"/><g class="xaxislayer-above"/><g class="yaxislayer-above"/><g class="overaxes-above"/></g></g><g class="polarlayer"/><g class="smithlayer"/><g class="ternarylayer"/><g class="geolayer"/><g class="funnelarealayer"/><g class="pielayer"/><g class="iciclelayer"/><g class="treemaplayer"/><g class="sunburstlayer"/><g class="glimages"/><defs id="topdefs-c75f1b"><g class="clips"/></defs><g class="layer-above"><g class="imagelayer"/><g class="shapelayer"/></g><g class="infolayer"><g class="g-gtitle"><text class="gtitle" x="15" y="25" text-anchor="start" dy="0em" style="font-family: Ubuntu, verdana, arial, sans-serif; font-size: 16px; fill: rgb(233, 84, 32); opacity: 1; font-weight: normal; white-space: pre;">Prezident/ka 2024</text></g><g class="g-xtitle"/><g class="g-ytitle"/></g></svg>