<svg class="main-svg" xmlns="http://www.w3.org/2000/svg" xmlns:xlink="http://www.w3.org/1999/xlink" width="300" height="135" style="" viewBox="0 0 300 135"><rect x="0" y="0" width="300" height="135" style="fill: rgb(255, 255, 255); fill-opacity: 1;"/><defs id="defs-d1862f"><g class="clips"><clipPath id="clipd1862fxyplot" class="plotclip"><rect width="280" height="75"/></clipPath><clipPath class="axesclip" id="clipd1862fx"><rect x="10" y="0" width="280" height="135"/></clipPath><clipPath class="axesclip" id="clipd1862fy"><rect x="0" y="50" width="300" height="75"/></clipPath><clipPath class="axesclip" id="clipd1862fxy"><rect x="10" y="50" width="280" height="75"/></clipPath></g><g class="gradients"/><g class="patterns"/></defs><g class="bglayer"/><g class="layer-below"><g class="imagelayer"/><g class="shapelayer"/></g><g class="cartesianlayer"><g class="subplot xy"><g class="layer-subplot"><g class="shapelayer"/><g class="imagelayer"/></g><g class="minor-gridlayer"><g class="x"/><g class="y"/></g><g class="gridlayer"><g class="x"><path class="xgrid crisp" transform="translate(22.28,0)" d="M0,50v75" style="stroke: rgb(235, 240, 248); stroke-opacity: 1; stroke-width: 1px;"/><path class="xgrid crisp" transform="translate(98.42,0)" d="M0,50v75" style="stroke: rgb(235, 240, 248); stroke-opacity: 1; stroke-width: 1px;"/><path class="xgrid crisp" transform="translate(173.33,0)" d="M0,50v75" style="stroke: rgb(235, 240, 248); stroke-opacity: 1; stroke-width: 1px;"/><path class="xgrid crisp" transform="translate(248.25,0)" d="M0,50v75" style="stroke: rgb(235, 240, 248); stroke-opacity: 1; stroke-width: 1px;"/></g><g class="y"><path class="ygrid crisp" transform="translate(0,102.77000000000001)" d="M10,0h280" style="stroke: rgb(235, 240, 248); stroke-opacity: 1; stroke-width: 1px;"/><path class="ygrid crisp" transform="translate(0,80.53999999999999)" d="M10,0h280" style="stroke: rgb(235, 240, 248); stroke-opacity: 1; stroke-width: 1px;"/><path class="ygrid crisp" transform="translate(0,58.31)" d="M10,0h280" style="stroke: rgb(235, 240, 248); stroke-opacity: 1; stroke-width: 1px;"/></g></g><g class="zerolinelayer"><path class="yzl zl crisp" transform="translate(0,125)" d="M10,0h280" style="stroke: rgb(235, 240, 248); stroke-opacity: 1; stroke-width: 2px;"/></g><path class="xlines-below"/><path class="ylines-below"/><g class="overlines-below"/><g class="xaxislayer-below"/><g class="yaxislayer-below"/><g class="overaxes-below"/><g class="plot" transform="translate(10,50)" clip-path="url(#clipd1862fxyplot)"><g class="scatterlayer mlayer"><g class="trace scatter tracea4f551" style="stroke-miterlimit: 2; opacity: 1;"><g class="fills"/><g class="errorbars"/><g class="lines"><path class="js-line" d="M0,51.77L3.68,48.88L4.91,48.88L9.82,49.1L11.05,48.32L28.25,47.43L29.47,46.77L52.81,45.99L54.04,41.32L68.77,41.32L71.23,44.54L74.91,43.88L76.14,43.88L84.74,43.65L85.96,46.1L88.42,47.32L89.65,46.88L90.88,46.43L92.11,47.43L124.04,46.77L125.26,44.54L127.72,45.43L128.95,45.43L130.18,45.21L131.4,41.54L133.86,39.32L135.09,39.32L136.32,38.76L137.54,35.1L140,32.98L141.23,32.98L144.91,32.32L146.14,31.32L149.82,28.87L151.05,28.87L160.88,29.2L162.11,30.32L171.93,30.32L173.16,28.76L174.39,28.76L175.61,26.09L180.53,26.09L181.75,23.09L189.12,23.09L190.35,21.31L197.72,18.42L198.95,18.42L201.4,14.64L202.63,14.64L203.86,12.75L205.09,8.2L216.14,8.2L217.37,9.86L219.82,10.64L221.05,10.64L223.51,12.86L224.74,13.53L229.65,12.31L230.88,12.31L239.47,12.42L240.7,8.75L243.16,5.08L244.39,4.97L248.07,5.86L249.3,3.75L252.98,4.75L254.21,5.64L256.67,6.75L257.89,10.53L259.12,11.86L260.35,10.53L262.81,10.64L264.04,8.86L266.49,8.97L267.72,9.09L270.18,8.64L271.4,7.75L275.09,4.64L276.32,4.64L280,6.64" style="vector-effect: none; fill: none; stroke: rgb(138, 44, 81); stroke-opacity: 1; stroke-width: 5px; opacity: 1;"/></g><g class="points"/><g class="text"/></g><g class="trace scatter trace8bca1f" style="stroke-miterlimit: 2; opacity: 1;"><g class="fills"/><g class="errorbars"/><g class="lines"><path class="js-line" d="M0,26.54L4.91,28.09L6.14,28.09L9.82,27.87L11.05,27.2L71.23,28.2L72.46,31.32L84.74,30.32L85.96,27.76L88.42,23.98L89.65,24.98L90.88,25.98L92.11,22.65L103.16,22.65L104.39,24.31L105.61,24.31L106.84,22.65L108.07,24.31L109.3,22.31L111.75,21.87L112.98,23.98L115.44,21.87L116.67,21.87L117.89,21.87L119.12,23.98L120.35,23.98L121.58,21.87L124.04,23.98L125.26,21.98L127.72,24.54L128.95,24.54L136.32,25.76L137.54,27.65L141.23,28.43L142.46,28.43L158.42,29.2L159.65,29.87L189.12,30.87L190.35,32.65L198.95,34.98L200.18,32.87L203.86,33.98L205.09,35.43L216.14,35.43L217.37,33.87L219.82,32.98L221.05,32.98L222.28,32.54L223.51,29.98L225.96,29.43L227.19,29.76L239.47,29.2L240.7,32.09L243.16,35.43L244.39,35.54L246.84,33.76L248.07,32.98L250.53,35.1L251.75,34.54L256.67,32.09L257.89,28.32L259.12,26.98L260.35,28.32L262.81,28.2L264.04,29.98L266.49,29.87L267.72,29.76L270.18,30.2L271.4,31.09L275.09,34.21L276.32,34.21L280,32.21" style="vector-effect: none; fill: none; stroke: rgb(0, 174, 239); stroke-opacity: 1; stroke-width: 5px; opacity: 1;"/></g><g class="points"/><g class="text"/></g><g class="trace scatter trace537dc8" style="stroke-miterlimit: 2; opacity: 1;"><g class="fills"/><g class="errorbars"/><g class="lines"><path class="js-line" d="M0,63.33L7.37,63.77L8.6,63.33L31.93,64.66L33.16,64.66L52.81,64.44L54.04,66.11L71.23,65.44L72.46,66.89L85.96,67.22L87.19,68.44L89.65,67.77L90.88,67.11L93.33,69L94.56,69L125.26,68.11L126.49,67.33L131.4,68.55L132.63,69.11L144.91,70.33L146.14,70.78L154.74,71.55L155.96,71.55L198.95,71.55L200.18,73.67L203.86,73.89" style="vector-effect: none; fill: none; stroke: rgb(238, 58, 67); stroke-opacity: 1; stroke-width: 5px; opacity: 1;"/></g><g class="points"/><g class="text"/></g><g class="trace scatter tracee5a388" style="stroke-miterlimit: 2; opacity: 1;"><g class="fills"/><g class="errorbars"/><g class="lines"><path class="js-line" d="M0,67.22L13.51,67.33L14.74,67.33L52.81,68.55L54.04,69.44L68.77,69.44L71.23,68.11L72.46,71L74.91,71L90.88,71.89L92.11,72.33L144.91,73.11L146.14,73.55L180.53,73.55" style="vector-effect: none; fill: none; stroke: rgb(255, 192, 203); stroke-opacity: 1; stroke-width: 5px; opacity: 1;"/></g><g class="points"/><g class="text"/></g><g class="trace scatter traceca8703" style="stroke-miterlimit: 2; opacity: 1;"><g class="fills"/><g class="errorbars"/><g class="lines"><path class="js-line" d="M0,63.77L8.6,64.88L9.82,64.22L13.51,63.55L14.74,63.55L52.81,63.77L54.04,65.11L71.23,64.22L72.46,56.99L85.96,57.66L87.19,58.33L109.3,58.66L110.53,59.1L124.04,58.33L125.26,61.55L127.72,59.33L128.95,59.33L130.18,59.44L131.4,61.11L133.86,62.44L135.09,62.44L136.32,62.11L137.54,63.22L144.91,63.33L146.14,63.22L154.74,63.88L155.96,63.88L158.42,63.44L159.65,62.44L160.88,62.44L162.11,60.88L171.93,60.88L173.16,62.33L179.3,64.33L180.53,64.33L182.98,65.22L184.21,65.22L198.95,65.55L200.18,69L222.28,70.11L223.51,71.11L239.47,72.22L240.7,73L246.84,73.55" style="vector-effect: none; fill: none; stroke: rgb(255, 1, 170); stroke-opacity: 1; stroke-width: 5px; opacity: 1;"/></g><g class="points"/><g class="text"/></g></g></g><g class="overplot"/><path class="xlines-above crisp" d="M0,0" style="fill: none;"/><path class="ylines-above crisp" d="M0,0" style="fill: none;"/><g class="overlines-above"/><g class="xaxislayer-above"/><g class="yaxislayer-above"/><g class="overaxes-above"/></g></g><g class="polarlayer"/><g class="smithlayer"/><g class="ternarylayer"/><g class="geolayer"/><g class="funnelarealayer"/><g class="pielayer"/><g class="iciclelayer"/><g class="treemaplayer"/><g class="sunburstlayer"/><g class="glimages"/><defs id="topdefs-d1862f"><g class="clips"/></defs><g class="layer-above"><g class="imagelayer"/><g class="shapelayer"/></g><g class="infolayer"><g class="g-gtitle"><text class="gtitle" x="15" y="25" text-anchor="start" dy="0em" style="font-family: Ubuntu, verdana, arial, sans-serif; font-size: 16px; fill: rgb(233, 84, 32); opacity: 1; font-weight: normal; white-space: pre;">Prezident/ka 2024</text></g><g class="g-xtitle"/><g class="g-ytitle"/></g></svg>