<svg class="main-svg" xmlns="http://www.w3.org/2000/svg" xmlns:xlink="http://www.w3.org/1999/xlink" width="300" height="135" style="" viewBox="0 0 300 135"><rect x="0" y="0" width="300" height="135" style="fill: rgb(255, 255, 255); fill-opacity: 1;"/><defs id="defs-767c36"><g class="clips"><clipPath id="clip767c36xyplot" class="plotclip"><rect width="280" height="75"/></clipPath><clipPath class="axesclip" id="clip767c36x"><rect x="10" y="0" width="280" height="135"/></clipPath><clipPath class="axesclip" id="clip767c36y"><rect x="0" y="50" width="300" height="75"/></clipPath><clipPath class="axesclip" id="clip767c36xy"><rect x="10" y="50" width="280" height="75"/></clipPath></g><g class="gradients"/><g class="patterns"/></defs><g class="bglayer"/><g class="layer-below"><g class="imagelayer"/><g class="shapelayer"/></g><g class="cartesianlayer"><g class="subplot xy"><g class="layer-subplot"><g class="shapelayer"/><g class="imagelayer"/></g><g class="minor-gridlayer"><g class="x"/><g class="y"/></g><g class="gridlayer"><g class="x"><path class="xgrid crisp" transform="translate(25.3,0)" d="M0,50v75" style="stroke: rgb(235, 240, 248); stroke-opacity: 1; stroke-width: 1px;"/><path class="xgrid crisp" transform="translate(120.16,0)" d="M0,50v75" style="stroke: rgb(235, 240, 248); stroke-opacity: 1; stroke-width: 1px;"/><path class="xgrid crisp" transform="translate(213.5,0)" d="M0,50v75" style="stroke: rgb(235, 240, 248); stroke-opacity: 1; stroke-width: 1px;"/></g><g class="y"><path class="ygrid crisp" transform="translate(0,101.28999999999999)" d="M10,0h280" style="stroke: rgb(235, 240, 248); stroke-opacity: 1; stroke-width: 1px;"/><path class="ygrid crisp" transform="translate(0,77.58)" d="M10,0h280" style="stroke: rgb(235, 240, 248); stroke-opacity: 1; stroke-width: 1px;"/><path class="ygrid crisp" transform="translate(0,53.87)" d="M10,0h280" style="stroke: rgb(235, 240, 248); stroke-opacity: 1; stroke-width: 1px;"/></g></g><g class="zerolinelayer"><path class="yzl zl crisp" transform="translate(0,125)" d="M10,0h280" style="stroke: rgb(235, 240, 248); stroke-opacity: 1; stroke-width: 2px;"/></g><path class="xlines-below"/><path class="ylines-below"/><g class="overlines-below"/><g class="xaxislayer-below"/><g class="yaxislayer-below"/><g class="overaxes-below"/><g class="plot" transform="translate(10,50)" clip-path="url(#clip767c36xyplot)"><g class="scatterlayer mlayer"><g class="trace scatter trace0b9369" style="stroke-miterlimit: 2; opacity: 1;"><g class="fills"/><g class="errorbars"/><g class="lines"><path class="js-line" d="M0,50.22L4.59,47.14L6.12,47.14L12.24,47.38L13.77,46.55L35.19,45.6L36.72,44.89L65.79,44.06L67.32,39.08L85.68,39.08L88.74,42.52L90.27,41.81L93.33,41.81L105.57,41.57L107.1,44.18L110.16,45.48L111.69,45.01L113.22,44.53L114.75,45.6L154.54,44.89L156.07,42.52L159.13,43.47L160.66,43.47L162.19,43.23L163.72,39.32L165.25,36.94L166.78,36.94L169.84,36.35L171.37,32.44L174.43,30.19L175.96,30.19L180.55,29.48L182.08,28.41L186.67,25.8L188.2,25.8L200.44,26.16L201.97,27.34L214.21,27.34L215.74,25.68L217.27,25.68L218.8,22.84L224.92,22.84L226.45,19.64L235.63,19.64L237.16,17.74L240.22,17.03L241.75,17.03L247.87,14.66L249.4,10.63L252.46,10.63L253.99,8.61L255.52,3.75L257.05,3.75L269.29,3.75L270.82,5.53L273.88,6.36L275.41,6.36L276.94,6.83L278.47,8.73L280,9.44" style="vector-effect: none; fill: none; stroke: rgb(138, 44, 81); stroke-opacity: 1; stroke-width: 5px; opacity: 1;"/></g><g class="points"/><g class="text"/></g><g class="trace scatter tracebbcc93" style="stroke-miterlimit: 2; opacity: 1;"><g class="fills"/><g class="errorbars"/><g class="lines"><path class="js-line" d="M0,23.31L4.59,24.97L6.12,24.97L12.24,24.73L13.77,24.02L88.74,25.09L90.27,28.41L105.57,27.34L107.1,24.62L108.63,20.58L110.16,20.58L113.22,22.72L114.75,19.16L128.52,19.16L130.05,20.94L131.58,20.94L133.11,19.16L134.64,20.94L136.17,18.81L139.23,18.33L140.77,20.58L142.3,18.33L143.83,18.33L146.89,18.33L148.42,20.58L149.95,20.58L151.48,18.33L153.01,20.58L154.54,20.58L156.07,18.45L157.6,21.18L168.31,21.89L169.84,22.48L172.9,25.21L174.43,25.33L197.38,26.16L198.91,26.87L217.27,26.99L218.8,28.17L235.63,27.93L237.16,29.83L247.87,32.32L249.4,30.07L253.99,31.25L255.52,32.8L269.29,32.8L270.82,31.14L273.88,30.19L275.41,30.19L276.94,29.71L278.47,26.99L280,26.16" style="vector-effect: none; fill: none; stroke: rgb(0, 174, 239); stroke-opacity: 1; stroke-width: 5px; opacity: 1;"/></g><g class="points"/><g class="text"/></g><g class="trace scatter traceeb60e1" style="stroke-miterlimit: 2; opacity: 1;"><g class="fills"/><g class="errorbars"/><g class="lines"><path class="js-line" d="M0,63.03L10.71,64.21L12.24,63.5L15.3,62.79L16.83,62.79L65.79,63.03L67.32,64.45L88.74,63.5L90.27,55.79L107.1,56.51L108.63,57.22L136.17,57.57L137.7,58.05L154.54,57.22L156.07,60.66L157.6,58.28L159.13,58.28L162.19,58.4L163.72,60.18L166.78,61.6L168.31,61.6L169.84,61.25L171.37,62.43L179.02,62.67L180.55,62.55L188.2,63.14L189.73,63.14L197.38,62.67L198.91,61.6L200.44,61.6L201.97,59.94L214.21,59.94L215.74,61.49L221.86,63.62L223.39,63.62L244.81,64.8L246.34,64.92L247.87,64.92L249.4,68.6L269.29,69.78L270.82,69.9L280,70.85" style="vector-effect: none; fill: none; stroke: rgb(255, 1, 170); stroke-opacity: 1; stroke-width: 5px; opacity: 1;"/></g><g class="points"/><g class="text"/></g><g class="trace scatter trace619ff9" style="stroke-miterlimit: 2; opacity: 1;"><g class="fills"/><g class="errorbars"/><g class="lines"><path class="js-line" d="M0,65.63L9.18,65.87L10.71,64.21L13.77,67.89L15.3,67.89L110.16,68.48L111.69,68.95L114.75,68.6L116.28,68.6L163.72,69.78L165.25,70.02L180.55,70.97L182.08,71.32L192.79,71.92L194.32,71.92L243.28,73.1L244.81,73.22L253.99,73.81" style="vector-effect: none; fill: none; stroke: rgb(202, 166, 105); stroke-opacity: 1; stroke-width: 5px; opacity: 1;"/></g><g class="points"/><g class="text"/></g><g class="trace scatter trace1d0cf8" style="stroke-miterlimit: 2; opacity: 1;"><g class="fills"/><g class="errorbars"/><g class="lines"><path class="js-line" d="M0,62.55L9.18,63.03L10.71,62.55L38.25,63.97L39.78,63.97L65.79,63.74L67.32,65.52L88.74,64.8L90.27,66.35L107.1,66.7L108.63,68.01L111.69,67.29L113.22,66.58L116.28,68.6L117.81,68.6L156.07,67.65L157.6,66.82L162.19,66.94L163.72,68.12L168.31,68.72L169.84,68.95L177.49,69.78L179.02,69.78L192.79,71.32L194.32,71.32L247.87,71.32L249.4,73.58L253.99,73.81" style="vector-effect: none; fill: none; stroke: rgb(238, 58, 67); stroke-opacity: 1; stroke-width: 5px; opacity: 1;"/></g><g class="points"/><g class="text"/></g></g></g><g class="overplot"/><path class="xlines-above crisp" d="M0,0" style="fill: none;"/><path class="ylines-above crisp" d="M0,0" style="fill: none;"/><g class="overlines-above"/><g class="xaxislayer-above"/><g class="yaxislayer-above"/><g class="overaxes-above"/></g></g><g class="polarlayer"/><g class="smithlayer"/><g class="ternarylayer"/><g class="geolayer"/><g class="funnelarealayer"/><g class="pielayer"/><g class="iciclelayer"/><g class="treemaplayer"/><g class="sunburstlayer"/><g class="glimages"/><defs id="topdefs-767c36"><g class="clips"/></defs><g class="layer-above"><g class="imagelayer"/><g class="shapelayer"/></g><g class="infolayer"><g class="g-gtitle"><text class="gtitle" x="15" y="25" text-anchor="start" dy="0em" style="font-family: Ubuntu, verdana, arial, sans-serif; font-size: 16px; fill: rgb(233, 84, 32); opacity: 1; font-weight: normal; white-space: pre;">Prezident/ka 2024</text></g><g class="g-xtitle"/><g class="g-ytitle"/></g></svg>