<svg class="main-svg" xmlns="http://www.w3.org/2000/svg" xmlns:xlink="http://www.w3.org/1999/xlink" width="300" height="135" style="" viewBox="0 0 300 135"><rect x="0" y="0" width="300" height="135" style="fill: rgb(255, 255, 255); fill-opacity: 1;"/><defs id="defs-392fbf"><g class="clips"><clipPath id="clip392fbfxyplot" class="plotclip"><rect width="280" height="75"/></clipPath><clipPath class="axesclip" id="clip392fbfx"><rect x="10" y="0" width="280" height="135"/></clipPath><clipPath class="axesclip" id="clip392fbfy"><rect x="0" y="50" width="300" height="75"/></clipPath><clipPath class="axesclip" id="clip392fbfxy"><rect x="10" y="50" width="280" height="75"/></clipPath></g><g class="gradients"/><g class="patterns"/></defs><g class="bglayer"/><g class="layer-below"><g class="imagelayer"/><g class="shapelayer"/></g><g class="cartesianlayer"><g class="subplot xy"><g class="layer-subplot"><g class="shapelayer"/><g class="imagelayer"/></g><g class="minor-gridlayer"><g class="x"/><g class="y"/></g><g class="gridlayer"><g class="x"><path class="xgrid crisp" transform="translate(20,0)" d="M0,50v75" style="stroke: rgb(235, 240, 248); stroke-opacity: 1; stroke-width: 1px;"/><path class="xgrid crisp" transform="translate(82,0)" d="M0,50v75" style="stroke: rgb(235, 240, 248); stroke-opacity: 1; stroke-width: 1px;"/><path class="xgrid crisp" transform="translate(143,0)" d="M0,50v75" style="stroke: rgb(235, 240, 248); stroke-opacity: 1; stroke-width: 1px;"/><path class="xgrid crisp" transform="translate(204,0)" d="M0,50v75" style="stroke: rgb(235, 240, 248); stroke-opacity: 1; stroke-width: 1px;"/><path class="xgrid crisp" transform="translate(264,0)" d="M0,50v75" style="stroke: rgb(235, 240, 248); stroke-opacity: 1; stroke-width: 1px;"/></g><g class="y"><path class="ygrid crisp" transform="translate(0,101.28999999999999)" d="M10,0h280" style="stroke: rgb(235, 240, 248); stroke-opacity: 1; stroke-width: 1px;"/><path class="ygrid crisp" transform="translate(0,77.58)" d="M10,0h280" style="stroke: rgb(235, 240, 248); stroke-opacity: 1; stroke-width: 1px;"/><path class="ygrid crisp" transform="translate(0,53.87)" d="M10,0h280" style="stroke: rgb(235, 240, 248); stroke-opacity: 1; stroke-width: 1px;"/></g></g><g class="zerolinelayer"><path class="yzl zl crisp" transform="translate(0,125)" d="M10,0h280" style="stroke: rgb(235, 240, 248); stroke-opacity: 1; stroke-width: 2px;"/></g><path class="xlines-below"/><path class="ylines-below"/><g class="overlines-below"/><g class="xaxislayer-below"/><g class="yaxislayer-below"/><g class="overaxes-below"/><g class="plot" transform="translate(10,50)" clip-path="url(#clip392fbfxyplot)"><g class="scatterlayer mlayer"><g class="trace scatter trace4a64e4" style="stroke-miterlimit: 2; opacity: 1;"><g class="fills"/><g class="errorbars"/><g class="lines"><path class="js-line" d="M0,48.8L5,49.63L6,49.63L8,24.73L9,49.16L37,49.63" style="vector-effect: none; fill: none; stroke: rgb(0, 174, 239); stroke-opacity: 1; stroke-width: 5px; opacity: 1;"/><path class="js-line" d="M58,49.75" style="vector-effect: none; fill: none; stroke: rgb(0, 174, 239); stroke-opacity: 1; stroke-width: 5px; opacity: 1;"/><path class="js-line" d="M73,48.8L74,22.72" style="vector-effect: none; fill: none; stroke: rgb(0, 174, 239); stroke-opacity: 1; stroke-width: 5px; opacity: 1;"/><path class="js-line" d="M85,48.8L86,48.8" style="vector-effect: none; fill: none; stroke: rgb(0, 174, 239); stroke-opacity: 1; stroke-width: 5px; opacity: 1;"/><path class="js-line" d="M88,48.8" style="vector-effect: none; fill: none; stroke: rgb(0, 174, 239); stroke-opacity: 1; stroke-width: 5px; opacity: 1;"/><path class="js-line" d="M92,48.68" style="vector-effect: none; fill: none; stroke: rgb(0, 174, 239); stroke-opacity: 1; stroke-width: 5px; opacity: 1;"/><path class="js-line" d="M97,48.68L98,48.68" style="vector-effect: none; fill: none; stroke: rgb(0, 174, 239); stroke-opacity: 1; stroke-width: 5px; opacity: 1;"/><path class="js-line" d="M100,48.68L101,48.68" style="vector-effect: none; fill: none; stroke: rgb(0, 174, 239); stroke-opacity: 1; stroke-width: 5px; opacity: 1;"/><path class="js-line" d="M103,47.85L111,48.33L112,49.27L129,49.99L130,50.58L131,50.58L132,27.34L154,27.93L155,29.83L162,32.32L163,30.07L166,31.25L167,32.8L176,32.8L177,31.14L179,30.19L180,30.19L181,29.71L182,26.99L184,26.39L185,26.75L191,26.75L192,51.17L196,51.29L197,53.19L200,53.9L201,53.07L202,52.36L203,53.3L206,52.83L207,52L209,51.76L210,49.39L213,49.04L214,49.51L219,49.75L220,50.22L225,52.83L226,52.36L228,51.29L229,52.24L231,52.48L232,50.82L234,47.26L235,56.27L245,56.27L246,56.98L251,59.23L252,59.23L254,59.47L255,59L265,59.94L266,60.3L271,62.08L272,62.43L275,63.5L276,62.67L277,45.01L278,54.73L279,54.96L280,14.18" style="vector-effect: none; fill: none; stroke: rgb(0, 174, 239); stroke-opacity: 1; stroke-width: 5px; opacity: 1;"/></g><g class="points"/><g class="text"/></g><g class="trace scatter trace291931" style="stroke-miterlimit: 2; opacity: 1;"><g class="fills"/><g class="errorbars"/><g class="lines"><path class="js-line" d="M0,64.69L3,61.01L4,61.01L6,61.01L7,47.97L8,47.38L9,60.77L37,60.18" style="vector-effect: none; fill: none; stroke: rgb(138, 44, 81); stroke-opacity: 1; stroke-width: 5px; opacity: 1;"/><path class="js-line" d="M58,60.3" style="vector-effect: none; fill: none; stroke: rgb(138, 44, 81); stroke-opacity: 1; stroke-width: 5px; opacity: 1;"/><path class="js-line" d="M73,59.71L74,44.53" style="vector-effect: none; fill: none; stroke: rgb(138, 44, 81); stroke-opacity: 1; stroke-width: 5px; opacity: 1;"/><path class="js-line" d="M85,59.83L86,59.83" style="vector-effect: none; fill: none; stroke: rgb(138, 44, 81); stroke-opacity: 1; stroke-width: 5px; opacity: 1;"/><path class="js-line" d="M88,59.83" style="vector-effect: none; fill: none; stroke: rgb(138, 44, 81); stroke-opacity: 1; stroke-width: 5px; opacity: 1;"/><path class="js-line" d="M92,59.71" style="vector-effect: none; fill: none; stroke: rgb(138, 44, 81); stroke-opacity: 1; stroke-width: 5px; opacity: 1;"/><path class="js-line" d="M97,59.71L98,59.71" style="vector-effect: none; fill: none; stroke: rgb(138, 44, 81); stroke-opacity: 1; stroke-width: 5px; opacity: 1;"/><path class="js-line" d="M100,59.71L101,59.71" style="vector-effect: none; fill: none; stroke: rgb(138, 44, 81); stroke-opacity: 1; stroke-width: 5px; opacity: 1;"/><path class="js-line" d="M103,59.23L106,59.11L107,57.93L109,56.15L110,56.15L111,56.03L112,54.13L115,53.54L116,53.54L118,52.83L119,52L123,50.46L124,50.46L131,50.58L132,27.34L140,27.34L141,25.68L142,25.68L143,22.84L147,22.84L148,19.64L154,19.64L155,17.74L161,14.66L162,14.66L164,10.63L165,10.63L166,8.61L167,3.75L176,3.75L177,5.53L179,6.36L180,6.36L181,6.83L182,8.73L184,8.97L185,8.14L191,8.14L192,41.92L194,42.04L195,41.92L198,37.54L199,37.3L201,37.89L202,39.08L204,37.66L205,37.54L208,39.08L209,38.72L211,41.92L212,41.45L214,41.81L215,41.57L219,40.86L220,40.98L222,39.55L223,38.72L229,38.96L230,38.49L231,38.37L232,40.03L234,43.82L235,53.42L245,53.54L246,52.71L251,50.22L252,50.34L254,50.1L255,50.7L267,49.63L268,48.09L275,46.07L276,47.26L277,45.6L278,56.03L279,55.79L280,17.26" style="vector-effect: none; fill: none; stroke: rgb(138, 44, 81); stroke-opacity: 1; stroke-width: 5px; opacity: 1;"/></g><g class="points"/><g class="text"/></g><g class="trace scatter trace767f00" style="stroke-miterlimit: 2; opacity: 1;"><g class="fills"/><g class="errorbars"/><g class="lines"><path class="js-line" d="M0,60.54L6,61.01" style="vector-effect: none; fill: none; stroke: rgb(187, 187, 187); stroke-opacity: 1; stroke-width: 5px; opacity: 1;"/><path class="js-line" d="M9,60.77L37,59.71L38,44.06L43,44.06L44,39.08L56,39.08L58,57.34L59,41.81L61,41.81L69,41.57L70,44.18L72,45.48L73,60.3" style="vector-effect: none; fill: none; stroke: rgb(187, 187, 187); stroke-opacity: 1; stroke-width: 5px; opacity: 1;"/><path class="js-line" d="M75,45.6L84,45.6L85,60.3L86,60.3L87,45.6L88,60.3L89,45.48L91,45.12L92,60.18L94,45.12L95,45.12L96,45.12L97,60.18L98,60.18L99,45.12L101,60.18L102,42.52L104,58.88L105,58.88L106,58.76L107,55.91L111,54.85L112,52.95L114,51.29L115,51.29L120,50.58L121,49.75L131,49.99" style="vector-effect: none; fill: none; stroke: rgb(187, 187, 187); stroke-opacity: 1; stroke-width: 5px; opacity: 1;"/><path class="js-line" d="M192,41.21L195,41.33L196,38.6L199,36.83L200,37.3L201,38.13L202,37.18L204,36.35L205,37.06L207,36.71L208,38.01L211,40.74L212,39.79L214,39.55L215,37.89L220,38.25L221,37.54L225,36.23L226,36.23L232,39.2L233,41.57L234,42.16L235,52.59L245,52.83L246,51.29L250,49.16L251,49.39L254,49.75L255,50.22L266,49.27L267,48.68L271,46.9L272,46.9L276,47.85L277,45.12L278,55.68L279,55.56" style="vector-effect: none; fill: none; stroke: rgb(187, 187, 187); stroke-opacity: 1; stroke-width: 5px; opacity: 1;"/></g><g class="points"/><g class="text"/></g><g class="trace scatter tracec993f7" style="stroke-miterlimit: 2; opacity: 1;"><g class="fills"/><g class="errorbars"/><g class="lines"><path class="js-line" d="M0,69.19L6,69.43L7,64.21L10,71.44L11,71.44L37,71.32" style="vector-effect: none; fill: none; stroke: rgb(202, 166, 105); stroke-opacity: 1; stroke-width: 5px; opacity: 1;"/><path class="js-line" d="M58,71.32" style="vector-effect: none; fill: none; stroke: rgb(202, 166, 105); stroke-opacity: 1; stroke-width: 5px; opacity: 1;"/><path class="js-line" d="M73,72.15L74,69.43" style="vector-effect: none; fill: none; stroke: rgb(202, 166, 105); stroke-opacity: 1; stroke-width: 5px; opacity: 1;"/><path class="js-line" d="M85,72.15L86,72.15" style="vector-effect: none; fill: none; stroke: rgb(202, 166, 105); stroke-opacity: 1; stroke-width: 5px; opacity: 1;"/><path class="js-line" d="M88,72.15" style="vector-effect: none; fill: none; stroke: rgb(202, 166, 105); stroke-opacity: 1; stroke-width: 5px; opacity: 1;"/><path class="js-line" d="M92,72.15" style="vector-effect: none; fill: none; stroke: rgb(202, 166, 105); stroke-opacity: 1; stroke-width: 5px; opacity: 1;"/><path class="js-line" d="M97,72.15L98,72.15" style="vector-effect: none; fill: none; stroke: rgb(202, 166, 105); stroke-opacity: 1; stroke-width: 5px; opacity: 1;"/><path class="js-line" d="M100,72.15L101,72.15" style="vector-effect: none; fill: none; stroke: rgb(202, 166, 105); stroke-opacity: 1; stroke-width: 5px; opacity: 1;"/><path class="js-line" d="M103,72.15L120,73.22L121,73.46L131,73.46L132,72.04L159,73.1L160,73.22L166,73.81" style="vector-effect: none; fill: none; stroke: rgb(202, 166, 105); stroke-opacity: 1; stroke-width: 5px; opacity: 1;"/></g><g class="points"/><g class="text"/></g><g class="trace scatter trace8811cd" style="stroke-miterlimit: 2; opacity: 1;"><g class="fills"/><g class="errorbars"/><g class="lines"><path class="js-line" d="M278,45.95L279,45.95" style="vector-effect: none; fill: none; stroke: rgb(187, 187, 187); stroke-opacity: 1; stroke-width: 5px; opacity: 1;"/></g><g class="points"/><g class="text"/></g></g></g><g class="overplot"/><path class="xlines-above crisp" d="M0,0" style="fill: none;"/><path class="ylines-above crisp" d="M0,0" style="fill: none;"/><g class="overlines-above"/><g class="xaxislayer-above"/><g class="yaxislayer-above"/><g class="overaxes-above"/></g></g><g class="polarlayer"/><g class="smithlayer"/><g class="ternarylayer"/><g class="geolayer"/><g class="funnelarealayer"/><g class="pielayer"/><g class="iciclelayer"/><g class="treemaplayer"/><g class="sunburstlayer"/><g class="glimages"/><defs id="topdefs-392fbf"><g class="clips"/></defs><g class="layer-above"><g class="imagelayer"/><g class="shapelayer"/></g><g class="infolayer"><g class="g-gtitle"><text class="gtitle" x="15" y="25" text-anchor="start" dy="0em" style="font-family: Ubuntu, verdana, arial, sans-serif; font-size: 16px; fill: rgb(233, 84, 32); opacity: 1; font-weight: normal; white-space: pre;">Prezident/ka 2024</text></g><g class="g-xtitle"/><g class="g-ytitle"/></g></svg>