<svg class="main-svg" xmlns="http://www.w3.org/2000/svg" xmlns:xlink="http://www.w3.org/1999/xlink" width="300" height="135" style="" viewBox="0 0 300 135"><rect x="0" y="0" width="300" height="135" style="fill: rgb(255, 255, 255); fill-opacity: 1;"/><defs id="defs-354d79"><g class="clips"><clipPath id="clip354d79xyplot" class="plotclip"><rect width="280" height="75"/></clipPath><clipPath class="axesclip" id="clip354d79x"><rect x="10" y="0" width="280" height="135"/></clipPath><clipPath class="axesclip" id="clip354d79y"><rect x="0" y="50" width="300" height="75"/></clipPath><clipPath class="axesclip" id="clip354d79xy"><rect x="10" y="50" width="280" height="75"/></clipPath></g><g class="gradients"/><g class="patterns"/></defs><g class="bglayer"/><g class="layer-below"><g class="imagelayer"/><g class="shapelayer"/></g><g class="cartesianlayer"><g class="subplot xy"><g class="layer-subplot"><g class="shapelayer"/><g class="imagelayer"/></g><g class="minor-gridlayer"><g class="x"/><g class="y"/></g><g class="gridlayer"><g class="x"><path class="xgrid crisp" transform="translate(25.380000000000003,0)" d="M0,50v75" style="stroke: rgb(235, 240, 248); stroke-opacity: 1; stroke-width: 1px;"/><path class="xgrid crisp" transform="translate(120.77,0)" d="M0,50v75" style="stroke: rgb(235, 240, 248); stroke-opacity: 1; stroke-width: 1px;"/><path class="xgrid crisp" transform="translate(214.62,0)" d="M0,50v75" style="stroke: rgb(235, 240, 248); stroke-opacity: 1; stroke-width: 1px;"/></g><g class="y"><path class="ygrid crisp" transform="translate(0,101.28999999999999)" d="M10,0h280" style="stroke: rgb(235, 240, 248); stroke-opacity: 1; stroke-width: 1px;"/><path class="ygrid crisp" transform="translate(0,77.58)" d="M10,0h280" style="stroke: rgb(235, 240, 248); stroke-opacity: 1; stroke-width: 1px;"/><path class="ygrid crisp" transform="translate(0,53.87)" d="M10,0h280" style="stroke: rgb(235, 240, 248); stroke-opacity: 1; stroke-width: 1px;"/></g></g><g class="zerolinelayer"><path class="yzl zl crisp" transform="translate(0,125)" d="M10,0h280" style="stroke: rgb(235, 240, 248); stroke-opacity: 1; stroke-width: 2px;"/></g><path class="xlines-below"/><path class="ylines-below"/><g class="overlines-below"/><g class="xaxislayer-below"/><g class="yaxislayer-below"/><g class="overaxes-below"/><g class="plot" transform="translate(10,50)" clip-path="url(#clip354d79xyplot)"><g class="scatterlayer mlayer"><g class="trace scatter trace28a42d" style="stroke-miterlimit: 2; opacity: 1;"><g class="fills"/><g class="errorbars"/><g class="lines"><path class="js-line" d="M0,50.22L4.62,47.14L6.15,47.14L12.31,47.38L13.85,46.55L35.38,45.6L36.92,44.89L66.15,44.06L67.69,39.08L86.15,39.08L89.23,42.52L90.77,41.81L93.85,41.81L106.15,41.57L107.69,44.18L110.77,45.48L112.31,45.01L113.85,44.53L115.38,45.6L155.38,44.89L156.92,42.52L160,43.47L161.54,43.47L163.08,43.23L164.62,39.32L166.15,36.94L167.69,36.94L170.77,36.35L172.31,32.44L175.38,30.19L176.92,30.19L181.54,29.48L183.08,28.41L187.69,25.8L189.23,25.8L201.54,26.16L203.08,27.34L215.38,27.34L216.92,25.68L218.46,25.68L220,22.84L226.15,22.84L227.69,19.64L236.92,19.64L238.46,17.74L241.54,17.03L243.08,17.03L249.23,14.66L250.77,10.63L253.85,10.63L255.38,8.61L256.92,3.75L258.46,3.75L270.77,3.75L272.31,5.53L275.38,6.36L276.92,6.36L280,7.31" style="vector-effect: none; fill: none; stroke: rgb(138, 44, 81); stroke-opacity: 1; stroke-width: 5px; opacity: 1;"/></g><g class="points"/><g class="text"/></g><g class="trace scatter trace35a710" style="stroke-miterlimit: 2; opacity: 1;"><g class="fills"/><g class="errorbars"/><g class="lines"><path class="js-line" d="M0,23.31L4.62,24.97L6.15,24.97L12.31,24.73L13.85,24.02L89.23,25.09L90.77,28.41L106.15,27.34L107.69,24.62L109.23,20.58L110.77,20.58L113.85,22.72L115.38,19.16L129.23,19.16L130.77,20.94L132.31,20.94L133.85,19.16L135.38,20.94L136.92,18.81L140,18.33L141.54,20.58L143.08,18.33L144.62,18.33L147.69,18.33L149.23,20.58L150.77,20.58L152.31,18.33L153.85,20.58L155.38,20.58L156.92,18.45L158.46,21.18L169.23,21.89L170.77,22.48L173.85,25.21L175.38,25.33L198.46,26.16L200,26.87L218.46,26.99L220,28.17L236.92,27.93L238.46,29.83L249.23,32.32L250.77,30.07L255.38,31.25L256.92,32.8L270.77,32.8L272.31,31.14L275.38,30.19L276.92,30.19L280,28.41" style="vector-effect: none; fill: none; stroke: rgb(0, 174, 239); stroke-opacity: 1; stroke-width: 5px; opacity: 1;"/></g><g class="points"/><g class="text"/></g><g class="trace scatter trace21a249" style="stroke-miterlimit: 2; opacity: 1;"><g class="fills"/><g class="errorbars"/><g class="lines"><path class="js-line" d="M0,63.03L10.77,64.21L12.31,63.5L15.38,62.79L16.92,62.79L66.15,63.03L67.69,64.45L89.23,63.5L90.77,55.79L107.69,56.51L109.23,57.22L136.92,57.57L138.46,58.05L155.38,57.22L156.92,60.66L158.46,58.28L160,58.28L163.08,58.4L164.62,60.18L167.69,61.6L169.23,61.6L170.77,61.25L172.31,62.43L180,62.67L181.54,62.55L189.23,63.14L190.77,63.14L198.46,62.67L200,61.6L201.54,61.6L203.08,59.94L215.38,59.94L216.92,61.49L223.08,63.62L224.62,63.62L246.15,64.8L247.69,64.92L249.23,64.92L250.77,68.6L270.77,69.78L272.31,69.9L280,70.85" style="vector-effect: none; fill: none; stroke: rgb(255, 1, 170); stroke-opacity: 1; stroke-width: 5px; opacity: 1;"/></g><g class="points"/><g class="text"/></g><g class="trace scatter trace21a058" style="stroke-miterlimit: 2; opacity: 1;"><g class="fills"/><g class="errorbars"/><g class="lines"><path class="js-line" d="M0,65.63L9.23,65.87L10.77,64.21L13.85,67.89L15.38,67.89L110.77,68.48L112.31,68.95L115.38,68.6L116.92,68.6L164.62,69.78L166.15,70.02L181.54,70.97L183.08,71.32L193.85,71.92L195.38,71.92L244.62,73.1L246.15,73.22L255.38,73.81" style="vector-effect: none; fill: none; stroke: rgb(202, 166, 105); stroke-opacity: 1; stroke-width: 5px; opacity: 1;"/></g><g class="points"/><g class="text"/></g><g class="trace scatter trace7941e1" style="stroke-miterlimit: 2; opacity: 1;"><g class="fills"/><g class="errorbars"/><g class="lines"><path class="js-line" d="M0,66.7L15.38,66.82L16.92,66.82L56.92,67.18L58.46,68.12L86.15,69.07L89.23,67.65L90.77,70.73L93.85,70.73L113.85,71.68L115.38,72.15L181.54,72.98L183.08,73.46L226.15,73.46" style="vector-effect: none; fill: none; stroke: rgb(255, 192, 203); stroke-opacity: 1; stroke-width: 5px; opacity: 1;"/></g><g class="points"/><g class="text"/></g></g></g><g class="overplot"/><path class="xlines-above crisp" d="M0,0" style="fill: none;"/><path class="ylines-above crisp" d="M0,0" style="fill: none;"/><g class="overlines-above"/><g class="xaxislayer-above"/><g class="yaxislayer-above"/><g class="overaxes-above"/></g></g><g class="polarlayer"/><g class="smithlayer"/><g class="ternarylayer"/><g class="geolayer"/><g class="funnelarealayer"/><g class="pielayer"/><g class="iciclelayer"/><g class="treemaplayer"/><g class="sunburstlayer"/><g class="glimages"/><defs id="topdefs-354d79"><g class="clips"/></defs><g class="layer-above"><g class="imagelayer"/><g class="shapelayer"/></g><g class="infolayer"><g class="g-gtitle"><text class="gtitle" x="15" y="25" text-anchor="start" dy="0em" style="font-family: Ubuntu, verdana, arial, sans-serif; font-size: 16px; fill: rgb(233, 84, 32); opacity: 1; font-weight: normal; white-space: pre;">Prezident/ka 2024</text></g><g class="g-xtitle"/><g class="g-ytitle"/></g></svg>