<svg class="main-svg" xmlns="http://www.w3.org/2000/svg" xmlns:xlink="http://www.w3.org/1999/xlink" width="1200" height="600" style="" viewBox="0 0 1200 600"><rect x="0" y="0" width="1200" height="600" style="fill: rgb(255, 255, 255); fill-opacity: 1;"/><defs id="defs-247aef"><g class="clips"><clipPath id="clip247aefxyplot" class="plotclip"><rect width="990" height="530"/></clipPath><clipPath class="axesclip" id="clip247aefx"><rect x="50" y="0" width="990" height="600"/></clipPath><clipPath class="axesclip" id="clip247aefy"><rect x="0" y="20" width="1200" height="530"/></clipPath><clipPath class="axesclip" id="clip247aefxy"><rect x="50" y="20" width="990" height="530"/></clipPath></g><g class="gradients"/><g class="patterns"/></defs><g class="bglayer"/><g class="layer-below"><g class="imagelayer"/><g class="shapelayer"/></g><g class="cartesianlayer"><g class="subplot xy"><g class="layer-subplot"><g class="shapelayer"/><g class="imagelayer"/></g><g class="minor-gridlayer"><g class="x"/><g class="y"/></g><g class="gridlayer"><g class="x"><path class="xgrid crisp" transform="translate(84.14,0)" d="M0,20v530" style="stroke: rgb(235, 240, 248); stroke-opacity: 1; stroke-width: 1px;"/><path class="xgrid crisp" transform="translate(189.97,0)" d="M0,20v530" style="stroke: rgb(235, 240, 248); stroke-opacity: 1; stroke-width: 1px;"/><path class="xgrid crisp" transform="translate(295.78999999999996,0)" d="M0,20v530" style="stroke: rgb(235, 240, 248); stroke-opacity: 1; stroke-width: 1px;"/><path class="xgrid crisp" transform="translate(398.21,0)" d="M0,20v530" style="stroke: rgb(235, 240, 248); stroke-opacity: 1; stroke-width: 1px;"/><path class="xgrid crisp" transform="translate(504.03,0)" d="M0,20v530" style="stroke: rgb(235, 240, 248); stroke-opacity: 1; stroke-width: 1px;"/><path class="xgrid crisp" transform="translate(606.45,0)" d="M0,20v530" style="stroke: rgb(235, 240, 248); stroke-opacity: 1; stroke-width: 1px;"/><path class="xgrid crisp" transform="translate(712.28,0)" d="M0,20v530" style="stroke: rgb(235, 240, 248); stroke-opacity: 1; stroke-width: 1px;"/><path class="xgrid crisp" transform="translate(818.1,0)" d="M0,20v530" style="stroke: rgb(235, 240, 248); stroke-opacity: 1; stroke-width: 1px;"/><path class="xgrid crisp" transform="translate(917.1,0)" d="M0,20v530" style="stroke: rgb(235, 240, 248); stroke-opacity: 1; stroke-width: 1px;"/><path class="xgrid crisp" transform="translate(1022.93,0)" d="M0,20v530" style="stroke: rgb(235, 240, 248); stroke-opacity: 1; stroke-width: 1px;"/></g><g class="y"><path class="ygrid crisp" transform="translate(0,478.88)" d="M50,0h990" style="stroke: rgb(235, 240, 248); stroke-opacity: 1; stroke-width: 1px;"/><path class="ygrid crisp" transform="translate(0,407.77)" d="M50,0h990" style="stroke: rgb(235, 240, 248); stroke-opacity: 1; stroke-width: 1px;"/><path class="ygrid crisp" transform="translate(0,336.65)" d="M50,0h990" style="stroke: rgb(235, 240, 248); stroke-opacity: 1; stroke-width: 1px;"/><path class="ygrid crisp" transform="translate(0,265.53999999999996)" d="M50,0h990" style="stroke: rgb(235, 240, 248); stroke-opacity: 1; stroke-width: 1px;"/><path class="ygrid crisp" transform="translate(0,194.42)" d="M50,0h990" style="stroke: rgb(235, 240, 248); stroke-opacity: 1; stroke-width: 1px;"/><path class="ygrid crisp" transform="translate(0,123.31)" d="M50,0h990" style="stroke: rgb(235, 240, 248); stroke-opacity: 1; stroke-width: 1px;"/><path class="ygrid crisp" transform="translate(0,52.19)" d="M50,0h990" style="stroke: rgb(235, 240, 248); stroke-opacity: 1; stroke-width: 1px;"/></g></g><g class="zerolinelayer"><path class="yzl zl crisp" transform="translate(0,550)" d="M50,0h990" style="stroke: rgb(235, 240, 248); stroke-opacity: 1; stroke-width: 2px;"/></g><path class="xlines-below"/><path class="ylines-below"/><g class="overlines-below"/><g class="xaxislayer-below"/><g class="yaxislayer-below"/><g class="overaxes-below"/><g class="plot" transform="translate(50,20)" clip-path="url(#clip247aefxyplot)"><g class="scatterlayer mlayer"><g class="trace scatter trace7b88e1" style="stroke-miterlimit: 2; opacity: 1;"><g class="fills"/><g class="errorbars"/><g class="lines"><path class="js-line" d="M0,381.37L6.83,362.88L10.24,362.88L20.48,362.88L23.9,367.86L30.72,359.32L34.14,359.32L47.79,359.32L51.21,357.19L61.45,357.19L64.86,355.06L68.28,353.63L71.69,353.63L78.52,353.63L81.93,349.37L126.31,349.37L129.72,344.39L146.79,344.39L150.21,314.52L191.17,314.52L198,335.14L201.41,330.88L208.24,330.88L232.14,330.16L235.55,329.45L238.97,345.1L242.38,352.92L245.79,352.92L249.21,350.08L252.62,347.23L256.03,353.63L286.76,353.63L290.17,350.79L293.59,350.79L297,353.63L300.41,350.79L303.83,352.92L307.24,350.79L310.66,350.79L314.07,349.37L317.48,350.79L327.72,350.79L331.14,349.37L334.55,349.37L337.97,350.79L341.38,349.37L344.79,349.37L348.21,335.14L351.62,340.83L358.45,340.83L361.86,339.41L365.28,315.94L368.69,301.72L375.52,301.72L378.93,298.16L382.34,274.69L385.76,263.32L389.17,261.18L392.59,261.18L399.41,261.18L402.83,256.92L409.66,244.83L413.07,234.87L440.38,235.58L443.79,237L447.21,237L450.62,244.11L477.93,244.11L481.34,234.16L484.76,234.16L488.17,217.09L501.83,217.09L505.24,197.89L525.72,197.89L529.14,186.51L532.55,182.24L535.97,182.24L539.38,182.24L542.79,177.98L546.21,171.58L549.62,168.02L553.03,168.02L556.45,143.84L563.28,143.84L566.69,131.75L570.1,102.59L573.52,102.59L600.83,102.59L604.24,113.26L607.66,118.24L611.07,118.24L614.48,118.24L617.9,121.08L621.31,132.46L624.72,136.73L628.14,133.88L631.55,128.91L655.45,128.91L658.86,127.48L662.28,131.04L665.69,129.62L672.52,90.5L675.93,82.68L679.34,81.97L682.76,84.1L686.17,92.64L689.59,87.66L693,74.15L696.41,74.15L703.24,80.55L706.66,86.24L710.07,92.64L713.48,93.35L716.9,117.53L720.31,126.06L723.72,117.53L727.14,121.08L730.55,118.24L733.97,106.86L737.38,104.02L740.79,107.57L747.62,109.71L751.03,105.44L754.45,99.75L757.86,89.79L761.28,79.84L764.69,79.84L768.1,79.84L771.52,82.68L774.93,91.22L778.34,92.64L781.76,86.95L785.17,86.24L788.59,91.22L792,105.44L795.41,133.17L798.83,145.26L802.24,143.84L805.66,143.84L809.07,144.55L812.48,150.95L815.9,153.09L819.31,151.66L822.72,143.84L826.14,151.66L832.97,156.64L836.38,146.69L839.79,125.35L843.21,112.55L846.62,103.31L850.03,102.59L853.45,86.95L856.86,87.66L860.28,86.95L863.69,83.39L867.1,88.37L870.52,99.75L880.76,99.75L884.17,96.19L887.59,94.77L891,90.5L897.83,90.5L901.24,87.66L904.66,80.55L908.07,77.7L911.48,73.44L914.9,54.24L918.31,47.83L921.72,47.83L925.14,40.72L928.55,39.3L931.97,35.03L935.38,26.5" style="vector-effect: none; fill: none; stroke: rgb(138, 44, 81); stroke-opacity: 1; stroke-width: 5px; opacity: 1;"/></g><g class="points"/><g class="text"/></g><g class="trace scatter traced3dfcd" style="stroke-miterlimit: 2; opacity: 1;"><g class="fills"/><g class="errorbars"/><g class="lines"><path class="js-line" d="M0,219.94L6.83,229.89L10.24,229.89L20.48,229.89L23.9,234.87L30.72,224.2L34.14,224.2L61.45,224.2L64.86,225.62L68.28,227.05L71.69,227.05L78.52,227.05L81.93,230.6L198,230.6L201.41,250.51L228.72,250.51L232.14,246.96L235.55,244.11L238.97,227.76L242.38,203.58L245.79,203.58L252.62,216.38L256.03,195.04L286.76,195.04L290.17,205.71L293.59,205.71L297,195.04L300.41,205.71L303.83,192.91L307.24,190.07L310.66,190.07L314.07,203.58L317.48,190.07L327.72,190.07L331.14,203.58L334.55,203.58L337.97,190.07L341.38,203.58L344.79,203.58L348.21,190.78L351.62,207.13L361.86,207.13L365.28,211.4L375.52,211.4L378.93,214.96L382.34,227.05L385.76,231.31L392.59,232.02L396,232.02L406.24,232.02L409.66,234.16L416.48,234.87L419.9,234.87L436.97,234.87L440.38,237L443.79,241.27L447.21,241.27L450.62,244.11L457.45,244.11L481.34,244.83L484.76,241.98L488.17,249.09L491.59,249.09L501.83,249.09L505.24,247.67L525.72,247.67L529.14,259.05L532.55,261.89L535.97,261.89L539.38,261.89L542.79,266.16L549.62,273.98L553.03,273.98L556.45,260.47L559.86,260.47L563.28,260.47L566.69,267.58L570.1,276.83L573.52,276.83L600.83,276.83L604.24,266.87L607.66,261.18L611.07,261.18L614.48,261.18L617.9,258.34L621.31,241.98L624.72,237L631.55,240.56L634.97,240.56L652.03,240.56L655.45,239.14L658.86,240.56L662.28,237L665.69,237L669.1,255.49L672.52,269L675.93,276.83L679.34,277.54L682.76,275.41L686.17,266.16L689.59,261.18L693,274.69L696.41,274.69L703.24,268.29L706.66,262.6L710.07,256.2L713.48,255.49L716.9,231.31L720.31,222.78L723.72,231.31L727.14,227.76L730.55,230.6L733.97,241.98L737.38,244.83L740.79,241.27L747.62,239.14L751.03,243.4L754.45,249.09L757.86,259.05L761.28,269L764.69,269L768.1,269L771.52,266.16L774.93,257.63L778.34,256.2L781.76,261.89L785.17,262.6L788.59,257.63L792,243.4L795.41,215.67L798.83,203.58L802.24,205L805.66,205L809.07,204.29L812.48,197.89L815.9,195.76L819.31,197.18L822.72,205L826.14,197.18L832.97,192.2L836.38,202.16L839.79,223.49L843.21,236.29L846.62,245.54L850.03,246.25L853.45,261.89L856.86,261.18L860.28,261.89L863.69,265.45L867.1,260.47L870.52,249.09L880.76,249.09L884.17,252.65L887.59,254.07L891,258.34L897.83,258.34L901.24,261.18L904.66,268.29L908.07,271.14L911.48,275.41L914.9,294.61L918.31,301.01L921.72,301.01L925.14,308.12L928.55,309.54L931.97,313.81L935.38,322.34" style="vector-effect: none; fill: none; stroke: rgb(0, 174, 239); stroke-opacity: 1; stroke-width: 5px; opacity: 1;"/></g><g class="points"/><g class="text"/></g><g class="trace scatter trace8d1934" style="stroke-miterlimit: 2; opacity: 1;"><g class="fills"/><g class="errorbars"/><g class="lines"><path class="js-line" d="M0,473.82L10.24,475.24L13.66,475.24L20.48,475.24L23.9,465.28L30.72,487.33L34.14,487.33L64.86,486.62L68.28,485.91L146.79,485.2L150.21,488.75L191.17,488.75L198,487.33L201.41,490.18L208.24,490.18L232.14,490.89L235.55,491.6L245.79,490.89L249.21,493.73L252.62,496.58L256.03,491.6L286.76,491.6L290.17,493.73L293.59,493.73L297,491.6L300.41,493.73L303.83,493.02L307.24,495.86L310.66,495.86L314.07,496.58L317.48,495.86L344.79,496.58L348.21,498.71L365.28,498.71L368.69,500.13L378.93,500.84L382.34,501.55L389.17,504.4L392.59,504.4L399.41,504.4L402.83,505.82L413.07,511.51L416.48,511.51L501.83,511.51L505.24,518.62L553.03,519.33L556.45,521.47L563.28,521.47L566.69,522.89" style="vector-effect: none; fill: none; stroke: rgb(202, 166, 105); stroke-opacity: 1; stroke-width: 5px; opacity: 1;"/></g><g class="points"/><g class="text"/></g><g class="trace scatter tracec53052" style="stroke-miterlimit: 2; opacity: 1;"><g class="fills"/><g class="errorbars"/><g class="lines"><path class="js-line" d="M0,458.17L6.83,460.31L10.24,460.31L20.48,460.31L23.9,465.28L30.72,456.75L34.14,456.75L47.79,456.75L51.21,458.17L64.86,457.46L68.28,456.75L126.31,456.75L129.72,458.17L146.79,458.17L150.21,466.71L191.17,466.71L198,461.02L201.41,414.79L208.24,414.79L228.72,414.79L232.14,416.93L235.55,419.06L238.97,419.06L242.38,423.33L245.79,423.33L252.62,418.35L256.03,424.04L286.76,424.04L290.17,421.19L293.59,421.19L297,424.04L300.41,421.19L303.83,425.46L307.24,428.3L310.66,428.3L314.07,423.33L317.48,428.3L327.72,428.3L331.14,423.33L334.55,423.33L337.97,428.3L341.38,423.33L344.79,423.33L348.21,443.95L351.62,429.73L361.86,430.44L365.28,441.11L368.69,449.64L372.1,449.64L375.52,449.64L378.93,447.51L382.34,454.62L385.76,456.04L402.83,455.33L406.24,454.62L409.66,456.04L413.07,458.88L436.97,458.88L440.38,456.04L443.79,449.64L447.21,449.64L450.62,439.68L457.45,439.68L477.93,439.68L481.34,448.93L484.76,451.77L488.17,461.73L501.83,461.73L505.24,467.42L542.79,468.13L546.21,468.84L553.03,469.55L556.45,491.6L563.28,491.6L566.69,494.44L570.1,498.71L573.52,498.71L617.9,498.71L621.31,505.11L624.72,505.11L628.14,506.53L631.55,509.38L634.97,509.38L652.03,509.38L655.45,510.8L662.28,510.8L665.69,512.22L669.1,517.2L672.52,519.33L682.76,519.33L686.17,520.75" style="vector-effect: none; fill: none; stroke: rgb(255, 1, 170); stroke-opacity: 1; stroke-width: 5px; opacity: 1;"/></g><g class="points"/><g class="text"/></g><g class="trace scatter trace157ba8" style="stroke-miterlimit: 2; opacity: 1;"><g class="fills"/><g class="errorbars"/><g class="lines"><path class="js-line" d="M0,480.22L10.24,482.35L13.66,482.35L23.9,481.64L27.31,480.22L34.14,480.93L37.55,480.93L47.79,480.93L51.21,482.35L78.52,481.64L81.93,483.06L126.31,483.06L129.72,488.75L146.79,488.75L150.21,494.44L191.17,494.44L198,485.91L201.41,504.4L208.24,504.4L238.97,505.11L242.38,510.09L252.62,510.09L256.03,512.93L286.76,512.93L290.17,511.51L293.59,511.51L297,512.93L300.41,511.51L303.83,512.93L310.66,512.93L314.07,511.51L317.48,512.93L320.9,512.93L327.72,512.93L331.14,511.51L334.55,511.51L337.97,512.93L341.38,511.51L344.79,511.51L348.21,513.64L351.62,512.22L375.52,512.93L378.93,513.64L385.76,515.78L389.17,516.49L399.41,516.49L402.83,517.91L406.24,520.75L409.66,520.75L416.48,521.47L419.9,521.47L501.83,520.75" style="vector-effect: none; fill: none; stroke: rgb(255, 192, 203); stroke-opacity: 1; stroke-width: 5px; opacity: 1;"/></g><g class="points"/><g class="text"/></g><g class="trace scatter trace5afd5e" style="stroke-miterlimit: 2; opacity: 1;"><g class="fills"/><g class="errorbars"/><g class="lines"><path class="js-line" d="M0,455.33L6.83,458.17L10.24,458.17L20.48,458.17L23.9,455.33L27.31,456.04L30.72,459.6L61.45,460.31L64.86,462.44L68.28,463.86L71.69,463.86L126.31,463.86L129.72,462.44L146.79,462.44L150.21,473.11L191.17,473.11L198,468.84L201.41,478.09L208.24,478.09L232.14,478.8L235.55,480.22L238.97,480.22L242.38,488.04L245.79,488.04L249.21,483.77L252.62,479.51L256.03,491.6L286.76,491.6L290.17,485.91L293.59,485.91L297,491.6L300.41,485.91L303.83,490.89L310.66,490.89L314.07,485.2L317.48,490.89L320.9,490.89L327.72,490.89L331.14,485.2L334.55,485.2L337.97,490.89L341.38,485.2L344.79,485.2L348.21,485.91L351.62,480.93L361.86,481.64L365.28,488.75L368.69,492.31L372.1,492.31L375.52,492.31L378.93,493.73L389.17,498.71L392.59,498.71L399.41,498.71L402.83,500.13L413.07,507.95L416.48,507.95L501.83,507.95L505.24,507.24L553.03,507.95L556.45,521.47L563.28,521.47L566.69,522.89" style="vector-effect: none; fill: none; stroke: rgb(238, 58, 67); stroke-opacity: 1; stroke-width: 5px; opacity: 1;"/></g><g class="points"/><g class="text"/></g></g></g><g class="overplot"/><path class="xlines-above crisp" d="M0,0" style="fill: none;"/><path class="ylines-above crisp" d="M0,0" style="fill: none;"/><g class="overlines-above"/><g class="xaxislayer-above"><g class="xtick"><text text-anchor="middle" x="0" y="563" transform="translate(84.14,0)" style="font-family: 'Open Sans', verdana, arial, sans-serif; font-size: 12px; fill: rgb(42, 63, 95); fill-opacity: 1; white-space: pre; opacity: 1;">1.7.23</text></g><g class="xtick"><text text-anchor="middle" x="0" y="563" style="font-family: 'Open Sans', verdana, arial, sans-serif; font-size: 12px; fill: rgb(42, 63, 95); fill-opacity: 1; white-space: pre; opacity: 1;" transform="translate(189.97,0)">1.8.23</text></g><g class="xtick"><text text-anchor="middle" x="0" y="563" style="font-family: 'Open Sans', verdana, arial, sans-serif; font-size: 12px; fill: rgb(42, 63, 95); fill-opacity: 1; white-space: pre; opacity: 1;" transform="translate(295.78999999999996,0)">1.9.23</text></g><g class="xtick"><text text-anchor="middle" x="0" y="563" style="font-family: 'Open Sans', verdana, arial, sans-serif; font-size: 12px; fill: rgb(42, 63, 95); fill-opacity: 1; white-space: pre; opacity: 1;" transform="translate(398.21,0)">1.10.23</text></g><g class="xtick"><text text-anchor="middle" x="0" y="563" style="font-family: 'Open Sans', verdana, arial, sans-serif; font-size: 12px; fill: rgb(42, 63, 95); fill-opacity: 1; white-space: pre; opacity: 1;" transform="translate(504.03,0)">1.11.23</text></g><g class="xtick"><text text-anchor="middle" x="0" y="563" style="font-family: 'Open Sans', verdana, arial, sans-serif; font-size: 12px; fill: rgb(42, 63, 95); fill-opacity: 1; white-space: pre; opacity: 1;" transform="translate(606.45,0)">1.12.23</text></g><g class="xtick"><text text-anchor="middle" x="0" y="563" style="font-family: 'Open Sans', verdana, arial, sans-serif; font-size: 12px; fill: rgb(42, 63, 95); fill-opacity: 1; white-space: pre; opacity: 1;" transform="translate(712.28,0)">1.1.24</text></g><g class="xtick"><text text-anchor="middle" x="0" y="563" style="font-family: 'Open Sans', verdana, arial, sans-serif; font-size: 12px; fill: rgb(42, 63, 95); fill-opacity: 1; white-space: pre; opacity: 1;" transform="translate(818.1,0)">1.2.24</text></g><g class="xtick"><text text-anchor="middle" x="0" y="563" style="font-family: 'Open Sans', verdana, arial, sans-serif; font-size: 12px; fill: rgb(42, 63, 95); fill-opacity: 1; white-space: pre; opacity: 1;" transform="translate(917.1,0)">1.3.24</text></g><g class="xtick"><text text-anchor="middle" x="0" y="563" style="font-family: 'Open Sans', verdana, arial, sans-serif; font-size: 12px; fill: rgb(42, 63, 95); fill-opacity: 1; white-space: pre; opacity: 1;" transform="translate(1022.93,0)">1.4.24</text></g></g><g class="yaxislayer-above"><g class="ytick"><text text-anchor="end" x="49" y="4.199999999999999" transform="translate(0,550)" style="font-family: 'Open Sans', verdana, arial, sans-serif; font-size: 12px; fill: rgb(42, 63, 95); fill-opacity: 1; white-space: pre; opacity: 1;">0%</text></g><g class="ytick"><text text-anchor="end" x="49" y="4.199999999999999" style="font-family: 'Open Sans', verdana, arial, sans-serif; font-size: 12px; fill: rgb(42, 63, 95); fill-opacity: 1; white-space: pre; opacity: 1;" transform="translate(0,478.88)">10%</text></g><g class="ytick"><text text-anchor="end" x="49" y="4.199999999999999" style="font-family: 'Open Sans', verdana, arial, sans-serif; font-size: 12px; fill: rgb(42, 63, 95); fill-opacity: 1; white-space: pre; opacity: 1;" transform="translate(0,407.77)">20%</text></g><g class="ytick"><text text-anchor="end" x="49" y="4.199999999999999" style="font-family: 'Open Sans', verdana, arial, sans-serif; font-size: 12px; fill: rgb(42, 63, 95); fill-opacity: 1; white-space: pre; opacity: 1;" transform="translate(0,336.65)">30%</text></g><g class="ytick"><text text-anchor="end" x="49" y="4.199999999999999" style="font-family: 'Open Sans', verdana, arial, sans-serif; font-size: 12px; fill: rgb(42, 63, 95); fill-opacity: 1; white-space: pre; opacity: 1;" transform="translate(0,265.53999999999996)">40%</text></g><g class="ytick"><text text-anchor="end" x="49" y="4.199999999999999" style="font-family: 'Open Sans', verdana, arial, sans-serif; font-size: 12px; fill: rgb(42, 63, 95); fill-opacity: 1; white-space: pre; opacity: 1;" transform="translate(0,194.42)">50%</text></g><g class="ytick"><text text-anchor="end" x="49" y="4.199999999999999" style="font-family: 'Open Sans', verdana, arial, sans-serif; font-size: 12px; fill: rgb(42, 63, 95); fill-opacity: 1; white-space: pre; opacity: 1;" transform="translate(0,123.31)">60%</text></g><g class="ytick"><text text-anchor="end" x="49" y="4.199999999999999" style="font-family: 'Open Sans', verdana, arial, sans-serif; font-size: 12px; fill: rgb(42, 63, 95); fill-opacity: 1; white-space: pre; opacity: 1;" transform="translate(0,52.19)">70%</text></g></g><g class="overaxes-above"/></g></g><g class="polarlayer"/><g class="smithlayer"/><g class="ternarylayer"/><g class="geolayer"/><g class="funnelarealayer"/><g class="pielayer"/><g class="iciclelayer"/><g class="treemaplayer"/><g class="sunburstlayer"/><g class="glimages"/><defs id="topdefs-247aef"><g class="clips"/><clipPath id="legend247aef"><rect width="128" height="124" x="0" y="0"/></clipPath></defs><g class="layer-above"><g class="imagelayer"/><g class="shapelayer"/></g><g class="infolayer"><g class="legend" pointer-events="all" transform="translate(1059.8000000000002,20)"><rect class="bg" shape-rendering="crispEdges" style="stroke: rgb(68, 68, 68); stroke-opacity: 1; fill: rgb(255, 255, 255); fill-opacity: 1; stroke-width: 0px;" width="128" height="124" x="0" y="0"/><g class="scrollbox" transform="" clip-path="url(#legend247aef)"><g class="groups"><g class="traces" transform="translate(0,14.5)" style="opacity: 1;"><text class="legendtext" text-anchor="start" x="40" y="4.680000000000001" style="font-family: 'Open Sans', verdana, arial, sans-serif; font-size: 12px; fill: rgb(42, 63, 95); fill-opacity: 1; white-space: pre;">Pellegrini Peter</text><g class="layers" style="opacity: 1;"><g class="legendfill"/><g class="legendlines"><path class="js-line" d="M5,0h30" style="fill: none; stroke: rgb(138, 44, 81); stroke-opacity: 1; stroke-width: 5px;"/></g><g class="legendsymbols"><g class="legendpoints"/></g></g><rect class="legendtoggle" x="0" y="-9.5" width="122.703125" height="19" style="fill: rgb(0, 0, 0); fill-opacity: 0;"/></g><g class="traces" transform="translate(0,33.5)" style="opacity: 1;"><text class="legendtext" text-anchor="start" x="40" y="4.680000000000001" style="font-family: 'Open Sans', verdana, arial, sans-serif; font-size: 12px; fill: rgb(42, 63, 95); fill-opacity: 1; white-space: pre;">Korčok Ivan</text><g class="layers" style="opacity: 1;"><g class="legendfill"/><g class="legendlines"><path class="js-line" d="M5,0h30" style="fill: none; stroke: rgb(0, 174, 239); stroke-opacity: 1; stroke-width: 5px;"/></g><g class="legendsymbols"><g class="legendpoints"/></g></g><rect class="legendtoggle" x="0" y="-9.5" width="122.703125" height="19" style="fill: rgb(0, 0, 0); fill-opacity: 0;"/></g><g class="traces" transform="translate(0,52.5)" style="opacity: 1;"><text class="legendtext" text-anchor="start" x="40" y="4.680000000000001" style="font-family: 'Open Sans', verdana, arial, sans-serif; font-size: 12px; fill: rgb(42, 63, 95); fill-opacity: 1; white-space: pre;">Mistrík Robert</text><g class="layers" style="opacity: 1;"><g class="legendfill"/><g class="legendlines"><path class="js-line" d="M5,0h30" style="fill: none; stroke: rgb(202, 166, 105); stroke-opacity: 1; stroke-width: 5px;"/></g><g class="legendsymbols"><g class="legendpoints"/></g></g><rect class="legendtoggle" x="0" y="-9.5" width="122.703125" height="19" style="fill: rgb(0, 0, 0); fill-opacity: 0;"/></g><g class="traces" transform="translate(0,71.5)" style="opacity: 1;"><text class="legendtext" text-anchor="start" x="40" y="4.680000000000001" style="font-family: 'Open Sans', verdana, arial, sans-serif; font-size: 12px; fill: rgb(42, 63, 95); fill-opacity: 1; white-space: pre;">Kubiš Ján</text><g class="layers" style="opacity: 1;"><g class="legendfill"/><g class="legendlines"><path class="js-line" d="M5,0h30" style="fill: none; stroke: rgb(255, 1, 170); stroke-opacity: 1; stroke-width: 5px;"/></g><g class="legendsymbols"><g class="legendpoints"/></g></g><rect class="legendtoggle" x="0" y="-9.5" width="122.703125" height="19" style="fill: rgb(0, 0, 0); fill-opacity: 0;"/></g><g class="traces" transform="translate(0,90.5)" style="opacity: 1;"><text class="legendtext" text-anchor="start" x="40" y="4.680000000000001" style="font-family: 'Open Sans', verdana, arial, sans-serif; font-size: 12px; fill: rgb(42, 63, 95); fill-opacity: 1; white-space: pre;">Lajčák Miroslav</text><g class="layers" style="opacity: 1;"><g class="legendfill"/><g class="legendlines"><path class="js-line" d="M5,0h30" style="fill: none; stroke: rgb(255, 192, 203); stroke-opacity: 1; stroke-width: 5px;"/></g><g class="legendsymbols"><g class="legendpoints"/></g></g><rect class="legendtoggle" x="0" y="-9.5" width="122.703125" height="19" style="fill: rgb(0, 0, 0); fill-opacity: 0;"/></g><g class="traces" transform="translate(0,109.5)" style="opacity: 1;"><text class="legendtext" text-anchor="start" x="40" y="4.680000000000001" style="font-family: 'Open Sans', verdana, arial, sans-serif; font-size: 12px; fill: rgb(42, 63, 95); fill-opacity: 1; white-space: pre;">Fico Robert</text><g class="layers" style="opacity: 1;"><g class="legendfill"/><g class="legendlines"><path class="js-line" d="M5,0h30" style="fill: none; stroke: rgb(238, 58, 67); stroke-opacity: 1; stroke-width: 5px;"/></g><g class="legendsymbols"><g class="legendpoints"/></g></g><rect class="legendtoggle" x="0" y="-9.5" width="122.703125" height="19" style="fill: rgb(0, 0, 0); fill-opacity: 0;"/></g></g></g><rect class="scrollbar" rx="20" ry="3" width="0" height="0" style="fill: rgb(128, 139, 164); fill-opacity: 1;" x="0" y="0"/></g><g class="g-gtitle"/><g class="g-xtitle"/><g class="g-ytitle"/></g></svg>