<svg class="main-svg" xmlns="http://www.w3.org/2000/svg" xmlns:xlink="http://www.w3.org/1999/xlink" width="400" height="400" style="" viewBox="0 0 400 400"><rect x="0" y="0" width="400" height="400" style="fill: rgb(255, 255, 255); fill-opacity: 1;"/><defs id="defs-496546"><g class="clips"><clipPath id="clip496546xyplot" class="plotclip"><rect width="206" height="330"/></clipPath><clipPath class="axesclip" id="clip496546x"><rect x="50" y="0" width="206" height="400"/></clipPath><clipPath class="axesclip" id="clip496546y"><rect x="0" y="20" width="400" height="330"/></clipPath><clipPath class="axesclip" id="clip496546xy"><rect x="50" y="20" width="206" height="330"/></clipPath></g><g class="gradients"/><g class="patterns"/></defs><g class="bglayer"/><g class="layer-below"><g class="imagelayer"/><g class="shapelayer"/></g><g class="cartesianlayer"><g class="subplot xy"><g class="layer-subplot"><g class="shapelayer"/><g class="imagelayer"/></g><g class="minor-gridlayer"><g class="x"/><g class="y"/></g><g class="gridlayer"><g class="x"><path class="xgrid crisp" transform="translate(57.1,0)" d="M0,20v330" style="stroke: rgb(235, 240, 248); stroke-opacity: 1; stroke-width: 1px;"/><path class="xgrid crisp" transform="translate(101.14,0)" d="M0,20v330" style="stroke: rgb(235, 240, 248); stroke-opacity: 1; stroke-width: 1px;"/><path class="xgrid crisp" transform="translate(144.48000000000002,0)" d="M0,20v330" style="stroke: rgb(235, 240, 248); stroke-opacity: 1; stroke-width: 1px;"/><path class="xgrid crisp" transform="translate(187.81,0)" d="M0,20v330" style="stroke: rgb(235, 240, 248); stroke-opacity: 1; stroke-width: 1px;"/><path class="xgrid crisp" transform="translate(230.43,0)" d="M0,20v330" style="stroke: rgb(235, 240, 248); stroke-opacity: 1; stroke-width: 1px;"/></g><g class="y"><path class="ygrid crisp" transform="translate(0,304.63)" d="M50,0h206" style="stroke: rgb(235, 240, 248); stroke-opacity: 1; stroke-width: 1px;"/><path class="ygrid crisp" transform="translate(0,259.26)" d="M50,0h206" style="stroke: rgb(235, 240, 248); stroke-opacity: 1; stroke-width: 1px;"/><path class="ygrid crisp" transform="translate(0,213.89)" d="M50,0h206" style="stroke: rgb(235, 240, 248); stroke-opacity: 1; stroke-width: 1px;"/><path class="ygrid crisp" transform="translate(0,168.52)" d="M50,0h206" style="stroke: rgb(235, 240, 248); stroke-opacity: 1; stroke-width: 1px;"/><path class="ygrid crisp" transform="translate(0,123.15)" d="M50,0h206" style="stroke: rgb(235, 240, 248); stroke-opacity: 1; stroke-width: 1px;"/><path class="ygrid crisp" transform="translate(0,77.78999999999999)" d="M50,0h206" style="stroke: rgb(235, 240, 248); stroke-opacity: 1; stroke-width: 1px;"/><path class="ygrid crisp" transform="translate(0,32.42)" d="M50,0h206" style="stroke: rgb(235, 240, 248); stroke-opacity: 1; stroke-width: 1px;"/></g></g><g class="zerolinelayer"><path class="yzl zl crisp" transform="translate(0,350)" d="M50,0h206" style="stroke: rgb(235, 240, 248); stroke-opacity: 1; stroke-width: 2px;"/></g><path class="xlines-below"/><path class="ylines-below"/><g class="overlines-below"/><g class="xaxislayer-below"/><g class="yaxislayer-below"/><g class="overaxes-below"/><g class="plot" transform="translate(50,20)" clip-path="url(#clip496546xyplot)"><g class="scatterlayer mlayer"><g class="trace scatter trace824114" style="stroke-miterlimit: 2; opacity: 1;"><g class="fills"/><g class="errorbars"/><g class="lines"><path class="js-line" d="M0,235.18L2.13,223.38L2.84,223.38L4.26,223.38L4.97,226.56L7.1,221.11L7.81,221.11L9.94,221.11L10.66,219.75L12.79,219.75L13.5,218.39L15.63,217.48L16.34,217.48L17.76,214.76L18.47,214.76L26.28,214.76L26.99,211.59L30.54,211.59L31.26,192.53L39.78,192.53L41.2,205.69L41.91,202.97L43.33,202.97L49.01,202.06L49.72,212.04L51.14,217.03L51.86,215.22L52.57,213.4L53.28,217.48L59.67,217.48L60.38,215.67L61.09,215.67L61.8,217.48L62.51,215.67L63.22,217.03L63.93,215.67L71.74,214.76L72.46,205.69L73.88,209.32L74.59,209.32L75.3,208.41L76.01,193.44L77.43,184.37L78.14,184.37L78.85,182.1L79.56,167.13L80.98,158.51L81.69,158.51L83.11,158.51L83.82,155.78L86.66,141.72L87.37,141.72L91.63,142.17L92.34,143.08L93.06,143.08L93.77,147.62L99.45,147.62L100.16,141.26L100.87,141.26L101.58,130.38L104.42,130.38L105.13,118.13L109.39,118.13L110.1,110.87L111.52,108.15L112.23,108.15L115.08,99.07L115.79,83.65L117.21,83.65L117.92,75.93L119.34,57.33L120.05,57.33L125.02,57.33L125.73,64.14L127.15,67.31L127.86,67.31L128.57,69.13L129.28,76.39L129.99,79.11L130.7,77.29L131.41,74.12L137.1,73.21L137.81,75.48L138.52,74.57L139.23,59.6L141.36,44.18L142.07,45.54L142.78,50.98L143.49,47.8L144.2,39.18L144.91,39.18L145.62,41.45L147.04,46.9L147.75,50.98L148.46,51.43L149.17,66.86L149.88,72.3L150.59,66.86L151.3,69.13L152.01,67.31L152.72,60.05L153.43,58.24L154.14,60.51L155.57,61.87L156.28,59.15L159.12,42.81L159.83,42.81L160.54,44.63L161.25,50.07L161.96,50.98L162.67,47.35L163.38,46.9L164.09,50.07L166.22,84.55L166.93,83.65L167.64,83.65L168.35,84.1L169.06,88.18L169.77,89.54L170.48,88.64L171.19,83.65L173.32,91.81L174.03,85.46L176.17,57.79L176.88,57.33L177.59,47.35L178.3,47.8L179.01,47.35L179.72,45.08L180.43,48.26L181.85,55.52L182.56,55.97L183.27,55.52L183.98,53.25L187.53,47.8L188.24,43.27L189.66,38.73L190.37,26.48L193.21,16.95L193.92,16.5" style="vector-effect: none; fill: none; stroke: rgb(138, 44, 81); stroke-opacity: 1; stroke-width: 5px; opacity: 1;"/></g><g class="points"/><g class="text"/></g><g class="trace scatter trace64cd01" style="stroke-miterlimit: 2; opacity: 1;"><g class="fills"/><g class="errorbars"/><g class="lines"><path class="js-line" d="M0,132.19L2.13,138.54L2.84,138.54L4.26,138.54L4.97,141.72L7.1,134.91L7.81,134.91L13.5,135.82L14.21,136.73L16.34,136.73L17.05,139L41.2,139L41.91,151.7L47.59,151.7L48.3,149.43L49.01,147.62L49.72,137.18L51.14,121.76L51.86,125.84L52.57,129.92L53.28,116.31L59.67,116.31L60.38,123.12L61.09,123.12L61.8,116.31L62.51,123.12L63.22,114.95L64.64,113.14L65.35,121.76L66.77,113.14L67.48,113.14L68.19,113.14L68.9,121.76L69.61,121.76L70.32,113.14L71.74,121.76L72.46,113.59L73.88,124.02L74.59,124.02L75.3,124.02L76.01,126.75L78.14,126.75L78.85,129.02L80.98,139.9L81.69,139.9L84.53,139.9L85.24,141.26L88.08,141.72L88.79,141.72L90.92,141.72L91.63,143.08L93.77,147.62L95.19,147.62L100.16,148.07L100.87,146.26L102.29,150.79L103,150.79L109.39,149.88L110.1,157.14L111.52,158.96L112.23,158.96L115.08,166.67L115.79,158.05L117.21,158.05L117.92,162.59L119.34,168.49L120.05,168.49L125.02,168.49L125.73,162.13L127.15,158.51L127.86,158.51L128.57,156.69L129.28,146.26L129.99,143.08L130.7,143.99L131.41,145.35L137.1,145.35L137.81,143.08L138.52,143.08L139.23,154.88L141.36,168.94L142.07,167.58L143.49,158.51L144.2,167.13L144.91,167.13L145.62,164.86L147.04,159.41L147.75,155.33L148.46,154.88L149.17,139.45L149.88,134.01L150.59,139.45L151.3,137.18L152.01,139L152.72,146.26L153.43,148.07L154.14,145.8L155.57,144.44L156.28,147.16L159.12,163.5L159.83,163.5L160.54,161.68L161.25,156.24L161.96,155.33L162.67,158.96L163.38,159.41L164.09,156.24L166.22,121.76L166.93,122.66L167.64,122.66L168.35,122.21L169.06,118.13L169.77,116.77L170.48,117.67L171.19,122.66L173.32,114.5L174.03,120.85L176.17,148.52L176.88,148.98L177.59,158.96L178.3,158.51L179.01,158.96L179.72,161.23L180.43,158.05L181.85,150.79L182.56,150.34L183.27,150.79L183.98,153.06L187.53,158.51L188.24,163.04L189.66,167.58L190.37,179.83L193.21,189.36L193.92,189.81" style="vector-effect: none; fill: none; stroke: rgb(0, 174, 239); stroke-opacity: 1; stroke-width: 5px; opacity: 1;"/></g><g class="points"/><g class="text"/></g><g class="trace scatter trace70ca7b" style="stroke-miterlimit: 2; opacity: 1;"><g class="fills"/><g class="errorbars"/><g class="lines"><path class="js-line" d="M0,282.36L2.84,284.18L3.55,284.18L4.26,284.18L4.97,282.36L5.68,282.82L6.39,285.08L12.79,285.54L13.5,286.9L15.63,287.81L16.34,287.81L30.54,286.9L31.26,293.7L39.78,293.7L41.2,290.98L41.91,296.88L43.33,296.88L48.3,297.33L49.01,298.24L49.72,298.24L50.43,303.23L51.14,303.23L51.86,300.51L52.57,297.79L53.28,305.5L59.67,305.5L60.38,301.87L61.09,301.87L61.8,305.5L62.51,301.87L63.22,305.05L64.64,305.05L65.35,301.42L66.77,305.05L67.48,305.05L68.19,305.05L68.9,301.42L69.61,301.42L70.32,305.05L71.74,301.42L72.46,301.87L73.88,298.7L74.59,298.7L75.3,299.15L76.01,303.69L77.43,305.95L78.14,305.95L81.69,310.04L82.4,310.04L83.82,310.95L84.53,312.76L87.37,315.94L88.08,315.94L115.08,315.94L115.79,324.56L117.92,325.46" style="vector-effect: none; fill: none; stroke: rgb(238, 58, 67); stroke-opacity: 1; stroke-width: 5px; opacity: 1;"/></g><g class="points"/><g class="text"/></g><g class="trace scatter traceac9493" style="stroke-miterlimit: 2; opacity: 1;"><g class="fills"/><g class="errorbars"/><g class="lines"><path class="js-line" d="M0,298.24L3.55,299.6L4.26,299.6L7.1,298.7L7.81,298.7L16.34,299.15L17.05,300.06L26.28,300.06L26.99,303.69L30.54,303.69L31.26,307.32L39.78,307.32L41.2,301.87L41.91,313.67L43.33,313.67L49.72,314.12L50.43,317.3L52.57,317.3L53.28,319.11L71.74,318.2L72.46,319.57L74.59,318.66L75.3,318.66L78.85,319.57L79.56,320.47L83.82,322.29L84.53,324.1L104.42,324.1" style="vector-effect: none; fill: none; stroke: rgb(255, 192, 203); stroke-opacity: 1; stroke-width: 5px; opacity: 1;"/></g><g class="points"/><g class="text"/></g><g class="trace scatter trace29e265" style="stroke-miterlimit: 2; opacity: 1;"><g class="fills"/><g class="errorbars"/><g class="lines"><path class="js-line" d="M0,284.18L2.13,285.54L2.84,285.54L4.26,285.54L4.97,288.71L7.1,283.27L7.81,283.27L30.54,284.18L31.26,289.62L39.78,289.62L41.2,285.99L41.91,256.5L43.33,256.5L47.59,256.5L48.3,257.86L51.14,261.95L51.86,260.59L52.57,258.77L53.28,262.4L59.67,262.4L60.38,260.59L61.09,260.59L61.8,262.4L62.51,260.59L63.22,263.31L64.64,265.12L65.35,261.95L66.77,265.12L67.48,265.12L68.19,265.12L68.9,261.95L69.61,261.95L70.32,265.12L71.74,261.95L72.46,275.1L73.88,266.03L74.59,266.03L75.3,266.48L76.01,273.29L77.43,278.73L78.14,278.73L78.85,277.37L79.56,281.91L81.69,282.82L82.4,282.82L85.24,282.82L85.95,284.63L90.92,284.63L91.63,282.82L93.77,272.38L95.19,272.38L99.45,272.38L100.16,278.28L100.87,280.09L101.58,286.45L104.42,286.45L105.13,290.08L113.66,290.98L114.37,291.44L115.08,291.44L115.79,305.5L117.21,305.5L117.92,307.32L119.34,310.04L120.05,310.04L128.57,310.04L129.28,314.12L130.7,315.03L131.41,316.84L137.81,317.75L138.52,318.66L140.65,323.19L141.36,323.19L142.78,324.1" style="vector-effect: none; fill: none; stroke: rgb(255, 1, 170); stroke-opacity: 1; stroke-width: 5px; opacity: 1;"/></g><g class="points"/><g class="text"/></g><g class="trace scatter trace15ff8d" style="stroke-miterlimit: 2; opacity: 1;"><g class="fills"/><g class="errorbars"/><g class="lines"><path class="js-line" d="M0,294.16L3.55,295.07L4.26,295.07L4.97,288.71L5.68,297.33L7.1,302.78L7.81,302.78L26.28,301.87L26.99,301.42L30.54,301.42L31.26,303.69L41.2,302.78L41.91,304.59L51.14,305.05L51.86,306.86L52.57,308.68L53.28,305.5L59.67,305.5L60.38,306.86L61.09,306.86L61.8,305.5L63.93,308.22L64.64,308.22L66.77,308.22L67.48,308.22L71.74,308.68L72.46,310.04L76.01,310.04L76.72,310.95L79.56,311.85L80.27,313.21L84.53,315.94L85.24,316.84L86.66,318.2L87.37,318.2L104.42,318.2L105.13,322.74L115.08,323.19L115.79,324.56L117.92,325.46" style="vector-effect: none; fill: none; stroke: rgb(202, 166, 105); stroke-opacity: 1; stroke-width: 5px; opacity: 1;"/></g><g class="points"/><g class="text"/></g></g></g><g class="overplot"/><path class="xlines-above crisp" d="M0,0" style="fill: none;"/><path class="ylines-above crisp" d="M0,0" style="fill: none;"/><g class="overlines-above"/><g class="xaxislayer-above"><g class="xtick"><text text-anchor="middle" x="0" y="363" transform="translate(57.1,0)" style="font-family: 'Open Sans', verdana, arial, sans-serif; font-size: 12px; fill: rgb(42, 63, 95); fill-opacity: 1; white-space: pre; opacity: 1;">1.7.23</text></g><g class="xtick"><text text-anchor="middle" x="0" y="363" style="font-family: 'Open Sans', verdana, arial, sans-serif; font-size: 12px; fill: rgb(42, 63, 95); fill-opacity: 1; white-space: pre; opacity: 1;" transform="translate(101.14,0)">1.9.23</text></g><g class="xtick"><text text-anchor="middle" x="0" y="363" style="font-family: 'Open Sans', verdana, arial, sans-serif; font-size: 12px; fill: rgb(42, 63, 95); fill-opacity: 1; white-space: pre; opacity: 1;" transform="translate(144.48000000000002,0)">1.11.23</text></g><g class="xtick"><text text-anchor="middle" x="0" y="363" style="font-family: 'Open Sans', verdana, arial, sans-serif; font-size: 12px; fill: rgb(42, 63, 95); fill-opacity: 1; white-space: pre; opacity: 1;" transform="translate(187.81,0)">1.1.24</text></g><g class="xtick"><text text-anchor="middle" x="0" y="363" style="font-family: 'Open Sans', verdana, arial, sans-serif; font-size: 12px; fill: rgb(42, 63, 95); fill-opacity: 1; white-space: pre; opacity: 1;" transform="translate(230.43,0)">1.3.24</text></g></g><g class="yaxislayer-above"><g class="ytick"><text text-anchor="end" x="49" y="4.199999999999999" transform="translate(0,350)" style="font-family: 'Open Sans', verdana, arial, sans-serif; font-size: 12px; fill: rgb(42, 63, 95); fill-opacity: 1; white-space: pre; opacity: 1;">0%</text></g><g class="ytick"><text text-anchor="end" x="49" y="4.199999999999999" style="font-family: 'Open Sans', verdana, arial, sans-serif; font-size: 12px; fill: rgb(42, 63, 95); fill-opacity: 1; white-space: pre; opacity: 1;" transform="translate(0,304.63)">10%</text></g><g class="ytick"><text text-anchor="end" x="49" y="4.199999999999999" style="font-family: 'Open Sans', verdana, arial, sans-serif; font-size: 12px; fill: rgb(42, 63, 95); fill-opacity: 1; white-space: pre; opacity: 1;" transform="translate(0,259.26)">20%</text></g><g class="ytick"><text text-anchor="end" x="49" y="4.199999999999999" style="font-family: 'Open Sans', verdana, arial, sans-serif; font-size: 12px; fill: rgb(42, 63, 95); fill-opacity: 1; white-space: pre; opacity: 1;" transform="translate(0,213.89)">30%</text></g><g class="ytick"><text text-anchor="end" x="49" y="4.199999999999999" style="font-family: 'Open Sans', verdana, arial, sans-serif; font-size: 12px; fill: rgb(42, 63, 95); fill-opacity: 1; white-space: pre; opacity: 1;" transform="translate(0,168.52)">40%</text></g><g class="ytick"><text text-anchor="end" x="49" y="4.199999999999999" style="font-family: 'Open Sans', verdana, arial, sans-serif; font-size: 12px; fill: rgb(42, 63, 95); fill-opacity: 1; white-space: pre; opacity: 1;" transform="translate(0,123.15)">50%</text></g><g class="ytick"><text text-anchor="end" x="49" y="4.199999999999999" style="font-family: 'Open Sans', verdana, arial, sans-serif; font-size: 12px; fill: rgb(42, 63, 95); fill-opacity: 1; white-space: pre; opacity: 1;" transform="translate(0,77.78999999999999)">60%</text></g><g class="ytick"><text text-anchor="end" x="49" y="4.199999999999999" style="font-family: 'Open Sans', verdana, arial, sans-serif; font-size: 12px; fill: rgb(42, 63, 95); fill-opacity: 1; white-space: pre; opacity: 1;" transform="translate(0,32.42)">70%</text></g></g><g class="overaxes-above"/></g></g><g class="polarlayer"/><g class="smithlayer"/><g class="ternarylayer"/><g class="geolayer"/><g class="funnelarealayer"/><g class="pielayer"/><g class="iciclelayer"/><g class="treemaplayer"/><g class="sunburstlayer"/><g class="glimages"/><defs id="topdefs-496546"><g class="clips"/><clipPath id="legend496546"><rect width="128" height="124" x="0" y="0"/></clipPath></defs><g class="layer-above"><g class="imagelayer"/><g class="shapelayer"/></g><g class="infolayer"><g class="legend" pointer-events="all" transform="translate(260.12,20)"><rect class="bg" shape-rendering="crispEdges" width="128" height="124" x="0" y="0" style="stroke: rgb(68, 68, 68); stroke-opacity: 1; fill: rgb(255, 255, 255); fill-opacity: 1; stroke-width: 0px;"/><g class="scrollbox" transform="" clip-path="url(#legend496546)"><g class="groups"><g class="traces" transform="translate(0,14.5)" style="opacity: 1;"><text class="legendtext" text-anchor="start" x="40" y="4.680000000000001" style="font-family: 'Open Sans', verdana, arial, sans-serif; font-size: 12px; fill: rgb(42, 63, 95); fill-opacity: 1; white-space: pre;">Pellegrini Peter</text><g class="layers" style="opacity: 1;"><g class="legendfill"/><g class="legendlines"><path class="js-line" d="M5,0h30" style="fill: none; stroke: rgb(138, 44, 81); stroke-opacity: 1; stroke-width: 5px;"/></g><g class="legendsymbols"><g class="legendpoints"/></g></g><rect class="legendtoggle" x="0" y="-9.5" width="122.703125" height="19" style="fill: rgb(0, 0, 0); fill-opacity: 0;"/></g><g class="traces" transform="translate(0,33.5)" style="opacity: 1;"><text class="legendtext" text-anchor="start" x="40" y="4.680000000000001" style="font-family: 'Open Sans', verdana, arial, sans-serif; font-size: 12px; fill: rgb(42, 63, 95); fill-opacity: 1; white-space: pre;">Korčok Ivan</text><g class="layers" style="opacity: 1;"><g class="legendfill"/><g class="legendlines"><path class="js-line" d="M5,0h30" style="fill: none; stroke: rgb(0, 174, 239); stroke-opacity: 1; stroke-width: 5px;"/></g><g class="legendsymbols"><g class="legendpoints"/></g></g><rect class="legendtoggle" x="0" y="-9.5" width="122.703125" height="19" style="fill: rgb(0, 0, 0); fill-opacity: 0;"/></g><g class="traces" transform="translate(0,52.5)" style="opacity: 1;"><text class="legendtext" text-anchor="start" x="40" y="4.680000000000001" style="font-family: 'Open Sans', verdana, arial, sans-serif; font-size: 12px; fill: rgb(42, 63, 95); fill-opacity: 1; white-space: pre;">Fico Robert</text><g class="layers" style="opacity: 1;"><g class="legendfill"/><g class="legendlines"><path class="js-line" d="M5,0h30" style="fill: none; stroke: rgb(238, 58, 67); stroke-opacity: 1; stroke-width: 5px;"/></g><g class="legendsymbols"><g class="legendpoints"/></g></g><rect class="legendtoggle" x="0" y="-9.5" width="122.703125" height="19" style="fill: rgb(0, 0, 0); fill-opacity: 0;"/></g><g class="traces" transform="translate(0,71.5)" style="opacity: 1;"><text class="legendtext" text-anchor="start" x="40" y="4.680000000000001" style="font-family: 'Open Sans', verdana, arial, sans-serif; font-size: 12px; fill: rgb(42, 63, 95); fill-opacity: 1; white-space: pre;">Lajčák Miroslav</text><g class="layers" style="opacity: 1;"><g class="legendfill"/><g class="legendlines"><path class="js-line" d="M5,0h30" style="fill: none; stroke: rgb(255, 192, 203); stroke-opacity: 1; stroke-width: 5px;"/></g><g class="legendsymbols"><g class="legendpoints"/></g></g><rect class="legendtoggle" x="0" y="-9.5" width="122.703125" height="19" style="fill: rgb(0, 0, 0); fill-opacity: 0;"/></g><g class="traces" transform="translate(0,90.5)" style="opacity: 1;"><text class="legendtext" text-anchor="start" x="40" y="4.680000000000001" style="font-family: 'Open Sans', verdana, arial, sans-serif; font-size: 12px; fill: rgb(42, 63, 95); fill-opacity: 1; white-space: pre;">Kubiš Ján</text><g class="layers" style="opacity: 1;"><g class="legendfill"/><g class="legendlines"><path class="js-line" d="M5,0h30" style="fill: none; stroke: rgb(255, 1, 170); stroke-opacity: 1; stroke-width: 5px;"/></g><g class="legendsymbols"><g class="legendpoints"/></g></g><rect class="legendtoggle" x="0" y="-9.5" width="122.703125" height="19" style="fill: rgb(0, 0, 0); fill-opacity: 0;"/></g><g class="traces" transform="translate(0,109.5)" style="opacity: 1;"><text class="legendtext" text-anchor="start" x="40" y="4.680000000000001" style="font-family: 'Open Sans', verdana, arial, sans-serif; font-size: 12px; fill: rgb(42, 63, 95); fill-opacity: 1; white-space: pre;">Mistrík Robert</text><g class="layers" style="opacity: 1;"><g class="legendfill"/><g class="legendlines"><path class="js-line" d="M5,0h30" style="fill: none; stroke: rgb(202, 166, 105); stroke-opacity: 1; stroke-width: 5px;"/></g><g class="legendsymbols"><g class="legendpoints"/></g></g><rect class="legendtoggle" x="0" y="-9.5" width="122.703125" height="19" style="fill: rgb(0, 0, 0); fill-opacity: 0;"/></g></g></g><rect class="scrollbar" rx="20" ry="3" width="0" height="0" x="0" y="0" style="fill: rgb(128, 139, 164); fill-opacity: 1;"/></g><g class="g-gtitle"/><g class="g-xtitle"/><g class="g-ytitle"/></g></svg>