<svg class="main-svg" xmlns="http://www.w3.org/2000/svg" xmlns:xlink="http://www.w3.org/1999/xlink" width="300" height="135" style="" viewBox="0 0 300 135"><rect x="0" y="0" width="300" height="135" style="fill: rgb(255, 255, 255); fill-opacity: 1;"/><defs id="defs-2ea2dc"><g class="clips"><clipPath id="clip2ea2dcxyplot" class="plotclip"><rect width="280" height="75"/></clipPath><clipPath class="axesclip" id="clip2ea2dcx"><rect x="10" y="0" width="280" height="135"/></clipPath><clipPath class="axesclip" id="clip2ea2dcy"><rect x="0" y="50" width="300" height="75"/></clipPath><clipPath class="axesclip" id="clip2ea2dcxy"><rect x="10" y="50" width="280" height="75"/></clipPath></g><g class="gradients"/><g class="patterns"/></defs><g class="bglayer"/><g class="layer-below"><g class="imagelayer"/><g class="shapelayer"/></g><g class="cartesianlayer"><g class="subplot xy"><g class="layer-subplot"><g class="shapelayer"/><g class="imagelayer"/></g><g class="minor-gridlayer"><g class="x"/><g class="y"/></g><g class="gridlayer"><g class="x"><path class="xgrid crisp" transform="translate(20.77,0)" d="M0,50v75" style="stroke: rgb(235, 240, 248); stroke-opacity: 1; stroke-width: 1px;"/><path class="xgrid crisp" transform="translate(87.54,0)" d="M0,50v75" style="stroke: rgb(235, 240, 248); stroke-opacity: 1; stroke-width: 1px;"/><path class="xgrid crisp" transform="translate(153.23,0)" d="M0,50v75" style="stroke: rgb(235, 240, 248); stroke-opacity: 1; stroke-width: 1px;"/><path class="xgrid crisp" transform="translate(218.92,0)" d="M0,50v75" style="stroke: rgb(235, 240, 248); stroke-opacity: 1; stroke-width: 1px;"/><path class="xgrid crisp" transform="translate(283.54,0)" d="M0,50v75" style="stroke: rgb(235, 240, 248); stroke-opacity: 1; stroke-width: 1px;"/></g><g class="y"><path class="ygrid crisp" transform="translate(0,102.77000000000001)" d="M10,0h280" style="stroke: rgb(235, 240, 248); stroke-opacity: 1; stroke-width: 1px;"/><path class="ygrid crisp" transform="translate(0,80.53999999999999)" d="M10,0h280" style="stroke: rgb(235, 240, 248); stroke-opacity: 1; stroke-width: 1px;"/><path class="ygrid crisp" transform="translate(0,58.31)" d="M10,0h280" style="stroke: rgb(235, 240, 248); stroke-opacity: 1; stroke-width: 1px;"/></g></g><g class="zerolinelayer"><path class="yzl zl crisp" transform="translate(0,125)" d="M10,0h280" style="stroke: rgb(235, 240, 248); stroke-opacity: 1; stroke-width: 2px;"/></g><path class="xlines-below"/><path class="ylines-below"/><g class="overlines-below"/><g class="xaxislayer-below"/><g class="yaxislayer-below"/><g class="overaxes-below"/><g class="plot" transform="translate(10,50)" clip-path="url(#clip2ea2dcxyplot)"><g class="scatterlayer mlayer"><g class="trace scatter trace398c73" style="stroke-miterlimit: 2; opacity: 1;"><g class="fills"/><g class="errorbars"/><g class="lines"><path class="js-line" d="M0,51.77L3.23,48.88L4.31,48.88L8.62,49.1L9.69,48.32L24.77,47.43L25.85,46.77L46.31,45.99L47.38,41.32L60.31,41.32L62.46,44.54L65.69,43.88L66.77,43.88L74.31,43.65L75.38,46.1L77.54,47.32L78.62,46.88L79.69,46.43L80.77,47.43L108.77,46.77L109.85,44.54L112,45.43L113.08,45.43L114.15,45.21L115.23,41.54L117.38,39.32L118.46,39.32L119.54,38.76L120.62,35.1L122.77,32.98L123.85,32.98L127.08,32.32L128.15,31.32L131.38,28.87L132.46,28.87L141.08,29.2L142.15,30.32L150.77,30.32L151.85,28.76L152.92,28.76L154,26.09L158.31,26.09L159.38,23.09L165.85,23.09L166.92,21.31L173.38,18.42L174.46,18.42L176.62,14.64L177.69,14.64L178.77,12.75L179.85,8.2L189.54,8.2L190.62,9.86L192.77,10.64L193.85,10.64L196,12.86L197.08,13.53L202.46,12.31L203.54,12.31L210,12.42L211.08,8.75L213.23,5.08L214.31,4.97L217.54,5.86L218.62,3.75L221.85,4.75L222.92,5.64L225.08,6.75L226.15,10.53L227.23,11.86L228.31,10.53L230.46,10.64L231.54,8.86L233.69,8.97L234.77,9.09L236.92,8.64L238,7.75L241.23,4.64L242.31,4.64L245.54,6.64L246.62,5.75L248.77,6.42L249.85,8.64L252,14.87L253.08,14.64L256.31,15.75L257.38,16.09L259.54,14.64L260.62,15.87L262.77,16.64L263.85,15.09L267.08,8.31L268.15,8.2L270.31,5.86L271.38,5.75L273.54,5.97L274.62,7.75L280,7.31" style="vector-effect: none; fill: none; stroke: rgb(138, 44, 81); stroke-opacity: 1; stroke-width: 5px; opacity: 1;"/></g><g class="points"/><g class="text"/></g><g class="trace scatter trace49610f" style="stroke-miterlimit: 2; opacity: 1;"><g class="fills"/><g class="errorbars"/><g class="lines"><path class="js-line" d="M0,26.54L4.31,28.09L5.38,28.09L8.62,27.87L9.69,27.2L62.46,28.2L63.54,31.32L74.31,30.32L75.38,27.76L77.54,23.98L78.62,24.98L79.69,25.98L80.77,22.65L90.46,22.65L91.54,24.31L92.62,24.31L93.69,22.65L94.77,24.31L95.85,22.31L98,21.87L99.08,23.98L101.23,21.87L102.31,21.87L103.38,21.87L104.46,23.98L105.54,23.98L106.62,21.87L108.77,23.98L109.85,21.98L112,24.54L113.08,24.54L119.54,25.76L120.62,27.65L123.85,28.43L124.92,28.43L138.92,29.2L140,29.87L165.85,30.87L166.92,32.65L174.46,34.98L175.54,32.87L178.77,33.98L179.85,35.43L189.54,35.43L190.62,33.87L192.77,32.98L193.85,32.98L194.92,32.54L196,29.98L198.15,29.43L199.23,29.76L210,29.2L211.08,32.09L213.23,35.43L214.31,35.54L216.46,33.76L217.54,32.98L219.69,35.1L220.77,34.54L225.08,32.09L226.15,28.32L227.23,26.98L228.31,28.32L230.46,28.2L231.54,29.98L233.69,29.87L234.77,29.76L236.92,30.2L238,31.09L241.23,34.21L242.31,34.21L245.54,32.21L246.62,33.09L248.77,32.43L249.85,30.2L252,23.98L253.08,24.2L256.31,23.09L257.38,22.76L259.54,24.2L260.62,22.98L262.77,22.2L263.85,23.76L267.08,30.54L268.15,30.65L270.31,32.98L271.38,33.09L273.54,32.87L274.62,31.09L280,31.54" style="vector-effect: none; fill: none; stroke: rgb(0, 174, 239); stroke-opacity: 1; stroke-width: 5px; opacity: 1;"/></g><g class="points"/><g class="text"/></g><g class="trace scatter trace38b40f" style="stroke-miterlimit: 2; opacity: 1;"><g class="fills"/><g class="errorbars"/><g class="lines"><path class="js-line" d="M0,67.22L11.85,67.33L12.92,67.33L46.31,68.55L47.38,69.44L60.31,69.44L62.46,68.11L63.54,71L65.69,71L79.69,71.89L80.77,72.33L127.08,73.11L128.15,73.55L158.31,73.55" style="vector-effect: none; fill: none; stroke: rgb(255, 192, 203); stroke-opacity: 1; stroke-width: 5px; opacity: 1;"/></g><g class="points"/><g class="text"/></g><g class="trace scatter trace3c1178" style="stroke-miterlimit: 2; opacity: 1;"><g class="fills"/><g class="errorbars"/><g class="lines"><path class="js-line" d="M0,63.77L7.54,64.88L8.62,64.22L11.85,63.55L12.92,63.55L46.31,63.77L47.38,65.11L62.46,64.22L63.54,56.99L75.38,57.66L76.46,58.33L95.85,58.66L96.92,59.1L108.77,58.33L109.85,61.55L112,59.33L113.08,59.33L114.15,59.44L115.23,61.11L117.38,62.44L118.46,62.44L119.54,62.11L120.62,63.22L127.08,63.33L128.15,63.22L135.69,63.88L136.77,63.88L138.92,63.44L140,62.44L141.08,62.44L142.15,60.88L150.77,60.88L151.85,62.33L157.23,64.33L158.31,64.33L160.46,65.22L161.54,65.22L174.46,65.55L175.54,69L194.92,70.11L196,71.11L210,72.22L211.08,73L216.46,73.55" style="vector-effect: none; fill: none; stroke: rgb(255, 1, 170); stroke-opacity: 1; stroke-width: 5px; opacity: 1;"/></g><g class="points"/><g class="text"/></g><g class="trace scatter trace5aa34b" style="stroke-miterlimit: 2; opacity: 1;"><g class="fills"/><g class="errorbars"/><g class="lines"><path class="js-line" d="M0,66.22L6.46,66.44L7.54,64.88L9.69,68.33L10.77,68.33L77.54,68.89L78.62,69.33L80.77,69L81.85,69L115.23,70.11L116.31,70.33L128.15,71.55L129.23,71.78L133.54,72.11L134.62,72.11L174.46,73.33L175.54,73.67L178.77,73.89" style="vector-effect: none; fill: none; stroke: rgb(202, 166, 105); stroke-opacity: 1; stroke-width: 5px; opacity: 1;"/></g><g class="points"/><g class="text"/></g></g></g><g class="overplot"/><path class="xlines-above crisp" d="M0,0" style="fill: none;"/><path class="ylines-above crisp" d="M0,0" style="fill: none;"/><g class="overlines-above"/><g class="xaxislayer-above"/><g class="yaxislayer-above"/><g class="overaxes-above"/></g></g><g class="polarlayer"/><g class="smithlayer"/><g class="ternarylayer"/><g class="geolayer"/><g class="funnelarealayer"/><g class="pielayer"/><g class="iciclelayer"/><g class="treemaplayer"/><g class="sunburstlayer"/><g class="glimages"/><defs id="topdefs-2ea2dc"><g class="clips"/></defs><g class="layer-above"><g class="imagelayer"/><g class="shapelayer"/></g><g class="infolayer"><g class="g-gtitle"><text class="gtitle" x="15" y="25" text-anchor="start" dy="0em" style="font-family: Ubuntu, verdana, arial, sans-serif; font-size: 16px; fill: rgb(233, 84, 32); opacity: 1; font-weight: normal; white-space: pre;">Prezident/ka 2024</text></g><g class="g-xtitle"/><g class="g-ytitle"/></g></svg>