<svg class="main-svg" xmlns="http://www.w3.org/2000/svg" xmlns:xlink="http://www.w3.org/1999/xlink" width="300" height="135" style="" viewBox="0 0 300 135"><rect x="0" y="0" width="300" height="135" style="fill: rgb(255, 255, 255); fill-opacity: 1;"/><defs id="defs-5c59ab"><g class="clips"><clipPath id="clip5c59abxyplot" class="plotclip"><rect width="280" height="75"/></clipPath><clipPath class="axesclip" id="clip5c59abx"><rect x="10" y="0" width="280" height="135"/></clipPath><clipPath class="axesclip" id="clip5c59aby"><rect x="0" y="50" width="300" height="75"/></clipPath><clipPath class="axesclip" id="clip5c59abxy"><rect x="10" y="50" width="280" height="75"/></clipPath></g><g class="gradients"/><g class="patterns"/></defs><g class="bglayer"/><g class="layer-below"><g class="imagelayer"/><g class="shapelayer"/></g><g class="cartesianlayer"><g class="subplot xy"><g class="layer-subplot"><g class="shapelayer"/><g class="imagelayer"/></g><g class="minor-gridlayer"><g class="x"/><g class="y"/></g><g class="gridlayer"><g class="x"><path class="xgrid crisp" transform="translate(20.810000000000002,0)" d="M0,50v75" style="stroke: rgb(235, 240, 248); stroke-opacity: 1; stroke-width: 1px;"/><path class="xgrid crisp" transform="translate(87.84,0)" d="M0,50v75" style="stroke: rgb(235, 240, 248); stroke-opacity: 1; stroke-width: 1px;"/><path class="xgrid crisp" transform="translate(153.78,0)" d="M0,50v75" style="stroke: rgb(235, 240, 248); stroke-opacity: 1; stroke-width: 1px;"/><path class="xgrid crisp" transform="translate(219.73,0)" d="M0,50v75" style="stroke: rgb(235, 240, 248); stroke-opacity: 1; stroke-width: 1px;"/><path class="xgrid crisp" transform="translate(284.59,0)" d="M0,50v75" style="stroke: rgb(235, 240, 248); stroke-opacity: 1; stroke-width: 1px;"/></g><g class="y"><path class="ygrid crisp" transform="translate(0,102.77000000000001)" d="M10,0h280" style="stroke: rgb(235, 240, 248); stroke-opacity: 1; stroke-width: 1px;"/><path class="ygrid crisp" transform="translate(0,80.53999999999999)" d="M10,0h280" style="stroke: rgb(235, 240, 248); stroke-opacity: 1; stroke-width: 1px;"/><path class="ygrid crisp" transform="translate(0,58.31)" d="M10,0h280" style="stroke: rgb(235, 240, 248); stroke-opacity: 1; stroke-width: 1px;"/></g></g><g class="zerolinelayer"><path class="yzl zl crisp" transform="translate(0,125)" d="M10,0h280" style="stroke: rgb(235, 240, 248); stroke-opacity: 1; stroke-width: 2px;"/></g><path class="xlines-below"/><path class="ylines-below"/><g class="overlines-below"/><g class="xaxislayer-below"/><g class="yaxislayer-below"/><g class="overaxes-below"/><g class="plot" transform="translate(10,50)" clip-path="url(#clip5c59abxyplot)"><g class="scatterlayer mlayer"><g class="trace scatter trace8b4308" style="stroke-miterlimit: 2; opacity: 1;"><g class="fills"/><g class="errorbars"/><g class="lines"><path class="js-line" d="M0,51.77L3.24,48.88L4.32,48.88L8.65,49.1L9.73,48.32L24.86,47.43L25.95,46.77L46.49,45.99L47.57,41.32L60.54,41.32L62.7,44.54L65.95,43.88L67.03,43.88L74.59,43.65L75.68,46.1L77.84,47.32L78.92,46.88L80,46.43L81.08,47.43L109.19,46.77L110.27,44.54L112.43,45.43L113.51,45.43L114.59,45.21L115.68,41.54L117.84,39.32L118.92,39.32L120,38.76L121.08,35.1L123.24,32.98L124.32,32.98L127.57,32.32L128.65,31.32L131.89,28.87L132.97,28.87L141.62,29.2L142.7,30.32L151.35,30.32L152.43,28.76L153.51,28.76L154.59,26.09L158.92,26.09L160,23.09L166.49,23.09L167.57,21.31L174.05,18.42L175.14,18.42L177.3,14.64L178.38,14.64L179.46,12.75L180.54,8.2L190.27,8.2L191.35,9.86L193.51,10.64L194.59,10.64L196.76,12.86L197.84,13.53L203.24,12.31L204.32,12.31L210.81,12.42L211.89,8.75L214.05,5.08L215.14,4.97L218.38,5.86L219.46,3.75L222.7,4.75L223.78,5.64L225.95,6.75L227.03,10.53L228.11,11.86L229.19,10.53L231.35,10.64L232.43,8.86L234.59,8.97L235.68,9.09L237.84,8.64L238.92,7.75L242.16,4.64L243.24,4.64L246.49,6.64L247.57,5.75L249.73,6.42L250.81,8.64L252.97,14.87L254.05,14.64L257.3,15.75L258.38,16.09L260.54,14.64L261.62,15.87L263.78,16.64L264.86,15.09L268.11,8.31L269.19,8.2L271.35,5.86L272.43,5.75L274.59,5.97L275.68,7.75L280,7.2" style="vector-effect: none; fill: none; stroke: rgb(138, 44, 81); stroke-opacity: 1; stroke-width: 5px; opacity: 1;"/></g><g class="points"/><g class="text"/></g><g class="trace scatter traced4dbd5" style="stroke-miterlimit: 2; opacity: 1;"><g class="fills"/><g class="errorbars"/><g class="lines"><path class="js-line" d="M0,26.54L4.32,28.09L5.41,28.09L8.65,27.87L9.73,27.2L62.7,28.2L63.78,31.32L74.59,30.32L75.68,27.76L77.84,23.98L78.92,24.98L80,25.98L81.08,22.65L90.81,22.65L91.89,24.31L92.97,24.31L94.05,22.65L95.14,24.31L96.22,22.31L98.38,21.87L99.46,23.98L101.62,21.87L102.7,21.87L103.78,21.87L104.86,23.98L105.95,23.98L107.03,21.87L109.19,23.98L110.27,21.98L112.43,24.54L113.51,24.54L120,25.76L121.08,27.65L124.32,28.43L125.41,28.43L139.46,29.2L140.54,29.87L166.49,30.87L167.57,32.65L175.14,34.98L176.22,32.87L179.46,33.98L180.54,35.43L190.27,35.43L191.35,33.87L193.51,32.98L194.59,32.98L195.68,32.54L196.76,29.98L198.92,29.43L200,29.76L210.81,29.2L211.89,32.09L214.05,35.43L215.14,35.54L217.3,33.76L218.38,32.98L220.54,35.1L221.62,34.54L225.95,32.09L227.03,28.32L228.11,26.98L229.19,28.32L231.35,28.2L232.43,29.98L234.59,29.87L235.68,29.76L237.84,30.2L238.92,31.09L242.16,34.21L243.24,34.21L246.49,32.21L247.57,33.09L249.73,32.43L250.81,30.2L252.97,23.98L254.05,24.2L257.3,23.09L258.38,22.76L260.54,24.2L261.62,22.98L263.78,22.2L264.86,23.76L268.11,30.54L269.19,30.65L271.35,32.98L272.43,33.09L274.59,32.87L275.68,31.09L280,31.65" style="vector-effect: none; fill: none; stroke: rgb(0, 174, 239); stroke-opacity: 1; stroke-width: 5px; opacity: 1;"/></g><g class="points"/><g class="text"/></g><g class="trace scatter trace7f95bf" style="stroke-miterlimit: 2; opacity: 1;"><g class="fills"/><g class="errorbars"/><g class="lines"><path class="js-line" d="M0,67.22L11.89,67.33L12.97,67.33L46.49,68.55L47.57,69.44L60.54,69.44L62.7,68.11L63.78,71L65.95,71L80,71.89L81.08,72.33L127.57,73.11L128.65,73.55L158.92,73.55" style="vector-effect: none; fill: none; stroke: rgb(255, 192, 203); stroke-opacity: 1; stroke-width: 5px; opacity: 1;"/></g><g class="points"/><g class="text"/></g><g class="trace scatter trace99d9a2" style="stroke-miterlimit: 2; opacity: 1;"><g class="fills"/><g class="errorbars"/><g class="lines"><path class="js-line" d="M0,63.77L7.57,64.88L8.65,64.22L11.89,63.55L12.97,63.55L46.49,63.77L47.57,65.11L62.7,64.22L63.78,56.99L75.68,57.66L76.76,58.33L96.22,58.66L97.3,59.1L109.19,58.33L110.27,61.55L112.43,59.33L113.51,59.33L114.59,59.44L115.68,61.11L117.84,62.44L118.92,62.44L120,62.11L121.08,63.22L127.57,63.33L128.65,63.22L136.22,63.88L137.3,63.88L139.46,63.44L140.54,62.44L141.62,62.44L142.7,60.88L151.35,60.88L152.43,62.33L157.84,64.33L158.92,64.33L161.08,65.22L162.16,65.22L175.14,65.55L176.22,69L195.68,70.11L196.76,71.11L210.81,72.22L211.89,73L217.3,73.55" style="vector-effect: none; fill: none; stroke: rgb(255, 1, 170); stroke-opacity: 1; stroke-width: 5px; opacity: 1;"/></g><g class="points"/><g class="text"/></g><g class="trace scatter trace3fb019" style="stroke-miterlimit: 2; opacity: 1;"><g class="fills"/><g class="errorbars"/><g class="lines"><path class="js-line" d="M0,66.22L6.49,66.44L7.57,64.88L9.73,68.33L10.81,68.33L77.84,68.89L78.92,69.33L81.08,69L82.16,69L115.68,70.11L116.76,70.33L128.65,71.55L129.73,71.78L134.05,72.11L135.14,72.11L175.14,73.33L176.22,73.67L179.46,73.89" style="vector-effect: none; fill: none; stroke: rgb(202, 166, 105); stroke-opacity: 1; stroke-width: 5px; opacity: 1;"/></g><g class="points"/><g class="text"/></g></g></g><g class="overplot"/><path class="xlines-above crisp" d="M0,0" style="fill: none;"/><path class="ylines-above crisp" d="M0,0" style="fill: none;"/><g class="overlines-above"/><g class="xaxislayer-above"/><g class="yaxislayer-above"/><g class="overaxes-above"/></g></g><g class="polarlayer"/><g class="smithlayer"/><g class="ternarylayer"/><g class="geolayer"/><g class="funnelarealayer"/><g class="pielayer"/><g class="iciclelayer"/><g class="treemaplayer"/><g class="sunburstlayer"/><g class="glimages"/><defs id="topdefs-5c59ab"><g class="clips"/></defs><g class="layer-above"><g class="imagelayer"/><g class="shapelayer"/></g><g class="infolayer"><g class="g-gtitle"><text class="gtitle" x="15" y="25" text-anchor="start" dy="0em" style="font-family: Ubuntu, verdana, arial, sans-serif; font-size: 16px; fill: rgb(233, 84, 32); opacity: 1; font-weight: normal; white-space: pre;">Prezident/ka 2024</text></g><g class="g-xtitle"/><g class="g-ytitle"/></g></svg>