<svg class="main-svg" xmlns="http://www.w3.org/2000/svg" xmlns:xlink="http://www.w3.org/1999/xlink" width="300" height="135" style="" viewBox="0 0 300 135"><rect x="0" y="0" width="300" height="135" style="fill: rgb(255, 255, 255); fill-opacity: 1;"/><defs id="defs-2c4a89"><g class="clips"><clipPath id="clip2c4a89xyplot" class="plotclip"><rect width="280" height="75"/></clipPath><clipPath class="axesclip" id="clip2c4a89x"><rect x="10" y="0" width="280" height="135"/></clipPath><clipPath class="axesclip" id="clip2c4a89y"><rect x="0" y="50" width="300" height="75"/></clipPath><clipPath class="axesclip" id="clip2c4a89xy"><rect x="10" y="50" width="280" height="75"/></clipPath></g><g class="gradients"/><g class="patterns"/></defs><g class="bglayer"/><g class="layer-below"><g class="imagelayer"/><g class="shapelayer"/></g><g class="cartesianlayer"><g class="subplot xy"><g class="layer-subplot"><g class="shapelayer"/><g class="imagelayer"/></g><g class="minor-gridlayer"><g class="x"/><g class="y"/></g><g class="gridlayer"><g class="x"><path class="xgrid crisp" transform="translate(22.9,0)" d="M0,50v75" style="stroke: rgb(235, 240, 248); stroke-opacity: 1; stroke-width: 1px;"/><path class="xgrid crisp" transform="translate(102.9,0)" d="M0,50v75" style="stroke: rgb(235, 240, 248); stroke-opacity: 1; stroke-width: 1px;"/><path class="xgrid crisp" transform="translate(181.61,0)" d="M0,50v75" style="stroke: rgb(235, 240, 248); stroke-opacity: 1; stroke-width: 1px;"/><path class="xgrid crisp" transform="translate(260.32,0)" d="M0,50v75" style="stroke: rgb(235, 240, 248); stroke-opacity: 1; stroke-width: 1px;"/></g><g class="y"><path class="ygrid crisp" transform="translate(0,102.77000000000001)" d="M10,0h280" style="stroke: rgb(235, 240, 248); stroke-opacity: 1; stroke-width: 1px;"/><path class="ygrid crisp" transform="translate(0,80.53999999999999)" d="M10,0h280" style="stroke: rgb(235, 240, 248); stroke-opacity: 1; stroke-width: 1px;"/><path class="ygrid crisp" transform="translate(0,58.31)" d="M10,0h280" style="stroke: rgb(235, 240, 248); stroke-opacity: 1; stroke-width: 1px;"/></g></g><g class="zerolinelayer"><path class="yzl zl crisp" transform="translate(0,125)" d="M10,0h280" style="stroke: rgb(235, 240, 248); stroke-opacity: 1; stroke-width: 2px;"/></g><path class="xlines-below"/><path class="ylines-below"/><g class="overlines-below"/><g class="xaxislayer-below"/><g class="yaxislayer-below"/><g class="overaxes-below"/><g class="plot" transform="translate(10,50)" clip-path="url(#clip2c4a89xyplot)"><g class="scatterlayer mlayer"><g class="trace scatter trace1973d3" style="stroke-miterlimit: 2; opacity: 1;"><g class="fills"/><g class="errorbars"/><g class="lines"><path class="js-line" d="M0,51.77L3.87,48.88L5.16,48.88L10.32,49.1L11.61,48.32L29.68,47.43L30.97,46.77L55.48,45.99L56.77,41.32L72.26,41.32L74.84,44.54L78.71,43.88L80,43.88L89.03,43.65L90.32,46.1L92.9,47.32L94.19,46.88L95.48,46.43L96.77,47.43L130.32,46.77L131.61,44.54L134.19,45.43L135.48,45.43L136.77,45.21L138.06,41.54L140.65,39.32L141.94,39.32L143.23,38.76L144.52,35.1L147.1,32.98L148.39,32.98L152.26,32.32L153.55,31.32L157.42,28.87L158.71,28.87L169.03,29.2L170.32,30.32L180.65,30.32L181.94,28.76L183.23,28.76L184.52,26.09L189.68,26.09L190.97,23.09L198.71,23.09L200,21.31L207.74,18.42L209.03,18.42L211.61,14.64L212.9,14.64L214.19,12.75L215.48,8.2L227.1,8.2L228.39,9.86L230.97,10.64L232.26,10.64L234.84,12.86L236.13,13.53L242.58,12.31L243.87,12.31L251.61,12.42L252.9,8.75L255.48,5.08L256.77,4.97L260.65,5.86L261.94,3.75L265.81,4.75L267.1,5.64L269.68,6.75L270.97,10.53L272.26,11.86L273.55,10.53L276.13,10.64L277.42,8.86L280,8.86" style="vector-effect: none; fill: none; stroke: rgb(138, 44, 81); stroke-opacity: 1; stroke-width: 5px; opacity: 1;"/></g><g class="points"/><g class="text"/></g><g class="trace scatter traced9f542" style="stroke-miterlimit: 2; opacity: 1;"><g class="fills"/><g class="errorbars"/><g class="lines"><path class="js-line" d="M0,26.54L5.16,28.09L6.45,28.09L10.32,27.87L11.61,27.2L74.84,28.2L76.13,31.32L89.03,30.32L90.32,27.76L92.9,23.98L94.19,24.98L95.48,25.98L96.77,22.65L108.39,22.65L109.68,24.31L110.97,24.31L112.26,22.65L113.55,24.31L114.84,22.31L117.42,21.87L118.71,23.98L121.29,21.87L122.58,21.87L123.87,21.87L125.16,23.98L126.45,23.98L127.74,21.87L130.32,23.98L131.61,21.98L134.19,24.54L135.48,24.54L143.23,25.76L144.52,27.65L148.39,28.43L149.68,28.43L166.45,29.2L167.74,29.87L198.71,30.87L200,32.65L209.03,34.98L210.32,32.87L214.19,33.98L215.48,35.43L227.1,35.43L228.39,33.87L230.97,32.98L232.26,32.98L233.55,32.54L234.84,29.98L237.42,29.43L238.71,29.76L251.61,29.2L252.9,32.09L255.48,35.43L256.77,35.54L259.35,33.76L260.65,32.98L263.23,35.1L264.52,34.54L269.68,32.09L270.97,28.32L272.26,26.98L273.55,28.32L276.13,28.2L277.42,29.98L280,29.98" style="vector-effect: none; fill: none; stroke: rgb(0, 174, 239); stroke-opacity: 1; stroke-width: 5px; opacity: 1;"/></g><g class="points"/><g class="text"/></g><g class="trace scatter trace7e5c45" style="stroke-miterlimit: 2; opacity: 1;"><g class="fills"/><g class="errorbars"/><g class="lines"><path class="js-line" d="M0,66.22L7.74,66.44L9.03,64.88L11.61,68.33L12.9,68.33L92.9,68.89L94.19,69.33L96.77,69L98.06,69L138.06,70.11L139.35,70.33L153.55,71.55L154.84,71.78L160,72.11L161.29,72.11L209.03,73.33L210.32,73.67L214.19,73.89" style="vector-effect: none; fill: none; stroke: rgb(202, 166, 105); stroke-opacity: 1; stroke-width: 5px; opacity: 1;"/></g><g class="points"/><g class="text"/></g><g class="trace scatter tracef90ff5" style="stroke-miterlimit: 2; opacity: 1;"><g class="fills"/><g class="errorbars"/><g class="lines"><path class="js-line" d="M0,63.77L9.03,64.88L10.32,64.22L14.19,63.55L15.48,63.55L55.48,63.77L56.77,65.11L74.84,64.22L76.13,56.99L90.32,57.66L91.61,58.33L114.84,58.66L116.13,59.1L130.32,58.33L131.61,61.55L134.19,59.33L135.48,59.33L136.77,59.44L138.06,61.11L140.65,62.44L141.94,62.44L143.23,62.11L144.52,63.22L152.26,63.33L153.55,63.22L162.58,63.88L163.87,63.88L166.45,63.44L167.74,62.44L169.03,62.44L170.32,60.88L180.65,60.88L181.94,62.33L188.39,64.33L189.68,64.33L192.26,65.22L193.55,65.22L209.03,65.55L210.32,69L233.55,70.11L234.84,71.11L251.61,72.22L252.9,73L259.35,73.55" style="vector-effect: none; fill: none; stroke: rgb(255, 1, 170); stroke-opacity: 1; stroke-width: 5px; opacity: 1;"/></g><g class="points"/><g class="text"/></g><g class="trace scatter trace9b4dfa" style="stroke-miterlimit: 2; opacity: 1;"><g class="fills"/><g class="errorbars"/><g class="lines"><path class="js-line" d="M0,63.33L7.74,63.77L9.03,63.33L33.55,64.66L34.84,64.66L55.48,64.44L56.77,66.11L74.84,65.44L76.13,66.89L90.32,67.22L91.61,68.44L94.19,67.77L95.48,67.11L98.06,69L99.35,69L131.61,68.11L132.9,67.33L138.06,68.55L139.35,69.11L152.26,70.33L153.55,70.78L162.58,71.55L163.87,71.55L209.03,71.55L210.32,73.67L214.19,73.89" style="vector-effect: none; fill: none; stroke: rgb(238, 58, 67); stroke-opacity: 1; stroke-width: 5px; opacity: 1;"/></g><g class="points"/><g class="text"/></g></g></g><g class="overplot"/><path class="xlines-above crisp" d="M0,0" style="fill: none;"/><path class="ylines-above crisp" d="M0,0" style="fill: none;"/><g class="overlines-above"/><g class="xaxislayer-above"/><g class="yaxislayer-above"/><g class="overaxes-above"/></g></g><g class="polarlayer"/><g class="smithlayer"/><g class="ternarylayer"/><g class="geolayer"/><g class="funnelarealayer"/><g class="pielayer"/><g class="iciclelayer"/><g class="treemaplayer"/><g class="sunburstlayer"/><g class="glimages"/><defs id="topdefs-2c4a89"><g class="clips"/></defs><g class="layer-above"><g class="imagelayer"/><g class="shapelayer"/></g><g class="infolayer"><g class="g-gtitle"><text class="gtitle" x="15" y="25" text-anchor="start" dy="0em" style="font-family: Ubuntu, verdana, arial, sans-serif; font-size: 16px; fill: rgb(233, 84, 32); opacity: 1; font-weight: normal; white-space: pre;">Prezident/ka 2024</text></g><g class="g-xtitle"/><g class="g-ytitle"/></g></svg>