<svg class="main-svg" xmlns="http://www.w3.org/2000/svg" xmlns:xlink="http://www.w3.org/1999/xlink" width="1200" height="600" style="" viewBox="0 0 1200 600"><rect x="0" y="0" width="1200" height="600" style="fill: rgb(255, 255, 255); fill-opacity: 1;"/><defs id="defs-621a42"><g class="clips"><clipPath id="clip621a42xyplot" class="plotclip"><rect width="990" height="530"/></clipPath><clipPath class="axesclip" id="clip621a42x"><rect x="50" y="0" width="990" height="600"/></clipPath><clipPath class="axesclip" id="clip621a42y"><rect x="0" y="20" width="1200" height="530"/></clipPath><clipPath class="axesclip" id="clip621a42xy"><rect x="50" y="20" width="990" height="530"/></clipPath></g><g class="gradients"/><g class="patterns"/></defs><g class="bglayer"/><g class="layer-below"><g class="imagelayer"/><g class="shapelayer"/></g><g class="cartesianlayer"><g class="subplot xy"><g class="layer-subplot"><g class="shapelayer"/><g class="imagelayer"/></g><g class="minor-gridlayer"><g class="x"/><g class="y"/></g><g class="gridlayer"><g class="x"><path class="xgrid crisp" transform="translate(83,0)" d="M0,20v530" style="stroke: rgb(235, 240, 248); stroke-opacity: 1; stroke-width: 1px;"/><path class="xgrid crisp" transform="translate(185.3,0)" d="M0,20v530" style="stroke: rgb(235, 240, 248); stroke-opacity: 1; stroke-width: 1px;"/><path class="xgrid crisp" transform="translate(287.6,0)" d="M0,20v530" style="stroke: rgb(235, 240, 248); stroke-opacity: 1; stroke-width: 1px;"/><path class="xgrid crisp" transform="translate(386.6,0)" d="M0,20v530" style="stroke: rgb(235, 240, 248); stroke-opacity: 1; stroke-width: 1px;"/><path class="xgrid crisp" transform="translate(488.9,0)" d="M0,20v530" style="stroke: rgb(235, 240, 248); stroke-opacity: 1; stroke-width: 1px;"/><path class="xgrid crisp" transform="translate(587.9,0)" d="M0,20v530" style="stroke: rgb(235, 240, 248); stroke-opacity: 1; stroke-width: 1px;"/><path class="xgrid crisp" transform="translate(690.2,0)" d="M0,20v530" style="stroke: rgb(235, 240, 248); stroke-opacity: 1; stroke-width: 1px;"/><path class="xgrid crisp" transform="translate(792.5,0)" d="M0,20v530" style="stroke: rgb(235, 240, 248); stroke-opacity: 1; stroke-width: 1px;"/><path class="xgrid crisp" transform="translate(888.2,0)" d="M0,20v530" style="stroke: rgb(235, 240, 248); stroke-opacity: 1; stroke-width: 1px;"/><path class="xgrid crisp" transform="translate(990.5,0)" d="M0,20v530" style="stroke: rgb(235, 240, 248); stroke-opacity: 1; stroke-width: 1px;"/></g><g class="y"><path class="ygrid crisp" transform="translate(0,444.67)" d="M50,0h990" style="stroke: rgb(235, 240, 248); stroke-opacity: 1; stroke-width: 1px;"/><path class="ygrid crisp" transform="translate(0,339.33)" d="M50,0h990" style="stroke: rgb(235, 240, 248); stroke-opacity: 1; stroke-width: 1px;"/><path class="ygrid crisp" transform="translate(0,234)" d="M50,0h990" style="stroke: rgb(235, 240, 248); stroke-opacity: 1; stroke-width: 1px;"/><path class="ygrid crisp" transform="translate(0,128.66)" d="M50,0h990" style="stroke: rgb(235, 240, 248); stroke-opacity: 1; stroke-width: 1px;"/><path class="ygrid crisp" transform="translate(0,23.33)" d="M50,0h990" style="stroke: rgb(235, 240, 248); stroke-opacity: 1; stroke-width: 1px;"/></g></g><g class="zerolinelayer"><path class="yzl zl crisp" transform="translate(0,550)" d="M50,0h990" style="stroke: rgb(235, 240, 248); stroke-opacity: 1; stroke-width: 2px;"/></g><path class="xlines-below"/><path class="ylines-below"/><g class="overlines-below"/><g class="xaxislayer-below"/><g class="yaxislayer-below"/><g class="overaxes-below"/><g class="plot" transform="translate(50,20)" clip-path="url(#clip621a42xyplot)"><g class="scatterlayer mlayer"><g class="trace scatter trace96d163" style="stroke-miterlimit: 2; opacity: 1;"><g class="fills"/><g class="errorbars"/><g class="lines"><path class="js-line" d="M0,309.85L6.6,282.46L9.9,282.46L19.8,282.46L23.1,289.84L29.7,277.2L33,277.2L46.2,277.2L49.5,274.04L59.4,274.04L62.7,270.88L66,268.77L69.3,268.77L75.9,268.77L79.2,262.45L122.1,262.45L125.4,255.08L141.9,255.08L145.2,210.84L184.8,210.84L191.4,241.38L194.7,235.06L201.3,235.06L224.4,234.01L227.7,232.96L231,256.13L234.3,267.72L237.6,267.72L240.9,263.5L244.2,259.29L247.5,268.77L277.2,268.77L280.5,264.56L283.8,264.56L287.1,268.77L290.4,264.56L293.7,267.72L297,264.56L300.3,264.56L303.6,262.45L306.9,264.56L316.8,264.56L320.1,262.45L323.4,262.45L326.7,264.56L330,262.45L333.3,262.45L336.6,241.38L339.9,249.81L346.5,249.81L349.8,247.7L353.1,212.94L356.4,191.88L363,191.88L366.3,186.61L369.6,151.85L372.9,134.99L376.2,131.83L379.5,131.83L386.1,131.83L389.4,125.51L396,107.61L399.3,92.86L425.7,93.91L429,96.02L432.3,96.02L435.6,106.55L462,106.55L465.3,91.81L468.6,91.81L471.9,66.53L485.1,66.53L488.4,38.09L504.9,38.09" style="vector-effect: none; fill: none; stroke: rgb(138, 44, 81); stroke-opacity: 1; stroke-width: 5px; opacity: 1;"/></g><g class="points"/><g class="text"/></g><g class="trace scatter trace6aa74e" style="stroke-miterlimit: 2; opacity: 1;"><g class="fills"/><g class="errorbars"/><g class="lines"><path class="js-line" d="M0,70.74L6.6,85.49L9.9,85.49L19.8,85.49L23.1,92.86L29.7,77.06L33,77.06L59.4,77.06L62.7,79.17L66,81.27L69.3,81.27L75.9,81.27L79.2,86.54L191.4,86.54L194.7,116.03L221.1,116.03L224.4,110.77L227.7,106.55L231,82.33L234.3,46.51L237.6,46.51L244.2,65.47L247.5,33.87L277.2,33.87L280.5,49.67L283.8,49.67L287.1,33.87L290.4,49.67L293.7,30.71L297,26.5L300.3,26.5L303.6,46.51L306.9,26.5L316.8,26.5L320.1,46.51L323.4,46.51L326.7,26.5L330,46.51L333.3,46.51L336.6,27.55L339.9,51.78L349.8,51.78L353.1,58.1L363,58.1L366.3,63.37L369.6,81.27L372.9,87.59L379.5,88.65L382.8,88.65L392.7,88.65L396,91.81L402.6,92.86L405.9,92.86L422.4,92.86L425.7,96.02L429,102.34L432.3,102.34L435.6,106.55L442.2,106.55L465.3,107.61L468.6,103.39L471.9,113.93L475.2,113.93L485.1,113.93L488.4,111.82L504.9,111.82" style="vector-effect: none; fill: none; stroke: rgb(0, 174, 239); stroke-opacity: 1; stroke-width: 5px; opacity: 1;"/></g><g class="points"/><g class="text"/></g><g class="trace scatter trace58d761" style="stroke-miterlimit: 2; opacity: 1;"><g class="fills"/><g class="errorbars"/><g class="lines"><path class="js-line" d="M0,423.61L6.6,426.77L9.9,426.77L19.8,426.77L23.1,434.15L29.7,421.51L33,421.51L46.2,421.51L49.5,423.61L62.7,422.56L66,421.51L122.1,421.51L125.4,423.61L141.9,423.61L145.2,436.25L184.8,436.25L191.4,427.83L194.7,359.36L201.3,359.36L221.1,359.36L224.4,362.52L227.7,365.68L231,365.68L234.3,372L237.6,372L244.2,364.62L247.5,373.05L277.2,373.05L280.5,368.84L283.8,368.84L287.1,373.05L290.4,368.84L293.7,375.16L297,379.37L300.3,379.37L303.6,372L306.9,379.37L316.8,379.37L320.1,372L323.4,372L326.7,379.37L330,372L333.3,372L336.6,402.54L339.9,381.48L349.8,382.53L353.1,398.33L356.4,410.97L359.7,410.97L363,410.97L366.3,407.81L369.6,418.35L372.9,420.45L389.4,419.4L392.7,418.35L396,420.45L399.3,424.67L422.4,424.67L425.7,420.45L429,410.97L432.3,410.97L435.6,396.22L442.2,396.22L462,396.22L465.3,409.92L468.6,414.13L471.9,428.88L485.1,428.88L488.4,437.31L504.9,437.31" style="vector-effect: none; fill: none; stroke: rgb(255, 1, 170); stroke-opacity: 1; stroke-width: 5px; opacity: 1;"/></g><g class="points"/><g class="text"/></g><g class="trace scatter trace5eaa7e" style="stroke-miterlimit: 2; opacity: 1;"><g class="fills"/><g class="errorbars"/><g class="lines"><path class="js-line" d="M0,419.4L6.6,423.61L9.9,423.61L19.8,423.61L23.1,419.4L26.4,420.45L29.7,425.72L59.4,426.77L62.7,429.93L66,432.04L69.3,432.04L122.1,432.04L125.4,429.93L141.9,429.93L145.2,445.73L184.8,445.73L191.4,439.41L194.7,453.11L201.3,453.11L224.4,454.16L227.7,456.27L231,456.27L234.3,467.85L237.6,467.85L240.9,461.53L244.2,455.21L247.5,473.12L277.2,473.12L280.5,464.69L283.8,464.69L287.1,473.12L290.4,464.69L293.7,472.07L300.3,472.07L303.6,463.64L306.9,472.07L310.2,472.07L316.8,472.07L320.1,463.64L323.4,463.64L326.7,472.07L330,463.64L333.3,463.64L336.6,464.69L339.9,457.32L349.8,458.37L353.1,468.91L356.4,474.17L359.7,474.17L363,474.17L366.3,476.28L372.9,482.6L376.2,483.65L386.1,483.65L389.4,485.76L392.7,489.97L396,492.08L399.3,497.35L402.6,497.35L485.1,497.35L488.4,496.29L504.9,496.29" style="vector-effect: none; fill: none; stroke: rgb(238, 58, 67); stroke-opacity: 1; stroke-width: 5px; opacity: 1;"/></g><g class="points"/><g class="text"/></g><g class="trace scatter tracea29472" style="stroke-miterlimit: 2; opacity: 1;"><g class="fills"/><g class="errorbars"/><g class="lines"><path class="js-line" d="M0,446.79L9.9,448.89L13.2,448.89L19.8,448.89L23.1,434.15L29.7,466.8L33,466.8L62.7,465.75L66,464.69L141.9,463.64L145.2,468.91L184.8,468.91L191.4,466.8L194.7,471.01L201.3,471.01L224.4,472.07L227.7,473.12L237.6,472.07L240.9,476.28L244.2,480.49L247.5,473.12L277.2,473.12L280.5,476.28L283.8,476.28L287.1,473.12L290.4,476.28L293.7,475.23L297,479.44L300.3,479.44L303.6,480.49L306.9,479.44L333.3,480.49L336.6,483.65L353.1,483.65L356.4,485.76L366.3,486.81L369.6,487.87L372.9,491.03L376.2,492.08L386.1,492.08L389.4,494.19L399.3,502.61L402.6,502.61L485.1,502.61L488.4,513.15L504.9,513.15" style="vector-effect: none; fill: none; stroke: rgb(202, 166, 105); stroke-opacity: 1; stroke-width: 5px; opacity: 1;"/></g><g class="points"/><g class="text"/></g><g class="trace scatter tracec40148" style="stroke-miterlimit: 2; opacity: 1;"><g class="fills"/><g class="errorbars"/><g class="lines"><path class="js-line" d="M0,456.27L9.9,459.43L13.2,459.43L23.1,458.37L26.4,456.27L33,457.32L36.3,457.32L46.2,457.32L49.5,459.43L75.9,458.37L79.2,460.48L122.1,460.48L125.4,468.91L141.9,468.91L145.2,477.33L184.8,477.33L191.4,464.69L194.7,492.08L201.3,492.08L231,493.13L234.3,500.51L244.2,500.51L247.5,504.72L277.2,504.72L280.5,502.61L283.8,502.61L287.1,504.72L290.4,502.61L293.7,504.72L300.3,504.72L303.6,502.61L306.9,504.72L310.2,504.72L316.8,504.72L320.1,502.61L323.4,502.61L326.7,504.72L330,502.61L333.3,502.61L336.6,505.77L339.9,503.67L363,504.72L366.3,505.77L372.9,508.93L376.2,509.99L386.1,509.99L389.4,512.09L392.7,516.31L396,516.31L402.6,517.36L405.9,517.36L485.1,516.31" style="vector-effect: none; fill: none; stroke: rgb(255, 192, 203); stroke-opacity: 1; stroke-width: 5px; opacity: 1;"/></g><g class="points"/><g class="text"/></g></g></g><g class="overplot"/><path class="xlines-above crisp" d="M0,0" style="fill: none;"/><path class="ylines-above crisp" d="M0,0" style="fill: none;"/><g class="overlines-above"/><g class="xaxislayer-above"><g class="xtick"><text text-anchor="middle" x="0" y="563" transform="translate(83,0)" style="font-family: 'Open Sans', verdana, arial, sans-serif; font-size: 12px; fill: rgb(42, 63, 95); fill-opacity: 1; white-space: pre; opacity: 1;">1.7.23</text></g><g class="xtick"><text text-anchor="middle" x="0" y="563" style="font-family: 'Open Sans', verdana, arial, sans-serif; font-size: 12px; fill: rgb(42, 63, 95); fill-opacity: 1; white-space: pre; opacity: 1;" transform="translate(185.3,0)">1.8.23</text></g><g class="xtick"><text text-anchor="middle" x="0" y="563" style="font-family: 'Open Sans', verdana, arial, sans-serif; font-size: 12px; fill: rgb(42, 63, 95); fill-opacity: 1; white-space: pre; opacity: 1;" transform="translate(287.6,0)">1.9.23</text></g><g class="xtick"><text text-anchor="middle" x="0" y="563" style="font-family: 'Open Sans', verdana, arial, sans-serif; font-size: 12px; fill: rgb(42, 63, 95); fill-opacity: 1; white-space: pre; opacity: 1;" transform="translate(386.6,0)">1.10.23</text></g><g class="xtick"><text text-anchor="middle" x="0" y="563" style="font-family: 'Open Sans', verdana, arial, sans-serif; font-size: 12px; fill: rgb(42, 63, 95); fill-opacity: 1; white-space: pre; opacity: 1;" transform="translate(488.9,0)">1.11.23</text></g><g class="xtick"><text text-anchor="middle" x="0" y="563" style="font-family: 'Open Sans', verdana, arial, sans-serif; font-size: 12px; fill: rgb(42, 63, 95); fill-opacity: 1; white-space: pre; opacity: 1;" transform="translate(587.9,0)">1.12.23</text></g><g class="xtick"><text text-anchor="middle" x="0" y="563" style="font-family: 'Open Sans', verdana, arial, sans-serif; font-size: 12px; fill: rgb(42, 63, 95); fill-opacity: 1; white-space: pre; opacity: 1;" transform="translate(690.2,0)">1.1.24</text></g><g class="xtick"><text text-anchor="middle" x="0" y="563" style="font-family: 'Open Sans', verdana, arial, sans-serif; font-size: 12px; fill: rgb(42, 63, 95); fill-opacity: 1; white-space: pre; opacity: 1;" transform="translate(792.5,0)">1.2.24</text></g><g class="xtick"><text text-anchor="middle" x="0" y="563" style="font-family: 'Open Sans', verdana, arial, sans-serif; font-size: 12px; fill: rgb(42, 63, 95); fill-opacity: 1; white-space: pre; opacity: 1;" transform="translate(888.2,0)">1.3.24</text></g><g class="xtick"><text text-anchor="middle" x="0" y="563" style="font-family: 'Open Sans', verdana, arial, sans-serif; font-size: 12px; fill: rgb(42, 63, 95); fill-opacity: 1; white-space: pre; opacity: 1;" transform="translate(990.5,0)">1.4.24</text></g></g><g class="yaxislayer-above"><g class="ytick"><text text-anchor="end" x="49" y="4.199999999999999" transform="translate(0,550)" style="font-family: 'Open Sans', verdana, arial, sans-serif; font-size: 12px; fill: rgb(42, 63, 95); fill-opacity: 1; white-space: pre; opacity: 1;">0%</text></g><g class="ytick"><text text-anchor="end" x="49" y="4.199999999999999" style="font-family: 'Open Sans', verdana, arial, sans-serif; font-size: 12px; fill: rgb(42, 63, 95); fill-opacity: 1; white-space: pre; opacity: 1;" transform="translate(0,444.67)">10%</text></g><g class="ytick"><text text-anchor="end" x="49" y="4.199999999999999" style="font-family: 'Open Sans', verdana, arial, sans-serif; font-size: 12px; fill: rgb(42, 63, 95); fill-opacity: 1; white-space: pre; opacity: 1;" transform="translate(0,339.33)">20%</text></g><g class="ytick"><text text-anchor="end" x="49" y="4.199999999999999" style="font-family: 'Open Sans', verdana, arial, sans-serif; font-size: 12px; fill: rgb(42, 63, 95); fill-opacity: 1; white-space: pre; opacity: 1;" transform="translate(0,234)">30%</text></g><g class="ytick"><text text-anchor="end" x="49" y="4.199999999999999" style="font-family: 'Open Sans', verdana, arial, sans-serif; font-size: 12px; fill: rgb(42, 63, 95); fill-opacity: 1; white-space: pre; opacity: 1;" transform="translate(0,128.66)">40%</text></g><g class="ytick"><text text-anchor="end" x="49" y="4.199999999999999" style="font-family: 'Open Sans', verdana, arial, sans-serif; font-size: 12px; fill: rgb(42, 63, 95); fill-opacity: 1; white-space: pre; opacity: 1;" transform="translate(0,23.33)">50%</text></g></g><g class="overaxes-above"/></g></g><g class="polarlayer"/><g class="smithlayer"/><g class="ternarylayer"/><g class="geolayer"/><g class="funnelarealayer"/><g class="pielayer"/><g class="iciclelayer"/><g class="treemaplayer"/><g class="sunburstlayer"/><g class="glimages"/><defs id="topdefs-621a42"><g class="clips"/><clipPath id="legend621a42"><rect width="128" height="124" x="0" y="0"/></clipPath></defs><g class="layer-above"><g class="imagelayer"/><g class="shapelayer"/></g><g class="infolayer"><g class="legend" pointer-events="all" transform="translate(1059.8000000000002,20)"><rect class="bg" shape-rendering="crispEdges" style="stroke: rgb(68, 68, 68); stroke-opacity: 1; fill: rgb(255, 255, 255); fill-opacity: 1; stroke-width: 0px;" width="128" height="124" x="0" y="0"/><g class="scrollbox" transform="" clip-path="url(#legend621a42)"><g class="groups"><g class="traces" transform="translate(0,14.5)" style="opacity: 1;"><text class="legendtext" text-anchor="start" x="40" y="4.680000000000001" style="font-family: 'Open Sans', verdana, arial, sans-serif; font-size: 12px; fill: rgb(42, 63, 95); fill-opacity: 1; white-space: pre;">Pellegrini Peter</text><g class="layers" style="opacity: 1;"><g class="legendfill"/><g class="legendlines"><path class="js-line" d="M5,0h30" style="fill: none; stroke: rgb(138, 44, 81); stroke-opacity: 1; stroke-width: 5px;"/></g><g class="legendsymbols"><g class="legendpoints"/></g></g><rect class="legendtoggle" x="0" y="-9.5" width="122.703125" height="19" style="fill: rgb(0, 0, 0); fill-opacity: 0;"/></g><g class="traces" transform="translate(0,33.5)" style="opacity: 1;"><text class="legendtext" text-anchor="start" x="40" y="4.680000000000001" style="font-family: 'Open Sans', verdana, arial, sans-serif; font-size: 12px; fill: rgb(42, 63, 95); fill-opacity: 1; white-space: pre;">Korčok Ivan</text><g class="layers" style="opacity: 1;"><g class="legendfill"/><g class="legendlines"><path class="js-line" d="M5,0h30" style="fill: none; stroke: rgb(0, 174, 239); stroke-opacity: 1; stroke-width: 5px;"/></g><g class="legendsymbols"><g class="legendpoints"/></g></g><rect class="legendtoggle" x="0" y="-9.5" width="122.703125" height="19" style="fill: rgb(0, 0, 0); fill-opacity: 0;"/></g><g class="traces" transform="translate(0,52.5)" style="opacity: 1;"><text class="legendtext" text-anchor="start" x="40" y="4.680000000000001" style="font-family: 'Open Sans', verdana, arial, sans-serif; font-size: 12px; fill: rgb(42, 63, 95); fill-opacity: 1; white-space: pre;">Kubiš Ján</text><g class="layers" style="opacity: 1;"><g class="legendfill"/><g class="legendlines"><path class="js-line" d="M5,0h30" style="fill: none; stroke: rgb(255, 1, 170); stroke-opacity: 1; stroke-width: 5px;"/></g><g class="legendsymbols"><g class="legendpoints"/></g></g><rect class="legendtoggle" x="0" y="-9.5" width="122.703125" height="19" style="fill: rgb(0, 0, 0); fill-opacity: 0;"/></g><g class="traces" transform="translate(0,71.5)" style="opacity: 1;"><text class="legendtext" text-anchor="start" x="40" y="4.680000000000001" style="font-family: 'Open Sans', verdana, arial, sans-serif; font-size: 12px; fill: rgb(42, 63, 95); fill-opacity: 1; white-space: pre;">Fico Robert</text><g class="layers" style="opacity: 1;"><g class="legendfill"/><g class="legendlines"><path class="js-line" d="M5,0h30" style="fill: none; stroke: rgb(238, 58, 67); stroke-opacity: 1; stroke-width: 5px;"/></g><g class="legendsymbols"><g class="legendpoints"/></g></g><rect class="legendtoggle" x="0" y="-9.5" width="122.703125" height="19" style="fill: rgb(0, 0, 0); fill-opacity: 0;"/></g><g class="traces" transform="translate(0,90.5)" style="opacity: 1;"><text class="legendtext" text-anchor="start" x="40" y="4.680000000000001" style="font-family: 'Open Sans', verdana, arial, sans-serif; font-size: 12px; fill: rgb(42, 63, 95); fill-opacity: 1; white-space: pre;">Mistrík Robert</text><g class="layers" style="opacity: 1;"><g class="legendfill"/><g class="legendlines"><path class="js-line" d="M5,0h30" style="fill: none; stroke: rgb(202, 166, 105); stroke-opacity: 1; stroke-width: 5px;"/></g><g class="legendsymbols"><g class="legendpoints"/></g></g><rect class="legendtoggle" x="0" y="-9.5" width="122.703125" height="19" style="fill: rgb(0, 0, 0); fill-opacity: 0;"/></g><g class="traces" transform="translate(0,109.5)" style="opacity: 1;"><text class="legendtext" text-anchor="start" x="40" y="4.680000000000001" style="font-family: 'Open Sans', verdana, arial, sans-serif; font-size: 12px; fill: rgb(42, 63, 95); fill-opacity: 1; white-space: pre;">Lajčák Miroslav</text><g class="layers" style="opacity: 1;"><g class="legendfill"/><g class="legendlines"><path class="js-line" d="M5,0h30" style="fill: none; stroke: rgb(255, 192, 203); stroke-opacity: 1; stroke-width: 5px;"/></g><g class="legendsymbols"><g class="legendpoints"/></g></g><rect class="legendtoggle" x="0" y="-9.5" width="122.703125" height="19" style="fill: rgb(0, 0, 0); fill-opacity: 0;"/></g></g></g><rect class="scrollbar" rx="20" ry="3" width="0" height="0" style="fill: rgb(128, 139, 164); fill-opacity: 1;" x="0" y="0"/></g><g class="g-gtitle"/><g class="g-xtitle"/><g class="g-ytitle"/></g></svg>