<svg class="main-svg" xmlns="http://www.w3.org/2000/svg" xmlns:xlink="http://www.w3.org/1999/xlink" width="300" height="135" style="" viewBox="0 0 300 135"><rect x="0" y="0" width="300" height="135" style="fill: rgb(255, 255, 255); fill-opacity: 1;"/><defs id="defs-3de42c"><g class="clips"><clipPath id="clip3de42cxyplot" class="plotclip"><rect width="280" height="75"/></clipPath><clipPath class="axesclip" id="clip3de42cx"><rect x="10" y="0" width="280" height="135"/></clipPath><clipPath class="axesclip" id="clip3de42cy"><rect x="0" y="50" width="300" height="75"/></clipPath><clipPath class="axesclip" id="clip3de42cxy"><rect x="10" y="50" width="280" height="75"/></clipPath></g><g class="gradients"/><g class="patterns"/></defs><g class="bglayer"/><g class="layer-below"><g class="imagelayer"/><g class="shapelayer"/></g><g class="cartesianlayer"><g class="subplot xy"><g class="layer-subplot"><g class="shapelayer"/><g class="imagelayer"/></g><g class="minor-gridlayer"><g class="x"/><g class="y"/></g><g class="gridlayer"><g class="x"><path class="xgrid crisp" transform="translate(26.77,0)" d="M0,50v75" style="stroke: rgb(235, 240, 248); stroke-opacity: 1; stroke-width: 1px;"/><path class="xgrid crisp" transform="translate(130.72,0)" d="M0,50v75" style="stroke: rgb(235, 240, 248); stroke-opacity: 1; stroke-width: 1px;"/><path class="xgrid crisp" transform="translate(232.99,0)" d="M0,50v75" style="stroke: rgb(235, 240, 248); stroke-opacity: 1; stroke-width: 1px;"/></g><g class="y"><path class="ygrid crisp" transform="translate(0,101.28999999999999)" d="M10,0h280" style="stroke: rgb(235, 240, 248); stroke-opacity: 1; stroke-width: 1px;"/><path class="ygrid crisp" transform="translate(0,77.58)" d="M10,0h280" style="stroke: rgb(235, 240, 248); stroke-opacity: 1; stroke-width: 1px;"/><path class="ygrid crisp" transform="translate(0,53.87)" d="M10,0h280" style="stroke: rgb(235, 240, 248); stroke-opacity: 1; stroke-width: 1px;"/></g></g><g class="zerolinelayer"><path class="yzl zl crisp" transform="translate(0,125)" d="M10,0h280" style="stroke: rgb(235, 240, 248); stroke-opacity: 1; stroke-width: 2px;"/></g><path class="xlines-below"/><path class="ylines-below"/><g class="overlines-below"/><g class="xaxislayer-below"/><g class="yaxislayer-below"/><g class="overaxes-below"/><g class="plot" transform="translate(10,50)" clip-path="url(#clip3de42cxyplot)"><g class="scatterlayer mlayer"><g class="trace scatter tracee0a216" style="stroke-miterlimit: 2; opacity: 1;"><g class="fills"/><g class="errorbars"/><g class="lines"><path class="js-line" d="M0,50.22L5.03,47.14L6.71,47.14L13.41,47.38L15.09,46.55L38.56,45.6L40.24,44.89L72.1,44.06L73.77,39.08L93.89,39.08L97.25,42.52L98.92,41.81L102.28,41.81L115.69,41.57L117.37,44.18L120.72,45.48L122.4,45.01L124.07,44.53L125.75,45.6L169.34,44.89L171.02,42.52L174.37,43.47L176.05,43.47L177.72,43.23L179.4,39.32L181.08,36.94L182.75,36.94L186.11,36.35L187.78,32.44L191.14,30.19L192.81,30.19L197.84,29.48L199.52,28.41L204.55,25.8L206.23,25.8L219.64,26.16L221.32,27.34L234.73,27.34L236.41,25.68L238.08,25.68L239.76,22.84L246.47,22.84L248.14,19.64L258.2,19.64L259.88,17.74L263.23,17.03L264.91,17.03L271.62,14.66L273.29,10.63L276.65,10.63L278.32,8.61L280,3.75" style="vector-effect: none; fill: none; stroke: rgb(138, 44, 81); stroke-opacity: 1; stroke-width: 5px; opacity: 1;"/></g><g class="points"/><g class="text"/></g><g class="trace scatter tracee4cd40" style="stroke-miterlimit: 2; opacity: 1;"><g class="fills"/><g class="errorbars"/><g class="lines"><path class="js-line" d="M0,23.31L5.03,24.97L6.71,24.97L13.41,24.73L15.09,24.02L97.25,25.09L98.92,28.41L115.69,27.34L117.37,24.62L119.04,20.58L120.72,20.58L124.07,22.72L125.75,19.16L140.84,19.16L142.51,20.94L144.19,20.94L145.87,19.16L147.54,20.94L149.22,18.81L152.57,18.33L154.25,20.58L155.93,18.33L157.6,18.33L160.96,18.33L162.63,20.58L164.31,20.58L165.99,18.33L167.66,20.58L169.34,20.58L171.02,18.45L172.69,21.18L184.43,21.89L186.11,22.48L189.46,25.21L191.14,25.33L216.29,26.16L217.96,26.87L238.08,26.99L239.76,28.17L258.2,27.93L259.88,29.83L271.62,32.32L273.29,30.07L278.32,31.25L280,32.8" style="vector-effect: none; fill: none; stroke: rgb(0, 174, 239); stroke-opacity: 1; stroke-width: 5px; opacity: 1;"/></g><g class="points"/><g class="text"/></g><g class="trace scatter traced2aba0" style="stroke-miterlimit: 2; opacity: 1;"><g class="fills"/><g class="errorbars"/><g class="lines"><path class="js-line" d="M0,63.03L11.74,64.21L13.41,63.5L16.77,62.79L18.44,62.79L72.1,63.03L73.77,64.45L97.25,63.5L98.92,55.79L117.37,56.51L119.04,57.22L149.22,57.57L150.9,58.05L169.34,57.22L171.02,60.66L172.69,58.28L174.37,58.28L177.72,58.4L179.4,60.18L182.75,61.6L184.43,61.6L186.11,61.25L187.78,62.43L196.17,62.67L197.84,62.55L206.23,63.14L207.9,63.14L216.29,62.67L217.96,61.6L219.64,61.6L221.32,59.94L234.73,59.94L236.41,61.49L243.11,63.62L244.79,63.62L268.26,64.8L269.94,64.92L271.62,64.92L273.29,68.6L280,69.78" style="vector-effect: none; fill: none; stroke: rgb(255, 1, 170); stroke-opacity: 1; stroke-width: 5px; opacity: 1;"/></g><g class="points"/><g class="text"/></g><g class="trace scatter tracea7350f" style="stroke-miterlimit: 2; opacity: 1;"><g class="fills"/><g class="errorbars"/><g class="lines"><path class="js-line" d="M0,62.55L10.06,63.03L11.74,62.55L41.92,63.97L43.59,63.97L72.1,63.74L73.77,65.52L97.25,64.8L98.92,66.35L117.37,66.7L119.04,68.01L122.4,67.29L124.07,66.58L125.75,68.6L127.43,68.6L171.02,67.65L172.69,66.82L177.72,66.94L179.4,68.12L184.43,68.72L186.11,68.95L194.49,69.78L196.17,69.78L211.26,71.32L212.93,71.32L271.62,71.32L273.29,73.58L278.32,73.81" style="vector-effect: none; fill: none; stroke: rgb(238, 58, 67); stroke-opacity: 1; stroke-width: 5px; opacity: 1;"/></g><g class="points"/><g class="text"/></g><g class="trace scatter trace15c248" style="stroke-miterlimit: 2; opacity: 1;"><g class="fills"/><g class="errorbars"/><g class="lines"><path class="js-line" d="M0,65.63L10.06,65.87L11.74,64.21L15.09,67.89L16.77,67.89L120.72,68.48L122.4,68.95L124.07,69.43L125.75,68.6L179.4,69.78L181.08,70.02L197.84,70.97L199.52,71.32L211.26,71.92L212.93,71.92L266.59,73.1L268.26,73.22L278.32,73.81" style="vector-effect: none; fill: none; stroke: rgb(202, 166, 105); stroke-opacity: 1; stroke-width: 5px; opacity: 1;"/></g><g class="points"/><g class="text"/></g></g></g><g class="overplot"/><path class="xlines-above crisp" d="M0,0" style="fill: none;"/><path class="ylines-above crisp" d="M0,0" style="fill: none;"/><g class="overlines-above"/><g class="xaxislayer-above"/><g class="yaxislayer-above"/><g class="overaxes-above"/></g></g><g class="polarlayer"/><g class="smithlayer"/><g class="ternarylayer"/><g class="geolayer"/><g class="funnelarealayer"/><g class="pielayer"/><g class="iciclelayer"/><g class="treemaplayer"/><g class="sunburstlayer"/><g class="glimages"/><defs id="topdefs-3de42c"><g class="clips"/></defs><g class="layer-above"><g class="imagelayer"/><g class="shapelayer"/></g><g class="infolayer"><g class="g-gtitle"><text class="gtitle" x="15" y="25" text-anchor="start" dy="0em" style="font-family: Ubuntu, verdana, arial, sans-serif; font-size: 16px; fill: rgb(233, 84, 32); opacity: 1; font-weight: normal; white-space: pre;">Prezident/ka 2024</text></g><g class="g-xtitle"/><g class="g-ytitle"/></g></svg>