<svg class="main-svg" xmlns="http://www.w3.org/2000/svg" xmlns:xlink="http://www.w3.org/1999/xlink" width="400" height="400" style="" viewBox="0 0 400 400"><rect x="0" y="0" width="400" height="400" style="fill: rgb(255, 255, 255); fill-opacity: 1;"/><defs id="defs-7977c7"><g class="clips"><clipPath id="clip7977c7xyplot" class="plotclip"><rect width="206" height="330"/></clipPath><clipPath class="axesclip" id="clip7977c7x"><rect x="50" y="0" width="206" height="400"/></clipPath><clipPath class="axesclip" id="clip7977c7y"><rect x="0" y="20" width="400" height="330"/></clipPath><clipPath class="axesclip" id="clip7977c7xy"><rect x="50" y="20" width="206" height="330"/></clipPath></g><g class="gradients"/><g class="patterns"/></defs><g class="bglayer"/><g class="layer-below"><g class="imagelayer"/><g class="shapelayer"/></g><g class="cartesianlayer"><g class="subplot xy"><g class="layer-subplot"><g class="shapelayer"/><g class="imagelayer"/></g><g class="minor-gridlayer"><g class="x"/><g class="y"/></g><g class="gridlayer"><g class="x"><path class="xgrid crisp" transform="translate(56.87,0)" d="M0,20v330" style="stroke: rgb(235, 240, 248); stroke-opacity: 1; stroke-width: 1px;"/><path class="xgrid crisp" transform="translate(99.44,0)" d="M0,20v330" style="stroke: rgb(235, 240, 248); stroke-opacity: 1; stroke-width: 1px;"/><path class="xgrid crisp" transform="translate(141.32999999999998,0)" d="M0,20v330" style="stroke: rgb(235, 240, 248); stroke-opacity: 1; stroke-width: 1px;"/><path class="xgrid crisp" transform="translate(183.21,0)" d="M0,20v330" style="stroke: rgb(235, 240, 248); stroke-opacity: 1; stroke-width: 1px;"/><path class="xgrid crisp" transform="translate(224.41,0)" d="M0,20v330" style="stroke: rgb(235, 240, 248); stroke-opacity: 1; stroke-width: 1px;"/></g><g class="y"><path class="ygrid crisp" transform="translate(0,299.35)" d="M50,0h206" style="stroke: rgb(235, 240, 248); stroke-opacity: 1; stroke-width: 1px;"/><path class="ygrid crisp" transform="translate(0,248.71)" d="M50,0h206" style="stroke: rgb(235, 240, 248); stroke-opacity: 1; stroke-width: 1px;"/><path class="ygrid crisp" transform="translate(0,198.06)" d="M50,0h206" style="stroke: rgb(235, 240, 248); stroke-opacity: 1; stroke-width: 1px;"/><path class="ygrid crisp" transform="translate(0,147.42000000000002)" d="M50,0h206" style="stroke: rgb(235, 240, 248); stroke-opacity: 1; stroke-width: 1px;"/><path class="ygrid crisp" transform="translate(0,96.77)" d="M50,0h206" style="stroke: rgb(235, 240, 248); stroke-opacity: 1; stroke-width: 1px;"/><path class="ygrid crisp" transform="translate(0,46.120000000000005)" d="M50,0h206" style="stroke: rgb(235, 240, 248); stroke-opacity: 1; stroke-width: 1px;"/></g></g><g class="zerolinelayer"><path class="yzl zl crisp" transform="translate(0,350)" d="M50,0h206" style="stroke: rgb(235, 240, 248); stroke-opacity: 1; stroke-width: 2px;"/></g><path class="xlines-below"/><path class="ylines-below"/><g class="overlines-below"/><g class="xaxislayer-below"/><g class="yaxislayer-below"/><g class="overaxes-below"/><g class="plot" transform="translate(50,20)" clip-path="url(#clip7977c7xyplot)"><g class="scatterlayer mlayer"><g class="trace scatter traceb6e5d3" style="stroke-miterlimit: 2; opacity: 1;"><g class="fills"/><g class="errorbars"/><g class="lines"><path class="js-line" d="M0,224.15L2.06,210.98L2.75,210.98L4.12,210.98L4.81,214.53L6.87,208.45L7.55,208.45L9.61,208.45L10.3,206.93L12.36,206.93L13.05,205.41L15.11,204.4L15.79,204.4L17.17,201.36L17.85,201.36L25.41,201.36L26.09,197.81L29.53,197.81L30.21,176.54L38.45,176.54L39.83,191.23L40.51,188.19L41.89,188.19L47.38,187.18L48.07,198.32L49.44,203.89L50.13,201.87L50.81,199.84L51.5,204.4L57.68,204.4L58.37,202.37L59.05,202.37L59.74,204.4L60.43,202.37L61.11,203.89L61.8,202.37L69.35,201.36L70.04,191.23L71.41,195.28L72.1,195.28L72.79,194.27L73.47,177.55L74.85,167.43L75.53,167.43L76.22,164.89L76.91,148.18L78.97,138.56L79.65,138.56L80.34,138.56L81.03,135.52L83.77,119.82L84.46,119.82L88.58,120.32L89.27,121.34L89.95,121.34L90.64,126.4L96.13,126.4L96.82,119.31L97.51,119.31L98.19,107.16L100.94,107.16L101.63,93.48L105.75,93.48L106.43,85.38L107.81,82.34L108.49,82.34L111.24,72.21L111.93,54.99L113.3,54.99L113.99,46.38L115.36,25.62L116.05,25.62L120.85,25.62L121.54,33.21L122.91,36.76L123.6,36.76L124.29,38.78L124.97,46.89L125.66,49.93L126.35,47.9L127.03,44.36L132.53,43.34L133.21,45.87L133.9,44.86L134.59,28.15L135.27,16.5" style="vector-effect: none; fill: none; stroke: rgb(138, 44, 81); stroke-opacity: 1; stroke-width: 5px; opacity: 1;"/></g><g class="points"/><g class="text"/></g><g class="trace scatter trace718dfe" style="stroke-miterlimit: 2; opacity: 1;"><g class="fills"/><g class="errorbars"/><g class="lines"><path class="js-line" d="M0,109.18L2.06,116.27L2.75,116.27L4.12,116.27L4.81,119.82L6.87,112.22L7.55,112.22L13.05,113.23L13.73,114.25L15.79,114.25L16.48,116.78L39.83,116.78L40.51,130.96L46.01,130.96L46.69,128.43L47.38,126.4L48.07,114.75L49.44,97.53L50.13,102.09L50.81,106.65L51.5,91.46L57.68,91.46L58.37,99.05L59.05,99.05L59.74,91.46L60.43,99.05L61.11,89.94L62.49,87.91L63.17,97.53L64.55,87.91L65.23,87.91L65.92,87.91L66.61,97.53L67.29,97.53L67.98,87.91L69.35,97.53L70.04,88.42L71.41,100.07L72.1,100.07L72.79,100.07L73.47,103.11L75.53,103.11L76.22,105.64L78.28,117.79L78.97,117.79L81.71,117.79L82.4,119.31L85.15,119.82L85.83,119.82L87.89,119.82L88.58,121.34L90.64,126.4L92.01,126.4L96.82,126.91L97.51,124.88L98.88,129.95L99.57,129.95L105.75,128.93L106.43,137.04L107.81,139.06L108.49,139.06L111.24,147.67L111.93,138.05L113.3,138.05L113.99,143.12L115.36,149.7L116.05,149.7L120.85,149.7L121.54,142.61L122.91,138.56L123.6,138.56L124.29,136.53L124.97,124.88L125.66,121.34L126.35,122.35L127.03,123.87L132.53,123.87L133.21,121.34L133.9,121.34L134.59,134.51L135.27,144.63" style="vector-effect: none; fill: none; stroke: rgb(0, 174, 239); stroke-opacity: 1; stroke-width: 5px; opacity: 1;"/></g><g class="points"/><g class="text"/></g><g class="trace scatter tracef4c5b4" style="stroke-miterlimit: 2; opacity: 1;"><g class="fills"/><g class="errorbars"/><g class="lines"><path class="js-line" d="M0,278.85L2.06,280.37L2.75,280.37L4.12,280.37L4.81,283.91L6.87,277.83L7.55,277.83L29.53,278.85L30.21,284.92L38.45,284.92L39.83,280.87L40.51,247.95L41.89,247.95L46.01,247.95L46.69,249.47L49.44,254.03L50.13,252.51L50.81,250.49L51.5,254.54L57.68,254.54L58.37,252.51L59.05,252.51L59.74,254.54L60.43,252.51L61.11,255.55L62.49,257.58L63.17,254.03L64.55,257.58L65.23,257.58L65.92,257.58L66.61,254.03L67.29,254.03L67.98,257.58L69.35,254.03L70.04,268.72L71.41,258.59L72.1,258.59L72.79,259.1L73.47,266.69L74.85,272.77L75.53,272.77L76.22,271.25L76.91,276.32L78.97,277.33L79.65,277.33L82.4,277.33L83.09,279.35L87.89,279.35L88.58,277.33L90.64,265.68L92.01,265.68L96.13,265.68L96.82,272.26L97.51,274.29L98.19,281.38L100.94,281.38L101.63,285.43L109.87,286.44L110.55,286.95L111.24,286.95L111.93,302.65L113.3,302.65L113.99,304.68L115.36,307.72L116.05,307.72L124.29,307.72L124.97,312.27L126.35,313.29L127.03,315.31L133.21,316.33L133.9,317.34L135.27,322.4" style="vector-effect: none; fill: none; stroke: rgb(255, 1, 170); stroke-opacity: 1; stroke-width: 5px; opacity: 1;"/></g><g class="points"/><g class="text"/></g><g class="trace scatter trace1fd443" style="stroke-miterlimit: 2; opacity: 1;"><g class="fills"/><g class="errorbars"/><g class="lines"><path class="js-line" d="M0,276.82L2.75,278.85L3.43,278.85L4.12,278.85L4.81,276.82L5.49,277.33L6.18,279.86L12.36,280.37L13.05,281.89L15.11,282.9L15.79,282.9L29.53,281.89L30.21,289.48L38.45,289.48L39.83,286.44L40.51,293.03L41.89,293.03L46.69,293.53L47.38,294.55L48.07,294.55L48.75,300.12L49.44,300.12L50.13,297.08L50.81,294.04L51.5,302.65L57.68,302.65L58.37,298.6L59.05,298.6L59.74,302.65L60.43,298.6L61.11,302.14L62.49,302.14L63.17,298.09L64.55,302.14L65.23,302.14L65.92,302.14L66.61,298.09L67.29,298.09L67.98,302.14L69.35,298.09L70.04,298.6L71.41,295.05L72.1,295.05L72.79,295.56L73.47,300.63L74.85,303.16L75.53,303.16L78.97,307.72L79.65,307.72L81.03,308.73L81.71,310.75L84.46,314.3L85.15,314.3L111.24,314.3L111.93,323.92L113.99,324.94" style="vector-effect: none; fill: none; stroke: rgb(238, 58, 67); stroke-opacity: 1; stroke-width: 5px; opacity: 1;"/></g><g class="points"/><g class="text"/></g><g class="trace scatter traceccfc55" style="stroke-miterlimit: 2; opacity: 1;"><g class="fills"/><g class="errorbars"/><g class="lines"><path class="js-line" d="M0,289.99L3.43,291L4.12,291L4.81,283.91L5.49,293.53L6.87,299.61L7.55,299.61L25.41,298.6L26.09,298.09L29.53,298.09L30.21,300.63L39.83,299.61L40.51,301.64L49.44,302.14L50.13,304.17L50.81,306.2L51.5,302.65L57.68,302.65L58.37,304.17L59.05,304.17L59.74,302.65L62.49,305.69L63.17,306.2L65.92,305.69L66.61,306.2L69.35,306.2L70.04,307.72L73.47,307.72L74.16,308.73L76.91,309.74L77.59,311.26L81.71,314.3L82.4,315.31L84.46,316.83L85.15,316.83L100.94,316.83L101.63,321.9L111.24,322.4L111.93,323.92L113.99,324.94" style="vector-effect: none; fill: none; stroke: rgb(202, 166, 105); stroke-opacity: 1; stroke-width: 5px; opacity: 1;"/></g><g class="points"/><g class="text"/></g><g class="trace scatter trace94ba84" style="stroke-miterlimit: 2; opacity: 1;"><g class="fills"/><g class="errorbars"/><g class="lines"><path class="js-line" d="M0,294.55L3.43,296.07L4.12,296.07L6.87,295.05L7.55,295.05L15.79,295.56L16.48,296.57L25.41,296.57L26.09,300.63L29.53,300.63L30.21,304.68L38.45,304.68L39.83,298.6L40.51,311.77L41.89,311.77L48.07,312.27L48.75,315.82L50.81,315.82L51.5,317.84L69.35,316.83L70.04,318.35L72.1,317.34L72.79,317.34L76.22,318.35L76.91,319.36L81.03,321.39L81.71,323.42L100.94,323.42" style="vector-effect: none; fill: none; stroke: rgb(255, 192, 203); stroke-opacity: 1; stroke-width: 5px; opacity: 1;"/></g><g class="points"/><g class="text"/></g></g></g><g class="overplot"/><path class="xlines-above crisp" d="M0,0" style="fill: none;"/><path class="ylines-above crisp" d="M0,0" style="fill: none;"/><g class="overlines-above"/><g class="xaxislayer-above"><g class="xtick"><text text-anchor="middle" x="0" y="363" transform="translate(56.87,0)" style="font-family: 'Open Sans', verdana, arial, sans-serif; font-size: 12px; fill: rgb(42, 63, 95); fill-opacity: 1; white-space: pre; opacity: 1;">1.7.23</text></g><g class="xtick"><text text-anchor="middle" x="0" y="363" style="font-family: 'Open Sans', verdana, arial, sans-serif; font-size: 12px; fill: rgb(42, 63, 95); fill-opacity: 1; white-space: pre; opacity: 1;" transform="translate(99.44,0)">1.9.23</text></g><g class="xtick"><text text-anchor="middle" x="0" y="363" style="font-family: 'Open Sans', verdana, arial, sans-serif; font-size: 12px; fill: rgb(42, 63, 95); fill-opacity: 1; white-space: pre; opacity: 1;" transform="translate(141.32999999999998,0)">1.11.23</text></g><g class="xtick"><text text-anchor="middle" x="0" y="363" style="font-family: 'Open Sans', verdana, arial, sans-serif; font-size: 12px; fill: rgb(42, 63, 95); fill-opacity: 1; white-space: pre; opacity: 1;" transform="translate(183.21,0)">1.1.24</text></g><g class="xtick"><text text-anchor="middle" x="0" y="363" style="font-family: 'Open Sans', verdana, arial, sans-serif; font-size: 12px; fill: rgb(42, 63, 95); fill-opacity: 1; white-space: pre; opacity: 1;" transform="translate(224.41,0)">1.3.24</text></g></g><g class="yaxislayer-above"><g class="ytick"><text text-anchor="end" x="49" y="4.199999999999999" transform="translate(0,350)" style="font-family: 'Open Sans', verdana, arial, sans-serif; font-size: 12px; fill: rgb(42, 63, 95); fill-opacity: 1; white-space: pre; opacity: 1;">0%</text></g><g class="ytick"><text text-anchor="end" x="49" y="4.199999999999999" style="font-family: 'Open Sans', verdana, arial, sans-serif; font-size: 12px; fill: rgb(42, 63, 95); fill-opacity: 1; white-space: pre; opacity: 1;" transform="translate(0,299.35)">10%</text></g><g class="ytick"><text text-anchor="end" x="49" y="4.199999999999999" style="font-family: 'Open Sans', verdana, arial, sans-serif; font-size: 12px; fill: rgb(42, 63, 95); fill-opacity: 1; white-space: pre; opacity: 1;" transform="translate(0,248.71)">20%</text></g><g class="ytick"><text text-anchor="end" x="49" y="4.199999999999999" style="font-family: 'Open Sans', verdana, arial, sans-serif; font-size: 12px; fill: rgb(42, 63, 95); fill-opacity: 1; white-space: pre; opacity: 1;" transform="translate(0,198.06)">30%</text></g><g class="ytick"><text text-anchor="end" x="49" y="4.199999999999999" style="font-family: 'Open Sans', verdana, arial, sans-serif; font-size: 12px; fill: rgb(42, 63, 95); fill-opacity: 1; white-space: pre; opacity: 1;" transform="translate(0,147.42000000000002)">40%</text></g><g class="ytick"><text text-anchor="end" x="49" y="4.199999999999999" style="font-family: 'Open Sans', verdana, arial, sans-serif; font-size: 12px; fill: rgb(42, 63, 95); fill-opacity: 1; white-space: pre; opacity: 1;" transform="translate(0,96.77)">50%</text></g><g class="ytick"><text text-anchor="end" x="49" y="4.199999999999999" style="font-family: 'Open Sans', verdana, arial, sans-serif; font-size: 12px; fill: rgb(42, 63, 95); fill-opacity: 1; white-space: pre; opacity: 1;" transform="translate(0,46.120000000000005)">60%</text></g></g><g class="overaxes-above"/></g></g><g class="polarlayer"/><g class="smithlayer"/><g class="ternarylayer"/><g class="geolayer"/><g class="funnelarealayer"/><g class="pielayer"/><g class="iciclelayer"/><g class="treemaplayer"/><g class="sunburstlayer"/><g class="glimages"/><defs id="topdefs-7977c7"><g class="clips"/><clipPath id="legend7977c7"><rect width="128" height="124" x="0" y="0"/></clipPath></defs><g class="layer-above"><g class="imagelayer"/><g class="shapelayer"/></g><g class="infolayer"><g class="legend" pointer-events="all" transform="translate(260.12,20)"><rect class="bg" shape-rendering="crispEdges" width="128" height="124" x="0" y="0" style="stroke: rgb(68, 68, 68); stroke-opacity: 1; fill: rgb(255, 255, 255); fill-opacity: 1; stroke-width: 0px;"/><g class="scrollbox" transform="" clip-path="url(#legend7977c7)"><g class="groups"><g class="traces" transform="translate(0,14.5)" style="opacity: 1;"><text class="legendtext" text-anchor="start" x="40" y="4.680000000000001" style="font-family: 'Open Sans', verdana, arial, sans-serif; font-size: 12px; fill: rgb(42, 63, 95); fill-opacity: 1; white-space: pre;">Pellegrini Peter</text><g class="layers" style="opacity: 1;"><g class="legendfill"/><g class="legendlines"><path class="js-line" d="M5,0h30" style="fill: none; stroke: rgb(138, 44, 81); stroke-opacity: 1; stroke-width: 5px;"/></g><g class="legendsymbols"><g class="legendpoints"/></g></g><rect class="legendtoggle" x="0" y="-9.5" width="122.703125" height="19" style="fill: rgb(0, 0, 0); fill-opacity: 0;"/></g><g class="traces" transform="translate(0,33.5)" style="opacity: 1;"><text class="legendtext" text-anchor="start" x="40" y="4.680000000000001" style="font-family: 'Open Sans', verdana, arial, sans-serif; font-size: 12px; fill: rgb(42, 63, 95); fill-opacity: 1; white-space: pre;">Korčok Ivan</text><g class="layers" style="opacity: 1;"><g class="legendfill"/><g class="legendlines"><path class="js-line" d="M5,0h30" style="fill: none; stroke: rgb(0, 174, 239); stroke-opacity: 1; stroke-width: 5px;"/></g><g class="legendsymbols"><g class="legendpoints"/></g></g><rect class="legendtoggle" x="0" y="-9.5" width="122.703125" height="19" style="fill: rgb(0, 0, 0); fill-opacity: 0;"/></g><g class="traces" transform="translate(0,52.5)" style="opacity: 1;"><text class="legendtext" text-anchor="start" x="40" y="4.680000000000001" style="font-family: 'Open Sans', verdana, arial, sans-serif; font-size: 12px; fill: rgb(42, 63, 95); fill-opacity: 1; white-space: pre;">Kubiš Ján</text><g class="layers" style="opacity: 1;"><g class="legendfill"/><g class="legendlines"><path class="js-line" d="M5,0h30" style="fill: none; stroke: rgb(255, 1, 170); stroke-opacity: 1; stroke-width: 5px;"/></g><g class="legendsymbols"><g class="legendpoints"/></g></g><rect class="legendtoggle" x="0" y="-9.5" width="122.703125" height="19" style="fill: rgb(0, 0, 0); fill-opacity: 0;"/></g><g class="traces" transform="translate(0,71.5)" style="opacity: 1;"><text class="legendtext" text-anchor="start" x="40" y="4.680000000000001" style="font-family: 'Open Sans', verdana, arial, sans-serif; font-size: 12px; fill: rgb(42, 63, 95); fill-opacity: 1; white-space: pre;">Fico Robert</text><g class="layers" style="opacity: 1;"><g class="legendfill"/><g class="legendlines"><path class="js-line" d="M5,0h30" style="fill: none; stroke: rgb(238, 58, 67); stroke-opacity: 1; stroke-width: 5px;"/></g><g class="legendsymbols"><g class="legendpoints"/></g></g><rect class="legendtoggle" x="0" y="-9.5" width="122.703125" height="19" style="fill: rgb(0, 0, 0); fill-opacity: 0;"/></g><g class="traces" transform="translate(0,90.5)" style="opacity: 1;"><text class="legendtext" text-anchor="start" x="40" y="4.680000000000001" style="font-family: 'Open Sans', verdana, arial, sans-serif; font-size: 12px; fill: rgb(42, 63, 95); fill-opacity: 1; white-space: pre;">Mistrík Robert</text><g class="layers" style="opacity: 1;"><g class="legendfill"/><g class="legendlines"><path class="js-line" d="M5,0h30" style="fill: none; stroke: rgb(202, 166, 105); stroke-opacity: 1; stroke-width: 5px;"/></g><g class="legendsymbols"><g class="legendpoints"/></g></g><rect class="legendtoggle" x="0" y="-9.5" width="122.703125" height="19" style="fill: rgb(0, 0, 0); fill-opacity: 0;"/></g><g class="traces" transform="translate(0,109.5)" style="opacity: 1;"><text class="legendtext" text-anchor="start" x="40" y="4.680000000000001" style="font-family: 'Open Sans', verdana, arial, sans-serif; font-size: 12px; fill: rgb(42, 63, 95); fill-opacity: 1; white-space: pre;">Lajčák Miroslav</text><g class="layers" style="opacity: 1;"><g class="legendfill"/><g class="legendlines"><path class="js-line" d="M5,0h30" style="fill: none; stroke: rgb(255, 192, 203); stroke-opacity: 1; stroke-width: 5px;"/></g><g class="legendsymbols"><g class="legendpoints"/></g></g><rect class="legendtoggle" x="0" y="-9.5" width="122.703125" height="19" style="fill: rgb(0, 0, 0); fill-opacity: 0;"/></g></g></g><rect class="scrollbar" rx="20" ry="3" width="0" height="0" x="0" y="0" style="fill: rgb(128, 139, 164); fill-opacity: 1;"/></g><g class="g-gtitle"/><g class="g-xtitle"/><g class="g-ytitle"/></g></svg>