<svg class="main-svg" xmlns="http://www.w3.org/2000/svg" xmlns:xlink="http://www.w3.org/1999/xlink" width="1200" height="600" style="" viewBox="0 0 1200 600"><rect x="0" y="0" width="1200" height="600" style="fill: rgb(255, 255, 255); fill-opacity: 1;"/><defs id="defs-459c5b"><g class="clips"><clipPath id="clip459c5bxyplot" class="plotclip"><rect width="980" height="530"/></clipPath><clipPath class="axesclip" id="clip459c5bx"><rect x="50" y="0" width="980" height="600"/></clipPath><clipPath class="axesclip" id="clip459c5by"><rect x="0" y="20" width="1200" height="530"/></clipPath><clipPath class="axesclip" id="clip459c5bxy"><rect x="50" y="20" width="980" height="530"/></clipPath></g><g class="gradients"/><g class="patterns"/></defs><g class="bglayer"/><g class="layer-below"><g class="imagelayer"/><g class="shapelayer"/></g><g class="cartesianlayer"><g class="subplot xy"><g class="layer-subplot"><g class="shapelayer"/><g class="imagelayer"/></g><g class="minor-gridlayer"><g class="x"/><g class="y"/></g><g class="gridlayer"><g class="x"><path class="xgrid crisp" transform="translate(83.78999999999999,0)" d="M0,20v530" style="stroke: rgb(235, 240, 248); stroke-opacity: 1; stroke-width: 1px;"/><path class="xgrid crisp" transform="translate(188.55,0)" d="M0,20v530" style="stroke: rgb(235, 240, 248); stroke-opacity: 1; stroke-width: 1px;"/><path class="xgrid crisp" transform="translate(293.31,0)" d="M0,20v530" style="stroke: rgb(235, 240, 248); stroke-opacity: 1; stroke-width: 1px;"/><path class="xgrid crisp" transform="translate(394.69,0)" d="M0,20v530" style="stroke: rgb(235, 240, 248); stroke-opacity: 1; stroke-width: 1px;"/><path class="xgrid crisp" transform="translate(499.45,0)" d="M0,20v530" style="stroke: rgb(235, 240, 248); stroke-opacity: 1; stroke-width: 1px;"/><path class="xgrid crisp" transform="translate(600.83,0)" d="M0,20v530" style="stroke: rgb(235, 240, 248); stroke-opacity: 1; stroke-width: 1px;"/><path class="xgrid crisp" transform="translate(705.59,0)" d="M0,20v530" style="stroke: rgb(235, 240, 248); stroke-opacity: 1; stroke-width: 1px;"/><path class="xgrid crisp" transform="translate(810.34,0)" d="M0,20v530" style="stroke: rgb(235, 240, 248); stroke-opacity: 1; stroke-width: 1px;"/><path class="xgrid crisp" transform="translate(908.34,0)" d="M0,20v530" style="stroke: rgb(235, 240, 248); stroke-opacity: 1; stroke-width: 1px;"/><path class="xgrid crisp" transform="translate(1013.1,0)" d="M0,20v530" style="stroke: rgb(235, 240, 248); stroke-opacity: 1; stroke-width: 1px;"/></g><g class="y"><path class="ygrid crisp" transform="translate(0,471.45)" d="M50,0h980" style="stroke: rgb(235, 240, 248); stroke-opacity: 1; stroke-width: 1px;"/><path class="ygrid crisp" transform="translate(0,392.9)" d="M50,0h980" style="stroke: rgb(235, 240, 248); stroke-opacity: 1; stroke-width: 1px;"/><path class="ygrid crisp" transform="translate(0,314.35)" d="M50,0h980" style="stroke: rgb(235, 240, 248); stroke-opacity: 1; stroke-width: 1px;"/><path class="ygrid crisp" transform="translate(0,235.8)" d="M50,0h980" style="stroke: rgb(235, 240, 248); stroke-opacity: 1; stroke-width: 1px;"/><path class="ygrid crisp" transform="translate(0,157.25)" d="M50,0h980" style="stroke: rgb(235, 240, 248); stroke-opacity: 1; stroke-width: 1px;"/><path class="ygrid crisp" transform="translate(0,78.71000000000001)" d="M50,0h980" style="stroke: rgb(235, 240, 248); stroke-opacity: 1; stroke-width: 1px;"/></g></g><g class="zerolinelayer"><path class="yzl zl crisp" transform="translate(0,550)" d="M50,0h980" style="stroke: rgb(235, 240, 248); stroke-opacity: 1; stroke-width: 2px;"/></g><path class="xlines-below"/><path class="ylines-below"/><g class="overlines-below"/><g class="xaxislayer-below"/><g class="yaxislayer-below"/><g class="overaxes-below"/><g class="plot" transform="translate(50,20)" clip-path="url(#clip459c5bxyplot)"><g class="scatterlayer mlayer"><g class="trace scatter traceead2e4" style="stroke-miterlimit: 2; opacity: 1;"><g class="fills"/><g class="errorbars"/><g class="lines"><path class="js-line" d="M0,365.83L6.76,345.41L10.14,345.41L20.28,345.41L23.66,350.91L30.41,341.48L33.79,341.48L47.31,341.48L50.69,339.13L60.83,339.13L64.21,336.77L67.59,335.2L70.97,335.2L77.72,335.2L81.1,330.49L125.03,330.49L128.41,324.99L145.31,324.99L148.69,292L189.24,292L196,314.78L199.38,310.06L206.14,310.06L229.79,309.28L233.17,308.49L236.55,325.77L239.93,334.41L243.31,334.41L246.69,331.27L250.07,328.13L253.45,335.2L283.86,335.2L287.24,332.06L290.62,332.06L294,335.2L297.38,332.06L300.76,334.41L304.14,332.06L307.52,332.06L310.9,330.49L314.28,332.06L324.41,332.06L327.79,330.49L331.17,330.49L334.55,332.06L337.93,330.49L341.31,330.49L344.69,314.78L348.07,321.06L354.83,321.06L358.21,319.49L361.59,293.57L364.97,277.86L371.72,277.86L375.1,273.93L378.48,248.01L381.86,235.44L385.24,233.08L388.62,233.08L395.38,233.08L398.76,228.37L405.52,215.02L408.9,204.02L435.93,204.81L439.31,206.38L442.69,206.38L446.07,214.23L473.1,214.23L476.48,203.24L479.86,203.24L483.24,184.38L496.76,184.38L500.14,163.18L520.41,163.18L523.79,150.61L527.17,145.89L530.55,145.89L533.93,145.89L537.31,141.18L540.69,134.11L544.07,130.18L547.45,130.18L550.83,103.48L557.59,103.48L560.97,90.12L564.34,57.92L567.72,57.92L594.76,57.92L598.14,69.7L601.52,75.2L604.9,75.2L608.28,75.2L611.66,78.34L615.03,90.91L618.41,95.62L621.79,92.48L625.17,86.98L648.83,86.98L652.21,85.41L655.59,89.34L658.97,87.77L665.72,44.57L669.1,35.93L672.48,35.14L675.86,37.5L679.24,46.92L682.62,41.42L686,26.5L689.38,26.5L696.14,33.57L699.52,39.85L702.9,46.92L706.28,47.71L709.66,74.41L713.03,83.84L716.41,74.41L719.79,78.34L723.17,75.2L726.55,62.63L729.93,59.49L733.31,63.42L740.07,65.77L743.45,61.06L746.83,54.78L750.21,43.78L753.59,32.78L756.97,32.78L760.34,32.78L763.72,35.93L767.1,45.35L770.48,46.92L773.86,40.64L777.24,39.85L780.62,45.35L784,61.06L787.38,91.7L790.76,105.05L794.14,103.48L797.52,103.48L800.9,104.26L804.28,111.33L807.66,113.69L811.03,112.12L814.41,103.48L817.79,112.12L824.55,117.62L827.93,106.62L831.31,83.06L834.69,68.92L838.07,58.71L841.45,57.92L844.83,40.64L848.21,41.42L851.59,40.64L854.97,36.71L858.34,35.14" style="vector-effect: none; fill: none; stroke: rgb(138, 44, 81); stroke-opacity: 1; stroke-width: 5px; opacity: 1;"/></g><g class="points"/><g class="text"/></g><g class="trace scatter trace37e708" style="stroke-miterlimit: 2; opacity: 1;"><g class="fills"/><g class="errorbars"/><g class="lines"><path class="js-line" d="M0,187.53L6.76,198.52L10.14,198.52L20.28,198.52L23.66,204.02L30.41,192.24L33.79,192.24L60.83,192.24L64.21,193.81L67.59,195.38L70.97,195.38L77.72,195.38L81.1,199.31L196,199.31L199.38,221.3L226.41,221.3L229.79,217.37L233.17,214.23L236.55,196.17L239.93,169.46L243.31,169.46L250.07,183.6L253.45,160.03L283.86,160.03L287.24,171.82L290.62,171.82L294,160.03L297.38,171.82L300.76,157.68L304.14,154.54L307.52,154.54L310.9,169.46L314.28,154.54L324.41,154.54L327.79,169.46L331.17,169.46L334.55,154.54L337.93,169.46L341.31,169.46L344.69,155.32L348.07,173.39L358.21,173.39L361.59,178.1L371.72,178.1L375.1,182.03L378.48,195.38L381.86,200.09L388.62,200.88L392,200.88L402.14,200.88L405.52,203.24L412.28,204.02L415.66,204.02L432.55,204.02L435.93,206.38L439.31,211.09L442.69,211.09L446.07,214.23L452.83,214.23L476.48,215.02L479.86,211.88L483.24,219.73L486.62,219.73L496.76,219.73L500.14,218.16L520.41,218.16L523.79,230.73L527.17,233.87L530.55,233.87L533.93,233.87L537.31,238.58L544.07,247.22L547.45,247.22L550.83,232.3L554.21,232.3L557.59,232.3L560.97,240.15L564.34,250.37L567.72,250.37L594.76,250.37L598.14,239.37L601.52,233.08L604.9,233.08L608.28,233.08L611.66,229.94L615.03,211.88L618.41,206.38L625.17,210.3L628.55,210.3L645.45,210.3L648.83,208.73L652.21,210.3L655.59,206.38L658.97,206.38L662.34,226.8L665.72,241.72L669.1,250.37L672.48,251.15L675.86,248.79L679.24,238.58L682.62,233.08L686,248.01L689.38,248.01L696.14,240.94L699.52,234.66L702.9,227.59L706.28,226.8L709.66,200.09L713.03,190.67L716.41,200.09L719.79,196.17L723.17,199.31L726.55,211.88L729.93,215.02L733.31,211.09L740.07,208.73L743.45,213.45L746.83,219.73L750.21,230.73L753.59,241.72L756.97,241.72L760.34,241.72L763.72,238.58L767.1,229.16L770.48,227.59L773.86,233.87L777.24,234.66L780.62,229.16L784,213.45L787.38,182.81L790.76,169.46L794.14,171.03L797.52,171.03L800.9,170.24L804.28,163.18L807.66,160.82L811.03,162.39L814.41,171.03L817.79,162.39L824.55,156.89L827.93,167.89L831.31,191.45L834.69,205.59L838.07,215.8L841.45,216.59L844.83,233.87L848.21,233.08L851.59,233.87L854.97,237.8L858.34,239.37" style="vector-effect: none; fill: none; stroke: rgb(0, 174, 239); stroke-opacity: 1; stroke-width: 5px; opacity: 1;"/></g><g class="points"/><g class="text"/></g><g class="trace scatter trace4497dc" style="stroke-miterlimit: 2; opacity: 1;"><g class="fills"/><g class="errorbars"/><g class="lines"><path class="js-line" d="M0,450.67L6.76,453.02L10.14,453.02L20.28,453.02L23.66,458.52L30.41,449.09L33.79,449.09L47.31,449.09L50.69,450.67L64.21,449.88L67.59,449.09L125.03,449.09L128.41,450.67L145.31,450.67L148.69,460.09L189.24,460.09L196,453.81L199.38,402.75L206.14,402.75L226.41,402.75L229.79,405.11L233.17,407.46L236.55,407.46L239.93,412.18L243.31,412.18L250.07,406.68L253.45,412.96L283.86,412.96L287.24,409.82L290.62,409.82L294,412.96L297.38,409.82L300.76,414.53L304.14,417.67L307.52,417.67L310.9,412.18L314.28,417.67L324.41,417.67L327.79,412.18L331.17,412.18L334.55,417.67L337.93,412.18L341.31,412.18L344.69,434.96L348.07,419.25L358.21,420.03L361.59,431.81L364.97,441.24L368.34,441.24L371.72,441.24L375.1,438.88L378.48,446.74L381.86,448.31L398.76,447.52L402.14,446.74L405.52,448.31L408.9,451.45L432.55,451.45L435.93,448.31L439.31,441.24L442.69,441.24L446.07,430.24L452.83,430.24L473.1,430.24L476.48,440.45L479.86,443.6L483.24,454.59L496.76,454.59L500.14,460.88L537.31,461.66L540.69,462.45L547.45,463.23L550.83,487.58L557.59,487.58L560.97,490.73L564.34,495.44L567.72,495.44L611.66,495.44L615.03,502.51L618.41,502.51L621.79,504.08L625.17,507.22L628.55,507.22L645.45,507.22L648.83,508.79L655.59,508.79L658.97,510.36L662.34,515.86L665.72,518.22L675.86,518.22L679.24,519.79" style="vector-effect: none; fill: none; stroke: rgb(255, 1, 170); stroke-opacity: 1; stroke-width: 5px; opacity: 1;"/></g><g class="points"/><g class="text"/></g><g class="trace scatter traceefefa4" style="stroke-miterlimit: 2; opacity: 1;"><g class="fills"/><g class="errorbars"/><g class="lines"><path class="js-line" d="M0,467.95L10.14,469.52L13.52,469.52L20.28,469.52L23.66,458.52L30.41,482.87L33.79,482.87L64.21,482.09L67.59,481.3L145.31,480.51L148.69,484.44L189.24,484.44L196,482.87L199.38,486.01L206.14,486.01L229.79,486.8L233.17,487.58L243.31,486.8L246.69,489.94L250.07,493.08L253.45,487.58L283.86,487.58L287.24,489.94L290.62,489.94L294,487.58L297.38,489.94L300.76,489.15L304.14,492.3L307.52,492.3L310.9,493.08L314.28,492.3L341.31,493.08L344.69,495.44L361.59,495.44L364.97,497.01L375.1,497.79L378.48,498.58L381.86,500.94L385.24,501.72L395.38,501.72L398.76,503.29L408.9,509.58L412.28,509.58L496.76,509.58L500.14,517.43L547.45,518.22L550.83,520.57L557.59,520.57L560.97,522.15" style="vector-effect: none; fill: none; stroke: rgb(202, 166, 105); stroke-opacity: 1; stroke-width: 5px; opacity: 1;"/></g><g class="points"/><g class="text"/></g><g class="trace scatter trace142d93" style="stroke-miterlimit: 2; opacity: 1;"><g class="fills"/><g class="errorbars"/><g class="lines"><path class="js-line" d="M0,447.52L6.76,450.67L10.14,450.67L20.28,450.67L23.66,447.52L27.03,448.31L30.41,452.24L60.83,453.02L64.21,455.38L67.59,456.95L70.97,456.95L125.03,456.95L128.41,455.38L145.31,455.38L148.69,467.16L189.24,467.16L196,462.45L199.38,472.66L206.14,472.66L229.79,473.44L233.17,475.02L236.55,475.02L239.93,483.66L243.31,483.66L246.69,478.94L250.07,474.23L253.45,487.58L283.86,487.58L287.24,481.3L290.62,481.3L294,487.58L297.38,481.3L300.76,486.8L307.52,486.8L310.9,480.51L314.28,486.8L317.66,486.8L324.41,486.8L327.79,480.51L331.17,480.51L334.55,486.8L337.93,480.51L341.31,480.51L344.69,481.3L348.07,475.8L358.21,476.59L361.59,484.44L364.97,488.37L368.34,488.37L371.72,488.37L375.1,489.94L381.86,494.65L385.24,495.44L395.38,495.44L398.76,497.01L408.9,505.65L412.28,505.65L496.76,505.65L500.14,504.86L547.45,505.65L550.83,520.57L557.59,520.57L560.97,522.15" style="vector-effect: none; fill: none; stroke: rgb(238, 58, 67); stroke-opacity: 1; stroke-width: 5px; opacity: 1;"/></g><g class="points"/><g class="text"/></g><g class="trace scatter tracedd24ce" style="stroke-miterlimit: 2; opacity: 1;"><g class="fills"/><g class="errorbars"/><g class="lines"><path class="js-line" d="M0,475.02L10.14,477.37L13.52,477.37L23.66,476.59L27.03,475.02L33.79,475.8L37.17,475.8L47.31,475.8L50.69,477.37L77.72,476.59L81.1,478.16L125.03,478.16L128.41,484.44L145.31,484.44L148.69,490.73L189.24,490.73L196,481.3L199.38,501.72L206.14,501.72L236.55,502.51L239.93,508.01L250.07,508.01L253.45,511.15L283.86,511.15L287.24,509.58L290.62,509.58L294,511.15L297.38,509.58L300.76,511.15L307.52,511.15L310.9,509.58L314.28,511.15L317.66,511.15L324.41,511.15L327.79,509.58L331.17,509.58L334.55,511.15L337.93,509.58L341.31,509.58L344.69,511.93L348.07,510.36L371.72,511.15L375.1,511.93L381.86,514.29L385.24,515.08L395.38,515.08L398.76,516.65L402.14,519.79L405.52,519.79L412.28,520.57L415.66,520.57L496.76,519.79" style="vector-effect: none; fill: none; stroke: rgb(255, 192, 203); stroke-opacity: 1; stroke-width: 5px; opacity: 1;"/></g><g class="points"/><g class="text"/></g></g></g><g class="overplot"/><path class="xlines-above crisp" d="M0,0" style="fill: none;"/><path class="ylines-above crisp" d="M0,0" style="fill: none;"/><g class="overlines-above"/><g class="xaxislayer-above"><g class="xtick"><text text-anchor="middle" x="0" y="563" transform="translate(83.78999999999999,0)" style="font-family: 'Open Sans', verdana, arial, sans-serif; font-size: 12px; fill: rgb(42, 63, 95); fill-opacity: 1; white-space: pre; opacity: 1;">1.7.23</text></g><g class="xtick"><text text-anchor="middle" x="0" y="563" style="font-family: 'Open Sans', verdana, arial, sans-serif; font-size: 12px; fill: rgb(42, 63, 95); fill-opacity: 1; white-space: pre; opacity: 1;" transform="translate(188.55,0)">1.8.23</text></g><g class="xtick"><text text-anchor="middle" x="0" y="563" style="font-family: 'Open Sans', verdana, arial, sans-serif; font-size: 12px; fill: rgb(42, 63, 95); fill-opacity: 1; white-space: pre; opacity: 1;" transform="translate(293.31,0)">1.9.23</text></g><g class="xtick"><text text-anchor="middle" x="0" y="563" style="font-family: 'Open Sans', verdana, arial, sans-serif; font-size: 12px; fill: rgb(42, 63, 95); fill-opacity: 1; white-space: pre; opacity: 1;" transform="translate(394.69,0)">1.10.23</text></g><g class="xtick"><text text-anchor="middle" x="0" y="563" style="font-family: 'Open Sans', verdana, arial, sans-serif; font-size: 12px; fill: rgb(42, 63, 95); fill-opacity: 1; white-space: pre; opacity: 1;" transform="translate(499.45,0)">1.11.23</text></g><g class="xtick"><text text-anchor="middle" x="0" y="563" style="font-family: 'Open Sans', verdana, arial, sans-serif; font-size: 12px; fill: rgb(42, 63, 95); fill-opacity: 1; white-space: pre; opacity: 1;" transform="translate(600.83,0)">1.12.23</text></g><g class="xtick"><text text-anchor="middle" x="0" y="563" style="font-family: 'Open Sans', verdana, arial, sans-serif; font-size: 12px; fill: rgb(42, 63, 95); fill-opacity: 1; white-space: pre; opacity: 1;" transform="translate(705.59,0)">1.1.24</text></g><g class="xtick"><text text-anchor="middle" x="0" y="563" style="font-family: 'Open Sans', verdana, arial, sans-serif; font-size: 12px; fill: rgb(42, 63, 95); fill-opacity: 1; white-space: pre; opacity: 1;" transform="translate(810.34,0)">1.2.24</text></g><g class="xtick"><text text-anchor="middle" x="0" y="563" style="font-family: 'Open Sans', verdana, arial, sans-serif; font-size: 12px; fill: rgb(42, 63, 95); fill-opacity: 1; white-space: pre; opacity: 1;" transform="translate(908.34,0)">1.3.24</text></g><g class="xtick"><text text-anchor="middle" x="0" y="563" style="font-family: 'Open Sans', verdana, arial, sans-serif; font-size: 12px; fill: rgb(42, 63, 95); fill-opacity: 1; white-space: pre; opacity: 1;" transform="translate(1013.1,0)">1.4.24</text></g></g><g class="yaxislayer-above"><g class="ytick"><text text-anchor="end" x="49" y="4.199999999999999" transform="translate(0,550)" style="font-family: 'Open Sans', verdana, arial, sans-serif; font-size: 12px; fill: rgb(42, 63, 95); fill-opacity: 1; white-space: pre; opacity: 1;">0%</text></g><g class="ytick"><text text-anchor="end" x="49" y="4.199999999999999" style="font-family: 'Open Sans', verdana, arial, sans-serif; font-size: 12px; fill: rgb(42, 63, 95); fill-opacity: 1; white-space: pre; opacity: 1;" transform="translate(0,471.45)">10%</text></g><g class="ytick"><text text-anchor="end" x="49" y="4.199999999999999" style="font-family: 'Open Sans', verdana, arial, sans-serif; font-size: 12px; fill: rgb(42, 63, 95); fill-opacity: 1; white-space: pre; opacity: 1;" transform="translate(0,392.9)">20%</text></g><g class="ytick"><text text-anchor="end" x="49" y="4.199999999999999" style="font-family: 'Open Sans', verdana, arial, sans-serif; font-size: 12px; fill: rgb(42, 63, 95); fill-opacity: 1; white-space: pre; opacity: 1;" transform="translate(0,314.35)">30%</text></g><g class="ytick"><text text-anchor="end" x="49" y="4.199999999999999" style="font-family: 'Open Sans', verdana, arial, sans-serif; font-size: 12px; fill: rgb(42, 63, 95); fill-opacity: 1; white-space: pre; opacity: 1;" transform="translate(0,235.8)">40%</text></g><g class="ytick"><text text-anchor="end" x="49" y="4.199999999999999" style="font-family: 'Open Sans', verdana, arial, sans-serif; font-size: 12px; fill: rgb(42, 63, 95); fill-opacity: 1; white-space: pre; opacity: 1;" transform="translate(0,157.25)">50%</text></g><g class="ytick"><text text-anchor="end" x="49" y="4.199999999999999" style="font-family: 'Open Sans', verdana, arial, sans-serif; font-size: 12px; fill: rgb(42, 63, 95); fill-opacity: 1; white-space: pre; opacity: 1;" transform="translate(0,78.71000000000001)">60%</text></g></g><g class="overaxes-above"/></g></g><g class="polarlayer"/><g class="smithlayer"/><g class="ternarylayer"/><g class="geolayer"/><g class="funnelarealayer"/><g class="pielayer"/><g class="iciclelayer"/><g class="treemaplayer"/><g class="sunburstlayer"/><g class="glimages"/><defs id="topdefs-459c5b"><g class="clips"/><clipPath id="legend459c5b"><rect width="138" height="124" x="0" y="0"/></clipPath></defs><g class="layer-above"><g class="imagelayer"/><g class="shapelayer"/></g><g class="infolayer"><g class="legend" pointer-events="all" transform="translate(1049.6,20)"><rect class="bg" shape-rendering="crispEdges" width="138" height="124" x="0" y="0" style="stroke: rgb(68, 68, 68); stroke-opacity: 1; fill: rgb(255, 255, 255); fill-opacity: 1; stroke-width: 0px;"/><g class="scrollbox" transform="" clip-path="url(#legend459c5b)"><g class="groups"><g class="traces" transform="translate(0,14.5)" style="opacity: 1;"><text class="legendtext" text-anchor="start" x="40" y="4.680000000000001" style="font-family: 'Open Sans', verdana, arial, sans-serif; font-size: 12px; fill: rgb(42, 63, 95); fill-opacity: 1; white-space: pre;">Pellegrini Peter</text><g class="layers" style="opacity: 1;"><g class="legendfill"/><g class="legendlines"><path class="js-line" d="M5,0h30" style="fill: none; stroke: rgb(138, 44, 81); stroke-opacity: 1; stroke-width: 5px;"/></g><g class="legendsymbols"><g class="legendpoints"/></g></g><rect class="legendtoggle" x="0" y="-9.5" width="132.375" height="19" style="fill: rgb(0, 0, 0); fill-opacity: 0;"/></g><g class="traces" transform="translate(0,33.5)" style="opacity: 1;"><text class="legendtext" text-anchor="start" x="40" y="4.680000000000001" style="font-family: 'Open Sans', verdana, arial, sans-serif; font-size: 12px; fill: rgb(42, 63, 95); fill-opacity: 1; white-space: pre;">Korčok Ivan</text><g class="layers" style="opacity: 1;"><g class="legendfill"/><g class="legendlines"><path class="js-line" d="M5,0h30" style="fill: none; stroke: rgb(0, 174, 239); stroke-opacity: 1; stroke-width: 5px;"/></g><g class="legendsymbols"><g class="legendpoints"/></g></g><rect class="legendtoggle" x="0" y="-9.5" width="132.375" height="19" style="fill: rgb(0, 0, 0); fill-opacity: 0;"/></g><g class="traces" transform="translate(0,52.5)" style="opacity: 1;"><text class="legendtext" text-anchor="start" x="40" y="4.680000000000001" style="font-family: 'Open Sans', verdana, arial, sans-serif; font-size: 12px; fill: rgb(42, 63, 95); fill-opacity: 1; white-space: pre;">Kubiš Ján</text><g class="layers" style="opacity: 1;"><g class="legendfill"/><g class="legendlines"><path class="js-line" d="M5,0h30" style="fill: none; stroke: rgb(255, 1, 170); stroke-opacity: 1; stroke-width: 5px;"/></g><g class="legendsymbols"><g class="legendpoints"/></g></g><rect class="legendtoggle" x="0" y="-9.5" width="132.375" height="19" style="fill: rgb(0, 0, 0); fill-opacity: 0;"/></g><g class="traces" transform="translate(0,71.5)" style="opacity: 1;"><text class="legendtext" text-anchor="start" x="40" y="4.680000000000001" style="font-family: 'Open Sans', verdana, arial, sans-serif; font-size: 12px; fill: rgb(42, 63, 95); fill-opacity: 1; white-space: pre;">Mistrík Robert</text><g class="layers" style="opacity: 1;"><g class="legendfill"/><g class="legendlines"><path class="js-line" d="M5,0h30" style="fill: none; stroke: rgb(202, 166, 105); stroke-opacity: 1; stroke-width: 5px;"/></g><g class="legendsymbols"><g class="legendpoints"/></g></g><rect class="legendtoggle" x="0" y="-9.5" width="132.375" height="19" style="fill: rgb(0, 0, 0); fill-opacity: 0;"/></g><g class="traces" transform="translate(0,90.5)" style="opacity: 1;"><text class="legendtext" text-anchor="start" x="40" y="4.680000000000001" style="font-family: 'Open Sans', verdana, arial, sans-serif; font-size: 12px; fill: rgb(42, 63, 95); fill-opacity: 1; white-space: pre;">Fico Robert</text><g class="layers" style="opacity: 1;"><g class="legendfill"/><g class="legendlines"><path class="js-line" d="M5,0h30" style="fill: none; stroke: rgb(238, 58, 67); stroke-opacity: 1; stroke-width: 5px;"/></g><g class="legendsymbols"><g class="legendpoints"/></g></g><rect class="legendtoggle" x="0" y="-9.5" width="132.375" height="19" style="fill: rgb(0, 0, 0); fill-opacity: 0;"/></g><g class="traces" transform="translate(0,109.5)" style="opacity: 1;"><text class="legendtext" text-anchor="start" x="40" y="4.680000000000001" style="font-family: 'Open Sans', verdana, arial, sans-serif; font-size: 12px; fill: rgb(42, 63, 95); fill-opacity: 1; white-space: pre;">Lajčák Miroslav</text><g class="layers" style="opacity: 1;"><g class="legendfill"/><g class="legendlines"><path class="js-line" d="M5,0h30" style="fill: none; stroke: rgb(255, 192, 203); stroke-opacity: 1; stroke-width: 5px;"/></g><g class="legendsymbols"><g class="legendpoints"/></g></g><rect class="legendtoggle" x="0" y="-9.5" width="132.375" height="19" style="fill: rgb(0, 0, 0); fill-opacity: 0;"/></g></g></g><rect class="scrollbar" rx="20" ry="3" width="0" height="0" x="0" y="0" style="fill: rgb(128, 139, 164); fill-opacity: 1;"/></g><g class="g-gtitle"/><g class="g-xtitle"/><g class="g-ytitle"/></g></svg>