<svg class="main-svg" xmlns="http://www.w3.org/2000/svg" xmlns:xlink="http://www.w3.org/1999/xlink" width="300" height="135" style="" viewBox="0 0 300 135"><rect x="0" y="0" width="300" height="135" style="fill: rgb(255, 255, 255); fill-opacity: 1;"/><defs id="defs-e530df"><g class="clips"><clipPath id="clipe530dfxyplot" class="plotclip"><rect width="280" height="75"/></clipPath><clipPath class="axesclip" id="clipe530dfx"><rect x="10" y="0" width="280" height="135"/></clipPath><clipPath class="axesclip" id="clipe530dfy"><rect x="0" y="50" width="300" height="75"/></clipPath><clipPath class="axesclip" id="clipe530dfxy"><rect x="10" y="50" width="280" height="75"/></clipPath></g><g class="gradients"/><g class="patterns"/></defs><g class="bglayer"/><g class="layer-below"><g class="imagelayer"/><g class="shapelayer"/></g><g class="cartesianlayer"><g class="subplot xy"><g class="layer-subplot"><g class="shapelayer"/><g class="imagelayer"/></g><g class="minor-gridlayer"><g class="x"/><g class="y"/></g><g class="gridlayer"><g class="x"><path class="xgrid crisp" transform="translate(21.810000000000002,0)" d="M0,50v75" style="stroke: rgb(235, 240, 248); stroke-opacity: 1; stroke-width: 1px;"/><path class="xgrid crisp" transform="translate(95.06,0)" d="M0,50v75" style="stroke: rgb(235, 240, 248); stroke-opacity: 1; stroke-width: 1px;"/><path class="xgrid crisp" transform="translate(167.13,0)" d="M0,50v75" style="stroke: rgb(235, 240, 248); stroke-opacity: 1; stroke-width: 1px;"/><path class="xgrid crisp" transform="translate(239.2,0)" d="M0,50v75" style="stroke: rgb(235, 240, 248); stroke-opacity: 1; stroke-width: 1px;"/></g><g class="y"><path class="ygrid crisp" transform="translate(0,102.77000000000001)" d="M10,0h280" style="stroke: rgb(235, 240, 248); stroke-opacity: 1; stroke-width: 1px;"/><path class="ygrid crisp" transform="translate(0,80.53999999999999)" d="M10,0h280" style="stroke: rgb(235, 240, 248); stroke-opacity: 1; stroke-width: 1px;"/><path class="ygrid crisp" transform="translate(0,58.31)" d="M10,0h280" style="stroke: rgb(235, 240, 248); stroke-opacity: 1; stroke-width: 1px;"/></g></g><g class="zerolinelayer"><path class="yzl zl crisp" transform="translate(0,125)" d="M10,0h280" style="stroke: rgb(235, 240, 248); stroke-opacity: 1; stroke-width: 2px;"/></g><path class="xlines-below"/><path class="ylines-below"/><g class="overlines-below"/><g class="xaxislayer-below"/><g class="yaxislayer-below"/><g class="overaxes-below"/><g class="plot" transform="translate(10,50)" clip-path="url(#clipe530dfxyplot)"><g class="scatterlayer mlayer"><g class="trace scatter trace2ca86d" style="stroke-miterlimit: 2; opacity: 1;"><g class="fills"/><g class="errorbars"/><g class="lines"><path class="js-line" d="M277.64,21.65L280,21.53" style="vector-effect: none; fill: none; stroke: rgb(187, 187, 187); stroke-opacity: 1; stroke-width: 5px; opacity: 1;"/></g><g class="points"/><g class="text"/></g><g class="trace scatter trace848cd5" style="stroke-miterlimit: 2; opacity: 1;"><g class="fills"/><g class="errorbars"/><g class="lines"><path class="js-line" d="M0,51.77L3.54,48.88L4.73,48.88L9.45,49.1L10.63,48.32L27.17,47.43L28.35,46.77L50.8,45.99L51.98,41.32L66.16,41.32L68.52,44.54L72.07,43.88L73.25,43.88L81.52,43.65L82.7,46.1L85.06,47.32L86.24,46.88L87.43,46.43L88.61,47.43L119.32,46.77L120.51,44.54L122.87,45.43L124.05,45.43L125.23,45.21L126.41,41.54L128.78,39.32L129.96,39.32L131.14,38.76L132.32,35.1L134.68,32.98L135.86,32.98L139.41,32.32L140.59,31.32L144.14,28.87L145.32,28.87L154.77,29.2L155.95,30.32L165.4,30.32L166.58,28.76L167.76,28.76L168.95,26.09L173.67,26.09L174.85,23.09L181.94,23.09L183.12,21.31L190.21,18.42L191.39,18.42L193.76,14.64L194.94,14.64L196.12,12.75L197.3,8.2L207.93,8.2L209.11,9.86L211.48,10.64L212.66,10.64L215.02,12.86L216.2,13.53L222.11,12.31L223.29,12.31L230.38,12.42L231.56,8.75L233.92,5.08L235.11,4.97L238.65,5.86L239.83,3.75L243.38,4.75L244.56,5.64L246.92,6.75L248.1,10.53L249.28,11.86L250.46,10.53L252.83,10.64L254.01,8.86L256.37,8.97L257.55,9.09L259.92,8.64L261.1,7.75L264.64,4.64L265.82,4.64L269.37,6.64L270.55,5.75L272.91,6.42L274.09,8.64L276.46,14.87L277.64,43.65L280,43.77" style="vector-effect: none; fill: none; stroke: rgb(138, 44, 81); stroke-opacity: 1; stroke-width: 5px; opacity: 1;"/></g><g class="points"/><g class="text"/></g><g class="trace scatter trace0ac21d" style="stroke-miterlimit: 2; opacity: 1;"><g class="fills"/><g class="errorbars"/><g class="lines"><path class="js-line" d="M0,26.54L4.73,28.09L5.91,28.09L9.45,27.87L10.63,27.2L68.52,28.2L69.7,31.32L81.52,30.32L82.7,27.76L85.06,23.98L86.24,24.98L87.43,25.98L88.61,22.65L99.24,22.65L100.42,24.31L101.6,24.31L102.78,22.65L103.97,24.31L105.15,22.31L107.51,21.87L108.69,23.98L111.05,21.87L112.24,21.87L113.42,21.87L114.6,23.98L115.78,23.98L116.96,21.87L119.32,23.98L120.51,21.98L122.87,24.54L124.05,24.54L131.14,25.76L132.32,27.65L135.86,28.43L137.05,28.43L152.41,29.2L153.59,29.87L181.94,30.87L183.12,32.65L191.39,34.98L192.57,32.87L196.12,33.98L197.3,35.43L207.93,35.43L209.11,33.87L211.48,32.98L212.66,32.98L213.84,32.54L215.02,29.98L217.38,29.43L218.57,29.76L230.38,29.2L231.56,32.09L233.92,35.43L235.11,35.54L237.47,33.76L238.65,32.98L241.01,35.1L242.19,34.54L246.92,32.09L248.1,28.32L249.28,26.98L250.46,28.32L252.83,28.2L254.01,29.98L256.37,29.87L257.55,29.76L259.92,30.2L261.1,31.09L264.64,34.21L265.82,34.21L269.37,32.21L270.55,33.09L272.91,32.43L274.09,30.2L276.46,23.98L277.64,48.66L280,48.55" style="vector-effect: none; fill: none; stroke: rgb(0, 174, 239); stroke-opacity: 1; stroke-width: 5px; opacity: 1;"/></g><g class="points"/><g class="text"/></g><g class="trace scatter tracea7bef4" style="stroke-miterlimit: 2; opacity: 1;"><g class="fills"/><g class="errorbars"/><g class="lines"><path class="js-line" d="M0,66.22L7.09,66.44L8.27,64.88L10.63,68.33L11.81,68.33L85.06,68.89L86.24,69.33L88.61,69L89.79,69L126.41,70.11L127.59,70.33L140.59,71.55L141.77,71.78L146.5,72.11L147.68,72.11L191.39,73.33L192.57,73.67L196.12,73.89" style="vector-effect: none; fill: none; stroke: rgb(202, 166, 105); stroke-opacity: 1; stroke-width: 5px; opacity: 1;"/></g><g class="points"/><g class="text"/></g><g class="trace scatter trace4f884b" style="stroke-miterlimit: 2; opacity: 1;"><g class="fills"/><g class="errorbars"/><g class="lines"><path class="js-line" d="M0,63.77L8.27,64.88L9.45,64.22L13,63.55L14.18,63.55L50.8,63.77L51.98,65.11L68.52,64.22L69.7,56.99L82.7,57.66L83.88,58.33L105.15,58.66L106.33,59.1L119.32,58.33L120.51,61.55L122.87,59.33L124.05,59.33L125.23,59.44L126.41,61.11L128.78,62.44L129.96,62.44L131.14,62.11L132.32,63.22L139.41,63.33L140.59,63.22L148.86,63.88L150.04,63.88L152.41,63.44L153.59,62.44L154.77,62.44L155.95,60.88L165.4,60.88L166.58,62.33L172.49,64.33L173.67,64.33L176.03,65.22L177.22,65.22L191.39,65.55L192.57,69L213.84,70.11L215.02,71.11L230.38,72.22L231.56,73L237.47,73.55" style="vector-effect: none; fill: none; stroke: rgb(255, 1, 170); stroke-opacity: 1; stroke-width: 5px; opacity: 1;"/></g><g class="points"/><g class="text"/></g></g></g><g class="overplot"/><path class="xlines-above crisp" d="M0,0" style="fill: none;"/><path class="ylines-above crisp" d="M0,0" style="fill: none;"/><g class="overlines-above"/><g class="xaxislayer-above"/><g class="yaxislayer-above"/><g class="overaxes-above"/></g></g><g class="polarlayer"/><g class="smithlayer"/><g class="ternarylayer"/><g class="geolayer"/><g class="funnelarealayer"/><g class="pielayer"/><g class="iciclelayer"/><g class="treemaplayer"/><g class="sunburstlayer"/><g class="glimages"/><defs id="topdefs-e530df"><g class="clips"/></defs><g class="layer-above"><g class="imagelayer"/><g class="shapelayer"/></g><g class="infolayer"><g class="g-gtitle"><text class="gtitle" x="15" y="25" text-anchor="start" dy="0em" style="font-family: Ubuntu, verdana, arial, sans-serif; font-size: 16px; fill: rgb(233, 84, 32); opacity: 1; font-weight: normal; white-space: pre;">Prezident/ka 2024</text></g><g class="g-xtitle"/><g class="g-ytitle"/></g></svg>