<svg class="main-svg" xmlns="http://www.w3.org/2000/svg" xmlns:xlink="http://www.w3.org/1999/xlink" width="300" height="135" style="" viewBox="0 0 300 135"><rect x="0" y="0" width="300" height="135" style="fill: rgb(255, 255, 255); fill-opacity: 1;"/><defs id="defs-c12d73"><g class="clips"><clipPath id="clipc12d73xyplot" class="plotclip"><rect width="280" height="75"/></clipPath><clipPath class="axesclip" id="clipc12d73x"><rect x="10" y="0" width="280" height="135"/></clipPath><clipPath class="axesclip" id="clipc12d73y"><rect x="0" y="50" width="300" height="75"/></clipPath><clipPath class="axesclip" id="clipc12d73xy"><rect x="10" y="50" width="280" height="75"/></clipPath></g><g class="gradients"/><g class="patterns"/></defs><g class="bglayer"/><g class="layer-below"><g class="imagelayer"/><g class="shapelayer"/></g><g class="cartesianlayer"><g class="subplot xy"><g class="layer-subplot"><g class="shapelayer"/><g class="imagelayer"/></g><g class="minor-gridlayer"><g class="x"/><g class="y"/></g><g class="gridlayer"><g class="x"><path class="xgrid crisp" transform="translate(28.67,0)" d="M0,50v75" style="stroke: rgb(235, 240, 248); stroke-opacity: 1; stroke-width: 1px;"/><path class="xgrid crisp" transform="translate(86.53,0)" d="M0,50v75" style="stroke: rgb(235, 240, 248); stroke-opacity: 1; stroke-width: 1px;"/><path class="xgrid crisp" transform="translate(144.4,0)" d="M0,50v75" style="stroke: rgb(235, 240, 248); stroke-opacity: 1; stroke-width: 1px;"/><path class="xgrid crisp" transform="translate(200.4,0)" d="M0,50v75" style="stroke: rgb(235, 240, 248); stroke-opacity: 1; stroke-width: 1px;"/><path class="xgrid crisp" transform="translate(258.27,0)" d="M0,50v75" style="stroke: rgb(235, 240, 248); stroke-opacity: 1; stroke-width: 1px;"/></g><g class="y"><path class="ygrid crisp" transform="translate(0,95.19)" d="M10,0h280" style="stroke: rgb(235, 240, 248); stroke-opacity: 1; stroke-width: 1px;"/><path class="ygrid crisp" transform="translate(0,65.38)" d="M10,0h280" style="stroke: rgb(235, 240, 248); stroke-opacity: 1; stroke-width: 1px;"/></g></g><g class="zerolinelayer"><path class="yzl zl crisp" transform="translate(0,125)" d="M10,0h280" style="stroke: rgb(235, 240, 248); stroke-opacity: 1; stroke-width: 2px;"/></g><path class="xlines-below"/><path class="ylines-below"/><g class="overlines-below"/><g class="xaxislayer-below"/><g class="yaxislayer-below"/><g class="overaxes-below"/><g class="plot" transform="translate(10,50)" clip-path="url(#clipc12d73xyplot)"><g class="scatterlayer mlayer"><g class="trace scatter trace5b082f" style="stroke-miterlimit: 2; opacity: 1;"><g class="fills"/><g class="errorbars"/><g class="lines"><path class="js-line" d="M0,43.85L5.6,39.97L7.47,39.97L14.93,40.27L16.8,39.23L42.93,38.03L44.8,37.14L80.27,36.1L82.13,29.84L104.53,29.84L108.27,34.16L110.13,33.26L113.87,33.26L128.8,32.97L130.67,36.24L134.4,37.88L136.27,37.29L138.13,36.69L140,38.03L188.53,37.14L190.4,34.16L194.13,35.35L196,35.35L197.87,35.05L199.73,30.13L201.6,27.15L203.47,27.15L207.2,26.41L209.07,21.49L212.8,18.66L214.67,18.66L220.27,17.76L222.13,16.42L227.73,13.14L229.6,13.14L244.53,13.59L246.4,15.08L261.33,15.08L263.2,12.99L265.07,12.99L266.93,9.41L274.4,9.41L276.27,5.39L280,5.39" style="vector-effect: none; fill: none; stroke: rgb(138, 44, 81); stroke-opacity: 1; stroke-width: 5px; opacity: 1;"/></g><g class="points"/><g class="text"/></g><g class="trace scatter tracec1307d" style="stroke-miterlimit: 2; opacity: 1;"><g class="fills"/><g class="errorbars"/><g class="lines"><path class="js-line" d="M0,10.01L5.6,12.1L7.47,12.1L13.07,13.14L14.93,11.8L18.67,10.9L20.53,10.9L42.93,11.5L44.8,12.25L108.27,12.25L110.13,16.42L126.93,15.67L128.8,15.08L132.53,6.58L134.4,6.58L138.13,9.27L140,4.79L156.8,4.79L158.67,7.03L160.53,7.03L162.4,4.79L164.27,7.03L166.13,4.35L169.87,3.75L171.73,6.58L173.6,3.75L175.47,3.75L179.2,3.75L181.07,6.58L182.93,6.58L184.8,3.75L186.67,6.58L188.53,6.58L190.4,3.9L192.27,7.33L205.33,8.22L207.2,8.97L210.93,12.4L212.8,12.54L240.8,13.59L242.67,14.48L265.07,14.63L266.93,16.12L280,15.82" style="vector-effect: none; fill: none; stroke: rgb(0, 174, 239); stroke-opacity: 1; stroke-width: 5px; opacity: 1;"/></g><g class="points"/><g class="text"/></g><g class="trace scatter trace44c4be" style="stroke-miterlimit: 2; opacity: 1;"><g class="fills"/><g class="errorbars"/><g class="lines"><path class="js-line" d="M0,59.95L9.33,60.39L11.2,60.39L13.07,61.44L14.93,60.54L18.67,59.65L20.53,59.65L80.27,59.95L82.13,61.73L108.27,60.54L110.13,50.85L130.67,51.75L132.53,52.64L164.27,52.19L166.13,53.09L169.87,53.68L171.73,52.64L175.47,53.68L177.33,53.68L188.53,52.64L190.4,56.96L192.27,53.98L194.13,53.98L197.87,54.13L199.73,56.37L201.6,58.16L203.47,58.16L207.2,57.71L209.07,59.2L218.4,59.5L220.27,59.35L225.87,60.09L227.73,60.09L240.8,59.5L242.67,58.16L244.53,58.16L246.4,56.07L261.33,56.07L263.2,58.01L265.07,58.6L266.93,60.69L280,61.88" style="vector-effect: none; fill: none; stroke: rgb(255, 1, 170); stroke-opacity: 1; stroke-width: 5px; opacity: 1;"/></g><g class="points"/><g class="text"/></g><g class="trace scatter tracedef6ee" style="stroke-miterlimit: 2; opacity: 1;"><g class="fills"/><g class="errorbars"/><g class="lines"><path class="js-line" d="M0,59.35L11.2,59.95L13.07,59.35L42.93,61.14L44.8,61.14L80.27,60.84L82.13,63.08L108.27,62.18L110.13,64.12L130.67,64.57L132.53,66.21L136.27,65.31L138.13,64.42L140,66.95L141.87,66.95L169.87,66.8L171.73,65.61L175.47,66.8L177.33,66.8L190.4,65.76L192.27,64.71L197.87,64.86L199.73,66.35L203.47,67.1L205.33,67.1L231.47,70.38L233.33,70.38L280,70.23" style="vector-effect: none; fill: none; stroke: rgb(238, 58, 67); stroke-opacity: 1; stroke-width: 5px; opacity: 1;"/></g><g class="points"/><g class="text"/></g><g class="trace scatter tracef5831c" style="stroke-miterlimit: 2; opacity: 1;"><g class="fills"/><g class="errorbars"/><g class="lines"><path class="js-line" d="M0,63.22L11.2,63.52L13.07,61.44L16.8,66.06L18.67,66.06L126.93,66.8L128.8,66.95L188.53,67.99L190.4,68.44L210.93,69.48L212.8,69.63L224,70.68L225.87,71.12L274.4,71.12L276.27,72.62L280,72.62" style="vector-effect: none; fill: none; stroke: rgb(202, 166, 105); stroke-opacity: 1; stroke-width: 5px; opacity: 1;"/></g><g class="points"/><g class="text"/></g></g></g><g class="overplot"/><path class="xlines-above crisp" d="M0,0" style="fill: none;"/><path class="ylines-above crisp" d="M0,0" style="fill: none;"/><g class="overlines-above"/><g class="xaxislayer-above"/><g class="yaxislayer-above"/><g class="overaxes-above"/></g></g><g class="polarlayer"/><g class="smithlayer"/><g class="ternarylayer"/><g class="geolayer"/><g class="funnelarealayer"/><g class="pielayer"/><g class="iciclelayer"/><g class="treemaplayer"/><g class="sunburstlayer"/><g class="glimages"/><defs id="topdefs-c12d73"><g class="clips"/></defs><g class="layer-above"><g class="imagelayer"/><g class="shapelayer"/></g><g class="infolayer"><g class="g-gtitle"><text class="gtitle" x="15" y="25" text-anchor="start" dy="0em" style="font-family: Ubuntu, verdana, arial, sans-serif; font-size: 16px; fill: rgb(233, 84, 32); opacity: 1; font-weight: normal; white-space: pre;">Prezident/ka 2024</text></g><g class="g-xtitle"/><g class="g-ytitle"/></g></svg>