<svg class="main-svg" xmlns="http://www.w3.org/2000/svg" xmlns:xlink="http://www.w3.org/1999/xlink" width="300" height="135" style="" viewBox="0 0 300 135"><rect x="0" y="0" width="300" height="135" style="fill: rgb(255, 255, 255); fill-opacity: 1;"/><defs id="defs-5cfcc8"><g class="clips"><clipPath id="clip5cfcc8xyplot" class="plotclip"><rect width="280" height="75"/></clipPath><clipPath class="axesclip" id="clip5cfcc8x"><rect x="10" y="0" width="280" height="135"/></clipPath><clipPath class="axesclip" id="clip5cfcc8y"><rect x="0" y="50" width="300" height="75"/></clipPath><clipPath class="axesclip" id="clip5cfcc8xy"><rect x="10" y="50" width="280" height="75"/></clipPath></g><g class="gradients"/><g class="patterns"/></defs><g class="bglayer"/><g class="layer-below"><g class="imagelayer"/><g class="shapelayer"/></g><g class="cartesianlayer"><g class="subplot xy"><g class="layer-subplot"><g class="shapelayer"/><g class="imagelayer"/></g><g class="minor-gridlayer"><g class="x"/><g class="y"/></g><g class="gridlayer"><g class="x"><path class="xgrid crisp" transform="translate(21.16,0)" d="M0,50v75" style="stroke: rgb(235, 240, 248); stroke-opacity: 1; stroke-width: 1px;"/><path class="xgrid crisp" transform="translate(90.32,0)" d="M0,50v75" style="stroke: rgb(235, 240, 248); stroke-opacity: 1; stroke-width: 1px;"/><path class="xgrid crisp" transform="translate(158.37,0)" d="M0,50v75" style="stroke: rgb(235, 240, 248); stroke-opacity: 1; stroke-width: 1px;"/><path class="xgrid crisp" transform="translate(226.41,0)" d="M0,50v75" style="stroke: rgb(235, 240, 248); stroke-opacity: 1; stroke-width: 1px;"/></g><g class="y"><path class="ygrid crisp" transform="translate(0,102.77000000000001)" d="M10,0h280" style="stroke: rgb(235, 240, 248); stroke-opacity: 1; stroke-width: 1px;"/><path class="ygrid crisp" transform="translate(0,80.53999999999999)" d="M10,0h280" style="stroke: rgb(235, 240, 248); stroke-opacity: 1; stroke-width: 1px;"/><path class="ygrid crisp" transform="translate(0,58.31)" d="M10,0h280" style="stroke: rgb(235, 240, 248); stroke-opacity: 1; stroke-width: 1px;"/></g></g><g class="zerolinelayer"><path class="yzl zl crisp" transform="translate(0,125)" d="M10,0h280" style="stroke: rgb(235, 240, 248); stroke-opacity: 1; stroke-width: 2px;"/></g><path class="xlines-below"/><path class="ylines-below"/><g class="overlines-below"/><g class="xaxislayer-below"/><g class="yaxislayer-below"/><g class="overaxes-below"/><g class="plot" transform="translate(10,50)" clip-path="url(#clip5cfcc8xyplot)"><g class="scatterlayer mlayer"><g class="trace scatter trace898f19" style="stroke-miterlimit: 2; opacity: 1;"><g class="fills"/><g class="errorbars"/><g class="lines"><path class="js-line" d="M262.15,21.65L280,21.65" style="vector-effect: none; fill: none; stroke: rgb(187, 187, 187); stroke-opacity: 1; stroke-width: 5px; opacity: 1;"/></g><g class="points"/><g class="text"/></g><g class="trace scatter trace56da1c" style="stroke-miterlimit: 2; opacity: 1;"><g class="fills"/><g class="errorbars"/><g class="lines"><path class="js-line" d="M0,51.77L3.35,48.88L4.46,48.88L8.92,49.1L10.04,48.32L25.66,47.43L26.77,46.77L47.97,45.99L49.08,41.32L62.47,41.32L64.7,44.54L68.05,43.88L69.16,43.88L76.97,43.65L78.09,46.1L80.32,47.32L81.43,46.88L82.55,46.43L83.67,47.43L112.67,46.77L113.78,44.54L116.02,45.43L117.13,45.43L118.25,45.21L119.36,41.54L121.59,39.32L122.71,39.32L123.82,38.76L124.94,35.1L127.17,32.98L128.29,32.98L131.63,32.32L132.75,31.32L136.1,28.87L137.21,28.87L146.14,29.2L147.25,30.32L156.18,30.32L157.29,28.76L158.41,28.76L159.52,26.09L163.98,26.09L165.1,23.09L171.79,23.09L172.91,21.31L179.6,18.42L180.72,18.42L182.95,14.64L184.06,14.64L185.18,12.75L186.29,8.2L196.33,8.2L197.45,9.86L199.68,10.64L200.8,10.64L203.03,12.86L204.14,13.53L209.72,12.31L210.84,12.31L217.53,12.42L218.65,8.75L220.88,5.08L221.99,4.97L225.34,5.86L226.45,3.75L229.8,4.75L230.92,5.64L233.15,6.75L234.26,10.53L235.38,11.86L236.49,10.53L238.73,10.64L239.84,8.86L242.07,8.97L243.19,9.09L245.42,8.64L246.53,7.75L249.88,4.64L251,4.64L254.34,6.64L255.46,5.75L257.69,6.42L258.8,8.64L261.04,14.87L262.15,43.65L273.31,43.88L274.42,42.21L280,38.76" style="vector-effect: none; fill: none; stroke: rgb(138, 44, 81); stroke-opacity: 1; stroke-width: 5px; opacity: 1;"/></g><g class="points"/><g class="text"/></g><g class="trace scatter trace0278d6" style="stroke-miterlimit: 2; opacity: 1;"><g class="fills"/><g class="errorbars"/><g class="lines"><path class="js-line" d="M0,26.54L4.46,28.09L5.58,28.09L8.92,27.87L10.04,27.2L64.7,28.2L65.82,31.32L76.97,30.32L78.09,27.76L80.32,23.98L81.43,24.98L82.55,25.98L83.67,22.65L93.71,22.65L94.82,24.31L95.94,24.31L97.05,22.65L98.17,24.31L99.28,22.31L101.51,21.87L102.63,23.98L104.86,21.87L105.98,21.87L107.09,21.87L108.21,23.98L109.32,23.98L110.44,21.87L112.67,23.98L113.78,21.98L116.02,24.54L117.13,24.54L123.82,25.76L124.94,27.65L128.29,28.43L129.4,28.43L143.9,29.2L145.02,29.87L171.79,30.87L172.91,32.65L180.72,34.98L181.83,32.87L185.18,33.98L186.29,35.43L196.33,35.43L197.45,33.87L199.68,32.98L200.8,32.98L201.91,32.54L203.03,29.98L205.26,29.43L206.37,29.76L217.53,29.2L218.65,32.09L220.88,35.43L221.99,35.54L224.22,33.76L225.34,32.98L227.57,35.1L228.69,34.54L233.15,32.09L234.26,28.32L235.38,26.98L236.49,28.32L238.73,28.2L239.84,29.98L242.07,29.87L243.19,29.76L245.42,30.2L246.53,31.09L249.88,34.21L251,34.21L254.34,32.21L255.46,33.09L257.69,32.43L258.8,30.2L261.04,23.98L262.15,48.66L273.31,48.43L274.42,50.21L278.88,53.21L280,53.44" style="vector-effect: none; fill: none; stroke: rgb(0, 174, 239); stroke-opacity: 1; stroke-width: 5px; opacity: 1;"/></g><g class="points"/><g class="text"/></g><g class="trace scatter tracef80e30" style="stroke-miterlimit: 2; opacity: 1;"><g class="fills"/><g class="errorbars"/><g class="lines"><path class="js-line" d="M0,63.77L7.81,64.88L8.92,64.22L12.27,63.55L13.39,63.55L47.97,63.77L49.08,65.11L64.7,64.22L65.82,56.99L78.09,57.66L79.2,58.33L99.28,58.66L100.4,59.1L112.67,58.33L113.78,61.55L116.02,59.33L117.13,59.33L118.25,59.44L119.36,61.11L121.59,62.44L122.71,62.44L123.82,62.11L124.94,63.22L131.63,63.33L132.75,63.22L140.56,63.88L141.67,63.88L143.9,63.44L145.02,62.44L146.14,62.44L147.25,60.88L156.18,60.88L157.29,62.33L162.87,64.33L163.98,64.33L166.22,65.22L167.33,65.22L180.72,65.55L181.83,69L201.91,70.11L203.03,71.11L217.53,72.22L218.65,73L224.22,73.55" style="vector-effect: none; fill: none; stroke: rgb(255, 1, 170); stroke-opacity: 1; stroke-width: 5px; opacity: 1;"/></g><g class="points"/><g class="text"/></g><g class="trace scatter trace48d9eb" style="stroke-miterlimit: 2; opacity: 1;"><g class="fills"/><g class="errorbars"/><g class="lines"><path class="js-line" d="M0,66.22L6.69,66.44L7.81,64.88L10.04,68.33L11.16,68.33L80.32,68.89L81.43,69.33L83.67,69L84.78,69L119.36,70.11L120.48,70.33L132.75,71.55L133.86,71.78L138.33,72.11L139.44,72.11L180.72,73.33L181.83,73.67L185.18,73.89" style="vector-effect: none; fill: none; stroke: rgb(202, 166, 105); stroke-opacity: 1; stroke-width: 5px; opacity: 1;"/></g><g class="points"/><g class="text"/></g></g></g><g class="overplot"/><path class="xlines-above crisp" d="M0,0" style="fill: none;"/><path class="ylines-above crisp" d="M0,0" style="fill: none;"/><g class="overlines-above"/><g class="xaxislayer-above"/><g class="yaxislayer-above"/><g class="overaxes-above"/></g></g><g class="polarlayer"/><g class="smithlayer"/><g class="ternarylayer"/><g class="geolayer"/><g class="funnelarealayer"/><g class="pielayer"/><g class="iciclelayer"/><g class="treemaplayer"/><g class="sunburstlayer"/><g class="glimages"/><defs id="topdefs-5cfcc8"><g class="clips"/></defs><g class="layer-above"><g class="imagelayer"/><g class="shapelayer"/></g><g class="infolayer"><g class="g-gtitle"><text class="gtitle" x="15" y="25" text-anchor="start" dy="0em" style="font-family: Ubuntu, verdana, arial, sans-serif; font-size: 16px; fill: rgb(233, 84, 32); opacity: 1; font-weight: normal; white-space: pre;">Prezident/ka 2024</text></g><g class="g-xtitle"/><g class="g-ytitle"/></g></svg>