<svg class="main-svg" xmlns="http://www.w3.org/2000/svg" xmlns:xlink="http://www.w3.org/1999/xlink" width="300" height="135" style="" viewBox="0 0 300 135"><rect x="0" y="0" width="300" height="135" style="fill: rgb(255, 255, 255); fill-opacity: 1;"/><defs id="defs-df55e7"><g class="clips"><clipPath id="clipdf55e7xyplot" class="plotclip"><rect width="280" height="75"/></clipPath><clipPath class="axesclip" id="clipdf55e7x"><rect x="10" y="0" width="280" height="135"/></clipPath><clipPath class="axesclip" id="clipdf55e7y"><rect x="0" y="50" width="300" height="75"/></clipPath><clipPath class="axesclip" id="clipdf55e7xy"><rect x="10" y="50" width="280" height="75"/></clipPath></g><g class="gradients"/><g class="patterns"/></defs><g class="bglayer"/><g class="layer-below"><g class="imagelayer"/><g class="shapelayer"/></g><g class="cartesianlayer"><g class="subplot xy"><g class="layer-subplot"><g class="shapelayer"/><g class="imagelayer"/></g><g class="minor-gridlayer"><g class="x"/><g class="y"/></g><g class="gridlayer"><g class="x"><path class="xgrid crisp" transform="translate(23.66,0)" d="M0,50v75" style="stroke: rgb(235, 240, 248); stroke-opacity: 1; stroke-width: 1px;"/><path class="xgrid crisp" transform="translate(108.34,0)" d="M0,50v75" style="stroke: rgb(235, 240, 248); stroke-opacity: 1; stroke-width: 1px;"/><path class="xgrid crisp" transform="translate(191.66,0)" d="M0,50v75" style="stroke: rgb(235, 240, 248); stroke-opacity: 1; stroke-width: 1px;"/><path class="xgrid crisp" transform="translate(274.98,0)" d="M0,50v75" style="stroke: rgb(235, 240, 248); stroke-opacity: 1; stroke-width: 1px;"/></g><g class="y"><path class="ygrid crisp" transform="translate(0,102.77000000000001)" d="M10,0h280" style="stroke: rgb(235, 240, 248); stroke-opacity: 1; stroke-width: 1px;"/><path class="ygrid crisp" transform="translate(0,80.53999999999999)" d="M10,0h280" style="stroke: rgb(235, 240, 248); stroke-opacity: 1; stroke-width: 1px;"/><path class="ygrid crisp" transform="translate(0,58.31)" d="M10,0h280" style="stroke: rgb(235, 240, 248); stroke-opacity: 1; stroke-width: 1px;"/></g></g><g class="zerolinelayer"><path class="yzl zl crisp" transform="translate(0,125)" d="M10,0h280" style="stroke: rgb(235, 240, 248); stroke-opacity: 1; stroke-width: 2px;"/></g><path class="xlines-below"/><path class="ylines-below"/><g class="overlines-below"/><g class="xaxislayer-below"/><g class="yaxislayer-below"/><g class="overaxes-below"/><g class="plot" transform="translate(10,50)" clip-path="url(#clipdf55e7xyplot)"><g class="scatterlayer mlayer"><g class="trace scatter trace2b3342" style="stroke-miterlimit: 2; opacity: 1;"><g class="fills"/><g class="errorbars"/><g class="lines"><path class="js-line" d="M0,51.77L4.1,48.88L5.46,48.88L10.93,49.1L12.29,48.32L31.41,47.43L32.78,46.77L58.73,45.99L60.1,41.32L76.49,41.32L79.22,44.54L83.32,43.88L84.68,43.88L94.24,43.65L95.61,46.1L98.34,47.32L99.71,46.88L101.07,46.43L102.44,47.43L137.95,46.77L139.32,44.54L142.05,45.43L143.41,45.43L144.78,45.21L146.15,41.54L148.88,39.32L150.24,39.32L151.61,38.76L152.98,35.1L155.71,32.98L157.07,32.98L161.17,32.32L162.54,31.32L166.63,28.87L168,28.87L178.93,29.2L180.29,30.32L191.22,30.32L192.59,28.76L193.95,28.76L195.32,26.09L200.78,26.09L202.15,23.09L210.34,23.09L211.71,21.31L219.9,18.42L221.27,18.42L222.63,14.64L224,14.64L225.37,14.64L226.73,12.75L228.1,8.2L229.46,8.2L240.39,8.2L241.76,9.86L244.49,10.64L245.85,10.64L247.22,11.09L248.59,12.86L251.32,13.09L252.68,12.31L266.34,12.42L267.71,8.75L270.44,5.08L271.8,4.97L275.9,5.86L277.27,3.75L280,4.19" style="vector-effect: none; fill: none; stroke: rgb(138, 44, 81); stroke-opacity: 1; stroke-width: 5px; opacity: 1;"/></g><g class="points"/><g class="text"/></g><g class="trace scatter tracee1f1ba" style="stroke-miterlimit: 2; opacity: 1;"><g class="fills"/><g class="errorbars"/><g class="lines"><path class="js-line" d="M0,26.54L5.46,28.09L6.83,28.09L10.93,27.87L12.29,27.2L79.22,28.2L80.59,31.32L94.24,30.32L95.61,27.76L96.98,23.98L98.34,23.98L101.07,25.98L102.44,22.65L114.73,22.65L116.1,24.31L117.46,24.31L118.83,22.65L120.2,24.31L121.56,22.31L124.29,21.87L125.66,23.98L128.39,21.87L129.76,21.87L131.12,21.87L132.49,23.98L133.85,23.98L135.22,21.87L137.95,23.98L139.32,21.98L142.05,24.54L143.41,24.54L151.61,25.76L152.98,27.65L157.07,28.43L158.44,28.43L176.2,29.2L177.56,29.87L210.34,30.87L211.71,32.65L221.27,34.98L222.63,32.87L226.73,33.98L228.1,35.43L240.39,35.43L241.76,33.87L244.49,32.98L245.85,32.98L247.22,32.54L248.59,29.98L251.32,29.43L252.68,29.76L266.34,29.2L267.71,32.09L270.44,35.43L271.8,35.54L274.54,33.76L275.9,32.98L278.63,35.1L280,34.65" style="vector-effect: none; fill: none; stroke: rgb(0, 174, 239); stroke-opacity: 1; stroke-width: 5px; opacity: 1;"/></g><g class="points"/><g class="text"/></g><g class="trace scatter tracef8fe8c" style="stroke-miterlimit: 2; opacity: 1;"><g class="fills"/><g class="errorbars"/><g class="lines"><path class="js-line" d="M0,63.77L9.56,64.88L10.93,64.22L15.02,63.55L16.39,63.55L58.73,63.77L60.1,65.11L79.22,64.22L80.59,56.99L95.61,57.66L96.98,58.33L121.56,58.66L122.93,59.1L137.95,58.33L139.32,61.55L142.05,59.33L143.41,59.33L144.78,59.44L146.15,61.11L148.88,62.44L150.24,62.44L151.61,62.11L152.98,63.22L161.17,63.33L162.54,63.22L172.1,63.88L173.46,63.88L176.2,63.44L177.56,62.44L178.93,62.44L180.29,60.88L191.22,60.88L192.59,62.33L198.05,64.33L199.41,64.33L221.27,65.55L222.63,69L247.22,70.11L248.59,71.11L266.34,72.22L267.71,73L274.54,73.55" style="vector-effect: none; fill: none; stroke: rgb(255, 1, 170); stroke-opacity: 1; stroke-width: 5px; opacity: 1;"/></g><g class="points"/><g class="text"/></g><g class="trace scatter trace23c3d1" style="stroke-miterlimit: 2; opacity: 1;"><g class="fills"/><g class="errorbars"/><g class="lines"><path class="js-line" d="M0,63.33L8.2,63.77L9.56,63.33L35.51,64.66L36.88,64.66L58.73,64.44L60.1,66.11L79.22,65.44L80.59,66.89L95.61,67.22L96.98,68.44L99.71,67.77L101.07,67.11L103.8,69L105.17,69L139.32,68.11L140.68,67.33L146.15,68.55L147.51,69.11L161.17,70.33L162.54,70.78L172.1,71.55L173.46,71.55L221.27,71.55L222.63,73.67L226.73,73.89" style="vector-effect: none; fill: none; stroke: rgb(238, 58, 67); stroke-opacity: 1; stroke-width: 5px; opacity: 1;"/></g><g class="points"/><g class="text"/></g><g class="trace scatter tracee7e3ed" style="stroke-miterlimit: 2; opacity: 1;"><g class="fills"/><g class="errorbars"/><g class="lines"><path class="js-line" d="M0,67.22L15.02,67.33L16.39,67.33L58.73,68.55L60.1,69.44L76.49,69.44L79.22,68.11L80.59,71L83.32,71L101.07,71.89L102.44,72.33L161.17,73.11L162.54,73.55L200.78,73.55" style="vector-effect: none; fill: none; stroke: rgb(255, 192, 203); stroke-opacity: 1; stroke-width: 5px; opacity: 1;"/></g><g class="points"/><g class="text"/></g></g></g><g class="overplot"/><path class="xlines-above crisp" d="M0,0" style="fill: none;"/><path class="ylines-above crisp" d="M0,0" style="fill: none;"/><g class="overlines-above"/><g class="xaxislayer-above"/><g class="yaxislayer-above"/><g class="overaxes-above"/></g></g><g class="polarlayer"/><g class="smithlayer"/><g class="ternarylayer"/><g class="geolayer"/><g class="funnelarealayer"/><g class="pielayer"/><g class="iciclelayer"/><g class="treemaplayer"/><g class="sunburstlayer"/><g class="glimages"/><defs id="topdefs-df55e7"><g class="clips"/></defs><g class="layer-above"><g class="imagelayer"/><g class="shapelayer"/></g><g class="infolayer"><g class="g-gtitle"><text class="gtitle" x="15" y="25" text-anchor="start" dy="0em" style="font-family: Ubuntu, verdana, arial, sans-serif; font-size: 16px; fill: rgb(233, 84, 32); opacity: 1; font-weight: normal; white-space: pre;">Prezident/ka 2024</text></g><g class="g-xtitle"/><g class="g-ytitle"/></g></svg>