<svg class="main-svg" xmlns="http://www.w3.org/2000/svg" xmlns:xlink="http://www.w3.org/1999/xlink" width="300" height="135" style="" viewBox="0 0 300 135"><rect x="0" y="0" width="300" height="135" style="fill: rgb(255, 255, 255); fill-opacity: 1;"/><defs id="defs-af6c3f"><g class="clips"><clipPath id="clipaf6c3fxyplot" class="plotclip"><rect width="280" height="75"/></clipPath><clipPath class="axesclip" id="clipaf6c3fx"><rect x="10" y="0" width="280" height="135"/></clipPath><clipPath class="axesclip" id="clipaf6c3fy"><rect x="0" y="50" width="300" height="75"/></clipPath><clipPath class="axesclip" id="clipaf6c3fxy"><rect x="10" y="50" width="280" height="75"/></clipPath></g><g class="gradients"/><g class="patterns"/></defs><g class="bglayer"/><g class="layer-below"><g class="imagelayer"/><g class="shapelayer"/></g><g class="cartesianlayer"><g class="subplot xy"><g class="layer-subplot"><g class="shapelayer"/><g class="imagelayer"/></g><g class="minor-gridlayer"><g class="x"/><g class="y"/></g><g class="gridlayer"><g class="x"><path class="xgrid crisp" transform="translate(29.05,0)" d="M0,50v75" style="stroke: rgb(235, 240, 248); stroke-opacity: 1; stroke-width: 1px;"/><path class="xgrid crisp" transform="translate(88.1,0)" d="M0,50v75" style="stroke: rgb(235, 240, 248); stroke-opacity: 1; stroke-width: 1px;"/><path class="xgrid crisp" transform="translate(147.14,0)" d="M0,50v75" style="stroke: rgb(235, 240, 248); stroke-opacity: 1; stroke-width: 1px;"/><path class="xgrid crisp" transform="translate(204.29,0)" d="M0,50v75" style="stroke: rgb(235, 240, 248); stroke-opacity: 1; stroke-width: 1px;"/><path class="xgrid crisp" transform="translate(263.33000000000004,0)" d="M0,50v75" style="stroke: rgb(235, 240, 248); stroke-opacity: 1; stroke-width: 1px;"/></g><g class="y"><path class="ygrid crisp" transform="translate(0,109.38)" d="M10,0h280" style="stroke: rgb(235, 240, 248); stroke-opacity: 1; stroke-width: 1px;"/><path class="ygrid crisp" transform="translate(0,93.75)" d="M10,0h280" style="stroke: rgb(235, 240, 248); stroke-opacity: 1; stroke-width: 1px;"/><path class="ygrid crisp" transform="translate(0,78.13)" d="M10,0h280" style="stroke: rgb(235, 240, 248); stroke-opacity: 1; stroke-width: 1px;"/><path class="ygrid crisp" transform="translate(0,62.5)" d="M10,0h280" style="stroke: rgb(235, 240, 248); stroke-opacity: 1; stroke-width: 1px;"/></g></g><g class="zerolinelayer"><path class="yzl zl crisp" transform="translate(0,125)" d="M10,0h280" style="stroke: rgb(235, 240, 248); stroke-opacity: 1; stroke-width: 2px;"/></g><path class="xlines-below"/><path class="ylines-below"/><g class="overlines-below"/><g class="xaxislayer-below"/><g class="yaxislayer-below"/><g class="overaxes-below"/><g class="plot" transform="translate(10,50)" clip-path="url(#clipaf6c3fxyplot)"><g class="scatterlayer mlayer"><g class="trace scatter trace20c1e0" style="stroke-miterlimit: 2; opacity: 1;"><g class="fills"/><g class="errorbars"/><g class="lines"><path class="js-line" d="M0,43.44L3.81,39.38L5.71,39.38L15.24,39.53L17.14,38.75L43.81,37.66L45.71,36.88L81.9,35.78L83.81,29.69L106.67,29.69L110.48,33.75L112.38,32.97L116.19,32.97L131.43,32.66L133.33,35.94L137.14,37.34L139.05,36.88L140.95,36.25L142.86,37.66L192.38,36.88L194.29,34.06L198.1,35L200,35L201.9,34.69L203.81,29.69L205.71,26.72L207.62,26.72L211.43,25.78L213.33,20.63L217.14,17.66L219.05,17.66L224.76,16.72L226.67,15L232.38,11.41L234.29,11.41L249.52,11.87L251.43,13.44L266.67,13.44L268.57,11.25L270.48,11.25L272.38,7.5L280,7.5" style="vector-effect: none; fill: none; stroke: rgb(138, 44, 81); stroke-opacity: 1; stroke-width: 5px; opacity: 1;"/></g><g class="points"/><g class="text"/></g><g class="trace scatter traceefb40c" style="stroke-miterlimit: 2; opacity: 1;"><g class="fills"/><g class="errorbars"/><g class="lines"><path class="js-line" d="M0,9.06L5.71,11.25L7.62,11.25L15.24,10.63L17.14,10.16L43.81,10.94L45.71,11.56L110.48,11.56L112.38,15.94L129.52,15.16L131.43,14.53L135.24,5.78L137.14,5.78L140.95,8.44L142.86,3.91L160,3.91L161.9,6.25L163.81,6.25L165.71,3.91L167.62,6.25L169.52,3.75L173.33,3.75L175.24,6.09L177.14,3.75L179.05,3.75L182.86,3.75L184.76,6.09L186.67,6.09L188.57,3.75L190.48,6.09L192.38,6.09L194.29,3.75L196.19,6.72L209.52,7.66L211.43,8.13L215.24,11.41L217.14,11.41L245.71,11.72L247.62,12.66L270.48,12.97L272.38,14.53L280,14.53" style="vector-effect: none; fill: none; stroke: rgb(0, 174, 239); stroke-opacity: 1; stroke-width: 5px; opacity: 1;"/></g><g class="points"/><g class="text"/></g><g class="trace scatter tracea4b090" style="stroke-miterlimit: 2; opacity: 1;"><g class="fills"/><g class="errorbars"/><g class="lines"><path class="js-line" d="M0,59.69L13.33,61.09L15.24,60.31L19.05,59.53L20.95,59.53L81.9,59.84L83.81,61.72L106.67,61.72L110.48,60.31L112.38,50.78L116.19,50.78L133.33,51.56L135.24,52.34L167.62,51.88L169.52,52.97L173.33,53.59L175.24,52.5L179.05,53.59L180.95,53.59L192.38,52.5L194.29,57.03L196.19,53.75L198.1,53.75L201.9,53.91L203.81,56.25L205.71,57.97L207.62,57.97L211.43,57.5L213.33,58.91L222.86,59.22L224.76,59.06L234.29,59.53L236.19,59.53L245.71,59.06L247.62,57.81L249.52,57.81L251.43,55.47L266.67,55.47L268.57,57.5L270.48,58.13L272.38,60.31L280,60.31" style="vector-effect: none; fill: none; stroke: rgb(255, 1, 170); stroke-opacity: 1; stroke-width: 5px; opacity: 1;"/></g><g class="points"/><g class="text"/></g><g class="trace scatter trace70605d" style="stroke-miterlimit: 2; opacity: 1;"><g class="fills"/><g class="errorbars"/><g class="lines"><path class="js-line" d="M0,59.22L11.43,59.69L13.33,58.91L24.76,60L26.67,60L40,60.94L41.9,60.94L81.9,60.78L83.81,63.13L110.48,62.03L112.38,64.06L133.33,64.38L135.24,66.09L139.05,65.16L140.95,64.38L142.86,66.88L144.76,66.88L194.29,65.78L196.19,64.53L201.9,64.69L203.81,66.25L207.62,67.03L209.52,67.03L228.57,69.38L230.48,70.16L280,70.31" style="vector-effect: none; fill: none; stroke: rgb(238, 58, 67); stroke-opacity: 1; stroke-width: 5px; opacity: 1;"/></g><g class="points"/><g class="text"/></g><g class="trace scatter tracee198ff" style="stroke-miterlimit: 2; opacity: 1;"><g class="fills"/><g class="errorbars"/><g class="lines"><path class="js-line" d="M0,62.97L11.43,63.44L13.33,61.09L17.14,65.94L19.05,65.94L129.52,66.72L131.43,66.88L192.38,67.81L194.29,68.44L205.71,68.59L207.62,68.59L224.76,69.84L226.67,70.31L243.81,71.09L245.71,71.09L280,71.09" style="vector-effect: none; fill: none; stroke: rgb(202, 166, 105); stroke-opacity: 1; stroke-width: 5px; opacity: 1;"/></g><g class="points"/><g class="text"/></g></g></g><g class="overplot"/><path class="xlines-above crisp" d="M0,0" style="fill: none;"/><path class="ylines-above crisp" d="M0,0" style="fill: none;"/><g class="overlines-above"/><g class="xaxislayer-above"/><g class="yaxislayer-above"/><g class="overaxes-above"/></g></g><g class="polarlayer"/><g class="smithlayer"/><g class="ternarylayer"/><g class="geolayer"/><g class="funnelarealayer"/><g class="pielayer"/><g class="iciclelayer"/><g class="treemaplayer"/><g class="sunburstlayer"/><g class="glimages"/><defs id="topdefs-af6c3f"><g class="clips"/></defs><g class="layer-above"><g class="imagelayer"/><g class="shapelayer"/></g><g class="infolayer"><g class="g-gtitle"><text class="gtitle" x="15" y="25" text-anchor="start" dy="0em" style="font-family: Ubuntu, verdana, arial, sans-serif; font-size: 16px; fill: rgb(233, 84, 32); opacity: 1; font-weight: normal; white-space: pre;">Prezident/ka 2024</text></g><g class="g-xtitle"/><g class="g-ytitle"/></g></svg>