<svg class="main-svg" xmlns="http://www.w3.org/2000/svg" xmlns:xlink="http://www.w3.org/1999/xlink" width="1200" height="600" style="" viewBox="0 0 1200 600"><rect x="0" y="0" width="1200" height="600" style="fill: rgb(255, 255, 255); fill-opacity: 1;"/><defs id="defs-0a4af2"><g class="clips"><clipPath id="clip0a4af2xyplot" class="plotclip"><rect width="990" height="530"/></clipPath><clipPath class="axesclip" id="clip0a4af2x"><rect x="50" y="0" width="990" height="600"/></clipPath><clipPath class="axesclip" id="clip0a4af2y"><rect x="0" y="20" width="1200" height="530"/></clipPath><clipPath class="axesclip" id="clip0a4af2xy"><rect x="50" y="20" width="990" height="530"/></clipPath></g><g class="gradients"/><g class="patterns"/></defs><g class="bglayer"/><g class="layer-below"><g class="imagelayer"/><g class="shapelayer"/></g><g class="cartesianlayer"><g class="subplot xy"><g class="layer-subplot"><g class="shapelayer"/><g class="imagelayer"/></g><g class="minor-gridlayer"><g class="x"/><g class="y"/></g><g class="gridlayer"><g class="x"><path class="xgrid crisp" transform="translate(84.14,0)" d="M0,20v530" style="stroke: rgb(235, 240, 248); stroke-opacity: 1; stroke-width: 1px;"/><path class="xgrid crisp" transform="translate(189.97,0)" d="M0,20v530" style="stroke: rgb(235, 240, 248); stroke-opacity: 1; stroke-width: 1px;"/><path class="xgrid crisp" transform="translate(295.78999999999996,0)" d="M0,20v530" style="stroke: rgb(235, 240, 248); stroke-opacity: 1; stroke-width: 1px;"/><path class="xgrid crisp" transform="translate(398.21,0)" d="M0,20v530" style="stroke: rgb(235, 240, 248); stroke-opacity: 1; stroke-width: 1px;"/><path class="xgrid crisp" transform="translate(504.03,0)" d="M0,20v530" style="stroke: rgb(235, 240, 248); stroke-opacity: 1; stroke-width: 1px;"/><path class="xgrid crisp" transform="translate(606.45,0)" d="M0,20v530" style="stroke: rgb(235, 240, 248); stroke-opacity: 1; stroke-width: 1px;"/><path class="xgrid crisp" transform="translate(712.28,0)" d="M0,20v530" style="stroke: rgb(235, 240, 248); stroke-opacity: 1; stroke-width: 1px;"/><path class="xgrid crisp" transform="translate(818.1,0)" d="M0,20v530" style="stroke: rgb(235, 240, 248); stroke-opacity: 1; stroke-width: 1px;"/><path class="xgrid crisp" transform="translate(917.1,0)" d="M0,20v530" style="stroke: rgb(235, 240, 248); stroke-opacity: 1; stroke-width: 1px;"/><path class="xgrid crisp" transform="translate(1022.93,0)" d="M0,20v530" style="stroke: rgb(235, 240, 248); stroke-opacity: 1; stroke-width: 1px;"/></g><g class="y"><path class="ygrid crisp" transform="translate(0,475.74)" d="M50,0h990" style="stroke: rgb(235, 240, 248); stroke-opacity: 1; stroke-width: 1px;"/><path class="ygrid crisp" transform="translate(0,401.47)" d="M50,0h990" style="stroke: rgb(235, 240, 248); stroke-opacity: 1; stroke-width: 1px;"/><path class="ygrid crisp" transform="translate(0,327.21)" d="M50,0h990" style="stroke: rgb(235, 240, 248); stroke-opacity: 1; stroke-width: 1px;"/><path class="ygrid crisp" transform="translate(0,252.95)" d="M50,0h990" style="stroke: rgb(235, 240, 248); stroke-opacity: 1; stroke-width: 1px;"/><path class="ygrid crisp" transform="translate(0,178.69)" d="M50,0h990" style="stroke: rgb(235, 240, 248); stroke-opacity: 1; stroke-width: 1px;"/><path class="ygrid crisp" transform="translate(0,104.42)" d="M50,0h990" style="stroke: rgb(235, 240, 248); stroke-opacity: 1; stroke-width: 1px;"/><path class="ygrid crisp" transform="translate(0,30.16)" d="M50,0h990" style="stroke: rgb(235, 240, 248); stroke-opacity: 1; stroke-width: 1px;"/></g></g><g class="zerolinelayer"><path class="yzl zl crisp" transform="translate(0,550)" d="M50,0h990" style="stroke: rgb(235, 240, 248); stroke-opacity: 1; stroke-width: 2px;"/></g><path class="xlines-below"/><path class="ylines-below"/><g class="overlines-below"/><g class="xaxislayer-below"/><g class="yaxislayer-below"/><g class="overaxes-below"/><g class="plot" transform="translate(50,20)" clip-path="url(#clip0a4af2xyplot)"><g class="scatterlayer mlayer"><g class="trace scatter trace0ef86a" style="stroke-miterlimit: 2; opacity: 1;"><g class="fills"/><g class="errorbars"/><g class="lines"><path class="js-line" d="M0,374.79L6.83,355.48L10.24,355.48L20.48,355.48L23.9,360.68L30.72,351.77L34.14,351.77L47.79,351.77L51.21,349.54L61.45,349.54L64.86,347.31L68.28,345.83L71.69,345.83L78.52,345.83L81.93,341.37L126.31,341.37L129.72,336.17L146.79,336.17L150.21,304.98L191.17,304.98L198,326.52L201.41,322.06L208.24,322.06L232.14,321.32L235.55,320.58L238.97,336.92L242.38,345.09L245.79,345.09L249.21,342.12L252.62,339.15L256.03,345.83L286.76,345.83L290.17,342.86L293.59,342.86L297,345.83L300.41,342.86L303.83,345.09L307.24,342.86L310.66,342.86L314.07,341.37L317.48,342.86L327.72,342.86L331.14,341.37L334.55,341.37L337.97,342.86L341.38,341.37L344.79,341.37L348.21,326.52L351.62,332.46L358.45,332.46L361.86,330.98L365.28,306.47L368.69,291.62L375.52,291.62L378.93,287.9L382.34,263.4L385.76,251.52L389.17,249.29L392.59,249.29L399.41,249.29L402.83,244.83L409.66,232.21L413.07,221.81L440.38,222.55L443.79,224.04L447.21,224.04L450.62,231.46L477.93,231.46L481.34,221.07L484.76,221.07L488.17,203.24L501.83,203.24L505.24,183.19L525.72,183.19L529.14,171.31L532.55,166.86L535.97,166.86L539.38,166.86L542.79,162.4L546.21,155.72L549.62,152L553.03,152L556.45,126.75L563.28,126.75L566.69,114.13L570.1,83.68L573.52,83.68L600.83,83.68L604.24,94.82L607.66,100.02L611.07,100.02L614.48,100.02L617.9,102.99L621.31,114.87L624.72,119.33L628.14,116.36L631.55,111.16L655.45,111.16L658.86,109.67L662.28,113.39L665.69,111.9L672.52,71.06L675.93,62.89L679.34,62.15L682.76,64.37L686.17,73.29L689.59,68.09L693,53.98L696.41,53.98L703.24,60.66L706.66,66.6L710.07,73.29L713.48,74.03L716.9,99.28L720.31,108.19L723.72,99.28L727.14,102.99L730.55,100.02L733.97,88.14L737.38,85.17L740.79,88.88L747.62,91.11L751.03,86.65L754.45,80.71L757.86,70.31L761.28,59.92L764.69,59.92L768.1,59.92L771.52,62.89L774.93,71.8L778.34,73.29L781.76,67.34L785.17,66.6L788.59,71.8L792,86.65L795.41,115.62L798.83,128.24L802.24,126.75L805.66,126.75L809.07,127.5L812.48,134.18L815.9,136.41L819.31,134.92L822.72,126.75L826.14,134.92L832.97,140.12L836.38,129.72L839.79,107.45L843.21,94.08L846.62,84.42L850.03,83.68L853.45,67.34L856.86,68.09L860.28,67.34L863.69,63.63L867.1,68.83L870.52,80.71L880.76,80.71L884.17,77L887.59,75.51L891,71.06L897.83,71.06L901.24,68.09L904.66,60.66L908.07,57.69L911.48,53.23L914.9,33.18L918.31,26.5" style="vector-effect: none; fill: none; stroke: rgb(138, 44, 81); stroke-opacity: 1; stroke-width: 5px; opacity: 1;"/></g><g class="points"/><g class="text"/></g><g class="trace scatter trace126e79" style="stroke-miterlimit: 2; opacity: 1;"><g class="fills"/><g class="errorbars"/><g class="lines"><path class="js-line" d="M0,206.22L6.83,216.61L10.24,216.61L20.48,216.61L23.9,221.81L30.72,210.67L34.14,210.67L61.45,210.67L64.86,212.16L68.28,213.64L71.69,213.64L78.52,213.64L81.93,217.35L198,217.35L201.41,238.15L228.72,238.15L232.14,234.44L235.55,231.46L238.97,214.38L242.38,189.13L245.79,189.13L252.62,202.5L256.03,180.22L286.76,180.22L290.17,191.36L293.59,191.36L297,180.22L300.41,191.36L303.83,178L307.24,175.03L310.66,175.03L314.07,189.13L317.48,175.03L327.72,175.03L331.14,189.13L334.55,189.13L337.97,175.03L341.38,189.13L344.79,189.13L348.21,175.77L351.62,192.85L361.86,192.85L365.28,197.3L375.52,197.3L378.93,201.02L382.34,213.64L385.76,218.1L392.59,218.84L396,218.84L406.24,218.84L409.66,221.07L416.48,221.81L419.9,221.81L436.97,221.81L440.38,224.04L443.79,228.49L447.21,228.49L450.62,231.46L457.45,231.46L481.34,232.21L484.76,229.24L488.17,236.66L491.59,236.66L501.83,236.66L505.24,235.18L525.72,235.18L529.14,247.06L532.55,250.03L535.97,250.03L539.38,250.03L542.79,254.49L549.62,262.65L553.03,262.65L556.45,248.54L559.86,248.54L563.28,248.54L566.69,255.97L570.1,265.63L573.52,265.63L600.83,265.63L604.24,255.23L607.66,249.29L611.07,249.29L614.48,249.29L617.9,246.32L621.31,229.24L624.72,224.04L631.55,227.75L634.97,227.75L652.03,227.75L655.45,226.27L658.86,227.75L662.28,224.04L665.69,224.04L669.1,243.35L672.52,257.46L675.93,265.63L679.34,266.37L682.76,264.14L686.17,254.49L689.59,249.29L693,263.4L696.41,263.4L703.24,256.71L706.66,250.77L710.07,244.09L713.48,243.35L716.9,218.1L720.31,209.19L723.72,218.1L727.14,214.38L730.55,217.35L733.97,229.24L737.38,232.21L740.79,228.49L747.62,226.27L751.03,230.72L754.45,236.66L757.86,247.06L761.28,257.46L764.69,257.46L768.1,257.46L771.52,254.49L774.93,245.57L778.34,244.09L781.76,250.03L785.17,250.77L788.59,245.57L792,230.72L795.41,201.76L798.83,189.13L802.24,190.62L805.66,190.62L809.07,189.88L812.48,183.19L815.9,180.97L819.31,182.45L822.72,190.62L826.14,182.45L832.97,177.25L836.38,187.65L839.79,209.93L843.21,223.3L846.62,232.95L850.03,233.69L853.45,250.03L856.86,249.29L860.28,250.03L863.69,253.74L867.1,248.54L870.52,236.66L880.76,236.66L884.17,240.38L887.59,241.86L891,246.32L897.83,246.32L901.24,249.29L904.66,256.71L908.07,259.68L911.48,264.14L914.9,284.19L918.31,290.87" style="vector-effect: none; fill: none; stroke: rgb(0, 174, 239); stroke-opacity: 1; stroke-width: 5px; opacity: 1;"/></g><g class="points"/><g class="text"/></g><g class="trace scatter trace508324" style="stroke-miterlimit: 2; opacity: 1;"><g class="fills"/><g class="errorbars"/><g class="lines"><path class="js-line" d="M0,471.33L10.24,472.82L13.66,472.82L20.48,472.82L23.9,462.42L30.72,485.44L34.14,485.44L64.86,484.7L68.28,483.96L146.79,483.21L150.21,486.93L191.17,486.93L198,485.44L201.41,488.41L208.24,488.41L232.14,489.16L235.55,489.9L245.79,489.16L249.21,492.13L252.62,495.1L256.03,489.9L286.76,489.9L290.17,492.13L293.59,492.13L297,489.9L300.41,492.13L303.83,491.38L307.24,494.35L310.66,494.35L314.07,495.1L317.48,494.35L344.79,495.1L348.21,497.32L365.28,497.32L368.69,498.81L378.93,499.55L382.34,500.29L389.17,503.27L392.59,503.27L399.41,503.27L402.83,504.75L413.07,510.69L416.48,510.69L501.83,510.69L505.24,518.12L553.03,518.86L556.45,521.09L563.28,521.09L566.69,522.57" style="vector-effect: none; fill: none; stroke: rgb(202, 166, 105); stroke-opacity: 1; stroke-width: 5px; opacity: 1;"/></g><g class="points"/><g class="text"/></g><g class="trace scatter trace1677b7" style="stroke-miterlimit: 2; opacity: 1;"><g class="fills"/><g class="errorbars"/><g class="lines"><path class="js-line" d="M0,478.02L10.24,480.24L13.66,480.24L23.9,479.5L27.31,478.02L34.14,478.76L37.55,478.76L47.79,478.76L51.21,480.24L78.52,479.5L81.93,480.99L126.31,480.99L129.72,486.93L146.79,486.93L150.21,492.87L191.17,492.87L198,483.96L201.41,503.27L208.24,503.27L238.97,504.01L242.38,509.21L252.62,509.21L256.03,512.18L286.76,512.18L290.17,510.69L293.59,510.69L297,512.18L300.41,510.69L303.83,512.18L310.66,512.18L314.07,510.69L317.48,512.18L320.9,512.18L327.72,512.18L331.14,510.69L334.55,510.69L337.97,512.18L341.38,510.69L344.79,510.69L348.21,512.92L351.62,511.43L375.52,512.18L378.93,512.92L385.76,515.15L389.17,515.89L399.41,515.89L402.83,517.38L406.24,520.35L409.66,520.35L416.48,521.09L419.9,521.09L501.83,520.35" style="vector-effect: none; fill: none; stroke: rgb(255, 192, 203); stroke-opacity: 1; stroke-width: 5px; opacity: 1;"/></g><g class="points"/><g class="text"/></g><g class="trace scatter trace738e36" style="stroke-miterlimit: 2; opacity: 1;"><g class="fills"/><g class="errorbars"/><g class="lines"><path class="js-line" d="M0,452.02L6.83,454.99L10.24,454.99L20.48,454.99L23.9,452.02L27.31,452.77L30.72,456.48L61.45,457.22L64.86,459.45L68.28,460.94L71.69,460.94L126.31,460.94L129.72,459.45L146.79,459.45L150.21,470.59L191.17,470.59L198,466.13L201.41,475.79L208.24,475.79L232.14,476.53L235.55,478.02L238.97,478.02L242.38,486.19L245.79,486.19L249.21,481.73L252.62,477.27L256.03,489.9L286.76,489.9L290.17,483.96L293.59,483.96L297,489.9L300.41,483.96L303.83,489.16L310.66,489.16L314.07,483.21L317.48,489.16L320.9,489.16L327.72,489.16L331.14,483.21L334.55,483.21L337.97,489.16L341.38,483.21L344.79,483.21L348.21,483.96L351.62,478.76L361.86,479.5L365.28,486.93L368.69,490.64L372.1,490.64L375.52,490.64L378.93,492.13L389.17,497.32L392.59,497.32L399.41,497.32L402.83,498.81L413.07,506.98L416.48,506.98L501.83,506.98L505.24,506.24L553.03,506.98L556.45,521.09L563.28,521.09L566.69,522.57" style="vector-effect: none; fill: none; stroke: rgb(238, 58, 67); stroke-opacity: 1; stroke-width: 5px; opacity: 1;"/></g><g class="points"/><g class="text"/></g><g class="trace scatter trace81a10a" style="stroke-miterlimit: 2; opacity: 1;"><g class="fills"/><g class="errorbars"/><g class="lines"><path class="js-line" d="M0,454.99L6.83,457.22L10.24,457.22L20.48,457.22L23.9,462.42L30.72,453.51L34.14,453.51L47.79,453.51L51.21,454.99L64.86,454.25L68.28,453.51L126.31,453.51L129.72,454.99L146.79,454.99L150.21,463.91L191.17,463.91L198,457.97L201.41,409.69L208.24,409.69L228.72,409.69L232.14,411.92L235.55,414.15L238.97,414.15L242.38,418.61L245.79,418.61L252.62,413.41L256.03,419.35L286.76,419.35L290.17,416.38L293.59,416.38L297,419.35L300.41,416.38L303.83,420.83L307.24,423.8L310.66,423.8L314.07,418.61L317.48,423.8L327.72,423.8L331.14,418.61L334.55,418.61L337.97,423.8L341.38,418.61L344.79,418.61L348.21,440.14L351.62,425.29L361.86,426.03L365.28,437.17L368.69,446.08L372.1,446.08L375.52,446.08L378.93,443.86L382.34,451.28L385.76,452.77L402.83,452.02L406.24,451.28L409.66,452.77L413.07,455.74L436.97,455.74L440.38,452.77L443.79,446.08L447.21,446.08L450.62,435.69L457.45,435.69L477.93,435.69L481.34,445.34L484.76,448.31L488.17,458.71L501.83,458.71L505.24,464.65L542.79,465.39L546.21,466.13L553.03,466.88L556.45,489.9L563.28,489.9L566.69,492.87L570.1,497.32L573.52,497.32L617.9,497.32L621.31,504.01L624.72,504.01L628.14,505.49L631.55,508.46L634.97,508.46L652.03,508.46L655.45,509.95L662.28,509.95L665.69,511.43L669.1,516.63L672.52,518.86L682.76,518.86L686.17,520.35" style="vector-effect: none; fill: none; stroke: rgb(255, 1, 170); stroke-opacity: 1; stroke-width: 5px; opacity: 1;"/></g><g class="points"/><g class="text"/></g></g></g><g class="overplot"/><path class="xlines-above crisp" d="M0,0" style="fill: none;"/><path class="ylines-above crisp" d="M0,0" style="fill: none;"/><g class="overlines-above"/><g class="xaxislayer-above"><g class="xtick"><text text-anchor="middle" x="0" y="563" transform="translate(84.14,0)" style="font-family: 'Open Sans', verdana, arial, sans-serif; font-size: 12px; fill: rgb(42, 63, 95); fill-opacity: 1; white-space: pre; opacity: 1;">1.7.23</text></g><g class="xtick"><text text-anchor="middle" x="0" y="563" style="font-family: 'Open Sans', verdana, arial, sans-serif; font-size: 12px; fill: rgb(42, 63, 95); fill-opacity: 1; white-space: pre; opacity: 1;" transform="translate(189.97,0)">1.8.23</text></g><g class="xtick"><text text-anchor="middle" x="0" y="563" style="font-family: 'Open Sans', verdana, arial, sans-serif; font-size: 12px; fill: rgb(42, 63, 95); fill-opacity: 1; white-space: pre; opacity: 1;" transform="translate(295.78999999999996,0)">1.9.23</text></g><g class="xtick"><text text-anchor="middle" x="0" y="563" style="font-family: 'Open Sans', verdana, arial, sans-serif; font-size: 12px; fill: rgb(42, 63, 95); fill-opacity: 1; white-space: pre; opacity: 1;" transform="translate(398.21,0)">1.10.23</text></g><g class="xtick"><text text-anchor="middle" x="0" y="563" style="font-family: 'Open Sans', verdana, arial, sans-serif; font-size: 12px; fill: rgb(42, 63, 95); fill-opacity: 1; white-space: pre; opacity: 1;" transform="translate(504.03,0)">1.11.23</text></g><g class="xtick"><text text-anchor="middle" x="0" y="563" style="font-family: 'Open Sans', verdana, arial, sans-serif; font-size: 12px; fill: rgb(42, 63, 95); fill-opacity: 1; white-space: pre; opacity: 1;" transform="translate(606.45,0)">1.12.23</text></g><g class="xtick"><text text-anchor="middle" x="0" y="563" style="font-family: 'Open Sans', verdana, arial, sans-serif; font-size: 12px; fill: rgb(42, 63, 95); fill-opacity: 1; white-space: pre; opacity: 1;" transform="translate(712.28,0)">1.1.24</text></g><g class="xtick"><text text-anchor="middle" x="0" y="563" style="font-family: 'Open Sans', verdana, arial, sans-serif; font-size: 12px; fill: rgb(42, 63, 95); fill-opacity: 1; white-space: pre; opacity: 1;" transform="translate(818.1,0)">1.2.24</text></g><g class="xtick"><text text-anchor="middle" x="0" y="563" style="font-family: 'Open Sans', verdana, arial, sans-serif; font-size: 12px; fill: rgb(42, 63, 95); fill-opacity: 1; white-space: pre; opacity: 1;" transform="translate(917.1,0)">1.3.24</text></g><g class="xtick"><text text-anchor="middle" x="0" y="563" style="font-family: 'Open Sans', verdana, arial, sans-serif; font-size: 12px; fill: rgb(42, 63, 95); fill-opacity: 1; white-space: pre; opacity: 1;" transform="translate(1022.93,0)">1.4.24</text></g></g><g class="yaxislayer-above"><g class="ytick"><text text-anchor="end" x="49" y="4.199999999999999" transform="translate(0,550)" style="font-family: 'Open Sans', verdana, arial, sans-serif; font-size: 12px; fill: rgb(42, 63, 95); fill-opacity: 1; white-space: pre; opacity: 1;">0%</text></g><g class="ytick"><text text-anchor="end" x="49" y="4.199999999999999" style="font-family: 'Open Sans', verdana, arial, sans-serif; font-size: 12px; fill: rgb(42, 63, 95); fill-opacity: 1; white-space: pre; opacity: 1;" transform="translate(0,475.74)">10%</text></g><g class="ytick"><text text-anchor="end" x="49" y="4.199999999999999" style="font-family: 'Open Sans', verdana, arial, sans-serif; font-size: 12px; fill: rgb(42, 63, 95); fill-opacity: 1; white-space: pre; opacity: 1;" transform="translate(0,401.47)">20%</text></g><g class="ytick"><text text-anchor="end" x="49" y="4.199999999999999" style="font-family: 'Open Sans', verdana, arial, sans-serif; font-size: 12px; fill: rgb(42, 63, 95); fill-opacity: 1; white-space: pre; opacity: 1;" transform="translate(0,327.21)">30%</text></g><g class="ytick"><text text-anchor="end" x="49" y="4.199999999999999" style="font-family: 'Open Sans', verdana, arial, sans-serif; font-size: 12px; fill: rgb(42, 63, 95); fill-opacity: 1; white-space: pre; opacity: 1;" transform="translate(0,252.95)">40%</text></g><g class="ytick"><text text-anchor="end" x="49" y="4.199999999999999" style="font-family: 'Open Sans', verdana, arial, sans-serif; font-size: 12px; fill: rgb(42, 63, 95); fill-opacity: 1; white-space: pre; opacity: 1;" transform="translate(0,178.69)">50%</text></g><g class="ytick"><text text-anchor="end" x="49" y="4.199999999999999" style="font-family: 'Open Sans', verdana, arial, sans-serif; font-size: 12px; fill: rgb(42, 63, 95); fill-opacity: 1; white-space: pre; opacity: 1;" transform="translate(0,104.42)">60%</text></g><g class="ytick"><text text-anchor="end" x="49" y="4.199999999999999" style="font-family: 'Open Sans', verdana, arial, sans-serif; font-size: 12px; fill: rgb(42, 63, 95); fill-opacity: 1; white-space: pre; opacity: 1;" transform="translate(0,30.16)">70%</text></g></g><g class="overaxes-above"/></g></g><g class="polarlayer"/><g class="smithlayer"/><g class="ternarylayer"/><g class="geolayer"/><g class="funnelarealayer"/><g class="pielayer"/><g class="iciclelayer"/><g class="treemaplayer"/><g class="sunburstlayer"/><g class="glimages"/><defs id="topdefs-0a4af2"><g class="clips"/><clipPath id="legend0a4af2"><rect width="128" height="124" x="0" y="0"/></clipPath></defs><g class="layer-above"><g class="imagelayer"/><g class="shapelayer"/></g><g class="infolayer"><g class="legend" pointer-events="all" transform="translate(1059.8000000000002,20)"><rect class="bg" shape-rendering="crispEdges" style="stroke: rgb(68, 68, 68); stroke-opacity: 1; fill: rgb(255, 255, 255); fill-opacity: 1; stroke-width: 0px;" width="128" height="124" x="0" y="0"/><g class="scrollbox" transform="" clip-path="url(#legend0a4af2)"><g class="groups"><g class="traces" transform="translate(0,14.5)" style="opacity: 1;"><text class="legendtext" text-anchor="start" x="40" y="4.680000000000001" style="font-family: 'Open Sans', verdana, arial, sans-serif; font-size: 12px; fill: rgb(42, 63, 95); fill-opacity: 1; white-space: pre;">Pellegrini Peter</text><g class="layers" style="opacity: 1;"><g class="legendfill"/><g class="legendlines"><path class="js-line" d="M5,0h30" style="fill: none; stroke: rgb(138, 44, 81); stroke-opacity: 1; stroke-width: 5px;"/></g><g class="legendsymbols"><g class="legendpoints"/></g></g><rect class="legendtoggle" x="0" y="-9.5" width="122.703125" height="19" style="fill: rgb(0, 0, 0); fill-opacity: 0;"/></g><g class="traces" transform="translate(0,33.5)" style="opacity: 1;"><text class="legendtext" text-anchor="start" x="40" y="4.680000000000001" style="font-family: 'Open Sans', verdana, arial, sans-serif; font-size: 12px; fill: rgb(42, 63, 95); fill-opacity: 1; white-space: pre;">Korčok Ivan</text><g class="layers" style="opacity: 1;"><g class="legendfill"/><g class="legendlines"><path class="js-line" d="M5,0h30" style="fill: none; stroke: rgb(0, 174, 239); stroke-opacity: 1; stroke-width: 5px;"/></g><g class="legendsymbols"><g class="legendpoints"/></g></g><rect class="legendtoggle" x="0" y="-9.5" width="122.703125" height="19" style="fill: rgb(0, 0, 0); fill-opacity: 0;"/></g><g class="traces" transform="translate(0,52.5)" style="opacity: 1;"><text class="legendtext" text-anchor="start" x="40" y="4.680000000000001" style="font-family: 'Open Sans', verdana, arial, sans-serif; font-size: 12px; fill: rgb(42, 63, 95); fill-opacity: 1; white-space: pre;">Mistrík Robert</text><g class="layers" style="opacity: 1;"><g class="legendfill"/><g class="legendlines"><path class="js-line" d="M5,0h30" style="fill: none; stroke: rgb(202, 166, 105); stroke-opacity: 1; stroke-width: 5px;"/></g><g class="legendsymbols"><g class="legendpoints"/></g></g><rect class="legendtoggle" x="0" y="-9.5" width="122.703125" height="19" style="fill: rgb(0, 0, 0); fill-opacity: 0;"/></g><g class="traces" transform="translate(0,71.5)" style="opacity: 1;"><text class="legendtext" text-anchor="start" x="40" y="4.680000000000001" style="font-family: 'Open Sans', verdana, arial, sans-serif; font-size: 12px; fill: rgb(42, 63, 95); fill-opacity: 1; white-space: pre;">Lajčák Miroslav</text><g class="layers" style="opacity: 1;"><g class="legendfill"/><g class="legendlines"><path class="js-line" d="M5,0h30" style="fill: none; stroke: rgb(255, 192, 203); stroke-opacity: 1; stroke-width: 5px;"/></g><g class="legendsymbols"><g class="legendpoints"/></g></g><rect class="legendtoggle" x="0" y="-9.5" width="122.703125" height="19" style="fill: rgb(0, 0, 0); fill-opacity: 0;"/></g><g class="traces" transform="translate(0,90.5)" style="opacity: 1;"><text class="legendtext" text-anchor="start" x="40" y="4.680000000000001" style="font-family: 'Open Sans', verdana, arial, sans-serif; font-size: 12px; fill: rgb(42, 63, 95); fill-opacity: 1; white-space: pre;">Fico Robert</text><g class="layers" style="opacity: 1;"><g class="legendfill"/><g class="legendlines"><path class="js-line" d="M5,0h30" style="fill: none; stroke: rgb(238, 58, 67); stroke-opacity: 1; stroke-width: 5px;"/></g><g class="legendsymbols"><g class="legendpoints"/></g></g><rect class="legendtoggle" x="0" y="-9.5" width="122.703125" height="19" style="fill: rgb(0, 0, 0); fill-opacity: 0;"/></g><g class="traces" transform="translate(0,109.5)" style="opacity: 1;"><text class="legendtext" text-anchor="start" x="40" y="4.680000000000001" style="font-family: 'Open Sans', verdana, arial, sans-serif; font-size: 12px; fill: rgb(42, 63, 95); fill-opacity: 1; white-space: pre;">Kubiš Ján</text><g class="layers" style="opacity: 1;"><g class="legendfill"/><g class="legendlines"><path class="js-line" d="M5,0h30" style="fill: none; stroke: rgb(255, 1, 170); stroke-opacity: 1; stroke-width: 5px;"/></g><g class="legendsymbols"><g class="legendpoints"/></g></g><rect class="legendtoggle" x="0" y="-9.5" width="122.703125" height="19" style="fill: rgb(0, 0, 0); fill-opacity: 0;"/></g></g></g><rect class="scrollbar" rx="20" ry="3" width="0" height="0" style="fill: rgb(128, 139, 164); fill-opacity: 1;" x="0" y="0"/></g><g class="g-gtitle"/><g class="g-xtitle"/><g class="g-ytitle"/></g></svg>