<svg class="main-svg" xmlns="http://www.w3.org/2000/svg" xmlns:xlink="http://www.w3.org/1999/xlink" width="300" height="135" style="" viewBox="0 0 300 135"><rect x="0" y="0" width="300" height="135" style="fill: rgb(255, 255, 255); fill-opacity: 1;"/><defs id="defs-5d908c"><g class="clips"><clipPath id="clip5d908cxyplot" class="plotclip"><rect width="280" height="75"/></clipPath><clipPath class="axesclip" id="clip5d908cx"><rect x="10" y="0" width="280" height="135"/></clipPath><clipPath class="axesclip" id="clip5d908cy"><rect x="0" y="50" width="300" height="75"/></clipPath><clipPath class="axesclip" id="clip5d908cxy"><rect x="10" y="50" width="280" height="75"/></clipPath></g><g class="gradients"/><g class="patterns"/></defs><g class="bglayer"/><g class="layer-below"><g class="imagelayer"/><g class="shapelayer"/></g><g class="cartesianlayer"><g class="subplot xy"><g class="layer-subplot"><g class="shapelayer"/><g class="imagelayer"/></g><g class="minor-gridlayer"><g class="x"/><g class="y"/></g><g class="gridlayer"><g class="x"><path class="xgrid crisp" transform="translate(27.28,0)" d="M0,50v75" style="stroke: rgb(235, 240, 248); stroke-opacity: 1; stroke-width: 1px;"/><path class="xgrid crisp" transform="translate(134.44,0)" d="M0,50v75" style="stroke: rgb(235, 240, 248); stroke-opacity: 1; stroke-width: 1px;"/><path class="xgrid crisp" transform="translate(239.88,0)" d="M0,50v75" style="stroke: rgb(235, 240, 248); stroke-opacity: 1; stroke-width: 1px;"/></g><g class="y"><path class="ygrid crisp" transform="translate(0,97)" d="M10,0h280" style="stroke: rgb(235, 240, 248); stroke-opacity: 1; stroke-width: 1px;"/><path class="ygrid crisp" transform="translate(0,69.01)" d="M10,0h280" style="stroke: rgb(235, 240, 248); stroke-opacity: 1; stroke-width: 1px;"/></g></g><g class="zerolinelayer"><path class="yzl zl crisp" transform="translate(0,125)" d="M10,0h280" style="stroke: rgb(235, 240, 248); stroke-opacity: 1; stroke-width: 2px;"/></g><path class="xlines-below"/><path class="ylines-below"/><g class="overlines-below"/><g class="xaxislayer-below"/><g class="yaxislayer-below"/><g class="overaxes-below"/><g class="plot" transform="translate(10,50)" clip-path="url(#clip5d908cxyplot)"><g class="scatterlayer mlayer"><g class="trace scatter trace737b0c" style="stroke-miterlimit: 2; opacity: 1;"><g class="fills"/><g class="errorbars"/><g class="lines"><path class="js-line" d="M0,45.74L5.19,42.1L6.91,42.1L13.83,42.38L15.56,41.4L39.75,40.28L41.48,39.44L74.32,38.47L76.05,32.59L96.79,32.59L100.25,36.65L101.98,35.81L105.43,35.81L119.26,35.53L120.99,38.61L124.44,40.14L126.17,39.58L127.9,39.03L129.63,40.28L174.57,39.44L176.3,36.65L179.75,37.77L181.48,37.77L183.21,37.49L184.94,32.87L186.67,30.07L188.4,30.07L191.85,29.37L193.58,24.75L197.04,22.09L198.77,22.09L203.95,21.25L205.68,19.99L210.86,16.91L212.59,16.91L226.42,17.33L228.15,18.73L241.98,18.73L243.7,16.77L245.43,16.77L247.16,13.41L254.07,13.41L255.8,9.63L266.17,9.63L267.9,7.39L271.36,6.55L273.09,6.55L280,3.75" style="vector-effect: none; fill: none; stroke: rgb(138, 44, 81); stroke-opacity: 1; stroke-width: 5px; opacity: 1;"/></g><g class="points"/><g class="text"/></g><g class="trace scatter traceb2232c" style="stroke-miterlimit: 2; opacity: 1;"><g class="fills"/><g class="errorbars"/><g class="lines"><path class="js-line" d="M0,13.97L5.19,15.93L6.91,15.93L12.1,16.91L13.83,15.65L17.28,14.81L19.01,14.81L39.75,15.37L41.48,16.07L100.25,16.07L101.98,19.99L117.53,19.29L119.26,18.73L122.72,10.75L124.44,10.75L127.9,13.27L129.63,9.07L145.19,9.07L146.91,11.17L148.64,11.17L150.37,9.07L152.1,11.17L153.83,8.65L157.28,8.09L159.01,10.75L160.74,8.09L162.47,8.09L165.93,8.09L167.65,10.75L169.38,10.75L171.11,8.09L172.84,10.75L174.57,10.75L176.3,8.23L178.02,11.45L190.12,12.29L191.85,12.99L195.31,16.21L197.04,16.35L222.96,17.33L224.69,18.17L245.43,18.31L247.16,19.71L266.17,19.43L267.9,21.67L280,24.61" style="vector-effect: none; fill: none; stroke: rgb(0, 174, 239); stroke-opacity: 1; stroke-width: 5px; opacity: 1;"/></g><g class="points"/><g class="text"/></g><g class="trace scatter traceadee91" style="stroke-miterlimit: 2; opacity: 1;"><g class="fills"/><g class="errorbars"/><g class="lines"><path class="js-line" d="M0,60.86L12.1,62.26L13.83,61.42L17.28,60.58L19.01,60.58L74.32,60.86L76.05,62.54L100.25,61.42L101.98,52.32L120.99,53.16L122.72,54L152.1,53.58L153.83,54.42L157.28,54.98L159.01,54L162.47,54.98L164.2,54.98L174.57,54L176.3,58.06L178.02,55.26L179.75,55.26L183.21,55.4L184.94,57.5L188.4,59.18L190.12,59.18L191.85,58.76L193.58,60.16L202.22,60.44L203.95,60.3L209.14,61L210.86,61L222.96,60.44L224.69,59.18L226.42,59.18L228.15,57.22L241.98,57.22L243.7,59.04L245.43,59.6L247.16,61.56L267.9,62.68L269.63,62.82L280,63.1" style="vector-effect: none; fill: none; stroke: rgb(255, 1, 170); stroke-opacity: 1; stroke-width: 5px; opacity: 1;"/></g><g class="points"/><g class="text"/></g><g class="trace scatter trace3d4df6" style="stroke-miterlimit: 2; opacity: 1;"><g class="fills"/><g class="errorbars"/><g class="lines"><path class="js-line" d="M0,60.3L10.37,60.86L12.1,60.3L39.75,61.98L41.48,61.98L74.32,61.7L76.05,63.8L100.25,62.96L101.98,64.78L120.99,65.2L122.72,66.74L126.17,65.9L127.9,65.06L129.63,67.44L131.36,67.44L157.28,67.3L159.01,66.18L162.47,67.3L164.2,67.3L176.3,66.32L178.02,65.34L183.21,65.48L184.94,66.88L188.4,67.58L190.12,67.58L214.32,70.66L216.05,70.66L280,70.66" style="vector-effect: none; fill: none; stroke: rgb(238, 58, 67); stroke-opacity: 1; stroke-width: 5px; opacity: 1;"/></g><g class="points"/><g class="text"/></g><g class="trace scatter traceb9ffed" style="stroke-miterlimit: 2; opacity: 1;"><g class="fills"/><g class="errorbars"/><g class="lines"><path class="js-line" d="M0,63.94L10.37,64.22L12.1,62.26L15.56,66.6L17.28,66.6L117.53,67.3L119.26,67.44L174.57,68.42L176.3,68.84L195.31,69.82L197.04,69.96L207.41,70.94L209.14,71.36L254.07,71.36L255.8,72.76L280,72.9" style="vector-effect: none; fill: none; stroke: rgb(202, 166, 105); stroke-opacity: 1; stroke-width: 5px; opacity: 1;"/></g><g class="points"/><g class="text"/></g></g></g><g class="overplot"/><path class="xlines-above crisp" d="M0,0" style="fill: none;"/><path class="ylines-above crisp" d="M0,0" style="fill: none;"/><g class="overlines-above"/><g class="xaxislayer-above"/><g class="yaxislayer-above"/><g class="overaxes-above"/></g></g><g class="polarlayer"/><g class="smithlayer"/><g class="ternarylayer"/><g class="geolayer"/><g class="funnelarealayer"/><g class="pielayer"/><g class="iciclelayer"/><g class="treemaplayer"/><g class="sunburstlayer"/><g class="glimages"/><defs id="topdefs-5d908c"><g class="clips"/></defs><g class="layer-above"><g class="imagelayer"/><g class="shapelayer"/></g><g class="infolayer"><g class="g-gtitle"><text class="gtitle" x="15" y="25" text-anchor="start" dy="0em" style="font-family: Ubuntu, verdana, arial, sans-serif; font-size: 16px; fill: rgb(233, 84, 32); opacity: 1; font-weight: normal; white-space: pre;">Prezident/ka 2024</text></g><g class="g-xtitle"/><g class="g-ytitle"/></g></svg>