<svg class="main-svg" xmlns="http://www.w3.org/2000/svg" xmlns:xlink="http://www.w3.org/1999/xlink" width="300" height="135" style="" viewBox="0 0 300 135"><rect x="0" y="0" width="300" height="135" style="fill: rgb(255, 255, 255); fill-opacity: 1;"/><defs id="defs-5190fa"><g class="clips"><clipPath id="clip5190faxyplot" class="plotclip"><rect width="280" height="75"/></clipPath><clipPath class="axesclip" id="clip5190fax"><rect x="10" y="0" width="280" height="135"/></clipPath><clipPath class="axesclip" id="clip5190fay"><rect x="0" y="50" width="300" height="75"/></clipPath><clipPath class="axesclip" id="clip5190faxy"><rect x="10" y="50" width="280" height="75"/></clipPath></g><g class="gradients"/><g class="patterns"/></defs><g class="bglayer"/><g class="layer-below"><g class="imagelayer"/><g class="shapelayer"/></g><g class="cartesianlayer"><g class="subplot xy"><g class="layer-subplot"><g class="shapelayer"/><g class="imagelayer"/></g><g class="minor-gridlayer"><g class="x"/><g class="y"/></g><g class="gridlayer"><g class="x"><path class="xgrid crisp" transform="translate(20.65,0)" d="M0,50v75" style="stroke: rgb(235, 240, 248); stroke-opacity: 1; stroke-width: 1px;"/><path class="xgrid crisp" transform="translate(86.65,0)" d="M0,50v75" style="stroke: rgb(235, 240, 248); stroke-opacity: 1; stroke-width: 1px;"/><path class="xgrid crisp" transform="translate(151.6,0)" d="M0,50v75" style="stroke: rgb(235, 240, 248); stroke-opacity: 1; stroke-width: 1px;"/><path class="xgrid crisp" transform="translate(216.54,0)" d="M0,50v75" style="stroke: rgb(235, 240, 248); stroke-opacity: 1; stroke-width: 1px;"/><path class="xgrid crisp" transform="translate(280.42,0)" d="M0,50v75" style="stroke: rgb(235, 240, 248); stroke-opacity: 1; stroke-width: 1px;"/></g><g class="y"><path class="ygrid crisp" transform="translate(0,102.77000000000001)" d="M10,0h280" style="stroke: rgb(235, 240, 248); stroke-opacity: 1; stroke-width: 1px;"/><path class="ygrid crisp" transform="translate(0,80.53999999999999)" d="M10,0h280" style="stroke: rgb(235, 240, 248); stroke-opacity: 1; stroke-width: 1px;"/><path class="ygrid crisp" transform="translate(0,58.31)" d="M10,0h280" style="stroke: rgb(235, 240, 248); stroke-opacity: 1; stroke-width: 1px;"/></g></g><g class="zerolinelayer"><path class="yzl zl crisp" transform="translate(0,125)" d="M10,0h280" style="stroke: rgb(235, 240, 248); stroke-opacity: 1; stroke-width: 2px;"/></g><path class="xlines-below"/><path class="ylines-below"/><g class="overlines-below"/><g class="xaxislayer-below"/><g class="yaxislayer-below"/><g class="overaxes-below"/><g class="plot" transform="translate(10,50)" clip-path="url(#clip5190faxyplot)"><g class="scatterlayer mlayer"><g class="trace scatter traceb767c2" style="stroke-miterlimit: 2; opacity: 1;"><g class="fills"/><g class="errorbars"/><g class="lines"><path class="js-line" d="M0,51.77L3.19,48.88L4.26,48.88L8.52,49.1L9.58,48.32L24.49,47.43L25.55,46.77L45.78,45.99L46.84,41.32L59.62,41.32L61.75,44.54L64.94,43.88L66.01,43.88L73.46,43.65L74.52,46.1L76.65,47.32L77.72,46.88L78.78,46.43L79.85,47.43L107.53,46.77L108.59,44.54L110.72,45.43L111.79,45.43L112.85,45.21L113.92,41.54L116.05,39.32L117.11,39.32L118.17,38.76L119.24,35.1L121.37,32.98L122.43,32.98L125.63,32.32L126.69,31.32L129.89,28.87L130.95,28.87L139.47,29.2L140.53,30.32L149.05,30.32L150.11,28.76L151.18,28.76L152.24,26.09L156.5,26.09L157.57,23.09L163.95,23.09L165.02,21.31L171.41,18.42L172.47,18.42L174.6,14.64L175.67,14.64L176.73,12.75L177.79,8.2L187.38,8.2L188.44,9.86L191.63,10.64L192.7,11.09L194.83,13.53L195.89,13.09L198.02,12.31L199.09,12.31L207.6,12.42L208.67,8.75L210.8,5.08L211.86,4.97L215.06,5.86L216.12,3.75L219.32,4.75L220.38,5.64L222.51,6.75L223.57,10.53L224.64,11.86L225.7,10.53L227.83,10.64L228.9,8.86L231.03,8.97L232.09,9.09L234.22,8.64L235.29,7.75L238.48,4.64L239.54,4.64L242.74,6.64L243.8,5.75L245.93,6.42L247,8.64L249.13,14.87L250.19,14.64L253.38,15.75L254.45,16.09L256.58,14.64L257.64,15.87L259.77,16.64L260.84,15.09L264.03,8.31L265.1,8.2L267.22,5.86L268.29,5.75L270.42,5.97L271.48,7.75L276.81,6.97L277.87,6.31L280,6.31" style="vector-effect: none; fill: none; stroke: rgb(138, 44, 81); stroke-opacity: 1; stroke-width: 5px; opacity: 1;"/></g><g class="points"/><g class="text"/></g><g class="trace scatter tracefa5670" style="stroke-miterlimit: 2; opacity: 1;"><g class="fills"/><g class="errorbars"/><g class="lines"><path class="js-line" d="M0,26.54L4.26,28.09L5.32,28.09L8.52,27.87L9.58,27.2L61.75,28.2L62.81,31.32L73.46,30.32L74.52,27.76L76.65,23.98L77.72,24.98L78.78,25.98L79.85,22.65L89.43,22.65L90.49,24.31L91.56,24.31L92.62,22.65L93.69,24.31L94.75,22.31L96.88,21.87L97.95,23.98L100.08,21.87L101.14,21.87L102.21,21.87L103.27,23.98L104.33,23.98L105.4,21.87L107.53,23.98L108.59,21.98L110.72,24.54L111.79,24.54L118.17,25.76L119.24,27.65L122.43,28.43L123.5,28.43L137.34,29.2L138.4,29.87L163.95,30.87L165.02,32.65L172.47,34.98L173.54,32.87L176.73,33.98L177.79,35.43L187.38,35.43L188.44,33.87L190.57,32.98L191.63,32.98L192.7,32.54L193.76,29.98L195.89,29.43L196.96,29.76L207.6,29.2L208.67,32.09L210.8,35.43L211.86,35.54L213.99,33.76L215.06,32.98L217.19,35.1L218.25,34.54L222.51,32.09L223.57,28.32L224.64,26.98L225.7,28.32L227.83,28.2L228.9,29.98L231.03,29.87L232.09,29.76L234.22,30.2L235.29,31.09L238.48,34.21L239.54,34.21L242.74,32.21L243.8,33.09L245.93,32.43L247,30.2L249.13,23.98L250.19,24.2L253.38,23.09L254.45,22.76L256.58,24.2L257.64,22.98L259.77,22.2L260.84,23.76L264.03,30.54L265.1,30.65L267.22,32.98L268.29,33.09L270.42,32.87L271.48,31.09L276.81,31.87L277.87,32.54L280,32.54" style="vector-effect: none; fill: none; stroke: rgb(0, 174, 239); stroke-opacity: 1; stroke-width: 5px; opacity: 1;"/></g><g class="points"/><g class="text"/></g><g class="trace scatter tracea554d0" style="stroke-miterlimit: 2; opacity: 1;"><g class="fills"/><g class="errorbars"/><g class="lines"><path class="js-line" d="M0,66.22L6.39,66.44L7.45,64.88L9.58,68.33L10.65,68.33L76.65,68.89L77.72,69.33L79.85,69L80.91,69L113.92,70.11L114.98,70.33L126.69,71.55L127.76,71.78L132.02,72.11L133.08,72.11L172.47,73.33L173.54,73.67L176.73,73.89" style="vector-effect: none; fill: none; stroke: rgb(202, 166, 105); stroke-opacity: 1; stroke-width: 5px; opacity: 1;"/></g><g class="points"/><g class="text"/></g><g class="trace scatter tracea7a94f" style="stroke-miterlimit: 2; opacity: 1;"><g class="fills"/><g class="errorbars"/><g class="lines"><path class="js-line" d="M0,67.22L11.71,67.33L12.78,67.33L45.78,68.55L46.84,69.44L59.62,69.44L61.75,68.11L62.81,71L64.94,71L78.78,71.89L79.85,72.33L125.63,73.11L126.69,73.55L156.5,73.55" style="vector-effect: none; fill: none; stroke: rgb(255, 192, 203); stroke-opacity: 1; stroke-width: 5px; opacity: 1;"/></g><g class="points"/><g class="text"/></g><g class="trace scatter tracedc541b" style="stroke-miterlimit: 2; opacity: 1;"><g class="fills"/><g class="errorbars"/><g class="lines"><path class="js-line" d="M0,63.33L6.39,63.77L7.45,63.33L27.68,64.66L28.75,64.66L45.78,64.44L46.84,66.11L61.75,65.44L62.81,66.89L74.52,67.22L75.59,68.44L77.72,67.77L78.78,67.11L80.91,69L81.98,69L108.59,68.11L109.66,67.33L113.92,68.55L114.98,69.11L125.63,70.33L126.69,70.78L134.14,71.55L135.21,71.55L172.47,71.55L173.54,73.67L176.73,73.89" style="vector-effect: none; fill: none; stroke: rgb(238, 58, 67); stroke-opacity: 1; stroke-width: 5px; opacity: 1;"/></g><g class="points"/><g class="text"/></g></g></g><g class="overplot"/><path class="xlines-above crisp" d="M0,0" style="fill: none;"/><path class="ylines-above crisp" d="M0,0" style="fill: none;"/><g class="overlines-above"/><g class="xaxislayer-above"/><g class="yaxislayer-above"/><g class="overaxes-above"/></g></g><g class="polarlayer"/><g class="smithlayer"/><g class="ternarylayer"/><g class="geolayer"/><g class="funnelarealayer"/><g class="pielayer"/><g class="iciclelayer"/><g class="treemaplayer"/><g class="sunburstlayer"/><g class="glimages"/><defs id="topdefs-5190fa"><g class="clips"/></defs><g class="layer-above"><g class="imagelayer"/><g class="shapelayer"/></g><g class="infolayer"><g class="g-gtitle"><text class="gtitle" x="15" y="25" text-anchor="start" dy="0em" style="font-family: Ubuntu, verdana, arial, sans-serif; font-size: 16px; fill: rgb(233, 84, 32); opacity: 1; font-weight: normal; white-space: pre;">Prezident/ka 2024</text></g><g class="g-xtitle"/><g class="g-ytitle"/></g></svg>