<svg class="main-svg" xmlns="http://www.w3.org/2000/svg" xmlns:xlink="http://www.w3.org/1999/xlink" width="400" height="400" style="" viewBox="0 0 400 400"><rect x="0" y="0" width="400" height="400" style="fill: rgb(255, 255, 255); fill-opacity: 1;"/><defs id="defs-54cfe9"><g class="clips"><clipPath id="clip54cfe9xyplot" class="plotclip"><rect width="206" height="330"/></clipPath><clipPath class="axesclip" id="clip54cfe9x"><rect x="50" y="0" width="206" height="400"/></clipPath><clipPath class="axesclip" id="clip54cfe9y"><rect x="0" y="20" width="400" height="330"/></clipPath><clipPath class="axesclip" id="clip54cfe9xy"><rect x="50" y="20" width="206" height="330"/></clipPath></g><g class="gradients"/><g class="patterns"/></defs><g class="bglayer"/><g class="layer-below"><g class="imagelayer"/><g class="shapelayer"/></g><g class="cartesianlayer"><g class="subplot xy"><g class="layer-subplot"><g class="shapelayer"/><g class="imagelayer"/></g><g class="minor-gridlayer"><g class="x"/><g class="y"/></g><g class="gridlayer"><g class="x"><path class="xgrid crisp" transform="translate(56.87,0)" d="M0,20v330" style="stroke: rgb(235, 240, 248); stroke-opacity: 1; stroke-width: 1px;"/><path class="xgrid crisp" transform="translate(99.44,0)" d="M0,20v330" style="stroke: rgb(235, 240, 248); stroke-opacity: 1; stroke-width: 1px;"/><path class="xgrid crisp" transform="translate(141.32999999999998,0)" d="M0,20v330" style="stroke: rgb(235, 240, 248); stroke-opacity: 1; stroke-width: 1px;"/><path class="xgrid crisp" transform="translate(183.21,0)" d="M0,20v330" style="stroke: rgb(235, 240, 248); stroke-opacity: 1; stroke-width: 1px;"/><path class="xgrid crisp" transform="translate(224.41,0)" d="M0,20v330" style="stroke: rgb(235, 240, 248); stroke-opacity: 1; stroke-width: 1px;"/></g><g class="y"><path class="ygrid crisp" transform="translate(0,292.27)" d="M50,0h206" style="stroke: rgb(235, 240, 248); stroke-opacity: 1; stroke-width: 1px;"/><path class="ygrid crisp" transform="translate(0,234.53)" d="M50,0h206" style="stroke: rgb(235, 240, 248); stroke-opacity: 1; stroke-width: 1px;"/><path class="ygrid crisp" transform="translate(0,176.8)" d="M50,0h206" style="stroke: rgb(235, 240, 248); stroke-opacity: 1; stroke-width: 1px;"/><path class="ygrid crisp" transform="translate(0,119.06)" d="M50,0h206" style="stroke: rgb(235, 240, 248); stroke-opacity: 1; stroke-width: 1px;"/><path class="ygrid crisp" transform="translate(0,61.33)" d="M50,0h206" style="stroke: rgb(235, 240, 248); stroke-opacity: 1; stroke-width: 1px;"/></g></g><g class="zerolinelayer"><path class="yzl zl crisp" transform="translate(0,350)" d="M50,0h206" style="stroke: rgb(235, 240, 248); stroke-opacity: 1; stroke-width: 2px;"/></g><path class="xlines-below"/><path class="ylines-below"/><g class="overlines-below"/><g class="xaxislayer-below"/><g class="yaxislayer-below"/><g class="overaxes-below"/><g class="plot" transform="translate(50,20)" clip-path="url(#clip54cfe9xyplot)"><g class="scatterlayer mlayer"><g class="trace scatter trace24d30b" style="stroke-miterlimit: 2; opacity: 1;"><g class="fills"/><g class="errorbars"/><g class="lines"><path class="js-line" d="M0,209.33L2.06,194.32L2.75,194.32L4.12,194.32L4.81,198.36L6.87,191.44L7.55,191.44L9.61,191.44L10.3,189.7L12.36,189.7L13.05,187.97L15.11,186.82L15.79,186.82L17.17,183.35L17.85,183.35L25.41,183.35L26.09,179.31L29.53,179.31L30.21,155.06L38.45,155.06L39.83,171.81L40.51,168.34L41.89,168.34L47.38,167.19L48.07,179.89L49.44,186.24L50.13,183.93L50.81,181.62L51.5,186.82L57.68,186.82L58.37,184.51L59.05,184.51L59.74,186.82L60.43,184.51L61.11,186.24L61.8,184.51L69.35,183.35L70.04,171.81L71.41,176.43L72.1,176.43L72.79,175.27L73.47,156.22L74.85,144.67L75.53,144.67L76.22,141.78L76.91,122.73L78.97,111.76L79.65,111.76L80.34,111.76L81.03,108.3L83.77,90.4L84.46,90.4L88.58,90.98L89.27,92.13L89.95,92.13L90.64,97.91L96.13,97.91L96.82,89.82L97.51,89.82L98.19,75.97L100.94,75.97L101.63,60.38L105.75,60.38L106.43,51.14L107.81,47.68L108.49,47.68L111.24,36.13L111.93,16.5L113.99,16.5" style="vector-effect: none; fill: none; stroke: rgb(138, 44, 81); stroke-opacity: 1; stroke-width: 5px; opacity: 1;"/></g><g class="points"/><g class="text"/></g><g class="trace scatter tracee4aa1a" style="stroke-miterlimit: 2; opacity: 1;"><g class="fills"/><g class="errorbars"/><g class="lines"><path class="js-line" d="M0,78.28L2.06,86.36L2.75,86.36L4.12,86.36L4.81,90.4L6.87,81.74L7.55,81.74L13.05,82.9L13.73,84.05L15.79,84.05L16.48,86.94L39.83,86.94L40.51,103.1L46.01,103.1L46.69,100.22L47.38,97.91L48.07,84.63L49.44,65L50.13,70.19L50.81,75.39L51.5,58.07L57.68,58.07L58.37,66.73L59.05,66.73L59.74,58.07L60.43,66.73L61.11,56.34L62.49,54.03L63.17,65L64.55,54.03L65.23,54.03L65.92,54.03L66.61,65L67.29,65L67.98,54.03L69.35,65L70.04,54.6L71.41,67.88L72.1,67.88L72.79,67.88L73.47,71.35L75.53,71.35L76.22,74.23L78.28,88.09L78.97,88.09L81.71,88.09L82.4,89.82L84.46,90.4L85.15,90.4L87.89,90.4L88.58,92.13L90.64,97.91L92.01,97.91L96.82,98.48L97.51,96.17L98.88,101.95L99.57,101.95L105.75,100.79L106.43,110.03L107.81,112.34L108.49,112.34L111.24,122.15L111.93,111.19L113.99,111.19" style="vector-effect: none; fill: none; stroke: rgb(0, 174, 239); stroke-opacity: 1; stroke-width: 5px; opacity: 1;"/></g><g class="points"/><g class="text"/></g><g class="trace scatter traceff7f4c" style="stroke-miterlimit: 2; opacity: 1;"><g class="fills"/><g class="errorbars"/><g class="lines"><path class="js-line" d="M0,271.69L2.06,273.42L2.75,273.42L4.12,273.42L4.81,277.46L6.87,270.53L7.55,270.53L29.53,271.69L30.21,278.62L38.45,278.62L39.83,274L40.51,236.47L41.89,236.47L46.01,236.47L46.69,238.2L49.44,243.4L50.13,241.67L50.81,239.36L51.5,243.98L57.68,243.98L58.37,241.67L59.05,241.67L59.74,243.98L60.43,241.67L61.11,245.13L62.49,247.44L63.17,243.4L64.55,247.44L65.23,247.44L65.92,247.44L66.61,243.4L67.29,243.4L67.98,247.44L69.35,243.4L70.04,260.14L71.41,248.59L72.1,248.59L72.79,249.17L73.47,257.83L74.85,264.76L75.53,264.76L76.22,263.03L76.91,268.8L78.97,269.96L79.65,269.96L82.4,269.96L83.09,272.27L87.89,272.27L88.58,269.96L90.64,256.68L92.01,256.68L96.13,256.68L96.82,264.18L97.51,266.49L98.19,274.57L100.94,274.57L101.63,279.19L109.87,280.35L110.55,280.93L111.24,280.93L111.93,298.82L113.99,298.82" style="vector-effect: none; fill: none; stroke: rgb(255, 1, 170); stroke-opacity: 1; stroke-width: 5px; opacity: 1;"/></g><g class="points"/><g class="text"/></g><g class="trace scatter trace31c034" style="stroke-miterlimit: 2; opacity: 1;"><g class="fills"/><g class="errorbars"/><g class="lines"><path class="js-line" d="M0,284.39L2.75,285.54L3.43,285.54L4.12,285.54L4.81,277.46L6.87,295.36L7.55,295.36L25.41,294.2L26.09,293.63L29.53,293.63L30.21,296.51L39.83,295.36L40.51,297.67L49.44,298.25L50.13,300.56L50.81,302.86L51.5,298.82L57.68,298.82L58.37,300.56L59.05,300.56L59.74,298.82L61.8,302.29L62.49,302.29L63.86,302.29L64.55,302.29L69.35,302.86L70.04,304.6L73.47,304.6L74.16,305.75L76.91,306.91L77.59,308.64L79.65,309.22L80.34,309.22L84.46,314.99L85.15,314.99L100.94,314.99L101.63,320.76L111.24,321.34L111.93,323.07L113.99,323.07" style="vector-effect: none; fill: none; stroke: rgb(202, 166, 105); stroke-opacity: 1; stroke-width: 5px; opacity: 1;"/></g><g class="points"/><g class="text"/></g><g class="trace scatter traceaa5845" style="stroke-miterlimit: 2; opacity: 1;"><g class="fills"/><g class="errorbars"/><g class="lines"><path class="js-line" d="M0,269.38L2.75,271.69L3.43,271.69L4.12,271.69L4.81,269.38L5.49,269.96L6.18,272.84L12.36,273.42L13.05,275.15L15.11,276.31L15.79,276.31L29.53,275.15L30.21,283.81L38.45,283.81L39.83,280.35L40.51,287.85L41.89,287.85L46.69,288.43L47.38,289.59L48.07,289.59L48.75,295.94L49.44,295.94L50.13,292.47L50.81,289.01L51.5,298.82L57.68,298.82L58.37,294.2L59.05,294.2L59.74,298.82L60.43,294.2L61.11,298.25L62.49,298.25L63.17,293.63L64.55,298.25L65.23,298.25L65.92,298.25L66.61,293.63L67.29,293.63L67.98,298.25L69.35,293.63L70.04,294.2L71.41,290.16L72.1,290.16L72.79,290.74L73.47,296.51L74.85,299.4L75.53,299.4L78.97,304.6L79.65,304.6L81.03,305.75L81.71,308.06L84.46,312.1L85.15,312.1L111.24,312.1L111.93,323.07L113.99,323.07" style="vector-effect: none; fill: none; stroke: rgb(238, 58, 67); stroke-opacity: 1; stroke-width: 5px; opacity: 1;"/></g><g class="points"/><g class="text"/></g><g class="trace scatter tracecf7e20" style="stroke-miterlimit: 2; opacity: 1;"><g class="fills"/><g class="errorbars"/><g class="lines"><path class="js-line" d="M0,289.59L2.75,291.32L3.43,291.32L4.81,290.74L5.49,289.59L7.55,290.16L8.24,290.16L15.79,290.74L16.48,291.9L25.41,291.9L26.09,296.51L29.53,296.51L30.21,301.13L38.45,301.13L39.83,294.2L40.51,309.22L41.89,309.22L48.07,309.79L48.75,313.83L50.81,313.83L51.5,316.14L69.35,314.99L70.04,316.72L72.1,315.57L72.79,315.57L76.22,316.72L76.91,317.88L79.65,319.03L80.34,319.03L83.09,323.07L83.77,323.07L100.94,322.49" style="vector-effect: none; fill: none; stroke: rgb(255, 192, 203); stroke-opacity: 1; stroke-width: 5px; opacity: 1;"/></g><g class="points"/><g class="text"/></g></g></g><g class="overplot"/><path class="xlines-above crisp" d="M0,0" style="fill: none;"/><path class="ylines-above crisp" d="M0,0" style="fill: none;"/><g class="overlines-above"/><g class="xaxislayer-above"><g class="xtick"><text text-anchor="middle" x="0" y="363" transform="translate(56.87,0)" style="font-family: 'Open Sans', verdana, arial, sans-serif; font-size: 12px; fill: rgb(42, 63, 95); fill-opacity: 1; white-space: pre; opacity: 1;">1.7.23</text></g><g class="xtick"><text text-anchor="middle" x="0" y="363" style="font-family: 'Open Sans', verdana, arial, sans-serif; font-size: 12px; fill: rgb(42, 63, 95); fill-opacity: 1; white-space: pre; opacity: 1;" transform="translate(99.44,0)">1.9.23</text></g><g class="xtick"><text text-anchor="middle" x="0" y="363" style="font-family: 'Open Sans', verdana, arial, sans-serif; font-size: 12px; fill: rgb(42, 63, 95); fill-opacity: 1; white-space: pre; opacity: 1;" transform="translate(141.32999999999998,0)">1.11.23</text></g><g class="xtick"><text text-anchor="middle" x="0" y="363" style="font-family: 'Open Sans', verdana, arial, sans-serif; font-size: 12px; fill: rgb(42, 63, 95); fill-opacity: 1; white-space: pre; opacity: 1;" transform="translate(183.21,0)">1.1.24</text></g><g class="xtick"><text text-anchor="middle" x="0" y="363" style="font-family: 'Open Sans', verdana, arial, sans-serif; font-size: 12px; fill: rgb(42, 63, 95); fill-opacity: 1; white-space: pre; opacity: 1;" transform="translate(224.41,0)">1.3.24</text></g></g><g class="yaxislayer-above"><g class="ytick"><text text-anchor="end" x="49" y="4.199999999999999" transform="translate(0,350)" style="font-family: 'Open Sans', verdana, arial, sans-serif; font-size: 12px; fill: rgb(42, 63, 95); fill-opacity: 1; white-space: pre; opacity: 1;">0%</text></g><g class="ytick"><text text-anchor="end" x="49" y="4.199999999999999" style="font-family: 'Open Sans', verdana, arial, sans-serif; font-size: 12px; fill: rgb(42, 63, 95); fill-opacity: 1; white-space: pre; opacity: 1;" transform="translate(0,292.27)">10%</text></g><g class="ytick"><text text-anchor="end" x="49" y="4.199999999999999" style="font-family: 'Open Sans', verdana, arial, sans-serif; font-size: 12px; fill: rgb(42, 63, 95); fill-opacity: 1; white-space: pre; opacity: 1;" transform="translate(0,234.53)">20%</text></g><g class="ytick"><text text-anchor="end" x="49" y="4.199999999999999" style="font-family: 'Open Sans', verdana, arial, sans-serif; font-size: 12px; fill: rgb(42, 63, 95); fill-opacity: 1; white-space: pre; opacity: 1;" transform="translate(0,176.8)">30%</text></g><g class="ytick"><text text-anchor="end" x="49" y="4.199999999999999" style="font-family: 'Open Sans', verdana, arial, sans-serif; font-size: 12px; fill: rgb(42, 63, 95); fill-opacity: 1; white-space: pre; opacity: 1;" transform="translate(0,119.06)">40%</text></g><g class="ytick"><text text-anchor="end" x="49" y="4.199999999999999" style="font-family: 'Open Sans', verdana, arial, sans-serif; font-size: 12px; fill: rgb(42, 63, 95); fill-opacity: 1; white-space: pre; opacity: 1;" transform="translate(0,61.33)">50%</text></g></g><g class="overaxes-above"/></g></g><g class="polarlayer"/><g class="smithlayer"/><g class="ternarylayer"/><g class="geolayer"/><g class="funnelarealayer"/><g class="pielayer"/><g class="iciclelayer"/><g class="treemaplayer"/><g class="sunburstlayer"/><g class="glimages"/><defs id="topdefs-54cfe9"><g class="clips"/><clipPath id="legend54cfe9"><rect width="128" height="124" x="0" y="0"/></clipPath></defs><g class="layer-above"><g class="imagelayer"/><g class="shapelayer"/></g><g class="infolayer"><g class="legend" pointer-events="all" transform="translate(260.12,20)"><rect class="bg" shape-rendering="crispEdges" width="128" height="124" x="0" y="0" style="stroke: rgb(68, 68, 68); stroke-opacity: 1; fill: rgb(255, 255, 255); fill-opacity: 1; stroke-width: 0px;"/><g class="scrollbox" transform="" clip-path="url(#legend54cfe9)"><g class="groups"><g class="traces" transform="translate(0,14.5)" style="opacity: 1;"><text class="legendtext" text-anchor="start" x="40" y="4.680000000000001" style="font-family: 'Open Sans', verdana, arial, sans-serif; font-size: 12px; fill: rgb(42, 63, 95); fill-opacity: 1; white-space: pre;">Pellegrini Peter</text><g class="layers" style="opacity: 1;"><g class="legendfill"/><g class="legendlines"><path class="js-line" d="M5,0h30" style="fill: none; stroke: rgb(138, 44, 81); stroke-opacity: 1; stroke-width: 5px;"/></g><g class="legendsymbols"><g class="legendpoints"/></g></g><rect class="legendtoggle" x="0" y="-9.5" width="122.703125" height="19" style="fill: rgb(0, 0, 0); fill-opacity: 0;"/></g><g class="traces" transform="translate(0,33.5)" style="opacity: 1;"><text class="legendtext" text-anchor="start" x="40" y="4.680000000000001" style="font-family: 'Open Sans', verdana, arial, sans-serif; font-size: 12px; fill: rgb(42, 63, 95); fill-opacity: 1; white-space: pre;">Korčok Ivan</text><g class="layers" style="opacity: 1;"><g class="legendfill"/><g class="legendlines"><path class="js-line" d="M5,0h30" style="fill: none; stroke: rgb(0, 174, 239); stroke-opacity: 1; stroke-width: 5px;"/></g><g class="legendsymbols"><g class="legendpoints"/></g></g><rect class="legendtoggle" x="0" y="-9.5" width="122.703125" height="19" style="fill: rgb(0, 0, 0); fill-opacity: 0;"/></g><g class="traces" transform="translate(0,52.5)" style="opacity: 1;"><text class="legendtext" text-anchor="start" x="40" y="4.680000000000001" style="font-family: 'Open Sans', verdana, arial, sans-serif; font-size: 12px; fill: rgb(42, 63, 95); fill-opacity: 1; white-space: pre;">Kubiš Ján</text><g class="layers" style="opacity: 1;"><g class="legendfill"/><g class="legendlines"><path class="js-line" d="M5,0h30" style="fill: none; stroke: rgb(255, 1, 170); stroke-opacity: 1; stroke-width: 5px;"/></g><g class="legendsymbols"><g class="legendpoints"/></g></g><rect class="legendtoggle" x="0" y="-9.5" width="122.703125" height="19" style="fill: rgb(0, 0, 0); fill-opacity: 0;"/></g><g class="traces" transform="translate(0,71.5)" style="opacity: 1;"><text class="legendtext" text-anchor="start" x="40" y="4.680000000000001" style="font-family: 'Open Sans', verdana, arial, sans-serif; font-size: 12px; fill: rgb(42, 63, 95); fill-opacity: 1; white-space: pre;">Mistrík Robert</text><g class="layers" style="opacity: 1;"><g class="legendfill"/><g class="legendlines"><path class="js-line" d="M5,0h30" style="fill: none; stroke: rgb(202, 166, 105); stroke-opacity: 1; stroke-width: 5px;"/></g><g class="legendsymbols"><g class="legendpoints"/></g></g><rect class="legendtoggle" x="0" y="-9.5" width="122.703125" height="19" style="fill: rgb(0, 0, 0); fill-opacity: 0;"/></g><g class="traces" transform="translate(0,90.5)" style="opacity: 1;"><text class="legendtext" text-anchor="start" x="40" y="4.680000000000001" style="font-family: 'Open Sans', verdana, arial, sans-serif; font-size: 12px; fill: rgb(42, 63, 95); fill-opacity: 1; white-space: pre;">Fico Robert</text><g class="layers" style="opacity: 1;"><g class="legendfill"/><g class="legendlines"><path class="js-line" d="M5,0h30" style="fill: none; stroke: rgb(238, 58, 67); stroke-opacity: 1; stroke-width: 5px;"/></g><g class="legendsymbols"><g class="legendpoints"/></g></g><rect class="legendtoggle" x="0" y="-9.5" width="122.703125" height="19" style="fill: rgb(0, 0, 0); fill-opacity: 0;"/></g><g class="traces" transform="translate(0,109.5)" style="opacity: 1;"><text class="legendtext" text-anchor="start" x="40" y="4.680000000000001" style="font-family: 'Open Sans', verdana, arial, sans-serif; font-size: 12px; fill: rgb(42, 63, 95); fill-opacity: 1; white-space: pre;">Lajčák Miroslav</text><g class="layers" style="opacity: 1;"><g class="legendfill"/><g class="legendlines"><path class="js-line" d="M5,0h30" style="fill: none; stroke: rgb(255, 192, 203); stroke-opacity: 1; stroke-width: 5px;"/></g><g class="legendsymbols"><g class="legendpoints"/></g></g><rect class="legendtoggle" x="0" y="-9.5" width="122.703125" height="19" style="fill: rgb(0, 0, 0); fill-opacity: 0;"/></g></g></g><rect class="scrollbar" rx="20" ry="3" width="0" height="0" x="0" y="0" style="fill: rgb(128, 139, 164); fill-opacity: 1;"/></g><g class="g-gtitle"/><g class="g-xtitle"/><g class="g-ytitle"/></g></svg>