<svg class="main-svg" xmlns="http://www.w3.org/2000/svg" xmlns:xlink="http://www.w3.org/1999/xlink" width="300" height="135" style="" viewBox="0 0 300 135"><rect x="0" y="0" width="300" height="135" style="fill: rgb(255, 255, 255); fill-opacity: 1;"/><defs id="defs-22e888"><g class="clips"><clipPath id="clip22e888xyplot" class="plotclip"><rect width="280" height="75"/></clipPath><clipPath class="axesclip" id="clip22e888x"><rect x="10" y="0" width="280" height="135"/></clipPath><clipPath class="axesclip" id="clip22e888y"><rect x="0" y="50" width="300" height="75"/></clipPath><clipPath class="axesclip" id="clip22e888xy"><rect x="10" y="50" width="280" height="75"/></clipPath></g><g class="gradients"/><g class="patterns"/></defs><g class="bglayer"/><g class="layer-below"><g class="imagelayer"/><g class="shapelayer"/></g><g class="cartesianlayer"><g class="subplot xy"><g class="layer-subplot"><g class="shapelayer"/><g class="imagelayer"/></g><g class="minor-gridlayer"><g class="x"/><g class="y"/></g><g class="gridlayer"><g class="x"><path class="xgrid crisp" transform="translate(20.89,0)" d="M0,50v75" style="stroke: rgb(235, 240, 248); stroke-opacity: 1; stroke-width: 1px;"/><path class="xgrid crisp" transform="translate(88.44,0)" d="M0,50v75" style="stroke: rgb(235, 240, 248); stroke-opacity: 1; stroke-width: 1px;"/><path class="xgrid crisp" transform="translate(154.9,0)" d="M0,50v75" style="stroke: rgb(235, 240, 248); stroke-opacity: 1; stroke-width: 1px;"/><path class="xgrid crisp" transform="translate(221.36,0)" d="M0,50v75" style="stroke: rgb(235, 240, 248); stroke-opacity: 1; stroke-width: 1px;"/><path class="xgrid crisp" transform="translate(286.73,0)" d="M0,50v75" style="stroke: rgb(235, 240, 248); stroke-opacity: 1; stroke-width: 1px;"/></g><g class="y"><path class="ygrid crisp" transform="translate(0,102.77000000000001)" d="M10,0h280" style="stroke: rgb(235, 240, 248); stroke-opacity: 1; stroke-width: 1px;"/><path class="ygrid crisp" transform="translate(0,80.53999999999999)" d="M10,0h280" style="stroke: rgb(235, 240, 248); stroke-opacity: 1; stroke-width: 1px;"/><path class="ygrid crisp" transform="translate(0,58.31)" d="M10,0h280" style="stroke: rgb(235, 240, 248); stroke-opacity: 1; stroke-width: 1px;"/></g></g><g class="zerolinelayer"><path class="yzl zl crisp" transform="translate(0,125)" d="M10,0h280" style="stroke: rgb(235, 240, 248); stroke-opacity: 1; stroke-width: 2px;"/></g><path class="xlines-below"/><path class="ylines-below"/><g class="overlines-below"/><g class="xaxislayer-below"/><g class="yaxislayer-below"/><g class="overaxes-below"/><g class="plot" transform="translate(10,50)" clip-path="url(#clip22e888xyplot)"><g class="scatterlayer mlayer"><g class="trace scatter tracece3689" style="stroke-miterlimit: 2; opacity: 1;"><g class="fills"/><g class="errorbars"/><g class="lines"><path class="js-line" d="M0,51.77L3.27,48.88L4.36,48.88L8.72,49.1L9.81,48.32L25.06,47.43L26.15,46.77L46.85,45.99L47.94,41.32L61.01,41.32L63.19,44.54L66.46,43.88L67.55,43.88L75.18,43.65L76.26,46.1L78.44,47.32L79.53,46.88L80.62,46.43L81.71,47.43L110.04,46.77L111.13,44.54L113.31,45.43L114.4,45.43L115.49,45.21L116.58,41.54L118.75,39.32L119.84,39.32L120.93,38.76L122.02,35.1L124.2,32.98L125.29,32.98L128.56,32.32L129.65,31.32L132.92,28.87L134.01,28.87L142.72,29.2L143.81,30.32L152.53,30.32L153.62,28.76L154.71,28.76L155.8,26.09L160.16,26.09L161.25,23.09L167.78,23.09L168.87,21.31L175.41,18.42L176.5,18.42L178.68,14.64L179.77,14.64L180.86,12.75L181.95,8.2L191.75,8.2L192.84,9.86L195.02,10.64L196.11,10.64L198.29,12.86L199.38,13.53L204.82,12.31L205.91,12.31L212.45,12.42L213.54,8.75L215.72,5.08L216.81,4.97L220.08,5.86L221.17,3.75L224.44,4.75L225.53,5.64L227.7,6.75L228.79,10.53L229.88,11.86L230.97,10.53L233.15,10.64L234.24,8.86L236.42,8.97L237.51,9.09L239.69,8.64L240.78,7.75L244.05,4.64L245.14,4.64L248.4,6.64L249.49,5.75L251.67,6.42L252.76,8.64L254.94,14.87L256.03,14.64L259.3,15.75L260.39,16.09L262.57,14.64L263.66,15.87L265.84,16.64L266.93,15.09L270.19,8.31L271.28,8.2L273.46,5.86L274.55,5.75L276.73,5.97L277.82,7.75L280,7.75" style="vector-effect: none; fill: none; stroke: rgb(138, 44, 81); stroke-opacity: 1; stroke-width: 5px; opacity: 1;"/></g><g class="points"/><g class="text"/></g><g class="trace scatter trace596921" style="stroke-miterlimit: 2; opacity: 1;"><g class="fills"/><g class="errorbars"/><g class="lines"><path class="js-line" d="M0,26.54L4.36,28.09L5.45,28.09L8.72,27.87L9.81,27.2L63.19,28.2L64.28,31.32L75.18,30.32L76.26,27.76L78.44,23.98L79.53,24.98L80.62,25.98L81.71,22.65L91.52,22.65L92.61,24.31L93.7,24.31L94.79,22.65L95.88,24.31L96.96,22.31L99.14,21.87L100.23,23.98L102.41,21.87L103.5,21.87L104.59,21.87L105.68,23.98L106.77,23.98L107.86,21.87L110.04,23.98L111.13,21.98L113.31,24.54L114.4,24.54L120.93,25.76L122.02,27.65L125.29,28.43L126.38,28.43L140.54,29.2L141.63,29.87L167.78,30.87L168.87,32.65L176.5,34.98L177.59,32.87L180.86,33.98L181.95,35.43L191.75,35.43L192.84,33.87L195.02,32.98L196.11,32.98L197.2,32.54L198.29,29.98L200.47,29.43L201.56,29.76L212.45,29.2L213.54,32.09L215.72,35.43L216.81,35.54L218.99,33.76L220.08,32.98L222.26,35.1L223.35,34.54L227.7,32.09L228.79,28.32L229.88,26.98L230.97,28.32L233.15,28.2L234.24,29.98L236.42,29.87L237.51,29.76L239.69,30.2L240.78,31.09L244.05,34.21L245.14,34.21L248.4,32.21L249.49,33.09L251.67,32.43L252.76,30.2L254.94,23.98L256.03,24.2L259.3,23.09L260.39,22.76L262.57,24.2L263.66,22.98L265.84,22.2L266.93,23.76L270.19,30.54L271.28,30.65L273.46,32.98L274.55,33.09L276.73,32.87L277.82,31.09L280,31.09" style="vector-effect: none; fill: none; stroke: rgb(0, 174, 239); stroke-opacity: 1; stroke-width: 5px; opacity: 1;"/></g><g class="points"/><g class="text"/></g><g class="trace scatter trace62b9dc" style="stroke-miterlimit: 2; opacity: 1;"><g class="fills"/><g class="errorbars"/><g class="lines"><path class="js-line" d="M0,67.22L11.98,67.33L13.07,67.33L46.85,68.55L47.94,69.44L61.01,69.44L63.19,68.11L64.28,71L66.46,71L80.62,71.89L81.71,72.33L128.56,73.11L129.65,73.55L160.16,73.55" style="vector-effect: none; fill: none; stroke: rgb(255, 192, 203); stroke-opacity: 1; stroke-width: 5px; opacity: 1;"/></g><g class="points"/><g class="text"/></g><g class="trace scatter trace67ddf6" style="stroke-miterlimit: 2; opacity: 1;"><g class="fills"/><g class="errorbars"/><g class="lines"><path class="js-line" d="M0,63.33L6.54,63.77L7.63,63.33L28.33,64.66L29.42,64.66L46.85,64.44L47.94,66.11L63.19,65.44L64.28,66.89L76.26,67.22L77.35,68.44L79.53,67.77L80.62,67.11L82.8,69L83.89,69L111.13,68.11L112.22,67.33L116.58,68.55L117.67,69.11L128.56,70.33L129.65,70.78L137.28,71.55L138.37,71.55L176.5,71.55L177.59,73.67L180.86,73.89" style="vector-effect: none; fill: none; stroke: rgb(238, 58, 67); stroke-opacity: 1; stroke-width: 5px; opacity: 1;"/></g><g class="points"/><g class="text"/></g><g class="trace scatter trace6bb28f" style="stroke-miterlimit: 2; opacity: 1;"><g class="fills"/><g class="errorbars"/><g class="lines"><path class="js-line" d="M0,63.77L7.63,64.88L8.72,64.22L11.98,63.55L13.07,63.55L46.85,63.77L47.94,65.11L63.19,64.22L64.28,56.99L76.26,57.66L77.35,58.33L96.96,58.66L98.05,59.1L110.04,58.33L111.13,61.55L113.31,59.33L114.4,59.33L115.49,59.44L116.58,61.11L118.75,62.44L119.84,62.44L120.93,62.11L122.02,63.22L128.56,63.33L129.65,63.22L137.28,63.88L138.37,63.88L140.54,63.44L141.63,62.44L142.72,62.44L143.81,60.88L152.53,60.88L153.62,62.33L159.07,64.33L160.16,64.33L162.33,65.22L163.42,65.22L176.5,65.55L177.59,69L197.2,70.11L198.29,71.11L212.45,72.22L213.54,73L218.99,73.55" style="vector-effect: none; fill: none; stroke: rgb(255, 1, 170); stroke-opacity: 1; stroke-width: 5px; opacity: 1;"/></g><g class="points"/><g class="text"/></g></g></g><g class="overplot"/><path class="xlines-above crisp" d="M0,0" style="fill: none;"/><path class="ylines-above crisp" d="M0,0" style="fill: none;"/><g class="overlines-above"/><g class="xaxislayer-above"/><g class="yaxislayer-above"/><g class="overaxes-above"/></g></g><g class="polarlayer"/><g class="smithlayer"/><g class="ternarylayer"/><g class="geolayer"/><g class="funnelarealayer"/><g class="pielayer"/><g class="iciclelayer"/><g class="treemaplayer"/><g class="sunburstlayer"/><g class="glimages"/><defs id="topdefs-22e888"><g class="clips"/></defs><g class="layer-above"><g class="imagelayer"/><g class="shapelayer"/></g><g class="infolayer"><g class="g-gtitle"><text class="gtitle" x="15" y="25" text-anchor="start" dy="0em" style="font-family: Ubuntu, verdana, arial, sans-serif; font-size: 16px; fill: rgb(233, 84, 32); opacity: 1; font-weight: normal; white-space: pre;">Prezident/ka 2024</text></g><g class="g-xtitle"/><g class="g-ytitle"/></g></svg>