<svg class="main-svg" xmlns="http://www.w3.org/2000/svg" xmlns:xlink="http://www.w3.org/1999/xlink" width="300" height="135" style="" viewBox="0 0 300 135"><rect x="0" y="0" width="300" height="135" style="fill: rgb(255, 255, 255); fill-opacity: 1;"/><defs id="defs-f0ea95"><g class="clips"><clipPath id="clipf0ea95xyplot" class="plotclip"><rect width="280" height="75"/></clipPath><clipPath class="axesclip" id="clipf0ea95x"><rect x="10" y="0" width="280" height="135"/></clipPath><clipPath class="axesclip" id="clipf0ea95y"><rect x="0" y="50" width="300" height="75"/></clipPath><clipPath class="axesclip" id="clipf0ea95xy"><rect x="10" y="50" width="280" height="75"/></clipPath></g><g class="gradients"/><g class="patterns"/></defs><g class="bglayer"/><g class="layer-below"><g class="imagelayer"/><g class="shapelayer"/></g><g class="cartesianlayer"><g class="subplot xy"><g class="layer-subplot"><g class="shapelayer"/><g class="imagelayer"/></g><g class="minor-gridlayer"><g class="x"/><g class="y"/></g><g class="gridlayer"><g class="x"><path class="xgrid crisp" transform="translate(23.79,0)" d="M0,50v75" style="stroke: rgb(235, 240, 248); stroke-opacity: 1; stroke-width: 1px;"/><path class="xgrid crisp" transform="translate(109.31,0)" d="M0,50v75" style="stroke: rgb(235, 240, 248); stroke-opacity: 1; stroke-width: 1px;"/><path class="xgrid crisp" transform="translate(193.45,0)" d="M0,50v75" style="stroke: rgb(235, 240, 248); stroke-opacity: 1; stroke-width: 1px;"/><path class="xgrid crisp" transform="translate(277.59,0)" d="M0,50v75" style="stroke: rgb(235, 240, 248); stroke-opacity: 1; stroke-width: 1px;"/></g><g class="y"><path class="ygrid crisp" transform="translate(0,102.77000000000001)" d="M10,0h280" style="stroke: rgb(235, 240, 248); stroke-opacity: 1; stroke-width: 1px;"/><path class="ygrid crisp" transform="translate(0,80.53999999999999)" d="M10,0h280" style="stroke: rgb(235, 240, 248); stroke-opacity: 1; stroke-width: 1px;"/><path class="ygrid crisp" transform="translate(0,58.31)" d="M10,0h280" style="stroke: rgb(235, 240, 248); stroke-opacity: 1; stroke-width: 1px;"/></g></g><g class="zerolinelayer"><path class="yzl zl crisp" transform="translate(0,125)" d="M10,0h280" style="stroke: rgb(235, 240, 248); stroke-opacity: 1; stroke-width: 2px;"/></g><path class="xlines-below"/><path class="ylines-below"/><g class="overlines-below"/><g class="xaxislayer-below"/><g class="yaxislayer-below"/><g class="overaxes-below"/><g class="plot" transform="translate(10,50)" clip-path="url(#clipf0ea95xyplot)"><g class="scatterlayer mlayer"><g class="trace scatter trace45721a" style="stroke-miterlimit: 2; opacity: 1;"><g class="fills"/><g class="errorbars"/><g class="lines"><path class="js-line" d="M0,51.77L4.14,48.88L5.52,48.88L11.03,49.1L12.41,48.32L31.72,47.43L33.1,46.77L59.31,45.99L60.69,41.32L77.24,41.32L80,44.54L84.14,43.88L85.52,43.88L95.17,43.65L96.55,46.1L99.31,47.32L100.69,46.88L102.07,46.43L103.45,47.43L139.31,46.77L140.69,44.54L143.45,45.43L144.83,45.43L146.21,45.21L147.59,41.54L150.34,39.32L151.72,39.32L153.1,38.76L154.48,35.1L157.24,32.98L158.62,32.98L162.76,32.32L164.14,31.32L168.28,28.87L169.66,28.87L180.69,29.2L182.07,30.32L193.1,30.32L194.48,28.76L195.86,28.76L197.24,26.09L202.76,26.09L204.14,23.09L212.41,23.09L213.79,21.31L222.07,18.42L223.45,18.42L224.83,14.64L226.21,14.64L227.59,14.64L228.97,12.75L230.34,8.2L231.72,8.2L242.76,8.2L244.14,9.86L246.9,10.64L248.28,10.64L249.66,11.09L251.03,12.86L253.79,13.09L255.17,12.31L268.97,12.42L270.34,8.75L273.1,5.08L274.48,4.97L278.62,5.86L280,3.75" style="vector-effect: none; fill: none; stroke: rgb(138, 44, 81); stroke-opacity: 1; stroke-width: 5px; opacity: 1;"/></g><g class="points"/><g class="text"/></g><g class="trace scatter trace6b16f5" style="stroke-miterlimit: 2; opacity: 1;"><g class="fills"/><g class="errorbars"/><g class="lines"><path class="js-line" d="M0,26.54L5.52,28.09L6.9,28.09L11.03,27.87L12.41,27.2L80,28.2L81.38,31.32L95.17,30.32L96.55,27.76L97.93,23.98L99.31,23.98L102.07,25.98L103.45,22.65L115.86,22.65L117.24,24.31L118.62,24.31L120,22.65L121.38,24.31L122.76,22.31L125.52,21.87L126.9,23.98L129.66,21.87L131.03,21.87L132.41,21.87L133.79,23.98L135.17,23.98L136.55,21.87L139.31,23.98L140.69,21.98L143.45,24.54L144.83,24.54L153.1,25.76L154.48,27.65L158.62,28.43L160,28.43L177.93,29.2L179.31,29.87L212.41,30.87L213.79,32.65L223.45,34.98L224.83,32.87L228.97,33.98L230.34,35.43L242.76,35.43L244.14,33.87L246.9,32.98L248.28,32.98L249.66,32.54L251.03,29.98L253.79,29.43L255.17,29.76L268.97,29.2L270.34,32.09L273.1,35.43L274.48,35.54L277.24,33.76L278.62,32.98L280,35.1" style="vector-effect: none; fill: none; stroke: rgb(0, 174, 239); stroke-opacity: 1; stroke-width: 5px; opacity: 1;"/></g><g class="points"/><g class="text"/></g><g class="trace scatter tracec328b8" style="stroke-miterlimit: 2; opacity: 1;"><g class="fills"/><g class="errorbars"/><g class="lines"><path class="js-line" d="M0,67.22L15.17,67.33L16.55,67.33L59.31,68.55L60.69,69.44L77.24,69.44L80,68.11L81.38,71L84.14,71L102.07,71.89L103.45,72.33L162.76,73.11L164.14,73.55L202.76,73.55" style="vector-effect: none; fill: none; stroke: rgb(255, 192, 203); stroke-opacity: 1; stroke-width: 5px; opacity: 1;"/></g><g class="points"/><g class="text"/></g><g class="trace scatter trace8a3d41" style="stroke-miterlimit: 2; opacity: 1;"><g class="fills"/><g class="errorbars"/><g class="lines"><path class="js-line" d="M0,63.33L8.28,63.77L9.66,63.33L35.86,64.66L37.24,64.66L59.31,64.44L60.69,66.11L80,65.44L81.38,66.89L96.55,67.22L97.93,68.44L100.69,67.77L102.07,67.11L104.83,69L106.21,69L140.69,68.11L142.07,67.33L147.59,68.55L148.97,69.11L162.76,70.33L164.14,70.78L173.79,71.55L175.17,71.55L223.45,71.55L224.83,73.67L228.97,73.89" style="vector-effect: none; fill: none; stroke: rgb(238, 58, 67); stroke-opacity: 1; stroke-width: 5px; opacity: 1;"/></g><g class="points"/><g class="text"/></g><g class="trace scatter tracec88d7a" style="stroke-miterlimit: 2; opacity: 1;"><g class="fills"/><g class="errorbars"/><g class="lines"><path class="js-line" d="M0,63.77L9.66,64.88L11.03,64.22L15.17,63.55L16.55,63.55L59.31,63.77L60.69,65.11L80,64.22L81.38,56.99L96.55,57.66L97.93,58.33L122.76,58.66L124.14,59.1L139.31,58.33L140.69,61.55L143.45,59.33L144.83,59.33L146.21,59.44L147.59,61.11L150.34,62.44L151.72,62.44L153.1,62.11L154.48,63.22L162.76,63.33L164.14,63.22L173.79,63.88L175.17,63.88L177.93,63.44L179.31,62.44L180.69,62.44L182.07,60.88L193.1,60.88L194.48,62.33L200,64.33L201.38,64.33L223.45,65.55L224.83,69L249.66,70.11L251.03,71.11L268.97,72.22L270.34,73L277.24,73.55" style="vector-effect: none; fill: none; stroke: rgb(255, 1, 170); stroke-opacity: 1; stroke-width: 5px; opacity: 1;"/></g><g class="points"/><g class="text"/></g></g></g><g class="overplot"/><path class="xlines-above crisp" d="M0,0" style="fill: none;"/><path class="ylines-above crisp" d="M0,0" style="fill: none;"/><g class="overlines-above"/><g class="xaxislayer-above"/><g class="yaxislayer-above"/><g class="overaxes-above"/></g></g><g class="polarlayer"/><g class="smithlayer"/><g class="ternarylayer"/><g class="geolayer"/><g class="funnelarealayer"/><g class="pielayer"/><g class="iciclelayer"/><g class="treemaplayer"/><g class="sunburstlayer"/><g class="glimages"/><defs id="topdefs-f0ea95"><g class="clips"/></defs><g class="layer-above"><g class="imagelayer"/><g class="shapelayer"/></g><g class="infolayer"><g class="g-gtitle"><text class="gtitle" x="15" y="25" text-anchor="start" dy="0em" style="font-family: Ubuntu, verdana, arial, sans-serif; font-size: 16px; fill: rgb(233, 84, 32); opacity: 1; font-weight: normal; white-space: pre;">Prezident/ka 2024</text></g><g class="g-xtitle"/><g class="g-ytitle"/></g></svg>