<svg class="main-svg" xmlns="http://www.w3.org/2000/svg" xmlns:xlink="http://www.w3.org/1999/xlink" width="300" height="135" style="" viewBox="0 0 300 135"><rect x="0" y="0" width="300" height="135" style="fill: rgb(255, 255, 255); fill-opacity: 1;"/><defs id="defs-5bdc85"><g class="clips"><clipPath id="clip5bdc85xyplot" class="plotclip"><rect width="280" height="75"/></clipPath><clipPath class="axesclip" id="clip5bdc85x"><rect x="10" y="0" width="280" height="135"/></clipPath><clipPath class="axesclip" id="clip5bdc85y"><rect x="0" y="50" width="300" height="75"/></clipPath><clipPath class="axesclip" id="clip5bdc85xy"><rect x="10" y="50" width="280" height="75"/></clipPath></g><g class="gradients"/><g class="patterns"/></defs><g class="bglayer"/><g class="layer-below"><g class="imagelayer"/><g class="shapelayer"/></g><g class="cartesianlayer"><g class="subplot xy"><g class="layer-subplot"><g class="shapelayer"/><g class="imagelayer"/></g><g class="minor-gridlayer"><g class="x"/><g class="y"/></g><g class="gridlayer"><g class="x"><path class="xgrid crisp" transform="translate(20.98,0)" d="M0,50v75" style="stroke: rgb(235, 240, 248); stroke-opacity: 1; stroke-width: 1px;"/><path class="xgrid crisp" transform="translate(89.06,0)" d="M0,50v75" style="stroke: rgb(235, 240, 248); stroke-opacity: 1; stroke-width: 1px;"/><path class="xgrid crisp" transform="translate(156.04,0)" d="M0,50v75" style="stroke: rgb(235, 240, 248); stroke-opacity: 1; stroke-width: 1px;"/><path class="xgrid crisp" transform="translate(223.02,0)" d="M0,50v75" style="stroke: rgb(235, 240, 248); stroke-opacity: 1; stroke-width: 1px;"/><path class="xgrid crisp" transform="translate(288.9,0)" d="M0,50v75" style="stroke: rgb(235, 240, 248); stroke-opacity: 1; stroke-width: 1px;"/></g><g class="y"><path class="ygrid crisp" transform="translate(0,102.77000000000001)" d="M10,0h280" style="stroke: rgb(235, 240, 248); stroke-opacity: 1; stroke-width: 1px;"/><path class="ygrid crisp" transform="translate(0,80.53999999999999)" d="M10,0h280" style="stroke: rgb(235, 240, 248); stroke-opacity: 1; stroke-width: 1px;"/><path class="ygrid crisp" transform="translate(0,58.31)" d="M10,0h280" style="stroke: rgb(235, 240, 248); stroke-opacity: 1; stroke-width: 1px;"/></g></g><g class="zerolinelayer"><path class="yzl zl crisp" transform="translate(0,125)" d="M10,0h280" style="stroke: rgb(235, 240, 248); stroke-opacity: 1; stroke-width: 2px;"/></g><path class="xlines-below"/><path class="ylines-below"/><g class="overlines-below"/><g class="xaxislayer-below"/><g class="yaxislayer-below"/><g class="overaxes-below"/><g class="plot" transform="translate(10,50)" clip-path="url(#clip5bdc85xyplot)"><g class="scatterlayer mlayer"><g class="trace scatter tracefe7fc4" style="stroke-miterlimit: 2; opacity: 1;"><g class="fills"/><g class="errorbars"/><g class="lines"><path class="js-line" d="M0,51.77L3.29,48.88L4.39,48.88L8.78,49.1L9.88,48.32L25.25,47.43L26.35,46.77L47.22,45.99L48.31,41.32L61.49,41.32L63.69,44.54L66.98,43.88L68.08,43.88L75.76,43.65L76.86,46.1L79.06,47.32L80.16,46.88L81.25,46.43L82.35,47.43L110.9,46.77L112,44.54L114.2,45.43L115.29,45.43L116.39,45.21L117.49,41.54L119.69,39.32L120.78,39.32L121.88,38.76L122.98,35.1L125.18,32.98L126.27,32.98L129.57,32.32L130.67,31.32L133.96,28.87L135.06,28.87L143.84,29.2L144.94,30.32L153.73,30.32L154.82,28.76L155.92,28.76L157.02,26.09L161.41,26.09L162.51,23.09L169.1,23.09L170.2,21.31L176.78,18.42L177.88,18.42L180.08,14.64L181.18,14.64L182.27,12.75L183.37,8.2L193.25,8.2L194.35,9.86L196.55,10.64L197.65,10.64L199.84,12.86L200.94,13.53L206.43,12.31L207.53,12.31L214.12,12.42L215.22,8.75L217.41,5.08L218.51,4.97L221.8,5.86L222.9,3.75L226.2,4.75L227.29,5.64L229.49,6.75L230.59,10.53L231.69,11.86L232.78,10.53L234.98,10.64L236.08,8.86L238.27,8.97L239.37,9.09L241.57,8.64L242.67,7.75L245.96,4.64L247.06,4.64L250.35,6.64L251.45,5.75L253.65,6.42L254.75,8.64L256.94,14.87L258.04,14.64L261.33,15.75L262.43,16.09L264.63,14.64L265.73,15.87L267.92,16.64L269.02,15.09L272.31,8.31L273.41,8.2L275.61,5.86L276.71,5.75L278.9,5.97L280,7.75" style="vector-effect: none; fill: none; stroke: rgb(138, 44, 81); stroke-opacity: 1; stroke-width: 5px; opacity: 1;"/></g><g class="points"/><g class="text"/></g><g class="trace scatter traceb36397" style="stroke-miterlimit: 2; opacity: 1;"><g class="fills"/><g class="errorbars"/><g class="lines"><path class="js-line" d="M0,26.54L4.39,28.09L5.49,28.09L8.78,27.87L9.88,27.2L63.69,28.2L64.78,31.32L75.76,30.32L76.86,27.76L79.06,23.98L80.16,24.98L81.25,25.98L82.35,22.65L92.24,22.65L93.33,24.31L94.43,24.31L95.53,22.65L96.63,24.31L97.73,22.31L99.92,21.87L101.02,23.98L103.22,21.87L104.31,21.87L105.41,21.87L106.51,23.98L107.61,23.98L108.71,21.87L110.9,23.98L112,21.98L114.2,24.54L115.29,24.54L121.88,25.76L122.98,27.65L126.27,28.43L127.37,28.43L141.65,29.2L142.75,29.87L169.1,30.87L170.2,32.65L177.88,34.98L178.98,32.87L182.27,33.98L183.37,35.43L193.25,35.43L194.35,33.87L196.55,32.98L197.65,32.98L198.75,32.54L199.84,29.98L202.04,29.43L203.14,29.76L214.12,29.2L215.22,32.09L217.41,35.43L218.51,35.54L220.71,33.76L221.8,32.98L224,35.1L225.1,34.54L229.49,32.09L230.59,28.32L231.69,26.98L232.78,28.32L234.98,28.2L236.08,29.98L238.27,29.87L239.37,29.76L241.57,30.2L242.67,31.09L245.96,34.21L247.06,34.21L250.35,32.21L251.45,33.09L253.65,32.43L254.75,30.2L256.94,23.98L258.04,24.2L261.33,23.09L262.43,22.76L264.63,24.2L265.73,22.98L267.92,22.2L269.02,23.76L272.31,30.54L273.41,30.65L275.61,32.98L276.71,33.09L278.9,32.87L280,31.09" style="vector-effect: none; fill: none; stroke: rgb(0, 174, 239); stroke-opacity: 1; stroke-width: 5px; opacity: 1;"/></g><g class="points"/><g class="text"/></g><g class="trace scatter tracede3b23" style="stroke-miterlimit: 2; opacity: 1;"><g class="fills"/><g class="errorbars"/><g class="lines"><path class="js-line" d="M0,63.77L7.69,64.88L8.78,64.22L12.08,63.55L13.18,63.55L47.22,63.77L48.31,65.11L63.69,64.22L64.78,56.99L76.86,57.66L77.96,58.33L97.73,58.66L98.82,59.1L110.9,58.33L112,61.55L114.2,59.33L115.29,59.33L116.39,59.44L117.49,61.11L119.69,62.44L120.78,62.44L121.88,62.11L122.98,63.22L129.57,63.33L130.67,63.22L138.35,63.88L139.45,63.88L141.65,63.44L142.75,62.44L143.84,62.44L144.94,60.88L153.73,60.88L154.82,62.33L160.31,64.33L161.41,64.33L163.61,65.22L164.71,65.22L177.88,65.55L178.98,69L198.75,70.11L199.84,71.11L214.12,72.22L215.22,73L220.71,73.55" style="vector-effect: none; fill: none; stroke: rgb(255, 1, 170); stroke-opacity: 1; stroke-width: 5px; opacity: 1;"/></g><g class="points"/><g class="text"/></g><g class="trace scatter tracea0a8cf" style="stroke-miterlimit: 2; opacity: 1;"><g class="fills"/><g class="errorbars"/><g class="lines"><path class="js-line" d="M0,66.22L6.59,66.44L7.69,64.88L9.88,68.33L10.98,68.33L79.06,68.89L80.16,69.33L82.35,69L83.45,69L117.49,70.11L118.59,70.33L130.67,71.55L131.76,71.78L136.16,72.11L137.25,72.11L177.88,73.33L178.98,73.67L182.27,73.89" style="vector-effect: none; fill: none; stroke: rgb(202, 166, 105); stroke-opacity: 1; stroke-width: 5px; opacity: 1;"/></g><g class="points"/><g class="text"/></g><g class="trace scatter trace552125" style="stroke-miterlimit: 2; opacity: 1;"><g class="fills"/><g class="errorbars"/><g class="lines"><path class="js-line" d="M0,67.22L12.08,67.33L13.18,67.33L47.22,68.55L48.31,69.44L61.49,69.44L63.69,68.11L64.78,71L66.98,71L81.25,71.89L82.35,72.33L129.57,73.11L130.67,73.55L161.41,73.55" style="vector-effect: none; fill: none; stroke: rgb(255, 192, 203); stroke-opacity: 1; stroke-width: 5px; opacity: 1;"/></g><g class="points"/><g class="text"/></g></g></g><g class="overplot"/><path class="xlines-above crisp" d="M0,0" style="fill: none;"/><path class="ylines-above crisp" d="M0,0" style="fill: none;"/><g class="overlines-above"/><g class="xaxislayer-above"/><g class="yaxislayer-above"/><g class="overaxes-above"/></g></g><g class="polarlayer"/><g class="smithlayer"/><g class="ternarylayer"/><g class="geolayer"/><g class="funnelarealayer"/><g class="pielayer"/><g class="iciclelayer"/><g class="treemaplayer"/><g class="sunburstlayer"/><g class="glimages"/><defs id="topdefs-5bdc85"><g class="clips"/></defs><g class="layer-above"><g class="imagelayer"/><g class="shapelayer"/></g><g class="infolayer"><g class="g-gtitle"><text class="gtitle" x="15" y="25" text-anchor="start" dy="0em" style="font-family: Ubuntu, verdana, arial, sans-serif; font-size: 16px; fill: rgb(233, 84, 32); opacity: 1; font-weight: normal; white-space: pre;">Prezident/ka 2024</text></g><g class="g-xtitle"/><g class="g-ytitle"/></g></svg>