<svg class="main-svg" xmlns="http://www.w3.org/2000/svg" xmlns:xlink="http://www.w3.org/1999/xlink" width="300" height="135" style="" viewBox="0 0 300 135"><rect x="0" y="0" width="300" height="135" style="fill: rgb(255, 255, 255); fill-opacity: 1;"/><defs id="defs-a679e9"><g class="clips"><clipPath id="clipa679e9xyplot" class="plotclip"><rect width="280" height="75"/></clipPath><clipPath class="axesclip" id="clipa679e9x"><rect x="10" y="0" width="280" height="135"/></clipPath><clipPath class="axesclip" id="clipa679e9y"><rect x="0" y="50" width="300" height="75"/></clipPath><clipPath class="axesclip" id="clipa679e9xy"><rect x="10" y="50" width="280" height="75"/></clipPath></g><g class="gradients"/><g class="patterns"/></defs><g class="bglayer"/><g class="layer-below"><g class="imagelayer"/><g class="shapelayer"/></g><g class="cartesianlayer"><g class="subplot xy"><g class="layer-subplot"><g class="shapelayer"/><g class="imagelayer"/></g><g class="minor-gridlayer"><g class="x"/><g class="y"/></g><g class="gridlayer"><g class="x"><path class="xgrid crisp" transform="translate(23.21,0)" d="M0,50v75" style="stroke: rgb(235, 240, 248); stroke-opacity: 1; stroke-width: 1px;"/><path class="xgrid crisp" transform="translate(105.09,0)" d="M0,50v75" style="stroke: rgb(235, 240, 248); stroke-opacity: 1; stroke-width: 1px;"/><path class="xgrid crisp" transform="translate(185.66,0)" d="M0,50v75" style="stroke: rgb(235, 240, 248); stroke-opacity: 1; stroke-width: 1px;"/><path class="xgrid crisp" transform="translate(266.23,0)" d="M0,50v75" style="stroke: rgb(235, 240, 248); stroke-opacity: 1; stroke-width: 1px;"/></g><g class="y"><path class="ygrid crisp" transform="translate(0,102.77000000000001)" d="M10,0h280" style="stroke: rgb(235, 240, 248); stroke-opacity: 1; stroke-width: 1px;"/><path class="ygrid crisp" transform="translate(0,80.53999999999999)" d="M10,0h280" style="stroke: rgb(235, 240, 248); stroke-opacity: 1; stroke-width: 1px;"/><path class="ygrid crisp" transform="translate(0,58.31)" d="M10,0h280" style="stroke: rgb(235, 240, 248); stroke-opacity: 1; stroke-width: 1px;"/></g></g><g class="zerolinelayer"><path class="yzl zl crisp" transform="translate(0,125)" d="M10,0h280" style="stroke: rgb(235, 240, 248); stroke-opacity: 1; stroke-width: 2px;"/></g><path class="xlines-below"/><path class="ylines-below"/><g class="overlines-below"/><g class="xaxislayer-below"/><g class="yaxislayer-below"/><g class="overaxes-below"/><g class="plot" transform="translate(10,50)" clip-path="url(#clipa679e9xyplot)"><g class="scatterlayer mlayer"><g class="trace scatter tracef6bdb9" style="stroke-miterlimit: 2; opacity: 1;"><g class="fills"/><g class="errorbars"/><g class="lines"><path class="js-line" d="M0,51.77L3.96,48.88L5.28,48.88L10.57,49.1L11.89,48.32L30.38,47.43L31.7,46.77L56.79,45.99L58.11,41.32L73.96,41.32L76.6,44.54L80.57,43.88L81.89,43.88L91.13,43.65L92.45,46.1L95.09,47.32L96.42,46.88L97.74,46.43L99.06,47.43L133.4,46.77L134.72,44.54L137.36,45.43L138.68,45.43L140,45.21L141.32,41.54L143.96,39.32L145.28,39.32L146.6,38.76L147.92,35.1L150.57,32.98L151.89,32.98L155.85,32.32L157.17,31.32L161.13,28.87L162.45,28.87L173.02,29.2L174.34,30.32L184.91,30.32L186.23,28.76L187.55,28.76L188.87,26.09L194.15,26.09L195.47,23.09L203.4,23.09L204.72,21.31L212.64,18.42L213.96,18.42L216.6,14.64L217.92,14.64L219.25,12.75L220.57,8.2L232.45,8.2L233.77,9.86L236.42,10.64L237.74,10.64L240.38,12.86L241.7,13.53L246.98,12.31L248.3,12.31L257.55,12.42L258.87,8.75L261.51,5.08L262.83,4.97L266.79,5.86L268.11,3.75L272.08,4.75L273.4,5.64L276.04,6.75L277.36,10.53L278.68,11.86L280,10.42" style="vector-effect: none; fill: none; stroke: rgb(138, 44, 81); stroke-opacity: 1; stroke-width: 5px; opacity: 1;"/></g><g class="points"/><g class="text"/></g><g class="trace scatter trace960d2b" style="stroke-miterlimit: 2; opacity: 1;"><g class="fills"/><g class="errorbars"/><g class="lines"><path class="js-line" d="M0,26.54L5.28,28.09L6.6,28.09L10.57,27.87L11.89,27.2L76.6,28.2L77.92,31.32L91.13,30.32L92.45,27.76L95.09,23.98L96.42,24.98L97.74,25.98L99.06,22.65L110.94,22.65L112.26,24.31L113.58,24.31L114.91,22.65L116.23,24.31L117.55,22.31L120.19,21.87L121.51,23.98L124.15,21.87L125.47,21.87L126.79,21.87L128.11,23.98L129.43,23.98L130.75,21.87L133.4,23.98L134.72,21.98L137.36,24.54L138.68,24.54L146.6,25.76L147.92,27.65L151.89,28.43L153.21,28.43L170.38,29.2L171.7,29.87L203.4,30.87L204.72,32.65L213.96,34.98L215.28,32.87L219.25,33.98L220.57,35.43L232.45,35.43L233.77,33.87L236.42,32.98L237.74,32.98L239.06,32.54L240.38,29.98L243.02,29.43L244.34,29.76L257.55,29.2L258.87,32.09L261.51,35.43L262.83,35.54L265.47,33.76L266.79,32.98L269.43,35.1L270.75,34.54L276.04,32.09L277.36,28.32L278.68,26.98L280,28.43" style="vector-effect: none; fill: none; stroke: rgb(0, 174, 239); stroke-opacity: 1; stroke-width: 5px; opacity: 1;"/></g><g class="points"/><g class="text"/></g><g class="trace scatter trace4cf73f" style="stroke-miterlimit: 2; opacity: 1;"><g class="fills"/><g class="errorbars"/><g class="lines"><path class="js-line" d="M0,67.22L14.53,67.33L15.85,67.33L56.79,68.55L58.11,69.44L73.96,69.44L76.6,68.11L77.92,71L80.57,71L97.74,71.89L99.06,72.33L155.85,73.11L157.17,73.55L194.15,73.55" style="vector-effect: none; fill: none; stroke: rgb(255, 192, 203); stroke-opacity: 1; stroke-width: 5px; opacity: 1;"/></g><g class="points"/><g class="text"/></g><g class="trace scatter tracec66a84" style="stroke-miterlimit: 2; opacity: 1;"><g class="fills"/><g class="errorbars"/><g class="lines"><path class="js-line" d="M0,66.22L7.92,66.44L9.25,64.88L11.89,68.33L13.21,68.33L95.09,68.89L96.42,69.33L99.06,69L100.38,69L141.32,70.11L142.64,70.33L157.17,71.55L158.49,71.78L163.77,72.11L165.09,72.11L213.96,73.33L215.28,73.67L219.25,73.89" style="vector-effect: none; fill: none; stroke: rgb(202, 166, 105); stroke-opacity: 1; stroke-width: 5px; opacity: 1;"/></g><g class="points"/><g class="text"/></g><g class="trace scatter tracec64930" style="stroke-miterlimit: 2; opacity: 1;"><g class="fills"/><g class="errorbars"/><g class="lines"><path class="js-line" d="M0,63.33L7.92,63.77L9.25,63.33L34.34,64.66L35.66,64.66L56.79,64.44L58.11,66.11L76.6,65.44L77.92,66.89L92.45,67.22L93.77,68.44L96.42,67.77L97.74,67.11L100.38,69L101.7,69L134.72,68.11L136.04,67.33L141.32,68.55L142.64,69.11L155.85,70.33L157.17,70.78L166.42,71.55L167.74,71.55L213.96,71.55L215.28,73.67L219.25,73.89" style="vector-effect: none; fill: none; stroke: rgb(238, 58, 67); stroke-opacity: 1; stroke-width: 5px; opacity: 1;"/></g><g class="points"/><g class="text"/></g></g></g><g class="overplot"/><path class="xlines-above crisp" d="M0,0" style="fill: none;"/><path class="ylines-above crisp" d="M0,0" style="fill: none;"/><g class="overlines-above"/><g class="xaxislayer-above"/><g class="yaxislayer-above"/><g class="overaxes-above"/></g></g><g class="polarlayer"/><g class="smithlayer"/><g class="ternarylayer"/><g class="geolayer"/><g class="funnelarealayer"/><g class="pielayer"/><g class="iciclelayer"/><g class="treemaplayer"/><g class="sunburstlayer"/><g class="glimages"/><defs id="topdefs-a679e9"><g class="clips"/></defs><g class="layer-above"><g class="imagelayer"/><g class="shapelayer"/></g><g class="infolayer"><g class="g-gtitle"><text class="gtitle" x="15" y="25" text-anchor="start" dy="0em" style="font-family: Ubuntu, verdana, arial, sans-serif; font-size: 16px; fill: rgb(233, 84, 32); opacity: 1; font-weight: normal; white-space: pre;">Prezident/ka 2024</text></g><g class="g-xtitle"/><g class="g-ytitle"/></g></svg>