<svg class="main-svg" xmlns="http://www.w3.org/2000/svg" xmlns:xlink="http://www.w3.org/1999/xlink" width="300" height="135" style="" viewBox="0 0 300 135"><rect x="0" y="0" width="300" height="135" style="fill: rgb(255, 255, 255); fill-opacity: 1;"/><defs id="defs-be82e7"><g class="clips"><clipPath id="clipbe82e7xyplot" class="plotclip"><rect width="280" height="75"/></clipPath><clipPath class="axesclip" id="clipbe82e7x"><rect x="10" y="0" width="280" height="135"/></clipPath><clipPath class="axesclip" id="clipbe82e7y"><rect x="0" y="50" width="300" height="75"/></clipPath><clipPath class="axesclip" id="clipbe82e7xy"><rect x="10" y="50" width="280" height="75"/></clipPath></g><g class="gradients"/><g class="patterns"/></defs><g class="bglayer"/><g class="layer-below"><g class="imagelayer"/><g class="shapelayer"/></g><g class="cartesianlayer"><g class="subplot xy"><g class="layer-subplot"><g class="shapelayer"/><g class="imagelayer"/></g><g class="minor-gridlayer"><g class="x"/><g class="y"/></g><g class="gridlayer"><g class="x"><path class="xgrid crisp" transform="translate(19.93,0)" d="M0,50v75" style="stroke: rgb(235, 240, 248); stroke-opacity: 1; stroke-width: 1px;"/><path class="xgrid crisp" transform="translate(81.49,0)" d="M0,50v75" style="stroke: rgb(235, 240, 248); stroke-opacity: 1; stroke-width: 1px;"/><path class="xgrid crisp" transform="translate(142.06,0)" d="M0,50v75" style="stroke: rgb(235, 240, 248); stroke-opacity: 1; stroke-width: 1px;"/><path class="xgrid crisp" transform="translate(202.62,0)" d="M0,50v75" style="stroke: rgb(235, 240, 248); stroke-opacity: 1; stroke-width: 1px;"/><path class="xgrid crisp" transform="translate(262.2,0)" d="M0,50v75" style="stroke: rgb(235, 240, 248); stroke-opacity: 1; stroke-width: 1px;"/></g><g class="y"><path class="ygrid crisp" transform="translate(0,105.03999999999999)" d="M10,0h280" style="stroke: rgb(235, 240, 248); stroke-opacity: 1; stroke-width: 1px;"/><path class="ygrid crisp" transform="translate(0,85.08)" d="M10,0h280" style="stroke: rgb(235, 240, 248); stroke-opacity: 1; stroke-width: 1px;"/><path class="ygrid crisp" transform="translate(0,65.13)" d="M10,0h280" style="stroke: rgb(235, 240, 248); stroke-opacity: 1; stroke-width: 1px;"/></g></g><g class="zerolinelayer"><path class="yzl zl crisp" transform="translate(0,125)" d="M10,0h280" style="stroke: rgb(235, 240, 248); stroke-opacity: 1; stroke-width: 2px;"/></g><path class="xlines-below"/><path class="ylines-below"/><g class="overlines-below"/><g class="xaxislayer-below"/><g class="yaxislayer-below"/><g class="overaxes-below"/><g class="plot" transform="translate(10,50)" clip-path="url(#clipbe82e7xyplot)"><g class="scatterlayer mlayer"><g class="trace scatter traced1cbfe" style="stroke-miterlimit: 2; opacity: 1;"><g class="fills"/><g class="errorbars"/><g class="lines"><path class="js-line" d="M0,31.49L3.97,32.89L4.96,32.89L7.94,32.69L8.94,32.09L57.59,32.99L58.58,35.78L68.51,34.88L69.5,32.59L71.49,29.2L72.48,30.09L73.48,30.99L74.47,28L83.4,28L84.4,29.5L85.39,29.5L86.38,28L87.38,29.5L88.37,27.7L90.35,27.3L91.35,29.2L93.33,27.3L94.33,27.3L95.32,27.3L96.31,29.2L97.3,29.2L98.3,27.3L100.28,29.2L101.28,27.4L103.26,29.7L104.26,29.7L110.21,30.79L111.21,32.49L114.18,33.19L115.18,33.19L128.09,33.89L129.08,34.49L152.91,35.38L153.9,36.98L160.85,39.08L161.84,37.18L164.82,38.18L165.82,39.47L174.75,39.47L175.74,38.08L178.72,37.28L179.72,36.88L181.7,33.89L182.7,34.09L187.66,34.39L188.65,34.39L193.62,33.89L194.61,36.48L197.59,39.57L198.58,39.28L200.57,37.28L201.56,39.18L204.54,38.28L205.53,37.48L207.52,36.48L208.51,33.09L209.5,31.89L210.5,33.09L212.48,32.99L213.48,34.59L215.46,34.49L216.45,34.39L218.44,34.78L219.43,35.58L222.41,38.38L223.4,38.38L226.38,36.58L227.38,37.38L229.36,36.78L230.35,34.78L232.34,29.2L233.33,29.4L236.31,28.4L237.3,28.1L239.29,29.4L240.28,28.3L242.27,27.6L243.26,29L246.24,35.08L247.23,35.18L249.22,37.28L250.21,37.38L252.2,37.18L253.19,35.58L258.16,36.28L259.15,36.88L262.13,37.28L263.12,38.28L265.11,39.28L266.1,41.97L270.07,44.07L271.06,44.66L273.05,46.46L274.04,43.77L276.03,24.01L277.02,24.31L279.01,23.91L280,24.01" style="vector-effect: none; fill: none; stroke: rgb(0, 174, 239); stroke-opacity: 1; stroke-width: 5px; opacity: 1;"/></g><g class="points"/><g class="text"/></g><g class="trace scatter trace827b9d" style="stroke-miterlimit: 2; opacity: 1;"><g class="fills"/><g class="errorbars"/><g class="lines"><path class="js-line" d="M0,54.14L2.98,51.55L3.97,51.55L13.9,51.05L14.89,50.75L36.74,49.65L37.73,48.95L42.7,48.95L43.69,44.76L55.6,44.76L57.59,47.66L60.57,47.06L61.56,47.06L68.51,46.86L69.5,49.05L71.49,50.15L72.48,49.75L74.47,50.25L75.46,50.25L100.28,49.65L101.28,47.66L103.26,48.46L104.26,48.46L105.25,48.26L106.24,44.96L108.23,42.97L109.22,42.97L110.21,42.47L111.21,39.18L113.19,37.28L114.18,37.28L117.16,36.68L118.16,35.78L121.13,33.59L122.13,33.59L130.07,33.89L131.06,34.88L139.01,34.88L140,33.49L140.99,33.49L141.99,31.09L145.96,31.09L146.95,28.4L152.91,28.4L153.9,26.8L159.86,24.21L160.85,24.21L162.84,20.81L163.83,20.81L166.81,15.03L167.8,15.03L174.75,15.03L175.74,16.52L178.72,17.22L179.72,17.62L181.7,19.82L182.7,19.42L185.67,18.72L186.67,18.72L193.62,18.82L194.61,15.53L196.6,12.23L197.59,12.13L200.57,12.93L201.56,11.03L204.54,11.93L205.53,12.73L207.52,13.73L208.51,17.12L209.5,18.32L210.5,17.12L212.48,17.22L213.48,15.63L215.46,15.72L216.45,15.82L218.44,15.43L219.43,14.63L222.41,11.83L223.4,11.83L226.38,13.63L227.38,12.83L229.36,13.43L230.35,15.43L232.34,21.01L233.33,20.81L236.31,21.81L237.3,22.11L239.29,20.81L240.28,21.91L242.27,22.61L243.26,21.21L246.24,15.13L247.23,15.03L249.22,12.93L250.21,12.83L252.2,13.03L253.19,14.63L258.16,13.93L259.15,13.33L262.13,12.93L263.12,11.93L265.11,10.93L266.1,8.24L270.07,6.14L271.06,5.55L273.05,3.75L274.04,6.44L276.03,26.2L277.02,25.9L279.01,26.3L280,26.2" style="vector-effect: none; fill: none; stroke: rgb(138, 44, 81); stroke-opacity: 1; stroke-width: 5px; opacity: 1;"/></g><g class="points"/><g class="text"/></g><g class="trace scatter trace839856" style="stroke-miterlimit: 2; opacity: 1;"><g class="fills"/><g class="errorbars"/><g class="lines"><path class="js-line" d="M0,64.92L7.94,65.32L8.94,64.72L42.7,64.92L43.69,66.12L57.59,65.32L58.58,58.83L73.48,59.33L74.47,60.13L100.28,60.03L101.28,62.93L103.26,60.93L104.26,60.93L105.25,61.03L106.24,62.53L108.23,63.72L109.22,63.72L111.21,64.42L112.2,64.62L128.09,64.62L129.08,63.72L130.07,63.72L131.06,62.33L139.01,62.33L140,63.62L144.96,65.42L145.96,65.42L147.94,66.22L148.94,66.22L160.85,66.52L161.84,69.61L179.72,70.61L180.71,71.51L193.62,72.51L194.61,73.2L199.57,73.7" style="vector-effect: none; fill: none; stroke: rgb(255, 1, 170); stroke-opacity: 1; stroke-width: 5px; opacity: 1;"/></g><g class="points"/><g class="text"/></g><g class="trace scatter trace9fc6a7" style="stroke-miterlimit: 2; opacity: 1;"><g class="fills"/><g class="errorbars"/><g class="lines"><path class="js-line" d="M0,67.12L5.96,67.32L6.95,65.92L9.93,69.01L10.92,69.01L72.48,69.91L73.48,70.31L76.45,69.61L77.45,69.61L109.22,70.81L110.21,70.91L133.05,72.51L134.04,72.51L160.85,73.5L161.84,73.8L164.82,74" style="vector-effect: none; fill: none; stroke: rgb(202, 166, 105); stroke-opacity: 1; stroke-width: 5px; opacity: 1;"/></g><g class="points"/><g class="text"/></g><g class="trace scatter trace37299d" style="stroke-miterlimit: 2; opacity: 1;"><g class="fills"/><g class="errorbars"/><g class="lines"><path class="js-line" d="M0,64.52L5.96,64.92L6.95,64.52L26.81,65.72L27.8,65.72L42.7,65.52L43.69,67.02L57.59,66.42L58.58,67.72L69.5,68.01L70.5,69.11L73.48,67.91L74.47,69.61L101.28,68.81L102.27,68.11L106.24,69.21L107.23,69.71L117.16,70.81L118.16,71.21L126.1,71.91L127.09,71.91L160.85,71.91L161.84,73.8L164.82,74" style="vector-effect: none; fill: none; stroke: rgb(238, 58, 67); stroke-opacity: 1; stroke-width: 5px; opacity: 1;"/></g><g class="points"/><g class="text"/></g></g></g><g class="overplot"/><path class="xlines-above crisp" d="M0,0" style="fill: none;"/><path class="ylines-above crisp" d="M0,0" style="fill: none;"/><g class="overlines-above"/><g class="xaxislayer-above"/><g class="yaxislayer-above"/><g class="overaxes-above"/></g></g><g class="polarlayer"/><g class="smithlayer"/><g class="ternarylayer"/><g class="geolayer"/><g class="funnelarealayer"/><g class="pielayer"/><g class="iciclelayer"/><g class="treemaplayer"/><g class="sunburstlayer"/><g class="glimages"/><defs id="topdefs-be82e7"><g class="clips"/></defs><g class="layer-above"><g class="imagelayer"/><g class="shapelayer"/></g><g class="infolayer"><g class="g-gtitle"><text class="gtitle" x="15" y="25" text-anchor="start" dy="0em" style="font-family: Ubuntu, verdana, arial, sans-serif; font-size: 16px; fill: rgb(233, 84, 32); opacity: 1; font-weight: normal; white-space: pre;">Prezident/ka 2024</text></g><g class="g-xtitle"/><g class="g-ytitle"/></g></svg>