<svg class="main-svg" xmlns="http://www.w3.org/2000/svg" xmlns:xlink="http://www.w3.org/1999/xlink" width="300" height="135" style="" viewBox="0 0 300 135"><rect x="0" y="0" width="300" height="135" style="fill: rgb(255, 255, 255); fill-opacity: 1;"/><defs id="defs-8b33e3"><g class="clips"><clipPath id="clip8b33e3xyplot" class="plotclip"><rect width="280" height="75"/></clipPath><clipPath class="axesclip" id="clip8b33e3x"><rect x="10" y="0" width="280" height="135"/></clipPath><clipPath class="axesclip" id="clip8b33e3y"><rect x="0" y="50" width="300" height="75"/></clipPath><clipPath class="axesclip" id="clip8b33e3xy"><rect x="10" y="50" width="280" height="75"/></clipPath></g><g class="gradients"/><g class="patterns"/></defs><g class="bglayer"/><g class="layer-below"><g class="imagelayer"/><g class="shapelayer"/></g><g class="cartesianlayer"><g class="subplot xy"><g class="layer-subplot"><g class="shapelayer"/><g class="imagelayer"/></g><g class="minor-gridlayer"><g class="x"/><g class="y"/></g><g class="gridlayer"><g class="x"><path class="xgrid crisp" transform="translate(22.439999999999998,0)" d="M0,50v75" style="stroke: rgb(235, 240, 248); stroke-opacity: 1; stroke-width: 1px;"/><path class="xgrid crisp" transform="translate(99.6,0)" d="M0,50v75" style="stroke: rgb(235, 240, 248); stroke-opacity: 1; stroke-width: 1px;"/><path class="xgrid crisp" transform="translate(175.51,0)" d="M0,50v75" style="stroke: rgb(235, 240, 248); stroke-opacity: 1; stroke-width: 1px;"/><path class="xgrid crisp" transform="translate(251.42,0)" d="M0,50v75" style="stroke: rgb(235, 240, 248); stroke-opacity: 1; stroke-width: 1px;"/></g><g class="y"><path class="ygrid crisp" transform="translate(0,102.77000000000001)" d="M10,0h280" style="stroke: rgb(235, 240, 248); stroke-opacity: 1; stroke-width: 1px;"/><path class="ygrid crisp" transform="translate(0,80.53999999999999)" d="M10,0h280" style="stroke: rgb(235, 240, 248); stroke-opacity: 1; stroke-width: 1px;"/><path class="ygrid crisp" transform="translate(0,58.31)" d="M10,0h280" style="stroke: rgb(235, 240, 248); stroke-opacity: 1; stroke-width: 1px;"/></g></g><g class="zerolinelayer"><path class="yzl zl crisp" transform="translate(0,125)" d="M10,0h280" style="stroke: rgb(235, 240, 248); stroke-opacity: 1; stroke-width: 2px;"/></g><path class="xlines-below"/><path class="ylines-below"/><g class="overlines-below"/><g class="xaxislayer-below"/><g class="yaxislayer-below"/><g class="overaxes-below"/><g class="plot" transform="translate(10,50)" clip-path="url(#clip8b33e3xyplot)"><g class="scatterlayer mlayer"><g class="trace scatter trace5ec37b" style="stroke-miterlimit: 2; opacity: 1;"><g class="fills"/><g class="errorbars"/><g class="lines"><path class="js-line" d="M0,51.77L3.73,48.88L4.98,48.88L9.96,49.1L11.2,48.32L28.62,47.43L29.87,46.77L53.51,45.99L54.76,41.32L69.69,41.32L72.18,44.54L75.91,43.88L77.16,43.88L85.87,43.65L87.11,46.1L89.6,47.32L90.84,46.88L92.09,46.43L93.33,47.43L125.69,46.77L126.93,44.54L129.42,45.43L130.67,45.43L131.91,45.21L133.16,41.54L135.64,39.32L136.89,39.32L138.13,38.76L139.38,35.1L141.87,32.98L143.11,32.98L146.84,32.32L148.09,31.32L151.82,28.87L153.07,28.87L163.02,29.2L164.27,30.32L174.22,30.32L175.47,28.76L176.71,28.76L177.96,26.09L182.93,26.09L184.18,23.09L191.64,23.09L192.89,21.31L200.36,18.42L201.6,18.42L204.09,14.64L205.33,14.64L206.58,12.75L207.82,8.2L219.02,8.2L220.27,9.86L222.76,10.64L224,10.64L226.49,12.86L227.73,13.53L233.96,12.31L235.2,12.31L242.67,12.42L243.91,8.75L246.4,5.08L247.64,4.97L251.38,5.86L252.62,3.75L256.36,4.75L257.6,5.64L260.09,6.75L261.33,10.53L262.58,11.86L263.82,10.53L266.31,10.64L267.56,8.86L270.04,8.97L271.29,9.09L273.78,8.64L275.02,7.75L278.76,4.64L280,4.64" style="vector-effect: none; fill: none; stroke: rgb(138, 44, 81); stroke-opacity: 1; stroke-width: 5px; opacity: 1;"/></g><g class="points"/><g class="text"/></g><g class="trace scatter trace7cd668" style="stroke-miterlimit: 2; opacity: 1;"><g class="fills"/><g class="errorbars"/><g class="lines"><path class="js-line" d="M0,26.54L4.98,28.09L6.22,28.09L9.96,27.87L11.2,27.2L72.18,28.2L73.42,31.32L85.87,30.32L87.11,27.76L89.6,23.98L90.84,24.98L92.09,25.98L93.33,22.65L104.53,22.65L105.78,24.31L107.02,24.31L108.27,22.65L109.51,24.31L110.76,22.31L113.24,21.87L114.49,23.98L116.98,21.87L118.22,21.87L119.47,21.87L120.71,23.98L121.96,23.98L123.2,21.87L125.69,23.98L126.93,21.98L129.42,24.54L130.67,24.54L138.13,25.76L139.38,27.65L143.11,28.43L144.36,28.43L160.53,29.2L161.78,29.87L191.64,30.87L192.89,32.65L201.6,34.98L202.84,32.87L206.58,33.98L207.82,35.43L219.02,35.43L220.27,33.87L222.76,32.98L224,32.98L225.24,32.54L226.49,29.98L228.98,29.43L230.22,29.76L242.67,29.2L243.91,32.09L246.4,35.43L247.64,35.54L250.13,33.76L251.38,32.98L253.87,35.1L255.11,34.54L260.09,32.09L261.33,28.32L262.58,26.98L263.82,28.32L266.31,28.2L267.56,29.98L270.04,29.87L271.29,29.76L273.78,30.2L275.02,31.09L278.76,34.21L280,34.21" style="vector-effect: none; fill: none; stroke: rgb(0, 174, 239); stroke-opacity: 1; stroke-width: 5px; opacity: 1;"/></g><g class="points"/><g class="text"/></g><g class="trace scatter trace18def1" style="stroke-miterlimit: 2; opacity: 1;"><g class="fills"/><g class="errorbars"/><g class="lines"><path class="js-line" d="M0,67.22L13.69,67.33L14.93,67.33L53.51,68.55L54.76,69.44L69.69,69.44L72.18,68.11L73.42,71L75.91,71L92.09,71.89L93.33,72.33L146.84,73.11L148.09,73.55L182.93,73.55" style="vector-effect: none; fill: none; stroke: rgb(255, 192, 203); stroke-opacity: 1; stroke-width: 5px; opacity: 1;"/></g><g class="points"/><g class="text"/></g><g class="trace scatter traceecd607" style="stroke-miterlimit: 2; opacity: 1;"><g class="fills"/><g class="errorbars"/><g class="lines"><path class="js-line" d="M0,66.22L7.47,66.44L8.71,64.88L11.2,68.33L12.44,68.33L89.6,68.89L90.84,69.33L93.33,69L94.58,69L133.16,70.11L134.4,70.33L148.09,71.55L149.33,71.78L154.31,72.11L155.56,72.11L201.6,73.33L202.84,73.67L206.58,73.89" style="vector-effect: none; fill: none; stroke: rgb(202, 166, 105); stroke-opacity: 1; stroke-width: 5px; opacity: 1;"/></g><g class="points"/><g class="text"/></g><g class="trace scatter tracee238c7" style="stroke-miterlimit: 2; opacity: 1;"><g class="fills"/><g class="errorbars"/><g class="lines"><path class="js-line" d="M0,63.33L7.47,63.77L8.71,63.33L32.36,64.66L33.6,64.66L53.51,64.44L54.76,66.11L72.18,65.44L73.42,66.89L87.11,67.22L88.36,68.44L90.84,67.77L92.09,67.11L94.58,69L95.82,69L126.93,68.11L128.18,67.33L133.16,68.55L134.4,69.11L146.84,70.33L148.09,70.78L156.8,71.55L158.04,71.55L201.6,71.55L202.84,73.67L206.58,73.89" style="vector-effect: none; fill: none; stroke: rgb(238, 58, 67); stroke-opacity: 1; stroke-width: 5px; opacity: 1;"/></g><g class="points"/><g class="text"/></g></g></g><g class="overplot"/><path class="xlines-above crisp" d="M0,0" style="fill: none;"/><path class="ylines-above crisp" d="M0,0" style="fill: none;"/><g class="overlines-above"/><g class="xaxislayer-above"/><g class="yaxislayer-above"/><g class="overaxes-above"/></g></g><g class="polarlayer"/><g class="smithlayer"/><g class="ternarylayer"/><g class="geolayer"/><g class="funnelarealayer"/><g class="pielayer"/><g class="iciclelayer"/><g class="treemaplayer"/><g class="sunburstlayer"/><g class="glimages"/><defs id="topdefs-8b33e3"><g class="clips"/></defs><g class="layer-above"><g class="imagelayer"/><g class="shapelayer"/></g><g class="infolayer"><g class="g-gtitle"><text class="gtitle" x="15" y="25" text-anchor="start" dy="0em" style="font-family: Ubuntu, verdana, arial, sans-serif; font-size: 16px; fill: rgb(233, 84, 32); opacity: 1; font-weight: normal; white-space: pre;">Prezident/ka 2024</text></g><g class="g-xtitle"/><g class="g-ytitle"/></g></svg>