<svg class="main-svg" xmlns="http://www.w3.org/2000/svg" xmlns:xlink="http://www.w3.org/1999/xlink" width="1200" height="600" style="" viewBox="0 0 1200 600"><rect x="0" y="0" width="1200" height="600" style="fill: rgb(255, 255, 255); fill-opacity: 1;"/><defs id="defs-1c141d"><g class="clips"><clipPath id="clip1c141dxyplot" class="plotclip"><rect width="990" height="530"/></clipPath><clipPath class="axesclip" id="clip1c141dx"><rect x="50" y="0" width="990" height="600"/></clipPath><clipPath class="axesclip" id="clip1c141dy"><rect x="0" y="20" width="1200" height="530"/></clipPath><clipPath class="axesclip" id="clip1c141dxy"><rect x="50" y="20" width="990" height="530"/></clipPath></g><g class="gradients"/><g class="patterns"/></defs><g class="bglayer"/><g class="layer-below"><g class="imagelayer"/><g class="shapelayer"/></g><g class="cartesianlayer"><g class="subplot xy"><g class="layer-subplot"><g class="shapelayer"/><g class="imagelayer"/></g><g class="minor-gridlayer"><g class="x"/><g class="y"/></g><g class="gridlayer"><g class="x"><path class="xgrid crisp" transform="translate(83,0)" d="M0,20v530" style="stroke: rgb(235, 240, 248); stroke-opacity: 1; stroke-width: 1px;"/><path class="xgrid crisp" transform="translate(185.3,0)" d="M0,20v530" style="stroke: rgb(235, 240, 248); stroke-opacity: 1; stroke-width: 1px;"/><path class="xgrid crisp" transform="translate(287.6,0)" d="M0,20v530" style="stroke: rgb(235, 240, 248); stroke-opacity: 1; stroke-width: 1px;"/><path class="xgrid crisp" transform="translate(386.6,0)" d="M0,20v530" style="stroke: rgb(235, 240, 248); stroke-opacity: 1; stroke-width: 1px;"/><path class="xgrid crisp" transform="translate(488.9,0)" d="M0,20v530" style="stroke: rgb(235, 240, 248); stroke-opacity: 1; stroke-width: 1px;"/><path class="xgrid crisp" transform="translate(587.9,0)" d="M0,20v530" style="stroke: rgb(235, 240, 248); stroke-opacity: 1; stroke-width: 1px;"/><path class="xgrid crisp" transform="translate(690.2,0)" d="M0,20v530" style="stroke: rgb(235, 240, 248); stroke-opacity: 1; stroke-width: 1px;"/><path class="xgrid crisp" transform="translate(792.5,0)" d="M0,20v530" style="stroke: rgb(235, 240, 248); stroke-opacity: 1; stroke-width: 1px;"/><path class="xgrid crisp" transform="translate(888.2,0)" d="M0,20v530" style="stroke: rgb(235, 240, 248); stroke-opacity: 1; stroke-width: 1px;"/><path class="xgrid crisp" transform="translate(990.5,0)" d="M0,20v530" style="stroke: rgb(235, 240, 248); stroke-opacity: 1; stroke-width: 1px;"/></g><g class="y"><path class="ygrid crisp" transform="translate(0,470.21)" d="M50,0h990" style="stroke: rgb(235, 240, 248); stroke-opacity: 1; stroke-width: 1px;"/><path class="ygrid crisp" transform="translate(0,390.41)" d="M50,0h990" style="stroke: rgb(235, 240, 248); stroke-opacity: 1; stroke-width: 1px;"/><path class="ygrid crisp" transform="translate(0,310.62)" d="M50,0h990" style="stroke: rgb(235, 240, 248); stroke-opacity: 1; stroke-width: 1px;"/><path class="ygrid crisp" transform="translate(0,230.82)" d="M50,0h990" style="stroke: rgb(235, 240, 248); stroke-opacity: 1; stroke-width: 1px;"/><path class="ygrid crisp" transform="translate(0,151.03)" d="M50,0h990" style="stroke: rgb(235, 240, 248); stroke-opacity: 1; stroke-width: 1px;"/><path class="ygrid crisp" transform="translate(0,71.24000000000001)" d="M50,0h990" style="stroke: rgb(235, 240, 248); stroke-opacity: 1; stroke-width: 1px;"/></g></g><g class="zerolinelayer"><path class="yzl zl crisp" transform="translate(0,550)" d="M50,0h990" style="stroke: rgb(235, 240, 248); stroke-opacity: 1; stroke-width: 2px;"/></g><path class="xlines-below"/><path class="ylines-below"/><g class="overlines-below"/><g class="xaxislayer-below"/><g class="yaxislayer-below"/><g class="overaxes-below"/><g class="plot" transform="translate(50,20)" clip-path="url(#clip1c141dxyplot)"><g class="scatterlayer mlayer"><g class="trace scatter trace3e3d7c" style="stroke-miterlimit: 2; opacity: 1;"><g class="fills"/><g class="errorbars"/><g class="lines"><path class="js-line" d="M0,363.23L6.6,342.48L9.9,342.48L19.8,342.48L23.1,348.07L29.7,338.49L33,338.49L46.2,338.49L49.5,336.1L59.4,336.1L62.7,333.71L66,332.11L69.3,332.11L75.9,332.11L79.2,327.32L122.1,327.32L125.4,321.74L141.9,321.74L145.2,288.22L184.8,288.22L191.4,311.36L194.7,306.58L201.3,306.58L224.4,305.78L227.7,304.98L231,322.54L234.3,331.31L237.6,331.31L240.9,328.12L244.2,324.93L247.5,332.11L277.2,332.11L280.5,328.92L283.8,328.92L287.1,332.11L290.4,328.92L293.7,331.31L297,328.92L300.3,328.92L303.6,327.32L306.9,328.92L316.8,328.92L320.1,327.32L323.4,327.32L326.7,328.92L330,327.32L333.3,327.32L336.6,311.36L339.9,317.75L346.5,317.75L349.8,316.15L353.1,289.82L356.4,273.86L363,273.86L366.3,269.87L369.6,243.54L372.9,230.77L376.2,228.38L379.5,228.38L386.1,228.38L389.4,223.59L396,210.03L399.3,198.85L425.7,199.65L429,201.25L432.3,201.25L435.6,209.23L462,209.23L465.3,198.06L468.6,198.06L471.9,178.91L485.1,178.91L488.4,157.36L508.2,157.36L511.5,144.6L514.8,139.81L518.1,139.81L521.4,139.81L524.7,135.02L528,127.84L531.3,123.85L534.6,123.85L537.9,96.72L544.5,96.72L547.8,83.15L551.1,50.44L554.4,50.44L580.8,50.44L584.1,62.41L587.4,67.99L590.7,67.99L594,67.99L597.3,71.18L600.6,83.95L603.9,88.74L607.2,85.55L610.5,79.96L633.6,79.96L636.9,78.37L640.2,82.36L643.5,80.76L650.1,36.87L653.4,28.1L656.7,26.5" style="vector-effect: none; fill: none; stroke: rgb(138, 44, 81); stroke-opacity: 1; stroke-width: 5px; opacity: 1;"/></g><g class="points"/><g class="text"/></g><g class="trace scatter trace0125e0" style="stroke-miterlimit: 2; opacity: 1;"><g class="fills"/><g class="errorbars"/><g class="lines"><path class="js-line" d="M0,182.1L6.6,193.27L9.9,193.27L19.8,193.27L23.1,198.85L29.7,186.89L33,186.89L59.4,186.89L62.7,188.48L66,190.08L69.3,190.08L75.9,190.08L79.2,194.07L191.4,194.07L194.7,216.41L221.1,216.41L224.4,212.42L227.7,209.23L231,190.88L234.3,163.75L237.6,163.75L244.2,178.11L247.5,154.17L277.2,154.17L280.5,166.14L283.8,166.14L287.1,154.17L290.4,166.14L293.7,151.78L297,148.58L300.3,148.58L303.6,163.75L306.9,148.58L316.8,148.58L320.1,163.75L323.4,163.75L326.7,148.58L330,163.75L333.3,163.75L336.6,149.38L339.9,167.74L349.8,167.74L353.1,172.52L363,172.52L366.3,176.51L369.6,190.08L372.9,194.87L379.5,195.66L382.8,195.66L392.7,195.66L396,198.06L402.6,198.85L405.9,198.85L422.4,198.85L425.7,201.25L429,206.04L432.3,206.04L435.6,209.23L442.2,209.23L465.3,210.03L468.6,206.83L471.9,214.81L475.2,214.81L485.1,214.81L488.4,213.22L508.2,213.22L511.5,225.98L514.8,229.18L518.1,229.18L521.4,229.18L524.7,233.96L531.3,242.74L534.6,242.74L537.9,227.58L541.2,227.58L544.5,227.58L547.8,235.56L551.1,245.93L554.4,245.93L580.8,245.93L584.1,234.76L587.4,228.38L590.7,228.38L594,228.38L597.3,225.19L600.6,206.83L603.9,201.25L610.5,205.24L613.8,205.24L630.3,205.24L633.6,203.64L636.9,205.24L640.2,201.25L643.5,201.25L646.8,222L650.1,237.16L653.4,245.93L656.7,247.53" style="vector-effect: none; fill: none; stroke: rgb(0, 174, 239); stroke-opacity: 1; stroke-width: 5px; opacity: 1;"/></g><g class="points"/><g class="text"/></g><g class="trace scatter trace5ce684" style="stroke-miterlimit: 2; opacity: 1;"><g class="fills"/><g class="errorbars"/><g class="lines"><path class="js-line" d="M0,449.41L6.6,451.8L9.9,451.8L19.8,451.8L23.1,457.39L29.7,447.81L33,447.81L46.2,447.81L49.5,449.41L62.7,448.61L66,447.81L122.1,447.81L125.4,449.41L141.9,449.41L145.2,458.98L184.8,458.98L191.4,452.6L194.7,400.73L201.3,400.73L221.1,400.73L224.4,403.13L227.7,405.52L231,405.52L234.3,410.31L237.6,410.31L244.2,404.72L247.5,411.11L277.2,411.11L280.5,407.92L283.8,407.92L287.1,411.11L290.4,407.92L293.7,412.7L297,415.89L300.3,415.89L303.6,410.31L306.9,415.89L316.8,415.89L320.1,410.31L323.4,410.31L326.7,415.89L330,410.31L333.3,410.31L336.6,433.45L339.9,417.49L349.8,418.29L353.1,430.26L356.4,439.83L359.7,439.83L363,439.83L366.3,437.44L369.6,445.42L372.9,447.01L389.4,446.22L392.7,445.42L396,447.01L399.3,450.21L422.4,450.21L425.7,447.01L429,439.83L432.3,439.83L435.6,428.66L442.2,428.66L462,428.66L465.3,439.03L468.6,442.23L471.9,453.4L485.1,453.4L488.4,459.78L524.7,460.58L528,461.38L534.6,462.18L537.9,486.91L544.5,486.91L547.8,490.1L551.1,494.89L554.4,494.89L597.3,494.89L600.6,502.07L603.9,502.07L607.2,503.67L610.5,506.86L613.8,506.86L630.3,506.86L633.6,508.46L640.2,508.46L643.5,510.05L646.8,515.64L650.1,518.03L656.7,518.03" style="vector-effect: none; fill: none; stroke: rgb(255, 1, 170); stroke-opacity: 1; stroke-width: 5px; opacity: 1;"/></g><g class="points"/><g class="text"/></g><g class="trace scatter trace3ba370" style="stroke-miterlimit: 2; opacity: 1;"><g class="fills"/><g class="errorbars"/><g class="lines"><path class="js-line" d="M0,466.96L9.9,468.56L13.2,468.56L19.8,468.56L23.1,457.39L29.7,482.12L33,482.12L62.7,481.33L66,480.53L141.9,479.73L145.2,483.72L184.8,483.72L191.4,482.12L194.7,485.32L201.3,485.32L224.4,486.11L227.7,486.91L237.6,486.11L240.9,489.31L244.2,492.5L247.5,486.91L277.2,486.91L280.5,489.31L283.8,489.31L287.1,486.91L290.4,489.31L293.7,488.51L297,491.7L300.3,491.7L303.6,492.5L306.9,491.7L333.3,492.5L336.6,494.89L353.1,494.89L356.4,496.49L366.3,497.28L369.6,498.08L372.9,500.48L376.2,501.27L386.1,501.27L389.4,502.87L399.3,509.25L402.6,509.25L485.1,509.25L488.4,517.23L534.6,518.03L537.9,520.42L544.5,520.42L547.8,522.02" style="vector-effect: none; fill: none; stroke: rgb(202, 166, 105); stroke-opacity: 1; stroke-width: 5px; opacity: 1;"/></g><g class="points"/><g class="text"/></g><g class="trace scatter traceecf3cd" style="stroke-miterlimit: 2; opacity: 1;"><g class="fills"/><g class="errorbars"/><g class="lines"><path class="js-line" d="M0,446.22L6.6,449.41L9.9,449.41L19.8,449.41L23.1,446.22L26.4,447.01L29.7,451L59.4,451.8L62.7,454.2L66,455.79L69.3,455.79L122.1,455.79L125.4,454.2L141.9,454.2L145.2,466.16L184.8,466.16L191.4,461.38L194.7,471.75L201.3,471.75L224.4,472.55L227.7,474.14L231,474.14L234.3,482.92L237.6,482.92L240.9,478.13L244.2,473.35L247.5,486.91L277.2,486.91L280.5,480.53L283.8,480.53L287.1,486.91L290.4,480.53L293.7,486.11L300.3,486.11L303.6,479.73L306.9,486.11L310.2,486.11L316.8,486.11L320.1,479.73L323.4,479.73L326.7,486.11L330,479.73L333.3,479.73L336.6,480.53L339.9,474.94L349.8,475.74L353.1,483.72L356.4,487.71L359.7,487.71L363,487.71L366.3,489.31L372.9,494.09L376.2,494.89L386.1,494.89L389.4,496.49L399.3,505.26L402.6,505.26L485.1,505.26L488.4,504.47L534.6,505.26L537.9,520.42L544.5,520.42L547.8,522.02" style="vector-effect: none; fill: none; stroke: rgb(238, 58, 67); stroke-opacity: 1; stroke-width: 5px; opacity: 1;"/></g><g class="points"/><g class="text"/></g><g class="trace scatter trace160269" style="stroke-miterlimit: 2; opacity: 1;"><g class="fills"/><g class="errorbars"/><g class="lines"><path class="js-line" d="M0,474.14L9.9,476.54L13.2,476.54L23.1,475.74L26.4,474.14L33,474.94L36.3,474.94L46.2,474.94L49.5,476.54L75.9,475.74L79.2,477.34L122.1,477.34L125.4,483.72L141.9,483.72L145.2,490.1L184.8,490.1L191.4,480.53L194.7,501.27L201.3,501.27L231,502.07L234.3,507.66L244.2,507.66L247.5,510.85L277.2,510.85L280.5,509.25L283.8,509.25L287.1,510.85L290.4,509.25L293.7,510.85L300.3,510.85L303.6,509.25L306.9,510.85L310.2,510.85L316.8,510.85L320.1,509.25L323.4,509.25L326.7,510.85L330,509.25L333.3,509.25L336.6,511.65L339.9,510.05L363,510.85L366.3,511.65L372.9,514.04L376.2,514.84L386.1,514.84L389.4,516.44L392.7,519.63L396,519.63L402.6,520.42L405.9,520.42L485.1,519.63" style="vector-effect: none; fill: none; stroke: rgb(255, 192, 203); stroke-opacity: 1; stroke-width: 5px; opacity: 1;"/></g><g class="points"/><g class="text"/></g></g></g><g class="overplot"/><path class="xlines-above crisp" d="M0,0" style="fill: none;"/><path class="ylines-above crisp" d="M0,0" style="fill: none;"/><g class="overlines-above"/><g class="xaxislayer-above"><g class="xtick"><text text-anchor="middle" x="0" y="563" transform="translate(83,0)" style="font-family: 'Open Sans', verdana, arial, sans-serif; font-size: 12px; fill: rgb(42, 63, 95); fill-opacity: 1; white-space: pre; opacity: 1;">1.7.23</text></g><g class="xtick"><text text-anchor="middle" x="0" y="563" style="font-family: 'Open Sans', verdana, arial, sans-serif; font-size: 12px; fill: rgb(42, 63, 95); fill-opacity: 1; white-space: pre; opacity: 1;" transform="translate(185.3,0)">1.8.23</text></g><g class="xtick"><text text-anchor="middle" x="0" y="563" style="font-family: 'Open Sans', verdana, arial, sans-serif; font-size: 12px; fill: rgb(42, 63, 95); fill-opacity: 1; white-space: pre; opacity: 1;" transform="translate(287.6,0)">1.9.23</text></g><g class="xtick"><text text-anchor="middle" x="0" y="563" style="font-family: 'Open Sans', verdana, arial, sans-serif; font-size: 12px; fill: rgb(42, 63, 95); fill-opacity: 1; white-space: pre; opacity: 1;" transform="translate(386.6,0)">1.10.23</text></g><g class="xtick"><text text-anchor="middle" x="0" y="563" style="font-family: 'Open Sans', verdana, arial, sans-serif; font-size: 12px; fill: rgb(42, 63, 95); fill-opacity: 1; white-space: pre; opacity: 1;" transform="translate(488.9,0)">1.11.23</text></g><g class="xtick"><text text-anchor="middle" x="0" y="563" style="font-family: 'Open Sans', verdana, arial, sans-serif; font-size: 12px; fill: rgb(42, 63, 95); fill-opacity: 1; white-space: pre; opacity: 1;" transform="translate(587.9,0)">1.12.23</text></g><g class="xtick"><text text-anchor="middle" x="0" y="563" style="font-family: 'Open Sans', verdana, arial, sans-serif; font-size: 12px; fill: rgb(42, 63, 95); fill-opacity: 1; white-space: pre; opacity: 1;" transform="translate(690.2,0)">1.1.24</text></g><g class="xtick"><text text-anchor="middle" x="0" y="563" style="font-family: 'Open Sans', verdana, arial, sans-serif; font-size: 12px; fill: rgb(42, 63, 95); fill-opacity: 1; white-space: pre; opacity: 1;" transform="translate(792.5,0)">1.2.24</text></g><g class="xtick"><text text-anchor="middle" x="0" y="563" style="font-family: 'Open Sans', verdana, arial, sans-serif; font-size: 12px; fill: rgb(42, 63, 95); fill-opacity: 1; white-space: pre; opacity: 1;" transform="translate(888.2,0)">1.3.24</text></g><g class="xtick"><text text-anchor="middle" x="0" y="563" style="font-family: 'Open Sans', verdana, arial, sans-serif; font-size: 12px; fill: rgb(42, 63, 95); fill-opacity: 1; white-space: pre; opacity: 1;" transform="translate(990.5,0)">1.4.24</text></g></g><g class="yaxislayer-above"><g class="ytick"><text text-anchor="end" x="49" y="4.199999999999999" transform="translate(0,550)" style="font-family: 'Open Sans', verdana, arial, sans-serif; font-size: 12px; fill: rgb(42, 63, 95); fill-opacity: 1; white-space: pre; opacity: 1;">0%</text></g><g class="ytick"><text text-anchor="end" x="49" y="4.199999999999999" style="font-family: 'Open Sans', verdana, arial, sans-serif; font-size: 12px; fill: rgb(42, 63, 95); fill-opacity: 1; white-space: pre; opacity: 1;" transform="translate(0,470.21)">10%</text></g><g class="ytick"><text text-anchor="end" x="49" y="4.199999999999999" style="font-family: 'Open Sans', verdana, arial, sans-serif; font-size: 12px; fill: rgb(42, 63, 95); fill-opacity: 1; white-space: pre; opacity: 1;" transform="translate(0,390.41)">20%</text></g><g class="ytick"><text text-anchor="end" x="49" y="4.199999999999999" style="font-family: 'Open Sans', verdana, arial, sans-serif; font-size: 12px; fill: rgb(42, 63, 95); fill-opacity: 1; white-space: pre; opacity: 1;" transform="translate(0,310.62)">30%</text></g><g class="ytick"><text text-anchor="end" x="49" y="4.199999999999999" style="font-family: 'Open Sans', verdana, arial, sans-serif; font-size: 12px; fill: rgb(42, 63, 95); fill-opacity: 1; white-space: pre; opacity: 1;" transform="translate(0,230.82)">40%</text></g><g class="ytick"><text text-anchor="end" x="49" y="4.199999999999999" style="font-family: 'Open Sans', verdana, arial, sans-serif; font-size: 12px; fill: rgb(42, 63, 95); fill-opacity: 1; white-space: pre; opacity: 1;" transform="translate(0,151.03)">50%</text></g><g class="ytick"><text text-anchor="end" x="49" y="4.199999999999999" style="font-family: 'Open Sans', verdana, arial, sans-serif; font-size: 12px; fill: rgb(42, 63, 95); fill-opacity: 1; white-space: pre; opacity: 1;" transform="translate(0,71.24000000000001)">60%</text></g></g><g class="overaxes-above"/></g></g><g class="polarlayer"/><g class="smithlayer"/><g class="ternarylayer"/><g class="geolayer"/><g class="funnelarealayer"/><g class="pielayer"/><g class="iciclelayer"/><g class="treemaplayer"/><g class="sunburstlayer"/><g class="glimages"/><defs id="topdefs-1c141d"><g class="clips"/><clipPath id="legend1c141d"><rect width="128" height="124" x="0" y="0"/></clipPath></defs><g class="layer-above"><g class="imagelayer"/><g class="shapelayer"/></g><g class="infolayer"><g class="legend" pointer-events="all" transform="translate(1059.8000000000002,20)"><rect class="bg" shape-rendering="crispEdges" style="stroke: rgb(68, 68, 68); stroke-opacity: 1; fill: rgb(255, 255, 255); fill-opacity: 1; stroke-width: 0px;" width="128" height="124" x="0" y="0"/><g class="scrollbox" transform="" clip-path="url(#legend1c141d)"><g class="groups"><g class="traces" transform="translate(0,14.5)" style="opacity: 1;"><text class="legendtext" text-anchor="start" x="40" y="4.680000000000001" style="font-family: 'Open Sans', verdana, arial, sans-serif; font-size: 12px; fill: rgb(42, 63, 95); fill-opacity: 1; white-space: pre;">Pellegrini Peter</text><g class="layers" style="opacity: 1;"><g class="legendfill"/><g class="legendlines"><path class="js-line" d="M5,0h30" style="fill: none; stroke: rgb(138, 44, 81); stroke-opacity: 1; stroke-width: 5px;"/></g><g class="legendsymbols"><g class="legendpoints"/></g></g><rect class="legendtoggle" x="0" y="-9.5" width="122.703125" height="19" style="fill: rgb(0, 0, 0); fill-opacity: 0;"/></g><g class="traces" transform="translate(0,33.5)" style="opacity: 1;"><text class="legendtext" text-anchor="start" x="40" y="4.680000000000001" style="font-family: 'Open Sans', verdana, arial, sans-serif; font-size: 12px; fill: rgb(42, 63, 95); fill-opacity: 1; white-space: pre;">Korčok Ivan</text><g class="layers" style="opacity: 1;"><g class="legendfill"/><g class="legendlines"><path class="js-line" d="M5,0h30" style="fill: none; stroke: rgb(0, 174, 239); stroke-opacity: 1; stroke-width: 5px;"/></g><g class="legendsymbols"><g class="legendpoints"/></g></g><rect class="legendtoggle" x="0" y="-9.5" width="122.703125" height="19" style="fill: rgb(0, 0, 0); fill-opacity: 0;"/></g><g class="traces" transform="translate(0,52.5)" style="opacity: 1;"><text class="legendtext" text-anchor="start" x="40" y="4.680000000000001" style="font-family: 'Open Sans', verdana, arial, sans-serif; font-size: 12px; fill: rgb(42, 63, 95); fill-opacity: 1; white-space: pre;">Kubiš Ján</text><g class="layers" style="opacity: 1;"><g class="legendfill"/><g class="legendlines"><path class="js-line" d="M5,0h30" style="fill: none; stroke: rgb(255, 1, 170); stroke-opacity: 1; stroke-width: 5px;"/></g><g class="legendsymbols"><g class="legendpoints"/></g></g><rect class="legendtoggle" x="0" y="-9.5" width="122.703125" height="19" style="fill: rgb(0, 0, 0); fill-opacity: 0;"/></g><g class="traces" transform="translate(0,71.5)" style="opacity: 1;"><text class="legendtext" text-anchor="start" x="40" y="4.680000000000001" style="font-family: 'Open Sans', verdana, arial, sans-serif; font-size: 12px; fill: rgb(42, 63, 95); fill-opacity: 1; white-space: pre;">Mistrík Robert</text><g class="layers" style="opacity: 1;"><g class="legendfill"/><g class="legendlines"><path class="js-line" d="M5,0h30" style="fill: none; stroke: rgb(202, 166, 105); stroke-opacity: 1; stroke-width: 5px;"/></g><g class="legendsymbols"><g class="legendpoints"/></g></g><rect class="legendtoggle" x="0" y="-9.5" width="122.703125" height="19" style="fill: rgb(0, 0, 0); fill-opacity: 0;"/></g><g class="traces" transform="translate(0,90.5)" style="opacity: 1;"><text class="legendtext" text-anchor="start" x="40" y="4.680000000000001" style="font-family: 'Open Sans', verdana, arial, sans-serif; font-size: 12px; fill: rgb(42, 63, 95); fill-opacity: 1; white-space: pre;">Fico Robert</text><g class="layers" style="opacity: 1;"><g class="legendfill"/><g class="legendlines"><path class="js-line" d="M5,0h30" style="fill: none; stroke: rgb(238, 58, 67); stroke-opacity: 1; stroke-width: 5px;"/></g><g class="legendsymbols"><g class="legendpoints"/></g></g><rect class="legendtoggle" x="0" y="-9.5" width="122.703125" height="19" style="fill: rgb(0, 0, 0); fill-opacity: 0;"/></g><g class="traces" transform="translate(0,109.5)" style="opacity: 1;"><text class="legendtext" text-anchor="start" x="40" y="4.680000000000001" style="font-family: 'Open Sans', verdana, arial, sans-serif; font-size: 12px; fill: rgb(42, 63, 95); fill-opacity: 1; white-space: pre;">Lajčák Miroslav</text><g class="layers" style="opacity: 1;"><g class="legendfill"/><g class="legendlines"><path class="js-line" d="M5,0h30" style="fill: none; stroke: rgb(255, 192, 203); stroke-opacity: 1; stroke-width: 5px;"/></g><g class="legendsymbols"><g class="legendpoints"/></g></g><rect class="legendtoggle" x="0" y="-9.5" width="122.703125" height="19" style="fill: rgb(0, 0, 0); fill-opacity: 0;"/></g></g></g><rect class="scrollbar" rx="20" ry="3" width="0" height="0" style="fill: rgb(128, 139, 164); fill-opacity: 1;" x="0" y="0"/></g><g class="g-gtitle"/><g class="g-xtitle"/><g class="g-ytitle"/></g></svg>