<svg class="main-svg" xmlns="http://www.w3.org/2000/svg" xmlns:xlink="http://www.w3.org/1999/xlink" width="300" height="135" style="" viewBox="0 0 300 135"><rect x="0" y="0" width="300" height="135" style="fill: rgb(255, 255, 255); fill-opacity: 1;"/><defs id="defs-058638"><g class="clips"><clipPath id="clip058638xyplot" class="plotclip"><rect width="280" height="75"/></clipPath><clipPath class="axesclip" id="clip058638x"><rect x="10" y="0" width="280" height="135"/></clipPath><clipPath class="axesclip" id="clip058638y"><rect x="0" y="50" width="300" height="75"/></clipPath><clipPath class="axesclip" id="clip058638xy"><rect x="10" y="50" width="280" height="75"/></clipPath></g><g class="gradients"/><g class="patterns"/></defs><g class="bglayer"/><g class="layer-below"><g class="imagelayer"/><g class="shapelayer"/></g><g class="cartesianlayer"><g class="subplot xy"><g class="layer-subplot"><g class="shapelayer"/><g class="imagelayer"/></g><g class="minor-gridlayer"><g class="x"/><g class="y"/></g><g class="gridlayer"><g class="x"><path class="xgrid crisp" transform="translate(30.59,0)" d="M0,50v75" style="stroke: rgb(235, 240, 248); stroke-opacity: 1; stroke-width: 1px;"/><path class="xgrid crisp" transform="translate(94.41,0)" d="M0,50v75" style="stroke: rgb(235, 240, 248); stroke-opacity: 1; stroke-width: 1px;"/><path class="xgrid crisp" transform="translate(158.24,0)" d="M0,50v75" style="stroke: rgb(235, 240, 248); stroke-opacity: 1; stroke-width: 1px;"/><path class="xgrid crisp" transform="translate(220,0)" d="M0,50v75" style="stroke: rgb(235, 240, 248); stroke-opacity: 1; stroke-width: 1px;"/><path class="xgrid crisp" transform="translate(283.82,0)" d="M0,50v75" style="stroke: rgb(235, 240, 248); stroke-opacity: 1; stroke-width: 1px;"/></g><g class="y"><path class="ygrid crisp" transform="translate(0,109.38)" d="M10,0h280" style="stroke: rgb(235, 240, 248); stroke-opacity: 1; stroke-width: 1px;"/><path class="ygrid crisp" transform="translate(0,93.75)" d="M10,0h280" style="stroke: rgb(235, 240, 248); stroke-opacity: 1; stroke-width: 1px;"/><path class="ygrid crisp" transform="translate(0,78.13)" d="M10,0h280" style="stroke: rgb(235, 240, 248); stroke-opacity: 1; stroke-width: 1px;"/><path class="ygrid crisp" transform="translate(0,62.5)" d="M10,0h280" style="stroke: rgb(235, 240, 248); stroke-opacity: 1; stroke-width: 1px;"/></g></g><g class="zerolinelayer"><path class="yzl zl crisp" transform="translate(0,125)" d="M10,0h280" style="stroke: rgb(235, 240, 248); stroke-opacity: 1; stroke-width: 2px;"/></g><path class="xlines-below"/><path class="ylines-below"/><g class="overlines-below"/><g class="xaxislayer-below"/><g class="yaxislayer-below"/><g class="overaxes-below"/><g class="plot" transform="translate(10,50)" clip-path="url(#clip058638xyplot)"><g class="scatterlayer mlayer"><g class="trace scatter tracec0971a" style="stroke-miterlimit: 2; opacity: 1;"><g class="fills"/><g class="errorbars"/><g class="lines"><path class="js-line" d="M0,9.06L6.18,11.25L8.24,11.25L16.47,10.63L18.53,10.16L47.35,10.94L49.41,11.56L119.41,11.56L121.47,15.94L140,15.16L142.06,14.53L146.18,5.78L148.24,5.78L152.35,8.44L154.41,3.91L172.94,3.91L175,6.25L177.06,6.25L179.12,3.91L181.18,6.25L183.24,3.75L187.35,3.75L189.41,6.09L191.47,3.75L193.53,3.75L197.65,3.75L199.71,6.09L201.76,6.09L203.82,3.75L205.88,6.09L207.94,6.09L210,3.75L212.06,6.72L226.47,7.66L228.53,8.13L232.65,11.41L234.71,11.41L265.59,11.72L267.65,12.66L280,13.44" style="vector-effect: none; fill: none; stroke: rgb(0, 174, 239); stroke-opacity: 1; stroke-width: 5px; opacity: 1;"/></g><g class="points"/><g class="text"/></g><g class="trace scatter trace4e56e5" style="stroke-miterlimit: 2; opacity: 1;"><g class="fills"/><g class="errorbars"/><g class="lines"><path class="js-line" d="M0,43.44L4.12,39.38L6.18,39.38L16.47,39.53L18.53,38.75L47.35,37.66L49.41,36.88L88.53,35.78L90.59,29.69L115.29,29.69L119.41,33.75L121.47,32.97L125.59,32.97L142.06,32.66L144.12,35.94L148.24,37.34L150.29,36.88L152.35,36.25L154.41,37.66L207.94,36.88L210,34.06L214.12,35L216.18,35L218.24,34.69L220.29,29.69L222.35,26.72L224.41,26.72L228.53,25.78L230.59,20.63L232.65,18.13L234.71,17.66L242.94,16.72L245,15L251.18,11.41L253.24,11.41L269.71,11.87L271.76,13.44L280,13.44" style="vector-effect: none; fill: none; stroke: rgb(138, 44, 81); stroke-opacity: 1; stroke-width: 5px; opacity: 1;"/></g><g class="points"/><g class="text"/></g><g class="trace scatter traceb97e27" style="stroke-miterlimit: 2; opacity: 1;"><g class="fills"/><g class="errorbars"/><g class="lines"><path class="js-line" d="M0,59.69L14.41,61.09L16.47,60.31L20.59,59.53L22.65,59.53L88.53,59.84L90.59,61.72L115.29,61.72L119.41,60.31L121.47,50.78L125.59,50.78L144.12,51.56L146.18,52.34L181.18,51.88L183.24,52.97L187.35,53.59L189.41,52.5L193.53,53.59L195.59,53.59L207.94,52.5L210,57.03L212.06,53.75L214.12,53.75L218.24,53.91L220.29,56.25L222.35,57.97L224.41,57.97L228.53,57.5L230.59,58.91L240.88,59.22L242.94,59.06L253.24,59.53L255.29,59.53L265.59,59.06L267.65,57.81L269.71,57.81L271.76,55.47L280,55.47" style="vector-effect: none; fill: none; stroke: rgb(255, 1, 170); stroke-opacity: 1; stroke-width: 5px; opacity: 1;"/></g><g class="points"/><g class="text"/></g><g class="trace scatter trace985755" style="stroke-miterlimit: 2; opacity: 1;"><g class="fills"/><g class="errorbars"/><g class="lines"><path class="js-line" d="M0,59.22L12.35,59.69L14.41,58.91L26.76,60L28.82,60L43.24,60.94L45.29,60.94L88.53,60.78L90.59,63.13L119.41,62.03L121.47,64.06L144.12,64.38L146.18,66.09L150.29,65.16L152.35,64.38L154.41,66.88L156.47,66.88L210,65.78L212.06,64.53L218.24,64.69L220.29,66.25L224.41,67.03L226.47,67.03L247.06,69.38L249.12,70.16L280,70.31" style="vector-effect: none; fill: none; stroke: rgb(238, 58, 67); stroke-opacity: 1; stroke-width: 5px; opacity: 1;"/></g><g class="points"/><g class="text"/></g><g class="trace scatter trace2f3157" style="stroke-miterlimit: 2; opacity: 1;"><g class="fills"/><g class="errorbars"/><g class="lines"><path class="js-line" d="M0,62.97L12.35,63.44L14.41,61.09L18.53,65.94L20.59,65.94L140,66.72L142.06,66.88L207.94,67.81L210,68.44L222.35,68.59L224.41,68.59L242.94,69.84L245,70.31L263.53,71.09L265.59,71.09L280,71.09" style="vector-effect: none; fill: none; stroke: rgb(202, 166, 105); stroke-opacity: 1; stroke-width: 5px; opacity: 1;"/></g><g class="points"/><g class="text"/></g></g></g><g class="overplot"/><path class="xlines-above crisp" d="M0,0" style="fill: none;"/><path class="ylines-above crisp" d="M0,0" style="fill: none;"/><g class="overlines-above"/><g class="xaxislayer-above"/><g class="yaxislayer-above"/><g class="overaxes-above"/></g></g><g class="polarlayer"/><g class="smithlayer"/><g class="ternarylayer"/><g class="geolayer"/><g class="funnelarealayer"/><g class="pielayer"/><g class="iciclelayer"/><g class="treemaplayer"/><g class="sunburstlayer"/><g class="glimages"/><defs id="topdefs-058638"><g class="clips"/></defs><g class="layer-above"><g class="imagelayer"/><g class="shapelayer"/></g><g class="infolayer"><g class="g-gtitle"><text class="gtitle" x="15" y="25" text-anchor="start" dy="0em" style="font-family: Ubuntu, verdana, arial, sans-serif; font-size: 16px; fill: rgb(233, 84, 32); opacity: 1; font-weight: normal; white-space: pre;">Prezident/ka 2024</text></g><g class="g-xtitle"/><g class="g-ytitle"/></g></svg>