<svg class="main-svg" xmlns="http://www.w3.org/2000/svg" xmlns:xlink="http://www.w3.org/1999/xlink" width="300" height="135" style="" viewBox="0 0 300 135"><rect x="0" y="0" width="300" height="135" style="fill: rgb(255, 255, 255); fill-opacity: 1;"/><defs id="defs-53c400"><g class="clips"><clipPath id="clip53c400xyplot" class="plotclip"><rect width="280" height="75"/></clipPath><clipPath class="axesclip" id="clip53c400x"><rect x="10" y="0" width="280" height="135"/></clipPath><clipPath class="axesclip" id="clip53c400y"><rect x="0" y="50" width="300" height="75"/></clipPath><clipPath class="axesclip" id="clip53c400xy"><rect x="10" y="50" width="280" height="75"/></clipPath></g><g class="gradients"/><g class="patterns"/></defs><g class="bglayer"/><g class="layer-below"><g class="imagelayer"/><g class="shapelayer"/></g><g class="cartesianlayer"><g class="subplot xy"><g class="layer-subplot"><g class="shapelayer"/><g class="imagelayer"/></g><g class="minor-gridlayer"><g class="x"/><g class="y"/></g><g class="gridlayer"><g class="x"><path class="xgrid crisp" transform="translate(28.92,0)" d="M0,50v75" style="stroke: rgb(235, 240, 248); stroke-opacity: 1; stroke-width: 1px;"/><path class="xgrid crisp" transform="translate(87.57,0)" d="M0,50v75" style="stroke: rgb(235, 240, 248); stroke-opacity: 1; stroke-width: 1px;"/><path class="xgrid crisp" transform="translate(146.22,0)" d="M0,50v75" style="stroke: rgb(235, 240, 248); stroke-opacity: 1; stroke-width: 1px;"/><path class="xgrid crisp" transform="translate(202.97,0)" d="M0,50v75" style="stroke: rgb(235, 240, 248); stroke-opacity: 1; stroke-width: 1px;"/><path class="xgrid crisp" transform="translate(261.62,0)" d="M0,50v75" style="stroke: rgb(235, 240, 248); stroke-opacity: 1; stroke-width: 1px;"/></g><g class="y"><path class="ygrid crisp" transform="translate(0,95.19)" d="M10,0h280" style="stroke: rgb(235, 240, 248); stroke-opacity: 1; stroke-width: 1px;"/><path class="ygrid crisp" transform="translate(0,65.38)" d="M10,0h280" style="stroke: rgb(235, 240, 248); stroke-opacity: 1; stroke-width: 1px;"/></g></g><g class="zerolinelayer"><path class="yzl zl crisp" transform="translate(0,125)" d="M10,0h280" style="stroke: rgb(235, 240, 248); stroke-opacity: 1; stroke-width: 2px;"/></g><path class="xlines-below"/><path class="ylines-below"/><g class="overlines-below"/><g class="xaxislayer-below"/><g class="yaxislayer-below"/><g class="overaxes-below"/><g class="plot" transform="translate(10,50)" clip-path="url(#clip53c400xyplot)"><g class="scatterlayer mlayer"><g class="trace scatter trace3112ec" style="stroke-miterlimit: 2; opacity: 1;"><g class="fills"/><g class="errorbars"/><g class="lines"><path class="js-line" d="M0,43.85L5.68,39.97L7.57,39.97L15.14,40.27L17.03,39.23L43.51,38.03L45.41,37.14L81.35,36.1L83.24,29.84L105.95,29.84L109.73,34.16L111.62,33.26L115.41,33.26L130.54,32.97L132.43,36.24L136.22,37.88L138.11,37.29L140,36.69L141.89,38.03L191.08,37.14L192.97,34.16L196.76,35.35L198.65,35.35L200.54,35.05L202.43,30.13L204.32,27.15L206.22,27.15L210,26.41L211.89,21.49L215.68,18.66L217.57,18.66L223.24,17.76L225.14,16.42L230.81,13.14L232.7,13.14L247.84,13.59L249.73,15.08L264.86,15.08L266.76,12.99L268.65,12.99L270.54,9.41L278.11,9.41L280,5.39" style="vector-effect: none; fill: none; stroke: rgb(138, 44, 81); stroke-opacity: 1; stroke-width: 5px; opacity: 1;"/></g><g class="points"/><g class="text"/></g><g class="trace scatter trace73e2b0" style="stroke-miterlimit: 2; opacity: 1;"><g class="fills"/><g class="errorbars"/><g class="lines"><path class="js-line" d="M0,10.01L5.68,12.1L7.57,12.1L13.24,13.14L15.14,11.8L18.92,10.9L20.81,10.9L43.51,11.5L45.41,12.25L109.73,12.25L111.62,16.42L128.65,15.67L130.54,15.08L134.32,6.58L136.22,6.58L140,9.27L141.89,4.79L158.92,4.79L160.81,7.03L162.7,7.03L164.59,4.79L166.49,7.03L168.38,4.35L172.16,3.75L174.05,6.58L175.95,3.75L177.84,3.75L181.62,3.75L183.51,6.58L185.41,6.58L187.3,3.75L189.19,6.58L191.08,6.58L192.97,3.9L194.86,7.33L208.11,8.22L210,8.97L213.78,12.4L215.68,12.54L244.05,13.59L245.95,14.48L268.65,14.63L270.54,16.12L280,15.82" style="vector-effect: none; fill: none; stroke: rgb(0, 174, 239); stroke-opacity: 1; stroke-width: 5px; opacity: 1;"/></g><g class="points"/><g class="text"/></g><g class="trace scatter trace130639" style="stroke-miterlimit: 2; opacity: 1;"><g class="fills"/><g class="errorbars"/><g class="lines"><path class="js-line" d="M0,59.95L9.46,60.39L11.35,60.39L13.24,61.44L15.14,60.54L18.92,59.65L20.81,59.65L81.35,59.95L83.24,61.73L109.73,60.54L111.62,50.85L132.43,51.75L134.32,52.64L166.49,52.19L168.38,53.09L172.16,53.68L174.05,52.64L177.84,53.68L179.73,53.68L191.08,52.64L192.97,56.96L194.86,53.98L196.76,53.98L200.54,54.13L202.43,56.37L204.32,58.16L206.22,58.16L210,57.71L211.89,59.2L221.35,59.5L223.24,59.35L228.92,60.09L230.81,60.09L244.05,59.5L245.95,58.16L247.84,58.16L249.73,56.07L264.86,56.07L266.76,58.01L268.65,58.6L270.54,60.69L280,61.88" style="vector-effect: none; fill: none; stroke: rgb(255, 1, 170); stroke-opacity: 1; stroke-width: 5px; opacity: 1;"/></g><g class="points"/><g class="text"/></g><g class="trace scatter traceb060c1" style="stroke-miterlimit: 2; opacity: 1;"><g class="fills"/><g class="errorbars"/><g class="lines"><path class="js-line" d="M0,59.35L11.35,59.95L13.24,59.35L43.51,61.14L45.41,61.14L81.35,60.84L83.24,63.08L109.73,62.18L111.62,64.12L132.43,64.57L134.32,66.21L138.11,65.31L140,64.42L141.89,66.95L143.78,66.95L172.16,66.8L174.05,65.61L177.84,66.8L179.73,66.8L192.97,65.76L194.86,64.71L200.54,64.86L202.43,66.35L206.22,67.1L208.11,67.1L234.59,70.38L236.49,70.38L280,70.23" style="vector-effect: none; fill: none; stroke: rgb(238, 58, 67); stroke-opacity: 1; stroke-width: 5px; opacity: 1;"/></g><g class="points"/><g class="text"/></g><g class="trace scatter trace0f864b" style="stroke-miterlimit: 2; opacity: 1;"><g class="fills"/><g class="errorbars"/><g class="lines"><path class="js-line" d="M0,63.22L11.35,63.52L13.24,61.44L17.03,66.06L18.92,66.06L128.65,66.8L130.54,66.95L191.08,67.99L192.97,68.44L213.78,69.48L215.68,69.63L227.03,70.68L228.92,71.12L278.11,71.12L280,72.62" style="vector-effect: none; fill: none; stroke: rgb(202, 166, 105); stroke-opacity: 1; stroke-width: 5px; opacity: 1;"/></g><g class="points"/><g class="text"/></g></g></g><g class="overplot"/><path class="xlines-above crisp" d="M0,0" style="fill: none;"/><path class="ylines-above crisp" d="M0,0" style="fill: none;"/><g class="overlines-above"/><g class="xaxislayer-above"/><g class="yaxislayer-above"/><g class="overaxes-above"/></g></g><g class="polarlayer"/><g class="smithlayer"/><g class="ternarylayer"/><g class="geolayer"/><g class="funnelarealayer"/><g class="pielayer"/><g class="iciclelayer"/><g class="treemaplayer"/><g class="sunburstlayer"/><g class="glimages"/><defs id="topdefs-53c400"><g class="clips"/></defs><g class="layer-above"><g class="imagelayer"/><g class="shapelayer"/></g><g class="infolayer"><g class="g-gtitle"><text class="gtitle" x="15" y="25" text-anchor="start" dy="0em" style="font-family: Ubuntu, verdana, arial, sans-serif; font-size: 16px; fill: rgb(233, 84, 32); opacity: 1; font-weight: normal; white-space: pre;">Prezident/ka 2024</text></g><g class="g-xtitle"/><g class="g-ytitle"/></g></svg>