<svg class="main-svg" xmlns="http://www.w3.org/2000/svg" xmlns:xlink="http://www.w3.org/1999/xlink" width="300" height="135" style="" viewBox="0 0 300 135"><rect x="0" y="0" width="300" height="135" style="fill: rgb(255, 255, 255); fill-opacity: 1;"/><defs id="defs-53e968"><g class="clips"><clipPath id="clip53e968xyplot" class="plotclip"><rect width="280" height="75"/></clipPath><clipPath class="axesclip" id="clip53e968x"><rect x="10" y="0" width="280" height="135"/></clipPath><clipPath class="axesclip" id="clip53e968y"><rect x="0" y="50" width="300" height="75"/></clipPath><clipPath class="axesclip" id="clip53e968xy"><rect x="10" y="50" width="280" height="75"/></clipPath></g><g class="gradients"/><g class="patterns"/></defs><g class="bglayer"/><g class="layer-below"><g class="imagelayer"/><g class="shapelayer"/></g><g class="cartesianlayer"><g class="subplot xy"><g class="layer-subplot"><g class="shapelayer"/><g class="imagelayer"/></g><g class="minor-gridlayer"><g class="x"/><g class="y"/></g><g class="gridlayer"><g class="x"><path class="xgrid crisp" transform="translate(24.509999999999998,0)" d="M0,50v75" style="stroke: rgb(235, 240, 248); stroke-opacity: 1; stroke-width: 1px;"/><path class="xgrid crisp" transform="translate(114.46,0)" d="M0,50v75" style="stroke: rgb(235, 240, 248); stroke-opacity: 1; stroke-width: 1px;"/><path class="xgrid crisp" transform="translate(202.95,0)" d="M0,50v75" style="stroke: rgb(235, 240, 248); stroke-opacity: 1; stroke-width: 1px;"/></g><g class="y"><path class="ygrid crisp" transform="translate(0,101.28999999999999)" d="M10,0h280" style="stroke: rgb(235, 240, 248); stroke-opacity: 1; stroke-width: 1px;"/><path class="ygrid crisp" transform="translate(0,77.58)" d="M10,0h280" style="stroke: rgb(235, 240, 248); stroke-opacity: 1; stroke-width: 1px;"/><path class="ygrid crisp" transform="translate(0,53.87)" d="M10,0h280" style="stroke: rgb(235, 240, 248); stroke-opacity: 1; stroke-width: 1px;"/></g></g><g class="zerolinelayer"><path class="yzl zl crisp" transform="translate(0,125)" d="M10,0h280" style="stroke: rgb(235, 240, 248); stroke-opacity: 1; stroke-width: 2px;"/></g><path class="xlines-below"/><path class="ylines-below"/><g class="overlines-below"/><g class="xaxislayer-below"/><g class="yaxislayer-below"/><g class="overaxes-below"/><g class="plot" transform="translate(10,50)" clip-path="url(#clip53e968xyplot)"><g class="scatterlayer mlayer"><g class="trace scatter trace91856b" style="stroke-miterlimit: 2; opacity: 1;"><g class="fills"/><g class="errorbars"/><g class="lines"><path class="js-line" d="M0,50.22L4.35,47.14L5.8,47.14L11.61,47.38L13.06,46.55L33.37,45.6L34.82,44.89L62.38,44.06L63.83,39.08L81.24,39.08L84.15,42.52L85.6,41.81L88.5,41.81L100.1,41.57L101.55,44.18L104.46,45.48L105.91,45.01L107.36,44.53L108.81,45.6L146.53,44.89L147.98,42.52L150.88,43.47L152.33,43.47L153.78,43.23L155.23,39.32L158.13,36.94L159.59,36.94L161.04,36.35L162.49,32.44L165.39,30.19L166.84,30.19L171.19,29.48L172.64,28.41L176.99,25.8L178.45,25.8L190.05,26.16L191.5,27.34L203.11,27.34L204.56,25.68L206.01,25.68L207.46,22.84L213.26,22.84L214.72,19.64L223.42,19.64L224.87,17.74L227.77,17.03L229.22,17.03L235.03,14.66L236.48,10.63L239.38,10.63L240.83,8.61L242.28,3.75L243.73,3.75L255.34,3.75L256.79,5.53L259.69,6.36L261.14,6.36L262.59,6.83L264.04,8.73L266.94,8.97L268.39,8.14L280,8.14" style="vector-effect: none; fill: none; stroke: rgb(138, 44, 81); stroke-opacity: 1; stroke-width: 5px; opacity: 1;"/></g><g class="points"/><g class="text"/></g><g class="trace scatter trace0e0c3d" style="stroke-miterlimit: 2; opacity: 1;"><g class="fills"/><g class="errorbars"/><g class="lines"><path class="js-line" d="M0,23.31L4.35,24.97L5.8,24.97L11.61,24.73L13.06,24.02L84.15,25.09L85.6,28.41L100.1,27.34L101.55,24.62L103.01,20.58L104.46,20.58L107.36,22.72L108.81,19.16L121.87,19.16L123.32,20.94L124.77,20.94L126.22,19.16L127.67,20.94L129.12,18.81L132.02,18.33L133.47,20.58L136.37,18.33L137.82,18.33L139.27,18.33L140.73,20.58L142.18,20.58L143.63,18.33L146.53,20.58L147.98,18.45L149.43,21.18L150.88,21.18L159.59,21.89L161.04,22.48L163.94,25.21L165.39,25.33L187.15,26.16L188.6,26.87L206.01,26.99L207.46,28.17L223.42,27.93L224.87,29.83L235.03,32.32L236.48,30.07L240.83,31.25L242.28,32.8L255.34,32.8L256.79,31.14L259.69,30.19L261.14,30.19L262.59,29.71L264.04,26.99L266.94,26.39L268.39,26.75L280,26.51" style="vector-effect: none; fill: none; stroke: rgb(0, 174, 239); stroke-opacity: 1; stroke-width: 5px; opacity: 1;"/></g><g class="points"/><g class="text"/></g><g class="trace scatter trace502868" style="stroke-miterlimit: 2; opacity: 1;"><g class="fills"/><g class="errorbars"/><g class="lines"><path class="js-line" d="M0,63.03L10.16,64.21L11.61,63.5L14.51,62.79L15.96,62.79L62.38,63.03L63.83,64.45L84.15,63.5L85.6,55.79L101.55,56.51L103.01,57.22L129.12,57.57L130.57,58.05L146.53,57.22L147.98,60.66L150.88,58.28L152.33,58.28L153.78,58.4L155.23,60.18L158.13,61.6L159.59,61.6L161.04,61.25L162.49,62.43L169.74,62.67L171.19,62.55L178.45,63.14L179.9,63.14L187.15,62.67L188.6,61.6L190.05,61.6L191.5,59.94L203.11,59.94L204.56,61.49L210.36,63.62L211.81,63.62L232.12,64.8L233.58,64.92L235.03,64.92L236.48,68.6L255.34,69.78L256.79,69.9L265.49,70.85L266.94,71.09L271.3,71.56L272.75,71.56L280,71.8" style="vector-effect: none; fill: none; stroke: rgb(255, 1, 170); stroke-opacity: 1; stroke-width: 5px; opacity: 1;"/></g><g class="points"/><g class="text"/></g><g class="trace scatter traceab46e9" style="stroke-miterlimit: 2; opacity: 1;"><g class="fills"/><g class="errorbars"/><g class="lines"><path class="js-line" d="M0,62.55L8.7,63.03L10.16,62.55L36.27,63.97L37.72,63.97L62.38,63.74L63.83,65.52L84.15,64.8L85.6,66.35L101.55,66.7L103.01,68.01L105.91,67.29L107.36,66.58L110.26,68.6L111.71,68.6L147.98,67.65L149.43,66.82L153.78,66.94L155.23,68.12L159.59,68.72L161.04,68.95L168.29,69.78L169.74,69.78L182.8,71.32L184.25,71.32L235.03,71.32L236.48,73.58L240.83,73.81" style="vector-effect: none; fill: none; stroke: rgb(238, 58, 67); stroke-opacity: 1; stroke-width: 5px; opacity: 1;"/></g><g class="points"/><g class="text"/></g><g class="trace scatter trace7f7e4d" style="stroke-miterlimit: 2; opacity: 1;"><g class="fills"/><g class="errorbars"/><g class="lines"><path class="js-line" d="M0,65.63L8.7,65.87L10.16,64.21L13.06,67.89L14.51,67.89L104.46,68.48L105.91,68.95L108.81,68.6L110.26,68.6L155.23,69.78L156.68,70.02L171.19,70.97L172.64,71.32L182.8,71.92L184.25,71.92L230.67,73.1L232.12,73.22L240.83,73.81" style="vector-effect: none; fill: none; stroke: rgb(202, 166, 105); stroke-opacity: 1; stroke-width: 5px; opacity: 1;"/></g><g class="points"/><g class="text"/></g></g></g><g class="overplot"/><path class="xlines-above crisp" d="M0,0" style="fill: none;"/><path class="ylines-above crisp" d="M0,0" style="fill: none;"/><g class="overlines-above"/><g class="xaxislayer-above"/><g class="yaxislayer-above"/><g class="overaxes-above"/></g></g><g class="polarlayer"/><g class="smithlayer"/><g class="ternarylayer"/><g class="geolayer"/><g class="funnelarealayer"/><g class="pielayer"/><g class="iciclelayer"/><g class="treemaplayer"/><g class="sunburstlayer"/><g class="glimages"/><defs id="topdefs-53e968"><g class="clips"/></defs><g class="layer-above"><g class="imagelayer"/><g class="shapelayer"/></g><g class="infolayer"><g class="g-gtitle"><text class="gtitle" x="15" y="25" text-anchor="start" dy="0em" style="font-family: Ubuntu, verdana, arial, sans-serif; font-size: 16px; fill: rgb(233, 84, 32); opacity: 1; font-weight: normal; white-space: pre;">Prezident/ka 2024</text></g><g class="g-xtitle"/><g class="g-ytitle"/></g></svg>