<svg class="main-svg" xmlns="http://www.w3.org/2000/svg" xmlns:xlink="http://www.w3.org/1999/xlink" width="300" height="135" style="" viewBox="0 0 300 135"><rect x="0" y="0" width="300" height="135" style="fill: rgb(255, 255, 255); fill-opacity: 1;"/><defs id="defs-e1d2bd"><g class="clips"><clipPath id="clipe1d2bdxyplot" class="plotclip"><rect width="280" height="75"/></clipPath><clipPath class="axesclip" id="clipe1d2bdx"><rect x="10" y="0" width="280" height="135"/></clipPath><clipPath class="axesclip" id="clipe1d2bdy"><rect x="0" y="50" width="300" height="75"/></clipPath><clipPath class="axesclip" id="clipe1d2bdxy"><rect x="10" y="50" width="280" height="75"/></clipPath></g><g class="gradients"/><g class="patterns"/></defs><g class="bglayer"/><g class="layer-below"><g class="imagelayer"/><g class="shapelayer"/></g><g class="cartesianlayer"><g class="subplot xy"><g class="layer-subplot"><g class="shapelayer"/><g class="imagelayer"/></g><g class="minor-gridlayer"><g class="x"/><g class="y"/></g><g class="gridlayer"><g class="x"><path class="xgrid crisp" transform="translate(20.61,0)" d="M0,50v75" style="stroke: rgb(235, 240, 248); stroke-opacity: 1; stroke-width: 1px;"/><path class="xgrid crisp" transform="translate(86.36,0)" d="M0,50v75" style="stroke: rgb(235, 240, 248); stroke-opacity: 1; stroke-width: 1px;"/><path class="xgrid crisp" transform="translate(151.06,0)" d="M0,50v75" style="stroke: rgb(235, 240, 248); stroke-opacity: 1; stroke-width: 1px;"/><path class="xgrid crisp" transform="translate(215.76,0)" d="M0,50v75" style="stroke: rgb(235, 240, 248); stroke-opacity: 1; stroke-width: 1px;"/><path class="xgrid crisp" transform="translate(279.39,0)" d="M0,50v75" style="stroke: rgb(235, 240, 248); stroke-opacity: 1; stroke-width: 1px;"/></g><g class="y"><path class="ygrid crisp" transform="translate(0,102.77000000000001)" d="M10,0h280" style="stroke: rgb(235, 240, 248); stroke-opacity: 1; stroke-width: 1px;"/><path class="ygrid crisp" transform="translate(0,80.53999999999999)" d="M10,0h280" style="stroke: rgb(235, 240, 248); stroke-opacity: 1; stroke-width: 1px;"/><path class="ygrid crisp" transform="translate(0,58.31)" d="M10,0h280" style="stroke: rgb(235, 240, 248); stroke-opacity: 1; stroke-width: 1px;"/></g></g><g class="zerolinelayer"><path class="yzl zl crisp" transform="translate(0,125)" d="M10,0h280" style="stroke: rgb(235, 240, 248); stroke-opacity: 1; stroke-width: 2px;"/></g><path class="xlines-below"/><path class="ylines-below"/><g class="overlines-below"/><g class="xaxislayer-below"/><g class="yaxislayer-below"/><g class="overaxes-below"/><g class="plot" transform="translate(10,50)" clip-path="url(#clipe1d2bdxyplot)"><g class="scatterlayer mlayer"><g class="trace scatter trace330343" style="stroke-miterlimit: 2; opacity: 1;"><g class="fills"/><g class="errorbars"/><g class="lines"><path class="js-line" d="M0,51.77L3.18,48.88L4.24,48.88L8.48,49.1L9.55,48.32L24.39,47.43L25.45,46.77L45.61,45.99L46.67,41.32L59.39,41.32L61.52,44.54L64.7,43.88L65.76,43.88L73.18,43.65L74.24,46.1L76.36,47.32L77.42,46.88L78.48,46.43L79.55,47.43L107.12,46.77L108.18,44.54L110.3,45.43L111.36,45.43L112.42,45.21L113.48,41.54L115.61,39.32L116.67,39.32L117.73,38.76L118.79,35.1L120.91,32.98L121.97,32.98L125.15,32.32L126.21,31.32L129.39,28.87L130.45,28.87L138.94,29.2L140,30.32L148.48,30.32L149.55,28.76L150.61,28.76L151.67,26.09L155.91,26.09L156.97,23.09L163.33,23.09L164.39,21.31L170.76,18.42L171.82,18.42L173.94,14.64L175,14.64L176.06,12.75L177.12,8.2L186.67,8.2L187.73,9.86L189.85,10.64L190.91,10.64L193.03,12.86L194.09,13.53L199.39,12.31L200.45,12.31L206.82,12.42L207.88,8.75L210,5.08L211.06,4.97L214.24,5.86L215.3,3.75L218.48,4.75L219.55,5.64L221.67,6.75L222.73,10.53L223.79,11.86L224.85,10.53L226.97,10.64L228.03,8.86L230.15,8.97L231.21,9.09L233.33,8.64L234.39,7.75L237.58,4.64L238.64,4.64L241.82,6.64L242.88,5.75L245,6.42L246.06,8.64L248.18,14.87L249.24,14.64L252.42,15.75L253.48,16.09L255.61,14.64L256.67,15.87L258.79,16.64L259.85,15.09L263.03,8.31L264.09,8.2L266.21,5.86L267.27,5.75L269.39,5.97L270.45,7.75L275.76,6.97L276.82,6.31L280,6.31" style="vector-effect: none; fill: none; stroke: rgb(138, 44, 81); stroke-opacity: 1; stroke-width: 5px; opacity: 1;"/></g><g class="points"/><g class="text"/></g><g class="trace scatter trace4ed450" style="stroke-miterlimit: 2; opacity: 1;"><g class="fills"/><g class="errorbars"/><g class="lines"><path class="js-line" d="M0,26.54L4.24,28.09L5.3,28.09L8.48,27.87L9.55,27.2L61.52,28.2L62.58,31.32L73.18,30.32L74.24,27.76L76.36,23.98L77.42,24.98L78.48,25.98L79.55,22.65L89.09,22.65L90.15,24.31L91.21,24.31L92.27,22.65L93.33,24.31L94.39,22.31L96.52,21.87L97.58,23.98L99.7,21.87L100.76,21.87L101.82,21.87L102.88,23.98L103.94,23.98L105,21.87L107.12,23.98L108.18,21.98L110.3,24.54L111.36,24.54L117.73,25.76L118.79,27.65L121.97,28.43L123.03,28.43L136.82,29.2L137.88,29.87L163.33,30.87L164.39,32.65L171.82,34.98L172.88,32.87L176.06,33.98L177.12,35.43L186.67,35.43L187.73,33.87L189.85,32.98L190.91,32.98L191.97,32.54L193.03,29.98L195.15,29.43L196.21,29.76L206.82,29.2L207.88,32.09L210,35.43L211.06,35.54L213.18,33.76L214.24,32.98L216.36,35.1L217.42,34.54L221.67,32.09L222.73,28.32L223.79,26.98L224.85,28.32L226.97,28.2L228.03,29.98L230.15,29.87L231.21,29.76L233.33,30.2L234.39,31.09L237.58,34.21L238.64,34.21L241.82,32.21L242.88,33.09L245,32.43L246.06,30.2L248.18,23.98L249.24,24.2L252.42,23.09L253.48,22.76L255.61,24.2L256.67,22.98L258.79,22.2L259.85,23.76L263.03,30.54L264.09,30.65L266.21,32.98L267.27,33.09L269.39,32.87L270.45,31.09L275.76,31.87L276.82,32.54L280,32.54" style="vector-effect: none; fill: none; stroke: rgb(0, 174, 239); stroke-opacity: 1; stroke-width: 5px; opacity: 1;"/></g><g class="points"/><g class="text"/></g><g class="trace scatter traced8ed01" style="stroke-miterlimit: 2; opacity: 1;"><g class="fills"/><g class="errorbars"/><g class="lines"><path class="js-line" d="M0,66.22L6.36,66.44L7.42,64.88L9.55,68.33L10.61,68.33L76.36,68.89L77.42,69.33L79.55,69L80.61,69L113.48,70.11L114.55,70.33L126.21,71.55L127.27,71.78L131.52,72.11L132.58,72.11L171.82,73.33L172.88,73.67L176.06,73.89" style="vector-effect: none; fill: none; stroke: rgb(202, 166, 105); stroke-opacity: 1; stroke-width: 5px; opacity: 1;"/></g><g class="points"/><g class="text"/></g><g class="trace scatter trace6fb223" style="stroke-miterlimit: 2; opacity: 1;"><g class="fills"/><g class="errorbars"/><g class="lines"><path class="js-line" d="M0,63.77L7.42,64.88L8.48,64.22L11.67,63.55L12.73,63.55L45.61,63.77L46.67,65.11L61.52,64.22L62.58,56.99L74.24,57.66L75.3,58.33L94.39,58.66L95.45,59.1L107.12,58.33L108.18,61.55L110.3,59.33L111.36,59.33L112.42,59.44L113.48,61.11L115.61,62.44L116.67,62.44L117.73,62.11L118.79,63.22L125.15,63.33L126.21,63.22L133.64,63.88L134.7,63.88L136.82,63.44L137.88,62.44L138.94,62.44L140,60.88L148.48,60.88L149.55,62.33L154.85,64.33L155.91,64.33L158.03,65.22L159.09,65.22L171.82,65.55L172.88,69L191.97,70.11L193.03,71.11L206.82,72.22L207.88,73L213.18,73.55" style="vector-effect: none; fill: none; stroke: rgb(255, 1, 170); stroke-opacity: 1; stroke-width: 5px; opacity: 1;"/></g><g class="points"/><g class="text"/></g><g class="trace scatter trace73f3c3" style="stroke-miterlimit: 2; opacity: 1;"><g class="fills"/><g class="errorbars"/><g class="lines"><path class="js-line" d="M0,63.33L6.36,63.77L7.42,63.33L27.58,64.66L28.64,64.66L45.61,64.44L46.67,66.11L61.52,65.44L62.58,66.89L74.24,67.22L75.3,68.44L77.42,67.77L78.48,67.11L80.61,69L81.67,69L108.18,68.11L109.24,67.33L113.48,68.55L114.55,69.11L125.15,70.33L126.21,70.78L133.64,71.55L134.7,71.55L171.82,71.55L172.88,73.67L176.06,73.89" style="vector-effect: none; fill: none; stroke: rgb(238, 58, 67); stroke-opacity: 1; stroke-width: 5px; opacity: 1;"/></g><g class="points"/><g class="text"/></g></g></g><g class="overplot"/><path class="xlines-above crisp" d="M0,0" style="fill: none;"/><path class="ylines-above crisp" d="M0,0" style="fill: none;"/><g class="overlines-above"/><g class="xaxislayer-above"/><g class="yaxislayer-above"/><g class="overaxes-above"/></g></g><g class="polarlayer"/><g class="smithlayer"/><g class="ternarylayer"/><g class="geolayer"/><g class="funnelarealayer"/><g class="pielayer"/><g class="iciclelayer"/><g class="treemaplayer"/><g class="sunburstlayer"/><g class="glimages"/><defs id="topdefs-e1d2bd"><g class="clips"/></defs><g class="layer-above"><g class="imagelayer"/><g class="shapelayer"/></g><g class="infolayer"><g class="g-gtitle"><text class="gtitle" x="15" y="25" text-anchor="start" dy="0em" style="font-family: Ubuntu, verdana, arial, sans-serif; font-size: 16px; fill: rgb(233, 84, 32); opacity: 1; font-weight: normal; white-space: pre;">Prezident/ka 2024</text></g><g class="g-xtitle"/><g class="g-ytitle"/></g></svg>