<svg class="main-svg" xmlns="http://www.w3.org/2000/svg" xmlns:xlink="http://www.w3.org/1999/xlink" width="300" height="135" style="" viewBox="0 0 300 135"><rect x="0" y="0" width="300" height="135" style="fill: rgb(255, 255, 255); fill-opacity: 1;"/><defs id="defs-75a540"><g class="clips"><clipPath id="clip75a540xyplot" class="plotclip"><rect width="280" height="75"/></clipPath><clipPath class="axesclip" id="clip75a540x"><rect x="10" y="0" width="280" height="135"/></clipPath><clipPath class="axesclip" id="clip75a540y"><rect x="0" y="50" width="300" height="75"/></clipPath><clipPath class="axesclip" id="clip75a540xy"><rect x="10" y="50" width="280" height="75"/></clipPath></g><g class="gradients"/><g class="patterns"/></defs><g class="bglayer"/><g class="layer-below"><g class="imagelayer"/><g class="shapelayer"/></g><g class="cartesianlayer"><g class="subplot xy"><g class="layer-subplot"><g class="shapelayer"/><g class="imagelayer"/></g><g class="minor-gridlayer"><g class="x"/><g class="y"/></g><g class="gridlayer"><g class="x"><path class="xgrid crisp" transform="translate(22.39,0)" d="M0,50v75" style="stroke: rgb(235, 240, 248); stroke-opacity: 1; stroke-width: 1px;"/><path class="xgrid crisp" transform="translate(99.2,0)" d="M0,50v75" style="stroke: rgb(235, 240, 248); stroke-opacity: 1; stroke-width: 1px;"/><path class="xgrid crisp" transform="translate(174.78,0)" d="M0,50v75" style="stroke: rgb(235, 240, 248); stroke-opacity: 1; stroke-width: 1px;"/><path class="xgrid crisp" transform="translate(250.35,0)" d="M0,50v75" style="stroke: rgb(235, 240, 248); stroke-opacity: 1; stroke-width: 1px;"/></g><g class="y"><path class="ygrid crisp" transform="translate(0,102.77000000000001)" d="M10,0h280" style="stroke: rgb(235, 240, 248); stroke-opacity: 1; stroke-width: 1px;"/><path class="ygrid crisp" transform="translate(0,80.53999999999999)" d="M10,0h280" style="stroke: rgb(235, 240, 248); stroke-opacity: 1; stroke-width: 1px;"/><path class="ygrid crisp" transform="translate(0,58.31)" d="M10,0h280" style="stroke: rgb(235, 240, 248); stroke-opacity: 1; stroke-width: 1px;"/></g></g><g class="zerolinelayer"><path class="yzl zl crisp" transform="translate(0,125)" d="M10,0h280" style="stroke: rgb(235, 240, 248); stroke-opacity: 1; stroke-width: 2px;"/></g><path class="xlines-below"/><path class="ylines-below"/><g class="overlines-below"/><g class="xaxislayer-below"/><g class="yaxislayer-below"/><g class="overaxes-below"/><g class="plot" transform="translate(10,50)" clip-path="url(#clip75a540xyplot)"><g class="scatterlayer mlayer"><g class="trace scatter trace04a4bd" style="stroke-miterlimit: 2; opacity: 1;"><g class="fills"/><g class="errorbars"/><g class="lines"><path class="js-line" d="M0,51.77L3.72,48.88L4.96,48.88L9.91,49.1L11.15,48.32L28.5,47.43L29.73,46.77L53.27,45.99L54.51,41.32L69.38,41.32L71.86,44.54L75.58,43.88L76.81,43.88L85.49,43.65L86.73,46.1L89.2,47.32L90.44,46.88L91.68,46.43L92.92,47.43L125.13,46.77L126.37,44.54L128.85,45.43L130.09,45.43L131.33,45.21L132.57,41.54L135.04,39.32L136.28,39.32L137.52,38.76L138.76,35.1L141.24,32.98L142.48,32.98L146.19,32.32L147.43,31.32L151.15,28.87L152.39,28.87L162.3,29.2L163.54,30.32L173.45,30.32L174.69,28.76L175.93,28.76L177.17,26.09L182.12,26.09L183.36,23.09L190.8,23.09L192.04,21.31L199.47,18.42L200.71,18.42L203.19,14.64L204.42,14.64L205.66,12.75L206.9,8.2L218.05,8.2L219.29,9.86L221.77,10.64L223.01,10.64L225.49,12.86L226.73,13.53L231.68,12.31L232.92,12.31L241.59,12.42L242.83,8.75L245.31,5.08L246.55,4.97L250.27,5.86L251.5,3.75L255.22,4.75L256.46,5.64L258.94,6.75L260.18,10.53L261.42,11.86L262.65,10.53L265.13,10.64L266.37,8.86L268.85,8.97L270.09,9.09L272.57,8.64L273.81,7.75L277.52,4.64L278.76,4.64L280,4.64" style="vector-effect: none; fill: none; stroke: rgb(138, 44, 81); stroke-opacity: 1; stroke-width: 5px; opacity: 1;"/></g><g class="points"/><g class="text"/></g><g class="trace scatter tracea8d764" style="stroke-miterlimit: 2; opacity: 1;"><g class="fills"/><g class="errorbars"/><g class="lines"><path class="js-line" d="M0,26.54L4.96,28.09L6.19,28.09L9.91,27.87L11.15,27.2L71.86,28.2L73.1,31.32L85.49,30.32L86.73,27.76L89.2,23.98L90.44,24.98L91.68,25.98L92.92,22.65L104.07,22.65L105.31,24.31L106.55,24.31L107.79,22.65L109.03,24.31L110.27,22.31L112.74,21.87L113.98,23.98L116.46,21.87L117.7,21.87L118.94,21.87L120.18,23.98L121.42,23.98L122.65,21.87L125.13,23.98L126.37,21.98L128.85,24.54L130.09,24.54L137.52,25.76L138.76,27.65L142.48,28.43L143.72,28.43L159.82,29.2L161.06,29.87L190.8,30.87L192.04,32.65L200.71,34.98L201.95,32.87L205.66,33.98L206.9,35.43L218.05,35.43L219.29,33.87L221.77,32.98L223.01,32.98L224.25,32.54L225.49,29.98L227.96,29.43L229.2,29.76L241.59,29.2L242.83,32.09L245.31,35.43L246.55,35.54L249.03,33.76L250.27,32.98L252.74,35.1L253.98,34.54L258.94,32.09L260.18,28.32L261.42,26.98L262.65,28.32L265.13,28.2L266.37,29.98L268.85,29.87L270.09,29.76L272.57,30.2L273.81,31.09L277.52,34.21L278.76,34.21L280,34.21" style="vector-effect: none; fill: none; stroke: rgb(0, 174, 239); stroke-opacity: 1; stroke-width: 5px; opacity: 1;"/></g><g class="points"/><g class="text"/></g><g class="trace scatter trace0f6396" style="stroke-miterlimit: 2; opacity: 1;"><g class="fills"/><g class="errorbars"/><g class="lines"><path class="js-line" d="M0,66.22L7.43,66.44L8.67,64.88L11.15,68.33L12.39,68.33L89.2,68.89L90.44,69.33L92.92,69L94.16,69L132.57,70.11L133.81,70.33L147.43,71.55L148.67,71.78L153.63,72.11L154.87,72.11L200.71,73.33L201.95,73.67L205.66,73.89" style="vector-effect: none; fill: none; stroke: rgb(202, 166, 105); stroke-opacity: 1; stroke-width: 5px; opacity: 1;"/></g><g class="points"/><g class="text"/></g><g class="trace scatter trace049a03" style="stroke-miterlimit: 2; opacity: 1;"><g class="fills"/><g class="errorbars"/><g class="lines"><path class="js-line" d="M0,67.22L13.63,67.33L14.87,67.33L53.27,68.55L54.51,69.44L69.38,69.44L71.86,68.11L73.1,71L75.58,71L91.68,71.89L92.92,72.33L146.19,73.11L147.43,73.55L182.12,73.55" style="vector-effect: none; fill: none; stroke: rgb(255, 192, 203); stroke-opacity: 1; stroke-width: 5px; opacity: 1;"/></g><g class="points"/><g class="text"/></g><g class="trace scatter tracef76252" style="stroke-miterlimit: 2; opacity: 1;"><g class="fills"/><g class="errorbars"/><g class="lines"><path class="js-line" d="M0,63.33L7.43,63.77L8.67,63.33L32.21,64.66L33.45,64.66L53.27,64.44L54.51,66.11L71.86,65.44L73.1,66.89L86.73,67.22L87.96,68.44L90.44,67.77L91.68,67.11L94.16,69L95.4,69L126.37,68.11L127.61,67.33L132.57,68.55L133.81,69.11L146.19,70.33L147.43,70.78L156.11,71.55L157.35,71.55L200.71,71.55L201.95,73.67L205.66,73.89" style="vector-effect: none; fill: none; stroke: rgb(238, 58, 67); stroke-opacity: 1; stroke-width: 5px; opacity: 1;"/></g><g class="points"/><g class="text"/></g></g></g><g class="overplot"/><path class="xlines-above crisp" d="M0,0" style="fill: none;"/><path class="ylines-above crisp" d="M0,0" style="fill: none;"/><g class="overlines-above"/><g class="xaxislayer-above"/><g class="yaxislayer-above"/><g class="overaxes-above"/></g></g><g class="polarlayer"/><g class="smithlayer"/><g class="ternarylayer"/><g class="geolayer"/><g class="funnelarealayer"/><g class="pielayer"/><g class="iciclelayer"/><g class="treemaplayer"/><g class="sunburstlayer"/><g class="glimages"/><defs id="topdefs-75a540"><g class="clips"/></defs><g class="layer-above"><g class="imagelayer"/><g class="shapelayer"/></g><g class="infolayer"><g class="g-gtitle"><text class="gtitle" x="15" y="25" text-anchor="start" dy="0em" style="font-family: Ubuntu, verdana, arial, sans-serif; font-size: 16px; fill: rgb(233, 84, 32); opacity: 1; font-weight: normal; white-space: pre;">Prezident/ka 2024</text></g><g class="g-xtitle"/><g class="g-ytitle"/></g></svg>