<svg class="main-svg" xmlns="http://www.w3.org/2000/svg" xmlns:xlink="http://www.w3.org/1999/xlink" width="300" height="135" style="" viewBox="0 0 300 135"><rect x="0" y="0" width="300" height="135" style="fill: rgb(255, 255, 255); fill-opacity: 1;"/><defs id="defs-cd2c6c"><g class="clips"><clipPath id="clipcd2c6cxyplot" class="plotclip"><rect width="280" height="75"/></clipPath><clipPath class="axesclip" id="clipcd2c6cx"><rect x="10" y="0" width="280" height="135"/></clipPath><clipPath class="axesclip" id="clipcd2c6cy"><rect x="0" y="50" width="300" height="75"/></clipPath><clipPath class="axesclip" id="clipcd2c6cxy"><rect x="10" y="50" width="280" height="75"/></clipPath></g><g class="gradients"/><g class="patterns"/></defs><g class="bglayer"/><g class="layer-below"><g class="imagelayer"/><g class="shapelayer"/></g><g class="cartesianlayer"><g class="subplot xy"><g class="layer-subplot"><g class="shapelayer"/><g class="imagelayer"/></g><g class="minor-gridlayer"><g class="x"/><g class="y"/></g><g class="gridlayer"><g class="x"><path class="xgrid crisp" transform="translate(24.89,0)" d="M0,50v75" style="stroke: rgb(235, 240, 248); stroke-opacity: 1; stroke-width: 1px;"/><path class="xgrid crisp" transform="translate(117.23,0)" d="M0,50v75" style="stroke: rgb(235, 240, 248); stroke-opacity: 1; stroke-width: 1px;"/><path class="xgrid crisp" transform="translate(208.09,0)" d="M0,50v75" style="stroke: rgb(235, 240, 248); stroke-opacity: 1; stroke-width: 1px;"/></g><g class="y"><path class="ygrid crisp" transform="translate(0,101.28999999999999)" d="M10,0h280" style="stroke: rgb(235, 240, 248); stroke-opacity: 1; stroke-width: 1px;"/><path class="ygrid crisp" transform="translate(0,77.58)" d="M10,0h280" style="stroke: rgb(235, 240, 248); stroke-opacity: 1; stroke-width: 1px;"/><path class="ygrid crisp" transform="translate(0,53.87)" d="M10,0h280" style="stroke: rgb(235, 240, 248); stroke-opacity: 1; stroke-width: 1px;"/></g></g><g class="zerolinelayer"><path class="yzl zl crisp" transform="translate(0,125)" d="M10,0h280" style="stroke: rgb(235, 240, 248); stroke-opacity: 1; stroke-width: 2px;"/></g><path class="xlines-below"/><path class="ylines-below"/><g class="overlines-below"/><g class="xaxislayer-below"/><g class="yaxislayer-below"/><g class="overaxes-below"/><g class="plot" transform="translate(10,50)" clip-path="url(#clipcd2c6cxyplot)"><g class="scatterlayer mlayer"><g class="trace scatter traceea03d7" style="stroke-miterlimit: 2; opacity: 1;"><g class="fills"/><g class="errorbars"/><g class="lines"><path class="js-line" d="M0,50.22L4.47,47.14L5.96,47.14L11.91,47.38L13.4,46.55L34.26,45.6L35.74,44.89L64.04,44.06L65.53,39.08L83.4,39.08L86.38,42.52L87.87,41.81L90.85,41.81L102.77,41.57L104.26,44.18L107.23,45.48L108.72,45.01L110.21,44.53L111.7,45.6L150.43,44.89L151.91,42.52L154.89,43.47L156.38,43.47L157.87,43.23L159.36,39.32L160.85,36.94L162.34,36.94L165.32,36.35L166.81,32.44L169.79,30.19L171.28,30.19L175.74,29.48L177.23,28.41L181.7,25.8L183.19,25.8L195.11,26.16L196.6,27.34L208.51,27.34L210,25.68L211.49,25.68L212.98,22.84L218.94,22.84L220.43,19.64L229.36,19.64L230.85,17.74L233.83,17.03L235.32,17.03L241.28,14.66L242.77,10.63L245.74,10.63L247.23,8.61L248.72,3.75L250.21,3.75L262.13,3.75L263.62,5.53L266.6,6.36L268.09,6.36L269.57,6.83L271.06,8.73L274.04,8.97L275.53,8.14L280,8.14" style="vector-effect: none; fill: none; stroke: rgb(138, 44, 81); stroke-opacity: 1; stroke-width: 5px; opacity: 1;"/></g><g class="points"/><g class="text"/></g><g class="trace scatter trace40368e" style="stroke-miterlimit: 2; opacity: 1;"><g class="fills"/><g class="errorbars"/><g class="lines"><path class="js-line" d="M0,23.31L4.47,24.97L5.96,24.97L11.91,24.73L13.4,24.02L86.38,25.09L87.87,28.41L102.77,27.34L104.26,24.62L105.74,20.58L107.23,20.58L110.21,22.72L111.7,19.16L125.11,19.16L126.6,20.94L128.09,20.94L129.57,19.16L131.06,20.94L132.55,18.81L135.53,18.33L137.02,20.58L140,18.33L141.49,18.33L142.98,18.33L144.47,20.58L145.96,20.58L147.45,18.33L150.43,20.58L151.91,18.45L153.4,21.18L154.89,21.18L163.83,21.89L165.32,22.48L168.3,25.21L169.79,25.33L192.13,26.16L193.62,26.87L211.49,26.99L212.98,28.17L229.36,27.93L230.85,29.83L241.28,32.32L242.77,30.07L247.23,31.25L248.72,32.8L262.13,32.8L263.62,31.14L266.6,30.19L268.09,30.19L269.57,29.71L271.06,26.99L274.04,26.39L275.53,26.75L280,26.75" style="vector-effect: none; fill: none; stroke: rgb(0, 174, 239); stroke-opacity: 1; stroke-width: 5px; opacity: 1;"/></g><g class="points"/><g class="text"/></g><g class="trace scatter trace9ad0f8" style="stroke-miterlimit: 2; opacity: 1;"><g class="fills"/><g class="errorbars"/><g class="lines"><path class="js-line" d="M0,63.03L10.43,64.21L11.91,63.5L14.89,62.79L16.38,62.79L64.04,63.03L65.53,64.45L86.38,63.5L87.87,55.79L104.26,56.51L105.74,57.22L132.55,57.57L134.04,58.05L150.43,57.22L151.91,60.66L153.4,58.28L154.89,58.28L157.87,58.4L159.36,60.18L162.34,61.6L163.83,61.6L165.32,61.25L166.81,62.43L174.26,62.67L175.74,62.55L183.19,63.14L184.68,63.14L192.13,62.67L193.62,61.6L195.11,61.6L196.6,59.94L208.51,59.94L210,61.49L215.96,63.62L217.45,63.62L238.3,64.8L239.79,64.92L241.28,64.92L242.77,68.6L262.13,69.78L263.62,69.9L272.55,70.85L274.04,71.09L278.51,71.56L280,71.56" style="vector-effect: none; fill: none; stroke: rgb(255, 1, 170); stroke-opacity: 1; stroke-width: 5px; opacity: 1;"/></g><g class="points"/><g class="text"/></g><g class="trace scatter traced144c1" style="stroke-miterlimit: 2; opacity: 1;"><g class="fills"/><g class="errorbars"/><g class="lines"><path class="js-line" d="M0,62.55L8.94,63.03L10.43,62.55L37.23,63.97L38.72,63.97L64.04,63.74L65.53,65.52L86.38,64.8L87.87,66.35L104.26,66.7L105.74,68.01L108.72,67.29L110.21,66.58L113.19,68.6L114.68,68.6L151.91,67.65L153.4,66.82L157.87,66.94L159.36,68.12L163.83,68.72L165.32,68.95L172.77,69.78L174.26,69.78L187.66,71.32L189.15,71.32L241.28,71.32L242.77,73.58L247.23,73.81" style="vector-effect: none; fill: none; stroke: rgb(238, 58, 67); stroke-opacity: 1; stroke-width: 5px; opacity: 1;"/></g><g class="points"/><g class="text"/></g><g class="trace scatter traceb36e49" style="stroke-miterlimit: 2; opacity: 1;"><g class="fills"/><g class="errorbars"/><g class="lines"><path class="js-line" d="M0,66.7L14.89,66.82L16.38,66.82L55.11,67.18L56.6,68.12L83.4,69.07L86.38,67.65L87.87,70.73L90.85,70.73L110.21,71.68L111.7,72.15L175.74,72.98L177.23,73.46L218.94,73.46" style="vector-effect: none; fill: none; stroke: rgb(255, 192, 203); stroke-opacity: 1; stroke-width: 5px; opacity: 1;"/></g><g class="points"/><g class="text"/></g></g></g><g class="overplot"/><path class="xlines-above crisp" d="M0,0" style="fill: none;"/><path class="ylines-above crisp" d="M0,0" style="fill: none;"/><g class="overlines-above"/><g class="xaxislayer-above"/><g class="yaxislayer-above"/><g class="overaxes-above"/></g></g><g class="polarlayer"/><g class="smithlayer"/><g class="ternarylayer"/><g class="geolayer"/><g class="funnelarealayer"/><g class="pielayer"/><g class="iciclelayer"/><g class="treemaplayer"/><g class="sunburstlayer"/><g class="glimages"/><defs id="topdefs-cd2c6c"><g class="clips"/></defs><g class="layer-above"><g class="imagelayer"/><g class="shapelayer"/></g><g class="infolayer"><g class="g-gtitle"><text class="gtitle" x="15" y="25" text-anchor="start" dy="0em" style="font-family: Ubuntu, verdana, arial, sans-serif; font-size: 16px; fill: rgb(233, 84, 32); opacity: 1; font-weight: normal; white-space: pre;">Prezident/ka 2024</text></g><g class="g-xtitle"/><g class="g-ytitle"/></g></svg>