<svg class="main-svg" xmlns="http://www.w3.org/2000/svg" xmlns:xlink="http://www.w3.org/1999/xlink" width="300" height="135" style="" viewBox="0 0 300 135"><rect x="0" y="0" width="300" height="135" style="fill: rgb(255, 255, 255); fill-opacity: 1;"/><defs id="defs-278885"><g class="clips"><clipPath id="clip278885xyplot" class="plotclip"><rect width="280" height="75"/></clipPath><clipPath class="axesclip" id="clip278885x"><rect x="10" y="0" width="280" height="135"/></clipPath><clipPath class="axesclip" id="clip278885y"><rect x="0" y="50" width="300" height="75"/></clipPath><clipPath class="axesclip" id="clip278885xy"><rect x="10" y="50" width="280" height="75"/></clipPath></g><g class="gradients"/><g class="patterns"/></defs><g class="bglayer"/><g class="layer-below"><g class="imagelayer"/><g class="shapelayer"/></g><g class="cartesianlayer"><g class="subplot xy"><g class="layer-subplot"><g class="shapelayer"/><g class="imagelayer"/></g><g class="minor-gridlayer"><g class="x"/><g class="y"/></g><g class="gridlayer"><g class="x"><path class="xgrid crisp" transform="translate(21.380000000000003,0)" d="M0,50v75" style="stroke: rgb(235, 240, 248); stroke-opacity: 1; stroke-width: 1px;"/><path class="xgrid crisp" transform="translate(91.95,0)" d="M0,50v75" style="stroke: rgb(235, 240, 248); stroke-opacity: 1; stroke-width: 1px;"/><path class="xgrid crisp" transform="translate(161.38,0)" d="M0,50v75" style="stroke: rgb(235, 240, 248); stroke-opacity: 1; stroke-width: 1px;"/><path class="xgrid crisp" transform="translate(230.81,0)" d="M0,50v75" style="stroke: rgb(235, 240, 248); stroke-opacity: 1; stroke-width: 1px;"/></g><g class="y"><path class="ygrid crisp" transform="translate(0,102.77000000000001)" d="M10,0h280" style="stroke: rgb(235, 240, 248); stroke-opacity: 1; stroke-width: 1px;"/><path class="ygrid crisp" transform="translate(0,80.53999999999999)" d="M10,0h280" style="stroke: rgb(235, 240, 248); stroke-opacity: 1; stroke-width: 1px;"/><path class="ygrid crisp" transform="translate(0,58.31)" d="M10,0h280" style="stroke: rgb(235, 240, 248); stroke-opacity: 1; stroke-width: 1px;"/></g></g><g class="zerolinelayer"><path class="yzl zl crisp" transform="translate(0,125)" d="M10,0h280" style="stroke: rgb(235, 240, 248); stroke-opacity: 1; stroke-width: 2px;"/></g><path class="xlines-below"/><path class="ylines-below"/><g class="overlines-below"/><g class="xaxislayer-below"/><g class="yaxislayer-below"/><g class="overaxes-below"/><g class="plot" transform="translate(10,50)" clip-path="url(#clip278885xyplot)"><g class="scatterlayer mlayer"><g class="trace scatter trace81e86b" style="stroke-miterlimit: 2; opacity: 1;"><g class="fills"/><g class="errorbars"/><g class="lines"><path class="js-line" d="M267.48,21.65L280,21.53" style="vector-effect: none; fill: none; stroke: rgb(187, 187, 187); stroke-opacity: 1; stroke-width: 5px; opacity: 1;"/></g><g class="points"/><g class="text"/></g><g class="trace scatter trace4c9846" style="stroke-miterlimit: 2; opacity: 1;"><g class="fills"/><g class="errorbars"/><g class="lines"><path class="js-line" d="M0,51.77L3.41,48.88L4.55,48.88L9.11,49.1L10.24,48.32L26.18,47.43L27.32,46.77L48.94,45.99L50.08,41.32L63.74,41.32L66.02,44.54L69.43,43.88L70.57,43.88L78.54,43.65L79.67,46.1L81.95,47.32L83.09,46.88L84.23,46.43L85.37,47.43L114.96,46.77L116.1,44.54L118.37,45.43L119.51,45.43L120.65,45.21L121.79,41.54L124.07,39.32L125.2,39.32L126.34,38.76L127.48,35.1L129.76,32.98L130.89,32.98L134.31,32.32L135.45,31.32L138.86,28.87L140,28.87L149.11,29.2L150.24,30.32L159.35,30.32L160.49,28.76L161.63,28.76L162.76,26.09L167.32,26.09L168.46,23.09L175.28,23.09L176.42,21.31L183.25,18.42L184.39,18.42L186.67,14.64L187.8,14.64L188.94,12.75L190.08,8.2L200.33,8.2L201.46,9.86L203.74,10.64L204.88,10.64L207.15,12.86L208.29,13.53L213.98,12.31L215.12,12.31L221.95,12.42L223.09,8.75L225.37,5.08L226.5,4.97L229.92,5.86L231.06,3.75L234.47,4.75L235.61,5.64L237.89,6.75L239.02,10.53L240.16,11.86L241.3,10.53L243.58,10.64L244.72,8.86L246.99,8.97L248.13,9.09L250.41,8.64L251.54,7.75L254.96,4.64L256.1,4.64L259.51,6.64L260.65,5.75L262.93,6.42L264.07,8.64L266.34,14.87L267.48,43.65L278.86,43.88L280,42.54" style="vector-effect: none; fill: none; stroke: rgb(138, 44, 81); stroke-opacity: 1; stroke-width: 5px; opacity: 1;"/></g><g class="points"/><g class="text"/></g><g class="trace scatter trace1e9ae2" style="stroke-miterlimit: 2; opacity: 1;"><g class="fills"/><g class="errorbars"/><g class="lines"><path class="js-line" d="M0,26.54L4.55,28.09L5.69,28.09L9.11,27.87L10.24,27.2L66.02,28.2L67.15,31.32L78.54,30.32L79.67,27.76L81.95,23.98L83.09,24.98L84.23,25.98L85.37,22.65L95.61,22.65L96.75,24.31L97.89,24.31L99.02,22.65L100.16,24.31L101.3,22.31L103.58,21.87L104.72,23.98L106.99,21.87L108.13,21.87L109.27,21.87L110.41,23.98L111.54,23.98L112.68,21.87L114.96,23.98L116.1,21.98L118.37,24.54L119.51,24.54L126.34,25.76L127.48,27.65L130.89,28.43L132.03,28.43L146.83,29.2L147.97,29.87L175.28,30.87L176.42,32.65L184.39,34.98L185.53,32.87L188.94,33.98L190.08,35.43L200.33,35.43L201.46,33.87L203.74,32.98L204.88,32.98L206.02,32.54L207.15,29.98L209.43,29.43L210.57,29.76L221.95,29.2L223.09,32.09L225.37,35.43L226.5,35.54L228.78,33.76L229.92,32.98L232.2,35.1L233.33,34.54L237.89,32.09L239.02,28.32L240.16,26.98L241.3,28.32L243.58,28.2L244.72,29.98L246.99,29.87L248.13,29.76L250.41,30.2L251.54,31.09L254.96,34.21L256.1,34.21L259.51,32.21L260.65,33.09L262.93,32.43L264.07,30.2L266.34,23.98L267.48,48.66L278.86,48.43L280,49.77" style="vector-effect: none; fill: none; stroke: rgb(0, 174, 239); stroke-opacity: 1; stroke-width: 5px; opacity: 1;"/></g><g class="points"/><g class="text"/></g><g class="trace scatter trace8ce06d" style="stroke-miterlimit: 2; opacity: 1;"><g class="fills"/><g class="errorbars"/><g class="lines"><path class="js-line" d="M0,66.22L6.83,66.44L7.97,64.88L10.24,68.33L11.38,68.33L81.95,68.89L83.09,69.33L85.37,69L86.5,69L121.79,70.11L122.93,70.33L135.45,71.55L136.59,71.78L141.14,72.11L142.28,72.11L184.39,73.33L185.53,73.67L188.94,73.89" style="vector-effect: none; fill: none; stroke: rgb(202, 166, 105); stroke-opacity: 1; stroke-width: 5px; opacity: 1;"/></g><g class="points"/><g class="text"/></g><g class="trace scatter trace0a3f14" style="stroke-miterlimit: 2; opacity: 1;"><g class="fills"/><g class="errorbars"/><g class="lines"><path class="js-line" d="M0,63.33L6.83,63.77L7.97,63.33L29.59,64.66L30.73,64.66L48.94,64.44L50.08,66.11L66.02,65.44L67.15,66.89L79.67,67.22L80.81,68.44L83.09,67.77L84.23,67.11L86.5,69L87.64,69L116.1,68.11L117.24,67.33L121.79,68.55L122.93,69.11L134.31,70.33L135.45,70.78L143.41,71.55L144.55,71.55L184.39,71.55L185.53,73.67L188.94,73.89" style="vector-effect: none; fill: none; stroke: rgb(238, 58, 67); stroke-opacity: 1; stroke-width: 5px; opacity: 1;"/></g><g class="points"/><g class="text"/></g></g></g><g class="overplot"/><path class="xlines-above crisp" d="M0,0" style="fill: none;"/><path class="ylines-above crisp" d="M0,0" style="fill: none;"/><g class="overlines-above"/><g class="xaxislayer-above"/><g class="yaxislayer-above"/><g class="overaxes-above"/></g></g><g class="polarlayer"/><g class="smithlayer"/><g class="ternarylayer"/><g class="geolayer"/><g class="funnelarealayer"/><g class="pielayer"/><g class="iciclelayer"/><g class="treemaplayer"/><g class="sunburstlayer"/><g class="glimages"/><defs id="topdefs-278885"><g class="clips"/></defs><g class="layer-above"><g class="imagelayer"/><g class="shapelayer"/></g><g class="infolayer"><g class="g-gtitle"><text class="gtitle" x="15" y="25" text-anchor="start" dy="0em" style="font-family: Ubuntu, verdana, arial, sans-serif; font-size: 16px; fill: rgb(233, 84, 32); opacity: 1; font-weight: normal; white-space: pre;">Prezident/ka 2024</text></g><g class="g-xtitle"/><g class="g-ytitle"/></g></svg>