<svg class="main-svg" xmlns="http://www.w3.org/2000/svg" xmlns:xlink="http://www.w3.org/1999/xlink" width="1200" height="600" style="" viewBox="0 0 1200 600"><rect x="0" y="0" width="1200" height="600" style="fill: rgb(255, 255, 255); fill-opacity: 1;"/><defs id="defs-a5dc61"><g class="clips"><clipPath id="clipa5dc61xyplot" class="plotclip"><rect width="990" height="530"/></clipPath><clipPath class="axesclip" id="clipa5dc61x"><rect x="50" y="0" width="990" height="600"/></clipPath><clipPath class="axesclip" id="clipa5dc61y"><rect x="0" y="20" width="1200" height="530"/></clipPath><clipPath class="axesclip" id="clipa5dc61xy"><rect x="50" y="20" width="990" height="530"/></clipPath></g><g class="gradients"/><g class="patterns"/></defs><g class="bglayer"/><g class="layer-below"><g class="imagelayer"/><g class="shapelayer"/></g><g class="cartesianlayer"><g class="subplot xy"><g class="layer-subplot"><g class="shapelayer"/><g class="imagelayer"/></g><g class="minor-gridlayer"><g class="x"/><g class="y"/></g><g class="gridlayer"><g class="x"><path class="xgrid crisp" transform="translate(83,0)" d="M0,20v530" style="stroke: rgb(235, 240, 248); stroke-opacity: 1; stroke-width: 1px;"/><path class="xgrid crisp" transform="translate(185.3,0)" d="M0,20v530" style="stroke: rgb(235, 240, 248); stroke-opacity: 1; stroke-width: 1px;"/><path class="xgrid crisp" transform="translate(287.6,0)" d="M0,20v530" style="stroke: rgb(235, 240, 248); stroke-opacity: 1; stroke-width: 1px;"/><path class="xgrid crisp" transform="translate(386.6,0)" d="M0,20v530" style="stroke: rgb(235, 240, 248); stroke-opacity: 1; stroke-width: 1px;"/><path class="xgrid crisp" transform="translate(488.9,0)" d="M0,20v530" style="stroke: rgb(235, 240, 248); stroke-opacity: 1; stroke-width: 1px;"/><path class="xgrid crisp" transform="translate(587.9,0)" d="M0,20v530" style="stroke: rgb(235, 240, 248); stroke-opacity: 1; stroke-width: 1px;"/><path class="xgrid crisp" transform="translate(690.2,0)" d="M0,20v530" style="stroke: rgb(235, 240, 248); stroke-opacity: 1; stroke-width: 1px;"/><path class="xgrid crisp" transform="translate(792.5,0)" d="M0,20v530" style="stroke: rgb(235, 240, 248); stroke-opacity: 1; stroke-width: 1px;"/><path class="xgrid crisp" transform="translate(888.2,0)" d="M0,20v530" style="stroke: rgb(235, 240, 248); stroke-opacity: 1; stroke-width: 1px;"/><path class="xgrid crisp" transform="translate(990.5,0)" d="M0,20v530" style="stroke: rgb(235, 240, 248); stroke-opacity: 1; stroke-width: 1px;"/></g><g class="y"><path class="ygrid crisp" transform="translate(0,449.5)" d="M50,0h990" style="stroke: rgb(235, 240, 248); stroke-opacity: 1; stroke-width: 1px;"/><path class="ygrid crisp" transform="translate(0,349)" d="M50,0h990" style="stroke: rgb(235, 240, 248); stroke-opacity: 1; stroke-width: 1px;"/><path class="ygrid crisp" transform="translate(0,248.5)" d="M50,0h990" style="stroke: rgb(235, 240, 248); stroke-opacity: 1; stroke-width: 1px;"/><path class="ygrid crisp" transform="translate(0,148)" d="M50,0h990" style="stroke: rgb(235, 240, 248); stroke-opacity: 1; stroke-width: 1px;"/><path class="ygrid crisp" transform="translate(0,47.5)" d="M50,0h990" style="stroke: rgb(235, 240, 248); stroke-opacity: 1; stroke-width: 1px;"/></g></g><g class="zerolinelayer"><path class="yzl zl crisp" transform="translate(0,550)" d="M50,0h990" style="stroke: rgb(235, 240, 248); stroke-opacity: 1; stroke-width: 2px;"/></g><path class="xlines-below"/><path class="ylines-below"/><g class="overlines-below"/><g class="xaxislayer-below"/><g class="yaxislayer-below"/><g class="overaxes-below"/><g class="plot" transform="translate(50,20)" clip-path="url(#clipa5dc61xyplot)"><g class="scatterlayer mlayer"><g class="trace scatter trace0e945e" style="stroke-miterlimit: 2; opacity: 1;"><g class="fills"/><g class="errorbars"/><g class="lines"><path class="js-line" d="M0,319.96L6.6,293.83L9.9,293.83L19.8,293.83L23.1,300.86L29.7,288.8L33,288.8L46.2,288.8L49.5,285.79L59.4,285.79L62.7,282.77L66,280.76L69.3,280.76L75.9,280.76L79.2,274.73L122.1,274.73L125.4,267.7L141.9,267.7L145.2,225.49L184.8,225.49L191.4,254.63L194.7,248.6L201.3,248.6L224.4,247.6L227.7,246.59L231,268.7L234.3,279.76L237.6,279.76L240.9,275.74L244.2,271.72L247.5,280.76L277.2,280.76L280.5,276.74L283.8,276.74L287.1,280.76L290.4,276.74L293.7,279.76L297,276.74L300.3,276.74L303.6,274.73L306.9,276.74L316.8,276.74L320.1,274.73L323.4,274.73L326.7,276.74L330,274.73L333.3,274.73L336.6,254.63L339.9,262.67L346.5,262.67L349.8,260.66L353.1,227.5L356.4,207.4L363,207.4L366.3,202.37L369.6,169.21L372.9,153.13L376.2,150.11L379.5,150.11L386.1,150.11L389.4,144.08L396,127L399.3,112.93L425.7,113.93L429,115.94L432.3,115.94L435.6,125.99L462,125.99L465.3,111.92L468.6,111.92L471.9,87.8L485.1,87.8L488.4,60.67L508.2,60.67L511.5,44.59L514.8,38.56L518.1,38.56L521.4,38.56L524.7,32.53L528,26.5" style="vector-effect: none; fill: none; stroke: rgb(138, 44, 81); stroke-opacity: 1; stroke-width: 5px; opacity: 1;"/></g><g class="points"/><g class="text"/></g><g class="trace scatter trace0ecc87" style="stroke-miterlimit: 2; opacity: 1;"><g class="fills"/><g class="errorbars"/><g class="lines"><path class="js-line" d="M0,91.82L6.6,105.89L9.9,105.89L19.8,105.89L23.1,112.93L29.7,97.85L33,97.85L59.4,97.85L62.7,99.86L66,101.87L69.3,101.87L75.9,101.87L79.2,106.9L191.4,106.9L194.7,135.04L221.1,135.04L224.4,130.01L227.7,125.99L231,102.88L234.3,68.71L237.6,68.71L244.2,86.8L247.5,56.65L277.2,56.65L280.5,71.72L283.8,71.72L287.1,56.65L290.4,71.72L293.7,53.63L297,49.61L300.3,49.61L303.6,68.71L306.9,49.61L316.8,49.61L320.1,68.71L323.4,68.71L326.7,49.61L330,68.71L333.3,68.71L336.6,50.62L339.9,73.73L349.8,73.73L353.1,79.76L363,79.76L366.3,84.79L369.6,101.87L372.9,107.9L379.5,108.91L382.8,108.91L392.7,108.91L396,111.92L402.6,112.93L405.9,112.93L422.4,112.93L425.7,115.94L429,121.97L432.3,121.97L435.6,125.99L442.2,125.99L465.3,127L468.6,122.98L471.9,133.03L475.2,133.03L485.1,133.03L488.4,131.02L508.2,131.02L511.5,147.1L514.8,151.12L518.1,151.12L521.4,151.12L524.7,157.15L528,162.17" style="vector-effect: none; fill: none; stroke: rgb(0, 174, 239); stroke-opacity: 1; stroke-width: 5px; opacity: 1;"/></g><g class="points"/><g class="text"/></g><g class="trace scatter traced9177e" style="stroke-miterlimit: 2; opacity: 1;"><g class="fills"/><g class="errorbars"/><g class="lines"><path class="js-line" d="M0,428.5L6.6,431.51L9.9,431.51L19.8,431.51L23.1,438.55L29.7,426.49L33,426.49L46.2,426.49L49.5,428.5L62.7,427.49L66,426.49L122.1,426.49L125.4,428.5L141.9,428.5L145.2,440.56L184.8,440.56L191.4,432.52L194.7,367.19L201.3,367.19L221.1,367.19L224.4,370.21L227.7,373.22L231,373.22L234.3,379.25L237.6,379.25L244.2,372.22L247.5,380.26L277.2,380.26L280.5,376.24L283.8,376.24L287.1,380.26L290.4,376.24L293.7,382.27L297,386.29L300.3,386.29L303.6,379.25L306.9,386.29L316.8,386.29L320.1,379.25L323.4,379.25L326.7,386.29L330,379.25L333.3,379.25L336.6,408.4L339.9,388.3L349.8,389.3L353.1,404.38L356.4,416.44L359.7,416.44L363,416.44L366.3,413.42L369.6,423.47L372.9,425.48L389.4,424.48L392.7,423.47L396,425.48L399.3,429.5L422.4,429.5L425.7,425.48L429,416.44L432.3,416.44L435.6,402.37L442.2,402.37L462,402.37L465.3,415.43L468.6,419.45L471.9,433.52L485.1,433.52L488.4,441.56L524.7,442.57L528,443.57" style="vector-effect: none; fill: none; stroke: rgb(255, 1, 170); stroke-opacity: 1; stroke-width: 5px; opacity: 1;"/></g><g class="points"/><g class="text"/></g><g class="trace scatter trace6eea80" style="stroke-miterlimit: 2; opacity: 1;"><g class="fills"/><g class="errorbars"/><g class="lines"><path class="js-line" d="M0,424.48L6.6,428.5L9.9,428.5L19.8,428.5L23.1,424.48L26.4,425.48L29.7,430.51L59.4,431.51L62.7,434.53L66,436.54L69.3,436.54L122.1,436.54L125.4,434.53L141.9,434.53L145.2,449.6L184.8,449.6L191.4,443.57L194.7,456.64L201.3,456.64L224.4,457.64L227.7,459.65L231,459.65L234.3,470.71L237.6,470.71L240.9,464.68L244.2,458.65L247.5,475.73L277.2,475.73L280.5,467.69L283.8,467.69L287.1,475.73L290.4,467.69L293.7,474.73L300.3,474.73L303.6,466.69L306.9,474.73L310.2,474.73L316.8,474.73L320.1,466.69L323.4,466.69L326.7,474.73L330,466.69L333.3,466.69L336.6,467.69L339.9,460.66L349.8,461.66L353.1,471.71L356.4,476.74L359.7,476.74L363,476.74L366.3,478.75L372.9,484.78L376.2,485.78L386.1,485.78L389.4,487.79L392.7,491.81L396,493.82L399.3,498.85L402.6,498.85L485.1,498.85L488.4,497.84L528,498.85" style="vector-effect: none; fill: none; stroke: rgb(238, 58, 67); stroke-opacity: 1; stroke-width: 5px; opacity: 1;"/></g><g class="points"/><g class="text"/></g><g class="trace scatter traced1e888" style="stroke-miterlimit: 2; opacity: 1;"><g class="fills"/><g class="errorbars"/><g class="lines"><path class="js-line" d="M0,450.61L9.9,452.62L13.2,452.62L19.8,452.62L23.1,438.55L29.7,469.7L33,469.7L62.7,468.7L66,467.69L141.9,466.69L145.2,471.71L184.8,471.71L191.4,469.7L194.7,473.72L201.3,473.72L224.4,474.73L227.7,475.73L237.6,474.73L240.9,478.75L244.2,482.77L247.5,475.73L277.2,475.73L280.5,478.75L283.8,478.75L287.1,475.73L290.4,478.75L293.7,477.74L297,481.76L300.3,481.76L303.6,482.77L306.9,481.76L333.3,482.77L336.6,485.78L353.1,485.78L356.4,487.79L366.3,488.8L369.6,489.8L372.9,492.82L376.2,493.82L386.1,493.82L389.4,495.83L399.3,503.87L402.6,503.87L485.1,503.87L488.4,513.92L528,513.92" style="vector-effect: none; fill: none; stroke: rgb(202, 166, 105); stroke-opacity: 1; stroke-width: 5px; opacity: 1;"/></g><g class="points"/><g class="text"/></g><g class="trace scatter tracec353c7" style="stroke-miterlimit: 2; opacity: 1;"><g class="fills"/><g class="errorbars"/><g class="lines"><path class="js-line" d="M0,459.65L9.9,462.67L13.2,462.67L23.1,461.66L26.4,459.65L33,460.66L36.3,460.66L46.2,460.66L49.5,462.67L75.9,461.66L79.2,463.67L122.1,463.67L125.4,471.71L141.9,471.71L145.2,479.75L184.8,479.75L191.4,467.69L194.7,493.82L201.3,493.82L231,494.83L234.3,501.86L244.2,501.86L247.5,505.88L277.2,505.88L280.5,503.87L283.8,503.87L287.1,505.88L290.4,503.87L293.7,505.88L300.3,505.88L303.6,503.87L306.9,505.88L310.2,505.88L316.8,505.88L320.1,503.87L323.4,503.87L326.7,505.88L330,503.87L333.3,503.87L336.6,506.89L339.9,504.88L363,505.88L366.3,506.89L372.9,509.9L376.2,510.91L386.1,510.91L389.4,512.92L392.7,516.94L396,516.94L402.6,517.94L405.9,517.94L485.1,516.94" style="vector-effect: none; fill: none; stroke: rgb(255, 192, 203); stroke-opacity: 1; stroke-width: 5px; opacity: 1;"/></g><g class="points"/><g class="text"/></g></g></g><g class="overplot"/><path class="xlines-above crisp" d="M0,0" style="fill: none;"/><path class="ylines-above crisp" d="M0,0" style="fill: none;"/><g class="overlines-above"/><g class="xaxislayer-above"><g class="xtick"><text text-anchor="middle" x="0" y="563" transform="translate(83,0)" style="font-family: 'Open Sans', verdana, arial, sans-serif; font-size: 12px; fill: rgb(42, 63, 95); fill-opacity: 1; white-space: pre; opacity: 1;">1.7.23</text></g><g class="xtick"><text text-anchor="middle" x="0" y="563" style="font-family: 'Open Sans', verdana, arial, sans-serif; font-size: 12px; fill: rgb(42, 63, 95); fill-opacity: 1; white-space: pre; opacity: 1;" transform="translate(185.3,0)">1.8.23</text></g><g class="xtick"><text text-anchor="middle" x="0" y="563" style="font-family: 'Open Sans', verdana, arial, sans-serif; font-size: 12px; fill: rgb(42, 63, 95); fill-opacity: 1; white-space: pre; opacity: 1;" transform="translate(287.6,0)">1.9.23</text></g><g class="xtick"><text text-anchor="middle" x="0" y="563" style="font-family: 'Open Sans', verdana, arial, sans-serif; font-size: 12px; fill: rgb(42, 63, 95); fill-opacity: 1; white-space: pre; opacity: 1;" transform="translate(386.6,0)">1.10.23</text></g><g class="xtick"><text text-anchor="middle" x="0" y="563" style="font-family: 'Open Sans', verdana, arial, sans-serif; font-size: 12px; fill: rgb(42, 63, 95); fill-opacity: 1; white-space: pre; opacity: 1;" transform="translate(488.9,0)">1.11.23</text></g><g class="xtick"><text text-anchor="middle" x="0" y="563" style="font-family: 'Open Sans', verdana, arial, sans-serif; font-size: 12px; fill: rgb(42, 63, 95); fill-opacity: 1; white-space: pre; opacity: 1;" transform="translate(587.9,0)">1.12.23</text></g><g class="xtick"><text text-anchor="middle" x="0" y="563" style="font-family: 'Open Sans', verdana, arial, sans-serif; font-size: 12px; fill: rgb(42, 63, 95); fill-opacity: 1; white-space: pre; opacity: 1;" transform="translate(690.2,0)">1.1.24</text></g><g class="xtick"><text text-anchor="middle" x="0" y="563" style="font-family: 'Open Sans', verdana, arial, sans-serif; font-size: 12px; fill: rgb(42, 63, 95); fill-opacity: 1; white-space: pre; opacity: 1;" transform="translate(792.5,0)">1.2.24</text></g><g class="xtick"><text text-anchor="middle" x="0" y="563" style="font-family: 'Open Sans', verdana, arial, sans-serif; font-size: 12px; fill: rgb(42, 63, 95); fill-opacity: 1; white-space: pre; opacity: 1;" transform="translate(888.2,0)">1.3.24</text></g><g class="xtick"><text text-anchor="middle" x="0" y="563" style="font-family: 'Open Sans', verdana, arial, sans-serif; font-size: 12px; fill: rgb(42, 63, 95); fill-opacity: 1; white-space: pre; opacity: 1;" transform="translate(990.5,0)">1.4.24</text></g></g><g class="yaxislayer-above"><g class="ytick"><text text-anchor="end" x="49" y="4.199999999999999" transform="translate(0,550)" style="font-family: 'Open Sans', verdana, arial, sans-serif; font-size: 12px; fill: rgb(42, 63, 95); fill-opacity: 1; white-space: pre; opacity: 1;">0%</text></g><g class="ytick"><text text-anchor="end" x="49" y="4.199999999999999" style="font-family: 'Open Sans', verdana, arial, sans-serif; font-size: 12px; fill: rgb(42, 63, 95); fill-opacity: 1; white-space: pre; opacity: 1;" transform="translate(0,449.5)">10%</text></g><g class="ytick"><text text-anchor="end" x="49" y="4.199999999999999" style="font-family: 'Open Sans', verdana, arial, sans-serif; font-size: 12px; fill: rgb(42, 63, 95); fill-opacity: 1; white-space: pre; opacity: 1;" transform="translate(0,349)">20%</text></g><g class="ytick"><text text-anchor="end" x="49" y="4.199999999999999" style="font-family: 'Open Sans', verdana, arial, sans-serif; font-size: 12px; fill: rgb(42, 63, 95); fill-opacity: 1; white-space: pre; opacity: 1;" transform="translate(0,248.5)">30%</text></g><g class="ytick"><text text-anchor="end" x="49" y="4.199999999999999" style="font-family: 'Open Sans', verdana, arial, sans-serif; font-size: 12px; fill: rgb(42, 63, 95); fill-opacity: 1; white-space: pre; opacity: 1;" transform="translate(0,148)">40%</text></g><g class="ytick"><text text-anchor="end" x="49" y="4.199999999999999" style="font-family: 'Open Sans', verdana, arial, sans-serif; font-size: 12px; fill: rgb(42, 63, 95); fill-opacity: 1; white-space: pre; opacity: 1;" transform="translate(0,47.5)">50%</text></g></g><g class="overaxes-above"/></g></g><g class="polarlayer"/><g class="smithlayer"/><g class="ternarylayer"/><g class="geolayer"/><g class="funnelarealayer"/><g class="pielayer"/><g class="iciclelayer"/><g class="treemaplayer"/><g class="sunburstlayer"/><g class="glimages"/><defs id="topdefs-a5dc61"><g class="clips"/><clipPath id="legenda5dc61"><rect width="128" height="124" x="0" y="0"/></clipPath></defs><g class="layer-above"><g class="imagelayer"/><g class="shapelayer"/></g><g class="infolayer"><g class="legend" pointer-events="all" transform="translate(1059.8000000000002,20)"><rect class="bg" shape-rendering="crispEdges" style="stroke: rgb(68, 68, 68); stroke-opacity: 1; fill: rgb(255, 255, 255); fill-opacity: 1; stroke-width: 0px;" width="128" height="124" x="0" y="0"/><g class="scrollbox" transform="" clip-path="url(#legenda5dc61)"><g class="groups"><g class="traces" transform="translate(0,14.5)" style="opacity: 1;"><text class="legendtext" text-anchor="start" x="40" y="4.680000000000001" style="font-family: 'Open Sans', verdana, arial, sans-serif; font-size: 12px; fill: rgb(42, 63, 95); fill-opacity: 1; white-space: pre;">Pellegrini Peter</text><g class="layers" style="opacity: 1;"><g class="legendfill"/><g class="legendlines"><path class="js-line" d="M5,0h30" style="fill: none; stroke: rgb(138, 44, 81); stroke-opacity: 1; stroke-width: 5px;"/></g><g class="legendsymbols"><g class="legendpoints"/></g></g><rect class="legendtoggle" x="0" y="-9.5" width="122.703125" height="19" style="fill: rgb(0, 0, 0); fill-opacity: 0;"/></g><g class="traces" transform="translate(0,33.5)" style="opacity: 1;"><text class="legendtext" text-anchor="start" x="40" y="4.680000000000001" style="font-family: 'Open Sans', verdana, arial, sans-serif; font-size: 12px; fill: rgb(42, 63, 95); fill-opacity: 1; white-space: pre;">Korčok Ivan</text><g class="layers" style="opacity: 1;"><g class="legendfill"/><g class="legendlines"><path class="js-line" d="M5,0h30" style="fill: none; stroke: rgb(0, 174, 239); stroke-opacity: 1; stroke-width: 5px;"/></g><g class="legendsymbols"><g class="legendpoints"/></g></g><rect class="legendtoggle" x="0" y="-9.5" width="122.703125" height="19" style="fill: rgb(0, 0, 0); fill-opacity: 0;"/></g><g class="traces" transform="translate(0,52.5)" style="opacity: 1;"><text class="legendtext" text-anchor="start" x="40" y="4.680000000000001" style="font-family: 'Open Sans', verdana, arial, sans-serif; font-size: 12px; fill: rgb(42, 63, 95); fill-opacity: 1; white-space: pre;">Kubiš Ján</text><g class="layers" style="opacity: 1;"><g class="legendfill"/><g class="legendlines"><path class="js-line" d="M5,0h30" style="fill: none; stroke: rgb(255, 1, 170); stroke-opacity: 1; stroke-width: 5px;"/></g><g class="legendsymbols"><g class="legendpoints"/></g></g><rect class="legendtoggle" x="0" y="-9.5" width="122.703125" height="19" style="fill: rgb(0, 0, 0); fill-opacity: 0;"/></g><g class="traces" transform="translate(0,71.5)" style="opacity: 1;"><text class="legendtext" text-anchor="start" x="40" y="4.680000000000001" style="font-family: 'Open Sans', verdana, arial, sans-serif; font-size: 12px; fill: rgb(42, 63, 95); fill-opacity: 1; white-space: pre;">Fico Robert</text><g class="layers" style="opacity: 1;"><g class="legendfill"/><g class="legendlines"><path class="js-line" d="M5,0h30" style="fill: none; stroke: rgb(238, 58, 67); stroke-opacity: 1; stroke-width: 5px;"/></g><g class="legendsymbols"><g class="legendpoints"/></g></g><rect class="legendtoggle" x="0" y="-9.5" width="122.703125" height="19" style="fill: rgb(0, 0, 0); fill-opacity: 0;"/></g><g class="traces" transform="translate(0,90.5)" style="opacity: 1;"><text class="legendtext" text-anchor="start" x="40" y="4.680000000000001" style="font-family: 'Open Sans', verdana, arial, sans-serif; font-size: 12px; fill: rgb(42, 63, 95); fill-opacity: 1; white-space: pre;">Mistrík Robert</text><g class="layers" style="opacity: 1;"><g class="legendfill"/><g class="legendlines"><path class="js-line" d="M5,0h30" style="fill: none; stroke: rgb(202, 166, 105); stroke-opacity: 1; stroke-width: 5px;"/></g><g class="legendsymbols"><g class="legendpoints"/></g></g><rect class="legendtoggle" x="0" y="-9.5" width="122.703125" height="19" style="fill: rgb(0, 0, 0); fill-opacity: 0;"/></g><g class="traces" transform="translate(0,109.5)" style="opacity: 1;"><text class="legendtext" text-anchor="start" x="40" y="4.680000000000001" style="font-family: 'Open Sans', verdana, arial, sans-serif; font-size: 12px; fill: rgb(42, 63, 95); fill-opacity: 1; white-space: pre;">Lajčák Miroslav</text><g class="layers" style="opacity: 1;"><g class="legendfill"/><g class="legendlines"><path class="js-line" d="M5,0h30" style="fill: none; stroke: rgb(255, 192, 203); stroke-opacity: 1; stroke-width: 5px;"/></g><g class="legendsymbols"><g class="legendpoints"/></g></g><rect class="legendtoggle" x="0" y="-9.5" width="122.703125" height="19" style="fill: rgb(0, 0, 0); fill-opacity: 0;"/></g></g></g><rect class="scrollbar" rx="20" ry="3" width="0" height="0" style="fill: rgb(128, 139, 164); fill-opacity: 1;" x="0" y="0"/></g><g class="g-gtitle"/><g class="g-xtitle"/><g class="g-ytitle"/></g></svg>