<svg class="main-svg" xmlns="http://www.w3.org/2000/svg" xmlns:xlink="http://www.w3.org/1999/xlink" width="300" height="135" style="" viewBox="0 0 300 135"><rect x="0" y="0" width="300" height="135" style="fill: rgb(255, 255, 255); fill-opacity: 1;"/><defs id="defs-1b0911"><g class="clips"><clipPath id="clip1b0911xyplot" class="plotclip"><rect width="280" height="75"/></clipPath><clipPath class="axesclip" id="clip1b0911x"><rect x="10" y="0" width="280" height="135"/></clipPath><clipPath class="axesclip" id="clip1b0911y"><rect x="0" y="50" width="300" height="75"/></clipPath><clipPath class="axesclip" id="clip1b0911xy"><rect x="10" y="50" width="280" height="75"/></clipPath></g><g class="gradients"/><g class="patterns"/></defs><g class="bglayer"/><g class="layer-below"><g class="imagelayer"/><g class="shapelayer"/></g><g class="cartesianlayer"><g class="subplot xy"><g class="layer-subplot"><g class="shapelayer"/><g class="imagelayer"/></g><g class="minor-gridlayer"><g class="x"/><g class="y"/></g><g class="gridlayer"><g class="x"><path class="xgrid crisp" transform="translate(23.53,0)" d="M0,50v75" style="stroke: rgb(235, 240, 248); stroke-opacity: 1; stroke-width: 1px;"/><path class="xgrid crisp" transform="translate(107.39,0)" d="M0,50v75" style="stroke: rgb(235, 240, 248); stroke-opacity: 1; stroke-width: 1px;"/><path class="xgrid crisp" transform="translate(189.9,0)" d="M0,50v75" style="stroke: rgb(235, 240, 248); stroke-opacity: 1; stroke-width: 1px;"/><path class="xgrid crisp" transform="translate(272.42,0)" d="M0,50v75" style="stroke: rgb(235, 240, 248); stroke-opacity: 1; stroke-width: 1px;"/></g><g class="y"><path class="ygrid crisp" transform="translate(0,102.77000000000001)" d="M10,0h280" style="stroke: rgb(235, 240, 248); stroke-opacity: 1; stroke-width: 1px;"/><path class="ygrid crisp" transform="translate(0,80.53999999999999)" d="M10,0h280" style="stroke: rgb(235, 240, 248); stroke-opacity: 1; stroke-width: 1px;"/><path class="ygrid crisp" transform="translate(0,58.31)" d="M10,0h280" style="stroke: rgb(235, 240, 248); stroke-opacity: 1; stroke-width: 1px;"/></g></g><g class="zerolinelayer"><path class="yzl zl crisp" transform="translate(0,125)" d="M10,0h280" style="stroke: rgb(235, 240, 248); stroke-opacity: 1; stroke-width: 2px;"/></g><path class="xlines-below"/><path class="ylines-below"/><g class="overlines-below"/><g class="xaxislayer-below"/><g class="yaxislayer-below"/><g class="overaxes-below"/><g class="plot" transform="translate(10,50)" clip-path="url(#clip1b0911xyplot)"><g class="scatterlayer mlayer"><g class="trace scatter trace00877d" style="stroke-miterlimit: 2; opacity: 1;"><g class="fills"/><g class="errorbars"/><g class="lines"><path class="js-line" d="M0,51.77L4.06,48.88L5.41,48.88L10.82,49.1L12.17,48.32L31.11,47.43L32.46,46.77L58.16,45.99L59.52,41.32L75.75,41.32L78.45,44.54L82.51,43.88L83.86,43.88L93.33,43.65L94.69,46.1L97.39,47.32L98.74,46.88L100.1,46.43L101.45,47.43L136.62,46.77L137.97,44.54L140.68,45.43L142.03,45.43L143.38,45.21L144.73,41.54L147.44,39.32L148.79,39.32L150.14,38.76L151.5,35.1L154.2,32.98L155.56,32.98L159.61,32.32L160.97,31.32L165.02,28.87L166.38,28.87L177.2,29.2L178.55,30.32L189.37,30.32L190.72,28.76L192.08,28.76L193.43,26.09L198.84,26.09L200.19,23.09L208.31,23.09L209.66,21.31L217.78,18.42L219.13,18.42L220.48,14.64L221.84,14.64L223.19,14.64L224.54,12.75L225.89,8.2L227.25,8.2L238.07,8.2L239.42,9.86L242.13,10.64L243.48,10.64L244.83,11.09L246.18,12.86L248.89,13.09L250.24,12.31L263.77,12.42L265.12,8.75L267.83,5.08L269.18,4.97L273.24,5.86L274.59,3.75L280,4.97" style="vector-effect: none; fill: none; stroke: rgb(138, 44, 81); stroke-opacity: 1; stroke-width: 5px; opacity: 1;"/></g><g class="points"/><g class="text"/></g><g class="trace scatter trace2388e1" style="stroke-miterlimit: 2; opacity: 1;"><g class="fills"/><g class="errorbars"/><g class="lines"><path class="js-line" d="M0,26.54L5.41,28.09L6.76,28.09L10.82,27.87L12.17,27.2L78.45,28.2L79.81,31.32L93.33,30.32L94.69,27.76L96.04,23.98L97.39,23.98L100.1,25.98L101.45,22.65L113.62,22.65L114.98,24.31L116.33,24.31L117.68,22.65L119.03,24.31L120.39,22.31L123.09,21.87L124.44,23.98L127.15,21.87L128.5,21.87L129.86,21.87L131.21,23.98L132.56,23.98L133.91,21.87L136.62,23.98L137.97,21.98L140.68,24.54L142.03,24.54L150.14,25.76L151.5,27.65L155.56,28.43L156.91,28.43L174.49,29.2L175.85,29.87L208.31,30.87L209.66,32.65L219.13,34.98L220.48,32.87L224.54,33.98L225.89,35.43L238.07,35.43L239.42,33.87L242.13,32.98L243.48,32.98L244.83,32.54L246.18,29.98L248.89,29.43L250.24,29.76L263.77,29.2L265.12,32.09L267.83,35.43L269.18,35.54L271.88,33.76L273.24,32.98L275.94,35.1L277.29,34.54L280,33.87" style="vector-effect: none; fill: none; stroke: rgb(0, 174, 239); stroke-opacity: 1; stroke-width: 5px; opacity: 1;"/></g><g class="points"/><g class="text"/></g><g class="trace scatter trace33be9d" style="stroke-miterlimit: 2; opacity: 1;"><g class="fills"/><g class="errorbars"/><g class="lines"><path class="js-line" d="M0,63.77L9.47,64.88L10.82,64.22L14.88,63.55L16.23,63.55L58.16,63.77L59.52,65.11L78.45,64.22L79.81,56.99L94.69,57.66L96.04,58.33L120.39,58.66L121.74,59.1L136.62,58.33L137.97,61.55L140.68,59.33L142.03,59.33L143.38,59.44L144.73,61.11L147.44,62.44L148.79,62.44L150.14,62.11L151.5,63.22L159.61,63.33L160.97,63.22L170.43,63.88L171.79,63.88L174.49,63.44L175.85,62.44L177.2,62.44L178.55,60.88L189.37,60.88L190.72,62.33L197.49,64.33L198.84,64.33L201.55,65.22L202.9,65.22L219.13,65.55L220.48,69L244.83,70.11L246.18,71.11L263.77,72.22L265.12,73L271.88,73.55" style="vector-effect: none; fill: none; stroke: rgb(255, 1, 170); stroke-opacity: 1; stroke-width: 5px; opacity: 1;"/></g><g class="points"/><g class="text"/></g><g class="trace scatter trace756db3" style="stroke-miterlimit: 2; opacity: 1;"><g class="fills"/><g class="errorbars"/><g class="lines"><path class="js-line" d="M0,66.22L8.12,66.44L9.47,64.88L12.17,68.33L13.53,68.33L97.39,68.89L98.74,69.33L101.45,69L102.8,69L144.73,70.11L146.09,70.33L160.97,71.55L162.32,71.78L167.73,72.11L169.08,72.11L219.13,73.33L220.48,73.67L224.54,73.89" style="vector-effect: none; fill: none; stroke: rgb(202, 166, 105); stroke-opacity: 1; stroke-width: 5px; opacity: 1;"/></g><g class="points"/><g class="text"/></g><g class="trace scatter trace932430" style="stroke-miterlimit: 2; opacity: 1;"><g class="fills"/><g class="errorbars"/><g class="lines"><path class="js-line" d="M0,63.33L8.12,63.77L9.47,63.33L35.17,64.66L36.52,64.66L58.16,64.44L59.52,66.11L78.45,65.44L79.81,66.89L94.69,67.22L96.04,68.44L98.74,67.77L100.1,67.11L102.8,69L104.15,69L137.97,68.11L139.32,67.33L144.73,68.55L146.09,69.11L159.61,70.33L160.97,70.78L170.43,71.55L171.79,71.55L219.13,71.55L220.48,73.67L224.54,73.89" style="vector-effect: none; fill: none; stroke: rgb(238, 58, 67); stroke-opacity: 1; stroke-width: 5px; opacity: 1;"/></g><g class="points"/><g class="text"/></g></g></g><g class="overplot"/><path class="xlines-above crisp" d="M0,0" style="fill: none;"/><path class="ylines-above crisp" d="M0,0" style="fill: none;"/><g class="overlines-above"/><g class="xaxislayer-above"/><g class="yaxislayer-above"/><g class="overaxes-above"/></g></g><g class="polarlayer"/><g class="smithlayer"/><g class="ternarylayer"/><g class="geolayer"/><g class="funnelarealayer"/><g class="pielayer"/><g class="iciclelayer"/><g class="treemaplayer"/><g class="sunburstlayer"/><g class="glimages"/><defs id="topdefs-1b0911"><g class="clips"/></defs><g class="layer-above"><g class="imagelayer"/><g class="shapelayer"/></g><g class="infolayer"><g class="g-gtitle"><text class="gtitle" x="15" y="25" text-anchor="start" dy="0em" style="font-family: Ubuntu, verdana, arial, sans-serif; font-size: 16px; fill: rgb(233, 84, 32); opacity: 1; font-weight: normal; white-space: pre;">Prezident/ka 2024</text></g><g class="g-xtitle"/><g class="g-ytitle"/></g></svg>