<svg class="main-svg" xmlns="http://www.w3.org/2000/svg" xmlns:xlink="http://www.w3.org/1999/xlink" width="1200" height="600" style="" viewBox="0 0 1200 600"><rect x="0" y="0" width="1200" height="600" style="fill: rgb(255, 255, 255); fill-opacity: 1;"/><defs id="defs-70236a"><g class="clips"><clipPath id="clip70236axyplot" class="plotclip"><rect width="990" height="530"/></clipPath><clipPath class="axesclip" id="clip70236ax"><rect x="50" y="0" width="990" height="600"/></clipPath><clipPath class="axesclip" id="clip70236ay"><rect x="0" y="20" width="1200" height="530"/></clipPath><clipPath class="axesclip" id="clip70236axy"><rect x="50" y="20" width="990" height="530"/></clipPath></g><g class="gradients"/><g class="patterns"/></defs><g class="bglayer"/><g class="layer-below"><g class="imagelayer"/><g class="shapelayer"/></g><g class="cartesianlayer"><g class="subplot xy"><g class="layer-subplot"><g class="shapelayer"/><g class="imagelayer"/></g><g class="minor-gridlayer"><g class="x"/><g class="y"/></g><g class="gridlayer"><g class="x"><path class="xgrid crisp" transform="translate(83,0)" d="M0,20v530" style="stroke: rgb(235, 240, 248); stroke-opacity: 1; stroke-width: 1px;"/><path class="xgrid crisp" transform="translate(185.3,0)" d="M0,20v530" style="stroke: rgb(235, 240, 248); stroke-opacity: 1; stroke-width: 1px;"/><path class="xgrid crisp" transform="translate(287.6,0)" d="M0,20v530" style="stroke: rgb(235, 240, 248); stroke-opacity: 1; stroke-width: 1px;"/><path class="xgrid crisp" transform="translate(386.6,0)" d="M0,20v530" style="stroke: rgb(235, 240, 248); stroke-opacity: 1; stroke-width: 1px;"/><path class="xgrid crisp" transform="translate(488.9,0)" d="M0,20v530" style="stroke: rgb(235, 240, 248); stroke-opacity: 1; stroke-width: 1px;"/><path class="xgrid crisp" transform="translate(587.9,0)" d="M0,20v530" style="stroke: rgb(235, 240, 248); stroke-opacity: 1; stroke-width: 1px;"/><path class="xgrid crisp" transform="translate(690.2,0)" d="M0,20v530" style="stroke: rgb(235, 240, 248); stroke-opacity: 1; stroke-width: 1px;"/><path class="xgrid crisp" transform="translate(792.5,0)" d="M0,20v530" style="stroke: rgb(235, 240, 248); stroke-opacity: 1; stroke-width: 1px;"/><path class="xgrid crisp" transform="translate(888.2,0)" d="M0,20v530" style="stroke: rgb(235, 240, 248); stroke-opacity: 1; stroke-width: 1px;"/><path class="xgrid crisp" transform="translate(990.5,0)" d="M0,20v530" style="stroke: rgb(235, 240, 248); stroke-opacity: 1; stroke-width: 1px;"/></g><g class="y"><path class="ygrid crisp" transform="translate(0,469.57)" d="M50,0h990" style="stroke: rgb(235, 240, 248); stroke-opacity: 1; stroke-width: 1px;"/><path class="ygrid crisp" transform="translate(0,389.14)" d="M50,0h990" style="stroke: rgb(235, 240, 248); stroke-opacity: 1; stroke-width: 1px;"/><path class="ygrid crisp" transform="translate(0,308.71)" d="M50,0h990" style="stroke: rgb(235, 240, 248); stroke-opacity: 1; stroke-width: 1px;"/><path class="ygrid crisp" transform="translate(0,228.27)" d="M50,0h990" style="stroke: rgb(235, 240, 248); stroke-opacity: 1; stroke-width: 1px;"/><path class="ygrid crisp" transform="translate(0,147.84)" d="M50,0h990" style="stroke: rgb(235, 240, 248); stroke-opacity: 1; stroke-width: 1px;"/><path class="ygrid crisp" transform="translate(0,67.41)" d="M50,0h990" style="stroke: rgb(235, 240, 248); stroke-opacity: 1; stroke-width: 1px;"/></g></g><g class="zerolinelayer"><path class="yzl zl crisp" transform="translate(0,550)" d="M50,0h990" style="stroke: rgb(235, 240, 248); stroke-opacity: 1; stroke-width: 2px;"/></g><path class="xlines-below"/><path class="ylines-below"/><g class="overlines-below"/><g class="xaxislayer-below"/><g class="yaxislayer-below"/><g class="overaxes-below"/><g class="plot" transform="translate(50,20)" clip-path="url(#clip70236axyplot)"><g class="scatterlayer mlayer"><g class="trace scatter trace1852ca" style="stroke-miterlimit: 2; opacity: 1;"><g class="fills"/><g class="errorbars"/><g class="lines"><path class="js-line" d="M0,361.9L6.6,340.99L9.9,340.99L19.8,340.99L23.1,346.62L29.7,336.96L33,336.96L46.2,336.96L49.5,334.55L59.4,334.55L62.7,332.14L66,330.53L69.3,330.53L75.9,330.53L79.2,325.7L122.1,325.7L125.4,320.07L141.9,320.07L145.2,286.29L184.8,286.29L191.4,309.62L194.7,304.79L201.3,304.79L224.4,303.99L227.7,303.18L231,320.88L234.3,329.73L237.6,329.73L240.9,326.51L244.2,323.29L247.5,330.53L277.2,330.53L280.5,327.31L283.8,327.31L287.1,330.53L290.4,327.31L293.7,329.73L297,327.31L300.3,327.31L303.6,325.7L306.9,327.31L316.8,327.31L320.1,325.7L323.4,325.7L326.7,327.31L330,325.7L333.3,325.7L336.6,309.62L339.9,316.05L346.5,316.05L349.8,314.44L353.1,287.9L356.4,271.82L363,271.82L366.3,267.79L369.6,241.25L372.9,228.38L376.2,225.97L379.5,225.97L386.1,225.97L389.4,221.14L396,207.47L399.3,196.21L425.7,197.01L429,198.62L432.3,198.62L435.6,206.67L462,206.67L465.3,195.41L468.6,195.41L471.9,176.1L485.1,176.1L488.4,154.39L508.2,154.39L511.5,141.52L514.8,136.69L518.1,136.69L521.4,136.69L524.7,131.87L528,124.63L531.3,120.6L534.6,120.6L537.9,93.26L544.5,93.26L547.8,79.58L551.1,46.61L554.4,46.61L580.8,46.61L584.1,58.67L587.4,64.3L590.7,64.3L594,64.3L597.3,67.52L600.6,80.39L603.9,85.21L607.2,82L610.5,76.37L633.6,76.37L636.9,74.76L640.2,78.78L643.5,77.17L650.1,32.93L653.4,26.5" style="vector-effect: none; fill: none; stroke: rgb(138, 44, 81); stroke-opacity: 1; stroke-width: 5px; opacity: 1;"/></g><g class="points"/><g class="text"/></g><g class="trace scatter trace86ea41" style="stroke-miterlimit: 2; opacity: 1;"><g class="fills"/><g class="errorbars"/><g class="lines"><path class="js-line" d="M0,179.32L6.6,190.58L9.9,190.58L19.8,190.58L23.1,196.21L29.7,184.15L33,184.15L59.4,184.15L62.7,185.75L66,187.36L69.3,187.36L75.9,187.36L79.2,191.38L191.4,191.38L194.7,213.9L221.1,213.9L224.4,209.88L227.7,206.67L231,188.17L234.3,160.82L237.6,160.82L244.2,175.3L247.5,151.17L277.2,151.17L280.5,163.23L283.8,163.23L287.1,151.17L290.4,163.23L293.7,148.76L297,145.54L300.3,145.54L303.6,160.82L306.9,145.54L316.8,145.54L320.1,160.82L323.4,160.82L326.7,145.54L330,160.82L333.3,160.82L336.6,146.34L339.9,164.84L349.8,164.84L353.1,169.67L363,169.67L366.3,173.69L369.6,187.36L372.9,192.19L379.5,192.99L382.8,192.99L392.7,192.99L396,195.41L402.6,196.21L405.9,196.21L422.4,196.21L425.7,198.62L429,203.45L432.3,203.45L435.6,206.67L442.2,206.67L465.3,207.47L468.6,204.25L471.9,212.3L475.2,212.3L485.1,212.3L488.4,210.69L508.2,210.69L511.5,223.56L514.8,226.77L518.1,226.77L521.4,226.77L524.7,231.6L531.3,240.45L534.6,240.45L537.9,225.17L541.2,225.17L544.5,225.17L547.8,233.21L551.1,243.66L554.4,243.66L580.8,243.66L584.1,232.4L587.4,225.97L590.7,225.97L594,225.97L597.3,222.75L600.6,204.25L603.9,198.62L610.5,202.64L613.8,202.64L630.3,202.64L633.6,201.04L636.9,202.64L640.2,198.62L643.5,198.62L646.8,219.54L650.1,234.82L653.4,241.25" style="vector-effect: none; fill: none; stroke: rgb(0, 174, 239); stroke-opacity: 1; stroke-width: 5px; opacity: 1;"/></g><g class="points"/><g class="text"/></g><g class="trace scatter trace0c9a07" style="stroke-miterlimit: 2; opacity: 1;"><g class="fills"/><g class="errorbars"/><g class="lines"><path class="js-line" d="M0,448.76L6.6,451.18L9.9,451.18L19.8,451.18L23.1,456.81L29.7,447.16L33,447.16L46.2,447.16L49.5,448.76L62.7,447.96L66,447.16L122.1,447.16L125.4,448.76L141.9,448.76L145.2,458.42L184.8,458.42L191.4,451.98L194.7,399.7L201.3,399.7L221.1,399.7L224.4,402.11L227.7,404.53L231,404.53L234.3,409.35L237.6,409.35L244.2,403.72L247.5,410.16L277.2,410.16L280.5,406.94L283.8,406.94L287.1,410.16L290.4,406.94L293.7,411.77L297,414.98L300.3,414.98L303.6,409.35L306.9,414.98L316.8,414.98L320.1,409.35L323.4,409.35L326.7,414.98L330,409.35L333.3,409.35L336.6,432.68L339.9,416.59L349.8,417.4L353.1,429.46L356.4,439.11L359.7,439.11L363,439.11L366.3,436.7L369.6,444.74L372.9,446.35L389.4,445.55L392.7,444.74L396,446.35L399.3,449.57L422.4,449.57L425.7,446.35L429,439.11L432.3,439.11L435.6,427.85L442.2,427.85L462,427.85L465.3,438.31L468.6,441.53L471.9,452.79L485.1,452.79L488.4,459.22L524.7,460.02L528,460.83L534.6,461.63L537.9,486.57L544.5,486.57L547.8,489.78L551.1,494.61L554.4,494.61L597.3,494.61L600.6,501.85L603.9,501.85L607.2,503.46L610.5,506.67L613.8,506.67L630.3,506.67L633.6,508.28L640.2,508.28L643.5,509.89L646.8,515.52L650.1,517.94L653.4,517.94" style="vector-effect: none; fill: none; stroke: rgb(255, 1, 170); stroke-opacity: 1; stroke-width: 5px; opacity: 1;"/></g><g class="points"/><g class="text"/></g><g class="trace scatter trace574186" style="stroke-miterlimit: 2; opacity: 1;"><g class="fills"/><g class="errorbars"/><g class="lines"><path class="js-line" d="M0,445.55L6.6,448.76L9.9,448.76L19.8,448.76L23.1,445.55L26.4,446.35L29.7,450.37L59.4,451.18L62.7,453.59L66,455.2L69.3,455.2L122.1,455.2L125.4,453.59L141.9,453.59L145.2,465.65L184.8,465.65L191.4,460.83L194.7,471.29L201.3,471.29L224.4,472.09L227.7,473.7L231,473.7L234.3,482.55L237.6,482.55L240.9,477.72L244.2,472.89L247.5,486.57L277.2,486.57L280.5,480.13L283.8,480.13L287.1,486.57L290.4,480.13L293.7,485.76L300.3,485.76L303.6,479.33L306.9,485.76L310.2,485.76L316.8,485.76L320.1,479.33L323.4,479.33L326.7,485.76L330,479.33L333.3,479.33L336.6,480.13L339.9,474.5L349.8,475.31L353.1,483.35L356.4,487.37L359.7,487.37L363,487.37L366.3,488.98L372.9,493.81L376.2,494.61L386.1,494.61L389.4,496.22L399.3,505.07L402.6,505.07L485.1,505.07L488.4,504.26L534.6,505.07L537.9,520.35L544.5,520.35L547.8,521.96" style="vector-effect: none; fill: none; stroke: rgb(238, 58, 67); stroke-opacity: 1; stroke-width: 5px; opacity: 1;"/></g><g class="points"/><g class="text"/></g><g class="trace scatter trace788c2d" style="stroke-miterlimit: 2; opacity: 1;"><g class="fills"/><g class="errorbars"/><g class="lines"><path class="js-line" d="M0,473.7L9.9,476.11L13.2,476.11L23.1,475.31L26.4,473.7L33,474.5L36.3,474.5L46.2,474.5L49.5,476.11L75.9,475.31L79.2,476.92L122.1,476.92L125.4,483.35L141.9,483.35L145.2,489.78L184.8,489.78L191.4,480.13L194.7,501.04L201.3,501.04L231,501.85L234.3,507.48L244.2,507.48L247.5,510.7L277.2,510.7L280.5,509.09L283.8,509.09L287.1,510.7L290.4,509.09L293.7,510.7L300.3,510.7L303.6,509.09L306.9,510.7L310.2,510.7L316.8,510.7L320.1,509.09L323.4,509.09L326.7,510.7L330,509.09L333.3,509.09L336.6,511.5L339.9,509.89L363,510.7L366.3,511.5L372.9,513.91L376.2,514.72L386.1,514.72L389.4,516.33L392.7,519.54L396,519.54L402.6,520.35L405.9,520.35L485.1,519.54" style="vector-effect: none; fill: none; stroke: rgb(255, 192, 203); stroke-opacity: 1; stroke-width: 5px; opacity: 1;"/></g><g class="points"/><g class="text"/></g><g class="trace scatter trace1610ef" style="stroke-miterlimit: 2; opacity: 1;"><g class="fills"/><g class="errorbars"/><g class="lines"><path class="js-line" d="M0,466.46L9.9,468.07L13.2,468.07L19.8,468.07L23.1,456.81L29.7,481.74L33,481.74L62.7,480.94L66,480.13L141.9,479.33L145.2,483.35L184.8,483.35L191.4,481.74L194.7,484.96L201.3,484.96L224.4,485.76L227.7,486.57L237.6,485.76L240.9,488.98L244.2,492.2L247.5,486.57L277.2,486.57L280.5,488.98L283.8,488.98L287.1,486.57L290.4,488.98L293.7,488.18L297,491.39L300.3,491.39L303.6,492.2L306.9,491.39L333.3,492.2L336.6,494.61L353.1,494.61L356.4,496.22L366.3,497.02L369.6,497.83L372.9,500.24L376.2,501.04L386.1,501.04L389.4,502.65L399.3,509.09L402.6,509.09L485.1,509.09L488.4,517.13L534.6,517.94L537.9,520.35L544.5,520.35L547.8,521.96" style="vector-effect: none; fill: none; stroke: rgb(202, 166, 105); stroke-opacity: 1; stroke-width: 5px; opacity: 1;"/></g><g class="points"/><g class="text"/></g></g></g><g class="overplot"/><path class="xlines-above crisp" d="M0,0" style="fill: none;"/><path class="ylines-above crisp" d="M0,0" style="fill: none;"/><g class="overlines-above"/><g class="xaxislayer-above"><g class="xtick"><text text-anchor="middle" x="0" y="563" transform="translate(83,0)" style="font-family: 'Open Sans', verdana, arial, sans-serif; font-size: 12px; fill: rgb(42, 63, 95); fill-opacity: 1; white-space: pre; opacity: 1;">1.7.23</text></g><g class="xtick"><text text-anchor="middle" x="0" y="563" style="font-family: 'Open Sans', verdana, arial, sans-serif; font-size: 12px; fill: rgb(42, 63, 95); fill-opacity: 1; white-space: pre; opacity: 1;" transform="translate(185.3,0)">1.8.23</text></g><g class="xtick"><text text-anchor="middle" x="0" y="563" style="font-family: 'Open Sans', verdana, arial, sans-serif; font-size: 12px; fill: rgb(42, 63, 95); fill-opacity: 1; white-space: pre; opacity: 1;" transform="translate(287.6,0)">1.9.23</text></g><g class="xtick"><text text-anchor="middle" x="0" y="563" style="font-family: 'Open Sans', verdana, arial, sans-serif; font-size: 12px; fill: rgb(42, 63, 95); fill-opacity: 1; white-space: pre; opacity: 1;" transform="translate(386.6,0)">1.10.23</text></g><g class="xtick"><text text-anchor="middle" x="0" y="563" style="font-family: 'Open Sans', verdana, arial, sans-serif; font-size: 12px; fill: rgb(42, 63, 95); fill-opacity: 1; white-space: pre; opacity: 1;" transform="translate(488.9,0)">1.11.23</text></g><g class="xtick"><text text-anchor="middle" x="0" y="563" style="font-family: 'Open Sans', verdana, arial, sans-serif; font-size: 12px; fill: rgb(42, 63, 95); fill-opacity: 1; white-space: pre; opacity: 1;" transform="translate(587.9,0)">1.12.23</text></g><g class="xtick"><text text-anchor="middle" x="0" y="563" style="font-family: 'Open Sans', verdana, arial, sans-serif; font-size: 12px; fill: rgb(42, 63, 95); fill-opacity: 1; white-space: pre; opacity: 1;" transform="translate(690.2,0)">1.1.24</text></g><g class="xtick"><text text-anchor="middle" x="0" y="563" style="font-family: 'Open Sans', verdana, arial, sans-serif; font-size: 12px; fill: rgb(42, 63, 95); fill-opacity: 1; white-space: pre; opacity: 1;" transform="translate(792.5,0)">1.2.24</text></g><g class="xtick"><text text-anchor="middle" x="0" y="563" style="font-family: 'Open Sans', verdana, arial, sans-serif; font-size: 12px; fill: rgb(42, 63, 95); fill-opacity: 1; white-space: pre; opacity: 1;" transform="translate(888.2,0)">1.3.24</text></g><g class="xtick"><text text-anchor="middle" x="0" y="563" style="font-family: 'Open Sans', verdana, arial, sans-serif; font-size: 12px; fill: rgb(42, 63, 95); fill-opacity: 1; white-space: pre; opacity: 1;" transform="translate(990.5,0)">1.4.24</text></g></g><g class="yaxislayer-above"><g class="ytick"><text text-anchor="end" x="49" y="4.199999999999999" transform="translate(0,550)" style="font-family: 'Open Sans', verdana, arial, sans-serif; font-size: 12px; fill: rgb(42, 63, 95); fill-opacity: 1; white-space: pre; opacity: 1;">0%</text></g><g class="ytick"><text text-anchor="end" x="49" y="4.199999999999999" style="font-family: 'Open Sans', verdana, arial, sans-serif; font-size: 12px; fill: rgb(42, 63, 95); fill-opacity: 1; white-space: pre; opacity: 1;" transform="translate(0,469.57)">10%</text></g><g class="ytick"><text text-anchor="end" x="49" y="4.199999999999999" style="font-family: 'Open Sans', verdana, arial, sans-serif; font-size: 12px; fill: rgb(42, 63, 95); fill-opacity: 1; white-space: pre; opacity: 1;" transform="translate(0,389.14)">20%</text></g><g class="ytick"><text text-anchor="end" x="49" y="4.199999999999999" style="font-family: 'Open Sans', verdana, arial, sans-serif; font-size: 12px; fill: rgb(42, 63, 95); fill-opacity: 1; white-space: pre; opacity: 1;" transform="translate(0,308.71)">30%</text></g><g class="ytick"><text text-anchor="end" x="49" y="4.199999999999999" style="font-family: 'Open Sans', verdana, arial, sans-serif; font-size: 12px; fill: rgb(42, 63, 95); fill-opacity: 1; white-space: pre; opacity: 1;" transform="translate(0,228.27)">40%</text></g><g class="ytick"><text text-anchor="end" x="49" y="4.199999999999999" style="font-family: 'Open Sans', verdana, arial, sans-serif; font-size: 12px; fill: rgb(42, 63, 95); fill-opacity: 1; white-space: pre; opacity: 1;" transform="translate(0,147.84)">50%</text></g><g class="ytick"><text text-anchor="end" x="49" y="4.199999999999999" style="font-family: 'Open Sans', verdana, arial, sans-serif; font-size: 12px; fill: rgb(42, 63, 95); fill-opacity: 1; white-space: pre; opacity: 1;" transform="translate(0,67.41)">60%</text></g></g><g class="overaxes-above"/></g></g><g class="polarlayer"/><g class="smithlayer"/><g class="ternarylayer"/><g class="geolayer"/><g class="funnelarealayer"/><g class="pielayer"/><g class="iciclelayer"/><g class="treemaplayer"/><g class="sunburstlayer"/><g class="glimages"/><defs id="topdefs-70236a"><g class="clips"/><clipPath id="legend70236a"><rect width="128" height="124" x="0" y="0"/></clipPath></defs><g class="layer-above"><g class="imagelayer"/><g class="shapelayer"/></g><g class="infolayer"><g class="legend" pointer-events="all" transform="translate(1059.8000000000002,20)"><rect class="bg" shape-rendering="crispEdges" style="stroke: rgb(68, 68, 68); stroke-opacity: 1; fill: rgb(255, 255, 255); fill-opacity: 1; stroke-width: 0px;" width="128" height="124" x="0" y="0"/><g class="scrollbox" transform="" clip-path="url(#legend70236a)"><g class="groups"><g class="traces" transform="translate(0,14.5)" style="opacity: 1;"><text class="legendtext" text-anchor="start" x="40" y="4.680000000000001" style="font-family: 'Open Sans', verdana, arial, sans-serif; font-size: 12px; fill: rgb(42, 63, 95); fill-opacity: 1; white-space: pre;">Pellegrini Peter</text><g class="layers" style="opacity: 1;"><g class="legendfill"/><g class="legendlines"><path class="js-line" d="M5,0h30" style="fill: none; stroke: rgb(138, 44, 81); stroke-opacity: 1; stroke-width: 5px;"/></g><g class="legendsymbols"><g class="legendpoints"/></g></g><rect class="legendtoggle" x="0" y="-9.5" width="122.703125" height="19" style="fill: rgb(0, 0, 0); fill-opacity: 0;"/></g><g class="traces" transform="translate(0,33.5)" style="opacity: 1;"><text class="legendtext" text-anchor="start" x="40" y="4.680000000000001" style="font-family: 'Open Sans', verdana, arial, sans-serif; font-size: 12px; fill: rgb(42, 63, 95); fill-opacity: 1; white-space: pre;">Korčok Ivan</text><g class="layers" style="opacity: 1;"><g class="legendfill"/><g class="legendlines"><path class="js-line" d="M5,0h30" style="fill: none; stroke: rgb(0, 174, 239); stroke-opacity: 1; stroke-width: 5px;"/></g><g class="legendsymbols"><g class="legendpoints"/></g></g><rect class="legendtoggle" x="0" y="-9.5" width="122.703125" height="19" style="fill: rgb(0, 0, 0); fill-opacity: 0;"/></g><g class="traces" transform="translate(0,52.5)" style="opacity: 1;"><text class="legendtext" text-anchor="start" x="40" y="4.680000000000001" style="font-family: 'Open Sans', verdana, arial, sans-serif; font-size: 12px; fill: rgb(42, 63, 95); fill-opacity: 1; white-space: pre;">Kubiš Ján</text><g class="layers" style="opacity: 1;"><g class="legendfill"/><g class="legendlines"><path class="js-line" d="M5,0h30" style="fill: none; stroke: rgb(255, 1, 170); stroke-opacity: 1; stroke-width: 5px;"/></g><g class="legendsymbols"><g class="legendpoints"/></g></g><rect class="legendtoggle" x="0" y="-9.5" width="122.703125" height="19" style="fill: rgb(0, 0, 0); fill-opacity: 0;"/></g><g class="traces" transform="translate(0,71.5)" style="opacity: 1;"><text class="legendtext" text-anchor="start" x="40" y="4.680000000000001" style="font-family: 'Open Sans', verdana, arial, sans-serif; font-size: 12px; fill: rgb(42, 63, 95); fill-opacity: 1; white-space: pre;">Fico Robert</text><g class="layers" style="opacity: 1;"><g class="legendfill"/><g class="legendlines"><path class="js-line" d="M5,0h30" style="fill: none; stroke: rgb(238, 58, 67); stroke-opacity: 1; stroke-width: 5px;"/></g><g class="legendsymbols"><g class="legendpoints"/></g></g><rect class="legendtoggle" x="0" y="-9.5" width="122.703125" height="19" style="fill: rgb(0, 0, 0); fill-opacity: 0;"/></g><g class="traces" transform="translate(0,90.5)" style="opacity: 1;"><text class="legendtext" text-anchor="start" x="40" y="4.680000000000001" style="font-family: 'Open Sans', verdana, arial, sans-serif; font-size: 12px; fill: rgb(42, 63, 95); fill-opacity: 1; white-space: pre;">Lajčák Miroslav</text><g class="layers" style="opacity: 1;"><g class="legendfill"/><g class="legendlines"><path class="js-line" d="M5,0h30" style="fill: none; stroke: rgb(255, 192, 203); stroke-opacity: 1; stroke-width: 5px;"/></g><g class="legendsymbols"><g class="legendpoints"/></g></g><rect class="legendtoggle" x="0" y="-9.5" width="122.703125" height="19" style="fill: rgb(0, 0, 0); fill-opacity: 0;"/></g><g class="traces" transform="translate(0,109.5)" style="opacity: 1;"><text class="legendtext" text-anchor="start" x="40" y="4.680000000000001" style="font-family: 'Open Sans', verdana, arial, sans-serif; font-size: 12px; fill: rgb(42, 63, 95); fill-opacity: 1; white-space: pre;">Mistrík Robert</text><g class="layers" style="opacity: 1;"><g class="legendfill"/><g class="legendlines"><path class="js-line" d="M5,0h30" style="fill: none; stroke: rgb(202, 166, 105); stroke-opacity: 1; stroke-width: 5px;"/></g><g class="legendsymbols"><g class="legendpoints"/></g></g><rect class="legendtoggle" x="0" y="-9.5" width="122.703125" height="19" style="fill: rgb(0, 0, 0); fill-opacity: 0;"/></g></g></g><rect class="scrollbar" rx="20" ry="3" width="0" height="0" style="fill: rgb(128, 139, 164); fill-opacity: 1;" x="0" y="0"/></g><g class="g-gtitle"/><g class="g-xtitle"/><g class="g-ytitle"/></g></svg>