<svg class="main-svg" xmlns="http://www.w3.org/2000/svg" xmlns:xlink="http://www.w3.org/1999/xlink" width="300" height="135" style="" viewBox="0 0 300 135"><rect x="0" y="0" width="300" height="135" style="fill: rgb(255, 255, 255); fill-opacity: 1;"/><defs id="defs-00436f"><g class="clips"><clipPath id="clip00436fxyplot" class="plotclip"><rect width="280" height="75"/></clipPath><clipPath class="axesclip" id="clip00436fx"><rect x="10" y="0" width="280" height="135"/></clipPath><clipPath class="axesclip" id="clip00436fy"><rect x="0" y="50" width="300" height="75"/></clipPath><clipPath class="axesclip" id="clip00436fxy"><rect x="10" y="50" width="280" height="75"/></clipPath></g><g class="gradients"/><g class="patterns"/></defs><g class="bglayer"/><g class="layer-below"><g class="imagelayer"/><g class="shapelayer"/></g><g class="cartesianlayer"><g class="subplot xy"><g class="layer-subplot"><g class="shapelayer"/><g class="imagelayer"/></g><g class="minor-gridlayer"><g class="x"/><g class="y"/></g><g class="gridlayer"><g class="x"><path class="xgrid crisp" transform="translate(26.57,0)" d="M0,50v75" style="stroke: rgb(235, 240, 248); stroke-opacity: 1; stroke-width: 1px;"/><path class="xgrid crisp" transform="translate(129.29000000000002,0)" d="M0,50v75" style="stroke: rgb(235, 240, 248); stroke-opacity: 1; stroke-width: 1px;"/><path class="xgrid crisp" transform="translate(230.36,0)" d="M0,50v75" style="stroke: rgb(235, 240, 248); stroke-opacity: 1; stroke-width: 1px;"/></g><g class="y"><path class="ygrid crisp" transform="translate(0,101.28999999999999)" d="M10,0h280" style="stroke: rgb(235, 240, 248); stroke-opacity: 1; stroke-width: 1px;"/><path class="ygrid crisp" transform="translate(0,77.58)" d="M10,0h280" style="stroke: rgb(235, 240, 248); stroke-opacity: 1; stroke-width: 1px;"/><path class="ygrid crisp" transform="translate(0,53.87)" d="M10,0h280" style="stroke: rgb(235, 240, 248); stroke-opacity: 1; stroke-width: 1px;"/></g></g><g class="zerolinelayer"><path class="yzl zl crisp" transform="translate(0,125)" d="M10,0h280" style="stroke: rgb(235, 240, 248); stroke-opacity: 1; stroke-width: 2px;"/></g><path class="xlines-below"/><path class="ylines-below"/><g class="overlines-below"/><g class="xaxislayer-below"/><g class="yaxislayer-below"/><g class="overaxes-below"/><g class="plot" transform="translate(10,50)" clip-path="url(#clip00436fxyplot)"><g class="scatterlayer mlayer"><g class="trace scatter trace4f5f5b" style="stroke-miterlimit: 2; opacity: 1;"><g class="fills"/><g class="errorbars"/><g class="lines"><path class="js-line" d="M0,50.22L4.97,47.14L6.63,47.14L13.25,47.38L14.91,46.55L38.11,45.6L39.76,44.89L71.24,44.06L72.9,39.08L92.78,39.08L96.09,42.52L97.75,41.81L101.07,41.81L114.32,41.57L115.98,44.18L119.29,45.48L120.95,45.01L122.6,44.53L124.26,45.6L167.34,44.89L168.99,42.52L172.31,43.47L173.96,43.47L175.62,43.23L177.28,39.32L178.93,36.94L180.59,36.94L183.91,36.35L185.56,32.44L188.88,30.19L190.53,30.19L195.5,29.48L197.16,28.41L202.13,25.8L203.79,25.8L217.04,26.16L218.7,27.34L231.95,27.34L233.61,25.68L235.27,25.68L236.92,22.84L243.55,22.84L245.21,19.64L255.15,19.64L256.8,17.74L260.12,17.03L261.78,17.03L268.4,14.66L270.06,10.63L273.37,10.63L275.03,8.61L276.69,3.75L278.34,3.75L280,3.75" style="vector-effect: none; fill: none; stroke: rgb(138, 44, 81); stroke-opacity: 1; stroke-width: 5px; opacity: 1;"/></g><g class="points"/><g class="text"/></g><g class="trace scatter tracea0350e" style="stroke-miterlimit: 2; opacity: 1;"><g class="fills"/><g class="errorbars"/><g class="lines"><path class="js-line" d="M0,23.31L4.97,24.97L6.63,24.97L13.25,24.73L14.91,24.02L96.09,25.09L97.75,28.41L114.32,27.34L115.98,24.62L117.63,20.58L119.29,20.58L122.6,22.72L124.26,19.16L139.17,19.16L140.83,20.94L142.49,20.94L144.14,19.16L145.8,20.94L147.46,18.81L150.77,18.33L152.43,20.58L154.08,18.33L155.74,18.33L159.05,18.33L160.71,20.58L162.37,20.58L164.02,18.33L165.68,20.58L167.34,20.58L168.99,18.45L170.65,21.18L182.25,21.89L183.91,22.48L187.22,25.21L188.88,25.33L213.73,26.16L215.38,26.87L235.27,26.99L236.92,28.17L255.15,27.93L256.8,29.83L268.4,32.32L270.06,30.07L275.03,31.25L276.69,32.8L280,32.8" style="vector-effect: none; fill: none; stroke: rgb(0, 174, 239); stroke-opacity: 1; stroke-width: 5px; opacity: 1;"/></g><g class="points"/><g class="text"/></g><g class="trace scatter tracead0858" style="stroke-miterlimit: 2; opacity: 1;"><g class="fills"/><g class="errorbars"/><g class="lines"><path class="js-line" d="M0,63.03L11.6,64.21L13.25,63.5L16.57,62.79L18.22,62.79L71.24,63.03L72.9,64.45L96.09,63.5L97.75,55.79L115.98,56.51L117.63,57.22L147.46,57.57L149.11,58.05L167.34,57.22L168.99,60.66L170.65,58.28L172.31,58.28L175.62,58.4L177.28,60.18L180.59,61.6L182.25,61.6L183.91,61.25L185.56,62.43L193.85,62.67L195.5,62.55L203.79,63.14L205.44,63.14L213.73,62.67L215.38,61.6L217.04,61.6L218.7,59.94L231.95,59.94L233.61,61.49L240.24,63.62L241.89,63.62L265.09,64.8L266.75,64.92L268.4,64.92L270.06,68.6L280,69.78" style="vector-effect: none; fill: none; stroke: rgb(255, 1, 170); stroke-opacity: 1; stroke-width: 5px; opacity: 1;"/></g><g class="points"/><g class="text"/></g><g class="trace scatter trace68c847" style="stroke-miterlimit: 2; opacity: 1;"><g class="fills"/><g class="errorbars"/><g class="lines"><path class="js-line" d="M0,62.55L9.94,63.03L11.6,62.55L41.42,63.97L43.08,63.97L71.24,63.74L72.9,65.52L96.09,64.8L97.75,66.35L115.98,66.7L117.63,68.01L120.95,67.29L122.6,66.58L124.26,68.6L125.92,68.6L168.99,67.65L170.65,66.82L175.62,66.94L177.28,68.12L182.25,68.72L183.91,68.95L192.19,69.78L193.85,69.78L208.76,71.32L210.41,71.32L268.4,71.32L270.06,73.58L275.03,73.81" style="vector-effect: none; fill: none; stroke: rgb(238, 58, 67); stroke-opacity: 1; stroke-width: 5px; opacity: 1;"/></g><g class="points"/><g class="text"/></g><g class="trace scatter traceb6a74a" style="stroke-miterlimit: 2; opacity: 1;"><g class="fills"/><g class="errorbars"/><g class="lines"><path class="js-line" d="M0,65.63L9.94,65.87L11.6,64.21L14.91,67.89L16.57,67.89L119.29,68.48L120.95,68.95L122.6,69.43L124.26,68.6L177.28,69.78L178.93,70.02L195.5,70.97L197.16,71.32L208.76,71.92L210.41,71.92L263.43,73.1L265.09,73.22L275.03,73.81" style="vector-effect: none; fill: none; stroke: rgb(202, 166, 105); stroke-opacity: 1; stroke-width: 5px; opacity: 1;"/></g><g class="points"/><g class="text"/></g></g></g><g class="overplot"/><path class="xlines-above crisp" d="M0,0" style="fill: none;"/><path class="ylines-above crisp" d="M0,0" style="fill: none;"/><g class="overlines-above"/><g class="xaxislayer-above"/><g class="yaxislayer-above"/><g class="overaxes-above"/></g></g><g class="polarlayer"/><g class="smithlayer"/><g class="ternarylayer"/><g class="geolayer"/><g class="funnelarealayer"/><g class="pielayer"/><g class="iciclelayer"/><g class="treemaplayer"/><g class="sunburstlayer"/><g class="glimages"/><defs id="topdefs-00436f"><g class="clips"/></defs><g class="layer-above"><g class="imagelayer"/><g class="shapelayer"/></g><g class="infolayer"><g class="g-gtitle"><text class="gtitle" x="15" y="25" text-anchor="start" dy="0em" style="font-family: Ubuntu, verdana, arial, sans-serif; font-size: 16px; fill: rgb(233, 84, 32); opacity: 1; font-weight: normal; white-space: pre;">Prezident/ka 2024</text></g><g class="g-xtitle"/><g class="g-ytitle"/></g></svg>