<svg class="main-svg" xmlns="http://www.w3.org/2000/svg" xmlns:xlink="http://www.w3.org/1999/xlink" width="300" height="135" style="" viewBox="0 0 300 135"><rect x="0" y="0" width="300" height="135" style="fill: rgb(255, 255, 255); fill-opacity: 1;"/><defs id="defs-bf9773"><g class="clips"><clipPath id="clipbf9773xyplot" class="plotclip"><rect width="280" height="75"/></clipPath><clipPath class="axesclip" id="clipbf9773x"><rect x="10" y="0" width="280" height="135"/></clipPath><clipPath class="axesclip" id="clipbf9773y"><rect x="0" y="50" width="300" height="75"/></clipPath><clipPath class="axesclip" id="clipbf9773xy"><rect x="10" y="50" width="280" height="75"/></clipPath></g><g class="gradients"/><g class="patterns"/></defs><g class="bglayer"/><g class="layer-below"><g class="imagelayer"/><g class="shapelayer"/></g><g class="cartesianlayer"><g class="subplot xy"><g class="layer-subplot"><g class="shapelayer"/><g class="imagelayer"/></g><g class="minor-gridlayer"><g class="x"/><g class="y"/></g><g class="gridlayer"><g class="x"><path class="xgrid crisp" transform="translate(21.67,0)" d="M0,50v75" style="stroke: rgb(235, 240, 248); stroke-opacity: 1; stroke-width: 1px;"/><path class="xgrid crisp" transform="translate(94,0)" d="M0,50v75" style="stroke: rgb(235, 240, 248); stroke-opacity: 1; stroke-width: 1px;"/><path class="xgrid crisp" transform="translate(165.17,0)" d="M0,50v75" style="stroke: rgb(235, 240, 248); stroke-opacity: 1; stroke-width: 1px;"/><path class="xgrid crisp" transform="translate(236.33,0)" d="M0,50v75" style="stroke: rgb(235, 240, 248); stroke-opacity: 1; stroke-width: 1px;"/></g><g class="y"><path class="ygrid crisp" transform="translate(0,102.77000000000001)" d="M10,0h280" style="stroke: rgb(235, 240, 248); stroke-opacity: 1; stroke-width: 1px;"/><path class="ygrid crisp" transform="translate(0,80.53999999999999)" d="M10,0h280" style="stroke: rgb(235, 240, 248); stroke-opacity: 1; stroke-width: 1px;"/><path class="ygrid crisp" transform="translate(0,58.31)" d="M10,0h280" style="stroke: rgb(235, 240, 248); stroke-opacity: 1; stroke-width: 1px;"/></g></g><g class="zerolinelayer"><path class="yzl zl crisp" transform="translate(0,125)" d="M10,0h280" style="stroke: rgb(235, 240, 248); stroke-opacity: 1; stroke-width: 2px;"/></g><path class="xlines-below"/><path class="ylines-below"/><g class="overlines-below"/><g class="xaxislayer-below"/><g class="yaxislayer-below"/><g class="overaxes-below"/><g class="plot" transform="translate(10,50)" clip-path="url(#clipbf9773xyplot)"><g class="scatterlayer mlayer"><g class="trace scatter trace13a1f3" style="stroke-miterlimit: 2; opacity: 1;"><g class="fills"/><g class="errorbars"/><g class="lines"><path class="js-line" d="M274.17,21.65L280,21.42" style="vector-effect: none; fill: none; stroke: rgb(187, 187, 187); stroke-opacity: 1; stroke-width: 5px; opacity: 1;"/></g><g class="points"/><g class="text"/></g><g class="trace scatter trace2ba573" style="stroke-miterlimit: 2; opacity: 1;"><g class="fills"/><g class="errorbars"/><g class="lines"><path class="js-line" d="M0,51.77L3.5,48.88L4.67,48.88L9.33,49.1L10.5,48.32L26.83,47.43L28,46.77L50.17,45.99L51.33,41.32L65.33,41.32L67.67,44.54L71.17,43.88L72.33,43.88L80.5,43.65L81.67,46.1L84,47.32L85.17,46.88L86.33,46.43L87.5,47.43L117.83,46.77L119,44.54L121.33,45.43L122.5,45.43L123.67,45.21L124.83,41.54L127.17,39.32L128.33,39.32L129.5,38.76L130.67,35.1L133,32.98L134.17,32.98L137.67,32.32L138.83,31.32L142.33,28.87L143.5,28.87L152.83,29.2L154,30.32L163.33,30.32L164.5,28.76L165.67,28.76L166.83,26.09L171.5,26.09L172.67,23.09L179.67,23.09L180.83,21.31L187.83,18.42L189,18.42L191.33,14.64L192.5,14.64L193.67,12.75L194.83,8.2L205.33,8.2L206.5,9.86L208.83,10.64L210,10.64L212.33,12.86L213.5,13.53L219.33,12.31L220.5,12.31L227.5,12.42L228.67,8.75L231,5.08L232.17,4.97L235.67,5.86L236.83,3.75L240.33,4.75L241.5,5.64L243.83,6.75L245,10.53L246.17,11.86L247.33,10.53L249.67,10.64L250.83,8.86L253.17,8.97L254.33,9.09L256.67,8.64L257.83,7.75L261.33,4.64L262.5,4.64L266,6.64L267.17,5.75L269.5,6.42L270.67,8.64L273,14.87L274.17,43.65L280,44.88" style="vector-effect: none; fill: none; stroke: rgb(138, 44, 81); stroke-opacity: 1; stroke-width: 5px; opacity: 1;"/></g><g class="points"/><g class="text"/></g><g class="trace scatter tracec83b3f" style="stroke-miterlimit: 2; opacity: 1;"><g class="fills"/><g class="errorbars"/><g class="lines"><path class="js-line" d="M0,26.54L4.67,28.09L5.83,28.09L9.33,27.87L10.5,27.2L67.67,28.2L68.83,31.32L80.5,30.32L81.67,27.76L84,23.98L85.17,24.98L86.33,25.98L87.5,22.65L98,22.65L99.17,24.31L100.33,24.31L101.5,22.65L102.67,24.31L103.83,22.31L106.17,21.87L107.33,23.98L109.67,21.87L110.83,21.87L112,21.87L113.17,23.98L114.33,23.98L115.5,21.87L117.83,23.98L119,21.98L121.33,24.54L122.5,24.54L129.5,25.76L130.67,27.65L134.17,28.43L135.33,28.43L150.5,29.2L151.67,29.87L179.67,30.87L180.83,32.65L189,34.98L190.17,32.87L193.67,33.98L194.83,35.43L205.33,35.43L206.5,33.87L208.83,32.98L210,32.98L211.17,32.54L212.33,29.98L214.67,29.43L215.83,29.76L227.5,29.2L228.67,32.09L231,35.43L232.17,35.54L234.5,33.76L235.67,32.98L238,35.1L239.17,34.54L243.83,32.09L245,28.32L246.17,26.98L247.33,28.32L249.67,28.2L250.83,29.98L253.17,29.87L254.33,29.76L256.67,30.2L257.83,31.09L261.33,34.21L262.5,34.21L266,32.21L267.17,33.09L269.5,32.43L270.67,30.2L273,23.98L274.17,48.66L280,47.54" style="vector-effect: none; fill: none; stroke: rgb(0, 174, 239); stroke-opacity: 1; stroke-width: 5px; opacity: 1;"/></g><g class="points"/><g class="text"/></g><g class="trace scatter traceea476a" style="stroke-miterlimit: 2; opacity: 1;"><g class="fills"/><g class="errorbars"/><g class="lines"><path class="js-line" d="M0,63.77L8.17,64.88L9.33,64.22L12.83,63.55L14,63.55L50.17,63.77L51.33,65.11L67.67,64.22L68.83,56.99L81.67,57.66L82.83,58.33L103.83,58.66L105,59.1L117.83,58.33L119,61.55L121.33,59.33L122.5,59.33L123.67,59.44L124.83,61.11L127.17,62.44L128.33,62.44L129.5,62.11L130.67,63.22L137.67,63.33L138.83,63.22L147,63.88L148.17,63.88L150.5,63.44L151.67,62.44L152.83,62.44L154,60.88L163.33,60.88L164.5,62.33L170.33,64.33L171.5,64.33L173.83,65.22L175,65.22L189,65.55L190.17,69L211.17,70.11L212.33,71.11L227.5,72.22L228.67,73L234.5,73.55" style="vector-effect: none; fill: none; stroke: rgb(255, 1, 170); stroke-opacity: 1; stroke-width: 5px; opacity: 1;"/></g><g class="points"/><g class="text"/></g><g class="trace scatter trace44c3c3" style="stroke-miterlimit: 2; opacity: 1;"><g class="fills"/><g class="errorbars"/><g class="lines"><path class="js-line" d="M0,66.22L7,66.44L8.17,64.88L10.5,68.33L11.67,68.33L84,68.89L85.17,69.33L87.5,69L88.67,69L124.83,70.11L126,70.33L138.83,71.55L140,71.78L144.67,72.11L145.83,72.11L189,73.33L190.17,73.67L193.67,73.89" style="vector-effect: none; fill: none; stroke: rgb(202, 166, 105); stroke-opacity: 1; stroke-width: 5px; opacity: 1;"/></g><g class="points"/><g class="text"/></g></g></g><g class="overplot"/><path class="xlines-above crisp" d="M0,0" style="fill: none;"/><path class="ylines-above crisp" d="M0,0" style="fill: none;"/><g class="overlines-above"/><g class="xaxislayer-above"/><g class="yaxislayer-above"/><g class="overaxes-above"/></g></g><g class="polarlayer"/><g class="smithlayer"/><g class="ternarylayer"/><g class="geolayer"/><g class="funnelarealayer"/><g class="pielayer"/><g class="iciclelayer"/><g class="treemaplayer"/><g class="sunburstlayer"/><g class="glimages"/><defs id="topdefs-bf9773"><g class="clips"/></defs><g class="layer-above"><g class="imagelayer"/><g class="shapelayer"/></g><g class="infolayer"><g class="g-gtitle"><text class="gtitle" x="15" y="25" text-anchor="start" dy="0em" style="font-family: Ubuntu, verdana, arial, sans-serif; font-size: 16px; fill: rgb(233, 84, 32); opacity: 1; font-weight: normal; white-space: pre;">Prezident/ka 2024</text></g><g class="g-xtitle"/><g class="g-ytitle"/></g></svg>