<svg class="main-svg" xmlns="http://www.w3.org/2000/svg" xmlns:xlink="http://www.w3.org/1999/xlink" width="300" height="135" style="" viewBox="0 0 300 135"><rect x="0" y="0" width="300" height="135" style="fill: rgb(255, 255, 255); fill-opacity: 1;"/><defs id="defs-adb327"><g class="clips"><clipPath id="clipadb327xyplot" class="plotclip"><rect width="280" height="75"/></clipPath><clipPath class="axesclip" id="clipadb327x"><rect x="10" y="0" width="280" height="135"/></clipPath><clipPath class="axesclip" id="clipadb327y"><rect x="0" y="50" width="300" height="75"/></clipPath><clipPath class="axesclip" id="clipadb327xy"><rect x="10" y="50" width="280" height="75"/></clipPath></g><g class="gradients"/><g class="patterns"/></defs><g class="bglayer"/><g class="layer-below"><g class="imagelayer"/><g class="shapelayer"/></g><g class="cartesianlayer"><g class="subplot xy"><g class="layer-subplot"><g class="shapelayer"/><g class="imagelayer"/></g><g class="minor-gridlayer"><g class="x"/><g class="y"/></g><g class="gridlayer"><g class="x"><path class="xgrid crisp" transform="translate(30.14,0)" d="M0,50v75" style="stroke: rgb(235, 240, 248); stroke-opacity: 1; stroke-width: 1px;"/><path class="xgrid crisp" transform="translate(92.59,0)" d="M0,50v75" style="stroke: rgb(235, 240, 248); stroke-opacity: 1; stroke-width: 1px;"/><path class="xgrid crisp" transform="translate(155.04,0)" d="M0,50v75" style="stroke: rgb(235, 240, 248); stroke-opacity: 1; stroke-width: 1px;"/><path class="xgrid crisp" transform="translate(215.47,0)" d="M0,50v75" style="stroke: rgb(235, 240, 248); stroke-opacity: 1; stroke-width: 1px;"/><path class="xgrid crisp" transform="translate(277.91,0)" d="M0,50v75" style="stroke: rgb(235, 240, 248); stroke-opacity: 1; stroke-width: 1px;"/></g><g class="y"><path class="ygrid crisp" transform="translate(0,109.38)" d="M10,0h280" style="stroke: rgb(235, 240, 248); stroke-opacity: 1; stroke-width: 1px;"/><path class="ygrid crisp" transform="translate(0,93.75)" d="M10,0h280" style="stroke: rgb(235, 240, 248); stroke-opacity: 1; stroke-width: 1px;"/><path class="ygrid crisp" transform="translate(0,78.13)" d="M10,0h280" style="stroke: rgb(235, 240, 248); stroke-opacity: 1; stroke-width: 1px;"/><path class="ygrid crisp" transform="translate(0,62.5)" d="M10,0h280" style="stroke: rgb(235, 240, 248); stroke-opacity: 1; stroke-width: 1px;"/></g></g><g class="zerolinelayer"><path class="yzl zl crisp" transform="translate(0,125)" d="M10,0h280" style="stroke: rgb(235, 240, 248); stroke-opacity: 1; stroke-width: 2px;"/></g><path class="xlines-below"/><path class="ylines-below"/><g class="overlines-below"/><g class="xaxislayer-below"/><g class="yaxislayer-below"/><g class="overaxes-below"/><g class="plot" transform="translate(10,50)" clip-path="url(#clipadb327xyplot)"><g class="scatterlayer mlayer"><g class="trace scatter tracedbb001" style="stroke-miterlimit: 2; opacity: 1;"><g class="fills"/><g class="errorbars"/><g class="lines"><path class="js-line" d="M0,43.44L4.03,39.38L6.04,39.38L16.12,39.53L18.13,38.75L46.33,37.66L48.35,36.88L86.62,35.78L88.63,29.69L112.81,29.69L116.83,33.75L118.85,32.97L122.88,32.97L138.99,32.66L141.01,35.94L145.04,37.34L147.05,36.88L149.06,36.25L151.08,37.66L203.45,36.88L205.47,34.06L209.5,35L211.51,35L213.53,34.69L215.54,29.69L217.55,26.72L219.57,26.72L223.6,25.78L225.61,20.63L227.63,18.13L229.64,17.66L237.7,16.72L239.71,15L245.76,11.41L247.77,11.41L263.88,11.87L265.9,13.44L280,13.44" style="vector-effect: none; fill: none; stroke: rgb(138, 44, 81); stroke-opacity: 1; stroke-width: 5px; opacity: 1;"/></g><g class="points"/><g class="text"/></g><g class="trace scatter traceda1b3a" style="stroke-miterlimit: 2; opacity: 1;"><g class="fills"/><g class="errorbars"/><g class="lines"><path class="js-line" d="M0,9.06L6.04,11.25L8.06,11.25L16.12,10.63L18.13,10.16L46.33,10.94L48.35,11.56L116.83,11.56L118.85,15.94L136.98,15.16L138.99,14.53L143.02,5.78L145.04,5.78L149.06,8.44L151.08,3.91L169.21,3.91L171.22,6.25L173.24,6.25L175.25,3.91L177.27,6.25L179.28,3.75L183.31,3.75L185.32,6.09L187.34,3.75L189.35,3.75L193.38,3.75L195.4,6.09L197.41,6.09L199.42,3.75L201.44,6.09L203.45,6.09L205.47,3.75L207.48,6.72L221.58,7.66L223.6,8.13L227.63,11.41L229.64,11.41L259.86,11.72L261.87,12.66L280,13.44" style="vector-effect: none; fill: none; stroke: rgb(0, 174, 239); stroke-opacity: 1; stroke-width: 5px; opacity: 1;"/></g><g class="points"/><g class="text"/></g><g class="trace scatter trace240f5f" style="stroke-miterlimit: 2; opacity: 1;"><g class="fills"/><g class="errorbars"/><g class="lines"><path class="js-line" d="M0,59.69L14.1,61.09L16.12,60.31L20.14,59.53L22.16,59.53L86.62,59.84L88.63,61.72L112.81,61.72L116.83,60.31L118.85,50.78L122.88,50.78L141.01,51.56L143.02,52.34L177.27,51.88L179.28,52.97L183.31,53.59L185.32,52.5L189.35,53.59L191.37,53.59L203.45,52.5L205.47,57.03L207.48,53.75L209.5,53.75L213.53,53.91L215.54,56.25L217.55,57.97L219.57,57.97L223.6,57.5L225.61,58.91L235.68,59.22L237.7,59.06L247.77,59.53L249.78,59.53L259.86,59.06L261.87,57.81L263.88,57.81L265.9,55.47L280,55.47" style="vector-effect: none; fill: none; stroke: rgb(255, 1, 170); stroke-opacity: 1; stroke-width: 5px; opacity: 1;"/></g><g class="points"/><g class="text"/></g><g class="trace scatter trace065aa6" style="stroke-miterlimit: 2; opacity: 1;"><g class="fills"/><g class="errorbars"/><g class="lines"><path class="js-line" d="M0,59.22L12.09,59.69L14.1,58.91L26.19,60L28.2,60L42.3,60.94L44.32,60.94L86.62,60.78L88.63,63.13L116.83,62.03L118.85,64.06L141.01,64.38L143.02,66.09L147.05,65.16L149.06,64.38L151.08,66.88L153.09,66.88L205.47,65.78L207.48,64.53L213.53,64.69L215.54,66.25L219.57,67.03L221.58,67.03L241.73,69.38L243.74,70.16L280,70.31" style="vector-effect: none; fill: none; stroke: rgb(238, 58, 67); stroke-opacity: 1; stroke-width: 5px; opacity: 1;"/></g><g class="points"/><g class="text"/></g><g class="trace scatter tracece1800" style="stroke-miterlimit: 2; opacity: 1;"><g class="fills"/><g class="errorbars"/><g class="lines"><path class="js-line" d="M0,62.97L12.09,63.44L14.1,61.09L18.13,65.94L20.14,65.94L136.98,66.72L138.99,66.88L203.45,67.81L205.47,68.44L217.55,68.59L219.57,68.59L237.7,69.84L239.71,70.31L257.84,71.09L259.86,71.09L280,71.09" style="vector-effect: none; fill: none; stroke: rgb(202, 166, 105); stroke-opacity: 1; stroke-width: 5px; opacity: 1;"/></g><g class="points"/><g class="text"/></g></g></g><g class="overplot"/><path class="xlines-above crisp" d="M0,0" style="fill: none;"/><path class="ylines-above crisp" d="M0,0" style="fill: none;"/><g class="overlines-above"/><g class="xaxislayer-above"/><g class="yaxislayer-above"/><g class="overaxes-above"/></g></g><g class="polarlayer"/><g class="smithlayer"/><g class="ternarylayer"/><g class="geolayer"/><g class="funnelarealayer"/><g class="pielayer"/><g class="iciclelayer"/><g class="treemaplayer"/><g class="sunburstlayer"/><g class="glimages"/><defs id="topdefs-adb327"><g class="clips"/></defs><g class="layer-above"><g class="imagelayer"/><g class="shapelayer"/></g><g class="infolayer"><g class="g-gtitle"><text class="gtitle" x="15" y="25" text-anchor="start" dy="0em" style="font-family: Ubuntu, verdana, arial, sans-serif; font-size: 16px; fill: rgb(233, 84, 32); opacity: 1; font-weight: normal; white-space: pre;">Prezident/ka 2024</text></g><g class="g-xtitle"/><g class="g-ytitle"/></g></svg>