<svg class="main-svg" xmlns="http://www.w3.org/2000/svg" xmlns:xlink="http://www.w3.org/1999/xlink" width="400" height="400" style="" viewBox="0 0 400 400"><rect x="0" y="0" width="400" height="400" style="fill: rgb(255, 255, 255); fill-opacity: 1;"/><defs id="defs-90d862"><g class="clips"><clipPath id="clip90d862xyplot" class="plotclip"><rect width="206" height="330"/></clipPath><clipPath class="axesclip" id="clip90d862x"><rect x="50" y="0" width="206" height="400"/></clipPath><clipPath class="axesclip" id="clip90d862y"><rect x="0" y="20" width="400" height="330"/></clipPath><clipPath class="axesclip" id="clip90d862xy"><rect x="50" y="20" width="206" height="330"/></clipPath></g><g class="gradients"/><g class="patterns"/></defs><g class="bglayer"/><g class="layer-below"><g class="imagelayer"/><g class="shapelayer"/></g><g class="cartesianlayer"><g class="subplot xy"><g class="layer-subplot"><g class="shapelayer"/><g class="imagelayer"/></g><g class="minor-gridlayer"><g class="x"/><g class="y"/></g><g class="gridlayer"><g class="x"><path class="xgrid crisp" transform="translate(57.1,0)" d="M0,20v330" style="stroke: rgb(235, 240, 248); stroke-opacity: 1; stroke-width: 1px;"/><path class="xgrid crisp" transform="translate(101.14,0)" d="M0,20v330" style="stroke: rgb(235, 240, 248); stroke-opacity: 1; stroke-width: 1px;"/><path class="xgrid crisp" transform="translate(144.48000000000002,0)" d="M0,20v330" style="stroke: rgb(235, 240, 248); stroke-opacity: 1; stroke-width: 1px;"/><path class="xgrid crisp" transform="translate(187.81,0)" d="M0,20v330" style="stroke: rgb(235, 240, 248); stroke-opacity: 1; stroke-width: 1px;"/><path class="xgrid crisp" transform="translate(230.43,0)" d="M0,20v330" style="stroke: rgb(235, 240, 248); stroke-opacity: 1; stroke-width: 1px;"/></g><g class="y"><path class="ygrid crisp" transform="translate(0,302.57)" d="M50,0h206" style="stroke: rgb(235, 240, 248); stroke-opacity: 1; stroke-width: 1px;"/><path class="ygrid crisp" transform="translate(0,255.14)" d="M50,0h206" style="stroke: rgb(235, 240, 248); stroke-opacity: 1; stroke-width: 1px;"/><path class="ygrid crisp" transform="translate(0,207.72)" d="M50,0h206" style="stroke: rgb(235, 240, 248); stroke-opacity: 1; stroke-width: 1px;"/><path class="ygrid crisp" transform="translate(0,160.29)" d="M50,0h206" style="stroke: rgb(235, 240, 248); stroke-opacity: 1; stroke-width: 1px;"/><path class="ygrid crisp" transform="translate(0,112.86)" d="M50,0h206" style="stroke: rgb(235, 240, 248); stroke-opacity: 1; stroke-width: 1px;"/><path class="ygrid crisp" transform="translate(0,65.43)" d="M50,0h206" style="stroke: rgb(235, 240, 248); stroke-opacity: 1; stroke-width: 1px;"/></g></g><g class="zerolinelayer"><path class="yzl zl crisp" transform="translate(0,350)" d="M50,0h206" style="stroke: rgb(235, 240, 248); stroke-opacity: 1; stroke-width: 2px;"/></g><path class="xlines-below"/><path class="ylines-below"/><g class="overlines-below"/><g class="xaxislayer-below"/><g class="yaxislayer-below"/><g class="overaxes-below"/><g class="plot" transform="translate(50,20)" clip-path="url(#clip90d862xyplot)"><g class="scatterlayer mlayer"><g class="trace scatter trace85b790" style="stroke-miterlimit: 2; opacity: 1;"><g class="fills"/><g class="errorbars"/><g class="lines"><path class="js-line" d="M0,230.88L2.13,218.54L2.84,218.54L4.26,218.54L4.97,221.86L7.1,216.17L7.81,216.17L9.94,216.17L10.66,214.75L12.79,214.75L13.5,213.33L15.63,212.38L16.34,212.38L17.76,209.53L18.47,209.53L26.28,209.53L26.99,206.21L30.54,206.21L31.26,186.29L39.78,186.29L41.2,200.05L41.91,197.2L43.33,197.2L49.01,196.25L49.72,206.69L51.14,211.9L51.86,210.01L52.57,208.11L53.28,212.38L59.67,212.38L60.38,210.48L61.09,210.48L61.8,212.38L62.51,210.48L63.22,211.9L63.93,210.48L71.74,209.53L72.46,200.05L73.88,203.84L74.59,203.84L75.3,202.89L76.01,187.24L77.43,177.76L78.14,177.76L78.85,175.38L79.56,159.73L80.98,150.72L81.69,150.72L83.11,150.72L83.82,147.88L86.66,133.17L87.37,133.17L91.63,133.65L92.34,134.6L93.06,134.6L93.77,139.34L99.45,139.34L100.16,132.7L100.87,132.7L101.58,121.32L104.42,121.32L105.13,108.51L109.39,108.51L110.1,100.92L111.52,98.08L112.23,98.08L115.08,88.59L115.79,72.47L117.21,72.47L117.92,64.4L119.34,44.96L120.05,44.96L125.02,44.96L125.73,52.07L127.15,55.39L127.86,55.39L128.57,57.29L129.28,64.88L129.99,67.72L130.7,65.83L131.41,62.51L137.1,61.56L137.81,63.93L138.52,62.98L139.23,47.33L141.36,31.2L142.07,32.63L142.78,38.32L143.49,35L144.2,25.99L144.91,25.99L145.62,28.36L147.04,34.05L147.75,38.32L148.46,38.79L149.17,54.92L149.88,60.61L150.59,54.92L151.3,57.29L152.01,55.39L152.72,47.8L153.43,45.91L154.14,48.28L155.57,49.7L156.28,46.85L159.12,29.78L159.83,29.78L160.54,31.68L161.25,37.37L161.96,38.32L162.67,34.52L163.38,34.05L164.09,37.37L166.22,73.41L166.93,72.47L167.64,72.47L168.35,72.94L169.06,77.21L169.77,78.63L170.48,77.68L171.19,72.47L173.32,81L174.03,74.36L176.17,45.43L176.88,44.96L177.59,34.52L178.3,35L179.01,34.52L179.72,32.15L180.43,35.47L181.85,43.06L182.56,43.53L183.27,43.06L183.98,40.69L187.53,35L188.24,30.25L189.66,25.51L190.37,16.5" style="vector-effect: none; fill: none; stroke: rgb(138, 44, 81); stroke-opacity: 1; stroke-width: 5px; opacity: 1;"/></g><g class="points"/><g class="text"/></g><g class="trace scatter trace410dc7" style="stroke-miterlimit: 2; opacity: 1;"><g class="fills"/><g class="errorbars"/><g class="lines"><path class="js-line" d="M0,123.21L2.13,129.85L2.84,129.85L4.26,129.85L4.97,133.17L7.1,126.06L7.81,126.06L13.5,127.01L14.21,127.96L16.34,127.96L17.05,130.33L41.2,130.33L41.91,143.61L47.59,143.61L48.3,141.24L49.01,139.34L49.72,128.43L51.14,112.3L51.86,116.57L52.57,120.84L53.28,106.61L59.67,106.61L60.38,113.73L61.09,113.73L61.8,106.61L62.51,113.73L63.22,105.19L64.64,103.29L65.35,112.3L66.77,103.29L67.48,103.29L68.19,103.29L68.9,112.3L69.61,112.3L70.32,103.29L71.74,112.3L72.46,103.77L73.88,114.68L74.59,114.68L75.3,114.68L76.01,117.52L78.14,117.52L78.85,119.89L80.98,131.28L81.69,131.28L84.53,131.28L85.24,132.7L88.08,133.17L88.79,133.17L90.92,133.17L91.63,134.6L93.77,139.34L95.19,139.34L100.16,139.81L100.87,137.92L102.29,142.66L103,142.66L109.39,141.71L110.1,149.3L111.52,151.2L112.23,151.2L115.08,159.26L115.79,150.25L117.21,150.25L117.92,154.99L119.34,161.16L120.05,161.16L125.02,161.16L125.73,154.52L127.15,150.72L127.86,150.72L128.57,148.82L129.28,137.92L129.99,134.6L130.7,135.54L131.41,136.97L137.1,136.97L137.81,134.6L138.52,134.6L139.23,146.93L141.36,161.63L142.07,160.21L143.49,150.72L144.2,159.73L144.91,159.73L145.62,157.36L147.04,151.67L147.75,147.4L148.46,146.93L149.17,130.8L149.88,125.11L150.59,130.8L151.3,128.43L152.01,130.33L152.72,137.92L153.43,139.81L154.14,137.44L155.57,136.02L156.28,138.86L159.12,155.94L159.83,155.94L160.54,154.04L161.25,148.35L161.96,147.4L162.67,151.2L163.38,151.67L164.09,148.35L166.22,112.3L166.93,113.25L167.64,113.25L168.35,112.78L169.06,108.51L169.77,107.09L170.48,108.04L171.19,113.25L173.32,104.72L174.03,111.36L176.17,140.29L176.88,140.76L177.59,151.2L178.3,150.72L179.01,151.2L179.72,153.57L180.43,150.25L181.85,142.66L182.56,142.18L183.27,142.66L183.98,145.03L187.53,150.72L188.24,155.46L189.66,160.21L190.37,169.22" style="vector-effect: none; fill: none; stroke: rgb(0, 174, 239); stroke-opacity: 1; stroke-width: 5px; opacity: 1;"/></g><g class="points"/><g class="text"/></g><g class="trace scatter traceab9134" style="stroke-miterlimit: 2; opacity: 1;"><g class="fills"/><g class="errorbars"/><g class="lines"><path class="js-line" d="M0,282.1L2.13,283.52L2.84,283.52L4.26,283.52L4.97,286.84L7.1,281.15L7.81,281.15L30.54,282.1L31.26,287.79L39.78,287.79L41.2,283.99L41.91,253.17L43.33,253.17L47.59,253.17L48.3,254.59L51.14,258.86L51.86,257.43L52.57,255.54L53.28,259.33L59.67,259.33L60.38,257.43L61.09,257.43L61.8,259.33L62.51,257.43L63.22,260.28L64.64,262.18L65.35,258.86L66.77,262.18L67.48,262.18L68.19,262.18L68.9,258.86L69.61,258.86L70.32,262.18L71.74,258.86L72.46,272.61L73.88,263.13L74.59,263.13L75.3,263.6L76.01,270.71L77.43,276.41L78.14,276.41L78.85,274.98L79.56,279.73L81.69,280.67L82.4,280.67L85.24,280.67L85.95,282.57L90.92,282.57L91.63,280.67L93.77,269.77L95.19,269.77L99.45,269.77L100.16,275.93L100.87,277.83L101.58,284.47L104.42,284.47L105.13,288.26L113.66,289.21L114.37,289.69L115.08,289.69L115.79,304.39L117.21,304.39L117.92,306.29L119.34,309.13L120.05,309.13L128.57,309.13L129.28,313.4L130.7,314.35L131.41,316.25L137.81,317.19L138.52,318.14L140.65,322.89L141.36,322.89L142.78,323.83" style="vector-effect: none; fill: none; stroke: rgb(255, 1, 170); stroke-opacity: 1; stroke-width: 5px; opacity: 1;"/></g><g class="points"/><g class="text"/></g><g class="trace scatter tracee07301" style="stroke-miterlimit: 2; opacity: 1;"><g class="fills"/><g class="errorbars"/><g class="lines"><path class="js-line" d="M0,280.2L2.84,282.1L3.55,282.1L4.26,282.1L4.97,280.2L5.68,280.67L6.39,283.05L12.79,283.52L13.5,284.94L15.63,285.89L16.34,285.89L30.54,284.94L31.26,292.06L39.78,292.06L41.2,289.21L41.91,295.38L43.33,295.38L48.3,295.85L49.01,296.8L49.72,296.8L50.43,302.02L51.14,302.02L51.86,299.17L52.57,296.33L53.28,304.39L59.67,304.39L60.38,300.59L61.09,300.59L61.8,304.39L62.51,300.59L63.22,303.91L64.64,303.91L65.35,300.12L66.77,303.91L67.48,303.91L68.19,303.91L68.9,300.12L69.61,300.12L70.32,303.91L71.74,300.12L72.46,300.59L73.88,297.27L74.59,297.27L75.3,297.75L76.01,302.49L77.43,304.86L78.14,304.86L81.69,309.13L82.4,309.13L83.82,310.08L84.53,311.98L87.37,315.3L88.08,315.3L115.08,315.3L115.79,324.31L117.92,325.26" style="vector-effect: none; fill: none; stroke: rgb(238, 58, 67); stroke-opacity: 1; stroke-width: 5px; opacity: 1;"/></g><g class="points"/><g class="text"/></g><g class="trace scatter trace8f17c9" style="stroke-miterlimit: 2; opacity: 1;"><g class="fills"/><g class="errorbars"/><g class="lines"><path class="js-line" d="M0,292.53L3.55,293.48L4.26,293.48L4.97,286.84L5.68,295.85L7.1,301.54L7.81,301.54L26.28,300.59L26.99,300.12L30.54,300.12L31.26,302.49L41.2,301.54L41.91,303.44L51.14,303.91L51.86,305.81L52.57,307.71L53.28,304.39L59.67,304.39L60.38,305.81L61.09,305.81L61.8,304.39L63.93,307.23L64.64,307.23L66.77,307.23L67.48,307.23L71.74,307.71L72.46,309.13L76.01,309.13L76.72,310.08L79.56,311.03L80.27,312.45L84.53,315.3L85.24,316.25L86.66,317.67L87.37,317.67L104.42,317.67L105.13,322.41L115.08,322.89L115.79,324.31L117.92,325.26" style="vector-effect: none; fill: none; stroke: rgb(202, 166, 105); stroke-opacity: 1; stroke-width: 5px; opacity: 1;"/></g><g class="points"/><g class="text"/></g><g class="trace scatter trace9864dc" style="stroke-miterlimit: 2; opacity: 1;"><g class="fills"/><g class="errorbars"/><g class="lines"><path class="js-line" d="M0,296.8L3.55,298.22L4.26,298.22L7.1,297.27L7.81,297.27L16.34,297.75L17.05,298.7L26.28,298.7L26.99,302.49L30.54,302.49L31.26,306.29L39.78,306.29L41.2,300.59L41.91,312.93L43.33,312.93L49.72,313.4L50.43,316.72L52.57,316.72L53.28,318.62L71.74,317.67L72.46,319.09L74.59,318.14L75.3,318.14L78.85,319.09L79.56,320.04L83.82,321.94L84.53,323.83L104.42,323.83" style="vector-effect: none; fill: none; stroke: rgb(255, 192, 203); stroke-opacity: 1; stroke-width: 5px; opacity: 1;"/></g><g class="points"/><g class="text"/></g></g></g><g class="overplot"/><path class="xlines-above crisp" d="M0,0" style="fill: none;"/><path class="ylines-above crisp" d="M0,0" style="fill: none;"/><g class="overlines-above"/><g class="xaxislayer-above"><g class="xtick"><text text-anchor="middle" x="0" y="363" transform="translate(57.1,0)" style="font-family: 'Open Sans', verdana, arial, sans-serif; font-size: 12px; fill: rgb(42, 63, 95); fill-opacity: 1; white-space: pre; opacity: 1;">1.7.23</text></g><g class="xtick"><text text-anchor="middle" x="0" y="363" style="font-family: 'Open Sans', verdana, arial, sans-serif; font-size: 12px; fill: rgb(42, 63, 95); fill-opacity: 1; white-space: pre; opacity: 1;" transform="translate(101.14,0)">1.9.23</text></g><g class="xtick"><text text-anchor="middle" x="0" y="363" style="font-family: 'Open Sans', verdana, arial, sans-serif; font-size: 12px; fill: rgb(42, 63, 95); fill-opacity: 1; white-space: pre; opacity: 1;" transform="translate(144.48000000000002,0)">1.11.23</text></g><g class="xtick"><text text-anchor="middle" x="0" y="363" style="font-family: 'Open Sans', verdana, arial, sans-serif; font-size: 12px; fill: rgb(42, 63, 95); fill-opacity: 1; white-space: pre; opacity: 1;" transform="translate(187.81,0)">1.1.24</text></g><g class="xtick"><text text-anchor="middle" x="0" y="363" style="font-family: 'Open Sans', verdana, arial, sans-serif; font-size: 12px; fill: rgb(42, 63, 95); fill-opacity: 1; white-space: pre; opacity: 1;" transform="translate(230.43,0)">1.3.24</text></g></g><g class="yaxislayer-above"><g class="ytick"><text text-anchor="end" x="49" y="4.199999999999999" transform="translate(0,350)" style="font-family: 'Open Sans', verdana, arial, sans-serif; font-size: 12px; fill: rgb(42, 63, 95); fill-opacity: 1; white-space: pre; opacity: 1;">0%</text></g><g class="ytick"><text text-anchor="end" x="49" y="4.199999999999999" style="font-family: 'Open Sans', verdana, arial, sans-serif; font-size: 12px; fill: rgb(42, 63, 95); fill-opacity: 1; white-space: pre; opacity: 1;" transform="translate(0,302.57)">10%</text></g><g class="ytick"><text text-anchor="end" x="49" y="4.199999999999999" style="font-family: 'Open Sans', verdana, arial, sans-serif; font-size: 12px; fill: rgb(42, 63, 95); fill-opacity: 1; white-space: pre; opacity: 1;" transform="translate(0,255.14)">20%</text></g><g class="ytick"><text text-anchor="end" x="49" y="4.199999999999999" style="font-family: 'Open Sans', verdana, arial, sans-serif; font-size: 12px; fill: rgb(42, 63, 95); fill-opacity: 1; white-space: pre; opacity: 1;" transform="translate(0,207.72)">30%</text></g><g class="ytick"><text text-anchor="end" x="49" y="4.199999999999999" style="font-family: 'Open Sans', verdana, arial, sans-serif; font-size: 12px; fill: rgb(42, 63, 95); fill-opacity: 1; white-space: pre; opacity: 1;" transform="translate(0,160.29)">40%</text></g><g class="ytick"><text text-anchor="end" x="49" y="4.199999999999999" style="font-family: 'Open Sans', verdana, arial, sans-serif; font-size: 12px; fill: rgb(42, 63, 95); fill-opacity: 1; white-space: pre; opacity: 1;" transform="translate(0,112.86)">50%</text></g><g class="ytick"><text text-anchor="end" x="49" y="4.199999999999999" style="font-family: 'Open Sans', verdana, arial, sans-serif; font-size: 12px; fill: rgb(42, 63, 95); fill-opacity: 1; white-space: pre; opacity: 1;" transform="translate(0,65.43)">60%</text></g></g><g class="overaxes-above"/></g></g><g class="polarlayer"/><g class="smithlayer"/><g class="ternarylayer"/><g class="geolayer"/><g class="funnelarealayer"/><g class="pielayer"/><g class="iciclelayer"/><g class="treemaplayer"/><g class="sunburstlayer"/><g class="glimages"/><defs id="topdefs-90d862"><g class="clips"/><clipPath id="legend90d862"><rect width="128" height="124" x="0" y="0"/></clipPath></defs><g class="layer-above"><g class="imagelayer"/><g class="shapelayer"/></g><g class="infolayer"><g class="legend" pointer-events="all" transform="translate(260.12,20)"><rect class="bg" shape-rendering="crispEdges" width="128" height="124" x="0" y="0" style="stroke: rgb(68, 68, 68); stroke-opacity: 1; fill: rgb(255, 255, 255); fill-opacity: 1; stroke-width: 0px;"/><g class="scrollbox" transform="" clip-path="url(#legend90d862)"><g class="groups"><g class="traces" transform="translate(0,14.5)" style="opacity: 1;"><text class="legendtext" text-anchor="start" x="40" y="4.680000000000001" style="font-family: 'Open Sans', verdana, arial, sans-serif; font-size: 12px; fill: rgb(42, 63, 95); fill-opacity: 1; white-space: pre;">Pellegrini Peter</text><g class="layers" style="opacity: 1;"><g class="legendfill"/><g class="legendlines"><path class="js-line" d="M5,0h30" style="fill: none; stroke: rgb(138, 44, 81); stroke-opacity: 1; stroke-width: 5px;"/></g><g class="legendsymbols"><g class="legendpoints"/></g></g><rect class="legendtoggle" x="0" y="-9.5" width="122.703125" height="19" style="fill: rgb(0, 0, 0); fill-opacity: 0;"/></g><g class="traces" transform="translate(0,33.5)" style="opacity: 1;"><text class="legendtext" text-anchor="start" x="40" y="4.680000000000001" style="font-family: 'Open Sans', verdana, arial, sans-serif; font-size: 12px; fill: rgb(42, 63, 95); fill-opacity: 1; white-space: pre;">Korčok Ivan</text><g class="layers" style="opacity: 1;"><g class="legendfill"/><g class="legendlines"><path class="js-line" d="M5,0h30" style="fill: none; stroke: rgb(0, 174, 239); stroke-opacity: 1; stroke-width: 5px;"/></g><g class="legendsymbols"><g class="legendpoints"/></g></g><rect class="legendtoggle" x="0" y="-9.5" width="122.703125" height="19" style="fill: rgb(0, 0, 0); fill-opacity: 0;"/></g><g class="traces" transform="translate(0,52.5)" style="opacity: 1;"><text class="legendtext" text-anchor="start" x="40" y="4.680000000000001" style="font-family: 'Open Sans', verdana, arial, sans-serif; font-size: 12px; fill: rgb(42, 63, 95); fill-opacity: 1; white-space: pre;">Kubiš Ján</text><g class="layers" style="opacity: 1;"><g class="legendfill"/><g class="legendlines"><path class="js-line" d="M5,0h30" style="fill: none; stroke: rgb(255, 1, 170); stroke-opacity: 1; stroke-width: 5px;"/></g><g class="legendsymbols"><g class="legendpoints"/></g></g><rect class="legendtoggle" x="0" y="-9.5" width="122.703125" height="19" style="fill: rgb(0, 0, 0); fill-opacity: 0;"/></g><g class="traces" transform="translate(0,71.5)" style="opacity: 1;"><text class="legendtext" text-anchor="start" x="40" y="4.680000000000001" style="font-family: 'Open Sans', verdana, arial, sans-serif; font-size: 12px; fill: rgb(42, 63, 95); fill-opacity: 1; white-space: pre;">Fico Robert</text><g class="layers" style="opacity: 1;"><g class="legendfill"/><g class="legendlines"><path class="js-line" d="M5,0h30" style="fill: none; stroke: rgb(238, 58, 67); stroke-opacity: 1; stroke-width: 5px;"/></g><g class="legendsymbols"><g class="legendpoints"/></g></g><rect class="legendtoggle" x="0" y="-9.5" width="122.703125" height="19" style="fill: rgb(0, 0, 0); fill-opacity: 0;"/></g><g class="traces" transform="translate(0,90.5)" style="opacity: 1;"><text class="legendtext" text-anchor="start" x="40" y="4.680000000000001" style="font-family: 'Open Sans', verdana, arial, sans-serif; font-size: 12px; fill: rgb(42, 63, 95); fill-opacity: 1; white-space: pre;">Mistrík Robert</text><g class="layers" style="opacity: 1;"><g class="legendfill"/><g class="legendlines"><path class="js-line" d="M5,0h30" style="fill: none; stroke: rgb(202, 166, 105); stroke-opacity: 1; stroke-width: 5px;"/></g><g class="legendsymbols"><g class="legendpoints"/></g></g><rect class="legendtoggle" x="0" y="-9.5" width="122.703125" height="19" style="fill: rgb(0, 0, 0); fill-opacity: 0;"/></g><g class="traces" transform="translate(0,109.5)" style="opacity: 1;"><text class="legendtext" text-anchor="start" x="40" y="4.680000000000001" style="font-family: 'Open Sans', verdana, arial, sans-serif; font-size: 12px; fill: rgb(42, 63, 95); fill-opacity: 1; white-space: pre;">Lajčák Miroslav</text><g class="layers" style="opacity: 1;"><g class="legendfill"/><g class="legendlines"><path class="js-line" d="M5,0h30" style="fill: none; stroke: rgb(255, 192, 203); stroke-opacity: 1; stroke-width: 5px;"/></g><g class="legendsymbols"><g class="legendpoints"/></g></g><rect class="legendtoggle" x="0" y="-9.5" width="122.703125" height="19" style="fill: rgb(0, 0, 0); fill-opacity: 0;"/></g></g></g><rect class="scrollbar" rx="20" ry="3" width="0" height="0" x="0" y="0" style="fill: rgb(128, 139, 164); fill-opacity: 1;"/></g><g class="g-gtitle"/><g class="g-xtitle"/><g class="g-ytitle"/></g></svg>