<svg class="main-svg" xmlns="http://www.w3.org/2000/svg" xmlns:xlink="http://www.w3.org/1999/xlink" width="400" height="400" style="" viewBox="0 0 400 400"><rect x="0" y="0" width="400" height="400" style="fill: rgb(255, 255, 255); fill-opacity: 1;"/><defs id="defs-b28b0d"><g class="clips"><clipPath id="clipb28b0dxyplot" class="plotclip"><rect width="196" height="330"/></clipPath><clipPath class="axesclip" id="clipb28b0dx"><rect x="50" y="0" width="196" height="400"/></clipPath><clipPath class="axesclip" id="clipb28b0dy"><rect x="0" y="20" width="400" height="330"/></clipPath><clipPath class="axesclip" id="clipb28b0dxy"><rect x="50" y="20" width="196" height="330"/></clipPath></g><g class="gradients"/><g class="patterns"/></defs><g class="bglayer"/><g class="layer-below"><g class="imagelayer"/><g class="shapelayer"/></g><g class="cartesianlayer"><g class="subplot xy"><g class="layer-subplot"><g class="shapelayer"/><g class="imagelayer"/></g><g class="minor-gridlayer"><g class="x"/><g class="y"/></g><g class="gridlayer"><g class="x"><path class="xgrid crisp" transform="translate(56.76,0)" d="M0,20v330" style="stroke: rgb(235, 240, 248); stroke-opacity: 1; stroke-width: 1px;"/><path class="xgrid crisp" transform="translate(98.66,0)" d="M0,20v330" style="stroke: rgb(235, 240, 248); stroke-opacity: 1; stroke-width: 1px;"/><path class="xgrid crisp" transform="translate(139.89,0)" d="M0,20v330" style="stroke: rgb(235, 240, 248); stroke-opacity: 1; stroke-width: 1px;"/><path class="xgrid crisp" transform="translate(181.12,0)" d="M0,20v330" style="stroke: rgb(235, 240, 248); stroke-opacity: 1; stroke-width: 1px;"/><path class="xgrid crisp" transform="translate(221.67,0)" d="M0,20v330" style="stroke: rgb(235, 240, 248); stroke-opacity: 1; stroke-width: 1px;"/></g><g class="y"><path class="ygrid crisp" transform="translate(0,306.09)" d="M50,0h196" style="stroke: rgb(235, 240, 248); stroke-opacity: 1; stroke-width: 1px;"/><path class="ygrid crisp" transform="translate(0,262.18)" d="M50,0h196" style="stroke: rgb(235, 240, 248); stroke-opacity: 1; stroke-width: 1px;"/><path class="ygrid crisp" transform="translate(0,218.28)" d="M50,0h196" style="stroke: rgb(235, 240, 248); stroke-opacity: 1; stroke-width: 1px;"/><path class="ygrid crisp" transform="translate(0,174.37)" d="M50,0h196" style="stroke: rgb(235, 240, 248); stroke-opacity: 1; stroke-width: 1px;"/><path class="ygrid crisp" transform="translate(0,130.45999999999998)" d="M50,0h196" style="stroke: rgb(235, 240, 248); stroke-opacity: 1; stroke-width: 1px;"/><path class="ygrid crisp" transform="translate(0,86.55)" d="M50,0h196" style="stroke: rgb(235, 240, 248); stroke-opacity: 1; stroke-width: 1px;"/><path class="ygrid crisp" transform="translate(0,42.65)" d="M50,0h196" style="stroke: rgb(235, 240, 248); stroke-opacity: 1; stroke-width: 1px;"/></g></g><g class="zerolinelayer"><path class="yzl zl crisp" transform="translate(0,350)" d="M50,0h196" style="stroke: rgb(235, 240, 248); stroke-opacity: 1; stroke-width: 2px;"/></g><path class="xlines-below"/><path class="ylines-below"/><g class="overlines-below"/><g class="xaxislayer-below"/><g class="yaxislayer-below"/><g class="overaxes-below"/><g class="plot" transform="translate(50,20)" clip-path="url(#clipb28b0dxyplot)"><g class="scatterlayer mlayer"><g class="trace scatter trace47df15" style="stroke-miterlimit: 2; opacity: 1;"><g class="fills"/><g class="errorbars"/><g class="lines"><path class="js-line" d="M0,138.56L2.03,144.71L2.7,144.71L4.06,144.71L4.73,147.78L6.76,141.2L7.43,141.2L12.84,142.08L13.52,142.95L15.54,142.95L16.22,145.15L39.2,145.15L39.88,157.44L45.28,157.44L45.96,155.25L46.63,153.49L47.31,143.39L48.66,128.46L49.34,132.42L50.01,136.37L50.69,123.2L56.77,123.2L57.45,129.78L58.12,129.78L58.8,123.2L59.48,129.78L60.15,121.88L61.5,120.12L62.18,128.46L63.53,120.12L64.21,120.12L64.88,120.12L65.56,128.46L66.23,128.46L66.91,120.12L68.26,128.46L68.94,120.56L70.29,130.66L70.97,130.66L71.64,130.66L72.32,133.29L74.34,133.29L75.02,135.49L77.05,146.03L77.72,146.03L80.43,146.03L81.1,147.34L83.81,147.78L84.48,147.78L86.51,147.78L87.19,149.1L89.21,153.49L90.57,153.49L95.3,153.93L95.97,152.17L97.32,156.57L98,156.57L104.08,155.69L104.76,162.71L106.11,164.47L106.79,164.47L109.49,171.93L110.17,163.59L111.52,163.59L112.19,167.98L113.54,173.69L114.22,173.69L118.95,173.69L119.63,167.54L120.98,164.03L121.66,164.03L122.33,162.27L123.01,152.17L123.68,149.1L124.36,149.98L125.03,151.3L130.44,151.3L131.12,149.1L131.79,149.1L132.47,160.52L134.5,174.13L135.17,172.81L136.52,164.03L137.2,172.37L137.88,172.37L138.55,170.18L139.9,164.91L140.58,160.96L141.26,160.52L141.93,145.59L142.61,140.32L143.28,145.59L143.96,143.39L144.63,145.15L145.31,152.17L145.99,153.93L146.66,151.74L148.01,150.42L148.69,153.05L151.39,168.86L152.07,168.86L154.1,160.96L154.77,164.47L155.45,164.91L156.12,161.83L158.15,128.46L158.83,129.34L159.5,129.34L160.18,128.9L160.86,124.95L161.53,123.63L162.21,124.51L162.88,129.34L164.91,121.44L165.59,127.59L167.61,154.37L168.29,154.81L168.97,164.47L169.64,164.03L170.32,164.47L170.99,166.66L171.67,163.59L173.02,156.57L173.7,156.13L174.37,156.57L175.05,158.76L178.43,164.03L179.1,168.42L180.46,172.81L181.13,184.67L183.83,193.89L184.51,196.52L185.86,204.42L186.54,192.57L187.89,105.63L188.57,106.95L189.24,104.75" style="vector-effect: none; fill: none; stroke: rgb(0, 174, 239); stroke-opacity: 1; stroke-width: 5px; opacity: 1;"/></g><g class="points"/><g class="text"/></g><g class="trace scatter trace801f8f" style="stroke-miterlimit: 2; opacity: 1;"><g class="fills"/><g class="errorbars"/><g class="lines"><path class="js-line" d="M0,238.23L2.03,226.82L2.7,226.82L4.06,226.82L4.73,229.89L6.76,224.62L7.43,224.62L9.46,224.62L10.14,223.3L12.17,223.3L12.84,221.99L14.87,221.11L15.54,221.11L16.9,218.47L17.57,218.47L25.01,218.47L25.68,215.4L29.06,215.4L29.74,196.96L37.85,196.96L39.2,209.69L39.88,207.06L41.23,207.06L46.63,206.18L47.31,215.84L48.66,220.67L49.34,218.91L50.01,217.16L50.69,221.11L56.77,221.11L57.45,219.35L58.12,219.35L58.8,221.11L59.48,219.35L60.15,220.67L60.83,219.35L68.26,218.47L68.94,209.69L70.29,213.21L70.97,213.21L71.64,212.33L72.32,197.84L73.67,189.06L74.34,189.06L75.02,186.86L75.7,172.37L77.72,164.03L78.4,164.03L79.08,164.03L79.75,161.39L82.46,147.78L83.13,147.78L87.19,148.22L87.86,149.1L88.54,149.1L89.21,153.49L94.62,153.49L95.3,147.34L95.97,147.34L96.65,136.81L99.35,136.81L100.03,124.95L104.08,124.95L104.76,117.93L106.11,115.29L106.79,115.29L109.49,106.51L110.17,91.58L111.52,91.58L112.19,84.12L113.54,66.12L114.22,66.12L118.95,66.12L119.63,72.7L120.98,75.78L121.66,75.78L122.33,77.53L123.01,84.56L123.68,87.19L124.36,85.43L125.03,82.36L130.44,81.48L131.12,83.68L131.79,82.8L132.47,68.31L134.5,53.38L135.17,54.7L135.85,59.97L136.52,56.89L137.2,48.55L137.88,48.55L138.55,50.75L139.9,56.02L140.58,59.97L141.26,60.41L141.93,75.34L142.61,80.61L143.28,75.34L143.96,77.53L144.63,75.78L145.31,68.75L145.99,66.99L146.66,69.19L148.01,70.51L148.69,67.87L151.39,52.07L152.07,52.07L154.1,59.97L154.77,56.46L155.45,56.02L156.12,59.09L158.15,92.46L158.83,91.58L159.5,91.58L160.18,92.02L160.86,95.97L161.53,97.29L162.21,96.41L162.88,91.58L164.91,99.49L165.59,93.34L167.61,66.55L168.29,66.12L168.97,56.46L169.64,56.89L170.32,56.46L170.99,54.26L171.67,57.33L173.02,64.36L173.7,64.8L174.37,64.36L175.05,62.16L178.43,56.89L179.1,52.5L180.46,48.11L181.13,36.26L183.83,27.04L184.51,24.4L185.86,16.5L186.54,28.36L187.89,115.29L188.57,113.97L189.24,116.17" style="vector-effect: none; fill: none; stroke: rgb(138, 44, 81); stroke-opacity: 1; stroke-width: 5px; opacity: 1;"/></g><g class="points"/><g class="text"/></g><g class="trace scatter tracef890c8" style="stroke-miterlimit: 2; opacity: 1;"><g class="fills"/><g class="errorbars"/><g class="lines"><path class="js-line" d="M0,283.9L2.7,285.65L3.38,285.65L4.06,285.65L4.73,283.9L5.41,284.34L6.08,286.53L12.17,286.97L12.84,288.29L14.87,289.17L15.54,289.17L29.06,288.29L29.74,294.87L37.85,294.87L39.2,292.24L39.88,297.95L41.23,297.95L45.96,298.39L46.63,299.26L47.31,299.26L47.99,304.09L48.66,304.09L49.34,301.46L50.01,298.83L50.69,306.29L56.77,306.29L57.45,302.78L58.12,302.78L58.8,306.29L59.48,302.78L60.15,305.85L60.83,305.85L61.5,305.85L62.18,302.34L63.53,305.85L64.21,305.85L64.88,305.85L65.56,302.34L66.23,302.34L66.91,305.85L68.26,302.34L68.94,302.78L70.29,299.7L70.97,299.7L71.64,300.14L72.32,304.53L73.67,306.73L74.34,306.73L77.72,310.68L78.4,310.68L79.75,311.56L80.43,313.32L83.13,316.39L83.81,316.39L109.49,316.39L110.17,324.73L112.19,325.61" style="vector-effect: none; fill: none; stroke: rgb(238, 58, 67); stroke-opacity: 1; stroke-width: 5px; opacity: 1;"/></g><g class="points"/><g class="text"/></g><g class="trace scatter trace97f9ff" style="stroke-miterlimit: 2; opacity: 1;"><g class="fills"/><g class="errorbars"/><g class="lines"><path class="js-line" d="M0,295.31L3.38,296.19L4.06,296.19L4.73,290.04L5.41,298.39L6.76,303.66L7.43,303.66L25.01,302.78L25.68,302.34L29.06,302.34L29.74,304.53L39.2,303.66L39.88,305.41L48.66,305.85L49.34,307.61L50.01,309.36L50.69,306.29L56.77,306.29L57.45,307.61L58.12,307.61L58.8,306.29L61.5,308.92L62.18,309.36L64.88,308.92L65.56,309.36L68.26,309.36L68.94,310.68L72.32,310.68L72.99,311.56L75.7,312.44L76.37,313.75L80.43,316.39L81.1,317.27L83.13,318.58L83.81,318.58L99.35,318.58L100.03,322.97L109.49,323.41L110.17,324.73L112.19,325.61" style="vector-effect: none; fill: none; stroke: rgb(202, 166, 105); stroke-opacity: 1; stroke-width: 5px; opacity: 1;"/></g><g class="points"/><g class="text"/></g><g class="trace scatter trace685e31" style="stroke-miterlimit: 2; opacity: 1;"><g class="fills"/><g class="errorbars"/><g class="lines"><path class="js-line" d="M0,285.65L2.03,286.97L2.7,286.97L4.06,286.97L4.73,290.04L6.76,284.78L7.43,284.78L29.06,285.65L29.74,290.92L37.85,290.92L39.2,287.41L39.88,258.87L41.23,258.87L45.28,258.87L45.96,260.19L48.66,264.14L49.34,262.82L50.01,261.07L50.69,264.58L56.77,264.58L57.45,262.82L58.12,262.82L58.8,264.58L59.48,262.82L60.15,265.46L61.5,267.21L62.18,264.14L63.53,267.21L64.21,267.21L64.88,267.21L65.56,264.14L66.23,264.14L66.91,267.21L68.26,264.14L68.94,276.87L70.29,268.09L70.97,268.09L71.64,268.53L72.32,275.12L73.67,280.38L74.34,280.38L75.02,279.07L75.7,283.46L77.72,284.34L78.4,284.34L81.1,284.34L81.78,286.09L86.51,286.09L87.19,284.34L89.21,274.24L90.57,274.24L94.62,274.24L95.3,279.95L95.97,281.7L96.65,287.85L99.35,287.85L100.03,291.36L108.14,292.24L108.81,292.68L109.49,292.68L110.17,306.29L111.52,306.29L112.19,308.05L113.54,310.68L114.22,310.68L122.33,310.68L123.01,314.63L124.36,315.51L125.03,317.27L131.12,318.14L131.79,319.02L133.82,323.41L134.5,323.41L135.85,324.29" style="vector-effect: none; fill: none; stroke: rgb(255, 1, 170); stroke-opacity: 1; stroke-width: 5px; opacity: 1;"/></g><g class="points"/><g class="text"/></g><g class="trace scatter trace224ec5" style="stroke-miterlimit: 2; opacity: 1;"><g class="fills"/><g class="errorbars"/><g class="lines"><path class="js-line" d="M0,299.26L3.38,300.58L4.06,300.58L6.76,299.7L7.43,299.7L15.54,300.14L16.22,301.02L25.01,301.02L25.68,304.53L29.06,304.53L29.74,308.05L37.85,308.05L39.2,302.78L39.88,314.19L41.23,314.19L47.31,314.63L47.99,317.71L50.01,317.71L50.69,319.46L68.26,318.58L68.94,319.9L70.97,319.02L71.64,319.02L75.02,319.9L75.7,320.78L79.75,322.54L80.43,324.29L99.35,324.29" style="vector-effect: none; fill: none; stroke: rgb(255, 192, 203); stroke-opacity: 1; stroke-width: 5px; opacity: 1;"/></g><g class="points"/><g class="text"/></g></g></g><g class="overplot"/><path class="xlines-above crisp" d="M0,0" style="fill: none;"/><path class="ylines-above crisp" d="M0,0" style="fill: none;"/><g class="overlines-above"/><g class="xaxislayer-above"><g class="xtick"><text text-anchor="start" x="0" y="363" transform="translate(56.76,0) rotate(30,0,357)" style="font-family: 'Open Sans', verdana, arial, sans-serif; font-size: 12px; fill: rgb(42, 63, 95); fill-opacity: 1; white-space: pre; opacity: 1;">1.7.23</text></g><g class="xtick"><text text-anchor="start" x="0" y="363" style="font-family: 'Open Sans', verdana, arial, sans-serif; font-size: 12px; fill: rgb(42, 63, 95); fill-opacity: 1; white-space: pre; opacity: 1;" transform="translate(98.66,0) rotate(30,0,357)">1.9.23</text></g><g class="xtick"><text text-anchor="start" x="0" y="363" style="font-family: 'Open Sans', verdana, arial, sans-serif; font-size: 12px; fill: rgb(42, 63, 95); fill-opacity: 1; white-space: pre; opacity: 1;" transform="translate(139.89,0) rotate(30,0,357)">1.11.23</text></g><g class="xtick"><text text-anchor="start" x="0" y="363" style="font-family: 'Open Sans', verdana, arial, sans-serif; font-size: 12px; fill: rgb(42, 63, 95); fill-opacity: 1; white-space: pre; opacity: 1;" transform="translate(181.12,0) rotate(30,0,357)">1.1.24</text></g><g class="xtick"><text text-anchor="start" x="0" y="363" style="font-family: 'Open Sans', verdana, arial, sans-serif; font-size: 12px; fill: rgb(42, 63, 95); fill-opacity: 1; white-space: pre; opacity: 1;" transform="translate(221.67,0) rotate(30,0,357)">1.3.24</text></g></g><g class="yaxislayer-above"><g class="ytick"><text text-anchor="end" x="49" y="4.199999999999999" transform="translate(0,350)" style="font-family: 'Open Sans', verdana, arial, sans-serif; font-size: 12px; fill: rgb(42, 63, 95); fill-opacity: 1; white-space: pre; opacity: 1;">0%</text></g><g class="ytick"><text text-anchor="end" x="49" y="4.199999999999999" style="font-family: 'Open Sans', verdana, arial, sans-serif; font-size: 12px; fill: rgb(42, 63, 95); fill-opacity: 1; white-space: pre; opacity: 1;" transform="translate(0,306.09)">10%</text></g><g class="ytick"><text text-anchor="end" x="49" y="4.199999999999999" style="font-family: 'Open Sans', verdana, arial, sans-serif; font-size: 12px; fill: rgb(42, 63, 95); fill-opacity: 1; white-space: pre; opacity: 1;" transform="translate(0,262.18)">20%</text></g><g class="ytick"><text text-anchor="end" x="49" y="4.199999999999999" style="font-family: 'Open Sans', verdana, arial, sans-serif; font-size: 12px; fill: rgb(42, 63, 95); fill-opacity: 1; white-space: pre; opacity: 1;" transform="translate(0,218.28)">30%</text></g><g class="ytick"><text text-anchor="end" x="49" y="4.199999999999999" style="font-family: 'Open Sans', verdana, arial, sans-serif; font-size: 12px; fill: rgb(42, 63, 95); fill-opacity: 1; white-space: pre; opacity: 1;" transform="translate(0,174.37)">40%</text></g><g class="ytick"><text text-anchor="end" x="49" y="4.199999999999999" style="font-family: 'Open Sans', verdana, arial, sans-serif; font-size: 12px; fill: rgb(42, 63, 95); fill-opacity: 1; white-space: pre; opacity: 1;" transform="translate(0,130.45999999999998)">50%</text></g><g class="ytick"><text text-anchor="end" x="49" y="4.199999999999999" style="font-family: 'Open Sans', verdana, arial, sans-serif; font-size: 12px; fill: rgb(42, 63, 95); fill-opacity: 1; white-space: pre; opacity: 1;" transform="translate(0,86.55)">60%</text></g><g class="ytick"><text text-anchor="end" x="49" y="4.199999999999999" style="font-family: 'Open Sans', verdana, arial, sans-serif; font-size: 12px; fill: rgb(42, 63, 95); fill-opacity: 1; white-space: pre; opacity: 1;" transform="translate(0,42.65)">70%</text></g></g><g class="overaxes-above"/></g></g><g class="polarlayer"/><g class="smithlayer"/><g class="ternarylayer"/><g class="geolayer"/><g class="funnelarealayer"/><g class="pielayer"/><g class="iciclelayer"/><g class="treemaplayer"/><g class="sunburstlayer"/><g class="glimages"/><defs id="topdefs-b28b0d"><g class="clips"/><clipPath id="legendb28b0d"><rect width="138" height="124" x="0" y="0"/></clipPath></defs><g class="layer-above"><g class="imagelayer"/><g class="shapelayer"/></g><g class="infolayer"><g class="legend" pointer-events="all" transform="translate(249.92000000000002,20)"><rect class="bg" shape-rendering="crispEdges" width="138" height="124" x="0" y="0" style="stroke: rgb(68, 68, 68); stroke-opacity: 1; fill: rgb(255, 255, 255); fill-opacity: 1; stroke-width: 0px;"/><g class="scrollbox" transform="" clip-path="url(#legendb28b0d)"><g class="groups"><g class="traces" transform="translate(0,14.5)" style="opacity: 1;"><text class="legendtext" text-anchor="start" x="40" y="4.680000000000001" style="font-family: 'Open Sans', verdana, arial, sans-serif; font-size: 12px; fill: rgb(42, 63, 95); fill-opacity: 1; white-space: pre;">Korčok Ivan</text><g class="layers" style="opacity: 1;"><g class="legendfill"/><g class="legendlines"><path class="js-line" d="M5,0h30" style="fill: none; stroke: rgb(0, 174, 239); stroke-opacity: 1; stroke-width: 5px;"/></g><g class="legendsymbols"><g class="legendpoints"/></g></g><rect class="legendtoggle" x="0" y="-9.5" width="132.375" height="19" style="fill: rgb(0, 0, 0); fill-opacity: 0;"/></g><g class="traces" transform="translate(0,33.5)" style="opacity: 1;"><text class="legendtext" text-anchor="start" x="40" y="4.680000000000001" style="font-family: 'Open Sans', verdana, arial, sans-serif; font-size: 12px; fill: rgb(42, 63, 95); fill-opacity: 1; white-space: pre;">Pellegrini Peter</text><g class="layers" style="opacity: 1;"><g class="legendfill"/><g class="legendlines"><path class="js-line" d="M5,0h30" style="fill: none; stroke: rgb(138, 44, 81); stroke-opacity: 1; stroke-width: 5px;"/></g><g class="legendsymbols"><g class="legendpoints"/></g></g><rect class="legendtoggle" x="0" y="-9.5" width="132.375" height="19" style="fill: rgb(0, 0, 0); fill-opacity: 0;"/></g><g class="traces" transform="translate(0,52.5)" style="opacity: 1;"><text class="legendtext" text-anchor="start" x="40" y="4.680000000000001" style="font-family: 'Open Sans', verdana, arial, sans-serif; font-size: 12px; fill: rgb(42, 63, 95); fill-opacity: 1; white-space: pre;">Fico Robert</text><g class="layers" style="opacity: 1;"><g class="legendfill"/><g class="legendlines"><path class="js-line" d="M5,0h30" style="fill: none; stroke: rgb(238, 58, 67); stroke-opacity: 1; stroke-width: 5px;"/></g><g class="legendsymbols"><g class="legendpoints"/></g></g><rect class="legendtoggle" x="0" y="-9.5" width="132.375" height="19" style="fill: rgb(0, 0, 0); fill-opacity: 0;"/></g><g class="traces" transform="translate(0,71.5)" style="opacity: 1;"><text class="legendtext" text-anchor="start" x="40" y="4.680000000000001" style="font-family: 'Open Sans', verdana, arial, sans-serif; font-size: 12px; fill: rgb(42, 63, 95); fill-opacity: 1; white-space: pre;">Mistrík Robert</text><g class="layers" style="opacity: 1;"><g class="legendfill"/><g class="legendlines"><path class="js-line" d="M5,0h30" style="fill: none; stroke: rgb(202, 166, 105); stroke-opacity: 1; stroke-width: 5px;"/></g><g class="legendsymbols"><g class="legendpoints"/></g></g><rect class="legendtoggle" x="0" y="-9.5" width="132.375" height="19" style="fill: rgb(0, 0, 0); fill-opacity: 0;"/></g><g class="traces" transform="translate(0,90.5)" style="opacity: 1;"><text class="legendtext" text-anchor="start" x="40" y="4.680000000000001" style="font-family: 'Open Sans', verdana, arial, sans-serif; font-size: 12px; fill: rgb(42, 63, 95); fill-opacity: 1; white-space: pre;">Kubiš Ján</text><g class="layers" style="opacity: 1;"><g class="legendfill"/><g class="legendlines"><path class="js-line" d="M5,0h30" style="fill: none; stroke: rgb(255, 1, 170); stroke-opacity: 1; stroke-width: 5px;"/></g><g class="legendsymbols"><g class="legendpoints"/></g></g><rect class="legendtoggle" x="0" y="-9.5" width="132.375" height="19" style="fill: rgb(0, 0, 0); fill-opacity: 0;"/></g><g class="traces" transform="translate(0,109.5)" style="opacity: 1;"><text class="legendtext" text-anchor="start" x="40" y="4.680000000000001" style="font-family: 'Open Sans', verdana, arial, sans-serif; font-size: 12px; fill: rgb(42, 63, 95); fill-opacity: 1; white-space: pre;">Lajčák Miroslav</text><g class="layers" style="opacity: 1;"><g class="legendfill"/><g class="legendlines"><path class="js-line" d="M5,0h30" style="fill: none; stroke: rgb(255, 192, 203); stroke-opacity: 1; stroke-width: 5px;"/></g><g class="legendsymbols"><g class="legendpoints"/></g></g><rect class="legendtoggle" x="0" y="-9.5" width="132.375" height="19" style="fill: rgb(0, 0, 0); fill-opacity: 0;"/></g></g></g><rect class="scrollbar" rx="20" ry="3" width="0" height="0" x="0" y="0" style="fill: rgb(128, 139, 164); fill-opacity: 1;"/></g><g class="g-gtitle"/><g class="g-xtitle"/><g class="g-ytitle"/></g></svg>