<svg class="main-svg" xmlns="http://www.w3.org/2000/svg" xmlns:xlink="http://www.w3.org/1999/xlink" width="300" height="135" style="" viewBox="0 0 300 135"><rect x="0" y="0" width="300" height="135" style="fill: rgb(255, 255, 255); fill-opacity: 1;"/><defs id="defs-5eb5af"><g class="clips"><clipPath id="clip5eb5afxyplot" class="plotclip"><rect width="280" height="75"/></clipPath><clipPath class="axesclip" id="clip5eb5afx"><rect x="10" y="0" width="280" height="135"/></clipPath><clipPath class="axesclip" id="clip5eb5afy"><rect x="0" y="50" width="300" height="75"/></clipPath><clipPath class="axesclip" id="clip5eb5afxy"><rect x="10" y="50" width="280" height="75"/></clipPath></g><g class="gradients"/><g class="patterns"/></defs><g class="bglayer"/><g class="layer-below"><g class="imagelayer"/><g class="shapelayer"/></g><g class="cartesianlayer"><g class="subplot xy"><g class="layer-subplot"><g class="shapelayer"/><g class="imagelayer"/></g><g class="minor-gridlayer"><g class="x"/><g class="y"/></g><g class="gridlayer"><g class="x"><path class="xgrid crisp" transform="translate(25.22,0)" d="M0,50v75" style="stroke: rgb(235, 240, 248); stroke-opacity: 1; stroke-width: 1px;"/><path class="xgrid crisp" transform="translate(119.57,0)" d="M0,50v75" style="stroke: rgb(235, 240, 248); stroke-opacity: 1; stroke-width: 1px;"/><path class="xgrid crisp" transform="translate(212.39,0)" d="M0,50v75" style="stroke: rgb(235, 240, 248); stroke-opacity: 1; stroke-width: 1px;"/></g><g class="y"><path class="ygrid crisp" transform="translate(0,101.28999999999999)" d="M10,0h280" style="stroke: rgb(235, 240, 248); stroke-opacity: 1; stroke-width: 1px;"/><path class="ygrid crisp" transform="translate(0,77.58)" d="M10,0h280" style="stroke: rgb(235, 240, 248); stroke-opacity: 1; stroke-width: 1px;"/><path class="ygrid crisp" transform="translate(0,53.87)" d="M10,0h280" style="stroke: rgb(235, 240, 248); stroke-opacity: 1; stroke-width: 1px;"/></g></g><g class="zerolinelayer"><path class="yzl zl crisp" transform="translate(0,125)" d="M10,0h280" style="stroke: rgb(235, 240, 248); stroke-opacity: 1; stroke-width: 2px;"/></g><path class="xlines-below"/><path class="ylines-below"/><g class="overlines-below"/><g class="xaxislayer-below"/><g class="yaxislayer-below"/><g class="overaxes-below"/><g class="plot" transform="translate(10,50)" clip-path="url(#clip5eb5afxyplot)"><g class="scatterlayer mlayer"><g class="trace scatter tracec916f0" style="stroke-miterlimit: 2; opacity: 1;"><g class="fills"/><g class="errorbars"/><g class="lines"><path class="js-line" d="M0,50.22L4.57,47.14L6.09,47.14L12.17,47.38L13.7,46.55L35,45.6L36.52,44.89L65.43,44.06L66.96,39.08L85.22,39.08L88.26,42.52L89.78,41.81L92.83,41.81L105,41.57L106.52,44.18L109.57,45.48L111.09,45.01L112.61,44.53L114.13,45.6L153.7,44.89L155.22,42.52L158.26,43.47L159.78,43.47L161.3,43.23L162.83,39.32L164.35,36.94L165.87,36.94L168.91,36.35L170.43,32.44L173.48,30.19L175,30.19L179.57,29.48L181.09,28.41L185.65,25.8L187.17,25.8L199.35,26.16L200.87,27.34L213.04,27.34L214.57,25.68L216.09,25.68L217.61,22.84L223.7,22.84L225.22,19.64L234.35,19.64L235.87,17.74L238.91,17.03L240.43,17.03L246.52,14.66L248.04,10.63L251.09,10.63L252.61,8.61L254.13,3.75L255.65,3.75L267.83,3.75L269.35,5.53L272.39,6.36L273.91,6.36L275.43,6.83L276.96,8.73L280,9.44" style="vector-effect: none; fill: none; stroke: rgb(138, 44, 81); stroke-opacity: 1; stroke-width: 5px; opacity: 1;"/></g><g class="points"/><g class="text"/></g><g class="trace scatter trace1bc325" style="stroke-miterlimit: 2; opacity: 1;"><g class="fills"/><g class="errorbars"/><g class="lines"><path class="js-line" d="M0,23.31L4.57,24.97L6.09,24.97L12.17,24.73L13.7,24.02L88.26,25.09L89.78,28.41L105,27.34L106.52,24.62L108.04,20.58L109.57,20.58L112.61,22.72L114.13,19.16L127.83,19.16L129.35,20.94L130.87,20.94L132.39,19.16L133.91,20.94L135.43,18.81L138.48,18.33L140,20.58L141.52,18.33L143.04,18.33L146.09,18.33L147.61,20.58L149.13,20.58L150.65,18.33L152.17,20.58L153.7,20.58L155.22,18.45L156.74,21.18L167.39,21.89L168.91,22.48L171.96,25.21L173.48,25.33L196.3,26.16L197.83,26.87L216.09,26.99L217.61,28.17L234.35,27.93L235.87,29.83L246.52,32.32L248.04,30.07L252.61,31.25L254.13,32.8L267.83,32.8L269.35,31.14L272.39,30.19L273.91,30.19L275.43,29.71L276.96,26.99L280,26.16" style="vector-effect: none; fill: none; stroke: rgb(0, 174, 239); stroke-opacity: 1; stroke-width: 5px; opacity: 1;"/></g><g class="points"/><g class="text"/></g><g class="trace scatter trace8c7734" style="stroke-miterlimit: 2; opacity: 1;"><g class="fills"/><g class="errorbars"/><g class="lines"><path class="js-line" d="M0,63.03L10.65,64.21L12.17,63.5L15.22,62.79L16.74,62.79L65.43,63.03L66.96,64.45L88.26,63.5L89.78,55.79L106.52,56.51L108.04,57.22L135.43,57.57L136.96,58.05L153.7,57.22L155.22,60.66L156.74,58.28L158.26,58.28L161.3,58.4L162.83,60.18L165.87,61.6L167.39,61.6L168.91,61.25L170.43,62.43L178.04,62.67L179.57,62.55L187.17,63.14L188.7,63.14L196.3,62.67L197.83,61.6L199.35,61.6L200.87,59.94L213.04,59.94L214.57,61.49L220.65,63.62L222.17,63.62L243.48,64.8L245,64.92L246.52,64.92L248.04,68.6L267.83,69.78L269.35,69.9L280,70.85" style="vector-effect: none; fill: none; stroke: rgb(255, 1, 170); stroke-opacity: 1; stroke-width: 5px; opacity: 1;"/></g><g class="points"/><g class="text"/></g><g class="trace scatter tracef8f2d8" style="stroke-miterlimit: 2; opacity: 1;"><g class="fills"/><g class="errorbars"/><g class="lines"><path class="js-line" d="M0,65.63L9.13,65.87L10.65,64.21L13.7,67.89L15.22,67.89L109.57,68.48L111.09,68.95L114.13,68.6L115.65,68.6L162.83,69.78L164.35,70.02L179.57,70.97L181.09,71.32L191.74,71.92L193.26,71.92L241.96,73.1L243.48,73.22L252.61,73.81" style="vector-effect: none; fill: none; stroke: rgb(202, 166, 105); stroke-opacity: 1; stroke-width: 5px; opacity: 1;"/></g><g class="points"/><g class="text"/></g><g class="trace scatter trace4aff55" style="stroke-miterlimit: 2; opacity: 1;"><g class="fills"/><g class="errorbars"/><g class="lines"><path class="js-line" d="M0,66.7L15.22,66.82L16.74,66.82L56.3,67.18L57.83,68.12L85.22,69.07L88.26,67.65L89.78,70.73L92.83,70.73L112.61,71.68L114.13,72.15L179.57,72.98L181.09,73.46L223.7,73.46" style="vector-effect: none; fill: none; stroke: rgb(255, 192, 203); stroke-opacity: 1; stroke-width: 5px; opacity: 1;"/></g><g class="points"/><g class="text"/></g></g></g><g class="overplot"/><path class="xlines-above crisp" d="M0,0" style="fill: none;"/><path class="ylines-above crisp" d="M0,0" style="fill: none;"/><g class="overlines-above"/><g class="xaxislayer-above"/><g class="yaxislayer-above"/><g class="overaxes-above"/></g></g><g class="polarlayer"/><g class="smithlayer"/><g class="ternarylayer"/><g class="geolayer"/><g class="funnelarealayer"/><g class="pielayer"/><g class="iciclelayer"/><g class="treemaplayer"/><g class="sunburstlayer"/><g class="glimages"/><defs id="topdefs-5eb5af"><g class="clips"/></defs><g class="layer-above"><g class="imagelayer"/><g class="shapelayer"/></g><g class="infolayer"><g class="g-gtitle"><text class="gtitle" x="15" y="25" text-anchor="start" dy="0em" style="font-family: Ubuntu, verdana, arial, sans-serif; font-size: 16px; fill: rgb(233, 84, 32); opacity: 1; font-weight: normal; white-space: pre;">Prezident/ka 2024</text></g><g class="g-xtitle"/><g class="g-ytitle"/></g></svg>