<svg class="main-svg" xmlns="http://www.w3.org/2000/svg" xmlns:xlink="http://www.w3.org/1999/xlink" width="300" height="135" style="" viewBox="0 0 300 135"><rect x="0" y="0" width="300" height="135" style="fill: rgb(255, 255, 255); fill-opacity: 1;"/><defs id="defs-6436e4"><g class="clips"><clipPath id="clip6436e4xyplot" class="plotclip"><rect width="280" height="75"/></clipPath><clipPath class="axesclip" id="clip6436e4x"><rect x="10" y="0" width="280" height="135"/></clipPath><clipPath class="axesclip" id="clip6436e4y"><rect x="0" y="50" width="300" height="75"/></clipPath><clipPath class="axesclip" id="clip6436e4xy"><rect x="10" y="50" width="280" height="75"/></clipPath></g><g class="gradients"/><g class="patterns"/></defs><g class="bglayer"/><g class="layer-below"><g class="imagelayer"/><g class="shapelayer"/></g><g class="cartesianlayer"><g class="subplot xy"><g class="layer-subplot"><g class="shapelayer"/><g class="imagelayer"/></g><g class="minor-gridlayer"><g class="x"/><g class="y"/></g><g class="gridlayer"><g class="x"><path class="xgrid crisp" transform="translate(20.04,0)" d="M0,50v75" style="stroke: rgb(235, 240, 248); stroke-opacity: 1; stroke-width: 1px;"/><path class="xgrid crisp" transform="translate(82.26,0)" d="M0,50v75" style="stroke: rgb(235, 240, 248); stroke-opacity: 1; stroke-width: 1px;"/><path class="xgrid crisp" transform="translate(143.48,0)" d="M0,50v75" style="stroke: rgb(235, 240, 248); stroke-opacity: 1; stroke-width: 1px;"/><path class="xgrid crisp" transform="translate(204.7,0)" d="M0,50v75" style="stroke: rgb(235, 240, 248); stroke-opacity: 1; stroke-width: 1px;"/><path class="xgrid crisp" transform="translate(264.90999999999997,0)" d="M0,50v75" style="stroke: rgb(235, 240, 248); stroke-opacity: 1; stroke-width: 1px;"/></g><g class="y"><path class="ygrid crisp" transform="translate(0,101.28999999999999)" d="M10,0h280" style="stroke: rgb(235, 240, 248); stroke-opacity: 1; stroke-width: 1px;"/><path class="ygrid crisp" transform="translate(0,77.58)" d="M10,0h280" style="stroke: rgb(235, 240, 248); stroke-opacity: 1; stroke-width: 1px;"/><path class="ygrid crisp" transform="translate(0,53.87)" d="M10,0h280" style="stroke: rgb(235, 240, 248); stroke-opacity: 1; stroke-width: 1px;"/></g></g><g class="zerolinelayer"><path class="yzl zl crisp" transform="translate(0,125)" d="M10,0h280" style="stroke: rgb(235, 240, 248); stroke-opacity: 1; stroke-width: 2px;"/></g><path class="xlines-below"/><path class="ylines-below"/><g class="overlines-below"/><g class="xaxislayer-below"/><g class="yaxislayer-below"/><g class="overaxes-below"/><g class="plot" transform="translate(10,50)" clip-path="url(#clip6436e4xyplot)"><g class="scatterlayer mlayer"><g class="trace scatter tracec6ba3f" style="stroke-miterlimit: 2; opacity: 1;"><g class="fills"/><g class="errorbars"/><g class="lines"><path class="js-line" d="M279,45.95L280,45.95" style="vector-effect: none; fill: none; stroke: rgb(187, 187, 187); stroke-opacity: 1; stroke-width: 5px; opacity: 1;"/></g><g class="points"/><g class="text"/></g><g class="trace scatter traced6b25c" style="stroke-miterlimit: 2; opacity: 1;"><g class="fills"/><g class="errorbars"/><g class="lines"><path class="js-line" d="M0,48.8L5.02,49.63L6.02,49.63L8.03,24.73L9.03,49.16L37.13,49.63" style="vector-effect: none; fill: none; stroke: rgb(0, 174, 239); stroke-opacity: 1; stroke-width: 5px; opacity: 1;"/><path class="js-line" d="M58.21,49.75" style="vector-effect: none; fill: none; stroke: rgb(0, 174, 239); stroke-opacity: 1; stroke-width: 5px; opacity: 1;"/><path class="js-line" d="M73.26,48.8L74.27,22.72" style="vector-effect: none; fill: none; stroke: rgb(0, 174, 239); stroke-opacity: 1; stroke-width: 5px; opacity: 1;"/><path class="js-line" d="M85.3,48.8L86.31,48.8" style="vector-effect: none; fill: none; stroke: rgb(0, 174, 239); stroke-opacity: 1; stroke-width: 5px; opacity: 1;"/><path class="js-line" d="M88.32,48.8" style="vector-effect: none; fill: none; stroke: rgb(0, 174, 239); stroke-opacity: 1; stroke-width: 5px; opacity: 1;"/><path class="js-line" d="M92.33,48.68" style="vector-effect: none; fill: none; stroke: rgb(0, 174, 239); stroke-opacity: 1; stroke-width: 5px; opacity: 1;"/><path class="js-line" d="M97.35,48.68L98.35,48.68" style="vector-effect: none; fill: none; stroke: rgb(0, 174, 239); stroke-opacity: 1; stroke-width: 5px; opacity: 1;"/><path class="js-line" d="M100.36,48.68L101.36,48.68" style="vector-effect: none; fill: none; stroke: rgb(0, 174, 239); stroke-opacity: 1; stroke-width: 5px; opacity: 1;"/><path class="js-line" d="M103.37,47.85L111.4,48.33L112.4,49.27L129.46,49.99L130.47,50.58L131.47,50.58L132.47,27.34L154.55,27.93L155.56,29.83L162.58,32.32L163.58,30.07L166.59,31.25L167.6,32.8L176.63,32.8L177.63,31.14L179.64,30.19L180.65,30.19L181.65,29.71L182.65,26.99L184.66,26.39L185.66,26.75L191.68,26.75L192.69,51.17L196.7,51.29L197.71,53.19L200.72,53.9L201.72,53.07L202.72,52.36L203.73,53.3L206.74,52.83L207.74,52L209.75,51.76L210.75,49.39L213.76,49.04L214.77,49.51L219.78,49.75L220.79,50.22L225.81,52.83L226.81,52.36L228.82,51.29L229.82,52.24L231.83,52.48L232.83,50.82L234.84,47.26L235.84,56.27L245.88,56.27L246.88,56.98L251.9,59.23L252.9,59.23L254.91,59.47L255.91,59L265.95,59.94L266.95,60.3L271.97,62.08L272.97,62.43L275.99,63.5L276.99,62.67L277.99,45.01L279,54.73L280,54.96" style="vector-effect: none; fill: none; stroke: rgb(0, 174, 239); stroke-opacity: 1; stroke-width: 5px; opacity: 1;"/></g><g class="points"/><g class="text"/></g><g class="trace scatter tracebe31f6" style="stroke-miterlimit: 2; opacity: 1;"><g class="fills"/><g class="errorbars"/><g class="lines"><path class="js-line" d="M0,49.51L5.02,50.34L6.02,50.34" style="vector-effect: none; fill: none; stroke: rgb(187, 187, 187); stroke-opacity: 1; stroke-width: 5px; opacity: 1;"/><path class="js-line" d="M9.03,49.87L37.13,50.34L38.14,25.09L56.2,25.21L58.21,50.46L59.21,28.41L61.22,28.41L69.25,27.34L70.25,24.62L72.26,20.58L73.26,47.97" style="vector-effect: none; fill: none; stroke: rgb(187, 187, 187); stroke-opacity: 1; stroke-width: 5px; opacity: 1;"/><path class="js-line" d="M75.27,19.16L84.3,19.16L85.3,47.14L86.31,47.14L87.31,19.16L88.32,47.14L89.32,18.81L91.33,18.33L92.33,46.9L94.34,18.33L95.34,18.33L96.34,18.33L97.35,46.9L98.35,46.9L99.35,18.33L101.36,46.9L102.37,18.45L104.37,47.85L105.38,47.85L112.4,49.75L113.41,50.58L122.44,50.46L123.44,50.46L131.47,50.58" style="vector-effect: none; fill: none; stroke: rgb(187, 187, 187); stroke-opacity: 1; stroke-width: 5px; opacity: 1;"/><path class="js-line" d="M192.69,50.34L195.7,50.58L196.7,52.71L202.72,52.95L203.73,54.13L207.74,53.54L208.75,52.59L209.75,52.48L210.75,50.7L211.76,49.99L212.76,50.82L214.77,50.58L215.77,52.71L218.78,52.24L219.78,51.76L226.81,53.66L227.81,53.3L231.83,52.12L232.83,51.41L234.84,48.21L235.84,56.74L245.88,56.39L246.88,58.17L251.9,60.18L252.9,60.3L254.91,59.83L255.91,59L264.95,60.06L265.95,60.42L267.96,60.77L268.96,61.96L275.99,63.38L276.99,62.31L277.99,45.6L279,55.2L280,55.2" style="vector-effect: none; fill: none; stroke: rgb(187, 187, 187); stroke-opacity: 1; stroke-width: 5px; opacity: 1;"/></g><g class="points"/><g class="text"/></g><g class="trace scatter trace681df7" style="stroke-miterlimit: 2; opacity: 1;"><g class="fills"/><g class="errorbars"/><g class="lines"><path class="js-line" d="M0,60.54L6.02,61.01" style="vector-effect: none; fill: none; stroke: rgb(187, 187, 187); stroke-opacity: 1; stroke-width: 5px; opacity: 1;"/><path class="js-line" d="M9.03,60.77L37.13,59.71L38.14,44.06L43.15,44.06L44.16,39.08L56.2,39.08L58.21,57.34L59.21,41.81L61.22,41.81L69.25,41.57L70.25,44.18L72.26,45.48L73.26,60.3" style="vector-effect: none; fill: none; stroke: rgb(187, 187, 187); stroke-opacity: 1; stroke-width: 5px; opacity: 1;"/><path class="js-line" d="M75.27,45.6L84.3,45.6L85.3,60.3L86.31,60.3L87.31,45.6L88.32,60.3L89.32,45.48L91.33,45.12L92.33,60.18L94.34,45.12L95.34,45.12L96.34,45.12L97.35,60.18L98.35,60.18L99.35,45.12L101.36,60.18L102.37,42.52L104.37,58.88L105.38,58.88L106.38,58.76L107.38,55.91L111.4,54.85L112.4,52.95L114.41,51.29L115.41,51.29L120.43,50.58L121.43,49.75L131.47,49.99" style="vector-effect: none; fill: none; stroke: rgb(187, 187, 187); stroke-opacity: 1; stroke-width: 5px; opacity: 1;"/><path class="js-line" d="M192.69,41.21L195.7,41.33L196.7,38.6L199.71,36.83L200.72,37.3L201.72,38.13L202.72,37.18L204.73,36.35L205.73,37.06L207.74,36.71L208.75,38.01L211.76,40.74L212.76,39.79L214.77,39.55L215.77,37.89L220.79,38.25L221.79,37.54L225.81,36.23L226.81,36.23L232.83,39.2L233.84,41.57L234.84,42.16L235.84,52.59L245.88,52.83L246.88,51.29L250.9,49.16L251.9,49.39L254.91,49.75L255.91,50.22L266.95,49.27L267.96,48.68L271.97,46.9L272.97,46.9L276.99,47.85L277.99,45.12L279,55.68L280,55.56" style="vector-effect: none; fill: none; stroke: rgb(187, 187, 187); stroke-opacity: 1; stroke-width: 5px; opacity: 1;"/></g><g class="points"/><g class="text"/></g><g class="trace scatter trace4753af" style="stroke-miterlimit: 2; opacity: 1;"><g class="fills"/><g class="errorbars"/><g class="lines"><path class="js-line" d="M0,64.69L3.01,61.01L4.01,61.01L6.02,61.01L7.03,47.97L8.03,47.38L9.03,60.77L37.13,60.18" style="vector-effect: none; fill: none; stroke: rgb(138, 44, 81); stroke-opacity: 1; stroke-width: 5px; opacity: 1;"/><path class="js-line" d="M58.21,60.3" style="vector-effect: none; fill: none; stroke: rgb(138, 44, 81); stroke-opacity: 1; stroke-width: 5px; opacity: 1;"/><path class="js-line" d="M73.26,59.71L74.27,44.53" style="vector-effect: none; fill: none; stroke: rgb(138, 44, 81); stroke-opacity: 1; stroke-width: 5px; opacity: 1;"/><path class="js-line" d="M85.3,59.83L86.31,59.83" style="vector-effect: none; fill: none; stroke: rgb(138, 44, 81); stroke-opacity: 1; stroke-width: 5px; opacity: 1;"/><path class="js-line" d="M88.32,59.83" style="vector-effect: none; fill: none; stroke: rgb(138, 44, 81); stroke-opacity: 1; stroke-width: 5px; opacity: 1;"/><path class="js-line" d="M92.33,59.71" style="vector-effect: none; fill: none; stroke: rgb(138, 44, 81); stroke-opacity: 1; stroke-width: 5px; opacity: 1;"/><path class="js-line" d="M97.35,59.71L98.35,59.71" style="vector-effect: none; fill: none; stroke: rgb(138, 44, 81); stroke-opacity: 1; stroke-width: 5px; opacity: 1;"/><path class="js-line" d="M100.36,59.71L101.36,59.71" style="vector-effect: none; fill: none; stroke: rgb(138, 44, 81); stroke-opacity: 1; stroke-width: 5px; opacity: 1;"/><path class="js-line" d="M103.37,59.23L106.38,59.11L107.38,57.93L109.39,56.15L110.39,56.15L111.4,56.03L112.4,54.13L115.41,53.54L116.42,53.54L118.42,52.83L119.43,52L123.44,50.46L124.44,50.46L131.47,50.58L132.47,27.34L140.5,27.34L141.51,25.68L142.51,25.68L143.51,22.84L147.53,22.84L148.53,19.64L154.55,19.64L155.56,17.74L161.58,14.66L162.58,14.66L164.59,10.63L165.59,10.63L166.59,8.61L167.6,3.75L176.63,3.75L177.63,5.53L179.64,6.36L180.65,6.36L181.65,6.83L182.65,8.73L184.66,8.97L185.66,8.14L191.68,8.14L192.69,41.92L194.7,42.04L195.7,41.92L198.71,37.54L199.71,37.3L201.72,37.89L202.72,39.08L204.73,37.66L205.73,37.54L208.75,39.08L209.75,38.72L211.76,41.92L212.76,41.45L214.77,41.81L215.77,41.57L219.78,40.86L220.79,40.98L222.8,39.55L223.8,38.72L229.82,38.96L230.82,38.49L231.83,38.37L232.83,40.03L234.84,43.82L235.84,53.42L245.88,53.54L246.88,52.71L251.9,50.22L252.9,50.34L254.91,50.1L255.91,50.7L267.96,49.63L268.96,48.09L275.99,46.07L276.99,47.26L277.99,45.6L279,56.03L280,55.79" style="vector-effect: none; fill: none; stroke: rgb(138, 44, 81); stroke-opacity: 1; stroke-width: 5px; opacity: 1;"/></g><g class="points"/><g class="text"/></g></g></g><g class="overplot"/><path class="xlines-above crisp" d="M0,0" style="fill: none;"/><path class="ylines-above crisp" d="M0,0" style="fill: none;"/><g class="overlines-above"/><g class="xaxislayer-above"/><g class="yaxislayer-above"/><g class="overaxes-above"/></g></g><g class="polarlayer"/><g class="smithlayer"/><g class="ternarylayer"/><g class="geolayer"/><g class="funnelarealayer"/><g class="pielayer"/><g class="iciclelayer"/><g class="treemaplayer"/><g class="sunburstlayer"/><g class="glimages"/><defs id="topdefs-6436e4"><g class="clips"/></defs><g class="layer-above"><g class="imagelayer"/><g class="shapelayer"/></g><g class="infolayer"><g class="g-gtitle"><text class="gtitle" x="15" y="25" text-anchor="start" dy="0em" style="font-family: Ubuntu, verdana, arial, sans-serif; font-size: 16px; fill: rgb(233, 84, 32); opacity: 1; font-weight: normal; white-space: pre;">Prezident/ka 2024</text></g><g class="g-xtitle"/><g class="g-ytitle"/></g></svg>