<svg class="main-svg" xmlns="http://www.w3.org/2000/svg" xmlns:xlink="http://www.w3.org/1999/xlink" width="300" height="135" style="" viewBox="0 0 300 135"><rect x="0" y="0" width="300" height="135" style="fill: rgb(255, 255, 255); fill-opacity: 1;"/><defs id="defs-c9c0e7"><g class="clips"><clipPath id="clipc9c0e7xyplot" class="plotclip"><rect width="280" height="75"/></clipPath><clipPath class="axesclip" id="clipc9c0e7x"><rect x="10" y="0" width="280" height="135"/></clipPath><clipPath class="axesclip" id="clipc9c0e7y"><rect x="0" y="50" width="300" height="75"/></clipPath><clipPath class="axesclip" id="clipc9c0e7xy"><rect x="10" y="50" width="280" height="75"/></clipPath></g><g class="gradients"/><g class="patterns"/></defs><g class="bglayer"/><g class="layer-below"><g class="imagelayer"/><g class="shapelayer"/></g><g class="cartesianlayer"><g class="subplot xy"><g class="layer-subplot"><g class="shapelayer"/><g class="imagelayer"/></g><g class="minor-gridlayer"><g class="x"/><g class="y"/></g><g class="gridlayer"><g class="x"><path class="xgrid crisp" transform="translate(20.689999999999998,0)" d="M0,50v75" style="stroke: rgb(235, 240, 248); stroke-opacity: 1; stroke-width: 1px;"/><path class="xgrid crisp" transform="translate(86.95,0)" d="M0,50v75" style="stroke: rgb(235, 240, 248); stroke-opacity: 1; stroke-width: 1px;"/><path class="xgrid crisp" transform="translate(152.14,0)" d="M0,50v75" style="stroke: rgb(235, 240, 248); stroke-opacity: 1; stroke-width: 1px;"/><path class="xgrid crisp" transform="translate(217.33,0)" d="M0,50v75" style="stroke: rgb(235, 240, 248); stroke-opacity: 1; stroke-width: 1px;"/><path class="xgrid crisp" transform="translate(281.45,0)" d="M0,50v75" style="stroke: rgb(235, 240, 248); stroke-opacity: 1; stroke-width: 1px;"/></g><g class="y"><path class="ygrid crisp" transform="translate(0,102.77000000000001)" d="M10,0h280" style="stroke: rgb(235, 240, 248); stroke-opacity: 1; stroke-width: 1px;"/><path class="ygrid crisp" transform="translate(0,80.53999999999999)" d="M10,0h280" style="stroke: rgb(235, 240, 248); stroke-opacity: 1; stroke-width: 1px;"/><path class="ygrid crisp" transform="translate(0,58.31)" d="M10,0h280" style="stroke: rgb(235, 240, 248); stroke-opacity: 1; stroke-width: 1px;"/></g></g><g class="zerolinelayer"><path class="yzl zl crisp" transform="translate(0,125)" d="M10,0h280" style="stroke: rgb(235, 240, 248); stroke-opacity: 1; stroke-width: 2px;"/></g><path class="xlines-below"/><path class="ylines-below"/><g class="overlines-below"/><g class="xaxislayer-below"/><g class="yaxislayer-below"/><g class="overaxes-below"/><g class="plot" transform="translate(10,50)" clip-path="url(#clipc9c0e7xyplot)"><g class="scatterlayer mlayer"><g class="trace scatter trace84a454" style="stroke-miterlimit: 2; opacity: 1;"><g class="fills"/><g class="errorbars"/><g class="lines"><path class="js-line" d="M0,51.77L3.21,48.88L4.27,48.88L8.55,49.1L9.62,48.32L24.58,47.43L25.65,46.77L45.95,45.99L47.02,41.32L59.85,41.32L61.98,44.54L65.19,43.88L66.26,43.88L73.74,43.65L74.81,46.1L76.95,47.32L78.02,46.88L79.08,46.43L80.15,47.43L107.94,46.77L109.01,44.54L111.15,45.43L112.21,45.43L113.28,45.21L114.35,41.54L116.49,39.32L117.56,39.32L118.63,38.76L119.69,35.1L121.83,32.98L122.9,32.98L126.11,32.32L127.18,31.32L130.38,28.87L131.45,28.87L140,29.2L141.07,30.32L149.62,30.32L150.69,28.76L151.76,28.76L152.82,26.09L157.1,26.09L158.17,23.09L164.58,23.09L165.65,21.31L172.06,18.42L173.13,18.42L175.27,14.64L176.34,14.64L177.4,12.75L178.47,8.2L188.09,8.2L189.16,9.86L191.3,10.64L192.37,10.64L194.5,12.86L195.57,13.53L200.92,12.31L201.98,12.31L208.4,12.42L209.47,8.75L211.6,5.08L212.67,4.97L215.88,5.86L216.95,3.75L220.15,4.75L221.22,5.64L223.36,6.75L224.43,10.53L225.5,11.86L226.56,10.53L228.7,10.64L229.77,8.86L231.91,8.97L232.98,9.09L235.11,8.64L236.18,7.75L239.39,4.64L240.46,4.64L243.66,6.64L244.73,5.75L246.87,6.42L247.94,8.64L250.08,14.87L251.15,14.64L254.35,15.75L255.42,16.09L257.56,14.64L258.63,15.87L260.76,16.64L261.83,15.09L265.04,8.31L266.11,8.2L268.24,5.86L269.31,5.75L271.45,5.97L272.52,7.75L277.86,6.97L278.93,6.31L280,6.31" style="vector-effect: none; fill: none; stroke: rgb(138, 44, 81); stroke-opacity: 1; stroke-width: 5px; opacity: 1;"/></g><g class="points"/><g class="text"/></g><g class="trace scatter traced1a6e3" style="stroke-miterlimit: 2; opacity: 1;"><g class="fills"/><g class="errorbars"/><g class="lines"><path class="js-line" d="M0,26.54L4.27,28.09L5.34,28.09L8.55,27.87L9.62,27.2L61.98,28.2L63.05,31.32L73.74,30.32L74.81,27.76L76.95,23.98L78.02,24.98L79.08,25.98L80.15,22.65L89.77,22.65L90.84,24.31L91.91,24.31L92.98,22.65L94.05,24.31L95.11,22.31L97.25,21.87L98.32,23.98L100.46,21.87L101.53,21.87L102.6,21.87L103.66,23.98L104.73,23.98L105.8,21.87L107.94,23.98L109.01,21.98L111.15,24.54L112.21,24.54L118.63,25.76L119.69,27.65L122.9,28.43L123.97,28.43L137.86,29.2L138.93,29.87L164.58,30.87L165.65,32.65L173.13,34.98L174.2,32.87L177.4,33.98L178.47,35.43L188.09,35.43L189.16,33.87L191.3,32.98L192.37,32.98L193.44,32.54L194.5,29.98L196.64,29.43L197.71,29.76L208.4,29.2L209.47,32.09L211.6,35.43L212.67,35.54L214.81,33.76L215.88,32.98L218.02,35.1L219.08,34.54L223.36,32.09L224.43,28.32L225.5,26.98L226.56,28.32L228.7,28.2L229.77,29.98L231.91,29.87L232.98,29.76L235.11,30.2L236.18,31.09L239.39,34.21L240.46,34.21L243.66,32.21L244.73,33.09L246.87,32.43L247.94,30.2L250.08,23.98L251.15,24.2L254.35,23.09L255.42,22.76L257.56,24.2L258.63,22.98L260.76,22.2L261.83,23.76L265.04,30.54L266.11,30.65L268.24,32.98L269.31,33.09L271.45,32.87L272.52,31.09L277.86,31.87L278.93,32.54L280,32.54" style="vector-effect: none; fill: none; stroke: rgb(0, 174, 239); stroke-opacity: 1; stroke-width: 5px; opacity: 1;"/></g><g class="points"/><g class="text"/></g><g class="trace scatter trace160776" style="stroke-miterlimit: 2; opacity: 1;"><g class="fills"/><g class="errorbars"/><g class="lines"><path class="js-line" d="M0,63.77L7.48,64.88L8.55,64.22L11.76,63.55L12.82,63.55L45.95,63.77L47.02,65.11L61.98,64.22L63.05,56.99L74.81,57.66L75.88,58.33L95.11,58.66L96.18,59.1L107.94,58.33L109.01,61.55L111.15,59.33L112.21,59.33L113.28,59.44L114.35,61.11L116.49,62.44L117.56,62.44L118.63,62.11L119.69,63.22L126.11,63.33L127.18,63.22L134.66,63.88L135.73,63.88L137.86,63.44L138.93,62.44L140,62.44L141.07,60.88L149.62,60.88L150.69,62.33L156.03,64.33L157.1,64.33L159.24,65.22L160.31,65.22L173.13,65.55L174.2,69L193.44,70.11L194.5,71.11L208.4,72.22L209.47,73L214.81,73.55" style="vector-effect: none; fill: none; stroke: rgb(255, 1, 170); stroke-opacity: 1; stroke-width: 5px; opacity: 1;"/></g><g class="points"/><g class="text"/></g><g class="trace scatter trace88c058" style="stroke-miterlimit: 2; opacity: 1;"><g class="fills"/><g class="errorbars"/><g class="lines"><path class="js-line" d="M0,63.33L6.41,63.77L7.48,63.33L27.79,64.66L28.85,64.66L45.95,64.44L47.02,66.11L61.98,65.44L63.05,66.89L74.81,67.22L75.88,68.44L78.02,67.77L79.08,67.11L81.22,69L82.29,69L109.01,68.11L110.08,67.33L114.35,68.55L115.42,69.11L126.11,70.33L127.18,70.78L134.66,71.55L135.73,71.55L173.13,71.55L174.2,73.67L177.4,73.89" style="vector-effect: none; fill: none; stroke: rgb(238, 58, 67); stroke-opacity: 1; stroke-width: 5px; opacity: 1;"/></g><g class="points"/><g class="text"/></g><g class="trace scatter trace1798b9" style="stroke-miterlimit: 2; opacity: 1;"><g class="fills"/><g class="errorbars"/><g class="lines"><path class="js-line" d="M0,67.22L11.76,67.33L12.82,67.33L45.95,68.55L47.02,69.44L59.85,69.44L61.98,68.11L63.05,71L65.19,71L79.08,71.89L80.15,72.33L126.11,73.11L127.18,73.55L157.1,73.55" style="vector-effect: none; fill: none; stroke: rgb(255, 192, 203); stroke-opacity: 1; stroke-width: 5px; opacity: 1;"/></g><g class="points"/><g class="text"/></g></g></g><g class="overplot"/><path class="xlines-above crisp" d="M0,0" style="fill: none;"/><path class="ylines-above crisp" d="M0,0" style="fill: none;"/><g class="overlines-above"/><g class="xaxislayer-above"/><g class="yaxislayer-above"/><g class="overaxes-above"/></g></g><g class="polarlayer"/><g class="smithlayer"/><g class="ternarylayer"/><g class="geolayer"/><g class="funnelarealayer"/><g class="pielayer"/><g class="iciclelayer"/><g class="treemaplayer"/><g class="sunburstlayer"/><g class="glimages"/><defs id="topdefs-c9c0e7"><g class="clips"/></defs><g class="layer-above"><g class="imagelayer"/><g class="shapelayer"/></g><g class="infolayer"><g class="g-gtitle"><text class="gtitle" x="15" y="25" text-anchor="start" dy="0em" style="font-family: Ubuntu, verdana, arial, sans-serif; font-size: 16px; fill: rgb(233, 84, 32); opacity: 1; font-weight: normal; white-space: pre;">Prezident/ka 2024</text></g><g class="g-xtitle"/><g class="g-ytitle"/></g></svg>