<svg class="main-svg" xmlns="http://www.w3.org/2000/svg" xmlns:xlink="http://www.w3.org/1999/xlink" width="300" height="135" style="" viewBox="0 0 300 135"><rect x="0" y="0" width="300" height="135" style="fill: rgb(255, 255, 255); fill-opacity: 1;"/><defs id="defs-42108b"><g class="clips"><clipPath id="clip42108bxyplot" class="plotclip"><rect width="280" height="75"/></clipPath><clipPath class="axesclip" id="clip42108bx"><rect x="10" y="0" width="280" height="135"/></clipPath><clipPath class="axesclip" id="clip42108by"><rect x="0" y="50" width="300" height="75"/></clipPath><clipPath class="axesclip" id="clip42108bxy"><rect x="10" y="50" width="280" height="75"/></clipPath></g><g class="gradients"/><g class="patterns"/></defs><g class="bglayer"/><g class="layer-below"><g class="imagelayer"/><g class="shapelayer"/></g><g class="cartesianlayer"><g class="subplot xy"><g class="layer-subplot"><g class="shapelayer"/><g class="imagelayer"/></g><g class="minor-gridlayer"><g class="x"/><g class="y"/></g><g class="gridlayer"><g class="x"><path class="xgrid crisp" transform="translate(20.85,0)" d="M0,50v75" style="stroke: rgb(235, 240, 248); stroke-opacity: 1; stroke-width: 1px;"/><path class="xgrid crisp" transform="translate(88.14,0)" d="M0,50v75" style="stroke: rgb(235, 240, 248); stroke-opacity: 1; stroke-width: 1px;"/><path class="xgrid crisp" transform="translate(154.34,0)" d="M0,50v75" style="stroke: rgb(235, 240, 248); stroke-opacity: 1; stroke-width: 1px;"/><path class="xgrid crisp" transform="translate(220.54,0)" d="M0,50v75" style="stroke: rgb(235, 240, 248); stroke-opacity: 1; stroke-width: 1px;"/><path class="xgrid crisp" transform="translate(285.66,0)" d="M0,50v75" style="stroke: rgb(235, 240, 248); stroke-opacity: 1; stroke-width: 1px;"/></g><g class="y"><path class="ygrid crisp" transform="translate(0,102.77000000000001)" d="M10,0h280" style="stroke: rgb(235, 240, 248); stroke-opacity: 1; stroke-width: 1px;"/><path class="ygrid crisp" transform="translate(0,80.53999999999999)" d="M10,0h280" style="stroke: rgb(235, 240, 248); stroke-opacity: 1; stroke-width: 1px;"/><path class="ygrid crisp" transform="translate(0,58.31)" d="M10,0h280" style="stroke: rgb(235, 240, 248); stroke-opacity: 1; stroke-width: 1px;"/></g></g><g class="zerolinelayer"><path class="yzl zl crisp" transform="translate(0,125)" d="M10,0h280" style="stroke: rgb(235, 240, 248); stroke-opacity: 1; stroke-width: 2px;"/></g><path class="xlines-below"/><path class="ylines-below"/><g class="overlines-below"/><g class="xaxislayer-below"/><g class="yaxislayer-below"/><g class="overaxes-below"/><g class="plot" transform="translate(10,50)" clip-path="url(#clip42108bxyplot)"><g class="scatterlayer mlayer"><g class="trace scatter tracef31ef4" style="stroke-miterlimit: 2; opacity: 1;"><g class="fills"/><g class="errorbars"/><g class="lines"><path class="js-line" d="M0,51.77L3.26,48.88L4.34,48.88L8.68,49.1L9.77,48.32L24.96,47.43L26.05,46.77L46.67,45.99L47.75,41.32L60.78,41.32L62.95,44.54L66.2,43.88L67.29,43.88L74.88,43.65L75.97,46.1L78.14,47.32L79.22,46.88L80.31,46.43L81.4,47.43L109.61,46.77L110.7,44.54L112.87,45.43L113.95,45.43L115.04,45.21L116.12,41.54L118.29,39.32L119.38,39.32L120.47,38.76L121.55,35.1L123.72,32.98L124.81,32.98L128.06,32.32L129.15,31.32L132.4,28.87L133.49,28.87L142.17,29.2L143.26,30.32L151.94,30.32L153.02,28.76L154.11,28.76L155.19,26.09L159.53,26.09L160.62,23.09L167.13,23.09L168.22,21.31L174.73,18.42L175.81,18.42L177.98,14.64L179.07,14.64L180.16,12.75L181.24,8.2L191.01,8.2L192.09,9.86L194.26,10.64L195.35,10.64L197.52,12.86L198.6,13.53L204.03,12.31L205.12,12.31L211.63,12.42L212.71,8.75L214.88,5.08L215.97,4.97L219.22,5.86L220.31,3.75L223.57,4.75L224.65,5.64L226.82,6.75L227.91,10.53L228.99,11.86L230.08,10.53L232.25,10.64L233.33,8.86L235.5,8.97L236.59,9.09L238.76,8.64L239.84,7.75L243.1,4.64L244.19,4.64L247.44,6.64L248.53,5.75L250.7,6.42L251.78,8.64L253.95,14.87L255.04,14.64L258.29,15.75L259.38,16.09L261.55,14.64L262.64,15.87L264.81,16.64L265.89,15.09L269.15,8.31L270.23,8.2L272.4,5.86L273.49,5.75L275.66,5.97L276.74,7.75L280,7.86" style="vector-effect: none; fill: none; stroke: rgb(138, 44, 81); stroke-opacity: 1; stroke-width: 5px; opacity: 1;"/></g><g class="points"/><g class="text"/></g><g class="trace scatter tracef32306" style="stroke-miterlimit: 2; opacity: 1;"><g class="fills"/><g class="errorbars"/><g class="lines"><path class="js-line" d="M0,26.54L4.34,28.09L5.43,28.09L8.68,27.87L9.77,27.2L62.95,28.2L64.03,31.32L74.88,30.32L75.97,27.76L78.14,23.98L79.22,24.98L80.31,25.98L81.4,22.65L91.16,22.65L92.25,24.31L93.33,24.31L94.42,22.65L95.5,24.31L96.59,22.31L98.76,21.87L99.84,23.98L102.02,21.87L103.1,21.87L104.19,21.87L105.27,23.98L106.36,23.98L107.44,21.87L109.61,23.98L110.7,21.98L112.87,24.54L113.95,24.54L120.47,25.76L121.55,27.65L124.81,28.43L125.89,28.43L140,29.2L141.09,29.87L167.13,30.87L168.22,32.65L175.81,34.98L176.9,32.87L180.16,33.98L181.24,35.43L191.01,35.43L192.09,33.87L194.26,32.98L195.35,32.98L196.43,32.54L197.52,29.98L199.69,29.43L200.78,29.76L211.63,29.2L212.71,32.09L214.88,35.43L215.97,35.54L218.14,33.76L219.22,32.98L221.4,35.1L222.48,34.54L226.82,32.09L227.91,28.32L228.99,26.98L230.08,28.32L232.25,28.2L233.33,29.98L235.5,29.87L236.59,29.76L238.76,30.2L239.84,31.09L243.1,34.21L244.19,34.21L247.44,32.21L248.53,33.09L250.7,32.43L251.78,30.2L253.95,23.98L255.04,24.2L258.29,23.09L259.38,22.76L261.55,24.2L262.64,22.98L264.81,22.2L265.89,23.76L269.15,30.54L270.23,30.65L272.4,32.98L273.49,33.09L275.66,32.87L276.74,31.09L280,30.98" style="vector-effect: none; fill: none; stroke: rgb(0, 174, 239); stroke-opacity: 1; stroke-width: 5px; opacity: 1;"/></g><g class="points"/><g class="text"/></g><g class="trace scatter trace2511bb" style="stroke-miterlimit: 2; opacity: 1;"><g class="fills"/><g class="errorbars"/><g class="lines"><path class="js-line" d="M0,66.22L6.51,66.44L7.6,64.88L9.77,68.33L10.85,68.33L78.14,68.89L79.22,69.33L81.4,69L82.48,69L116.12,70.11L117.21,70.33L129.15,71.55L130.23,71.78L134.57,72.11L135.66,72.11L175.81,73.33L176.9,73.67L180.16,73.89" style="vector-effect: none; fill: none; stroke: rgb(202, 166, 105); stroke-opacity: 1; stroke-width: 5px; opacity: 1;"/></g><g class="points"/><g class="text"/></g><g class="trace scatter trace343fd5" style="stroke-miterlimit: 2; opacity: 1;"><g class="fills"/><g class="errorbars"/><g class="lines"><path class="js-line" d="M0,63.33L6.51,63.77L7.6,63.33L28.22,64.66L29.3,64.66L46.67,64.44L47.75,66.11L62.95,65.44L64.03,66.89L75.97,67.22L77.05,68.44L79.22,67.77L80.31,67.11L82.48,69L83.57,69L110.7,68.11L111.78,67.33L116.12,68.55L117.21,69.11L128.06,70.33L129.15,70.78L136.74,71.55L137.83,71.55L175.81,71.55L176.9,73.67L180.16,73.89" style="vector-effect: none; fill: none; stroke: rgb(238, 58, 67); stroke-opacity: 1; stroke-width: 5px; opacity: 1;"/></g><g class="points"/><g class="text"/></g><g class="trace scatter trace32d35b" style="stroke-miterlimit: 2; opacity: 1;"><g class="fills"/><g class="errorbars"/><g class="lines"><path class="js-line" d="M0,67.22L11.94,67.33L13.02,67.33L46.67,68.55L47.75,69.44L60.78,69.44L62.95,68.11L64.03,71L66.2,71L80.31,71.89L81.4,72.33L128.06,73.11L129.15,73.55L159.53,73.55" style="vector-effect: none; fill: none; stroke: rgb(255, 192, 203); stroke-opacity: 1; stroke-width: 5px; opacity: 1;"/></g><g class="points"/><g class="text"/></g></g></g><g class="overplot"/><path class="xlines-above crisp" d="M0,0" style="fill: none;"/><path class="ylines-above crisp" d="M0,0" style="fill: none;"/><g class="overlines-above"/><g class="xaxislayer-above"/><g class="yaxislayer-above"/><g class="overaxes-above"/></g></g><g class="polarlayer"/><g class="smithlayer"/><g class="ternarylayer"/><g class="geolayer"/><g class="funnelarealayer"/><g class="pielayer"/><g class="iciclelayer"/><g class="treemaplayer"/><g class="sunburstlayer"/><g class="glimages"/><defs id="topdefs-42108b"><g class="clips"/></defs><g class="layer-above"><g class="imagelayer"/><g class="shapelayer"/></g><g class="infolayer"><g class="g-gtitle"><text class="gtitle" x="15" y="25" text-anchor="start" dy="0em" style="font-family: Ubuntu, verdana, arial, sans-serif; font-size: 16px; fill: rgb(233, 84, 32); opacity: 1; font-weight: normal; white-space: pre;">Prezident/ka 2024</text></g><g class="g-xtitle"/><g class="g-ytitle"/></g></svg>