<svg class="main-svg" xmlns="http://www.w3.org/2000/svg" xmlns:xlink="http://www.w3.org/1999/xlink" width="1200" height="600" style="" viewBox="0 0 1200 600"><rect x="0" y="0" width="1200" height="600" style="fill: rgb(255, 255, 255); fill-opacity: 1;"/><defs id="defs-d6eb79"><g class="clips"><clipPath id="clipd6eb79xyplot" class="plotclip"><rect width="990" height="530"/></clipPath><clipPath class="axesclip" id="clipd6eb79x"><rect x="50" y="0" width="990" height="600"/></clipPath><clipPath class="axesclip" id="clipd6eb79y"><rect x="0" y="20" width="1200" height="530"/></clipPath><clipPath class="axesclip" id="clipd6eb79xy"><rect x="50" y="20" width="990" height="530"/></clipPath></g><g class="gradients"/><g class="patterns"/></defs><g class="bglayer"/><g class="layer-below"><g class="imagelayer"/><g class="shapelayer"/></g><g class="cartesianlayer"><g class="subplot xy"><g class="layer-subplot"><g class="shapelayer"/><g class="imagelayer"/></g><g class="minor-gridlayer"><g class="x"/><g class="y"/></g><g class="gridlayer"><g class="x"><path class="xgrid crisp" transform="translate(83,0)" d="M0,20v530" style="stroke: rgb(235, 240, 248); stroke-opacity: 1; stroke-width: 1px;"/><path class="xgrid crisp" transform="translate(185.3,0)" d="M0,20v530" style="stroke: rgb(235, 240, 248); stroke-opacity: 1; stroke-width: 1px;"/><path class="xgrid crisp" transform="translate(287.6,0)" d="M0,20v530" style="stroke: rgb(235, 240, 248); stroke-opacity: 1; stroke-width: 1px;"/><path class="xgrid crisp" transform="translate(386.6,0)" d="M0,20v530" style="stroke: rgb(235, 240, 248); stroke-opacity: 1; stroke-width: 1px;"/><path class="xgrid crisp" transform="translate(488.9,0)" d="M0,20v530" style="stroke: rgb(235, 240, 248); stroke-opacity: 1; stroke-width: 1px;"/><path class="xgrid crisp" transform="translate(587.9,0)" d="M0,20v530" style="stroke: rgb(235, 240, 248); stroke-opacity: 1; stroke-width: 1px;"/><path class="xgrid crisp" transform="translate(690.2,0)" d="M0,20v530" style="stroke: rgb(235, 240, 248); stroke-opacity: 1; stroke-width: 1px;"/><path class="xgrid crisp" transform="translate(792.5,0)" d="M0,20v530" style="stroke: rgb(235, 240, 248); stroke-opacity: 1; stroke-width: 1px;"/><path class="xgrid crisp" transform="translate(888.2,0)" d="M0,20v530" style="stroke: rgb(235, 240, 248); stroke-opacity: 1; stroke-width: 1px;"/><path class="xgrid crisp" transform="translate(990.5,0)" d="M0,20v530" style="stroke: rgb(235, 240, 248); stroke-opacity: 1; stroke-width: 1px;"/></g><g class="y"><path class="ygrid crisp" transform="translate(0,445.1)" d="M50,0h990" style="stroke: rgb(235, 240, 248); stroke-opacity: 1; stroke-width: 1px;"/><path class="ygrid crisp" transform="translate(0,340.21)" d="M50,0h990" style="stroke: rgb(235, 240, 248); stroke-opacity: 1; stroke-width: 1px;"/><path class="ygrid crisp" transform="translate(0,235.31)" d="M50,0h990" style="stroke: rgb(235, 240, 248); stroke-opacity: 1; stroke-width: 1px;"/><path class="ygrid crisp" transform="translate(0,130.42000000000002)" d="M50,0h990" style="stroke: rgb(235, 240, 248); stroke-opacity: 1; stroke-width: 1px;"/><path class="ygrid crisp" transform="translate(0,25.52)" d="M50,0h990" style="stroke: rgb(235, 240, 248); stroke-opacity: 1; stroke-width: 1px;"/></g></g><g class="zerolinelayer"><path class="yzl zl crisp" transform="translate(0,550)" d="M50,0h990" style="stroke: rgb(235, 240, 248); stroke-opacity: 1; stroke-width: 2px;"/></g><path class="xlines-below"/><path class="ylines-below"/><g class="overlines-below"/><g class="xaxislayer-below"/><g class="yaxislayer-below"/><g class="overaxes-below"/><g class="plot" transform="translate(50,20)" clip-path="url(#clipd6eb79xyplot)"><g class="scatterlayer mlayer"><g class="trace scatter traced1cb16" style="stroke-miterlimit: 2; opacity: 1;"><g class="fills"/><g class="errorbars"/><g class="lines"><path class="js-line" d="M0,310.77L6.6,283.49L9.9,283.49L19.8,283.49L23.1,290.84L29.7,278.25L33,278.25L46.2,278.25L49.5,275.1L59.4,275.1L62.7,271.96L66,269.86L69.3,269.86L75.9,269.86L79.2,263.56L122.1,263.56L125.4,256.22L141.9,256.22L145.2,212.17L184.8,212.17L191.4,242.59L194.7,236.29L201.3,236.29L224.4,235.24L227.7,234.19L231,257.27L234.3,268.81L237.6,268.81L240.9,264.61L244.2,260.42L247.5,269.86L277.2,269.86L280.5,265.66L283.8,265.66L287.1,269.86L290.4,265.66L293.7,268.81L297,265.66L300.3,265.66L303.6,263.56L306.9,265.66L316.8,265.66L320.1,263.56L323.4,263.56L326.7,265.66L330,263.56L333.3,263.56L336.6,242.59L339.9,250.98L346.5,250.98L349.8,248.88L353.1,214.26L356.4,193.28L363,193.28L366.3,188.04L369.6,153.42L372.9,136.64L376.2,133.49L379.5,133.49L386.1,133.49L389.4,127.2L396,109.37L399.3,94.68L425.7,95.73L429,97.83L432.3,97.83L435.6,108.32L462,108.32L465.3,93.63L468.6,93.63L471.9,68.46L485.1,68.46L488.4,40.14L508.2,40.14L511.5,26.5" style="vector-effect: none; fill: none; stroke: rgb(138, 44, 81); stroke-opacity: 1; stroke-width: 5px; opacity: 1;"/></g><g class="points"/><g class="text"/></g><g class="trace scatter trace1f470e" style="stroke-miterlimit: 2; opacity: 1;"><g class="fills"/><g class="errorbars"/><g class="lines"><path class="js-line" d="M0,72.65L6.6,87.34L9.9,87.34L19.8,87.34L23.1,94.68L29.7,78.95L33,78.95L59.4,78.95L62.7,81.05L66,83.14L69.3,83.14L75.9,83.14L79.2,88.39L191.4,88.39L194.7,117.76L221.1,117.76L224.4,112.51L227.7,108.32L231,84.19L234.3,48.53L237.6,48.53L244.2,67.41L247.5,35.94L277.2,35.94L280.5,51.68L283.8,51.68L287.1,35.94L290.4,51.68L293.7,32.79L297,28.6L300.3,28.6L303.6,48.53L306.9,28.6L316.8,28.6L320.1,48.53L323.4,48.53L326.7,28.6L330,48.53L333.3,48.53L336.6,29.65L339.9,53.77L349.8,53.77L353.1,60.07L363,60.07L366.3,65.31L369.6,83.14L372.9,89.44L379.5,90.49L382.8,90.49L392.7,90.49L396,93.63L402.6,94.68L405.9,94.68L422.4,94.68L425.7,97.83L429,104.12L432.3,104.12L435.6,108.32L442.2,108.32L465.3,109.37L468.6,105.17L471.9,115.66L475.2,115.66L485.1,115.66L488.4,113.56L508.2,113.56L511.5,128.25" style="vector-effect: none; fill: none; stroke: rgb(0, 174, 239); stroke-opacity: 1; stroke-width: 5px; opacity: 1;"/></g><g class="points"/><g class="text"/></g><g class="trace scatter trace2ee63a" style="stroke-miterlimit: 2; opacity: 1;"><g class="fills"/><g class="errorbars"/><g class="lines"><path class="js-line" d="M0,424.06L6.6,427.2L9.9,427.2L19.8,427.2L23.1,434.54L29.7,421.96L33,421.96L46.2,421.96L49.5,424.06L62.7,423.01L66,421.96L122.1,421.96L125.4,424.06L141.9,424.06L145.2,436.64L184.8,436.64L191.4,428.25L194.7,360.07L201.3,360.07L221.1,360.07L224.4,363.22L227.7,366.36L231,366.36L234.3,372.66L237.6,372.66L244.2,365.31L247.5,373.71L277.2,373.71L280.5,369.51L283.8,369.51L287.1,373.71L290.4,369.51L293.7,375.8L297,380L300.3,380L303.6,372.66L306.9,380L316.8,380L320.1,372.66L323.4,372.66L326.7,380L330,372.66L333.3,372.66L336.6,403.08L339.9,382.1L349.8,383.15L353.1,398.88L356.4,411.47L359.7,411.47L363,411.47L366.3,408.32L369.6,418.81L372.9,420.91L389.4,419.86L392.7,418.81L396,420.91L399.3,425.1L422.4,425.1L425.7,420.91L429,411.47L432.3,411.47L435.6,396.78L442.2,396.78L462,396.78L465.3,410.42L468.6,414.61L471.9,429.3L485.1,429.3L488.4,437.69L511.5,436.64" style="vector-effect: none; fill: none; stroke: rgb(255, 1, 170); stroke-opacity: 1; stroke-width: 5px; opacity: 1;"/></g><g class="points"/><g class="text"/></g><g class="trace scatter trace4eb9ae" style="stroke-miterlimit: 2; opacity: 1;"><g class="fills"/><g class="errorbars"/><g class="lines"><path class="js-line" d="M0,419.86L6.6,424.06L9.9,424.06L19.8,424.06L23.1,419.86L26.4,420.91L29.7,426.15L59.4,427.2L62.7,430.35L66,432.45L69.3,432.45L122.1,432.45L125.4,430.35L141.9,430.35L145.2,446.08L184.8,446.08L191.4,439.79L194.7,453.43L201.3,453.43L224.4,454.48L227.7,456.57L231,456.57L234.3,468.11L237.6,468.11L240.9,461.82L244.2,455.52L247.5,473.36L277.2,473.36L280.5,464.96L283.8,464.96L287.1,473.36L290.4,464.96L293.7,472.31L300.3,472.31L303.6,463.92L306.9,472.31L310.2,472.31L316.8,472.31L320.1,463.92L323.4,463.92L326.7,472.31L330,463.92L333.3,463.92L336.6,464.96L339.9,457.62L349.8,458.67L353.1,469.16L356.4,474.41L359.7,474.41L363,474.41L366.3,476.5L372.9,482.8L376.2,483.85L386.1,483.85L389.4,485.94L392.7,490.14L396,492.24L399.3,497.48L402.6,497.48L485.1,497.48L488.4,496.43L511.5,496.43" style="vector-effect: none; fill: none; stroke: rgb(238, 58, 67); stroke-opacity: 1; stroke-width: 5px; opacity: 1;"/></g><g class="points"/><g class="text"/></g><g class="trace scatter trace5b6edf" style="stroke-miterlimit: 2; opacity: 1;"><g class="fills"/><g class="errorbars"/><g class="lines"><path class="js-line" d="M0,447.13L9.9,449.23L13.2,449.23L19.8,449.23L23.1,434.54L29.7,467.06L33,467.06L62.7,466.01L66,464.96L141.9,463.92L145.2,469.16L184.8,469.16L191.4,467.06L194.7,471.26L201.3,471.26L224.4,472.31L227.7,473.36L237.6,472.31L240.9,476.5L244.2,480.7L247.5,473.36L277.2,473.36L280.5,476.5L283.8,476.5L287.1,473.36L290.4,476.5L293.7,475.45L297,479.65L300.3,479.65L303.6,480.7L306.9,479.65L333.3,480.7L336.6,483.85L353.1,483.85L356.4,485.94L366.3,486.99L369.6,488.04L372.9,491.19L376.2,492.24L386.1,492.24L389.4,494.34L399.3,502.73L402.6,502.73L485.1,502.73L488.4,513.22L511.5,513.22" style="vector-effect: none; fill: none; stroke: rgb(202, 166, 105); stroke-opacity: 1; stroke-width: 5px; opacity: 1;"/></g><g class="points"/><g class="text"/></g><g class="trace scatter trace23bd44" style="stroke-miterlimit: 2; opacity: 1;"><g class="fills"/><g class="errorbars"/><g class="lines"><path class="js-line" d="M0,456.57L9.9,459.72L13.2,459.72L23.1,458.67L26.4,456.57L33,457.62L36.3,457.62L46.2,457.62L49.5,459.72L75.9,458.67L79.2,460.77L122.1,460.77L125.4,469.16L141.9,469.16L145.2,477.55L184.8,477.55L191.4,464.96L194.7,492.24L201.3,492.24L231,493.29L234.3,500.63L244.2,500.63L247.5,504.83L277.2,504.83L280.5,502.73L283.8,502.73L287.1,504.83L290.4,502.73L293.7,504.83L300.3,504.83L303.6,502.73L306.9,504.83L310.2,504.83L316.8,504.83L320.1,502.73L323.4,502.73L326.7,504.83L330,502.73L333.3,502.73L336.6,505.87L339.9,503.78L363,504.83L366.3,505.87L372.9,509.02L376.2,510.07L386.1,510.07L389.4,512.17L392.7,516.36L396,516.36L402.6,517.41L405.9,517.41L485.1,516.36" style="vector-effect: none; fill: none; stroke: rgb(255, 192, 203); stroke-opacity: 1; stroke-width: 5px; opacity: 1;"/></g><g class="points"/><g class="text"/></g></g></g><g class="overplot"/><path class="xlines-above crisp" d="M0,0" style="fill: none;"/><path class="ylines-above crisp" d="M0,0" style="fill: none;"/><g class="overlines-above"/><g class="xaxislayer-above"><g class="xtick"><text text-anchor="middle" x="0" y="563" transform="translate(83,0)" style="font-family: 'Open Sans', verdana, arial, sans-serif; font-size: 12px; fill: rgb(42, 63, 95); fill-opacity: 1; white-space: pre; opacity: 1;">1.7.23</text></g><g class="xtick"><text text-anchor="middle" x="0" y="563" style="font-family: 'Open Sans', verdana, arial, sans-serif; font-size: 12px; fill: rgb(42, 63, 95); fill-opacity: 1; white-space: pre; opacity: 1;" transform="translate(185.3,0)">1.8.23</text></g><g class="xtick"><text text-anchor="middle" x="0" y="563" style="font-family: 'Open Sans', verdana, arial, sans-serif; font-size: 12px; fill: rgb(42, 63, 95); fill-opacity: 1; white-space: pre; opacity: 1;" transform="translate(287.6,0)">1.9.23</text></g><g class="xtick"><text text-anchor="middle" x="0" y="563" style="font-family: 'Open Sans', verdana, arial, sans-serif; font-size: 12px; fill: rgb(42, 63, 95); fill-opacity: 1; white-space: pre; opacity: 1;" transform="translate(386.6,0)">1.10.23</text></g><g class="xtick"><text text-anchor="middle" x="0" y="563" style="font-family: 'Open Sans', verdana, arial, sans-serif; font-size: 12px; fill: rgb(42, 63, 95); fill-opacity: 1; white-space: pre; opacity: 1;" transform="translate(488.9,0)">1.11.23</text></g><g class="xtick"><text text-anchor="middle" x="0" y="563" style="font-family: 'Open Sans', verdana, arial, sans-serif; font-size: 12px; fill: rgb(42, 63, 95); fill-opacity: 1; white-space: pre; opacity: 1;" transform="translate(587.9,0)">1.12.23</text></g><g class="xtick"><text text-anchor="middle" x="0" y="563" style="font-family: 'Open Sans', verdana, arial, sans-serif; font-size: 12px; fill: rgb(42, 63, 95); fill-opacity: 1; white-space: pre; opacity: 1;" transform="translate(690.2,0)">1.1.24</text></g><g class="xtick"><text text-anchor="middle" x="0" y="563" style="font-family: 'Open Sans', verdana, arial, sans-serif; font-size: 12px; fill: rgb(42, 63, 95); fill-opacity: 1; white-space: pre; opacity: 1;" transform="translate(792.5,0)">1.2.24</text></g><g class="xtick"><text text-anchor="middle" x="0" y="563" style="font-family: 'Open Sans', verdana, arial, sans-serif; font-size: 12px; fill: rgb(42, 63, 95); fill-opacity: 1; white-space: pre; opacity: 1;" transform="translate(888.2,0)">1.3.24</text></g><g class="xtick"><text text-anchor="middle" x="0" y="563" style="font-family: 'Open Sans', verdana, arial, sans-serif; font-size: 12px; fill: rgb(42, 63, 95); fill-opacity: 1; white-space: pre; opacity: 1;" transform="translate(990.5,0)">1.4.24</text></g></g><g class="yaxislayer-above"><g class="ytick"><text text-anchor="end" x="49" y="4.199999999999999" transform="translate(0,550)" style="font-family: 'Open Sans', verdana, arial, sans-serif; font-size: 12px; fill: rgb(42, 63, 95); fill-opacity: 1; white-space: pre; opacity: 1;">0%</text></g><g class="ytick"><text text-anchor="end" x="49" y="4.199999999999999" style="font-family: 'Open Sans', verdana, arial, sans-serif; font-size: 12px; fill: rgb(42, 63, 95); fill-opacity: 1; white-space: pre; opacity: 1;" transform="translate(0,445.1)">10%</text></g><g class="ytick"><text text-anchor="end" x="49" y="4.199999999999999" style="font-family: 'Open Sans', verdana, arial, sans-serif; font-size: 12px; fill: rgb(42, 63, 95); fill-opacity: 1; white-space: pre; opacity: 1;" transform="translate(0,340.21)">20%</text></g><g class="ytick"><text text-anchor="end" x="49" y="4.199999999999999" style="font-family: 'Open Sans', verdana, arial, sans-serif; font-size: 12px; fill: rgb(42, 63, 95); fill-opacity: 1; white-space: pre; opacity: 1;" transform="translate(0,235.31)">30%</text></g><g class="ytick"><text text-anchor="end" x="49" y="4.199999999999999" style="font-family: 'Open Sans', verdana, arial, sans-serif; font-size: 12px; fill: rgb(42, 63, 95); fill-opacity: 1; white-space: pre; opacity: 1;" transform="translate(0,130.42000000000002)">40%</text></g><g class="ytick"><text text-anchor="end" x="49" y="4.199999999999999" style="font-family: 'Open Sans', verdana, arial, sans-serif; font-size: 12px; fill: rgb(42, 63, 95); fill-opacity: 1; white-space: pre; opacity: 1;" transform="translate(0,25.52)">50%</text></g></g><g class="overaxes-above"/></g></g><g class="polarlayer"/><g class="smithlayer"/><g class="ternarylayer"/><g class="geolayer"/><g class="funnelarealayer"/><g class="pielayer"/><g class="iciclelayer"/><g class="treemaplayer"/><g class="sunburstlayer"/><g class="glimages"/><defs id="topdefs-d6eb79"><g class="clips"/><clipPath id="legendd6eb79"><rect width="128" height="124" x="0" y="0"/></clipPath></defs><g class="layer-above"><g class="imagelayer"/><g class="shapelayer"/></g><g class="infolayer"><g class="legend" pointer-events="all" transform="translate(1059.8000000000002,20)"><rect class="bg" shape-rendering="crispEdges" style="stroke: rgb(68, 68, 68); stroke-opacity: 1; fill: rgb(255, 255, 255); fill-opacity: 1; stroke-width: 0px;" width="128" height="124" x="0" y="0"/><g class="scrollbox" transform="" clip-path="url(#legendd6eb79)"><g class="groups"><g class="traces" transform="translate(0,14.5)" style="opacity: 1;"><text class="legendtext" text-anchor="start" x="40" y="4.680000000000001" style="font-family: 'Open Sans', verdana, arial, sans-serif; font-size: 12px; fill: rgb(42, 63, 95); fill-opacity: 1; white-space: pre;">Pellegrini Peter</text><g class="layers" style="opacity: 1;"><g class="legendfill"/><g class="legendlines"><path class="js-line" d="M5,0h30" style="fill: none; stroke: rgb(138, 44, 81); stroke-opacity: 1; stroke-width: 5px;"/></g><g class="legendsymbols"><g class="legendpoints"/></g></g><rect class="legendtoggle" x="0" y="-9.5" width="122.703125" height="19" style="fill: rgb(0, 0, 0); fill-opacity: 0;"/></g><g class="traces" transform="translate(0,33.5)" style="opacity: 1;"><text class="legendtext" text-anchor="start" x="40" y="4.680000000000001" style="font-family: 'Open Sans', verdana, arial, sans-serif; font-size: 12px; fill: rgb(42, 63, 95); fill-opacity: 1; white-space: pre;">Korčok Ivan</text><g class="layers" style="opacity: 1;"><g class="legendfill"/><g class="legendlines"><path class="js-line" d="M5,0h30" style="fill: none; stroke: rgb(0, 174, 239); stroke-opacity: 1; stroke-width: 5px;"/></g><g class="legendsymbols"><g class="legendpoints"/></g></g><rect class="legendtoggle" x="0" y="-9.5" width="122.703125" height="19" style="fill: rgb(0, 0, 0); fill-opacity: 0;"/></g><g class="traces" transform="translate(0,52.5)" style="opacity: 1;"><text class="legendtext" text-anchor="start" x="40" y="4.680000000000001" style="font-family: 'Open Sans', verdana, arial, sans-serif; font-size: 12px; fill: rgb(42, 63, 95); fill-opacity: 1; white-space: pre;">Kubiš Ján</text><g class="layers" style="opacity: 1;"><g class="legendfill"/><g class="legendlines"><path class="js-line" d="M5,0h30" style="fill: none; stroke: rgb(255, 1, 170); stroke-opacity: 1; stroke-width: 5px;"/></g><g class="legendsymbols"><g class="legendpoints"/></g></g><rect class="legendtoggle" x="0" y="-9.5" width="122.703125" height="19" style="fill: rgb(0, 0, 0); fill-opacity: 0;"/></g><g class="traces" transform="translate(0,71.5)" style="opacity: 1;"><text class="legendtext" text-anchor="start" x="40" y="4.680000000000001" style="font-family: 'Open Sans', verdana, arial, sans-serif; font-size: 12px; fill: rgb(42, 63, 95); fill-opacity: 1; white-space: pre;">Fico Robert</text><g class="layers" style="opacity: 1;"><g class="legendfill"/><g class="legendlines"><path class="js-line" d="M5,0h30" style="fill: none; stroke: rgb(238, 58, 67); stroke-opacity: 1; stroke-width: 5px;"/></g><g class="legendsymbols"><g class="legendpoints"/></g></g><rect class="legendtoggle" x="0" y="-9.5" width="122.703125" height="19" style="fill: rgb(0, 0, 0); fill-opacity: 0;"/></g><g class="traces" transform="translate(0,90.5)" style="opacity: 1;"><text class="legendtext" text-anchor="start" x="40" y="4.680000000000001" style="font-family: 'Open Sans', verdana, arial, sans-serif; font-size: 12px; fill: rgb(42, 63, 95); fill-opacity: 1; white-space: pre;">Mistrík Robert</text><g class="layers" style="opacity: 1;"><g class="legendfill"/><g class="legendlines"><path class="js-line" d="M5,0h30" style="fill: none; stroke: rgb(202, 166, 105); stroke-opacity: 1; stroke-width: 5px;"/></g><g class="legendsymbols"><g class="legendpoints"/></g></g><rect class="legendtoggle" x="0" y="-9.5" width="122.703125" height="19" style="fill: rgb(0, 0, 0); fill-opacity: 0;"/></g><g class="traces" transform="translate(0,109.5)" style="opacity: 1;"><text class="legendtext" text-anchor="start" x="40" y="4.680000000000001" style="font-family: 'Open Sans', verdana, arial, sans-serif; font-size: 12px; fill: rgb(42, 63, 95); fill-opacity: 1; white-space: pre;">Lajčák Miroslav</text><g class="layers" style="opacity: 1;"><g class="legendfill"/><g class="legendlines"><path class="js-line" d="M5,0h30" style="fill: none; stroke: rgb(255, 192, 203); stroke-opacity: 1; stroke-width: 5px;"/></g><g class="legendsymbols"><g class="legendpoints"/></g></g><rect class="legendtoggle" x="0" y="-9.5" width="122.703125" height="19" style="fill: rgb(0, 0, 0); fill-opacity: 0;"/></g></g></g><rect class="scrollbar" rx="20" ry="3" width="0" height="0" style="fill: rgb(128, 139, 164); fill-opacity: 1;" x="0" y="0"/></g><g class="g-gtitle"/><g class="g-xtitle"/><g class="g-ytitle"/></g></svg>