<svg class="main-svg" xmlns="http://www.w3.org/2000/svg" xmlns:xlink="http://www.w3.org/1999/xlink" width="300" height="135" style="" viewBox="0 0 300 135"><rect x="0" y="0" width="300" height="135" style="fill: rgb(255, 255, 255); fill-opacity: 1;"/><defs id="defs-338fbb"><g class="clips"><clipPath id="clip338fbbxyplot" class="plotclip"><rect width="280" height="75"/></clipPath><clipPath class="axesclip" id="clip338fbbx"><rect x="10" y="0" width="280" height="135"/></clipPath><clipPath class="axesclip" id="clip338fbby"><rect x="0" y="50" width="300" height="75"/></clipPath><clipPath class="axesclip" id="clip338fbbxy"><rect x="10" y="50" width="280" height="75"/></clipPath></g><g class="gradients"/><g class="patterns"/></defs><g class="bglayer"/><g class="layer-below"><g class="imagelayer"/><g class="shapelayer"/></g><g class="cartesianlayer"><g class="subplot xy"><g class="layer-subplot"><g class="shapelayer"/><g class="imagelayer"/></g><g class="minor-gridlayer"><g class="x"/><g class="y"/></g><g class="gridlayer"><g class="x"><path class="xgrid crisp" transform="translate(25.47,0)" d="M0,50v75" style="stroke: rgb(235, 240, 248); stroke-opacity: 1; stroke-width: 1px;"/><path class="xgrid crisp" transform="translate(121.38,0)" d="M0,50v75" style="stroke: rgb(235, 240, 248); stroke-opacity: 1; stroke-width: 1px;"/><path class="xgrid crisp" transform="translate(215.75,0)" d="M0,50v75" style="stroke: rgb(235, 240, 248); stroke-opacity: 1; stroke-width: 1px;"/></g><g class="y"><path class="ygrid crisp" transform="translate(0,101.28999999999999)" d="M10,0h280" style="stroke: rgb(235, 240, 248); stroke-opacity: 1; stroke-width: 1px;"/><path class="ygrid crisp" transform="translate(0,77.58)" d="M10,0h280" style="stroke: rgb(235, 240, 248); stroke-opacity: 1; stroke-width: 1px;"/><path class="ygrid crisp" transform="translate(0,53.87)" d="M10,0h280" style="stroke: rgb(235, 240, 248); stroke-opacity: 1; stroke-width: 1px;"/></g></g><g class="zerolinelayer"><path class="yzl zl crisp" transform="translate(0,125)" d="M10,0h280" style="stroke: rgb(235, 240, 248); stroke-opacity: 1; stroke-width: 2px;"/></g><path class="xlines-below"/><path class="ylines-below"/><g class="overlines-below"/><g class="xaxislayer-below"/><g class="yaxislayer-below"/><g class="overaxes-below"/><g class="plot" transform="translate(10,50)" clip-path="url(#clip338fbbxyplot)"><g class="scatterlayer mlayer"><g class="trace scatter trace3eb7dc" style="stroke-miterlimit: 2; opacity: 1;"><g class="fills"/><g class="errorbars"/><g class="lines"><path class="js-line" d="M0,50.22L4.64,47.14L6.19,47.14L12.38,47.38L13.92,46.55L35.58,45.6L37.13,44.89L66.52,44.06L68.07,39.08L86.63,39.08L89.72,42.52L91.27,41.81L94.36,41.81L106.74,41.57L108.29,44.18L111.38,45.48L112.93,45.01L114.48,44.53L116.02,45.6L156.24,44.89L157.79,42.52L160.88,43.47L162.43,43.47L163.98,43.23L165.52,39.32L167.07,36.94L168.62,36.94L171.71,36.35L173.26,32.44L176.35,30.19L177.9,30.19L182.54,29.48L184.09,28.41L188.73,25.8L190.28,25.8L202.65,26.16L204.2,27.34L216.57,27.34L218.12,25.68L219.67,25.68L221.22,22.84L227.4,22.84L228.95,19.64L238.23,19.64L239.78,17.74L242.87,17.03L244.42,17.03L250.61,14.66L252.15,10.63L255.25,10.63L256.8,8.61L258.34,3.75L259.89,3.75L272.27,3.75L273.81,5.53L276.91,6.36L278.45,6.36L280,6.36" style="vector-effect: none; fill: none; stroke: rgb(138, 44, 81); stroke-opacity: 1; stroke-width: 5px; opacity: 1;"/></g><g class="points"/><g class="text"/></g><g class="trace scatter trace3be2c0" style="stroke-miterlimit: 2; opacity: 1;"><g class="fills"/><g class="errorbars"/><g class="lines"><path class="js-line" d="M0,23.31L4.64,24.97L6.19,24.97L12.38,24.73L13.92,24.02L89.72,25.09L91.27,28.41L106.74,27.34L108.29,24.62L109.83,20.58L111.38,20.58L114.48,22.72L116.02,19.16L129.94,19.16L131.49,20.94L133.04,20.94L134.59,19.16L136.13,20.94L137.68,18.81L140.77,18.33L142.32,20.58L143.87,18.33L145.41,18.33L148.51,18.33L150.06,20.58L151.6,20.58L153.15,18.33L154.7,20.58L156.24,20.58L157.79,18.45L159.34,21.18L170.17,21.89L171.71,22.48L174.81,25.21L176.35,25.33L199.56,26.16L201.1,26.87L219.67,26.99L221.22,28.17L238.23,27.93L239.78,29.83L250.61,32.32L252.15,30.07L256.8,31.25L258.34,32.8L272.27,32.8L273.81,31.14L276.91,30.19L278.45,30.19L280,30.19" style="vector-effect: none; fill: none; stroke: rgb(0, 174, 239); stroke-opacity: 1; stroke-width: 5px; opacity: 1;"/></g><g class="points"/><g class="text"/></g><g class="trace scatter trace7a26a6" style="stroke-miterlimit: 2; opacity: 1;"><g class="fills"/><g class="errorbars"/><g class="lines"><path class="js-line" d="M0,63.03L10.83,64.21L12.38,63.5L15.47,62.79L17.02,62.79L66.52,63.03L68.07,64.45L89.72,63.5L91.27,55.79L108.29,56.51L109.83,57.22L137.68,57.57L139.23,58.05L156.24,57.22L157.79,60.66L159.34,58.28L160.88,58.28L163.98,58.4L165.52,60.18L168.62,61.6L170.17,61.6L171.71,61.25L173.26,62.43L180.99,62.67L182.54,62.55L190.28,63.14L191.82,63.14L199.56,62.67L201.1,61.6L202.65,61.6L204.2,59.94L216.57,59.94L218.12,61.49L224.31,63.62L225.86,63.62L247.51,64.8L249.06,64.92L250.61,64.92L252.15,68.6L272.27,69.78L273.81,69.9L280,69.9" style="vector-effect: none; fill: none; stroke: rgb(255, 1, 170); stroke-opacity: 1; stroke-width: 5px; opacity: 1;"/></g><g class="points"/><g class="text"/></g><g class="trace scatter traceefbc39" style="stroke-miterlimit: 2; opacity: 1;"><g class="fills"/><g class="errorbars"/><g class="lines"><path class="js-line" d="M0,65.63L9.28,65.87L10.83,64.21L13.92,67.89L15.47,67.89L111.38,68.48L112.93,68.95L116.02,68.6L117.57,68.6L165.52,69.78L167.07,70.02L182.54,70.97L184.09,71.32L194.92,71.92L196.46,71.92L245.97,73.1L247.51,73.22L256.8,73.81" style="vector-effect: none; fill: none; stroke: rgb(202, 166, 105); stroke-opacity: 1; stroke-width: 5px; opacity: 1;"/></g><g class="points"/><g class="text"/></g><g class="trace scatter traceb1a7ed" style="stroke-miterlimit: 2; opacity: 1;"><g class="fills"/><g class="errorbars"/><g class="lines"><path class="js-line" d="M0,62.55L9.28,63.03L10.83,62.55L38.67,63.97L40.22,63.97L66.52,63.74L68.07,65.52L89.72,64.8L91.27,66.35L108.29,66.7L109.83,68.01L112.93,67.29L114.48,66.58L117.57,68.6L119.12,68.6L157.79,67.65L159.34,66.82L163.98,66.94L165.52,68.12L170.17,68.72L171.71,68.95L179.45,69.78L180.99,69.78L194.92,71.32L196.46,71.32L250.61,71.32L252.15,73.58L256.8,73.81" style="vector-effect: none; fill: none; stroke: rgb(238, 58, 67); stroke-opacity: 1; stroke-width: 5px; opacity: 1;"/></g><g class="points"/><g class="text"/></g></g></g><g class="overplot"/><path class="xlines-above crisp" d="M0,0" style="fill: none;"/><path class="ylines-above crisp" d="M0,0" style="fill: none;"/><g class="overlines-above"/><g class="xaxislayer-above"/><g class="yaxislayer-above"/><g class="overaxes-above"/></g></g><g class="polarlayer"/><g class="smithlayer"/><g class="ternarylayer"/><g class="geolayer"/><g class="funnelarealayer"/><g class="pielayer"/><g class="iciclelayer"/><g class="treemaplayer"/><g class="sunburstlayer"/><g class="glimages"/><defs id="topdefs-338fbb"><g class="clips"/></defs><g class="layer-above"><g class="imagelayer"/><g class="shapelayer"/></g><g class="infolayer"><g class="g-gtitle"><text class="gtitle" x="15" y="25" text-anchor="start" dy="0em" style="font-family: Ubuntu, verdana, arial, sans-serif; font-size: 16px; fill: rgb(233, 84, 32); opacity: 1; font-weight: normal; white-space: pre;">Prezident/ka 2024</text></g><g class="g-xtitle"/><g class="g-ytitle"/></g></svg>