<svg class="main-svg" xmlns="http://www.w3.org/2000/svg" xmlns:xlink="http://www.w3.org/1999/xlink" width="400" height="400" style="" viewBox="0 0 400 400"><rect x="0" y="0" width="400" height="400" style="fill: rgb(255, 255, 255); fill-opacity: 1;"/><defs id="defs-23775a"><g class="clips"><clipPath id="clip23775axyplot" class="plotclip"><rect width="206" height="330"/></clipPath><clipPath class="axesclip" id="clip23775ax"><rect x="50" y="0" width="206" height="400"/></clipPath><clipPath class="axesclip" id="clip23775ay"><rect x="0" y="20" width="400" height="330"/></clipPath><clipPath class="axesclip" id="clip23775axy"><rect x="50" y="20" width="206" height="330"/></clipPath></g><g class="gradients"/><g class="patterns"/></defs><g class="bglayer"/><g class="layer-below"><g class="imagelayer"/><g class="shapelayer"/></g><g class="cartesianlayer"><g class="subplot xy"><g class="layer-subplot"><g class="shapelayer"/><g class="imagelayer"/></g><g class="minor-gridlayer"><g class="x"/><g class="y"/></g><g class="gridlayer"><g class="x"><path class="xgrid crisp" transform="translate(56.87,0)" d="M0,20v330" style="stroke: rgb(235, 240, 248); stroke-opacity: 1; stroke-width: 1px;"/><path class="xgrid crisp" transform="translate(99.44,0)" d="M0,20v330" style="stroke: rgb(235, 240, 248); stroke-opacity: 1; stroke-width: 1px;"/><path class="xgrid crisp" transform="translate(141.32999999999998,0)" d="M0,20v330" style="stroke: rgb(235, 240, 248); stroke-opacity: 1; stroke-width: 1px;"/><path class="xgrid crisp" transform="translate(183.21,0)" d="M0,20v330" style="stroke: rgb(235, 240, 248); stroke-opacity: 1; stroke-width: 1px;"/><path class="xgrid crisp" transform="translate(224.41,0)" d="M0,20v330" style="stroke: rgb(235, 240, 248); stroke-opacity: 1; stroke-width: 1px;"/></g><g class="y"><path class="ygrid crisp" transform="translate(0,301.09)" d="M50,0h206" style="stroke: rgb(235, 240, 248); stroke-opacity: 1; stroke-width: 1px;"/><path class="ygrid crisp" transform="translate(0,252.18)" d="M50,0h206" style="stroke: rgb(235, 240, 248); stroke-opacity: 1; stroke-width: 1px;"/><path class="ygrid crisp" transform="translate(0,203.28)" d="M50,0h206" style="stroke: rgb(235, 240, 248); stroke-opacity: 1; stroke-width: 1px;"/><path class="ygrid crisp" transform="translate(0,154.37)" d="M50,0h206" style="stroke: rgb(235, 240, 248); stroke-opacity: 1; stroke-width: 1px;"/><path class="ygrid crisp" transform="translate(0,105.46)" d="M50,0h206" style="stroke: rgb(235, 240, 248); stroke-opacity: 1; stroke-width: 1px;"/><path class="ygrid crisp" transform="translate(0,56.55)" d="M50,0h206" style="stroke: rgb(235, 240, 248); stroke-opacity: 1; stroke-width: 1px;"/></g></g><g class="zerolinelayer"><path class="yzl zl crisp" transform="translate(0,350)" d="M50,0h206" style="stroke: rgb(235, 240, 248); stroke-opacity: 1; stroke-width: 2px;"/></g><path class="xlines-below"/><path class="ylines-below"/><g class="overlines-below"/><g class="xaxislayer-below"/><g class="yaxislayer-below"/><g class="overaxes-below"/><g class="plot" transform="translate(50,20)" clip-path="url(#clip23775axyplot)"><g class="scatterlayer mlayer"><g class="trace scatter trace830999" style="stroke-miterlimit: 2; opacity: 1;"><g class="fills"/><g class="errorbars"/><g class="lines"><path class="js-line" d="M0,227.78L2.06,215.07L2.75,215.07L4.12,215.07L4.81,218.49L6.87,212.62L7.55,212.62L9.61,212.62L10.3,211.15L12.36,211.15L13.05,209.69L15.11,208.71L15.79,208.71L17.17,205.77L17.85,205.77L25.41,205.77L26.09,202.35L29.53,202.35L30.21,181.81L38.45,181.81L39.83,195.99L40.51,193.06L41.89,193.06L47.38,192.08L48.07,202.84L49.44,208.22L50.13,206.26L50.81,204.31L51.5,208.71L57.68,208.71L58.37,206.75L59.05,206.75L59.74,208.71L60.43,206.75L61.11,208.22L61.8,206.75L69.35,205.77L70.04,195.99L71.41,199.9L72.1,199.9L72.79,198.93L73.47,182.79L74.85,173.01L75.53,173.01L76.22,170.56L76.91,154.42L78.97,145.13L79.65,145.13L80.34,145.13L81.03,142.19L83.77,127.03L84.46,127.03L88.58,127.52L89.27,128.5L89.95,128.5L90.64,133.39L96.13,133.39L96.82,126.54L97.51,126.54L98.19,114.8L100.94,114.8L101.63,101.6L105.75,101.6L106.43,93.77L107.81,90.84L108.49,90.84L111.24,81.06L111.93,64.43L113.3,64.43L113.99,56.12L115.36,36.06L116.05,36.06L120.85,36.06L121.54,43.4L122.91,46.82L123.6,46.82L124.29,48.78L124.97,56.6L125.66,59.54L126.35,57.58L127.03,54.16L132.53,53.18L133.21,55.63L133.9,54.65L134.59,38.51L136.65,21.88L137.33,23.35L138.02,29.22L138.71,25.79L139.39,16.5L140.08,16.5L140.77,18.95L142.14,24.81L142.83,29.22L143.51,29.71L144.2,46.33L144.89,52.2L145.57,46.33L146.26,48.78L146.95,46.82L147.63,39L148.32,37.04L149.01,39.49L150.38,40.95L151.07,38.02L153.81,20.41L154.5,20.41L155.19,20.41" style="vector-effect: none; fill: none; stroke: rgb(138, 44, 81); stroke-opacity: 1; stroke-width: 5px; opacity: 1;"/></g><g class="points"/><g class="text"/></g><g class="trace scatter trace0ac68b" style="stroke-miterlimit: 2; opacity: 1;"><g class="fills"/><g class="errorbars"/><g class="lines"><path class="js-line" d="M0,116.76L2.06,123.61L2.75,123.61L4.12,123.61L4.81,127.03L6.87,119.7L7.55,119.7L13.05,120.67L13.73,121.65L15.79,121.65L16.48,124.1L39.83,124.1L40.51,137.79L46.01,137.79L46.69,135.35L47.38,133.39L48.07,122.14L49.44,105.51L50.13,109.91L50.81,114.32L51.5,99.64L57.68,99.64L58.37,106.98L59.05,106.98L59.74,99.64L60.43,106.98L61.11,98.18L62.49,96.22L63.17,105.51L64.55,96.22L65.23,96.22L65.92,96.22L66.61,105.51L67.29,105.51L67.98,96.22L69.35,105.51L70.04,96.71L71.41,107.96L72.1,107.96L72.79,107.96L73.47,110.89L75.53,110.89L76.22,113.34L78.28,125.08L78.97,125.08L81.71,125.08L82.4,126.54L85.15,127.03L85.83,127.03L87.89,127.03L88.58,128.5L90.64,133.39L92.01,133.39L96.82,133.88L97.51,131.92L98.88,136.81L99.57,136.81L105.75,135.84L106.43,143.66L107.81,145.62L108.49,145.62L111.24,153.93L111.93,144.64L113.3,144.64L113.99,149.53L115.36,155.89L116.05,155.89L120.85,155.89L121.54,149.04L122.91,145.13L123.6,145.13L124.29,143.17L124.97,131.92L125.66,128.5L126.35,129.48L127.03,130.94L132.53,130.94L133.21,128.5L133.9,128.5L134.59,141.22L136.65,156.38L137.33,154.91L138.71,145.13L139.39,154.42L140.08,154.42L140.77,151.98L142.14,146.11L142.83,141.7L143.51,141.22L144.2,124.59L144.89,118.72L145.57,124.59L146.26,122.14L146.95,124.1L147.63,131.92L148.32,133.88L149.01,131.43L150.38,129.97L151.07,132.9L153.81,150.51L154.5,150.51L155.19,150.51" style="vector-effect: none; fill: none; stroke: rgb(0, 174, 239); stroke-opacity: 1; stroke-width: 5px; opacity: 1;"/></g><g class="points"/><g class="text"/></g><g class="trace scatter trace514f03" style="stroke-miterlimit: 2; opacity: 1;"><g class="fills"/><g class="errorbars"/><g class="lines"><path class="js-line" d="M0,278.65L2.75,280.6L3.43,280.6L4.12,280.6L4.81,278.65L5.49,279.14L6.18,281.58L12.36,282.07L13.05,283.54L15.11,284.52L15.79,284.52L29.53,283.54L30.21,290.87L38.45,290.87L39.83,287.94L40.51,294.3L41.89,294.3L46.69,294.79L47.38,295.76L48.07,295.76L48.75,301.14L49.44,301.14L50.13,298.21L50.81,295.28L51.5,303.59L57.68,303.59L58.37,299.68L59.05,299.68L59.74,303.59L60.43,299.68L61.11,303.1L62.49,303.1L63.17,299.19L64.55,303.1L65.23,303.1L65.92,303.1L66.61,299.19L67.29,299.19L67.98,303.1L69.35,299.19L70.04,299.68L71.41,296.25L72.1,296.25L72.79,296.74L73.47,301.63L74.85,304.08L75.53,304.08L78.97,308.48L79.65,308.48L81.03,309.46L81.71,311.41L84.46,314.84L85.15,314.84L111.24,314.84L111.93,324.13L113.99,325.11" style="vector-effect: none; fill: none; stroke: rgb(238, 58, 67); stroke-opacity: 1; stroke-width: 5px; opacity: 1;"/></g><g class="points"/><g class="text"/></g><g class="trace scatter trace4a82e2" style="stroke-miterlimit: 2; opacity: 1;"><g class="fills"/><g class="errorbars"/><g class="lines"><path class="js-line" d="M0,280.6L2.06,282.07L2.75,282.07L4.12,282.07L4.81,285.49L6.87,279.62L7.55,279.62L29.53,280.6L30.21,286.47L38.45,286.47L39.83,282.56L40.51,250.77L41.89,250.77L46.01,250.77L46.69,252.24L49.44,256.64L50.13,255.17L50.81,253.21L51.5,257.13L57.68,257.13L58.37,255.17L59.05,255.17L59.74,257.13L60.43,255.17L61.11,258.11L62.49,260.06L63.17,256.64L64.55,260.06L65.23,260.06L65.92,260.06L66.61,256.64L67.29,256.64L67.98,260.06L69.35,256.64L70.04,270.82L71.41,261.04L72.1,261.04L72.79,261.53L73.47,268.87L74.85,274.73L75.53,274.73L76.22,273.27L76.91,278.16L78.97,279.14L79.65,279.14L82.4,279.14L83.09,281.09L87.89,281.09L88.58,279.14L90.64,267.89L92.01,267.89L96.13,267.89L96.82,274.24L97.51,276.2L98.19,283.05L100.94,283.05L101.63,286.96L109.87,287.94L110.55,288.43L111.24,288.43L111.93,303.59L113.3,303.59L113.99,305.55L115.36,308.48L116.05,308.48L124.29,308.48L124.97,312.88L126.35,313.86L127.03,315.82L133.21,316.79L133.9,317.77L135.96,322.66L136.65,322.66L138.02,323.64" style="vector-effect: none; fill: none; stroke: rgb(255, 1, 170); stroke-opacity: 1; stroke-width: 5px; opacity: 1;"/></g><g class="points"/><g class="text"/></g><g class="trace scatter trace973356" style="stroke-miterlimit: 2; opacity: 1;"><g class="fills"/><g class="errorbars"/><g class="lines"><path class="js-line" d="M0,295.76L3.43,297.23L4.12,297.23L6.87,296.25L7.55,296.25L15.79,296.74L16.48,297.72L25.41,297.72L26.09,301.63L29.53,301.63L30.21,305.55L38.45,305.55L39.83,299.68L40.51,312.39L41.89,312.39L48.07,312.88L48.75,316.31L50.81,316.31L51.5,318.26L69.35,317.28L70.04,318.75L72.1,317.77L72.79,317.77L76.22,318.75L76.91,319.73L81.03,321.69L81.71,323.64L100.94,323.64" style="vector-effect: none; fill: none; stroke: rgb(255, 192, 203); stroke-opacity: 1; stroke-width: 5px; opacity: 1;"/></g><g class="points"/><g class="text"/></g><g class="trace scatter trace821687" style="stroke-miterlimit: 2; opacity: 1;"><g class="fills"/><g class="errorbars"/><g class="lines"><path class="js-line" d="M0,291.36L3.43,292.34L4.12,292.34L4.81,285.49L5.49,294.79L6.87,300.66L7.55,300.66L25.41,299.68L26.09,299.19L29.53,299.19L30.21,301.63L39.83,300.66L40.51,302.61L49.44,303.1L50.13,305.06L50.81,307.01L51.5,303.59L57.68,303.59L58.37,305.06L59.05,305.06L59.74,303.59L62.49,306.52L63.17,307.01L65.92,306.52L66.61,307.01L69.35,307.01L70.04,308.48L73.47,308.48L74.16,309.46L76.91,310.44L77.59,311.9L81.71,314.84L82.4,315.82L84.46,317.28L85.15,317.28L100.94,317.28L101.63,322.17L111.24,322.66L111.93,324.13L113.99,325.11" style="vector-effect: none; fill: none; stroke: rgb(202, 166, 105); stroke-opacity: 1; stroke-width: 5px; opacity: 1;"/></g><g class="points"/><g class="text"/></g></g></g><g class="overplot"/><path class="xlines-above crisp" d="M0,0" style="fill: none;"/><path class="ylines-above crisp" d="M0,0" style="fill: none;"/><g class="overlines-above"/><g class="xaxislayer-above"><g class="xtick"><text text-anchor="middle" x="0" y="363" transform="translate(56.87,0)" style="font-family: 'Open Sans', verdana, arial, sans-serif; font-size: 12px; fill: rgb(42, 63, 95); fill-opacity: 1; white-space: pre; opacity: 1;">1.7.23</text></g><g class="xtick"><text text-anchor="middle" x="0" y="363" style="font-family: 'Open Sans', verdana, arial, sans-serif; font-size: 12px; fill: rgb(42, 63, 95); fill-opacity: 1; white-space: pre; opacity: 1;" transform="translate(99.44,0)">1.9.23</text></g><g class="xtick"><text text-anchor="middle" x="0" y="363" style="font-family: 'Open Sans', verdana, arial, sans-serif; font-size: 12px; fill: rgb(42, 63, 95); fill-opacity: 1; white-space: pre; opacity: 1;" transform="translate(141.32999999999998,0)">1.11.23</text></g><g class="xtick"><text text-anchor="middle" x="0" y="363" style="font-family: 'Open Sans', verdana, arial, sans-serif; font-size: 12px; fill: rgb(42, 63, 95); fill-opacity: 1; white-space: pre; opacity: 1;" transform="translate(183.21,0)">1.1.24</text></g><g class="xtick"><text text-anchor="middle" x="0" y="363" style="font-family: 'Open Sans', verdana, arial, sans-serif; font-size: 12px; fill: rgb(42, 63, 95); fill-opacity: 1; white-space: pre; opacity: 1;" transform="translate(224.41,0)">1.3.24</text></g></g><g class="yaxislayer-above"><g class="ytick"><text text-anchor="end" x="49" y="4.199999999999999" transform="translate(0,350)" style="font-family: 'Open Sans', verdana, arial, sans-serif; font-size: 12px; fill: rgb(42, 63, 95); fill-opacity: 1; white-space: pre; opacity: 1;">0%</text></g><g class="ytick"><text text-anchor="end" x="49" y="4.199999999999999" style="font-family: 'Open Sans', verdana, arial, sans-serif; font-size: 12px; fill: rgb(42, 63, 95); fill-opacity: 1; white-space: pre; opacity: 1;" transform="translate(0,301.09)">10%</text></g><g class="ytick"><text text-anchor="end" x="49" y="4.199999999999999" style="font-family: 'Open Sans', verdana, arial, sans-serif; font-size: 12px; fill: rgb(42, 63, 95); fill-opacity: 1; white-space: pre; opacity: 1;" transform="translate(0,252.18)">20%</text></g><g class="ytick"><text text-anchor="end" x="49" y="4.199999999999999" style="font-family: 'Open Sans', verdana, arial, sans-serif; font-size: 12px; fill: rgb(42, 63, 95); fill-opacity: 1; white-space: pre; opacity: 1;" transform="translate(0,203.28)">30%</text></g><g class="ytick"><text text-anchor="end" x="49" y="4.199999999999999" style="font-family: 'Open Sans', verdana, arial, sans-serif; font-size: 12px; fill: rgb(42, 63, 95); fill-opacity: 1; white-space: pre; opacity: 1;" transform="translate(0,154.37)">40%</text></g><g class="ytick"><text text-anchor="end" x="49" y="4.199999999999999" style="font-family: 'Open Sans', verdana, arial, sans-serif; font-size: 12px; fill: rgb(42, 63, 95); fill-opacity: 1; white-space: pre; opacity: 1;" transform="translate(0,105.46)">50%</text></g><g class="ytick"><text text-anchor="end" x="49" y="4.199999999999999" style="font-family: 'Open Sans', verdana, arial, sans-serif; font-size: 12px; fill: rgb(42, 63, 95); fill-opacity: 1; white-space: pre; opacity: 1;" transform="translate(0,56.55)">60%</text></g></g><g class="overaxes-above"/></g></g><g class="polarlayer"/><g class="smithlayer"/><g class="ternarylayer"/><g class="geolayer"/><g class="funnelarealayer"/><g class="pielayer"/><g class="iciclelayer"/><g class="treemaplayer"/><g class="sunburstlayer"/><g class="glimages"/><defs id="topdefs-23775a"><g class="clips"/><clipPath id="legend23775a"><rect width="128" height="124" x="0" y="0"/></clipPath></defs><g class="layer-above"><g class="imagelayer"/><g class="shapelayer"/></g><g class="infolayer"><g class="legend" pointer-events="all" transform="translate(260.12,20)"><rect class="bg" shape-rendering="crispEdges" width="128" height="124" x="0" y="0" style="stroke: rgb(68, 68, 68); stroke-opacity: 1; fill: rgb(255, 255, 255); fill-opacity: 1; stroke-width: 0px;"/><g class="scrollbox" transform="" clip-path="url(#legend23775a)"><g class="groups"><g class="traces" transform="translate(0,14.5)" style="opacity: 1;"><text class="legendtext" text-anchor="start" x="40" y="4.680000000000001" style="font-family: 'Open Sans', verdana, arial, sans-serif; font-size: 12px; fill: rgb(42, 63, 95); fill-opacity: 1; white-space: pre;">Pellegrini Peter</text><g class="layers" style="opacity: 1;"><g class="legendfill"/><g class="legendlines"><path class="js-line" d="M5,0h30" style="fill: none; stroke: rgb(138, 44, 81); stroke-opacity: 1; stroke-width: 5px;"/></g><g class="legendsymbols"><g class="legendpoints"/></g></g><rect class="legendtoggle" x="0" y="-9.5" width="122.703125" height="19" style="fill: rgb(0, 0, 0); fill-opacity: 0;"/></g><g class="traces" transform="translate(0,33.5)" style="opacity: 1;"><text class="legendtext" text-anchor="start" x="40" y="4.680000000000001" style="font-family: 'Open Sans', verdana, arial, sans-serif; font-size: 12px; fill: rgb(42, 63, 95); fill-opacity: 1; white-space: pre;">Korčok Ivan</text><g class="layers" style="opacity: 1;"><g class="legendfill"/><g class="legendlines"><path class="js-line" d="M5,0h30" style="fill: none; stroke: rgb(0, 174, 239); stroke-opacity: 1; stroke-width: 5px;"/></g><g class="legendsymbols"><g class="legendpoints"/></g></g><rect class="legendtoggle" x="0" y="-9.5" width="122.703125" height="19" style="fill: rgb(0, 0, 0); fill-opacity: 0;"/></g><g class="traces" transform="translate(0,52.5)" style="opacity: 1;"><text class="legendtext" text-anchor="start" x="40" y="4.680000000000001" style="font-family: 'Open Sans', verdana, arial, sans-serif; font-size: 12px; fill: rgb(42, 63, 95); fill-opacity: 1; white-space: pre;">Fico Robert</text><g class="layers" style="opacity: 1;"><g class="legendfill"/><g class="legendlines"><path class="js-line" d="M5,0h30" style="fill: none; stroke: rgb(238, 58, 67); stroke-opacity: 1; stroke-width: 5px;"/></g><g class="legendsymbols"><g class="legendpoints"/></g></g><rect class="legendtoggle" x="0" y="-9.5" width="122.703125" height="19" style="fill: rgb(0, 0, 0); fill-opacity: 0;"/></g><g class="traces" transform="translate(0,71.5)" style="opacity: 1;"><text class="legendtext" text-anchor="start" x="40" y="4.680000000000001" style="font-family: 'Open Sans', verdana, arial, sans-serif; font-size: 12px; fill: rgb(42, 63, 95); fill-opacity: 1; white-space: pre;">Kubiš Ján</text><g class="layers" style="opacity: 1;"><g class="legendfill"/><g class="legendlines"><path class="js-line" d="M5,0h30" style="fill: none; stroke: rgb(255, 1, 170); stroke-opacity: 1; stroke-width: 5px;"/></g><g class="legendsymbols"><g class="legendpoints"/></g></g><rect class="legendtoggle" x="0" y="-9.5" width="122.703125" height="19" style="fill: rgb(0, 0, 0); fill-opacity: 0;"/></g><g class="traces" transform="translate(0,90.5)" style="opacity: 1;"><text class="legendtext" text-anchor="start" x="40" y="4.680000000000001" style="font-family: 'Open Sans', verdana, arial, sans-serif; font-size: 12px; fill: rgb(42, 63, 95); fill-opacity: 1; white-space: pre;">Lajčák Miroslav</text><g class="layers" style="opacity: 1;"><g class="legendfill"/><g class="legendlines"><path class="js-line" d="M5,0h30" style="fill: none; stroke: rgb(255, 192, 203); stroke-opacity: 1; stroke-width: 5px;"/></g><g class="legendsymbols"><g class="legendpoints"/></g></g><rect class="legendtoggle" x="0" y="-9.5" width="122.703125" height="19" style="fill: rgb(0, 0, 0); fill-opacity: 0;"/></g><g class="traces" transform="translate(0,109.5)" style="opacity: 1;"><text class="legendtext" text-anchor="start" x="40" y="4.680000000000001" style="font-family: 'Open Sans', verdana, arial, sans-serif; font-size: 12px; fill: rgb(42, 63, 95); fill-opacity: 1; white-space: pre;">Mistrík Robert</text><g class="layers" style="opacity: 1;"><g class="legendfill"/><g class="legendlines"><path class="js-line" d="M5,0h30" style="fill: none; stroke: rgb(202, 166, 105); stroke-opacity: 1; stroke-width: 5px;"/></g><g class="legendsymbols"><g class="legendpoints"/></g></g><rect class="legendtoggle" x="0" y="-9.5" width="122.703125" height="19" style="fill: rgb(0, 0, 0); fill-opacity: 0;"/></g></g></g><rect class="scrollbar" rx="20" ry="3" width="0" height="0" x="0" y="0" style="fill: rgb(128, 139, 164); fill-opacity: 1;"/></g><g class="g-gtitle"/><g class="g-xtitle"/><g class="g-ytitle"/></g></svg>