<svg class="main-svg" xmlns="http://www.w3.org/2000/svg" xmlns:xlink="http://www.w3.org/1999/xlink" width="300" height="135" style="" viewBox="0 0 300 135"><rect x="0" y="0" width="300" height="135" style="fill: rgb(255, 255, 255); fill-opacity: 1;"/><defs id="defs-29cff7"><g class="clips"><clipPath id="clip29cff7xyplot" class="plotclip"><rect width="280" height="75"/></clipPath><clipPath class="axesclip" id="clip29cff7x"><rect x="10" y="0" width="280" height="135"/></clipPath><clipPath class="axesclip" id="clip29cff7y"><rect x="0" y="50" width="300" height="75"/></clipPath><clipPath class="axesclip" id="clip29cff7xy"><rect x="10" y="50" width="280" height="75"/></clipPath></g><g class="gradients"/><g class="patterns"/></defs><g class="bglayer"/><g class="layer-below"><g class="imagelayer"/><g class="shapelayer"/></g><g class="cartesianlayer"><g class="subplot xy"><g class="layer-subplot"><g class="shapelayer"/><g class="imagelayer"/></g><g class="minor-gridlayer"><g class="x"/><g class="y"/></g><g class="gridlayer"><g class="x"><path class="xgrid crisp" transform="translate(21.2,0)" d="M0,50v75" style="stroke: rgb(235, 240, 248); stroke-opacity: 1; stroke-width: 1px;"/><path class="xgrid crisp" transform="translate(90.64,0)" d="M0,50v75" style="stroke: rgb(235, 240, 248); stroke-opacity: 1; stroke-width: 1px;"/><path class="xgrid crisp" transform="translate(158.96,0)" d="M0,50v75" style="stroke: rgb(235, 240, 248); stroke-opacity: 1; stroke-width: 1px;"/><path class="xgrid crisp" transform="translate(227.28,0)" d="M0,50v75" style="stroke: rgb(235, 240, 248); stroke-opacity: 1; stroke-width: 1px;"/></g><g class="y"><path class="ygrid crisp" transform="translate(0,102.77000000000001)" d="M10,0h280" style="stroke: rgb(235, 240, 248); stroke-opacity: 1; stroke-width: 1px;"/><path class="ygrid crisp" transform="translate(0,80.53999999999999)" d="M10,0h280" style="stroke: rgb(235, 240, 248); stroke-opacity: 1; stroke-width: 1px;"/><path class="ygrid crisp" transform="translate(0,58.31)" d="M10,0h280" style="stroke: rgb(235, 240, 248); stroke-opacity: 1; stroke-width: 1px;"/></g></g><g class="zerolinelayer"><path class="yzl zl crisp" transform="translate(0,125)" d="M10,0h280" style="stroke: rgb(235, 240, 248); stroke-opacity: 1; stroke-width: 2px;"/></g><path class="xlines-below"/><path class="ylines-below"/><g class="overlines-below"/><g class="xaxislayer-below"/><g class="yaxislayer-below"/><g class="overaxes-below"/><g class="plot" transform="translate(10,50)" clip-path="url(#clip29cff7xyplot)"><g class="scatterlayer mlayer"><g class="trace scatter traceca5c34" style="stroke-miterlimit: 2; opacity: 1;"><g class="fills"/><g class="errorbars"/><g class="lines"><path class="js-line" d="M263.2,21.65L280,21.65" style="vector-effect: none; fill: none; stroke: rgb(187, 187, 187); stroke-opacity: 1; stroke-width: 5px; opacity: 1;"/></g><g class="points"/><g class="text"/></g><g class="trace scatter traced9f819" style="stroke-miterlimit: 2; opacity: 1;"><g class="fills"/><g class="errorbars"/><g class="lines"><path class="js-line" d="M0,51.77L3.36,48.88L4.48,48.88L8.96,49.1L10.08,48.32L25.76,47.43L26.88,46.77L48.16,45.99L49.28,41.32L62.72,41.32L64.96,44.54L68.32,43.88L69.44,43.88L77.28,43.65L78.4,46.1L80.64,47.32L81.76,46.88L82.88,46.43L84,47.43L113.12,46.77L114.24,44.54L116.48,45.43L117.6,45.43L118.72,45.21L119.84,41.54L122.08,39.32L123.2,39.32L124.32,38.76L125.44,35.1L127.68,32.98L128.8,32.98L132.16,32.32L133.28,31.32L136.64,28.87L137.76,28.87L146.72,29.2L147.84,30.32L156.8,30.32L157.92,28.76L159.04,28.76L160.16,26.09L164.64,26.09L165.76,23.09L172.48,23.09L173.6,21.31L180.32,18.42L181.44,18.42L183.68,14.64L184.8,14.64L185.92,12.75L187.04,8.2L197.12,8.2L198.24,9.86L200.48,10.64L201.6,10.64L203.84,12.86L204.96,13.53L210.56,12.31L211.68,12.31L218.4,12.42L219.52,8.75L221.76,5.08L222.88,4.97L226.24,5.86L227.36,3.75L230.72,4.75L231.84,5.64L234.08,6.75L235.2,10.53L236.32,11.86L237.44,10.53L239.68,10.64L240.8,8.86L243.04,8.97L244.16,9.09L246.4,8.64L247.52,7.75L250.88,4.64L252,4.64L255.36,6.64L256.48,5.75L258.72,6.42L259.84,8.64L262.08,14.87L263.2,43.65L274.4,43.88L275.52,42.21L280,39.1" style="vector-effect: none; fill: none; stroke: rgb(138, 44, 81); stroke-opacity: 1; stroke-width: 5px; opacity: 1;"/></g><g class="points"/><g class="text"/></g><g class="trace scatter tracea25249" style="stroke-miterlimit: 2; opacity: 1;"><g class="fills"/><g class="errorbars"/><g class="lines"><path class="js-line" d="M0,26.54L4.48,28.09L5.6,28.09L8.96,27.87L10.08,27.2L64.96,28.2L66.08,31.32L77.28,30.32L78.4,27.76L80.64,23.98L81.76,24.98L82.88,25.98L84,22.65L94.08,22.65L95.2,24.31L96.32,24.31L97.44,22.65L98.56,24.31L99.68,22.31L101.92,21.87L103.04,23.98L105.28,21.87L106.4,21.87L107.52,21.87L108.64,23.98L109.76,23.98L110.88,21.87L113.12,23.98L114.24,21.98L116.48,24.54L117.6,24.54L124.32,25.76L125.44,27.65L128.8,28.43L129.92,28.43L144.48,29.2L145.6,29.87L172.48,30.87L173.6,32.65L181.44,34.98L182.56,32.87L185.92,33.98L187.04,35.43L197.12,35.43L198.24,33.87L200.48,32.98L201.6,32.98L202.72,32.54L203.84,29.98L206.08,29.43L207.2,29.76L218.4,29.2L219.52,32.09L221.76,35.43L222.88,35.54L225.12,33.76L226.24,32.98L228.48,35.1L229.6,34.54L234.08,32.09L235.2,28.32L236.32,26.98L237.44,28.32L239.68,28.2L240.8,29.98L243.04,29.87L244.16,29.76L246.4,30.2L247.52,31.09L250.88,34.21L252,34.21L255.36,32.21L256.48,33.09L258.72,32.43L259.84,30.2L262.08,23.98L263.2,48.66L274.4,48.43L275.52,50.21L280,53.1" style="vector-effect: none; fill: none; stroke: rgb(0, 174, 239); stroke-opacity: 1; stroke-width: 5px; opacity: 1;"/></g><g class="points"/><g class="text"/></g><g class="trace scatter trace8f0abe" style="stroke-miterlimit: 2; opacity: 1;"><g class="fills"/><g class="errorbars"/><g class="lines"><path class="js-line" d="M0,66.22L6.72,66.44L7.84,64.88L10.08,68.33L11.2,68.33L80.64,68.89L81.76,69.33L84,69L85.12,69L119.84,70.11L120.96,70.33L133.28,71.55L134.4,71.78L138.88,72.11L140,72.11L181.44,73.33L182.56,73.67L185.92,73.89" style="vector-effect: none; fill: none; stroke: rgb(202, 166, 105); stroke-opacity: 1; stroke-width: 5px; opacity: 1;"/></g><g class="points"/><g class="text"/></g><g class="trace scatter tracea8fc3c" style="stroke-miterlimit: 2; opacity: 1;"><g class="fills"/><g class="errorbars"/><g class="lines"><path class="js-line" d="M0,63.77L7.84,64.88L8.96,64.22L12.32,63.55L13.44,63.55L48.16,63.77L49.28,65.11L64.96,64.22L66.08,56.99L78.4,57.66L79.52,58.33L99.68,58.66L100.8,59.1L113.12,58.33L114.24,61.55L116.48,59.33L117.6,59.33L118.72,59.44L119.84,61.11L122.08,62.44L123.2,62.44L124.32,62.11L125.44,63.22L132.16,63.33L133.28,63.22L141.12,63.88L142.24,63.88L144.48,63.44L145.6,62.44L146.72,62.44L147.84,60.88L156.8,60.88L157.92,62.33L163.52,64.33L164.64,64.33L166.88,65.22L168,65.22L181.44,65.55L182.56,69L202.72,70.11L203.84,71.11L218.4,72.22L219.52,73L225.12,73.55" style="vector-effect: none; fill: none; stroke: rgb(255, 1, 170); stroke-opacity: 1; stroke-width: 5px; opacity: 1;"/></g><g class="points"/><g class="text"/></g></g></g><g class="overplot"/><path class="xlines-above crisp" d="M0,0" style="fill: none;"/><path class="ylines-above crisp" d="M0,0" style="fill: none;"/><g class="overlines-above"/><g class="xaxislayer-above"/><g class="yaxislayer-above"/><g class="overaxes-above"/></g></g><g class="polarlayer"/><g class="smithlayer"/><g class="ternarylayer"/><g class="geolayer"/><g class="funnelarealayer"/><g class="pielayer"/><g class="iciclelayer"/><g class="treemaplayer"/><g class="sunburstlayer"/><g class="glimages"/><defs id="topdefs-29cff7"><g class="clips"/></defs><g class="layer-above"><g class="imagelayer"/><g class="shapelayer"/></g><g class="infolayer"><g class="g-gtitle"><text class="gtitle" x="15" y="25" text-anchor="start" dy="0em" style="font-family: Ubuntu, verdana, arial, sans-serif; font-size: 16px; fill: rgb(233, 84, 32); opacity: 1; font-weight: normal; white-space: pre;">Prezident/ka 2024</text></g><g class="g-xtitle"/><g class="g-ytitle"/></g></svg>