<svg class="main-svg" xmlns="http://www.w3.org/2000/svg" xmlns:xlink="http://www.w3.org/1999/xlink" width="300" height="135" style="" viewBox="0 0 300 135"><rect x="0" y="0" width="300" height="135" style="fill: rgb(255, 255, 255); fill-opacity: 1;"/><defs id="defs-8de889"><g class="clips"><clipPath id="clip8de889xyplot" class="plotclip"><rect width="280" height="75"/></clipPath><clipPath class="axesclip" id="clip8de889x"><rect x="10" y="0" width="280" height="135"/></clipPath><clipPath class="axesclip" id="clip8de889y"><rect x="0" y="50" width="300" height="75"/></clipPath><clipPath class="axesclip" id="clip8de889xy"><rect x="10" y="50" width="280" height="75"/></clipPath></g><g class="gradients"/><g class="patterns"/></defs><g class="bglayer"/><g class="layer-below"><g class="imagelayer"/><g class="shapelayer"/></g><g class="cartesianlayer"><g class="subplot xy"><g class="layer-subplot"><g class="shapelayer"/><g class="imagelayer"/></g><g class="minor-gridlayer"><g class="x"/><g class="y"/></g><g class="gridlayer"><g class="x"><path class="xgrid crisp" transform="translate(20.53,0)" d="M0,50v75" style="stroke: rgb(235, 240, 248); stroke-opacity: 1; stroke-width: 1px;"/><path class="xgrid crisp" transform="translate(85.79,0)" d="M0,50v75" style="stroke: rgb(235, 240, 248); stroke-opacity: 1; stroke-width: 1px;"/><path class="xgrid crisp" transform="translate(150,0)" d="M0,50v75" style="stroke: rgb(235, 240, 248); stroke-opacity: 1; stroke-width: 1px;"/><path class="xgrid crisp" transform="translate(214.21,0)" d="M0,50v75" style="stroke: rgb(235, 240, 248); stroke-opacity: 1; stroke-width: 1px;"/><path class="xgrid crisp" transform="translate(277.37,0)" d="M0,50v75" style="stroke: rgb(235, 240, 248); stroke-opacity: 1; stroke-width: 1px;"/></g><g class="y"><path class="ygrid crisp" transform="translate(0,102.77000000000001)" d="M10,0h280" style="stroke: rgb(235, 240, 248); stroke-opacity: 1; stroke-width: 1px;"/><path class="ygrid crisp" transform="translate(0,80.53999999999999)" d="M10,0h280" style="stroke: rgb(235, 240, 248); stroke-opacity: 1; stroke-width: 1px;"/><path class="ygrid crisp" transform="translate(0,58.31)" d="M10,0h280" style="stroke: rgb(235, 240, 248); stroke-opacity: 1; stroke-width: 1px;"/></g></g><g class="zerolinelayer"><path class="yzl zl crisp" transform="translate(0,125)" d="M10,0h280" style="stroke: rgb(235, 240, 248); stroke-opacity: 1; stroke-width: 2px;"/></g><path class="xlines-below"/><path class="ylines-below"/><g class="overlines-below"/><g class="xaxislayer-below"/><g class="yaxislayer-below"/><g class="overaxes-below"/><g class="plot" transform="translate(10,50)" clip-path="url(#clip8de889xyplot)"><g class="scatterlayer mlayer"><g class="trace scatter trace534b50" style="stroke-miterlimit: 2; opacity: 1;"><g class="fills"/><g class="errorbars"/><g class="lines"><path class="js-line" d="M0,51.77L3.16,48.88L4.21,48.88L8.42,49.1L9.47,48.32L24.21,47.43L25.26,46.77L45.26,45.99L46.32,41.32L58.95,41.32L61.05,44.54L64.21,43.88L65.26,43.88L72.63,43.65L73.68,46.1L75.79,47.32L76.84,46.88L77.89,46.43L78.95,47.43L106.32,46.77L107.37,44.54L109.47,45.43L110.53,45.43L111.58,45.21L112.63,41.54L114.74,39.32L115.79,39.32L116.84,38.76L117.89,35.1L120,32.98L121.05,32.98L124.21,32.32L125.26,31.32L128.42,28.87L129.47,28.87L137.89,29.2L138.95,30.32L147.37,30.32L148.42,28.76L149.47,28.76L150.53,26.09L154.74,26.09L155.79,23.09L162.11,23.09L163.16,21.31L169.47,18.42L170.53,18.42L172.63,14.64L173.68,14.64L174.74,12.75L175.79,8.2L185.26,8.2L186.32,9.86L188.42,10.64L189.47,10.64L191.58,12.86L192.63,13.53L197.89,12.31L198.95,12.31L205.26,12.42L206.32,8.75L208.42,5.08L209.47,4.97L212.63,5.86L213.68,3.75L216.84,4.75L217.89,5.64L220,6.75L221.05,10.53L222.11,11.86L223.16,10.53L225.26,10.64L226.32,8.86L228.42,8.97L229.47,9.09L231.58,8.64L232.63,7.75L235.79,4.64L236.84,4.64L240,6.64L241.05,5.75L243.16,6.42L244.21,8.64L246.32,14.87L247.37,14.64L250.53,15.75L251.58,16.09L253.68,14.64L254.74,15.87L256.84,16.64L257.89,15.09L261.05,8.31L262.11,8.2L264.21,5.86L265.26,5.75L267.37,5.97L268.42,7.75L273.68,6.97L274.74,6.31L277.89,5.86L278.95,4.75L280,4.42" style="vector-effect: none; fill: none; stroke: rgb(138, 44, 81); stroke-opacity: 1; stroke-width: 5px; opacity: 1;"/></g><g class="points"/><g class="text"/></g><g class="trace scatter tracea16a2b" style="stroke-miterlimit: 2; opacity: 1;"><g class="fills"/><g class="errorbars"/><g class="lines"><path class="js-line" d="M0,26.54L4.21,28.09L5.26,28.09L8.42,27.87L9.47,27.2L61.05,28.2L62.11,31.32L72.63,30.32L73.68,27.76L75.79,23.98L76.84,24.98L77.89,25.98L78.95,22.65L88.42,22.65L89.47,24.31L90.53,24.31L91.58,22.65L92.63,24.31L93.68,22.31L95.79,21.87L96.84,23.98L98.95,21.87L100,21.87L101.05,21.87L102.11,23.98L103.16,23.98L104.21,21.87L106.32,23.98L107.37,21.98L109.47,24.54L110.53,24.54L116.84,25.76L117.89,27.65L121.05,28.43L122.11,28.43L135.79,29.2L136.84,29.87L162.11,30.87L163.16,32.65L170.53,34.98L171.58,32.87L174.74,33.98L175.79,35.43L185.26,35.43L186.32,33.87L188.42,32.98L189.47,32.98L190.53,32.54L191.58,29.98L193.68,29.43L194.74,29.76L205.26,29.2L206.32,32.09L208.42,35.43L209.47,35.54L211.58,33.76L212.63,32.98L214.74,35.1L215.79,34.54L220,32.09L221.05,28.32L222.11,26.98L223.16,28.32L225.26,28.2L226.32,29.98L228.42,29.87L229.47,29.76L231.58,30.2L232.63,31.09L235.79,34.21L236.84,34.21L240,32.21L241.05,33.09L243.16,32.43L244.21,30.2L246.32,23.98L247.37,24.2L250.53,23.09L251.58,22.76L253.68,24.2L254.74,22.98L256.84,22.2L257.89,23.76L261.05,30.54L262.11,30.65L264.21,32.98L265.26,33.09L267.37,32.87L268.42,31.09L273.68,31.87L274.74,32.54L277.89,32.98L278.95,34.1L280,34.43" style="vector-effect: none; fill: none; stroke: rgb(0, 174, 239); stroke-opacity: 1; stroke-width: 5px; opacity: 1;"/></g><g class="points"/><g class="text"/></g><g class="trace scatter trace582141" style="stroke-miterlimit: 2; opacity: 1;"><g class="fills"/><g class="errorbars"/><g class="lines"><path class="js-line" d="M0,63.33L6.32,63.77L7.37,63.33L27.37,64.66L28.42,64.66L45.26,64.44L46.32,66.11L61.05,65.44L62.11,66.89L73.68,67.22L74.74,68.44L76.84,67.77L77.89,67.11L80,69L81.05,69L107.37,68.11L108.42,67.33L112.63,68.55L113.68,69.11L124.21,70.33L125.26,70.78L132.63,71.55L133.68,71.55L170.53,71.55L171.58,73.67L174.74,73.89" style="vector-effect: none; fill: none; stroke: rgb(238, 58, 67); stroke-opacity: 1; stroke-width: 5px; opacity: 1;"/></g><g class="points"/><g class="text"/></g><g class="trace scatter trace53cda8" style="stroke-miterlimit: 2; opacity: 1;"><g class="fills"/><g class="errorbars"/><g class="lines"><path class="js-line" d="M0,63.77L7.37,64.88L8.42,64.22L11.58,63.55L12.63,63.55L45.26,63.77L46.32,65.11L61.05,64.22L62.11,56.99L73.68,57.66L74.74,58.33L93.68,58.66L94.74,59.1L106.32,58.33L107.37,61.55L109.47,59.33L110.53,59.33L111.58,59.44L112.63,61.11L114.74,62.44L115.79,62.44L116.84,62.11L117.89,63.22L124.21,63.33L125.26,63.22L132.63,63.88L133.68,63.88L135.79,63.44L136.84,62.44L137.89,62.44L138.95,60.88L147.37,60.88L148.42,62.33L153.68,64.33L154.74,64.33L156.84,65.22L157.89,65.22L170.53,65.55L171.58,69L190.53,70.11L191.58,71.11L205.26,72.22L206.32,73L211.58,73.55" style="vector-effect: none; fill: none; stroke: rgb(255, 1, 170); stroke-opacity: 1; stroke-width: 5px; opacity: 1;"/></g><g class="points"/><g class="text"/></g><g class="trace scatter tracef035cc" style="stroke-miterlimit: 2; opacity: 1;"><g class="fills"/><g class="errorbars"/><g class="lines"><path class="js-line" d="M0,67.22L11.58,67.33L12.63,67.33L45.26,68.55L46.32,69.44L58.95,69.44L61.05,68.11L62.11,71L64.21,71L77.89,71.89L78.95,72.33L124.21,73.11L125.26,73.55L154.74,73.55" style="vector-effect: none; fill: none; stroke: rgb(255, 192, 203); stroke-opacity: 1; stroke-width: 5px; opacity: 1;"/></g><g class="points"/><g class="text"/></g></g></g><g class="overplot"/><path class="xlines-above crisp" d="M0,0" style="fill: none;"/><path class="ylines-above crisp" d="M0,0" style="fill: none;"/><g class="overlines-above"/><g class="xaxislayer-above"/><g class="yaxislayer-above"/><g class="overaxes-above"/></g></g><g class="polarlayer"/><g class="smithlayer"/><g class="ternarylayer"/><g class="geolayer"/><g class="funnelarealayer"/><g class="pielayer"/><g class="iciclelayer"/><g class="treemaplayer"/><g class="sunburstlayer"/><g class="glimages"/><defs id="topdefs-8de889"><g class="clips"/></defs><g class="layer-above"><g class="imagelayer"/><g class="shapelayer"/></g><g class="infolayer"><g class="g-gtitle"><text class="gtitle" x="15" y="25" text-anchor="start" dy="0em" style="font-family: Ubuntu, verdana, arial, sans-serif; font-size: 16px; fill: rgb(233, 84, 32); opacity: 1; font-weight: normal; white-space: pre;">Prezident/ka 2024</text></g><g class="g-xtitle"/><g class="g-ytitle"/></g></svg>