<svg class="main-svg" xmlns="http://www.w3.org/2000/svg" xmlns:xlink="http://www.w3.org/1999/xlink" width="300" height="135" style="" viewBox="0 0 300 135"><rect x="0" y="0" width="300" height="135" style="fill: rgb(255, 255, 255); fill-opacity: 1;"/><defs id="defs-9ebe68"><g class="clips"><clipPath id="clip9ebe68xyplot" class="plotclip"><rect width="280" height="75"/></clipPath><clipPath class="axesclip" id="clip9ebe68x"><rect x="10" y="0" width="280" height="135"/></clipPath><clipPath class="axesclip" id="clip9ebe68y"><rect x="0" y="50" width="300" height="75"/></clipPath><clipPath class="axesclip" id="clip9ebe68xy"><rect x="10" y="50" width="280" height="75"/></clipPath></g><g class="gradients"/><g class="patterns"/></defs><g class="bglayer"/><g class="layer-below"><g class="imagelayer"/><g class="shapelayer"/></g><g class="cartesianlayer"><g class="subplot xy"><g class="layer-subplot"><g class="shapelayer"/><g class="imagelayer"/></g><g class="minor-gridlayer"><g class="x"/><g class="y"/></g><g class="gridlayer"><g class="x"><path class="xgrid crisp" transform="translate(27.95,0)" d="M0,50v75" style="stroke: rgb(235, 240, 248); stroke-opacity: 1; stroke-width: 1px;"/><path class="xgrid crisp" transform="translate(139.23,0)" d="M0,50v75" style="stroke: rgb(235, 240, 248); stroke-opacity: 1; stroke-width: 1px;"/><path class="xgrid crisp" transform="translate(248.72,0)" d="M0,50v75" style="stroke: rgb(235, 240, 248); stroke-opacity: 1; stroke-width: 1px;"/></g><g class="y"><path class="ygrid crisp" transform="translate(0,95.86)" d="M10,0h280" style="stroke: rgb(235, 240, 248); stroke-opacity: 1; stroke-width: 1px;"/><path class="ygrid crisp" transform="translate(0,66.72)" d="M10,0h280" style="stroke: rgb(235, 240, 248); stroke-opacity: 1; stroke-width: 1px;"/></g></g><g class="zerolinelayer"><path class="yzl zl crisp" transform="translate(0,125)" d="M10,0h280" style="stroke: rgb(235, 240, 248); stroke-opacity: 1; stroke-width: 2px;"/></g><path class="xlines-below"/><path class="ylines-below"/><g class="overlines-below"/><g class="xaxislayer-below"/><g class="yaxislayer-below"/><g class="overaxes-below"/><g class="plot" transform="translate(10,50)" clip-path="url(#clip9ebe68xyplot)"><g class="scatterlayer mlayer"><g class="trace scatter tracec78a1e" style="stroke-miterlimit: 2; opacity: 1;"><g class="fills"/><g class="errorbars"/><g class="lines"><path class="js-line" d="M0,44.55L5.38,40.76L7.18,40.76L14.36,41.05L16.15,40.03L41.28,38.87L43.08,37.99L77.18,36.97L78.97,30.85L100.51,30.85L104.1,35.08L105.9,34.2L109.49,34.2L123.85,33.91L125.64,37.12L129.23,38.72L131.03,38.14L132.82,37.55L134.62,38.87L181.28,37.99L183.08,35.08L186.67,36.24L188.46,36.24L190.26,35.95L192.05,31.14L193.85,28.23L195.64,28.23L199.23,27.5L201.03,22.69L204.62,19.92L206.41,19.92L211.79,19.05L213.59,17.74L218.97,14.53L220.77,14.53L235.13,14.97L236.92,16.43L251.28,16.43L253.08,14.39L254.87,14.39L256.67,10.89L263.85,10.89L265.64,6.96L276.41,6.96L278.21,4.62L280,3.75" style="vector-effect: none; fill: none; stroke: rgb(138, 44, 81); stroke-opacity: 1; stroke-width: 5px; opacity: 1;"/></g><g class="points"/><g class="text"/></g><g class="trace scatter tracef0c7dd" style="stroke-miterlimit: 2; opacity: 1;"><g class="fills"/><g class="errorbars"/><g class="lines"><path class="js-line" d="M0,11.47L5.38,13.51L7.18,13.51L12.56,14.53L14.36,13.22L17.95,12.35L19.74,12.35L41.28,12.93L43.08,13.66L104.1,13.66L105.9,17.74L122.05,17.01L123.85,16.43L127.44,8.12L129.23,8.12L132.82,10.74L134.62,6.37L150.77,6.37L152.56,8.56L154.36,8.56L156.15,6.37L157.95,8.56L159.74,5.94L163.33,5.35L165.13,8.12L166.92,5.35L168.72,5.35L172.31,5.35L174.1,8.12L175.9,8.12L177.69,5.35L179.49,8.12L181.28,8.12L183.08,5.5L184.87,8.85L197.44,9.72L199.23,10.45L202.82,13.8L204.62,13.95L231.54,14.97L233.33,15.84L254.87,15.99L256.67,17.45L276.41,17.15L278.21,19.49L280,20.07" style="vector-effect: none; fill: none; stroke: rgb(0, 174, 239); stroke-opacity: 1; stroke-width: 5px; opacity: 1;"/></g><g class="points"/><g class="text"/></g><g class="trace scatter tracef06ed8" style="stroke-miterlimit: 2; opacity: 1;"><g class="fills"/><g class="errorbars"/><g class="lines"><path class="js-line" d="M0,60.28L8.97,60.72L10.77,60.72L12.56,61.74L14.36,60.87L17.95,59.99L19.74,59.99L77.18,60.28L78.97,62.03L104.1,60.87L105.9,51.4L125.64,52.27L127.44,53.14L157.95,52.71L159.74,53.58L163.33,54.16L165.13,53.14L168.72,54.16L170.51,54.16L181.28,53.14L183.08,57.37L184.87,54.46L186.67,54.46L190.26,54.6L192.05,56.79L195.64,58.54L197.44,58.54L199.23,58.1L201.03,59.56L210,59.85L211.79,59.7L217.18,60.43L218.97,60.43L231.54,59.85L233.33,58.54L235.13,58.54L236.92,56.5L251.28,56.5L253.08,58.39L254.87,58.97L256.67,61.01L278.21,62.18L280,62.32" style="vector-effect: none; fill: none; stroke: rgb(255, 1, 170); stroke-opacity: 1; stroke-width: 5px; opacity: 1;"/></g><g class="points"/><g class="text"/></g><g class="trace scatter trace60f37d" style="stroke-miterlimit: 2; opacity: 1;"><g class="fills"/><g class="errorbars"/><g class="lines"><path class="js-line" d="M0,59.7L10.77,60.28L12.56,59.7L41.28,61.45L43.08,61.45L77.18,61.16L78.97,63.34L104.1,62.47L105.9,64.36L125.64,64.8L127.44,66.4L131.03,65.53L132.82,64.65L134.62,67.13L136.41,67.13L163.33,66.99L165.13,65.82L168.72,66.99L170.51,66.99L183.08,65.97L184.87,64.95L190.26,65.09L192.05,66.55L195.64,67.28L197.44,67.28L222.56,70.48L224.36,70.48L280,70.48" style="vector-effect: none; fill: none; stroke: rgb(238, 58, 67); stroke-opacity: 1; stroke-width: 5px; opacity: 1;"/></g><g class="points"/><g class="text"/></g><g class="trace scatter trace583365" style="stroke-miterlimit: 2; opacity: 1;"><g class="fills"/><g class="errorbars"/><g class="lines"><path class="js-line" d="M0,63.49L10.77,63.78L12.56,61.74L16.15,66.26L17.95,66.26L122.05,66.99L123.85,67.13L181.28,68.15L183.08,68.59L202.82,69.61L204.62,69.75L215.38,70.77L217.18,71.21L263.85,71.21L265.64,72.67L280,72.67" style="vector-effect: none; fill: none; stroke: rgb(202, 166, 105); stroke-opacity: 1; stroke-width: 5px; opacity: 1;"/></g><g class="points"/><g class="text"/></g></g></g><g class="overplot"/><path class="xlines-above crisp" d="M0,0" style="fill: none;"/><path class="ylines-above crisp" d="M0,0" style="fill: none;"/><g class="overlines-above"/><g class="xaxislayer-above"/><g class="yaxislayer-above"/><g class="overaxes-above"/></g></g><g class="polarlayer"/><g class="smithlayer"/><g class="ternarylayer"/><g class="geolayer"/><g class="funnelarealayer"/><g class="pielayer"/><g class="iciclelayer"/><g class="treemaplayer"/><g class="sunburstlayer"/><g class="glimages"/><defs id="topdefs-9ebe68"><g class="clips"/></defs><g class="layer-above"><g class="imagelayer"/><g class="shapelayer"/></g><g class="infolayer"><g class="g-gtitle"><text class="gtitle" x="15" y="25" text-anchor="start" dy="0em" style="font-family: Ubuntu, verdana, arial, sans-serif; font-size: 16px; fill: rgb(233, 84, 32); opacity: 1; font-weight: normal; white-space: pre;">Prezident/ka 2024</text></g><g class="g-xtitle"/><g class="g-ytitle"/></g></svg>