<svg class="main-svg" xmlns="http://www.w3.org/2000/svg" xmlns:xlink="http://www.w3.org/1999/xlink" width="300" height="135" style="" viewBox="0 0 300 135"><rect x="0" y="0" width="300" height="135" style="fill: rgb(255, 255, 255); fill-opacity: 1;"/><defs id="defs-f28591"><g class="clips"><clipPath id="clipf28591xyplot" class="plotclip"><rect width="280" height="75"/></clipPath><clipPath class="axesclip" id="clipf28591x"><rect x="10" y="0" width="280" height="135"/></clipPath><clipPath class="axesclip" id="clipf28591y"><rect x="0" y="50" width="300" height="75"/></clipPath><clipPath class="axesclip" id="clipf28591xy"><rect x="10" y="50" width="280" height="75"/></clipPath></g><g class="gradients"/><g class="patterns"/></defs><g class="bglayer"/><g class="layer-below"><g class="imagelayer"/><g class="shapelayer"/></g><g class="cartesianlayer"><g class="subplot xy"><g class="layer-subplot"><g class="shapelayer"/><g class="imagelayer"/></g><g class="minor-gridlayer"><g class="x"/><g class="y"/></g><g class="gridlayer"><g class="x"><path class="xgrid crisp" transform="translate(28.06,0)" d="M0,50v75" style="stroke: rgb(235, 240, 248); stroke-opacity: 1; stroke-width: 1px;"/><path class="xgrid crisp" transform="translate(140.06,0)" d="M0,50v75" style="stroke: rgb(235, 240, 248); stroke-opacity: 1; stroke-width: 1px;"/><path class="xgrid crisp" transform="translate(250.26,0)" d="M0,50v75" style="stroke: rgb(235, 240, 248); stroke-opacity: 1; stroke-width: 1px;"/></g><g class="y"><path class="ygrid crisp" transform="translate(0,95.31)" d="M10,0h280" style="stroke: rgb(235, 240, 248); stroke-opacity: 1; stroke-width: 1px;"/><path class="ygrid crisp" transform="translate(0,65.63)" d="M10,0h280" style="stroke: rgb(235, 240, 248); stroke-opacity: 1; stroke-width: 1px;"/></g></g><g class="zerolinelayer"><path class="yzl zl crisp" transform="translate(0,125)" d="M10,0h280" style="stroke: rgb(235, 240, 248); stroke-opacity: 1; stroke-width: 2px;"/></g><path class="xlines-below"/><path class="ylines-below"/><g class="overlines-below"/><g class="xaxislayer-below"/><g class="yaxislayer-below"/><g class="overaxes-below"/><g class="plot" transform="translate(10,50)" clip-path="url(#clipf28591xyplot)"><g class="scatterlayer mlayer"><g class="trace scatter trace30e7eb" style="stroke-miterlimit: 2; opacity: 1;"><g class="fills"/><g class="errorbars"/><g class="lines"><path class="js-line" d="M0,43.98L5.42,40.12L7.23,40.12L14.45,40.41L16.26,39.38L41.55,38.19L43.35,37.3L77.68,36.26L79.48,30.02L101.16,30.02L104.77,34.33L106.58,33.44L110.19,33.44L124.65,33.14L126.45,36.41L130.06,38.04L131.87,37.45L133.68,36.85L135.48,38.19L182.45,37.3L184.26,34.33L187.87,35.52L189.68,35.52L191.48,35.22L193.29,30.32L195.1,27.35L196.9,27.35L200.52,26.61L202.32,21.71L205.94,18.89L207.74,18.89L213.16,18L214.97,16.66L220.39,13.4L222.19,13.4L236.65,13.84L238.45,15.33L252.9,15.33L254.71,13.25L256.52,13.25L258.32,9.69L265.55,9.69L267.35,5.68L278.19,5.68L280,3.75" style="vector-effect: none; fill: none; stroke: rgb(138, 44, 81); stroke-opacity: 1; stroke-width: 5px; opacity: 1;"/></g><g class="points"/><g class="text"/></g><g class="trace scatter tracee9d0dd" style="stroke-miterlimit: 2; opacity: 1;"><g class="fills"/><g class="errorbars"/><g class="lines"><path class="js-line" d="M0,10.28L5.42,12.36L7.23,12.36L12.65,13.4L14.45,12.06L18.06,11.17L19.87,11.17L41.55,11.77L43.35,12.51L104.77,12.51L106.58,16.66L122.84,15.92L124.65,15.33L128.26,6.87L130.06,6.87L133.68,9.54L135.48,5.09L151.74,5.09L153.55,7.31L155.35,7.31L157.16,5.09L158.97,7.31L160.77,4.64L164.39,4.05L166.19,6.87L168,4.05L169.81,4.05L173.42,4.05L175.23,6.87L177.03,6.87L178.84,4.05L180.65,6.87L182.45,6.87L184.26,4.2L186.06,7.61L198.71,8.5L200.52,9.24L204.13,12.66L205.94,12.8L233.03,13.84L234.84,14.73L256.52,14.88L258.32,16.37L278.19,16.07L280,18.15" style="vector-effect: none; fill: none; stroke: rgb(0, 174, 239); stroke-opacity: 1; stroke-width: 5px; opacity: 1;"/></g><g class="points"/><g class="text"/></g><g class="trace scatter trace7e7dae" style="stroke-miterlimit: 2; opacity: 1;"><g class="fills"/><g class="errorbars"/><g class="lines"><path class="js-line" d="M0,60.01L9.03,60.45L10.84,60.45L12.65,61.49L14.45,60.6L18.06,59.71L19.87,59.71L77.68,60.01L79.48,61.79L104.77,60.6L106.58,50.95L126.45,51.84L128.26,52.73L158.97,52.29L160.77,53.18L164.39,53.77L166.19,52.73L169.81,53.77L171.61,53.77L182.45,52.73L184.26,57.04L186.06,54.07L187.87,54.07L191.48,54.22L193.29,56.45L195.1,58.23L196.9,58.23L200.52,57.78L202.32,59.27L211.35,59.56L213.16,59.41L218.58,60.16L220.39,60.16L233.03,59.56L234.84,58.23L236.65,58.23L238.45,56.15L252.9,56.15L254.71,58.08L256.52,58.67L258.32,60.75L280,61.79" style="vector-effect: none; fill: none; stroke: rgb(255, 1, 170); stroke-opacity: 1; stroke-width: 5px; opacity: 1;"/></g><g class="points"/><g class="text"/></g><g class="trace scatter trace4c3749" style="stroke-miterlimit: 2; opacity: 1;"><g class="fills"/><g class="errorbars"/><g class="lines"><path class="js-line" d="M0,59.41L10.84,60.01L12.65,59.41L41.55,61.2L43.35,61.2L77.68,60.9L79.48,63.13L104.77,62.23L106.58,64.16L126.45,64.61L128.26,66.24L131.87,65.35L133.68,64.46L135.48,66.98L137.29,66.98L164.39,66.84L166.19,65.65L169.81,66.84L171.61,66.84L184.26,65.8L186.06,64.76L191.48,64.91L193.29,66.39L196.9,67.13L198.71,67.13L224,70.4L225.81,70.4L280,70.25" style="vector-effect: none; fill: none; stroke: rgb(238, 58, 67); stroke-opacity: 1; stroke-width: 5px; opacity: 1;"/></g><g class="points"/><g class="text"/></g><g class="trace scatter trace3808ce" style="stroke-miterlimit: 2; opacity: 1;"><g class="fills"/><g class="errorbars"/><g class="lines"><path class="js-line" d="M0,63.27L10.84,63.57L12.65,61.49L16.26,66.09L18.06,66.09L122.84,66.84L124.65,66.98L182.45,68.02L184.26,68.47L204.13,69.51L205.94,69.66L216.77,70.7L218.58,71.14L265.55,71.14L267.35,72.63L280,72.63" style="vector-effect: none; fill: none; stroke: rgb(202, 166, 105); stroke-opacity: 1; stroke-width: 5px; opacity: 1;"/></g><g class="points"/><g class="text"/></g></g></g><g class="overplot"/><path class="xlines-above crisp" d="M0,0" style="fill: none;"/><path class="ylines-above crisp" d="M0,0" style="fill: none;"/><g class="overlines-above"/><g class="xaxislayer-above"/><g class="yaxislayer-above"/><g class="overaxes-above"/></g></g><g class="polarlayer"/><g class="smithlayer"/><g class="ternarylayer"/><g class="geolayer"/><g class="funnelarealayer"/><g class="pielayer"/><g class="iciclelayer"/><g class="treemaplayer"/><g class="sunburstlayer"/><g class="glimages"/><defs id="topdefs-f28591"><g class="clips"/></defs><g class="layer-above"><g class="imagelayer"/><g class="shapelayer"/></g><g class="infolayer"><g class="g-gtitle"><text class="gtitle" x="15" y="25" text-anchor="start" dy="0em" style="font-family: Ubuntu, verdana, arial, sans-serif; font-size: 16px; fill: rgb(233, 84, 32); opacity: 1; font-weight: normal; white-space: pre;">Prezident/ka 2024</text></g><g class="g-xtitle"/><g class="g-ytitle"/></g></svg>