<svg class="main-svg" xmlns="http://www.w3.org/2000/svg" xmlns:xlink="http://www.w3.org/1999/xlink" width="1200" height="600" style="" viewBox="0 0 1200 600"><rect x="0" y="0" width="1200" height="600" style="fill: rgb(255, 255, 255); fill-opacity: 1;"/><defs id="defs-57ff38"><g class="clips"><clipPath id="clip57ff38xyplot" class="plotclip"><rect width="990" height="530"/></clipPath><clipPath class="axesclip" id="clip57ff38x"><rect x="50" y="0" width="990" height="600"/></clipPath><clipPath class="axesclip" id="clip57ff38y"><rect x="0" y="20" width="1200" height="530"/></clipPath><clipPath class="axesclip" id="clip57ff38xy"><rect x="50" y="20" width="990" height="530"/></clipPath></g><g class="gradients"/><g class="patterns"/></defs><g class="bglayer"/><g class="layer-below"><g class="imagelayer"/><g class="shapelayer"/></g><g class="cartesianlayer"><g class="subplot xy"><g class="layer-subplot"><g class="shapelayer"/><g class="imagelayer"/></g><g class="minor-gridlayer"><g class="x"/><g class="y"/></g><g class="gridlayer"><g class="x"><path class="xgrid crisp" transform="translate(83,0)" d="M0,20v530" style="stroke: rgb(235, 240, 248); stroke-opacity: 1; stroke-width: 1px;"/><path class="xgrid crisp" transform="translate(185.3,0)" d="M0,20v530" style="stroke: rgb(235, 240, 248); stroke-opacity: 1; stroke-width: 1px;"/><path class="xgrid crisp" transform="translate(287.6,0)" d="M0,20v530" style="stroke: rgb(235, 240, 248); stroke-opacity: 1; stroke-width: 1px;"/><path class="xgrid crisp" transform="translate(386.6,0)" d="M0,20v530" style="stroke: rgb(235, 240, 248); stroke-opacity: 1; stroke-width: 1px;"/><path class="xgrid crisp" transform="translate(488.9,0)" d="M0,20v530" style="stroke: rgb(235, 240, 248); stroke-opacity: 1; stroke-width: 1px;"/><path class="xgrid crisp" transform="translate(587.9,0)" d="M0,20v530" style="stroke: rgb(235, 240, 248); stroke-opacity: 1; stroke-width: 1px;"/><path class="xgrid crisp" transform="translate(690.2,0)" d="M0,20v530" style="stroke: rgb(235, 240, 248); stroke-opacity: 1; stroke-width: 1px;"/><path class="xgrid crisp" transform="translate(792.5,0)" d="M0,20v530" style="stroke: rgb(235, 240, 248); stroke-opacity: 1; stroke-width: 1px;"/><path class="xgrid crisp" transform="translate(888.2,0)" d="M0,20v530" style="stroke: rgb(235, 240, 248); stroke-opacity: 1; stroke-width: 1px;"/><path class="xgrid crisp" transform="translate(990.5,0)" d="M0,20v530" style="stroke: rgb(235, 240, 248); stroke-opacity: 1; stroke-width: 1px;"/></g><g class="y"><path class="ygrid crisp" transform="translate(0,471.45)" d="M50,0h990" style="stroke: rgb(235, 240, 248); stroke-opacity: 1; stroke-width: 1px;"/><path class="ygrid crisp" transform="translate(0,392.9)" d="M50,0h990" style="stroke: rgb(235, 240, 248); stroke-opacity: 1; stroke-width: 1px;"/><path class="ygrid crisp" transform="translate(0,314.35)" d="M50,0h990" style="stroke: rgb(235, 240, 248); stroke-opacity: 1; stroke-width: 1px;"/><path class="ygrid crisp" transform="translate(0,235.8)" d="M50,0h990" style="stroke: rgb(235, 240, 248); stroke-opacity: 1; stroke-width: 1px;"/><path class="ygrid crisp" transform="translate(0,157.25)" d="M50,0h990" style="stroke: rgb(235, 240, 248); stroke-opacity: 1; stroke-width: 1px;"/><path class="ygrid crisp" transform="translate(0,78.71000000000001)" d="M50,0h990" style="stroke: rgb(235, 240, 248); stroke-opacity: 1; stroke-width: 1px;"/></g></g><g class="zerolinelayer"><path class="yzl zl crisp" transform="translate(0,550)" d="M50,0h990" style="stroke: rgb(235, 240, 248); stroke-opacity: 1; stroke-width: 2px;"/></g><path class="xlines-below"/><path class="ylines-below"/><g class="overlines-below"/><g class="xaxislayer-below"/><g class="yaxislayer-below"/><g class="overaxes-below"/><g class="plot" transform="translate(50,20)" clip-path="url(#clip57ff38xyplot)"><g class="scatterlayer mlayer"><g class="trace scatter trace4a30d0" style="stroke-miterlimit: 2; opacity: 1;"><g class="fills"/><g class="errorbars"/><g class="lines"><path class="js-line" d="M0,365.83L6.6,345.41L9.9,345.41L19.8,345.41L23.1,350.91L29.7,341.48L33,341.48L46.2,341.48L49.5,339.13L59.4,339.13L62.7,336.77L66,335.2L69.3,335.2L75.9,335.2L79.2,330.49L122.1,330.49L125.4,324.99L141.9,324.99L145.2,292L184.8,292L191.4,314.78L194.7,310.06L201.3,310.06L224.4,309.28L227.7,308.49L231,325.77L234.3,334.41L237.6,334.41L240.9,331.27L244.2,328.13L247.5,335.2L277.2,335.2L280.5,332.06L283.8,332.06L287.1,335.2L290.4,332.06L293.7,334.41L297,332.06L300.3,332.06L303.6,330.49L306.9,332.06L316.8,332.06L320.1,330.49L323.4,330.49L326.7,332.06L330,330.49L333.3,330.49L336.6,314.78L339.9,321.06L346.5,321.06L349.8,319.49L353.1,293.57L356.4,277.86L363,277.86L366.3,273.93L369.6,248.01L372.9,235.44L376.2,233.08L379.5,233.08L386.1,233.08L389.4,228.37L396,215.02L399.3,204.02L425.7,204.81L429,206.38L432.3,206.38L435.6,214.23L462,214.23L465.3,203.24L468.6,203.24L471.9,184.38L485.1,184.38L488.4,163.18L508.2,163.18L511.5,150.61L514.8,145.89L518.1,145.89L521.4,145.89L524.7,141.18L528,134.11L531.3,130.18L534.6,130.18L537.9,103.48L544.5,103.48L547.8,90.12L551.1,57.92L554.4,57.92L580.8,57.92L584.1,69.7L587.4,75.2L590.7,75.2L594,75.2L597.3,78.34L600.6,90.91L603.9,95.62L607.2,92.48L610.5,86.98L633.6,86.98L636.9,85.41L640.2,89.34L643.5,87.77L650.1,44.57L653.4,35.93L656.7,35.14L660,37.5L663.3,46.92L666.6,41.42L669.9,26.5L673.2,26.5" style="vector-effect: none; fill: none; stroke: rgb(138, 44, 81); stroke-opacity: 1; stroke-width: 5px; opacity: 1;"/></g><g class="points"/><g class="text"/></g><g class="trace scatter trace69e1f6" style="stroke-miterlimit: 2; opacity: 1;"><g class="fills"/><g class="errorbars"/><g class="lines"><path class="js-line" d="M0,187.53L6.6,198.52L9.9,198.52L19.8,198.52L23.1,204.02L29.7,192.24L33,192.24L59.4,192.24L62.7,193.81L66,195.38L69.3,195.38L75.9,195.38L79.2,199.31L191.4,199.31L194.7,221.3L221.1,221.3L224.4,217.37L227.7,214.23L231,196.17L234.3,169.46L237.6,169.46L244.2,183.6L247.5,160.03L277.2,160.03L280.5,171.82L283.8,171.82L287.1,160.03L290.4,171.82L293.7,157.68L297,154.54L300.3,154.54L303.6,169.46L306.9,154.54L316.8,154.54L320.1,169.46L323.4,169.46L326.7,154.54L330,169.46L333.3,169.46L336.6,155.32L339.9,173.39L349.8,173.39L353.1,178.1L363,178.1L366.3,182.03L369.6,195.38L372.9,200.09L379.5,200.88L382.8,200.88L392.7,200.88L396,203.24L402.6,204.02L405.9,204.02L422.4,204.02L425.7,206.38L429,211.09L432.3,211.09L435.6,214.23L442.2,214.23L465.3,215.02L468.6,211.88L471.9,219.73L475.2,219.73L485.1,219.73L488.4,218.16L508.2,218.16L511.5,230.73L514.8,233.87L518.1,233.87L521.4,233.87L524.7,238.58L531.3,247.22L534.6,247.22L537.9,232.3L541.2,232.3L544.5,232.3L547.8,240.15L551.1,250.37L554.4,250.37L580.8,250.37L584.1,239.37L587.4,233.08L590.7,233.08L594,233.08L597.3,229.94L600.6,211.88L603.9,206.38L610.5,210.3L613.8,210.3L630.3,210.3L633.6,208.73L636.9,210.3L640.2,206.38L643.5,206.38L646.8,226.8L650.1,241.72L653.4,250.37L656.7,251.15L660,248.79L663.3,238.58L666.6,233.08L669.9,248.01L673.2,248.01" style="vector-effect: none; fill: none; stroke: rgb(0, 174, 239); stroke-opacity: 1; stroke-width: 5px; opacity: 1;"/></g><g class="points"/><g class="text"/></g><g class="trace scatter trace03054e" style="stroke-miterlimit: 2; opacity: 1;"><g class="fills"/><g class="errorbars"/><g class="lines"><path class="js-line" d="M0,475.02L9.9,477.37L13.2,477.37L23.1,476.59L26.4,475.02L33,475.8L36.3,475.8L46.2,475.8L49.5,477.37L75.9,476.59L79.2,478.16L122.1,478.16L125.4,484.44L141.9,484.44L145.2,490.73L184.8,490.73L191.4,481.3L194.7,501.72L201.3,501.72L231,502.51L234.3,508.01L244.2,508.01L247.5,511.15L277.2,511.15L280.5,509.58L283.8,509.58L287.1,511.15L290.4,509.58L293.7,511.15L300.3,511.15L303.6,509.58L306.9,511.15L310.2,511.15L316.8,511.15L320.1,509.58L323.4,509.58L326.7,511.15L330,509.58L333.3,509.58L336.6,511.93L339.9,510.36L363,511.15L366.3,511.93L372.9,514.29L376.2,515.08L386.1,515.08L389.4,516.65L392.7,519.79L396,519.79L402.6,520.57L405.9,520.57L485.1,519.79" style="vector-effect: none; fill: none; stroke: rgb(255, 192, 203); stroke-opacity: 1; stroke-width: 5px; opacity: 1;"/></g><g class="points"/><g class="text"/></g><g class="trace scatter trace1f2ac2" style="stroke-miterlimit: 2; opacity: 1;"><g class="fills"/><g class="errorbars"/><g class="lines"><path class="js-line" d="M0,450.67L6.6,453.02L9.9,453.02L19.8,453.02L23.1,458.52L29.7,449.09L33,449.09L46.2,449.09L49.5,450.67L62.7,449.88L66,449.09L122.1,449.09L125.4,450.67L141.9,450.67L145.2,460.09L184.8,460.09L191.4,453.81L194.7,402.75L201.3,402.75L221.1,402.75L224.4,405.11L227.7,407.46L231,407.46L234.3,412.18L237.6,412.18L244.2,406.68L247.5,412.96L277.2,412.96L280.5,409.82L283.8,409.82L287.1,412.96L290.4,409.82L293.7,414.53L297,417.67L300.3,417.67L303.6,412.18L306.9,417.67L316.8,417.67L320.1,412.18L323.4,412.18L326.7,417.67L330,412.18L333.3,412.18L336.6,434.96L339.9,419.25L349.8,420.03L353.1,431.81L356.4,441.24L359.7,441.24L363,441.24L366.3,438.88L369.6,446.74L372.9,448.31L389.4,447.52L392.7,446.74L396,448.31L399.3,451.45L422.4,451.45L425.7,448.31L429,441.24L432.3,441.24L435.6,430.24L442.2,430.24L462,430.24L465.3,440.45L468.6,443.6L471.9,454.59L485.1,454.59L488.4,460.88L524.7,461.66L528,462.45L534.6,463.23L537.9,487.58L544.5,487.58L547.8,490.73L551.1,495.44L554.4,495.44L597.3,495.44L600.6,502.51L603.9,502.51L607.2,504.08L610.5,507.22L613.8,507.22L630.3,507.22L633.6,508.79L640.2,508.79L643.5,510.36L646.8,515.86L650.1,518.22L660,518.22L663.3,519.79" style="vector-effect: none; fill: none; stroke: rgb(255, 1, 170); stroke-opacity: 1; stroke-width: 5px; opacity: 1;"/></g><g class="points"/><g class="text"/></g><g class="trace scatter tracec6aed8" style="stroke-miterlimit: 2; opacity: 1;"><g class="fills"/><g class="errorbars"/><g class="lines"><path class="js-line" d="M0,467.95L9.9,469.52L13.2,469.52L19.8,469.52L23.1,458.52L29.7,482.87L33,482.87L62.7,482.09L66,481.3L141.9,480.51L145.2,484.44L184.8,484.44L191.4,482.87L194.7,486.01L201.3,486.01L224.4,486.8L227.7,487.58L237.6,486.8L240.9,489.94L244.2,493.08L247.5,487.58L277.2,487.58L280.5,489.94L283.8,489.94L287.1,487.58L290.4,489.94L293.7,489.15L297,492.3L300.3,492.3L303.6,493.08L306.9,492.3L333.3,493.08L336.6,495.44L353.1,495.44L356.4,497.01L366.3,497.79L369.6,498.58L372.9,500.94L376.2,501.72L386.1,501.72L389.4,503.29L399.3,509.58L402.6,509.58L485.1,509.58L488.4,517.43L534.6,518.22L537.9,520.57L544.5,520.57L547.8,522.15" style="vector-effect: none; fill: none; stroke: rgb(202, 166, 105); stroke-opacity: 1; stroke-width: 5px; opacity: 1;"/></g><g class="points"/><g class="text"/></g><g class="trace scatter trace1d732e" style="stroke-miterlimit: 2; opacity: 1;"><g class="fills"/><g class="errorbars"/><g class="lines"><path class="js-line" d="M0,447.52L6.6,450.67L9.9,450.67L19.8,450.67L23.1,447.52L26.4,448.31L29.7,452.24L59.4,453.02L62.7,455.38L66,456.95L69.3,456.95L122.1,456.95L125.4,455.38L141.9,455.38L145.2,467.16L184.8,467.16L191.4,462.45L194.7,472.66L201.3,472.66L224.4,473.44L227.7,475.02L231,475.02L234.3,483.66L237.6,483.66L240.9,478.94L244.2,474.23L247.5,487.58L277.2,487.58L280.5,481.3L283.8,481.3L287.1,487.58L290.4,481.3L293.7,486.8L300.3,486.8L303.6,480.51L306.9,486.8L310.2,486.8L316.8,486.8L320.1,480.51L323.4,480.51L326.7,486.8L330,480.51L333.3,480.51L336.6,481.3L339.9,475.8L349.8,476.59L353.1,484.44L356.4,488.37L359.7,488.37L363,488.37L366.3,489.94L372.9,494.65L376.2,495.44L386.1,495.44L389.4,497.01L399.3,505.65L402.6,505.65L485.1,505.65L488.4,504.86L534.6,505.65L537.9,520.57L544.5,520.57L547.8,522.15" style="vector-effect: none; fill: none; stroke: rgb(238, 58, 67); stroke-opacity: 1; stroke-width: 5px; opacity: 1;"/></g><g class="points"/><g class="text"/></g></g></g><g class="overplot"/><path class="xlines-above crisp" d="M0,0" style="fill: none;"/><path class="ylines-above crisp" d="M0,0" style="fill: none;"/><g class="overlines-above"/><g class="xaxislayer-above"><g class="xtick"><text text-anchor="middle" x="0" y="563" transform="translate(83,0)" style="font-family: 'Open Sans', verdana, arial, sans-serif; font-size: 12px; fill: rgb(42, 63, 95); fill-opacity: 1; white-space: pre; opacity: 1;">1.7.23</text></g><g class="xtick"><text text-anchor="middle" x="0" y="563" style="font-family: 'Open Sans', verdana, arial, sans-serif; font-size: 12px; fill: rgb(42, 63, 95); fill-opacity: 1; white-space: pre; opacity: 1;" transform="translate(185.3,0)">1.8.23</text></g><g class="xtick"><text text-anchor="middle" x="0" y="563" style="font-family: 'Open Sans', verdana, arial, sans-serif; font-size: 12px; fill: rgb(42, 63, 95); fill-opacity: 1; white-space: pre; opacity: 1;" transform="translate(287.6,0)">1.9.23</text></g><g class="xtick"><text text-anchor="middle" x="0" y="563" style="font-family: 'Open Sans', verdana, arial, sans-serif; font-size: 12px; fill: rgb(42, 63, 95); fill-opacity: 1; white-space: pre; opacity: 1;" transform="translate(386.6,0)">1.10.23</text></g><g class="xtick"><text text-anchor="middle" x="0" y="563" style="font-family: 'Open Sans', verdana, arial, sans-serif; font-size: 12px; fill: rgb(42, 63, 95); fill-opacity: 1; white-space: pre; opacity: 1;" transform="translate(488.9,0)">1.11.23</text></g><g class="xtick"><text text-anchor="middle" x="0" y="563" style="font-family: 'Open Sans', verdana, arial, sans-serif; font-size: 12px; fill: rgb(42, 63, 95); fill-opacity: 1; white-space: pre; opacity: 1;" transform="translate(587.9,0)">1.12.23</text></g><g class="xtick"><text text-anchor="middle" x="0" y="563" style="font-family: 'Open Sans', verdana, arial, sans-serif; font-size: 12px; fill: rgb(42, 63, 95); fill-opacity: 1; white-space: pre; opacity: 1;" transform="translate(690.2,0)">1.1.24</text></g><g class="xtick"><text text-anchor="middle" x="0" y="563" style="font-family: 'Open Sans', verdana, arial, sans-serif; font-size: 12px; fill: rgb(42, 63, 95); fill-opacity: 1; white-space: pre; opacity: 1;" transform="translate(792.5,0)">1.2.24</text></g><g class="xtick"><text text-anchor="middle" x="0" y="563" style="font-family: 'Open Sans', verdana, arial, sans-serif; font-size: 12px; fill: rgb(42, 63, 95); fill-opacity: 1; white-space: pre; opacity: 1;" transform="translate(888.2,0)">1.3.24</text></g><g class="xtick"><text text-anchor="middle" x="0" y="563" style="font-family: 'Open Sans', verdana, arial, sans-serif; font-size: 12px; fill: rgb(42, 63, 95); fill-opacity: 1; white-space: pre; opacity: 1;" transform="translate(990.5,0)">1.4.24</text></g></g><g class="yaxislayer-above"><g class="ytick"><text text-anchor="end" x="49" y="4.199999999999999" transform="translate(0,550)" style="font-family: 'Open Sans', verdana, arial, sans-serif; font-size: 12px; fill: rgb(42, 63, 95); fill-opacity: 1; white-space: pre; opacity: 1;">0%</text></g><g class="ytick"><text text-anchor="end" x="49" y="4.199999999999999" style="font-family: 'Open Sans', verdana, arial, sans-serif; font-size: 12px; fill: rgb(42, 63, 95); fill-opacity: 1; white-space: pre; opacity: 1;" transform="translate(0,471.45)">10%</text></g><g class="ytick"><text text-anchor="end" x="49" y="4.199999999999999" style="font-family: 'Open Sans', verdana, arial, sans-serif; font-size: 12px; fill: rgb(42, 63, 95); fill-opacity: 1; white-space: pre; opacity: 1;" transform="translate(0,392.9)">20%</text></g><g class="ytick"><text text-anchor="end" x="49" y="4.199999999999999" style="font-family: 'Open Sans', verdana, arial, sans-serif; font-size: 12px; fill: rgb(42, 63, 95); fill-opacity: 1; white-space: pre; opacity: 1;" transform="translate(0,314.35)">30%</text></g><g class="ytick"><text text-anchor="end" x="49" y="4.199999999999999" style="font-family: 'Open Sans', verdana, arial, sans-serif; font-size: 12px; fill: rgb(42, 63, 95); fill-opacity: 1; white-space: pre; opacity: 1;" transform="translate(0,235.8)">40%</text></g><g class="ytick"><text text-anchor="end" x="49" y="4.199999999999999" style="font-family: 'Open Sans', verdana, arial, sans-serif; font-size: 12px; fill: rgb(42, 63, 95); fill-opacity: 1; white-space: pre; opacity: 1;" transform="translate(0,157.25)">50%</text></g><g class="ytick"><text text-anchor="end" x="49" y="4.199999999999999" style="font-family: 'Open Sans', verdana, arial, sans-serif; font-size: 12px; fill: rgb(42, 63, 95); fill-opacity: 1; white-space: pre; opacity: 1;" transform="translate(0,78.71000000000001)">60%</text></g></g><g class="overaxes-above"/></g></g><g class="polarlayer"/><g class="smithlayer"/><g class="ternarylayer"/><g class="geolayer"/><g class="funnelarealayer"/><g class="pielayer"/><g class="iciclelayer"/><g class="treemaplayer"/><g class="sunburstlayer"/><g class="glimages"/><defs id="topdefs-57ff38"><g class="clips"/><clipPath id="legend57ff38"><rect width="128" height="124" x="0" y="0"/></clipPath></defs><g class="layer-above"><g class="imagelayer"/><g class="shapelayer"/></g><g class="infolayer"><g class="legend" pointer-events="all" transform="translate(1059.8000000000002,20)"><rect class="bg" shape-rendering="crispEdges" style="stroke: rgb(68, 68, 68); stroke-opacity: 1; fill: rgb(255, 255, 255); fill-opacity: 1; stroke-width: 0px;" width="128" height="124" x="0" y="0"/><g class="scrollbox" transform="" clip-path="url(#legend57ff38)"><g class="groups"><g class="traces" transform="translate(0,14.5)" style="opacity: 1;"><text class="legendtext" text-anchor="start" x="40" y="4.680000000000001" style="font-family: 'Open Sans', verdana, arial, sans-serif; font-size: 12px; fill: rgb(42, 63, 95); fill-opacity: 1; white-space: pre;">Pellegrini Peter</text><g class="layers" style="opacity: 1;"><g class="legendfill"/><g class="legendlines"><path class="js-line" d="M5,0h30" style="fill: none; stroke: rgb(138, 44, 81); stroke-opacity: 1; stroke-width: 5px;"/></g><g class="legendsymbols"><g class="legendpoints"/></g></g><rect class="legendtoggle" x="0" y="-9.5" width="122.703125" height="19" style="fill: rgb(0, 0, 0); fill-opacity: 0;"/></g><g class="traces" transform="translate(0,33.5)" style="opacity: 1;"><text class="legendtext" text-anchor="start" x="40" y="4.680000000000001" style="font-family: 'Open Sans', verdana, arial, sans-serif; font-size: 12px; fill: rgb(42, 63, 95); fill-opacity: 1; white-space: pre;">Korčok Ivan</text><g class="layers" style="opacity: 1;"><g class="legendfill"/><g class="legendlines"><path class="js-line" d="M5,0h30" style="fill: none; stroke: rgb(0, 174, 239); stroke-opacity: 1; stroke-width: 5px;"/></g><g class="legendsymbols"><g class="legendpoints"/></g></g><rect class="legendtoggle" x="0" y="-9.5" width="122.703125" height="19" style="fill: rgb(0, 0, 0); fill-opacity: 0;"/></g><g class="traces" transform="translate(0,52.5)" style="opacity: 1;"><text class="legendtext" text-anchor="start" x="40" y="4.680000000000001" style="font-family: 'Open Sans', verdana, arial, sans-serif; font-size: 12px; fill: rgb(42, 63, 95); fill-opacity: 1; white-space: pre;">Lajčák Miroslav</text><g class="layers" style="opacity: 1;"><g class="legendfill"/><g class="legendlines"><path class="js-line" d="M5,0h30" style="fill: none; stroke: rgb(255, 192, 203); stroke-opacity: 1; stroke-width: 5px;"/></g><g class="legendsymbols"><g class="legendpoints"/></g></g><rect class="legendtoggle" x="0" y="-9.5" width="122.703125" height="19" style="fill: rgb(0, 0, 0); fill-opacity: 0;"/></g><g class="traces" transform="translate(0,71.5)" style="opacity: 1;"><text class="legendtext" text-anchor="start" x="40" y="4.680000000000001" style="font-family: 'Open Sans', verdana, arial, sans-serif; font-size: 12px; fill: rgb(42, 63, 95); fill-opacity: 1; white-space: pre;">Kubiš Ján</text><g class="layers" style="opacity: 1;"><g class="legendfill"/><g class="legendlines"><path class="js-line" d="M5,0h30" style="fill: none; stroke: rgb(255, 1, 170); stroke-opacity: 1; stroke-width: 5px;"/></g><g class="legendsymbols"><g class="legendpoints"/></g></g><rect class="legendtoggle" x="0" y="-9.5" width="122.703125" height="19" style="fill: rgb(0, 0, 0); fill-opacity: 0;"/></g><g class="traces" transform="translate(0,90.5)" style="opacity: 1;"><text class="legendtext" text-anchor="start" x="40" y="4.680000000000001" style="font-family: 'Open Sans', verdana, arial, sans-serif; font-size: 12px; fill: rgb(42, 63, 95); fill-opacity: 1; white-space: pre;">Mistrík Robert</text><g class="layers" style="opacity: 1;"><g class="legendfill"/><g class="legendlines"><path class="js-line" d="M5,0h30" style="fill: none; stroke: rgb(202, 166, 105); stroke-opacity: 1; stroke-width: 5px;"/></g><g class="legendsymbols"><g class="legendpoints"/></g></g><rect class="legendtoggle" x="0" y="-9.5" width="122.703125" height="19" style="fill: rgb(0, 0, 0); fill-opacity: 0;"/></g><g class="traces" transform="translate(0,109.5)" style="opacity: 1;"><text class="legendtext" text-anchor="start" x="40" y="4.680000000000001" style="font-family: 'Open Sans', verdana, arial, sans-serif; font-size: 12px; fill: rgb(42, 63, 95); fill-opacity: 1; white-space: pre;">Fico Robert</text><g class="layers" style="opacity: 1;"><g class="legendfill"/><g class="legendlines"><path class="js-line" d="M5,0h30" style="fill: none; stroke: rgb(238, 58, 67); stroke-opacity: 1; stroke-width: 5px;"/></g><g class="legendsymbols"><g class="legendpoints"/></g></g><rect class="legendtoggle" x="0" y="-9.5" width="122.703125" height="19" style="fill: rgb(0, 0, 0); fill-opacity: 0;"/></g></g></g><rect class="scrollbar" rx="20" ry="3" width="0" height="0" style="fill: rgb(128, 139, 164); fill-opacity: 1;" x="0" y="0"/></g><g class="g-gtitle"/><g class="g-xtitle"/><g class="g-ytitle"/></g></svg>