<svg class="main-svg" xmlns="http://www.w3.org/2000/svg" xmlns:xlink="http://www.w3.org/1999/xlink" width="1200" height="600" style="" viewBox="0 0 1200 600"><rect x="0" y="0" width="1200" height="600" style="fill: rgb(255, 255, 255); fill-opacity: 1;"/><defs id="defs-7ba2c9"><g class="clips"><clipPath id="clip7ba2c9xyplot" class="plotclip"><rect width="990" height="530"/></clipPath><clipPath class="axesclip" id="clip7ba2c9x"><rect x="50" y="0" width="990" height="600"/></clipPath><clipPath class="axesclip" id="clip7ba2c9y"><rect x="0" y="20" width="1200" height="530"/></clipPath><clipPath class="axesclip" id="clip7ba2c9xy"><rect x="50" y="20" width="990" height="530"/></clipPath></g><g class="gradients"/><g class="patterns"/></defs><g class="bglayer"/><g class="layer-below"><g class="imagelayer"/><g class="shapelayer"/></g><g class="cartesianlayer"><g class="subplot xy"><g class="layer-subplot"><g class="shapelayer"/><g class="imagelayer"/></g><g class="minor-gridlayer"><g class="x"/><g class="y"/></g><g class="gridlayer"><g class="x"><path class="xgrid crisp" transform="translate(84.14,0)" d="M0,20v530" style="stroke: rgb(235, 240, 248); stroke-opacity: 1; stroke-width: 1px;"/><path class="xgrid crisp" transform="translate(189.97,0)" d="M0,20v530" style="stroke: rgb(235, 240, 248); stroke-opacity: 1; stroke-width: 1px;"/><path class="xgrid crisp" transform="translate(295.78999999999996,0)" d="M0,20v530" style="stroke: rgb(235, 240, 248); stroke-opacity: 1; stroke-width: 1px;"/><path class="xgrid crisp" transform="translate(398.21,0)" d="M0,20v530" style="stroke: rgb(235, 240, 248); stroke-opacity: 1; stroke-width: 1px;"/><path class="xgrid crisp" transform="translate(504.03,0)" d="M0,20v530" style="stroke: rgb(235, 240, 248); stroke-opacity: 1; stroke-width: 1px;"/><path class="xgrid crisp" transform="translate(606.45,0)" d="M0,20v530" style="stroke: rgb(235, 240, 248); stroke-opacity: 1; stroke-width: 1px;"/><path class="xgrid crisp" transform="translate(712.28,0)" d="M0,20v530" style="stroke: rgb(235, 240, 248); stroke-opacity: 1; stroke-width: 1px;"/><path class="xgrid crisp" transform="translate(818.1,0)" d="M0,20v530" style="stroke: rgb(235, 240, 248); stroke-opacity: 1; stroke-width: 1px;"/><path class="xgrid crisp" transform="translate(917.1,0)" d="M0,20v530" style="stroke: rgb(235, 240, 248); stroke-opacity: 1; stroke-width: 1px;"/><path class="xgrid crisp" transform="translate(1022.93,0)" d="M0,20v530" style="stroke: rgb(235, 240, 248); stroke-opacity: 1; stroke-width: 1px;"/></g><g class="y"><path class="ygrid crisp" transform="translate(0,473.83)" d="M50,0h990" style="stroke: rgb(235, 240, 248); stroke-opacity: 1; stroke-width: 1px;"/><path class="ygrid crisp" transform="translate(0,397.66)" d="M50,0h990" style="stroke: rgb(235, 240, 248); stroke-opacity: 1; stroke-width: 1px;"/><path class="ygrid crisp" transform="translate(0,321.48)" d="M50,0h990" style="stroke: rgb(235, 240, 248); stroke-opacity: 1; stroke-width: 1px;"/><path class="ygrid crisp" transform="translate(0,245.31)" d="M50,0h990" style="stroke: rgb(235, 240, 248); stroke-opacity: 1; stroke-width: 1px;"/><path class="ygrid crisp" transform="translate(0,169.14)" d="M50,0h990" style="stroke: rgb(235, 240, 248); stroke-opacity: 1; stroke-width: 1px;"/><path class="ygrid crisp" transform="translate(0,92.97)" d="M50,0h990" style="stroke: rgb(235, 240, 248); stroke-opacity: 1; stroke-width: 1px;"/></g></g><g class="zerolinelayer"><path class="yzl zl crisp" transform="translate(0,550)" d="M50,0h990" style="stroke: rgb(235, 240, 248); stroke-opacity: 1; stroke-width: 2px;"/></g><path class="xlines-below"/><path class="ylines-below"/><g class="overlines-below"/><g class="xaxislayer-below"/><g class="yaxislayer-below"/><g class="overaxes-below"/><g class="plot" transform="translate(50,20)" clip-path="url(#clip7ba2c9xyplot)"><g class="scatterlayer mlayer"><g class="trace scatter trace3a7811" style="stroke-miterlimit: 2; opacity: 1;"><g class="fills"/><g class="errorbars"/><g class="lines"><path class="js-line" d="M0,370.8L6.83,350.99L10.24,350.99L20.48,350.99L23.9,356.33L30.72,347.19L34.14,347.19L47.79,347.19L51.21,344.9L61.45,344.9L64.86,342.62L68.28,341.09L71.69,341.09L78.52,341.09L81.93,336.52L126.31,336.52L129.72,331.19L146.79,331.19L150.21,299.2L191.17,299.2L198,321.29L201.41,316.72L208.24,316.72L232.14,315.96L235.55,315.19L238.97,331.95L242.38,340.33L245.79,340.33L249.21,337.28L252.62,334.24L256.03,341.09L286.76,341.09L290.17,338.05L293.59,338.05L297,341.09L300.41,338.05L303.83,340.33L307.24,338.05L310.66,338.05L314.07,336.52L317.48,338.05L327.72,338.05L331.14,336.52L334.55,336.52L337.97,338.05L341.38,336.52L344.79,336.52L348.21,321.29L351.62,327.38L358.45,327.38L361.86,325.86L365.28,300.72L368.69,285.49L375.52,285.49L378.93,281.68L382.34,256.54L385.76,244.35L389.17,242.07L392.59,242.07L399.41,242.07L402.83,237.5L409.66,224.55L413.07,213.88L440.38,214.65L443.79,216.17L447.21,216.17L450.62,223.79L477.93,223.79L481.34,213.12L484.76,213.12L488.17,194.84L501.83,194.84L505.24,174.27L525.72,174.27L529.14,162.09L532.55,157.52L535.97,157.52L539.38,157.52L542.79,152.95L546.21,146.09L549.62,142.28L553.03,142.28L556.45,116.38L563.28,116.38L566.69,103.43L570.1,72.2L573.52,72.2L600.83,72.2L604.24,83.63L607.66,88.96L611.07,88.96L614.48,88.96L617.9,92.01L621.31,104.2L624.72,108.77L628.14,105.72L631.55,100.39L655.45,100.39L658.86,98.86L662.28,102.67L665.69,101.15L672.52,59.25L675.93,50.88L679.34,50.11L682.76,52.4L686.17,61.54L689.59,56.21L693,41.73L696.41,41.73L703.24,48.59L706.66,54.68L710.07,61.54L713.48,62.3L716.9,88.2L720.31,97.34L723.72,88.2L727.14,92.01L730.55,88.96L733.97,76.77L737.38,73.73L740.79,77.54L747.62,79.82L751.03,75.25L754.45,69.16L757.86,58.49L761.28,47.83L764.69,47.83L768.1,47.83L771.52,50.88L774.93,60.02L778.34,61.54L781.76,55.45L785.17,54.68L788.59,60.02L792,75.25L795.41,104.96L798.83,117.91L802.24,116.38L805.66,116.38L809.07,117.15L812.48,124L815.9,126.29L819.31,124.76L822.72,116.38L826.14,124.76L832.97,130.09L836.38,119.43L839.79,96.58L843.21,82.87L846.62,72.97L850.03,72.2L853.45,55.45L856.86,56.21L860.28,55.45L863.69,51.64L867.1,56.97L870.52,69.16L880.76,69.16L884.17,65.35L887.59,63.82L891,59.25L897.83,59.25L901.24,56.21L904.66,48.59L908.07,45.54L911.48,40.97L914.9,26.5" style="vector-effect: none; fill: none; stroke: rgb(138, 44, 81); stroke-opacity: 1; stroke-width: 5px; opacity: 1;"/></g><g class="points"/><g class="text"/></g><g class="trace scatter trace5742ea" style="stroke-miterlimit: 2; opacity: 1;"><g class="fills"/><g class="errorbars"/><g class="lines"><path class="js-line" d="M0,197.89L6.83,208.55L10.24,208.55L20.48,208.55L23.9,213.88L30.72,202.46L34.14,202.46L61.45,202.46L64.86,203.98L68.28,205.51L71.69,205.51L78.52,205.51L81.93,209.31L198,209.31L201.41,230.64L228.72,230.64L232.14,226.83L235.55,223.79L238.97,206.27L242.38,180.37L245.79,180.37L252.62,194.08L256.03,171.23L286.76,171.23L290.17,182.65L293.59,182.65L297,171.23L300.41,182.65L303.83,168.94L307.24,165.9L310.66,165.9L314.07,180.37L317.48,165.9L327.72,165.9L331.14,180.37L334.55,180.37L337.97,165.9L341.38,180.37L344.79,180.37L348.21,166.66L351.62,184.18L361.86,184.18L365.28,188.75L375.52,188.75L378.93,192.56L382.34,205.51L385.76,210.08L392.59,210.84L396,210.84L406.24,210.84L409.66,213.12L416.48,213.88L419.9,213.88L436.97,213.88L440.38,216.17L443.79,220.74L447.21,220.74L450.62,223.79L457.45,223.79L481.34,224.55L484.76,221.5L488.17,229.12L491.59,229.12L501.83,229.12L505.24,227.6L525.72,227.6L529.14,239.78L532.55,242.83L535.97,242.83L539.38,242.83L542.79,247.4L549.62,255.78L553.03,255.78L556.45,241.31L559.86,241.31L563.28,241.31L566.69,248.92L570.1,258.83L573.52,258.83L600.83,258.83L604.24,248.16L607.66,242.07L611.07,242.07L614.48,242.07L617.9,239.02L621.31,221.5L624.72,216.17L631.55,219.98L634.97,219.98L652.03,219.98L655.45,218.45L658.86,219.98L662.28,216.17L665.69,216.17L669.1,235.97L672.52,250.45L675.93,258.83L679.34,259.59L682.76,257.3L686.17,247.4L689.59,242.07L693,256.54L696.41,256.54L703.24,249.69L706.66,243.59L710.07,236.74L713.48,235.97L716.9,210.08L720.31,200.93L723.72,210.08L727.14,206.27L730.55,209.31L733.97,221.5L737.38,224.55L740.79,220.74L747.62,218.45L751.03,223.02L754.45,229.12L757.86,239.78L761.28,250.45L764.69,250.45L768.1,250.45L771.52,247.4L774.93,238.26L778.34,236.74L781.76,242.83L785.17,243.59L788.59,238.26L792,223.02L795.41,193.32L798.83,180.37L802.24,181.89L805.66,181.89L809.07,181.13L812.48,174.27L815.9,171.99L819.31,173.51L822.72,181.89L826.14,173.51L832.97,168.18L836.38,178.84L839.79,201.7L843.21,215.41L846.62,225.31L850.03,226.07L853.45,242.83L856.86,242.07L860.28,242.83L863.69,246.64L867.1,241.31L870.52,229.12L880.76,229.12L884.17,232.93L887.59,234.45L891,239.02L897.83,239.02L901.24,242.07L904.66,249.69L908.07,252.73L911.48,257.3L914.9,271.78" style="vector-effect: none; fill: none; stroke: rgb(0, 174, 239); stroke-opacity: 1; stroke-width: 5px; opacity: 1;"/></g><g class="points"/><g class="text"/></g><g class="trace scatter trace41f653" style="stroke-miterlimit: 2; opacity: 1;"><g class="fills"/><g class="errorbars"/><g class="lines"><path class="js-line" d="M0,453.07L6.83,455.35L10.24,455.35L20.48,455.35L23.9,460.68L30.72,451.54L34.14,451.54L47.79,451.54L51.21,453.07L64.86,452.3L68.28,451.54L126.31,451.54L129.72,453.07L146.79,453.07L150.21,462.21L191.17,462.21L198,456.11L201.41,406.6L208.24,406.6L228.72,406.6L232.14,408.89L235.55,411.17L238.97,411.17L242.38,415.74L245.79,415.74L252.62,410.41L256.03,416.5L286.76,416.5L290.17,413.46L293.59,413.46L297,416.5L300.41,413.46L303.83,418.03L307.24,421.07L310.66,421.07L314.07,415.74L317.48,421.07L327.72,421.07L331.14,415.74L334.55,415.74L337.97,421.07L341.38,415.74L344.79,415.74L348.21,437.83L351.62,422.6L361.86,423.36L365.28,434.78L368.69,443.93L372.1,443.93L375.52,443.93L378.93,441.64L382.34,449.26L385.76,450.78L402.83,450.02L406.24,449.26L409.66,450.78L413.07,453.83L436.97,453.83L440.38,450.78L443.79,443.93L447.21,443.93L450.62,433.26L457.45,433.26L477.93,433.26L481.34,443.16L484.76,446.21L488.17,456.87L501.83,456.87L505.24,462.97L542.79,463.73L546.21,464.49L553.03,465.25L556.45,488.87L563.28,488.87L566.69,491.91L570.1,496.48L573.52,496.48L617.9,496.48L621.31,503.34L624.72,503.34L628.14,504.86L631.55,507.91L634.97,507.91L652.03,507.91L655.45,509.43L662.28,509.43L665.69,510.96L669.1,516.29L672.52,518.57L682.76,518.57L686.17,520.1" style="vector-effect: none; fill: none; stroke: rgb(255, 1, 170); stroke-opacity: 1; stroke-width: 5px; opacity: 1;"/></g><g class="points"/><g class="text"/></g><g class="trace scatter trace6d8c0a" style="stroke-miterlimit: 2; opacity: 1;"><g class="fills"/><g class="errorbars"/><g class="lines"><path class="js-line" d="M0,450.02L6.83,453.07L10.24,453.07L20.48,453.07L23.9,450.02L27.31,450.78L30.72,454.59L61.45,455.35L64.86,457.64L68.28,459.16L71.69,459.16L126.31,459.16L129.72,457.64L146.79,457.64L150.21,469.06L191.17,469.06L198,464.49L201.41,474.39L208.24,474.39L232.14,475.16L235.55,476.68L238.97,476.68L242.38,485.06L245.79,485.06L249.21,480.49L252.62,475.92L256.03,488.87L286.76,488.87L290.17,482.77L293.59,482.77L297,488.87L300.41,482.77L303.83,488.11L310.66,488.11L314.07,482.01L317.48,488.11L320.9,488.11L327.72,488.11L331.14,482.01L334.55,482.01L337.97,488.11L341.38,482.01L344.79,482.01L348.21,482.77L351.62,477.44L361.86,478.2L365.28,485.82L368.69,489.63L372.1,489.63L375.52,489.63L378.93,491.15L385.76,495.72L389.17,496.48L399.41,496.48L402.83,498.01L413.07,506.39L416.48,506.39L501.83,506.39L505.24,505.62L553.03,506.39L556.45,520.86L563.28,520.86L566.69,522.38" style="vector-effect: none; fill: none; stroke: rgb(238, 58, 67); stroke-opacity: 1; stroke-width: 5px; opacity: 1;"/></g><g class="points"/><g class="text"/></g><g class="trace scatter trace475488" style="stroke-miterlimit: 2; opacity: 1;"><g class="fills"/><g class="errorbars"/><g class="lines"><path class="js-line" d="M0,469.82L10.24,471.35L13.66,471.35L20.48,471.35L23.9,460.68L30.72,484.3L34.14,484.3L64.86,483.53L68.28,482.77L146.79,482.01L150.21,485.82L191.17,485.82L198,484.3L201.41,487.34L208.24,487.34L232.14,488.11L235.55,488.87L245.79,488.11L249.21,491.15L252.62,494.2L256.03,488.87L286.76,488.87L290.17,491.15L293.59,491.15L297,488.87L300.41,491.15L303.83,490.39L307.24,493.44L310.66,493.44L314.07,494.2L317.48,493.44L344.79,494.2L348.21,496.48L365.28,496.48L368.69,498.01L378.93,498.77L382.34,499.53L385.76,501.82L389.17,502.58L399.41,502.58L402.83,504.1L413.07,510.2L416.48,510.2L501.83,510.2L505.24,517.81L553.03,518.57L556.45,520.86L563.28,520.86L566.69,522.38" style="vector-effect: none; fill: none; stroke: rgb(202, 166, 105); stroke-opacity: 1; stroke-width: 5px; opacity: 1;"/></g><g class="points"/><g class="text"/></g><g class="trace scatter traced962a5" style="stroke-miterlimit: 2; opacity: 1;"><g class="fills"/><g class="errorbars"/><g class="lines"><path class="js-line" d="M0,476.68L10.24,478.96L13.66,478.96L23.9,478.2L27.31,476.68L34.14,477.44L37.55,477.44L47.79,477.44L51.21,478.96L78.52,478.2L81.93,479.73L126.31,479.73L129.72,485.82L146.79,485.82L150.21,491.91L191.17,491.91L198,482.77L201.41,502.58L208.24,502.58L238.97,503.34L242.38,508.67L252.62,508.67L256.03,511.72L286.76,511.72L290.17,510.2L293.59,510.2L297,511.72L300.41,510.2L303.83,511.72L310.66,511.72L314.07,510.2L317.48,511.72L320.9,511.72L327.72,511.72L331.14,510.2L334.55,510.2L337.97,511.72L341.38,510.2L344.79,510.2L348.21,512.48L351.62,510.96L375.52,511.72L378.93,512.48L385.76,514.77L389.17,515.53L399.41,515.53L402.83,517.05L406.24,520.1L409.66,520.1L416.48,520.86L419.9,520.86L501.83,520.1" style="vector-effect: none; fill: none; stroke: rgb(255, 192, 203); stroke-opacity: 1; stroke-width: 5px; opacity: 1;"/></g><g class="points"/><g class="text"/></g></g></g><g class="overplot"/><path class="xlines-above crisp" d="M0,0" style="fill: none;"/><path class="ylines-above crisp" d="M0,0" style="fill: none;"/><g class="overlines-above"/><g class="xaxislayer-above"><g class="xtick"><text text-anchor="middle" x="0" y="563" transform="translate(84.14,0)" style="font-family: 'Open Sans', verdana, arial, sans-serif; font-size: 12px; fill: rgb(42, 63, 95); fill-opacity: 1; white-space: pre; opacity: 1;">1.7.23</text></g><g class="xtick"><text text-anchor="middle" x="0" y="563" style="font-family: 'Open Sans', verdana, arial, sans-serif; font-size: 12px; fill: rgb(42, 63, 95); fill-opacity: 1; white-space: pre; opacity: 1;" transform="translate(189.97,0)">1.8.23</text></g><g class="xtick"><text text-anchor="middle" x="0" y="563" style="font-family: 'Open Sans', verdana, arial, sans-serif; font-size: 12px; fill: rgb(42, 63, 95); fill-opacity: 1; white-space: pre; opacity: 1;" transform="translate(295.78999999999996,0)">1.9.23</text></g><g class="xtick"><text text-anchor="middle" x="0" y="563" style="font-family: 'Open Sans', verdana, arial, sans-serif; font-size: 12px; fill: rgb(42, 63, 95); fill-opacity: 1; white-space: pre; opacity: 1;" transform="translate(398.21,0)">1.10.23</text></g><g class="xtick"><text text-anchor="middle" x="0" y="563" style="font-family: 'Open Sans', verdana, arial, sans-serif; font-size: 12px; fill: rgb(42, 63, 95); fill-opacity: 1; white-space: pre; opacity: 1;" transform="translate(504.03,0)">1.11.23</text></g><g class="xtick"><text text-anchor="middle" x="0" y="563" style="font-family: 'Open Sans', verdana, arial, sans-serif; font-size: 12px; fill: rgb(42, 63, 95); fill-opacity: 1; white-space: pre; opacity: 1;" transform="translate(606.45,0)">1.12.23</text></g><g class="xtick"><text text-anchor="middle" x="0" y="563" style="font-family: 'Open Sans', verdana, arial, sans-serif; font-size: 12px; fill: rgb(42, 63, 95); fill-opacity: 1; white-space: pre; opacity: 1;" transform="translate(712.28,0)">1.1.24</text></g><g class="xtick"><text text-anchor="middle" x="0" y="563" style="font-family: 'Open Sans', verdana, arial, sans-serif; font-size: 12px; fill: rgb(42, 63, 95); fill-opacity: 1; white-space: pre; opacity: 1;" transform="translate(818.1,0)">1.2.24</text></g><g class="xtick"><text text-anchor="middle" x="0" y="563" style="font-family: 'Open Sans', verdana, arial, sans-serif; font-size: 12px; fill: rgb(42, 63, 95); fill-opacity: 1; white-space: pre; opacity: 1;" transform="translate(917.1,0)">1.3.24</text></g><g class="xtick"><text text-anchor="middle" x="0" y="563" style="font-family: 'Open Sans', verdana, arial, sans-serif; font-size: 12px; fill: rgb(42, 63, 95); fill-opacity: 1; white-space: pre; opacity: 1;" transform="translate(1022.93,0)">1.4.24</text></g></g><g class="yaxislayer-above"><g class="ytick"><text text-anchor="end" x="49" y="4.199999999999999" transform="translate(0,550)" style="font-family: 'Open Sans', verdana, arial, sans-serif; font-size: 12px; fill: rgb(42, 63, 95); fill-opacity: 1; white-space: pre; opacity: 1;">0%</text></g><g class="ytick"><text text-anchor="end" x="49" y="4.199999999999999" style="font-family: 'Open Sans', verdana, arial, sans-serif; font-size: 12px; fill: rgb(42, 63, 95); fill-opacity: 1; white-space: pre; opacity: 1;" transform="translate(0,473.83)">10%</text></g><g class="ytick"><text text-anchor="end" x="49" y="4.199999999999999" style="font-family: 'Open Sans', verdana, arial, sans-serif; font-size: 12px; fill: rgb(42, 63, 95); fill-opacity: 1; white-space: pre; opacity: 1;" transform="translate(0,397.66)">20%</text></g><g class="ytick"><text text-anchor="end" x="49" y="4.199999999999999" style="font-family: 'Open Sans', verdana, arial, sans-serif; font-size: 12px; fill: rgb(42, 63, 95); fill-opacity: 1; white-space: pre; opacity: 1;" transform="translate(0,321.48)">30%</text></g><g class="ytick"><text text-anchor="end" x="49" y="4.199999999999999" style="font-family: 'Open Sans', verdana, arial, sans-serif; font-size: 12px; fill: rgb(42, 63, 95); fill-opacity: 1; white-space: pre; opacity: 1;" transform="translate(0,245.31)">40%</text></g><g class="ytick"><text text-anchor="end" x="49" y="4.199999999999999" style="font-family: 'Open Sans', verdana, arial, sans-serif; font-size: 12px; fill: rgb(42, 63, 95); fill-opacity: 1; white-space: pre; opacity: 1;" transform="translate(0,169.14)">50%</text></g><g class="ytick"><text text-anchor="end" x="49" y="4.199999999999999" style="font-family: 'Open Sans', verdana, arial, sans-serif; font-size: 12px; fill: rgb(42, 63, 95); fill-opacity: 1; white-space: pre; opacity: 1;" transform="translate(0,92.97)">60%</text></g></g><g class="overaxes-above"/></g></g><g class="polarlayer"/><g class="smithlayer"/><g class="ternarylayer"/><g class="geolayer"/><g class="funnelarealayer"/><g class="pielayer"/><g class="iciclelayer"/><g class="treemaplayer"/><g class="sunburstlayer"/><g class="glimages"/><defs id="topdefs-7ba2c9"><g class="clips"/><clipPath id="legend7ba2c9"><rect width="128" height="124" x="0" y="0"/></clipPath></defs><g class="layer-above"><g class="imagelayer"/><g class="shapelayer"/></g><g class="infolayer"><g class="legend" pointer-events="all" transform="translate(1059.8000000000002,20)"><rect class="bg" shape-rendering="crispEdges" style="stroke: rgb(68, 68, 68); stroke-opacity: 1; fill: rgb(255, 255, 255); fill-opacity: 1; stroke-width: 0px;" width="128" height="124" x="0" y="0"/><g class="scrollbox" transform="" clip-path="url(#legend7ba2c9)"><g class="groups"><g class="traces" transform="translate(0,14.5)" style="opacity: 1;"><text class="legendtext" text-anchor="start" x="40" y="4.680000000000001" style="font-family: 'Open Sans', verdana, arial, sans-serif; font-size: 12px; fill: rgb(42, 63, 95); fill-opacity: 1; white-space: pre;">Pellegrini Peter</text><g class="layers" style="opacity: 1;"><g class="legendfill"/><g class="legendlines"><path class="js-line" d="M5,0h30" style="fill: none; stroke: rgb(138, 44, 81); stroke-opacity: 1; stroke-width: 5px;"/></g><g class="legendsymbols"><g class="legendpoints"/></g></g><rect class="legendtoggle" x="0" y="-9.5" width="122.703125" height="19" style="fill: rgb(0, 0, 0); fill-opacity: 0;"/></g><g class="traces" transform="translate(0,33.5)" style="opacity: 1;"><text class="legendtext" text-anchor="start" x="40" y="4.680000000000001" style="font-family: 'Open Sans', verdana, arial, sans-serif; font-size: 12px; fill: rgb(42, 63, 95); fill-opacity: 1; white-space: pre;">Korčok Ivan</text><g class="layers" style="opacity: 1;"><g class="legendfill"/><g class="legendlines"><path class="js-line" d="M5,0h30" style="fill: none; stroke: rgb(0, 174, 239); stroke-opacity: 1; stroke-width: 5px;"/></g><g class="legendsymbols"><g class="legendpoints"/></g></g><rect class="legendtoggle" x="0" y="-9.5" width="122.703125" height="19" style="fill: rgb(0, 0, 0); fill-opacity: 0;"/></g><g class="traces" transform="translate(0,52.5)" style="opacity: 1;"><text class="legendtext" text-anchor="start" x="40" y="4.680000000000001" style="font-family: 'Open Sans', verdana, arial, sans-serif; font-size: 12px; fill: rgb(42, 63, 95); fill-opacity: 1; white-space: pre;">Kubiš Ján</text><g class="layers" style="opacity: 1;"><g class="legendfill"/><g class="legendlines"><path class="js-line" d="M5,0h30" style="fill: none; stroke: rgb(255, 1, 170); stroke-opacity: 1; stroke-width: 5px;"/></g><g class="legendsymbols"><g class="legendpoints"/></g></g><rect class="legendtoggle" x="0" y="-9.5" width="122.703125" height="19" style="fill: rgb(0, 0, 0); fill-opacity: 0;"/></g><g class="traces" transform="translate(0,71.5)" style="opacity: 1;"><text class="legendtext" text-anchor="start" x="40" y="4.680000000000001" style="font-family: 'Open Sans', verdana, arial, sans-serif; font-size: 12px; fill: rgb(42, 63, 95); fill-opacity: 1; white-space: pre;">Fico Robert</text><g class="layers" style="opacity: 1;"><g class="legendfill"/><g class="legendlines"><path class="js-line" d="M5,0h30" style="fill: none; stroke: rgb(238, 58, 67); stroke-opacity: 1; stroke-width: 5px;"/></g><g class="legendsymbols"><g class="legendpoints"/></g></g><rect class="legendtoggle" x="0" y="-9.5" width="122.703125" height="19" style="fill: rgb(0, 0, 0); fill-opacity: 0;"/></g><g class="traces" transform="translate(0,90.5)" style="opacity: 1;"><text class="legendtext" text-anchor="start" x="40" y="4.680000000000001" style="font-family: 'Open Sans', verdana, arial, sans-serif; font-size: 12px; fill: rgb(42, 63, 95); fill-opacity: 1; white-space: pre;">Mistrík Robert</text><g class="layers" style="opacity: 1;"><g class="legendfill"/><g class="legendlines"><path class="js-line" d="M5,0h30" style="fill: none; stroke: rgb(202, 166, 105); stroke-opacity: 1; stroke-width: 5px;"/></g><g class="legendsymbols"><g class="legendpoints"/></g></g><rect class="legendtoggle" x="0" y="-9.5" width="122.703125" height="19" style="fill: rgb(0, 0, 0); fill-opacity: 0;"/></g><g class="traces" transform="translate(0,109.5)" style="opacity: 1;"><text class="legendtext" text-anchor="start" x="40" y="4.680000000000001" style="font-family: 'Open Sans', verdana, arial, sans-serif; font-size: 12px; fill: rgb(42, 63, 95); fill-opacity: 1; white-space: pre;">Lajčák Miroslav</text><g class="layers" style="opacity: 1;"><g class="legendfill"/><g class="legendlines"><path class="js-line" d="M5,0h30" style="fill: none; stroke: rgb(255, 192, 203); stroke-opacity: 1; stroke-width: 5px;"/></g><g class="legendsymbols"><g class="legendpoints"/></g></g><rect class="legendtoggle" x="0" y="-9.5" width="122.703125" height="19" style="fill: rgb(0, 0, 0); fill-opacity: 0;"/></g></g></g><rect class="scrollbar" rx="20" ry="3" width="0" height="0" style="fill: rgb(128, 139, 164); fill-opacity: 1;" x="0" y="0"/></g><g class="g-gtitle"/><g class="g-xtitle"/><g class="g-ytitle"/></g></svg>