<svg class="main-svg" xmlns="http://www.w3.org/2000/svg" xmlns:xlink="http://www.w3.org/1999/xlink" width="300" height="135" style="" viewBox="0 0 300 135"><rect x="0" y="0" width="300" height="135" style="fill: rgb(255, 255, 255); fill-opacity: 1;"/><defs id="defs-704262"><g class="clips"><clipPath id="clip704262xyplot" class="plotclip"><rect width="280" height="75"/></clipPath><clipPath class="axesclip" id="clip704262x"><rect x="10" y="0" width="280" height="135"/></clipPath><clipPath class="axesclip" id="clip704262y"><rect x="0" y="50" width="300" height="75"/></clipPath><clipPath class="axesclip" id="clip704262xy"><rect x="10" y="50" width="280" height="75"/></clipPath></g><g class="gradients"/><g class="patterns"/></defs><g class="bglayer"/><g class="layer-below"><g class="imagelayer"/><g class="shapelayer"/></g><g class="cartesianlayer"><g class="subplot xy"><g class="layer-subplot"><g class="shapelayer"/><g class="imagelayer"/></g><g class="minor-gridlayer"><g class="x"/><g class="y"/></g><g class="gridlayer"><g class="x"><path class="xgrid crisp" transform="translate(22.33,0)" d="M0,50v75" style="stroke: rgb(235, 240, 248); stroke-opacity: 1; stroke-width: 1px;"/><path class="xgrid crisp" transform="translate(98.81,0)" d="M0,50v75" style="stroke: rgb(235, 240, 248); stroke-opacity: 1; stroke-width: 1px;"/><path class="xgrid crisp" transform="translate(174.05,0)" d="M0,50v75" style="stroke: rgb(235, 240, 248); stroke-opacity: 1; stroke-width: 1px;"/><path class="xgrid crisp" transform="translate(249.3,0)" d="M0,50v75" style="stroke: rgb(235, 240, 248); stroke-opacity: 1; stroke-width: 1px;"/></g><g class="y"><path class="ygrid crisp" transform="translate(0,102.77000000000001)" d="M10,0h280" style="stroke: rgb(235, 240, 248); stroke-opacity: 1; stroke-width: 1px;"/><path class="ygrid crisp" transform="translate(0,80.53999999999999)" d="M10,0h280" style="stroke: rgb(235, 240, 248); stroke-opacity: 1; stroke-width: 1px;"/><path class="ygrid crisp" transform="translate(0,58.31)" d="M10,0h280" style="stroke: rgb(235, 240, 248); stroke-opacity: 1; stroke-width: 1px;"/></g></g><g class="zerolinelayer"><path class="yzl zl crisp" transform="translate(0,125)" d="M10,0h280" style="stroke: rgb(235, 240, 248); stroke-opacity: 1; stroke-width: 2px;"/></g><path class="xlines-below"/><path class="ylines-below"/><g class="overlines-below"/><g class="xaxislayer-below"/><g class="yaxislayer-below"/><g class="overaxes-below"/><g class="plot" transform="translate(10,50)" clip-path="url(#clip704262xyplot)"><g class="scatterlayer mlayer"><g class="trace scatter traceeed7bf" style="stroke-miterlimit: 2; opacity: 1;"><g class="fills"/><g class="errorbars"/><g class="lines"><path class="js-line" d="M0,51.77L3.7,48.88L4.93,48.88L9.87,49.1L11.1,48.32L28.37,47.43L29.6,46.77L53.04,45.99L54.27,41.32L69.07,41.32L71.54,44.54L75.24,43.88L76.48,43.88L85.11,43.65L86.34,46.1L88.81,47.32L90.04,46.88L91.28,46.43L92.51,47.43L124.58,46.77L125.81,44.54L128.28,45.43L129.52,45.43L130.75,45.21L131.98,41.54L134.45,39.32L135.68,39.32L136.92,38.76L138.15,35.1L140.62,32.98L141.85,32.98L145.55,32.32L146.78,31.32L150.48,28.87L151.72,28.87L161.59,29.2L162.82,30.32L172.69,30.32L173.92,28.76L175.15,28.76L176.39,26.09L181.32,26.09L182.56,23.09L189.96,23.09L191.19,21.31L198.59,18.42L199.82,18.42L202.29,14.64L203.52,14.64L204.76,12.75L205.99,8.2L217.09,8.2L218.33,9.86L220.79,10.64L222.03,10.64L224.49,12.86L225.73,13.53L231.89,12.31L233.13,12.31L240.53,12.42L241.76,8.75L244.23,5.08L245.46,4.97L249.16,5.86L250.4,3.75L254.1,4.75L255.33,5.64L257.8,6.75L259.03,10.53L260.26,11.86L261.5,10.53L263.96,10.64L265.2,8.86L267.67,8.97L268.9,9.09L271.37,8.64L272.6,7.75L276.3,4.64L277.53,4.64L280,5.86" style="vector-effect: none; fill: none; stroke: rgb(138, 44, 81); stroke-opacity: 1; stroke-width: 5px; opacity: 1;"/></g><g class="points"/><g class="text"/></g><g class="trace scatter trace0a9d1c" style="stroke-miterlimit: 2; opacity: 1;"><g class="fills"/><g class="errorbars"/><g class="lines"><path class="js-line" d="M0,26.54L4.93,28.09L6.17,28.09L9.87,27.87L11.1,27.2L71.54,28.2L72.78,31.32L85.11,30.32L86.34,27.76L88.81,23.98L90.04,24.98L91.28,25.98L92.51,22.65L103.61,22.65L104.85,24.31L106.08,24.31L107.31,22.65L108.55,24.31L109.78,22.31L112.25,21.87L113.48,23.98L115.95,21.87L117.18,21.87L118.41,21.87L119.65,23.98L120.88,23.98L122.11,21.87L124.58,23.98L125.81,21.98L128.28,24.54L129.52,24.54L136.92,25.76L138.15,27.65L141.85,28.43L143.08,28.43L159.12,29.2L160.35,29.87L189.96,30.87L191.19,32.65L199.82,34.98L201.06,32.87L204.76,33.98L205.99,35.43L217.09,35.43L218.33,33.87L220.79,32.98L222.03,32.98L223.26,32.54L224.49,29.98L226.96,29.43L228.19,29.76L240.53,29.2L241.76,32.09L244.23,35.43L245.46,35.54L247.93,33.76L249.16,32.98L251.63,35.1L252.86,34.54L257.8,32.09L259.03,28.32L260.26,26.98L261.5,28.32L263.96,28.2L265.2,29.98L267.67,29.87L268.9,29.76L271.37,30.2L272.6,31.09L276.3,34.21L277.53,34.21L280,32.98" style="vector-effect: none; fill: none; stroke: rgb(0, 174, 239); stroke-opacity: 1; stroke-width: 5px; opacity: 1;"/></g><g class="points"/><g class="text"/></g><g class="trace scatter tracef67383" style="stroke-miterlimit: 2; opacity: 1;"><g class="fills"/><g class="errorbars"/><g class="lines"><path class="js-line" d="M0,63.33L7.4,63.77L8.63,63.33L32.07,64.66L33.3,64.66L53.04,64.44L54.27,66.11L71.54,65.44L72.78,66.89L86.34,67.22L87.58,68.44L90.04,67.77L91.28,67.11L93.74,69L94.98,69L125.81,68.11L127.05,67.33L131.98,68.55L133.22,69.11L145.55,70.33L146.78,70.78L155.42,71.55L156.65,71.55L199.82,71.55L201.06,73.67L204.76,73.89" style="vector-effect: none; fill: none; stroke: rgb(238, 58, 67); stroke-opacity: 1; stroke-width: 5px; opacity: 1;"/></g><g class="points"/><g class="text"/></g><g class="trace scatter tracef0d795" style="stroke-miterlimit: 2; opacity: 1;"><g class="fills"/><g class="errorbars"/><g class="lines"><path class="js-line" d="M0,63.77L8.63,64.88L9.87,64.22L13.57,63.55L14.8,63.55L53.04,63.77L54.27,65.11L71.54,64.22L72.78,56.99L86.34,57.66L87.58,58.33L109.78,58.66L111.01,59.1L124.58,58.33L125.81,61.55L128.28,59.33L129.52,59.33L130.75,59.44L131.98,61.11L134.45,62.44L135.68,62.44L136.92,62.11L138.15,63.22L145.55,63.33L146.78,63.22L155.42,63.88L156.65,63.88L159.12,63.44L160.35,62.44L161.59,62.44L162.82,60.88L172.69,60.88L173.92,62.33L180.09,64.33L181.32,64.33L183.79,65.22L185.02,65.22L199.82,65.55L201.06,69L223.26,70.11L224.49,71.11L240.53,72.22L241.76,73L247.93,73.55" style="vector-effect: none; fill: none; stroke: rgb(255, 1, 170); stroke-opacity: 1; stroke-width: 5px; opacity: 1;"/></g><g class="points"/><g class="text"/></g><g class="trace scatter traceb40e22" style="stroke-miterlimit: 2; opacity: 1;"><g class="fills"/><g class="errorbars"/><g class="lines"><path class="js-line" d="M0,67.22L13.57,67.33L14.8,67.33L53.04,68.55L54.27,69.44L69.07,69.44L71.54,68.11L72.78,71L75.24,71L91.28,71.89L92.51,72.33L145.55,73.11L146.78,73.55L181.32,73.55" style="vector-effect: none; fill: none; stroke: rgb(255, 192, 203); stroke-opacity: 1; stroke-width: 5px; opacity: 1;"/></g><g class="points"/><g class="text"/></g></g></g><g class="overplot"/><path class="xlines-above crisp" d="M0,0" style="fill: none;"/><path class="ylines-above crisp" d="M0,0" style="fill: none;"/><g class="overlines-above"/><g class="xaxislayer-above"/><g class="yaxislayer-above"/><g class="overaxes-above"/></g></g><g class="polarlayer"/><g class="smithlayer"/><g class="ternarylayer"/><g class="geolayer"/><g class="funnelarealayer"/><g class="pielayer"/><g class="iciclelayer"/><g class="treemaplayer"/><g class="sunburstlayer"/><g class="glimages"/><defs id="topdefs-704262"><g class="clips"/></defs><g class="layer-above"><g class="imagelayer"/><g class="shapelayer"/></g><g class="infolayer"><g class="g-gtitle"><text class="gtitle" x="15" y="25" text-anchor="start" dy="0em" style="font-family: Ubuntu, verdana, arial, sans-serif; font-size: 16px; fill: rgb(233, 84, 32); opacity: 1; font-weight: normal; white-space: pre;">Prezident/ka 2024</text></g><g class="g-xtitle"/><g class="g-ytitle"/></g></svg>