<svg class="main-svg" xmlns="http://www.w3.org/2000/svg" xmlns:xlink="http://www.w3.org/1999/xlink" width="300" height="135" style="" viewBox="0 0 300 135"><rect x="0" y="0" width="300" height="135" style="fill: rgb(255, 255, 255); fill-opacity: 1;"/><defs id="defs-7eac2c"><g class="clips"><clipPath id="clip7eac2cxyplot" class="plotclip"><rect width="280" height="75"/></clipPath><clipPath class="axesclip" id="clip7eac2cx"><rect x="10" y="0" width="280" height="135"/></clipPath><clipPath class="axesclip" id="clip7eac2cy"><rect x="0" y="50" width="300" height="75"/></clipPath><clipPath class="axesclip" id="clip7eac2cxy"><rect x="10" y="50" width="280" height="75"/></clipPath></g><g class="gradients"/><g class="patterns"/></defs><g class="bglayer"/><g class="layer-below"><g class="imagelayer"/><g class="shapelayer"/></g><g class="cartesianlayer"><g class="subplot xy"><g class="layer-subplot"><g class="shapelayer"/><g class="imagelayer"/></g><g class="minor-gridlayer"><g class="x"/><g class="y"/></g><g class="gridlayer"><g class="x"><path class="xgrid crisp" transform="translate(23.93,0)" d="M0,50v75" style="stroke: rgb(235, 240, 248); stroke-opacity: 1; stroke-width: 1px;"/><path class="xgrid crisp" transform="translate(110.3,0)" d="M0,50v75" style="stroke: rgb(235, 240, 248); stroke-opacity: 1; stroke-width: 1px;"/><path class="xgrid crisp" transform="translate(195.27,0)" d="M0,50v75" style="stroke: rgb(235, 240, 248); stroke-opacity: 1; stroke-width: 1px;"/><path class="xgrid crisp" transform="translate(280.25,0)" d="M0,50v75" style="stroke: rgb(235, 240, 248); stroke-opacity: 1; stroke-width: 1px;"/></g><g class="y"><path class="ygrid crisp" transform="translate(0,102.38)" d="M10,0h280" style="stroke: rgb(235, 240, 248); stroke-opacity: 1; stroke-width: 1px;"/><path class="ygrid crisp" transform="translate(0,79.76)" d="M10,0h280" style="stroke: rgb(235, 240, 248); stroke-opacity: 1; stroke-width: 1px;"/><path class="ygrid crisp" transform="translate(0,57.14)" d="M10,0h280" style="stroke: rgb(235, 240, 248); stroke-opacity: 1; stroke-width: 1px;"/></g></g><g class="zerolinelayer"><path class="yzl zl crisp" transform="translate(0,125)" d="M10,0h280" style="stroke: rgb(235, 240, 248); stroke-opacity: 1; stroke-width: 2px;"/></g><path class="xlines-below"/><path class="ylines-below"/><g class="overlines-below"/><g class="xaxislayer-below"/><g class="yaxislayer-below"/><g class="overaxes-below"/><g class="plot" transform="translate(10,50)" clip-path="url(#clip7eac2cxyplot)"><g class="scatterlayer mlayer"><g class="trace scatter trace9be6e3" style="stroke-miterlimit: 2; opacity: 1;"><g class="fills"/><g class="errorbars"/><g class="lines"><path class="js-line" d="M0,51.36L4.18,48.42L5.57,48.42L11.14,48.65L12.54,47.86L32.04,46.95L33.43,46.27L59.9,45.48L61.29,40.73L78.01,40.73L80.8,44.01L84.98,43.33L86.37,43.33L96.12,43.11L97.51,45.6L100.3,46.84L101.69,46.39L103.08,45.93L104.48,46.95L140.7,46.27L142.09,44.01L144.88,44.92L146.27,44.92L147.66,44.69L149.05,40.96L151.84,38.7L153.23,38.7L154.63,38.13L156.02,34.4L158.81,32.25L160.2,32.25L164.38,31.57L165.77,30.55L169.95,28.07L171.34,28.07L182.49,28.4L183.88,29.54L195.02,29.54L196.42,27.95L197.81,27.95L199.2,25.24L204.78,25.24L206.17,22.18L214.53,22.18L215.92,20.38L224.28,17.43L225.67,17.43L227.06,13.59L228.46,13.59L229.85,13.59L231.24,11.67L232.64,7.03L234.03,7.03L245.17,7.03L246.57,8.73L249.35,9.52L250.75,9.52L252.14,9.97L253.53,11.78L256.32,12.01L257.71,11.21L271.64,11.33L273.03,7.6L275.82,3.86L277.21,3.75L280,4.09" style="vector-effect: none; fill: none; stroke: rgb(138, 44, 81); stroke-opacity: 1; stroke-width: 5px; opacity: 1;"/></g><g class="points"/><g class="text"/></g><g class="trace scatter trace86c17b" style="stroke-miterlimit: 2; opacity: 1;"><g class="fills"/><g class="errorbars"/><g class="lines"><path class="js-line" d="M0,25.69L5.57,27.27L6.97,27.27L11.14,27.05L12.54,26.37L80.8,27.39L82.19,30.55L96.12,29.54L97.51,26.93L98.91,23.09L100.3,23.09L103.08,25.13L104.48,21.73L117.01,21.73L118.41,23.43L119.8,23.43L121.19,21.73L122.59,23.43L123.98,21.39L126.77,20.94L128.16,23.09L130.95,20.94L132.34,20.94L133.73,20.94L135.12,23.09L136.52,23.09L137.91,20.94L140.7,23.09L142.09,21.05L144.88,23.65L146.27,23.65L154.63,24.9L156.02,26.82L160.2,27.61L161.59,27.61L179.7,28.4L181.09,29.08L214.53,30.1L215.92,31.91L225.67,34.29L227.06,32.14L231.24,33.27L232.64,34.74L245.17,34.74L246.57,33.15L249.35,32.25L250.75,32.25L252.14,31.8L253.53,29.2L256.32,28.63L257.71,28.97L271.64,28.4L273.03,31.35L275.82,34.74L277.21,34.85L280,34.51" style="vector-effect: none; fill: none; stroke: rgb(0, 174, 239); stroke-opacity: 1; stroke-width: 5px; opacity: 1;"/></g><g class="points"/><g class="text"/></g><g class="trace scatter tracecb4149" style="stroke-miterlimit: 2; opacity: 1;"><g class="fills"/><g class="errorbars"/><g class="lines"><path class="js-line" d="M0,63.58L9.75,64.71L11.14,64.03L15.32,63.35L16.72,63.35L59.9,63.58L61.29,64.93L80.8,64.03L82.19,56.68L97.51,57.36L98.91,58.04L123.98,58.38L125.37,58.83L140.7,58.04L142.09,61.32L144.88,59.05L146.27,59.05L147.66,59.17L149.05,60.86L151.84,62.22L153.23,62.22L154.63,61.88L156.02,63.01L164.38,63.13L165.77,63.01L175.52,63.69L176.92,63.69L179.7,63.24L181.09,62.22L182.49,62.22L183.88,60.64L195.02,60.64L196.42,62.11L201.99,64.14L203.38,64.14L225.67,65.39L227.06,68.89L252.14,70.02L253.53,71.04L271.64,72.17L273.03,72.96L278.61,73.3L280,73.3" style="vector-effect: none; fill: none; stroke: rgb(255, 1, 170); stroke-opacity: 1; stroke-width: 5px; opacity: 1;"/></g><g class="points"/><g class="text"/></g><g class="trace scatter tracea4ba4c" style="stroke-miterlimit: 2; opacity: 1;"><g class="fills"/><g class="errorbars"/><g class="lines"><path class="js-line" d="M0,63.13L8.36,63.58L9.75,63.13L36.22,64.48L37.61,64.48L59.9,64.26L61.29,65.95L80.8,65.27L82.19,66.74L97.51,67.08L98.91,68.33L101.69,67.65L103.08,66.97L105.87,68.89L107.26,68.89L142.09,67.99L143.48,67.2L149.05,68.44L150.45,69.01L164.38,70.25L165.77,70.7L175.52,71.49L176.92,71.49L225.67,71.49L227.06,73.64L231.24,73.87" style="vector-effect: none; fill: none; stroke: rgb(238, 58, 67); stroke-opacity: 1; stroke-width: 5px; opacity: 1;"/></g><g class="points"/><g class="text"/></g><g class="trace scatter trace7baae9" style="stroke-miterlimit: 2; opacity: 1;"><g class="fills"/><g class="errorbars"/><g class="lines"><path class="js-line" d="M0,67.08L13.93,67.2L15.32,67.2L59.9,68.44L61.29,69.35L78.01,69.35L80.8,67.99L82.19,70.93L84.98,70.93L103.08,71.83L104.48,72.29L164.38,73.08L165.77,73.53L204.78,73.53" style="vector-effect: none; fill: none; stroke: rgb(255, 192, 203); stroke-opacity: 1; stroke-width: 5px; opacity: 1;"/></g><g class="points"/><g class="text"/></g></g></g><g class="overplot"/><path class="xlines-above crisp" d="M0,0" style="fill: none;"/><path class="ylines-above crisp" d="M0,0" style="fill: none;"/><g class="overlines-above"/><g class="xaxislayer-above"/><g class="yaxislayer-above"/><g class="overaxes-above"/></g></g><g class="polarlayer"/><g class="smithlayer"/><g class="ternarylayer"/><g class="geolayer"/><g class="funnelarealayer"/><g class="pielayer"/><g class="iciclelayer"/><g class="treemaplayer"/><g class="sunburstlayer"/><g class="glimages"/><defs id="topdefs-7eac2c"><g class="clips"/></defs><g class="layer-above"><g class="imagelayer"/><g class="shapelayer"/></g><g class="infolayer"><g class="g-gtitle"><text class="gtitle" x="15" y="25" text-anchor="start" dy="0em" style="font-family: Ubuntu, verdana, arial, sans-serif; font-size: 16px; fill: rgb(233, 84, 32); opacity: 1; font-weight: normal; white-space: pre;">Prezident/ka 2024</text></g><g class="g-xtitle"/><g class="g-ytitle"/></g></svg>