<svg class="main-svg" xmlns="http://www.w3.org/2000/svg" xmlns:xlink="http://www.w3.org/1999/xlink" width="400" height="400" style="" viewBox="0 0 400 400"><rect x="0" y="0" width="400" height="400" style="fill: rgb(255, 255, 255); fill-opacity: 1;"/><defs id="defs-770abd"><g class="clips"><clipPath id="clip770abdxyplot" class="plotclip"><rect width="206" height="330"/></clipPath><clipPath class="axesclip" id="clip770abdx"><rect x="50" y="0" width="206" height="400"/></clipPath><clipPath class="axesclip" id="clip770abdy"><rect x="0" y="20" width="400" height="330"/></clipPath><clipPath class="axesclip" id="clip770abdxy"><rect x="50" y="20" width="206" height="330"/></clipPath></g><g class="gradients"/><g class="patterns"/></defs><g class="bglayer"/><g class="layer-below"><g class="imagelayer"/><g class="shapelayer"/></g><g class="cartesianlayer"><g class="subplot xy"><g class="layer-subplot"><g class="shapelayer"/><g class="imagelayer"/></g><g class="minor-gridlayer"><g class="x"/><g class="y"/></g><g class="gridlayer"><g class="x"><path class="xgrid crisp" transform="translate(56.87,0)" d="M0,20v330" style="stroke: rgb(235, 240, 248); stroke-opacity: 1; stroke-width: 1px;"/><path class="xgrid crisp" transform="translate(99.44,0)" d="M0,20v330" style="stroke: rgb(235, 240, 248); stroke-opacity: 1; stroke-width: 1px;"/><path class="xgrid crisp" transform="translate(141.32999999999998,0)" d="M0,20v330" style="stroke: rgb(235, 240, 248); stroke-opacity: 1; stroke-width: 1px;"/><path class="xgrid crisp" transform="translate(183.21,0)" d="M0,20v330" style="stroke: rgb(235, 240, 248); stroke-opacity: 1; stroke-width: 1px;"/><path class="xgrid crisp" transform="translate(224.41,0)" d="M0,20v330" style="stroke: rgb(235, 240, 248); stroke-opacity: 1; stroke-width: 1px;"/></g><g class="y"><path class="ygrid crisp" transform="translate(0,300.32)" d="M50,0h206" style="stroke: rgb(235, 240, 248); stroke-opacity: 1; stroke-width: 1px;"/><path class="ygrid crisp" transform="translate(0,250.63)" d="M50,0h206" style="stroke: rgb(235, 240, 248); stroke-opacity: 1; stroke-width: 1px;"/><path class="ygrid crisp" transform="translate(0,200.95)" d="M50,0h206" style="stroke: rgb(235, 240, 248); stroke-opacity: 1; stroke-width: 1px;"/><path class="ygrid crisp" transform="translate(0,151.27)" d="M50,0h206" style="stroke: rgb(235, 240, 248); stroke-opacity: 1; stroke-width: 1px;"/><path class="ygrid crisp" transform="translate(0,101.58)" d="M50,0h206" style="stroke: rgb(235, 240, 248); stroke-opacity: 1; stroke-width: 1px;"/><path class="ygrid crisp" transform="translate(0,51.9)" d="M50,0h206" style="stroke: rgb(235, 240, 248); stroke-opacity: 1; stroke-width: 1px;"/></g></g><g class="zerolinelayer"><path class="yzl zl crisp" transform="translate(0,350)" d="M50,0h206" style="stroke: rgb(235, 240, 248); stroke-opacity: 1; stroke-width: 2px;"/></g><path class="xlines-below"/><path class="ylines-below"/><g class="overlines-below"/><g class="xaxislayer-below"/><g class="yaxislayer-below"/><g class="overaxes-below"/><g class="plot" transform="translate(50,20)" clip-path="url(#clip770abdxyplot)"><g class="scatterlayer mlayer"><g class="trace scatter trace4691aa" style="stroke-miterlimit: 2; opacity: 1;"><g class="fills"/><g class="errorbars"/><g class="lines"><path class="js-line" d="M0,226.16L2.06,213.24L2.75,213.24L4.12,213.24L4.81,216.72L6.87,210.76L7.55,210.76L9.61,210.76L10.3,209.27L12.36,209.27L13.05,207.78L15.11,206.79L15.79,206.79L17.17,203.81L17.85,203.81L25.41,203.81L26.09,200.33L29.53,200.33L30.21,179.46L38.45,179.46L39.83,193.87L40.51,190.89L41.89,190.89L47.38,189.89L48.07,200.82L49.44,206.29L50.13,204.3L50.81,202.31L51.5,206.79L57.68,206.79L58.37,204.8L59.05,204.8L59.74,206.79L60.43,204.8L61.11,206.29L61.8,204.8L69.35,203.81L70.04,193.87L71.41,197.84L72.1,197.84L72.79,196.85L73.47,180.45L74.85,170.52L75.53,170.52L76.22,168.03L76.91,151.64L78.97,142.2L79.65,142.2L80.34,142.2L81.03,139.22L83.77,123.82L84.46,123.82L88.58,124.31L89.27,125.31L89.95,125.31L90.64,130.27L96.13,130.27L96.82,123.32L97.51,123.32L98.19,111.39L100.94,111.39L101.63,97.98L105.75,97.98L106.43,90.03L107.81,87.05L108.49,87.05L111.24,77.11L111.93,60.22L113.3,60.22L113.99,51.77L115.36,31.4L116.05,31.4L120.85,31.4L121.54,38.86L122.91,42.34L123.6,42.34L124.29,44.32L124.97,52.27L125.66,55.25L126.35,53.27L127.03,49.79L132.53,48.79L133.21,51.28L133.9,50.28L134.59,33.89L136.65,16.5" style="vector-effect: none; fill: none; stroke: rgb(138, 44, 81); stroke-opacity: 1; stroke-width: 5px; opacity: 1;"/></g><g class="points"/><g class="text"/></g><g class="trace scatter trace652986" style="stroke-miterlimit: 2; opacity: 1;"><g class="fills"/><g class="errorbars"/><g class="lines"><path class="js-line" d="M0,113.38L2.06,120.34L2.75,120.34L4.12,120.34L4.81,123.82L6.87,116.36L7.55,116.36L13.05,117.36L13.73,118.35L15.79,118.35L16.48,120.83L39.83,120.83L40.51,134.75L46.01,134.75L46.69,132.26L47.38,130.27L48.07,118.85L49.44,101.95L50.13,106.43L50.81,110.9L51.5,95.99L57.68,95.99L58.37,103.45L59.05,103.45L59.74,95.99L60.43,103.45L61.11,94.5L62.49,92.52L63.17,101.95L64.55,92.52L65.23,92.52L65.92,92.52L66.61,101.95L67.29,101.95L67.98,92.52L69.35,101.95L70.04,93.01L71.41,104.44L72.1,104.44L72.79,104.44L73.47,107.42L75.53,107.42L76.22,109.9L78.28,121.83L78.97,121.83L81.71,121.83L82.4,123.32L85.15,123.82L85.83,123.82L87.89,123.82L88.58,125.31L90.64,130.27L92.01,130.27L96.82,130.77L97.51,128.78L98.88,133.75L99.57,133.75L105.75,132.76L106.43,140.71L107.81,142.69L108.49,142.69L111.24,151.14L111.93,141.7L113.3,141.7L113.99,146.67L115.36,153.13L116.05,153.13L120.85,153.13L121.54,146.17L122.91,142.2L123.6,142.2L124.29,140.21L124.97,128.78L125.66,125.31L126.35,126.3L127.03,127.79L132.53,127.79L133.21,125.31L133.9,125.31L134.59,138.22L136.65,154.12" style="vector-effect: none; fill: none; stroke: rgb(0, 174, 239); stroke-opacity: 1; stroke-width: 5px; opacity: 1;"/></g><g class="points"/><g class="text"/></g><g class="trace scatter tracece9cc1" style="stroke-miterlimit: 2; opacity: 1;"><g class="fills"/><g class="errorbars"/><g class="lines"><path class="js-line" d="M0,279.82L2.06,281.31L2.75,281.31L4.12,281.31L4.81,284.79L6.87,278.83L7.55,278.83L29.53,279.82L30.21,285.78L38.45,285.78L39.83,281.81L40.51,249.51L41.89,249.51L46.01,249.51L46.69,251L49.44,255.48L50.13,253.98L50.81,252L51.5,255.97L57.68,255.97L58.37,253.98L59.05,253.98L59.74,255.97L60.43,253.98L61.11,256.97L62.49,258.95L63.17,255.48L64.55,258.95L65.23,258.95L65.92,258.95L66.61,255.48L67.29,255.48L67.98,258.95L69.35,255.48L70.04,269.88L71.41,259.95L72.1,259.95L72.79,260.44L73.47,267.9L74.85,273.86L75.53,273.86L76.22,272.37L76.91,277.34L78.97,278.33L79.65,278.33L82.4,278.33L83.09,280.32L87.89,280.32L88.58,278.33L90.64,266.9L92.01,266.9L96.13,266.9L96.82,273.36L97.51,275.35L98.19,282.3L100.94,282.3L101.63,286.28L109.87,287.27L110.55,287.77L111.24,287.77L111.93,303.17L113.3,303.17L113.99,305.16L115.36,308.14L116.05,308.14L124.29,308.14L124.97,312.61L126.35,313.6L127.03,315.59L133.21,316.59L133.9,317.58L135.96,322.55L136.65,322.55" style="vector-effect: none; fill: none; stroke: rgb(255, 1, 170); stroke-opacity: 1; stroke-width: 5px; opacity: 1;"/></g><g class="points"/><g class="text"/></g><g class="trace scatter trace4e8b8b" style="stroke-miterlimit: 2; opacity: 1;"><g class="fills"/><g class="errorbars"/><g class="lines"><path class="js-line" d="M0,290.75L3.43,291.74L4.12,291.74L4.81,284.79L5.49,294.23L6.87,300.19L7.55,300.19L25.41,299.2L26.09,298.7L29.53,298.7L30.21,301.18L39.83,300.19L40.51,302.18L49.44,302.67L50.13,304.66L50.81,306.65L51.5,303.17L57.68,303.17L58.37,304.66L59.05,304.66L59.74,303.17L62.49,306.15L63.17,306.65L65.92,306.15L66.61,306.65L69.35,306.65L70.04,308.14L73.47,308.14L74.16,309.13L76.91,310.13L77.59,311.62L81.71,314.6L82.4,315.59L84.46,317.08L85.15,317.08L100.94,317.08L101.63,322.05L111.24,322.55L111.93,324.04L113.99,325.03" style="vector-effect: none; fill: none; stroke: rgb(202, 166, 105); stroke-opacity: 1; stroke-width: 5px; opacity: 1;"/></g><g class="points"/><g class="text"/></g><g class="trace scatter trace5e39f5" style="stroke-miterlimit: 2; opacity: 1;"><g class="fills"/><g class="errorbars"/><g class="lines"><path class="js-line" d="M0,277.83L2.75,279.82L3.43,279.82L4.12,279.82L4.81,277.83L5.49,278.33L6.18,280.81L12.36,281.31L13.05,282.8L15.11,283.79L15.79,283.79L29.53,282.8L30.21,290.25L38.45,290.25L39.83,287.27L40.51,293.73L41.89,293.73L46.69,294.23L47.38,295.22L48.07,295.22L48.75,300.69L49.44,300.69L50.13,297.71L50.81,294.73L51.5,303.17L57.68,303.17L58.37,299.2L59.05,299.2L59.74,303.17L60.43,299.2L61.11,302.67L62.49,302.67L63.17,298.7L64.55,302.67L65.23,302.67L65.92,302.67L66.61,298.7L67.29,298.7L67.98,302.67L69.35,298.7L70.04,299.2L71.41,295.72L72.1,295.72L72.79,296.22L73.47,301.18L74.85,303.67L75.53,303.67L78.97,308.14L79.65,308.14L81.03,309.13L81.71,311.12L84.46,314.6L85.15,314.6L111.24,314.6L111.93,324.04L113.99,325.03" style="vector-effect: none; fill: none; stroke: rgb(238, 58, 67); stroke-opacity: 1; stroke-width: 5px; opacity: 1;"/></g><g class="points"/><g class="text"/></g><g class="trace scatter tracefe4bd0" style="stroke-miterlimit: 2; opacity: 1;"><g class="fills"/><g class="errorbars"/><g class="lines"><path class="js-line" d="M0,295.22L3.43,296.71L4.12,296.71L6.87,295.72L7.55,295.72L15.79,296.22L16.48,297.21L25.41,297.21L26.09,301.18L29.53,301.18L30.21,305.16L38.45,305.16L39.83,299.2L40.51,312.11L41.89,312.11L48.07,312.61L48.75,316.09L50.81,316.09L51.5,318.08L69.35,317.08L70.04,318.57L72.1,317.58L72.79,317.58L76.22,318.57L76.91,319.57L81.03,321.55L81.71,323.54L100.94,323.54" style="vector-effect: none; fill: none; stroke: rgb(255, 192, 203); stroke-opacity: 1; stroke-width: 5px; opacity: 1;"/></g><g class="points"/><g class="text"/></g></g></g><g class="overplot"/><path class="xlines-above crisp" d="M0,0" style="fill: none;"/><path class="ylines-above crisp" d="M0,0" style="fill: none;"/><g class="overlines-above"/><g class="xaxislayer-above"><g class="xtick"><text text-anchor="middle" x="0" y="363" transform="translate(56.87,0)" style="font-family: 'Open Sans', verdana, arial, sans-serif; font-size: 12px; fill: rgb(42, 63, 95); fill-opacity: 1; white-space: pre; opacity: 1;">1.7.23</text></g><g class="xtick"><text text-anchor="middle" x="0" y="363" style="font-family: 'Open Sans', verdana, arial, sans-serif; font-size: 12px; fill: rgb(42, 63, 95); fill-opacity: 1; white-space: pre; opacity: 1;" transform="translate(99.44,0)">1.9.23</text></g><g class="xtick"><text text-anchor="middle" x="0" y="363" style="font-family: 'Open Sans', verdana, arial, sans-serif; font-size: 12px; fill: rgb(42, 63, 95); fill-opacity: 1; white-space: pre; opacity: 1;" transform="translate(141.32999999999998,0)">1.11.23</text></g><g class="xtick"><text text-anchor="middle" x="0" y="363" style="font-family: 'Open Sans', verdana, arial, sans-serif; font-size: 12px; fill: rgb(42, 63, 95); fill-opacity: 1; white-space: pre; opacity: 1;" transform="translate(183.21,0)">1.1.24</text></g><g class="xtick"><text text-anchor="middle" x="0" y="363" style="font-family: 'Open Sans', verdana, arial, sans-serif; font-size: 12px; fill: rgb(42, 63, 95); fill-opacity: 1; white-space: pre; opacity: 1;" transform="translate(224.41,0)">1.3.24</text></g></g><g class="yaxislayer-above"><g class="ytick"><text text-anchor="end" x="49" y="4.199999999999999" transform="translate(0,350)" style="font-family: 'Open Sans', verdana, arial, sans-serif; font-size: 12px; fill: rgb(42, 63, 95); fill-opacity: 1; white-space: pre; opacity: 1;">0%</text></g><g class="ytick"><text text-anchor="end" x="49" y="4.199999999999999" style="font-family: 'Open Sans', verdana, arial, sans-serif; font-size: 12px; fill: rgb(42, 63, 95); fill-opacity: 1; white-space: pre; opacity: 1;" transform="translate(0,300.32)">10%</text></g><g class="ytick"><text text-anchor="end" x="49" y="4.199999999999999" style="font-family: 'Open Sans', verdana, arial, sans-serif; font-size: 12px; fill: rgb(42, 63, 95); fill-opacity: 1; white-space: pre; opacity: 1;" transform="translate(0,250.63)">20%</text></g><g class="ytick"><text text-anchor="end" x="49" y="4.199999999999999" style="font-family: 'Open Sans', verdana, arial, sans-serif; font-size: 12px; fill: rgb(42, 63, 95); fill-opacity: 1; white-space: pre; opacity: 1;" transform="translate(0,200.95)">30%</text></g><g class="ytick"><text text-anchor="end" x="49" y="4.199999999999999" style="font-family: 'Open Sans', verdana, arial, sans-serif; font-size: 12px; fill: rgb(42, 63, 95); fill-opacity: 1; white-space: pre; opacity: 1;" transform="translate(0,151.27)">40%</text></g><g class="ytick"><text text-anchor="end" x="49" y="4.199999999999999" style="font-family: 'Open Sans', verdana, arial, sans-serif; font-size: 12px; fill: rgb(42, 63, 95); fill-opacity: 1; white-space: pre; opacity: 1;" transform="translate(0,101.58)">50%</text></g><g class="ytick"><text text-anchor="end" x="49" y="4.199999999999999" style="font-family: 'Open Sans', verdana, arial, sans-serif; font-size: 12px; fill: rgb(42, 63, 95); fill-opacity: 1; white-space: pre; opacity: 1;" transform="translate(0,51.9)">60%</text></g></g><g class="overaxes-above"/></g></g><g class="polarlayer"/><g class="smithlayer"/><g class="ternarylayer"/><g class="geolayer"/><g class="funnelarealayer"/><g class="pielayer"/><g class="iciclelayer"/><g class="treemaplayer"/><g class="sunburstlayer"/><g class="glimages"/><defs id="topdefs-770abd"><g class="clips"/><clipPath id="legend770abd"><rect width="128" height="124" x="0" y="0"/></clipPath></defs><g class="layer-above"><g class="imagelayer"/><g class="shapelayer"/></g><g class="infolayer"><g class="legend" pointer-events="all" transform="translate(260.12,20)"><rect class="bg" shape-rendering="crispEdges" width="128" height="124" x="0" y="0" style="stroke: rgb(68, 68, 68); stroke-opacity: 1; fill: rgb(255, 255, 255); fill-opacity: 1; stroke-width: 0px;"/><g class="scrollbox" transform="" clip-path="url(#legend770abd)"><g class="groups"><g class="traces" transform="translate(0,14.5)" style="opacity: 1;"><text class="legendtext" text-anchor="start" x="40" y="4.680000000000001" style="font-family: 'Open Sans', verdana, arial, sans-serif; font-size: 12px; fill: rgb(42, 63, 95); fill-opacity: 1; white-space: pre;">Pellegrini Peter</text><g class="layers" style="opacity: 1;"><g class="legendfill"/><g class="legendlines"><path class="js-line" d="M5,0h30" style="fill: none; stroke: rgb(138, 44, 81); stroke-opacity: 1; stroke-width: 5px;"/></g><g class="legendsymbols"><g class="legendpoints"/></g></g><rect class="legendtoggle" x="0" y="-9.5" width="122.703125" height="19" style="fill: rgb(0, 0, 0); fill-opacity: 0;"/></g><g class="traces" transform="translate(0,33.5)" style="opacity: 1;"><text class="legendtext" text-anchor="start" x="40" y="4.680000000000001" style="font-family: 'Open Sans', verdana, arial, sans-serif; font-size: 12px; fill: rgb(42, 63, 95); fill-opacity: 1; white-space: pre;">Korčok Ivan</text><g class="layers" style="opacity: 1;"><g class="legendfill"/><g class="legendlines"><path class="js-line" d="M5,0h30" style="fill: none; stroke: rgb(0, 174, 239); stroke-opacity: 1; stroke-width: 5px;"/></g><g class="legendsymbols"><g class="legendpoints"/></g></g><rect class="legendtoggle" x="0" y="-9.5" width="122.703125" height="19" style="fill: rgb(0, 0, 0); fill-opacity: 0;"/></g><g class="traces" transform="translate(0,52.5)" style="opacity: 1;"><text class="legendtext" text-anchor="start" x="40" y="4.680000000000001" style="font-family: 'Open Sans', verdana, arial, sans-serif; font-size: 12px; fill: rgb(42, 63, 95); fill-opacity: 1; white-space: pre;">Kubiš Ján</text><g class="layers" style="opacity: 1;"><g class="legendfill"/><g class="legendlines"><path class="js-line" d="M5,0h30" style="fill: none; stroke: rgb(255, 1, 170); stroke-opacity: 1; stroke-width: 5px;"/></g><g class="legendsymbols"><g class="legendpoints"/></g></g><rect class="legendtoggle" x="0" y="-9.5" width="122.703125" height="19" style="fill: rgb(0, 0, 0); fill-opacity: 0;"/></g><g class="traces" transform="translate(0,71.5)" style="opacity: 1;"><text class="legendtext" text-anchor="start" x="40" y="4.680000000000001" style="font-family: 'Open Sans', verdana, arial, sans-serif; font-size: 12px; fill: rgb(42, 63, 95); fill-opacity: 1; white-space: pre;">Mistrík Robert</text><g class="layers" style="opacity: 1;"><g class="legendfill"/><g class="legendlines"><path class="js-line" d="M5,0h30" style="fill: none; stroke: rgb(202, 166, 105); stroke-opacity: 1; stroke-width: 5px;"/></g><g class="legendsymbols"><g class="legendpoints"/></g></g><rect class="legendtoggle" x="0" y="-9.5" width="122.703125" height="19" style="fill: rgb(0, 0, 0); fill-opacity: 0;"/></g><g class="traces" transform="translate(0,90.5)" style="opacity: 1;"><text class="legendtext" text-anchor="start" x="40" y="4.680000000000001" style="font-family: 'Open Sans', verdana, arial, sans-serif; font-size: 12px; fill: rgb(42, 63, 95); fill-opacity: 1; white-space: pre;">Fico Robert</text><g class="layers" style="opacity: 1;"><g class="legendfill"/><g class="legendlines"><path class="js-line" d="M5,0h30" style="fill: none; stroke: rgb(238, 58, 67); stroke-opacity: 1; stroke-width: 5px;"/></g><g class="legendsymbols"><g class="legendpoints"/></g></g><rect class="legendtoggle" x="0" y="-9.5" width="122.703125" height="19" style="fill: rgb(0, 0, 0); fill-opacity: 0;"/></g><g class="traces" transform="translate(0,109.5)" style="opacity: 1;"><text class="legendtext" text-anchor="start" x="40" y="4.680000000000001" style="font-family: 'Open Sans', verdana, arial, sans-serif; font-size: 12px; fill: rgb(42, 63, 95); fill-opacity: 1; white-space: pre;">Lajčák Miroslav</text><g class="layers" style="opacity: 1;"><g class="legendfill"/><g class="legendlines"><path class="js-line" d="M5,0h30" style="fill: none; stroke: rgb(255, 192, 203); stroke-opacity: 1; stroke-width: 5px;"/></g><g class="legendsymbols"><g class="legendpoints"/></g></g><rect class="legendtoggle" x="0" y="-9.5" width="122.703125" height="19" style="fill: rgb(0, 0, 0); fill-opacity: 0;"/></g></g></g><rect class="scrollbar" rx="20" ry="3" width="0" height="0" x="0" y="0" style="fill: rgb(128, 139, 164); fill-opacity: 1;"/></g><g class="g-gtitle"/><g class="g-xtitle"/><g class="g-ytitle"/></g></svg>