<svg class="main-svg" xmlns="http://www.w3.org/2000/svg" xmlns:xlink="http://www.w3.org/1999/xlink" width="300" height="135" style="" viewBox="0 0 300 135"><rect x="0" y="0" width="300" height="135" style="fill: rgb(255, 255, 255); fill-opacity: 1;"/><defs id="defs-58863e"><g class="clips"><clipPath id="clip58863exyplot" class="plotclip"><rect width="280" height="75"/></clipPath><clipPath class="axesclip" id="clip58863ex"><rect x="10" y="0" width="280" height="135"/></clipPath><clipPath class="axesclip" id="clip58863ey"><rect x="0" y="50" width="300" height="75"/></clipPath><clipPath class="axesclip" id="clip58863exy"><rect x="10" y="50" width="280" height="75"/></clipPath></g><g class="gradients"/><g class="patterns"/></defs><g class="bglayer"/><g class="layer-below"><g class="imagelayer"/><g class="shapelayer"/></g><g class="cartesianlayer"><g class="subplot xy"><g class="layer-subplot"><g class="shapelayer"/><g class="imagelayer"/></g><g class="minor-gridlayer"><g class="x"/><g class="y"/></g><g class="gridlayer"><g class="x"><path class="xgrid crisp" transform="translate(21.86,0)" d="M0,50v75" style="stroke: rgb(235, 240, 248); stroke-opacity: 1; stroke-width: 1px;"/><path class="xgrid crisp" transform="translate(95.42,0)" d="M0,50v75" style="stroke: rgb(235, 240, 248); stroke-opacity: 1; stroke-width: 1px;"/><path class="xgrid crisp" transform="translate(167.8,0)" d="M0,50v75" style="stroke: rgb(235, 240, 248); stroke-opacity: 1; stroke-width: 1px;"/><path class="xgrid crisp" transform="translate(240.17,0)" d="M0,50v75" style="stroke: rgb(235, 240, 248); stroke-opacity: 1; stroke-width: 1px;"/></g><g class="y"><path class="ygrid crisp" transform="translate(0,102.77000000000001)" d="M10,0h280" style="stroke: rgb(235, 240, 248); stroke-opacity: 1; stroke-width: 1px;"/><path class="ygrid crisp" transform="translate(0,80.53999999999999)" d="M10,0h280" style="stroke: rgb(235, 240, 248); stroke-opacity: 1; stroke-width: 1px;"/><path class="ygrid crisp" transform="translate(0,58.31)" d="M10,0h280" style="stroke: rgb(235, 240, 248); stroke-opacity: 1; stroke-width: 1px;"/></g></g><g class="zerolinelayer"><path class="yzl zl crisp" transform="translate(0,125)" d="M10,0h280" style="stroke: rgb(235, 240, 248); stroke-opacity: 1; stroke-width: 2px;"/></g><path class="xlines-below"/><path class="ylines-below"/><g class="overlines-below"/><g class="xaxislayer-below"/><g class="yaxislayer-below"/><g class="overaxes-below"/><g class="plot" transform="translate(10,50)" clip-path="url(#clip58863exyplot)"><g class="scatterlayer mlayer"><g class="trace scatter trace557aa6" style="stroke-miterlimit: 2; opacity: 1;"><g class="fills"/><g class="errorbars"/><g class="lines"><path class="js-line" d="M278.81,21.65L280,21.65" style="vector-effect: none; fill: none; stroke: rgb(187, 187, 187); stroke-opacity: 1; stroke-width: 5px; opacity: 1;"/></g><g class="points"/><g class="text"/></g><g class="trace scatter trace1847c7" style="stroke-miterlimit: 2; opacity: 1;"><g class="fills"/><g class="errorbars"/><g class="lines"><path class="js-line" d="M0,51.77L3.56,48.88L4.75,48.88L9.49,49.1L10.68,48.32L27.29,47.43L28.47,46.77L51.02,45.99L52.2,41.32L66.44,41.32L68.81,44.54L72.37,43.88L73.56,43.88L81.86,43.65L83.05,46.1L85.42,47.32L86.61,46.88L87.8,46.43L88.98,47.43L119.83,46.77L121.02,44.54L123.39,45.43L124.58,45.43L125.76,45.21L126.95,41.54L129.32,39.32L130.51,39.32L131.69,38.76L132.88,35.1L135.25,32.98L136.44,32.98L140,32.32L141.19,31.32L144.75,28.87L145.93,28.87L155.42,29.2L156.61,30.32L166.1,30.32L167.29,28.76L168.47,28.76L169.66,26.09L174.41,26.09L175.59,23.09L182.71,23.09L183.9,21.31L191.02,18.42L192.2,18.42L194.58,14.64L195.76,14.64L196.95,12.75L198.14,8.2L208.81,8.2L210,9.86L212.37,10.64L213.56,10.64L215.93,12.86L217.12,13.53L223.05,12.31L224.24,12.31L231.36,12.42L232.54,8.75L234.92,5.08L236.1,4.97L239.66,5.86L240.85,3.75L244.41,4.75L245.59,5.64L247.97,6.75L249.15,10.53L250.34,11.86L251.53,10.53L253.9,10.64L255.08,8.86L257.46,8.97L258.64,9.09L261.02,8.64L262.2,7.75L265.76,4.64L266.95,4.64L270.51,6.64L271.69,5.75L274.07,6.42L275.25,8.64L277.63,14.87L278.81,43.65L280,43.54" style="vector-effect: none; fill: none; stroke: rgb(138, 44, 81); stroke-opacity: 1; stroke-width: 5px; opacity: 1;"/></g><g class="points"/><g class="text"/></g><g class="trace scatter tracebe3578" style="stroke-miterlimit: 2; opacity: 1;"><g class="fills"/><g class="errorbars"/><g class="lines"><path class="js-line" d="M0,26.54L4.75,28.09L5.93,28.09L9.49,27.87L10.68,27.2L68.81,28.2L70,31.32L81.86,30.32L83.05,27.76L85.42,23.98L86.61,24.98L87.8,25.98L88.98,22.65L99.66,22.65L100.85,24.31L102.03,24.31L103.22,22.65L104.41,24.31L105.59,22.31L107.97,21.87L109.15,23.98L111.53,21.87L112.71,21.87L113.9,21.87L115.08,23.98L116.27,23.98L117.46,21.87L119.83,23.98L121.02,21.98L123.39,24.54L124.58,24.54L131.69,25.76L132.88,27.65L136.44,28.43L137.63,28.43L153.05,29.2L154.24,29.87L182.71,30.87L183.9,32.65L192.2,34.98L193.39,32.87L196.95,33.98L198.14,35.43L208.81,35.43L210,33.87L212.37,32.98L213.56,32.98L214.75,32.54L215.93,29.98L218.31,29.43L219.49,29.76L231.36,29.2L232.54,32.09L234.92,35.43L236.1,35.54L238.47,33.76L239.66,32.98L242.03,35.1L243.22,34.54L247.97,32.09L249.15,28.32L250.34,26.98L251.53,28.32L253.9,28.2L255.08,29.98L257.46,29.87L258.64,29.76L261.02,30.2L262.2,31.09L265.76,34.21L266.95,34.21L270.51,32.21L271.69,33.09L274.07,32.43L275.25,30.2L277.63,23.98L278.81,48.66L280,48.66" style="vector-effect: none; fill: none; stroke: rgb(0, 174, 239); stroke-opacity: 1; stroke-width: 5px; opacity: 1;"/></g><g class="points"/><g class="text"/></g><g class="trace scatter traceeadddc" style="stroke-miterlimit: 2; opacity: 1;"><g class="fills"/><g class="errorbars"/><g class="lines"><path class="js-line" d="M0,63.33L7.12,63.77L8.31,63.33L30.85,64.66L32.03,64.66L51.02,64.44L52.2,66.11L68.81,65.44L70,66.89L83.05,67.22L84.24,68.44L86.61,67.77L87.8,67.11L90.17,69L91.36,69L121.02,68.11L122.2,67.33L126.95,68.55L128.14,69.11L140,70.33L141.19,70.78L149.49,71.55L150.68,71.55L192.2,71.55L193.39,73.67L196.95,73.89" style="vector-effect: none; fill: none; stroke: rgb(238, 58, 67); stroke-opacity: 1; stroke-width: 5px; opacity: 1;"/></g><g class="points"/><g class="text"/></g><g class="trace scatter trace76ef39" style="stroke-miterlimit: 2; opacity: 1;"><g class="fills"/><g class="errorbars"/><g class="lines"><path class="js-line" d="M0,67.22L13.05,67.33L14.24,67.33L51.02,68.55L52.2,69.44L66.44,69.44L68.81,68.11L70,71L72.37,71L87.8,71.89L88.98,72.33L140,73.11L141.19,73.55L174.41,73.55" style="vector-effect: none; fill: none; stroke: rgb(255, 192, 203); stroke-opacity: 1; stroke-width: 5px; opacity: 1;"/></g><g class="points"/><g class="text"/></g></g></g><g class="overplot"/><path class="xlines-above crisp" d="M0,0" style="fill: none;"/><path class="ylines-above crisp" d="M0,0" style="fill: none;"/><g class="overlines-above"/><g class="xaxislayer-above"/><g class="yaxislayer-above"/><g class="overaxes-above"/></g></g><g class="polarlayer"/><g class="smithlayer"/><g class="ternarylayer"/><g class="geolayer"/><g class="funnelarealayer"/><g class="pielayer"/><g class="iciclelayer"/><g class="treemaplayer"/><g class="sunburstlayer"/><g class="glimages"/><defs id="topdefs-58863e"><g class="clips"/></defs><g class="layer-above"><g class="imagelayer"/><g class="shapelayer"/></g><g class="infolayer"><g class="g-gtitle"><text class="gtitle" x="15" y="25" text-anchor="start" dy="0em" style="font-family: Ubuntu, verdana, arial, sans-serif; font-size: 16px; fill: rgb(233, 84, 32); opacity: 1; font-weight: normal; white-space: pre;">Prezident/ka 2024</text></g><g class="g-xtitle"/><g class="g-ytitle"/></g></svg>