<svg class="main-svg" xmlns="http://www.w3.org/2000/svg" xmlns:xlink="http://www.w3.org/1999/xlink" width="300" height="135" style="" viewBox="0 0 300 135"><rect x="0" y="0" width="300" height="135" style="fill: rgb(255, 255, 255); fill-opacity: 1;"/><defs id="defs-6a6e61"><g class="clips"><clipPath id="clip6a6e61xyplot" class="plotclip"><rect width="280" height="75"/></clipPath><clipPath class="axesclip" id="clip6a6e61x"><rect x="10" y="0" width="280" height="135"/></clipPath><clipPath class="axesclip" id="clip6a6e61y"><rect x="0" y="50" width="300" height="75"/></clipPath><clipPath class="axesclip" id="clip6a6e61xy"><rect x="10" y="50" width="280" height="75"/></clipPath></g><g class="gradients"/><g class="patterns"/></defs><g class="bglayer"/><g class="layer-below"><g class="imagelayer"/><g class="shapelayer"/></g><g class="cartesianlayer"><g class="subplot xy"><g class="layer-subplot"><g class="shapelayer"/><g class="imagelayer"/></g><g class="minor-gridlayer"><g class="x"/><g class="y"/></g><g class="gridlayer"><g class="x"><path class="xgrid crisp" transform="translate(24.97,0)" d="M0,50v75" style="stroke: rgb(235, 240, 248); stroke-opacity: 1; stroke-width: 1px;"/><path class="xgrid crisp" transform="translate(117.81,0)" d="M0,50v75" style="stroke: rgb(235, 240, 248); stroke-opacity: 1; stroke-width: 1px;"/><path class="xgrid crisp" transform="translate(209.14,0)" d="M0,50v75" style="stroke: rgb(235, 240, 248); stroke-opacity: 1; stroke-width: 1px;"/></g><g class="y"><path class="ygrid crisp" transform="translate(0,101.28999999999999)" d="M10,0h280" style="stroke: rgb(235, 240, 248); stroke-opacity: 1; stroke-width: 1px;"/><path class="ygrid crisp" transform="translate(0,77.58)" d="M10,0h280" style="stroke: rgb(235, 240, 248); stroke-opacity: 1; stroke-width: 1px;"/><path class="ygrid crisp" transform="translate(0,53.87)" d="M10,0h280" style="stroke: rgb(235, 240, 248); stroke-opacity: 1; stroke-width: 1px;"/></g></g><g class="zerolinelayer"><path class="yzl zl crisp" transform="translate(0,125)" d="M10,0h280" style="stroke: rgb(235, 240, 248); stroke-opacity: 1; stroke-width: 2px;"/></g><path class="xlines-below"/><path class="ylines-below"/><g class="overlines-below"/><g class="xaxislayer-below"/><g class="yaxislayer-below"/><g class="overaxes-below"/><g class="plot" transform="translate(10,50)" clip-path="url(#clip6a6e61xyplot)"><g class="scatterlayer mlayer"><g class="trace scatter tracef52943" style="stroke-miterlimit: 2; opacity: 1;"><g class="fills"/><g class="errorbars"/><g class="lines"><path class="js-line" d="M0,50.22L4.49,47.14L5.99,47.14L11.98,47.38L13.48,46.55L34.44,45.6L35.94,44.89L64.39,44.06L65.88,39.08L83.85,39.08L86.84,42.52L88.34,41.81L91.34,41.81L103.32,41.57L104.81,44.18L107.81,45.48L109.3,45.01L110.8,44.53L112.3,45.6L151.23,44.89L152.73,42.52L155.72,43.47L157.22,43.47L158.72,43.23L160.21,39.32L161.71,36.94L163.21,36.94L166.2,36.35L167.7,32.44L170.7,30.19L172.19,30.19L176.68,29.48L178.18,28.41L182.67,25.8L184.17,25.8L196.15,26.16L197.65,27.34L209.63,27.34L211.12,25.68L212.62,25.68L214.12,22.84L220.11,22.84L221.6,19.64L230.59,19.64L232.09,17.74L235.08,17.03L236.58,17.03L242.57,14.66L244.06,10.63L247.06,10.63L248.56,8.61L250.05,3.75L251.55,3.75L263.53,3.75L265.03,5.53L268.02,6.36L269.52,6.36L271.02,6.83L272.51,8.73L275.51,8.97L277.01,8.14L280,8.14" style="vector-effect: none; fill: none; stroke: rgb(138, 44, 81); stroke-opacity: 1; stroke-width: 5px; opacity: 1;"/></g><g class="points"/><g class="text"/></g><g class="trace scatter trace9f1a2a" style="stroke-miterlimit: 2; opacity: 1;"><g class="fills"/><g class="errorbars"/><g class="lines"><path class="js-line" d="M0,23.31L4.49,24.97L5.99,24.97L11.98,24.73L13.48,24.02L86.84,25.09L88.34,28.41L103.32,27.34L104.81,24.62L106.31,20.58L107.81,20.58L110.8,22.72L112.3,19.16L125.78,19.16L127.27,20.94L128.77,20.94L130.27,19.16L131.76,20.94L133.26,18.81L136.26,18.33L137.75,20.58L140.75,18.33L142.25,18.33L143.74,18.33L145.24,20.58L146.74,20.58L148.24,18.33L149.73,20.58L151.23,20.58L152.73,18.45L154.22,21.18L164.71,21.89L166.2,22.48L169.2,25.21L170.7,25.33L193.16,26.16L194.65,26.87L212.62,26.99L214.12,28.17L230.59,27.93L232.09,29.83L242.57,32.32L244.06,30.07L248.56,31.25L250.05,32.8L263.53,32.8L265.03,31.14L268.02,30.19L269.52,30.19L271.02,29.71L272.51,26.99L275.51,26.39L277.01,26.75L280,26.75" style="vector-effect: none; fill: none; stroke: rgb(0, 174, 239); stroke-opacity: 1; stroke-width: 5px; opacity: 1;"/></g><g class="points"/><g class="text"/></g><g class="trace scatter tracec72b29" style="stroke-miterlimit: 2; opacity: 1;"><g class="fills"/><g class="errorbars"/><g class="lines"><path class="js-line" d="M0,63.03L10.48,64.21L11.98,63.5L14.97,62.79L16.47,62.79L64.39,63.03L65.88,64.45L86.84,63.5L88.34,55.79L104.81,56.51L106.31,57.22L133.26,57.57L134.76,58.05L151.23,57.22L152.73,60.66L154.22,58.28L155.72,58.28L158.72,58.4L160.21,60.18L163.21,61.6L164.71,61.6L166.2,61.25L167.7,62.43L175.19,62.67L176.68,62.55L184.17,63.14L185.67,63.14L193.16,62.67L194.65,61.6L196.15,61.6L197.65,59.94L209.63,59.94L211.12,61.49L217.11,63.62L218.61,63.62L239.57,64.8L241.07,64.92L242.57,64.92L244.06,68.6L263.53,69.78L265.03,69.9L274.01,70.85L275.51,71.09L280,71.56" style="vector-effect: none; fill: none; stroke: rgb(255, 1, 170); stroke-opacity: 1; stroke-width: 5px; opacity: 1;"/></g><g class="points"/><g class="text"/></g><g class="trace scatter trace66bad2" style="stroke-miterlimit: 2; opacity: 1;"><g class="fills"/><g class="errorbars"/><g class="lines"><path class="js-line" d="M0,62.55L8.98,63.03L10.48,62.55L37.43,63.97L38.93,63.97L64.39,63.74L65.88,65.52L86.84,64.8L88.34,66.35L104.81,66.7L106.31,68.01L109.3,67.29L110.8,66.58L113.8,68.6L115.29,68.6L152.73,67.65L154.22,66.82L158.72,66.94L160.21,68.12L164.71,68.72L166.2,68.95L173.69,69.78L175.19,69.78L188.66,71.32L190.16,71.32L242.57,71.32L244.06,73.58L248.56,73.81" style="vector-effect: none; fill: none; stroke: rgb(238, 58, 67); stroke-opacity: 1; stroke-width: 5px; opacity: 1;"/></g><g class="points"/><g class="text"/></g><g class="trace scatter trace7d81c2" style="stroke-miterlimit: 2; opacity: 1;"><g class="fills"/><g class="errorbars"/><g class="lines"><path class="js-line" d="M0,66.7L14.97,66.82L16.47,66.82L55.4,67.18L56.9,68.12L83.85,69.07L86.84,67.65L88.34,70.73L91.34,70.73L110.8,71.68L112.3,72.15L176.68,72.98L178.18,73.46L220.11,73.46" style="vector-effect: none; fill: none; stroke: rgb(255, 192, 203); stroke-opacity: 1; stroke-width: 5px; opacity: 1;"/></g><g class="points"/><g class="text"/></g></g></g><g class="overplot"/><path class="xlines-above crisp" d="M0,0" style="fill: none;"/><path class="ylines-above crisp" d="M0,0" style="fill: none;"/><g class="overlines-above"/><g class="xaxislayer-above"/><g class="yaxislayer-above"/><g class="overaxes-above"/></g></g><g class="polarlayer"/><g class="smithlayer"/><g class="ternarylayer"/><g class="geolayer"/><g class="funnelarealayer"/><g class="pielayer"/><g class="iciclelayer"/><g class="treemaplayer"/><g class="sunburstlayer"/><g class="glimages"/><defs id="topdefs-6a6e61"><g class="clips"/></defs><g class="layer-above"><g class="imagelayer"/><g class="shapelayer"/></g><g class="infolayer"><g class="g-gtitle"><text class="gtitle" x="15" y="25" text-anchor="start" dy="0em" style="font-family: Ubuntu, verdana, arial, sans-serif; font-size: 16px; fill: rgb(233, 84, 32); opacity: 1; font-weight: normal; white-space: pre;">Prezident/ka 2024</text></g><g class="g-xtitle"/><g class="g-ytitle"/></g></svg>