<svg class="main-svg" xmlns="http://www.w3.org/2000/svg" xmlns:xlink="http://www.w3.org/1999/xlink" width="300" height="135" style="" viewBox="0 0 300 135"><rect x="0" y="0" width="300" height="135" style="fill: rgb(255, 255, 255); fill-opacity: 1;"/><defs id="defs-7aacf3"><g class="clips"><clipPath id="clip7aacf3xyplot" class="plotclip"><rect width="280" height="75"/></clipPath><clipPath class="axesclip" id="clip7aacf3x"><rect x="10" y="0" width="280" height="135"/></clipPath><clipPath class="axesclip" id="clip7aacf3y"><rect x="0" y="50" width="300" height="75"/></clipPath><clipPath class="axesclip" id="clip7aacf3xy"><rect x="10" y="50" width="280" height="75"/></clipPath></g><g class="gradients"/><g class="patterns"/></defs><g class="bglayer"/><g class="layer-below"><g class="imagelayer"/><g class="shapelayer"/></g><g class="cartesianlayer"><g class="subplot xy"><g class="layer-subplot"><g class="shapelayer"/><g class="imagelayer"/></g><g class="minor-gridlayer"><g class="x"/><g class="y"/></g><g class="gridlayer"><g class="x"><path class="xgrid crisp" transform="translate(26.67,0)" d="M0,50v75" style="stroke: rgb(235, 240, 248); stroke-opacity: 1; stroke-width: 1px;"/><path class="xgrid crisp" transform="translate(130,0)" d="M0,50v75" style="stroke: rgb(235, 240, 248); stroke-opacity: 1; stroke-width: 1px;"/><path class="xgrid crisp" transform="translate(231.67,0)" d="M0,50v75" style="stroke: rgb(235, 240, 248); stroke-opacity: 1; stroke-width: 1px;"/></g><g class="y"><path class="ygrid crisp" transform="translate(0,101.28999999999999)" d="M10,0h280" style="stroke: rgb(235, 240, 248); stroke-opacity: 1; stroke-width: 1px;"/><path class="ygrid crisp" transform="translate(0,77.58)" d="M10,0h280" style="stroke: rgb(235, 240, 248); stroke-opacity: 1; stroke-width: 1px;"/><path class="ygrid crisp" transform="translate(0,53.87)" d="M10,0h280" style="stroke: rgb(235, 240, 248); stroke-opacity: 1; stroke-width: 1px;"/></g></g><g class="zerolinelayer"><path class="yzl zl crisp" transform="translate(0,125)" d="M10,0h280" style="stroke: rgb(235, 240, 248); stroke-opacity: 1; stroke-width: 2px;"/></g><path class="xlines-below"/><path class="ylines-below"/><g class="overlines-below"/><g class="xaxislayer-below"/><g class="yaxislayer-below"/><g class="overaxes-below"/><g class="plot" transform="translate(10,50)" clip-path="url(#clip7aacf3xyplot)"><g class="scatterlayer mlayer"><g class="trace scatter trace852b78" style="stroke-miterlimit: 2; opacity: 1;"><g class="fills"/><g class="errorbars"/><g class="lines"><path class="js-line" d="M0,50.22L5,47.14L6.67,47.14L13.33,47.38L15,46.55L38.33,45.6L40,44.89L71.67,44.06L73.33,39.08L93.33,39.08L96.67,42.52L98.33,41.81L101.67,41.81L115,41.57L116.67,44.18L120,45.48L121.67,45.01L123.33,44.53L125,45.6L168.33,44.89L170,42.52L173.33,43.47L175,43.47L176.67,43.23L178.33,39.32L180,36.94L181.67,36.94L185,36.35L186.67,32.44L190,30.19L191.67,30.19L196.67,29.48L198.33,28.41L203.33,25.8L205,25.8L218.33,26.16L220,27.34L233.33,27.34L235,25.68L236.67,25.68L238.33,22.84L245,22.84L246.67,19.64L256.67,19.64L258.33,17.74L261.67,17.03L263.33,17.03L270,14.66L271.67,10.63L275,10.63L276.67,8.61L278.33,3.75L280,3.75" style="vector-effect: none; fill: none; stroke: rgb(138, 44, 81); stroke-opacity: 1; stroke-width: 5px; opacity: 1;"/></g><g class="points"/><g class="text"/></g><g class="trace scatter trace843348" style="stroke-miterlimit: 2; opacity: 1;"><g class="fills"/><g class="errorbars"/><g class="lines"><path class="js-line" d="M0,23.31L5,24.97L6.67,24.97L13.33,24.73L15,24.02L96.67,25.09L98.33,28.41L115,27.34L116.67,24.62L118.33,20.58L120,20.58L123.33,22.72L125,19.16L140,19.16L141.67,20.94L143.33,20.94L145,19.16L146.67,20.94L148.33,18.81L151.67,18.33L153.33,20.58L155,18.33L156.67,18.33L160,18.33L161.67,20.58L163.33,20.58L165,18.33L166.67,20.58L168.33,20.58L170,18.45L171.67,21.18L183.33,21.89L185,22.48L188.33,25.21L190,25.33L215,26.16L216.67,26.87L236.67,26.99L238.33,28.17L256.67,27.93L258.33,29.83L270,32.32L271.67,30.07L276.67,31.25L278.33,32.8L280,32.8" style="vector-effect: none; fill: none; stroke: rgb(0, 174, 239); stroke-opacity: 1; stroke-width: 5px; opacity: 1;"/></g><g class="points"/><g class="text"/></g><g class="trace scatter trace20fd77" style="stroke-miterlimit: 2; opacity: 1;"><g class="fills"/><g class="errorbars"/><g class="lines"><path class="js-line" d="M0,63.03L11.67,64.21L13.33,63.5L16.67,62.79L18.33,62.79L71.67,63.03L73.33,64.45L96.67,63.5L98.33,55.79L116.67,56.51L118.33,57.22L148.33,57.57L150,58.05L168.33,57.22L170,60.66L171.67,58.28L173.33,58.28L176.67,58.4L178.33,60.18L181.67,61.6L183.33,61.6L185,61.25L186.67,62.43L195,62.67L196.67,62.55L205,63.14L206.67,63.14L215,62.67L216.67,61.6L218.33,61.6L220,59.94L233.33,59.94L235,61.49L241.67,63.62L243.33,63.62L266.67,64.8L268.33,64.92L270,64.92L271.67,68.6L280,69.78" style="vector-effect: none; fill: none; stroke: rgb(255, 1, 170); stroke-opacity: 1; stroke-width: 5px; opacity: 1;"/></g><g class="points"/><g class="text"/></g><g class="trace scatter trace54845a" style="stroke-miterlimit: 2; opacity: 1;"><g class="fills"/><g class="errorbars"/><g class="lines"><path class="js-line" d="M0,62.55L10,63.03L11.67,62.55L41.67,63.97L43.33,63.97L71.67,63.74L73.33,65.52L96.67,64.8L98.33,66.35L116.67,66.7L118.33,68.01L121.67,67.29L123.33,66.58L125,68.6L126.67,68.6L170,67.65L171.67,66.82L176.67,66.94L178.33,68.12L183.33,68.72L185,68.95L193.33,69.78L195,69.78L210,71.32L211.67,71.32L270,71.32L271.67,73.58L276.67,73.81" style="vector-effect: none; fill: none; stroke: rgb(238, 58, 67); stroke-opacity: 1; stroke-width: 5px; opacity: 1;"/></g><g class="points"/><g class="text"/></g><g class="trace scatter traced35813" style="stroke-miterlimit: 2; opacity: 1;"><g class="fills"/><g class="errorbars"/><g class="lines"><path class="js-line" d="M0,66.7L16.67,66.82L18.33,66.82L61.67,67.18L63.33,68.12L93.33,69.07L96.67,67.65L98.33,70.73L101.67,70.73L123.33,71.68L125,72.15L196.67,72.98L198.33,73.46L245,73.46" style="vector-effect: none; fill: none; stroke: rgb(255, 192, 203); stroke-opacity: 1; stroke-width: 5px; opacity: 1;"/></g><g class="points"/><g class="text"/></g></g></g><g class="overplot"/><path class="xlines-above crisp" d="M0,0" style="fill: none;"/><path class="ylines-above crisp" d="M0,0" style="fill: none;"/><g class="overlines-above"/><g class="xaxislayer-above"/><g class="yaxislayer-above"/><g class="overaxes-above"/></g></g><g class="polarlayer"/><g class="smithlayer"/><g class="ternarylayer"/><g class="geolayer"/><g class="funnelarealayer"/><g class="pielayer"/><g class="iciclelayer"/><g class="treemaplayer"/><g class="sunburstlayer"/><g class="glimages"/><defs id="topdefs-7aacf3"><g class="clips"/></defs><g class="layer-above"><g class="imagelayer"/><g class="shapelayer"/></g><g class="infolayer"><g class="g-gtitle"><text class="gtitle" x="15" y="25" text-anchor="start" dy="0em" style="font-family: Ubuntu, verdana, arial, sans-serif; font-size: 16px; fill: rgb(233, 84, 32); opacity: 1; font-weight: normal; white-space: pre;">Prezident/ka 2024</text></g><g class="g-xtitle"/><g class="g-ytitle"/></g></svg>