<svg class="main-svg" xmlns="http://www.w3.org/2000/svg" xmlns:xlink="http://www.w3.org/1999/xlink" width="300" height="135" style="" viewBox="0 0 300 135"><rect x="0" y="0" width="300" height="135" style="fill: rgb(255, 255, 255); fill-opacity: 1;"/><defs id="defs-2a6c85"><g class="clips"><clipPath id="clip2a6c85xyplot" class="plotclip"><rect width="280" height="75"/></clipPath><clipPath class="axesclip" id="clip2a6c85x"><rect x="10" y="0" width="280" height="135"/></clipPath><clipPath class="axesclip" id="clip2a6c85y"><rect x="0" y="50" width="300" height="75"/></clipPath><clipPath class="axesclip" id="clip2a6c85xy"><rect x="10" y="50" width="280" height="75"/></clipPath></g><g class="gradients"/><g class="patterns"/></defs><g class="bglayer"/><g class="layer-below"><g class="imagelayer"/><g class="shapelayer"/></g><g class="cartesianlayer"><g class="subplot xy"><g class="layer-subplot"><g class="shapelayer"/><g class="imagelayer"/></g><g class="minor-gridlayer"><g class="x"/><g class="y"/></g><g class="gridlayer"><g class="x"><path class="xgrid crisp" transform="translate(29.72,0)" d="M0,50v75" style="stroke: rgb(235, 240, 248); stroke-opacity: 1; stroke-width: 1px;"/><path class="xgrid crisp" transform="translate(90.85,0)" d="M0,50v75" style="stroke: rgb(235, 240, 248); stroke-opacity: 1; stroke-width: 1px;"/><path class="xgrid crisp" transform="translate(151.97,0)" d="M0,50v75" style="stroke: rgb(235, 240, 248); stroke-opacity: 1; stroke-width: 1px;"/><path class="xgrid crisp" transform="translate(211.13,0)" d="M0,50v75" style="stroke: rgb(235, 240, 248); stroke-opacity: 1; stroke-width: 1px;"/><path class="xgrid crisp" transform="translate(272.25,0)" d="M0,50v75" style="stroke: rgb(235, 240, 248); stroke-opacity: 1; stroke-width: 1px;"/></g><g class="y"><path class="ygrid crisp" transform="translate(0,109.38)" d="M10,0h280" style="stroke: rgb(235, 240, 248); stroke-opacity: 1; stroke-width: 1px;"/><path class="ygrid crisp" transform="translate(0,93.75)" d="M10,0h280" style="stroke: rgb(235, 240, 248); stroke-opacity: 1; stroke-width: 1px;"/><path class="ygrid crisp" transform="translate(0,78.13)" d="M10,0h280" style="stroke: rgb(235, 240, 248); stroke-opacity: 1; stroke-width: 1px;"/><path class="ygrid crisp" transform="translate(0,62.5)" d="M10,0h280" style="stroke: rgb(235, 240, 248); stroke-opacity: 1; stroke-width: 1px;"/></g></g><g class="zerolinelayer"><path class="yzl zl crisp" transform="translate(0,125)" d="M10,0h280" style="stroke: rgb(235, 240, 248); stroke-opacity: 1; stroke-width: 2px;"/></g><path class="xlines-below"/><path class="ylines-below"/><g class="overlines-below"/><g class="xaxislayer-below"/><g class="yaxislayer-below"/><g class="overaxes-below"/><g class="plot" transform="translate(10,50)" clip-path="url(#clip2a6c85xyplot)"><g class="scatterlayer mlayer"><g class="trace scatter trace280258" style="stroke-miterlimit: 2; opacity: 1;"><g class="fills"/><g class="errorbars"/><g class="lines"><path class="js-line" d="M0,43.44L3.94,39.38L5.92,39.38L15.77,39.53L17.75,38.75L45.35,37.66L47.32,36.88L84.79,35.78L86.76,29.69L110.42,29.69L114.37,33.75L116.34,32.97L120.28,32.97L136.06,32.66L138.03,35.94L141.97,37.34L143.94,36.88L145.92,36.25L147.89,37.66L199.15,36.88L201.13,34.06L205.07,35L207.04,35L209.01,34.69L210.99,29.69L212.96,26.72L214.93,26.72L218.87,25.78L220.85,20.63L222.82,18.13L224.79,17.66L232.68,16.72L234.65,15L240.56,11.41L242.54,11.41L258.31,11.87L260.28,13.44L276.06,13.44L278.03,11.25L280,11.25" style="vector-effect: none; fill: none; stroke: rgb(138, 44, 81); stroke-opacity: 1; stroke-width: 5px; opacity: 1;"/></g><g class="points"/><g class="text"/></g><g class="trace scatter trace0f0d99" style="stroke-miterlimit: 2; opacity: 1;"><g class="fills"/><g class="errorbars"/><g class="lines"><path class="js-line" d="M0,9.06L5.92,11.25L7.89,11.25L15.77,10.63L17.75,10.16L45.35,10.94L47.32,11.56L114.37,11.56L116.34,15.94L134.08,15.16L136.06,14.53L140,5.78L141.97,5.78L145.92,8.44L147.89,3.91L165.63,3.91L167.61,6.25L169.58,6.25L171.55,3.91L173.52,6.25L175.49,3.75L179.44,3.75L181.41,6.09L183.38,3.75L185.35,3.75L189.3,3.75L191.27,6.09L193.24,6.09L195.21,3.75L197.18,6.09L199.15,6.09L201.13,3.75L203.1,6.72L216.9,7.66L218.87,8.13L222.82,11.41L224.79,11.41L254.37,11.72L256.34,12.66L280,12.97" style="vector-effect: none; fill: none; stroke: rgb(0, 174, 239); stroke-opacity: 1; stroke-width: 5px; opacity: 1;"/></g><g class="points"/><g class="text"/></g><g class="trace scatter trace32feb3" style="stroke-miterlimit: 2; opacity: 1;"><g class="fills"/><g class="errorbars"/><g class="lines"><path class="js-line" d="M0,59.69L13.8,61.09L15.77,60.31L19.72,59.53L21.69,59.53L84.79,59.84L86.76,61.72L110.42,61.72L114.37,60.31L116.34,50.78L120.28,50.78L138.03,51.56L140,52.34L173.52,51.88L175.49,52.97L179.44,53.59L181.41,52.5L185.35,53.59L187.32,53.59L199.15,52.5L201.13,57.03L203.1,53.75L205.07,53.75L209.01,53.91L210.99,56.25L212.96,57.97L214.93,57.97L218.87,57.5L220.85,58.91L230.7,59.22L232.68,59.06L242.54,59.53L244.51,59.53L254.37,59.06L256.34,57.81L258.31,57.81L260.28,55.47L276.06,55.47L278.03,57.5L280,58.13" style="vector-effect: none; fill: none; stroke: rgb(255, 1, 170); stroke-opacity: 1; stroke-width: 5px; opacity: 1;"/></g><g class="points"/><g class="text"/></g><g class="trace scatter trace2aef21" style="stroke-miterlimit: 2; opacity: 1;"><g class="fills"/><g class="errorbars"/><g class="lines"><path class="js-line" d="M0,59.22L11.83,59.69L13.8,58.91L25.63,60L27.61,60L41.41,60.94L43.38,60.94L84.79,60.78L86.76,63.13L114.37,62.03L116.34,64.06L138.03,64.38L140,66.09L143.94,65.16L145.92,64.38L147.89,66.88L149.86,66.88L201.13,65.78L203.1,64.53L209.01,64.69L210.99,66.25L214.93,67.03L216.9,67.03L236.62,69.38L238.59,70.16L280,70.31" style="vector-effect: none; fill: none; stroke: rgb(238, 58, 67); stroke-opacity: 1; stroke-width: 5px; opacity: 1;"/></g><g class="points"/><g class="text"/></g><g class="trace scatter trace1a6bf1" style="stroke-miterlimit: 2; opacity: 1;"><g class="fills"/><g class="errorbars"/><g class="lines"><path class="js-line" d="M0,62.97L11.83,63.44L13.8,61.09L17.75,65.94L19.72,65.94L134.08,66.72L136.06,66.88L199.15,67.81L201.13,68.44L212.96,68.59L214.93,68.59L232.68,69.84L234.65,70.31L252.39,71.09L254.37,71.09L280,71.09" style="vector-effect: none; fill: none; stroke: rgb(202, 166, 105); stroke-opacity: 1; stroke-width: 5px; opacity: 1;"/></g><g class="points"/><g class="text"/></g></g></g><g class="overplot"/><path class="xlines-above crisp" d="M0,0" style="fill: none;"/><path class="ylines-above crisp" d="M0,0" style="fill: none;"/><g class="overlines-above"/><g class="xaxislayer-above"/><g class="yaxislayer-above"/><g class="overaxes-above"/></g></g><g class="polarlayer"/><g class="smithlayer"/><g class="ternarylayer"/><g class="geolayer"/><g class="funnelarealayer"/><g class="pielayer"/><g class="iciclelayer"/><g class="treemaplayer"/><g class="sunburstlayer"/><g class="glimages"/><defs id="topdefs-2a6c85"><g class="clips"/></defs><g class="layer-above"><g class="imagelayer"/><g class="shapelayer"/></g><g class="infolayer"><g class="g-gtitle"><text class="gtitle" x="15" y="25" text-anchor="start" dy="0em" style="font-family: Ubuntu, verdana, arial, sans-serif; font-size: 16px; fill: rgb(233, 84, 32); opacity: 1; font-weight: normal; white-space: pre;">Prezident/ka 2024</text></g><g class="g-xtitle"/><g class="g-ytitle"/></g></svg>