<svg class="main-svg" xmlns="http://www.w3.org/2000/svg" xmlns:xlink="http://www.w3.org/1999/xlink" width="400" height="400" style="" viewBox="0 0 400 400"><rect x="0" y="0" width="400" height="400" style="fill: rgb(255, 255, 255); fill-opacity: 1;"/><defs id="defs-3889da"><g class="clips"><clipPath id="clip3889daxyplot" class="plotclip"><rect width="206" height="330"/></clipPath><clipPath class="axesclip" id="clip3889dax"><rect x="50" y="0" width="206" height="400"/></clipPath><clipPath class="axesclip" id="clip3889day"><rect x="0" y="20" width="400" height="330"/></clipPath><clipPath class="axesclip" id="clip3889daxy"><rect x="50" y="20" width="206" height="330"/></clipPath></g><g class="gradients"/><g class="patterns"/></defs><g class="bglayer"/><g class="layer-below"><g class="imagelayer"/><g class="shapelayer"/></g><g class="cartesianlayer"><g class="subplot xy"><g class="layer-subplot"><g class="shapelayer"/><g class="imagelayer"/></g><g class="minor-gridlayer"><g class="x"/><g class="y"/></g><g class="gridlayer"><g class="x"><path class="xgrid crisp" transform="translate(56.87,0)" d="M0,20v330" style="stroke: rgb(235, 240, 248); stroke-opacity: 1; stroke-width: 1px;"/><path class="xgrid crisp" transform="translate(99.44,0)" d="M0,20v330" style="stroke: rgb(235, 240, 248); stroke-opacity: 1; stroke-width: 1px;"/><path class="xgrid crisp" transform="translate(141.32999999999998,0)" d="M0,20v330" style="stroke: rgb(235, 240, 248); stroke-opacity: 1; stroke-width: 1px;"/><path class="xgrid crisp" transform="translate(183.21,0)" d="M0,20v330" style="stroke: rgb(235, 240, 248); stroke-opacity: 1; stroke-width: 1px;"/><path class="xgrid crisp" transform="translate(224.41,0)" d="M0,20v330" style="stroke: rgb(235, 240, 248); stroke-opacity: 1; stroke-width: 1px;"/></g><g class="y"><path class="ygrid crisp" transform="translate(0,288.41)" d="M50,0h206" style="stroke: rgb(235, 240, 248); stroke-opacity: 1; stroke-width: 1px;"/><path class="ygrid crisp" transform="translate(0,226.82)" d="M50,0h206" style="stroke: rgb(235, 240, 248); stroke-opacity: 1; stroke-width: 1px;"/><path class="ygrid crisp" transform="translate(0,165.23)" d="M50,0h206" style="stroke: rgb(235, 240, 248); stroke-opacity: 1; stroke-width: 1px;"/><path class="ygrid crisp" transform="translate(0,103.63)" d="M50,0h206" style="stroke: rgb(235, 240, 248); stroke-opacity: 1; stroke-width: 1px;"/><path class="ygrid crisp" transform="translate(0,42.04)" d="M50,0h206" style="stroke: rgb(235, 240, 248); stroke-opacity: 1; stroke-width: 1px;"/></g></g><g class="zerolinelayer"><path class="yzl zl crisp" transform="translate(0,350)" d="M50,0h206" style="stroke: rgb(235, 240, 248); stroke-opacity: 1; stroke-width: 2px;"/></g><path class="xlines-below"/><path class="ylines-below"/><g class="overlines-below"/><g class="xaxislayer-below"/><g class="yaxislayer-below"/><g class="overaxes-below"/><g class="plot" transform="translate(50,20)" clip-path="url(#clip3889daxyplot)"><g class="scatterlayer mlayer"><g class="trace scatter trace7256d1" style="stroke-miterlimit: 2; opacity: 1;"><g class="fills"/><g class="errorbars"/><g class="lines"><path class="js-line" d="M0,201.27L2.06,185.26L2.75,185.26L4.12,185.26L4.81,189.57L6.87,182.18L7.55,182.18L9.61,182.18L10.3,180.33L12.36,180.33L13.05,178.49L15.11,177.25L15.79,177.25L17.17,173.56L17.85,173.56L25.41,173.56L26.09,169.25L29.53,169.25L30.21,143.38L38.45,143.38L39.83,161.24L40.51,157.54L41.89,157.54L47.38,156.31L48.07,169.86L49.44,176.64L50.13,174.17L50.81,171.71L51.5,177.25L57.68,177.25L58.37,174.79L59.05,174.79L59.74,177.25L60.43,174.79L61.11,176.64L61.8,174.79L69.35,173.56L70.04,161.24L71.41,166.17L72.1,166.17L72.79,164.94L73.47,144.61L74.85,132.29L75.53,132.29L76.22,129.21L76.91,108.89L78.97,97.18L79.65,97.18L80.34,97.18L81.03,93.49L83.77,74.4L84.46,74.4L88.58,75.01L89.27,76.24L89.95,76.24L90.64,82.4L96.13,82.4L96.82,73.78L97.51,73.78L98.19,59L100.94,59L101.63,42.37L105.75,42.37L106.43,32.51L107.81,28.82L108.49,28.82L110.55,16.5" style="vector-effect: none; fill: none; stroke: rgb(138, 44, 81); stroke-opacity: 1; stroke-width: 5px; opacity: 1;"/></g><g class="points"/><g class="text"/></g><g class="trace scatter trace87fcf4" style="stroke-miterlimit: 2; opacity: 1;"><g class="fills"/><g class="errorbars"/><g class="lines"><path class="js-line" d="M0,61.46L2.06,70.08L2.75,70.08L4.12,70.08L4.81,74.4L6.87,65.16L7.55,65.16L13.05,66.39L13.73,67.62L15.79,67.62L16.48,70.7L39.83,70.7L40.51,87.95L46.01,87.95L46.69,84.87L47.38,82.4L48.07,68.24L49.44,47.3L50.13,52.84L50.81,58.38L51.5,39.9L57.68,39.9L58.37,49.14L59.05,49.14L59.74,39.9L60.43,49.14L61.11,38.06L62.49,35.59L63.17,47.3L64.55,35.59L65.23,35.59L65.92,35.59L66.61,47.3L67.29,47.3L67.98,35.59L69.35,47.3L70.04,36.21L71.41,50.38L72.1,50.38L72.79,50.38L73.47,54.07L75.53,54.07L76.22,57.15L78.28,71.93L78.97,71.93L81.71,71.93L82.4,73.78L84.46,74.4L85.15,74.4L87.89,74.4L88.58,76.24L90.64,82.4L92.01,82.4L96.82,83.02L97.51,80.56L98.88,86.71L99.57,86.71L105.75,85.48L106.43,95.34L107.81,97.8L108.49,97.8L110.55,108.27" style="vector-effect: none; fill: none; stroke: rgb(0, 174, 239); stroke-opacity: 1; stroke-width: 5px; opacity: 1;"/></g><g class="points"/><g class="text"/></g><g class="trace scatter tracedd980f" style="stroke-miterlimit: 2; opacity: 1;"><g class="fills"/><g class="errorbars"/><g class="lines"><path class="js-line" d="M0,267.79L2.06,269.64L2.75,269.64L4.12,269.64L4.81,273.95L6.87,266.56L7.55,266.56L29.53,267.79L30.21,275.18L38.45,275.18L39.83,270.26L40.51,230.22L41.89,230.22L46.01,230.22L46.69,232.07L49.44,237.61L50.13,235.77L50.81,233.3L51.5,238.23L57.68,238.23L58.37,235.77L59.05,235.77L59.74,238.23L60.43,235.77L61.11,239.46L62.49,241.92L63.17,237.61L64.55,241.92L65.23,241.92L65.92,241.92L66.61,237.61L67.29,237.61L67.98,241.92L69.35,237.61L70.04,255.47L71.41,243.16L72.1,243.16L72.79,243.77L73.47,253.01L74.85,260.4L75.53,260.4L76.22,258.55L76.91,264.71L78.97,265.94L79.65,265.94L82.4,265.94L83.09,268.41L87.89,268.41L88.58,265.94L90.64,251.78L92.01,251.78L96.13,251.78L96.82,259.79L97.51,262.25L98.19,270.87L100.94,270.87L101.63,275.8L109.87,277.03L110.55,277.65" style="vector-effect: none; fill: none; stroke: rgb(255, 1, 170); stroke-opacity: 1; stroke-width: 5px; opacity: 1;"/></g><g class="points"/><g class="text"/></g><g class="trace scatter trace2569d6" style="stroke-miterlimit: 2; opacity: 1;"><g class="fills"/><g class="errorbars"/><g class="lines"><path class="js-line" d="M0,265.33L2.75,267.79L3.43,267.79L4.12,267.79L4.81,265.33L5.49,265.94L6.18,269.02L12.36,269.64L13.05,271.49L15.11,272.72L15.79,272.72L29.53,271.49L30.21,280.73L38.45,280.73L39.83,277.03L40.51,285.04L41.89,285.04L46.69,285.65L47.38,286.89L48.07,286.89L48.75,293.66L49.44,293.66L50.13,289.97L50.81,286.27L51.5,296.74L57.68,296.74L58.37,291.81L59.05,291.81L59.74,296.74L60.43,291.81L61.11,296.12L62.49,296.12L63.17,291.2L64.55,296.12L65.23,296.12L65.92,296.12L66.61,291.2L67.29,291.2L67.98,296.12L69.35,291.2L70.04,291.81L71.41,287.5L72.1,287.5L72.79,288.12L73.47,294.28L74.85,297.36L75.53,297.36L78.97,302.9L79.65,302.9L81.03,304.13L81.71,306.6L84.46,310.91L85.15,310.91L110.55,310.91" style="vector-effect: none; fill: none; stroke: rgb(238, 58, 67); stroke-opacity: 1; stroke-width: 5px; opacity: 1;"/></g><g class="points"/><g class="text"/></g><g class="trace scatter trace8e2684" style="stroke-miterlimit: 2; opacity: 1;"><g class="fills"/><g class="errorbars"/><g class="lines"><path class="js-line" d="M0,281.34L2.75,282.57L3.43,282.57L4.12,282.57L4.81,273.95L6.87,293.05L7.55,293.05L25.41,291.81L26.09,291.2L29.53,291.2L30.21,294.28L39.83,293.05L40.51,295.51L49.44,296.12L50.13,298.59L50.81,301.05L51.5,296.74L57.68,296.74L58.37,298.59L59.05,298.59L59.74,296.74L61.8,300.44L62.49,300.44L63.86,300.44L64.55,300.44L69.35,301.05L70.04,302.9L73.47,302.9L74.16,304.13L76.91,305.36L77.59,307.21L79.65,307.83L80.34,307.83L84.46,313.99L85.15,313.99L100.94,313.99L101.63,320.15L110.55,320.76" style="vector-effect: none; fill: none; stroke: rgb(202, 166, 105); stroke-opacity: 1; stroke-width: 5px; opacity: 1;"/></g><g class="points"/><g class="text"/></g><g class="trace scatter tracef214ef" style="stroke-miterlimit: 2; opacity: 1;"><g class="fills"/><g class="errorbars"/><g class="lines"><path class="js-line" d="M0,286.89L2.75,288.73L3.43,288.73L4.81,288.12L5.49,286.89L7.55,287.5L8.24,287.5L15.79,288.12L16.48,289.35L25.41,289.35L26.09,294.28L29.53,294.28L30.21,299.2L38.45,299.2L39.83,291.81L40.51,307.83L41.89,307.83L48.07,308.44L48.75,312.75L50.81,312.75L51.5,315.22L69.35,313.99L70.04,315.83L72.1,314.6L72.79,314.6L76.22,315.83L76.91,317.07L79.65,318.3L80.34,318.3L83.09,322.61L83.77,322.61L100.94,321.99" style="vector-effect: none; fill: none; stroke: rgb(255, 192, 203); stroke-opacity: 1; stroke-width: 5px; opacity: 1;"/></g><g class="points"/><g class="text"/></g></g></g><g class="overplot"/><path class="xlines-above crisp" d="M0,0" style="fill: none;"/><path class="ylines-above crisp" d="M0,0" style="fill: none;"/><g class="overlines-above"/><g class="xaxislayer-above"><g class="xtick"><text text-anchor="middle" x="0" y="363" transform="translate(56.87,0)" style="font-family: 'Open Sans', verdana, arial, sans-serif; font-size: 12px; fill: rgb(42, 63, 95); fill-opacity: 1; white-space: pre; opacity: 1;">1.7.23</text></g><g class="xtick"><text text-anchor="middle" x="0" y="363" style="font-family: 'Open Sans', verdana, arial, sans-serif; font-size: 12px; fill: rgb(42, 63, 95); fill-opacity: 1; white-space: pre; opacity: 1;" transform="translate(99.44,0)">1.9.23</text></g><g class="xtick"><text text-anchor="middle" x="0" y="363" style="font-family: 'Open Sans', verdana, arial, sans-serif; font-size: 12px; fill: rgb(42, 63, 95); fill-opacity: 1; white-space: pre; opacity: 1;" transform="translate(141.32999999999998,0)">1.11.23</text></g><g class="xtick"><text text-anchor="middle" x="0" y="363" style="font-family: 'Open Sans', verdana, arial, sans-serif; font-size: 12px; fill: rgb(42, 63, 95); fill-opacity: 1; white-space: pre; opacity: 1;" transform="translate(183.21,0)">1.1.24</text></g><g class="xtick"><text text-anchor="middle" x="0" y="363" style="font-family: 'Open Sans', verdana, arial, sans-serif; font-size: 12px; fill: rgb(42, 63, 95); fill-opacity: 1; white-space: pre; opacity: 1;" transform="translate(224.41,0)">1.3.24</text></g></g><g class="yaxislayer-above"><g class="ytick"><text text-anchor="end" x="49" y="4.199999999999999" transform="translate(0,350)" style="font-family: 'Open Sans', verdana, arial, sans-serif; font-size: 12px; fill: rgb(42, 63, 95); fill-opacity: 1; white-space: pre; opacity: 1;">0%</text></g><g class="ytick"><text text-anchor="end" x="49" y="4.199999999999999" style="font-family: 'Open Sans', verdana, arial, sans-serif; font-size: 12px; fill: rgb(42, 63, 95); fill-opacity: 1; white-space: pre; opacity: 1;" transform="translate(0,288.41)">10%</text></g><g class="ytick"><text text-anchor="end" x="49" y="4.199999999999999" style="font-family: 'Open Sans', verdana, arial, sans-serif; font-size: 12px; fill: rgb(42, 63, 95); fill-opacity: 1; white-space: pre; opacity: 1;" transform="translate(0,226.82)">20%</text></g><g class="ytick"><text text-anchor="end" x="49" y="4.199999999999999" style="font-family: 'Open Sans', verdana, arial, sans-serif; font-size: 12px; fill: rgb(42, 63, 95); fill-opacity: 1; white-space: pre; opacity: 1;" transform="translate(0,165.23)">30%</text></g><g class="ytick"><text text-anchor="end" x="49" y="4.199999999999999" style="font-family: 'Open Sans', verdana, arial, sans-serif; font-size: 12px; fill: rgb(42, 63, 95); fill-opacity: 1; white-space: pre; opacity: 1;" transform="translate(0,103.63)">40%</text></g><g class="ytick"><text text-anchor="end" x="49" y="4.199999999999999" style="font-family: 'Open Sans', verdana, arial, sans-serif; font-size: 12px; fill: rgb(42, 63, 95); fill-opacity: 1; white-space: pre; opacity: 1;" transform="translate(0,42.04)">50%</text></g></g><g class="overaxes-above"/></g></g><g class="polarlayer"/><g class="smithlayer"/><g class="ternarylayer"/><g class="geolayer"/><g class="funnelarealayer"/><g class="pielayer"/><g class="iciclelayer"/><g class="treemaplayer"/><g class="sunburstlayer"/><g class="glimages"/><defs id="topdefs-3889da"><g class="clips"/><clipPath id="legend3889da"><rect width="128" height="124" x="0" y="0"/></clipPath></defs><g class="layer-above"><g class="imagelayer"/><g class="shapelayer"/></g><g class="infolayer"><g class="legend" pointer-events="all" transform="translate(260.12,20)"><rect class="bg" shape-rendering="crispEdges" width="128" height="124" x="0" y="0" style="stroke: rgb(68, 68, 68); stroke-opacity: 1; fill: rgb(255, 255, 255); fill-opacity: 1; stroke-width: 0px;"/><g class="scrollbox" transform="" clip-path="url(#legend3889da)"><g class="groups"><g class="traces" transform="translate(0,14.5)" style="opacity: 1;"><text class="legendtext" text-anchor="start" x="40" y="4.680000000000001" style="font-family: 'Open Sans', verdana, arial, sans-serif; font-size: 12px; fill: rgb(42, 63, 95); fill-opacity: 1; white-space: pre;">Pellegrini Peter</text><g class="layers" style="opacity: 1;"><g class="legendfill"/><g class="legendlines"><path class="js-line" d="M5,0h30" style="fill: none; stroke: rgb(138, 44, 81); stroke-opacity: 1; stroke-width: 5px;"/></g><g class="legendsymbols"><g class="legendpoints"/></g></g><rect class="legendtoggle" x="0" y="-9.5" width="122.703125" height="19" style="fill: rgb(0, 0, 0); fill-opacity: 0;"/></g><g class="traces" transform="translate(0,33.5)" style="opacity: 1;"><text class="legendtext" text-anchor="start" x="40" y="4.680000000000001" style="font-family: 'Open Sans', verdana, arial, sans-serif; font-size: 12px; fill: rgb(42, 63, 95); fill-opacity: 1; white-space: pre;">Korčok Ivan</text><g class="layers" style="opacity: 1;"><g class="legendfill"/><g class="legendlines"><path class="js-line" d="M5,0h30" style="fill: none; stroke: rgb(0, 174, 239); stroke-opacity: 1; stroke-width: 5px;"/></g><g class="legendsymbols"><g class="legendpoints"/></g></g><rect class="legendtoggle" x="0" y="-9.5" width="122.703125" height="19" style="fill: rgb(0, 0, 0); fill-opacity: 0;"/></g><g class="traces" transform="translate(0,52.5)" style="opacity: 1;"><text class="legendtext" text-anchor="start" x="40" y="4.680000000000001" style="font-family: 'Open Sans', verdana, arial, sans-serif; font-size: 12px; fill: rgb(42, 63, 95); fill-opacity: 1; white-space: pre;">Kubiš Ján</text><g class="layers" style="opacity: 1;"><g class="legendfill"/><g class="legendlines"><path class="js-line" d="M5,0h30" style="fill: none; stroke: rgb(255, 1, 170); stroke-opacity: 1; stroke-width: 5px;"/></g><g class="legendsymbols"><g class="legendpoints"/></g></g><rect class="legendtoggle" x="0" y="-9.5" width="122.703125" height="19" style="fill: rgb(0, 0, 0); fill-opacity: 0;"/></g><g class="traces" transform="translate(0,71.5)" style="opacity: 1;"><text class="legendtext" text-anchor="start" x="40" y="4.680000000000001" style="font-family: 'Open Sans', verdana, arial, sans-serif; font-size: 12px; fill: rgb(42, 63, 95); fill-opacity: 1; white-space: pre;">Fico Robert</text><g class="layers" style="opacity: 1;"><g class="legendfill"/><g class="legendlines"><path class="js-line" d="M5,0h30" style="fill: none; stroke: rgb(238, 58, 67); stroke-opacity: 1; stroke-width: 5px;"/></g><g class="legendsymbols"><g class="legendpoints"/></g></g><rect class="legendtoggle" x="0" y="-9.5" width="122.703125" height="19" style="fill: rgb(0, 0, 0); fill-opacity: 0;"/></g><g class="traces" transform="translate(0,90.5)" style="opacity: 1;"><text class="legendtext" text-anchor="start" x="40" y="4.680000000000001" style="font-family: 'Open Sans', verdana, arial, sans-serif; font-size: 12px; fill: rgb(42, 63, 95); fill-opacity: 1; white-space: pre;">Mistrík Robert</text><g class="layers" style="opacity: 1;"><g class="legendfill"/><g class="legendlines"><path class="js-line" d="M5,0h30" style="fill: none; stroke: rgb(202, 166, 105); stroke-opacity: 1; stroke-width: 5px;"/></g><g class="legendsymbols"><g class="legendpoints"/></g></g><rect class="legendtoggle" x="0" y="-9.5" width="122.703125" height="19" style="fill: rgb(0, 0, 0); fill-opacity: 0;"/></g><g class="traces" transform="translate(0,109.5)" style="opacity: 1;"><text class="legendtext" text-anchor="start" x="40" y="4.680000000000001" style="font-family: 'Open Sans', verdana, arial, sans-serif; font-size: 12px; fill: rgb(42, 63, 95); fill-opacity: 1; white-space: pre;">Lajčák Miroslav</text><g class="layers" style="opacity: 1;"><g class="legendfill"/><g class="legendlines"><path class="js-line" d="M5,0h30" style="fill: none; stroke: rgb(255, 192, 203); stroke-opacity: 1; stroke-width: 5px;"/></g><g class="legendsymbols"><g class="legendpoints"/></g></g><rect class="legendtoggle" x="0" y="-9.5" width="122.703125" height="19" style="fill: rgb(0, 0, 0); fill-opacity: 0;"/></g></g></g><rect class="scrollbar" rx="20" ry="3" width="0" height="0" x="0" y="0" style="fill: rgb(128, 139, 164); fill-opacity: 1;"/></g><g class="g-gtitle"/><g class="g-xtitle"/><g class="g-ytitle"/></g></svg>