<svg class="main-svg" xmlns="http://www.w3.org/2000/svg" xmlns:xlink="http://www.w3.org/1999/xlink" width="300" height="135" style="" viewBox="0 0 300 135"><rect x="0" y="0" width="300" height="135" style="fill: rgb(255, 255, 255); fill-opacity: 1;"/><defs id="defs-578856"><g class="clips"><clipPath id="clip578856xyplot" class="plotclip"><rect width="280" height="75"/></clipPath><clipPath class="axesclip" id="clip578856x"><rect x="10" y="0" width="280" height="135"/></clipPath><clipPath class="axesclip" id="clip578856y"><rect x="0" y="50" width="300" height="75"/></clipPath><clipPath class="axesclip" id="clip578856xy"><rect x="10" y="50" width="280" height="75"/></clipPath></g><g class="gradients"/><g class="patterns"/></defs><g class="bglayer"/><g class="layer-below"><g class="imagelayer"/><g class="shapelayer"/></g><g class="cartesianlayer"><g class="subplot xy"><g class="layer-subplot"><g class="shapelayer"/><g class="imagelayer"/></g><g class="minor-gridlayer"><g class="x"/><g class="y"/></g><g class="gridlayer"><g class="x"><path class="xgrid crisp" transform="translate(22.17,0)" d="M0,50v75" style="stroke: rgb(235, 240, 248); stroke-opacity: 1; stroke-width: 1px;"/><path class="xgrid crisp" transform="translate(97.65,0)" d="M0,50v75" style="stroke: rgb(235, 240, 248); stroke-opacity: 1; stroke-width: 1px;"/><path class="xgrid crisp" transform="translate(171.91,0)" d="M0,50v75" style="stroke: rgb(235, 240, 248); stroke-opacity: 1; stroke-width: 1px;"/><path class="xgrid crisp" transform="translate(246.17,0)" d="M0,50v75" style="stroke: rgb(235, 240, 248); stroke-opacity: 1; stroke-width: 1px;"/></g><g class="y"><path class="ygrid crisp" transform="translate(0,102.77000000000001)" d="M10,0h280" style="stroke: rgb(235, 240, 248); stroke-opacity: 1; stroke-width: 1px;"/><path class="ygrid crisp" transform="translate(0,80.53999999999999)" d="M10,0h280" style="stroke: rgb(235, 240, 248); stroke-opacity: 1; stroke-width: 1px;"/><path class="ygrid crisp" transform="translate(0,58.31)" d="M10,0h280" style="stroke: rgb(235, 240, 248); stroke-opacity: 1; stroke-width: 1px;"/></g></g><g class="zerolinelayer"><path class="yzl zl crisp" transform="translate(0,125)" d="M10,0h280" style="stroke: rgb(235, 240, 248); stroke-opacity: 1; stroke-width: 2px;"/></g><path class="xlines-below"/><path class="ylines-below"/><g class="overlines-below"/><g class="xaxislayer-below"/><g class="yaxislayer-below"/><g class="overaxes-below"/><g class="plot" transform="translate(10,50)" clip-path="url(#clip578856xyplot)"><g class="scatterlayer mlayer"><g class="trace scatter trace40aea4" style="stroke-miterlimit: 2; opacity: 1;"><g class="fills"/><g class="errorbars"/><g class="lines"><path class="js-line" d="M0,51.77L3.65,48.88L4.87,48.88L9.74,49.1L10.96,48.32L28,47.43L29.22,46.77L52.35,45.99L53.57,41.32L68.17,41.32L70.61,44.54L74.26,43.88L75.48,43.88L84,43.65L85.22,46.1L87.65,47.32L88.87,46.88L90.09,46.43L91.3,47.43L122.96,46.77L124.17,44.54L126.61,45.43L127.83,45.43L129.04,45.21L130.26,41.54L132.7,39.32L133.91,39.32L135.13,38.76L136.35,35.1L138.78,32.98L140,32.98L143.65,32.32L144.87,31.32L148.52,28.87L149.74,28.87L159.48,29.2L160.7,30.32L170.43,30.32L171.65,28.76L172.87,28.76L174.09,26.09L178.96,26.09L180.17,23.09L187.48,23.09L188.7,21.31L196,18.42L197.22,18.42L199.65,14.64L200.87,14.64L202.09,12.75L203.3,8.2L214.26,8.2L215.48,9.86L217.91,10.64L219.13,10.64L221.57,12.86L222.78,13.53L228.87,12.31L230.09,12.31L237.39,12.42L238.61,8.75L241.04,5.08L242.26,4.97L245.91,5.86L247.13,3.75L250.78,4.75L252,5.64L254.43,6.75L255.65,10.53L256.87,11.86L258.09,10.53L260.52,10.64L261.74,8.86L264.17,8.97L265.39,9.09L267.83,8.64L269.04,7.75L272.7,4.64L273.91,4.64L277.57,6.64L278.78,5.75L280,4.64" style="vector-effect: none; fill: none; stroke: rgb(138, 44, 81); stroke-opacity: 1; stroke-width: 5px; opacity: 1;"/></g><g class="points"/><g class="text"/></g><g class="trace scatter traced3c67d" style="stroke-miterlimit: 2; opacity: 1;"><g class="fills"/><g class="errorbars"/><g class="lines"><path class="js-line" d="M0,26.54L4.87,28.09L6.09,28.09L9.74,27.87L10.96,27.2L70.61,28.2L71.83,31.32L84,30.32L85.22,27.76L87.65,23.98L88.87,24.98L90.09,25.98L91.3,22.65L102.26,22.65L103.48,24.31L104.7,24.31L105.91,22.65L107.13,24.31L108.35,22.31L110.78,21.87L112,23.98L114.43,21.87L115.65,21.87L116.87,21.87L118.09,23.98L119.3,23.98L120.52,21.87L122.96,23.98L124.17,21.98L126.61,24.54L127.83,24.54L135.13,25.76L136.35,27.65L140,28.43L141.22,28.43L157.04,29.2L158.26,29.87L187.48,30.87L188.7,32.65L197.22,34.98L198.43,32.87L202.09,33.98L203.3,35.43L214.26,35.43L215.48,33.87L217.91,32.98L219.13,32.98L220.35,32.54L221.57,29.98L224,29.43L225.22,29.76L237.39,29.2L238.61,32.09L241.04,35.43L242.26,35.54L244.7,33.76L245.91,32.98L248.35,35.1L249.57,34.54L254.43,32.09L255.65,28.32L256.87,26.98L258.09,28.32L260.52,28.2L261.74,29.98L264.17,29.87L265.39,29.76L267.83,30.2L269.04,31.09L272.7,34.21L273.91,34.21L277.57,32.21L278.78,33.09L280,34.21" style="vector-effect: none; fill: none; stroke: rgb(0, 174, 239); stroke-opacity: 1; stroke-width: 5px; opacity: 1;"/></g><g class="points"/><g class="text"/></g><g class="trace scatter trace67dd7e" style="stroke-miterlimit: 2; opacity: 1;"><g class="fills"/><g class="errorbars"/><g class="lines"><path class="js-line" d="M0,67.22L13.39,67.33L14.61,67.33L52.35,68.55L53.57,69.44L68.17,69.44L70.61,68.11L71.83,71L74.26,71L90.09,71.89L91.3,72.33L143.65,73.11L144.87,73.55L178.96,73.55" style="vector-effect: none; fill: none; stroke: rgb(255, 192, 203); stroke-opacity: 1; stroke-width: 5px; opacity: 1;"/></g><g class="points"/><g class="text"/></g><g class="trace scatter tracee139d5" style="stroke-miterlimit: 2; opacity: 1;"><g class="fills"/><g class="errorbars"/><g class="lines"><path class="js-line" d="M0,63.33L7.3,63.77L8.52,63.33L31.65,64.66L32.87,64.66L52.35,64.44L53.57,66.11L70.61,65.44L71.83,66.89L85.22,67.22L86.43,68.44L88.87,67.77L90.09,67.11L92.52,69L93.74,69L124.17,68.11L125.39,67.33L130.26,68.55L131.48,69.11L143.65,70.33L144.87,70.78L153.39,71.55L154.61,71.55L197.22,71.55L198.43,73.67L202.09,73.89" style="vector-effect: none; fill: none; stroke: rgb(238, 58, 67); stroke-opacity: 1; stroke-width: 5px; opacity: 1;"/></g><g class="points"/><g class="text"/></g><g class="trace scatter tracedad0f3" style="stroke-miterlimit: 2; opacity: 1;"><g class="fills"/><g class="errorbars"/><g class="lines"><path class="js-line" d="M0,66.22L7.3,66.44L8.52,64.88L10.96,68.33L12.17,68.33L87.65,68.89L88.87,69.33L91.3,69L92.52,69L130.26,70.11L131.48,70.33L144.87,71.55L146.09,71.78L150.96,72.11L152.17,72.11L197.22,73.33L198.43,73.67L202.09,73.89" style="vector-effect: none; fill: none; stroke: rgb(202, 166, 105); stroke-opacity: 1; stroke-width: 5px; opacity: 1;"/></g><g class="points"/><g class="text"/></g></g></g><g class="overplot"/><path class="xlines-above crisp" d="M0,0" style="fill: none;"/><path class="ylines-above crisp" d="M0,0" style="fill: none;"/><g class="overlines-above"/><g class="xaxislayer-above"/><g class="yaxislayer-above"/><g class="overaxes-above"/></g></g><g class="polarlayer"/><g class="smithlayer"/><g class="ternarylayer"/><g class="geolayer"/><g class="funnelarealayer"/><g class="pielayer"/><g class="iciclelayer"/><g class="treemaplayer"/><g class="sunburstlayer"/><g class="glimages"/><defs id="topdefs-578856"><g class="clips"/></defs><g class="layer-above"><g class="imagelayer"/><g class="shapelayer"/></g><g class="infolayer"><g class="g-gtitle"><text class="gtitle" x="15" y="25" text-anchor="start" dy="0em" style="font-family: Ubuntu, verdana, arial, sans-serif; font-size: 16px; fill: rgb(233, 84, 32); opacity: 1; font-weight: normal; white-space: pre;">Prezident/ka 2024</text></g><g class="g-xtitle"/><g class="g-ytitle"/></g></svg>