<svg class="main-svg" xmlns="http://www.w3.org/2000/svg" xmlns:xlink="http://www.w3.org/1999/xlink" width="300" height="135" style="" viewBox="0 0 300 135"><rect x="0" y="0" width="300" height="135" style="fill: rgb(255, 255, 255); fill-opacity: 1;"/><defs id="defs-248d23"><g class="clips"><clipPath id="clip248d23xyplot" class="plotclip"><rect width="280" height="75"/></clipPath><clipPath class="axesclip" id="clip248d23x"><rect x="10" y="0" width="280" height="135"/></clipPath><clipPath class="axesclip" id="clip248d23y"><rect x="0" y="50" width="300" height="75"/></clipPath><clipPath class="axesclip" id="clip248d23xy"><rect x="10" y="50" width="280" height="75"/></clipPath></g><g class="gradients"/><g class="patterns"/></defs><g class="bglayer"/><g class="layer-below"><g class="imagelayer"/><g class="shapelayer"/></g><g class="cartesianlayer"><g class="subplot xy"><g class="layer-subplot"><g class="shapelayer"/><g class="imagelayer"/></g><g class="minor-gridlayer"><g class="x"/><g class="y"/></g><g class="gridlayer"><g class="x"><path class="xgrid crisp" transform="translate(30.29,0)" d="M0,50v75" style="stroke: rgb(235, 240, 248); stroke-opacity: 1; stroke-width: 1px;"/><path class="xgrid crisp" transform="translate(93.19,0)" d="M0,50v75" style="stroke: rgb(235, 240, 248); stroke-opacity: 1; stroke-width: 1px;"/><path class="xgrid crisp" transform="translate(156.09,0)" d="M0,50v75" style="stroke: rgb(235, 240, 248); stroke-opacity: 1; stroke-width: 1px;"/><path class="xgrid crisp" transform="translate(216.96,0)" d="M0,50v75" style="stroke: rgb(235, 240, 248); stroke-opacity: 1; stroke-width: 1px;"/><path class="xgrid crisp" transform="translate(279.86,0)" d="M0,50v75" style="stroke: rgb(235, 240, 248); stroke-opacity: 1; stroke-width: 1px;"/></g><g class="y"><path class="ygrid crisp" transform="translate(0,109.38)" d="M10,0h280" style="stroke: rgb(235, 240, 248); stroke-opacity: 1; stroke-width: 1px;"/><path class="ygrid crisp" transform="translate(0,93.75)" d="M10,0h280" style="stroke: rgb(235, 240, 248); stroke-opacity: 1; stroke-width: 1px;"/><path class="ygrid crisp" transform="translate(0,78.13)" d="M10,0h280" style="stroke: rgb(235, 240, 248); stroke-opacity: 1; stroke-width: 1px;"/><path class="ygrid crisp" transform="translate(0,62.5)" d="M10,0h280" style="stroke: rgb(235, 240, 248); stroke-opacity: 1; stroke-width: 1px;"/></g></g><g class="zerolinelayer"><path class="yzl zl crisp" transform="translate(0,125)" d="M10,0h280" style="stroke: rgb(235, 240, 248); stroke-opacity: 1; stroke-width: 2px;"/></g><path class="xlines-below"/><path class="ylines-below"/><g class="overlines-below"/><g class="xaxislayer-below"/><g class="yaxislayer-below"/><g class="overaxes-below"/><g class="plot" transform="translate(10,50)" clip-path="url(#clip248d23xyplot)"><g class="scatterlayer mlayer"><g class="trace scatter trace5e4d5c" style="stroke-miterlimit: 2; opacity: 1;"><g class="fills"/><g class="errorbars"/><g class="lines"><path class="js-line" d="M0,9.06L6.09,11.25L8.12,11.25L16.23,10.63L18.26,10.16L46.67,10.94L48.7,11.56L117.68,11.56L119.71,15.94L137.97,15.16L140,14.53L144.06,5.78L146.09,5.78L150.14,8.44L152.17,3.91L170.43,3.91L172.46,6.25L174.49,6.25L176.52,3.91L178.55,6.25L180.58,3.75L184.64,3.75L186.67,6.09L188.7,3.75L190.72,3.75L194.78,3.75L196.81,6.09L198.84,6.09L200.87,3.75L202.9,6.09L204.93,6.09L206.96,3.75L208.99,6.72L223.19,7.66L225.22,8.13L229.28,11.41L231.3,11.41L261.74,11.72L263.77,12.66L280,13.44" style="vector-effect: none; fill: none; stroke: rgb(0, 174, 239); stroke-opacity: 1; stroke-width: 5px; opacity: 1;"/></g><g class="points"/><g class="text"/></g><g class="trace scatter trace415532" style="stroke-miterlimit: 2; opacity: 1;"><g class="fills"/><g class="errorbars"/><g class="lines"><path class="js-line" d="M0,43.44L4.06,39.38L6.09,39.38L16.23,39.53L18.26,38.75L46.67,37.66L48.7,36.88L87.25,35.78L89.28,29.69L113.62,29.69L117.68,33.75L119.71,32.97L123.77,32.97L140,32.66L142.03,35.94L146.09,37.34L148.12,36.88L150.14,36.25L152.17,37.66L204.93,36.88L206.96,34.06L211.01,35L213.04,35L215.07,34.69L217.1,29.69L219.13,26.72L221.16,26.72L225.22,25.78L227.25,20.63L229.28,18.13L231.3,17.66L239.42,16.72L241.45,15L247.54,11.41L249.57,11.41L265.8,11.87L267.83,13.44L280,13.44" style="vector-effect: none; fill: none; stroke: rgb(138, 44, 81); stroke-opacity: 1; stroke-width: 5px; opacity: 1;"/></g><g class="points"/><g class="text"/></g><g class="trace scatter trace30d7f0" style="stroke-miterlimit: 2; opacity: 1;"><g class="fills"/><g class="errorbars"/><g class="lines"><path class="js-line" d="M0,59.69L14.2,61.09L16.23,60.31L20.29,59.53L22.32,59.53L87.25,59.84L89.28,61.72L113.62,61.72L117.68,60.31L119.71,50.78L123.77,50.78L142.03,51.56L144.06,52.34L178.55,51.88L180.58,52.97L184.64,53.59L186.67,52.5L190.72,53.59L192.75,53.59L204.93,52.5L206.96,57.03L208.99,53.75L211.01,53.75L215.07,53.91L217.1,56.25L219.13,57.97L221.16,57.97L225.22,57.5L227.25,58.91L237.39,59.22L239.42,59.06L249.57,59.53L251.59,59.53L261.74,59.06L263.77,57.81L265.8,57.81L267.83,55.47L280,55.47" style="vector-effect: none; fill: none; stroke: rgb(255, 1, 170); stroke-opacity: 1; stroke-width: 5px; opacity: 1;"/></g><g class="points"/><g class="text"/></g><g class="trace scatter tracea07ba9" style="stroke-miterlimit: 2; opacity: 1;"><g class="fills"/><g class="errorbars"/><g class="lines"><path class="js-line" d="M0,59.22L12.17,59.69L14.2,58.91L26.38,60L28.41,60L42.61,60.94L44.64,60.94L87.25,60.78L89.28,63.13L117.68,62.03L119.71,64.06L142.03,64.38L144.06,66.09L148.12,65.16L150.14,64.38L152.17,66.88L154.2,66.88L206.96,65.78L208.99,64.53L215.07,64.69L217.1,66.25L221.16,67.03L223.19,67.03L243.48,69.38L245.51,70.16L280,70.31" style="vector-effect: none; fill: none; stroke: rgb(238, 58, 67); stroke-opacity: 1; stroke-width: 5px; opacity: 1;"/></g><g class="points"/><g class="text"/></g><g class="trace scatter trace9f6cf0" style="stroke-miterlimit: 2; opacity: 1;"><g class="fills"/><g class="errorbars"/><g class="lines"><path class="js-line" d="M0,62.97L12.17,63.44L14.2,61.09L18.26,65.94L20.29,65.94L137.97,66.72L140,66.88L204.93,67.81L206.96,68.44L219.13,68.59L221.16,68.59L239.42,69.84L241.45,70.31L259.71,71.09L261.74,71.09L280,71.09" style="vector-effect: none; fill: none; stroke: rgb(202, 166, 105); stroke-opacity: 1; stroke-width: 5px; opacity: 1;"/></g><g class="points"/><g class="text"/></g></g></g><g class="overplot"/><path class="xlines-above crisp" d="M0,0" style="fill: none;"/><path class="ylines-above crisp" d="M0,0" style="fill: none;"/><g class="overlines-above"/><g class="xaxislayer-above"/><g class="yaxislayer-above"/><g class="overaxes-above"/></g></g><g class="polarlayer"/><g class="smithlayer"/><g class="ternarylayer"/><g class="geolayer"/><g class="funnelarealayer"/><g class="pielayer"/><g class="iciclelayer"/><g class="treemaplayer"/><g class="sunburstlayer"/><g class="glimages"/><defs id="topdefs-248d23"><g class="clips"/></defs><g class="layer-above"><g class="imagelayer"/><g class="shapelayer"/></g><g class="infolayer"><g class="g-gtitle"><text class="gtitle" x="15" y="25" text-anchor="start" dy="0em" style="font-family: Ubuntu, verdana, arial, sans-serif; font-size: 16px; fill: rgb(233, 84, 32); opacity: 1; font-weight: normal; white-space: pre;">Prezident/ka 2024</text></g><g class="g-xtitle"/><g class="g-ytitle"/></g></svg>