<svg class="main-svg" xmlns="http://www.w3.org/2000/svg" xmlns:xlink="http://www.w3.org/1999/xlink" width="400" height="400" style="" viewBox="0 0 400 400"><rect x="0" y="0" width="400" height="400" style="fill: rgb(255, 255, 255); fill-opacity: 1;"/><defs id="defs-e74b1d"><g class="clips"><clipPath id="clipe74b1dxyplot" class="plotclip"><rect width="206" height="330"/></clipPath><clipPath class="axesclip" id="clipe74b1dx"><rect x="50" y="0" width="206" height="400"/></clipPath><clipPath class="axesclip" id="clipe74b1dy"><rect x="0" y="20" width="400" height="330"/></clipPath><clipPath class="axesclip" id="clipe74b1dxy"><rect x="50" y="20" width="206" height="330"/></clipPath></g><g class="gradients"/><g class="patterns"/></defs><g class="bglayer"/><g class="layer-below"><g class="imagelayer"/><g class="shapelayer"/></g><g class="cartesianlayer"><g class="subplot xy"><g class="layer-subplot"><g class="shapelayer"/><g class="imagelayer"/></g><g class="minor-gridlayer"><g class="x"/><g class="y"/></g><g class="gridlayer"><g class="x"><path class="xgrid crisp" transform="translate(56.87,0)" d="M0,20v330" style="stroke: rgb(235, 240, 248); stroke-opacity: 1; stroke-width: 1px;"/><path class="xgrid crisp" transform="translate(99.44,0)" d="M0,20v330" style="stroke: rgb(235, 240, 248); stroke-opacity: 1; stroke-width: 1px;"/><path class="xgrid crisp" transform="translate(141.32999999999998,0)" d="M0,20v330" style="stroke: rgb(235, 240, 248); stroke-opacity: 1; stroke-width: 1px;"/><path class="xgrid crisp" transform="translate(183.21,0)" d="M0,20v330" style="stroke: rgb(235, 240, 248); stroke-opacity: 1; stroke-width: 1px;"/><path class="xgrid crisp" transform="translate(224.41,0)" d="M0,20v330" style="stroke: rgb(235, 240, 248); stroke-opacity: 1; stroke-width: 1px;"/></g><g class="y"><path class="ygrid crisp" transform="translate(0,285.89)" d="M50,0h206" style="stroke: rgb(235, 240, 248); stroke-opacity: 1; stroke-width: 1px;"/><path class="ygrid crisp" transform="translate(0,221.78)" d="M50,0h206" style="stroke: rgb(235, 240, 248); stroke-opacity: 1; stroke-width: 1px;"/><path class="ygrid crisp" transform="translate(0,157.67)" d="M50,0h206" style="stroke: rgb(235, 240, 248); stroke-opacity: 1; stroke-width: 1px;"/><path class="ygrid crisp" transform="translate(0,93.56)" d="M50,0h206" style="stroke: rgb(235, 240, 248); stroke-opacity: 1; stroke-width: 1px;"/><path class="ygrid crisp" transform="translate(0,29.45)" d="M50,0h206" style="stroke: rgb(235, 240, 248); stroke-opacity: 1; stroke-width: 1px;"/></g></g><g class="zerolinelayer"><path class="yzl zl crisp" transform="translate(0,350)" d="M50,0h206" style="stroke: rgb(235, 240, 248); stroke-opacity: 1; stroke-width: 2px;"/></g><path class="xlines-below"/><path class="ylines-below"/><g class="overlines-below"/><g class="xaxislayer-below"/><g class="yaxislayer-below"/><g class="overaxes-below"/><g class="plot" transform="translate(50,20)" clip-path="url(#clipe74b1dxyplot)"><g class="scatterlayer mlayer"><g class="trace scatter tracebb1d9b" style="stroke-miterlimit: 2; opacity: 1;"><g class="fills"/><g class="errorbars"/><g class="lines"><path class="js-line" d="M0,196.01L2.06,179.34L2.75,179.34L4.12,179.34L4.81,183.83L6.87,176.13L7.55,176.13L9.61,176.13L10.3,174.21L12.36,174.21L13.05,172.29L15.11,171.01L15.79,171.01L17.17,167.16L17.85,167.16L25.41,167.16L26.09,162.67L29.53,162.67L30.21,135.75L38.45,135.75L39.83,154.34L40.51,150.49L41.89,150.49L46.69,149.85L47.38,149.21L49.44,170.37L50.13,167.8L50.81,165.24L51.5,171.01L57.68,171.01L58.37,168.44L59.05,168.44L59.74,171.01L60.43,168.44L61.11,170.37L61.8,168.44L62.49,168.44L63.17,167.16L65.23,168.44L65.92,168.44L67.29,167.16L67.98,168.44L69.35,167.16L70.04,154.34L71.41,159.47L72.1,159.47L72.79,158.18L73.47,137.03L74.85,124.21L75.53,124.21L76.22,121L76.91,99.84L78.97,87.66L79.65,87.66L80.34,87.66L81.03,83.82L83.77,63.94L84.46,63.94L88.58,64.58L89.27,65.87L89.95,65.87L90.64,72.28L96.13,72.28L96.82,63.3L97.51,63.3L98.19,47.91L100.94,47.91L101.63,30.6L105.75,30.6L106.43,20.35L107.81,16.5L108.49,16.5" style="vector-effect: none; fill: none; stroke: rgb(138, 44, 81); stroke-opacity: 1; stroke-width: 5px; opacity: 1;"/></g><g class="points"/><g class="text"/></g><g class="trace scatter trace2bb35f" style="stroke-miterlimit: 2; opacity: 1;"><g class="fills"/><g class="errorbars"/><g class="lines"><path class="js-line" d="M0,50.48L2.06,59.45L2.75,59.45L4.12,59.45L4.81,63.94L6.87,54.33L7.55,54.33L12.36,54.33L13.05,55.61L15.11,56.89L15.79,56.89L17.17,60.1L17.85,60.1L39.83,60.1L40.51,78.05L46.01,78.05L46.69,74.84L47.38,72.28L48.07,57.53L49.44,35.73L50.13,41.5L50.81,47.27L51.5,28.04L57.68,28.04L58.37,37.66L59.05,37.66L59.74,28.04L60.43,37.66L61.11,26.12L62.49,23.55L63.17,35.73L64.55,23.55L65.23,23.55L65.92,23.55L66.61,35.73L67.29,35.73L67.98,23.55L69.35,35.73L70.04,24.19L71.41,38.94L72.1,38.94L72.79,38.94L73.47,42.79L75.53,42.79L76.22,45.99L78.28,61.38L78.97,61.38L81.71,61.38L82.4,63.3L84.46,63.94L85.15,63.94L87.89,63.94L88.58,65.87L90.64,72.28L92.01,72.28L96.82,72.92L97.51,70.35L98.88,76.76L99.57,76.76L100.94,76.76L101.63,75.48L105.75,75.48L106.43,85.74L107.81,88.3L108.49,88.3" style="vector-effect: none; fill: none; stroke: rgb(0, 174, 239); stroke-opacity: 1; stroke-width: 5px; opacity: 1;"/></g><g class="points"/><g class="text"/></g><g class="trace scatter trace6378fb" style="stroke-miterlimit: 2; opacity: 1;"><g class="fills"/><g class="errorbars"/><g class="lines"><path class="js-line" d="M0,265.25L2.06,267.17L2.75,267.17L4.12,267.17L4.81,271.66L6.87,263.97L7.55,263.97L9.61,263.97L10.3,265.25L13.05,264.61L13.73,263.97L25.41,263.97L26.09,265.25L29.53,265.25L30.21,272.94L38.45,272.94L39.83,267.81L40.51,226.14L41.89,226.14L46.01,226.14L46.69,228.06L49.44,233.83L50.13,231.91L50.81,229.35L51.5,234.48L57.68,234.48L58.37,231.91L59.05,231.91L59.74,234.48L60.43,231.91L61.11,235.76L62.49,238.32L63.17,233.83L64.55,238.32L65.23,238.32L65.92,238.32L66.61,233.83L67.29,233.83L67.98,238.32L69.35,233.83L70.04,252.43L71.41,239.6L72.1,239.6L72.79,240.25L73.47,249.86L74.85,257.56L75.53,257.56L76.22,255.63L76.91,262.04L78.97,263.33L79.65,263.33L81.03,262.68L81.71,262.04L84.46,265.89L85.15,265.89L87.89,265.89L88.58,263.33L90.64,248.58L92.01,248.58L96.13,248.58L96.82,256.91L97.51,259.48L98.19,268.45L100.94,268.45L101.63,273.58L108.49,274.22" style="vector-effect: none; fill: none; stroke: rgb(255, 1, 170); stroke-opacity: 1; stroke-width: 5px; opacity: 1;"/></g><g class="points"/><g class="text"/></g><g class="trace scatter trace30a735" style="stroke-miterlimit: 2; opacity: 1;"><g class="fills"/><g class="errorbars"/><g class="lines"><path class="js-line" d="M0,262.68L2.75,265.25L3.43,265.25L4.12,265.25L4.81,262.68L5.49,263.33L6.18,266.53L12.36,267.17L13.05,269.1L15.11,270.38L15.79,270.38L25.41,270.38L26.09,269.1L29.53,269.1L30.21,278.71L38.45,278.71L39.83,274.87L40.51,283.2L41.89,283.2L46.69,283.84L47.38,285.12L48.07,285.12L48.75,292.17L49.44,292.17L50.13,288.33L50.81,284.48L51.5,295.38L57.68,295.38L58.37,290.25L59.05,290.25L59.74,295.38L60.43,290.25L61.11,294.74L62.49,294.74L63.17,289.61L64.55,294.74L65.23,294.74L65.92,294.74L66.61,289.61L67.29,289.61L67.98,294.74L69.35,289.61L70.04,290.25L71.41,285.76L72.1,285.76L72.79,286.4L73.47,292.82L74.85,296.02L75.53,296.02L78.97,301.79L79.65,301.79L80.34,301.79L81.03,303.07L83.77,310.13L84.46,310.13L100.94,310.13L101.63,309.48L108.49,310.13" style="vector-effect: none; fill: none; stroke: rgb(238, 58, 67); stroke-opacity: 1; stroke-width: 5px; opacity: 1;"/></g><g class="points"/><g class="text"/></g><g class="trace scatter trace742318" style="stroke-miterlimit: 2; opacity: 1;"><g class="fills"/><g class="errorbars"/><g class="lines"><path class="js-line" d="M0,279.35L2.75,280.63L3.43,280.63L4.12,280.63L4.81,271.66L6.87,291.53L7.55,291.53L13.05,290.89L13.73,290.25L29.53,289.61L30.21,292.82L38.45,292.82L39.83,291.53L40.51,294.1L41.89,294.1L46.69,294.74L47.38,295.38L49.44,294.74L50.13,297.3L50.81,299.87L51.5,295.38L57.68,295.38L58.37,297.3L59.05,297.3L59.74,295.38L61.8,299.23L62.49,299.23L63.86,299.23L64.55,299.23L69.35,299.87L70.04,301.79L73.47,301.79L74.16,303.07L76.22,303.71L76.91,304.36L78.97,306.92L79.65,306.92L80.34,306.92L81.03,308.2L83.77,313.33L84.46,313.33L100.94,313.33L101.63,319.74L108.49,319.74" style="vector-effect: none; fill: none; stroke: rgb(202, 166, 105); stroke-opacity: 1; stroke-width: 5px; opacity: 1;"/></g><g class="points"/><g class="text"/></g><g class="trace scatter trace903b90" style="stroke-miterlimit: 2; opacity: 1;"><g class="fills"/><g class="errorbars"/><g class="lines"><path class="js-line" d="M0,285.12L2.75,287.05L3.43,287.05L4.81,286.4L5.49,285.12L7.55,285.76L8.24,285.76L9.61,285.76L10.3,287.05L15.79,286.4L16.48,287.69L25.41,287.69L26.09,292.82L29.53,292.82L30.21,297.94L38.45,297.94L39.83,290.25L40.51,306.92L41.89,306.92L48.07,307.56L48.75,312.05L50.81,312.05L51.5,314.61L57.68,314.61L58.37,313.33L59.05,313.33L59.74,314.61L60.43,313.33L61.11,314.61L61.8,314.61L62.49,314.61L63.17,313.33L65.23,314.61L65.92,314.61L67.29,313.33L67.98,314.61L69.35,313.33L70.04,315.25L72.1,313.97L72.79,313.97L75.53,314.61L76.22,315.25L78.97,317.82L79.65,317.82L80.34,317.82L81.03,319.1L83.09,322.31L83.77,322.31L100.94,321.67" style="vector-effect: none; fill: none; stroke: rgb(255, 192, 203); stroke-opacity: 1; stroke-width: 5px; opacity: 1;"/></g><g class="points"/><g class="text"/></g></g></g><g class="overplot"/><path class="xlines-above crisp" d="M0,0" style="fill: none;"/><path class="ylines-above crisp" d="M0,0" style="fill: none;"/><g class="overlines-above"/><g class="xaxislayer-above"><g class="xtick"><text text-anchor="middle" x="0" y="363" transform="translate(56.87,0)" style="font-family: 'Open Sans', verdana, arial, sans-serif; font-size: 12px; fill: rgb(42, 63, 95); fill-opacity: 1; white-space: pre; opacity: 1;">1.7.23</text></g><g class="xtick"><text text-anchor="middle" x="0" y="363" style="font-family: 'Open Sans', verdana, arial, sans-serif; font-size: 12px; fill: rgb(42, 63, 95); fill-opacity: 1; white-space: pre; opacity: 1;" transform="translate(99.44,0)">1.9.23</text></g><g class="xtick"><text text-anchor="middle" x="0" y="363" style="font-family: 'Open Sans', verdana, arial, sans-serif; font-size: 12px; fill: rgb(42, 63, 95); fill-opacity: 1; white-space: pre; opacity: 1;" transform="translate(141.32999999999998,0)">1.11.23</text></g><g class="xtick"><text text-anchor="middle" x="0" y="363" style="font-family: 'Open Sans', verdana, arial, sans-serif; font-size: 12px; fill: rgb(42, 63, 95); fill-opacity: 1; white-space: pre; opacity: 1;" transform="translate(183.21,0)">1.1.24</text></g><g class="xtick"><text text-anchor="middle" x="0" y="363" style="font-family: 'Open Sans', verdana, arial, sans-serif; font-size: 12px; fill: rgb(42, 63, 95); fill-opacity: 1; white-space: pre; opacity: 1;" transform="translate(224.41,0)">1.3.24</text></g></g><g class="yaxislayer-above"><g class="ytick"><text text-anchor="end" x="49" y="4.199999999999999" transform="translate(0,350)" style="font-family: 'Open Sans', verdana, arial, sans-serif; font-size: 12px; fill: rgb(42, 63, 95); fill-opacity: 1; white-space: pre; opacity: 1;">0%</text></g><g class="ytick"><text text-anchor="end" x="49" y="4.199999999999999" style="font-family: 'Open Sans', verdana, arial, sans-serif; font-size: 12px; fill: rgb(42, 63, 95); fill-opacity: 1; white-space: pre; opacity: 1;" transform="translate(0,285.89)">10%</text></g><g class="ytick"><text text-anchor="end" x="49" y="4.199999999999999" style="font-family: 'Open Sans', verdana, arial, sans-serif; font-size: 12px; fill: rgb(42, 63, 95); fill-opacity: 1; white-space: pre; opacity: 1;" transform="translate(0,221.78)">20%</text></g><g class="ytick"><text text-anchor="end" x="49" y="4.199999999999999" style="font-family: 'Open Sans', verdana, arial, sans-serif; font-size: 12px; fill: rgb(42, 63, 95); fill-opacity: 1; white-space: pre; opacity: 1;" transform="translate(0,157.67)">30%</text></g><g class="ytick"><text text-anchor="end" x="49" y="4.199999999999999" style="font-family: 'Open Sans', verdana, arial, sans-serif; font-size: 12px; fill: rgb(42, 63, 95); fill-opacity: 1; white-space: pre; opacity: 1;" transform="translate(0,93.56)">40%</text></g><g class="ytick"><text text-anchor="end" x="49" y="4.199999999999999" style="font-family: 'Open Sans', verdana, arial, sans-serif; font-size: 12px; fill: rgb(42, 63, 95); fill-opacity: 1; white-space: pre; opacity: 1;" transform="translate(0,29.45)">50%</text></g></g><g class="overaxes-above"/></g></g><g class="polarlayer"/><g class="smithlayer"/><g class="ternarylayer"/><g class="geolayer"/><g class="funnelarealayer"/><g class="pielayer"/><g class="iciclelayer"/><g class="treemaplayer"/><g class="sunburstlayer"/><g class="glimages"/><defs id="topdefs-e74b1d"><g class="clips"/><clipPath id="legende74b1d"><rect width="128" height="124" x="0" y="0"/></clipPath></defs><g class="layer-above"><g class="imagelayer"/><g class="shapelayer"/></g><g class="infolayer"><g class="legend" pointer-events="all" transform="translate(260.12,20)"><rect class="bg" shape-rendering="crispEdges" width="128" height="124" x="0" y="0" style="stroke: rgb(68, 68, 68); stroke-opacity: 1; fill: rgb(255, 255, 255); fill-opacity: 1; stroke-width: 0px;"/><g class="scrollbox" transform="" clip-path="url(#legende74b1d)"><g class="groups"><g class="traces" transform="translate(0,14.5)" style="opacity: 1;"><text class="legendtext" text-anchor="start" x="40" y="4.680000000000001" style="font-family: 'Open Sans', verdana, arial, sans-serif; font-size: 12px; fill: rgb(42, 63, 95); fill-opacity: 1; white-space: pre;">Pellegrini Peter</text><g class="layers" style="opacity: 1;"><g class="legendfill"/><g class="legendlines"><path class="js-line" d="M5,0h30" style="fill: none; stroke: rgb(138, 44, 81); stroke-opacity: 1; stroke-width: 5px;"/></g><g class="legendsymbols"><g class="legendpoints"/></g></g><rect class="legendtoggle" x="0" y="-9.5" width="122.703125" height="19" style="fill: rgb(0, 0, 0); fill-opacity: 0;"/></g><g class="traces" transform="translate(0,33.5)" style="opacity: 1;"><text class="legendtext" text-anchor="start" x="40" y="4.680000000000001" style="font-family: 'Open Sans', verdana, arial, sans-serif; font-size: 12px; fill: rgb(42, 63, 95); fill-opacity: 1; white-space: pre;">Korčok Ivan</text><g class="layers" style="opacity: 1;"><g class="legendfill"/><g class="legendlines"><path class="js-line" d="M5,0h30" style="fill: none; stroke: rgb(0, 174, 239); stroke-opacity: 1; stroke-width: 5px;"/></g><g class="legendsymbols"><g class="legendpoints"/></g></g><rect class="legendtoggle" x="0" y="-9.5" width="122.703125" height="19" style="fill: rgb(0, 0, 0); fill-opacity: 0;"/></g><g class="traces" transform="translate(0,52.5)" style="opacity: 1;"><text class="legendtext" text-anchor="start" x="40" y="4.680000000000001" style="font-family: 'Open Sans', verdana, arial, sans-serif; font-size: 12px; fill: rgb(42, 63, 95); fill-opacity: 1; white-space: pre;">Kubiš Ján</text><g class="layers" style="opacity: 1;"><g class="legendfill"/><g class="legendlines"><path class="js-line" d="M5,0h30" style="fill: none; stroke: rgb(255, 1, 170); stroke-opacity: 1; stroke-width: 5px;"/></g><g class="legendsymbols"><g class="legendpoints"/></g></g><rect class="legendtoggle" x="0" y="-9.5" width="122.703125" height="19" style="fill: rgb(0, 0, 0); fill-opacity: 0;"/></g><g class="traces" transform="translate(0,71.5)" style="opacity: 1;"><text class="legendtext" text-anchor="start" x="40" y="4.680000000000001" style="font-family: 'Open Sans', verdana, arial, sans-serif; font-size: 12px; fill: rgb(42, 63, 95); fill-opacity: 1; white-space: pre;">Fico Robert</text><g class="layers" style="opacity: 1;"><g class="legendfill"/><g class="legendlines"><path class="js-line" d="M5,0h30" style="fill: none; stroke: rgb(238, 58, 67); stroke-opacity: 1; stroke-width: 5px;"/></g><g class="legendsymbols"><g class="legendpoints"/></g></g><rect class="legendtoggle" x="0" y="-9.5" width="122.703125" height="19" style="fill: rgb(0, 0, 0); fill-opacity: 0;"/></g><g class="traces" transform="translate(0,90.5)" style="opacity: 1;"><text class="legendtext" text-anchor="start" x="40" y="4.680000000000001" style="font-family: 'Open Sans', verdana, arial, sans-serif; font-size: 12px; fill: rgb(42, 63, 95); fill-opacity: 1; white-space: pre;">Mistrík Robert</text><g class="layers" style="opacity: 1;"><g class="legendfill"/><g class="legendlines"><path class="js-line" d="M5,0h30" style="fill: none; stroke: rgb(202, 166, 105); stroke-opacity: 1; stroke-width: 5px;"/></g><g class="legendsymbols"><g class="legendpoints"/></g></g><rect class="legendtoggle" x="0" y="-9.5" width="122.703125" height="19" style="fill: rgb(0, 0, 0); fill-opacity: 0;"/></g><g class="traces" transform="translate(0,109.5)" style="opacity: 1;"><text class="legendtext" text-anchor="start" x="40" y="4.680000000000001" style="font-family: 'Open Sans', verdana, arial, sans-serif; font-size: 12px; fill: rgb(42, 63, 95); fill-opacity: 1; white-space: pre;">Lajčák Miroslav</text><g class="layers" style="opacity: 1;"><g class="legendfill"/><g class="legendlines"><path class="js-line" d="M5,0h30" style="fill: none; stroke: rgb(255, 192, 203); stroke-opacity: 1; stroke-width: 5px;"/></g><g class="legendsymbols"><g class="legendpoints"/></g></g><rect class="legendtoggle" x="0" y="-9.5" width="122.703125" height="19" style="fill: rgb(0, 0, 0); fill-opacity: 0;"/></g></g></g><rect class="scrollbar" rx="20" ry="3" width="0" height="0" x="0" y="0" style="fill: rgb(128, 139, 164); fill-opacity: 1;"/></g><g class="g-gtitle"/><g class="g-xtitle"/><g class="g-ytitle"/></g></svg>