<svg class="main-svg" xmlns="http://www.w3.org/2000/svg" xmlns:xlink="http://www.w3.org/1999/xlink" width="300" height="135" style="" viewBox="0 0 300 135"><rect x="0" y="0" width="300" height="135" style="fill: rgb(255, 255, 255); fill-opacity: 1;"/><defs id="defs-1ee417"><g class="clips"><clipPath id="clip1ee417xyplot" class="plotclip"><rect width="280" height="75"/></clipPath><clipPath class="axesclip" id="clip1ee417x"><rect x="10" y="0" width="280" height="135"/></clipPath><clipPath class="axesclip" id="clip1ee417y"><rect x="0" y="50" width="300" height="75"/></clipPath><clipPath class="axesclip" id="clip1ee417xy"><rect x="10" y="50" width="280" height="75"/></clipPath></g><g class="gradients"/><g class="patterns"/></defs><g class="bglayer"/><g class="layer-below"><g class="imagelayer"/><g class="shapelayer"/></g><g class="cartesianlayer"><g class="subplot xy"><g class="layer-subplot"><g class="shapelayer"/><g class="imagelayer"/></g><g class="minor-gridlayer"><g class="x"/><g class="y"/></g><g class="gridlayer"><g class="x"><path class="xgrid crisp" transform="translate(24,0)" d="M0,50v75" style="stroke: rgb(235, 240, 248); stroke-opacity: 1; stroke-width: 1px;"/><path class="xgrid crisp" transform="translate(110.8,0)" d="M0,50v75" style="stroke: rgb(235, 240, 248); stroke-opacity: 1; stroke-width: 1px;"/><path class="xgrid crisp" transform="translate(196.2,0)" d="M0,50v75" style="stroke: rgb(235, 240, 248); stroke-opacity: 1; stroke-width: 1px;"/><path class="xgrid crisp" transform="translate(281.6,0)" d="M0,50v75" style="stroke: rgb(235, 240, 248); stroke-opacity: 1; stroke-width: 1px;"/></g><g class="y"><path class="ygrid crisp" transform="translate(0,102.38)" d="M10,0h280" style="stroke: rgb(235, 240, 248); stroke-opacity: 1; stroke-width: 1px;"/><path class="ygrid crisp" transform="translate(0,79.76)" d="M10,0h280" style="stroke: rgb(235, 240, 248); stroke-opacity: 1; stroke-width: 1px;"/><path class="ygrid crisp" transform="translate(0,57.14)" d="M10,0h280" style="stroke: rgb(235, 240, 248); stroke-opacity: 1; stroke-width: 1px;"/></g></g><g class="zerolinelayer"><path class="yzl zl crisp" transform="translate(0,125)" d="M10,0h280" style="stroke: rgb(235, 240, 248); stroke-opacity: 1; stroke-width: 2px;"/></g><path class="xlines-below"/><path class="ylines-below"/><g class="overlines-below"/><g class="xaxislayer-below"/><g class="yaxislayer-below"/><g class="overaxes-below"/><g class="plot" transform="translate(10,50)" clip-path="url(#clip1ee417xyplot)"><g class="scatterlayer mlayer"><g class="trace scatter trace1307cf" style="stroke-miterlimit: 2; opacity: 1;"><g class="fills"/><g class="errorbars"/><g class="lines"><path class="js-line" d="M0,51.36L4.2,48.42L5.6,48.42L11.2,48.65L12.6,47.86L32.2,46.95L33.6,46.27L60.2,45.48L61.6,40.73L78.4,40.73L81.2,44.01L85.4,43.33L86.8,43.33L96.6,43.11L98,45.6L100.8,46.84L102.2,46.39L103.6,45.93L105,46.95L141.4,46.27L142.8,44.01L145.6,44.92L147,44.92L148.4,44.69L149.8,40.96L152.6,38.7L154,38.7L155.4,38.13L156.8,34.4L159.6,32.25L161,32.25L165.2,31.57L166.6,30.55L170.8,28.07L172.2,28.07L183.4,28.4L184.8,29.54L196,29.54L197.4,27.95L198.8,27.95L200.2,25.24L205.8,25.24L207.2,22.18L215.6,22.18L217,20.38L225.4,17.43L226.8,17.43L228.2,13.59L229.6,13.59L231,13.59L232.4,11.67L233.8,7.03L235.2,7.03L246.4,7.03L247.8,8.73L250.6,9.52L252,9.52L253.4,9.97L254.8,11.78L257.6,12.01L259,11.21L273,11.33L274.4,7.6L277.2,3.86L278.6,3.75L280,4.09" style="vector-effect: none; fill: none; stroke: rgb(138, 44, 81); stroke-opacity: 1; stroke-width: 5px; opacity: 1;"/></g><g class="points"/><g class="text"/></g><g class="trace scatter trace668d46" style="stroke-miterlimit: 2; opacity: 1;"><g class="fills"/><g class="errorbars"/><g class="lines"><path class="js-line" d="M0,25.69L5.6,27.27L7,27.27L11.2,27.05L12.6,26.37L81.2,27.39L82.6,30.55L96.6,29.54L98,26.93L99.4,23.09L100.8,23.09L103.6,25.13L105,21.73L117.6,21.73L119,23.43L120.4,23.43L121.8,21.73L123.2,23.43L124.6,21.39L127.4,20.94L128.8,23.09L131.6,20.94L133,20.94L134.4,20.94L135.8,23.09L137.2,23.09L138.6,20.94L141.4,23.09L142.8,21.05L145.6,23.65L147,23.65L155.4,24.9L156.8,26.82L161,27.61L162.4,27.61L180.6,28.4L182,29.08L215.6,30.1L217,31.91L226.8,34.29L228.2,32.14L232.4,33.27L233.8,34.74L246.4,34.74L247.8,33.15L250.6,32.25L252,32.25L253.4,31.8L254.8,29.2L257.6,28.63L259,28.97L273,28.4L274.4,31.35L277.2,34.74L278.6,34.85L280,34.51" style="vector-effect: none; fill: none; stroke: rgb(0, 174, 239); stroke-opacity: 1; stroke-width: 5px; opacity: 1;"/></g><g class="points"/><g class="text"/></g><g class="trace scatter trace24d373" style="stroke-miterlimit: 2; opacity: 1;"><g class="fills"/><g class="errorbars"/><g class="lines"><path class="js-line" d="M0,63.58L9.8,64.71L11.2,64.03L15.4,63.35L16.8,63.35L60.2,63.58L61.6,64.93L81.2,64.03L82.6,56.68L98,57.36L99.4,58.04L124.6,58.38L126,58.83L141.4,58.04L142.8,61.32L145.6,59.05L147,59.05L148.4,59.17L149.8,60.86L152.6,62.22L154,62.22L155.4,61.88L156.8,63.01L165.2,63.13L166.6,63.01L176.4,63.69L177.8,63.69L180.6,63.24L182,62.22L183.4,62.22L184.8,60.64L196,60.64L197.4,62.11L203,64.14L204.4,64.14L226.8,65.39L228.2,68.89L253.4,70.02L254.8,71.04L273,72.17L274.4,72.96L280,73.3" style="vector-effect: none; fill: none; stroke: rgb(255, 1, 170); stroke-opacity: 1; stroke-width: 5px; opacity: 1;"/></g><g class="points"/><g class="text"/></g><g class="trace scatter trace45b375" style="stroke-miterlimit: 2; opacity: 1;"><g class="fills"/><g class="errorbars"/><g class="lines"><path class="js-line" d="M0,63.13L8.4,63.58L9.8,63.13L36.4,64.48L37.8,64.48L60.2,64.26L61.6,65.95L81.2,65.27L82.6,66.74L98,67.08L99.4,68.33L102.2,67.65L103.6,66.97L106.4,68.89L107.8,68.89L142.8,67.99L144.2,67.2L149.8,68.44L151.2,69.01L165.2,70.25L166.6,70.7L176.4,71.49L177.8,71.49L226.8,71.49L228.2,73.64L232.4,73.87" style="vector-effect: none; fill: none; stroke: rgb(238, 58, 67); stroke-opacity: 1; stroke-width: 5px; opacity: 1;"/></g><g class="points"/><g class="text"/></g><g class="trace scatter trace489716" style="stroke-miterlimit: 2; opacity: 1;"><g class="fills"/><g class="errorbars"/><g class="lines"><path class="js-line" d="M0,67.08L14,67.2L15.4,67.2L60.2,68.44L61.6,69.35L78.4,69.35L81.2,67.99L82.6,70.93L85.4,70.93L103.6,71.83L105,72.29L165.2,73.08L166.6,73.53L205.8,73.53" style="vector-effect: none; fill: none; stroke: rgb(255, 192, 203); stroke-opacity: 1; stroke-width: 5px; opacity: 1;"/></g><g class="points"/><g class="text"/></g></g></g><g class="overplot"/><path class="xlines-above crisp" d="M0,0" style="fill: none;"/><path class="ylines-above crisp" d="M0,0" style="fill: none;"/><g class="overlines-above"/><g class="xaxislayer-above"/><g class="yaxislayer-above"/><g class="overaxes-above"/></g></g><g class="polarlayer"/><g class="smithlayer"/><g class="ternarylayer"/><g class="geolayer"/><g class="funnelarealayer"/><g class="pielayer"/><g class="iciclelayer"/><g class="treemaplayer"/><g class="sunburstlayer"/><g class="glimages"/><defs id="topdefs-1ee417"><g class="clips"/></defs><g class="layer-above"><g class="imagelayer"/><g class="shapelayer"/></g><g class="infolayer"><g class="g-gtitle"><text class="gtitle" x="15" y="25" text-anchor="start" dy="0em" style="font-family: Ubuntu, verdana, arial, sans-serif; font-size: 16px; fill: rgb(233, 84, 32); opacity: 1; font-weight: normal; white-space: pre;">Prezident/ka 2024</text></g><g class="g-xtitle"/><g class="g-ytitle"/></g></svg>