<svg class="main-svg" xmlns="http://www.w3.org/2000/svg" xmlns:xlink="http://www.w3.org/1999/xlink" width="300" height="135" style="" viewBox="0 0 300 135"><rect x="0" y="0" width="300" height="135" style="fill: rgb(255, 255, 255); fill-opacity: 1;"/><defs id="defs-48a669"><g class="clips"><clipPath id="clip48a669xyplot" class="plotclip"><rect width="280" height="75"/></clipPath><clipPath class="axesclip" id="clip48a669x"><rect x="10" y="0" width="280" height="135"/></clipPath><clipPath class="axesclip" id="clip48a669y"><rect x="0" y="50" width="300" height="75"/></clipPath><clipPath class="axesclip" id="clip48a669xy"><rect x="10" y="50" width="280" height="75"/></clipPath></g><g class="gradients"/><g class="patterns"/></defs><g class="bglayer"/><g class="layer-below"><g class="imagelayer"/><g class="shapelayer"/></g><g class="cartesianlayer"><g class="subplot xy"><g class="layer-subplot"><g class="shapelayer"/><g class="imagelayer"/></g><g class="minor-gridlayer"><g class="x"/><g class="y"/></g><g class="gridlayer"><g class="x"><path class="xgrid crisp" transform="translate(30.74,0)" d="M0,50v75" style="stroke: rgb(235, 240, 248); stroke-opacity: 1; stroke-width: 1px;"/><path class="xgrid crisp" transform="translate(95.04,0)" d="M0,50v75" style="stroke: rgb(235, 240, 248); stroke-opacity: 1; stroke-width: 1px;"/><path class="xgrid crisp" transform="translate(159.33,0)" d="M0,50v75" style="stroke: rgb(235, 240, 248); stroke-opacity: 1; stroke-width: 1px;"/><path class="xgrid crisp" transform="translate(221.56,0)" d="M0,50v75" style="stroke: rgb(235, 240, 248); stroke-opacity: 1; stroke-width: 1px;"/><path class="xgrid crisp" transform="translate(285.85,0)" d="M0,50v75" style="stroke: rgb(235, 240, 248); stroke-opacity: 1; stroke-width: 1px;"/></g><g class="y"><path class="ygrid crisp" transform="translate(0,109.38)" d="M10,0h280" style="stroke: rgb(235, 240, 248); stroke-opacity: 1; stroke-width: 1px;"/><path class="ygrid crisp" transform="translate(0,93.75)" d="M10,0h280" style="stroke: rgb(235, 240, 248); stroke-opacity: 1; stroke-width: 1px;"/><path class="ygrid crisp" transform="translate(0,78.13)" d="M10,0h280" style="stroke: rgb(235, 240, 248); stroke-opacity: 1; stroke-width: 1px;"/><path class="ygrid crisp" transform="translate(0,62.5)" d="M10,0h280" style="stroke: rgb(235, 240, 248); stroke-opacity: 1; stroke-width: 1px;"/></g></g><g class="zerolinelayer"><path class="yzl zl crisp" transform="translate(0,125)" d="M10,0h280" style="stroke: rgb(235, 240, 248); stroke-opacity: 1; stroke-width: 2px;"/></g><path class="xlines-below"/><path class="ylines-below"/><g class="overlines-below"/><g class="xaxislayer-below"/><g class="yaxislayer-below"/><g class="overaxes-below"/><g class="plot" transform="translate(10,50)" clip-path="url(#clip48a669xyplot)"><g class="scatterlayer mlayer"><g class="trace scatter trace48a538" style="stroke-miterlimit: 2; opacity: 1;"><g class="fills"/><g class="errorbars"/><g class="lines"><path class="js-line" d="M0,9.06L6.22,11.25L8.3,11.25L16.59,10.63L18.67,10.16L47.7,10.94L49.78,11.56L120.3,11.56L122.37,15.94L141.04,15.16L143.11,14.53L147.26,5.78L149.33,5.78L153.48,8.44L155.56,3.91L174.22,3.91L176.3,6.25L178.37,6.25L180.44,3.91L182.52,6.25L184.59,3.75L188.74,3.75L190.81,6.09L192.89,3.75L194.96,3.75L199.11,3.75L201.19,6.09L203.26,6.09L205.33,3.75L207.41,6.09L209.48,6.09L211.56,3.75L213.63,6.72L228.15,7.66L230.22,8.13L234.37,11.41L236.44,11.41L267.56,11.72L269.63,12.66L280,13.44" style="vector-effect: none; fill: none; stroke: rgb(0, 174, 239); stroke-opacity: 1; stroke-width: 5px; opacity: 1;"/></g><g class="points"/><g class="text"/></g><g class="trace scatter tracea6ec1c" style="stroke-miterlimit: 2; opacity: 1;"><g class="fills"/><g class="errorbars"/><g class="lines"><path class="js-line" d="M0,43.44L4.15,39.38L6.22,39.38L16.59,39.53L18.67,38.75L47.7,37.66L49.78,36.88L89.19,35.78L91.26,29.69L116.15,29.69L120.3,33.75L122.37,32.97L126.52,32.97L143.11,32.66L145.19,35.94L149.33,37.34L151.41,36.88L153.48,36.25L155.56,37.66L209.48,36.88L211.56,34.06L215.7,35L217.78,35L219.85,34.69L221.93,29.69L224,26.72L226.07,26.72L230.22,25.78L232.3,20.63L234.37,18.13L236.44,17.66L244.74,16.72L246.81,15L253.04,11.41L255.11,11.41L271.7,11.87L273.78,13.44L280,13.44" style="vector-effect: none; fill: none; stroke: rgb(138, 44, 81); stroke-opacity: 1; stroke-width: 5px; opacity: 1;"/></g><g class="points"/><g class="text"/></g><g class="trace scatter trace89ec7d" style="stroke-miterlimit: 2; opacity: 1;"><g class="fills"/><g class="errorbars"/><g class="lines"><path class="js-line" d="M0,59.69L14.52,61.09L16.59,60.31L20.74,59.53L22.81,59.53L89.19,59.84L91.26,61.72L116.15,61.72L120.3,60.31L122.37,50.78L126.52,50.78L145.19,51.56L147.26,52.34L182.52,51.88L184.59,52.97L188.74,53.59L190.81,52.5L194.96,53.59L197.04,53.59L209.48,52.5L211.56,57.03L213.63,53.75L215.7,53.75L219.85,53.91L221.93,56.25L224,57.97L226.07,57.97L230.22,57.5L232.3,58.91L242.67,59.22L244.74,59.06L255.11,59.53L257.19,59.53L267.56,59.06L269.63,57.81L271.7,57.81L273.78,55.47L280,55.47" style="vector-effect: none; fill: none; stroke: rgb(255, 1, 170); stroke-opacity: 1; stroke-width: 5px; opacity: 1;"/></g><g class="points"/><g class="text"/></g><g class="trace scatter trace8b258d" style="stroke-miterlimit: 2; opacity: 1;"><g class="fills"/><g class="errorbars"/><g class="lines"><path class="js-line" d="M0,59.22L12.44,59.69L14.52,58.91L26.96,60L29.04,60L43.56,60.94L45.63,60.94L89.19,60.78L91.26,63.13L120.3,62.03L122.37,64.06L145.19,64.38L147.26,66.09L151.41,65.16L153.48,64.38L155.56,66.88L157.63,66.88L211.56,65.78L213.63,64.53L219.85,64.69L221.93,66.25L226.07,67.03L228.15,67.03L248.89,69.38L250.96,70.16L280,70.31" style="vector-effect: none; fill: none; stroke: rgb(238, 58, 67); stroke-opacity: 1; stroke-width: 5px; opacity: 1;"/></g><g class="points"/><g class="text"/></g><g class="trace scatter trace295179" style="stroke-miterlimit: 2; opacity: 1;"><g class="fills"/><g class="errorbars"/><g class="lines"><path class="js-line" d="M0,62.97L12.44,63.44L14.52,61.09L18.67,65.94L20.74,65.94L141.04,66.72L143.11,66.88L209.48,67.81L211.56,68.44L224,68.59L226.07,68.59L244.74,69.84L246.81,70.31L265.48,71.09L267.56,71.09L280,71.09" style="vector-effect: none; fill: none; stroke: rgb(202, 166, 105); stroke-opacity: 1; stroke-width: 5px; opacity: 1;"/></g><g class="points"/><g class="text"/></g></g></g><g class="overplot"/><path class="xlines-above crisp" d="M0,0" style="fill: none;"/><path class="ylines-above crisp" d="M0,0" style="fill: none;"/><g class="overlines-above"/><g class="xaxislayer-above"/><g class="yaxislayer-above"/><g class="overaxes-above"/></g></g><g class="polarlayer"/><g class="smithlayer"/><g class="ternarylayer"/><g class="geolayer"/><g class="funnelarealayer"/><g class="pielayer"/><g class="iciclelayer"/><g class="treemaplayer"/><g class="sunburstlayer"/><g class="glimages"/><defs id="topdefs-48a669"><g class="clips"/></defs><g class="layer-above"><g class="imagelayer"/><g class="shapelayer"/></g><g class="infolayer"><g class="g-gtitle"><text class="gtitle" x="15" y="25" text-anchor="start" dy="0em" style="font-family: Ubuntu, verdana, arial, sans-serif; font-size: 16px; fill: rgb(233, 84, 32); opacity: 1; font-weight: normal; white-space: pre;">Prezident/ka 2024</text></g><g class="g-xtitle"/><g class="g-ytitle"/></g></svg>