<svg class="main-svg" xmlns="http://www.w3.org/2000/svg" xmlns:xlink="http://www.w3.org/1999/xlink" width="1200" height="600" style="" viewBox="0 0 1200 600"><rect x="0" y="0" width="1200" height="600" style="fill: rgb(255, 255, 255); fill-opacity: 1;"/><defs id="defs-0dfc1a"><g class="clips"><clipPath id="clip0dfc1axyplot" class="plotclip"><rect width="990" height="530"/></clipPath><clipPath class="axesclip" id="clip0dfc1ax"><rect x="50" y="0" width="990" height="600"/></clipPath><clipPath class="axesclip" id="clip0dfc1ay"><rect x="0" y="20" width="1200" height="530"/></clipPath><clipPath class="axesclip" id="clip0dfc1axy"><rect x="50" y="20" width="990" height="530"/></clipPath></g><g class="gradients"/><g class="patterns"/></defs><g class="bglayer"/><g class="layer-below"><g class="imagelayer"/><g class="shapelayer"/></g><g class="cartesianlayer"><g class="subplot xy"><g class="layer-subplot"><g class="shapelayer"/><g class="imagelayer"/></g><g class="minor-gridlayer"><g class="x"/><g class="y"/></g><g class="gridlayer"><g class="x"><path class="xgrid crisp" transform="translate(84.14,0)" d="M0,20v530" style="stroke: rgb(235, 240, 248); stroke-opacity: 1; stroke-width: 1px;"/><path class="xgrid crisp" transform="translate(189.97,0)" d="M0,20v530" style="stroke: rgb(235, 240, 248); stroke-opacity: 1; stroke-width: 1px;"/><path class="xgrid crisp" transform="translate(295.78999999999996,0)" d="M0,20v530" style="stroke: rgb(235, 240, 248); stroke-opacity: 1; stroke-width: 1px;"/><path class="xgrid crisp" transform="translate(398.21,0)" d="M0,20v530" style="stroke: rgb(235, 240, 248); stroke-opacity: 1; stroke-width: 1px;"/><path class="xgrid crisp" transform="translate(504.03,0)" d="M0,20v530" style="stroke: rgb(235, 240, 248); stroke-opacity: 1; stroke-width: 1px;"/><path class="xgrid crisp" transform="translate(606.45,0)" d="M0,20v530" style="stroke: rgb(235, 240, 248); stroke-opacity: 1; stroke-width: 1px;"/><path class="xgrid crisp" transform="translate(712.28,0)" d="M0,20v530" style="stroke: rgb(235, 240, 248); stroke-opacity: 1; stroke-width: 1px;"/><path class="xgrid crisp" transform="translate(818.1,0)" d="M0,20v530" style="stroke: rgb(235, 240, 248); stroke-opacity: 1; stroke-width: 1px;"/><path class="xgrid crisp" transform="translate(917.1,0)" d="M0,20v530" style="stroke: rgb(235, 240, 248); stroke-opacity: 1; stroke-width: 1px;"/><path class="xgrid crisp" transform="translate(1022.93,0)" d="M0,20v530" style="stroke: rgb(235, 240, 248); stroke-opacity: 1; stroke-width: 1px;"/></g><g class="y"><path class="ygrid crisp" transform="translate(0,478.78)" d="M50,0h990" style="stroke: rgb(235, 240, 248); stroke-opacity: 1; stroke-width: 1px;"/><path class="ygrid crisp" transform="translate(0,407.57)" d="M50,0h990" style="stroke: rgb(235, 240, 248); stroke-opacity: 1; stroke-width: 1px;"/><path class="ygrid crisp" transform="translate(0,336.35)" d="M50,0h990" style="stroke: rgb(235, 240, 248); stroke-opacity: 1; stroke-width: 1px;"/><path class="ygrid crisp" transform="translate(0,265.13)" d="M50,0h990" style="stroke: rgb(235, 240, 248); stroke-opacity: 1; stroke-width: 1px;"/><path class="ygrid crisp" transform="translate(0,193.92)" d="M50,0h990" style="stroke: rgb(235, 240, 248); stroke-opacity: 1; stroke-width: 1px;"/><path class="ygrid crisp" transform="translate(0,122.7)" d="M50,0h990" style="stroke: rgb(235, 240, 248); stroke-opacity: 1; stroke-width: 1px;"/><path class="ygrid crisp" transform="translate(0,51.489999999999995)" d="M50,0h990" style="stroke: rgb(235, 240, 248); stroke-opacity: 1; stroke-width: 1px;"/></g></g><g class="zerolinelayer"><path class="yzl zl crisp" transform="translate(0,550)" d="M50,0h990" style="stroke: rgb(235, 240, 248); stroke-opacity: 1; stroke-width: 2px;"/></g><path class="xlines-below"/><path class="ylines-below"/><g class="overlines-below"/><g class="xaxislayer-below"/><g class="yaxislayer-below"/><g class="overaxes-below"/><g class="plot" transform="translate(50,20)" clip-path="url(#clip0dfc1axyplot)"><g class="scatterlayer mlayer"><g class="trace scatter trace1a9091" style="stroke-miterlimit: 2; opacity: 1;"><g class="fills"/><g class="errorbars"/><g class="lines"><path class="js-line" d="M0,381.16L6.83,362.64L10.24,362.64L20.48,362.64L23.9,367.63L30.72,359.08L34.14,359.08L47.79,359.08L51.21,356.94L61.45,356.94L64.86,354.81L68.28,353.38L71.69,353.38L78.52,353.38L81.93,349.11L126.31,349.11L129.72,344.13L146.79,344.13L150.21,314.21L191.17,314.21L198,334.87L201.41,330.59L208.24,330.59L232.14,329.88L235.55,329.17L238.97,344.84L242.38,352.67L245.79,352.67L249.21,349.82L252.62,346.97L256.03,353.38L286.76,353.38L290.17,350.53L293.59,350.53L297,353.38L300.41,350.53L303.83,352.67L307.24,350.53L310.66,350.53L314.07,349.11L317.48,350.53L327.72,350.53L331.14,349.11L334.55,349.11L337.97,350.53L341.38,349.11L344.79,349.11L348.21,334.87L351.62,340.56L358.45,340.56L361.86,339.14L365.28,315.64L368.69,301.4L375.52,301.4L378.93,297.83L382.34,274.33L385.76,262.94L389.17,260.8L392.59,260.8L399.41,260.8L402.83,256.53L409.66,244.42L413.07,234.45L440.38,235.16L443.79,236.59L447.21,236.59L450.62,243.71L477.93,243.71L481.34,233.74L484.76,233.74L488.17,216.65L501.83,216.65L505.24,197.42L525.72,197.42L529.14,186.02L532.55,181.75L535.97,181.75L539.38,181.75L542.79,177.48L546.21,171.07L549.62,167.51L553.03,167.51L556.45,143.29L563.28,143.29L566.69,131.19L570.1,101.99L573.52,101.99L600.83,101.99L604.24,112.67L607.66,117.66L611.07,117.66L614.48,117.66L617.9,120.51L621.31,131.9L624.72,136.17L628.14,133.32L631.55,128.34L655.45,128.34L658.86,126.92L662.28,130.48L665.69,129.05L672.52,89.88L675.93,82.05L679.34,81.34L682.76,83.47L686.17,92.02L689.59,87.03L693,73.5L696.41,73.5L703.24,79.91L706.66,85.61L710.07,92.02L713.48,92.73L716.9,116.94L720.31,125.49L723.72,116.94L727.14,120.51L730.55,117.66L733.97,106.26L737.38,103.41L740.79,106.97L747.62,109.11L751.03,104.84L754.45,99.14L757.86,89.17L761.28,79.2L764.69,79.2L768.1,79.2L771.52,82.05L774.93,90.59L778.34,92.02L781.76,86.32L785.17,85.61L788.59,90.59L792,104.84L795.41,132.61L798.83,144.72L802.24,143.29L805.66,143.29L809.07,144.01L812.48,150.42L815.9,152.55L819.31,151.13L822.72,143.29L826.14,151.13L832.97,156.11L836.38,146.14L839.79,124.78L843.21,111.96L846.62,102.7L850.03,101.99L853.45,86.32L856.86,87.03L860.28,86.32L863.69,82.76L867.1,87.75L870.52,99.14L880.76,99.14L884.17,95.58L887.59,94.16L891,89.88L897.83,89.88L901.24,87.03L904.66,79.91L908.07,77.06L911.48,72.79L914.9,53.56L918.31,47.15L921.72,47.15L925.14,40.03L928.55,38.61L931.97,34.33L935.38,26.5" style="vector-effect: none; fill: none; stroke: rgb(138, 44, 81); stroke-opacity: 1; stroke-width: 5px; opacity: 1;"/></g><g class="points"/><g class="text"/></g><g class="trace scatter trace3b6c4c" style="stroke-miterlimit: 2; opacity: 1;"><g class="fills"/><g class="errorbars"/><g class="lines"><path class="js-line" d="M0,219.5L6.83,229.47L10.24,229.47L20.48,229.47L23.9,234.45L30.72,223.77L34.14,223.77L61.45,223.77L64.86,225.19L68.28,226.62L71.69,226.62L78.52,226.62L81.93,230.18L198,230.18L201.41,250.12L228.72,250.12L232.14,246.56L235.55,243.71L238.97,227.33L242.38,203.12L245.79,203.12L252.62,215.94L256.03,194.57L286.76,194.57L290.17,205.25L293.59,205.25L297,194.57L300.41,205.25L303.83,192.43L307.24,189.59L310.66,189.59L314.07,203.12L317.48,189.59L327.72,189.59L331.14,203.12L334.55,203.12L337.97,189.59L341.38,203.12L344.79,203.12L348.21,190.3L351.62,206.68L361.86,206.68L365.28,210.95L375.52,210.95L378.93,214.51L382.34,226.62L385.76,230.89L392.59,231.6L396,231.6L406.24,231.6L409.66,233.74L416.48,234.45L419.9,234.45L436.97,234.45L440.38,236.59L443.79,240.86L447.21,240.86L450.62,243.71L457.45,243.71L481.34,244.42L484.76,241.57L488.17,248.7L491.59,248.7L501.83,248.7L505.24,247.27L525.72,247.27L529.14,258.67L532.55,261.51L535.97,261.51L539.38,261.51L542.79,265.79L549.62,273.62L553.03,273.62L556.45,260.09L559.86,260.09L563.28,260.09L566.69,267.21L570.1,276.47L573.52,276.47L600.83,276.47L604.24,266.5L607.66,260.8L611.07,260.8L614.48,260.8L617.9,257.95L621.31,241.57L624.72,236.59L631.55,240.15L634.97,240.15L652.03,240.15L655.45,238.72L658.86,240.15L662.28,236.59L665.69,236.59L669.1,255.1L672.52,268.64L675.93,276.47L679.34,277.18L682.76,275.05L686.17,265.79L689.59,260.8L693,274.33L696.41,274.33L703.24,267.92L706.66,262.23L710.07,255.82L713.48,255.1L716.9,230.89L720.31,222.35L723.72,230.89L727.14,227.33L730.55,230.18L733.97,241.57L737.38,244.42L740.79,240.86L747.62,238.72L751.03,243L754.45,248.7L757.86,258.67L761.28,268.64L764.69,268.64L768.1,268.64L771.52,265.79L774.93,257.24L778.34,255.82L781.76,261.51L785.17,262.23L788.59,257.24L792,243L795.41,215.22L798.83,203.12L802.24,204.54L805.66,204.54L809.07,203.83L812.48,197.42L815.9,195.28L819.31,196.71L822.72,204.54L826.14,196.71L832.97,191.72L836.38,201.69L839.79,223.06L843.21,235.88L846.62,245.13L850.03,245.85L853.45,261.51L856.86,260.8L860.28,261.51L863.69,265.07L867.1,260.09L870.52,248.7L880.76,248.7L884.17,252.26L887.59,253.68L891,257.95L897.83,257.95L901.24,260.8L904.66,267.92L908.07,270.77L911.48,275.05L914.9,294.27L918.31,300.68L921.72,300.68L925.14,307.8L928.55,309.23L931.97,313.5L935.38,321.34" style="vector-effect: none; fill: none; stroke: rgb(0, 174, 239); stroke-opacity: 1; stroke-width: 5px; opacity: 1;"/></g><g class="points"/><g class="text"/></g><g class="trace scatter trace76f01a" style="stroke-miterlimit: 2; opacity: 1;"><g class="fills"/><g class="errorbars"/><g class="lines"><path class="js-line" d="M0,480.15L10.24,482.29L13.66,482.29L23.9,481.57L27.31,480.15L34.14,480.86L37.55,480.86L47.79,480.86L51.21,482.29L78.52,481.57L81.93,483L126.31,483L129.72,488.69L146.79,488.69L150.21,494.39L191.17,494.39L198,485.85L201.41,504.36L208.24,504.36L238.97,505.07L242.38,510.06L252.62,510.06L256.03,512.91L286.76,512.91L290.17,511.48L293.59,511.48L297,512.91L300.41,511.48L303.83,512.91L310.66,512.91L314.07,511.48L317.48,512.91L320.9,512.91L327.72,512.91L331.14,511.48L334.55,511.48L337.97,512.91L341.38,511.48L344.79,511.48L348.21,513.62L351.62,512.2L375.52,512.91L378.93,513.62L385.76,515.76L389.17,516.47L399.41,516.47L402.83,517.89L406.24,520.74L409.66,520.74L416.48,521.45L419.9,521.45L501.83,520.74" style="vector-effect: none; fill: none; stroke: rgb(255, 192, 203); stroke-opacity: 1; stroke-width: 5px; opacity: 1;"/></g><g class="points"/><g class="text"/></g><g class="trace scatter traceabd0e3" style="stroke-miterlimit: 2; opacity: 1;"><g class="fills"/><g class="errorbars"/><g class="lines"><path class="js-line" d="M0,473.74L10.24,475.16L13.66,475.16L20.48,475.16L23.9,465.19L30.72,487.27L34.14,487.27L64.86,486.56L68.28,485.85L146.79,485.13L150.21,488.69L191.17,488.69L198,487.27L201.41,490.12L208.24,490.12L232.14,490.83L235.55,491.54L245.79,490.83L249.21,493.68L252.62,496.53L256.03,491.54L286.76,491.54L290.17,493.68L293.59,493.68L297,491.54L300.41,493.68L303.83,492.97L307.24,495.82L310.66,495.82L314.07,496.53L317.48,495.82L344.79,496.53L348.21,498.66L365.28,498.66L368.69,500.09L378.93,500.8L382.34,501.51L389.17,504.36L392.59,504.36L399.41,504.36L402.83,505.79L413.07,511.48L416.48,511.48L501.83,511.48L505.24,518.61L553.03,519.32L556.45,521.45L563.28,521.45L566.69,522.88" style="vector-effect: none; fill: none; stroke: rgb(202, 166, 105); stroke-opacity: 1; stroke-width: 5px; opacity: 1;"/></g><g class="points"/><g class="text"/></g><g class="trace scatter trace4ebe5b" style="stroke-miterlimit: 2; opacity: 1;"><g class="fills"/><g class="errorbars"/><g class="lines"><path class="js-line" d="M0,458.07L6.83,460.21L10.24,460.21L20.48,460.21L23.9,465.19L30.72,456.65L34.14,456.65L47.79,456.65L51.21,458.07L64.86,457.36L68.28,456.65L126.31,456.65L129.72,458.07L146.79,458.07L150.21,466.62L191.17,466.62L198,460.92L201.41,414.63L208.24,414.63L228.72,414.63L232.14,416.77L235.55,418.9L238.97,418.9L242.38,423.18L245.79,423.18L252.62,418.19L256.03,423.89L286.76,423.89L290.17,421.04L293.59,421.04L297,423.89L300.41,421.04L303.83,425.31L307.24,428.16L310.66,428.16L314.07,423.18L317.48,428.16L327.72,428.16L331.14,423.18L334.55,423.18L337.97,428.16L341.38,423.18L344.79,423.18L348.21,443.83L351.62,429.58L361.86,430.3L365.28,440.98L368.69,449.53L372.1,449.53L375.52,449.53L378.93,447.39L382.34,454.51L385.76,455.93L402.83,455.22L406.24,454.51L409.66,455.93L413.07,458.78L436.97,458.78L440.38,455.93L443.79,449.53L447.21,449.53L450.62,439.56L457.45,439.56L477.93,439.56L481.34,448.81L484.76,451.66L488.17,461.63L501.83,461.63L505.24,467.33L542.79,468.04L546.21,468.75L553.03,469.47L556.45,491.54L563.28,491.54L566.69,494.39L570.1,498.66L573.52,498.66L617.9,498.66L621.31,505.07L624.72,505.07L628.14,506.5L631.55,509.35L634.97,509.35L652.03,509.35L655.45,510.77L662.28,510.77L665.69,512.2L669.1,517.18L672.52,519.32L682.76,519.32L686.17,520.74" style="vector-effect: none; fill: none; stroke: rgb(255, 1, 170); stroke-opacity: 1; stroke-width: 5px; opacity: 1;"/></g><g class="points"/><g class="text"/></g><g class="trace scatter tracefbd2c9" style="stroke-miterlimit: 2; opacity: 1;"><g class="fills"/><g class="errorbars"/><g class="lines"><path class="js-line" d="M0,455.22L6.83,458.07L10.24,458.07L20.48,458.07L23.9,455.22L27.31,455.93L30.72,459.5L61.45,460.21L64.86,462.34L68.28,463.77L71.69,463.77L126.31,463.77L129.72,462.34L146.79,462.34L150.21,473.03L191.17,473.03L198,468.75L201.41,478.01L208.24,478.01L232.14,478.72L235.55,480.15L238.97,480.15L242.38,487.98L245.79,487.98L249.21,483.71L252.62,479.44L256.03,491.54L286.76,491.54L290.17,485.85L293.59,485.85L297,491.54L300.41,485.85L303.83,490.83L310.66,490.83L314.07,485.13L317.48,490.83L320.9,490.83L327.72,490.83L331.14,485.13L334.55,485.13L337.97,490.83L341.38,485.13L344.79,485.13L348.21,485.85L351.62,480.86L361.86,481.57L365.28,488.69L368.69,492.26L372.1,492.26L375.52,492.26L378.93,493.68L389.17,498.66L392.59,498.66L399.41,498.66L402.83,500.09L413.07,507.92L416.48,507.92L501.83,507.92L505.24,507.21L553.03,507.92L556.45,521.45L563.28,521.45L566.69,522.88" style="vector-effect: none; fill: none; stroke: rgb(238, 58, 67); stroke-opacity: 1; stroke-width: 5px; opacity: 1;"/></g><g class="points"/><g class="text"/></g></g></g><g class="overplot"/><path class="xlines-above crisp" d="M0,0" style="fill: none;"/><path class="ylines-above crisp" d="M0,0" style="fill: none;"/><g class="overlines-above"/><g class="xaxislayer-above"><g class="xtick"><text text-anchor="middle" x="0" y="563" transform="translate(84.14,0)" style="font-family: 'Open Sans', verdana, arial, sans-serif; font-size: 12px; fill: rgb(42, 63, 95); fill-opacity: 1; white-space: pre; opacity: 1;">1.7.23</text></g><g class="xtick"><text text-anchor="middle" x="0" y="563" style="font-family: 'Open Sans', verdana, arial, sans-serif; font-size: 12px; fill: rgb(42, 63, 95); fill-opacity: 1; white-space: pre; opacity: 1;" transform="translate(189.97,0)">1.8.23</text></g><g class="xtick"><text text-anchor="middle" x="0" y="563" style="font-family: 'Open Sans', verdana, arial, sans-serif; font-size: 12px; fill: rgb(42, 63, 95); fill-opacity: 1; white-space: pre; opacity: 1;" transform="translate(295.78999999999996,0)">1.9.23</text></g><g class="xtick"><text text-anchor="middle" x="0" y="563" style="font-family: 'Open Sans', verdana, arial, sans-serif; font-size: 12px; fill: rgb(42, 63, 95); fill-opacity: 1; white-space: pre; opacity: 1;" transform="translate(398.21,0)">1.10.23</text></g><g class="xtick"><text text-anchor="middle" x="0" y="563" style="font-family: 'Open Sans', verdana, arial, sans-serif; font-size: 12px; fill: rgb(42, 63, 95); fill-opacity: 1; white-space: pre; opacity: 1;" transform="translate(504.03,0)">1.11.23</text></g><g class="xtick"><text text-anchor="middle" x="0" y="563" style="font-family: 'Open Sans', verdana, arial, sans-serif; font-size: 12px; fill: rgb(42, 63, 95); fill-opacity: 1; white-space: pre; opacity: 1;" transform="translate(606.45,0)">1.12.23</text></g><g class="xtick"><text text-anchor="middle" x="0" y="563" style="font-family: 'Open Sans', verdana, arial, sans-serif; font-size: 12px; fill: rgb(42, 63, 95); fill-opacity: 1; white-space: pre; opacity: 1;" transform="translate(712.28,0)">1.1.24</text></g><g class="xtick"><text text-anchor="middle" x="0" y="563" style="font-family: 'Open Sans', verdana, arial, sans-serif; font-size: 12px; fill: rgb(42, 63, 95); fill-opacity: 1; white-space: pre; opacity: 1;" transform="translate(818.1,0)">1.2.24</text></g><g class="xtick"><text text-anchor="middle" x="0" y="563" style="font-family: 'Open Sans', verdana, arial, sans-serif; font-size: 12px; fill: rgb(42, 63, 95); fill-opacity: 1; white-space: pre; opacity: 1;" transform="translate(917.1,0)">1.3.24</text></g><g class="xtick"><text text-anchor="middle" x="0" y="563" style="font-family: 'Open Sans', verdana, arial, sans-serif; font-size: 12px; fill: rgb(42, 63, 95); fill-opacity: 1; white-space: pre; opacity: 1;" transform="translate(1022.93,0)">1.4.24</text></g></g><g class="yaxislayer-above"><g class="ytick"><text text-anchor="end" x="49" y="4.199999999999999" transform="translate(0,550)" style="font-family: 'Open Sans', verdana, arial, sans-serif; font-size: 12px; fill: rgb(42, 63, 95); fill-opacity: 1; white-space: pre; opacity: 1;">0%</text></g><g class="ytick"><text text-anchor="end" x="49" y="4.199999999999999" style="font-family: 'Open Sans', verdana, arial, sans-serif; font-size: 12px; fill: rgb(42, 63, 95); fill-opacity: 1; white-space: pre; opacity: 1;" transform="translate(0,478.78)">10%</text></g><g class="ytick"><text text-anchor="end" x="49" y="4.199999999999999" style="font-family: 'Open Sans', verdana, arial, sans-serif; font-size: 12px; fill: rgb(42, 63, 95); fill-opacity: 1; white-space: pre; opacity: 1;" transform="translate(0,407.57)">20%</text></g><g class="ytick"><text text-anchor="end" x="49" y="4.199999999999999" style="font-family: 'Open Sans', verdana, arial, sans-serif; font-size: 12px; fill: rgb(42, 63, 95); fill-opacity: 1; white-space: pre; opacity: 1;" transform="translate(0,336.35)">30%</text></g><g class="ytick"><text text-anchor="end" x="49" y="4.199999999999999" style="font-family: 'Open Sans', verdana, arial, sans-serif; font-size: 12px; fill: rgb(42, 63, 95); fill-opacity: 1; white-space: pre; opacity: 1;" transform="translate(0,265.13)">40%</text></g><g class="ytick"><text text-anchor="end" x="49" y="4.199999999999999" style="font-family: 'Open Sans', verdana, arial, sans-serif; font-size: 12px; fill: rgb(42, 63, 95); fill-opacity: 1; white-space: pre; opacity: 1;" transform="translate(0,193.92)">50%</text></g><g class="ytick"><text text-anchor="end" x="49" y="4.199999999999999" style="font-family: 'Open Sans', verdana, arial, sans-serif; font-size: 12px; fill: rgb(42, 63, 95); fill-opacity: 1; white-space: pre; opacity: 1;" transform="translate(0,122.7)">60%</text></g><g class="ytick"><text text-anchor="end" x="49" y="4.199999999999999" style="font-family: 'Open Sans', verdana, arial, sans-serif; font-size: 12px; fill: rgb(42, 63, 95); fill-opacity: 1; white-space: pre; opacity: 1;" transform="translate(0,51.489999999999995)">70%</text></g></g><g class="overaxes-above"/></g></g><g class="polarlayer"/><g class="smithlayer"/><g class="ternarylayer"/><g class="geolayer"/><g class="funnelarealayer"/><g class="pielayer"/><g class="iciclelayer"/><g class="treemaplayer"/><g class="sunburstlayer"/><g class="glimages"/><defs id="topdefs-0dfc1a"><g class="clips"/><clipPath id="legend0dfc1a"><rect width="128" height="124" x="0" y="0"/></clipPath></defs><g class="layer-above"><g class="imagelayer"/><g class="shapelayer"/></g><g class="infolayer"><g class="legend" pointer-events="all" transform="translate(1059.8000000000002,20)"><rect class="bg" shape-rendering="crispEdges" style="stroke: rgb(68, 68, 68); stroke-opacity: 1; fill: rgb(255, 255, 255); fill-opacity: 1; stroke-width: 0px;" width="128" height="124" x="0" y="0"/><g class="scrollbox" transform="" clip-path="url(#legend0dfc1a)"><g class="groups"><g class="traces" transform="translate(0,14.5)" style="opacity: 1;"><text class="legendtext" text-anchor="start" x="40" y="4.680000000000001" style="font-family: 'Open Sans', verdana, arial, sans-serif; font-size: 12px; fill: rgb(42, 63, 95); fill-opacity: 1; white-space: pre;">Pellegrini Peter</text><g class="layers" style="opacity: 1;"><g class="legendfill"/><g class="legendlines"><path class="js-line" d="M5,0h30" style="fill: none; stroke: rgb(138, 44, 81); stroke-opacity: 1; stroke-width: 5px;"/></g><g class="legendsymbols"><g class="legendpoints"/></g></g><rect class="legendtoggle" x="0" y="-9.5" width="122.703125" height="19" style="fill: rgb(0, 0, 0); fill-opacity: 0;"/></g><g class="traces" transform="translate(0,33.5)" style="opacity: 1;"><text class="legendtext" text-anchor="start" x="40" y="4.680000000000001" style="font-family: 'Open Sans', verdana, arial, sans-serif; font-size: 12px; fill: rgb(42, 63, 95); fill-opacity: 1; white-space: pre;">Korčok Ivan</text><g class="layers" style="opacity: 1;"><g class="legendfill"/><g class="legendlines"><path class="js-line" d="M5,0h30" style="fill: none; stroke: rgb(0, 174, 239); stroke-opacity: 1; stroke-width: 5px;"/></g><g class="legendsymbols"><g class="legendpoints"/></g></g><rect class="legendtoggle" x="0" y="-9.5" width="122.703125" height="19" style="fill: rgb(0, 0, 0); fill-opacity: 0;"/></g><g class="traces" transform="translate(0,52.5)" style="opacity: 1;"><text class="legendtext" text-anchor="start" x="40" y="4.680000000000001" style="font-family: 'Open Sans', verdana, arial, sans-serif; font-size: 12px; fill: rgb(42, 63, 95); fill-opacity: 1; white-space: pre;">Lajčák Miroslav</text><g class="layers" style="opacity: 1;"><g class="legendfill"/><g class="legendlines"><path class="js-line" d="M5,0h30" style="fill: none; stroke: rgb(255, 192, 203); stroke-opacity: 1; stroke-width: 5px;"/></g><g class="legendsymbols"><g class="legendpoints"/></g></g><rect class="legendtoggle" x="0" y="-9.5" width="122.703125" height="19" style="fill: rgb(0, 0, 0); fill-opacity: 0;"/></g><g class="traces" transform="translate(0,71.5)" style="opacity: 1;"><text class="legendtext" text-anchor="start" x="40" y="4.680000000000001" style="font-family: 'Open Sans', verdana, arial, sans-serif; font-size: 12px; fill: rgb(42, 63, 95); fill-opacity: 1; white-space: pre;">Mistrík Robert</text><g class="layers" style="opacity: 1;"><g class="legendfill"/><g class="legendlines"><path class="js-line" d="M5,0h30" style="fill: none; stroke: rgb(202, 166, 105); stroke-opacity: 1; stroke-width: 5px;"/></g><g class="legendsymbols"><g class="legendpoints"/></g></g><rect class="legendtoggle" x="0" y="-9.5" width="122.703125" height="19" style="fill: rgb(0, 0, 0); fill-opacity: 0;"/></g><g class="traces" transform="translate(0,90.5)" style="opacity: 1;"><text class="legendtext" text-anchor="start" x="40" y="4.680000000000001" style="font-family: 'Open Sans', verdana, arial, sans-serif; font-size: 12px; fill: rgb(42, 63, 95); fill-opacity: 1; white-space: pre;">Kubiš Ján</text><g class="layers" style="opacity: 1;"><g class="legendfill"/><g class="legendlines"><path class="js-line" d="M5,0h30" style="fill: none; stroke: rgb(255, 1, 170); stroke-opacity: 1; stroke-width: 5px;"/></g><g class="legendsymbols"><g class="legendpoints"/></g></g><rect class="legendtoggle" x="0" y="-9.5" width="122.703125" height="19" style="fill: rgb(0, 0, 0); fill-opacity: 0;"/></g><g class="traces" transform="translate(0,109.5)" style="opacity: 1;"><text class="legendtext" text-anchor="start" x="40" y="4.680000000000001" style="font-family: 'Open Sans', verdana, arial, sans-serif; font-size: 12px; fill: rgb(42, 63, 95); fill-opacity: 1; white-space: pre;">Fico Robert</text><g class="layers" style="opacity: 1;"><g class="legendfill"/><g class="legendlines"><path class="js-line" d="M5,0h30" style="fill: none; stroke: rgb(238, 58, 67); stroke-opacity: 1; stroke-width: 5px;"/></g><g class="legendsymbols"><g class="legendpoints"/></g></g><rect class="legendtoggle" x="0" y="-9.5" width="122.703125" height="19" style="fill: rgb(0, 0, 0); fill-opacity: 0;"/></g></g></g><rect class="scrollbar" rx="20" ry="3" width="0" height="0" style="fill: rgb(128, 139, 164); fill-opacity: 1;" x="0" y="0"/></g><g class="g-gtitle"/><g class="g-xtitle"/><g class="g-ytitle"/></g></svg>