<svg class="main-svg" xmlns="http://www.w3.org/2000/svg" xmlns:xlink="http://www.w3.org/1999/xlink" width="1200" height="600" style="" viewBox="0 0 1200 600"><rect x="0" y="0" width="1200" height="600" style="fill: rgb(255, 255, 255); fill-opacity: 1;"/><defs id="defs-35664c"><g class="clips"><clipPath id="clip35664cxyplot" class="plotclip"><rect width="990" height="530"/></clipPath><clipPath class="axesclip" id="clip35664cx"><rect x="50" y="0" width="990" height="600"/></clipPath><clipPath class="axesclip" id="clip35664cy"><rect x="0" y="20" width="1200" height="530"/></clipPath><clipPath class="axesclip" id="clip35664cxy"><rect x="50" y="20" width="990" height="530"/></clipPath></g><g class="gradients"/><g class="patterns"/></defs><g class="bglayer"/><g class="layer-below"><g class="imagelayer"/><g class="shapelayer"/></g><g class="cartesianlayer"><g class="subplot xy"><g class="layer-subplot"><g class="shapelayer"/><g class="imagelayer"/></g><g class="minor-gridlayer"><g class="x"/><g class="y"/></g><g class="gridlayer"><g class="x"><path class="xgrid crisp" transform="translate(83,0)" d="M0,20v530" style="stroke: rgb(235, 240, 248); stroke-opacity: 1; stroke-width: 1px;"/><path class="xgrid crisp" transform="translate(185.3,0)" d="M0,20v530" style="stroke: rgb(235, 240, 248); stroke-opacity: 1; stroke-width: 1px;"/><path class="xgrid crisp" transform="translate(287.6,0)" d="M0,20v530" style="stroke: rgb(235, 240, 248); stroke-opacity: 1; stroke-width: 1px;"/><path class="xgrid crisp" transform="translate(386.6,0)" d="M0,20v530" style="stroke: rgb(235, 240, 248); stroke-opacity: 1; stroke-width: 1px;"/><path class="xgrid crisp" transform="translate(488.9,0)" d="M0,20v530" style="stroke: rgb(235, 240, 248); stroke-opacity: 1; stroke-width: 1px;"/><path class="xgrid crisp" transform="translate(587.9,0)" d="M0,20v530" style="stroke: rgb(235, 240, 248); stroke-opacity: 1; stroke-width: 1px;"/><path class="xgrid crisp" transform="translate(690.2,0)" d="M0,20v530" style="stroke: rgb(235, 240, 248); stroke-opacity: 1; stroke-width: 1px;"/><path class="xgrid crisp" transform="translate(792.5,0)" d="M0,20v530" style="stroke: rgb(235, 240, 248); stroke-opacity: 1; stroke-width: 1px;"/><path class="xgrid crisp" transform="translate(888.2,0)" d="M0,20v530" style="stroke: rgb(235, 240, 248); stroke-opacity: 1; stroke-width: 1px;"/><path class="xgrid crisp" transform="translate(990.5,0)" d="M0,20v530" style="stroke: rgb(235, 240, 248); stroke-opacity: 1; stroke-width: 1px;"/></g><g class="y"><path class="ygrid crisp" transform="translate(0,468.53)" d="M50,0h990" style="stroke: rgb(235, 240, 248); stroke-opacity: 1; stroke-width: 1px;"/><path class="ygrid crisp" transform="translate(0,387.06)" d="M50,0h990" style="stroke: rgb(235, 240, 248); stroke-opacity: 1; stroke-width: 1px;"/><path class="ygrid crisp" transform="translate(0,305.58)" d="M50,0h990" style="stroke: rgb(235, 240, 248); stroke-opacity: 1; stroke-width: 1px;"/><path class="ygrid crisp" transform="translate(0,224.11)" d="M50,0h990" style="stroke: rgb(235, 240, 248); stroke-opacity: 1; stroke-width: 1px;"/><path class="ygrid crisp" transform="translate(0,142.64)" d="M50,0h990" style="stroke: rgb(235, 240, 248); stroke-opacity: 1; stroke-width: 1px;"/><path class="ygrid crisp" transform="translate(0,61.17)" d="M50,0h990" style="stroke: rgb(235, 240, 248); stroke-opacity: 1; stroke-width: 1px;"/></g></g><g class="zerolinelayer"><path class="yzl zl crisp" transform="translate(0,550)" d="M50,0h990" style="stroke: rgb(235, 240, 248); stroke-opacity: 1; stroke-width: 2px;"/></g><path class="xlines-below"/><path class="ylines-below"/><g class="overlines-below"/><g class="xaxislayer-below"/><g class="yaxislayer-below"/><g class="overaxes-below"/><g class="plot" transform="translate(50,20)" clip-path="url(#clip35664cxyplot)"><g class="scatterlayer mlayer"><g class="trace scatter trace743bde" style="stroke-miterlimit: 2; opacity: 1;"><g class="fills"/><g class="errorbars"/><g class="lines"><path class="js-line" d="M0,359.72L6.6,338.54L9.9,338.54L19.8,338.54L23.1,344.24L29.7,334.47L33,334.47L46.2,334.47L49.5,332.02L59.4,332.02L62.7,329.58L66,327.95L69.3,327.95L75.9,327.95L79.2,323.06L122.1,323.06L125.4,317.36L141.9,317.36L145.2,283.14L184.8,283.14L191.4,306.77L194.7,301.88L201.3,301.88L224.4,301.06L227.7,300.25L231,318.17L234.3,327.13L237.6,327.13L240.9,323.87L244.2,320.62L247.5,327.95L277.2,327.95L280.5,324.69L283.8,324.69L287.1,327.95L290.4,324.69L293.7,327.13L297,324.69L300.3,324.69L303.6,323.06L306.9,324.69L316.8,324.69L320.1,323.06L323.4,323.06L326.7,324.69L330,323.06L333.3,323.06L336.6,306.77L339.9,313.28L346.5,313.28L349.8,311.65L353.1,284.77L356.4,268.47L363,268.47L366.3,264.4L369.6,237.51L372.9,224.48L376.2,222.03L379.5,222.03L386.1,222.03L389.4,217.15L396,203.3L399.3,191.89L425.7,192.7L429,194.33L432.3,194.33L435.6,202.48L462,202.48L465.3,191.07L468.6,191.07L471.9,171.52L485.1,171.52L488.4,149.52L508.2,149.52L511.5,136.49L514.8,131.6L518.1,131.6L521.4,131.6L524.7,126.71L528,119.38L531.3,115.31L534.6,115.31L537.9,87.6L544.5,87.6L547.8,73.75L551.1,40.35L554.4,40.35L580.8,40.35L584.1,52.57L587.4,58.27L590.7,58.27L594,58.27L597.3,61.53L600.6,74.57L603.9,79.46L607.2,76.2L610.5,70.5L633.6,70.5L636.9,68.87L640.2,72.94L643.5,71.31L650.1,26.5L653.4,28.13" style="vector-effect: none; fill: none; stroke: rgb(138, 44, 81); stroke-opacity: 1; stroke-width: 5px; opacity: 1;"/></g><g class="points"/><g class="text"/></g><g class="trace scatter trace03e7bd" style="stroke-miterlimit: 2; opacity: 1;"><g class="fills"/><g class="errorbars"/><g class="lines"><path class="js-line" d="M0,174.78L6.6,186.19L9.9,186.19L19.8,186.19L23.1,191.89L29.7,179.67L33,179.67L59.4,179.67L62.7,181.3L66,182.93L69.3,182.93L75.9,182.93L79.2,187L191.4,187L194.7,209.81L221.1,209.81L224.4,205.74L227.7,202.48L231,183.74L234.3,156.04L237.6,156.04L244.2,170.71L247.5,146.26L277.2,146.26L280.5,158.49L283.8,158.49L287.1,146.26L290.4,158.49L293.7,143.82L297,140.56L300.3,140.56L303.6,156.04L306.9,140.56L316.8,140.56L320.1,156.04L323.4,156.04L326.7,140.56L330,156.04L333.3,156.04L336.6,141.38L339.9,160.11L349.8,160.11L353.1,165L363,165L366.3,169.08L369.6,182.93L372.9,187.82L379.5,188.63L382.8,188.63L392.7,188.63L396,191.07L402.6,191.89L405.9,191.89L422.4,191.89L425.7,194.33L429,199.22L432.3,199.22L435.6,202.48L442.2,202.48L465.3,203.3L468.6,200.04L471.9,208.18L475.2,208.18L485.1,208.18L488.4,206.55L508.2,206.55L511.5,219.59L514.8,222.85L518.1,222.85L521.4,222.85L524.7,227.74L531.3,236.7L534.6,236.7L537.9,221.22L541.2,221.22L544.5,221.22L547.8,229.37L551.1,239.96L554.4,239.96L580.8,239.96L584.1,228.55L587.4,222.03L590.7,222.03L594,222.03L597.3,218.78L600.6,200.04L603.9,194.33L610.5,198.41L613.8,198.41L630.3,198.41L633.6,196.78L636.9,198.41L640.2,194.33L643.5,194.33L646.8,215.52L650.1,231L653.4,229.37" style="vector-effect: none; fill: none; stroke: rgb(0, 174, 239); stroke-opacity: 1; stroke-width: 5px; opacity: 1;"/></g><g class="points"/><g class="text"/></g><g class="trace scatter trace21c48c" style="stroke-miterlimit: 2; opacity: 1;"><g class="fills"/><g class="errorbars"/><g class="lines"><path class="js-line" d="M0,447.71L6.6,450.16L9.9,450.16L19.8,450.16L23.1,455.86L29.7,446.08L33,446.08L46.2,446.08L49.5,447.71L62.7,446.9L66,446.08L122.1,446.08L125.4,447.71L141.9,447.71L145.2,457.49L184.8,457.49L191.4,450.97L194.7,398.01L201.3,398.01L221.1,398.01L224.4,400.46L227.7,402.9L231,402.9L234.3,407.79L237.6,407.79L244.2,402.09L247.5,408.61L277.2,408.61L280.5,405.35L283.8,405.35L287.1,408.61L290.4,405.35L293.7,410.24L297,413.49L300.3,413.49L303.6,407.79L306.9,413.49L316.8,413.49L320.1,407.79L323.4,407.79L326.7,413.49L330,407.79L333.3,407.79L336.6,431.42L339.9,415.12L349.8,415.94L353.1,428.16L356.4,437.94L359.7,437.94L363,437.94L366.3,435.49L369.6,443.64L372.9,445.27L389.4,444.45L392.7,443.64L396,445.27L399.3,448.53L422.4,448.53L425.7,445.27L429,437.94L432.3,437.94L435.6,426.53L442.2,426.53L462,426.53L465.3,437.12L468.6,440.38L471.9,451.79L485.1,451.79L488.4,458.3L524.7,459.12L528,459.93L534.6,460.75L537.9,486L544.5,486L547.8,489.26L551.1,494.15L554.4,494.15L597.3,494.15L600.6,501.48L603.9,501.48L607.2,503.11L610.5,506.37L613.8,506.37L630.3,506.37L633.6,508L640.2,508L643.5,509.63L646.8,515.33L650.1,517.78L653.4,517.78" style="vector-effect: none; fill: none; stroke: rgb(255, 1, 170); stroke-opacity: 1; stroke-width: 5px; opacity: 1;"/></g><g class="points"/><g class="text"/></g><g class="trace scatter trace790a76" style="stroke-miterlimit: 2; opacity: 1;"><g class="fills"/><g class="errorbars"/><g class="lines"><path class="js-line" d="M0,465.64L9.9,467.27L13.2,467.27L19.8,467.27L23.1,455.86L29.7,481.12L33,481.12L62.7,480.3L66,479.49L141.9,478.67L145.2,482.75L184.8,482.75L191.4,481.12L194.7,484.38L201.3,484.38L224.4,485.19L227.7,486L237.6,485.19L240.9,488.45L244.2,491.71L247.5,486L277.2,486L280.5,488.45L283.8,488.45L287.1,486L290.4,488.45L293.7,487.63L297,490.89L300.3,490.89L303.6,491.71L306.9,490.89L333.3,491.71L336.6,494.15L353.1,494.15L356.4,495.78L366.3,496.6L369.6,497.41L372.9,499.86L376.2,500.67L386.1,500.67L389.4,502.3L399.3,508.82L402.6,508.82L485.1,508.82L488.4,516.96L534.6,517.78L537.9,520.22L544.5,520.22L547.8,521.85" style="vector-effect: none; fill: none; stroke: rgb(202, 166, 105); stroke-opacity: 1; stroke-width: 5px; opacity: 1;"/></g><g class="points"/><g class="text"/></g><g class="trace scatter trace2adfe4" style="stroke-miterlimit: 2; opacity: 1;"><g class="fills"/><g class="errorbars"/><g class="lines"><path class="js-line" d="M0,472.97L9.9,475.41L13.2,475.41L23.1,474.6L26.4,472.97L33,473.78L36.3,473.78L46.2,473.78L49.5,475.41L75.9,474.6L79.2,476.23L122.1,476.23L125.4,482.75L141.9,482.75L145.2,489.26L184.8,489.26L191.4,479.49L194.7,500.67L201.3,500.67L231,501.48L234.3,507.19L244.2,507.19L247.5,510.45L277.2,510.45L280.5,508.82L283.8,508.82L287.1,510.45L290.4,508.82L293.7,510.45L300.3,510.45L303.6,508.82L306.9,510.45L310.2,510.45L316.8,510.45L320.1,508.82L323.4,508.82L326.7,510.45L330,508.82L333.3,508.82L336.6,511.26L339.9,509.63L363,510.45L366.3,511.26L372.9,513.71L376.2,514.52L386.1,514.52L389.4,516.15L392.7,519.41L396,519.41L402.6,520.22L405.9,520.22L485.1,519.41" style="vector-effect: none; fill: none; stroke: rgb(255, 192, 203); stroke-opacity: 1; stroke-width: 5px; opacity: 1;"/></g><g class="points"/><g class="text"/></g><g class="trace scatter trace7de152" style="stroke-miterlimit: 2; opacity: 1;"><g class="fills"/><g class="errorbars"/><g class="lines"><path class="js-line" d="M0,444.45L6.6,447.71L9.9,447.71L19.8,447.71L23.1,444.45L26.4,445.27L29.7,449.34L59.4,450.16L62.7,452.6L66,454.23L69.3,454.23L122.1,454.23L125.4,452.6L141.9,452.6L145.2,464.82L184.8,464.82L191.4,459.93L194.7,470.53L201.3,470.53L224.4,471.34L227.7,472.97L231,472.97L234.3,481.93L237.6,481.93L240.9,477.04L244.2,472.15L247.5,486L277.2,486L280.5,479.49L283.8,479.49L287.1,486L290.4,479.49L293.7,485.19L300.3,485.19L303.6,478.67L306.9,485.19L310.2,485.19L316.8,485.19L320.1,478.67L323.4,478.67L326.7,485.19L330,478.67L333.3,478.67L336.6,479.49L339.9,473.78L349.8,474.6L353.1,482.75L356.4,486.82L359.7,486.82L363,486.82L366.3,488.45L372.9,493.34L376.2,494.15L386.1,494.15L389.4,495.78L399.3,504.74L402.6,504.74L485.1,504.74L488.4,503.93L534.6,504.74L537.9,520.22L544.5,520.22L547.8,521.85" style="vector-effect: none; fill: none; stroke: rgb(238, 58, 67); stroke-opacity: 1; stroke-width: 5px; opacity: 1;"/></g><g class="points"/><g class="text"/></g></g></g><g class="overplot"/><path class="xlines-above crisp" d="M0,0" style="fill: none;"/><path class="ylines-above crisp" d="M0,0" style="fill: none;"/><g class="overlines-above"/><g class="xaxislayer-above"><g class="xtick"><text text-anchor="middle" x="0" y="563" transform="translate(83,0)" style="font-family: 'Open Sans', verdana, arial, sans-serif; font-size: 12px; fill: rgb(42, 63, 95); fill-opacity: 1; white-space: pre; opacity: 1;">1.7.23</text></g><g class="xtick"><text text-anchor="middle" x="0" y="563" style="font-family: 'Open Sans', verdana, arial, sans-serif; font-size: 12px; fill: rgb(42, 63, 95); fill-opacity: 1; white-space: pre; opacity: 1;" transform="translate(185.3,0)">1.8.23</text></g><g class="xtick"><text text-anchor="middle" x="0" y="563" style="font-family: 'Open Sans', verdana, arial, sans-serif; font-size: 12px; fill: rgb(42, 63, 95); fill-opacity: 1; white-space: pre; opacity: 1;" transform="translate(287.6,0)">1.9.23</text></g><g class="xtick"><text text-anchor="middle" x="0" y="563" style="font-family: 'Open Sans', verdana, arial, sans-serif; font-size: 12px; fill: rgb(42, 63, 95); fill-opacity: 1; white-space: pre; opacity: 1;" transform="translate(386.6,0)">1.10.23</text></g><g class="xtick"><text text-anchor="middle" x="0" y="563" style="font-family: 'Open Sans', verdana, arial, sans-serif; font-size: 12px; fill: rgb(42, 63, 95); fill-opacity: 1; white-space: pre; opacity: 1;" transform="translate(488.9,0)">1.11.23</text></g><g class="xtick"><text text-anchor="middle" x="0" y="563" style="font-family: 'Open Sans', verdana, arial, sans-serif; font-size: 12px; fill: rgb(42, 63, 95); fill-opacity: 1; white-space: pre; opacity: 1;" transform="translate(587.9,0)">1.12.23</text></g><g class="xtick"><text text-anchor="middle" x="0" y="563" style="font-family: 'Open Sans', verdana, arial, sans-serif; font-size: 12px; fill: rgb(42, 63, 95); fill-opacity: 1; white-space: pre; opacity: 1;" transform="translate(690.2,0)">1.1.24</text></g><g class="xtick"><text text-anchor="middle" x="0" y="563" style="font-family: 'Open Sans', verdana, arial, sans-serif; font-size: 12px; fill: rgb(42, 63, 95); fill-opacity: 1; white-space: pre; opacity: 1;" transform="translate(792.5,0)">1.2.24</text></g><g class="xtick"><text text-anchor="middle" x="0" y="563" style="font-family: 'Open Sans', verdana, arial, sans-serif; font-size: 12px; fill: rgb(42, 63, 95); fill-opacity: 1; white-space: pre; opacity: 1;" transform="translate(888.2,0)">1.3.24</text></g><g class="xtick"><text text-anchor="middle" x="0" y="563" style="font-family: 'Open Sans', verdana, arial, sans-serif; font-size: 12px; fill: rgb(42, 63, 95); fill-opacity: 1; white-space: pre; opacity: 1;" transform="translate(990.5,0)">1.4.24</text></g></g><g class="yaxislayer-above"><g class="ytick"><text text-anchor="end" x="49" y="4.199999999999999" transform="translate(0,550)" style="font-family: 'Open Sans', verdana, arial, sans-serif; font-size: 12px; fill: rgb(42, 63, 95); fill-opacity: 1; white-space: pre; opacity: 1;">0%</text></g><g class="ytick"><text text-anchor="end" x="49" y="4.199999999999999" style="font-family: 'Open Sans', verdana, arial, sans-serif; font-size: 12px; fill: rgb(42, 63, 95); fill-opacity: 1; white-space: pre; opacity: 1;" transform="translate(0,468.53)">10%</text></g><g class="ytick"><text text-anchor="end" x="49" y="4.199999999999999" style="font-family: 'Open Sans', verdana, arial, sans-serif; font-size: 12px; fill: rgb(42, 63, 95); fill-opacity: 1; white-space: pre; opacity: 1;" transform="translate(0,387.06)">20%</text></g><g class="ytick"><text text-anchor="end" x="49" y="4.199999999999999" style="font-family: 'Open Sans', verdana, arial, sans-serif; font-size: 12px; fill: rgb(42, 63, 95); fill-opacity: 1; white-space: pre; opacity: 1;" transform="translate(0,305.58)">30%</text></g><g class="ytick"><text text-anchor="end" x="49" y="4.199999999999999" style="font-family: 'Open Sans', verdana, arial, sans-serif; font-size: 12px; fill: rgb(42, 63, 95); fill-opacity: 1; white-space: pre; opacity: 1;" transform="translate(0,224.11)">40%</text></g><g class="ytick"><text text-anchor="end" x="49" y="4.199999999999999" style="font-family: 'Open Sans', verdana, arial, sans-serif; font-size: 12px; fill: rgb(42, 63, 95); fill-opacity: 1; white-space: pre; opacity: 1;" transform="translate(0,142.64)">50%</text></g><g class="ytick"><text text-anchor="end" x="49" y="4.199999999999999" style="font-family: 'Open Sans', verdana, arial, sans-serif; font-size: 12px; fill: rgb(42, 63, 95); fill-opacity: 1; white-space: pre; opacity: 1;" transform="translate(0,61.17)">60%</text></g></g><g class="overaxes-above"/></g></g><g class="polarlayer"/><g class="smithlayer"/><g class="ternarylayer"/><g class="geolayer"/><g class="funnelarealayer"/><g class="pielayer"/><g class="iciclelayer"/><g class="treemaplayer"/><g class="sunburstlayer"/><g class="glimages"/><defs id="topdefs-35664c"><g class="clips"/><clipPath id="legend35664c"><rect width="128" height="124" x="0" y="0"/></clipPath></defs><g class="layer-above"><g class="imagelayer"/><g class="shapelayer"/></g><g class="infolayer"><g class="legend" pointer-events="all" transform="translate(1059.8000000000002,20)"><rect class="bg" shape-rendering="crispEdges" style="stroke: rgb(68, 68, 68); stroke-opacity: 1; fill: rgb(255, 255, 255); fill-opacity: 1; stroke-width: 0px;" width="128" height="124" x="0" y="0"/><g class="scrollbox" transform="" clip-path="url(#legend35664c)"><g class="groups"><g class="traces" transform="translate(0,14.5)" style="opacity: 1;"><text class="legendtext" text-anchor="start" x="40" y="4.680000000000001" style="font-family: 'Open Sans', verdana, arial, sans-serif; font-size: 12px; fill: rgb(42, 63, 95); fill-opacity: 1; white-space: pre;">Pellegrini Peter</text><g class="layers" style="opacity: 1;"><g class="legendfill"/><g class="legendlines"><path class="js-line" d="M5,0h30" style="fill: none; stroke: rgb(138, 44, 81); stroke-opacity: 1; stroke-width: 5px;"/></g><g class="legendsymbols"><g class="legendpoints"/></g></g><rect class="legendtoggle" x="0" y="-9.5" width="122.703125" height="19" style="fill: rgb(0, 0, 0); fill-opacity: 0;"/></g><g class="traces" transform="translate(0,33.5)" style="opacity: 1;"><text class="legendtext" text-anchor="start" x="40" y="4.680000000000001" style="font-family: 'Open Sans', verdana, arial, sans-serif; font-size: 12px; fill: rgb(42, 63, 95); fill-opacity: 1; white-space: pre;">Korčok Ivan</text><g class="layers" style="opacity: 1;"><g class="legendfill"/><g class="legendlines"><path class="js-line" d="M5,0h30" style="fill: none; stroke: rgb(0, 174, 239); stroke-opacity: 1; stroke-width: 5px;"/></g><g class="legendsymbols"><g class="legendpoints"/></g></g><rect class="legendtoggle" x="0" y="-9.5" width="122.703125" height="19" style="fill: rgb(0, 0, 0); fill-opacity: 0;"/></g><g class="traces" transform="translate(0,52.5)" style="opacity: 1;"><text class="legendtext" text-anchor="start" x="40" y="4.680000000000001" style="font-family: 'Open Sans', verdana, arial, sans-serif; font-size: 12px; fill: rgb(42, 63, 95); fill-opacity: 1; white-space: pre;">Kubiš Ján</text><g class="layers" style="opacity: 1;"><g class="legendfill"/><g class="legendlines"><path class="js-line" d="M5,0h30" style="fill: none; stroke: rgb(255, 1, 170); stroke-opacity: 1; stroke-width: 5px;"/></g><g class="legendsymbols"><g class="legendpoints"/></g></g><rect class="legendtoggle" x="0" y="-9.5" width="122.703125" height="19" style="fill: rgb(0, 0, 0); fill-opacity: 0;"/></g><g class="traces" transform="translate(0,71.5)" style="opacity: 1;"><text class="legendtext" text-anchor="start" x="40" y="4.680000000000001" style="font-family: 'Open Sans', verdana, arial, sans-serif; font-size: 12px; fill: rgb(42, 63, 95); fill-opacity: 1; white-space: pre;">Mistrík Robert</text><g class="layers" style="opacity: 1;"><g class="legendfill"/><g class="legendlines"><path class="js-line" d="M5,0h30" style="fill: none; stroke: rgb(202, 166, 105); stroke-opacity: 1; stroke-width: 5px;"/></g><g class="legendsymbols"><g class="legendpoints"/></g></g><rect class="legendtoggle" x="0" y="-9.5" width="122.703125" height="19" style="fill: rgb(0, 0, 0); fill-opacity: 0;"/></g><g class="traces" transform="translate(0,90.5)" style="opacity: 1;"><text class="legendtext" text-anchor="start" x="40" y="4.680000000000001" style="font-family: 'Open Sans', verdana, arial, sans-serif; font-size: 12px; fill: rgb(42, 63, 95); fill-opacity: 1; white-space: pre;">Lajčák Miroslav</text><g class="layers" style="opacity: 1;"><g class="legendfill"/><g class="legendlines"><path class="js-line" d="M5,0h30" style="fill: none; stroke: rgb(255, 192, 203); stroke-opacity: 1; stroke-width: 5px;"/></g><g class="legendsymbols"><g class="legendpoints"/></g></g><rect class="legendtoggle" x="0" y="-9.5" width="122.703125" height="19" style="fill: rgb(0, 0, 0); fill-opacity: 0;"/></g><g class="traces" transform="translate(0,109.5)" style="opacity: 1;"><text class="legendtext" text-anchor="start" x="40" y="4.680000000000001" style="font-family: 'Open Sans', verdana, arial, sans-serif; font-size: 12px; fill: rgb(42, 63, 95); fill-opacity: 1; white-space: pre;">Fico Robert</text><g class="layers" style="opacity: 1;"><g class="legendfill"/><g class="legendlines"><path class="js-line" d="M5,0h30" style="fill: none; stroke: rgb(238, 58, 67); stroke-opacity: 1; stroke-width: 5px;"/></g><g class="legendsymbols"><g class="legendpoints"/></g></g><rect class="legendtoggle" x="0" y="-9.5" width="122.703125" height="19" style="fill: rgb(0, 0, 0); fill-opacity: 0;"/></g></g></g><rect class="scrollbar" rx="20" ry="3" width="0" height="0" style="fill: rgb(128, 139, 164); fill-opacity: 1;" x="0" y="0"/></g><g class="g-gtitle"/><g class="g-xtitle"/><g class="g-ytitle"/></g></svg>