<svg class="main-svg" xmlns="http://www.w3.org/2000/svg" xmlns:xlink="http://www.w3.org/1999/xlink" width="300" height="135" style="" viewBox="0 0 300 135"><rect x="0" y="0" width="300" height="135" style="fill: rgb(255, 255, 255); fill-opacity: 1;"/><defs id="defs-2db5aa"><g class="clips"><clipPath id="clip2db5aaxyplot" class="plotclip"><rect width="280" height="75"/></clipPath><clipPath class="axesclip" id="clip2db5aax"><rect x="10" y="0" width="280" height="135"/></clipPath><clipPath class="axesclip" id="clip2db5aay"><rect x="0" y="50" width="300" height="75"/></clipPath><clipPath class="axesclip" id="clip2db5aaxy"><rect x="10" y="50" width="280" height="75"/></clipPath></g><g class="gradients"/><g class="patterns"/></defs><g class="bglayer"/><g class="layer-below"><g class="imagelayer"/><g class="shapelayer"/></g><g class="cartesianlayer"><g class="subplot xy"><g class="layer-subplot"><g class="shapelayer"/><g class="imagelayer"/></g><g class="minor-gridlayer"><g class="x"/><g class="y"/></g><g class="gridlayer"><g class="x"><path class="xgrid crisp" transform="translate(20.33,0)" d="M0,50v75" style="stroke: rgb(235, 240, 248); stroke-opacity: 1; stroke-width: 1px;"/><path class="xgrid crisp" transform="translate(84.39,0)" d="M0,50v75" style="stroke: rgb(235, 240, 248); stroke-opacity: 1; stroke-width: 1px;"/><path class="xgrid crisp" transform="translate(147.42,0)" d="M0,50v75" style="stroke: rgb(235, 240, 248); stroke-opacity: 1; stroke-width: 1px;"/><path class="xgrid crisp" transform="translate(210.44,0)" d="M0,50v75" style="stroke: rgb(235, 240, 248); stroke-opacity: 1; stroke-width: 1px;"/><path class="xgrid crisp" transform="translate(272.44,0)" d="M0,50v75" style="stroke: rgb(235, 240, 248); stroke-opacity: 1; stroke-width: 1px;"/></g><g class="y"><path class="ygrid crisp" transform="translate(0,104.22999999999999)" d="M10,0h280" style="stroke: rgb(235, 240, 248); stroke-opacity: 1; stroke-width: 1px;"/><path class="ygrid crisp" transform="translate(0,83.45)" d="M10,0h280" style="stroke: rgb(235, 240, 248); stroke-opacity: 1; stroke-width: 1px;"/><path class="ygrid crisp" transform="translate(0,62.68)" d="M10,0h280" style="stroke: rgb(235, 240, 248); stroke-opacity: 1; stroke-width: 1px;"/></g></g><g class="zerolinelayer"><path class="yzl zl crisp" transform="translate(0,125)" d="M10,0h280" style="stroke: rgb(235, 240, 248); stroke-opacity: 1; stroke-width: 2px;"/></g><path class="xlines-below"/><path class="ylines-below"/><g class="overlines-below"/><g class="xaxislayer-below"/><g class="yaxislayer-below"/><g class="overaxes-below"/><g class="plot" transform="translate(10,50)" clip-path="url(#clip2db5aaxyplot)"><g class="scatterlayer mlayer"><g class="trace scatter traceb9f2d1" style="stroke-miterlimit: 2; opacity: 1;"><g class="fills"/><g class="errorbars"/><g class="lines"><path class="js-line" d="M0,53.29L3.1,50.59L4.13,50.59L14.46,50.07L15.5,49.76L38.23,48.62L39.26,47.89L44.43,47.89L45.46,43.53L57.86,43.53L59.93,46.54L63.03,45.92L64.06,45.92L71.29,45.71L72.32,48L74.39,49.14L75.42,48.72L77.49,49.24L78.52,49.24L104.35,48.62L105.39,46.54L107.45,47.37L108.49,47.37L109.52,47.16L110.55,43.74L112.62,41.66L113.65,41.66L114.69,41.14L115.72,37.71L117.79,35.74L118.82,35.74L121.92,35.12L122.95,34.18L126.05,31.9L127.08,31.9L135.35,32.21L136.38,33.25L144.65,33.25L145.68,31.79L146.72,31.79L147.75,29.3L151.88,29.3L152.92,26.5L159.11,26.5L160.15,24.83L166.35,22.13L167.38,22.13L169.45,18.6L170.48,18.6L171.51,16.84L172.55,12.58L181.85,12.58L182.88,14.14L185.98,14.86L187.01,15.28L189.08,17.56L190.11,17.15L193.21,16.42L194.24,16.42L201.48,16.53L202.51,13.1L204.58,9.67L205.61,9.57L208.71,10.4L209.74,8.42L212.84,9.36L213.87,10.19L215.94,11.23L216.97,14.76L218.01,16.01L219.04,14.76L221.11,14.86L222.14,13.2L224.21,13.31L225.24,13.41L227.31,12.99L228.34,12.16L231.44,9.25L232.47,9.25L235.57,11.12L236.61,10.29L238.67,10.92L239.7,12.99L241.77,18.81L242.8,18.6L245.9,19.64L246.94,19.95L249,18.6L250.04,19.74L252.1,20.47L253.14,19.02L256.24,12.68L257.27,12.58L259.34,10.4L260.37,10.29L262.44,10.5L263.47,12.16L268.63,11.44L269.67,10.81L272.77,10.4L273.8,9.36L275.87,8.32L276.9,5.52L280,3.75" style="vector-effect: none; fill: none; stroke: rgb(138, 44, 81); stroke-opacity: 1; stroke-width: 5px; opacity: 1;"/></g><g class="points"/><g class="text"/></g><g class="trace scatter traceb8ec49" style="stroke-miterlimit: 2; opacity: 1;"><g class="fills"/><g class="errorbars"/><g class="lines"><path class="js-line" d="M0,29.72L4.13,31.17L5.17,31.17L8.27,30.96L9.3,30.34L59.93,31.27L60.96,34.18L71.29,33.25L72.32,30.86L74.39,27.33L75.42,28.26L76.46,29.2L77.49,26.08L86.79,26.08L87.82,27.64L88.86,27.64L89.89,26.08L90.92,27.64L91.96,25.77L94.02,25.35L95.06,27.33L97.12,25.35L98.15,25.35L99.19,25.35L100.22,27.33L101.25,27.33L102.29,25.35L104.35,27.33L105.39,25.46L107.45,27.85L108.49,27.85L114.69,28.99L115.72,30.75L118.82,31.48L119.85,31.48L133.28,32.21L134.32,32.83L159.11,33.77L160.15,35.43L167.38,37.61L168.41,35.64L171.51,36.67L172.55,38.02L181.85,38.02L182.88,36.57L184.94,35.74L185.98,35.74L187.01,35.32L188.04,32.94L190.11,32.42L191.14,32.73L201.48,32.21L202.51,34.91L204.58,38.02L205.61,38.13L207.68,36.47L208.71,35.74L210.77,37.71L211.81,37.19L215.94,34.91L216.97,31.38L218.01,30.13L219.04,31.38L221.11,31.27L222.14,32.94L224.21,32.83L225.24,32.73L227.31,33.14L228.34,33.97L231.44,36.88L232.47,36.88L235.57,35.01L236.61,35.84L238.67,35.22L239.7,33.14L241.77,27.33L242.8,27.53L245.9,26.5L246.94,26.18L249,27.53L250.04,26.39L252.1,25.67L253.14,27.12L256.24,33.45L257.27,33.56L259.34,35.74L260.37,35.84L262.44,35.64L263.47,33.97L268.63,34.7L269.67,35.32L272.77,35.74L273.8,36.78L275.87,37.82L276.9,40.62L280,42.39" style="vector-effect: none; fill: none; stroke: rgb(0, 174, 239); stroke-opacity: 1; stroke-width: 5px; opacity: 1;"/></g><g class="points"/><g class="text"/></g><g class="trace scatter traceabd599" style="stroke-miterlimit: 2; opacity: 1;"><g class="fills"/><g class="errorbars"/><g class="lines"><path class="js-line" d="M0,64.09L6.2,64.51L7.23,64.09L26.86,65.34L27.9,65.34L44.43,65.13L45.46,66.69L59.93,66.07L60.96,67.42L72.32,67.73L73.36,68.87L76.46,67.63L77.49,69.39L105.39,68.56L106.42,67.83L110.55,68.98L111.59,69.5L121.92,70.64L122.95,71.05L131.22,71.78L132.25,71.78L167.38,71.78L168.41,73.75L171.51,73.96" style="vector-effect: none; fill: none; stroke: rgb(238, 58, 67); stroke-opacity: 1; stroke-width: 5px; opacity: 1;"/></g><g class="points"/><g class="text"/></g><g class="trace scatter tracef30ff8" style="stroke-miterlimit: 2; opacity: 1;"><g class="fills"/><g class="errorbars"/><g class="lines"><path class="js-line" d="M0,66.79L6.2,67L7.23,65.55L10.33,68.77L11.37,68.77L75.42,69.7L76.46,70.12L79.56,69.39L80.59,69.39L113.65,70.64L114.69,70.74L136.38,72.4L138.45,72.4L167.38,73.44L168.41,73.75L171.51,73.96" style="vector-effect: none; fill: none; stroke: rgb(202, 166, 105); stroke-opacity: 1; stroke-width: 5px; opacity: 1;"/></g><g class="points"/><g class="text"/></g><g class="trace scatter trace6dd8b5" style="stroke-miterlimit: 2; opacity: 1;"><g class="fills"/><g class="errorbars"/><g class="lines"><path class="js-line" d="M0,64.51L8.27,64.93L9.3,64.3L44.43,64.51L45.46,65.76L59.93,64.93L60.96,58.17L76.46,58.69L77.49,59.52L104.35,59.42L105.39,62.43L107.45,60.36L108.49,60.36L109.52,60.46L110.55,62.02L112.62,63.26L113.65,63.26L114.69,62.95L115.72,63.99L121.92,64.09L122.95,63.99L131.22,64.61L132.25,64.61L139.48,61.81L140.52,61.81L144.65,61.81L145.68,63.16L150.85,65.03L151.88,65.03L153.95,65.86L154.98,65.86L167.38,66.17L168.41,69.39L187.01,70.43L188.04,71.36L201.48,72.4L202.51,73.13L207.68,73.65" style="vector-effect: none; fill: none; stroke: rgb(255, 1, 170); stroke-opacity: 1; stroke-width: 5px; opacity: 1;"/></g><g class="points"/><g class="text"/></g></g></g><g class="overplot"/><path class="xlines-above crisp" d="M0,0" style="fill: none;"/><path class="ylines-above crisp" d="M0,0" style="fill: none;"/><g class="overlines-above"/><g class="xaxislayer-above"/><g class="yaxislayer-above"/><g class="overaxes-above"/></g></g><g class="polarlayer"/><g class="smithlayer"/><g class="ternarylayer"/><g class="geolayer"/><g class="funnelarealayer"/><g class="pielayer"/><g class="iciclelayer"/><g class="treemaplayer"/><g class="sunburstlayer"/><g class="glimages"/><defs id="topdefs-2db5aa"><g class="clips"/></defs><g class="layer-above"><g class="imagelayer"/><g class="shapelayer"/></g><g class="infolayer"><g class="g-gtitle"><text class="gtitle" x="15" y="25" text-anchor="start" dy="0em" style="font-family: Ubuntu, verdana, arial, sans-serif; font-size: 16px; fill: rgb(233, 84, 32); opacity: 1; font-weight: normal; white-space: pre;">Prezident/ka 2024</text></g><g class="g-xtitle"/><g class="g-ytitle"/></g></svg>