<svg class="main-svg" xmlns="http://www.w3.org/2000/svg" xmlns:xlink="http://www.w3.org/1999/xlink" width="400" height="400" style="" viewBox="0 0 400 400"><rect x="0" y="0" width="400" height="400" style="fill: rgb(255, 255, 255); fill-opacity: 1;"/><defs id="defs-22e9bb"><g class="clips"><clipPath id="clip22e9bbxyplot" class="plotclip"><rect width="206" height="330"/></clipPath><clipPath class="axesclip" id="clip22e9bbx"><rect x="50" y="0" width="206" height="400"/></clipPath><clipPath class="axesclip" id="clip22e9bby"><rect x="0" y="20" width="400" height="330"/></clipPath><clipPath class="axesclip" id="clip22e9bbxy"><rect x="50" y="20" width="206" height="330"/></clipPath></g><g class="gradients"/><g class="patterns"/></defs><g class="bglayer"/><g class="layer-below"><g class="imagelayer"/><g class="shapelayer"/></g><g class="cartesianlayer"><g class="subplot xy"><g class="layer-subplot"><g class="shapelayer"/><g class="imagelayer"/></g><g class="minor-gridlayer"><g class="x"/><g class="y"/></g><g class="gridlayer"><g class="x"><path class="xgrid crisp" transform="translate(56.87,0)" d="M0,20v330" style="stroke: rgb(235, 240, 248); stroke-opacity: 1; stroke-width: 1px;"/><path class="xgrid crisp" transform="translate(99.44,0)" d="M0,20v330" style="stroke: rgb(235, 240, 248); stroke-opacity: 1; stroke-width: 1px;"/><path class="xgrid crisp" transform="translate(141.32999999999998,0)" d="M0,20v330" style="stroke: rgb(235, 240, 248); stroke-opacity: 1; stroke-width: 1px;"/><path class="xgrid crisp" transform="translate(183.21,0)" d="M0,20v330" style="stroke: rgb(235, 240, 248); stroke-opacity: 1; stroke-width: 1px;"/><path class="xgrid crisp" transform="translate(224.41,0)" d="M0,20v330" style="stroke: rgb(235, 240, 248); stroke-opacity: 1; stroke-width: 1px;"/></g><g class="y"><path class="ygrid crisp" transform="translate(0,300.24)" d="M50,0h206" style="stroke: rgb(235, 240, 248); stroke-opacity: 1; stroke-width: 1px;"/><path class="ygrid crisp" transform="translate(0,250.48)" d="M50,0h206" style="stroke: rgb(235, 240, 248); stroke-opacity: 1; stroke-width: 1px;"/><path class="ygrid crisp" transform="translate(0,200.71)" d="M50,0h206" style="stroke: rgb(235, 240, 248); stroke-opacity: 1; stroke-width: 1px;"/><path class="ygrid crisp" transform="translate(0,150.95)" d="M50,0h206" style="stroke: rgb(235, 240, 248); stroke-opacity: 1; stroke-width: 1px;"/><path class="ygrid crisp" transform="translate(0,101.19)" d="M50,0h206" style="stroke: rgb(235, 240, 248); stroke-opacity: 1; stroke-width: 1px;"/><path class="ygrid crisp" transform="translate(0,51.43)" d="M50,0h206" style="stroke: rgb(235, 240, 248); stroke-opacity: 1; stroke-width: 1px;"/></g></g><g class="zerolinelayer"><path class="yzl zl crisp" transform="translate(0,350)" d="M50,0h206" style="stroke: rgb(235, 240, 248); stroke-opacity: 1; stroke-width: 2px;"/></g><path class="xlines-below"/><path class="ylines-below"/><g class="overlines-below"/><g class="xaxislayer-below"/><g class="yaxislayer-below"/><g class="overaxes-below"/><g class="plot" transform="translate(50,20)" clip-path="url(#clip22e9bbxyplot)"><g class="scatterlayer mlayer"><g class="trace scatter tracec2f97d" style="stroke-miterlimit: 2; opacity: 1;"><g class="fills"/><g class="errorbars"/><g class="lines"><path class="js-line" d="M0,226L2.06,213.06L2.75,213.06L4.12,213.06L4.81,216.54L6.87,210.57L7.55,210.57L9.61,210.57L10.3,209.08L12.36,209.08L13.05,207.59L15.11,206.59L15.79,206.59L17.17,203.6L17.85,203.6L25.41,203.6L26.09,200.12L29.53,200.12L30.21,179.22L38.45,179.22L39.83,193.65L40.51,190.67L41.89,190.67L47.38,189.67L48.07,200.62L49.44,206.09L50.13,204.1L50.81,202.11L51.5,206.59L57.68,206.59L58.37,204.6L59.05,204.6L59.74,206.59L60.43,204.6L61.11,206.09L61.8,204.6L69.35,203.6L70.04,193.65L71.41,197.63L72.1,197.63L72.79,196.64L73.47,180.22L74.85,170.26L75.53,170.26L76.22,167.78L76.91,151.35L78.97,141.9L79.65,141.9L80.34,141.9L81.03,138.91L83.77,123.49L84.46,123.49L88.58,123.99L89.27,124.98L89.95,124.98L90.64,129.96L96.13,129.96L96.82,122.99L97.51,122.99L98.19,111.05L100.94,111.05L101.63,97.61L105.75,97.61L106.43,89.65L107.81,86.66L108.49,86.66L111.24,76.71L111.93,59.79L113.3,59.79L113.99,51.33L115.36,30.93L116.05,30.93L120.85,30.93L121.54,38.4L122.91,41.88L123.6,41.88L124.29,43.87L124.97,51.83L125.66,54.82L126.35,52.83L127.03,49.34L132.53,48.35L133.21,50.84L133.9,49.84L134.59,33.42L136.65,16.5L137.33,17.99L138.71,31.43" style="vector-effect: none; fill: none; stroke: rgb(138, 44, 81); stroke-opacity: 1; stroke-width: 5px; opacity: 1;"/></g><g class="points"/><g class="text"/></g><g class="trace scatter tracebfe06d" style="stroke-miterlimit: 2; opacity: 1;"><g class="fills"/><g class="errorbars"/><g class="lines"><path class="js-line" d="M0,113.04L2.06,120L2.75,120L4.12,120L4.81,123.49L6.87,116.02L7.55,116.02L13.05,117.02L13.73,118.01L15.79,118.01L16.48,120.5L39.83,120.5L40.51,134.44L46.01,134.44L46.69,131.95L47.38,129.96L48.07,118.51L49.44,101.59L50.13,106.07L50.81,110.55L51.5,95.62L57.68,95.62L58.37,103.09L59.05,103.09L59.74,95.62L60.43,103.09L61.11,94.13L62.49,92.14L63.17,101.59L64.55,92.14L65.23,92.14L65.92,92.14L66.61,101.59L67.29,101.59L67.98,92.14L69.35,101.59L70.04,92.64L71.41,104.08L72.1,104.08L72.79,104.08L73.47,107.07L75.53,107.07L76.22,109.55L78.28,121.5L78.97,121.5L81.71,121.5L82.4,122.99L85.15,123.49L85.83,123.49L87.89,123.49L88.58,124.98L90.64,129.96L92.01,129.96L96.82,130.45L97.51,128.46L98.88,133.44L99.57,133.44L105.75,132.45L106.43,140.41L107.81,142.4L108.49,142.4L111.24,150.86L111.93,141.4L113.3,141.4L113.99,146.38L115.36,152.85L116.05,152.85L120.85,152.85L121.54,145.88L122.91,141.9L123.6,141.9L124.29,139.91L124.97,128.46L125.66,124.98L126.35,125.98L127.03,127.47L132.53,127.47L133.21,124.98L133.9,124.98L134.59,137.92L136.65,153.35L137.33,151.85L138.71,136.43" style="vector-effect: none; fill: none; stroke: rgb(0, 174, 239); stroke-opacity: 1; stroke-width: 5px; opacity: 1;"/></g><g class="points"/><g class="text"/></g><g class="trace scatter tracef28eb3" style="stroke-miterlimit: 2; opacity: 1;"><g class="fills"/><g class="errorbars"/><g class="lines"><path class="js-line" d="M0,279.74L2.06,281.23L2.75,281.23L4.12,281.23L4.81,284.72L6.87,278.75L7.55,278.75L29.53,279.74L30.21,285.71L38.45,285.71L39.83,281.73L40.51,249.39L41.89,249.39L46.01,249.39L46.69,250.88L49.44,255.36L50.13,253.86L50.81,251.87L51.5,255.85L57.68,255.85L58.37,253.86L59.05,253.86L59.74,255.85L60.43,253.86L61.11,256.85L62.49,258.84L63.17,255.36L64.55,258.84L65.23,258.84L65.92,258.84L66.61,255.36L67.29,255.36L67.98,258.84L69.35,255.36L70.04,269.79L71.41,259.84L72.1,259.84L72.79,260.33L73.47,267.8L74.85,273.77L75.53,273.77L76.22,272.28L76.91,277.25L78.97,278.25L79.65,278.25L82.4,278.25L83.09,280.24L87.89,280.24L88.58,278.25L90.64,266.8L92.01,266.8L96.13,266.8L96.82,273.27L97.51,275.26L98.19,282.23L100.94,282.23L101.63,286.21L109.87,287.2L110.55,287.7L111.24,287.7L111.93,303.13L113.3,303.13L113.99,305.12L115.36,308.1L116.05,308.1L124.29,308.1L124.97,312.58L126.35,313.58L127.03,315.57L133.21,316.56L133.9,317.56L135.96,322.54L136.65,322.54L138.02,323.53L138.71,324.53" style="vector-effect: none; fill: none; stroke: rgb(255, 1, 170); stroke-opacity: 1; stroke-width: 5px; opacity: 1;"/></g><g class="points"/><g class="text"/></g><g class="trace scatter trace7192f6" style="stroke-miterlimit: 2; opacity: 1;"><g class="fills"/><g class="errorbars"/><g class="lines"><path class="js-line" d="M0,295.17L3.43,296.66L4.12,296.66L6.87,295.66L7.55,295.66L15.79,296.16L16.48,297.16L25.41,297.16L26.09,301.14L29.53,301.14L30.21,305.12L38.45,305.12L39.83,299.15L40.51,312.09L41.89,312.09L48.07,312.58L48.75,316.07L50.81,316.07L51.5,318.06L69.35,317.06L70.04,318.55L72.1,317.56L72.79,317.56L76.22,318.55L76.91,319.55L81.03,321.54L81.71,323.53L100.94,323.53" style="vector-effect: none; fill: none; stroke: rgb(255, 192, 203); stroke-opacity: 1; stroke-width: 5px; opacity: 1;"/></g><g class="points"/><g class="text"/></g><g class="trace scatter trace3325c5" style="stroke-miterlimit: 2; opacity: 1;"><g class="fills"/><g class="errorbars"/><g class="lines"><path class="js-line" d="M0,277.75L2.75,279.74L3.43,279.74L4.12,279.74L4.81,277.75L5.49,278.25L6.18,280.74L12.36,281.23L13.05,282.73L15.11,283.72L15.79,283.72L29.53,282.73L30.21,290.19L38.45,290.19L39.83,287.2L40.51,293.67L41.89,293.67L46.69,294.17L47.38,295.17L48.07,295.17L48.75,300.64L49.44,300.64L50.13,297.65L50.81,294.67L51.5,303.13L57.68,303.13L58.37,299.15L59.05,299.15L59.74,303.13L60.43,299.15L61.11,302.63L62.49,302.63L63.17,298.65L64.55,302.63L65.23,302.63L65.92,302.63L66.61,298.65L67.29,298.65L67.98,302.63L69.35,298.65L70.04,299.15L71.41,295.66L72.1,295.66L72.79,296.16L73.47,301.14L74.85,303.63L75.53,303.63L78.97,308.1L79.65,308.1L81.03,309.1L81.71,311.09L84.46,314.57L85.15,314.57L111.24,314.57L111.93,324.03L113.99,325.02" style="vector-effect: none; fill: none; stroke: rgb(238, 58, 67); stroke-opacity: 1; stroke-width: 5px; opacity: 1;"/></g><g class="points"/><g class="text"/></g><g class="trace scatter tracebec7cc" style="stroke-miterlimit: 2; opacity: 1;"><g class="fills"/><g class="errorbars"/><g class="lines"><path class="js-line" d="M0,290.69L3.43,291.68L4.12,291.68L4.81,284.72L5.49,294.17L6.87,300.14L7.55,300.14L25.41,299.15L26.09,298.65L29.53,298.65L30.21,301.14L39.83,300.14L40.51,302.13L49.44,302.63L50.13,304.62L50.81,306.61L51.5,303.13L57.68,303.13L58.37,304.62L59.05,304.62L59.74,303.13L62.49,306.11L63.17,306.61L65.92,306.11L66.61,306.61L69.35,306.61L70.04,308.1L73.47,308.1L74.16,309.1L76.91,310.1L77.59,311.59L81.71,314.57L82.4,315.57L84.46,317.06L85.15,317.06L100.94,317.06L101.63,322.04L111.24,322.54L111.93,324.03L113.99,325.02" style="vector-effect: none; fill: none; stroke: rgb(202, 166, 105); stroke-opacity: 1; stroke-width: 5px; opacity: 1;"/></g><g class="points"/><g class="text"/></g></g></g><g class="overplot"/><path class="xlines-above crisp" d="M0,0" style="fill: none;"/><path class="ylines-above crisp" d="M0,0" style="fill: none;"/><g class="overlines-above"/><g class="xaxislayer-above"><g class="xtick"><text text-anchor="middle" x="0" y="363" transform="translate(56.87,0)" style="font-family: 'Open Sans', verdana, arial, sans-serif; font-size: 12px; fill: rgb(42, 63, 95); fill-opacity: 1; white-space: pre; opacity: 1;">1.7.23</text></g><g class="xtick"><text text-anchor="middle" x="0" y="363" style="font-family: 'Open Sans', verdana, arial, sans-serif; font-size: 12px; fill: rgb(42, 63, 95); fill-opacity: 1; white-space: pre; opacity: 1;" transform="translate(99.44,0)">1.9.23</text></g><g class="xtick"><text text-anchor="middle" x="0" y="363" style="font-family: 'Open Sans', verdana, arial, sans-serif; font-size: 12px; fill: rgb(42, 63, 95); fill-opacity: 1; white-space: pre; opacity: 1;" transform="translate(141.32999999999998,0)">1.11.23</text></g><g class="xtick"><text text-anchor="middle" x="0" y="363" style="font-family: 'Open Sans', verdana, arial, sans-serif; font-size: 12px; fill: rgb(42, 63, 95); fill-opacity: 1; white-space: pre; opacity: 1;" transform="translate(183.21,0)">1.1.24</text></g><g class="xtick"><text text-anchor="middle" x="0" y="363" style="font-family: 'Open Sans', verdana, arial, sans-serif; font-size: 12px; fill: rgb(42, 63, 95); fill-opacity: 1; white-space: pre; opacity: 1;" transform="translate(224.41,0)">1.3.24</text></g></g><g class="yaxislayer-above"><g class="ytick"><text text-anchor="end" x="49" y="4.199999999999999" transform="translate(0,350)" style="font-family: 'Open Sans', verdana, arial, sans-serif; font-size: 12px; fill: rgb(42, 63, 95); fill-opacity: 1; white-space: pre; opacity: 1;">0%</text></g><g class="ytick"><text text-anchor="end" x="49" y="4.199999999999999" style="font-family: 'Open Sans', verdana, arial, sans-serif; font-size: 12px; fill: rgb(42, 63, 95); fill-opacity: 1; white-space: pre; opacity: 1;" transform="translate(0,300.24)">10%</text></g><g class="ytick"><text text-anchor="end" x="49" y="4.199999999999999" style="font-family: 'Open Sans', verdana, arial, sans-serif; font-size: 12px; fill: rgb(42, 63, 95); fill-opacity: 1; white-space: pre; opacity: 1;" transform="translate(0,250.48)">20%</text></g><g class="ytick"><text text-anchor="end" x="49" y="4.199999999999999" style="font-family: 'Open Sans', verdana, arial, sans-serif; font-size: 12px; fill: rgb(42, 63, 95); fill-opacity: 1; white-space: pre; opacity: 1;" transform="translate(0,200.71)">30%</text></g><g class="ytick"><text text-anchor="end" x="49" y="4.199999999999999" style="font-family: 'Open Sans', verdana, arial, sans-serif; font-size: 12px; fill: rgb(42, 63, 95); fill-opacity: 1; white-space: pre; opacity: 1;" transform="translate(0,150.95)">40%</text></g><g class="ytick"><text text-anchor="end" x="49" y="4.199999999999999" style="font-family: 'Open Sans', verdana, arial, sans-serif; font-size: 12px; fill: rgb(42, 63, 95); fill-opacity: 1; white-space: pre; opacity: 1;" transform="translate(0,101.19)">50%</text></g><g class="ytick"><text text-anchor="end" x="49" y="4.199999999999999" style="font-family: 'Open Sans', verdana, arial, sans-serif; font-size: 12px; fill: rgb(42, 63, 95); fill-opacity: 1; white-space: pre; opacity: 1;" transform="translate(0,51.43)">60%</text></g></g><g class="overaxes-above"/></g></g><g class="polarlayer"/><g class="smithlayer"/><g class="ternarylayer"/><g class="geolayer"/><g class="funnelarealayer"/><g class="pielayer"/><g class="iciclelayer"/><g class="treemaplayer"/><g class="sunburstlayer"/><g class="glimages"/><defs id="topdefs-22e9bb"><g class="clips"/><clipPath id="legend22e9bb"><rect width="128" height="124" x="0" y="0"/></clipPath></defs><g class="layer-above"><g class="imagelayer"/><g class="shapelayer"/></g><g class="infolayer"><g class="legend" pointer-events="all" transform="translate(260.12,20)"><rect class="bg" shape-rendering="crispEdges" width="128" height="124" x="0" y="0" style="stroke: rgb(68, 68, 68); stroke-opacity: 1; fill: rgb(255, 255, 255); fill-opacity: 1; stroke-width: 0px;"/><g class="scrollbox" transform="" clip-path="url(#legend22e9bb)"><g class="groups"><g class="traces" transform="translate(0,14.5)" style="opacity: 1;"><text class="legendtext" text-anchor="start" x="40" y="4.680000000000001" style="font-family: 'Open Sans', verdana, arial, sans-serif; font-size: 12px; fill: rgb(42, 63, 95); fill-opacity: 1; white-space: pre;">Pellegrini Peter</text><g class="layers" style="opacity: 1;"><g class="legendfill"/><g class="legendlines"><path class="js-line" d="M5,0h30" style="fill: none; stroke: rgb(138, 44, 81); stroke-opacity: 1; stroke-width: 5px;"/></g><g class="legendsymbols"><g class="legendpoints"/></g></g><rect class="legendtoggle" x="0" y="-9.5" width="122.703125" height="19" style="fill: rgb(0, 0, 0); fill-opacity: 0;"/></g><g class="traces" transform="translate(0,33.5)" style="opacity: 1;"><text class="legendtext" text-anchor="start" x="40" y="4.680000000000001" style="font-family: 'Open Sans', verdana, arial, sans-serif; font-size: 12px; fill: rgb(42, 63, 95); fill-opacity: 1; white-space: pre;">Korčok Ivan</text><g class="layers" style="opacity: 1;"><g class="legendfill"/><g class="legendlines"><path class="js-line" d="M5,0h30" style="fill: none; stroke: rgb(0, 174, 239); stroke-opacity: 1; stroke-width: 5px;"/></g><g class="legendsymbols"><g class="legendpoints"/></g></g><rect class="legendtoggle" x="0" y="-9.5" width="122.703125" height="19" style="fill: rgb(0, 0, 0); fill-opacity: 0;"/></g><g class="traces" transform="translate(0,52.5)" style="opacity: 1;"><text class="legendtext" text-anchor="start" x="40" y="4.680000000000001" style="font-family: 'Open Sans', verdana, arial, sans-serif; font-size: 12px; fill: rgb(42, 63, 95); fill-opacity: 1; white-space: pre;">Kubiš Ján</text><g class="layers" style="opacity: 1;"><g class="legendfill"/><g class="legendlines"><path class="js-line" d="M5,0h30" style="fill: none; stroke: rgb(255, 1, 170); stroke-opacity: 1; stroke-width: 5px;"/></g><g class="legendsymbols"><g class="legendpoints"/></g></g><rect class="legendtoggle" x="0" y="-9.5" width="122.703125" height="19" style="fill: rgb(0, 0, 0); fill-opacity: 0;"/></g><g class="traces" transform="translate(0,71.5)" style="opacity: 1;"><text class="legendtext" text-anchor="start" x="40" y="4.680000000000001" style="font-family: 'Open Sans', verdana, arial, sans-serif; font-size: 12px; fill: rgb(42, 63, 95); fill-opacity: 1; white-space: pre;">Lajčák Miroslav</text><g class="layers" style="opacity: 1;"><g class="legendfill"/><g class="legendlines"><path class="js-line" d="M5,0h30" style="fill: none; stroke: rgb(255, 192, 203); stroke-opacity: 1; stroke-width: 5px;"/></g><g class="legendsymbols"><g class="legendpoints"/></g></g><rect class="legendtoggle" x="0" y="-9.5" width="122.703125" height="19" style="fill: rgb(0, 0, 0); fill-opacity: 0;"/></g><g class="traces" transform="translate(0,90.5)" style="opacity: 1;"><text class="legendtext" text-anchor="start" x="40" y="4.680000000000001" style="font-family: 'Open Sans', verdana, arial, sans-serif; font-size: 12px; fill: rgb(42, 63, 95); fill-opacity: 1; white-space: pre;">Fico Robert</text><g class="layers" style="opacity: 1;"><g class="legendfill"/><g class="legendlines"><path class="js-line" d="M5,0h30" style="fill: none; stroke: rgb(238, 58, 67); stroke-opacity: 1; stroke-width: 5px;"/></g><g class="legendsymbols"><g class="legendpoints"/></g></g><rect class="legendtoggle" x="0" y="-9.5" width="122.703125" height="19" style="fill: rgb(0, 0, 0); fill-opacity: 0;"/></g><g class="traces" transform="translate(0,109.5)" style="opacity: 1;"><text class="legendtext" text-anchor="start" x="40" y="4.680000000000001" style="font-family: 'Open Sans', verdana, arial, sans-serif; font-size: 12px; fill: rgb(42, 63, 95); fill-opacity: 1; white-space: pre;">Mistrík Robert</text><g class="layers" style="opacity: 1;"><g class="legendfill"/><g class="legendlines"><path class="js-line" d="M5,0h30" style="fill: none; stroke: rgb(202, 166, 105); stroke-opacity: 1; stroke-width: 5px;"/></g><g class="legendsymbols"><g class="legendpoints"/></g></g><rect class="legendtoggle" x="0" y="-9.5" width="122.703125" height="19" style="fill: rgb(0, 0, 0); fill-opacity: 0;"/></g></g></g><rect class="scrollbar" rx="20" ry="3" width="0" height="0" x="0" y="0" style="fill: rgb(128, 139, 164); fill-opacity: 1;"/></g><g class="g-gtitle"/><g class="g-xtitle"/><g class="g-ytitle"/></g></svg>