<svg class="main-svg" xmlns="http://www.w3.org/2000/svg" xmlns:xlink="http://www.w3.org/1999/xlink" width="300" height="135" style="" viewBox="0 0 300 135"><rect x="0" y="0" width="300" height="135" style="fill: rgb(255, 255, 255); fill-opacity: 1;"/><defs id="defs-ff588c"><g class="clips"><clipPath id="clipff588cxyplot" class="plotclip"><rect width="280" height="75"/></clipPath><clipPath class="axesclip" id="clipff588cx"><rect x="10" y="0" width="280" height="135"/></clipPath><clipPath class="axesclip" id="clipff588cy"><rect x="0" y="50" width="300" height="75"/></clipPath><clipPath class="axesclip" id="clipff588cxy"><rect x="10" y="50" width="280" height="75"/></clipPath></g><g class="gradients"/><g class="patterns"/></defs><g class="bglayer"/><g class="layer-below"><g class="imagelayer"/><g class="shapelayer"/></g><g class="cartesianlayer"><g class="subplot xy"><g class="layer-subplot"><g class="shapelayer"/><g class="imagelayer"/></g><g class="minor-gridlayer"><g class="x"/><g class="y"/></g><g class="gridlayer"><g class="x"><path class="xgrid crisp" transform="translate(22.02,0)" d="M0,50v75" style="stroke: rgb(235, 240, 248); stroke-opacity: 1; stroke-width: 1px;"/><path class="xgrid crisp" transform="translate(96.52,0)" d="M0,50v75" style="stroke: rgb(235, 240, 248); stroke-opacity: 1; stroke-width: 1px;"/><path class="xgrid crisp" transform="translate(169.83,0)" d="M0,50v75" style="stroke: rgb(235, 240, 248); stroke-opacity: 1; stroke-width: 1px;"/><path class="xgrid crisp" transform="translate(243.13,0)" d="M0,50v75" style="stroke: rgb(235, 240, 248); stroke-opacity: 1; stroke-width: 1px;"/></g><g class="y"><path class="ygrid crisp" transform="translate(0,102.77000000000001)" d="M10,0h280" style="stroke: rgb(235, 240, 248); stroke-opacity: 1; stroke-width: 1px;"/><path class="ygrid crisp" transform="translate(0,80.53999999999999)" d="M10,0h280" style="stroke: rgb(235, 240, 248); stroke-opacity: 1; stroke-width: 1px;"/><path class="ygrid crisp" transform="translate(0,58.31)" d="M10,0h280" style="stroke: rgb(235, 240, 248); stroke-opacity: 1; stroke-width: 1px;"/></g></g><g class="zerolinelayer"><path class="yzl zl crisp" transform="translate(0,125)" d="M10,0h280" style="stroke: rgb(235, 240, 248); stroke-opacity: 1; stroke-width: 2px;"/></g><path class="xlines-below"/><path class="ylines-below"/><g class="overlines-below"/><g class="xaxislayer-below"/><g class="yaxislayer-below"/><g class="overaxes-below"/><g class="plot" transform="translate(10,50)" clip-path="url(#clipff588cxyplot)"><g class="scatterlayer mlayer"><g class="trace scatter trace92c0af" style="stroke-miterlimit: 2; opacity: 1;"><g class="fills"/><g class="errorbars"/><g class="lines"><path class="js-line" d="M0,51.77L3.61,48.88L4.81,48.88L9.61,49.1L10.82,48.32L27.64,47.43L28.84,46.77L51.67,45.99L52.88,41.32L67.3,41.32L69.7,44.54L73.3,43.88L74.51,43.88L82.92,43.65L84.12,46.1L86.52,47.32L87.73,46.88L88.93,46.43L90.13,47.43L121.37,46.77L122.58,44.54L124.98,45.43L126.18,45.43L127.38,45.21L128.58,41.54L130.99,39.32L132.19,39.32L133.39,38.76L134.59,35.1L137,32.98L138.2,32.98L141.8,32.32L143,31.32L146.61,28.87L147.81,28.87L157.42,29.2L158.63,30.32L168.24,30.32L169.44,28.76L170.64,28.76L171.85,26.09L176.65,26.09L177.85,23.09L185.06,23.09L186.27,21.31L193.48,18.42L194.68,18.42L197.08,14.64L198.28,14.64L199.48,12.75L200.69,8.2L211.5,8.2L212.7,9.86L215.11,10.64L216.31,10.64L218.71,12.86L219.91,13.53L225.92,12.31L227.12,12.31L234.33,12.42L235.54,8.75L237.94,5.08L239.14,4.97L242.75,5.86L243.95,3.75L247.55,4.75L248.76,5.64L251.16,6.75L252.36,10.53L253.56,11.86L254.76,10.53L257.17,10.64L258.37,8.86L260.77,8.97L261.97,9.09L264.38,8.64L265.58,7.75L269.18,4.64L270.39,4.64L273.99,6.64L275.19,5.75L277.6,6.42L278.8,8.64L280,11.64" style="vector-effect: none; fill: none; stroke: rgb(138, 44, 81); stroke-opacity: 1; stroke-width: 5px; opacity: 1;"/></g><g class="points"/><g class="text"/></g><g class="trace scatter tracef3bad6" style="stroke-miterlimit: 2; opacity: 1;"><g class="fills"/><g class="errorbars"/><g class="lines"><path class="js-line" d="M0,26.54L4.81,28.09L6.01,28.09L9.61,27.87L10.82,27.2L69.7,28.2L70.9,31.32L82.92,30.32L84.12,27.76L86.52,23.98L87.73,24.98L88.93,25.98L90.13,22.65L100.94,22.65L102.15,24.31L103.35,24.31L104.55,22.65L105.75,24.31L106.95,22.31L109.36,21.87L110.56,23.98L112.96,21.87L114.16,21.87L115.36,21.87L116.57,23.98L117.77,23.98L118.97,21.87L121.37,23.98L122.58,21.98L124.98,24.54L126.18,24.54L133.39,25.76L134.59,27.65L138.2,28.43L139.4,28.43L155.02,29.2L156.22,29.87L185.06,30.87L186.27,32.65L194.68,34.98L195.88,32.87L199.48,33.98L200.69,35.43L211.5,35.43L212.7,33.87L215.11,32.98L216.31,32.98L217.51,32.54L218.71,29.98L221.12,29.43L222.32,29.76L234.33,29.2L235.54,32.09L237.94,35.43L239.14,35.54L241.55,33.76L242.75,32.98L245.15,35.1L246.35,34.54L251.16,32.09L252.36,28.32L253.56,26.98L254.76,28.32L257.17,28.2L258.37,29.98L260.77,29.87L261.97,29.76L264.38,30.2L265.58,31.09L269.18,34.21L270.39,34.21L273.99,32.21L275.19,33.09L277.6,32.43L278.8,30.2L280,27.2" style="vector-effect: none; fill: none; stroke: rgb(0, 174, 239); stroke-opacity: 1; stroke-width: 5px; opacity: 1;"/></g><g class="points"/><g class="text"/></g><g class="trace scatter trace9748bc" style="stroke-miterlimit: 2; opacity: 1;"><g class="fills"/><g class="errorbars"/><g class="lines"><path class="js-line" d="M0,63.33L7.21,63.77L8.41,63.33L31.24,64.66L32.45,64.66L51.67,64.44L52.88,66.11L69.7,65.44L70.9,66.89L84.12,67.22L85.32,68.44L87.73,67.77L88.93,67.11L91.33,69L92.53,69L122.58,68.11L123.78,67.33L128.58,68.55L129.79,69.11L141.8,70.33L143,70.78L151.42,71.55L152.62,71.55L194.68,71.55L195.88,73.67L199.48,73.89" style="vector-effect: none; fill: none; stroke: rgb(238, 58, 67); stroke-opacity: 1; stroke-width: 5px; opacity: 1;"/></g><g class="points"/><g class="text"/></g><g class="trace scatter trace90b6e2" style="stroke-miterlimit: 2; opacity: 1;"><g class="fills"/><g class="errorbars"/><g class="lines"><path class="js-line" d="M0,63.77L8.41,64.88L9.61,64.22L13.22,63.55L14.42,63.55L51.67,63.77L52.88,65.11L69.7,64.22L70.9,56.99L84.12,57.66L85.32,58.33L106.95,58.66L108.15,59.1L121.37,58.33L122.58,61.55L124.98,59.33L126.18,59.33L127.38,59.44L128.58,61.11L130.99,62.44L132.19,62.44L133.39,62.11L134.59,63.22L141.8,63.33L143,63.22L151.42,63.88L152.62,63.88L155.02,63.44L156.22,62.44L157.42,62.44L158.63,60.88L168.24,60.88L169.44,62.33L175.45,64.33L176.65,64.33L179.06,65.22L180.26,65.22L194.68,65.55L195.88,69L217.51,70.11L218.71,71.11L234.33,72.22L235.54,73L241.55,73.55" style="vector-effect: none; fill: none; stroke: rgb(255, 1, 170); stroke-opacity: 1; stroke-width: 5px; opacity: 1;"/></g><g class="points"/><g class="text"/></g><g class="trace scatter tracee83995" style="stroke-miterlimit: 2; opacity: 1;"><g class="fills"/><g class="errorbars"/><g class="lines"><path class="js-line" d="M0,67.22L13.22,67.33L14.42,67.33L51.67,68.55L52.88,69.44L67.3,69.44L69.7,68.11L70.9,71L73.3,71L88.93,71.89L90.13,72.33L141.8,73.11L143,73.55L176.65,73.55" style="vector-effect: none; fill: none; stroke: rgb(255, 192, 203); stroke-opacity: 1; stroke-width: 5px; opacity: 1;"/></g><g class="points"/><g class="text"/></g></g></g><g class="overplot"/><path class="xlines-above crisp" d="M0,0" style="fill: none;"/><path class="ylines-above crisp" d="M0,0" style="fill: none;"/><g class="overlines-above"/><g class="xaxislayer-above"/><g class="yaxislayer-above"/><g class="overaxes-above"/></g></g><g class="polarlayer"/><g class="smithlayer"/><g class="ternarylayer"/><g class="geolayer"/><g class="funnelarealayer"/><g class="pielayer"/><g class="iciclelayer"/><g class="treemaplayer"/><g class="sunburstlayer"/><g class="glimages"/><defs id="topdefs-ff588c"><g class="clips"/></defs><g class="layer-above"><g class="imagelayer"/><g class="shapelayer"/></g><g class="infolayer"><g class="g-gtitle"><text class="gtitle" x="15" y="25" text-anchor="start" dy="0em" style="font-family: Ubuntu, verdana, arial, sans-serif; font-size: 16px; fill: rgb(233, 84, 32); opacity: 1; font-weight: normal; white-space: pre;">Prezident/ka 2024</text></g><g class="g-xtitle"/><g class="g-ytitle"/></g></svg>