<svg class="main-svg" xmlns="http://www.w3.org/2000/svg" xmlns:xlink="http://www.w3.org/1999/xlink" width="300" height="135" style="" viewBox="0 0 300 135"><rect x="0" y="0" width="300" height="135" style="fill: rgb(255, 255, 255); fill-opacity: 1;"/><defs id="defs-df62b6"><g class="clips"><clipPath id="clipdf62b6xyplot" class="plotclip"><rect width="280" height="75"/></clipPath><clipPath class="axesclip" id="clipdf62b6x"><rect x="10" y="0" width="280" height="135"/></clipPath><clipPath class="axesclip" id="clipdf62b6y"><rect x="0" y="50" width="300" height="75"/></clipPath><clipPath class="axesclip" id="clipdf62b6xy"><rect x="10" y="50" width="280" height="75"/></clipPath></g><g class="gradients"/><g class="patterns"/></defs><g class="bglayer"/><g class="layer-below"><g class="imagelayer"/><g class="shapelayer"/></g><g class="cartesianlayer"><g class="subplot xy"><g class="layer-subplot"><g class="shapelayer"/><g class="imagelayer"/></g><g class="minor-gridlayer"><g class="x"/><g class="y"/></g><g class="gridlayer"><g class="x"><path class="xgrid crisp" transform="translate(19.89,0)" d="M0,50v75" style="stroke: rgb(235, 240, 248); stroke-opacity: 1; stroke-width: 1px;"/><path class="xgrid crisp" transform="translate(81.24,0)" d="M0,50v75" style="stroke: rgb(235, 240, 248); stroke-opacity: 1; stroke-width: 1px;"/><path class="xgrid crisp" transform="translate(141.59,0)" d="M0,50v75" style="stroke: rgb(235, 240, 248); stroke-opacity: 1; stroke-width: 1px;"/><path class="xgrid crisp" transform="translate(201.94,0)" d="M0,50v75" style="stroke: rgb(235, 240, 248); stroke-opacity: 1; stroke-width: 1px;"/><path class="xgrid crisp" transform="translate(261.31,0)" d="M0,50v75" style="stroke: rgb(235, 240, 248); stroke-opacity: 1; stroke-width: 1px;"/></g><g class="y"><path class="ygrid crisp" transform="translate(0,105.03999999999999)" d="M10,0h280" style="stroke: rgb(235, 240, 248); stroke-opacity: 1; stroke-width: 1px;"/><path class="ygrid crisp" transform="translate(0,85.08)" d="M10,0h280" style="stroke: rgb(235, 240, 248); stroke-opacity: 1; stroke-width: 1px;"/><path class="ygrid crisp" transform="translate(0,65.13)" d="M10,0h280" style="stroke: rgb(235, 240, 248); stroke-opacity: 1; stroke-width: 1px;"/></g></g><g class="zerolinelayer"><path class="yzl zl crisp" transform="translate(0,125)" d="M10,0h280" style="stroke: rgb(235, 240, 248); stroke-opacity: 1; stroke-width: 2px;"/></g><path class="xlines-below"/><path class="ylines-below"/><g class="overlines-below"/><g class="xaxislayer-below"/><g class="yaxislayer-below"/><g class="overaxes-below"/><g class="plot" transform="translate(10,50)" clip-path="url(#clipdf62b6xyplot)"><g class="scatterlayer mlayer"><g class="trace scatter trace8e2b7d" style="stroke-miterlimit: 2; opacity: 1;"><g class="fills"/><g class="errorbars"/><g class="lines"><path class="js-line" d="M0,31.49L3.96,32.89L4.95,32.89L7.92,32.69L8.9,32.09L57.39,32.99L58.37,35.78L68.27,34.88L69.26,32.59L71.24,29.2L72.23,30.09L73.22,30.99L74.2,28L83.11,28L84.1,29.5L85.09,29.5L86.08,28L87.07,29.5L88.06,27.7L90.04,27.3L91.02,29.2L93,27.3L93.99,27.3L94.98,27.3L95.97,29.2L96.96,29.2L97.95,27.3L99.93,29.2L100.92,27.4L102.9,29.7L103.89,29.7L109.82,30.79L110.81,32.49L113.78,33.19L114.77,33.19L127.63,33.89L128.62,34.49L152.37,35.38L153.36,36.98L160.28,39.08L161.27,37.18L164.24,38.18L165.23,39.47L174.13,39.47L175.12,38.08L178.09,37.28L179.08,36.88L181.06,33.89L182.05,34.09L187,34.39L187.99,34.39L192.93,33.89L193.92,36.48L196.89,39.57L197.88,39.28L199.86,37.28L200.85,39.18L203.82,38.28L204.81,37.48L206.78,36.48L207.77,33.09L208.76,31.89L209.75,33.09L211.73,32.99L212.72,34.59L214.7,34.49L215.69,34.39L217.67,34.78L218.66,35.58L221.63,38.38L222.61,38.38L225.58,36.58L226.57,37.38L228.55,36.78L229.54,34.78L231.52,29.2L232.51,29.4L235.48,28.4L236.47,28.1L238.45,29.4L239.43,28.3L241.41,27.6L242.4,29L245.37,35.08L246.36,35.18L248.34,37.28L249.33,37.38L251.31,37.18L252.3,35.58L257.24,36.28L258.23,36.88L261.2,37.28L262.19,38.28L264.17,39.28L265.16,41.97L269.12,44.07L270.11,44.66L272.08,46.46L273.07,43.77L275.05,24.01L276.04,24.31L280,22.21" style="vector-effect: none; fill: none; stroke: rgb(0, 174, 239); stroke-opacity: 1; stroke-width: 5px; opacity: 1;"/></g><g class="points"/><g class="text"/></g><g class="trace scatter trace89e58e" style="stroke-miterlimit: 2; opacity: 1;"><g class="fills"/><g class="errorbars"/><g class="lines"><path class="js-line" d="M0,54.14L2.97,51.55L3.96,51.55L13.85,51.05L14.84,50.75L36.61,49.65L37.6,48.95L42.54,48.95L43.53,44.76L55.41,44.76L57.39,47.66L60.35,47.06L61.34,47.06L68.27,46.86L69.26,49.05L71.24,50.15L72.23,49.75L74.2,50.25L75.19,50.25L99.93,49.65L100.92,47.66L103.89,48.46L104.88,48.26L106.86,42.97L107.84,42.97L109.82,42.47L110.81,39.18L112.79,37.28L113.78,37.28L116.75,36.68L117.74,35.78L121.7,33.59L122.69,33.59L129.61,33.89L130.6,34.88L138.52,34.88L139.51,33.49L140.49,33.49L141.48,31.09L145.44,31.09L146.43,28.4L152.37,28.4L153.36,26.8L159.29,24.21L160.28,24.21L162.26,20.81L163.25,20.81L166.22,15.03L167.21,15.03L174.13,15.03L175.12,16.52L178.09,17.22L179.08,17.62L181.06,19.82L182.05,19.42L185.02,18.72L186.01,18.72L192.93,18.82L193.92,15.53L195.9,12.23L196.89,12.13L199.86,12.93L200.85,11.03L203.82,11.93L204.81,12.73L206.78,13.73L207.77,17.12L208.76,18.32L209.75,17.12L211.73,17.22L212.72,15.63L214.7,15.72L215.69,15.82L217.67,15.43L218.66,14.63L221.63,11.83L222.61,11.83L225.58,13.63L226.57,12.83L228.55,13.43L229.54,15.43L231.52,21.01L232.51,20.81L235.48,21.81L236.47,22.11L238.45,20.81L239.43,21.91L241.41,22.61L242.4,21.21L245.37,15.13L246.36,15.03L248.34,12.93L249.33,12.83L251.31,13.03L252.3,14.63L257.24,13.93L258.23,13.33L261.2,12.93L262.19,11.93L264.17,10.93L265.16,8.24L269.12,6.14L270.11,5.55L272.08,3.75L273.07,6.44L275.05,26.2L276.04,25.9L280,28" style="vector-effect: none; fill: none; stroke: rgb(138, 44, 81); stroke-opacity: 1; stroke-width: 5px; opacity: 1;"/></g><g class="points"/><g class="text"/></g><g class="trace scatter tracebf0e63" style="stroke-miterlimit: 2; opacity: 1;"><g class="fills"/><g class="errorbars"/><g class="lines"><path class="js-line" d="M0,67.12L5.94,67.32L6.93,65.92L9.89,69.01L10.88,69.01L72.23,69.91L73.22,70.31L76.18,69.61L77.17,69.61L108.83,70.81L109.82,70.91L132.58,72.51L133.57,72.51L160.28,73.5L161.27,73.8L164.24,74" style="vector-effect: none; fill: none; stroke: rgb(202, 166, 105); stroke-opacity: 1; stroke-width: 5px; opacity: 1;"/></g><g class="points"/><g class="text"/></g><g class="trace scatter trace3a2488" style="stroke-miterlimit: 2; opacity: 1;"><g class="fills"/><g class="errorbars"/><g class="lines"><path class="js-line" d="M0,64.92L7.92,65.32L8.9,64.72L42.54,64.92L43.53,66.12L57.39,65.32L58.37,58.83L73.22,59.33L74.2,60.13L99.93,60.03L100.92,62.93L102.9,60.93L103.89,60.93L104.88,61.03L105.87,62.53L107.84,63.72L108.83,63.72L110.81,64.42L111.8,64.62L127.63,64.62L128.62,63.72L129.61,63.72L130.6,62.33L138.52,62.33L139.51,63.62L144.45,65.42L145.44,65.42L148.41,66.22L149.4,66.22L160.28,66.52L161.27,69.61L179.08,70.61L180.07,71.51L192.93,72.51L193.92,73.2L198.87,73.7" style="vector-effect: none; fill: none; stroke: rgb(255, 1, 170); stroke-opacity: 1; stroke-width: 5px; opacity: 1;"/></g><g class="points"/><g class="text"/></g><g class="trace scatter tracecc1002" style="stroke-miterlimit: 2; opacity: 1;"><g class="fills"/><g class="errorbars"/><g class="lines"><path class="js-line" d="M0,64.52L5.94,64.92L6.93,64.52L26.71,65.72L27.7,65.72L42.54,65.52L43.53,67.02L57.39,66.42L58.37,67.72L69.26,68.01L70.25,69.11L73.22,67.91L74.2,69.61L100.92,68.81L101.91,68.11L105.87,69.21L106.86,69.71L116.75,70.81L117.74,71.21L125.65,71.91L126.64,71.91L160.28,71.91L161.27,73.8L164.24,74" style="vector-effect: none; fill: none; stroke: rgb(238, 58, 67); stroke-opacity: 1; stroke-width: 5px; opacity: 1;"/></g><g class="points"/><g class="text"/></g></g></g><g class="overplot"/><path class="xlines-above crisp" d="M0,0" style="fill: none;"/><path class="ylines-above crisp" d="M0,0" style="fill: none;"/><g class="overlines-above"/><g class="xaxislayer-above"/><g class="yaxislayer-above"/><g class="overaxes-above"/></g></g><g class="polarlayer"/><g class="smithlayer"/><g class="ternarylayer"/><g class="geolayer"/><g class="funnelarealayer"/><g class="pielayer"/><g class="iciclelayer"/><g class="treemaplayer"/><g class="sunburstlayer"/><g class="glimages"/><defs id="topdefs-df62b6"><g class="clips"/></defs><g class="layer-above"><g class="imagelayer"/><g class="shapelayer"/></g><g class="infolayer"><g class="g-gtitle"><text class="gtitle" x="15" y="25" text-anchor="start" dy="0em" style="font-family: Ubuntu, verdana, arial, sans-serif; font-size: 16px; fill: rgb(233, 84, 32); opacity: 1; font-weight: normal; white-space: pre;">Prezident/ka 2024</text></g><g class="g-xtitle"/><g class="g-ytitle"/></g></svg>