<svg class="main-svg" xmlns="http://www.w3.org/2000/svg" xmlns:xlink="http://www.w3.org/1999/xlink" width="400" height="400" style="" viewBox="0 0 400 400"><rect x="0" y="0" width="400" height="400" style="fill: rgb(255, 255, 255); fill-opacity: 1;"/><defs id="defs-009d9e"><g class="clips"><clipPath id="clip009d9exyplot" class="plotclip"><rect width="206" height="330"/></clipPath><clipPath class="axesclip" id="clip009d9ex"><rect x="50" y="0" width="206" height="400"/></clipPath><clipPath class="axesclip" id="clip009d9ey"><rect x="0" y="20" width="400" height="330"/></clipPath><clipPath class="axesclip" id="clip009d9exy"><rect x="50" y="20" width="206" height="330"/></clipPath></g><g class="gradients"/><g class="patterns"/></defs><g class="bglayer"/><g class="layer-below"><g class="imagelayer"/><g class="shapelayer"/></g><g class="cartesianlayer"><g class="subplot xy"><g class="layer-subplot"><g class="shapelayer"/><g class="imagelayer"/></g><g class="minor-gridlayer"><g class="x"/><g class="y"/></g><g class="gridlayer"><g class="x"><path class="xgrid crisp" transform="translate(57.1,0)" d="M0,20v330" style="stroke: rgb(235, 240, 248); stroke-opacity: 1; stroke-width: 1px;"/><path class="xgrid crisp" transform="translate(101.14,0)" d="M0,20v330" style="stroke: rgb(235, 240, 248); stroke-opacity: 1; stroke-width: 1px;"/><path class="xgrid crisp" transform="translate(144.48000000000002,0)" d="M0,20v330" style="stroke: rgb(235, 240, 248); stroke-opacity: 1; stroke-width: 1px;"/><path class="xgrid crisp" transform="translate(187.81,0)" d="M0,20v330" style="stroke: rgb(235, 240, 248); stroke-opacity: 1; stroke-width: 1px;"/><path class="xgrid crisp" transform="translate(230.43,0)" d="M0,20v330" style="stroke: rgb(235, 240, 248); stroke-opacity: 1; stroke-width: 1px;"/></g><g class="y"><path class="ygrid crisp" transform="translate(0,306.09)" d="M50,0h206" style="stroke: rgb(235, 240, 248); stroke-opacity: 1; stroke-width: 1px;"/><path class="ygrid crisp" transform="translate(0,262.18)" d="M50,0h206" style="stroke: rgb(235, 240, 248); stroke-opacity: 1; stroke-width: 1px;"/><path class="ygrid crisp" transform="translate(0,218.28)" d="M50,0h206" style="stroke: rgb(235, 240, 248); stroke-opacity: 1; stroke-width: 1px;"/><path class="ygrid crisp" transform="translate(0,174.37)" d="M50,0h206" style="stroke: rgb(235, 240, 248); stroke-opacity: 1; stroke-width: 1px;"/><path class="ygrid crisp" transform="translate(0,130.45999999999998)" d="M50,0h206" style="stroke: rgb(235, 240, 248); stroke-opacity: 1; stroke-width: 1px;"/><path class="ygrid crisp" transform="translate(0,86.55)" d="M50,0h206" style="stroke: rgb(235, 240, 248); stroke-opacity: 1; stroke-width: 1px;"/><path class="ygrid crisp" transform="translate(0,42.65)" d="M50,0h206" style="stroke: rgb(235, 240, 248); stroke-opacity: 1; stroke-width: 1px;"/></g></g><g class="zerolinelayer"><path class="yzl zl crisp" transform="translate(0,350)" d="M50,0h206" style="stroke: rgb(235, 240, 248); stroke-opacity: 1; stroke-width: 2px;"/></g><path class="xlines-below"/><path class="ylines-below"/><g class="overlines-below"/><g class="xaxislayer-below"/><g class="yaxislayer-below"/><g class="overaxes-below"/><g class="plot" transform="translate(50,20)" clip-path="url(#clip009d9exyplot)"><g class="scatterlayer mlayer"><g class="trace scatter traced24565" style="stroke-miterlimit: 2; opacity: 1;"><g class="fills"/><g class="errorbars"/><g class="lines"><path class="js-line" d="M0,138.56L2.13,144.71L2.84,144.71L4.26,144.71L4.97,147.78L7.1,141.2L7.81,141.2L13.5,142.08L14.21,142.95L16.34,142.95L17.05,145.15L41.2,145.15L41.91,157.44L47.59,157.44L48.3,155.25L49.01,153.49L49.72,143.39L51.14,128.46L51.86,132.42L52.57,136.37L53.28,123.2L59.67,123.2L60.38,129.78L61.09,129.78L61.8,123.2L62.51,129.78L63.22,121.88L64.64,120.12L65.35,128.46L66.77,120.12L67.48,120.12L68.19,120.12L68.9,128.46L69.61,128.46L70.32,120.12L71.74,128.46L72.46,120.56L73.88,130.66L74.59,130.66L75.3,130.66L76.01,133.29L78.14,133.29L78.85,135.49L80.98,146.03L81.69,146.03L84.53,146.03L85.24,147.34L88.08,147.78L88.79,147.78L90.92,147.78L91.63,149.1L93.77,153.49L95.19,153.49L100.16,153.93L100.87,152.17L102.29,156.57L103,156.57L109.39,155.69L110.1,162.71L111.52,164.47L112.23,164.47L115.08,171.93L115.79,163.59L117.21,163.59L117.92,167.98L119.34,173.69L120.05,173.69L125.02,173.69L125.73,167.54L127.15,164.03L127.86,164.03L128.57,162.27L129.28,152.17L129.99,149.1L130.7,149.98L131.41,151.3L137.1,151.3L137.81,149.1L138.52,149.1L139.23,160.52L141.36,174.13L142.07,172.81L143.49,164.03L144.2,172.37L144.91,172.37L145.62,170.18L147.04,164.91L147.75,160.96L148.46,160.52L149.17,145.59L149.88,140.32L150.59,145.59L151.3,143.39L152.01,145.15L152.72,152.17L153.43,153.93L154.14,151.74L155.57,150.42L156.28,153.05L159.12,168.86L159.83,168.86L160.54,167.1L161.25,161.83L161.96,160.96L162.67,164.47L163.38,164.91L164.09,161.83L166.22,128.46L166.93,129.34L167.64,129.34L168.35,128.9L169.06,124.95L169.77,123.63L170.48,124.51L171.19,129.34L173.32,121.44L174.03,127.59L176.17,154.37L176.88,154.81L177.59,164.47L178.3,164.03L179.01,164.47L179.72,166.66L180.43,163.59L181.85,156.57L182.56,156.13L183.27,156.57L183.98,158.76L187.53,164.03L188.24,168.42L189.66,172.81L190.37,184.67L193.21,193.89L193.92,196.52L195.34,204.42L196.06,192.57L197.48,105.63L198.19,106.95L198.9,104.32L199.61,105.19L200.32,104.75L201.74,87.19" style="vector-effect: none; fill: none; stroke: rgb(0, 174, 239); stroke-opacity: 1; stroke-width: 5px; opacity: 1;"/></g><g class="points"/><g class="text"/></g><g class="trace scatter traced50bd4" style="stroke-miterlimit: 2; opacity: 1;"><g class="fills"/><g class="errorbars"/><g class="lines"><path class="js-line" d="M0,238.23L2.13,226.82L2.84,226.82L4.26,226.82L4.97,229.89L7.1,224.62L7.81,224.62L9.94,224.62L10.66,223.3L12.79,223.3L13.5,221.99L15.63,221.11L16.34,221.11L17.76,218.47L18.47,218.47L26.28,218.47L26.99,215.4L30.54,215.4L31.26,196.96L39.78,196.96L41.2,209.69L41.91,207.06L43.33,207.06L49.01,206.18L49.72,215.84L51.14,220.67L51.86,218.91L52.57,217.16L53.28,221.11L59.67,221.11L60.38,219.35L61.09,219.35L61.8,221.11L62.51,219.35L63.22,220.67L63.93,219.35L71.74,218.47L72.46,209.69L73.88,213.21L74.59,213.21L75.3,212.33L76.01,197.84L77.43,189.06L78.14,189.06L78.85,186.86L79.56,172.37L80.98,164.03L81.69,164.03L83.11,164.03L83.82,161.39L86.66,147.78L87.37,147.78L91.63,148.22L92.34,149.1L93.06,149.1L93.77,153.49L99.45,153.49L100.16,147.34L100.87,147.34L101.58,136.81L104.42,136.81L105.13,124.95L109.39,124.95L110.1,117.93L111.52,115.29L112.23,115.29L115.08,106.51L115.79,91.58L117.21,91.58L117.92,84.12L119.34,66.12L120.05,66.12L125.02,66.12L125.73,72.7L127.15,75.78L127.86,75.78L128.57,77.53L129.28,84.56L129.99,87.19L130.7,85.43L131.41,82.36L137.1,81.48L137.81,83.68L138.52,82.8L139.23,68.31L141.36,53.38L142.07,54.7L142.78,59.97L143.49,56.89L144.2,48.55L144.91,48.55L145.62,50.75L147.04,56.02L147.75,59.97L148.46,60.41L149.17,75.34L149.88,80.61L150.59,75.34L151.3,77.53L152.01,75.78L152.72,68.75L153.43,66.99L154.14,69.19L155.57,70.51L156.28,67.87L159.12,52.07L159.83,52.07L160.54,53.82L161.25,59.09L161.96,59.97L162.67,56.46L163.38,56.02L164.09,59.09L166.22,92.46L166.93,91.58L167.64,91.58L168.35,92.02L169.06,95.97L169.77,97.29L170.48,96.41L171.19,91.58L173.32,99.49L174.03,93.34L176.17,66.55L176.88,66.12L177.59,56.46L178.3,56.89L179.01,56.46L179.72,54.26L180.43,57.33L181.85,64.36L182.56,64.8L183.27,64.36L183.98,62.16L187.53,56.89L188.24,52.5L189.66,48.11L190.37,36.26L193.21,27.04L193.92,24.4L195.34,16.5L196.06,28.36L197.48,115.29L198.19,113.97L198.9,116.61L199.61,115.73L200.32,116.17L201.74,133.73" style="vector-effect: none; fill: none; stroke: rgb(138, 44, 81); stroke-opacity: 1; stroke-width: 5px; opacity: 1;"/></g><g class="points"/><g class="text"/></g><g class="trace scatter tracee21ee1" style="stroke-miterlimit: 2; opacity: 1;"><g class="fills"/><g class="errorbars"/><g class="lines"><path class="js-line" d="M0,285.65L2.13,286.97L2.84,286.97L4.26,286.97L4.97,290.04L7.1,284.78L7.81,284.78L30.54,285.65L31.26,290.92L39.78,290.92L41.2,287.41L41.91,258.87L43.33,258.87L47.59,258.87L48.3,260.19L51.14,264.14L51.86,262.82L52.57,261.07L53.28,264.58L59.67,264.58L60.38,262.82L61.09,262.82L61.8,264.58L62.51,262.82L63.22,265.46L64.64,267.21L65.35,264.14L66.77,267.21L67.48,267.21L68.19,267.21L68.9,264.14L69.61,264.14L70.32,267.21L71.74,264.14L72.46,276.87L73.88,268.09L74.59,268.09L75.3,268.53L76.01,275.12L77.43,280.38L78.14,280.38L78.85,279.07L79.56,283.46L81.69,284.34L82.4,284.34L85.24,284.34L85.95,286.09L90.92,286.09L91.63,284.34L93.77,274.24L95.19,274.24L99.45,274.24L100.16,279.95L100.87,281.7L101.58,287.85L104.42,287.85L105.13,291.36L113.66,292.24L114.37,292.68L115.08,292.68L115.79,306.29L117.21,306.29L117.92,308.05L119.34,310.68L120.05,310.68L128.57,310.68L129.28,314.63L130.7,315.51L131.41,317.27L137.81,318.14L138.52,319.02L140.65,323.41L141.36,323.41L142.78,324.29" style="vector-effect: none; fill: none; stroke: rgb(255, 1, 170); stroke-opacity: 1; stroke-width: 5px; opacity: 1;"/></g><g class="points"/><g class="text"/></g><g class="trace scatter tracec34c85" style="stroke-miterlimit: 2; opacity: 1;"><g class="fills"/><g class="errorbars"/><g class="lines"><path class="js-line" d="M0,295.31L3.55,296.19L4.26,296.19L4.97,290.04L5.68,298.39L7.1,303.66L7.81,303.66L26.28,302.78L26.99,302.34L30.54,302.34L31.26,304.53L41.2,303.66L41.91,305.41L51.14,305.85L51.86,307.61L52.57,309.36L53.28,306.29L59.67,306.29L60.38,307.61L61.09,307.61L61.8,306.29L63.93,308.92L64.64,308.92L66.77,308.92L67.48,308.92L71.74,309.36L72.46,310.68L76.01,310.68L76.72,311.56L79.56,312.44L80.27,313.75L84.53,316.39L85.24,317.27L87.37,318.58L88.08,318.58L104.42,318.58L105.13,322.97L115.08,323.41L115.79,324.73L117.92,325.61" style="vector-effect: none; fill: none; stroke: rgb(202, 166, 105); stroke-opacity: 1; stroke-width: 5px; opacity: 1;"/></g><g class="points"/><g class="text"/></g><g class="trace scatter tracefefc04" style="stroke-miterlimit: 2; opacity: 1;"><g class="fills"/><g class="errorbars"/><g class="lines"><path class="js-line" d="M0,299.26L3.55,300.58L4.26,300.58L7.1,299.7L7.81,299.7L16.34,300.14L17.05,301.02L26.28,301.02L26.99,304.53L30.54,304.53L31.26,308.05L39.78,308.05L41.2,302.78L41.91,314.19L43.33,314.19L49.72,314.63L50.43,317.71L52.57,317.71L53.28,319.46L71.74,318.58L72.46,319.9L74.59,319.02L75.3,319.02L78.85,319.9L79.56,320.78L83.82,322.54L84.53,324.29L104.42,324.29" style="vector-effect: none; fill: none; stroke: rgb(255, 192, 203); stroke-opacity: 1; stroke-width: 5px; opacity: 1;"/></g><g class="points"/><g class="text"/></g><g class="trace scatter trace1f7b34" style="stroke-miterlimit: 2; opacity: 1;"><g class="fills"/><g class="errorbars"/><g class="lines"><path class="js-line" d="M0,283.9L2.84,285.65L3.55,285.65L4.26,285.65L4.97,283.9L5.68,284.34L6.39,286.53L12.79,286.97L13.5,288.29L15.63,289.17L16.34,289.17L30.54,288.29L31.26,294.87L39.78,294.87L41.2,292.24L41.91,297.95L43.33,297.95L48.3,298.39L49.01,299.26L49.72,299.26L50.43,304.09L51.14,304.09L51.86,301.46L52.57,298.83L53.28,306.29L59.67,306.29L60.38,302.78L61.09,302.78L61.8,306.29L62.51,302.78L63.22,305.85L64.64,305.85L65.35,302.34L66.77,305.85L67.48,305.85L68.19,305.85L68.9,302.34L69.61,302.34L70.32,305.85L71.74,302.34L72.46,302.78L73.88,299.7L74.59,299.7L75.3,300.14L76.01,304.53L77.43,306.73L78.14,306.73L81.69,310.68L82.4,310.68L83.82,311.56L84.53,313.32L87.37,316.39L88.08,316.39L115.08,316.39L115.79,324.73L117.92,325.61" style="vector-effect: none; fill: none; stroke: rgb(238, 58, 67); stroke-opacity: 1; stroke-width: 5px; opacity: 1;"/></g><g class="points"/><g class="text"/></g></g></g><g class="overplot"/><path class="xlines-above crisp" d="M0,0" style="fill: none;"/><path class="ylines-above crisp" d="M0,0" style="fill: none;"/><g class="overlines-above"/><g class="xaxislayer-above"><g class="xtick"><text text-anchor="middle" x="0" y="363" transform="translate(57.1,0)" style="font-family: 'Open Sans', verdana, arial, sans-serif; font-size: 12px; fill: rgb(42, 63, 95); fill-opacity: 1; white-space: pre; opacity: 1;">1.7.23</text></g><g class="xtick"><text text-anchor="middle" x="0" y="363" style="font-family: 'Open Sans', verdana, arial, sans-serif; font-size: 12px; fill: rgb(42, 63, 95); fill-opacity: 1; white-space: pre; opacity: 1;" transform="translate(101.14,0)">1.9.23</text></g><g class="xtick"><text text-anchor="middle" x="0" y="363" style="font-family: 'Open Sans', verdana, arial, sans-serif; font-size: 12px; fill: rgb(42, 63, 95); fill-opacity: 1; white-space: pre; opacity: 1;" transform="translate(144.48000000000002,0)">1.11.23</text></g><g class="xtick"><text text-anchor="middle" x="0" y="363" style="font-family: 'Open Sans', verdana, arial, sans-serif; font-size: 12px; fill: rgb(42, 63, 95); fill-opacity: 1; white-space: pre; opacity: 1;" transform="translate(187.81,0)">1.1.24</text></g><g class="xtick"><text text-anchor="middle" x="0" y="363" style="font-family: 'Open Sans', verdana, arial, sans-serif; font-size: 12px; fill: rgb(42, 63, 95); fill-opacity: 1; white-space: pre; opacity: 1;" transform="translate(230.43,0)">1.3.24</text></g></g><g class="yaxislayer-above"><g class="ytick"><text text-anchor="end" x="49" y="4.199999999999999" transform="translate(0,350)" style="font-family: 'Open Sans', verdana, arial, sans-serif; font-size: 12px; fill: rgb(42, 63, 95); fill-opacity: 1; white-space: pre; opacity: 1;">0%</text></g><g class="ytick"><text text-anchor="end" x="49" y="4.199999999999999" style="font-family: 'Open Sans', verdana, arial, sans-serif; font-size: 12px; fill: rgb(42, 63, 95); fill-opacity: 1; white-space: pre; opacity: 1;" transform="translate(0,306.09)">10%</text></g><g class="ytick"><text text-anchor="end" x="49" y="4.199999999999999" style="font-family: 'Open Sans', verdana, arial, sans-serif; font-size: 12px; fill: rgb(42, 63, 95); fill-opacity: 1; white-space: pre; opacity: 1;" transform="translate(0,262.18)">20%</text></g><g class="ytick"><text text-anchor="end" x="49" y="4.199999999999999" style="font-family: 'Open Sans', verdana, arial, sans-serif; font-size: 12px; fill: rgb(42, 63, 95); fill-opacity: 1; white-space: pre; opacity: 1;" transform="translate(0,218.28)">30%</text></g><g class="ytick"><text text-anchor="end" x="49" y="4.199999999999999" style="font-family: 'Open Sans', verdana, arial, sans-serif; font-size: 12px; fill: rgb(42, 63, 95); fill-opacity: 1; white-space: pre; opacity: 1;" transform="translate(0,174.37)">40%</text></g><g class="ytick"><text text-anchor="end" x="49" y="4.199999999999999" style="font-family: 'Open Sans', verdana, arial, sans-serif; font-size: 12px; fill: rgb(42, 63, 95); fill-opacity: 1; white-space: pre; opacity: 1;" transform="translate(0,130.45999999999998)">50%</text></g><g class="ytick"><text text-anchor="end" x="49" y="4.199999999999999" style="font-family: 'Open Sans', verdana, arial, sans-serif; font-size: 12px; fill: rgb(42, 63, 95); fill-opacity: 1; white-space: pre; opacity: 1;" transform="translate(0,86.55)">60%</text></g><g class="ytick"><text text-anchor="end" x="49" y="4.199999999999999" style="font-family: 'Open Sans', verdana, arial, sans-serif; font-size: 12px; fill: rgb(42, 63, 95); fill-opacity: 1; white-space: pre; opacity: 1;" transform="translate(0,42.65)">70%</text></g></g><g class="overaxes-above"/></g></g><g class="polarlayer"/><g class="smithlayer"/><g class="ternarylayer"/><g class="geolayer"/><g class="funnelarealayer"/><g class="pielayer"/><g class="iciclelayer"/><g class="treemaplayer"/><g class="sunburstlayer"/><g class="glimages"/><defs id="topdefs-009d9e"><g class="clips"/><clipPath id="legend009d9e"><rect width="128" height="124" x="0" y="0"/></clipPath></defs><g class="layer-above"><g class="imagelayer"/><g class="shapelayer"/></g><g class="infolayer"><g class="legend" pointer-events="all" transform="translate(260.12,20)"><rect class="bg" shape-rendering="crispEdges" width="128" height="124" x="0" y="0" style="stroke: rgb(68, 68, 68); stroke-opacity: 1; fill: rgb(255, 255, 255); fill-opacity: 1; stroke-width: 0px;"/><g class="scrollbox" transform="" clip-path="url(#legend009d9e)"><g class="groups"><g class="traces" transform="translate(0,14.5)" style="opacity: 1;"><text class="legendtext" text-anchor="start" x="40" y="4.680000000000001" style="font-family: 'Open Sans', verdana, arial, sans-serif; font-size: 12px; fill: rgb(42, 63, 95); fill-opacity: 1; white-space: pre;">Korčok Ivan</text><g class="layers" style="opacity: 1;"><g class="legendfill"/><g class="legendlines"><path class="js-line" d="M5,0h30" style="fill: none; stroke: rgb(0, 174, 239); stroke-opacity: 1; stroke-width: 5px;"/></g><g class="legendsymbols"><g class="legendpoints"/></g></g><rect class="legendtoggle" x="0" y="-9.5" width="122.703125" height="19" style="fill: rgb(0, 0, 0); fill-opacity: 0;"/></g><g class="traces" transform="translate(0,33.5)" style="opacity: 1;"><text class="legendtext" text-anchor="start" x="40" y="4.680000000000001" style="font-family: 'Open Sans', verdana, arial, sans-serif; font-size: 12px; fill: rgb(42, 63, 95); fill-opacity: 1; white-space: pre;">Pellegrini Peter</text><g class="layers" style="opacity: 1;"><g class="legendfill"/><g class="legendlines"><path class="js-line" d="M5,0h30" style="fill: none; stroke: rgb(138, 44, 81); stroke-opacity: 1; stroke-width: 5px;"/></g><g class="legendsymbols"><g class="legendpoints"/></g></g><rect class="legendtoggle" x="0" y="-9.5" width="122.703125" height="19" style="fill: rgb(0, 0, 0); fill-opacity: 0;"/></g><g class="traces" transform="translate(0,52.5)" style="opacity: 1;"><text class="legendtext" text-anchor="start" x="40" y="4.680000000000001" style="font-family: 'Open Sans', verdana, arial, sans-serif; font-size: 12px; fill: rgb(42, 63, 95); fill-opacity: 1; white-space: pre;">Kubiš Ján</text><g class="layers" style="opacity: 1;"><g class="legendfill"/><g class="legendlines"><path class="js-line" d="M5,0h30" style="fill: none; stroke: rgb(255, 1, 170); stroke-opacity: 1; stroke-width: 5px;"/></g><g class="legendsymbols"><g class="legendpoints"/></g></g><rect class="legendtoggle" x="0" y="-9.5" width="122.703125" height="19" style="fill: rgb(0, 0, 0); fill-opacity: 0;"/></g><g class="traces" transform="translate(0,71.5)" style="opacity: 1;"><text class="legendtext" text-anchor="start" x="40" y="4.680000000000001" style="font-family: 'Open Sans', verdana, arial, sans-serif; font-size: 12px; fill: rgb(42, 63, 95); fill-opacity: 1; white-space: pre;">Mistrík Robert</text><g class="layers" style="opacity: 1;"><g class="legendfill"/><g class="legendlines"><path class="js-line" d="M5,0h30" style="fill: none; stroke: rgb(202, 166, 105); stroke-opacity: 1; stroke-width: 5px;"/></g><g class="legendsymbols"><g class="legendpoints"/></g></g><rect class="legendtoggle" x="0" y="-9.5" width="122.703125" height="19" style="fill: rgb(0, 0, 0); fill-opacity: 0;"/></g><g class="traces" transform="translate(0,90.5)" style="opacity: 1;"><text class="legendtext" text-anchor="start" x="40" y="4.680000000000001" style="font-family: 'Open Sans', verdana, arial, sans-serif; font-size: 12px; fill: rgb(42, 63, 95); fill-opacity: 1; white-space: pre;">Lajčák Miroslav</text><g class="layers" style="opacity: 1;"><g class="legendfill"/><g class="legendlines"><path class="js-line" d="M5,0h30" style="fill: none; stroke: rgb(255, 192, 203); stroke-opacity: 1; stroke-width: 5px;"/></g><g class="legendsymbols"><g class="legendpoints"/></g></g><rect class="legendtoggle" x="0" y="-9.5" width="122.703125" height="19" style="fill: rgb(0, 0, 0); fill-opacity: 0;"/></g><g class="traces" transform="translate(0,109.5)" style="opacity: 1;"><text class="legendtext" text-anchor="start" x="40" y="4.680000000000001" style="font-family: 'Open Sans', verdana, arial, sans-serif; font-size: 12px; fill: rgb(42, 63, 95); fill-opacity: 1; white-space: pre;">Fico Robert</text><g class="layers" style="opacity: 1;"><g class="legendfill"/><g class="legendlines"><path class="js-line" d="M5,0h30" style="fill: none; stroke: rgb(238, 58, 67); stroke-opacity: 1; stroke-width: 5px;"/></g><g class="legendsymbols"><g class="legendpoints"/></g></g><rect class="legendtoggle" x="0" y="-9.5" width="122.703125" height="19" style="fill: rgb(0, 0, 0); fill-opacity: 0;"/></g></g></g><rect class="scrollbar" rx="20" ry="3" width="0" height="0" x="0" y="0" style="fill: rgb(128, 139, 164); fill-opacity: 1;"/></g><g class="g-gtitle"/><g class="g-xtitle"/><g class="g-ytitle"/></g></svg>