<svg class="main-svg" xmlns="http://www.w3.org/2000/svg" xmlns:xlink="http://www.w3.org/1999/xlink" width="300" height="135" style="" viewBox="0 0 300 135"><rect x="0" y="0" width="300" height="135" style="fill: rgb(255, 255, 255); fill-opacity: 1;"/><defs id="defs-b8fac6"><g class="clips"><clipPath id="clipb8fac6xyplot" class="plotclip"><rect width="280" height="75"/></clipPath><clipPath class="axesclip" id="clipb8fac6x"><rect x="10" y="0" width="280" height="135"/></clipPath><clipPath class="axesclip" id="clipb8fac6y"><rect x="0" y="50" width="300" height="75"/></clipPath><clipPath class="axesclip" id="clipb8fac6xy"><rect x="10" y="50" width="280" height="75"/></clipPath></g><g class="gradients"/><g class="patterns"/></defs><g class="bglayer"/><g class="layer-below"><g class="imagelayer"/><g class="shapelayer"/></g><g class="cartesianlayer"><g class="subplot xy"><g class="layer-subplot"><g class="shapelayer"/><g class="imagelayer"/></g><g class="minor-gridlayer"><g class="x"/><g class="y"/></g><g class="gridlayer"><g class="x"><path class="xgrid crisp" transform="translate(21.72,0)" d="M0,50v75" style="stroke: rgb(235, 240, 248); stroke-opacity: 1; stroke-width: 1px;"/><path class="xgrid crisp" transform="translate(94.35,0)" d="M0,50v75" style="stroke: rgb(235, 240, 248); stroke-opacity: 1; stroke-width: 1px;"/><path class="xgrid crisp" transform="translate(165.82,0)" d="M0,50v75" style="stroke: rgb(235, 240, 248); stroke-opacity: 1; stroke-width: 1px;"/><path class="xgrid crisp" transform="translate(237.28,0)" d="M0,50v75" style="stroke: rgb(235, 240, 248); stroke-opacity: 1; stroke-width: 1px;"/></g><g class="y"><path class="ygrid crisp" transform="translate(0,102.77000000000001)" d="M10,0h280" style="stroke: rgb(235, 240, 248); stroke-opacity: 1; stroke-width: 1px;"/><path class="ygrid crisp" transform="translate(0,80.53999999999999)" d="M10,0h280" style="stroke: rgb(235, 240, 248); stroke-opacity: 1; stroke-width: 1px;"/><path class="ygrid crisp" transform="translate(0,58.31)" d="M10,0h280" style="stroke: rgb(235, 240, 248); stroke-opacity: 1; stroke-width: 1px;"/></g></g><g class="zerolinelayer"><path class="yzl zl crisp" transform="translate(0,125)" d="M10,0h280" style="stroke: rgb(235, 240, 248); stroke-opacity: 1; stroke-width: 2px;"/></g><path class="xlines-below"/><path class="ylines-below"/><g class="overlines-below"/><g class="xaxislayer-below"/><g class="yaxislayer-below"/><g class="overaxes-below"/><g class="plot" transform="translate(10,50)" clip-path="url(#clipb8fac6xyplot)"><g class="scatterlayer mlayer"><g class="trace scatter tracec4d2ac" style="stroke-miterlimit: 2; opacity: 1;"><g class="fills"/><g class="errorbars"/><g class="lines"><path class="js-line" d="M275.31,21.65L280,21.42" style="vector-effect: none; fill: none; stroke: rgb(187, 187, 187); stroke-opacity: 1; stroke-width: 5px; opacity: 1;"/></g><g class="points"/><g class="text"/></g><g class="trace scatter traceb91629" style="stroke-miterlimit: 2; opacity: 1;"><g class="fills"/><g class="errorbars"/><g class="lines"><path class="js-line" d="M0,51.77L3.51,48.88L4.69,48.88L9.37,49.1L10.54,48.32L26.95,47.43L28.12,46.77L50.38,45.99L51.55,41.32L65.61,41.32L67.95,44.54L71.46,43.88L72.64,43.88L80.84,43.65L82.01,46.1L84.35,47.32L85.52,46.88L86.69,46.43L87.87,47.43L118.33,46.77L119.5,44.54L121.84,45.43L123.01,45.43L124.18,45.21L125.36,41.54L127.7,39.32L128.87,39.32L130.04,38.76L131.21,35.1L133.56,32.98L134.73,32.98L138.24,32.32L139.41,31.32L142.93,28.87L144.1,28.87L153.47,29.2L154.64,30.32L164.02,30.32L165.19,28.76L166.36,28.76L167.53,26.09L172.22,26.09L173.39,23.09L180.42,23.09L181.59,21.31L188.62,18.42L189.79,18.42L192.13,14.64L193.31,14.64L194.48,12.75L195.65,8.2L206.19,8.2L207.36,9.86L209.71,10.64L210.88,10.64L213.22,12.86L214.39,13.53L220.25,12.31L221.42,12.31L228.45,12.42L229.62,8.75L231.97,5.08L233.14,4.97L236.65,5.86L237.82,3.75L241.34,4.75L242.51,5.64L244.85,6.75L246.03,10.53L247.2,11.86L248.37,10.53L250.71,10.64L251.88,8.86L254.23,8.97L255.4,9.09L257.74,8.64L258.91,7.75L262.43,4.64L263.6,4.64L267.11,6.64L268.28,5.75L270.63,6.42L271.8,8.64L274.14,14.87L275.31,43.65L280,44.43" style="vector-effect: none; fill: none; stroke: rgb(138, 44, 81); stroke-opacity: 1; stroke-width: 5px; opacity: 1;"/></g><g class="points"/><g class="text"/></g><g class="trace scatter tracea2e292" style="stroke-miterlimit: 2; opacity: 1;"><g class="fills"/><g class="errorbars"/><g class="lines"><path class="js-line" d="M0,26.54L4.69,28.09L5.86,28.09L9.37,27.87L10.54,27.2L67.95,28.2L69.12,31.32L80.84,30.32L82.01,27.76L84.35,23.98L85.52,24.98L86.69,25.98L87.87,22.65L98.41,22.65L99.58,24.31L100.75,24.31L101.92,22.65L103.1,24.31L104.27,22.31L106.61,21.87L107.78,23.98L110.13,21.87L111.3,21.87L112.47,21.87L113.64,23.98L114.81,23.98L115.98,21.87L118.33,23.98L119.5,21.98L121.84,24.54L123.01,24.54L130.04,25.76L131.21,27.65L134.73,28.43L135.9,28.43L151.13,29.2L152.3,29.87L180.42,30.87L181.59,32.65L189.79,34.98L190.96,32.87L194.48,33.98L195.65,35.43L206.19,35.43L207.36,33.87L209.71,32.98L210.88,32.98L212.05,32.54L213.22,29.98L215.56,29.43L216.74,29.76L228.45,29.2L229.62,32.09L231.97,35.43L233.14,35.54L235.48,33.76L236.65,32.98L239,35.1L240.17,34.54L244.85,32.09L246.03,28.32L247.2,26.98L248.37,28.32L250.71,28.2L251.88,29.98L254.23,29.87L255.4,29.76L257.74,30.2L258.91,31.09L262.43,34.21L263.6,34.21L267.11,32.21L268.28,33.09L270.63,32.43L271.8,30.2L274.14,23.98L275.31,48.66L280,47.88" style="vector-effect: none; fill: none; stroke: rgb(0, 174, 239); stroke-opacity: 1; stroke-width: 5px; opacity: 1;"/></g><g class="points"/><g class="text"/></g><g class="trace scatter tracebbe850" style="stroke-miterlimit: 2; opacity: 1;"><g class="fills"/><g class="errorbars"/><g class="lines"><path class="js-line" d="M0,66.22L7.03,66.44L8.2,64.88L10.54,68.33L11.72,68.33L84.35,68.89L85.52,69.33L87.87,69L89.04,69L125.36,70.11L126.53,70.33L139.41,71.55L140.59,71.78L145.27,72.11L146.44,72.11L189.79,73.33L190.96,73.67L194.48,73.89" style="vector-effect: none; fill: none; stroke: rgb(202, 166, 105); stroke-opacity: 1; stroke-width: 5px; opacity: 1;"/></g><g class="points"/><g class="text"/></g><g class="trace scatter trace12ab26" style="stroke-miterlimit: 2; opacity: 1;"><g class="fills"/><g class="errorbars"/><g class="lines"><path class="js-line" d="M0,67.22L12.89,67.33L14.06,67.33L50.38,68.55L51.55,69.44L65.61,69.44L67.95,68.11L69.12,71L71.46,71L86.69,71.89L87.87,72.33L138.24,73.11L139.41,73.55L172.22,73.55" style="vector-effect: none; fill: none; stroke: rgb(255, 192, 203); stroke-opacity: 1; stroke-width: 5px; opacity: 1;"/></g><g class="points"/><g class="text"/></g></g></g><g class="overplot"/><path class="xlines-above crisp" d="M0,0" style="fill: none;"/><path class="ylines-above crisp" d="M0,0" style="fill: none;"/><g class="overlines-above"/><g class="xaxislayer-above"/><g class="yaxislayer-above"/><g class="overaxes-above"/></g></g><g class="polarlayer"/><g class="smithlayer"/><g class="ternarylayer"/><g class="geolayer"/><g class="funnelarealayer"/><g class="pielayer"/><g class="iciclelayer"/><g class="treemaplayer"/><g class="sunburstlayer"/><g class="glimages"/><defs id="topdefs-b8fac6"><g class="clips"/></defs><g class="layer-above"><g class="imagelayer"/><g class="shapelayer"/></g><g class="infolayer"><g class="g-gtitle"><text class="gtitle" x="15" y="25" text-anchor="start" dy="0em" style="font-family: Ubuntu, verdana, arial, sans-serif; font-size: 16px; fill: rgb(233, 84, 32); opacity: 1; font-weight: normal; white-space: pre;">Prezident/ka 2024</text></g><g class="g-xtitle"/><g class="g-ytitle"/></g></svg>