<svg class="main-svg" xmlns="http://www.w3.org/2000/svg" xmlns:xlink="http://www.w3.org/1999/xlink" width="300" height="135" style="" viewBox="0 0 300 135"><rect x="0" y="0" width="300" height="135" style="fill: rgb(255, 255, 255); fill-opacity: 1;"/><defs id="defs-0601dc"><g class="clips"><clipPath id="clip0601dcxyplot" class="plotclip"><rect width="280" height="75"/></clipPath><clipPath class="axesclip" id="clip0601dcx"><rect x="10" y="0" width="280" height="135"/></clipPath><clipPath class="axesclip" id="clip0601dcy"><rect x="0" y="50" width="300" height="75"/></clipPath><clipPath class="axesclip" id="clip0601dcxy"><rect x="10" y="50" width="280" height="75"/></clipPath></g><g class="gradients"/><g class="patterns"/></defs><g class="bglayer"/><g class="layer-below"><g class="imagelayer"/><g class="shapelayer"/></g><g class="cartesianlayer"><g class="subplot xy"><g class="layer-subplot"><g class="shapelayer"/><g class="imagelayer"/></g><g class="minor-gridlayer"><g class="x"/><g class="y"/></g><g class="gridlayer"><g class="x"><path class="xgrid crisp" transform="translate(29.31,0)" d="M0,50v75" style="stroke: rgb(235, 240, 248); stroke-opacity: 1; stroke-width: 1px;"/><path class="xgrid crisp" transform="translate(89.17,0)" d="M0,50v75" style="stroke: rgb(235, 240, 248); stroke-opacity: 1; stroke-width: 1px;"/><path class="xgrid crisp" transform="translate(149.03,0)" d="M0,50v75" style="stroke: rgb(235, 240, 248); stroke-opacity: 1; stroke-width: 1px;"/><path class="xgrid crisp" transform="translate(206.97,0)" d="M0,50v75" style="stroke: rgb(235, 240, 248); stroke-opacity: 1; stroke-width: 1px;"/><path class="xgrid crisp" transform="translate(266.83,0)" d="M0,50v75" style="stroke: rgb(235, 240, 248); stroke-opacity: 1; stroke-width: 1px;"/></g><g class="y"><path class="ygrid crisp" transform="translate(0,109.38)" d="M10,0h280" style="stroke: rgb(235, 240, 248); stroke-opacity: 1; stroke-width: 1px;"/><path class="ygrid crisp" transform="translate(0,93.75)" d="M10,0h280" style="stroke: rgb(235, 240, 248); stroke-opacity: 1; stroke-width: 1px;"/><path class="ygrid crisp" transform="translate(0,78.13)" d="M10,0h280" style="stroke: rgb(235, 240, 248); stroke-opacity: 1; stroke-width: 1px;"/><path class="ygrid crisp" transform="translate(0,62.5)" d="M10,0h280" style="stroke: rgb(235, 240, 248); stroke-opacity: 1; stroke-width: 1px;"/></g></g><g class="zerolinelayer"><path class="yzl zl crisp" transform="translate(0,125)" d="M10,0h280" style="stroke: rgb(235, 240, 248); stroke-opacity: 1; stroke-width: 2px;"/></g><path class="xlines-below"/><path class="ylines-below"/><g class="overlines-below"/><g class="xaxislayer-below"/><g class="yaxislayer-below"/><g class="overaxes-below"/><g class="plot" transform="translate(10,50)" clip-path="url(#clip0601dcxyplot)"><g class="scatterlayer mlayer"><g class="trace scatter trace12258d" style="stroke-miterlimit: 2; opacity: 1;"><g class="fills"/><g class="errorbars"/><g class="lines"><path class="js-line" d="M0,43.44L3.86,39.38L5.79,39.38L15.45,39.53L17.38,38.75L44.41,37.66L46.34,36.88L83.03,35.78L84.97,29.69L108.14,29.69L112,33.75L113.93,32.97L117.79,32.97L133.24,32.66L135.17,35.94L139.03,37.34L140.97,36.88L142.9,36.25L144.83,37.66L195.03,36.88L196.97,34.06L200.83,35L202.76,35L204.69,34.69L206.62,29.69L208.55,26.72L210.48,26.72L214.34,25.78L216.28,20.63L220.14,17.66L222.07,17.66L227.86,16.72L229.79,15L235.59,11.41L237.52,11.41L252.97,11.87L254.9,13.44L270.34,13.44L272.28,11.25L274.21,11.25L276.14,7.5L280,7.5" style="vector-effect: none; fill: none; stroke: rgb(138, 44, 81); stroke-opacity: 1; stroke-width: 5px; opacity: 1;"/></g><g class="points"/><g class="text"/></g><g class="trace scatter trace0ae35a" style="stroke-miterlimit: 2; opacity: 1;"><g class="fills"/><g class="errorbars"/><g class="lines"><path class="js-line" d="M0,9.06L5.79,11.25L7.72,11.25L15.45,10.63L17.38,10.16L44.41,10.94L46.34,11.56L112,11.56L113.93,15.94L131.31,15.16L133.24,14.53L137.1,5.78L139.03,5.78L142.9,8.44L144.83,3.91L162.21,3.91L164.14,6.25L166.07,6.25L168,3.91L169.93,6.25L171.86,3.75L175.72,3.75L177.66,6.09L179.59,3.75L181.52,3.75L185.38,3.75L187.31,6.09L189.24,6.09L191.17,3.75L193.1,6.09L195.03,6.09L196.97,3.75L198.9,6.72L212.41,7.66L214.34,8.13L218.21,11.41L220.14,11.41L249.1,11.72L251.03,12.66L274.21,12.97L276.14,14.53L280,14.53" style="vector-effect: none; fill: none; stroke: rgb(0, 174, 239); stroke-opacity: 1; stroke-width: 5px; opacity: 1;"/></g><g class="points"/><g class="text"/></g><g class="trace scatter trace382fb7" style="stroke-miterlimit: 2; opacity: 1;"><g class="fills"/><g class="errorbars"/><g class="lines"><path class="js-line" d="M0,59.69L13.52,61.09L15.45,60.31L19.31,59.53L21.24,59.53L83.03,59.84L84.97,61.72L108.14,61.72L112,60.31L113.93,50.78L117.79,50.78L135.17,51.56L137.1,52.34L169.93,51.88L171.86,52.97L175.72,53.59L177.66,52.5L181.52,53.59L183.45,53.59L195.03,52.5L196.97,57.03L198.9,53.75L200.83,53.75L204.69,53.91L206.62,56.25L208.55,57.97L210.48,57.97L214.34,57.5L216.28,58.91L225.93,59.22L227.86,59.06L237.52,59.53L239.45,59.53L249.1,59.06L251.03,57.81L252.97,57.81L254.9,55.47L270.34,55.47L272.28,57.5L274.21,58.13L276.14,60.31L280,60.31" style="vector-effect: none; fill: none; stroke: rgb(255, 1, 170); stroke-opacity: 1; stroke-width: 5px; opacity: 1;"/></g><g class="points"/><g class="text"/></g><g class="trace scatter traced8adf2" style="stroke-miterlimit: 2; opacity: 1;"><g class="fills"/><g class="errorbars"/><g class="lines"><path class="js-line" d="M0,59.22L11.59,59.69L13.52,58.91L25.1,60L27.03,60L40.55,60.94L42.48,60.94L83.03,60.78L84.97,63.13L112,62.03L113.93,64.06L135.17,64.38L137.1,66.09L140.97,65.16L142.9,64.38L144.83,66.88L146.76,66.88L196.97,65.78L198.9,64.53L204.69,64.69L206.62,66.25L210.48,67.03L212.41,67.03L231.72,69.38L233.66,70.16L280,70.31" style="vector-effect: none; fill: none; stroke: rgb(238, 58, 67); stroke-opacity: 1; stroke-width: 5px; opacity: 1;"/></g><g class="points"/><g class="text"/></g><g class="trace scatter tracef0a28d" style="stroke-miterlimit: 2; opacity: 1;"><g class="fills"/><g class="errorbars"/><g class="lines"><path class="js-line" d="M0,62.97L11.59,63.44L13.52,61.09L17.38,65.94L19.31,65.94L131.31,66.72L133.24,66.88L195.03,67.81L196.97,68.44L208.55,68.59L210.48,68.59L227.86,69.84L229.79,70.31L247.17,71.09L249.1,71.09L280,71.09" style="vector-effect: none; fill: none; stroke: rgb(202, 166, 105); stroke-opacity: 1; stroke-width: 5px; opacity: 1;"/></g><g class="points"/><g class="text"/></g></g></g><g class="overplot"/><path class="xlines-above crisp" d="M0,0" style="fill: none;"/><path class="ylines-above crisp" d="M0,0" style="fill: none;"/><g class="overlines-above"/><g class="xaxislayer-above"/><g class="yaxislayer-above"/><g class="overaxes-above"/></g></g><g class="polarlayer"/><g class="smithlayer"/><g class="ternarylayer"/><g class="geolayer"/><g class="funnelarealayer"/><g class="pielayer"/><g class="iciclelayer"/><g class="treemaplayer"/><g class="sunburstlayer"/><g class="glimages"/><defs id="topdefs-0601dc"><g class="clips"/></defs><g class="layer-above"><g class="imagelayer"/><g class="shapelayer"/></g><g class="infolayer"><g class="g-gtitle"><text class="gtitle" x="15" y="25" text-anchor="start" dy="0em" style="font-family: Ubuntu, verdana, arial, sans-serif; font-size: 16px; fill: rgb(233, 84, 32); opacity: 1; font-weight: normal; white-space: pre;">Prezident/ka 2024</text></g><g class="g-xtitle"/><g class="g-ytitle"/></g></svg>