<svg class="main-svg" xmlns="http://www.w3.org/2000/svg" xmlns:xlink="http://www.w3.org/1999/xlink" width="300" height="135" style="" viewBox="0 0 300 135"><rect x="0" y="0" width="300" height="135" style="fill: rgb(255, 255, 255); fill-opacity: 1;"/><defs id="defs-d003e1"><g class="clips"><clipPath id="clipd003e1xyplot" class="plotclip"><rect width="280" height="75"/></clipPath><clipPath class="axesclip" id="clipd003e1x"><rect x="10" y="0" width="280" height="135"/></clipPath><clipPath class="axesclip" id="clipd003e1y"><rect x="0" y="50" width="300" height="75"/></clipPath><clipPath class="axesclip" id="clipd003e1xy"><rect x="10" y="50" width="280" height="75"/></clipPath></g><g class="gradients"/><g class="patterns"/></defs><g class="bglayer"/><g class="layer-below"><g class="imagelayer"/><g class="shapelayer"/></g><g class="cartesianlayer"><g class="subplot xy"><g class="layer-subplot"><g class="shapelayer"/><g class="imagelayer"/></g><g class="minor-gridlayer"><g class="x"/><g class="y"/></g><g class="gridlayer"><g class="x"><path class="xgrid crisp" transform="translate(21.34,0)" d="M0,50v75" style="stroke: rgb(235, 240, 248); stroke-opacity: 1; stroke-width: 1px;"/><path class="xgrid crisp" transform="translate(91.62,0)" d="M0,50v75" style="stroke: rgb(235, 240, 248); stroke-opacity: 1; stroke-width: 1px;"/><path class="xgrid crisp" transform="translate(160.77,0)" d="M0,50v75" style="stroke: rgb(235, 240, 248); stroke-opacity: 1; stroke-width: 1px;"/><path class="xgrid crisp" transform="translate(229.92,0)" d="M0,50v75" style="stroke: rgb(235, 240, 248); stroke-opacity: 1; stroke-width: 1px;"/></g><g class="y"><path class="ygrid crisp" transform="translate(0,102.77000000000001)" d="M10,0h280" style="stroke: rgb(235, 240, 248); stroke-opacity: 1; stroke-width: 1px;"/><path class="ygrid crisp" transform="translate(0,80.53999999999999)" d="M10,0h280" style="stroke: rgb(235, 240, 248); stroke-opacity: 1; stroke-width: 1px;"/><path class="ygrid crisp" transform="translate(0,58.31)" d="M10,0h280" style="stroke: rgb(235, 240, 248); stroke-opacity: 1; stroke-width: 1px;"/></g></g><g class="zerolinelayer"><path class="yzl zl crisp" transform="translate(0,125)" d="M10,0h280" style="stroke: rgb(235, 240, 248); stroke-opacity: 1; stroke-width: 2px;"/></g><path class="xlines-below"/><path class="ylines-below"/><g class="overlines-below"/><g class="xaxislayer-below"/><g class="yaxislayer-below"/><g class="overaxes-below"/><g class="plot" transform="translate(10,50)" clip-path="url(#clipd003e1xyplot)"><g class="scatterlayer mlayer"><g class="trace scatter tracede860d" style="stroke-miterlimit: 2; opacity: 1;"><g class="fills"/><g class="errorbars"/><g class="lines"><path class="js-line" d="M266.4,21.65L280,21.42" style="vector-effect: none; fill: none; stroke: rgb(187, 187, 187); stroke-opacity: 1; stroke-width: 5px; opacity: 1;"/></g><g class="points"/><g class="text"/></g><g class="trace scatter traced3208d" style="stroke-miterlimit: 2; opacity: 1;"><g class="fills"/><g class="errorbars"/><g class="lines"><path class="js-line" d="M0,51.77L3.4,48.88L4.53,48.88L9.07,49.1L10.2,48.32L26.07,47.43L27.21,46.77L48.74,45.99L49.88,41.32L63.48,41.32L65.75,44.54L69.15,43.88L70.28,43.88L78.22,43.65L79.35,46.1L81.62,47.32L82.75,46.88L83.89,46.43L85.02,47.43L114.49,46.77L115.63,44.54L117.89,45.43L119.03,45.43L120.16,45.21L121.3,41.54L123.56,39.32L124.7,39.32L125.83,38.76L126.96,35.1L129.23,32.98L130.36,32.98L133.77,32.32L134.9,31.32L138.3,28.87L139.43,28.87L148.5,29.2L149.64,30.32L158.7,30.32L159.84,28.76L160.97,28.76L162.11,26.09L166.64,26.09L167.77,23.09L174.57,23.09L175.71,21.31L182.51,18.42L183.64,18.42L185.91,14.64L187.04,14.64L188.18,12.75L189.31,8.2L199.51,8.2L200.65,9.86L202.91,10.64L204.05,10.64L206.32,12.86L207.45,13.53L213.12,12.31L214.25,12.31L221.05,12.42L222.19,8.75L224.45,5.08L225.59,4.97L228.99,5.86L230.12,3.75L233.52,4.75L234.66,5.64L236.92,6.75L238.06,10.53L239.19,11.86L240.32,10.53L242.59,10.64L243.72,8.86L245.99,8.97L247.13,9.09L249.39,8.64L250.53,7.75L253.93,4.64L255.06,4.64L258.46,6.64L259.6,5.75L261.86,6.42L263,8.64L265.26,14.87L266.4,43.65L277.73,43.88L278.87,42.21L280,41.54" style="vector-effect: none; fill: none; stroke: rgb(138, 44, 81); stroke-opacity: 1; stroke-width: 5px; opacity: 1;"/></g><g class="points"/><g class="text"/></g><g class="trace scatter trace106b23" style="stroke-miterlimit: 2; opacity: 1;"><g class="fills"/><g class="errorbars"/><g class="lines"><path class="js-line" d="M0,26.54L4.53,28.09L5.67,28.09L9.07,27.87L10.2,27.2L65.75,28.2L66.88,31.32L78.22,30.32L79.35,27.76L81.62,23.98L82.75,24.98L83.89,25.98L85.02,22.65L95.22,22.65L96.36,24.31L97.49,24.31L98.62,22.65L99.76,24.31L100.89,22.31L103.16,21.87L104.29,23.98L106.56,21.87L107.69,21.87L108.83,21.87L109.96,23.98L111.09,23.98L112.23,21.87L114.49,23.98L115.63,21.98L117.89,24.54L119.03,24.54L125.83,25.76L126.96,27.65L130.36,28.43L131.5,28.43L146.23,29.2L147.37,29.87L174.57,30.87L175.71,32.65L183.64,34.98L184.78,32.87L188.18,33.98L189.31,35.43L199.51,35.43L200.65,33.87L202.91,32.98L204.05,32.98L205.18,32.54L206.32,29.98L208.58,29.43L209.72,29.76L221.05,29.2L222.19,32.09L224.45,35.43L225.59,35.54L227.85,33.76L228.99,32.98L231.26,35.1L232.39,34.54L236.92,32.09L238.06,28.32L239.19,26.98L240.32,28.32L242.59,28.2L243.72,29.98L245.99,29.87L247.13,29.76L249.39,30.2L250.53,31.09L253.93,34.21L255.06,34.21L258.46,32.21L259.6,33.09L261.86,32.43L263,30.2L265.26,23.98L266.4,48.66L277.73,48.43L278.87,50.21L280,50.88" style="vector-effect: none; fill: none; stroke: rgb(0, 174, 239); stroke-opacity: 1; stroke-width: 5px; opacity: 1;"/></g><g class="points"/><g class="text"/></g><g class="trace scatter trace7ddc4f" style="stroke-miterlimit: 2; opacity: 1;"><g class="fills"/><g class="errorbars"/><g class="lines"><path class="js-line" d="M0,67.22L12.47,67.33L13.6,67.33L48.74,68.55L49.88,69.44L63.48,69.44L65.75,68.11L66.88,71L69.15,71L83.89,71.89L85.02,72.33L133.77,73.11L134.9,73.55L166.64,73.55" style="vector-effect: none; fill: none; stroke: rgb(255, 192, 203); stroke-opacity: 1; stroke-width: 5px; opacity: 1;"/></g><g class="points"/><g class="text"/></g><g class="trace scatter tracebb3cf4" style="stroke-miterlimit: 2; opacity: 1;"><g class="fills"/><g class="errorbars"/><g class="lines"><path class="js-line" d="M0,66.22L6.8,66.44L7.94,64.88L10.2,68.33L11.34,68.33L81.62,68.89L82.75,69.33L85.02,69L86.15,69L121.3,70.11L122.43,70.33L134.9,71.55L136.03,71.78L140.57,72.11L141.7,72.11L183.64,73.33L184.78,73.67L188.18,73.89" style="vector-effect: none; fill: none; stroke: rgb(202, 166, 105); stroke-opacity: 1; stroke-width: 5px; opacity: 1;"/></g><g class="points"/><g class="text"/></g></g></g><g class="overplot"/><path class="xlines-above crisp" d="M0,0" style="fill: none;"/><path class="ylines-above crisp" d="M0,0" style="fill: none;"/><g class="overlines-above"/><g class="xaxislayer-above"/><g class="yaxislayer-above"/><g class="overaxes-above"/></g></g><g class="polarlayer"/><g class="smithlayer"/><g class="ternarylayer"/><g class="geolayer"/><g class="funnelarealayer"/><g class="pielayer"/><g class="iciclelayer"/><g class="treemaplayer"/><g class="sunburstlayer"/><g class="glimages"/><defs id="topdefs-d003e1"><g class="clips"/></defs><g class="layer-above"><g class="imagelayer"/><g class="shapelayer"/></g><g class="infolayer"><g class="g-gtitle"><text class="gtitle" x="15" y="25" text-anchor="start" dy="0em" style="font-family: Ubuntu, verdana, arial, sans-serif; font-size: 16px; fill: rgb(233, 84, 32); opacity: 1; font-weight: normal; white-space: pre;">Prezident/ka 2024</text></g><g class="g-xtitle"/><g class="g-ytitle"/></g></svg>