<svg class="main-svg" xmlns="http://www.w3.org/2000/svg" xmlns:xlink="http://www.w3.org/1999/xlink" width="300" height="135" style="" viewBox="0 0 300 135"><rect x="0" y="0" width="300" height="135" style="fill: rgb(255, 255, 255); fill-opacity: 1;"/><defs id="defs-f5dead"><g class="clips"><clipPath id="clipf5deadxyplot" class="plotclip"><rect width="280" height="75"/></clipPath><clipPath class="axesclip" id="clipf5deadx"><rect x="10" y="0" width="280" height="135"/></clipPath><clipPath class="axesclip" id="clipf5deady"><rect x="0" y="50" width="300" height="75"/></clipPath><clipPath class="axesclip" id="clipf5deadxy"><rect x="10" y="50" width="280" height="75"/></clipPath></g><g class="gradients"/><g class="patterns"/></defs><g class="bglayer"/><g class="layer-below"><g class="imagelayer"/><g class="shapelayer"/></g><g class="cartesianlayer"><g class="subplot xy"><g class="layer-subplot"><g class="shapelayer"/><g class="imagelayer"/></g><g class="minor-gridlayer"><g class="x"/><g class="y"/></g><g class="gridlayer"><g class="x"><path class="xgrid crisp" transform="translate(19.86,0)" d="M0,50v75" style="stroke: rgb(235, 240, 248); stroke-opacity: 1; stroke-width: 1px;"/><path class="xgrid crisp" transform="translate(80.99,0)" d="M0,50v75" style="stroke: rgb(235, 240, 248); stroke-opacity: 1; stroke-width: 1px;"/><path class="xgrid crisp" transform="translate(141.13,0)" d="M0,50v75" style="stroke: rgb(235, 240, 248); stroke-opacity: 1; stroke-width: 1px;"/><path class="xgrid crisp" transform="translate(201.27,0)" d="M0,50v75" style="stroke: rgb(235, 240, 248); stroke-opacity: 1; stroke-width: 1px;"/><path class="xgrid crisp" transform="translate(260.41999999999996,0)" d="M0,50v75" style="stroke: rgb(235, 240, 248); stroke-opacity: 1; stroke-width: 1px;"/></g><g class="y"><path class="ygrid crisp" transform="translate(0,105.03999999999999)" d="M10,0h280" style="stroke: rgb(235, 240, 248); stroke-opacity: 1; stroke-width: 1px;"/><path class="ygrid crisp" transform="translate(0,85.08)" d="M10,0h280" style="stroke: rgb(235, 240, 248); stroke-opacity: 1; stroke-width: 1px;"/><path class="ygrid crisp" transform="translate(0,65.13)" d="M10,0h280" style="stroke: rgb(235, 240, 248); stroke-opacity: 1; stroke-width: 1px;"/></g></g><g class="zerolinelayer"><path class="yzl zl crisp" transform="translate(0,125)" d="M10,0h280" style="stroke: rgb(235, 240, 248); stroke-opacity: 1; stroke-width: 2px;"/></g><path class="xlines-below"/><path class="ylines-below"/><g class="overlines-below"/><g class="xaxislayer-below"/><g class="yaxislayer-below"/><g class="overaxes-below"/><g class="plot" transform="translate(10,50)" clip-path="url(#clipf5deadxyplot)"><g class="scatterlayer mlayer"><g class="trace scatter tracea6015d" style="stroke-miterlimit: 2; opacity: 1;"><g class="fills"/><g class="errorbars"/><g class="lines"><path class="js-line" d="M0,31.49L3.94,32.89L4.93,32.89L7.89,32.69L8.87,32.09L57.18,32.99L58.17,35.78L68.03,34.88L69.01,32.59L70.99,29.2L71.97,30.09L72.96,30.99L73.94,28L82.82,28L83.8,29.5L84.79,29.5L85.77,28L86.76,29.5L87.75,27.7L89.72,27.3L90.7,29.2L92.68,27.3L93.66,27.3L94.65,27.3L95.63,29.2L96.62,29.2L97.61,27.3L99.58,29.2L100.56,27.4L102.54,29.7L103.52,29.7L109.44,30.79L110.42,32.49L113.38,33.19L114.37,33.19L127.18,33.89L128.17,34.49L151.83,35.38L152.82,36.98L159.72,39.08L160.7,37.18L163.66,38.18L164.65,39.47L173.52,39.47L174.51,38.08L177.46,37.28L178.45,36.88L180.42,33.89L181.41,34.09L186.34,34.39L187.32,34.39L192.25,33.89L193.24,36.48L196.2,39.57L197.18,39.28L199.15,37.28L200.14,39.18L203.1,38.28L204.08,37.48L206.06,36.48L207.04,33.09L208.03,31.89L209.01,33.09L210.99,32.99L211.97,34.59L213.94,34.49L214.93,34.39L216.9,34.78L217.89,35.58L220.85,38.38L221.83,38.38L224.79,36.58L225.77,37.38L227.75,36.78L228.73,34.78L230.7,29.2L231.69,29.4L234.65,28.4L235.63,28.1L237.61,29.4L238.59,28.3L240.56,27.6L241.55,29L244.51,35.08L245.49,35.18L247.46,37.28L248.45,37.38L250.42,37.18L251.41,35.58L256.34,36.28L257.32,36.88L260.28,37.28L261.27,38.28L263.24,39.28L264.23,41.97L268.17,44.07L269.15,44.66L271.13,46.46L272.11,43.77L274.08,24.01L275.07,24.31L278.03,23.81L279.01,21.61L280,19.82" style="vector-effect: none; fill: none; stroke: rgb(0, 174, 239); stroke-opacity: 1; stroke-width: 5px; opacity: 1;"/></g><g class="points"/><g class="text"/></g><g class="trace scatter trace0d67a0" style="stroke-miterlimit: 2; opacity: 1;"><g class="fills"/><g class="errorbars"/><g class="lines"><path class="js-line" d="M0,54.14L2.96,51.55L3.94,51.55L13.8,51.05L14.79,50.75L36.48,49.65L37.46,48.95L42.39,48.95L43.38,44.76L55.21,44.76L57.18,47.66L60.14,47.06L61.13,47.06L68.03,46.86L69.01,49.05L70.99,50.15L71.97,49.75L73.94,50.25L74.93,50.25L99.58,49.65L100.56,47.66L103.52,48.46L104.51,48.26L106.48,42.97L107.46,42.97L109.44,42.47L110.42,39.18L112.39,37.28L113.38,37.28L116.34,36.68L117.32,35.78L121.27,33.59L122.25,33.59L129.15,33.89L130.14,34.88L138.03,34.88L139.01,33.49L140,33.49L140.99,31.09L144.93,31.09L145.92,28.4L151.83,28.4L152.82,26.8L158.73,24.21L159.72,24.21L161.69,20.81L162.68,20.81L165.63,15.03L166.62,15.03L173.52,15.03L174.51,16.52L177.46,17.22L178.45,17.62L180.42,19.82L181.41,19.42L184.37,18.72L185.35,18.72L192.25,18.82L193.24,15.53L195.21,12.23L196.2,12.13L199.15,12.93L200.14,11.03L203.1,11.93L204.08,12.73L206.06,13.73L207.04,17.12L208.03,18.32L209.01,17.12L210.99,17.22L211.97,15.63L213.94,15.72L214.93,15.82L216.9,15.43L217.89,14.63L220.85,11.83L221.83,11.83L224.79,13.63L225.77,12.83L227.75,13.43L228.73,15.43L230.7,21.01L231.69,20.81L234.65,21.81L235.63,22.11L237.61,20.81L238.59,21.91L240.56,22.61L241.55,21.21L244.51,15.13L245.49,15.03L247.46,12.93L248.45,12.83L250.42,13.03L251.41,14.63L256.34,13.93L257.32,13.33L260.28,12.93L261.27,11.93L263.24,10.93L264.23,8.24L268.17,6.14L269.15,5.55L271.13,3.75L272.11,6.44L274.08,26.2L275.07,25.9L278.03,26.4L279.01,28.6L280,30.39" style="vector-effect: none; fill: none; stroke: rgb(138, 44, 81); stroke-opacity: 1; stroke-width: 5px; opacity: 1;"/></g><g class="points"/><g class="text"/></g><g class="trace scatter trace025c73" style="stroke-miterlimit: 2; opacity: 1;"><g class="fills"/><g class="errorbars"/><g class="lines"><path class="js-line" d="M0,68.01L11.83,68.11L12.82,68.11L42.39,69.21L43.38,70.01L57.18,68.81L58.17,71.41L99.58,72.41L100.56,72.7L107.46,72.61L108.45,72.61L130.14,73.7L132.11,73.7L144.93,73.7" style="vector-effect: none; fill: none; stroke: rgb(255, 192, 203); stroke-opacity: 1; stroke-width: 5px; opacity: 1;"/></g><g class="points"/><g class="text"/></g><g class="trace scatter traceaf6dc3" style="stroke-miterlimit: 2; opacity: 1;"><g class="fills"/><g class="errorbars"/><g class="lines"><path class="js-line" d="M0,64.92L7.89,65.32L8.87,64.72L42.39,64.92L43.38,66.12L57.18,65.32L58.17,58.83L72.96,59.33L73.94,60.13L99.58,60.03L100.56,62.93L102.54,60.93L103.52,60.93L104.51,61.03L105.49,62.53L107.46,63.72L108.45,63.72L110.42,64.42L111.41,64.62L127.18,64.62L128.17,63.72L129.15,63.72L130.14,62.33L138.03,62.33L139.01,63.62L143.94,65.42L144.93,65.42L147.89,66.22L148.87,66.22L159.72,66.52L160.7,69.61L178.45,70.61L179.44,71.51L192.25,72.51L193.24,73.2L198.17,73.7" style="vector-effect: none; fill: none; stroke: rgb(255, 1, 170); stroke-opacity: 1; stroke-width: 5px; opacity: 1;"/></g><g class="points"/><g class="text"/></g><g class="trace scatter traceafe9c5" style="stroke-miterlimit: 2; opacity: 1;"><g class="fills"/><g class="errorbars"/><g class="lines"><path class="js-line" d="M0,67.12L5.92,67.32L6.9,65.92L9.86,69.01L10.85,69.01L71.97,69.91L72.96,70.31L75.92,69.61L76.9,69.61L108.45,70.81L109.44,70.91L132.11,72.51L133.1,72.51L159.72,73.5L160.7,73.8L163.66,74" style="vector-effect: none; fill: none; stroke: rgb(202, 166, 105); stroke-opacity: 1; stroke-width: 5px; opacity: 1;"/></g><g class="points"/><g class="text"/></g></g></g><g class="overplot"/><path class="xlines-above crisp" d="M0,0" style="fill: none;"/><path class="ylines-above crisp" d="M0,0" style="fill: none;"/><g class="overlines-above"/><g class="xaxislayer-above"/><g class="yaxislayer-above"/><g class="overaxes-above"/></g></g><g class="polarlayer"/><g class="smithlayer"/><g class="ternarylayer"/><g class="geolayer"/><g class="funnelarealayer"/><g class="pielayer"/><g class="iciclelayer"/><g class="treemaplayer"/><g class="sunburstlayer"/><g class="glimages"/><defs id="topdefs-f5dead"><g class="clips"/></defs><g class="layer-above"><g class="imagelayer"/><g class="shapelayer"/></g><g class="infolayer"><g class="g-gtitle"><text class="gtitle" x="15" y="25" text-anchor="start" dy="0em" style="font-family: Ubuntu, verdana, arial, sans-serif; font-size: 16px; fill: rgb(233, 84, 32); opacity: 1; font-weight: normal; white-space: pre;">Prezident/ka 2024</text></g><g class="g-xtitle"/><g class="g-ytitle"/></g></svg>