<svg class="main-svg" xmlns="http://www.w3.org/2000/svg" xmlns:xlink="http://www.w3.org/1999/xlink" width="400" height="400" style="" viewBox="0 0 400 400"><rect x="0" y="0" width="400" height="400" style="fill: rgb(255, 255, 255); fill-opacity: 1;"/><defs id="defs-a2cb32"><g class="clips"><clipPath id="clipa2cb32xyplot" class="plotclip"><rect width="206" height="330"/></clipPath><clipPath class="axesclip" id="clipa2cb32x"><rect x="50" y="0" width="206" height="400"/></clipPath><clipPath class="axesclip" id="clipa2cb32y"><rect x="0" y="20" width="400" height="330"/></clipPath><clipPath class="axesclip" id="clipa2cb32xy"><rect x="50" y="20" width="206" height="330"/></clipPath></g><g class="gradients"/><g class="patterns"/></defs><g class="bglayer"/><g class="layer-below"><g class="imagelayer"/><g class="shapelayer"/></g><g class="cartesianlayer"><g class="subplot xy"><g class="layer-subplot"><g class="shapelayer"/><g class="imagelayer"/></g><g class="minor-gridlayer"><g class="x"/><g class="y"/></g><g class="gridlayer"><g class="x"><path class="xgrid crisp" transform="translate(57.1,0)" d="M0,20v330" style="stroke: rgb(235, 240, 248); stroke-opacity: 1; stroke-width: 1px;"/><path class="xgrid crisp" transform="translate(101.14,0)" d="M0,20v330" style="stroke: rgb(235, 240, 248); stroke-opacity: 1; stroke-width: 1px;"/><path class="xgrid crisp" transform="translate(144.48000000000002,0)" d="M0,20v330" style="stroke: rgb(235, 240, 248); stroke-opacity: 1; stroke-width: 1px;"/><path class="xgrid crisp" transform="translate(187.81,0)" d="M0,20v330" style="stroke: rgb(235, 240, 248); stroke-opacity: 1; stroke-width: 1px;"/><path class="xgrid crisp" transform="translate(230.43,0)" d="M0,20v330" style="stroke: rgb(235, 240, 248); stroke-opacity: 1; stroke-width: 1px;"/></g><g class="y"><path class="ygrid crisp" transform="translate(0,304.57)" d="M50,0h206" style="stroke: rgb(235, 240, 248); stroke-opacity: 1; stroke-width: 1px;"/><path class="ygrid crisp" transform="translate(0,259.13)" d="M50,0h206" style="stroke: rgb(235, 240, 248); stroke-opacity: 1; stroke-width: 1px;"/><path class="ygrid crisp" transform="translate(0,213.7)" d="M50,0h206" style="stroke: rgb(235, 240, 248); stroke-opacity: 1; stroke-width: 1px;"/><path class="ygrid crisp" transform="translate(0,168.26)" d="M50,0h206" style="stroke: rgb(235, 240, 248); stroke-opacity: 1; stroke-width: 1px;"/><path class="ygrid crisp" transform="translate(0,122.83)" d="M50,0h206" style="stroke: rgb(235, 240, 248); stroke-opacity: 1; stroke-width: 1px;"/><path class="ygrid crisp" transform="translate(0,77.39)" d="M50,0h206" style="stroke: rgb(235, 240, 248); stroke-opacity: 1; stroke-width: 1px;"/><path class="ygrid crisp" transform="translate(0,31.96)" d="M50,0h206" style="stroke: rgb(235, 240, 248); stroke-opacity: 1; stroke-width: 1px;"/></g></g><g class="zerolinelayer"><path class="yzl zl crisp" transform="translate(0,350)" d="M50,0h206" style="stroke: rgb(235, 240, 248); stroke-opacity: 1; stroke-width: 2px;"/></g><path class="xlines-below"/><path class="ylines-below"/><g class="overlines-below"/><g class="xaxislayer-below"/><g class="yaxislayer-below"/><g class="overaxes-below"/><g class="plot" transform="translate(50,20)" clip-path="url(#clipa2cb32xyplot)"><g class="scatterlayer mlayer"><g class="trace scatter trace6cb9c8" style="stroke-miterlimit: 2; opacity: 1;"><g class="fills"/><g class="errorbars"/><g class="lines"><path class="js-line" d="M0,235.04L2.13,223.23L2.84,223.23L4.26,223.23L4.97,226.41L7.1,220.96L7.81,220.96L9.94,220.96L10.66,219.59L12.79,219.59L13.5,218.23L15.63,217.32L16.34,217.32L17.76,214.6L18.47,214.6L26.28,214.6L26.99,211.42L30.54,211.42L31.26,192.33L39.78,192.33L41.2,205.51L41.91,202.78L43.33,202.78L49.01,201.87L49.72,211.87L51.14,216.87L51.86,215.05L52.57,213.23L53.28,217.32L59.67,217.32L60.38,215.5L61.09,215.5L61.8,217.32L62.51,215.5L63.22,216.87L63.93,215.5L71.74,214.6L72.46,205.51L73.88,209.14L74.59,209.14L75.3,208.23L76.01,193.24L77.43,184.15L78.14,184.15L78.85,181.88L79.56,166.89L80.98,158.26L81.69,158.26L83.11,158.26L83.82,155.53L86.66,141.45L87.37,141.45L91.63,141.9L92.34,142.81L93.06,142.81L93.77,147.35L99.45,147.35L100.16,140.99L100.87,140.99L101.58,130.09L104.42,130.09L105.13,117.82L109.39,117.82L110.1,110.55L111.52,107.82L112.23,107.82L115.08,98.74L115.79,83.29L117.21,83.29L117.92,75.57L119.34,56.94L120.05,56.94L125.02,56.94L125.73,63.75L127.15,66.93L127.86,66.93L128.57,68.75L129.28,76.02L129.99,78.75L130.7,76.93L131.41,73.75L137.1,72.84L137.81,75.11L138.52,74.2L139.23,59.21L141.36,43.76L142.07,45.12L142.78,50.58L143.49,47.4L144.2,38.76L144.91,38.76L145.62,41.03L147.04,46.49L147.75,50.58L148.46,51.03L149.17,66.48L149.88,71.93L150.59,66.48L151.3,68.75L152.01,66.93L152.72,59.66L153.43,57.85L154.14,60.12L155.57,61.48L156.28,58.75L159.12,42.4L159.83,42.4L160.54,44.22L161.25,49.67L161.96,50.58L162.67,46.94L163.38,46.49L164.09,49.67L166.22,84.2L166.93,83.29L167.64,83.29L168.35,83.74L169.06,87.83L169.77,89.2L170.48,88.29L171.19,83.29L173.32,91.47L174.03,85.11L176.17,57.39L176.88,56.94L177.59,46.94L178.3,47.4L179.01,46.94L179.72,44.67L180.43,47.85L181.85,55.12L182.56,55.57L183.27,55.12L183.98,52.85L187.53,47.4L188.24,42.85L189.66,38.31L190.37,26.04L193.21,16.5" style="vector-effect: none; fill: none; stroke: rgb(138, 44, 81); stroke-opacity: 1; stroke-width: 5px; opacity: 1;"/></g><g class="points"/><g class="text"/></g><g class="trace scatter traceb9384a" style="stroke-miterlimit: 2; opacity: 1;"><g class="fills"/><g class="errorbars"/><g class="lines"><path class="js-line" d="M0,131.9L2.13,138.27L2.84,138.27L4.26,138.27L4.97,141.45L7.1,134.63L7.81,134.63L13.5,135.54L14.21,136.45L16.34,136.45L17.05,138.72L41.2,138.72L41.91,151.44L47.59,151.44L48.3,149.17L49.01,147.35L49.72,136.9L51.14,121.45L51.86,125.54L52.57,129.63L53.28,116L59.67,116L60.38,122.82L61.09,122.82L61.8,116L62.51,122.82L63.22,114.64L64.64,112.82L65.35,121.45L66.77,112.82L67.48,112.82L68.19,112.82L68.9,121.45L69.61,121.45L70.32,112.82L71.74,121.45L72.46,113.28L73.88,123.73L74.59,123.73L75.3,123.73L76.01,126.45L78.14,126.45L78.85,128.72L80.98,139.63L81.69,139.63L84.53,139.63L85.24,140.99L88.08,141.45L88.79,141.45L90.92,141.45L91.63,142.81L93.77,147.35L95.19,147.35L100.16,147.81L100.87,145.99L102.29,150.53L103,150.53L109.39,149.62L110.1,156.89L111.52,158.71L112.23,158.71L115.08,166.43L115.79,157.8L117.21,157.8L117.92,162.35L119.34,168.25L120.05,168.25L125.02,168.25L125.73,161.89L127.15,158.26L127.86,158.26L128.57,156.44L129.28,145.99L129.99,142.81L130.7,143.72L131.41,145.08L137.1,145.08L137.81,142.81L138.52,142.81L139.23,154.62L141.36,168.71L142.07,167.34L143.49,158.26L144.2,166.89L144.91,166.89L145.62,164.62L147.04,159.17L147.75,155.08L148.46,154.62L149.17,139.17L149.88,133.72L150.59,139.17L151.3,136.9L152.01,138.72L152.72,145.99L153.43,147.81L154.14,145.53L155.57,144.17L156.28,146.9L159.12,163.25L159.83,163.25L160.54,161.44L161.25,155.98L161.96,155.08L162.67,158.71L163.38,159.17L164.09,155.98L166.22,121.45L166.93,122.36L167.64,122.36L168.35,121.91L169.06,117.82L169.77,116.46L170.48,117.37L171.19,122.36L173.32,114.18L174.03,120.55L176.17,148.26L176.88,148.72L177.59,158.71L178.3,158.26L179.01,158.71L179.72,160.98L180.43,157.8L181.85,150.53L182.56,150.08L183.27,150.53L183.98,152.8L187.53,158.26L188.24,162.8L189.66,167.34L190.37,179.61L193.21,189.15" style="vector-effect: none; fill: none; stroke: rgb(0, 174, 239); stroke-opacity: 1; stroke-width: 5px; opacity: 1;"/></g><g class="points"/><g class="text"/></g><g class="trace scatter trace1ff6eb" style="stroke-miterlimit: 2; opacity: 1;"><g class="fills"/><g class="errorbars"/><g class="lines"><path class="js-line" d="M0,298.2L3.55,299.56L4.26,299.56L7.1,298.65L7.81,298.65L16.34,299.1L17.05,300.01L26.28,300.01L26.99,303.65L30.54,303.65L31.26,307.28L39.78,307.28L41.2,301.83L41.91,313.64L43.33,313.64L49.72,314.1L50.43,317.28L52.57,317.28L53.28,319.1L71.74,318.19L72.46,319.55L74.59,318.64L75.3,318.64L78.85,319.55L79.56,320.46L83.82,322.28L84.53,324.09L104.42,324.09" style="vector-effect: none; fill: none; stroke: rgb(255, 192, 203); stroke-opacity: 1; stroke-width: 5px; opacity: 1;"/></g><g class="points"/><g class="text"/></g><g class="trace scatter trace20d67e" style="stroke-miterlimit: 2; opacity: 1;"><g class="fills"/><g class="errorbars"/><g class="lines"><path class="js-line" d="M0,282.29L2.84,284.11L3.55,284.11L4.26,284.11L4.97,282.29L5.68,282.75L6.39,285.02L12.79,285.47L13.5,286.84L15.63,287.75L16.34,287.75L30.54,286.84L31.26,293.65L39.78,293.65L41.2,290.93L41.91,296.83L43.33,296.83L48.3,297.29L49.01,298.2L49.72,298.2L50.43,303.19L51.14,303.19L51.86,300.47L52.57,297.74L53.28,305.47L59.67,305.47L60.38,301.83L61.09,301.83L61.8,305.47L62.51,301.83L63.22,305.01L64.64,305.01L65.35,301.38L66.77,305.01L67.48,305.01L68.19,305.01L68.9,301.38L69.61,301.38L70.32,305.01L71.74,301.38L72.46,301.83L73.88,298.65L74.59,298.65L75.3,299.1L76.01,303.65L77.43,305.92L78.14,305.92L81.69,310.01L82.4,310.01L83.82,310.92L84.53,312.73L87.37,315.92L88.08,315.92L115.08,315.92L115.79,324.55L117.92,325.46" style="vector-effect: none; fill: none; stroke: rgb(238, 58, 67); stroke-opacity: 1; stroke-width: 5px; opacity: 1;"/></g><g class="points"/><g class="text"/></g><g class="trace scatter tracebef0f2" style="stroke-miterlimit: 2; opacity: 1;"><g class="fills"/><g class="errorbars"/><g class="lines"><path class="js-line" d="M0,284.11L2.13,285.47L2.84,285.47L4.26,285.47L4.97,288.65L7.1,283.2L7.81,283.2L30.54,284.11L31.26,289.56L39.78,289.56L41.2,285.93L41.91,256.4L43.33,256.4L47.59,256.4L48.3,257.76L51.14,261.85L51.86,260.48L52.57,258.67L53.28,262.3L59.67,262.3L60.38,260.48L61.09,260.48L61.8,262.3L62.51,260.48L63.22,263.21L64.64,265.03L65.35,261.85L66.77,265.03L67.48,265.03L68.19,265.03L68.9,261.85L69.61,261.85L70.32,265.03L71.74,261.85L72.46,275.02L73.88,265.94L74.59,265.94L75.3,266.39L76.01,273.21L77.43,278.66L78.14,278.66L78.85,277.3L79.56,281.84L81.69,282.75L82.4,282.75L85.24,282.75L85.95,284.57L90.92,284.57L91.63,282.75L93.77,272.3L95.19,272.3L99.45,272.3L100.16,278.2L100.87,280.02L101.58,286.38L104.42,286.38L105.13,290.02L113.66,290.93L114.37,291.38L115.08,291.38L115.79,305.47L117.21,305.47L117.92,307.28L119.34,310.01L120.05,310.01L128.57,310.01L129.28,314.1L130.7,315.01L131.41,316.82L137.81,317.73L138.52,318.64L140.65,323.18L141.36,323.18L142.78,324.09" style="vector-effect: none; fill: none; stroke: rgb(255, 1, 170); stroke-opacity: 1; stroke-width: 5px; opacity: 1;"/></g><g class="points"/><g class="text"/></g><g class="trace scatter traceeff04d" style="stroke-miterlimit: 2; opacity: 1;"><g class="fills"/><g class="errorbars"/><g class="lines"><path class="js-line" d="M0,294.11L3.55,295.02L4.26,295.02L4.97,288.65L5.68,297.29L7.1,302.74L7.81,302.74L26.28,301.83L26.99,301.38L30.54,301.38L31.26,303.65L41.2,302.74L41.91,304.56L51.14,305.01L51.86,306.83L52.57,308.65L53.28,305.47L59.67,305.47L60.38,306.83L61.09,306.83L61.8,305.47L63.93,308.19L64.64,308.19L66.77,308.19L67.48,308.19L71.74,308.65L72.46,310.01L76.01,310.01L76.72,310.92L79.56,311.83L80.27,313.19L84.53,315.92L85.24,316.82L86.66,318.19L87.37,318.19L104.42,318.19L105.13,322.73L115.08,323.18L115.79,324.55L117.92,325.46" style="vector-effect: none; fill: none; stroke: rgb(202, 166, 105); stroke-opacity: 1; stroke-width: 5px; opacity: 1;"/></g><g class="points"/><g class="text"/></g></g></g><g class="overplot"/><path class="xlines-above crisp" d="M0,0" style="fill: none;"/><path class="ylines-above crisp" d="M0,0" style="fill: none;"/><g class="overlines-above"/><g class="xaxislayer-above"><g class="xtick"><text text-anchor="middle" x="0" y="363" transform="translate(57.1,0)" style="font-family: 'Open Sans', verdana, arial, sans-serif; font-size: 12px; fill: rgb(42, 63, 95); fill-opacity: 1; white-space: pre; opacity: 1;">1.7.23</text></g><g class="xtick"><text text-anchor="middle" x="0" y="363" style="font-family: 'Open Sans', verdana, arial, sans-serif; font-size: 12px; fill: rgb(42, 63, 95); fill-opacity: 1; white-space: pre; opacity: 1;" transform="translate(101.14,0)">1.9.23</text></g><g class="xtick"><text text-anchor="middle" x="0" y="363" style="font-family: 'Open Sans', verdana, arial, sans-serif; font-size: 12px; fill: rgb(42, 63, 95); fill-opacity: 1; white-space: pre; opacity: 1;" transform="translate(144.48000000000002,0)">1.11.23</text></g><g class="xtick"><text text-anchor="middle" x="0" y="363" style="font-family: 'Open Sans', verdana, arial, sans-serif; font-size: 12px; fill: rgb(42, 63, 95); fill-opacity: 1; white-space: pre; opacity: 1;" transform="translate(187.81,0)">1.1.24</text></g><g class="xtick"><text text-anchor="middle" x="0" y="363" style="font-family: 'Open Sans', verdana, arial, sans-serif; font-size: 12px; fill: rgb(42, 63, 95); fill-opacity: 1; white-space: pre; opacity: 1;" transform="translate(230.43,0)">1.3.24</text></g></g><g class="yaxislayer-above"><g class="ytick"><text text-anchor="end" x="49" y="4.199999999999999" transform="translate(0,350)" style="font-family: 'Open Sans', verdana, arial, sans-serif; font-size: 12px; fill: rgb(42, 63, 95); fill-opacity: 1; white-space: pre; opacity: 1;">0%</text></g><g class="ytick"><text text-anchor="end" x="49" y="4.199999999999999" style="font-family: 'Open Sans', verdana, arial, sans-serif; font-size: 12px; fill: rgb(42, 63, 95); fill-opacity: 1; white-space: pre; opacity: 1;" transform="translate(0,304.57)">10%</text></g><g class="ytick"><text text-anchor="end" x="49" y="4.199999999999999" style="font-family: 'Open Sans', verdana, arial, sans-serif; font-size: 12px; fill: rgb(42, 63, 95); fill-opacity: 1; white-space: pre; opacity: 1;" transform="translate(0,259.13)">20%</text></g><g class="ytick"><text text-anchor="end" x="49" y="4.199999999999999" style="font-family: 'Open Sans', verdana, arial, sans-serif; font-size: 12px; fill: rgb(42, 63, 95); fill-opacity: 1; white-space: pre; opacity: 1;" transform="translate(0,213.7)">30%</text></g><g class="ytick"><text text-anchor="end" x="49" y="4.199999999999999" style="font-family: 'Open Sans', verdana, arial, sans-serif; font-size: 12px; fill: rgb(42, 63, 95); fill-opacity: 1; white-space: pre; opacity: 1;" transform="translate(0,168.26)">40%</text></g><g class="ytick"><text text-anchor="end" x="49" y="4.199999999999999" style="font-family: 'Open Sans', verdana, arial, sans-serif; font-size: 12px; fill: rgb(42, 63, 95); fill-opacity: 1; white-space: pre; opacity: 1;" transform="translate(0,122.83)">50%</text></g><g class="ytick"><text text-anchor="end" x="49" y="4.199999999999999" style="font-family: 'Open Sans', verdana, arial, sans-serif; font-size: 12px; fill: rgb(42, 63, 95); fill-opacity: 1; white-space: pre; opacity: 1;" transform="translate(0,77.39)">60%</text></g><g class="ytick"><text text-anchor="end" x="49" y="4.199999999999999" style="font-family: 'Open Sans', verdana, arial, sans-serif; font-size: 12px; fill: rgb(42, 63, 95); fill-opacity: 1; white-space: pre; opacity: 1;" transform="translate(0,31.96)">70%</text></g></g><g class="overaxes-above"/></g></g><g class="polarlayer"/><g class="smithlayer"/><g class="ternarylayer"/><g class="geolayer"/><g class="funnelarealayer"/><g class="pielayer"/><g class="iciclelayer"/><g class="treemaplayer"/><g class="sunburstlayer"/><g class="glimages"/><defs id="topdefs-a2cb32"><g class="clips"/><clipPath id="legenda2cb32"><rect width="128" height="124" x="0" y="0"/></clipPath></defs><g class="layer-above"><g class="imagelayer"/><g class="shapelayer"/></g><g class="infolayer"><g class="legend" pointer-events="all" transform="translate(260.12,20)"><rect class="bg" shape-rendering="crispEdges" width="128" height="124" x="0" y="0" style="stroke: rgb(68, 68, 68); stroke-opacity: 1; fill: rgb(255, 255, 255); fill-opacity: 1; stroke-width: 0px;"/><g class="scrollbox" transform="" clip-path="url(#legenda2cb32)"><g class="groups"><g class="traces" transform="translate(0,14.5)" style="opacity: 1;"><text class="legendtext" text-anchor="start" x="40" y="4.680000000000001" style="font-family: 'Open Sans', verdana, arial, sans-serif; font-size: 12px; fill: rgb(42, 63, 95); fill-opacity: 1; white-space: pre;">Pellegrini Peter</text><g class="layers" style="opacity: 1;"><g class="legendfill"/><g class="legendlines"><path class="js-line" d="M5,0h30" style="fill: none; stroke: rgb(138, 44, 81); stroke-opacity: 1; stroke-width: 5px;"/></g><g class="legendsymbols"><g class="legendpoints"/></g></g><rect class="legendtoggle" x="0" y="-9.5" width="122.703125" height="19" style="fill: rgb(0, 0, 0); fill-opacity: 0;"/></g><g class="traces" transform="translate(0,33.5)" style="opacity: 1;"><text class="legendtext" text-anchor="start" x="40" y="4.680000000000001" style="font-family: 'Open Sans', verdana, arial, sans-serif; font-size: 12px; fill: rgb(42, 63, 95); fill-opacity: 1; white-space: pre;">Korčok Ivan</text><g class="layers" style="opacity: 1;"><g class="legendfill"/><g class="legendlines"><path class="js-line" d="M5,0h30" style="fill: none; stroke: rgb(0, 174, 239); stroke-opacity: 1; stroke-width: 5px;"/></g><g class="legendsymbols"><g class="legendpoints"/></g></g><rect class="legendtoggle" x="0" y="-9.5" width="122.703125" height="19" style="fill: rgb(0, 0, 0); fill-opacity: 0;"/></g><g class="traces" transform="translate(0,52.5)" style="opacity: 1;"><text class="legendtext" text-anchor="start" x="40" y="4.680000000000001" style="font-family: 'Open Sans', verdana, arial, sans-serif; font-size: 12px; fill: rgb(42, 63, 95); fill-opacity: 1; white-space: pre;">Lajčák Miroslav</text><g class="layers" style="opacity: 1;"><g class="legendfill"/><g class="legendlines"><path class="js-line" d="M5,0h30" style="fill: none; stroke: rgb(255, 192, 203); stroke-opacity: 1; stroke-width: 5px;"/></g><g class="legendsymbols"><g class="legendpoints"/></g></g><rect class="legendtoggle" x="0" y="-9.5" width="122.703125" height="19" style="fill: rgb(0, 0, 0); fill-opacity: 0;"/></g><g class="traces" transform="translate(0,71.5)" style="opacity: 1;"><text class="legendtext" text-anchor="start" x="40" y="4.680000000000001" style="font-family: 'Open Sans', verdana, arial, sans-serif; font-size: 12px; fill: rgb(42, 63, 95); fill-opacity: 1; white-space: pre;">Fico Robert</text><g class="layers" style="opacity: 1;"><g class="legendfill"/><g class="legendlines"><path class="js-line" d="M5,0h30" style="fill: none; stroke: rgb(238, 58, 67); stroke-opacity: 1; stroke-width: 5px;"/></g><g class="legendsymbols"><g class="legendpoints"/></g></g><rect class="legendtoggle" x="0" y="-9.5" width="122.703125" height="19" style="fill: rgb(0, 0, 0); fill-opacity: 0;"/></g><g class="traces" transform="translate(0,90.5)" style="opacity: 1;"><text class="legendtext" text-anchor="start" x="40" y="4.680000000000001" style="font-family: 'Open Sans', verdana, arial, sans-serif; font-size: 12px; fill: rgb(42, 63, 95); fill-opacity: 1; white-space: pre;">Kubiš Ján</text><g class="layers" style="opacity: 1;"><g class="legendfill"/><g class="legendlines"><path class="js-line" d="M5,0h30" style="fill: none; stroke: rgb(255, 1, 170); stroke-opacity: 1; stroke-width: 5px;"/></g><g class="legendsymbols"><g class="legendpoints"/></g></g><rect class="legendtoggle" x="0" y="-9.5" width="122.703125" height="19" style="fill: rgb(0, 0, 0); fill-opacity: 0;"/></g><g class="traces" transform="translate(0,109.5)" style="opacity: 1;"><text class="legendtext" text-anchor="start" x="40" y="4.680000000000001" style="font-family: 'Open Sans', verdana, arial, sans-serif; font-size: 12px; fill: rgb(42, 63, 95); fill-opacity: 1; white-space: pre;">Mistrík Robert</text><g class="layers" style="opacity: 1;"><g class="legendfill"/><g class="legendlines"><path class="js-line" d="M5,0h30" style="fill: none; stroke: rgb(202, 166, 105); stroke-opacity: 1; stroke-width: 5px;"/></g><g class="legendsymbols"><g class="legendpoints"/></g></g><rect class="legendtoggle" x="0" y="-9.5" width="122.703125" height="19" style="fill: rgb(0, 0, 0); fill-opacity: 0;"/></g></g></g><rect class="scrollbar" rx="20" ry="3" width="0" height="0" x="0" y="0" style="fill: rgb(128, 139, 164); fill-opacity: 1;"/></g><g class="g-gtitle"/><g class="g-xtitle"/><g class="g-ytitle"/></g></svg>