<svg class="main-svg" xmlns="http://www.w3.org/2000/svg" xmlns:xlink="http://www.w3.org/1999/xlink" width="300" height="135" style="" viewBox="0 0 300 135"><rect x="0" y="0" width="300" height="135" style="fill: rgb(255, 255, 255); fill-opacity: 1;"/><defs id="defs-bdba54"><g class="clips"><clipPath id="clipbdba54xyplot" class="plotclip"><rect width="280" height="75"/></clipPath><clipPath class="axesclip" id="clipbdba54x"><rect x="10" y="0" width="280" height="135"/></clipPath><clipPath class="axesclip" id="clipbdba54y"><rect x="0" y="50" width="300" height="75"/></clipPath><clipPath class="axesclip" id="clipbdba54xy"><rect x="10" y="50" width="280" height="75"/></clipPath></g><g class="gradients"/><g class="patterns"/></defs><g class="bglayer"/><g class="layer-below"><g class="imagelayer"/><g class="shapelayer"/></g><g class="cartesianlayer"><g class="subplot xy"><g class="layer-subplot"><g class="shapelayer"/><g class="imagelayer"/></g><g class="minor-gridlayer"><g class="x"/><g class="y"/></g><g class="gridlayer"><g class="x"><path class="xgrid crisp" transform="translate(26,0)" d="M0,50v75" style="stroke: rgb(235, 240, 248); stroke-opacity: 1; stroke-width: 1px;"/><path class="xgrid crisp" transform="translate(125.2,0)" d="M0,50v75" style="stroke: rgb(235, 240, 248); stroke-opacity: 1; stroke-width: 1px;"/><path class="xgrid crisp" transform="translate(222.8,0)" d="M0,50v75" style="stroke: rgb(235, 240, 248); stroke-opacity: 1; stroke-width: 1px;"/></g><g class="y"><path class="ygrid crisp" transform="translate(0,101.28999999999999)" d="M10,0h280" style="stroke: rgb(235, 240, 248); stroke-opacity: 1; stroke-width: 1px;"/><path class="ygrid crisp" transform="translate(0,77.58)" d="M10,0h280" style="stroke: rgb(235, 240, 248); stroke-opacity: 1; stroke-width: 1px;"/><path class="ygrid crisp" transform="translate(0,53.87)" d="M10,0h280" style="stroke: rgb(235, 240, 248); stroke-opacity: 1; stroke-width: 1px;"/></g></g><g class="zerolinelayer"><path class="yzl zl crisp" transform="translate(0,125)" d="M10,0h280" style="stroke: rgb(235, 240, 248); stroke-opacity: 1; stroke-width: 2px;"/></g><path class="xlines-below"/><path class="ylines-below"/><g class="overlines-below"/><g class="xaxislayer-below"/><g class="yaxislayer-below"/><g class="overaxes-below"/><g class="plot" transform="translate(10,50)" clip-path="url(#clipbdba54xyplot)"><g class="scatterlayer mlayer"><g class="trace scatter trace5cd794" style="stroke-miterlimit: 2; opacity: 1;"><g class="fills"/><g class="errorbars"/><g class="lines"><path class="js-line" d="M0,50.22L4.8,47.14L6.4,47.14L12.8,47.38L14.4,46.55L36.8,45.6L38.4,44.89L68.8,44.06L70.4,39.08L89.6,39.08L92.8,42.52L94.4,41.81L97.6,41.81L110.4,41.57L112,44.18L115.2,45.48L116.8,45.01L118.4,44.53L120,45.6L161.6,44.89L163.2,42.52L166.4,43.47L168,43.47L169.6,43.23L171.2,39.32L172.8,36.94L174.4,36.94L177.6,36.35L179.2,32.44L182.4,30.19L184,30.19L188.8,29.48L190.4,28.41L195.2,25.8L196.8,25.8L209.6,26.16L211.2,27.34L224,27.34L225.6,25.68L227.2,25.68L228.8,22.84L235.2,22.84L236.8,19.64L246.4,19.64L248,17.74L251.2,17.03L252.8,17.03L259.2,14.66L260.8,10.63L264,10.63L265.6,8.61L267.2,3.75L268.8,3.75L280,3.75" style="vector-effect: none; fill: none; stroke: rgb(138, 44, 81); stroke-opacity: 1; stroke-width: 5px; opacity: 1;"/></g><g class="points"/><g class="text"/></g><g class="trace scatter traceb38f0c" style="stroke-miterlimit: 2; opacity: 1;"><g class="fills"/><g class="errorbars"/><g class="lines"><path class="js-line" d="M0,23.31L4.8,24.97L6.4,24.97L12.8,24.73L14.4,24.02L92.8,25.09L94.4,28.41L110.4,27.34L112,24.62L113.6,20.58L115.2,20.58L118.4,22.72L120,19.16L134.4,19.16L136,20.94L137.6,20.94L139.2,19.16L140.8,20.94L142.4,18.81L145.6,18.33L147.2,20.58L148.8,18.33L150.4,18.33L153.6,18.33L155.2,20.58L156.8,20.58L158.4,18.33L160,20.58L161.6,20.58L163.2,18.45L164.8,21.18L176,21.89L177.6,22.48L180.8,25.21L182.4,25.33L206.4,26.16L208,26.87L227.2,26.99L228.8,28.17L246.4,27.93L248,29.83L259.2,32.32L260.8,30.07L265.6,31.25L267.2,32.8L280,32.8" style="vector-effect: none; fill: none; stroke: rgb(0, 174, 239); stroke-opacity: 1; stroke-width: 5px; opacity: 1;"/></g><g class="points"/><g class="text"/></g><g class="trace scatter tracee5dfcd" style="stroke-miterlimit: 2; opacity: 1;"><g class="fills"/><g class="errorbars"/><g class="lines"><path class="js-line" d="M0,63.03L11.2,64.21L12.8,63.5L16,62.79L17.6,62.79L68.8,63.03L70.4,64.45L92.8,63.5L94.4,55.79L112,56.51L113.6,57.22L142.4,57.57L144,58.05L161.6,57.22L163.2,60.66L164.8,58.28L166.4,58.28L169.6,58.4L171.2,60.18L174.4,61.6L176,61.6L177.6,61.25L179.2,62.43L187.2,62.67L188.8,62.55L196.8,63.14L198.4,63.14L206.4,62.67L208,61.6L209.6,61.6L211.2,59.94L224,59.94L225.6,61.49L232,63.62L233.6,63.62L256,64.8L257.6,64.92L259.2,64.92L260.8,68.6L280,69.78" style="vector-effect: none; fill: none; stroke: rgb(255, 1, 170); stroke-opacity: 1; stroke-width: 5px; opacity: 1;"/></g><g class="points"/><g class="text"/></g><g class="trace scatter tracec3959f" style="stroke-miterlimit: 2; opacity: 1;"><g class="fills"/><g class="errorbars"/><g class="lines"><path class="js-line" d="M0,66.7L16,66.82L17.6,66.82L59.2,67.18L60.8,68.12L89.6,69.07L92.8,67.65L94.4,70.73L97.6,70.73L118.4,71.68L120,72.15L188.8,72.98L190.4,73.46L235.2,73.46" style="vector-effect: none; fill: none; stroke: rgb(255, 192, 203); stroke-opacity: 1; stroke-width: 5px; opacity: 1;"/></g><g class="points"/><g class="text"/></g><g class="trace scatter trace636442" style="stroke-miterlimit: 2; opacity: 1;"><g class="fills"/><g class="errorbars"/><g class="lines"><path class="js-line" d="M0,62.55L9.6,63.03L11.2,62.55L40,63.97L41.6,63.97L68.8,63.74L70.4,65.52L92.8,64.8L94.4,66.35L112,66.7L113.6,68.01L116.8,67.29L118.4,66.58L120,68.6L121.6,68.6L163.2,67.65L164.8,66.82L169.6,66.94L171.2,68.12L176,68.72L177.6,68.95L185.6,69.78L187.2,69.78L201.6,71.32L203.2,71.32L259.2,71.32L260.8,73.58L265.6,73.81" style="vector-effect: none; fill: none; stroke: rgb(238, 58, 67); stroke-opacity: 1; stroke-width: 5px; opacity: 1;"/></g><g class="points"/><g class="text"/></g></g></g><g class="overplot"/><path class="xlines-above crisp" d="M0,0" style="fill: none;"/><path class="ylines-above crisp" d="M0,0" style="fill: none;"/><g class="overlines-above"/><g class="xaxislayer-above"/><g class="yaxislayer-above"/><g class="overaxes-above"/></g></g><g class="polarlayer"/><g class="smithlayer"/><g class="ternarylayer"/><g class="geolayer"/><g class="funnelarealayer"/><g class="pielayer"/><g class="iciclelayer"/><g class="treemaplayer"/><g class="sunburstlayer"/><g class="glimages"/><defs id="topdefs-bdba54"><g class="clips"/></defs><g class="layer-above"><g class="imagelayer"/><g class="shapelayer"/></g><g class="infolayer"><g class="g-gtitle"><text class="gtitle" x="15" y="25" text-anchor="start" dy="0em" style="font-family: Ubuntu, verdana, arial, sans-serif; font-size: 16px; fill: rgb(233, 84, 32); opacity: 1; font-weight: normal; white-space: pre;">Prezident/ka 2024</text></g><g class="g-xtitle"/><g class="g-ytitle"/></g></svg>