<svg class="main-svg" xmlns="http://www.w3.org/2000/svg" xmlns:xlink="http://www.w3.org/1999/xlink" width="300" height="135" style="" viewBox="0 0 300 135"><rect x="0" y="0" width="300" height="135" style="fill: rgb(255, 255, 255); fill-opacity: 1;"/><defs id="defs-188096"><g class="clips"><clipPath id="clip188096xyplot" class="plotclip"><rect width="280" height="75"/></clipPath><clipPath class="axesclip" id="clip188096x"><rect x="10" y="0" width="280" height="135"/></clipPath><clipPath class="axesclip" id="clip188096y"><rect x="0" y="50" width="300" height="75"/></clipPath><clipPath class="axesclip" id="clip188096xy"><rect x="10" y="50" width="280" height="75"/></clipPath></g><g class="gradients"/><g class="patterns"/></defs><g class="bglayer"/><g class="layer-below"><g class="imagelayer"/><g class="shapelayer"/></g><g class="cartesianlayer"><g class="subplot xy"><g class="layer-subplot"><g class="shapelayer"/><g class="imagelayer"/></g><g class="minor-gridlayer"><g class="x"/><g class="y"/></g><g class="gridlayer"><g class="x"><path class="xgrid crisp" transform="translate(24.66,0)" d="M0,50v75" style="stroke: rgb(235, 240, 248); stroke-opacity: 1; stroke-width: 1px;"/><path class="xgrid crisp" transform="translate(115.55,0)" d="M0,50v75" style="stroke: rgb(235, 240, 248); stroke-opacity: 1; stroke-width: 1px;"/><path class="xgrid crisp" transform="translate(204.97,0)" d="M0,50v75" style="stroke: rgb(235, 240, 248); stroke-opacity: 1; stroke-width: 1px;"/></g><g class="y"><path class="ygrid crisp" transform="translate(0,101.28999999999999)" d="M10,0h280" style="stroke: rgb(235, 240, 248); stroke-opacity: 1; stroke-width: 1px;"/><path class="ygrid crisp" transform="translate(0,77.58)" d="M10,0h280" style="stroke: rgb(235, 240, 248); stroke-opacity: 1; stroke-width: 1px;"/><path class="ygrid crisp" transform="translate(0,53.87)" d="M10,0h280" style="stroke: rgb(235, 240, 248); stroke-opacity: 1; stroke-width: 1px;"/></g></g><g class="zerolinelayer"><path class="yzl zl crisp" transform="translate(0,125)" d="M10,0h280" style="stroke: rgb(235, 240, 248); stroke-opacity: 1; stroke-width: 2px;"/></g><path class="xlines-below"/><path class="ylines-below"/><g class="overlines-below"/><g class="xaxislayer-below"/><g class="yaxislayer-below"/><g class="overaxes-below"/><g class="plot" transform="translate(10,50)" clip-path="url(#clip188096xyplot)"><g class="scatterlayer mlayer"><g class="trace scatter traced0cd5d" style="stroke-miterlimit: 2; opacity: 1;"><g class="fills"/><g class="errorbars"/><g class="lines"><path class="js-line" d="M0,50.22L4.4,47.14L5.86,47.14L11.73,47.38L13.19,46.55L33.72,45.6L35.18,44.89L63.04,44.06L64.5,39.08L82.09,39.08L85.03,42.52L86.49,41.81L89.42,41.81L101.15,41.57L102.62,44.18L105.55,45.48L107.02,45.01L108.48,44.53L109.95,45.6L148.06,44.89L149.53,42.52L152.46,43.47L153.93,43.47L155.39,43.23L156.86,39.32L158.32,36.94L159.79,36.94L162.72,36.35L164.19,32.44L167.12,30.19L168.59,30.19L172.98,29.48L174.45,28.41L178.85,25.8L180.31,25.8L192.04,26.16L193.51,27.34L205.24,27.34L206.7,25.68L208.17,25.68L209.63,22.84L215.5,22.84L216.96,19.64L225.76,19.64L227.23,17.74L230.16,17.03L231.62,17.03L237.49,14.66L238.95,10.63L241.88,10.63L243.35,8.61L244.82,3.75L246.28,3.75L258.01,3.75L259.48,5.53L262.41,6.36L263.87,6.36L265.34,6.83L266.81,8.73L269.74,8.97L271.2,8.14L280,8.14" style="vector-effect: none; fill: none; stroke: rgb(138, 44, 81); stroke-opacity: 1; stroke-width: 5px; opacity: 1;"/></g><g class="points"/><g class="text"/></g><g class="trace scatter trace8c361f" style="stroke-miterlimit: 2; opacity: 1;"><g class="fills"/><g class="errorbars"/><g class="lines"><path class="js-line" d="M0,23.31L4.4,24.97L5.86,24.97L11.73,24.73L13.19,24.02L85.03,25.09L86.49,28.41L101.15,27.34L102.62,24.62L104.08,20.58L105.55,20.58L108.48,22.72L109.95,19.16L123.14,19.16L124.61,20.94L126.07,20.94L127.54,19.16L129.01,20.94L130.47,18.81L133.4,18.33L134.87,20.58L137.8,18.33L139.27,18.33L140.73,18.33L142.2,20.58L143.66,20.58L145.13,18.33L148.06,20.58L149.53,18.45L150.99,21.18L152.46,21.18L161.26,21.89L162.72,22.48L165.65,25.21L167.12,25.33L189.11,26.16L190.58,26.87L208.17,26.99L209.63,28.17L225.76,27.93L227.23,29.83L237.49,32.32L238.95,30.07L243.35,31.25L244.82,32.8L258.01,32.8L259.48,31.14L262.41,30.19L263.87,30.19L265.34,29.71L266.81,26.99L269.74,26.39L271.2,26.75L280,26.75" style="vector-effect: none; fill: none; stroke: rgb(0, 174, 239); stroke-opacity: 1; stroke-width: 5px; opacity: 1;"/></g><g class="points"/><g class="text"/></g><g class="trace scatter tracec2333c" style="stroke-miterlimit: 2; opacity: 1;"><g class="fills"/><g class="errorbars"/><g class="lines"><path class="js-line" d="M0,63.03L10.26,64.21L11.73,63.5L14.66,62.79L16.13,62.79L63.04,63.03L64.5,64.45L85.03,63.5L86.49,55.79L102.62,56.51L104.08,57.22L130.47,57.57L131.94,58.05L148.06,57.22L149.53,60.66L150.99,58.28L152.46,58.28L155.39,58.4L156.86,60.18L159.79,61.6L161.26,61.6L162.72,61.25L164.19,62.43L171.52,62.67L172.98,62.55L180.31,63.14L181.78,63.14L189.11,62.67L190.58,61.6L192.04,61.6L193.51,59.94L205.24,59.94L206.7,61.49L212.57,63.62L214.03,63.62L234.55,64.8L236.02,64.92L237.49,64.92L238.95,68.6L258.01,69.78L259.48,69.9L268.27,70.85L269.74,71.09L274.14,71.56L275.6,71.56L280,71.56" style="vector-effect: none; fill: none; stroke: rgb(255, 1, 170); stroke-opacity: 1; stroke-width: 5px; opacity: 1;"/></g><g class="points"/><g class="text"/></g><g class="trace scatter trace694a01" style="stroke-miterlimit: 2; opacity: 1;"><g class="fills"/><g class="errorbars"/><g class="lines"><path class="js-line" d="M0,66.7L14.66,66.82L16.13,66.82L54.24,67.18L55.71,68.12L82.09,69.07L85.03,67.65L86.49,70.73L89.42,70.73L108.48,71.68L109.95,72.15L172.98,72.98L174.45,73.46L215.5,73.46" style="vector-effect: none; fill: none; stroke: rgb(255, 192, 203); stroke-opacity: 1; stroke-width: 5px; opacity: 1;"/></g><g class="points"/><g class="text"/></g><g class="trace scatter trace657b46" style="stroke-miterlimit: 2; opacity: 1;"><g class="fills"/><g class="errorbars"/><g class="lines"><path class="js-line" d="M0,62.55L8.8,63.03L10.26,62.55L36.65,63.97L38.12,63.97L63.04,63.74L64.5,65.52L85.03,64.8L86.49,66.35L102.62,66.7L104.08,68.01L107.02,67.29L108.48,66.58L111.41,68.6L112.88,68.6L149.53,67.65L150.99,66.82L155.39,66.94L156.86,68.12L161.26,68.72L162.72,68.95L170.05,69.78L171.52,69.78L184.71,71.32L186.18,71.32L237.49,71.32L238.95,73.58L243.35,73.81" style="vector-effect: none; fill: none; stroke: rgb(238, 58, 67); stroke-opacity: 1; stroke-width: 5px; opacity: 1;"/></g><g class="points"/><g class="text"/></g></g></g><g class="overplot"/><path class="xlines-above crisp" d="M0,0" style="fill: none;"/><path class="ylines-above crisp" d="M0,0" style="fill: none;"/><g class="overlines-above"/><g class="xaxislayer-above"/><g class="yaxislayer-above"/><g class="overaxes-above"/></g></g><g class="polarlayer"/><g class="smithlayer"/><g class="ternarylayer"/><g class="geolayer"/><g class="funnelarealayer"/><g class="pielayer"/><g class="iciclelayer"/><g class="treemaplayer"/><g class="sunburstlayer"/><g class="glimages"/><defs id="topdefs-188096"><g class="clips"/></defs><g class="layer-above"><g class="imagelayer"/><g class="shapelayer"/></g><g class="infolayer"><g class="g-gtitle"><text class="gtitle" x="15" y="25" text-anchor="start" dy="0em" style="font-family: Ubuntu, verdana, arial, sans-serif; font-size: 16px; fill: rgb(233, 84, 32); opacity: 1; font-weight: normal; white-space: pre;">Prezident/ka 2024</text></g><g class="g-xtitle"/><g class="g-ytitle"/></g></svg>