<svg class="main-svg" xmlns="http://www.w3.org/2000/svg" xmlns:xlink="http://www.w3.org/1999/xlink" width="400" height="400" style="" viewBox="0 0 400 400"><rect x="0" y="0" width="400" height="400" style="fill: rgb(255, 255, 255); fill-opacity: 1;"/><defs id="defs-208599"><g class="clips"><clipPath id="clip208599xyplot" class="plotclip"><rect width="206" height="330"/></clipPath><clipPath class="axesclip" id="clip208599x"><rect x="50" y="0" width="206" height="400"/></clipPath><clipPath class="axesclip" id="clip208599y"><rect x="0" y="20" width="400" height="330"/></clipPath><clipPath class="axesclip" id="clip208599xy"><rect x="50" y="20" width="206" height="330"/></clipPath></g><g class="gradients"/><g class="patterns"/></defs><g class="bglayer"/><g class="layer-below"><g class="imagelayer"/><g class="shapelayer"/></g><g class="cartesianlayer"><g class="subplot xy"><g class="layer-subplot"><g class="shapelayer"/><g class="imagelayer"/></g><g class="minor-gridlayer"><g class="x"/><g class="y"/></g><g class="gridlayer"><g class="x"><path class="xgrid crisp" transform="translate(57.1,0)" d="M0,20v330" style="stroke: rgb(235, 240, 248); stroke-opacity: 1; stroke-width: 1px;"/><path class="xgrid crisp" transform="translate(101.14,0)" d="M0,20v330" style="stroke: rgb(235, 240, 248); stroke-opacity: 1; stroke-width: 1px;"/><path class="xgrid crisp" transform="translate(144.48000000000002,0)" d="M0,20v330" style="stroke: rgb(235, 240, 248); stroke-opacity: 1; stroke-width: 1px;"/><path class="xgrid crisp" transform="translate(187.81,0)" d="M0,20v330" style="stroke: rgb(235, 240, 248); stroke-opacity: 1; stroke-width: 1px;"/><path class="xgrid crisp" transform="translate(230.43,0)" d="M0,20v330" style="stroke: rgb(235, 240, 248); stroke-opacity: 1; stroke-width: 1px;"/></g><g class="y"><path class="ygrid crisp" transform="translate(0,305.66)" d="M50,0h206" style="stroke: rgb(235, 240, 248); stroke-opacity: 1; stroke-width: 1px;"/><path class="ygrid crisp" transform="translate(0,261.32)" d="M50,0h206" style="stroke: rgb(235, 240, 248); stroke-opacity: 1; stroke-width: 1px;"/><path class="ygrid crisp" transform="translate(0,216.97)" d="M50,0h206" style="stroke: rgb(235, 240, 248); stroke-opacity: 1; stroke-width: 1px;"/><path class="ygrid crisp" transform="translate(0,172.63)" d="M50,0h206" style="stroke: rgb(235, 240, 248); stroke-opacity: 1; stroke-width: 1px;"/><path class="ygrid crisp" transform="translate(0,128.29000000000002)" d="M50,0h206" style="stroke: rgb(235, 240, 248); stroke-opacity: 1; stroke-width: 1px;"/><path class="ygrid crisp" transform="translate(0,83.95)" d="M50,0h206" style="stroke: rgb(235, 240, 248); stroke-opacity: 1; stroke-width: 1px;"/><path class="ygrid crisp" transform="translate(0,39.6)" d="M50,0h206" style="stroke: rgb(235, 240, 248); stroke-opacity: 1; stroke-width: 1px;"/></g></g><g class="zerolinelayer"><path class="yzl zl crisp" transform="translate(0,350)" d="M50,0h206" style="stroke: rgb(235, 240, 248); stroke-opacity: 1; stroke-width: 2px;"/></g><path class="xlines-below"/><path class="ylines-below"/><g class="overlines-below"/><g class="xaxislayer-below"/><g class="yaxislayer-below"/><g class="overaxes-below"/><g class="plot" transform="translate(50,20)" clip-path="url(#clip208599xyplot)"><g class="scatterlayer mlayer"><g class="trace scatter trace182882" style="stroke-miterlimit: 2; opacity: 1;"><g class="fills"/><g class="errorbars"/><g class="lines"><path class="js-line" d="M0,237.32L2.13,225.8L2.84,225.8L4.26,225.8L4.97,228.9L7.1,223.58L7.81,223.58L9.94,223.58L10.66,222.25L12.79,222.25L13.5,220.92L15.63,220.03L16.34,220.03L17.76,217.37L18.47,217.37L26.28,217.37L26.99,214.27L30.54,214.27L31.26,195.64L39.78,195.64L41.2,208.5L41.91,205.84L43.33,205.84L49.01,204.95L49.72,214.71L51.14,219.59L51.86,217.81L52.57,216.04L53.28,220.03L59.67,220.03L60.38,218.26L61.09,218.26L61.8,220.03L62.51,218.26L63.22,219.59L63.93,218.26L71.74,217.37L72.46,208.5L73.88,212.05L74.59,212.05L75.3,211.16L76.01,196.53L77.43,187.66L78.14,187.66L78.85,185.44L79.56,170.81L80.98,162.39L81.69,162.39L83.11,162.39L83.82,159.73L86.66,145.98L87.37,145.98L91.63,146.42L92.34,147.31L93.06,147.31L93.77,151.74L99.45,151.74L100.16,145.54L100.87,145.54L101.58,134.89L104.42,134.89L105.13,122.92L109.39,122.92L110.1,115.83L111.52,113.17L112.23,113.17L115.08,104.3L115.79,89.22L117.21,89.22L117.92,81.68L119.34,63.5L120.05,63.5L125.02,63.5L125.73,70.15L127.15,73.26L127.86,73.26L128.57,75.03L129.28,82.13L129.99,84.79L130.7,83.01L131.41,79.91L137.1,79.02L137.81,81.24L138.52,80.35L139.23,65.72L141.36,50.64L142.07,51.97L142.78,57.29L143.49,54.19L144.2,45.77L144.91,45.77L145.62,47.98L147.04,53.3L147.75,57.29L148.46,57.74L149.17,72.81L149.88,78.14L150.59,72.81L151.3,75.03L152.01,73.26L152.72,66.16L153.43,64.39L154.14,66.61L155.57,67.94L156.28,65.28L159.12,49.31L159.83,49.31L160.54,51.09L161.25,56.41L161.96,57.29L162.67,53.75L163.38,53.3L164.09,56.41L166.22,90.11L166.93,89.22L167.64,89.22L168.35,89.66L169.06,93.66L169.77,94.99L170.48,94.1L171.19,89.22L173.32,97.2L174.03,91L176.17,63.95L176.88,63.5L177.59,53.75L178.3,54.19L179.01,53.75L179.72,51.53L180.43,54.63L181.85,61.73L182.56,62.17L183.27,61.73L183.98,59.51L187.53,54.19L188.24,49.76L189.66,45.32L190.37,33.35L193.21,24.04L193.92,21.38L194.63,16.5" style="vector-effect: none; fill: none; stroke: rgb(138, 44, 81); stroke-opacity: 1; stroke-width: 5px; opacity: 1;"/></g><g class="points"/><g class="text"/></g><g class="trace scatter trace207458" style="stroke-miterlimit: 2; opacity: 1;"><g class="fills"/><g class="errorbars"/><g class="lines"><path class="js-line" d="M0,136.67L2.13,142.88L2.84,142.88L4.26,142.88L4.97,145.98L7.1,139.33L7.81,139.33L13.5,140.21L14.21,141.1L16.34,141.1L17.05,143.32L41.2,143.32L41.91,155.73L47.59,155.73L48.3,153.52L49.01,151.74L49.72,141.55L51.14,126.47L51.86,130.46L52.57,134.45L53.28,121.15L59.67,121.15L60.38,127.8L61.09,127.8L61.8,121.15L62.51,127.8L63.22,119.82L64.64,118.04L65.35,126.47L66.77,118.04L67.48,118.04L68.19,118.04L68.9,126.47L69.61,126.47L70.32,118.04L71.74,126.47L72.46,118.49L73.88,128.69L74.59,128.69L75.3,128.69L76.01,131.35L78.14,131.35L78.85,133.56L80.98,144.21L81.69,144.21L84.53,144.21L85.24,145.54L88.08,145.98L88.79,145.98L90.92,145.98L91.63,147.31L93.77,151.74L95.19,151.74L100.16,152.19L100.87,150.41L102.29,154.85L103,154.85L109.39,153.96L110.1,161.06L111.52,162.83L112.23,162.83L115.08,170.37L115.79,161.94L117.21,161.94L117.92,166.38L119.34,172.14L120.05,172.14L125.02,172.14L125.73,165.93L127.15,162.39L127.86,162.39L128.57,160.61L129.28,150.41L129.99,147.31L130.7,148.2L131.41,149.53L137.1,149.53L137.81,147.31L138.52,147.31L139.23,158.84L141.36,172.58L142.07,171.25L143.49,162.39L144.2,170.81L144.91,170.81L145.62,168.59L147.04,163.27L147.75,159.28L148.46,158.84L149.17,143.76L149.88,138.44L150.59,143.76L151.3,141.55L152.01,143.32L152.72,150.41L153.43,152.19L154.14,149.97L155.57,148.64L156.28,151.3L159.12,167.26L159.83,167.26L160.54,165.49L161.25,160.17L161.96,159.28L162.67,162.83L163.38,163.27L164.09,160.17L166.22,126.47L166.93,127.36L167.64,127.36L168.35,126.91L169.06,122.92L169.77,121.59L170.48,122.48L171.19,127.36L173.32,119.37L174.03,125.58L176.17,152.63L176.88,153.07L177.59,162.83L178.3,162.39L179.01,162.83L179.72,165.05L180.43,161.94L181.85,154.85L182.56,154.4L183.27,154.85L183.98,157.07L187.53,162.39L188.24,166.82L189.66,171.25L190.37,183.23L193.21,192.54L193.92,195.2L194.63,200.08" style="vector-effect: none; fill: none; stroke: rgb(0, 174, 239); stroke-opacity: 1; stroke-width: 5px; opacity: 1;"/></g><g class="points"/><g class="text"/></g><g class="trace scatter trace16b609" style="stroke-miterlimit: 2; opacity: 1;"><g class="fills"/><g class="errorbars"/><g class="lines"><path class="js-line" d="M0,298.96L3.55,300.29L4.26,300.29L7.1,299.4L7.81,299.4L16.34,299.85L17.05,300.73L26.28,300.73L26.99,304.28L30.54,304.28L31.26,307.83L39.78,307.83L41.2,302.51L41.91,314.04L43.33,314.04L49.72,314.48L50.43,317.58L52.57,317.58L53.28,319.36L71.74,318.47L72.46,319.8L74.59,318.91L75.3,318.91L78.85,319.8L79.56,320.69L83.82,322.46L84.53,324.24L104.42,324.24" style="vector-effect: none; fill: none; stroke: rgb(255, 192, 203); stroke-opacity: 1; stroke-width: 5px; opacity: 1;"/></g><g class="points"/><g class="text"/></g><g class="trace scatter trace81968f" style="stroke-miterlimit: 2; opacity: 1;"><g class="fills"/><g class="errorbars"/><g class="lines"><path class="js-line" d="M0,294.97L3.55,295.86L4.26,295.86L4.97,289.65L5.68,298.07L7.1,303.39L7.81,303.39L26.28,302.51L26.99,302.06L30.54,302.06L31.26,304.28L41.2,303.39L41.91,305.17L51.14,305.61L51.86,307.39L52.57,309.16L53.28,306.06L59.67,306.06L60.38,307.39L61.09,307.39L61.8,306.06L63.93,308.72L64.64,308.72L66.77,308.72L67.48,308.72L71.74,309.16L72.46,310.49L76.01,310.49L76.72,311.38L79.56,312.26L80.27,313.59L84.53,316.25L85.24,317.14L86.66,318.47L87.37,318.47L104.42,318.47L105.13,322.91L115.08,323.35L115.79,324.68L117.92,325.57" style="vector-effect: none; fill: none; stroke: rgb(202, 166, 105); stroke-opacity: 1; stroke-width: 5px; opacity: 1;"/></g><g class="points"/><g class="text"/></g><g class="trace scatter traced75add" style="stroke-miterlimit: 2; opacity: 1;"><g class="fills"/><g class="errorbars"/><g class="lines"><path class="js-line" d="M0,285.21L2.13,286.54L2.84,286.54L4.26,286.54L4.97,289.65L7.1,284.33L7.81,284.33L30.54,285.21L31.26,290.54L39.78,290.54L41.2,286.99L41.91,258.17L43.33,258.17L47.59,258.17L48.3,259.5L51.14,263.49L51.86,262.16L52.57,260.38L53.28,263.93L59.67,263.93L60.38,262.16L61.09,262.16L61.8,263.93L62.51,262.16L63.22,264.82L64.64,266.59L65.35,263.49L66.77,266.59L67.48,266.59L68.19,266.59L68.9,263.49L69.61,263.49L70.32,266.59L71.74,263.49L72.46,276.35L73.88,267.48L74.59,267.48L75.3,267.92L76.01,274.57L77.43,279.89L78.14,279.89L78.85,278.56L79.56,283L81.69,283.88L82.4,283.88L85.24,283.88L85.95,285.66L90.92,285.66L91.63,283.88L93.77,273.69L95.19,273.69L99.45,273.69L100.16,279.45L100.87,281.22L101.58,287.43L104.42,287.43L105.13,290.98L113.66,291.87L114.37,292.31L115.08,292.31L115.79,306.06L117.21,306.06L117.92,307.83L119.34,310.49L120.05,310.49L128.57,310.49L129.28,314.48L130.7,315.37L131.41,317.14L137.81,318.03L138.52,318.91L140.65,323.35L141.36,323.35L142.78,324.24" style="vector-effect: none; fill: none; stroke: rgb(255, 1, 170); stroke-opacity: 1; stroke-width: 5px; opacity: 1;"/></g><g class="points"/><g class="text"/></g><g class="trace scatter trace71d85f" style="stroke-miterlimit: 2; opacity: 1;"><g class="fills"/><g class="errorbars"/><g class="lines"><path class="js-line" d="M0,283.44L2.84,285.21L3.55,285.21L4.26,285.21L4.97,283.44L5.68,283.88L6.39,286.1L12.79,286.54L13.5,287.87L15.63,288.76L16.34,288.76L30.54,287.87L31.26,294.53L39.78,294.53L41.2,291.87L41.91,297.63L43.33,297.63L48.3,298.07L49.01,298.96L49.72,298.96L50.43,303.84L51.14,303.84L51.86,301.18L52.57,298.52L53.28,306.06L59.67,306.06L60.38,302.51L61.09,302.51L61.8,306.06L62.51,302.51L63.22,305.61L64.64,305.61L65.35,302.06L66.77,305.61L67.48,305.61L68.19,305.61L68.9,302.06L69.61,302.06L70.32,305.61L71.74,302.06L72.46,302.51L73.88,299.4L74.59,299.4L75.3,299.85L76.01,304.28L77.43,306.5L78.14,306.5L81.69,310.49L82.4,310.49L83.82,311.38L84.53,313.15L87.37,316.25L88.08,316.25L115.08,316.25L115.79,324.68L117.92,325.57" style="vector-effect: none; fill: none; stroke: rgb(238, 58, 67); stroke-opacity: 1; stroke-width: 5px; opacity: 1;"/></g><g class="points"/><g class="text"/></g></g></g><g class="overplot"/><path class="xlines-above crisp" d="M0,0" style="fill: none;"/><path class="ylines-above crisp" d="M0,0" style="fill: none;"/><g class="overlines-above"/><g class="xaxislayer-above"><g class="xtick"><text text-anchor="middle" x="0" y="363" transform="translate(57.1,0)" style="font-family: 'Open Sans', verdana, arial, sans-serif; font-size: 12px; fill: rgb(42, 63, 95); fill-opacity: 1; white-space: pre; opacity: 1;">1.7.23</text></g><g class="xtick"><text text-anchor="middle" x="0" y="363" style="font-family: 'Open Sans', verdana, arial, sans-serif; font-size: 12px; fill: rgb(42, 63, 95); fill-opacity: 1; white-space: pre; opacity: 1;" transform="translate(101.14,0)">1.9.23</text></g><g class="xtick"><text text-anchor="middle" x="0" y="363" style="font-family: 'Open Sans', verdana, arial, sans-serif; font-size: 12px; fill: rgb(42, 63, 95); fill-opacity: 1; white-space: pre; opacity: 1;" transform="translate(144.48000000000002,0)">1.11.23</text></g><g class="xtick"><text text-anchor="middle" x="0" y="363" style="font-family: 'Open Sans', verdana, arial, sans-serif; font-size: 12px; fill: rgb(42, 63, 95); fill-opacity: 1; white-space: pre; opacity: 1;" transform="translate(187.81,0)">1.1.24</text></g><g class="xtick"><text text-anchor="middle" x="0" y="363" style="font-family: 'Open Sans', verdana, arial, sans-serif; font-size: 12px; fill: rgb(42, 63, 95); fill-opacity: 1; white-space: pre; opacity: 1;" transform="translate(230.43,0)">1.3.24</text></g></g><g class="yaxislayer-above"><g class="ytick"><text text-anchor="end" x="49" y="4.199999999999999" transform="translate(0,350)" style="font-family: 'Open Sans', verdana, arial, sans-serif; font-size: 12px; fill: rgb(42, 63, 95); fill-opacity: 1; white-space: pre; opacity: 1;">0%</text></g><g class="ytick"><text text-anchor="end" x="49" y="4.199999999999999" style="font-family: 'Open Sans', verdana, arial, sans-serif; font-size: 12px; fill: rgb(42, 63, 95); fill-opacity: 1; white-space: pre; opacity: 1;" transform="translate(0,305.66)">10%</text></g><g class="ytick"><text text-anchor="end" x="49" y="4.199999999999999" style="font-family: 'Open Sans', verdana, arial, sans-serif; font-size: 12px; fill: rgb(42, 63, 95); fill-opacity: 1; white-space: pre; opacity: 1;" transform="translate(0,261.32)">20%</text></g><g class="ytick"><text text-anchor="end" x="49" y="4.199999999999999" style="font-family: 'Open Sans', verdana, arial, sans-serif; font-size: 12px; fill: rgb(42, 63, 95); fill-opacity: 1; white-space: pre; opacity: 1;" transform="translate(0,216.97)">30%</text></g><g class="ytick"><text text-anchor="end" x="49" y="4.199999999999999" style="font-family: 'Open Sans', verdana, arial, sans-serif; font-size: 12px; fill: rgb(42, 63, 95); fill-opacity: 1; white-space: pre; opacity: 1;" transform="translate(0,172.63)">40%</text></g><g class="ytick"><text text-anchor="end" x="49" y="4.199999999999999" style="font-family: 'Open Sans', verdana, arial, sans-serif; font-size: 12px; fill: rgb(42, 63, 95); fill-opacity: 1; white-space: pre; opacity: 1;" transform="translate(0,128.29000000000002)">50%</text></g><g class="ytick"><text text-anchor="end" x="49" y="4.199999999999999" style="font-family: 'Open Sans', verdana, arial, sans-serif; font-size: 12px; fill: rgb(42, 63, 95); fill-opacity: 1; white-space: pre; opacity: 1;" transform="translate(0,83.95)">60%</text></g><g class="ytick"><text text-anchor="end" x="49" y="4.199999999999999" style="font-family: 'Open Sans', verdana, arial, sans-serif; font-size: 12px; fill: rgb(42, 63, 95); fill-opacity: 1; white-space: pre; opacity: 1;" transform="translate(0,39.6)">70%</text></g></g><g class="overaxes-above"/></g></g><g class="polarlayer"/><g class="smithlayer"/><g class="ternarylayer"/><g class="geolayer"/><g class="funnelarealayer"/><g class="pielayer"/><g class="iciclelayer"/><g class="treemaplayer"/><g class="sunburstlayer"/><g class="glimages"/><defs id="topdefs-208599"><g class="clips"/><clipPath id="legend208599"><rect width="128" height="124" x="0" y="0"/></clipPath></defs><g class="layer-above"><g class="imagelayer"/><g class="shapelayer"/></g><g class="infolayer"><g class="legend" pointer-events="all" transform="translate(260.12,20)"><rect class="bg" shape-rendering="crispEdges" width="128" height="124" x="0" y="0" style="stroke: rgb(68, 68, 68); stroke-opacity: 1; fill: rgb(255, 255, 255); fill-opacity: 1; stroke-width: 0px;"/><g class="scrollbox" transform="" clip-path="url(#legend208599)"><g class="groups"><g class="traces" transform="translate(0,14.5)" style="opacity: 1;"><text class="legendtext" text-anchor="start" x="40" y="4.680000000000001" style="font-family: 'Open Sans', verdana, arial, sans-serif; font-size: 12px; fill: rgb(42, 63, 95); fill-opacity: 1; white-space: pre;">Pellegrini Peter</text><g class="layers" style="opacity: 1;"><g class="legendfill"/><g class="legendlines"><path class="js-line" d="M5,0h30" style="fill: none; stroke: rgb(138, 44, 81); stroke-opacity: 1; stroke-width: 5px;"/></g><g class="legendsymbols"><g class="legendpoints"/></g></g><rect class="legendtoggle" x="0" y="-9.5" width="122.703125" height="19" style="fill: rgb(0, 0, 0); fill-opacity: 0;"/></g><g class="traces" transform="translate(0,33.5)" style="opacity: 1;"><text class="legendtext" text-anchor="start" x="40" y="4.680000000000001" style="font-family: 'Open Sans', verdana, arial, sans-serif; font-size: 12px; fill: rgb(42, 63, 95); fill-opacity: 1; white-space: pre;">Korčok Ivan</text><g class="layers" style="opacity: 1;"><g class="legendfill"/><g class="legendlines"><path class="js-line" d="M5,0h30" style="fill: none; stroke: rgb(0, 174, 239); stroke-opacity: 1; stroke-width: 5px;"/></g><g class="legendsymbols"><g class="legendpoints"/></g></g><rect class="legendtoggle" x="0" y="-9.5" width="122.703125" height="19" style="fill: rgb(0, 0, 0); fill-opacity: 0;"/></g><g class="traces" transform="translate(0,52.5)" style="opacity: 1;"><text class="legendtext" text-anchor="start" x="40" y="4.680000000000001" style="font-family: 'Open Sans', verdana, arial, sans-serif; font-size: 12px; fill: rgb(42, 63, 95); fill-opacity: 1; white-space: pre;">Lajčák Miroslav</text><g class="layers" style="opacity: 1;"><g class="legendfill"/><g class="legendlines"><path class="js-line" d="M5,0h30" style="fill: none; stroke: rgb(255, 192, 203); stroke-opacity: 1; stroke-width: 5px;"/></g><g class="legendsymbols"><g class="legendpoints"/></g></g><rect class="legendtoggle" x="0" y="-9.5" width="122.703125" height="19" style="fill: rgb(0, 0, 0); fill-opacity: 0;"/></g><g class="traces" transform="translate(0,71.5)" style="opacity: 1;"><text class="legendtext" text-anchor="start" x="40" y="4.680000000000001" style="font-family: 'Open Sans', verdana, arial, sans-serif; font-size: 12px; fill: rgb(42, 63, 95); fill-opacity: 1; white-space: pre;">Mistrík Robert</text><g class="layers" style="opacity: 1;"><g class="legendfill"/><g class="legendlines"><path class="js-line" d="M5,0h30" style="fill: none; stroke: rgb(202, 166, 105); stroke-opacity: 1; stroke-width: 5px;"/></g><g class="legendsymbols"><g class="legendpoints"/></g></g><rect class="legendtoggle" x="0" y="-9.5" width="122.703125" height="19" style="fill: rgb(0, 0, 0); fill-opacity: 0;"/></g><g class="traces" transform="translate(0,90.5)" style="opacity: 1;"><text class="legendtext" text-anchor="start" x="40" y="4.680000000000001" style="font-family: 'Open Sans', verdana, arial, sans-serif; font-size: 12px; fill: rgb(42, 63, 95); fill-opacity: 1; white-space: pre;">Kubiš Ján</text><g class="layers" style="opacity: 1;"><g class="legendfill"/><g class="legendlines"><path class="js-line" d="M5,0h30" style="fill: none; stroke: rgb(255, 1, 170); stroke-opacity: 1; stroke-width: 5px;"/></g><g class="legendsymbols"><g class="legendpoints"/></g></g><rect class="legendtoggle" x="0" y="-9.5" width="122.703125" height="19" style="fill: rgb(0, 0, 0); fill-opacity: 0;"/></g><g class="traces" transform="translate(0,109.5)" style="opacity: 1;"><text class="legendtext" text-anchor="start" x="40" y="4.680000000000001" style="font-family: 'Open Sans', verdana, arial, sans-serif; font-size: 12px; fill: rgb(42, 63, 95); fill-opacity: 1; white-space: pre;">Fico Robert</text><g class="layers" style="opacity: 1;"><g class="legendfill"/><g class="legendlines"><path class="js-line" d="M5,0h30" style="fill: none; stroke: rgb(238, 58, 67); stroke-opacity: 1; stroke-width: 5px;"/></g><g class="legendsymbols"><g class="legendpoints"/></g></g><rect class="legendtoggle" x="0" y="-9.5" width="122.703125" height="19" style="fill: rgb(0, 0, 0); fill-opacity: 0;"/></g></g></g><rect class="scrollbar" rx="20" ry="3" width="0" height="0" x="0" y="0" style="fill: rgb(128, 139, 164); fill-opacity: 1;"/></g><g class="g-gtitle"/><g class="g-xtitle"/><g class="g-ytitle"/></g></svg>