<svg class="main-svg" xmlns="http://www.w3.org/2000/svg" xmlns:xlink="http://www.w3.org/1999/xlink" width="300" height="135" style="" viewBox="0 0 300 135"><rect x="0" y="0" width="300" height="135" style="fill: rgb(255, 255, 255); fill-opacity: 1;"/><defs id="defs-caa554"><g class="clips"><clipPath id="clipcaa554xyplot" class="plotclip"><rect width="280" height="75"/></clipPath><clipPath class="axesclip" id="clipcaa554x"><rect x="10" y="0" width="280" height="135"/></clipPath><clipPath class="axesclip" id="clipcaa554y"><rect x="0" y="50" width="300" height="75"/></clipPath><clipPath class="axesclip" id="clipcaa554xy"><rect x="10" y="50" width="280" height="75"/></clipPath></g><g class="gradients"/><g class="patterns"/></defs><g class="bglayer"/><g class="layer-below"><g class="imagelayer"/><g class="shapelayer"/></g><g class="cartesianlayer"><g class="subplot xy"><g class="layer-subplot"><g class="shapelayer"/><g class="imagelayer"/></g><g class="minor-gridlayer"><g class="x"/><g class="y"/></g><g class="gridlayer"><g class="x"><path class="xgrid crisp" transform="translate(20.369999999999997,0)" d="M0,50v75" style="stroke: rgb(235, 240, 248); stroke-opacity: 1; stroke-width: 1px;"/><path class="xgrid crisp" transform="translate(84.67,0)" d="M0,50v75" style="stroke: rgb(235, 240, 248); stroke-opacity: 1; stroke-width: 1px;"/><path class="xgrid crisp" transform="translate(147.93,0)" d="M0,50v75" style="stroke: rgb(235, 240, 248); stroke-opacity: 1; stroke-width: 1px;"/><path class="xgrid crisp" transform="translate(211.19,0)" d="M0,50v75" style="stroke: rgb(235, 240, 248); stroke-opacity: 1; stroke-width: 1px;"/><path class="xgrid crisp" transform="translate(273.41,0)" d="M0,50v75" style="stroke: rgb(235, 240, 248); stroke-opacity: 1; stroke-width: 1px;"/></g><g class="y"><path class="ygrid crisp" transform="translate(0,103.97999999999999)" d="M10,0h280" style="stroke: rgb(235, 240, 248); stroke-opacity: 1; stroke-width: 1px;"/><path class="ygrid crisp" transform="translate(0,82.96000000000001)" d="M10,0h280" style="stroke: rgb(235, 240, 248); stroke-opacity: 1; stroke-width: 1px;"/><path class="ygrid crisp" transform="translate(0,61.95)" d="M10,0h280" style="stroke: rgb(235, 240, 248); stroke-opacity: 1; stroke-width: 1px;"/></g></g><g class="zerolinelayer"><path class="yzl zl crisp" transform="translate(0,125)" d="M10,0h280" style="stroke: rgb(235, 240, 248); stroke-opacity: 1; stroke-width: 2px;"/></g><path class="xlines-below"/><path class="ylines-below"/><g class="overlines-below"/><g class="xaxislayer-below"/><g class="yaxislayer-below"/><g class="overaxes-below"/><g class="plot" transform="translate(10,50)" clip-path="url(#clipcaa554xyplot)"><g class="scatterlayer mlayer"><g class="trace scatter trace1320ce" style="stroke-miterlimit: 2; opacity: 1;"><g class="fills"/><g class="errorbars"/><g class="lines"><path class="js-line" d="M0,53.04L3.11,50.3L4.15,50.3L8.3,50.51L9.33,49.78L23.85,48.94L24.89,48.31L44.59,47.57L45.63,43.16L58.07,43.16L60.15,46.21L63.26,45.58L64.3,45.58L71.56,45.37L72.59,47.68L74.67,48.83L75.7,48.41L76.74,47.99L77.78,48.94L104.74,48.31L105.78,46.21L107.85,47.05L108.89,47.05L109.93,46.84L110.96,43.37L113.04,41.27L114.07,41.27L115.11,40.74L116.15,37.27L118.22,35.28L119.26,35.28L122.37,34.65L123.41,33.7L126.52,31.39L127.56,31.39L135.85,31.7L136.89,32.75L145.19,32.75L146.22,31.28L147.26,31.28L148.3,28.76L152.44,28.76L153.48,25.92L159.7,25.92L160.74,24.24L166.96,21.51L168,21.51L170.07,17.94L171.11,17.94L172.15,16.15L173.19,11.84L182.52,11.84L183.56,13.42L186.67,14.15L187.7,14.57L189.78,16.89L190.81,16.47L193.93,15.73L194.96,15.73L202.22,15.84L203.26,12.37L205.33,8.9L206.37,8.79L209.48,9.63L210.52,7.64L213.63,8.58L214.67,9.42L216.74,10.48L217.78,14.05L218.81,15.31L219.85,14.05L221.93,14.15L222.96,12.47L225.04,12.58L226.07,12.68L228.15,12.26L229.19,11.42L232.3,8.48L233.33,8.48L236.44,10.37L237.48,9.53L239.56,10.16L240.59,12.26L242.67,18.15L243.7,17.94L246.81,18.99L247.85,19.3L249.93,17.94L250.96,19.09L253.04,19.83L254.07,18.36L257.19,11.95L258.22,11.84L260.3,9.63L261.33,9.53L263.41,9.74L264.44,11.42L269.63,10.69L270.67,10.06L273.78,9.63L274.81,8.58L276.89,7.53L277.93,4.7L280,3.75" style="vector-effect: none; fill: none; stroke: rgb(138, 44, 81); stroke-opacity: 1; stroke-width: 5px; opacity: 1;"/></g><g class="points"/><g class="text"/></g><g class="trace scatter tracec26178" style="stroke-miterlimit: 2; opacity: 1;"><g class="fills"/><g class="errorbars"/><g class="lines"><path class="js-line" d="M0,29.18L4.15,30.65L5.19,30.65L8.3,30.44L9.33,29.81L60.15,30.76L61.19,33.7L71.56,32.75L72.59,30.34L74.67,26.76L75.7,27.71L76.74,28.66L77.78,25.5L87.11,25.5L88.15,27.08L89.19,27.08L90.22,25.5L91.26,27.08L92.3,25.19L94.37,24.77L95.41,26.76L97.48,24.77L98.52,24.77L99.56,24.77L100.59,26.76L101.63,26.76L102.67,24.77L104.74,26.76L105.78,24.87L107.85,27.29L108.89,27.29L115.11,28.45L116.15,30.23L119.26,30.97L120.3,30.97L133.78,31.7L134.81,32.33L159.7,33.28L160.74,34.96L168,37.17L169.04,35.17L172.15,36.22L173.19,37.59L182.52,37.59L183.56,36.12L185.63,35.28L186.67,35.28L187.7,34.86L188.74,32.44L190.81,31.91L191.85,32.23L202.22,31.7L203.26,34.44L205.33,37.59L206.37,37.69L208.44,36.01L209.48,35.28L211.56,37.27L212.59,36.75L216.74,34.44L217.78,30.86L218.81,29.6L219.85,30.86L221.93,30.76L222.96,32.44L225.04,32.33L226.07,32.23L228.15,32.65L229.19,33.49L232.3,36.43L233.33,36.43L236.44,34.54L237.48,35.38L239.56,34.75L240.59,32.65L242.67,26.76L243.7,26.97L246.81,25.92L247.85,25.61L249.93,26.97L250.96,25.82L253.04,25.08L254.07,26.55L257.19,32.96L258.22,33.07L260.3,35.28L261.33,35.38L263.41,35.17L264.44,33.49L269.63,34.23L270.67,34.86L273.78,35.28L274.81,36.33L276.89,37.38L277.93,40.22L280,41.16" style="vector-effect: none; fill: none; stroke: rgb(0, 174, 239); stroke-opacity: 1; stroke-width: 5px; opacity: 1;"/></g><g class="points"/><g class="text"/></g><g class="trace scatter traceb929be" style="stroke-miterlimit: 2; opacity: 1;"><g class="fills"/><g class="errorbars"/><g class="lines"><path class="js-line" d="M0,66.7L6.22,66.91L7.26,65.44L9.33,68.69L10.37,68.69L74.67,69.22L75.7,69.64L77.78,69.33L78.81,69.33L110.96,70.38L112,70.59L123.41,71.74L124.44,71.95L129.63,72.27L130.67,72.27L168,73.42L169.04,73.74L172.15,73.95" style="vector-effect: none; fill: none; stroke: rgb(202, 166, 105); stroke-opacity: 1; stroke-width: 5px; opacity: 1;"/></g><g class="points"/><g class="text"/></g><g class="trace scatter trace3b1c62" style="stroke-miterlimit: 2; opacity: 1;"><g class="fills"/><g class="errorbars"/><g class="lines"><path class="js-line" d="M0,64.39L8.3,64.81L9.33,64.18L44.59,64.39L45.63,65.65L60.15,64.81L61.19,57.98L72.59,58.61L73.63,59.24L92.3,59.55L93.33,59.97L104.74,59.24L105.78,62.28L107.85,60.18L108.89,60.18L109.93,60.29L110.96,61.86L113.04,63.13L114.07,63.13L115.11,62.81L116.15,63.86L122.37,63.97L123.41,63.86L131.7,64.49L132.74,64.49L140,61.65L141.04,61.65L145.19,61.65L146.22,63.02L151.41,64.91L152.44,64.91L154.52,65.75L155.56,65.75L168,66.07L169.04,69.33L187.7,70.38L188.74,71.32L202.22,72.37L203.26,73.11L208.44,73.63" style="vector-effect: none; fill: none; stroke: rgb(255, 1, 170); stroke-opacity: 1; stroke-width: 5px; opacity: 1;"/></g><g class="points"/><g class="text"/></g><g class="trace scatter trace43a04c" style="stroke-miterlimit: 2; opacity: 1;"><g class="fills"/><g class="errorbars"/><g class="lines"><path class="js-line" d="M0,63.97L6.22,64.39L7.26,63.97L28,65.23L29.04,65.23L44.59,65.02L45.63,66.59L60.15,65.96L61.19,67.33L72.59,67.64L73.63,68.8L75.7,68.17L76.74,67.54L78.81,69.33L79.85,69.33L105.78,68.48L106.81,67.75L110.96,68.9L112,69.43L122.37,70.59L123.41,71.01L131.7,71.74L132.74,71.74L168,71.74L169.04,73.74L172.15,73.95" style="vector-effect: none; fill: none; stroke: rgb(238, 58, 67); stroke-opacity: 1; stroke-width: 5px; opacity: 1;"/></g><g class="points"/><g class="text"/></g></g></g><g class="overplot"/><path class="xlines-above crisp" d="M0,0" style="fill: none;"/><path class="ylines-above crisp" d="M0,0" style="fill: none;"/><g class="overlines-above"/><g class="xaxislayer-above"/><g class="yaxislayer-above"/><g class="overaxes-above"/></g></g><g class="polarlayer"/><g class="smithlayer"/><g class="ternarylayer"/><g class="geolayer"/><g class="funnelarealayer"/><g class="pielayer"/><g class="iciclelayer"/><g class="treemaplayer"/><g class="sunburstlayer"/><g class="glimages"/><defs id="topdefs-caa554"><g class="clips"/></defs><g class="layer-above"><g class="imagelayer"/><g class="shapelayer"/></g><g class="infolayer"><g class="g-gtitle"><text class="gtitle" x="15" y="25" text-anchor="start" dy="0em" style="font-family: Ubuntu, verdana, arial, sans-serif; font-size: 16px; fill: rgb(233, 84, 32); opacity: 1; font-weight: normal; white-space: pre;">Prezident/ka 2024</text></g><g class="g-xtitle"/><g class="g-ytitle"/></g></svg>