<svg class="main-svg" xmlns="http://www.w3.org/2000/svg" xmlns:xlink="http://www.w3.org/1999/xlink" width="300" height="135" style="" viewBox="0 0 300 135"><rect x="0" y="0" width="300" height="135" style="fill: rgb(255, 255, 255); fill-opacity: 1;"/><defs id="defs-b08dd5"><g class="clips"><clipPath id="clipb08dd5xyplot" class="plotclip"><rect width="280" height="75"/></clipPath><clipPath class="axesclip" id="clipb08dd5x"><rect x="10" y="0" width="280" height="135"/></clipPath><clipPath class="axesclip" id="clipb08dd5y"><rect x="0" y="50" width="300" height="75"/></clipPath><clipPath class="axesclip" id="clipb08dd5xy"><rect x="10" y="50" width="280" height="75"/></clipPath></g><g class="gradients"/><g class="patterns"/></defs><g class="bglayer"/><g class="layer-below"><g class="imagelayer"/><g class="shapelayer"/></g><g class="cartesianlayer"><g class="subplot xy"><g class="layer-subplot"><g class="shapelayer"/><g class="imagelayer"/></g><g class="minor-gridlayer"><g class="x"/><g class="y"/></g><g class="gridlayer"><g class="x"><path class="xgrid crisp" transform="translate(26.97,0)" d="M0,50v75" style="stroke: rgb(235, 240, 248); stroke-opacity: 1; stroke-width: 1px;"/><path class="xgrid crisp" transform="translate(132.18,0)" d="M0,50v75" style="stroke: rgb(235, 240, 248); stroke-opacity: 1; stroke-width: 1px;"/><path class="xgrid crisp" transform="translate(235.7,0)" d="M0,50v75" style="stroke: rgb(235, 240, 248); stroke-opacity: 1; stroke-width: 1px;"/></g><g class="y"><path class="ygrid crisp" transform="translate(0,98.75999999999999)" d="M10,0h280" style="stroke: rgb(235, 240, 248); stroke-opacity: 1; stroke-width: 1px;"/><path class="ygrid crisp" transform="translate(0,72.51)" d="M10,0h280" style="stroke: rgb(235, 240, 248); stroke-opacity: 1; stroke-width: 1px;"/></g></g><g class="zerolinelayer"><path class="yzl zl crisp" transform="translate(0,125)" d="M10,0h280" style="stroke: rgb(235, 240, 248); stroke-opacity: 1; stroke-width: 2px;"/></g><path class="xlines-below"/><path class="ylines-below"/><g class="overlines-below"/><g class="xaxislayer-below"/><g class="yaxislayer-below"/><g class="overaxes-below"/><g class="plot" transform="translate(10,50)" clip-path="url(#clipb08dd5xyplot)"><g class="scatterlayer mlayer"><g class="trace scatter trace737cb6" style="stroke-miterlimit: 2; opacity: 1;"><g class="fills"/><g class="errorbars"/><g class="lines"><path class="js-line" d="M0,47.58L5.09,44.16L6.79,44.16L13.58,44.43L15.27,43.51L39.03,42.46L40.73,41.67L72.97,40.75L74.67,35.24L95.03,35.24L98.42,39.05L100.12,38.26L103.52,38.26L117.09,38L118.79,40.88L122.18,42.33L123.88,41.8L125.58,41.28L127.27,42.46L171.39,41.67L173.09,39.05L176.48,40.1L178.18,40.1L179.88,39.83L181.58,35.5L183.27,32.88L184.97,32.88L188.36,32.22L190.06,27.89L193.45,25.4L195.15,25.4L200.24,24.61L201.94,23.43L207.03,20.55L208.73,20.55L222.3,20.94L224,22.25L237.58,22.25L239.27,20.41L240.97,20.41L242.67,17.27L249.45,17.27L251.15,13.72L261.33,13.72L263.03,11.62L266.42,10.84L268.12,10.84L274.91,8.21L276.61,3.75L280,3.75" style="vector-effect: none; fill: none; stroke: rgb(138, 44, 81); stroke-opacity: 1; stroke-width: 5px; opacity: 1;"/></g><g class="points"/><g class="text"/></g><g class="trace scatter trace5d1502" style="stroke-miterlimit: 2; opacity: 1;"><g class="fills"/><g class="errorbars"/><g class="lines"><path class="js-line" d="M0,17.79L5.09,19.63L6.79,19.63L13.58,19.36L15.27,18.58L72.97,19.76L74.67,19.89L98.42,19.76L100.12,23.43L117.09,22.25L118.79,19.23L120.48,14.77L122.18,14.77L125.58,17.13L127.27,13.2L142.55,13.2L144.24,15.17L145.94,15.17L147.64,13.2L149.33,15.17L151.03,12.8L154.42,12.28L156.12,14.77L157.82,12.28L159.52,12.28L162.91,12.28L164.61,14.77L166.3,14.77L168,12.28L169.7,14.77L171.39,14.77L173.09,12.41L174.79,15.43L186.67,16.22L188.36,16.87L191.76,19.89L193.45,20.02L218.91,20.94L220.61,21.73L240.97,21.86L242.67,23.17L261.33,22.91L263.03,25.01L274.91,27.76L276.61,25.27L280,25.27" style="vector-effect: none; fill: none; stroke: rgb(0, 174, 239); stroke-opacity: 1; stroke-width: 5px; opacity: 1;"/></g><g class="points"/><g class="text"/></g><g class="trace scatter trace465c52" style="stroke-miterlimit: 2; opacity: 1;"><g class="fills"/><g class="errorbars"/><g class="lines"><path class="js-line" d="M0,61.75L11.88,63.06L13.58,62.27L16.97,61.48L18.67,61.48L72.97,61.75L74.67,63.32L98.42,62.27L100.12,53.74L118.79,54.53L120.48,55.32L149.33,54.92L151.03,55.71L154.42,56.24L156.12,55.32L159.52,56.24L161.21,56.24L171.39,55.32L173.09,59.12L174.79,56.5L176.48,56.5L179.88,56.63L181.58,58.6L184.97,60.17L186.67,60.17L188.36,59.78L190.06,61.09L198.55,61.35L200.24,61.22L207.03,61.88L208.73,61.88L218.91,61.35L220.61,60.17L222.3,60.17L224,58.34L237.58,58.34L239.27,60.04L246.06,62.4L247.76,62.4L269.82,63.58L271.52,63.72L274.91,63.85L276.61,67.91L280,67.91" style="vector-effect: none; fill: none; stroke: rgb(255, 1, 170); stroke-opacity: 1; stroke-width: 5px; opacity: 1;"/></g><g class="points"/><g class="text"/></g><g class="trace scatter trace99067e" style="stroke-miterlimit: 2; opacity: 1;"><g class="fills"/><g class="errorbars"/><g class="lines"><path class="js-line" d="M0,61.22L10.18,61.75L11.88,61.22L40.73,62.8L42.42,62.8L72.97,62.53L74.67,64.5L98.42,63.72L100.12,65.42L118.79,65.81L120.48,67.26L123.88,66.47L125.58,65.68L127.27,67.91L128.97,67.91L173.09,66.86L174.79,65.95L179.88,66.08L181.58,67.39L186.67,68.05L188.36,68.31L196.85,69.23L198.55,69.23L212.12,70.93L213.82,70.93L274.91,70.93L276.61,73.43L280,73.43" style="vector-effect: none; fill: none; stroke: rgb(238, 58, 67); stroke-opacity: 1; stroke-width: 5px; opacity: 1;"/></g><g class="points"/><g class="text"/></g><g class="trace scatter traceaf5a56" style="stroke-miterlimit: 2; opacity: 1;"><g class="fills"/><g class="errorbars"/><g class="lines"><path class="js-line" d="M0,64.63L10.18,64.9L11.88,63.06L15.27,67.13L16.97,67.13L122.18,67.78L123.88,68.31L125.58,68.83L127.27,67.91L171.39,68.83L173.09,69.23L198.55,70.28L200.24,70.54L208.73,71.59L210.42,71.59L249.45,71.59L251.15,72.9L280,73.43" style="vector-effect: none; fill: none; stroke: rgb(202, 166, 105); stroke-opacity: 1; stroke-width: 5px; opacity: 1;"/></g><g class="points"/><g class="text"/></g></g></g><g class="overplot"/><path class="xlines-above crisp" d="M0,0" style="fill: none;"/><path class="ylines-above crisp" d="M0,0" style="fill: none;"/><g class="overlines-above"/><g class="xaxislayer-above"/><g class="yaxislayer-above"/><g class="overaxes-above"/></g></g><g class="polarlayer"/><g class="smithlayer"/><g class="ternarylayer"/><g class="geolayer"/><g class="funnelarealayer"/><g class="pielayer"/><g class="iciclelayer"/><g class="treemaplayer"/><g class="sunburstlayer"/><g class="glimages"/><defs id="topdefs-b08dd5"><g class="clips"/></defs><g class="layer-above"><g class="imagelayer"/><g class="shapelayer"/></g><g class="infolayer"><g class="g-gtitle"><text class="gtitle" x="15" y="25" text-anchor="start" dy="0em" style="font-family: Ubuntu, verdana, arial, sans-serif; font-size: 16px; fill: rgb(233, 84, 32); opacity: 1; font-weight: normal; white-space: pre;">Prezident/ka 2024</text></g><g class="g-xtitle"/><g class="g-ytitle"/></g></svg>