<svg class="main-svg" xmlns="http://www.w3.org/2000/svg" xmlns:xlink="http://www.w3.org/1999/xlink" width="300" height="135" style="" viewBox="0 0 300 135"><rect x="0" y="0" width="300" height="135" style="fill: rgb(255, 255, 255); fill-opacity: 1;"/><defs id="defs-234c73"><g class="clips"><clipPath id="clip234c73xyplot" class="plotclip"><rect width="280" height="75"/></clipPath><clipPath class="axesclip" id="clip234c73x"><rect x="10" y="0" width="280" height="135"/></clipPath><clipPath class="axesclip" id="clip234c73y"><rect x="0" y="50" width="300" height="75"/></clipPath><clipPath class="axesclip" id="clip234c73xy"><rect x="10" y="50" width="280" height="75"/></clipPath></g><g class="gradients"/><g class="patterns"/></defs><g class="bglayer"/><g class="layer-below"><g class="imagelayer"/><g class="shapelayer"/></g><g class="cartesianlayer"><g class="subplot xy"><g class="layer-subplot"><g class="shapelayer"/><g class="imagelayer"/></g><g class="minor-gridlayer"><g class="x"/><g class="y"/></g><g class="gridlayer"><g class="x"><path class="xgrid crisp" transform="translate(20.07,0)" d="M0,50v75" style="stroke: rgb(235, 240, 248); stroke-opacity: 1; stroke-width: 1px;"/><path class="xgrid crisp" transform="translate(82.52,0)" d="M0,50v75" style="stroke: rgb(235, 240, 248); stroke-opacity: 1; stroke-width: 1px;"/><path class="xgrid crisp" transform="translate(143.96,0)" d="M0,50v75" style="stroke: rgb(235, 240, 248); stroke-opacity: 1; stroke-width: 1px;"/><path class="xgrid crisp" transform="translate(205.4,0)" d="M0,50v75" style="stroke: rgb(235, 240, 248); stroke-opacity: 1; stroke-width: 1px;"/><path class="xgrid crisp" transform="translate(265.83000000000004,0)" d="M0,50v75" style="stroke: rgb(235, 240, 248); stroke-opacity: 1; stroke-width: 1px;"/></g><g class="y"><path class="ygrid crisp" transform="translate(0,105.03999999999999)" d="M10,0h280" style="stroke: rgb(235, 240, 248); stroke-opacity: 1; stroke-width: 1px;"/><path class="ygrid crisp" transform="translate(0,85.08)" d="M10,0h280" style="stroke: rgb(235, 240, 248); stroke-opacity: 1; stroke-width: 1px;"/><path class="ygrid crisp" transform="translate(0,65.13)" d="M10,0h280" style="stroke: rgb(235, 240, 248); stroke-opacity: 1; stroke-width: 1px;"/></g></g><g class="zerolinelayer"><path class="yzl zl crisp" transform="translate(0,125)" d="M10,0h280" style="stroke: rgb(235, 240, 248); stroke-opacity: 1; stroke-width: 2px;"/></g><path class="xlines-below"/><path class="ylines-below"/><g class="overlines-below"/><g class="xaxislayer-below"/><g class="yaxislayer-below"/><g class="overaxes-below"/><g class="plot" transform="translate(10,50)" clip-path="url(#clip234c73xyplot)"><g class="scatterlayer mlayer"><g class="trace scatter tracebb3059" style="stroke-miterlimit: 2; opacity: 1;"><g class="fills"/><g class="errorbars"/><g class="lines"><path class="js-line" d="M0,31.49L4.03,32.89L5.04,32.89L8.06,32.69L9.06,32.09L58.42,32.99L59.42,35.78L69.5,34.88L70.5,32.59L72.52,29.2L73.53,30.09L74.53,30.99L75.54,28L84.6,28L85.61,29.5L86.62,29.5L87.63,28L88.63,29.5L89.64,27.7L91.65,27.3L92.66,29.2L94.68,27.3L95.68,27.3L96.69,27.3L97.7,29.2L98.71,29.2L99.71,27.3L101.73,29.2L102.73,27.4L104.75,29.7L105.76,29.7L111.8,30.79L112.81,32.49L115.83,33.19L116.83,33.19L129.93,33.89L130.94,34.49L155.11,35.38L156.12,36.98L163.17,39.08L164.17,37.18L167.19,38.18L168.2,39.47L177.27,39.47L178.27,38.08L181.29,37.28L182.3,36.88L184.32,33.89L185.32,34.09L190.36,34.39L191.37,34.39L196.4,33.89L197.41,36.48L200.43,39.57L201.44,39.28L203.45,37.28L204.46,39.18L207.48,38.28L208.49,37.48L210.5,36.48L211.51,33.09L212.52,31.89L213.53,33.09L215.54,32.99L216.55,34.59L218.56,34.49L219.57,34.39L221.58,34.78L222.59,35.58L225.61,38.38L226.62,38.38L229.64,36.58L230.65,37.38L232.66,36.78L233.67,34.78L235.68,29.2L236.69,29.4L239.71,28.4L240.72,28.1L242.73,29.4L243.74,28.3L245.76,27.6L246.76,29L249.78,35.08L250.79,35.18L252.81,37.28L253.81,37.38L255.83,37.18L256.83,35.58L261.87,36.28L262.88,36.88L265.9,37.28L266.91,38.28L268.92,39.28L269.93,41.97L273.96,44.07L274.96,44.66L276.98,46.46L277.99,43.77L280,23.81" style="vector-effect: none; fill: none; stroke: rgb(0, 174, 239); stroke-opacity: 1; stroke-width: 5px; opacity: 1;"/></g><g class="points"/><g class="text"/></g><g class="trace scatter traceda37c9" style="stroke-miterlimit: 2; opacity: 1;"><g class="fills"/><g class="errorbars"/><g class="lines"><path class="js-line" d="M0,54.14L3.02,51.55L4.03,51.55L14.1,51.05L15.11,50.75L37.27,49.65L38.27,48.95L43.31,48.95L44.32,44.76L56.4,44.76L58.42,47.66L61.44,47.06L62.45,47.06L69.5,46.86L70.5,49.05L72.52,50.15L73.53,49.75L75.54,50.25L76.55,50.25L101.73,49.65L102.73,47.66L104.75,48.46L105.76,48.46L106.76,48.26L107.77,44.96L109.78,42.97L110.79,42.97L111.8,42.47L112.81,39.18L114.82,37.28L115.83,37.28L118.85,36.68L119.86,35.78L122.88,33.59L123.88,33.59L131.94,33.89L132.95,34.88L141.01,34.88L142.01,33.49L143.02,33.49L144.03,31.09L148.06,31.09L149.06,28.4L155.11,28.4L156.12,26.8L162.16,24.21L163.17,24.21L165.18,20.81L166.19,20.81L169.21,15.03L170.22,15.03L177.27,15.03L178.27,16.52L181.29,17.22L182.3,17.62L184.32,19.82L185.32,19.42L188.35,18.72L189.35,18.72L196.4,18.82L197.41,15.53L199.42,12.23L200.43,12.13L203.45,12.93L204.46,11.03L207.48,11.93L208.49,12.73L210.5,13.73L211.51,17.12L212.52,18.32L213.53,17.12L215.54,17.22L216.55,15.63L218.56,15.72L219.57,15.82L221.58,15.43L222.59,14.63L225.61,11.83L226.62,11.83L229.64,13.63L230.65,12.83L232.66,13.43L233.67,15.43L235.68,21.01L236.69,20.81L239.71,21.81L240.72,22.11L242.73,20.81L243.74,21.91L245.76,22.61L246.76,21.21L249.78,15.13L250.79,15.03L252.81,12.93L253.81,12.83L255.83,13.03L256.83,14.63L261.87,13.93L262.88,13.33L265.9,12.93L266.91,11.93L268.92,10.93L269.93,8.24L273.96,6.14L274.96,5.55L276.98,3.75L277.99,6.44L280,26.4" style="vector-effect: none; fill: none; stroke: rgb(138, 44, 81); stroke-opacity: 1; stroke-width: 5px; opacity: 1;"/></g><g class="points"/><g class="text"/></g><g class="trace scatter traceb56440" style="stroke-miterlimit: 2; opacity: 1;"><g class="fills"/><g class="errorbars"/><g class="lines"><path class="js-line" d="M0,64.52L6.04,64.92L7.05,64.52L27.19,65.72L28.2,65.72L43.31,65.52L44.32,67.02L58.42,66.42L59.42,67.72L70.5,68.01L71.51,69.11L74.53,67.91L75.54,69.61L102.73,68.81L103.74,68.11L107.77,69.21L108.78,69.71L118.85,70.81L119.86,71.21L127.91,71.91L128.92,71.91L163.17,71.91L164.17,73.8L167.19,74" style="vector-effect: none; fill: none; stroke: rgb(238, 58, 67); stroke-opacity: 1; stroke-width: 5px; opacity: 1;"/></g><g class="points"/><g class="text"/></g><g class="trace scatter trace7c8baa" style="stroke-miterlimit: 2; opacity: 1;"><g class="fills"/><g class="errorbars"/><g class="lines"><path class="js-line" d="M0,68.01L12.09,68.11L13.09,68.11L43.31,69.21L44.32,70.01L58.42,68.81L59.42,71.41L101.73,72.41L102.73,72.7L109.78,72.61L110.79,72.61L132.95,73.7L134.96,73.7L148.06,73.7" style="vector-effect: none; fill: none; stroke: rgb(255, 192, 203); stroke-opacity: 1; stroke-width: 5px; opacity: 1;"/></g><g class="points"/><g class="text"/></g><g class="trace scatter traceef68cd" style="stroke-miterlimit: 2; opacity: 1;"><g class="fills"/><g class="errorbars"/><g class="lines"><path class="js-line" d="M0,64.92L8.06,65.32L9.06,64.72L43.31,64.92L44.32,66.12L58.42,65.32L59.42,58.83L74.53,59.33L75.54,60.13L101.73,60.03L102.73,62.93L104.75,60.93L105.76,60.93L106.76,61.03L107.77,62.53L109.78,63.72L110.79,63.72L112.81,64.42L113.81,64.62L129.93,64.62L130.94,63.72L131.94,63.72L132.95,62.33L141.01,62.33L142.01,63.62L147.05,65.42L148.06,65.42L150.07,66.22L151.08,66.22L163.17,66.52L164.17,69.61L182.3,70.61L183.31,71.51L196.4,72.51L197.41,73.2L202.45,73.7" style="vector-effect: none; fill: none; stroke: rgb(255, 1, 170); stroke-opacity: 1; stroke-width: 5px; opacity: 1;"/></g><g class="points"/><g class="text"/></g></g></g><g class="overplot"/><path class="xlines-above crisp" d="M0,0" style="fill: none;"/><path class="ylines-above crisp" d="M0,0" style="fill: none;"/><g class="overlines-above"/><g class="xaxislayer-above"/><g class="yaxislayer-above"/><g class="overaxes-above"/></g></g><g class="polarlayer"/><g class="smithlayer"/><g class="ternarylayer"/><g class="geolayer"/><g class="funnelarealayer"/><g class="pielayer"/><g class="iciclelayer"/><g class="treemaplayer"/><g class="sunburstlayer"/><g class="glimages"/><defs id="topdefs-234c73"><g class="clips"/></defs><g class="layer-above"><g class="imagelayer"/><g class="shapelayer"/></g><g class="infolayer"><g class="g-gtitle"><text class="gtitle" x="15" y="25" text-anchor="start" dy="0em" style="font-family: Ubuntu, verdana, arial, sans-serif; font-size: 16px; fill: rgb(233, 84, 32); opacity: 1; font-weight: normal; white-space: pre;">Prezident/ka 2024</text></g><g class="g-xtitle"/><g class="g-ytitle"/></g></svg>