<svg class="main-svg" xmlns="http://www.w3.org/2000/svg" xmlns:xlink="http://www.w3.org/1999/xlink" width="400" height="400" style="" viewBox="0 0 400 400"><rect x="0" y="0" width="400" height="400" style="fill: rgb(255, 255, 255); fill-opacity: 1;"/><defs id="defs-6b7d1d"><g class="clips"><clipPath id="clip6b7d1dxyplot" class="plotclip"><rect width="206" height="330"/></clipPath><clipPath class="axesclip" id="clip6b7d1dx"><rect x="50" y="0" width="206" height="400"/></clipPath><clipPath class="axesclip" id="clip6b7d1dy"><rect x="0" y="20" width="400" height="330"/></clipPath><clipPath class="axesclip" id="clip6b7d1dxy"><rect x="50" y="20" width="206" height="330"/></clipPath></g><g class="gradients"/><g class="patterns"/></defs><g class="bglayer"/><g class="layer-below"><g class="imagelayer"/><g class="shapelayer"/></g><g class="cartesianlayer"><g class="subplot xy"><g class="layer-subplot"><g class="shapelayer"/><g class="imagelayer"/></g><g class="minor-gridlayer"><g class="x"/><g class="y"/></g><g class="gridlayer"><g class="x"><path class="xgrid crisp" transform="translate(56.87,0)" d="M0,20v330" style="stroke: rgb(235, 240, 248); stroke-opacity: 1; stroke-width: 1px;"/><path class="xgrid crisp" transform="translate(99.44,0)" d="M0,20v330" style="stroke: rgb(235, 240, 248); stroke-opacity: 1; stroke-width: 1px;"/><path class="xgrid crisp" transform="translate(141.32999999999998,0)" d="M0,20v330" style="stroke: rgb(235, 240, 248); stroke-opacity: 1; stroke-width: 1px;"/><path class="xgrid crisp" transform="translate(183.21,0)" d="M0,20v330" style="stroke: rgb(235, 240, 248); stroke-opacity: 1; stroke-width: 1px;"/><path class="xgrid crisp" transform="translate(224.41,0)" d="M0,20v330" style="stroke: rgb(235, 240, 248); stroke-opacity: 1; stroke-width: 1px;"/></g><g class="y"><path class="ygrid crisp" transform="translate(0,284.69)" d="M50,0h206" style="stroke: rgb(235, 240, 248); stroke-opacity: 1; stroke-width: 1px;"/><path class="ygrid crisp" transform="translate(0,219.38)" d="M50,0h206" style="stroke: rgb(235, 240, 248); stroke-opacity: 1; stroke-width: 1px;"/><path class="ygrid crisp" transform="translate(0,154.06)" d="M50,0h206" style="stroke: rgb(235, 240, 248); stroke-opacity: 1; stroke-width: 1px;"/><path class="ygrid crisp" transform="translate(0,88.75)" d="M50,0h206" style="stroke: rgb(235, 240, 248); stroke-opacity: 1; stroke-width: 1px;"/><path class="ygrid crisp" transform="translate(0,23.44)" d="M50,0h206" style="stroke: rgb(235, 240, 248); stroke-opacity: 1; stroke-width: 1px;"/></g></g><g class="zerolinelayer"><path class="yzl zl crisp" transform="translate(0,350)" d="M50,0h206" style="stroke: rgb(235, 240, 248); stroke-opacity: 1; stroke-width: 2px;"/></g><path class="xlines-below"/><path class="ylines-below"/><g class="overlines-below"/><g class="xaxislayer-below"/><g class="yaxislayer-below"/><g class="overaxes-below"/><g class="plot" transform="translate(50,20)" clip-path="url(#clip6b7d1dxyplot)"><g class="scatterlayer mlayer"><g class="trace scatter trace7b7a8b" style="stroke-miterlimit: 2; opacity: 1;"><g class="fills"/><g class="errorbars"/><g class="lines"><path class="js-line" d="M0,193.5L2.06,176.52L2.75,176.52L4.12,176.52L4.81,181.09L6.87,173.25L7.55,173.25L9.61,173.25L10.3,171.29L12.36,171.29L13.05,169.33L15.11,168.03L15.79,168.03L17.17,164.11L17.85,164.11L25.41,164.11L26.09,159.53L29.53,159.53L30.21,132.1L38.45,132.1L39.83,151.04L40.51,147.12L41.89,147.12L46.69,146.47L47.38,145.82L49.44,167.37L50.13,164.76L50.81,162.15L51.5,168.03L57.68,168.03L58.37,165.41L59.05,165.41L59.74,168.03L60.43,165.41L61.11,167.37L61.8,165.41L62.49,165.41L63.17,164.11L65.23,165.41L65.92,165.41L67.29,164.11L67.98,165.41L69.35,164.11L70.04,151.04L71.41,156.27L72.1,156.27L72.79,154.96L73.47,133.41L74.85,120.35L75.53,120.35L76.22,117.08L76.91,95.53L78.97,83.12L79.65,83.12L80.34,83.12L81.03,79.2L83.77,58.95L84.46,58.95L88.58,59.61L89.27,60.91L89.95,60.91L90.64,67.44L96.13,67.44L96.82,58.3L97.51,58.3L98.19,42.63L100.94,42.63L101.63,24.99L105.75,24.99L106.43,16.5" style="vector-effect: none; fill: none; stroke: rgb(138, 44, 81); stroke-opacity: 1; stroke-width: 5px; opacity: 1;"/></g><g class="points"/><g class="text"/></g><g class="trace scatter trace1d19c0" style="stroke-miterlimit: 2; opacity: 1;"><g class="fills"/><g class="errorbars"/><g class="lines"><path class="js-line" d="M0,45.24L2.06,54.38L2.75,54.38L4.12,54.38L4.81,58.95L6.87,49.16L7.55,49.16L12.36,49.16L13.05,50.46L15.11,51.77L15.79,51.77L17.17,55.03L17.85,55.03L39.83,55.03L40.51,73.32L46.01,73.32L46.69,70.06L47.38,67.44L48.07,52.42L49.44,30.22L50.13,36.09L50.81,41.97L51.5,22.38L57.68,22.38L58.37,32.18L59.05,32.18L59.74,22.38L60.43,32.18L61.11,20.42L62.49,17.81L63.17,30.22L64.55,17.81L65.23,17.81L65.92,17.81L66.61,30.22L67.29,30.22L67.98,17.81L69.35,30.22L70.04,18.46L71.41,33.48L72.1,33.48L72.79,33.48L73.47,37.4L75.53,37.4L76.22,40.67L78.28,56.34L78.97,56.34L81.71,56.34L82.4,58.3L84.46,58.95L85.15,58.95L87.89,58.95L88.58,60.91L90.64,67.44L92.01,67.44L96.82,68.1L97.51,65.48L98.88,72.02L99.57,72.02L100.94,72.02L101.63,70.71L105.75,70.71L106.43,79.85" style="vector-effect: none; fill: none; stroke: rgb(0, 174, 239); stroke-opacity: 1; stroke-width: 5px; opacity: 1;"/></g><g class="points"/><g class="text"/></g><g class="trace scatter tracea74402" style="stroke-miterlimit: 2; opacity: 1;"><g class="fills"/><g class="errorbars"/><g class="lines"><path class="js-line" d="M0,264.03L2.06,265.99L2.75,265.99L4.12,265.99L4.81,270.57L6.87,262.73L7.55,262.73L9.61,262.73L10.3,264.03L13.05,263.38L13.73,262.73L25.41,262.73L26.09,264.03L29.53,264.03L30.21,271.87L38.45,271.87L39.83,266.65L40.51,224.19L41.89,224.19L46.01,224.19L46.69,226.15L49.44,232.03L50.13,230.07L50.81,227.46L51.5,232.68L57.68,232.68L58.37,230.07L59.05,230.07L59.74,232.68L60.43,230.07L61.11,233.99L62.49,236.6L63.17,232.03L64.55,236.6L65.23,236.6L65.92,236.6L66.61,232.03L67.29,232.03L67.98,236.6L69.35,232.03L70.04,250.97L71.41,237.91L72.1,237.91L72.79,238.56L73.47,248.36L74.85,256.2L75.53,256.2L76.22,254.24L76.91,260.77L78.97,262.08L79.65,262.08L81.03,261.42L81.71,260.77L84.46,264.69L85.15,264.69L87.89,264.69L88.58,262.08L90.64,247.05L92.01,247.05L96.13,247.05L96.82,255.54L97.51,258.16L98.19,267.3L100.94,267.3L101.63,272.52L106.43,271.87" style="vector-effect: none; fill: none; stroke: rgb(255, 1, 170); stroke-opacity: 1; stroke-width: 5px; opacity: 1;"/></g><g class="points"/><g class="text"/></g><g class="trace scatter trace951318" style="stroke-miterlimit: 2; opacity: 1;"><g class="fills"/><g class="errorbars"/><g class="lines"><path class="js-line" d="M0,261.42L2.75,264.03L3.43,264.03L4.12,264.03L4.81,261.42L5.49,262.08L6.18,265.34L12.36,265.99L13.05,267.95L15.11,269.26L15.79,269.26L25.41,269.26L26.09,267.95L29.53,267.95L30.21,277.75L38.45,277.75L39.83,273.83L40.51,282.32L41.89,282.32L46.69,282.98L47.38,284.28L48.07,284.28L48.75,291.47L49.44,291.47L50.13,287.55L50.81,283.63L51.5,294.73L57.68,294.73L58.37,289.51L59.05,289.51L59.74,294.73L60.43,289.51L61.11,294.08L62.49,294.08L63.17,288.85L64.55,294.08L65.23,294.08L65.92,294.08L66.61,288.85L67.29,288.85L67.98,294.08L69.35,288.85L70.04,289.51L71.41,284.93L72.1,284.93L72.79,285.59L73.47,292.12L74.85,295.38L75.53,295.38L78.97,301.26L79.65,301.26L80.34,301.26L81.03,302.57L83.77,309.75L84.46,309.75L100.94,309.75L101.63,309.1L106.43,309.1" style="vector-effect: none; fill: none; stroke: rgb(238, 58, 67); stroke-opacity: 1; stroke-width: 5px; opacity: 1;"/></g><g class="points"/><g class="text"/></g><g class="trace scatter trace3cc146" style="stroke-miterlimit: 2; opacity: 1;"><g class="fills"/><g class="errorbars"/><g class="lines"><path class="js-line" d="M0,278.4L2.75,279.71L3.43,279.71L4.12,279.71L4.81,270.57L6.87,290.81L7.55,290.81L13.05,290.16L13.73,289.51L29.53,288.85L30.21,292.12L38.45,292.12L39.83,290.81L40.51,293.43L41.89,293.43L46.69,294.08L47.38,294.73L49.44,294.08L50.13,296.69L50.81,299.3L51.5,294.73L57.68,294.73L58.37,296.69L59.05,296.69L59.74,294.73L61.8,298.65L62.49,298.65L63.86,298.65L64.55,298.65L69.35,299.3L70.04,301.26L73.47,301.26L74.16,302.57L76.22,303.22L76.91,303.88L78.97,306.49L79.65,306.49L80.34,306.49L81.03,307.79L83.77,313.02L84.46,313.02L100.94,313.02L101.63,319.55L106.43,319.55" style="vector-effect: none; fill: none; stroke: rgb(202, 166, 105); stroke-opacity: 1; stroke-width: 5px; opacity: 1;"/></g><g class="points"/><g class="text"/></g><g class="trace scatter tracec766c0" style="stroke-miterlimit: 2; opacity: 1;"><g class="fills"/><g class="errorbars"/><g class="lines"><path class="js-line" d="M0,284.28L2.75,286.24L3.43,286.24L4.81,285.59L5.49,284.28L7.55,284.93L8.24,284.93L9.61,284.93L10.3,286.24L15.79,285.59L16.48,286.89L25.41,286.89L26.09,292.12L29.53,292.12L30.21,297.34L38.45,297.34L39.83,289.51L40.51,306.49L41.89,306.49L48.07,307.14L48.75,311.71L50.81,311.71L51.5,314.33L57.68,314.33L58.37,313.02L59.05,313.02L59.74,314.33L60.43,313.02L61.11,314.33L61.8,314.33L62.49,314.33L63.17,313.02L65.23,314.33L65.92,314.33L67.29,313.02L67.98,314.33L69.35,313.02L70.04,314.98L72.1,313.67L72.79,313.67L75.53,314.33L76.22,314.98L78.97,317.59L79.65,317.59L80.34,317.59L81.03,318.9L83.09,322.16L83.77,322.16L100.94,321.51" style="vector-effect: none; fill: none; stroke: rgb(255, 192, 203); stroke-opacity: 1; stroke-width: 5px; opacity: 1;"/></g><g class="points"/><g class="text"/></g></g></g><g class="overplot"/><path class="xlines-above crisp" d="M0,0" style="fill: none;"/><path class="ylines-above crisp" d="M0,0" style="fill: none;"/><g class="overlines-above"/><g class="xaxislayer-above"><g class="xtick"><text text-anchor="middle" x="0" y="363" transform="translate(56.87,0)" style="font-family: 'Open Sans', verdana, arial, sans-serif; font-size: 12px; fill: rgb(42, 63, 95); fill-opacity: 1; white-space: pre; opacity: 1;">1.7.23</text></g><g class="xtick"><text text-anchor="middle" x="0" y="363" style="font-family: 'Open Sans', verdana, arial, sans-serif; font-size: 12px; fill: rgb(42, 63, 95); fill-opacity: 1; white-space: pre; opacity: 1;" transform="translate(99.44,0)">1.9.23</text></g><g class="xtick"><text text-anchor="middle" x="0" y="363" style="font-family: 'Open Sans', verdana, arial, sans-serif; font-size: 12px; fill: rgb(42, 63, 95); fill-opacity: 1; white-space: pre; opacity: 1;" transform="translate(141.32999999999998,0)">1.11.23</text></g><g class="xtick"><text text-anchor="middle" x="0" y="363" style="font-family: 'Open Sans', verdana, arial, sans-serif; font-size: 12px; fill: rgb(42, 63, 95); fill-opacity: 1; white-space: pre; opacity: 1;" transform="translate(183.21,0)">1.1.24</text></g><g class="xtick"><text text-anchor="middle" x="0" y="363" style="font-family: 'Open Sans', verdana, arial, sans-serif; font-size: 12px; fill: rgb(42, 63, 95); fill-opacity: 1; white-space: pre; opacity: 1;" transform="translate(224.41,0)">1.3.24</text></g></g><g class="yaxislayer-above"><g class="ytick"><text text-anchor="end" x="49" y="4.199999999999999" transform="translate(0,350)" style="font-family: 'Open Sans', verdana, arial, sans-serif; font-size: 12px; fill: rgb(42, 63, 95); fill-opacity: 1; white-space: pre; opacity: 1;">0%</text></g><g class="ytick"><text text-anchor="end" x="49" y="4.199999999999999" style="font-family: 'Open Sans', verdana, arial, sans-serif; font-size: 12px; fill: rgb(42, 63, 95); fill-opacity: 1; white-space: pre; opacity: 1;" transform="translate(0,284.69)">10%</text></g><g class="ytick"><text text-anchor="end" x="49" y="4.199999999999999" style="font-family: 'Open Sans', verdana, arial, sans-serif; font-size: 12px; fill: rgb(42, 63, 95); fill-opacity: 1; white-space: pre; opacity: 1;" transform="translate(0,219.38)">20%</text></g><g class="ytick"><text text-anchor="end" x="49" y="4.199999999999999" style="font-family: 'Open Sans', verdana, arial, sans-serif; font-size: 12px; fill: rgb(42, 63, 95); fill-opacity: 1; white-space: pre; opacity: 1;" transform="translate(0,154.06)">30%</text></g><g class="ytick"><text text-anchor="end" x="49" y="4.199999999999999" style="font-family: 'Open Sans', verdana, arial, sans-serif; font-size: 12px; fill: rgb(42, 63, 95); fill-opacity: 1; white-space: pre; opacity: 1;" transform="translate(0,88.75)">40%</text></g><g class="ytick"><text text-anchor="end" x="49" y="4.199999999999999" style="font-family: 'Open Sans', verdana, arial, sans-serif; font-size: 12px; fill: rgb(42, 63, 95); fill-opacity: 1; white-space: pre; opacity: 1;" transform="translate(0,23.44)">50%</text></g></g><g class="overaxes-above"/></g></g><g class="polarlayer"/><g class="smithlayer"/><g class="ternarylayer"/><g class="geolayer"/><g class="funnelarealayer"/><g class="pielayer"/><g class="iciclelayer"/><g class="treemaplayer"/><g class="sunburstlayer"/><g class="glimages"/><defs id="topdefs-6b7d1d"><g class="clips"/><clipPath id="legend6b7d1d"><rect width="128" height="124" x="0" y="0"/></clipPath></defs><g class="layer-above"><g class="imagelayer"/><g class="shapelayer"/></g><g class="infolayer"><g class="legend" pointer-events="all" transform="translate(260.12,20)"><rect class="bg" shape-rendering="crispEdges" width="128" height="124" x="0" y="0" style="stroke: rgb(68, 68, 68); stroke-opacity: 1; fill: rgb(255, 255, 255); fill-opacity: 1; stroke-width: 0px;"/><g class="scrollbox" transform="" clip-path="url(#legend6b7d1d)"><g class="groups"><g class="traces" transform="translate(0,14.5)" style="opacity: 1;"><text class="legendtext" text-anchor="start" x="40" y="4.680000000000001" style="font-family: 'Open Sans', verdana, arial, sans-serif; font-size: 12px; fill: rgb(42, 63, 95); fill-opacity: 1; white-space: pre;">Pellegrini Peter</text><g class="layers" style="opacity: 1;"><g class="legendfill"/><g class="legendlines"><path class="js-line" d="M5,0h30" style="fill: none; stroke: rgb(138, 44, 81); stroke-opacity: 1; stroke-width: 5px;"/></g><g class="legendsymbols"><g class="legendpoints"/></g></g><rect class="legendtoggle" x="0" y="-9.5" width="122.703125" height="19" style="fill: rgb(0, 0, 0); fill-opacity: 0;"/></g><g class="traces" transform="translate(0,33.5)" style="opacity: 1;"><text class="legendtext" text-anchor="start" x="40" y="4.680000000000001" style="font-family: 'Open Sans', verdana, arial, sans-serif; font-size: 12px; fill: rgb(42, 63, 95); fill-opacity: 1; white-space: pre;">Korčok Ivan</text><g class="layers" style="opacity: 1;"><g class="legendfill"/><g class="legendlines"><path class="js-line" d="M5,0h30" style="fill: none; stroke: rgb(0, 174, 239); stroke-opacity: 1; stroke-width: 5px;"/></g><g class="legendsymbols"><g class="legendpoints"/></g></g><rect class="legendtoggle" x="0" y="-9.5" width="122.703125" height="19" style="fill: rgb(0, 0, 0); fill-opacity: 0;"/></g><g class="traces" transform="translate(0,52.5)" style="opacity: 1;"><text class="legendtext" text-anchor="start" x="40" y="4.680000000000001" style="font-family: 'Open Sans', verdana, arial, sans-serif; font-size: 12px; fill: rgb(42, 63, 95); fill-opacity: 1; white-space: pre;">Kubiš Ján</text><g class="layers" style="opacity: 1;"><g class="legendfill"/><g class="legendlines"><path class="js-line" d="M5,0h30" style="fill: none; stroke: rgb(255, 1, 170); stroke-opacity: 1; stroke-width: 5px;"/></g><g class="legendsymbols"><g class="legendpoints"/></g></g><rect class="legendtoggle" x="0" y="-9.5" width="122.703125" height="19" style="fill: rgb(0, 0, 0); fill-opacity: 0;"/></g><g class="traces" transform="translate(0,71.5)" style="opacity: 1;"><text class="legendtext" text-anchor="start" x="40" y="4.680000000000001" style="font-family: 'Open Sans', verdana, arial, sans-serif; font-size: 12px; fill: rgb(42, 63, 95); fill-opacity: 1; white-space: pre;">Fico Robert</text><g class="layers" style="opacity: 1;"><g class="legendfill"/><g class="legendlines"><path class="js-line" d="M5,0h30" style="fill: none; stroke: rgb(238, 58, 67); stroke-opacity: 1; stroke-width: 5px;"/></g><g class="legendsymbols"><g class="legendpoints"/></g></g><rect class="legendtoggle" x="0" y="-9.5" width="122.703125" height="19" style="fill: rgb(0, 0, 0); fill-opacity: 0;"/></g><g class="traces" transform="translate(0,90.5)" style="opacity: 1;"><text class="legendtext" text-anchor="start" x="40" y="4.680000000000001" style="font-family: 'Open Sans', verdana, arial, sans-serif; font-size: 12px; fill: rgb(42, 63, 95); fill-opacity: 1; white-space: pre;">Mistrík Robert</text><g class="layers" style="opacity: 1;"><g class="legendfill"/><g class="legendlines"><path class="js-line" d="M5,0h30" style="fill: none; stroke: rgb(202, 166, 105); stroke-opacity: 1; stroke-width: 5px;"/></g><g class="legendsymbols"><g class="legendpoints"/></g></g><rect class="legendtoggle" x="0" y="-9.5" width="122.703125" height="19" style="fill: rgb(0, 0, 0); fill-opacity: 0;"/></g><g class="traces" transform="translate(0,109.5)" style="opacity: 1;"><text class="legendtext" text-anchor="start" x="40" y="4.680000000000001" style="font-family: 'Open Sans', verdana, arial, sans-serif; font-size: 12px; fill: rgb(42, 63, 95); fill-opacity: 1; white-space: pre;">Lajčák Miroslav</text><g class="layers" style="opacity: 1;"><g class="legendfill"/><g class="legendlines"><path class="js-line" d="M5,0h30" style="fill: none; stroke: rgb(255, 192, 203); stroke-opacity: 1; stroke-width: 5px;"/></g><g class="legendsymbols"><g class="legendpoints"/></g></g><rect class="legendtoggle" x="0" y="-9.5" width="122.703125" height="19" style="fill: rgb(0, 0, 0); fill-opacity: 0;"/></g></g></g><rect class="scrollbar" rx="20" ry="3" width="0" height="0" x="0" y="0" style="fill: rgb(128, 139, 164); fill-opacity: 1;"/></g><g class="g-gtitle"/><g class="g-xtitle"/><g class="g-ytitle"/></g></svg>