<svg class="main-svg" xmlns="http://www.w3.org/2000/svg" xmlns:xlink="http://www.w3.org/1999/xlink" width="300" height="135" style="" viewBox="0 0 300 135"><rect x="0" y="0" width="300" height="135" style="fill: rgb(255, 255, 255); fill-opacity: 1;"/><defs id="defs-36bed6"><g class="clips"><clipPath id="clip36bed6xyplot" class="plotclip"><rect width="280" height="75"/></clipPath><clipPath class="axesclip" id="clip36bed6x"><rect x="10" y="0" width="280" height="135"/></clipPath><clipPath class="axesclip" id="clip36bed6y"><rect x="0" y="50" width="300" height="75"/></clipPath><clipPath class="axesclip" id="clip36bed6xy"><rect x="10" y="50" width="280" height="75"/></clipPath></g><g class="gradients"/><g class="patterns"/></defs><g class="bglayer"/><g class="layer-below"><g class="imagelayer"/><g class="shapelayer"/></g><g class="cartesianlayer"><g class="subplot xy"><g class="layer-subplot"><g class="shapelayer"/><g class="imagelayer"/></g><g class="minor-gridlayer"><g class="x"/><g class="y"/></g><g class="gridlayer"><g class="x"><path class="xgrid crisp" transform="translate(21.619999999999997,0)" d="M0,50v75" style="stroke: rgb(235, 240, 248); stroke-opacity: 1; stroke-width: 1px;"/><path class="xgrid crisp" transform="translate(93.65,0)" d="M0,50v75" style="stroke: rgb(235, 240, 248); stroke-opacity: 1; stroke-width: 1px;"/><path class="xgrid crisp" transform="translate(164.52,0)" d="M0,50v75" style="stroke: rgb(235, 240, 248); stroke-opacity: 1; stroke-width: 1px;"/><path class="xgrid crisp" transform="translate(235.39,0)" d="M0,50v75" style="stroke: rgb(235, 240, 248); stroke-opacity: 1; stroke-width: 1px;"/></g><g class="y"><path class="ygrid crisp" transform="translate(0,102.77000000000001)" d="M10,0h280" style="stroke: rgb(235, 240, 248); stroke-opacity: 1; stroke-width: 1px;"/><path class="ygrid crisp" transform="translate(0,80.53999999999999)" d="M10,0h280" style="stroke: rgb(235, 240, 248); stroke-opacity: 1; stroke-width: 1px;"/><path class="ygrid crisp" transform="translate(0,58.31)" d="M10,0h280" style="stroke: rgb(235, 240, 248); stroke-opacity: 1; stroke-width: 1px;"/></g></g><g class="zerolinelayer"><path class="yzl zl crisp" transform="translate(0,125)" d="M10,0h280" style="stroke: rgb(235, 240, 248); stroke-opacity: 1; stroke-width: 2px;"/></g><path class="xlines-below"/><path class="ylines-below"/><g class="overlines-below"/><g class="xaxislayer-below"/><g class="yaxislayer-below"/><g class="overaxes-below"/><g class="plot" transform="translate(10,50)" clip-path="url(#clip36bed6xyplot)"><g class="scatterlayer mlayer"><g class="trace scatter trace922264" style="stroke-miterlimit: 2; opacity: 1;"><g class="fills"/><g class="errorbars"/><g class="lines"><path class="js-line" d="M273.03,21.65L280,21.65" style="vector-effect: none; fill: none; stroke: rgb(187, 187, 187); stroke-opacity: 1; stroke-width: 5px; opacity: 1;"/></g><g class="points"/><g class="text"/></g><g class="trace scatter tracecf502a" style="stroke-miterlimit: 2; opacity: 1;"><g class="fills"/><g class="errorbars"/><g class="lines"><path class="js-line" d="M0,51.77L3.49,48.88L4.65,48.88L9.29,49.1L10.46,48.32L26.72,47.43L27.88,46.77L49.96,45.99L51.12,41.32L65.06,41.32L67.39,44.54L70.87,43.88L72.03,43.88L80.17,43.65L81.33,46.1L83.65,47.32L84.81,46.88L85.98,46.43L87.14,47.43L117.34,46.77L118.51,44.54L120.83,45.43L121.99,45.43L123.15,45.21L124.32,41.54L126.64,39.32L127.8,39.32L128.96,38.76L130.12,35.1L132.45,32.98L133.61,32.98L137.1,32.32L138.26,31.32L141.74,28.87L142.9,28.87L152.2,29.2L153.36,30.32L162.66,30.32L163.82,28.76L164.98,28.76L166.14,26.09L170.79,26.09L171.95,23.09L178.92,23.09L180.08,21.31L187.05,18.42L188.22,18.42L190.54,14.64L191.7,14.64L192.86,12.75L194.02,8.2L204.48,8.2L205.64,9.86L207.97,10.64L209.13,10.64L211.45,12.86L212.61,13.53L218.42,12.31L219.59,12.31L226.56,12.42L227.72,8.75L230.04,5.08L231.2,4.97L234.69,5.86L235.85,3.75L239.34,4.75L240.5,5.64L242.82,6.75L243.98,10.53L245.15,11.86L246.31,10.53L248.63,10.64L249.79,8.86L252.12,8.97L253.28,9.09L255.6,8.64L256.76,7.75L260.25,4.64L261.41,4.64L264.9,6.64L266.06,5.75L268.38,6.42L269.54,8.64L271.87,14.87L273.03,43.65L280,43.32" style="vector-effect: none; fill: none; stroke: rgb(138, 44, 81); stroke-opacity: 1; stroke-width: 5px; opacity: 1;"/></g><g class="points"/><g class="text"/></g><g class="trace scatter tracefd0afa" style="stroke-miterlimit: 2; opacity: 1;"><g class="fills"/><g class="errorbars"/><g class="lines"><path class="js-line" d="M0,26.54L4.65,28.09L5.81,28.09L9.29,27.87L10.46,27.2L67.39,28.2L68.55,31.32L80.17,30.32L81.33,27.76L83.65,23.98L84.81,24.98L85.98,25.98L87.14,22.65L97.59,22.65L98.76,24.31L99.92,24.31L101.08,22.65L102.24,24.31L103.4,22.31L105.73,21.87L106.89,23.98L109.21,21.87L110.37,21.87L111.54,21.87L112.7,23.98L113.86,23.98L115.02,21.87L117.34,23.98L118.51,21.98L120.83,24.54L121.99,24.54L128.96,25.76L130.12,27.65L133.61,28.43L134.77,28.43L149.88,29.2L151.04,29.87L178.92,30.87L180.08,32.65L188.22,34.98L189.38,32.87L192.86,33.98L194.02,35.43L204.48,35.43L205.64,33.87L207.97,32.98L209.13,32.98L210.29,32.54L211.45,29.98L213.78,29.43L214.94,29.76L226.56,29.2L227.72,32.09L230.04,35.43L231.2,35.54L233.53,33.76L234.69,32.98L237.01,35.1L238.17,34.54L242.82,32.09L243.98,28.32L245.15,26.98L246.31,28.32L248.63,28.2L249.79,29.98L252.12,29.87L253.28,29.76L255.6,30.2L256.76,31.09L260.25,34.21L261.41,34.21L264.9,32.21L266.06,33.09L268.38,32.43L269.54,30.2L271.87,23.98L273.03,48.66L280,48.99" style="vector-effect: none; fill: none; stroke: rgb(0, 174, 239); stroke-opacity: 1; stroke-width: 5px; opacity: 1;"/></g><g class="points"/><g class="text"/></g><g class="trace scatter trace679252" style="stroke-miterlimit: 2; opacity: 1;"><g class="fills"/><g class="errorbars"/><g class="lines"><path class="js-line" d="M0,63.77L8.13,64.88L9.29,64.22L12.78,63.55L13.94,63.55L49.96,63.77L51.12,65.11L67.39,64.22L68.55,56.99L81.33,57.66L82.49,58.33L103.4,58.66L104.56,59.1L117.34,58.33L118.51,61.55L120.83,59.33L121.99,59.33L123.15,59.44L124.32,61.11L126.64,62.44L127.8,62.44L128.96,62.11L130.12,63.22L137.1,63.33L138.26,63.22L146.39,63.88L147.55,63.88L149.88,63.44L151.04,62.44L152.2,62.44L153.36,60.88L162.66,60.88L163.82,62.33L169.63,64.33L170.79,64.33L173.11,65.22L174.27,65.22L188.22,65.55L189.38,69L210.29,70.11L211.45,71.11L226.56,72.22L227.72,73L233.53,73.55" style="vector-effect: none; fill: none; stroke: rgb(255, 1, 170); stroke-opacity: 1; stroke-width: 5px; opacity: 1;"/></g><g class="points"/><g class="text"/></g><g class="trace scatter trace318a25" style="stroke-miterlimit: 2; opacity: 1;"><g class="fills"/><g class="errorbars"/><g class="lines"><path class="js-line" d="M0,63.33L6.97,63.77L8.13,63.33L30.21,64.66L31.37,64.66L49.96,64.44L51.12,66.11L67.39,65.44L68.55,66.89L81.33,67.22L82.49,68.44L84.81,67.77L85.98,67.11L88.3,69L89.46,69L118.51,68.11L119.67,67.33L124.32,68.55L125.48,69.11L137.1,70.33L138.26,70.78L146.39,71.55L147.55,71.55L188.22,71.55L189.38,73.67L192.86,73.89" style="vector-effect: none; fill: none; stroke: rgb(238, 58, 67); stroke-opacity: 1; stroke-width: 5px; opacity: 1;"/></g><g class="points"/><g class="text"/></g></g></g><g class="overplot"/><path class="xlines-above crisp" d="M0,0" style="fill: none;"/><path class="ylines-above crisp" d="M0,0" style="fill: none;"/><g class="overlines-above"/><g class="xaxislayer-above"/><g class="yaxislayer-above"/><g class="overaxes-above"/></g></g><g class="polarlayer"/><g class="smithlayer"/><g class="ternarylayer"/><g class="geolayer"/><g class="funnelarealayer"/><g class="pielayer"/><g class="iciclelayer"/><g class="treemaplayer"/><g class="sunburstlayer"/><g class="glimages"/><defs id="topdefs-36bed6"><g class="clips"/></defs><g class="layer-above"><g class="imagelayer"/><g class="shapelayer"/></g><g class="infolayer"><g class="g-gtitle"><text class="gtitle" x="15" y="25" text-anchor="start" dy="0em" style="font-family: Ubuntu, verdana, arial, sans-serif; font-size: 16px; fill: rgb(233, 84, 32); opacity: 1; font-weight: normal; white-space: pre;">Prezident/ka 2024</text></g><g class="g-xtitle"/><g class="g-ytitle"/></g></svg>