<svg class="main-svg" xmlns="http://www.w3.org/2000/svg" xmlns:xlink="http://www.w3.org/1999/xlink" width="300" height="135" style="" viewBox="0 0 300 135"><rect x="0" y="0" width="300" height="135" style="fill: rgb(255, 255, 255); fill-opacity: 1;"/><defs id="defs-96b6a9"><g class="clips"><clipPath id="clip96b6a9xyplot" class="plotclip"><rect width="280" height="75"/></clipPath><clipPath class="axesclip" id="clip96b6a9x"><rect x="10" y="0" width="280" height="135"/></clipPath><clipPath class="axesclip" id="clip96b6a9y"><rect x="0" y="50" width="300" height="75"/></clipPath><clipPath class="axesclip" id="clip96b6a9xy"><rect x="10" y="50" width="280" height="75"/></clipPath></g><g class="gradients"/><g class="patterns"/></defs><g class="bglayer"/><g class="layer-below"><g class="imagelayer"/><g class="shapelayer"/></g><g class="cartesianlayer"><g class="subplot xy"><g class="layer-subplot"><g class="shapelayer"/><g class="imagelayer"/></g><g class="minor-gridlayer"><g class="x"/><g class="y"/></g><g class="gridlayer"><g class="x"><path class="xgrid crisp" transform="translate(22.119999999999997,0)" d="M0,50v75" style="stroke: rgb(235, 240, 248); stroke-opacity: 1; stroke-width: 1px;"/><path class="xgrid crisp" transform="translate(97.27,0)" d="M0,50v75" style="stroke: rgb(235, 240, 248); stroke-opacity: 1; stroke-width: 1px;"/><path class="xgrid crisp" transform="translate(171.21,0)" d="M0,50v75" style="stroke: rgb(235, 240, 248); stroke-opacity: 1; stroke-width: 1px;"/><path class="xgrid crisp" transform="translate(245.15,0)" d="M0,50v75" style="stroke: rgb(235, 240, 248); stroke-opacity: 1; stroke-width: 1px;"/></g><g class="y"><path class="ygrid crisp" transform="translate(0,102.77000000000001)" d="M10,0h280" style="stroke: rgb(235, 240, 248); stroke-opacity: 1; stroke-width: 1px;"/><path class="ygrid crisp" transform="translate(0,80.53999999999999)" d="M10,0h280" style="stroke: rgb(235, 240, 248); stroke-opacity: 1; stroke-width: 1px;"/><path class="ygrid crisp" transform="translate(0,58.31)" d="M10,0h280" style="stroke: rgb(235, 240, 248); stroke-opacity: 1; stroke-width: 1px;"/></g></g><g class="zerolinelayer"><path class="yzl zl crisp" transform="translate(0,125)" d="M10,0h280" style="stroke: rgb(235, 240, 248); stroke-opacity: 1; stroke-width: 2px;"/></g><path class="xlines-below"/><path class="ylines-below"/><g class="overlines-below"/><g class="xaxislayer-below"/><g class="yaxislayer-below"/><g class="overaxes-below"/><g class="plot" transform="translate(10,50)" clip-path="url(#clip96b6a9xyplot)"><g class="scatterlayer mlayer"><g class="trace scatter trace9f3b58" style="stroke-miterlimit: 2; opacity: 1;"><g class="fills"/><g class="errorbars"/><g class="lines"><path class="js-line" d="M0,51.77L3.64,48.88L4.85,48.88L9.7,49.1L10.91,48.32L27.88,47.43L29.09,46.77L52.12,45.99L53.33,41.32L67.88,41.32L70.3,44.54L73.94,43.88L75.15,43.88L83.64,43.65L84.85,46.1L87.27,47.32L88.48,46.88L89.7,46.43L90.91,47.43L122.42,46.77L123.64,44.54L126.06,45.43L127.27,45.43L128.48,45.21L129.7,41.54L132.12,39.32L133.33,39.32L134.55,38.76L135.76,35.1L138.18,32.98L139.39,32.98L143.03,32.32L144.24,31.32L147.88,28.87L149.09,28.87L158.79,29.2L160,30.32L169.7,30.32L170.91,28.76L172.12,28.76L173.33,26.09L178.18,26.09L179.39,23.09L186.67,23.09L187.88,21.31L195.15,18.42L196.36,18.42L198.79,14.64L200,14.64L201.21,12.75L202.42,8.2L213.33,8.2L214.55,9.86L216.97,10.64L218.18,10.64L220.61,12.86L221.82,13.53L227.88,12.31L229.09,12.31L236.36,12.42L237.58,8.75L240,5.08L241.21,4.97L244.85,5.86L246.06,3.75L249.7,4.75L250.91,5.64L253.33,6.75L254.55,10.53L255.76,11.86L256.97,10.53L259.39,10.64L260.61,8.86L263.03,8.97L264.24,9.09L266.67,8.64L267.88,7.75L271.52,4.64L272.73,4.64L276.36,6.64L277.58,5.75L280,6.31" style="vector-effect: none; fill: none; stroke: rgb(138, 44, 81); stroke-opacity: 1; stroke-width: 5px; opacity: 1;"/></g><g class="points"/><g class="text"/></g><g class="trace scatter traceae1423" style="stroke-miterlimit: 2; opacity: 1;"><g class="fills"/><g class="errorbars"/><g class="lines"><path class="js-line" d="M0,26.54L4.85,28.09L6.06,28.09L9.7,27.87L10.91,27.2L70.3,28.2L71.52,31.32L83.64,30.32L84.85,27.76L87.27,23.98L88.48,24.98L89.7,25.98L90.91,22.65L101.82,22.65L103.03,24.31L104.24,24.31L105.45,22.65L106.67,24.31L107.88,22.31L110.3,21.87L111.52,23.98L113.94,21.87L115.15,21.87L116.36,21.87L117.58,23.98L118.79,23.98L120,21.87L122.42,23.98L123.64,21.98L126.06,24.54L127.27,24.54L134.55,25.76L135.76,27.65L139.39,28.43L140.61,28.43L156.36,29.2L157.58,29.87L186.67,30.87L187.88,32.65L196.36,34.98L197.58,32.87L201.21,33.98L202.42,35.43L213.33,35.43L214.55,33.87L216.97,32.98L218.18,32.98L219.39,32.54L220.61,29.98L223.03,29.43L224.24,29.76L236.36,29.2L237.58,32.09L240,35.43L241.21,35.54L243.64,33.76L244.85,32.98L247.27,35.1L248.48,34.54L253.33,32.09L254.55,28.32L255.76,26.98L256.97,28.32L259.39,28.2L260.61,29.98L263.03,29.87L264.24,29.76L266.67,30.2L267.88,31.09L271.52,34.21L272.73,34.21L276.36,32.21L277.58,33.09L280,32.54" style="vector-effect: none; fill: none; stroke: rgb(0, 174, 239); stroke-opacity: 1; stroke-width: 5px; opacity: 1;"/></g><g class="points"/><g class="text"/></g><g class="trace scatter trace2c52fc" style="stroke-miterlimit: 2; opacity: 1;"><g class="fills"/><g class="errorbars"/><g class="lines"><path class="js-line" d="M0,67.22L13.33,67.33L14.55,67.33L52.12,68.55L53.33,69.44L67.88,69.44L70.3,68.11L71.52,71L73.94,71L89.7,71.89L90.91,72.33L143.03,73.11L144.24,73.55L178.18,73.55" style="vector-effect: none; fill: none; stroke: rgb(255, 192, 203); stroke-opacity: 1; stroke-width: 5px; opacity: 1;"/></g><g class="points"/><g class="text"/></g><g class="trace scatter trace0c1675" style="stroke-miterlimit: 2; opacity: 1;"><g class="fills"/><g class="errorbars"/><g class="lines"><path class="js-line" d="M0,63.77L8.48,64.88L9.7,64.22L13.33,63.55L14.55,63.55L52.12,63.77L53.33,65.11L70.3,64.22L71.52,56.99L84.85,57.66L86.06,58.33L107.88,58.66L109.09,59.1L122.42,58.33L123.64,61.55L126.06,59.33L127.27,59.33L128.48,59.44L129.7,61.11L132.12,62.44L133.33,62.44L134.55,62.11L135.76,63.22L143.03,63.33L144.24,63.22L152.73,63.88L153.94,63.88L156.36,63.44L157.58,62.44L158.79,62.44L160,60.88L169.7,60.88L170.91,62.33L176.97,64.33L178.18,64.33L180.61,65.22L181.82,65.22L196.36,65.55L197.58,69L219.39,70.11L220.61,71.11L236.36,72.22L237.58,73L243.64,73.55" style="vector-effect: none; fill: none; stroke: rgb(255, 1, 170); stroke-opacity: 1; stroke-width: 5px; opacity: 1;"/></g><g class="points"/><g class="text"/></g><g class="trace scatter tracea75020" style="stroke-miterlimit: 2; opacity: 1;"><g class="fills"/><g class="errorbars"/><g class="lines"><path class="js-line" d="M0,66.22L7.27,66.44L8.48,64.88L10.91,68.33L12.12,68.33L87.27,68.89L88.48,69.33L90.91,69L92.12,69L129.7,70.11L130.91,70.33L144.24,71.55L145.45,71.78L150.3,72.11L151.52,72.11L196.36,73.33L197.58,73.67L201.21,73.89" style="vector-effect: none; fill: none; stroke: rgb(202, 166, 105); stroke-opacity: 1; stroke-width: 5px; opacity: 1;"/></g><g class="points"/><g class="text"/></g></g></g><g class="overplot"/><path class="xlines-above crisp" d="M0,0" style="fill: none;"/><path class="ylines-above crisp" d="M0,0" style="fill: none;"/><g class="overlines-above"/><g class="xaxislayer-above"/><g class="yaxislayer-above"/><g class="overaxes-above"/></g></g><g class="polarlayer"/><g class="smithlayer"/><g class="ternarylayer"/><g class="geolayer"/><g class="funnelarealayer"/><g class="pielayer"/><g class="iciclelayer"/><g class="treemaplayer"/><g class="sunburstlayer"/><g class="glimages"/><defs id="topdefs-96b6a9"><g class="clips"/></defs><g class="layer-above"><g class="imagelayer"/><g class="shapelayer"/></g><g class="infolayer"><g class="g-gtitle"><text class="gtitle" x="15" y="25" text-anchor="start" dy="0em" style="font-family: Ubuntu, verdana, arial, sans-serif; font-size: 16px; fill: rgb(233, 84, 32); opacity: 1; font-weight: normal; white-space: pre;">Prezident/ka 2024</text></g><g class="g-xtitle"/><g class="g-ytitle"/></g></svg>