<svg class="main-svg" xmlns="http://www.w3.org/2000/svg" xmlns:xlink="http://www.w3.org/1999/xlink" width="300" height="135" style="" viewBox="0 0 300 135"><rect x="0" y="0" width="300" height="135" style="fill: rgb(255, 255, 255); fill-opacity: 1;"/><defs id="defs-541361"><g class="clips"><clipPath id="clip541361xyplot" class="plotclip"><rect width="280" height="75"/></clipPath><clipPath class="axesclip" id="clip541361x"><rect x="10" y="0" width="280" height="135"/></clipPath><clipPath class="axesclip" id="clip541361y"><rect x="0" y="50" width="300" height="75"/></clipPath><clipPath class="axesclip" id="clip541361xy"><rect x="10" y="50" width="280" height="75"/></clipPath></g><g class="gradients"/><g class="patterns"/></defs><g class="bglayer"/><g class="layer-below"><g class="imagelayer"/><g class="shapelayer"/></g><g class="cartesianlayer"><g class="subplot xy"><g class="layer-subplot"><g class="shapelayer"/><g class="imagelayer"/></g><g class="minor-gridlayer"><g class="x"/><g class="y"/></g><g class="gridlayer"><g class="x"><path class="xgrid crisp" transform="translate(19.96,0)" d="M0,50v75" style="stroke: rgb(235, 240, 248); stroke-opacity: 1; stroke-width: 1px;"/><path class="xgrid crisp" transform="translate(81.74,0)" d="M0,50v75" style="stroke: rgb(235, 240, 248); stroke-opacity: 1; stroke-width: 1px;"/><path class="xgrid crisp" transform="translate(142.53,0)" d="M0,50v75" style="stroke: rgb(235, 240, 248); stroke-opacity: 1; stroke-width: 1px;"/><path class="xgrid crisp" transform="translate(203.31,0)" d="M0,50v75" style="stroke: rgb(235, 240, 248); stroke-opacity: 1; stroke-width: 1px;"/><path class="xgrid crisp" transform="translate(263.1,0)" d="M0,50v75" style="stroke: rgb(235, 240, 248); stroke-opacity: 1; stroke-width: 1px;"/></g><g class="y"><path class="ygrid crisp" transform="translate(0,105.03999999999999)" d="M10,0h280" style="stroke: rgb(235, 240, 248); stroke-opacity: 1; stroke-width: 1px;"/><path class="ygrid crisp" transform="translate(0,85.08)" d="M10,0h280" style="stroke: rgb(235, 240, 248); stroke-opacity: 1; stroke-width: 1px;"/><path class="ygrid crisp" transform="translate(0,65.13)" d="M10,0h280" style="stroke: rgb(235, 240, 248); stroke-opacity: 1; stroke-width: 1px;"/></g></g><g class="zerolinelayer"><path class="yzl zl crisp" transform="translate(0,125)" d="M10,0h280" style="stroke: rgb(235, 240, 248); stroke-opacity: 1; stroke-width: 2px;"/></g><path class="xlines-below"/><path class="ylines-below"/><g class="overlines-below"/><g class="xaxislayer-below"/><g class="yaxislayer-below"/><g class="overaxes-below"/><g class="plot" transform="translate(10,50)" clip-path="url(#clip541361xyplot)"><g class="scatterlayer mlayer"><g class="trace scatter traceab079f" style="stroke-miterlimit: 2; opacity: 1;"><g class="fills"/><g class="errorbars"/><g class="lines"><path class="js-line" d="M0,31.49L3.99,32.89L4.98,32.89L7.97,32.69L8.97,32.09L57.79,32.99L58.79,35.78L68.75,34.88L69.75,32.59L71.74,29.2L72.74,30.09L73.74,30.99L74.73,28L83.7,28L84.7,29.5L85.69,29.5L86.69,28L87.69,29.5L88.68,27.7L90.68,27.3L91.67,29.2L93.67,27.3L94.66,27.3L95.66,27.3L96.65,29.2L97.65,29.2L98.65,27.3L100.64,29.2L101.64,27.4L103.63,29.7L104.63,29.7L110.6,30.79L111.6,32.49L114.59,33.19L115.59,33.19L128.54,33.89L129.54,34.49L153.45,35.38L154.45,36.98L161.42,39.08L162.42,37.18L165.41,38.18L166.41,39.47L175.37,39.47L176.37,38.08L179.36,37.28L180.36,36.88L182.35,33.89L183.35,34.09L188.33,34.39L189.32,34.39L194.31,33.89L195.3,36.48L198.29,39.57L199.29,39.28L201.28,37.28L202.28,39.18L205.27,38.28L206.26,37.48L208.26,36.48L209.25,33.09L210.25,31.89L211.25,33.09L213.24,32.99L214.23,34.59L216.23,34.49L217.22,34.39L219.22,34.78L220.21,35.58L223.2,38.38L224.2,38.38L227.19,36.58L228.19,37.38L230.18,36.78L231.17,34.78L233.17,29.2L234.16,29.4L237.15,28.4L238.15,28.1L240.14,29.4L241.14,28.3L243.13,27.6L244.13,29L247.12,35.08L248.11,35.18L250.11,37.28L251.1,37.38L253.1,37.18L254.09,35.58L259.07,36.28L260.07,36.88L263.06,37.28L264.06,38.28L266.05,39.28L267.05,41.97L271.03,44.07L272.03,44.66L274.02,46.46L275.02,43.77L277.01,24.01L278.01,24.31L280,23.51" style="vector-effect: none; fill: none; stroke: rgb(0, 174, 239); stroke-opacity: 1; stroke-width: 5px; opacity: 1;"/></g><g class="points"/><g class="text"/></g><g class="trace scatter trace23ea01" style="stroke-miterlimit: 2; opacity: 1;"><g class="fills"/><g class="errorbars"/><g class="lines"><path class="js-line" d="M0,54.14L2.99,51.55L3.99,51.55L13.95,51.05L14.95,50.75L36.87,49.65L37.86,48.95L42.85,48.95L43.84,44.76L55.8,44.76L57.79,47.66L60.78,47.06L61.78,47.06L68.75,46.86L69.75,49.05L71.74,50.15L72.74,49.75L74.73,50.25L75.73,50.25L100.64,49.65L101.64,47.66L103.63,48.46L104.63,48.46L105.62,48.26L106.62,44.96L108.61,42.97L109.61,42.97L110.6,42.47L111.6,39.18L113.59,37.28L114.59,37.28L117.58,36.68L118.58,35.78L121.57,33.59L122.56,33.59L130.53,33.89L131.53,34.88L139.5,34.88L140.5,33.49L141.49,33.49L142.49,31.09L146.48,31.09L147.47,28.4L153.45,28.4L154.45,26.8L160.43,24.21L161.42,24.21L163.42,20.81L164.41,20.81L167.4,15.03L168.4,15.03L175.37,15.03L176.37,16.52L179.36,17.22L180.36,17.62L182.35,19.82L183.35,19.42L186.33,18.72L187.33,18.72L194.31,18.82L195.3,15.53L197.3,12.23L198.29,12.13L201.28,12.93L202.28,11.03L205.27,11.93L206.26,12.73L208.26,13.73L209.25,17.12L210.25,18.32L211.25,17.12L213.24,17.22L214.23,15.63L216.23,15.72L217.22,15.82L219.22,15.43L220.21,14.63L223.2,11.83L224.2,11.83L227.19,13.63L228.19,12.83L230.18,13.43L231.17,15.43L233.17,21.01L234.16,20.81L237.15,21.81L238.15,22.11L240.14,20.81L241.14,21.91L243.13,22.61L244.13,21.21L247.12,15.13L248.11,15.03L250.11,12.93L251.1,12.83L253.1,13.03L254.09,14.63L259.07,13.93L260.07,13.33L263.06,12.93L264.06,11.93L266.05,10.93L267.05,8.24L271.03,6.14L272.03,5.55L274.02,3.75L275.02,6.44L277.01,26.2L278.01,25.9L280,26.7" style="vector-effect: none; fill: none; stroke: rgb(138, 44, 81); stroke-opacity: 1; stroke-width: 5px; opacity: 1;"/></g><g class="points"/><g class="text"/></g><g class="trace scatter traceffcfa2" style="stroke-miterlimit: 2; opacity: 1;"><g class="fills"/><g class="errorbars"/><g class="lines"><path class="js-line" d="M0,67.12L5.98,67.32L6.98,65.92L9.96,69.01L10.96,69.01L72.74,69.91L73.74,70.31L76.73,69.61L77.72,69.61L109.61,70.81L110.6,70.91L133.52,72.51L134.52,72.51L161.42,73.5L162.42,73.8L165.41,74" style="vector-effect: none; fill: none; stroke: rgb(202, 166, 105); stroke-opacity: 1; stroke-width: 5px; opacity: 1;"/></g><g class="points"/><g class="text"/></g><g class="trace scatter trace49cdf0" style="stroke-miterlimit: 2; opacity: 1;"><g class="fills"/><g class="errorbars"/><g class="lines"><path class="js-line" d="M0,68.01L11.96,68.11L12.95,68.11L42.85,69.21L43.84,70.01L57.79,68.81L58.79,71.41L100.64,72.41L101.64,72.7L108.61,72.61L109.61,72.61L131.53,73.7L133.52,73.7L146.48,73.7" style="vector-effect: none; fill: none; stroke: rgb(255, 192, 203); stroke-opacity: 1; stroke-width: 5px; opacity: 1;"/></g><g class="points"/><g class="text"/></g><g class="trace scatter traceb8fac7" style="stroke-miterlimit: 2; opacity: 1;"><g class="fills"/><g class="errorbars"/><g class="lines"><path class="js-line" d="M0,64.52L5.98,64.92L6.98,64.52L26.9,65.72L27.9,65.72L42.85,65.52L43.84,67.02L57.79,66.42L58.79,67.72L69.75,68.01L70.75,69.11L73.74,67.91L74.73,69.61L101.64,68.81L102.63,68.11L106.62,69.21L107.62,69.71L117.58,70.81L118.58,71.21L126.55,71.91L127.54,71.91L161.42,71.91L162.42,73.8L165.41,74" style="vector-effect: none; fill: none; stroke: rgb(238, 58, 67); stroke-opacity: 1; stroke-width: 5px; opacity: 1;"/></g><g class="points"/><g class="text"/></g></g></g><g class="overplot"/><path class="xlines-above crisp" d="M0,0" style="fill: none;"/><path class="ylines-above crisp" d="M0,0" style="fill: none;"/><g class="overlines-above"/><g class="xaxislayer-above"/><g class="yaxislayer-above"/><g class="overaxes-above"/></g></g><g class="polarlayer"/><g class="smithlayer"/><g class="ternarylayer"/><g class="geolayer"/><g class="funnelarealayer"/><g class="pielayer"/><g class="iciclelayer"/><g class="treemaplayer"/><g class="sunburstlayer"/><g class="glimages"/><defs id="topdefs-541361"><g class="clips"/></defs><g class="layer-above"><g class="imagelayer"/><g class="shapelayer"/></g><g class="infolayer"><g class="g-gtitle"><text class="gtitle" x="15" y="25" text-anchor="start" dy="0em" style="font-family: Ubuntu, verdana, arial, sans-serif; font-size: 16px; fill: rgb(233, 84, 32); opacity: 1; font-weight: normal; white-space: pre;">Prezident/ka 2024</text></g><g class="g-xtitle"/><g class="g-ytitle"/></g></svg>