<svg class="main-svg" xmlns="http://www.w3.org/2000/svg" xmlns:xlink="http://www.w3.org/1999/xlink" width="300" height="135" style="" viewBox="0 0 300 135"><rect x="0" y="0" width="300" height="135" style="fill: rgb(255, 255, 255); fill-opacity: 1;"/><defs id="defs-d3bc9d"><g class="clips"><clipPath id="clipd3bc9dxyplot" class="plotclip"><rect width="280" height="75"/></clipPath><clipPath class="axesclip" id="clipd3bc9dx"><rect x="10" y="0" width="280" height="135"/></clipPath><clipPath class="axesclip" id="clipd3bc9dy"><rect x="0" y="50" width="300" height="75"/></clipPath><clipPath class="axesclip" id="clipd3bc9dxy"><rect x="10" y="50" width="280" height="75"/></clipPath></g><g class="gradients"/><g class="patterns"/></defs><g class="bglayer"/><g class="layer-below"><g class="imagelayer"/><g class="shapelayer"/></g><g class="cartesianlayer"><g class="subplot xy"><g class="layer-subplot"><g class="shapelayer"/><g class="imagelayer"/></g><g class="minor-gridlayer"><g class="x"/><g class="y"/></g><g class="gridlayer"><g class="x"><path class="xgrid crisp" transform="translate(27.72,0)" d="M0,50v75" style="stroke: rgb(235, 240, 248); stroke-opacity: 1; stroke-width: 1px;"/><path class="xgrid crisp" transform="translate(137.59,0)" d="M0,50v75" style="stroke: rgb(235, 240, 248); stroke-opacity: 1; stroke-width: 1px;"/><path class="xgrid crisp" transform="translate(245.7,0)" d="M0,50v75" style="stroke: rgb(235, 240, 248); stroke-opacity: 1; stroke-width: 1px;"/></g><g class="y"><path class="ygrid crisp" transform="translate(0,95.86)" d="M10,0h280" style="stroke: rgb(235, 240, 248); stroke-opacity: 1; stroke-width: 1px;"/><path class="ygrid crisp" transform="translate(0,66.72)" d="M10,0h280" style="stroke: rgb(235, 240, 248); stroke-opacity: 1; stroke-width: 1px;"/></g></g><g class="zerolinelayer"><path class="yzl zl crisp" transform="translate(0,125)" d="M10,0h280" style="stroke: rgb(235, 240, 248); stroke-opacity: 1; stroke-width: 2px;"/></g><path class="xlines-below"/><path class="ylines-below"/><g class="overlines-below"/><g class="xaxislayer-below"/><g class="yaxislayer-below"/><g class="overaxes-below"/><g class="plot" transform="translate(10,50)" clip-path="url(#clipd3bc9dxyplot)"><g class="scatterlayer mlayer"><g class="trace scatter trace0483b2" style="stroke-miterlimit: 2; opacity: 1;"><g class="fills"/><g class="errorbars"/><g class="lines"><path class="js-line" d="M0,44.55L5.32,40.76L7.09,40.76L14.18,41.05L15.95,40.03L40.76,38.87L42.53,37.99L76.2,36.97L77.97,30.85L99.24,30.85L102.78,35.08L104.56,34.2L108.1,34.2L122.28,33.91L124.05,37.12L127.59,38.72L129.37,38.14L131.14,37.55L132.91,38.87L178.99,37.99L180.76,35.08L184.3,36.24L186.08,36.24L187.85,35.95L189.62,31.14L191.39,28.23L193.16,28.23L196.71,27.5L198.48,22.69L202.03,19.92L203.8,19.92L209.11,19.05L210.89,17.74L216.2,14.53L217.97,14.53L232.15,14.97L233.92,16.43L248.1,16.43L249.87,14.39L251.65,14.39L253.42,10.89L260.51,10.89L262.28,6.96L272.91,6.96L274.68,4.62L278.23,3.75L280,3.75" style="vector-effect: none; fill: none; stroke: rgb(138, 44, 81); stroke-opacity: 1; stroke-width: 5px; opacity: 1;"/></g><g class="points"/><g class="text"/></g><g class="trace scatter trace186bcf" style="stroke-miterlimit: 2; opacity: 1;"><g class="fills"/><g class="errorbars"/><g class="lines"><path class="js-line" d="M0,11.47L5.32,13.51L7.09,13.51L12.41,14.53L14.18,13.22L17.72,12.35L19.49,12.35L40.76,12.93L42.53,13.66L102.78,13.66L104.56,17.74L120.51,17.01L122.28,16.43L125.82,8.12L127.59,8.12L131.14,10.74L132.91,6.37L148.86,6.37L150.63,8.56L152.41,8.56L154.18,6.37L155.95,8.56L157.72,5.94L161.27,5.35L163.04,8.12L164.81,5.35L166.58,5.35L170.13,5.35L171.9,8.12L173.67,8.12L175.44,5.35L177.22,8.12L178.99,8.12L180.76,5.5L182.53,8.85L194.94,9.72L196.71,10.45L200.25,13.8L202.03,13.95L228.61,14.97L230.38,15.84L251.65,15.99L253.42,17.45L272.91,17.15L274.68,19.49L280,20.07" style="vector-effect: none; fill: none; stroke: rgb(0, 174, 239); stroke-opacity: 1; stroke-width: 5px; opacity: 1;"/></g><g class="points"/><g class="text"/></g><g class="trace scatter trace2d28d7" style="stroke-miterlimit: 2; opacity: 1;"><g class="fills"/><g class="errorbars"/><g class="lines"><path class="js-line" d="M0,60.28L8.86,60.72L10.63,60.72L12.41,61.74L14.18,60.87L17.72,59.99L19.49,59.99L76.2,60.28L77.97,62.03L102.78,60.87L104.56,51.4L124.05,52.27L125.82,53.14L155.95,52.71L157.72,53.58L161.27,54.16L163.04,53.14L166.58,54.16L168.35,54.16L178.99,53.14L180.76,57.37L182.53,54.46L184.3,54.46L187.85,54.6L189.62,56.79L193.16,58.54L194.94,58.54L196.71,58.1L198.48,59.56L207.34,59.85L209.11,59.7L214.43,60.43L216.2,60.43L228.61,59.85L230.38,58.54L232.15,58.54L233.92,56.5L248.1,56.5L249.87,58.39L251.65,58.97L253.42,61.01L274.68,62.18L276.46,62.32L280,62.32" style="vector-effect: none; fill: none; stroke: rgb(255, 1, 170); stroke-opacity: 1; stroke-width: 5px; opacity: 1;"/></g><g class="points"/><g class="text"/></g><g class="trace scatter trace337dd5" style="stroke-miterlimit: 2; opacity: 1;"><g class="fills"/><g class="errorbars"/><g class="lines"><path class="js-line" d="M0,59.7L10.63,60.28L12.41,59.7L40.76,61.45L42.53,61.45L76.2,61.16L77.97,63.34L102.78,62.47L104.56,64.36L124.05,64.8L125.82,66.4L129.37,65.53L131.14,64.65L132.91,67.13L134.68,67.13L161.27,66.99L163.04,65.82L166.58,66.99L168.35,66.99L180.76,65.97L182.53,64.95L187.85,65.09L189.62,66.55L193.16,67.28L194.94,67.28L219.75,70.48L221.52,70.48L280,70.48" style="vector-effect: none; fill: none; stroke: rgb(238, 58, 67); stroke-opacity: 1; stroke-width: 5px; opacity: 1;"/></g><g class="points"/><g class="text"/></g><g class="trace scatter trace384472" style="stroke-miterlimit: 2; opacity: 1;"><g class="fills"/><g class="errorbars"/><g class="lines"><path class="js-line" d="M0,63.49L10.63,63.78L12.41,61.74L15.95,66.26L17.72,66.26L120.51,66.99L122.28,67.13L178.99,68.15L180.76,68.59L200.25,69.61L202.03,69.75L212.66,70.77L214.43,71.21L260.51,71.21L262.28,72.67L280,72.67" style="vector-effect: none; fill: none; stroke: rgb(202, 166, 105); stroke-opacity: 1; stroke-width: 5px; opacity: 1;"/></g><g class="points"/><g class="text"/></g></g></g><g class="overplot"/><path class="xlines-above crisp" d="M0,0" style="fill: none;"/><path class="ylines-above crisp" d="M0,0" style="fill: none;"/><g class="overlines-above"/><g class="xaxislayer-above"/><g class="yaxislayer-above"/><g class="overaxes-above"/></g></g><g class="polarlayer"/><g class="smithlayer"/><g class="ternarylayer"/><g class="geolayer"/><g class="funnelarealayer"/><g class="pielayer"/><g class="iciclelayer"/><g class="treemaplayer"/><g class="sunburstlayer"/><g class="glimages"/><defs id="topdefs-d3bc9d"><g class="clips"/></defs><g class="layer-above"><g class="imagelayer"/><g class="shapelayer"/></g><g class="infolayer"><g class="g-gtitle"><text class="gtitle" x="15" y="25" text-anchor="start" dy="0em" style="font-family: Ubuntu, verdana, arial, sans-serif; font-size: 16px; fill: rgb(233, 84, 32); opacity: 1; font-weight: normal; white-space: pre;">Prezident/ka 2024</text></g><g class="g-xtitle"/><g class="g-ytitle"/></g></svg>