<svg class="main-svg" xmlns="http://www.w3.org/2000/svg" xmlns:xlink="http://www.w3.org/1999/xlink" width="300" height="135" style="" viewBox="0 0 300 135"><rect x="0" y="0" width="300" height="135" style="fill: rgb(255, 255, 255); fill-opacity: 1;"/><defs id="defs-39ceb3"><g class="clips"><clipPath id="clip39ceb3xyplot" class="plotclip"><rect width="280" height="75"/></clipPath><clipPath class="axesclip" id="clip39ceb3x"><rect x="10" y="0" width="280" height="135"/></clipPath><clipPath class="axesclip" id="clip39ceb3y"><rect x="0" y="50" width="300" height="75"/></clipPath><clipPath class="axesclip" id="clip39ceb3xy"><rect x="10" y="50" width="280" height="75"/></clipPath></g><g class="gradients"/><g class="patterns"/></defs><g class="bglayer"/><g class="layer-below"><g class="imagelayer"/><g class="shapelayer"/></g><g class="cartesianlayer"><g class="subplot xy"><g class="layer-subplot"><g class="shapelayer"/><g class="imagelayer"/></g><g class="minor-gridlayer"><g class="x"/><g class="y"/></g><g class="gridlayer"><g class="x"><path class="xgrid crisp" transform="translate(23.4,0)" d="M0,50v75" style="stroke: rgb(235, 240, 248); stroke-opacity: 1; stroke-width: 1px;"/><path class="xgrid crisp" transform="translate(106.46,0)" d="M0,50v75" style="stroke: rgb(235, 240, 248); stroke-opacity: 1; stroke-width: 1px;"/><path class="xgrid crisp" transform="translate(188.18,0)" d="M0,50v75" style="stroke: rgb(235, 240, 248); stroke-opacity: 1; stroke-width: 1px;"/><path class="xgrid crisp" transform="translate(269.9,0)" d="M0,50v75" style="stroke: rgb(235, 240, 248); stroke-opacity: 1; stroke-width: 1px;"/></g><g class="y"><path class="ygrid crisp" transform="translate(0,102.77000000000001)" d="M10,0h280" style="stroke: rgb(235, 240, 248); stroke-opacity: 1; stroke-width: 1px;"/><path class="ygrid crisp" transform="translate(0,80.53999999999999)" d="M10,0h280" style="stroke: rgb(235, 240, 248); stroke-opacity: 1; stroke-width: 1px;"/><path class="ygrid crisp" transform="translate(0,58.31)" d="M10,0h280" style="stroke: rgb(235, 240, 248); stroke-opacity: 1; stroke-width: 1px;"/></g></g><g class="zerolinelayer"><path class="yzl zl crisp" transform="translate(0,125)" d="M10,0h280" style="stroke: rgb(235, 240, 248); stroke-opacity: 1; stroke-width: 2px;"/></g><path class="xlines-below"/><path class="ylines-below"/><g class="overlines-below"/><g class="xaxislayer-below"/><g class="yaxislayer-below"/><g class="overaxes-below"/><g class="plot" transform="translate(10,50)" clip-path="url(#clip39ceb3xyplot)"><g class="scatterlayer mlayer"><g class="trace scatter trace649495" style="stroke-miterlimit: 2; opacity: 1;"><g class="fills"/><g class="errorbars"/><g class="lines"><path class="js-line" d="M0,51.77L4.02,48.88L5.36,48.88L10.72,49.1L12.06,48.32L30.81,47.43L32.15,46.77L57.61,45.99L58.95,41.32L75.02,41.32L77.7,44.54L81.72,43.88L83.06,43.88L92.44,43.65L93.78,46.1L96.46,47.32L97.8,46.88L99.14,46.43L100.48,47.43L135.31,46.77L136.65,44.54L139.33,45.43L140.67,45.43L142.01,45.21L143.35,41.54L146.03,39.32L147.37,39.32L148.71,38.76L150.05,35.1L152.73,32.98L154.07,32.98L158.09,32.32L159.43,31.32L163.44,28.87L164.78,28.87L175.5,29.2L176.84,30.32L187.56,30.32L188.9,28.76L190.24,28.76L191.58,26.09L196.94,26.09L198.28,23.09L206.32,23.09L207.66,21.31L215.69,18.42L217.03,18.42L218.37,14.64L219.71,14.64L221.05,14.64L222.39,12.75L223.73,8.2L225.07,8.2L235.79,8.2L237.13,9.86L239.81,10.64L241.15,10.64L242.49,11.09L243.83,12.86L246.51,13.09L247.85,12.31L261.24,12.42L262.58,8.75L265.26,5.08L266.6,4.97L270.62,5.86L271.96,3.75L275.98,4.75L277.32,5.64L280,6.31" style="vector-effect: none; fill: none; stroke: rgb(138, 44, 81); stroke-opacity: 1; stroke-width: 5px; opacity: 1;"/></g><g class="points"/><g class="text"/></g><g class="trace scatter trace3ec586" style="stroke-miterlimit: 2; opacity: 1;"><g class="fills"/><g class="errorbars"/><g class="lines"><path class="js-line" d="M0,26.54L5.36,28.09L6.7,28.09L10.72,27.87L12.06,27.2L77.7,28.2L79.04,31.32L92.44,30.32L93.78,27.76L95.12,23.98L96.46,23.98L99.14,25.98L100.48,22.65L112.54,22.65L113.88,24.31L115.22,24.31L116.56,22.65L117.89,24.31L119.23,22.31L121.91,21.87L123.25,23.98L125.93,21.87L127.27,21.87L128.61,21.87L129.95,23.98L131.29,23.98L132.63,21.87L135.31,23.98L136.65,21.98L139.33,24.54L140.67,24.54L148.71,25.76L150.05,27.65L154.07,28.43L155.41,28.43L172.82,29.2L174.16,29.87L206.32,30.87L207.66,32.65L217.03,34.98L218.37,32.87L222.39,33.98L223.73,35.43L235.79,35.43L237.13,33.87L239.81,32.98L241.15,32.98L242.49,32.54L243.83,29.98L246.51,29.43L247.85,29.76L261.24,29.2L262.58,32.09L265.26,35.43L266.6,35.54L269.28,33.76L270.62,32.98L273.3,35.1L274.64,34.54L280,32.54" style="vector-effect: none; fill: none; stroke: rgb(0, 174, 239); stroke-opacity: 1; stroke-width: 5px; opacity: 1;"/></g><g class="points"/><g class="text"/></g><g class="trace scatter trace384d06" style="stroke-miterlimit: 2; opacity: 1;"><g class="fills"/><g class="errorbars"/><g class="lines"><path class="js-line" d="M0,63.77L9.38,64.88L10.72,64.22L14.74,63.55L16.08,63.55L57.61,63.77L58.95,65.11L77.7,64.22L79.04,56.99L93.78,57.66L95.12,58.33L119.23,58.66L120.57,59.1L135.31,58.33L136.65,61.55L139.33,59.33L140.67,59.33L142.01,59.44L143.35,61.11L146.03,62.44L147.37,62.44L148.71,62.11L150.05,63.22L158.09,63.33L159.43,63.22L168.8,63.88L170.14,63.88L172.82,63.44L174.16,62.44L175.5,62.44L176.84,60.88L187.56,60.88L188.9,62.33L194.26,64.33L195.6,64.33L217.03,65.55L218.37,69L242.49,70.11L243.83,71.11L261.24,72.22L262.58,73L269.28,73.55" style="vector-effect: none; fill: none; stroke: rgb(255, 1, 170); stroke-opacity: 1; stroke-width: 5px; opacity: 1;"/></g><g class="points"/><g class="text"/></g><g class="trace scatter trace7083cd" style="stroke-miterlimit: 2; opacity: 1;"><g class="fills"/><g class="errorbars"/><g class="lines"><path class="js-line" d="M0,66.22L8.04,66.44L9.38,64.88L12.06,68.33L13.4,68.33L96.46,68.89L97.8,69.33L100.48,69L101.82,69L143.35,70.11L144.69,70.33L159.43,71.55L160.77,71.78L166.12,72.11L167.46,72.11L217.03,73.33L218.37,73.67L222.39,73.89" style="vector-effect: none; fill: none; stroke: rgb(202, 166, 105); stroke-opacity: 1; stroke-width: 5px; opacity: 1;"/></g><g class="points"/><g class="text"/></g><g class="trace scatter trace94b00c" style="stroke-miterlimit: 2; opacity: 1;"><g class="fills"/><g class="errorbars"/><g class="lines"><path class="js-line" d="M0,63.33L8.04,63.77L9.38,63.33L34.83,64.66L36.17,64.66L57.61,64.44L58.95,66.11L77.7,65.44L79.04,66.89L93.78,67.22L95.12,68.44L97.8,67.77L99.14,67.11L101.82,69L103.16,69L136.65,68.11L137.99,67.33L143.35,68.55L144.69,69.11L158.09,70.33L159.43,70.78L168.8,71.55L170.14,71.55L217.03,71.55L218.37,73.67L222.39,73.89" style="vector-effect: none; fill: none; stroke: rgb(238, 58, 67); stroke-opacity: 1; stroke-width: 5px; opacity: 1;"/></g><g class="points"/><g class="text"/></g></g></g><g class="overplot"/><path class="xlines-above crisp" d="M0,0" style="fill: none;"/><path class="ylines-above crisp" d="M0,0" style="fill: none;"/><g class="overlines-above"/><g class="xaxislayer-above"/><g class="yaxislayer-above"/><g class="overaxes-above"/></g></g><g class="polarlayer"/><g class="smithlayer"/><g class="ternarylayer"/><g class="geolayer"/><g class="funnelarealayer"/><g class="pielayer"/><g class="iciclelayer"/><g class="treemaplayer"/><g class="sunburstlayer"/><g class="glimages"/><defs id="topdefs-39ceb3"><g class="clips"/></defs><g class="layer-above"><g class="imagelayer"/><g class="shapelayer"/></g><g class="infolayer"><g class="g-gtitle"><text class="gtitle" x="15" y="25" text-anchor="start" dy="0em" style="font-family: Ubuntu, verdana, arial, sans-serif; font-size: 16px; fill: rgb(233, 84, 32); opacity: 1; font-weight: normal; white-space: pre;">Prezident/ka 2024</text></g><g class="g-xtitle"/><g class="g-ytitle"/></g></svg>