<svg class="main-svg" xmlns="http://www.w3.org/2000/svg" xmlns:xlink="http://www.w3.org/1999/xlink" width="300" height="135" style="" viewBox="0 0 300 135"><rect x="0" y="0" width="300" height="135" style="fill: rgb(255, 255, 255); fill-opacity: 1;"/><defs id="defs-190a10"><g class="clips"><clipPath id="clip190a10xyplot" class="plotclip"><rect width="280" height="75"/></clipPath><clipPath class="axesclip" id="clip190a10x"><rect x="10" y="0" width="280" height="135"/></clipPath><clipPath class="axesclip" id="clip190a10y"><rect x="0" y="50" width="300" height="75"/></clipPath><clipPath class="axesclip" id="clip190a10xy"><rect x="10" y="50" width="280" height="75"/></clipPath></g><g class="gradients"/><g class="patterns"/></defs><g class="bglayer"/><g class="layer-below"><g class="imagelayer"/><g class="shapelayer"/></g><g class="cartesianlayer"><g class="subplot xy"><g class="layer-subplot"><g class="shapelayer"/><g class="imagelayer"/></g><g class="minor-gridlayer"><g class="x"/><g class="y"/></g><g class="gridlayer"><g class="x"><path class="xgrid crisp" transform="translate(25.82,0)" d="M0,50v75" style="stroke: rgb(235, 240, 248); stroke-opacity: 1; stroke-width: 1px;"/><path class="xgrid crisp" transform="translate(123.9,0)" d="M0,50v75" style="stroke: rgb(235, 240, 248); stroke-opacity: 1; stroke-width: 1px;"/><path class="xgrid crisp" transform="translate(220.4,0)" d="M0,50v75" style="stroke: rgb(235, 240, 248); stroke-opacity: 1; stroke-width: 1px;"/></g><g class="y"><path class="ygrid crisp" transform="translate(0,101.28999999999999)" d="M10,0h280" style="stroke: rgb(235, 240, 248); stroke-opacity: 1; stroke-width: 1px;"/><path class="ygrid crisp" transform="translate(0,77.58)" d="M10,0h280" style="stroke: rgb(235, 240, 248); stroke-opacity: 1; stroke-width: 1px;"/><path class="ygrid crisp" transform="translate(0,53.87)" d="M10,0h280" style="stroke: rgb(235, 240, 248); stroke-opacity: 1; stroke-width: 1px;"/></g></g><g class="zerolinelayer"><path class="yzl zl crisp" transform="translate(0,125)" d="M10,0h280" style="stroke: rgb(235, 240, 248); stroke-opacity: 1; stroke-width: 2px;"/></g><path class="xlines-below"/><path class="ylines-below"/><g class="overlines-below"/><g class="xaxislayer-below"/><g class="yaxislayer-below"/><g class="overaxes-below"/><g class="plot" transform="translate(10,50)" clip-path="url(#clip190a10xyplot)"><g class="scatterlayer mlayer"><g class="trace scatter trace5cda72" style="stroke-miterlimit: 2; opacity: 1;"><g class="fills"/><g class="errorbars"/><g class="lines"><path class="js-line" d="M0,50.22L4.75,47.14L6.33,47.14L12.66,47.38L14.24,46.55L36.38,45.6L37.97,44.89L68.02,44.06L69.6,39.08L88.59,39.08L91.75,42.52L93.33,41.81L96.5,41.81L109.15,41.57L110.73,44.18L113.9,45.48L115.48,45.01L117.06,44.53L118.64,45.6L159.77,44.89L161.36,42.52L164.52,43.47L166.1,43.47L167.68,43.23L169.27,39.32L170.85,36.94L172.43,36.94L175.59,36.35L177.18,32.44L180.34,30.19L181.92,30.19L186.67,29.48L188.25,28.41L192.99,25.8L194.58,25.8L207.23,26.16L208.81,27.34L221.47,27.34L223.05,25.68L224.63,25.68L226.21,22.84L232.54,22.84L234.12,19.64L243.62,19.64L245.2,17.74L248.36,17.03L249.94,17.03L256.27,14.66L257.85,10.63L261.02,10.63L262.6,8.61L264.18,3.75L265.76,3.75L278.42,3.75L280,5.05" style="vector-effect: none; fill: none; stroke: rgb(138, 44, 81); stroke-opacity: 1; stroke-width: 5px; opacity: 1;"/></g><g class="points"/><g class="text"/></g><g class="trace scatter trace9e146a" style="stroke-miterlimit: 2; opacity: 1;"><g class="fills"/><g class="errorbars"/><g class="lines"><path class="js-line" d="M0,23.31L4.75,24.97L6.33,24.97L12.66,24.73L14.24,24.02L91.75,25.09L93.33,28.41L109.15,27.34L110.73,24.62L112.32,20.58L113.9,20.58L117.06,22.72L118.64,19.16L132.88,19.16L134.46,20.94L136.05,20.94L137.63,19.16L139.21,20.94L140.79,18.81L143.95,18.33L145.54,20.58L147.12,18.33L148.7,18.33L151.86,18.33L153.45,20.58L155.03,20.58L156.61,18.33L158.19,20.58L159.77,20.58L161.36,18.45L162.94,21.18L174.01,21.89L175.59,22.48L178.76,25.21L180.34,25.33L204.07,26.16L205.65,26.87L224.63,26.99L226.21,28.17L243.62,27.93L245.2,29.83L256.27,32.32L257.85,30.07L262.6,31.25L264.18,32.8L280,31.61" style="vector-effect: none; fill: none; stroke: rgb(0, 174, 239); stroke-opacity: 1; stroke-width: 5px; opacity: 1;"/></g><g class="points"/><g class="text"/></g><g class="trace scatter trace2b534b" style="stroke-miterlimit: 2; opacity: 1;"><g class="fills"/><g class="errorbars"/><g class="lines"><path class="js-line" d="M0,63.03L11.07,64.21L12.66,63.5L15.82,62.79L17.4,62.79L68.02,63.03L69.6,64.45L91.75,63.5L93.33,55.79L110.73,56.51L112.32,57.22L140.79,57.57L142.37,58.05L159.77,57.22L161.36,60.66L162.94,58.28L164.52,58.28L167.68,58.4L169.27,60.18L172.43,61.6L174.01,61.6L175.59,61.25L177.18,62.43L185.08,62.67L186.67,62.55L194.58,63.14L196.16,63.14L204.07,62.67L205.65,61.6L207.23,61.6L208.81,59.94L221.47,59.94L223.05,61.49L229.38,63.62L230.96,63.62L253.11,64.8L254.69,64.92L256.27,64.92L257.85,68.6L280,69.78" style="vector-effect: none; fill: none; stroke: rgb(255, 1, 170); stroke-opacity: 1; stroke-width: 5px; opacity: 1;"/></g><g class="points"/><g class="text"/></g><g class="trace scatter traceba521e" style="stroke-miterlimit: 2; opacity: 1;"><g class="fills"/><g class="errorbars"/><g class="lines"><path class="js-line" d="M0,66.7L15.82,66.82L17.4,66.82L58.53,67.18L60.11,68.12L88.59,69.07L91.75,67.65L93.33,70.73L96.5,70.73L117.06,71.68L118.64,72.15L186.67,72.98L188.25,73.46L232.54,73.46" style="vector-effect: none; fill: none; stroke: rgb(255, 192, 203); stroke-opacity: 1; stroke-width: 5px; opacity: 1;"/></g><g class="points"/><g class="text"/></g><g class="trace scatter traceb21866" style="stroke-miterlimit: 2; opacity: 1;"><g class="fills"/><g class="errorbars"/><g class="lines"><path class="js-line" d="M0,62.55L9.49,63.03L11.07,62.55L39.55,63.97L41.13,63.97L68.02,63.74L69.6,65.52L91.75,64.8L93.33,66.35L110.73,66.7L112.32,68.01L115.48,67.29L117.06,66.58L118.64,68.6L120.23,68.6L161.36,67.65L162.94,66.82L167.68,66.94L169.27,68.12L174.01,68.72L175.59,68.95L183.5,69.78L185.08,69.78L199.32,71.32L200.9,71.32L256.27,71.32L257.85,73.58L262.6,73.81" style="vector-effect: none; fill: none; stroke: rgb(238, 58, 67); stroke-opacity: 1; stroke-width: 5px; opacity: 1;"/></g><g class="points"/><g class="text"/></g></g></g><g class="overplot"/><path class="xlines-above crisp" d="M0,0" style="fill: none;"/><path class="ylines-above crisp" d="M0,0" style="fill: none;"/><g class="overlines-above"/><g class="xaxislayer-above"/><g class="yaxislayer-above"/><g class="overaxes-above"/></g></g><g class="polarlayer"/><g class="smithlayer"/><g class="ternarylayer"/><g class="geolayer"/><g class="funnelarealayer"/><g class="pielayer"/><g class="iciclelayer"/><g class="treemaplayer"/><g class="sunburstlayer"/><g class="glimages"/><defs id="topdefs-190a10"><g class="clips"/></defs><g class="layer-above"><g class="imagelayer"/><g class="shapelayer"/></g><g class="infolayer"><g class="g-gtitle"><text class="gtitle" x="15" y="25" text-anchor="start" dy="0em" style="font-family: Ubuntu, verdana, arial, sans-serif; font-size: 16px; fill: rgb(233, 84, 32); opacity: 1; font-weight: normal; white-space: pre;">Prezident/ka 2024</text></g><g class="g-xtitle"/><g class="g-ytitle"/></g></svg>