<svg class="main-svg" xmlns="http://www.w3.org/2000/svg" xmlns:xlink="http://www.w3.org/1999/xlink" width="300" height="135" style="" viewBox="0 0 300 135"><rect x="0" y="0" width="300" height="135" style="fill: rgb(255, 255, 255); fill-opacity: 1;"/><defs id="defs-dbf573"><g class="clips"><clipPath id="clipdbf573xyplot" class="plotclip"><rect width="280" height="75"/></clipPath><clipPath class="axesclip" id="clipdbf573x"><rect x="10" y="0" width="280" height="135"/></clipPath><clipPath class="axesclip" id="clipdbf573y"><rect x="0" y="50" width="300" height="75"/></clipPath><clipPath class="axesclip" id="clipdbf573xy"><rect x="10" y="50" width="280" height="75"/></clipPath></g><g class="gradients"/><g class="patterns"/></defs><g class="bglayer"/><g class="layer-below"><g class="imagelayer"/><g class="shapelayer"/></g><g class="cartesianlayer"><g class="subplot xy"><g class="layer-subplot"><g class="shapelayer"/><g class="imagelayer"/></g><g class="minor-gridlayer"><g class="x"/><g class="y"/></g><g class="gridlayer"><g class="x"><path class="xgrid crisp" transform="translate(23.33,0)" d="M0,50v75" style="stroke: rgb(235, 240, 248); stroke-opacity: 1; stroke-width: 1px;"/><path class="xgrid crisp" transform="translate(106,0)" d="M0,50v75" style="stroke: rgb(235, 240, 248); stroke-opacity: 1; stroke-width: 1px;"/><path class="xgrid crisp" transform="translate(187.33,0)" d="M0,50v75" style="stroke: rgb(235, 240, 248); stroke-opacity: 1; stroke-width: 1px;"/><path class="xgrid crisp" transform="translate(268.67,0)" d="M0,50v75" style="stroke: rgb(235, 240, 248); stroke-opacity: 1; stroke-width: 1px;"/></g><g class="y"><path class="ygrid crisp" transform="translate(0,102.77000000000001)" d="M10,0h280" style="stroke: rgb(235, 240, 248); stroke-opacity: 1; stroke-width: 1px;"/><path class="ygrid crisp" transform="translate(0,80.53999999999999)" d="M10,0h280" style="stroke: rgb(235, 240, 248); stroke-opacity: 1; stroke-width: 1px;"/><path class="ygrid crisp" transform="translate(0,58.31)" d="M10,0h280" style="stroke: rgb(235, 240, 248); stroke-opacity: 1; stroke-width: 1px;"/></g></g><g class="zerolinelayer"><path class="yzl zl crisp" transform="translate(0,125)" d="M10,0h280" style="stroke: rgb(235, 240, 248); stroke-opacity: 1; stroke-width: 2px;"/></g><path class="xlines-below"/><path class="ylines-below"/><g class="overlines-below"/><g class="xaxislayer-below"/><g class="yaxislayer-below"/><g class="overaxes-below"/><g class="plot" transform="translate(10,50)" clip-path="url(#clipdbf573xyplot)"><g class="scatterlayer mlayer"><g class="trace scatter traced1a82b" style="stroke-miterlimit: 2; opacity: 1;"><g class="fills"/><g class="errorbars"/><g class="lines"><path class="js-line" d="M0,51.77L4,48.88L5.33,48.88L10.67,49.1L12,48.32L30.67,47.43L32,46.77L57.33,45.99L58.67,41.32L74.67,41.32L77.33,44.54L81.33,43.88L82.67,43.88L92,43.65L93.33,46.1L96,47.32L97.33,46.88L98.67,46.43L100,47.43L134.67,46.77L136,44.54L138.67,45.43L140,45.43L141.33,45.21L142.67,41.54L145.33,39.32L146.67,39.32L148,38.76L149.33,35.1L152,32.98L153.33,32.98L157.33,32.32L158.67,31.32L162.67,28.87L164,28.87L174.67,29.2L176,30.32L186.67,30.32L188,28.76L189.33,28.76L190.67,26.09L196,26.09L197.33,23.09L205.33,23.09L206.67,21.31L214.67,18.42L216,18.42L217.33,14.64L218.67,14.64L220,14.64L221.33,12.75L222.67,8.2L224,8.2L234.67,8.2L236,9.86L238.67,10.64L240,10.64L242.67,12.86L244,13.53L249.33,12.31L250.67,12.31L260,12.42L261.33,8.75L264,5.08L265.33,4.97L269.33,5.86L270.67,3.75L274.67,4.75L276,5.64L280,8.53" style="vector-effect: none; fill: none; stroke: rgb(138, 44, 81); stroke-opacity: 1; stroke-width: 5px; opacity: 1;"/></g><g class="points"/><g class="text"/></g><g class="trace scatter trace39bd76" style="stroke-miterlimit: 2; opacity: 1;"><g class="fills"/><g class="errorbars"/><g class="lines"><path class="js-line" d="M0,26.54L5.33,28.09L6.67,28.09L10.67,27.87L12,27.2L77.33,28.2L78.67,31.32L92,30.32L93.33,27.76L94.67,23.98L96,23.98L98.67,25.98L100,22.65L112,22.65L113.33,24.31L114.67,24.31L116,22.65L117.33,24.31L118.67,22.31L121.33,21.87L122.67,23.98L125.33,21.87L126.67,21.87L128,21.87L129.33,23.98L130.67,23.98L132,21.87L134.67,23.98L136,21.98L138.67,24.54L140,24.54L148,25.76L149.33,27.65L153.33,28.43L154.67,28.43L172,29.2L173.33,29.87L205.33,30.87L206.67,32.65L216,34.98L217.33,32.87L221.33,33.98L222.67,35.43L234.67,35.43L236,33.87L238.67,32.98L240,32.98L241.33,32.54L242.67,29.98L245.33,29.43L246.67,29.76L260,29.2L261.33,32.09L264,35.43L265.33,35.54L268,33.76L269.33,32.98L272,35.1L273.33,34.54L278.67,32.09L280,30.32" style="vector-effect: none; fill: none; stroke: rgb(0, 174, 239); stroke-opacity: 1; stroke-width: 5px; opacity: 1;"/></g><g class="points"/><g class="text"/></g><g class="trace scatter tracee72180" style="stroke-miterlimit: 2; opacity: 1;"><g class="fills"/><g class="errorbars"/><g class="lines"><path class="js-line" d="M0,63.33L8,63.77L9.33,63.33L34.67,64.66L36,64.66L57.33,64.44L58.67,66.11L77.33,65.44L78.67,66.89L93.33,67.22L94.67,68.44L97.33,67.77L98.67,67.11L101.33,69L102.67,69L136,68.11L137.33,67.33L142.67,68.55L144,69.11L157.33,70.33L158.67,70.78L168,71.55L169.33,71.55L216,71.55L217.33,73.67L221.33,73.89" style="vector-effect: none; fill: none; stroke: rgb(238, 58, 67); stroke-opacity: 1; stroke-width: 5px; opacity: 1;"/></g><g class="points"/><g class="text"/></g><g class="trace scatter tracea074ed" style="stroke-miterlimit: 2; opacity: 1;"><g class="fills"/><g class="errorbars"/><g class="lines"><path class="js-line" d="M0,66.22L8,66.44L9.33,64.88L12,68.33L13.33,68.33L96,68.89L97.33,69.33L100,69L101.33,69L142.67,70.11L144,70.33L158.67,71.55L160,71.78L165.33,72.11L166.67,72.11L216,73.33L217.33,73.67L221.33,73.89" style="vector-effect: none; fill: none; stroke: rgb(202, 166, 105); stroke-opacity: 1; stroke-width: 5px; opacity: 1;"/></g><g class="points"/><g class="text"/></g><g class="trace scatter tracee7b015" style="stroke-miterlimit: 2; opacity: 1;"><g class="fills"/><g class="errorbars"/><g class="lines"><path class="js-line" d="M0,67.22L14.67,67.33L16,67.33L57.33,68.55L58.67,69.44L74.67,69.44L77.33,68.11L78.67,71L81.33,71L98.67,71.89L100,72.33L157.33,73.11L158.67,73.55L196,73.55" style="vector-effect: none; fill: none; stroke: rgb(255, 192, 203); stroke-opacity: 1; stroke-width: 5px; opacity: 1;"/></g><g class="points"/><g class="text"/></g></g></g><g class="overplot"/><path class="xlines-above crisp" d="M0,0" style="fill: none;"/><path class="ylines-above crisp" d="M0,0" style="fill: none;"/><g class="overlines-above"/><g class="xaxislayer-above"/><g class="yaxislayer-above"/><g class="overaxes-above"/></g></g><g class="polarlayer"/><g class="smithlayer"/><g class="ternarylayer"/><g class="geolayer"/><g class="funnelarealayer"/><g class="pielayer"/><g class="iciclelayer"/><g class="treemaplayer"/><g class="sunburstlayer"/><g class="glimages"/><defs id="topdefs-dbf573"><g class="clips"/></defs><g class="layer-above"><g class="imagelayer"/><g class="shapelayer"/></g><g class="infolayer"><g class="g-gtitle"><text class="gtitle" x="15" y="25" text-anchor="start" dy="0em" style="font-family: Ubuntu, verdana, arial, sans-serif; font-size: 16px; fill: rgb(233, 84, 32); opacity: 1; font-weight: normal; white-space: pre;">Prezident/ka 2024</text></g><g class="g-xtitle"/><g class="g-ytitle"/></g></svg>