<svg class="main-svg" xmlns="http://www.w3.org/2000/svg" xmlns:xlink="http://www.w3.org/1999/xlink" width="400" height="400" style="" viewBox="0 0 400 400"><rect x="0" y="0" width="400" height="400" style="fill: rgb(255, 255, 255); fill-opacity: 1;"/><defs id="defs-5bf5d3"><g class="clips"><clipPath id="clip5bf5d3xyplot" class="plotclip"><rect width="206" height="330"/></clipPath><clipPath class="axesclip" id="clip5bf5d3x"><rect x="50" y="0" width="206" height="400"/></clipPath><clipPath class="axesclip" id="clip5bf5d3y"><rect x="0" y="20" width="400" height="330"/></clipPath><clipPath class="axesclip" id="clip5bf5d3xy"><rect x="50" y="20" width="206" height="330"/></clipPath></g><g class="gradients"/><g class="patterns"/></defs><g class="bglayer"/><g class="layer-below"><g class="imagelayer"/><g class="shapelayer"/></g><g class="cartesianlayer"><g class="subplot xy"><g class="layer-subplot"><g class="shapelayer"/><g class="imagelayer"/></g><g class="minor-gridlayer"><g class="x"/><g class="y"/></g><g class="gridlayer"><g class="x"><path class="xgrid crisp" transform="translate(57.1,0)" d="M0,20v330" style="stroke: rgb(235, 240, 248); stroke-opacity: 1; stroke-width: 1px;"/><path class="xgrid crisp" transform="translate(101.14,0)" d="M0,20v330" style="stroke: rgb(235, 240, 248); stroke-opacity: 1; stroke-width: 1px;"/><path class="xgrid crisp" transform="translate(144.48000000000002,0)" d="M0,20v330" style="stroke: rgb(235, 240, 248); stroke-opacity: 1; stroke-width: 1px;"/><path class="xgrid crisp" transform="translate(187.81,0)" d="M0,20v330" style="stroke: rgb(235, 240, 248); stroke-opacity: 1; stroke-width: 1px;"/><path class="xgrid crisp" transform="translate(230.43,0)" d="M0,20v330" style="stroke: rgb(235, 240, 248); stroke-opacity: 1; stroke-width: 1px;"/></g><g class="y"><path class="ygrid crisp" transform="translate(0,304.96)" d="M50,0h206" style="stroke: rgb(235, 240, 248); stroke-opacity: 1; stroke-width: 1px;"/><path class="ygrid crisp" transform="translate(0,259.90999999999997)" d="M50,0h206" style="stroke: rgb(235, 240, 248); stroke-opacity: 1; stroke-width: 1px;"/><path class="ygrid crisp" transform="translate(0,214.87)" d="M50,0h206" style="stroke: rgb(235, 240, 248); stroke-opacity: 1; stroke-width: 1px;"/><path class="ygrid crisp" transform="translate(0,169.83)" d="M50,0h206" style="stroke: rgb(235, 240, 248); stroke-opacity: 1; stroke-width: 1px;"/><path class="ygrid crisp" transform="translate(0,124.78)" d="M50,0h206" style="stroke: rgb(235, 240, 248); stroke-opacity: 1; stroke-width: 1px;"/><path class="ygrid crisp" transform="translate(0,79.74000000000001)" d="M50,0h206" style="stroke: rgb(235, 240, 248); stroke-opacity: 1; stroke-width: 1px;"/><path class="ygrid crisp" transform="translate(0,34.7)" d="M50,0h206" style="stroke: rgb(235, 240, 248); stroke-opacity: 1; stroke-width: 1px;"/></g></g><g class="zerolinelayer"><path class="yzl zl crisp" transform="translate(0,350)" d="M50,0h206" style="stroke: rgb(235, 240, 248); stroke-opacity: 1; stroke-width: 2px;"/></g><path class="xlines-below"/><path class="ylines-below"/><g class="overlines-below"/><g class="xaxislayer-below"/><g class="yaxislayer-below"/><g class="overaxes-below"/><g class="plot" transform="translate(50,20)" clip-path="url(#clip5bf5d3xyplot)"><g class="scatterlayer mlayer"><g class="trace scatter trace9c7179" style="stroke-miterlimit: 2; opacity: 1;"><g class="fills"/><g class="errorbars"/><g class="lines"><path class="js-line" d="M0,235.86L2.13,224.15L2.84,224.15L4.26,224.15L4.97,227.3L7.1,221.9L7.81,221.9L9.94,221.9L10.66,220.55L12.79,220.55L13.5,219.19L15.63,218.29L16.34,218.29L17.76,215.59L18.47,215.59L26.28,215.59L26.99,212.44L30.54,212.44L31.26,193.52L39.78,193.52L41.2,206.58L41.91,203.88L43.33,203.88L49.01,202.98L49.72,212.89L51.14,217.84L51.86,216.04L52.57,214.24L53.28,218.29L59.67,218.29L60.38,216.49L61.09,216.49L61.8,218.29L62.51,216.49L63.22,217.84L63.93,216.49L71.74,215.59L72.46,206.58L73.88,210.19L74.59,210.19L75.3,209.28L76.01,194.42L77.43,185.41L78.14,185.41L78.85,183.16L79.56,168.3L80.98,159.74L81.69,159.74L83.11,159.74L83.82,157.03L86.66,143.07L87.37,143.07L91.63,143.52L92.34,144.42L93.06,144.42L93.77,148.93L99.45,148.93L100.16,142.62L100.87,142.62L101.58,131.81L104.42,131.81L105.13,119.65L109.39,119.65L110.1,112.44L111.52,109.74L112.23,109.74L115.08,100.73L115.79,85.42L117.21,85.42L117.92,77.76L119.34,59.29L120.05,59.29L125.02,59.29L125.73,66.05L127.15,69.2L127.86,69.2L128.57,71L129.28,78.21L129.99,80.91L130.7,79.11L131.41,75.96L137.1,75.06L137.81,77.31L138.52,76.41L139.23,61.54L141.36,46.23L142.07,47.58L142.78,52.98L143.49,49.83L144.2,41.27L144.91,41.27L145.62,43.53L147.04,48.93L147.75,52.98L148.46,53.44L149.17,68.75L149.88,74.16L150.59,68.75L151.3,71L152.01,69.2L152.72,61.99L153.43,60.19L154.14,62.44L155.57,63.8L156.28,61.09L159.12,44.88L159.83,44.88L160.54,46.68L161.25,52.08L161.96,52.98L162.67,49.38L163.38,48.93L164.09,52.08L166.22,86.32L166.93,85.42L167.64,85.42L168.35,85.87L169.06,89.92L169.77,91.27L170.48,90.37L171.19,85.42L173.32,93.52L174.03,87.22L176.17,59.74L176.88,59.29L177.59,49.38L178.3,49.83L179.01,49.38L179.72,47.13L180.43,50.28L181.85,57.49L182.56,57.94L183.27,57.49L183.98,55.24L187.53,49.83L188.24,45.33L189.66,40.82L190.37,28.66L193.21,19.2L193.92,16.5" style="vector-effect: none; fill: none; stroke: rgb(138, 44, 81); stroke-opacity: 1; stroke-width: 5px; opacity: 1;"/></g><g class="points"/><g class="text"/></g><g class="trace scatter tracee3b99c" style="stroke-miterlimit: 2; opacity: 1;"><g class="fills"/><g class="errorbars"/><g class="lines"><path class="js-line" d="M0,133.61L2.13,139.92L2.84,139.92L4.26,139.92L4.97,143.07L7.1,136.31L7.81,136.31L13.5,137.22L14.21,138.12L16.34,138.12L17.05,140.37L41.2,140.37L41.91,152.98L47.59,152.98L48.3,150.73L49.01,148.93L49.72,138.57L51.14,123.25L51.86,127.31L52.57,131.36L53.28,117.85L59.67,117.85L60.38,124.6L61.09,124.6L61.8,117.85L62.51,124.6L63.22,116.5L64.64,114.69L65.35,123.25L66.77,114.69L67.48,114.69L68.19,114.69L68.9,123.25L69.61,123.25L70.32,114.69L71.74,123.25L72.46,115.14L73.88,125.5L74.59,125.5L75.3,125.5L76.01,128.21L78.14,128.21L78.85,130.46L80.98,141.27L81.69,141.27L84.53,141.27L85.24,142.62L88.08,143.07L88.79,143.07L90.92,143.07L91.63,144.42L93.77,148.93L95.19,148.93L100.16,149.38L100.87,147.58L102.29,152.08L103,152.08L109.39,151.18L110.1,158.39L111.52,160.19L112.23,160.19L115.08,167.84L115.79,159.29L117.21,159.29L117.92,163.79L119.34,169.65L120.05,169.65L125.02,169.65L125.73,163.34L127.15,159.74L127.86,159.74L128.57,157.94L129.28,147.58L129.99,144.42L130.7,145.32L131.41,146.67L137.1,146.67L137.81,144.42L138.52,144.42L139.23,156.13L141.36,170.1L142.07,168.75L143.49,159.74L144.2,168.3L144.91,168.3L145.62,166.04L147.04,160.64L147.75,156.58L148.46,156.13L149.17,140.82L149.88,135.41L150.59,140.82L151.3,138.57L152.01,140.37L152.72,147.58L153.43,149.38L154.14,147.13L155.57,145.77L156.28,148.48L159.12,164.69L159.83,164.69L160.54,162.89L161.25,157.48L161.96,156.58L162.67,160.19L163.38,160.64L164.09,157.48L166.22,123.25L166.93,124.15L167.64,124.15L168.35,123.7L169.06,119.65L169.77,118.3L170.48,119.2L171.19,124.15L173.32,116.05L174.03,122.35L176.17,149.83L176.88,150.28L177.59,160.19L178.3,159.74L179.01,160.19L179.72,162.44L180.43,159.29L181.85,152.08L182.56,151.63L183.27,152.08L183.98,154.33L187.53,159.74L188.24,164.24L189.66,168.75L190.37,180.91L193.21,190.37L193.92,193.07" style="vector-effect: none; fill: none; stroke: rgb(0, 174, 239); stroke-opacity: 1; stroke-width: 5px; opacity: 1;"/></g><g class="points"/><g class="text"/></g><g class="trace scatter tracebfde07" style="stroke-miterlimit: 2; opacity: 1;"><g class="fills"/><g class="errorbars"/><g class="lines"><path class="js-line" d="M0,284.51L2.13,285.86L2.84,285.86L4.26,285.86L4.97,289.01L7.1,283.61L7.81,283.61L30.54,284.51L31.26,289.91L39.78,289.91L41.2,286.31L41.91,257.03L43.33,257.03L47.59,257.03L48.3,258.38L51.14,262.44L51.86,261.08L52.57,259.28L53.28,262.89L59.67,262.89L60.38,261.08L61.09,261.08L61.8,262.89L62.51,261.08L63.22,263.79L64.64,265.59L65.35,262.44L66.77,265.59L67.48,265.59L68.19,265.59L68.9,262.44L69.61,262.44L70.32,265.59L71.74,262.44L72.46,275.5L73.88,266.49L74.59,266.49L75.3,266.94L76.01,273.7L77.43,279.1L78.14,279.1L78.85,277.75L79.56,282.25L81.69,283.16L82.4,283.16L85.24,283.16L85.95,284.96L90.92,284.96L91.63,283.16L93.77,272.8L95.19,272.8L99.45,272.8L100.16,278.65L100.87,280.45L101.58,286.76L104.42,286.76L105.13,290.36L113.66,291.26L114.37,291.71L115.08,291.71L115.79,305.68L117.21,305.68L117.92,307.48L119.34,310.18L120.05,310.18L128.57,310.18L129.28,314.23L130.7,315.14L131.41,316.94L137.81,317.84L138.52,318.74L140.65,323.24L141.36,323.24L142.78,324.14" style="vector-effect: none; fill: none; stroke: rgb(255, 1, 170); stroke-opacity: 1; stroke-width: 5px; opacity: 1;"/></g><g class="points"/><g class="text"/></g><g class="trace scatter tracebd27db" style="stroke-miterlimit: 2; opacity: 1;"><g class="fills"/><g class="errorbars"/><g class="lines"><path class="js-line" d="M0,294.42L3.55,295.32L4.26,295.32L4.97,289.01L5.68,297.57L7.1,302.97L7.81,302.97L26.28,302.07L26.99,301.62L30.54,301.62L31.26,303.88L41.2,302.97L41.91,304.78L51.14,305.23L51.86,307.03L52.57,308.83L53.28,305.68L59.67,305.68L60.38,307.03L61.09,307.03L61.8,305.68L63.93,308.38L64.64,308.38L66.77,308.38L67.48,308.38L71.74,308.83L72.46,310.18L76.01,310.18L76.72,311.08L79.56,311.98L80.27,313.33L84.53,316.04L85.24,316.94L86.66,318.29L87.37,318.29L104.42,318.29L105.13,322.79L115.08,323.24L115.79,324.59L117.92,325.5" style="vector-effect: none; fill: none; stroke: rgb(202, 166, 105); stroke-opacity: 1; stroke-width: 5px; opacity: 1;"/></g><g class="points"/><g class="text"/></g><g class="trace scatter trace1e05ef" style="stroke-miterlimit: 2; opacity: 1;"><g class="fills"/><g class="errorbars"/><g class="lines"><path class="js-line" d="M0,282.7L2.84,284.51L3.55,284.51L4.26,284.51L4.97,282.7L5.68,283.16L6.39,285.41L12.79,285.86L13.5,287.21L15.63,288.11L16.34,288.11L30.54,287.21L31.26,293.97L39.78,293.97L41.2,291.26L41.91,297.12L43.33,297.12L48.3,297.57L49.01,298.47L49.72,298.47L50.43,303.42L51.14,303.42L51.86,300.72L52.57,298.02L53.28,305.68L59.67,305.68L60.38,302.07L61.09,302.07L61.8,305.68L62.51,302.07L63.22,305.23L64.64,305.23L65.35,301.62L66.77,305.23L67.48,305.23L68.19,305.23L68.9,301.62L69.61,301.62L70.32,305.23L71.74,301.62L72.46,302.07L73.88,298.92L74.59,298.92L75.3,299.37L76.01,303.88L77.43,306.13L78.14,306.13L81.69,310.18L82.4,310.18L83.82,311.08L84.53,312.88L87.37,316.04L88.08,316.04L115.08,316.04L115.79,324.59L117.92,325.5" style="vector-effect: none; fill: none; stroke: rgb(238, 58, 67); stroke-opacity: 1; stroke-width: 5px; opacity: 1;"/></g><g class="points"/><g class="text"/></g><g class="trace scatter trace52a6b2" style="stroke-miterlimit: 2; opacity: 1;"><g class="fills"/><g class="errorbars"/><g class="lines"><path class="js-line" d="M0,298.47L3.55,299.82L4.26,299.82L7.1,298.92L7.81,298.92L16.34,299.37L17.05,300.27L26.28,300.27L26.99,303.88L30.54,303.88L31.26,307.48L39.78,307.48L41.2,302.07L41.91,313.78L43.33,313.78L49.72,314.23L50.43,317.39L52.57,317.39L53.28,319.19L71.74,318.29L72.46,319.64L74.59,318.74L75.3,318.74L78.85,319.64L79.56,320.54L83.82,322.34L84.53,324.14L104.42,324.14" style="vector-effect: none; fill: none; stroke: rgb(255, 192, 203); stroke-opacity: 1; stroke-width: 5px; opacity: 1;"/></g><g class="points"/><g class="text"/></g></g></g><g class="overplot"/><path class="xlines-above crisp" d="M0,0" style="fill: none;"/><path class="ylines-above crisp" d="M0,0" style="fill: none;"/><g class="overlines-above"/><g class="xaxislayer-above"><g class="xtick"><text text-anchor="middle" x="0" y="363" transform="translate(57.1,0)" style="font-family: 'Open Sans', verdana, arial, sans-serif; font-size: 12px; fill: rgb(42, 63, 95); fill-opacity: 1; white-space: pre; opacity: 1;">1.7.23</text></g><g class="xtick"><text text-anchor="middle" x="0" y="363" style="font-family: 'Open Sans', verdana, arial, sans-serif; font-size: 12px; fill: rgb(42, 63, 95); fill-opacity: 1; white-space: pre; opacity: 1;" transform="translate(101.14,0)">1.9.23</text></g><g class="xtick"><text text-anchor="middle" x="0" y="363" style="font-family: 'Open Sans', verdana, arial, sans-serif; font-size: 12px; fill: rgb(42, 63, 95); fill-opacity: 1; white-space: pre; opacity: 1;" transform="translate(144.48000000000002,0)">1.11.23</text></g><g class="xtick"><text text-anchor="middle" x="0" y="363" style="font-family: 'Open Sans', verdana, arial, sans-serif; font-size: 12px; fill: rgb(42, 63, 95); fill-opacity: 1; white-space: pre; opacity: 1;" transform="translate(187.81,0)">1.1.24</text></g><g class="xtick"><text text-anchor="middle" x="0" y="363" style="font-family: 'Open Sans', verdana, arial, sans-serif; font-size: 12px; fill: rgb(42, 63, 95); fill-opacity: 1; white-space: pre; opacity: 1;" transform="translate(230.43,0)">1.3.24</text></g></g><g class="yaxislayer-above"><g class="ytick"><text text-anchor="end" x="49" y="4.199999999999999" transform="translate(0,350)" style="font-family: 'Open Sans', verdana, arial, sans-serif; font-size: 12px; fill: rgb(42, 63, 95); fill-opacity: 1; white-space: pre; opacity: 1;">0%</text></g><g class="ytick"><text text-anchor="end" x="49" y="4.199999999999999" style="font-family: 'Open Sans', verdana, arial, sans-serif; font-size: 12px; fill: rgb(42, 63, 95); fill-opacity: 1; white-space: pre; opacity: 1;" transform="translate(0,304.96)">10%</text></g><g class="ytick"><text text-anchor="end" x="49" y="4.199999999999999" style="font-family: 'Open Sans', verdana, arial, sans-serif; font-size: 12px; fill: rgb(42, 63, 95); fill-opacity: 1; white-space: pre; opacity: 1;" transform="translate(0,259.90999999999997)">20%</text></g><g class="ytick"><text text-anchor="end" x="49" y="4.199999999999999" style="font-family: 'Open Sans', verdana, arial, sans-serif; font-size: 12px; fill: rgb(42, 63, 95); fill-opacity: 1; white-space: pre; opacity: 1;" transform="translate(0,214.87)">30%</text></g><g class="ytick"><text text-anchor="end" x="49" y="4.199999999999999" style="font-family: 'Open Sans', verdana, arial, sans-serif; font-size: 12px; fill: rgb(42, 63, 95); fill-opacity: 1; white-space: pre; opacity: 1;" transform="translate(0,169.83)">40%</text></g><g class="ytick"><text text-anchor="end" x="49" y="4.199999999999999" style="font-family: 'Open Sans', verdana, arial, sans-serif; font-size: 12px; fill: rgb(42, 63, 95); fill-opacity: 1; white-space: pre; opacity: 1;" transform="translate(0,124.78)">50%</text></g><g class="ytick"><text text-anchor="end" x="49" y="4.199999999999999" style="font-family: 'Open Sans', verdana, arial, sans-serif; font-size: 12px; fill: rgb(42, 63, 95); fill-opacity: 1; white-space: pre; opacity: 1;" transform="translate(0,79.74000000000001)">60%</text></g><g class="ytick"><text text-anchor="end" x="49" y="4.199999999999999" style="font-family: 'Open Sans', verdana, arial, sans-serif; font-size: 12px; fill: rgb(42, 63, 95); fill-opacity: 1; white-space: pre; opacity: 1;" transform="translate(0,34.7)">70%</text></g></g><g class="overaxes-above"/></g></g><g class="polarlayer"/><g class="smithlayer"/><g class="ternarylayer"/><g class="geolayer"/><g class="funnelarealayer"/><g class="pielayer"/><g class="iciclelayer"/><g class="treemaplayer"/><g class="sunburstlayer"/><g class="glimages"/><defs id="topdefs-5bf5d3"><g class="clips"/><clipPath id="legend5bf5d3"><rect width="128" height="124" x="0" y="0"/></clipPath></defs><g class="layer-above"><g class="imagelayer"/><g class="shapelayer"/></g><g class="infolayer"><g class="legend" pointer-events="all" transform="translate(260.12,20)"><rect class="bg" shape-rendering="crispEdges" width="128" height="124" x="0" y="0" style="stroke: rgb(68, 68, 68); stroke-opacity: 1; fill: rgb(255, 255, 255); fill-opacity: 1; stroke-width: 0px;"/><g class="scrollbox" transform="" clip-path="url(#legend5bf5d3)"><g class="groups"><g class="traces" transform="translate(0,14.5)" style="opacity: 1;"><text class="legendtext" text-anchor="start" x="40" y="4.680000000000001" style="font-family: 'Open Sans', verdana, arial, sans-serif; font-size: 12px; fill: rgb(42, 63, 95); fill-opacity: 1; white-space: pre;">Pellegrini Peter</text><g class="layers" style="opacity: 1;"><g class="legendfill"/><g class="legendlines"><path class="js-line" d="M5,0h30" style="fill: none; stroke: rgb(138, 44, 81); stroke-opacity: 1; stroke-width: 5px;"/></g><g class="legendsymbols"><g class="legendpoints"/></g></g><rect class="legendtoggle" x="0" y="-9.5" width="122.703125" height="19" style="fill: rgb(0, 0, 0); fill-opacity: 0;"/></g><g class="traces" transform="translate(0,33.5)" style="opacity: 1;"><text class="legendtext" text-anchor="start" x="40" y="4.680000000000001" style="font-family: 'Open Sans', verdana, arial, sans-serif; font-size: 12px; fill: rgb(42, 63, 95); fill-opacity: 1; white-space: pre;">Korčok Ivan</text><g class="layers" style="opacity: 1;"><g class="legendfill"/><g class="legendlines"><path class="js-line" d="M5,0h30" style="fill: none; stroke: rgb(0, 174, 239); stroke-opacity: 1; stroke-width: 5px;"/></g><g class="legendsymbols"><g class="legendpoints"/></g></g><rect class="legendtoggle" x="0" y="-9.5" width="122.703125" height="19" style="fill: rgb(0, 0, 0); fill-opacity: 0;"/></g><g class="traces" transform="translate(0,52.5)" style="opacity: 1;"><text class="legendtext" text-anchor="start" x="40" y="4.680000000000001" style="font-family: 'Open Sans', verdana, arial, sans-serif; font-size: 12px; fill: rgb(42, 63, 95); fill-opacity: 1; white-space: pre;">Kubiš Ján</text><g class="layers" style="opacity: 1;"><g class="legendfill"/><g class="legendlines"><path class="js-line" d="M5,0h30" style="fill: none; stroke: rgb(255, 1, 170); stroke-opacity: 1; stroke-width: 5px;"/></g><g class="legendsymbols"><g class="legendpoints"/></g></g><rect class="legendtoggle" x="0" y="-9.5" width="122.703125" height="19" style="fill: rgb(0, 0, 0); fill-opacity: 0;"/></g><g class="traces" transform="translate(0,71.5)" style="opacity: 1;"><text class="legendtext" text-anchor="start" x="40" y="4.680000000000001" style="font-family: 'Open Sans', verdana, arial, sans-serif; font-size: 12px; fill: rgb(42, 63, 95); fill-opacity: 1; white-space: pre;">Mistrík Robert</text><g class="layers" style="opacity: 1;"><g class="legendfill"/><g class="legendlines"><path class="js-line" d="M5,0h30" style="fill: none; stroke: rgb(202, 166, 105); stroke-opacity: 1; stroke-width: 5px;"/></g><g class="legendsymbols"><g class="legendpoints"/></g></g><rect class="legendtoggle" x="0" y="-9.5" width="122.703125" height="19" style="fill: rgb(0, 0, 0); fill-opacity: 0;"/></g><g class="traces" transform="translate(0,90.5)" style="opacity: 1;"><text class="legendtext" text-anchor="start" x="40" y="4.680000000000001" style="font-family: 'Open Sans', verdana, arial, sans-serif; font-size: 12px; fill: rgb(42, 63, 95); fill-opacity: 1; white-space: pre;">Fico Robert</text><g class="layers" style="opacity: 1;"><g class="legendfill"/><g class="legendlines"><path class="js-line" d="M5,0h30" style="fill: none; stroke: rgb(238, 58, 67); stroke-opacity: 1; stroke-width: 5px;"/></g><g class="legendsymbols"><g class="legendpoints"/></g></g><rect class="legendtoggle" x="0" y="-9.5" width="122.703125" height="19" style="fill: rgb(0, 0, 0); fill-opacity: 0;"/></g><g class="traces" transform="translate(0,109.5)" style="opacity: 1;"><text class="legendtext" text-anchor="start" x="40" y="4.680000000000001" style="font-family: 'Open Sans', verdana, arial, sans-serif; font-size: 12px; fill: rgb(42, 63, 95); fill-opacity: 1; white-space: pre;">Lajčák Miroslav</text><g class="layers" style="opacity: 1;"><g class="legendfill"/><g class="legendlines"><path class="js-line" d="M5,0h30" style="fill: none; stroke: rgb(255, 192, 203); stroke-opacity: 1; stroke-width: 5px;"/></g><g class="legendsymbols"><g class="legendpoints"/></g></g><rect class="legendtoggle" x="0" y="-9.5" width="122.703125" height="19" style="fill: rgb(0, 0, 0); fill-opacity: 0;"/></g></g></g><rect class="scrollbar" rx="20" ry="3" width="0" height="0" x="0" y="0" style="fill: rgb(128, 139, 164); fill-opacity: 1;"/></g><g class="g-gtitle"/><g class="g-xtitle"/><g class="g-ytitle"/></g></svg>