<svg class="main-svg" xmlns="http://www.w3.org/2000/svg" xmlns:xlink="http://www.w3.org/1999/xlink" width="300" height="135" style="" viewBox="0 0 300 135"><rect x="0" y="0" width="300" height="135" style="fill: rgb(255, 255, 255); fill-opacity: 1;"/><defs id="defs-9562ee"><g class="clips"><clipPath id="clip9562eexyplot" class="plotclip"><rect width="280" height="75"/></clipPath><clipPath class="axesclip" id="clip9562eex"><rect x="10" y="0" width="280" height="135"/></clipPath><clipPath class="axesclip" id="clip9562eey"><rect x="0" y="50" width="300" height="75"/></clipPath><clipPath class="axesclip" id="clip9562eexy"><rect x="10" y="50" width="280" height="75"/></clipPath></g><g class="gradients"/><g class="patterns"/></defs><g class="bglayer"/><g class="layer-below"><g class="imagelayer"/><g class="shapelayer"/></g><g class="cartesianlayer"><g class="subplot xy"><g class="layer-subplot"><g class="shapelayer"/><g class="imagelayer"/></g><g class="minor-gridlayer"><g class="x"/><g class="y"/></g><g class="gridlayer"><g class="x"><path class="xgrid crisp" transform="translate(28.18,0)" d="M0,50v75" style="stroke: rgb(235, 240, 248); stroke-opacity: 1; stroke-width: 1px;"/><path class="xgrid crisp" transform="translate(140.91,0)" d="M0,50v75" style="stroke: rgb(235, 240, 248); stroke-opacity: 1; stroke-width: 1px;"/><path class="xgrid crisp" transform="translate(251.82,0)" d="M0,50v75" style="stroke: rgb(235, 240, 248); stroke-opacity: 1; stroke-width: 1px;"/></g><g class="y"><path class="ygrid crisp" transform="translate(0,95.19)" d="M10,0h280" style="stroke: rgb(235, 240, 248); stroke-opacity: 1; stroke-width: 1px;"/><path class="ygrid crisp" transform="translate(0,65.38)" d="M10,0h280" style="stroke: rgb(235, 240, 248); stroke-opacity: 1; stroke-width: 1px;"/></g></g><g class="zerolinelayer"><path class="yzl zl crisp" transform="translate(0,125)" d="M10,0h280" style="stroke: rgb(235, 240, 248); stroke-opacity: 1; stroke-width: 2px;"/></g><path class="xlines-below"/><path class="ylines-below"/><g class="overlines-below"/><g class="xaxislayer-below"/><g class="yaxislayer-below"/><g class="overaxes-below"/><g class="plot" transform="translate(10,50)" clip-path="url(#clip9562eexyplot)"><g class="scatterlayer mlayer"><g class="trace scatter tracea025d4" style="stroke-miterlimit: 2; opacity: 1;"><g class="fills"/><g class="errorbars"/><g class="lines"><path class="js-line" d="M0,43.85L5.45,39.97L7.27,39.97L14.55,40.27L16.36,39.23L41.82,38.03L43.64,37.14L78.18,36.1L80,29.84L101.82,29.84L105.45,34.16L107.27,33.26L110.91,33.26L125.45,32.97L127.27,36.24L130.91,37.88L132.73,37.29L134.55,36.69L136.36,38.03L183.64,37.14L185.45,34.16L189.09,35.35L190.91,35.35L192.73,35.05L194.55,30.13L196.36,27.15L198.18,27.15L201.82,26.41L203.64,21.49L207.27,18.66L209.09,18.66L214.55,17.76L216.36,16.42L221.82,13.14L223.64,13.14L238.18,13.59L240,15.08L254.55,15.08L256.36,12.99L258.18,12.99L260,9.41L267.27,9.41L269.09,5.39L280,5.39" style="vector-effect: none; fill: none; stroke: rgb(138, 44, 81); stroke-opacity: 1; stroke-width: 5px; opacity: 1;"/></g><g class="points"/><g class="text"/></g><g class="trace scatter trace347763" style="stroke-miterlimit: 2; opacity: 1;"><g class="fills"/><g class="errorbars"/><g class="lines"><path class="js-line" d="M0,10.01L5.45,12.1L7.27,12.1L12.73,13.14L14.55,11.8L18.18,10.9L20,10.9L41.82,11.5L43.64,12.25L105.45,12.25L107.27,16.42L123.64,15.67L125.45,15.08L129.09,6.58L130.91,6.58L134.55,9.27L136.36,4.79L152.73,4.79L154.55,7.03L156.36,7.03L158.18,4.79L160,7.03L161.82,4.35L165.45,3.75L167.27,6.58L169.09,3.75L170.91,3.75L174.55,3.75L176.36,6.58L178.18,6.58L180,3.75L181.82,6.58L183.64,6.58L185.45,3.9L187.27,7.33L200,8.22L201.82,8.97L205.45,12.4L207.27,12.54L234.55,13.59L236.36,14.48L258.18,14.63L260,16.12L280,15.82" style="vector-effect: none; fill: none; stroke: rgb(0, 174, 239); stroke-opacity: 1; stroke-width: 5px; opacity: 1;"/></g><g class="points"/><g class="text"/></g><g class="trace scatter traceb89f18" style="stroke-miterlimit: 2; opacity: 1;"><g class="fills"/><g class="errorbars"/><g class="lines"><path class="js-line" d="M0,59.95L9.09,60.39L10.91,60.39L12.73,61.44L14.55,60.54L18.18,59.65L20,59.65L78.18,59.95L80,61.73L105.45,60.54L107.27,50.85L127.27,51.75L129.09,52.64L160,52.19L161.82,53.09L165.45,53.68L167.27,52.64L170.91,53.68L172.73,53.68L183.64,52.64L185.45,56.96L187.27,53.98L189.09,53.98L192.73,54.13L194.55,56.37L196.36,58.16L198.18,58.16L201.82,57.71L203.64,59.2L212.73,59.5L214.55,59.35L220,60.09L221.82,60.09L234.55,59.5L236.36,58.16L238.18,58.16L240,56.07L254.55,56.07L256.36,58.01L258.18,58.6L260,60.69L280,61.88" style="vector-effect: none; fill: none; stroke: rgb(255, 1, 170); stroke-opacity: 1; stroke-width: 5px; opacity: 1;"/></g><g class="points"/><g class="text"/></g><g class="trace scatter trace6c3ce1" style="stroke-miterlimit: 2; opacity: 1;"><g class="fills"/><g class="errorbars"/><g class="lines"><path class="js-line" d="M0,59.35L10.91,59.95L12.73,59.35L41.82,61.14L43.64,61.14L78.18,60.84L80,63.08L105.45,62.18L107.27,64.12L127.27,64.57L129.09,66.21L132.73,65.31L134.55,64.42L136.36,66.95L138.18,66.95L165.45,66.8L167.27,65.61L170.91,66.8L172.73,66.8L185.45,65.76L187.27,64.71L192.73,64.86L194.55,66.35L198.18,67.1L200,67.1L225.45,70.38L227.27,70.38L280,70.23" style="vector-effect: none; fill: none; stroke: rgb(238, 58, 67); stroke-opacity: 1; stroke-width: 5px; opacity: 1;"/></g><g class="points"/><g class="text"/></g><g class="trace scatter trace49a4c0" style="stroke-miterlimit: 2; opacity: 1;"><g class="fills"/><g class="errorbars"/><g class="lines"><path class="js-line" d="M0,63.22L10.91,63.52L12.73,61.44L16.36,66.06L18.18,66.06L123.64,66.8L125.45,66.95L183.64,67.99L185.45,68.44L205.45,69.48L207.27,69.63L218.18,70.68L220,71.12L267.27,71.12L269.09,72.62L280,72.62" style="vector-effect: none; fill: none; stroke: rgb(202, 166, 105); stroke-opacity: 1; stroke-width: 5px; opacity: 1;"/></g><g class="points"/><g class="text"/></g></g></g><g class="overplot"/><path class="xlines-above crisp" d="M0,0" style="fill: none;"/><path class="ylines-above crisp" d="M0,0" style="fill: none;"/><g class="overlines-above"/><g class="xaxislayer-above"/><g class="yaxislayer-above"/><g class="overaxes-above"/></g></g><g class="polarlayer"/><g class="smithlayer"/><g class="ternarylayer"/><g class="geolayer"/><g class="funnelarealayer"/><g class="pielayer"/><g class="iciclelayer"/><g class="treemaplayer"/><g class="sunburstlayer"/><g class="glimages"/><defs id="topdefs-9562ee"><g class="clips"/></defs><g class="layer-above"><g class="imagelayer"/><g class="shapelayer"/></g><g class="infolayer"><g class="g-gtitle"><text class="gtitle" x="15" y="25" text-anchor="start" dy="0em" style="font-family: Ubuntu, verdana, arial, sans-serif; font-size: 16px; fill: rgb(233, 84, 32); opacity: 1; font-weight: normal; white-space: pre;">Prezident/ka 2024</text></g><g class="g-xtitle"/><g class="g-ytitle"/></g></svg>