<svg class="main-svg" xmlns="http://www.w3.org/2000/svg" xmlns:xlink="http://www.w3.org/1999/xlink" width="300" height="135" style="" viewBox="0 0 300 135"><rect x="0" y="0" width="300" height="135" style="fill: rgb(255, 255, 255); fill-opacity: 1;"/><defs id="defs-edcddc"><g class="clips"><clipPath id="clipedcddcxyplot" class="plotclip"><rect width="280" height="75"/></clipPath><clipPath class="axesclip" id="clipedcddcx"><rect x="10" y="0" width="280" height="135"/></clipPath><clipPath class="axesclip" id="clipedcddcy"><rect x="0" y="50" width="300" height="75"/></clipPath><clipPath class="axesclip" id="clipedcddcxy"><rect x="10" y="50" width="280" height="75"/></clipPath></g><g class="gradients"/><g class="patterns"/></defs><g class="bglayer"/><g class="layer-below"><g class="imagelayer"/><g class="shapelayer"/></g><g class="cartesianlayer"><g class="subplot xy"><g class="layer-subplot"><g class="shapelayer"/><g class="imagelayer"/></g><g class="minor-gridlayer"><g class="x"/><g class="y"/></g><g class="gridlayer"><g class="x"><path class="xgrid crisp" transform="translate(22.73,0)" d="M0,50v75" style="stroke: rgb(235, 240, 248); stroke-opacity: 1; stroke-width: 1px;"/><path class="xgrid crisp" transform="translate(101.64,0)" d="M0,50v75" style="stroke: rgb(235, 240, 248); stroke-opacity: 1; stroke-width: 1px;"/><path class="xgrid crisp" transform="translate(179.27,0)" d="M0,50v75" style="stroke: rgb(235, 240, 248); stroke-opacity: 1; stroke-width: 1px;"/><path class="xgrid crisp" transform="translate(256.90999999999997,0)" d="M0,50v75" style="stroke: rgb(235, 240, 248); stroke-opacity: 1; stroke-width: 1px;"/></g><g class="y"><path class="ygrid crisp" transform="translate(0,102.77000000000001)" d="M10,0h280" style="stroke: rgb(235, 240, 248); stroke-opacity: 1; stroke-width: 1px;"/><path class="ygrid crisp" transform="translate(0,80.53999999999999)" d="M10,0h280" style="stroke: rgb(235, 240, 248); stroke-opacity: 1; stroke-width: 1px;"/><path class="ygrid crisp" transform="translate(0,58.31)" d="M10,0h280" style="stroke: rgb(235, 240, 248); stroke-opacity: 1; stroke-width: 1px;"/></g></g><g class="zerolinelayer"><path class="yzl zl crisp" transform="translate(0,125)" d="M10,0h280" style="stroke: rgb(235, 240, 248); stroke-opacity: 1; stroke-width: 2px;"/></g><path class="xlines-below"/><path class="ylines-below"/><g class="overlines-below"/><g class="xaxislayer-below"/><g class="yaxislayer-below"/><g class="overaxes-below"/><g class="plot" transform="translate(10,50)" clip-path="url(#clipedcddcxyplot)"><g class="scatterlayer mlayer"><g class="trace scatter trace8361ed" style="stroke-miterlimit: 2; opacity: 1;"><g class="fills"/><g class="errorbars"/><g class="lines"><path class="js-line" d="M0,51.77L3.82,48.88L5.09,48.88L10.18,49.1L11.45,48.32L29.27,47.43L30.55,46.77L54.73,45.99L56,41.32L71.27,41.32L73.82,44.54L77.64,43.88L78.91,43.88L87.82,43.65L89.09,46.1L91.64,47.32L92.91,46.88L94.18,46.43L95.45,47.43L128.55,46.77L129.82,44.54L132.36,45.43L133.64,45.43L134.91,45.21L136.18,41.54L138.73,39.32L140,39.32L141.27,38.76L142.55,35.1L145.09,32.98L146.36,32.98L150.18,32.32L151.45,31.32L155.27,28.87L156.55,28.87L166.73,29.2L168,30.32L178.18,30.32L179.45,28.76L180.73,28.76L182,26.09L187.09,26.09L188.36,23.09L196,23.09L197.27,21.31L204.91,18.42L206.18,18.42L208.73,14.64L210,14.64L211.27,12.75L212.55,8.2L224,8.2L225.27,9.86L227.82,10.64L229.09,10.64L231.64,12.86L232.91,13.53L238,12.31L239.27,12.31L248.18,12.42L249.45,8.75L252,5.08L253.27,4.97L257.09,5.86L258.36,3.75L262.18,4.75L263.45,5.64L266,6.75L267.27,10.53L268.55,11.86L269.82,10.53L272.36,10.64L273.64,8.86L276.18,8.97L277.45,9.09L280,8.86" style="vector-effect: none; fill: none; stroke: rgb(138, 44, 81); stroke-opacity: 1; stroke-width: 5px; opacity: 1;"/></g><g class="points"/><g class="text"/></g><g class="trace scatter trace223456" style="stroke-miterlimit: 2; opacity: 1;"><g class="fills"/><g class="errorbars"/><g class="lines"><path class="js-line" d="M0,26.54L5.09,28.09L6.36,28.09L10.18,27.87L11.45,27.2L73.82,28.2L75.09,31.32L87.82,30.32L89.09,27.76L91.64,23.98L92.91,24.98L94.18,25.98L95.45,22.65L106.91,22.65L108.18,24.31L109.45,24.31L110.73,22.65L112,24.31L113.27,22.31L115.82,21.87L117.09,23.98L119.64,21.87L120.91,21.87L122.18,21.87L123.45,23.98L124.73,23.98L126,21.87L128.55,23.98L129.82,21.98L132.36,24.54L133.64,24.54L141.27,25.76L142.55,27.65L146.36,28.43L147.64,28.43L164.18,29.2L165.45,29.87L196,30.87L197.27,32.65L206.18,34.98L207.45,32.87L211.27,33.98L212.55,35.43L224,35.43L225.27,33.87L227.82,32.98L229.09,32.98L230.36,32.54L231.64,29.98L234.18,29.43L235.45,29.76L248.18,29.2L249.45,32.09L252,35.43L253.27,35.54L255.82,33.76L257.09,32.98L259.64,35.1L260.91,34.54L266,32.09L267.27,28.32L268.55,26.98L269.82,28.32L272.36,28.2L273.64,29.98L276.18,29.87L277.45,29.76L280,29.98" style="vector-effect: none; fill: none; stroke: rgb(0, 174, 239); stroke-opacity: 1; stroke-width: 5px; opacity: 1;"/></g><g class="points"/><g class="text"/></g><g class="trace scatter tracef95bc8" style="stroke-miterlimit: 2; opacity: 1;"><g class="fills"/><g class="errorbars"/><g class="lines"><path class="js-line" d="M0,63.33L7.64,63.77L8.91,63.33L33.09,64.66L34.36,64.66L54.73,64.44L56,66.11L73.82,65.44L75.09,66.89L89.09,67.22L90.36,68.44L92.91,67.77L94.18,67.11L96.73,69L98,69L129.82,68.11L131.09,67.33L136.18,68.55L137.45,69.11L150.18,70.33L151.45,70.78L160.36,71.55L161.64,71.55L206.18,71.55L207.45,73.67L211.27,73.89" style="vector-effect: none; fill: none; stroke: rgb(238, 58, 67); stroke-opacity: 1; stroke-width: 5px; opacity: 1;"/></g><g class="points"/><g class="text"/></g><g class="trace scatter trace5a474b" style="stroke-miterlimit: 2; opacity: 1;"><g class="fills"/><g class="errorbars"/><g class="lines"><path class="js-line" d="M0,66.22L7.64,66.44L8.91,64.88L11.45,68.33L12.73,68.33L91.64,68.89L92.91,69.33L95.45,69L96.73,69L136.18,70.11L137.45,70.33L151.45,71.55L152.73,71.78L157.82,72.11L159.09,72.11L206.18,73.33L207.45,73.67L211.27,73.89" style="vector-effect: none; fill: none; stroke: rgb(202, 166, 105); stroke-opacity: 1; stroke-width: 5px; opacity: 1;"/></g><g class="points"/><g class="text"/></g><g class="trace scatter trace7d3bb7" style="stroke-miterlimit: 2; opacity: 1;"><g class="fills"/><g class="errorbars"/><g class="lines"><path class="js-line" d="M0,63.77L8.91,64.88L10.18,64.22L14,63.55L15.27,63.55L54.73,63.77L56,65.11L73.82,64.22L75.09,56.99L89.09,57.66L90.36,58.33L113.27,58.66L114.55,59.1L128.55,58.33L129.82,61.55L132.36,59.33L133.64,59.33L134.91,59.44L136.18,61.11L138.73,62.44L140,62.44L141.27,62.11L142.55,63.22L150.18,63.33L151.45,63.22L160.36,63.88L161.64,63.88L164.18,63.44L165.45,62.44L166.73,62.44L168,60.88L178.18,60.88L179.45,62.33L185.82,64.33L187.09,64.33L189.64,65.22L190.91,65.22L206.18,65.55L207.45,69L230.36,70.11L231.64,71.11L248.18,72.22L249.45,73L255.82,73.55" style="vector-effect: none; fill: none; stroke: rgb(255, 1, 170); stroke-opacity: 1; stroke-width: 5px; opacity: 1;"/></g><g class="points"/><g class="text"/></g></g></g><g class="overplot"/><path class="xlines-above crisp" d="M0,0" style="fill: none;"/><path class="ylines-above crisp" d="M0,0" style="fill: none;"/><g class="overlines-above"/><g class="xaxislayer-above"/><g class="yaxislayer-above"/><g class="overaxes-above"/></g></g><g class="polarlayer"/><g class="smithlayer"/><g class="ternarylayer"/><g class="geolayer"/><g class="funnelarealayer"/><g class="pielayer"/><g class="iciclelayer"/><g class="treemaplayer"/><g class="sunburstlayer"/><g class="glimages"/><defs id="topdefs-edcddc"><g class="clips"/></defs><g class="layer-above"><g class="imagelayer"/><g class="shapelayer"/></g><g class="infolayer"><g class="g-gtitle"><text class="gtitle" x="15" y="25" text-anchor="start" dy="0em" style="font-family: Ubuntu, verdana, arial, sans-serif; font-size: 16px; fill: rgb(233, 84, 32); opacity: 1; font-weight: normal; white-space: pre;">Prezident/ka 2024</text></g><g class="g-xtitle"/><g class="g-ytitle"/></g></svg>