<svg class="main-svg" xmlns="http://www.w3.org/2000/svg" xmlns:xlink="http://www.w3.org/1999/xlink" width="300" height="135" style="" viewBox="0 0 300 135"><rect x="0" y="0" width="300" height="135" style="fill: rgb(255, 255, 255); fill-opacity: 1;"/><defs id="defs-396a27"><g class="clips"><clipPath id="clip396a27xyplot" class="plotclip"><rect width="280" height="75"/></clipPath><clipPath class="axesclip" id="clip396a27x"><rect x="10" y="0" width="280" height="135"/></clipPath><clipPath class="axesclip" id="clip396a27y"><rect x="0" y="50" width="300" height="75"/></clipPath><clipPath class="axesclip" id="clip396a27xy"><rect x="10" y="50" width="280" height="75"/></clipPath></g><g class="gradients"/><g class="patterns"/></defs><g class="bglayer"/><g class="layer-below"><g class="imagelayer"/><g class="shapelayer"/></g><g class="cartesianlayer"><g class="subplot xy"><g class="layer-subplot"><g class="shapelayer"/><g class="imagelayer"/></g><g class="minor-gridlayer"><g class="x"/><g class="y"/></g><g class="gridlayer"><g class="x"><path class="xgrid crisp" transform="translate(43.33,0)" d="M0,50v75" style="stroke: rgb(235, 240, 248); stroke-opacity: 1; stroke-width: 1px;"/><path class="xgrid crisp" transform="translate(143.33,0)" d="M0,50v75" style="stroke: rgb(235, 240, 248); stroke-opacity: 1; stroke-width: 1px;"/><path class="xgrid crisp" transform="translate(246.67,0)" d="M0,50v75" style="stroke: rgb(235, 240, 248); stroke-opacity: 1; stroke-width: 1px;"/></g><g class="y"><path class="ygrid crisp" transform="translate(0,108.35)" d="M10,0h280" style="stroke: rgb(235, 240, 248); stroke-opacity: 1; stroke-width: 1px;"/><path class="ygrid crisp" transform="translate(0,91.71000000000001)" d="M10,0h280" style="stroke: rgb(235, 240, 248); stroke-opacity: 1; stroke-width: 1px;"/><path class="ygrid crisp" transform="translate(0,75.06)" d="M10,0h280" style="stroke: rgb(235, 240, 248); stroke-opacity: 1; stroke-width: 1px;"/><path class="ygrid crisp" transform="translate(0,58.41)" d="M10,0h280" style="stroke: rgb(235, 240, 248); stroke-opacity: 1; stroke-width: 1px;"/></g></g><g class="zerolinelayer"><path class="yzl zl crisp" transform="translate(0,125)" d="M10,0h280" style="stroke: rgb(235, 240, 248); stroke-opacity: 1; stroke-width: 2px;"/></g><path class="xlines-below"/><path class="ylines-below"/><g class="overlines-below"/><g class="xaxislayer-below"/><g class="yaxislayer-below"/><g class="overaxes-below"/><g class="plot" transform="translate(10,50)" clip-path="url(#clip396a27xyplot)"><g class="scatterlayer mlayer"><g class="trace scatter trace7619a0" style="stroke-miterlimit: 2; opacity: 1;"><g class="fills"/><g class="errorbars"/><g class="lines"><path class="js-line" d="M0,12.17L3.33,13.54L6.67,12.78L13.33,12.55L16.67,12.55L20,13.29L23.33,12.55L36.67,12.72L40,14.86L63.33,16.97L66.67,16.97L90,16.02L93.33,19.14L96.67,18.88L100,20.46L123.33,19.93L126.67,21.77L133.33,23.44L136.67,23.5L173.33,24.15L176.67,21.79L183.33,20.49L186.67,20.11L233.33,19.07L236.67,17.9L243.33,17.9L246.67,15.9L253.33,15.9L256.67,11.07L270,3.75L273.33,3.75L280,3.75" style="vector-effect: none; fill: none; stroke: rgb(238, 58, 67); stroke-opacity: 1; stroke-width: 5px; opacity: 1;"/></g><g class="points"/><g class="text"/></g><g class="trace scatter trace3a0405" style="stroke-miterlimit: 2; opacity: 1;"><g class="fills"/><g class="errorbars"/><g class="lines"><path class="js-line" d="M0,40.5L3.33,39.07L6.67,36.09L10,34.09L13.33,27.48L16.67,27.48L20,29.24L23.33,27.48L26.67,27.48L36.67,27.15L40,21.31L43.33,18.69L46.67,20.07L53.33,18.32L56.67,18.06L60,18.94L63.33,18.06L90,18.36L93.33,16.77L96.67,16.03L100,13.79L126.67,14.19L130,16.35L166.67,19.56L170,19.56L176.67,20.33L180,20.49L216.67,20.4L220,20.9L253.33,20.9L256.67,22.73L276.67,23.56L280,19.07" style="vector-effect: none; fill: none; stroke: rgb(0, 180, 219); stroke-opacity: 1; stroke-width: 5px; opacity: 1;"/></g><g class="points"/><g class="text"/></g><g class="trace scatter traceace221" style="stroke-miterlimit: 2; opacity: 1;"><g class="fills"/><g class="errorbars"/><g class="lines"><path class="js-line" d="M0,5.86L3.33,5.92L6.67,9.66L10,12.22L13.33,18.49L16.67,18.49L20,16L23.33,18.49L26.67,18.49L36.67,18.65L40,22.36L43.33,24.54L46.67,22.95L53.33,23.59L56.67,23.5L63.33,23.5L66.67,23.5L90,24.15L93.33,22.62L100,24.28L103.33,24.28L123.33,25.45L126.67,22.57L130,18.96L133.33,18.36L153.33,15.93L156.67,15.93L170,14.71L173.33,13.95L180,17.55L183.33,17.55L193.33,17.98L196.67,17.98L200,17.98L203.33,19.29L210,22.73L213.33,22.73L253.33,22.73L256.67,25.22L270,33.22L273.33,33.22L276.67,33.22L280,35.88" style="vector-effect: none; fill: none; stroke: rgb(138, 44, 81); stroke-opacity: 1; stroke-width: 5px; opacity: 1;"/></g><g class="points"/><g class="text"/></g></g></g><g class="overplot"/><path class="xlines-above crisp" d="M0,0" style="fill: none;"/><path class="ylines-above crisp" d="M0,0" style="fill: none;"/><g class="overlines-above"/><g class="xaxislayer-above"/><g class="yaxislayer-above"/><g class="overaxes-above"/></g></g><g class="polarlayer"/><g class="smithlayer"/><g class="ternarylayer"/><g class="geolayer"/><g class="funnelarealayer"/><g class="pielayer"/><g class="iciclelayer"/><g class="treemaplayer"/><g class="sunburstlayer"/><g class="glimages"/><defs id="topdefs-396a27"><g class="clips"/></defs><g class="layer-above"><g class="imagelayer"/><g class="shapelayer"/></g><g class="infolayer"><g class="g-gtitle"><text class="gtitle" x="15" y="25" text-anchor="start" dy="0em" style="font-family: Ubuntu, verdana, arial, sans-serif; font-size: 16px; fill: rgb(233, 84, 32); opacity: 1; font-weight: normal; white-space: pre;">Premiér/ka 2023</text></g><g class="g-xtitle"/><g class="g-ytitle"/></g></svg>