<svg class="main-svg" xmlns="http://www.w3.org/2000/svg" xmlns:xlink="http://www.w3.org/1999/xlink" width="300" height="135" style="" viewBox="0 0 300 135"><rect x="0" y="0" width="300" height="135" style="fill: rgb(255, 255, 255); fill-opacity: 1;"/><defs id="defs-60ebf3"><g class="clips"><clipPath id="clip60ebf3xyplot" class="plotclip"><rect width="280" height="75"/></clipPath><clipPath class="axesclip" id="clip60ebf3x"><rect x="10" y="0" width="280" height="135"/></clipPath><clipPath class="axesclip" id="clip60ebf3y"><rect x="0" y="50" width="300" height="75"/></clipPath><clipPath class="axesclip" id="clip60ebf3xy"><rect x="10" y="50" width="280" height="75"/></clipPath></g><g class="gradients"/><g class="patterns"/></defs><g class="bglayer"/><g class="layer-below"><g class="imagelayer"/><g class="shapelayer"/></g><g class="cartesianlayer"><g class="subplot xy"><g class="layer-subplot"><g class="shapelayer"/><g class="imagelayer"/></g><g class="gridlayer"><g class="x"><path class="xgrid crisp" transform="translate(79.16,0)" d="M0,50v75" style="stroke: rgb(235, 240, 248); stroke-opacity: 1; stroke-width: 1px;"/><path class="xgrid crisp" transform="translate(161.38,0)" d="M0,50v75" style="stroke: rgb(235, 240, 248); stroke-opacity: 1; stroke-width: 1px;"/><path class="xgrid crisp" transform="translate(243.6,0)" d="M0,50v75" style="stroke: rgb(235, 240, 248); stroke-opacity: 1; stroke-width: 1px;"/></g><g class="y"><path class="ygrid crisp" transform="translate(0,97.18)" d="M10,0h280" style="stroke: rgb(235, 240, 248); stroke-opacity: 1; stroke-width: 1px;"/><path class="ygrid crisp" transform="translate(0,69.35)" d="M10,0h280" style="stroke: rgb(235, 240, 248); stroke-opacity: 1; stroke-width: 1px;"/></g></g><g class="zerolinelayer"><path class="yzl zl crisp" transform="translate(0,125)" d="M10,0h280" style="stroke: rgb(235, 240, 248); stroke-opacity: 1; stroke-width: 2px;"/></g><path class="xlines-below"/><path class="ylines-below"/><g class="overlines-below"/><g class="xaxislayer-below"/><g class="yaxislayer-below"/><g class="overaxes-below"/><g class="plot" transform="translate(10,50)" clip-path="url(#clip60ebf3xyplot)"><g class="scatterlayer mlayer"><g class="trace scatter tracef920e6" style="stroke-miterlimit: 2; opacity: 1;"><g class="fills"/><g class="errorbars"/><g class="lines"><path class="js-line" d="M0,24.11Q2.65,19.28 4.28,18.53C5.51,17.96 7.22,18.59 8.33,18.75C9.13,18.86 9.93,19.19 10.36,19.21C10.56,19.22 10.57,19.14 10.81,19.15C11.74,19.2 16.07,20.18 17.57,20.82C18.4,21.17 18.73,21.44 19.37,21.96C20.27,22.7 21.35,23.92 22.3,25.02C23.31,26.18 24.21,27.16 25.23,28.76C26.78,31.18 28.69,36.04 30.19,38.43C31.15,39.97 31.65,40.88 32.89,42.01C34.54,43.51 38.25,45.39 39.65,46.16C40.26,46.49 40.52,46.56 41,46.81C41.56,47.1 42.16,47.5 42.8,47.79C43.5,48.11 44.17,48.34 45.05,48.62C46.24,49 48.43,49.59 49.33,49.77C49.74,49.85 49.98,49.88 50.23,49.88C50.41,49.88 50.48,49.83 50.68,49.83C51.08,49.82 51.99,49.95 52.49,49.96C52.84,49.97 52.99,49.9 53.39,49.94C54.19,50.01 55.85,50.62 56.99,50.69C58.01,50.75 59.5,50.46 59.92,50.43C60.03,50.42 60.02,50.43 60.14,50.42C60.62,50.38 63.02,50.02 63.75,49.99C64.06,49.98 64.15,50 64.42,50.02C64.84,50.06 65.63,50.19 66,50.24C66.2,50.27 66.22,50.28 66.45,50.3C67.19,50.36 70.14,50.45 71.18,50.44C71.69,50.44 71.98,50.4 72.31,50.39C72.56,50.38 72.67,50.39 72.98,50.37C73.73,50.33 75.91,50.16 76.81,50.09C77.3,50.05 77.49,50.06 77.94,50C78.61,49.92 79.49,49.75 80.42,49.57C81.61,49.34 83.11,49.11 84.47,48.73C85.89,48.33 87.78,47.48 88.75,47.19C89.24,47.04 89.43,46.99 89.88,46.91C90.54,46.79 91.34,46.84 92.36,46.6C94.11,46.19 99.34,44.21 99.34,44.21C99.34,44.21 99.34,44.21 99.34,44.21C99.34,44.21 104.07,42.24 104.07,42.24C104.07,42.24 104.07,42.24 104.07,42.24C104.07,42.24 104.53,42.36 104.97,42.39C106.17,42.47 109.44,42.6 111.73,42.21C114.23,41.78 117.13,40.74 119.39,39.72C121.34,38.84 123.45,37.16 124.57,36.67C125.07,36.45 125.18,36.49 125.7,36.32C126.89,35.94 129.94,34.99 131.55,34.4C132.7,33.97 133.72,33.29 134.48,33.19C134.94,33.13 135.11,33.24 135.61,33.34C136.62,33.54 138.99,34.4 140.11,34.52C140.76,34.59 141.02,34.44 141.69,34.44C142.84,34.43 144.66,34.72 146.42,34.62C148.67,34.5 152.35,33.86 154.08,33.49C154.98,33.3 155.47,33.02 156.11,32.92C156.66,32.83 157.08,32.85 157.68,32.84C158.51,32.83 159.98,32.93 160.61,32.91C160.92,32.9 160.99,32.85 161.29,32.85C161.86,32.85 162.93,32.94 163.77,33.05C164.65,33.17 165.41,33.44 166.47,33.57C167.96,33.75 170.67,33.75 171.87,33.85C172.47,33.9 172.59,33.94 173.23,34.01C174.77,34.18 179.03,34.82 181.11,34.79C182.47,34.77 183.45,34.44 184.49,34.35C185.38,34.27 186.08,34.25 186.97,34.22C188.01,34.18 189.19,34.21 190.35,34.14C191.59,34.07 192.8,33.96 194.18,33.79C195.83,33.59 198.05,33.13 199.58,32.98C200.7,32.87 201.35,32.93 202.51,32.85C204.22,32.74 207.67,32.41 208.82,32.3C209.26,32.26 209.38,32.24 209.72,32.2C210.17,32.15 210.63,32.12 211.3,32.05C212.46,31.93 215.07,31.58 216.03,31.51C216.45,31.48 216.51,31.53 216.93,31.49C217.89,31.41 221.1,30.87 221.66,30.79C221.78,30.77 221.76,30.78 221.88,30.76C222.34,30.7 224.31,30.43 225.26,30.27C225.95,30.16 226.5,30.05 227.06,29.94C227.55,29.84 227.92,29.76 228.42,29.65C229.03,29.51 229.94,29.28 230.44,29.17C230.73,29.11 230.79,29.1 231.12,29.03C232.04,28.85 235.14,28.29 236.3,28.03C236.9,27.9 237.28,27.84 237.65,27.69C237.92,27.58 238.05,27.45 238.33,27.31C238.78,27.08 239.59,26.63 240.13,26.48C240.54,26.37 240.87,26.45 241.26,26.36C241.7,26.26 242.15,26.06 242.61,25.87C243.12,25.66 244.18,25.12 244.18,25.12C244.18,25.12 244.18,25.12 244.18,25.12C244.18,25.12 246.69,24.96 247.56,24.98C248.11,25 248.46,25.07 248.91,25.11C249.36,25.15 249.94,25.21 250.27,25.21C250.46,25.21 250.6,25.18 250.72,25.17C250.81,25.16 250.83,25.17 250.94,25.15C251.32,25.08 252.65,24.55 253.42,24.49C254.06,24.44 254.62,24.62 255.22,24.68C255.82,24.74 256.56,24.84 257.02,24.85C257.3,24.86 257.46,24.86 257.7,24.83C257.98,24.8 258.21,24.74 258.6,24.66C259.37,24.5 261.21,24.04 261.98,23.85C262.38,23.75 262.55,23.65 262.88,23.61C263.28,23.56 263.72,23.64 264.23,23.6C264.89,23.55 265.83,23.37 266.48,23.26C266.99,23.17 267.47,23.07 267.84,22.99C268.1,22.93 268.31,22.86 268.51,22.82C268.67,22.78 268.76,22.77 268.96,22.74C269.33,22.68 269.97,22.57 270.54,22.47C271.22,22.35 272.01,22.2 272.79,22.04C273.65,21.87 274.71,21.59 275.49,21.48C276.08,21.4 276.57,21.43 277.07,21.37C277.54,21.31 278.16,21.17 278.42,21.12C278.53,21.1 278.57,21.09 278.65,21.08C278.72,21.07 278.78,21.07 278.87,21.05C278.99,21.03 279.15,20.97 279.32,20.94Q279.52,20.91 280,20.9" style="vector-effect: non-scaling-stroke; fill: none; stroke: rgb(238, 58, 67); stroke-opacity: 1; stroke-width: 5px; opacity: 1;"/></g><g class="points"/><g class="text"/></g><g class="trace scatter trace0abaf1" style="stroke-miterlimit: 2; opacity: 1;"><g class="fills"/><g class="errorbars"/><g class="lines"><path class="js-line" d="M0,55.63Q2.87,56.41 4.28,56.45C5.65,56.49 7.21,55.98 8.33,55.91C9.12,55.86 9.93,55.94 10.36,55.93C10.56,55.92 10.57,55.9 10.81,55.9C11.73,55.91 16.04,56.43 17.57,56.55C18.36,56.61 18.7,56.6 19.37,56.65C20.23,56.72 21.33,56.82 22.3,56.95C23.28,57.08 24.13,57.26 25.23,57.44C26.67,57.68 28.78,58.15 30.19,58.26C31.22,58.34 31.79,58.16 32.89,58.22C34.64,58.32 38.26,59.03 39.65,59.12C40.27,59.16 40.52,59.11 41,59.11C41.56,59.11 42.17,59.18 42.8,59.15C43.51,59.12 44.18,58.94 45.05,58.9C46.25,58.84 48.43,58.92 49.33,58.95C49.74,58.96 49.98,58.99 50.23,59C50.41,59 50.48,59 50.68,59C51.08,58.99 51.99,58.97 52.49,58.94C52.84,58.92 52.99,58.9 53.39,58.86C54.19,58.77 55.85,58.45 56.99,58.4C58.01,58.35 59.5,58.48 59.92,58.5C60.04,58.5 60.02,58.51 60.14,58.51C60.62,58.52 63.03,58.46 63.75,58.43C64.06,58.42 64.15,58.41 64.42,58.39C64.84,58.37 65.63,58.31 66,58.3C66.2,58.29 66.22,58.3 66.45,58.3C67.19,58.3 70.15,58.26 71.18,58.29C71.69,58.31 71.98,58.36 72.31,58.36C72.56,58.36 72.67,58.38 72.98,58.33C73.74,58.22 75.91,57.62 76.81,57.38C77.3,57.25 77.49,57.17 77.94,57.06C78.6,56.9 79.49,56.76 80.42,56.55C81.61,56.28 83.09,55.79 84.47,55.57C85.87,55.35 87.78,55.28 88.75,55.23C89.25,55.2 89.43,55.25 89.88,55.2C90.55,55.13 91.32,54.83 92.36,54.71C94.09,54.52 99.34,54.53 99.34,54.53C99.34,54.53 99.34,54.53 99.34,54.53C99.34,54.53 104.07,54.34 104.07,54.34C104.07,54.34 104.07,54.34 104.07,54.34C104.07,54.34 104.53,54.22 104.97,54.14C106.17,53.91 109.4,53.35 111.73,53.07C114.2,52.77 117.09,52.38 119.39,52.43C121.29,52.47 123.47,53.05 124.57,53.07C125.08,53.08 125.18,52.97 125.7,52.97C126.89,52.96 129.94,53.18 131.55,53.43C132.7,53.61 133.73,54.05 134.48,54.1C134.94,54.13 135.11,54.08 135.61,53.99C136.62,53.82 138.99,53.05 140.11,52.86C140.77,52.75 141.03,52.81 141.69,52.71C142.85,52.54 144.65,52.08 146.42,51.78C148.66,51.39 152.34,50.9 154.08,50.65C154.97,50.52 155.48,50.48 156.11,50.37C156.67,50.27 157.07,50.09 157.68,50.05C158.5,49.99 159.97,50.21 160.61,50.24C160.92,50.25 160.99,50.23 161.29,50.26C161.86,50.31 162.92,50.53 163.77,50.61C164.65,50.69 165.42,50.64 166.47,50.71C167.96,50.81 170.67,51.25 171.87,51.2C172.48,51.17 172.59,51.09 173.23,50.96C174.77,50.65 179.02,49.52 181.11,49.18C182.46,48.96 183.45,48.98 184.49,48.85C185.38,48.74 186.08,48.57 186.97,48.47C188.01,48.35 189.19,48.38 190.35,48.22C191.59,48.05 192.8,47.73 194.18,47.42C195.83,47.04 198.04,46.27 199.58,46.09C200.7,45.96 201.35,46.16 202.51,46.11C204.22,46.04 207.67,45.69 208.82,45.55C209.26,45.5 209.38,45.44 209.72,45.41C210.17,45.38 210.64,45.47 211.3,45.42C212.46,45.33 215.07,44.77 216.03,44.65C216.45,44.6 216.51,44.61 216.93,44.57C217.89,44.48 221.1,44.2 221.66,44.12C221.78,44.1 221.76,44.1 221.88,44.08C222.34,44.01 224.31,43.77 225.26,43.59C225.96,43.46 226.51,43.33 227.06,43.17C227.55,43.03 227.92,42.86 228.42,42.69C229.03,42.49 229.94,42.17 230.44,42.04C230.72,41.97 230.79,41.93 231.12,41.91C232.04,41.85 235.14,42.06 236.3,42.2C236.9,42.27 237.28,42.38 237.65,42.46C237.92,42.52 238.05,42.59 238.33,42.63C238.78,42.7 239.6,42.75 240.13,42.73C240.55,42.71 240.87,42.63 241.26,42.56C241.69,42.49 242.14,42.35 242.61,42.3C243.11,42.25 244.18,42.27 244.18,42.27C244.18,42.27 244.18,42.27 244.18,42.27C244.18,42.27 246.69,41.53 247.56,41.29C248.11,41.14 248.46,40.99 248.91,40.93C249.36,40.87 249.94,40.94 250.27,40.92C250.46,40.91 250.6,40.89 250.72,40.87C250.81,40.86 250.83,40.87 250.94,40.84C251.32,40.75 252.66,40.22 253.42,39.94C254.07,39.71 254.62,39.48 255.22,39.29C255.82,39.11 256.56,38.92 257.02,38.83C257.3,38.77 257.46,38.78 257.7,38.73C257.98,38.67 258.21,38.59 258.6,38.48C259.37,38.26 261.21,37.65 261.98,37.45C262.37,37.35 262.55,37.31 262.88,37.25C263.28,37.17 263.72,37.11 264.23,37.02C264.89,36.9 265.83,36.74 266.48,36.58C266.99,36.45 267.47,36.32 267.84,36.17C268.11,36.06 268.31,35.91 268.51,35.82C268.67,35.75 268.76,35.72 268.96,35.64C269.33,35.49 269.96,35.2 270.54,34.98C271.22,34.72 272.02,34.52 272.79,34.2C273.66,33.83 274.71,33.23 275.49,32.86C276.08,32.58 276.56,32.38 277.07,32.16C277.54,31.95 278.16,31.68 278.42,31.57C278.53,31.52 278.57,31.49 278.65,31.47C278.72,31.45 278.78,31.47 278.87,31.46C278.99,31.44 279.15,31.38 279.32,31.36Q279.52,31.33 280,31.31" style="vector-effect: non-scaling-stroke; fill: none; stroke: rgb(0, 180, 219); stroke-opacity: 1; stroke-width: 5px; opacity: 1;"/></g><g class="points"/><g class="text"/></g><g class="trace scatter tracec92e09" style="stroke-miterlimit: 2; opacity: 1;"><g class="fills"/><g class="errorbars"/><g class="lines"><path class="js-line" d="M30.19,43.45Q31.67,39.97 32.89,37.99C34.55,35.31 38.19,30.57 39.65,29.1C40.22,28.53 40.52,28.44 41,28.06C41.56,27.62 42.18,27.17 42.8,26.63C43.52,26.01 44.19,25.35 45.05,24.52C46.25,23.37 48.42,21.18 49.33,20.35C49.73,19.98 49.98,19.78 50.23,19.58C50.4,19.45 50.49,19.41 50.68,19.26C51.09,18.94 51.98,18.07 52.49,17.67C52.83,17.4 52.96,17.18 53.39,17.03C54.17,16.76 55.85,16.92 56.99,16.81C58.02,16.71 59.5,16.52 59.92,16.42C60.04,16.39 60.02,16.38 60.14,16.34C60.62,16.17 63.02,15.34 63.75,15.13C64.06,15.04 64.15,15.05 64.42,14.96C64.84,14.82 65.63,14.42 66,14.28C66.19,14.21 66.22,14.2 66.45,14.13C67.19,13.92 70.15,13.28 71.18,12.99C71.69,12.85 71.98,12.69 72.31,12.63C72.56,12.58 72.67,12.62 72.98,12.58C73.73,12.48 75.92,12.08 76.81,11.82C77.31,11.67 77.48,11.49 77.94,11.37C78.6,11.21 79.49,11.21 80.42,11.09C81.61,10.94 83.1,10.51 84.47,10.53C85.88,10.55 87.78,11.1 88.75,11.23C89.25,11.3 89.43,11.33 89.88,11.36C90.55,11.4 91.33,11.28 92.36,11.4C94.11,11.61 99.34,13 99.34,13C99.34,13 99.34,13 99.34,13C99.34,13 104.07,14.19 104.07,14.19C104.07,14.19 104.07,14.19 104.07,14.19C104.07,14.19 104.53,14.32 104.97,14.46C106.18,14.84 109.43,15.75 111.73,16.64C114.23,17.6 117.06,19.22 119.39,20.09C121.26,20.79 123.46,21.42 124.57,21.63C125.08,21.72 125.18,21.7 125.7,21.72C126.89,21.77 129.94,21.87 131.55,21.72C132.7,21.61 133.73,21.2 134.48,21.18C134.94,21.17 135.11,21.25 135.61,21.34C136.61,21.52 138.99,22.1 140.11,22.29C140.77,22.4 141.03,22.37 141.69,22.48C142.85,22.68 144.67,23.05 146.42,23.55C148.68,24.2 152.34,25.67 154.08,26.24C154.97,26.53 155.48,26.65 156.11,26.85C156.67,27.03 157.07,27.37 157.68,27.39C158.5,27.42 159.97,26.78 160.61,26.63C160.92,26.56 160.99,26.56 161.29,26.48C161.86,26.33 162.92,25.92 163.77,25.68C164.65,25.44 165.42,25.32 166.47,25.04C167.97,24.64 170.66,23.72 171.87,23.41C172.47,23.26 172.59,23.26 173.23,23.12C174.77,22.78 179.04,21.84 181.11,21.31C182.48,20.96 183.44,20.56 184.49,20.36C185.37,20.19 186.08,20.13 186.97,20.08C188.01,20.02 189.19,19.96 190.35,20.05C191.59,20.15 192.8,20.39 194.18,20.71C195.84,21.1 198.04,22.2 199.58,22.33C200.69,22.43 201.35,22.09 202.51,21.98C204.21,21.82 207.67,21.58 208.82,21.52C209.26,21.5 209.38,21.53 209.72,21.49C210.17,21.44 210.63,21.26 211.3,21.19C212.45,21.06 215.07,21.1 216.03,21.05C216.45,21.03 216.51,20.99 216.93,20.98C217.89,20.97 221.1,21.18 221.66,21.21C221.78,21.22 221.76,21.21 221.88,21.22C222.34,21.25 224.31,21.37 225.26,21.46C225.95,21.53 226.5,21.59 227.06,21.68C227.55,21.76 227.93,21.81 228.42,21.94C229.03,22.1 229.95,22.44 230.44,22.6C230.73,22.69 230.79,22.7 231.12,22.82C232.04,23.14 235.13,24.4 236.3,24.77C236.89,24.95 237.28,25.02 237.65,25.11C237.92,25.18 238.05,25.24 238.33,25.28C238.78,25.34 239.6,25.28 240.13,25.33C240.55,25.37 240.87,25.41 241.26,25.52C241.7,25.65 242.15,25.88 242.61,26.11C243.12,26.36 244.18,26.97 244.18,26.97C244.18,26.97 244.18,26.97 244.18,26.97C244.18,26.97 246.69,27.81 247.56,28.14C248.11,28.35 248.46,28.52 248.91,28.69C249.36,28.86 249.94,29.04 250.27,29.15C250.46,29.21 250.6,29.25 250.72,29.29C250.81,29.32 250.83,29.32 250.94,29.36C251.32,29.48 252.65,29.98 253.42,30.16C254.06,30.31 254.62,30.35 255.22,30.45C255.82,30.56 256.56,30.7 257.02,30.79C257.3,30.85 257.46,30.9 257.7,30.93C257.98,30.96 258.21,30.93 258.6,30.97C259.37,31.05 261.21,31.35 261.98,31.5C262.38,31.58 262.55,31.66 262.88,31.71C263.28,31.77 263.72,31.78 264.23,31.83C264.88,31.89 265.83,31.92 266.48,32.04C266.99,32.13 267.46,32.32 267.84,32.4C268.1,32.46 268.31,32.49 268.51,32.51C268.67,32.53 268.77,32.5 268.96,32.53C269.33,32.58 269.97,32.77 270.54,32.9C271.22,33.06 272.01,33.18 272.79,33.42C273.66,33.69 274.7,34.3 275.49,34.47C276.08,34.6 276.57,34.49 277.07,34.57C277.54,34.65 278.16,34.85 278.42,34.92C278.53,34.95 278.57,34.98 278.65,34.99C278.72,35 278.78,34.98 278.87,34.99C278.99,35 279.15,35.05 279.32,35.06Q279.52,35.07 280,35" style="vector-effect: non-scaling-stroke; fill: none; stroke: rgb(138, 44, 81); stroke-opacity: 1; stroke-width: 5px; opacity: 1;"/></g><g class="points"/><g class="text"/></g><g class="trace scatter trace57ee77" style="stroke-miterlimit: 2; opacity: 1;"><g class="fills"/><g class="errorbars"/><g class="lines"><path class="js-line" d="M84.47,70.54Q87.75,67.55 88.75,66.92C89.22,66.63 89.42,66.56 89.88,66.42C90.54,66.22 91.33,66.18 92.36,65.96C94.1,65.59 99.34,64.27 99.34,64.27C99.34,64.27 99.34,64.27 99.34,64.27C99.34,64.27 104.07,63.57 104.07,63.57C104.07,63.57 104.07,63.57 104.07,63.57C104.07,63.57 104.53,63.7 104.97,63.72C106.17,63.78 109.42,63.6 111.73,63.23C114.22,62.83 117.09,61.95 119.39,61.32C121.29,60.8 123.46,59.91 124.57,59.78C125.08,59.72 125.18,59.83 125.7,59.85C126.89,59.89 129.93,59.96 131.55,59.91C132.69,59.87 133.73,59.78 134.48,59.7C134.95,59.65 135.11,59.62 135.61,59.54C136.61,59.38 139,58.99 140.11,58.77C140.77,58.64 141.02,58.52 141.69,58.42C142.84,58.26 144.66,58.27 146.42,58.12C148.67,57.93 152.34,57.5 154.08,57.33C154.97,57.24 155.48,57.13 156.11,57.15C156.67,57.17 157.07,57.34 157.68,57.39C158.5,57.46 159.98,57.42 160.61,57.46C160.92,57.48 160.99,57.52 161.29,57.53C161.86,57.54 162.93,57.39 163.77,57.39C164.65,57.39 165.42,57.55 166.47,57.55C167.96,57.55 170.67,57.25 171.87,57.25C172.47,57.25 172.59,57.29 173.23,57.32C174.77,57.39 179.03,57.53 181.11,57.58C182.47,57.61 183.45,57.55 184.49,57.62C185.38,57.68 186.08,57.93 186.97,57.95C188.01,57.98 189.19,57.7 190.35,57.69C191.59,57.68 192.8,57.95 194.18,57.91C195.83,57.86 198.05,57.28 199.58,57.26C200.7,57.25 201.35,57.56 202.51,57.55C204.22,57.54 207.67,57.1 208.82,56.87C209.26,56.78 209.38,56.7 209.72,56.61C210.17,56.5 210.63,56.35 211.3,56.27C212.45,56.13 215.07,56.15 216.03,56.1C216.45,56.08 216.51,56.07 216.93,56.04C217.89,55.98 221.1,55.8 221.66,55.77C221.78,55.76 221.76,55.77 221.88,55.76C222.34,55.73 224.31,55.6 225.26,55.46C225.96,55.36 226.5,55.18 227.06,55.09C227.54,55.02 227.92,55.02 228.42,54.95C229.03,54.87 229.95,54.71 230.44,54.61C230.73,54.55 230.78,54.49 231.12,54.46C232.04,54.38 235.13,54.63 236.3,54.68C236.9,54.7 237.28,54.7 237.65,54.73C237.92,54.75 238.05,54.81 238.33,54.8C238.79,54.79 239.6,54.61 240.13,54.52C240.55,54.45 240.87,54.38 241.26,54.33C241.69,54.28 242.14,54.28 242.61,54.23C243.11,54.18 244.18,54.01 244.18,54.01C244.18,54.01 244.18,54.01 244.18,54.01C244.18,54.01 246.68,53.28 247.56,53.14C248.11,53.05 248.46,53.11 248.91,53.06C249.36,53.01 249.94,52.89 250.27,52.85C250.46,52.83 250.6,52.81 250.72,52.81C250.81,52.81 250.83,52.83 250.94,52.82C251.32,52.8 252.66,52.5 253.42,52.45C254.07,52.4 254.62,52.5 255.22,52.46C255.82,52.42 256.56,52.28 257.02,52.23C257.3,52.2 257.46,52.21 257.7,52.18C257.98,52.14 258.2,52.06 258.6,52.01C259.36,51.92 261.21,51.94 261.98,51.85C262.38,51.81 262.55,51.74 262.88,51.69C263.28,51.62 263.72,51.55 264.23,51.49C264.88,51.41 265.82,51.31 266.48,51.29C266.99,51.27 267.47,51.32 267.84,51.32C268.1,51.32 268.31,51.31 268.51,51.32C268.67,51.33 268.76,51.35 268.96,51.35C269.33,51.35 269.97,51.29 270.54,51.25C271.22,51.2 272.01,51.1 272.79,51.04C273.65,50.97 274.71,50.85 275.49,50.87C276.09,50.88 276.56,51.03 277.07,51.04C277.54,51.05 278.16,50.97 278.42,50.95C278.53,50.94 278.57,50.93 278.65,50.93C278.72,50.93 278.78,50.94 278.87,50.95C278.99,50.96 279.16,50.96 279.32,50.98Q279.52,51.01 280,51.11" style="vector-effect: non-scaling-stroke; fill: none; stroke: rgb(153, 51, 0); stroke-opacity: 1; stroke-width: 5px; opacity: 1;"/></g><g class="points"/><g class="text"/></g><g class="trace scatter tracec9844e" style="stroke-miterlimit: 2; opacity: 1;"><g class="fills"/><g class="errorbars"/><g class="lines"><path class="js-line" d="M0,5.39Q2.89,5.71 4.28,5.48C5.67,5.25 7.2,4.28 8.33,4.01C9.11,3.82 9.94,3.64 10.36,3.75C10.58,3.8 10.57,3.91 10.81,4.07C11.73,4.67 16,7.43 17.57,8.11C18.33,8.44 18.71,8.39 19.37,8.64C20.24,8.97 21.35,9.47 22.3,10.03C23.3,10.62 24.09,11.45 25.23,12.12C26.64,12.95 28.83,13.65 30.19,14.52C31.27,15.21 31.8,15.79 32.89,16.73C34.65,18.26 38.21,21.98 39.65,22.98C40.23,23.38 40.51,23.43 41,23.66C41.55,23.92 42.19,24.1 42.8,24.47C43.53,24.91 44.16,25.61 45.05,26.22C46.23,27.03 48.42,28.4 49.33,28.82C49.73,29 49.99,29 50.23,29.11C50.41,29.19 50.48,29.26 50.68,29.36C51.08,29.55 52,29.87 52.49,30.11C52.85,30.28 52.98,30.4 53.39,30.6C54.18,30.99 55.87,31.59 56.99,32.15C58.03,32.67 59.5,33.59 59.92,33.8C60.03,33.86 60.02,33.84 60.14,33.9C60.62,34.14 63.02,35.54 63.75,35.93C64.06,36.1 64.14,36.18 64.42,36.28C64.83,36.42 65.63,36.49 66,36.57C66.2,36.61 66.22,36.63 66.45,36.68C67.19,36.85 70.15,37.41 71.18,37.74C71.7,37.9 71.98,38.14 72.31,38.21C72.56,38.26 72.67,38.16 72.98,38.22C73.74,38.36 75.91,39.3 76.81,39.6C77.3,39.76 77.5,39.76 77.94,39.94C78.62,40.22 79.47,40.86 80.42,41.28C81.59,41.8 83.14,42.08 84.47,42.75C85.92,43.49 87.77,45.07 88.75,45.62C89.23,45.89 89.42,45.97 89.88,46.14C90.54,46.38 91.33,46.54 92.36,46.84C94.1,47.35 99.34,48.94 99.34,48.94C99.34,48.94 99.34,48.94 99.34,48.94C99.34,48.94 104.07,50.1 104.07,50.1C104.07,50.1 104.07,50.1 104.07,50.1C104.07,50.1 104.53,50.09 104.97,50.09C106.17,50.08 109.41,50.14 111.73,50.06C114.2,49.98 117.09,49.53 119.39,49.59C121.29,49.64 123.47,50.16 124.57,50.18C125.08,50.19 125.18,50.08 125.7,50.1C126.89,50.14 129.94,50.66 131.55,50.96C132.7,51.17 133.73,51.58 134.48,51.62C134.94,51.65 135.11,51.56 135.61,51.5C136.61,51.39 138.99,50.97 140.11,50.95C140.77,50.94 141.02,51.09 141.69,51.1C142.84,51.12 144.65,50.87 146.42,50.84C148.67,50.8 152.35,50.84 154.08,50.96C154.98,51.02 155.48,51.16 156.11,51.21C156.67,51.25 157.08,51.18 157.68,51.24C158.51,51.32 159.97,51.65 160.61,51.74C160.92,51.78 160.99,51.8 161.29,51.81C161.86,51.83 162.93,51.78 163.77,51.69C164.65,51.6 165.41,51.34 166.47,51.24C167.96,51.1 170.67,51.2 171.87,51.11C172.48,51.06 172.59,51.01 173.23,50.93C174.77,50.74 179.05,49.89 181.11,50.08C182.49,50.21 183.44,50.85 184.49,51.09C185.37,51.29 186.08,51.34 186.97,51.49C188.01,51.67 189.18,52.03 190.35,52.09C191.58,52.15 192.8,51.76 194.18,51.79C195.83,51.83 198.05,52.35 199.58,52.48C200.7,52.58 201.35,52.53 202.51,52.62C204.22,52.75 207.67,53.19 208.82,53.31C209.26,53.36 209.38,53.37 209.72,53.4C210.17,53.44 210.63,53.52 211.3,53.55C212.45,53.61 215.07,53.55 216.03,53.59C216.45,53.61 216.51,53.62 216.93,53.65C217.89,53.73 221.1,54.09 221.66,54.12C221.78,54.13 221.76,54.12 221.88,54.12C222.34,54.12 224.31,54.12 225.26,54.16C225.95,54.19 226.5,54.26 227.06,54.29C227.54,54.31 227.92,54.29 228.42,54.32C229.03,54.35 229.95,54.44 230.44,54.48C230.73,54.5 230.79,54.53 231.12,54.54C232.04,54.56 235.13,54.3 236.3,54.33C236.9,54.35 237.28,54.41 237.65,54.46C237.92,54.49 238.05,54.51 238.33,54.57C238.79,54.67 239.6,54.93 240.13,55.07C240.55,55.18 240.87,55.28 241.26,55.37C241.69,55.47 242.14,55.54 242.61,55.64C243.11,55.75 244.18,55.99 244.18,55.99C244.18,55.99 244.18,55.99 244.18,55.99C244.18,55.99 246.68,56.89 247.56,57.16C248.11,57.33 248.46,57.43 248.91,57.52C249.36,57.61 249.94,57.68 250.27,57.71C250.46,57.73 250.6,57.73 250.72,57.72C250.81,57.72 250.83,57.7 250.94,57.69C251.32,57.66 252.66,57.66 253.42,57.6C254.07,57.55 254.62,57.46 255.22,57.36C255.82,57.26 256.56,57.09 257.02,57.02C257.3,56.98 257.46,56.95 257.7,56.93C257.98,56.91 258.2,56.95 258.6,56.93C259.37,56.89 261.21,56.65 261.98,56.61C262.38,56.59 262.55,56.59 262.88,56.59C263.28,56.59 263.72,56.62 264.23,56.65C264.89,56.69 265.82,56.81 266.48,56.83C266.99,56.84 267.47,56.79 267.84,56.79C268.1,56.79 268.31,56.8 268.51,56.8C268.67,56.8 268.76,56.8 268.96,56.8C269.33,56.81 269.97,56.84 270.54,56.87C271.22,56.9 272.01,56.95 272.79,56.97C273.65,56.99 274.71,56.95 275.49,56.96C276.09,56.97 276.56,56.98 277.07,57.02C277.54,57.05 278.16,57.13 278.42,57.17C278.53,57.19 278.57,57.2 278.65,57.21C278.72,57.22 278.78,57.22 278.87,57.23C278.99,57.24 279.15,57.27 279.32,57.27Q279.52,57.28 280,57.25" style="vector-effect: non-scaling-stroke; fill: none; stroke: rgb(97, 162, 41); stroke-opacity: 1; stroke-width: 5px; opacity: 1;"/></g><g class="points"/><g class="text"/></g></g></g><g class="overplot"/><path class="xlines-above crisp" d="M0,0" style="fill: none;"/><path class="ylines-above crisp" d="M0,0" style="fill: none;"/><g class="overlines-above"/><g class="xaxislayer-above"/><g class="yaxislayer-above"/><g class="overaxes-above"/></g></g><g class="polarlayer"/><g class="smithlayer"/><g class="ternarylayer"/><g class="geolayer"/><g class="funnelarealayer"/><g class="pielayer"/><g class="iciclelayer"/><g class="treemaplayer"/><g class="sunburstlayer"/><g class="glimages"/><defs id="topdefs-60ebf3"><g class="clips"/></defs><g class="layer-above"><g class="imagelayer"/><g class="shapelayer"/></g><g class="infolayer"><g class="g-gtitle"><text class="gtitle" x="15" y="25" text-anchor="start" dy="0em" style="font-family: Ubuntu, verdana, arial, sans-serif; font-size: 16px; fill: rgb(233, 84, 32); opacity: 1; font-weight: normal; white-space: pre;">NRSR 2020-2023</text></g><g class="g-xtitle"/><g class="g-ytitle"/></g></svg>