<svg class="main-svg" xmlns="http://www.w3.org/2000/svg" xmlns:xlink="http://www.w3.org/1999/xlink" width="300" height="135" style="" viewBox="0 0 300 135"><rect x="0" y="0" width="300" height="135" style="fill: rgb(255, 255, 255); fill-opacity: 1;"/><defs id="defs-5ef87a"><g class="clips"><clipPath id="clip5ef87axyplot" class="plotclip"><rect width="280" height="75"/></clipPath><clipPath class="axesclip" id="clip5ef87ax"><rect x="10" y="0" width="280" height="135"/></clipPath><clipPath class="axesclip" id="clip5ef87ay"><rect x="0" y="50" width="300" height="75"/></clipPath><clipPath class="axesclip" id="clip5ef87axy"><rect x="10" y="50" width="280" height="75"/></clipPath></g><g class="gradients"/><g class="patterns"/></defs><g class="bglayer"/><g class="layer-below"><g class="imagelayer"/><g class="shapelayer"/></g><g class="cartesianlayer"><g class="subplot xy"><g class="layer-subplot"><g class="shapelayer"/><g class="imagelayer"/></g><g class="minor-gridlayer"><g class="x"/><g class="y"/></g><g class="gridlayer"><g class="x"><path class="xgrid crisp" transform="translate(42.94,0)" d="M0,50v75" style="stroke: rgb(235, 240, 248); stroke-opacity: 1; stroke-width: 1px;"/><path class="xgrid crisp" transform="translate(141.76,0)" d="M0,50v75" style="stroke: rgb(235, 240, 248); stroke-opacity: 1; stroke-width: 1px;"/><path class="xgrid crisp" transform="translate(243.88,0)" d="M0,50v75" style="stroke: rgb(235, 240, 248); stroke-opacity: 1; stroke-width: 1px;"/></g><g class="y"><path class="ygrid crisp" transform="translate(0,108.35)" d="M10,0h280" style="stroke: rgb(235, 240, 248); stroke-opacity: 1; stroke-width: 1px;"/><path class="ygrid crisp" transform="translate(0,91.71000000000001)" d="M10,0h280" style="stroke: rgb(235, 240, 248); stroke-opacity: 1; stroke-width: 1px;"/><path class="ygrid crisp" transform="translate(0,75.06)" d="M10,0h280" style="stroke: rgb(235, 240, 248); stroke-opacity: 1; stroke-width: 1px;"/><path class="ygrid crisp" transform="translate(0,58.41)" d="M10,0h280" style="stroke: rgb(235, 240, 248); stroke-opacity: 1; stroke-width: 1px;"/></g></g><g class="zerolinelayer"><path class="yzl zl crisp" transform="translate(0,125)" d="M10,0h280" style="stroke: rgb(235, 240, 248); stroke-opacity: 1; stroke-width: 2px;"/></g><path class="xlines-below"/><path class="ylines-below"/><g class="overlines-below"/><g class="xaxislayer-below"/><g class="yaxislayer-below"/><g class="overaxes-below"/><g class="plot" transform="translate(10,50)" clip-path="url(#clip5ef87axyplot)"><g class="scatterlayer mlayer"><g class="trace scatter trace450c32" style="stroke-miterlimit: 2; opacity: 1;"><g class="fills"/><g class="errorbars"/><g class="lines"><path class="js-line" d="M0,12.17L3.29,13.54L6.59,12.78L13.18,12.55L16.47,12.55L19.76,13.29L23.06,12.55L36.24,12.72L39.53,14.86L62.59,16.97L65.88,16.97L88.94,16.02L92.24,19.14L95.53,18.88L98.82,20.46L121.88,19.93L125.18,21.77L131.76,23.44L135.06,23.5L171.29,24.15L174.59,21.79L181.18,20.49L184.47,20.11L230.59,19.07L233.88,17.9L240.47,17.9L243.76,15.9L250.35,15.9L253.65,11.07L266.82,3.75L270.12,3.75L280,3.75" style="vector-effect: none; fill: none; stroke: rgb(238, 58, 67); stroke-opacity: 1; stroke-width: 5px; opacity: 1;"/></g><g class="points"/><g class="text"/></g><g class="trace scatter trace6714fe" style="stroke-miterlimit: 2; opacity: 1;"><g class="fills"/><g class="errorbars"/><g class="lines"><path class="js-line" d="M0,40.5L3.29,39.07L6.59,36.09L9.88,34.09L13.18,27.48L16.47,27.48L19.76,29.24L23.06,27.48L26.35,27.48L36.24,27.15L39.53,21.31L42.82,18.69L46.12,20.07L52.71,18.32L56,18.06L59.29,18.94L62.59,18.06L88.94,18.36L92.24,16.77L95.53,16.03L98.82,13.79L125.18,14.19L128.47,16.35L164.71,19.56L168,19.56L174.59,20.33L177.88,20.49L214.12,20.4L217.41,20.9L250.35,20.9L253.65,22.73L273.41,23.56L276.71,19.07L280,19.07" style="vector-effect: none; fill: none; stroke: rgb(0, 180, 219); stroke-opacity: 1; stroke-width: 5px; opacity: 1;"/></g><g class="points"/><g class="text"/></g><g class="trace scatter trace868685" style="stroke-miterlimit: 2; opacity: 1;"><g class="fills"/><g class="errorbars"/><g class="lines"><path class="js-line" d="M0,5.86L3.29,5.92L6.59,9.66L9.88,12.22L13.18,18.49L16.47,18.49L19.76,16L23.06,18.49L26.35,18.49L36.24,18.65L39.53,22.36L42.82,24.54L46.12,22.95L52.71,23.59L56,23.5L62.59,23.5L65.88,23.5L88.94,24.15L92.24,22.62L98.82,24.28L102.12,24.28L121.88,25.45L125.18,22.57L128.47,18.96L131.76,18.36L151.53,15.93L154.82,15.93L168,14.71L171.29,13.95L177.88,17.55L181.18,17.55L191.06,17.98L194.35,17.98L197.65,17.98L200.94,19.29L207.53,22.73L210.82,22.73L250.35,22.73L253.65,25.22L266.82,33.22L270.12,33.22L273.41,33.22L276.71,35.88L280,35.88" style="vector-effect: none; fill: none; stroke: rgb(138, 44, 81); stroke-opacity: 1; stroke-width: 5px; opacity: 1;"/></g><g class="points"/><g class="text"/></g></g></g><g class="overplot"/><path class="xlines-above crisp" d="M0,0" style="fill: none;"/><path class="ylines-above crisp" d="M0,0" style="fill: none;"/><g class="overlines-above"/><g class="xaxislayer-above"/><g class="yaxislayer-above"/><g class="overaxes-above"/></g></g><g class="polarlayer"/><g class="smithlayer"/><g class="ternarylayer"/><g class="geolayer"/><g class="funnelarealayer"/><g class="pielayer"/><g class="iciclelayer"/><g class="treemaplayer"/><g class="sunburstlayer"/><g class="glimages"/><defs id="topdefs-5ef87a"><g class="clips"/></defs><g class="layer-above"><g class="imagelayer"/><g class="shapelayer"/></g><g class="infolayer"><g class="g-gtitle"><text class="gtitle" x="15" y="25" text-anchor="start" dy="0em" style="font-family: Ubuntu, verdana, arial, sans-serif; font-size: 16px; fill: rgb(233, 84, 32); opacity: 1; font-weight: normal; white-space: pre;">Premiér/ka 2023</text></g><g class="g-xtitle"/><g class="g-ytitle"/></g></svg>