<svg class="main-svg" xmlns="http://www.w3.org/2000/svg" xmlns:xlink="http://www.w3.org/1999/xlink" width="300" height="135" style="" viewBox="0 0 300 135"><rect x="0" y="0" width="300" height="135" style="fill: rgb(255, 255, 255); fill-opacity: 1;"/><defs id="defs-3363ba"><g class="clips"><clipPath id="clip3363baxyplot" class="plotclip"><rect width="280" height="75"/></clipPath><clipPath class="axesclip" id="clip3363bax"><rect x="10" y="0" width="280" height="135"/></clipPath><clipPath class="axesclip" id="clip3363bay"><rect x="0" y="50" width="300" height="75"/></clipPath><clipPath class="axesclip" id="clip3363baxy"><rect x="10" y="50" width="280" height="75"/></clipPath></g><g class="gradients"/><g class="patterns"/></defs><g class="bglayer"/><g class="layer-below"><g class="imagelayer"/><g class="shapelayer"/></g><g class="cartesianlayer"><g class="subplot xy"><g class="layer-subplot"><g class="shapelayer"/><g class="imagelayer"/></g><g class="minor-gridlayer"><g class="x"/><g class="y"/></g><g class="gridlayer"><g class="x"><path class="xgrid crisp" transform="translate(44.15,0)" d="M0,50v75" style="stroke: rgb(235, 240, 248); stroke-opacity: 1; stroke-width: 1px;"/><path class="xgrid crisp" transform="translate(146.59,0)" d="M0,50v75" style="stroke: rgb(235, 240, 248); stroke-opacity: 1; stroke-width: 1px;"/><path class="xgrid crisp" transform="translate(252.44,0)" d="M0,50v75" style="stroke: rgb(235, 240, 248); stroke-opacity: 1; stroke-width: 1px;"/></g><g class="y"><path class="ygrid crisp" transform="translate(0,108.55)" d="M10,0h280" style="stroke: rgb(235, 240, 248); stroke-opacity: 1; stroke-width: 1px;"/><path class="ygrid crisp" transform="translate(0,92.09)" d="M10,0h280" style="stroke: rgb(235, 240, 248); stroke-opacity: 1; stroke-width: 1px;"/><path class="ygrid crisp" transform="translate(0,75.64)" d="M10,0h280" style="stroke: rgb(235, 240, 248); stroke-opacity: 1; stroke-width: 1px;"/><path class="ygrid crisp" transform="translate(0,59.18)" d="M10,0h280" style="stroke: rgb(235, 240, 248); stroke-opacity: 1; stroke-width: 1px;"/></g></g><g class="zerolinelayer"><path class="yzl zl crisp" transform="translate(0,125)" d="M10,0h280" style="stroke: rgb(235, 240, 248); stroke-opacity: 1; stroke-width: 2px;"/></g><path class="xlines-below"/><path class="ylines-below"/><g class="overlines-below"/><g class="xaxislayer-below"/><g class="yaxislayer-below"/><g class="overaxes-below"/><g class="plot" transform="translate(10,50)" clip-path="url(#clip3363baxyplot)"><g class="scatterlayer mlayer"><g class="trace scatter tracecce1e0" style="stroke-miterlimit: 2; opacity: 1;"><g class="fills"/><g class="errorbars"/><g class="lines"><path class="js-line" d="M0,12.94L3.41,14.28L6.83,13.53L13.66,13.29L17.07,13.29L20.49,14.07L23.9,13.29L37.56,13.52L40.98,15.51L64.88,17.57L68.29,17.57L92.2,16.79L95.61,19.79L99.02,19.48L102.44,21.08L126.34,20.61L129.76,22.36L133.17,23.88L136.59,23.99L177.56,24.69L180.98,22.38L187.8,21.16L191.22,20.63L208.29,19.94L211.71,19.22L221.95,19.55L225.37,19.05L249.27,17.9L252.68,16.17L259.51,16.17L262.93,11.62L276.59,3.75L280,3.75" style="vector-effect: none; fill: none; stroke: rgb(238, 58, 67); stroke-opacity: 1; stroke-width: 5px; opacity: 1;"/></g><g class="points"/><g class="text"/></g><g class="trace scatter tracee427e0" style="stroke-miterlimit: 2; opacity: 1;"><g class="fills"/><g class="errorbars"/><g class="lines"><path class="js-line" d="M0,40.89L3.41,39.48L6.83,36.58L10.24,34.59L13.66,28.05L17.07,28.05L20.49,29.82L23.9,28.05L27.32,28.05L37.56,27.63L40.98,21.96L44.39,19.4L47.8,20.64L54.63,18.99L58.05,18.78L61.46,19.49L64.88,18.78L92.2,18.93L95.61,17.47L99.02,16.71L102.44,14.56L129.76,14.95L133.17,17.01L160.49,19.36L163.9,19.36L184.39,21.16L187.8,21.16L208.29,20.58L211.71,19.55L218.54,19.88L221.95,20.37L232.2,20.86L235.61,20.86L259.51,21.24L262.93,23.19L280,23.5" style="vector-effect: none; fill: none; stroke: rgb(0, 180, 219); stroke-opacity: 1; stroke-width: 5px; opacity: 1;"/></g><g class="points"/><g class="text"/></g><g class="trace scatter trace5924d2" style="stroke-miterlimit: 2; opacity: 1;"><g class="fills"/><g class="errorbars"/><g class="lines"><path class="js-line" d="M0,6.63L3.41,6.69L6.83,10.34L10.24,12.93L13.66,19.11L17.07,19.11L20.49,16.57L23.9,19.11L27.32,19.11L37.56,19.31L40.98,22.98L44.39,25.11L47.8,23.61L58.05,24.1L61.46,23.58L71.71,24.1L75.12,24.1L92.2,24.73L95.61,23.19L102.44,24.81L105.85,24.81L126.34,26L129.76,23.14L133.17,19.56L136.59,19.03L153.66,16.65L157.07,16.65L167.32,16.03L170.73,15.36L177.56,14.72L180.98,17.12L187.8,18.13L191.22,18.72L208.29,19.94L211.71,21.68L218.54,22.67L221.95,22.67L259.51,23.04L262.93,25.64L276.59,33.2L280,33.2" style="vector-effect: none; fill: none; stroke: rgb(138, 44, 81); stroke-opacity: 1; stroke-width: 5px; opacity: 1;"/></g><g class="points"/><g class="text"/></g></g></g><g class="overplot"/><path class="xlines-above crisp" d="M0,0" style="fill: none;"/><path class="ylines-above crisp" d="M0,0" style="fill: none;"/><g class="overlines-above"/><g class="xaxislayer-above"/><g class="yaxislayer-above"/><g class="overaxes-above"/></g></g><g class="polarlayer"/><g class="smithlayer"/><g class="ternarylayer"/><g class="geolayer"/><g class="funnelarealayer"/><g class="pielayer"/><g class="iciclelayer"/><g class="treemaplayer"/><g class="sunburstlayer"/><g class="glimages"/><defs id="topdefs-3363ba"><g class="clips"/></defs><g class="layer-above"><g class="imagelayer"/><g class="shapelayer"/></g><g class="infolayer"><g class="g-gtitle"><text class="gtitle" x="15" y="25" text-anchor="start" dy="0em" style="font-family: Ubuntu, verdana, arial, sans-serif; font-size: 16px; fill: rgb(233, 84, 32); opacity: 1; font-weight: normal; white-space: pre;">Premiér/ka 2023</text></g><g class="g-xtitle"/><g class="g-ytitle"/></g></svg>