<svg class="main-svg" xmlns="http://www.w3.org/2000/svg" xmlns:xlink="http://www.w3.org/1999/xlink" width="300" height="135" style="" viewBox="0 0 300 135"><rect x="0" y="0" width="300" height="135" style="fill: rgb(255, 255, 255); fill-opacity: 1;"/><defs id="defs-7148ce"><g class="clips"><clipPath id="clip7148cexyplot" class="plotclip"><rect width="280" height="75"/></clipPath><clipPath class="axesclip" id="clip7148cex"><rect x="10" y="0" width="280" height="135"/></clipPath><clipPath class="axesclip" id="clip7148cey"><rect x="0" y="50" width="300" height="75"/></clipPath><clipPath class="axesclip" id="clip7148cexy"><rect x="10" y="50" width="280" height="75"/></clipPath></g><g class="gradients"/><g class="patterns"/></defs><g class="bglayer"/><g class="layer-below"><g class="imagelayer"/><g class="shapelayer"/></g><g class="cartesianlayer"><g class="subplot xy"><g class="layer-subplot"><g class="shapelayer"/><g class="imagelayer"/></g><g class="minor-gridlayer"><g class="x"/><g class="y"/></g><g class="gridlayer"><g class="x"><path class="xgrid crisp" transform="translate(32.4,0)" d="M0,50v75" style="stroke: rgb(235, 240, 248); stroke-opacity: 1; stroke-width: 1px;"/><path class="xgrid crisp" transform="translate(99.6,0)" d="M0,50v75" style="stroke: rgb(235, 240, 248); stroke-opacity: 1; stroke-width: 1px;"/><path class="xgrid crisp" transform="translate(169.04,0)" d="M0,50v75" style="stroke: rgb(235, 240, 248); stroke-opacity: 1; stroke-width: 1px;"/><path class="xgrid crisp" transform="translate(238.48,0)" d="M0,50v75" style="stroke: rgb(235, 240, 248); stroke-opacity: 1; stroke-width: 1px;"/></g><g class="y"><path class="ygrid crisp" transform="translate(0,108.99000000000001)" d="M10,0h280" style="stroke: rgb(235, 240, 248); stroke-opacity: 1; stroke-width: 1px;"/><path class="ygrid crisp" transform="translate(0,92.97999999999999)" d="M10,0h280" style="stroke: rgb(235, 240, 248); stroke-opacity: 1; stroke-width: 1px;"/><path class="ygrid crisp" transform="translate(0,76.97)" d="M10,0h280" style="stroke: rgb(235, 240, 248); stroke-opacity: 1; stroke-width: 1px;"/><path class="ygrid crisp" transform="translate(0,60.96)" d="M10,0h280" style="stroke: rgb(235, 240, 248); stroke-opacity: 1; stroke-width: 1px;"/></g></g><g class="zerolinelayer"><path class="yzl zl crisp" transform="translate(0,125)" d="M10,0h280" style="stroke: rgb(235, 240, 248); stroke-opacity: 1; stroke-width: 2px;"/></g><path class="xlines-below"/><path class="ylines-below"/><g class="overlines-below"/><g class="xaxislayer-below"/><g class="yaxislayer-below"/><g class="overaxes-below"/><g class="plot" transform="translate(10,50)" clip-path="url(#clip7148cexyplot)"><g class="scatterlayer mlayer"><g class="trace scatter traceee6d8e" style="stroke-miterlimit: 2; opacity: 1;"><g class="fills"/><g class="errorbars"/><g class="lines"><path class="js-line" d="M0,17.68L4.48,19.12L6.72,18.64L24.64,18.8L26.88,20.56L53.76,22.32L56,21.84L60.48,21.36L62.72,24.08L64.96,23.6L67.2,24.88L82.88,24.4L85.12,26.01L89.6,27.13L91.84,27.29L109.76,27.45L112,27.45L116.48,27.29L118.72,24.88L123.2,23.6L125.44,23.12L136.64,22.32L138.88,21.52L156.8,20.56L159.04,19.92L163.52,19.92L165.76,18.48L170.24,18.48L172.48,14L181.44,5.67L183.68,5.67L197.12,6.31L199.36,7.11L208.32,7.27L210.56,3.75L219.52,6.15L221.76,6.15L226.24,7.11L228.48,7.75L230.72,8.87L235.2,9.67L257.6,8.71L259.84,7.27L268.8,6.79L271.04,3.91L280,4.39" style="vector-effect: none; fill: none; stroke: rgb(238, 58, 67); stroke-opacity: 1; stroke-width: 5px; opacity: 1;"/></g><g class="points"/><g class="text"/></g><g class="trace scatter trace617d52" style="stroke-miterlimit: 2; opacity: 1;"><g class="fills"/><g class="errorbars"/><g class="lines"><path class="js-line" d="M0,43.46L4.48,40.1L6.72,38.17L8.96,32.25L11.2,32.09L13.44,33.37L15.68,32.09L24.64,31.77L26.88,26.33L29.12,23.92L31.36,25.04L35.84,23.44L38.08,23.28L40.32,24.08L42.56,23.28L60.48,23.28L62.72,21.84L64.96,21.04L67.2,18.64L85.12,19.12L87.36,20.72L107.52,22.8L109.76,22.8L123.2,23.6L125.44,23.6L136.64,23.12L138.88,22L143.36,21.84L145.6,22.16L154.56,22.48L156.8,22.48L170.24,23.28L172.48,25.04L181.44,24.88L183.68,24.88L185.92,24.88L188.16,21.2L197.12,21.04L199.36,19.12L208.32,18.8L210.56,22.48L219.52,24.56L221.76,24.56L228.48,23.44L230.72,21.68L239.68,20.4L241.92,20.4L257.6,20.88L259.84,21.84L268.8,22L271.04,23.28L280,23.92" style="vector-effect: none; fill: none; stroke: rgb(0, 180, 219); stroke-opacity: 1; stroke-width: 5px; opacity: 1;"/></g><g class="points"/><g class="text"/></g><g class="trace scatter trace3c8713" style="stroke-miterlimit: 2; opacity: 1;"><g class="fills"/><g class="errorbars"/><g class="lines"><path class="js-line" d="M0,12.08L2.24,12.08L4.48,16.24L6.72,18.64L8.96,24.08L11.2,23.92L13.44,21.2L15.68,23.92L17.92,23.92L24.64,24.08L26.88,27.29L29.12,29.21L31.36,27.77L38.08,28.25L40.32,27.61L47.04,28.25L49.28,28.25L60.48,28.73L62.72,27.29L67.2,28.25L69.44,28.25L80.64,28.09L82.88,29.37L87.36,23.12L89.6,22.48L105.28,20.24L107.52,20.24L116.48,17.68L118.72,19.92L125.44,21.2L127.68,21.2L136.64,22.32L138.88,24.08L143.36,24.56L145.6,24.4L161.28,24.4L163.52,24.4L170.24,25.04L172.48,27.45L181.44,34.33L183.68,34.33L185.92,34.33L188.16,37.37L197.12,37.69L199.36,38.65L210.56,38.49L217.28,34.17L230.72,34.33L235.2,34.97L268.8,36.09L271.04,37.69L280,36.57" style="vector-effect: none; fill: none; stroke: rgb(138, 44, 81); stroke-opacity: 1; stroke-width: 5px; opacity: 1;"/></g><g class="points"/><g class="text"/></g><g class="trace scatter trace37c761" style="stroke-miterlimit: 2; opacity: 1;"><g class="fills"/><g class="errorbars"/><g class="lines"><path class="js-line" d="M0,66.67L2.24,66.67L4.48,64.59L11.2,65.23L13.44,66.35L17.92,65.23L20.16,65.23L53.76,66.19L56,66.51L64.96,67.15L67.2,68.12L103.04,69.08L105.28,69.4L109.76,70.36L112,71L136.64,72.12L138.88,72.28L172.48,73.4" style="vector-effect: none; fill: none; stroke: rgb(1, 27, 58); stroke-opacity: 1; stroke-width: 5px; opacity: 1;"/></g><g class="points"/><g class="text"/></g></g></g><g class="overplot"/><path class="xlines-above crisp" d="M0,0" style="fill: none;"/><path class="ylines-above crisp" d="M0,0" style="fill: none;"/><g class="overlines-above"/><g class="xaxislayer-above"/><g class="yaxislayer-above"/><g class="overaxes-above"/></g></g><g class="polarlayer"/><g class="smithlayer"/><g class="ternarylayer"/><g class="geolayer"/><g class="funnelarealayer"/><g class="pielayer"/><g class="iciclelayer"/><g class="treemaplayer"/><g class="sunburstlayer"/><g class="glimages"/><defs id="topdefs-7148ce"><g class="clips"/></defs><g class="layer-above"><g class="imagelayer"/><g class="shapelayer"/></g><g class="infolayer"><g class="g-gtitle"><text class="gtitle" x="15" y="25" text-anchor="start" dy="0em" style="font-family: Ubuntu, verdana, arial, sans-serif; font-size: 16px; fill: rgb(233, 84, 32); opacity: 1; font-weight: normal; white-space: pre;">Premiér/ka 2023</text></g><g class="g-xtitle"/><g class="g-ytitle"/></g></svg>