<svg class="main-svg" xmlns="http://www.w3.org/2000/svg" xmlns:xlink="http://www.w3.org/1999/xlink" width="300" height="135" style="" viewBox="0 0 300 135"><rect x="0" y="0" width="300" height="135" style="fill: rgb(255, 255, 255); fill-opacity: 1;"/><defs id="defs-dea3b2"><g class="clips"><clipPath id="clipdea3b2xyplot" class="plotclip"><rect width="280" height="75"/></clipPath><clipPath class="axesclip" id="clipdea3b2x"><rect x="10" y="0" width="280" height="135"/></clipPath><clipPath class="axesclip" id="clipdea3b2y"><rect x="0" y="50" width="300" height="75"/></clipPath><clipPath class="axesclip" id="clipdea3b2xy"><rect x="10" y="50" width="280" height="75"/></clipPath></g><g class="gradients"/><g class="patterns"/></defs><g class="bglayer"/><g class="layer-below"><g class="imagelayer"/><g class="shapelayer"/></g><g class="cartesianlayer"><g class="subplot xy"><g class="layer-subplot"><g class="shapelayer"/><g class="imagelayer"/></g><g class="minor-gridlayer"><g class="x"/><g class="y"/></g><g class="gridlayer"><g class="x"><path class="xgrid crisp" transform="translate(38,0)" d="M0,50v75" style="stroke: rgb(235, 240, 248); stroke-opacity: 1; stroke-width: 1px;"/><path class="xgrid crisp" transform="translate(122,0)" d="M0,50v75" style="stroke: rgb(235, 240, 248); stroke-opacity: 1; stroke-width: 1px;"/><path class="xgrid crisp" transform="translate(208.8,0)" d="M0,50v75" style="stroke: rgb(235, 240, 248); stroke-opacity: 1; stroke-width: 1px;"/></g><g class="y"><path class="ygrid crisp" transform="translate(0,108.99000000000001)" d="M10,0h280" style="stroke: rgb(235, 240, 248); stroke-opacity: 1; stroke-width: 1px;"/><path class="ygrid crisp" transform="translate(0,92.97999999999999)" d="M10,0h280" style="stroke: rgb(235, 240, 248); stroke-opacity: 1; stroke-width: 1px;"/><path class="ygrid crisp" transform="translate(0,76.97)" d="M10,0h280" style="stroke: rgb(235, 240, 248); stroke-opacity: 1; stroke-width: 1px;"/><path class="ygrid crisp" transform="translate(0,60.96)" d="M10,0h280" style="stroke: rgb(235, 240, 248); stroke-opacity: 1; stroke-width: 1px;"/></g></g><g class="zerolinelayer"><path class="yzl zl crisp" transform="translate(0,125)" d="M10,0h280" style="stroke: rgb(235, 240, 248); stroke-opacity: 1; stroke-width: 2px;"/></g><path class="xlines-below"/><path class="ylines-below"/><g class="overlines-below"/><g class="xaxislayer-below"/><g class="yaxislayer-below"/><g class="overaxes-below"/><g class="plot" transform="translate(10,50)" clip-path="url(#clipdea3b2xyplot)"><g class="scatterlayer mlayer"><g class="trace scatter trace4c2a6c" style="stroke-miterlimit: 2; opacity: 1;"><g class="fills"/><g class="errorbars"/><g class="lines"><path class="js-line" d="M0,17.68L5.6,19.12L8.4,18.64L30.8,18.8L33.6,20.56L67.2,22.32L70,21.84L75.6,21.36L78.4,24.08L81.2,23.6L84,24.88L103.6,24.4L106.4,26.01L112,27.13L114.8,27.29L137.2,27.45L140,27.45L145.6,27.29L148.4,24.88L154,23.6L156.8,23.12L170.8,22.32L173.6,21.52L196,20.56L198.8,19.92L204.4,19.92L207.2,18.48L212.8,18.48L215.6,14L226.8,5.67L229.6,5.67L246.4,6.31L249.2,7.11L260.4,7.27L263.2,3.75L274.4,6.15L277.2,6.15L280,6.15" style="vector-effect: none; fill: none; stroke: rgb(238, 58, 67); stroke-opacity: 1; stroke-width: 5px; opacity: 1;"/></g><g class="points"/><g class="text"/></g><g class="trace scatter tracee53a48" style="stroke-miterlimit: 2; opacity: 1;"><g class="fills"/><g class="errorbars"/><g class="lines"><path class="js-line" d="M0,43.46L5.6,40.1L8.4,38.17L11.2,32.25L14,32.09L16.8,33.37L19.6,32.09L30.8,31.77L33.6,26.33L36.4,23.92L39.2,25.04L44.8,23.44L47.6,23.28L50.4,24.08L53.2,23.28L75.6,23.28L78.4,21.84L81.2,21.04L84,18.64L106.4,19.12L109.2,20.72L134.4,22.8L137.2,22.8L154,23.6L156.8,23.6L170.8,23.12L173.6,22L179.2,21.84L182,22.16L193.2,22.48L196,22.48L212.8,23.28L215.6,25.04L226.8,24.88L229.6,24.88L232.4,24.88L235.2,21.2L246.4,21.04L249.2,19.12L260.4,18.8L263.2,22.48L274.4,24.56L277.2,24.56L280,24.56" style="vector-effect: none; fill: none; stroke: rgb(0, 180, 219); stroke-opacity: 1; stroke-width: 5px; opacity: 1;"/></g><g class="points"/><g class="text"/></g><g class="trace scatter traced4a779" style="stroke-miterlimit: 2; opacity: 1;"><g class="fills"/><g class="errorbars"/><g class="lines"><path class="js-line" d="M0,12.08L2.8,12.08L5.6,16.24L8.4,18.64L11.2,24.08L14,23.92L16.8,21.2L19.6,23.92L22.4,23.92L30.8,24.08L33.6,27.29L36.4,29.21L39.2,27.77L47.6,28.25L50.4,27.61L58.8,28.25L61.6,28.25L75.6,28.73L78.4,27.29L84,28.25L86.8,28.25L100.8,28.09L103.6,29.37L109.2,23.12L112,22.48L131.6,20.24L134.4,20.24L145.6,17.68L148.4,19.92L156.8,21.2L159.6,21.2L170.8,22.32L173.6,24.08L179.2,24.56L182,24.4L201.6,24.4L204.4,24.4L212.8,25.04L215.6,27.45L226.8,34.33L229.6,34.33L232.4,34.33L235.2,37.37L246.4,37.69L249.2,38.65L263.2,38.49L271.6,34.17L280,34.17" style="vector-effect: none; fill: none; stroke: rgb(138, 44, 81); stroke-opacity: 1; stroke-width: 5px; opacity: 1;"/></g><g class="points"/><g class="text"/></g><g class="trace scatter tracead0226" style="stroke-miterlimit: 2; opacity: 1;"><g class="fills"/><g class="errorbars"/><g class="lines"><path class="js-line" d="M0,66.67L2.8,66.67L5.6,64.59L14,65.23L16.8,66.35L22.4,65.23L25.2,65.23L67.2,66.19L70,66.51L81.2,67.15L84,68.12L128.8,69.08L131.6,69.4L137.2,70.36L140,71L170.8,72.12L173.6,72.28L215.6,73.4" style="vector-effect: none; fill: none; stroke: rgb(1, 27, 58); stroke-opacity: 1; stroke-width: 5px; opacity: 1;"/></g><g class="points"/><g class="text"/></g></g></g><g class="overplot"/><path class="xlines-above crisp" d="M0,0" style="fill: none;"/><path class="ylines-above crisp" d="M0,0" style="fill: none;"/><g class="overlines-above"/><g class="xaxislayer-above"/><g class="yaxislayer-above"/><g class="overaxes-above"/></g></g><g class="polarlayer"/><g class="smithlayer"/><g class="ternarylayer"/><g class="geolayer"/><g class="funnelarealayer"/><g class="pielayer"/><g class="iciclelayer"/><g class="treemaplayer"/><g class="sunburstlayer"/><g class="glimages"/><defs id="topdefs-dea3b2"><g class="clips"/></defs><g class="layer-above"><g class="imagelayer"/><g class="shapelayer"/></g><g class="infolayer"><g class="g-gtitle"><text class="gtitle" x="15" y="25" text-anchor="start" dy="0em" style="font-family: Ubuntu, verdana, arial, sans-serif; font-size: 16px; fill: rgb(233, 84, 32); opacity: 1; font-weight: normal; white-space: pre;">Premiér/ka 2023</text></g><g class="g-xtitle"/><g class="g-ytitle"/></g></svg>