<svg class="main-svg" xmlns="http://www.w3.org/2000/svg" xmlns:xlink="http://www.w3.org/1999/xlink" width="300" height="135" style="" viewBox="0 0 300 135"><rect x="0" y="0" width="300" height="135" style="fill: rgb(255, 255, 255); fill-opacity: 1;"/><defs id="defs-f0bd5a"><g class="clips"><clipPath id="clipf0bd5axyplot" class="plotclip"><rect width="280" height="75"/></clipPath><clipPath class="axesclip" id="clipf0bd5ax"><rect x="10" y="0" width="280" height="135"/></clipPath><clipPath class="axesclip" id="clipf0bd5ay"><rect x="0" y="50" width="300" height="75"/></clipPath><clipPath class="axesclip" id="clipf0bd5axy"><rect x="10" y="50" width="280" height="75"/></clipPath></g><g class="gradients"/><g class="patterns"/></defs><g class="bglayer"/><g class="layer-below"><g class="imagelayer"/><g class="shapelayer"/></g><g class="cartesianlayer"><g class="subplot xy"><g class="layer-subplot"><g class="shapelayer"/><g class="imagelayer"/></g><g class="minor-gridlayer"><g class="x"/><g class="y"/></g><g class="gridlayer"><g class="x"><path class="xgrid crisp" transform="translate(33.14,0)" d="M0,50v75" style="stroke: rgb(235, 240, 248); stroke-opacity: 1; stroke-width: 1px;"/><path class="xgrid crisp" transform="translate(102.56,0)" d="M0,50v75" style="stroke: rgb(235, 240, 248); stroke-opacity: 1; stroke-width: 1px;"/><path class="xgrid crisp" transform="translate(174.3,0)" d="M0,50v75" style="stroke: rgb(235, 240, 248); stroke-opacity: 1; stroke-width: 1px;"/><path class="xgrid crisp" transform="translate(246.03,0)" d="M0,50v75" style="stroke: rgb(235, 240, 248); stroke-opacity: 1; stroke-width: 1px;"/></g><g class="y"><path class="ygrid crisp" transform="translate(0,108.99000000000001)" d="M10,0h280" style="stroke: rgb(235, 240, 248); stroke-opacity: 1; stroke-width: 1px;"/><path class="ygrid crisp" transform="translate(0,92.97999999999999)" d="M10,0h280" style="stroke: rgb(235, 240, 248); stroke-opacity: 1; stroke-width: 1px;"/><path class="ygrid crisp" transform="translate(0,76.97)" d="M10,0h280" style="stroke: rgb(235, 240, 248); stroke-opacity: 1; stroke-width: 1px;"/><path class="ygrid crisp" transform="translate(0,60.96)" d="M10,0h280" style="stroke: rgb(235, 240, 248); stroke-opacity: 1; stroke-width: 1px;"/></g></g><g class="zerolinelayer"><path class="yzl zl crisp" transform="translate(0,125)" d="M10,0h280" style="stroke: rgb(235, 240, 248); stroke-opacity: 1; stroke-width: 2px;"/></g><path class="xlines-below"/><path class="ylines-below"/><g class="overlines-below"/><g class="xaxislayer-below"/><g class="yaxislayer-below"/><g class="overaxes-below"/><g class="plot" transform="translate(10,50)" clip-path="url(#clipf0bd5axyplot)"><g class="scatterlayer mlayer"><g class="trace scatter trace28e7d2" style="stroke-miterlimit: 2; opacity: 1;"><g class="fills"/><g class="errorbars"/><g class="lines"><path class="js-line" d="M0,17.68L4.63,19.12L6.94,18.64L25.45,18.8L27.77,20.56L55.54,22.32L57.85,21.84L62.48,21.36L64.79,24.08L67.11,23.6L69.42,24.88L85.62,24.4L87.93,26.01L92.56,27.13L94.88,27.29L113.39,27.45L115.7,27.45L120.33,27.29L122.64,24.88L127.27,23.6L129.59,23.12L141.16,22.32L143.47,21.52L161.98,20.56L164.3,19.92L168.93,19.92L171.24,18.48L175.87,18.48L178.18,14L187.44,5.67L189.75,5.67L203.64,6.31L205.95,7.11L215.21,7.27L217.52,3.75L226.78,6.15L229.09,6.15L233.72,7.11L236.03,7.75L238.35,8.87L242.98,9.67L266.12,8.71L268.43,7.27L277.69,6.79L280,4.23" style="vector-effect: none; fill: none; stroke: rgb(238, 58, 67); stroke-opacity: 1; stroke-width: 5px; opacity: 1;"/></g><g class="points"/><g class="text"/></g><g class="trace scatter trace9be675" style="stroke-miterlimit: 2; opacity: 1;"><g class="fills"/><g class="errorbars"/><g class="lines"><path class="js-line" d="M0,43.46L4.63,40.1L6.94,38.17L9.26,32.25L11.57,32.09L13.88,33.37L16.2,32.09L25.45,31.77L27.77,26.33L30.08,23.92L32.4,25.04L37.02,23.44L39.34,23.28L41.65,24.08L43.97,23.28L62.48,23.28L64.79,21.84L67.11,21.04L69.42,18.64L87.93,19.12L90.25,20.72L111.07,22.8L113.39,22.8L127.27,23.6L129.59,23.6L141.16,23.12L143.47,22L148.1,21.84L150.41,22.16L159.67,22.48L161.98,22.48L175.87,23.28L178.18,25.04L187.44,24.88L189.75,24.88L192.07,24.88L194.38,21.2L203.64,21.04L205.95,19.12L215.21,18.8L217.52,22.48L226.78,24.56L229.09,24.56L236.03,23.44L238.35,21.68L247.6,20.4L249.92,20.4L266.12,20.88L268.43,21.84L280,22.8" style="vector-effect: none; fill: none; stroke: rgb(0, 180, 219); stroke-opacity: 1; stroke-width: 5px; opacity: 1;"/></g><g class="points"/><g class="text"/></g><g class="trace scatter trace55bbdd" style="stroke-miterlimit: 2; opacity: 1;"><g class="fills"/><g class="errorbars"/><g class="lines"><path class="js-line" d="M0,12.08L2.31,12.08L4.63,16.24L6.94,18.64L9.26,24.08L11.57,23.92L13.88,21.2L16.2,23.92L18.51,23.92L25.45,24.08L27.77,27.29L30.08,29.21L32.4,27.77L39.34,28.25L41.65,27.61L48.6,28.25L50.91,28.25L62.48,28.73L64.79,27.29L69.42,28.25L71.74,28.25L83.31,28.09L85.62,29.37L90.25,23.12L92.56,22.48L108.76,20.24L111.07,20.24L120.33,17.68L122.64,19.92L129.59,21.2L131.9,21.2L141.16,22.32L143.47,24.08L148.1,24.56L150.41,24.4L166.61,24.4L168.93,24.4L175.87,25.04L178.18,27.45L187.44,34.33L189.75,34.33L192.07,34.33L194.38,37.37L203.64,37.69L205.95,38.65L217.52,38.49L224.46,34.17L238.35,34.33L242.98,34.97L277.69,36.09L280,37.85" style="vector-effect: none; fill: none; stroke: rgb(138, 44, 81); stroke-opacity: 1; stroke-width: 5px; opacity: 1;"/></g><g class="points"/><g class="text"/></g><g class="trace scatter trace5e066a" style="stroke-miterlimit: 2; opacity: 1;"><g class="fills"/><g class="errorbars"/><g class="lines"><path class="js-line" d="M0,66.67L2.31,66.67L4.63,64.59L11.57,65.23L13.88,66.35L18.51,65.23L20.83,65.23L55.54,66.19L57.85,66.51L67.11,67.15L69.42,68.12L106.45,69.08L108.76,69.4L113.39,70.36L115.7,71L141.16,72.12L143.47,72.28L178.18,73.4" style="vector-effect: none; fill: none; stroke: rgb(1, 27, 58); stroke-opacity: 1; stroke-width: 5px; opacity: 1;"/></g><g class="points"/><g class="text"/></g></g></g><g class="overplot"/><path class="xlines-above crisp" d="M0,0" style="fill: none;"/><path class="ylines-above crisp" d="M0,0" style="fill: none;"/><g class="overlines-above"/><g class="xaxislayer-above"/><g class="yaxislayer-above"/><g class="overaxes-above"/></g></g><g class="polarlayer"/><g class="smithlayer"/><g class="ternarylayer"/><g class="geolayer"/><g class="funnelarealayer"/><g class="pielayer"/><g class="iciclelayer"/><g class="treemaplayer"/><g class="sunburstlayer"/><g class="glimages"/><defs id="topdefs-f0bd5a"><g class="clips"/></defs><g class="layer-above"><g class="imagelayer"/><g class="shapelayer"/></g><g class="infolayer"><g class="g-gtitle"><text class="gtitle" x="15" y="25" text-anchor="start" dy="0em" style="font-family: Ubuntu, verdana, arial, sans-serif; font-size: 16px; fill: rgb(233, 84, 32); opacity: 1; font-weight: normal; white-space: pre;">Premiér/ka 2023</text></g><g class="g-xtitle"/><g class="g-ytitle"/></g></svg>