<svg class="main-svg" xmlns="http://www.w3.org/2000/svg" xmlns:xlink="http://www.w3.org/1999/xlink" width="300" height="135" style="" viewBox="0 0 300 135"><rect x="0" y="0" width="300" height="135" style="fill: rgb(255, 255, 255); fill-opacity: 1;"/><defs id="defs-f26cb8"><g class="clips"><clipPath id="clipf26cb8xyplot" class="plotclip"><rect width="280" height="75"/></clipPath><clipPath class="axesclip" id="clipf26cb8x"><rect x="10" y="0" width="280" height="135"/></clipPath><clipPath class="axesclip" id="clipf26cb8y"><rect x="0" y="50" width="300" height="75"/></clipPath><clipPath class="axesclip" id="clipf26cb8xy"><rect x="10" y="50" width="280" height="75"/></clipPath></g><g class="gradients"/><g class="patterns"/></defs><g class="bglayer"/><g class="layer-below"><g class="imagelayer"/><g class="shapelayer"/></g><g class="cartesianlayer"><g class="subplot xy"><g class="layer-subplot"><g class="shapelayer"/><g class="imagelayer"/></g><g class="minor-gridlayer"><g class="x"/><g class="y"/></g><g class="gridlayer"><g class="x"><path class="xgrid crisp" transform="translate(34.35,0)" d="M0,50v75" style="stroke: rgb(235, 240, 248); stroke-opacity: 1; stroke-width: 1px;"/><path class="xgrid crisp" transform="translate(107.39,0)" d="M0,50v75" style="stroke: rgb(235, 240, 248); stroke-opacity: 1; stroke-width: 1px;"/><path class="xgrid crisp" transform="translate(182.87,0)" d="M0,50v75" style="stroke: rgb(235, 240, 248); stroke-opacity: 1; stroke-width: 1px;"/><path class="xgrid crisp" transform="translate(258.35,0)" d="M0,50v75" style="stroke: rgb(235, 240, 248); stroke-opacity: 1; stroke-width: 1px;"/></g><g class="y"><path class="ygrid crisp" transform="translate(0,108.99000000000001)" d="M10,0h280" style="stroke: rgb(235, 240, 248); stroke-opacity: 1; stroke-width: 1px;"/><path class="ygrid crisp" transform="translate(0,92.97999999999999)" d="M10,0h280" style="stroke: rgb(235, 240, 248); stroke-opacity: 1; stroke-width: 1px;"/><path class="ygrid crisp" transform="translate(0,76.97)" d="M10,0h280" style="stroke: rgb(235, 240, 248); stroke-opacity: 1; stroke-width: 1px;"/><path class="ygrid crisp" transform="translate(0,60.96)" d="M10,0h280" style="stroke: rgb(235, 240, 248); stroke-opacity: 1; stroke-width: 1px;"/></g></g><g class="zerolinelayer"><path class="yzl zl crisp" transform="translate(0,125)" d="M10,0h280" style="stroke: rgb(235, 240, 248); stroke-opacity: 1; stroke-width: 2px;"/></g><path class="xlines-below"/><path class="ylines-below"/><g class="overlines-below"/><g class="xaxislayer-below"/><g class="yaxislayer-below"/><g class="overaxes-below"/><g class="plot" transform="translate(10,50)" clip-path="url(#clipf26cb8xyplot)"><g class="scatterlayer mlayer"><g class="trace scatter trace5a94d9" style="stroke-miterlimit: 2; opacity: 1;"><g class="fills"/><g class="errorbars"/><g class="lines"><path class="js-line" d="M0,17.68L4.87,19.12L7.3,18.64L26.78,18.8L29.22,20.56L58.43,22.32L60.87,21.84L65.74,21.36L68.17,24.08L70.61,23.6L73.04,24.88L90.09,24.4L92.52,26.01L97.39,27.13L99.83,27.29L119.3,27.45L121.74,27.45L126.61,27.29L129.04,24.88L133.91,23.6L136.35,23.12L148.52,22.32L150.96,21.52L170.43,20.56L172.87,19.92L177.74,19.92L180.17,18.48L185.04,18.48L187.48,14L197.22,5.67L199.65,5.67L214.26,6.31L216.7,7.11L226.43,7.27L228.87,3.75L238.61,6.15L241.04,6.15L245.91,7.11L248.35,7.75L250.78,8.87L255.65,9.67L280,9.67" style="vector-effect: none; fill: none; stroke: rgb(238, 58, 67); stroke-opacity: 1; stroke-width: 5px; opacity: 1;"/></g><g class="points"/><g class="text"/></g><g class="trace scatter trace3b15fb" style="stroke-miterlimit: 2; opacity: 1;"><g class="fills"/><g class="errorbars"/><g class="lines"><path class="js-line" d="M0,43.46L4.87,40.1L7.3,38.17L9.74,32.25L12.17,32.09L14.61,33.37L17.04,32.09L26.78,31.77L29.22,26.33L31.65,23.92L34.09,25.04L38.96,23.44L41.39,23.28L43.83,24.08L46.26,23.28L65.74,23.28L68.17,21.84L70.61,21.04L73.04,18.64L92.52,19.12L94.96,20.72L116.87,22.8L119.3,22.8L133.91,23.6L136.35,23.6L148.52,23.12L150.96,22L155.83,21.84L158.26,22.16L168,22.48L170.43,22.48L185.04,23.28L187.48,25.04L197.22,24.88L199.65,24.88L202.09,24.88L204.52,21.2L214.26,21.04L216.7,19.12L226.43,18.8L228.87,22.48L238.61,24.56L241.04,24.56L248.35,23.44L250.78,21.68L260.52,20.4L262.96,20.4L280,20.4" style="vector-effect: none; fill: none; stroke: rgb(0, 180, 219); stroke-opacity: 1; stroke-width: 5px; opacity: 1;"/></g><g class="points"/><g class="text"/></g><g class="trace scatter tracebbcefd" style="stroke-miterlimit: 2; opacity: 1;"><g class="fills"/><g class="errorbars"/><g class="lines"><path class="js-line" d="M0,12.08L2.43,12.08L4.87,16.24L7.3,18.64L9.74,24.08L12.17,23.92L14.61,21.2L17.04,23.92L19.48,23.92L26.78,24.08L29.22,27.29L31.65,29.21L34.09,27.77L41.39,28.25L43.83,27.61L51.13,28.25L53.57,28.25L65.74,28.73L68.17,27.29L73.04,28.25L75.48,28.25L87.65,28.09L90.09,29.37L94.96,23.12L97.39,22.48L114.43,20.24L116.87,20.24L126.61,17.68L129.04,19.92L136.35,21.2L138.78,21.2L148.52,22.32L150.96,24.08L155.83,24.56L158.26,24.4L175.3,24.4L177.74,24.4L185.04,25.04L187.48,27.45L197.22,34.33L199.65,34.33L202.09,34.33L204.52,37.37L214.26,37.69L216.7,38.65L228.87,38.49L236.17,34.17L250.78,34.33L255.65,34.97L280,34.97" style="vector-effect: none; fill: none; stroke: rgb(138, 44, 81); stroke-opacity: 1; stroke-width: 5px; opacity: 1;"/></g><g class="points"/><g class="text"/></g><g class="trace scatter tracebd5184" style="stroke-miterlimit: 2; opacity: 1;"><g class="fills"/><g class="errorbars"/><g class="lines"><path class="js-line" d="M0,66.67L2.43,66.67L4.87,64.59L12.17,65.23L14.61,66.35L19.48,65.23L21.91,65.23L58.43,66.19L60.87,66.51L70.61,67.15L73.04,68.12L112,69.08L114.43,69.4L119.3,70.36L121.74,71L148.52,72.12L150.96,72.28L187.48,73.4" style="vector-effect: none; fill: none; stroke: rgb(1, 27, 58); stroke-opacity: 1; stroke-width: 5px; opacity: 1;"/></g><g class="points"/><g class="text"/></g></g></g><g class="overplot"/><path class="xlines-above crisp" d="M0,0" style="fill: none;"/><path class="ylines-above crisp" d="M0,0" style="fill: none;"/><g class="overlines-above"/><g class="xaxislayer-above"/><g class="yaxislayer-above"/><g class="overaxes-above"/></g></g><g class="polarlayer"/><g class="smithlayer"/><g class="ternarylayer"/><g class="geolayer"/><g class="funnelarealayer"/><g class="pielayer"/><g class="iciclelayer"/><g class="treemaplayer"/><g class="sunburstlayer"/><g class="glimages"/><defs id="topdefs-f26cb8"><g class="clips"/></defs><g class="layer-above"><g class="imagelayer"/><g class="shapelayer"/></g><g class="infolayer"><g class="g-gtitle"><text class="gtitle" x="15" y="25" text-anchor="start" dy="0em" style="font-family: Ubuntu, verdana, arial, sans-serif; font-size: 16px; fill: rgb(233, 84, 32); opacity: 1; font-weight: normal; white-space: pre;">Premiér/ka 2023</text></g><g class="g-xtitle"/><g class="g-ytitle"/></g></svg>