<svg class="main-svg" xmlns="http://www.w3.org/2000/svg" xmlns:xlink="http://www.w3.org/1999/xlink" width="300" height="135" style="" viewBox="0 0 300 135"><rect x="0" y="0" width="300" height="135" style="fill: rgb(255, 255, 255); fill-opacity: 1;"/><defs id="defs-f6a3c0"><g class="clips"><clipPath id="clipf6a3c0xyplot" class="plotclip"><rect width="280" height="75"/></clipPath><clipPath class="axesclip" id="clipf6a3c0x"><rect x="10" y="0" width="280" height="135"/></clipPath><clipPath class="axesclip" id="clipf6a3c0y"><rect x="0" y="50" width="300" height="75"/></clipPath><clipPath class="axesclip" id="clipf6a3c0xy"><rect x="10" y="50" width="280" height="75"/></clipPath></g><g class="gradients"/><g class="patterns"/></defs><g class="bglayer"/><g class="layer-below"><g class="imagelayer"/><g class="shapelayer"/></g><g class="cartesianlayer"><g class="subplot xy"><g class="layer-subplot"><g class="shapelayer"/><g class="imagelayer"/></g><g class="minor-gridlayer"><g class="x"/><g class="y"/></g><g class="gridlayer"><g class="x"><path class="xgrid crisp" transform="translate(45.44,0)" d="M0,50v75" style="stroke: rgb(235, 240, 248); stroke-opacity: 1; stroke-width: 1px;"/><path class="xgrid crisp" transform="translate(151.77,0)" d="M0,50v75" style="stroke: rgb(235, 240, 248); stroke-opacity: 1; stroke-width: 1px;"/><path class="xgrid crisp" transform="translate(261.65,0)" d="M0,50v75" style="stroke: rgb(235, 240, 248); stroke-opacity: 1; stroke-width: 1px;"/></g><g class="y"><path class="ygrid crisp" transform="translate(0,107.84)" d="M10,0h280" style="stroke: rgb(235, 240, 248); stroke-opacity: 1; stroke-width: 1px;"/><path class="ygrid crisp" transform="translate(0,90.68)" d="M10,0h280" style="stroke: rgb(235, 240, 248); stroke-opacity: 1; stroke-width: 1px;"/><path class="ygrid crisp" transform="translate(0,73.52)" d="M10,0h280" style="stroke: rgb(235, 240, 248); stroke-opacity: 1; stroke-width: 1px;"/><path class="ygrid crisp" transform="translate(0,56.36)" d="M10,0h280" style="stroke: rgb(235, 240, 248); stroke-opacity: 1; stroke-width: 1px;"/></g></g><g class="zerolinelayer"><path class="yzl zl crisp" transform="translate(0,125)" d="M10,0h280" style="stroke: rgb(235, 240, 248); stroke-opacity: 1; stroke-width: 2px;"/></g><path class="xlines-below"/><path class="ylines-below"/><g class="overlines-below"/><g class="xaxislayer-below"/><g class="yaxislayer-below"/><g class="overaxes-below"/><g class="plot" transform="translate(10,50)" clip-path="url(#clipf6a3c0xyplot)"><g class="scatterlayer mlayer"><g class="trace scatter trace9f255c" style="stroke-miterlimit: 2; opacity: 1;"><g class="fills"/><g class="errorbars"/><g class="lines"><path class="js-line" d="M0,10.2L3.54,11.7L7.09,10.92L14.18,10.63L17.72,10.63L21.27,11.44L24.81,10.63L38.99,10.86L42.53,13.05L70.89,15.15L74.43,15.15L95.7,14.23L99.24,17.37L102.78,17.1L106.33,18.88L131.14,18.28L134.68,20.05L138.23,21.65L141.77,21.76L184.3,22.54L187.85,20.13L194.94,18.86L198.48,18.36L216.2,17.52L219.75,16.83L230.38,17.34L233.92,16.83L258.73,15.8L262.28,13.69L269.37,13.69L272.91,8.82L280,5.67" style="vector-effect: none; fill: none; stroke: rgb(238, 58, 67); stroke-opacity: 1; stroke-width: 5px; opacity: 1;"/></g><g class="points"/><g class="text"/></g><g class="trace scatter traceae852a" style="stroke-miterlimit: 2; opacity: 1;"><g class="fills"/><g class="errorbars"/><g class="lines"><path class="js-line" d="M0,39.45L3.54,37.95L7.09,34.91L10.63,32.83L14.18,26.06L17.72,26.06L21.27,27.91L24.81,26.06L28.35,26.06L38.99,25.62L42.53,19.64L46.08,17.01L49.62,18.37L56.71,16.59L60.25,16.26L63.8,17.22L67.34,16.26L95.7,16.63L99.24,14.94L102.78,14.19L106.33,11.89L134.68,12.3L138.23,14.45L152.41,16.18L155.95,16.18L163.04,16.97L166.58,16.97L180.76,17.97L184.3,18.74L216.2,18.36L219.75,17.34L230.38,18.37L233.92,18.89L269.37,19L272.91,20.93L280,20.6" style="vector-effect: none; fill: none; stroke: rgb(0, 180, 219); stroke-opacity: 1; stroke-width: 5px; opacity: 1;"/></g><g class="points"/><g class="text"/></g><g class="trace scatter tracef44dba" style="stroke-miterlimit: 2; opacity: 1;"><g class="fills"/><g class="errorbars"/><g class="lines"><path class="js-line" d="M0,3.75L3.54,3.75L7.09,7.57L10.63,10.29L14.18,16.71L17.72,16.71L21.27,14.06L24.81,16.71L28.35,16.71L38.99,16.92L42.53,20.71L46.08,22.99L49.62,21.47L60.25,21.99L63.8,21.34L70.89,21.99L74.43,21.99L95.7,22.54L99.24,21.09L106.33,22.63L109.87,22.63L127.59,22.63L131.14,23.92L138.23,17.3L141.77,16.57L163.04,14.14L166.58,14.14L173.67,13.49L177.22,12.84L184.3,12.12L187.85,14.63L194.94,15.68L198.48,16.18L212.66,16.18L216.2,17.52L223.29,20.6L226.84,20.6L269.37,20.71L272.91,23.66L280,27.12" style="vector-effect: none; fill: none; stroke: rgb(138, 44, 81); stroke-opacity: 1; stroke-width: 5px; opacity: 1;"/></g><g class="points"/><g class="text"/></g></g></g><g class="overplot"/><path class="xlines-above crisp" d="M0,0" style="fill: none;"/><path class="ylines-above crisp" d="M0,0" style="fill: none;"/><g class="overlines-above"/><g class="xaxislayer-above"/><g class="yaxislayer-above"/><g class="overaxes-above"/></g></g><g class="polarlayer"/><g class="smithlayer"/><g class="ternarylayer"/><g class="geolayer"/><g class="funnelarealayer"/><g class="pielayer"/><g class="iciclelayer"/><g class="treemaplayer"/><g class="sunburstlayer"/><g class="glimages"/><defs id="topdefs-f6a3c0"><g class="clips"/></defs><g class="layer-above"><g class="imagelayer"/><g class="shapelayer"/></g><g class="infolayer"><g class="g-gtitle"><text class="gtitle" x="15" y="25" text-anchor="start" dy="0em" style="font-family: Ubuntu, verdana, arial, sans-serif; font-size: 16px; fill: rgb(233, 84, 32); opacity: 1; font-weight: normal; white-space: pre;">Premiér/ka 2023</text></g><g class="g-xtitle"/><g class="g-ytitle"/></g></svg>