<svg class="main-svg" xmlns="http://www.w3.org/2000/svg" xmlns:xlink="http://www.w3.org/1999/xlink" width="300" height="135" style="" viewBox="0 0 300 135"><rect x="0" y="0" width="300" height="135" style="fill: rgb(255, 255, 255); fill-opacity: 1;"/><defs id="defs-78fa53"><g class="clips"><clipPath id="clip78fa53xyplot" class="plotclip"><rect width="280" height="75"/></clipPath><clipPath class="axesclip" id="clip78fa53x"><rect x="10" y="0" width="280" height="135"/></clipPath><clipPath class="axesclip" id="clip78fa53y"><rect x="0" y="50" width="300" height="75"/></clipPath><clipPath class="axesclip" id="clip78fa53xy"><rect x="10" y="50" width="280" height="75"/></clipPath></g><g class="gradients"/><g class="patterns"/></defs><g class="bglayer"/><g class="layer-below"><g class="imagelayer"/><g class="shapelayer"/></g><g class="cartesianlayer"><g class="subplot xy"><g class="layer-subplot"><g class="shapelayer"/><g class="imagelayer"/></g><g class="minor-gridlayer"><g class="x"/><g class="y"/></g><g class="gridlayer"><g class="x"><path class="xgrid crisp" transform="translate(33.33,0)" d="M0,50v75" style="stroke: rgb(235, 240, 248); stroke-opacity: 1; stroke-width: 1px;"/><path class="xgrid crisp" transform="translate(103.33,0)" d="M0,50v75" style="stroke: rgb(235, 240, 248); stroke-opacity: 1; stroke-width: 1px;"/><path class="xgrid crisp" transform="translate(175.67,0)" d="M0,50v75" style="stroke: rgb(235, 240, 248); stroke-opacity: 1; stroke-width: 1px;"/><path class="xgrid crisp" transform="translate(248,0)" d="M0,50v75" style="stroke: rgb(235, 240, 248); stroke-opacity: 1; stroke-width: 1px;"/></g><g class="y"><path class="ygrid crisp" transform="translate(0,108.99000000000001)" d="M10,0h280" style="stroke: rgb(235, 240, 248); stroke-opacity: 1; stroke-width: 1px;"/><path class="ygrid crisp" transform="translate(0,92.97999999999999)" d="M10,0h280" style="stroke: rgb(235, 240, 248); stroke-opacity: 1; stroke-width: 1px;"/><path class="ygrid crisp" transform="translate(0,76.97)" d="M10,0h280" style="stroke: rgb(235, 240, 248); stroke-opacity: 1; stroke-width: 1px;"/><path class="ygrid crisp" transform="translate(0,60.96)" d="M10,0h280" style="stroke: rgb(235, 240, 248); stroke-opacity: 1; stroke-width: 1px;"/></g></g><g class="zerolinelayer"><path class="yzl zl crisp" transform="translate(0,125)" d="M10,0h280" style="stroke: rgb(235, 240, 248); stroke-opacity: 1; stroke-width: 2px;"/></g><path class="xlines-below"/><path class="ylines-below"/><g class="overlines-below"/><g class="xaxislayer-below"/><g class="yaxislayer-below"/><g class="overaxes-below"/><g class="plot" transform="translate(10,50)" clip-path="url(#clip78fa53xyplot)"><g class="scatterlayer mlayer"><g class="trace scatter trace2c5c5a" style="stroke-miterlimit: 2; opacity: 1;"><g class="fills"/><g class="errorbars"/><g class="lines"><path class="js-line" d="M0,17.68L4.67,19.12L7,18.64L25.67,18.8L28,20.56L56,22.32L58.33,21.84L63,21.36L65.33,24.08L67.67,23.6L70,24.88L86.33,24.4L88.67,26.01L93.33,27.13L95.67,27.29L114.33,27.45L116.67,27.45L121.33,27.29L123.67,24.88L128.33,23.6L130.67,23.12L142.33,22.32L144.67,21.52L163.33,20.56L165.67,19.92L170.33,19.92L172.67,18.48L177.33,18.48L179.67,14L189,5.67L191.33,5.67L205.33,6.31L207.67,7.11L217,7.27L219.33,3.75L228.67,6.15L231,6.15L235.67,7.11L238,7.75L240.33,8.87L245,9.67L268.33,8.71L270.67,7.27L280,7.27" style="vector-effect: none; fill: none; stroke: rgb(238, 58, 67); stroke-opacity: 1; stroke-width: 5px; opacity: 1;"/></g><g class="points"/><g class="text"/></g><g class="trace scatter trace9503f2" style="stroke-miterlimit: 2; opacity: 1;"><g class="fills"/><g class="errorbars"/><g class="lines"><path class="js-line" d="M0,43.46L4.67,40.1L7,38.17L9.33,32.25L11.67,32.09L14,33.37L16.33,32.09L25.67,31.77L28,26.33L30.33,23.92L32.67,25.04L37.33,23.44L39.67,23.28L42,24.08L44.33,23.28L63,23.28L65.33,21.84L67.67,21.04L70,18.64L88.67,19.12L91,20.72L112,22.8L114.33,22.8L128.33,23.6L130.67,23.6L142.33,23.12L144.67,22L149.33,21.84L151.67,22.16L161,22.48L163.33,22.48L177.33,23.28L179.67,25.04L189,24.88L191.33,24.88L193.67,24.88L196,21.2L205.33,21.04L207.67,19.12L217,18.8L219.33,22.48L228.67,24.56L231,24.56L238,23.44L240.33,21.68L249.67,20.4L252,20.4L268.33,20.88L270.67,21.84L280,21.84" style="vector-effect: none; fill: none; stroke: rgb(0, 180, 219); stroke-opacity: 1; stroke-width: 5px; opacity: 1;"/></g><g class="points"/><g class="text"/></g><g class="trace scatter trace8ac141" style="stroke-miterlimit: 2; opacity: 1;"><g class="fills"/><g class="errorbars"/><g class="lines"><path class="js-line" d="M0,12.08L2.33,12.08L4.67,16.24L7,18.64L9.33,24.08L11.67,23.92L14,21.2L16.33,23.92L18.67,23.92L25.67,24.08L28,27.29L30.33,29.21L32.67,27.77L39.67,28.25L42,27.61L49,28.25L51.33,28.25L63,28.73L65.33,27.29L70,28.25L72.33,28.25L84,28.09L86.33,29.37L91,23.12L93.33,22.48L109.67,20.24L112,20.24L121.33,17.68L123.67,19.92L130.67,21.2L133,21.2L142.33,22.32L144.67,24.08L149.33,24.56L151.67,24.4L168,24.4L170.33,24.4L177.33,25.04L179.67,27.45L189,34.33L191.33,34.33L193.67,34.33L196,37.37L205.33,37.69L207.67,38.65L219.33,38.49L226.33,34.17L240.33,34.33L245,34.97L280,35.77" style="vector-effect: none; fill: none; stroke: rgb(138, 44, 81); stroke-opacity: 1; stroke-width: 5px; opacity: 1;"/></g><g class="points"/><g class="text"/></g><g class="trace scatter trace2b49e4" style="stroke-miterlimit: 2; opacity: 1;"><g class="fills"/><g class="errorbars"/><g class="lines"><path class="js-line" d="M0,66.67L2.33,66.67L4.67,64.59L11.67,65.23L14,66.35L18.67,65.23L21,65.23L56,66.19L58.33,66.51L67.67,67.15L70,68.12L107.33,69.08L109.67,69.4L114.33,70.36L116.67,71L142.33,72.12L144.67,72.28L179.67,73.4" style="vector-effect: none; fill: none; stroke: rgb(1, 27, 58); stroke-opacity: 1; stroke-width: 5px; opacity: 1;"/></g><g class="points"/><g class="text"/></g></g></g><g class="overplot"/><path class="xlines-above crisp" d="M0,0" style="fill: none;"/><path class="ylines-above crisp" d="M0,0" style="fill: none;"/><g class="overlines-above"/><g class="xaxislayer-above"/><g class="yaxislayer-above"/><g class="overaxes-above"/></g></g><g class="polarlayer"/><g class="smithlayer"/><g class="ternarylayer"/><g class="geolayer"/><g class="funnelarealayer"/><g class="pielayer"/><g class="iciclelayer"/><g class="treemaplayer"/><g class="sunburstlayer"/><g class="glimages"/><defs id="topdefs-78fa53"><g class="clips"/></defs><g class="layer-above"><g class="imagelayer"/><g class="shapelayer"/></g><g class="infolayer"><g class="g-gtitle"><text class="gtitle" x="15" y="25" text-anchor="start" dy="0em" style="font-family: Ubuntu, verdana, arial, sans-serif; font-size: 16px; fill: rgb(233, 84, 32); opacity: 1; font-weight: normal; white-space: pre;">Premiér/ka 2023</text></g><g class="g-xtitle"/><g class="g-ytitle"/></g></svg>