<svg class="main-svg" xmlns="http://www.w3.org/2000/svg" xmlns:xlink="http://www.w3.org/1999/xlink" width="300" height="135" style="" viewBox="0 0 300 135"><rect x="0" y="0" width="300" height="135" style="fill: rgb(255, 255, 255); fill-opacity: 1;"/><defs id="defs-20a2f4"><g class="clips"><clipPath id="clip20a2f4xyplot" class="plotclip"><rect width="280" height="75"/></clipPath><clipPath class="axesclip" id="clip20a2f4x"><rect x="10" y="0" width="280" height="135"/></clipPath><clipPath class="axesclip" id="clip20a2f4y"><rect x="0" y="50" width="300" height="75"/></clipPath><clipPath class="axesclip" id="clip20a2f4xy"><rect x="10" y="50" width="280" height="75"/></clipPath></g><g class="gradients"/><g class="patterns"/></defs><g class="bglayer"/><g class="layer-below"><g class="imagelayer"/><g class="shapelayer"/></g><g class="cartesianlayer"><g class="subplot xy"><g class="layer-subplot"><g class="shapelayer"/><g class="imagelayer"/></g><g class="minor-gridlayer"><g class="x"/><g class="y"/></g><g class="gridlayer"><g class="x"><path class="xgrid crisp" transform="translate(36.17,0)" d="M0,50v75" style="stroke: rgb(235, 240, 248); stroke-opacity: 1; stroke-width: 1px;"/><path class="xgrid crisp" transform="translate(114.67,0)" d="M0,50v75" style="stroke: rgb(235, 240, 248); stroke-opacity: 1; stroke-width: 1px;"/><path class="xgrid crisp" transform="translate(195.79,0)" d="M0,50v75" style="stroke: rgb(235, 240, 248); stroke-opacity: 1; stroke-width: 1px;"/><path class="xgrid crisp" transform="translate(276.92,0)" d="M0,50v75" style="stroke: rgb(235, 240, 248); stroke-opacity: 1; stroke-width: 1px;"/></g><g class="y"><path class="ygrid crisp" transform="translate(0,108.99000000000001)" d="M10,0h280" style="stroke: rgb(235, 240, 248); stroke-opacity: 1; stroke-width: 1px;"/><path class="ygrid crisp" transform="translate(0,92.97999999999999)" d="M10,0h280" style="stroke: rgb(235, 240, 248); stroke-opacity: 1; stroke-width: 1px;"/><path class="ygrid crisp" transform="translate(0,76.97)" d="M10,0h280" style="stroke: rgb(235, 240, 248); stroke-opacity: 1; stroke-width: 1px;"/><path class="ygrid crisp" transform="translate(0,60.96)" d="M10,0h280" style="stroke: rgb(235, 240, 248); stroke-opacity: 1; stroke-width: 1px;"/></g></g><g class="zerolinelayer"><path class="yzl zl crisp" transform="translate(0,125)" d="M10,0h280" style="stroke: rgb(235, 240, 248); stroke-opacity: 1; stroke-width: 2px;"/></g><path class="xlines-below"/><path class="ylines-below"/><g class="overlines-below"/><g class="xaxislayer-below"/><g class="yaxislayer-below"/><g class="overaxes-below"/><g class="plot" transform="translate(10,50)" clip-path="url(#clip20a2f4xyplot)"><g class="scatterlayer mlayer"><g class="trace scatter trace3e021a" style="stroke-miterlimit: 2; opacity: 1;"><g class="fills"/><g class="errorbars"/><g class="lines"><path class="js-line" d="M0,17.68L5.23,19.12L7.85,18.64L28.79,18.8L31.4,20.56L62.8,22.32L65.42,21.84L70.65,21.36L73.27,24.08L75.89,23.6L78.5,24.88L96.82,24.4L99.44,26.01L104.67,27.13L107.29,27.29L128.22,27.45L130.84,27.45L136.07,27.29L138.69,24.88L143.93,23.6L146.54,23.12L159.63,22.32L162.24,21.52L183.18,20.56L185.79,19.92L191.03,19.92L193.64,18.48L198.88,18.48L201.5,14L211.96,5.67L214.58,5.67L230.28,6.31L232.9,7.11L243.36,7.27L245.98,3.75L256.45,6.15L259.07,6.15L264.3,7.11L266.92,7.75L269.53,8.87L274.77,9.67L280,9.67" style="vector-effect: none; fill: none; stroke: rgb(238, 58, 67); stroke-opacity: 1; stroke-width: 5px; opacity: 1;"/></g><g class="points"/><g class="text"/></g><g class="trace scatter trace81ca79" style="stroke-miterlimit: 2; opacity: 1;"><g class="fills"/><g class="errorbars"/><g class="lines"><path class="js-line" d="M0,43.46L5.23,40.1L7.85,38.17L10.47,32.25L13.08,32.09L15.7,33.37L18.32,32.09L28.79,31.77L31.4,26.33L34.02,23.92L36.64,25.04L41.87,23.44L44.49,23.28L47.1,24.08L49.72,23.28L70.65,23.28L73.27,21.84L75.89,21.04L78.5,18.64L99.44,19.12L102.06,20.72L125.61,22.8L128.22,22.8L143.93,23.6L146.54,23.6L159.63,23.12L162.24,22L167.48,21.84L170.09,22.16L180.56,22.48L183.18,22.48L198.88,23.28L201.5,25.04L211.96,24.88L214.58,24.88L217.2,24.88L219.81,21.2L230.28,21.04L232.9,19.12L243.36,18.8L245.98,22.48L256.45,24.56L259.07,24.56L266.92,23.44L269.53,21.68L280,20.4" style="vector-effect: none; fill: none; stroke: rgb(0, 180, 219); stroke-opacity: 1; stroke-width: 5px; opacity: 1;"/></g><g class="points"/><g class="text"/></g><g class="trace scatter trace8b147b" style="stroke-miterlimit: 2; opacity: 1;"><g class="fills"/><g class="errorbars"/><g class="lines"><path class="js-line" d="M0,12.08L2.62,12.08L5.23,16.24L7.85,18.64L10.47,24.08L13.08,23.92L15.7,21.2L18.32,23.92L20.93,23.92L28.79,24.08L31.4,27.29L34.02,29.21L36.64,27.77L44.49,28.25L47.1,27.61L54.95,28.25L57.57,28.25L70.65,28.73L73.27,27.29L78.5,28.25L81.12,28.25L94.21,28.09L96.82,29.37L102.06,23.12L104.67,22.48L122.99,20.24L125.61,20.24L136.07,17.68L138.69,19.92L146.54,21.2L149.16,21.2L159.63,22.32L162.24,24.08L167.48,24.56L170.09,24.4L188.41,24.4L191.03,24.4L198.88,25.04L201.5,27.45L211.96,34.33L214.58,34.33L217.2,34.33L219.81,37.37L230.28,37.69L232.9,38.65L245.98,38.49L253.83,34.17L269.53,34.33L274.77,34.97L280,34.97" style="vector-effect: none; fill: none; stroke: rgb(138, 44, 81); stroke-opacity: 1; stroke-width: 5px; opacity: 1;"/></g><g class="points"/><g class="text"/></g><g class="trace scatter trace98627c" style="stroke-miterlimit: 2; opacity: 1;"><g class="fills"/><g class="errorbars"/><g class="lines"><path class="js-line" d="M0,66.67L2.62,66.67L5.23,64.59L13.08,65.23L15.7,66.35L20.93,65.23L23.55,65.23L62.8,66.19L65.42,66.51L75.89,67.15L78.5,68.12L120.37,69.08L122.99,69.4L128.22,70.36L130.84,71L159.63,72.12L162.24,72.28L201.5,73.4" style="vector-effect: none; fill: none; stroke: rgb(1, 27, 58); stroke-opacity: 1; stroke-width: 5px; opacity: 1;"/></g><g class="points"/><g class="text"/></g></g></g><g class="overplot"/><path class="xlines-above crisp" d="M0,0" style="fill: none;"/><path class="ylines-above crisp" d="M0,0" style="fill: none;"/><g class="overlines-above"/><g class="xaxislayer-above"/><g class="yaxislayer-above"/><g class="overaxes-above"/></g></g><g class="polarlayer"/><g class="smithlayer"/><g class="ternarylayer"/><g class="geolayer"/><g class="funnelarealayer"/><g class="pielayer"/><g class="iciclelayer"/><g class="treemaplayer"/><g class="sunburstlayer"/><g class="glimages"/><defs id="topdefs-20a2f4"><g class="clips"/></defs><g class="layer-above"><g class="imagelayer"/><g class="shapelayer"/></g><g class="infolayer"><g class="g-gtitle"><text class="gtitle" x="15" y="25" text-anchor="start" dy="0em" style="font-family: Ubuntu, verdana, arial, sans-serif; font-size: 16px; fill: rgb(233, 84, 32); opacity: 1; font-weight: normal; white-space: pre;">Premiér/ka 2023</text></g><g class="g-xtitle"/><g class="g-ytitle"/></g></svg>