<svg class="main-svg" xmlns="http://www.w3.org/2000/svg" xmlns:xlink="http://www.w3.org/1999/xlink" width="300" height="135" style="" viewBox="0 0 300 135"><rect x="0" y="0" width="300" height="135" style="fill: rgb(255, 255, 255); fill-opacity: 1;"/><defs id="defs-159835"><g class="clips"><clipPath id="clip159835xyplot" class="plotclip"><rect width="280" height="75"/></clipPath><clipPath class="axesclip" id="clip159835x"><rect x="10" y="0" width="280" height="135"/></clipPath><clipPath class="axesclip" id="clip159835y"><rect x="0" y="50" width="300" height="75"/></clipPath><clipPath class="axesclip" id="clip159835xy"><rect x="10" y="50" width="280" height="75"/></clipPath></g><g class="gradients"/><g class="patterns"/></defs><g class="bglayer"/><g class="layer-below"><g class="imagelayer"/><g class="shapelayer"/></g><g class="cartesianlayer"><g class="subplot xy"><g class="layer-subplot"><g class="shapelayer"/><g class="imagelayer"/></g><g class="minor-gridlayer"><g class="x"/><g class="y"/></g><g class="gridlayer"><g class="x"><path class="xgrid crisp" transform="translate(35.93,0)" d="M0,50v75" style="stroke: rgb(235, 240, 248); stroke-opacity: 1; stroke-width: 1px;"/><path class="xgrid crisp" transform="translate(113.7,0)" d="M0,50v75" style="stroke: rgb(235, 240, 248); stroke-opacity: 1; stroke-width: 1px;"/><path class="xgrid crisp" transform="translate(194.07,0)" d="M0,50v75" style="stroke: rgb(235, 240, 248); stroke-opacity: 1; stroke-width: 1px;"/><path class="xgrid crisp" transform="translate(274.44,0)" d="M0,50v75" style="stroke: rgb(235, 240, 248); stroke-opacity: 1; stroke-width: 1px;"/></g><g class="y"><path class="ygrid crisp" transform="translate(0,108.99000000000001)" d="M10,0h280" style="stroke: rgb(235, 240, 248); stroke-opacity: 1; stroke-width: 1px;"/><path class="ygrid crisp" transform="translate(0,92.97999999999999)" d="M10,0h280" style="stroke: rgb(235, 240, 248); stroke-opacity: 1; stroke-width: 1px;"/><path class="ygrid crisp" transform="translate(0,76.97)" d="M10,0h280" style="stroke: rgb(235, 240, 248); stroke-opacity: 1; stroke-width: 1px;"/><path class="ygrid crisp" transform="translate(0,60.96)" d="M10,0h280" style="stroke: rgb(235, 240, 248); stroke-opacity: 1; stroke-width: 1px;"/></g></g><g class="zerolinelayer"><path class="yzl zl crisp" transform="translate(0,125)" d="M10,0h280" style="stroke: rgb(235, 240, 248); stroke-opacity: 1; stroke-width: 2px;"/></g><path class="xlines-below"/><path class="ylines-below"/><g class="overlines-below"/><g class="xaxislayer-below"/><g class="yaxislayer-below"/><g class="overaxes-below"/><g class="plot" transform="translate(10,50)" clip-path="url(#clip159835xyplot)"><g class="scatterlayer mlayer"><g class="trace scatter trace6bbf0a" style="stroke-miterlimit: 2; opacity: 1;"><g class="fills"/><g class="errorbars"/><g class="lines"><path class="js-line" d="M0,17.68L5.19,19.12L7.78,18.64L28.52,18.8L31.11,20.56L62.22,22.32L64.81,21.84L70,21.36L72.59,24.08L75.19,23.6L77.78,24.88L95.93,24.4L98.52,26.01L103.7,27.13L106.3,27.29L127.04,27.45L129.63,27.45L134.81,27.29L137.41,24.88L142.59,23.6L145.19,23.12L158.15,22.32L160.74,21.52L181.48,20.56L184.07,19.92L189.26,19.92L191.85,18.48L197.04,18.48L199.63,14L210,5.67L212.59,5.67L228.15,6.31L230.74,7.11L241.11,7.27L243.7,3.75L254.07,6.15L256.67,6.15L261.85,7.11L264.44,7.75L267.04,8.87L272.22,9.67L280,9.67" style="vector-effect: none; fill: none; stroke: rgb(238, 58, 67); stroke-opacity: 1; stroke-width: 5px; opacity: 1;"/></g><g class="points"/><g class="text"/></g><g class="trace scatter traceef7d42" style="stroke-miterlimit: 2; opacity: 1;"><g class="fills"/><g class="errorbars"/><g class="lines"><path class="js-line" d="M0,43.46L5.19,40.1L7.78,38.17L10.37,32.25L12.96,32.09L15.56,33.37L18.15,32.09L28.52,31.77L31.11,26.33L33.7,23.92L36.3,25.04L41.48,23.44L44.07,23.28L46.67,24.08L49.26,23.28L70,23.28L72.59,21.84L75.19,21.04L77.78,18.64L98.52,19.12L101.11,20.72L124.44,22.8L127.04,22.8L142.59,23.6L145.19,23.6L158.15,23.12L160.74,22L165.93,21.84L168.52,22.16L178.89,22.48L181.48,22.48L197.04,23.28L199.63,25.04L210,24.88L212.59,24.88L215.19,24.88L217.78,21.2L228.15,21.04L230.74,19.12L241.11,18.8L243.7,22.48L254.07,24.56L256.67,24.56L264.44,23.44L267.04,21.68L277.41,20.4L280,20.4" style="vector-effect: none; fill: none; stroke: rgb(0, 180, 219); stroke-opacity: 1; stroke-width: 5px; opacity: 1;"/></g><g class="points"/><g class="text"/></g><g class="trace scatter trace25cd37" style="stroke-miterlimit: 2; opacity: 1;"><g class="fills"/><g class="errorbars"/><g class="lines"><path class="js-line" d="M0,12.08L2.59,12.08L5.19,16.24L7.78,18.64L10.37,24.08L12.96,23.92L15.56,21.2L18.15,23.92L20.74,23.92L28.52,24.08L31.11,27.29L33.7,29.21L36.3,27.77L44.07,28.25L46.67,27.61L54.44,28.25L57.04,28.25L70,28.73L72.59,27.29L77.78,28.25L80.37,28.25L93.33,28.09L95.93,29.37L101.11,23.12L103.7,22.48L121.85,20.24L124.44,20.24L134.81,17.68L137.41,19.92L145.19,21.2L147.78,21.2L158.15,22.32L160.74,24.08L165.93,24.56L168.52,24.4L186.67,24.4L189.26,24.4L197.04,25.04L199.63,27.45L210,34.33L212.59,34.33L215.19,34.33L217.78,37.37L228.15,37.69L230.74,38.65L243.7,38.49L251.48,34.17L267.04,34.33L272.22,34.97L280,34.97" style="vector-effect: none; fill: none; stroke: rgb(138, 44, 81); stroke-opacity: 1; stroke-width: 5px; opacity: 1;"/></g><g class="points"/><g class="text"/></g><g class="trace scatter trace6bfdc0" style="stroke-miterlimit: 2; opacity: 1;"><g class="fills"/><g class="errorbars"/><g class="lines"><path class="js-line" d="M0,66.67L2.59,66.67L5.19,64.59L12.96,65.23L15.56,66.35L20.74,65.23L23.33,65.23L62.22,66.19L64.81,66.51L75.19,67.15L77.78,68.12L119.26,69.08L121.85,69.4L127.04,70.36L129.63,71L158.15,72.12L160.74,72.28L199.63,73.4" style="vector-effect: none; fill: none; stroke: rgb(1, 27, 58); stroke-opacity: 1; stroke-width: 5px; opacity: 1;"/></g><g class="points"/><g class="text"/></g></g></g><g class="overplot"/><path class="xlines-above crisp" d="M0,0" style="fill: none;"/><path class="ylines-above crisp" d="M0,0" style="fill: none;"/><g class="overlines-above"/><g class="xaxislayer-above"/><g class="yaxislayer-above"/><g class="overaxes-above"/></g></g><g class="polarlayer"/><g class="smithlayer"/><g class="ternarylayer"/><g class="geolayer"/><g class="funnelarealayer"/><g class="pielayer"/><g class="iciclelayer"/><g class="treemaplayer"/><g class="sunburstlayer"/><g class="glimages"/><defs id="topdefs-159835"><g class="clips"/></defs><g class="layer-above"><g class="imagelayer"/><g class="shapelayer"/></g><g class="infolayer"><g class="g-gtitle"><text class="gtitle" x="15" y="25" text-anchor="start" dy="0em" style="font-family: Ubuntu, verdana, arial, sans-serif; font-size: 16px; fill: rgb(233, 84, 32); opacity: 1; font-weight: normal; white-space: pre;">Premiér/ka 2023</text></g><g class="g-xtitle"/><g class="g-ytitle"/></g></svg>