<svg class="main-svg" xmlns="http://www.w3.org/2000/svg" xmlns:xlink="http://www.w3.org/1999/xlink" width="300" height="135" style="" viewBox="0 0 300 135"><rect x="0" y="0" width="300" height="135" style="fill: rgb(255, 255, 255); fill-opacity: 1;"/><defs id="defs-c92c82"><g class="clips"><clipPath id="clipc92c82xyplot" class="plotclip"><rect width="280" height="75"/></clipPath><clipPath class="axesclip" id="clipc92c82x"><rect x="10" y="0" width="280" height="135"/></clipPath><clipPath class="axesclip" id="clipc92c82y"><rect x="0" y="50" width="300" height="75"/></clipPath><clipPath class="axesclip" id="clipc92c82xy"><rect x="10" y="50" width="280" height="75"/></clipPath></g><g class="gradients"/><g class="patterns"/></defs><g class="bglayer"/><g class="layer-below"><g class="imagelayer"/><g class="shapelayer"/></g><g class="cartesianlayer"><g class="subplot xy"><g class="layer-subplot"><g class="shapelayer"/><g class="imagelayer"/></g><g class="minor-gridlayer"><g class="x"/><g class="y"/></g><g class="gridlayer"><g class="x"><path class="xgrid crisp" transform="translate(42.56,0)" d="M0,50v75" style="stroke: rgb(235, 240, 248); stroke-opacity: 1; stroke-width: 1px;"/><path class="xgrid crisp" transform="translate(140.23,0)" d="M0,50v75" style="stroke: rgb(235, 240, 248); stroke-opacity: 1; stroke-width: 1px;"/><path class="xgrid crisp" transform="translate(241.16,0)" d="M0,50v75" style="stroke: rgb(235, 240, 248); stroke-opacity: 1; stroke-width: 1px;"/></g><g class="y"><path class="ygrid crisp" transform="translate(0,108.47)" d="M10,0h280" style="stroke: rgb(235, 240, 248); stroke-opacity: 1; stroke-width: 1px;"/><path class="ygrid crisp" transform="translate(0,91.94)" d="M10,0h280" style="stroke: rgb(235, 240, 248); stroke-opacity: 1; stroke-width: 1px;"/><path class="ygrid crisp" transform="translate(0,75.41)" d="M10,0h280" style="stroke: rgb(235, 240, 248); stroke-opacity: 1; stroke-width: 1px;"/><path class="ygrid crisp" transform="translate(0,58.87)" d="M10,0h280" style="stroke: rgb(235, 240, 248); stroke-opacity: 1; stroke-width: 1px;"/></g></g><g class="zerolinelayer"><path class="yzl zl crisp" transform="translate(0,125)" d="M10,0h280" style="stroke: rgb(235, 240, 248); stroke-opacity: 1; stroke-width: 2px;"/></g><path class="xlines-below"/><path class="ylines-below"/><g class="overlines-below"/><g class="xaxislayer-below"/><g class="yaxislayer-below"/><g class="overaxes-below"/><g class="plot" transform="translate(10,50)" clip-path="url(#clipc92c82xyplot)"><g class="scatterlayer mlayer"><g class="trace scatter trace7eef44" style="stroke-miterlimit: 2; opacity: 1;"><g class="fills"/><g class="errorbars"/><g class="lines"><path class="js-line" d="M0,12.61L3.26,14L6.51,13.25L13.02,12.97L16.28,12.97L19.53,13.81L22.79,12.97L35.81,13.2L39.07,15.3L65.12,17.39L68.37,17.39L87.91,16.45L91.16,19.53L94.42,19.17L97.67,20.84L120.47,20.36L123.72,22.13L130.23,23.77L133.49,23.84L169.3,24.48L172.56,22.15L179.07,20.86L182.33,20.49L198.6,19.68L201.86,19.12L211.63,19.62L214.88,19.12L237.67,17.97L240.93,15.88L247.44,15.88L250.7,11.28L263.72,3.75L266.98,3.75L280,3.75" style="vector-effect: none; fill: none; stroke: rgb(238, 58, 67); stroke-opacity: 1; stroke-width: 5px; opacity: 1;"/></g><g class="points"/><g class="text"/></g><g class="trace scatter trace2037d7" style="stroke-miterlimit: 2; opacity: 1;"><g class="fills"/><g class="errorbars"/><g class="lines"><path class="js-line" d="M0,40.69L3.26,39.36L6.51,36.42L9.77,34.3L13.02,27.88L16.28,27.88L19.53,29.55L22.79,27.88L26.05,27.88L35.81,27.45L39.07,21.67L42.33,19.14L45.58,20.49L52.09,18.72L55.35,18.46L58.6,19.33L61.86,18.46L87.91,18.76L91.16,17.19L94.42,16.52L97.67,14.24L123.72,14.64L126.98,16.78L162.79,19.95L166.05,19.95L172.56,20.7L175.81,20.86L198.6,20.33L201.86,19.45L211.63,20.45L214.88,20.94L247.44,21L250.7,22.97L270.23,23.59L273.49,19.46L280,20.12" style="vector-effect: none; fill: none; stroke: rgb(0, 180, 219); stroke-opacity: 1; stroke-width: 5px; opacity: 1;"/></g><g class="points"/><g class="text"/></g><g class="trace scatter traceaa14ab" style="stroke-miterlimit: 2; opacity: 1;"><g class="fills"/><g class="errorbars"/><g class="lines"><path class="js-line" d="M0,6.38L3.26,6.32L6.51,10.02L9.77,12.69L13.02,18.84L16.28,18.84L19.53,16.33L22.79,18.84L26.05,18.84L35.81,19.05L39.07,22.71L42.33,24.91L45.58,23.34L55.35,23.84L58.6,23.31L68.37,23.84L71.63,23.84L87.91,24.48L91.16,22.97L97.67,24.61L100.93,24.61L120.47,25.81L123.72,22.92L126.98,19.36L130.23,18.76L149.77,16.36L153.02,16.36L166.05,15.16L169.3,14.41L175.81,17.96L179.07,17.96L188.84,18.39L192.09,18.39L195.35,18.39L198.6,19.68L205.12,22.76L208.37,22.76L247.44,22.81L250.7,25.44L263.72,33.18L266.98,33.18L270.23,33.18L273.49,36.05L280,35.82" style="vector-effect: none; fill: none; stroke: rgb(138, 44, 81); stroke-opacity: 1; stroke-width: 5px; opacity: 1;"/></g><g class="points"/><g class="text"/></g></g></g><g class="overplot"/><path class="xlines-above crisp" d="M0,0" style="fill: none;"/><path class="ylines-above crisp" d="M0,0" style="fill: none;"/><g class="overlines-above"/><g class="xaxislayer-above"/><g class="yaxislayer-above"/><g class="overaxes-above"/></g></g><g class="polarlayer"/><g class="smithlayer"/><g class="ternarylayer"/><g class="geolayer"/><g class="funnelarealayer"/><g class="pielayer"/><g class="iciclelayer"/><g class="treemaplayer"/><g class="sunburstlayer"/><g class="glimages"/><defs id="topdefs-c92c82"><g class="clips"/></defs><g class="layer-above"><g class="imagelayer"/><g class="shapelayer"/></g><g class="infolayer"><g class="g-gtitle"><text class="gtitle" x="15" y="25" text-anchor="start" dy="0em" style="font-family: Ubuntu, verdana, arial, sans-serif; font-size: 16px; fill: rgb(233, 84, 32); opacity: 1; font-weight: normal; white-space: pre;">Premiér/ka 2023</text></g><g class="g-xtitle"/><g class="g-ytitle"/></g></svg>