<svg class="main-svg" xmlns="http://www.w3.org/2000/svg" xmlns:xlink="http://www.w3.org/1999/xlink" width="300" height="135" style="" viewBox="0 0 300 135"><rect x="0" y="0" width="300" height="135" style="fill: rgb(255, 255, 255); fill-opacity: 1;"/><defs id="defs-07846e"><g class="clips"><clipPath id="clip07846exyplot" class="plotclip"><rect width="280" height="75"/></clipPath><clipPath class="axesclip" id="clip07846ex"><rect x="10" y="0" width="280" height="135"/></clipPath><clipPath class="axesclip" id="clip07846ey"><rect x="0" y="50" width="300" height="75"/></clipPath><clipPath class="axesclip" id="clip07846exy"><rect x="10" y="50" width="280" height="75"/></clipPath></g><g class="gradients"/><g class="patterns"/></defs><g class="bglayer"/><g class="layer-below"><g class="imagelayer"/><g class="shapelayer"/></g><g class="cartesianlayer"><g class="subplot xy"><g class="layer-subplot"><g class="shapelayer"/><g class="imagelayer"/></g><g class="minor-gridlayer"><g class="x"/><g class="y"/></g><g class="gridlayer"><g class="x"><path class="xgrid crisp" transform="translate(38.28,0)" d="M0,50v75" style="stroke: rgb(235, 240, 248); stroke-opacity: 1; stroke-width: 1px;"/><path class="xgrid crisp" transform="translate(123.13,0)" d="M0,50v75" style="stroke: rgb(235, 240, 248); stroke-opacity: 1; stroke-width: 1px;"/><path class="xgrid crisp" transform="translate(210.81,0)" d="M0,50v75" style="stroke: rgb(235, 240, 248); stroke-opacity: 1; stroke-width: 1px;"/></g><g class="y"><path class="ygrid crisp" transform="translate(0,108.99000000000001)" d="M10,0h280" style="stroke: rgb(235, 240, 248); stroke-opacity: 1; stroke-width: 1px;"/><path class="ygrid crisp" transform="translate(0,92.97999999999999)" d="M10,0h280" style="stroke: rgb(235, 240, 248); stroke-opacity: 1; stroke-width: 1px;"/><path class="ygrid crisp" transform="translate(0,76.97)" d="M10,0h280" style="stroke: rgb(235, 240, 248); stroke-opacity: 1; stroke-width: 1px;"/><path class="ygrid crisp" transform="translate(0,60.96)" d="M10,0h280" style="stroke: rgb(235, 240, 248); stroke-opacity: 1; stroke-width: 1px;"/></g></g><g class="zerolinelayer"><path class="yzl zl crisp" transform="translate(0,125)" d="M10,0h280" style="stroke: rgb(235, 240, 248); stroke-opacity: 1; stroke-width: 2px;"/></g><path class="xlines-below"/><path class="ylines-below"/><g class="overlines-below"/><g class="xaxislayer-below"/><g class="yaxislayer-below"/><g class="overaxes-below"/><g class="plot" transform="translate(10,50)" clip-path="url(#clip07846exyplot)"><g class="scatterlayer mlayer"><g class="trace scatter tracec46457" style="stroke-miterlimit: 2; opacity: 1;"><g class="fills"/><g class="errorbars"/><g class="lines"><path class="js-line" d="M0,17.68L5.66,19.12L8.48,18.64L31.11,18.8L33.94,20.56L67.88,22.32L70.71,21.84L76.36,21.36L79.19,24.08L82.02,23.6L84.85,24.88L104.65,24.4L107.47,26.01L113.13,27.13L115.96,27.29L138.59,27.45L141.41,27.45L147.07,27.29L149.9,24.88L155.56,23.6L158.38,23.12L172.53,22.32L175.35,21.52L197.98,20.56L200.81,19.92L206.46,19.92L209.29,18.48L214.95,18.48L217.78,14L229.09,5.67L231.92,5.67L248.89,6.31L251.72,7.11L263.03,7.27L265.86,3.75L277.17,6.15L280,6.15" style="vector-effect: none; fill: none; stroke: rgb(238, 58, 67); stroke-opacity: 1; stroke-width: 5px; opacity: 1;"/></g><g class="points"/><g class="text"/></g><g class="trace scatter trace2ba264" style="stroke-miterlimit: 2; opacity: 1;"><g class="fills"/><g class="errorbars"/><g class="lines"><path class="js-line" d="M0,43.46L5.66,40.1L8.48,38.17L11.31,32.25L14.14,32.09L16.97,33.37L19.8,32.09L31.11,31.77L33.94,26.33L36.77,23.92L39.6,25.04L45.25,23.44L48.08,23.28L50.91,24.08L53.74,23.28L76.36,23.28L79.19,21.84L82.02,21.04L84.85,18.64L107.47,19.12L110.3,20.72L135.76,22.8L138.59,22.8L155.56,23.6L158.38,23.6L172.53,23.12L175.35,22L181.01,21.84L183.84,22.16L195.15,22.48L197.98,22.48L214.95,23.28L217.78,25.04L229.09,24.88L231.92,24.88L234.75,24.88L237.58,21.2L248.89,21.04L251.72,19.12L263.03,18.8L265.86,22.48L277.17,24.56L280,24.56" style="vector-effect: none; fill: none; stroke: rgb(0, 180, 219); stroke-opacity: 1; stroke-width: 5px; opacity: 1;"/></g><g class="points"/><g class="text"/></g><g class="trace scatter trace7ebbf0" style="stroke-miterlimit: 2; opacity: 1;"><g class="fills"/><g class="errorbars"/><g class="lines"><path class="js-line" d="M0,12.08L2.83,12.08L5.66,16.24L8.48,18.64L11.31,24.08L14.14,23.92L16.97,21.2L19.8,23.92L22.63,23.92L31.11,24.08L33.94,27.29L36.77,29.21L39.6,27.77L48.08,28.25L50.91,27.61L59.39,28.25L62.22,28.25L76.36,28.73L79.19,27.29L84.85,28.25L87.68,28.25L101.82,28.09L104.65,29.37L110.3,23.12L113.13,22.48L132.93,20.24L135.76,20.24L147.07,17.68L149.9,19.92L158.38,21.2L161.21,21.2L172.53,22.32L175.35,24.08L181.01,24.56L183.84,24.4L203.64,24.4L206.46,24.4L214.95,25.04L217.78,27.45L229.09,34.33L231.92,34.33L234.75,34.33L237.58,37.37L248.89,37.69L251.72,38.65L265.86,38.49L274.34,34.17L280,34.17" style="vector-effect: none; fill: none; stroke: rgb(138, 44, 81); stroke-opacity: 1; stroke-width: 5px; opacity: 1;"/></g><g class="points"/><g class="text"/></g><g class="trace scatter trace86ecb7" style="stroke-miterlimit: 2; opacity: 1;"><g class="fills"/><g class="errorbars"/><g class="lines"><path class="js-line" d="M0,66.67L2.83,66.67L5.66,64.59L14.14,65.23L16.97,66.35L22.63,65.23L25.45,65.23L67.88,66.19L70.71,66.51L82.02,67.15L84.85,68.12L130.1,69.08L132.93,69.4L138.59,70.36L141.41,71L172.53,72.12L175.35,72.28L217.78,73.4" style="vector-effect: none; fill: none; stroke: rgb(1, 27, 58); stroke-opacity: 1; stroke-width: 5px; opacity: 1;"/></g><g class="points"/><g class="text"/></g></g></g><g class="overplot"/><path class="xlines-above crisp" d="M0,0" style="fill: none;"/><path class="ylines-above crisp" d="M0,0" style="fill: none;"/><g class="overlines-above"/><g class="xaxislayer-above"/><g class="yaxislayer-above"/><g class="overaxes-above"/></g></g><g class="polarlayer"/><g class="smithlayer"/><g class="ternarylayer"/><g class="geolayer"/><g class="funnelarealayer"/><g class="pielayer"/><g class="iciclelayer"/><g class="treemaplayer"/><g class="sunburstlayer"/><g class="glimages"/><defs id="topdefs-07846e"><g class="clips"/></defs><g class="layer-above"><g class="imagelayer"/><g class="shapelayer"/></g><g class="infolayer"><g class="g-gtitle"><text class="gtitle" x="15" y="25" text-anchor="start" dy="0em" style="font-family: Ubuntu, verdana, arial, sans-serif; font-size: 16px; fill: rgb(233, 84, 32); opacity: 1; font-weight: normal; white-space: pre;">Premiér/ka 2023</text></g><g class="g-xtitle"/><g class="g-ytitle"/></g></svg>