<svg class="main-svg" xmlns="http://www.w3.org/2000/svg" xmlns:xlink="http://www.w3.org/1999/xlink" width="300" height="135" style="" viewBox="0 0 300 135"><rect x="0" y="0" width="300" height="135" style="fill: rgb(255, 255, 255); fill-opacity: 1;"/><defs id="defs-38b28d"><g class="clips"><clipPath id="clip38b28dxyplot" class="plotclip"><rect width="280" height="75"/></clipPath><clipPath class="axesclip" id="clip38b28dx"><rect x="10" y="0" width="280" height="135"/></clipPath><clipPath class="axesclip" id="clip38b28dy"><rect x="0" y="50" width="300" height="75"/></clipPath><clipPath class="axesclip" id="clip38b28dxy"><rect x="10" y="50" width="280" height="75"/></clipPath></g><g class="gradients"/><g class="patterns"/></defs><g class="bglayer"/><g class="layer-below"><g class="imagelayer"/><g class="shapelayer"/></g><g class="cartesianlayer"><g class="subplot xy"><g class="layer-subplot"><g class="shapelayer"/><g class="imagelayer"/></g><g class="minor-gridlayer"><g class="x"/><g class="y"/></g><g class="gridlayer"><g class="x"><path class="xgrid crisp" transform="translate(37.45,0)" d="M0,50v75" style="stroke: rgb(235, 240, 248); stroke-opacity: 1; stroke-width: 1px;"/><path class="xgrid crisp" transform="translate(119.8,0)" d="M0,50v75" style="stroke: rgb(235, 240, 248); stroke-opacity: 1; stroke-width: 1px;"/><path class="xgrid crisp" transform="translate(204.9,0)" d="M0,50v75" style="stroke: rgb(235, 240, 248); stroke-opacity: 1; stroke-width: 1px;"/></g><g class="y"><path class="ygrid crisp" transform="translate(0,108.99000000000001)" d="M10,0h280" style="stroke: rgb(235, 240, 248); stroke-opacity: 1; stroke-width: 1px;"/><path class="ygrid crisp" transform="translate(0,92.97999999999999)" d="M10,0h280" style="stroke: rgb(235, 240, 248); stroke-opacity: 1; stroke-width: 1px;"/><path class="ygrid crisp" transform="translate(0,76.97)" d="M10,0h280" style="stroke: rgb(235, 240, 248); stroke-opacity: 1; stroke-width: 1px;"/><path class="ygrid crisp" transform="translate(0,60.96)" d="M10,0h280" style="stroke: rgb(235, 240, 248); stroke-opacity: 1; stroke-width: 1px;"/></g></g><g class="zerolinelayer"><path class="yzl zl crisp" transform="translate(0,125)" d="M10,0h280" style="stroke: rgb(235, 240, 248); stroke-opacity: 1; stroke-width: 2px;"/></g><path class="xlines-below"/><path class="ylines-below"/><g class="overlines-below"/><g class="xaxislayer-below"/><g class="yaxislayer-below"/><g class="overaxes-below"/><g class="plot" transform="translate(10,50)" clip-path="url(#clip38b28dxyplot)"><g class="scatterlayer mlayer"><g class="trace scatter trace7a2c77" style="stroke-miterlimit: 2; opacity: 1;"><g class="fills"/><g class="errorbars"/><g class="lines"><path class="js-line" d="M0,17.68L5.49,19.12L8.24,18.64L30.2,18.8L32.94,20.56L65.88,22.32L68.63,21.84L74.12,21.36L76.86,24.08L79.61,23.6L82.35,24.88L101.57,24.4L104.31,26.01L109.8,27.13L112.55,27.29L134.51,27.45L137.25,27.45L142.75,27.29L145.49,24.88L150.98,23.6L153.73,23.12L167.45,22.32L170.2,21.52L192.16,20.56L194.9,19.92L200.39,19.92L203.14,18.48L208.63,18.48L211.37,14L222.35,5.67L225.1,5.67L241.57,6.31L244.31,7.11L255.29,7.27L258.04,3.75L269.02,6.15L271.76,6.15L280,7.11" style="vector-effect: none; fill: none; stroke: rgb(238, 58, 67); stroke-opacity: 1; stroke-width: 5px; opacity: 1;"/></g><g class="points"/><g class="text"/></g><g class="trace scatter tracedd480c" style="stroke-miterlimit: 2; opacity: 1;"><g class="fills"/><g class="errorbars"/><g class="lines"><path class="js-line" d="M0,43.46L5.49,40.1L8.24,38.17L10.98,32.25L13.73,32.09L16.47,33.37L19.22,32.09L30.2,31.77L32.94,26.33L35.69,23.92L38.43,25.04L43.92,23.44L46.67,23.28L49.41,24.08L52.16,23.28L74.12,23.28L76.86,21.84L79.61,21.04L82.35,18.64L104.31,19.12L107.06,20.72L131.76,22.8L134.51,22.8L150.98,23.6L153.73,23.6L167.45,23.12L170.2,22L175.69,21.84L178.43,22.16L189.41,22.48L192.16,22.48L208.63,23.28L211.37,25.04L222.35,24.88L225.1,24.88L227.84,24.88L230.59,21.2L241.57,21.04L244.31,19.12L255.29,18.8L258.04,22.48L269.02,24.56L271.76,24.56L280,24.4" style="vector-effect: none; fill: none; stroke: rgb(0, 180, 219); stroke-opacity: 1; stroke-width: 5px; opacity: 1;"/></g><g class="points"/><g class="text"/></g><g class="trace scatter trace57827f" style="stroke-miterlimit: 2; opacity: 1;"><g class="fills"/><g class="errorbars"/><g class="lines"><path class="js-line" d="M0,12.08L2.75,12.08L5.49,16.24L8.24,18.64L10.98,24.08L13.73,23.92L16.47,21.2L19.22,23.92L21.96,23.92L30.2,24.08L32.94,27.29L35.69,29.21L38.43,27.77L46.67,28.25L49.41,27.61L57.65,28.25L60.39,28.25L74.12,28.73L76.86,27.29L82.35,28.25L85.1,28.25L98.82,28.09L101.57,29.37L107.06,23.12L109.8,22.48L129.02,20.24L131.76,20.24L142.75,17.68L145.49,19.92L153.73,21.2L156.47,21.2L167.45,22.32L170.2,24.08L175.69,24.56L178.43,24.4L197.65,24.4L200.39,24.4L208.63,25.04L211.37,27.45L222.35,34.33L225.1,34.33L227.84,34.33L230.59,37.37L241.57,37.69L244.31,38.65L258.04,38.49L266.27,34.17L280,33.53" style="vector-effect: none; fill: none; stroke: rgb(138, 44, 81); stroke-opacity: 1; stroke-width: 5px; opacity: 1;"/></g><g class="points"/><g class="text"/></g><g class="trace scatter traceec2daf" style="stroke-miterlimit: 2; opacity: 1;"><g class="fills"/><g class="errorbars"/><g class="lines"><path class="js-line" d="M0,66.67L2.75,66.67L5.49,64.59L13.73,65.23L16.47,66.35L21.96,65.23L24.71,65.23L65.88,66.19L68.63,66.51L79.61,67.15L82.35,68.12L126.27,69.08L129.02,69.4L134.51,70.36L137.25,71L167.45,72.12L170.2,72.28L211.37,73.4" style="vector-effect: none; fill: none; stroke: rgb(1, 27, 58); stroke-opacity: 1; stroke-width: 5px; opacity: 1;"/></g><g class="points"/><g class="text"/></g></g></g><g class="overplot"/><path class="xlines-above crisp" d="M0,0" style="fill: none;"/><path class="ylines-above crisp" d="M0,0" style="fill: none;"/><g class="overlines-above"/><g class="xaxislayer-above"/><g class="yaxislayer-above"/><g class="overaxes-above"/></g></g><g class="polarlayer"/><g class="smithlayer"/><g class="ternarylayer"/><g class="geolayer"/><g class="funnelarealayer"/><g class="pielayer"/><g class="iciclelayer"/><g class="treemaplayer"/><g class="sunburstlayer"/><g class="glimages"/><defs id="topdefs-38b28d"><g class="clips"/></defs><g class="layer-above"><g class="imagelayer"/><g class="shapelayer"/></g><g class="infolayer"><g class="g-gtitle"><text class="gtitle" x="15" y="25" text-anchor="start" dy="0em" style="font-family: Ubuntu, verdana, arial, sans-serif; font-size: 16px; fill: rgb(233, 84, 32); opacity: 1; font-weight: normal; white-space: pre;">Premiér/ka 2023</text></g><g class="g-xtitle"/><g class="g-ytitle"/></g></svg>