<svg class="main-svg" xmlns="http://www.w3.org/2000/svg" xmlns:xlink="http://www.w3.org/1999/xlink" width="300" height="135" style="" viewBox="0 0 300 135"><rect x="0" y="0" width="300" height="135" style="fill: rgb(255, 255, 255); fill-opacity: 1;"/><defs id="defs-fa633d"><g class="clips"><clipPath id="clipfa633dxyplot" class="plotclip"><rect width="280" height="75"/></clipPath><clipPath class="axesclip" id="clipfa633dx"><rect x="10" y="0" width="280" height="135"/></clipPath><clipPath class="axesclip" id="clipfa633dy"><rect x="0" y="50" width="300" height="75"/></clipPath><clipPath class="axesclip" id="clipfa633dxy"><rect x="10" y="50" width="280" height="75"/></clipPath></g><g class="gradients"/><g class="patterns"/></defs><g class="bglayer"/><g class="layer-below"><g class="imagelayer"/><g class="shapelayer"/></g><g class="cartesianlayer"><g class="subplot xy"><g class="layer-subplot"><g class="shapelayer"/><g class="imagelayer"/></g><g class="minor-gridlayer"><g class="x"/><g class="y"/></g><g class="gridlayer"><g class="x"><path class="xgrid crisp" transform="translate(76.18,0)" d="M0,50v75" style="stroke: rgb(235, 240, 248); stroke-opacity: 1; stroke-width: 1px;"/><path class="xgrid crisp" transform="translate(147.45,0)" d="M0,50v75" style="stroke: rgb(235, 240, 248); stroke-opacity: 1; stroke-width: 1px;"/><path class="xgrid crisp" transform="translate(218.73,0)" d="M0,50v75" style="stroke: rgb(235, 240, 248); stroke-opacity: 1; stroke-width: 1px;"/></g><g class="y"><path class="ygrid crisp" transform="translate(0,106.65)" d="M10,0h280" style="stroke: rgb(235, 240, 248); stroke-opacity: 1; stroke-width: 1px;"/><path class="ygrid crisp" transform="translate(0,88.28999999999999)" d="M10,0h280" style="stroke: rgb(235, 240, 248); stroke-opacity: 1; stroke-width: 1px;"/><path class="ygrid crisp" transform="translate(0,69.94)" d="M10,0h280" style="stroke: rgb(235, 240, 248); stroke-opacity: 1; stroke-width: 1px;"/><path class="ygrid crisp" transform="translate(0,51.59)" d="M10,0h280" style="stroke: rgb(235, 240, 248); stroke-opacity: 1; stroke-width: 1px;"/></g></g><g class="zerolinelayer"><path class="yzl zl crisp" transform="translate(0,125)" d="M10,0h280" style="stroke: rgb(235, 240, 248); stroke-opacity: 1; stroke-width: 2px;"/></g><path class="xlines-below"/><path class="ylines-below"/><g class="overlines-below"/><g class="xaxislayer-below"/><g class="yaxislayer-below"/><g class="overaxes-below"/><g class="plot" transform="translate(10,50)" clip-path="url(#clipfa633dxyplot)"><g class="scatterlayer mlayer"><g class="trace scatter trace32b1b6" style="stroke-miterlimit: 2; opacity: 1;"><g class="fills"/><g class="errorbars"/><g class="lines"><path class="js-line" d="M0,3.75L5.09,3.75L10.18,8.53L15.27,11.21L20.36,17.41L25.45,17.21L30.55,14.26L35.64,17.21L40.73,17.21L56,17.46L61.09,21.09L66.18,23.32L71.27,21.67L81.45,22.23L86.55,22.15L96.73,22.15L101.82,22.15L137.45,22.68L142.55,21.07L152.73,22.21L157.82,22.21L183.27,21.96L188.36,23.57L193.45,20.68L198.55,16.34L234.18,13.23L239.27,13.1L249.45,11.9L254.55,10.94L264.73,9.96L269.82,12.54L280,13.52" style="vector-effect: none; fill: none; stroke: rgb(138, 44, 81); stroke-opacity: 1; stroke-width: 5px; opacity: 1;"/></g><g class="points"/><g class="text"/></g><g class="trace scatter trace36e2d4" style="stroke-miterlimit: 2; opacity: 1;"><g class="fills"/><g class="errorbars"/><g class="lines"><path class="js-line" d="M0,10.27L5.09,11.7L10.18,11.71L25.45,11.15L30.55,11.49L50.91,11.15L56,11.43L61.09,13.5L66.18,13.71L106.91,15.44L112,15.44L137.45,14.39L142.55,17.47L147.64,17.08L152.73,18.39L188.36,17.89L193.45,19.8L203.64,20.97L208.73,21.09L259.64,21.04L264.73,20.83L274.91,16.82L280,16.82" style="vector-effect: none; fill: none; stroke: rgb(238, 58, 67); stroke-opacity: 1; stroke-width: 5px; opacity: 1;"/></g><g class="points"/><g class="text"/></g><g class="trace scatter trace23aeab" style="stroke-miterlimit: 2; opacity: 1;"><g class="fills"/><g class="errorbars"/><g class="lines"><path class="js-line" d="M0,39.38L10.18,35.5L15.27,33.43L20.36,26.71L25.45,26.54L30.55,27.94L35.64,26.54L56,26.1L61.09,19.96L66.18,17.36L71.27,18.57L81.45,16.88L86.55,16.62L91.64,17.49L96.73,16.62L137.45,16.59L142.55,15.08L147.64,14.17L152.73,11.45L193.45,12.06L198.55,13.64L234.18,16.09L239.27,15.98L280,16.82" style="vector-effect: none; fill: none; stroke: rgb(0, 180, 219); stroke-opacity: 1; stroke-width: 5px; opacity: 1;"/></g><g class="points"/><g class="text"/></g><g class="trace scatter trace3c6661" style="stroke-miterlimit: 2; opacity: 1;"><g class="fills"/><g class="errorbars"/><g class="lines"><path class="js-line" d="M0,65.46L5.09,65.46L10.18,63.1L25.45,64.03L30.55,65.23L40.73,64.03L45.82,64.03L122.18,64.93L127.27,65.52L147.64,66.26L152.73,67.19L213.82,68.34L218.91,68.35L244.36,68.72L249.45,69.77L274.91,71.51L280,71.51" style="vector-effect: none; fill: none; stroke: rgb(1, 27, 58); stroke-opacity: 1; stroke-width: 5px; opacity: 1;"/></g><g class="points"/><g class="text"/></g><g class="trace scatter trace744e17" style="stroke-miterlimit: 2; opacity: 1;"><g class="fills"/><g class="errorbars"/><g class="lines"><path class="js-line" d="M0,72.61L280,72.98" style="vector-effect: none; fill: none; stroke: rgb(97, 162, 41); stroke-opacity: 1; stroke-width: 5px; opacity: 1;"/></g><g class="points"/><g class="text"/></g></g></g><g class="overplot"/><path class="xlines-above crisp" d="M0,0" style="fill: none;"/><path class="ylines-above crisp" d="M0,0" style="fill: none;"/><g class="overlines-above"/><g class="xaxislayer-above"/><g class="yaxislayer-above"/><g class="overaxes-above"/></g></g><g class="polarlayer"/><g class="smithlayer"/><g class="ternarylayer"/><g class="geolayer"/><g class="funnelarealayer"/><g class="pielayer"/><g class="iciclelayer"/><g class="treemaplayer"/><g class="sunburstlayer"/><g class="glimages"/><defs id="topdefs-fa633d"><g class="clips"/></defs><g class="layer-above"><g class="imagelayer"/><g class="shapelayer"/></g><g class="infolayer"><g class="g-gtitle"><text class="gtitle" x="15" y="25" text-anchor="start" dy="0em" style="font-family: Ubuntu, verdana, arial, sans-serif; font-size: 16px; fill: rgb(233, 84, 32); opacity: 1; font-weight: normal; white-space: pre;">Premiér/ka 2023</text></g><g class="g-xtitle"/><g class="g-ytitle"/></g></svg>