<svg class="main-svg" xmlns="http://www.w3.org/2000/svg" xmlns:xlink="http://www.w3.org/1999/xlink" width="300" height="135" style="" viewBox="0 0 300 135"><rect x="0" y="0" width="300" height="135" style="fill: rgb(255, 255, 255); fill-opacity: 1;"/><defs id="defs-8d9646"><g class="clips"><clipPath id="clip8d9646xyplot" class="plotclip"><rect width="280" height="75"/></clipPath><clipPath class="axesclip" id="clip8d9646x"><rect x="10" y="0" width="280" height="135"/></clipPath><clipPath class="axesclip" id="clip8d9646y"><rect x="0" y="50" width="300" height="75"/></clipPath><clipPath class="axesclip" id="clip8d9646xy"><rect x="10" y="50" width="280" height="75"/></clipPath></g><g class="gradients"/><g class="patterns"/></defs><g class="bglayer"/><g class="layer-below"><g class="imagelayer"/><g class="shapelayer"/></g><g class="cartesianlayer"><g class="subplot xy"><g class="layer-subplot"><g class="shapelayer"/><g class="imagelayer"/></g><g class="minor-gridlayer"><g class="x"/><g class="y"/></g><g class="gridlayer"><g class="x"><path class="xgrid crisp" transform="translate(46.36,0)" d="M0,50v75" style="stroke: rgb(235, 240, 248); stroke-opacity: 1; stroke-width: 1px;"/><path class="xgrid crisp" transform="translate(155.45,0)" d="M0,50v75" style="stroke: rgb(235, 240, 248); stroke-opacity: 1; stroke-width: 1px;"/><path class="xgrid crisp" transform="translate(268.18,0)" d="M0,50v75" style="stroke: rgb(235, 240, 248); stroke-opacity: 1; stroke-width: 1px;"/></g><g class="y"><path class="ygrid crisp" transform="translate(0,106.89)" d="M10,0h280" style="stroke: rgb(235, 240, 248); stroke-opacity: 1; stroke-width: 1px;"/><path class="ygrid crisp" transform="translate(0,88.78)" d="M10,0h280" style="stroke: rgb(235, 240, 248); stroke-opacity: 1; stroke-width: 1px;"/><path class="ygrid crisp" transform="translate(0,70.67)" d="M10,0h280" style="stroke: rgb(235, 240, 248); stroke-opacity: 1; stroke-width: 1px;"/><path class="ygrid crisp" transform="translate(0,52.56)" d="M10,0h280" style="stroke: rgb(235, 240, 248); stroke-opacity: 1; stroke-width: 1px;"/></g></g><g class="zerolinelayer"><path class="yzl zl crisp" transform="translate(0,125)" d="M10,0h280" style="stroke: rgb(235, 240, 248); stroke-opacity: 1; stroke-width: 2px;"/></g><path class="xlines-below"/><path class="ylines-below"/><g class="overlines-below"/><g class="xaxislayer-below"/><g class="yaxislayer-below"/><g class="overaxes-below"/><g class="plot" transform="translate(10,50)" clip-path="url(#clip8d9646xyplot)"><g class="scatterlayer mlayer"><g class="trace scatter tracea9ab58" style="stroke-miterlimit: 2; opacity: 1;"><g class="fills"/><g class="errorbars"/><g class="lines"><path class="js-line" d="M0,10.21L3.64,11.68L7.27,11.74L18.18,11.23L21.82,11.51L36.36,11.23L40,11.45L47.27,13.79L50.91,13.74L61.82,15.33L65.45,15.01L80,15.33L83.64,15.33L98.18,14.25L101.82,17.38L105.45,16.78L109.09,18.3L134.55,17.72L138.18,19.54L145.45,20.91L149.09,21.08L189.09,20.93L192.73,18.25L196.36,16.91L200,16.91L210.91,16.33L214.55,16.33L221.82,15.52L225.45,14.51L236.36,15.06L240,14.51L265.45,13.43L269.09,11.07L276.36,11.07L280,6" style="vector-effect: none; fill: none; stroke: rgb(238, 58, 67); stroke-opacity: 1; stroke-width: 5px; opacity: 1;"/></g><g class="points"/><g class="text"/></g><g class="trace scatter trace6d6795" style="stroke-miterlimit: 2; opacity: 1;"><g class="fills"/><g class="errorbars"/><g class="lines"><path class="js-line" d="M0,39.33L7.27,35.47L10.91,33.44L14.55,26.63L18.18,26.47L21.82,27.93L25.45,26.47L40,26.01L43.64,19.96L47.27,17.28L50.91,18.47L58.18,16.77L61.82,16.46L65.45,17.41L69.09,16.46L98.18,16.69L101.82,14.91L105.45,13.97L109.09,11.3L138.18,11.76L141.82,13.54L167.27,16.07L170.91,15.95L221.82,16.23L225.45,15.06L236.36,16.14L240,16.69L276.36,16.69L280,18.5" style="vector-effect: none; fill: none; stroke: rgb(0, 180, 219); stroke-opacity: 1; stroke-width: 5px; opacity: 1;"/></g><g class="points"/><g class="text"/></g><g class="trace scatter tracedcb089" style="stroke-miterlimit: 2; opacity: 1;"><g class="fills"/><g class="errorbars"/><g class="lines"><path class="js-line" d="M0,3.81L3.64,3.75L7.27,8.55L10.91,11.21L14.55,17.4L18.18,17.2L21.82,14.16L25.45,17.2L29.09,17.2L40,17.4L43.64,21.04L47.27,23.17L50.91,21.46L58.18,22.07L61.82,22.11L65.45,21.42L69.09,22.11L98.18,22.54L101.82,21L109.09,22.14L112.73,22.14L130.91,21.89L134.55,23.35L141.82,16.3L145.45,15.73L163.64,13.14L167.27,13.14L178.18,11.99L181.82,11.12L189.09,10.19L192.73,12.65L203.64,14.22L207.27,14.22L218.18,14.22L221.82,15.52L229.09,18.5L232.73,18.5L276.36,18.5L280,21.21" style="vector-effect: none; fill: none; stroke: rgb(138, 44, 81); stroke-opacity: 1; stroke-width: 5px; opacity: 1;"/></g><g class="points"/><g class="text"/></g><g class="trace scatter trace751f56" style="stroke-miterlimit: 2; opacity: 1;"><g class="fills"/><g class="errorbars"/><g class="lines"><path class="js-line" d="M0,65.55L3.64,65.54L7.27,63.14L18.18,64.01L21.82,65.3L29.09,64.01L32.73,64.01L87.27,65L90.91,65.42L105.45,66.26L109.09,67.16L167.27,68.3L170.91,68.63L178.18,69.82L181.82,70.34L218.18,71.49L221.82,71.63L247.27,72.46L250.91,72.46L280,73.19" style="vector-effect: none; fill: none; stroke: rgb(1, 27, 58); stroke-opacity: 1; stroke-width: 5px; opacity: 1;"/></g><g class="points"/><g class="text"/></g></g></g><g class="overplot"/><path class="xlines-above crisp" d="M0,0" style="fill: none;"/><path class="ylines-above crisp" d="M0,0" style="fill: none;"/><g class="overlines-above"/><g class="xaxislayer-above"/><g class="yaxislayer-above"/><g class="overaxes-above"/></g></g><g class="polarlayer"/><g class="smithlayer"/><g class="ternarylayer"/><g class="geolayer"/><g class="funnelarealayer"/><g class="pielayer"/><g class="iciclelayer"/><g class="treemaplayer"/><g class="sunburstlayer"/><g class="glimages"/><defs id="topdefs-8d9646"><g class="clips"/></defs><g class="layer-above"><g class="imagelayer"/><g class="shapelayer"/></g><g class="infolayer"><g class="g-gtitle"><text class="gtitle" x="15" y="25" text-anchor="start" dy="0em" style="font-family: Ubuntu, verdana, arial, sans-serif; font-size: 16px; fill: rgb(233, 84, 32); opacity: 1; font-weight: normal; white-space: pre;">Premiér/ka 2023</text></g><g class="g-xtitle"/><g class="g-ytitle"/></g></svg>