<svg class="main-svg" xmlns="http://www.w3.org/2000/svg" xmlns:xlink="http://www.w3.org/1999/xlink" width="300" height="135" style="" viewBox="0 0 300 135"><rect x="0" y="0" width="300" height="135" style="fill: rgb(255, 255, 255); fill-opacity: 1;"/><defs id="defs-ea8ca3"><g class="clips"><clipPath id="clipea8ca3xyplot" class="plotclip"><rect width="280" height="75"/></clipPath><clipPath class="axesclip" id="clipea8ca3x"><rect x="10" y="0" width="280" height="135"/></clipPath><clipPath class="axesclip" id="clipea8ca3y"><rect x="0" y="50" width="300" height="75"/></clipPath><clipPath class="axesclip" id="clipea8ca3xy"><rect x="10" y="50" width="280" height="75"/></clipPath></g><g class="gradients"/><g class="patterns"/></defs><g class="bglayer"/><g class="layer-below"><g class="imagelayer"/><g class="shapelayer"/></g><g class="cartesianlayer"><g class="subplot xy"><g class="layer-subplot"><g class="shapelayer"/><g class="imagelayer"/></g><g class="minor-gridlayer"><g class="x"/><g class="y"/></g><g class="gridlayer"><g class="x"><path class="xgrid crisp" transform="translate(31.37,0)" d="M0,50v75" style="stroke: rgb(235, 240, 248); stroke-opacity: 1; stroke-width: 1px;"/><path class="xgrid crisp" transform="translate(95.5,0)" d="M0,50v75" style="stroke: rgb(235, 240, 248); stroke-opacity: 1; stroke-width: 1px;"/><path class="xgrid crisp" transform="translate(161.76,0)" d="M0,50v75" style="stroke: rgb(235, 240, 248); stroke-opacity: 1; stroke-width: 1px;"/><path class="xgrid crisp" transform="translate(228.02,0)" d="M0,50v75" style="stroke: rgb(235, 240, 248); stroke-opacity: 1; stroke-width: 1px;"/></g><g class="y"><path class="ygrid crisp" transform="translate(0,108.99000000000001)" d="M10,0h280" style="stroke: rgb(235, 240, 248); stroke-opacity: 1; stroke-width: 1px;"/><path class="ygrid crisp" transform="translate(0,92.97999999999999)" d="M10,0h280" style="stroke: rgb(235, 240, 248); stroke-opacity: 1; stroke-width: 1px;"/><path class="ygrid crisp" transform="translate(0,76.97)" d="M10,0h280" style="stroke: rgb(235, 240, 248); stroke-opacity: 1; stroke-width: 1px;"/><path class="ygrid crisp" transform="translate(0,60.96)" d="M10,0h280" style="stroke: rgb(235, 240, 248); stroke-opacity: 1; stroke-width: 1px;"/></g></g><g class="zerolinelayer"><path class="yzl zl crisp" transform="translate(0,125)" d="M10,0h280" style="stroke: rgb(235, 240, 248); stroke-opacity: 1; stroke-width: 2px;"/></g><path class="xlines-below"/><path class="ylines-below"/><g class="overlines-below"/><g class="xaxislayer-below"/><g class="yaxislayer-below"/><g class="overaxes-below"/><g class="plot" transform="translate(10,50)" clip-path="url(#clipea8ca3xyplot)"><g class="scatterlayer mlayer"><g class="trace scatter trace70cd0f" style="stroke-miterlimit: 2; opacity: 1;"><g class="fills"/><g class="errorbars"/><g class="lines"><path class="js-line" d="M0,17.68L4.27,19.12L6.41,18.64L23.51,18.8L25.65,20.56L51.3,22.32L53.44,21.84L57.71,21.36L59.85,24.08L61.98,23.6L64.12,24.88L79.08,24.4L81.22,26.01L85.5,27.13L87.63,27.29L104.73,27.45L106.87,27.45L111.15,27.29L113.28,24.88L117.56,23.6L119.69,23.12L130.38,22.32L132.52,21.52L149.62,20.56L151.76,19.92L156.03,19.92L158.17,18.48L162.44,18.48L164.58,14L173.13,5.67L175.27,5.67L188.09,6.31L190.23,7.11L198.78,7.27L200.92,3.75L209.47,6.15L211.6,6.15L215.88,7.11L218.02,7.75L220.15,8.87L224.43,9.67L245.8,8.71L247.94,7.27L256.49,6.79L258.63,3.91L267.18,4.39L269.31,4.39L271.45,5.35L273.59,9.19L280,5.83" style="vector-effect: none; fill: none; stroke: rgb(238, 58, 67); stroke-opacity: 1; stroke-width: 5px; opacity: 1;"/></g><g class="points"/><g class="text"/></g><g class="trace scatter traceb40a15" style="stroke-miterlimit: 2; opacity: 1;"><g class="fills"/><g class="errorbars"/><g class="lines"><path class="js-line" d="M0,43.46L4.27,40.1L6.41,38.17L8.55,32.25L10.69,32.09L12.82,33.37L14.96,32.09L23.51,31.77L25.65,26.33L27.79,23.92L29.92,25.04L34.2,23.44L36.34,23.28L38.47,24.08L40.61,23.28L57.71,23.28L59.85,21.84L61.98,21.04L64.12,18.64L81.22,19.12L83.36,20.72L102.6,22.8L104.73,22.8L117.56,23.6L119.69,23.6L130.38,23.12L132.52,22L136.79,21.84L138.93,22.16L147.48,22.48L149.62,22.48L162.44,23.28L164.58,25.04L173.13,24.88L175.27,24.88L177.4,24.88L179.54,21.2L188.09,21.04L190.23,19.12L198.78,18.8L200.92,22.48L209.47,24.56L211.6,24.56L218.02,23.44L220.15,21.68L228.7,20.4L230.84,20.4L245.8,20.88L247.94,21.84L256.49,22L258.63,23.28L269.31,24.08L271.45,22.96L273.59,21.36L275.73,23.44L280,23.76" style="vector-effect: none; fill: none; stroke: rgb(0, 180, 219); stroke-opacity: 1; stroke-width: 5px; opacity: 1;"/></g><g class="points"/><g class="text"/></g><g class="trace scatter traceccfec9" style="stroke-miterlimit: 2; opacity: 1;"><g class="fills"/><g class="errorbars"/><g class="lines"><path class="js-line" d="M0,12.08L2.14,12.08L4.27,16.24L6.41,18.64L8.55,24.08L10.69,23.92L12.82,21.2L14.96,23.92L17.1,23.92L23.51,24.08L25.65,27.29L27.79,29.21L29.92,27.77L36.34,28.25L38.47,27.61L44.89,28.25L47.02,28.25L57.71,28.73L59.85,27.29L64.12,28.25L66.26,28.25L76.95,28.09L79.08,29.37L85.5,22.48L87.63,22L100.46,20.24L102.6,20.24L111.15,17.68L113.28,19.92L119.69,21.2L121.83,21.2L130.38,22.32L132.52,24.08L136.79,24.56L138.93,24.4L153.89,24.4L156.03,24.4L162.44,25.04L164.58,27.45L173.13,34.33L175.27,34.33L177.4,34.33L179.54,37.37L188.09,37.69L190.23,38.65L200.92,38.49L207.33,34.17L220.15,34.33L224.43,34.97L256.49,36.09L258.63,37.69L269.31,36.57L271.45,36.41L275.73,33.69L277.86,34.81L280,35.29" style="vector-effect: none; fill: none; stroke: rgb(138, 44, 81); stroke-opacity: 1; stroke-width: 5px; opacity: 1;"/></g><g class="points"/><g class="text"/></g><g class="trace scatter trace3fe975" style="stroke-miterlimit: 2; opacity: 1;"><g class="fills"/><g class="errorbars"/><g class="lines"><path class="js-line" d="M0,66.67L2.14,66.67L4.27,64.59L10.69,65.23L12.82,66.35L17.1,65.23L19.24,65.23L51.3,66.19L53.44,66.51L61.98,67.15L64.12,68.12L98.32,69.08L100.46,69.4L104.73,70.36L106.87,71L130.38,72.12L132.52,72.28L164.58,73.4" style="vector-effect: none; fill: none; stroke: rgb(1, 27, 58); stroke-opacity: 1; stroke-width: 5px; opacity: 1;"/></g><g class="points"/><g class="text"/></g></g></g><g class="overplot"/><path class="xlines-above crisp" d="M0,0" style="fill: none;"/><path class="ylines-above crisp" d="M0,0" style="fill: none;"/><g class="overlines-above"/><g class="xaxislayer-above"/><g class="yaxislayer-above"/><g class="overaxes-above"/></g></g><g class="polarlayer"/><g class="smithlayer"/><g class="ternarylayer"/><g class="geolayer"/><g class="funnelarealayer"/><g class="pielayer"/><g class="iciclelayer"/><g class="treemaplayer"/><g class="sunburstlayer"/><g class="glimages"/><defs id="topdefs-ea8ca3"><g class="clips"/></defs><g class="layer-above"><g class="imagelayer"/><g class="shapelayer"/></g><g class="infolayer"><g class="g-gtitle"><text class="gtitle" x="15" y="25" text-anchor="start" dy="0em" style="font-family: Ubuntu, verdana, arial, sans-serif; font-size: 16px; fill: rgb(233, 84, 32); opacity: 1; font-weight: normal; white-space: pre;">Premiér/ka 2023</text></g><g class="g-xtitle"/><g class="g-ytitle"/></g></svg>