<svg class="main-svg" xmlns="http://www.w3.org/2000/svg" xmlns:xlink="http://www.w3.org/1999/xlink" width="300" height="135" style="" viewBox="0 0 300 135"><rect x="0" y="0" width="300" height="135" style="fill: rgb(255, 255, 255); fill-opacity: 1;"/><defs id="defs-0e0089"><g class="clips"><clipPath id="clip0e0089xyplot" class="plotclip"><rect width="280" height="75"/></clipPath><clipPath class="axesclip" id="clip0e0089x"><rect x="10" y="0" width="280" height="135"/></clipPath><clipPath class="axesclip" id="clip0e0089y"><rect x="0" y="50" width="300" height="75"/></clipPath><clipPath class="axesclip" id="clip0e0089xy"><rect x="10" y="50" width="280" height="75"/></clipPath></g><g class="gradients"/><g class="patterns"/></defs><g class="bglayer"/><g class="layer-below"><g class="imagelayer"/><g class="shapelayer"/></g><g class="cartesianlayer"><g class="subplot xy"><g class="layer-subplot"><g class="shapelayer"/><g class="imagelayer"/></g><g class="minor-gridlayer"><g class="x"/><g class="y"/></g><g class="gridlayer"><g class="x"><path class="xgrid crisp" transform="translate(31.71,0)" d="M0,50v75" style="stroke: rgb(235, 240, 248); stroke-opacity: 1; stroke-width: 1px;"/><path class="xgrid crisp" transform="translate(96.82,0)" d="M0,50v75" style="stroke: rgb(235, 240, 248); stroke-opacity: 1; stroke-width: 1px;"/><path class="xgrid crisp" transform="translate(164.11,0)" d="M0,50v75" style="stroke: rgb(235, 240, 248); stroke-opacity: 1; stroke-width: 1px;"/><path class="xgrid crisp" transform="translate(231.4,0)" d="M0,50v75" style="stroke: rgb(235, 240, 248); stroke-opacity: 1; stroke-width: 1px;"/></g><g class="y"><path class="ygrid crisp" transform="translate(0,108.99000000000001)" d="M10,0h280" style="stroke: rgb(235, 240, 248); stroke-opacity: 1; stroke-width: 1px;"/><path class="ygrid crisp" transform="translate(0,92.97999999999999)" d="M10,0h280" style="stroke: rgb(235, 240, 248); stroke-opacity: 1; stroke-width: 1px;"/><path class="ygrid crisp" transform="translate(0,76.97)" d="M10,0h280" style="stroke: rgb(235, 240, 248); stroke-opacity: 1; stroke-width: 1px;"/><path class="ygrid crisp" transform="translate(0,60.96)" d="M10,0h280" style="stroke: rgb(235, 240, 248); stroke-opacity: 1; stroke-width: 1px;"/></g></g><g class="zerolinelayer"><path class="yzl zl crisp" transform="translate(0,125)" d="M10,0h280" style="stroke: rgb(235, 240, 248); stroke-opacity: 1; stroke-width: 2px;"/></g><path class="xlines-below"/><path class="ylines-below"/><g class="overlines-below"/><g class="xaxislayer-below"/><g class="yaxislayer-below"/><g class="overaxes-below"/><g class="plot" transform="translate(10,50)" clip-path="url(#clip0e0089xyplot)"><g class="scatterlayer mlayer"><g class="trace scatter traceaec4b2" style="stroke-miterlimit: 2; opacity: 1;"><g class="fills"/><g class="errorbars"/><g class="lines"><path class="js-line" d="M0,17.68L4.34,19.12L6.51,18.64L23.88,18.8L26.05,20.56L52.09,22.32L54.26,21.84L58.6,21.36L60.78,24.08L62.95,23.6L65.12,24.88L80.31,24.4L82.48,26.01L86.82,27.13L88.99,27.29L106.36,27.45L108.53,27.45L112.87,27.29L115.04,24.88L119.38,23.6L121.55,23.12L132.4,22.32L134.57,21.52L151.94,20.56L154.11,19.92L158.45,19.92L160.62,18.48L164.96,18.48L167.13,14L175.81,5.67L177.98,5.67L191.01,6.31L193.18,7.11L201.86,7.27L204.03,3.75L212.71,6.15L214.88,6.15L219.22,7.11L221.4,7.75L223.57,8.87L227.91,9.67L249.61,8.71L251.78,7.27L260.47,6.79L262.64,3.91L271.32,4.39L273.49,4.39L275.66,5.35L277.83,9.19L280,8.39" style="vector-effect: none; fill: none; stroke: rgb(238, 58, 67); stroke-opacity: 1; stroke-width: 5px; opacity: 1;"/></g><g class="points"/><g class="text"/></g><g class="trace scatter tracee59625" style="stroke-miterlimit: 2; opacity: 1;"><g class="fills"/><g class="errorbars"/><g class="lines"><path class="js-line" d="M0,43.46L4.34,40.1L6.51,38.17L8.68,32.25L10.85,32.09L13.02,33.37L15.19,32.09L23.88,31.77L26.05,26.33L28.22,23.92L30.39,25.04L34.73,23.44L36.9,23.28L39.07,24.08L41.24,23.28L58.6,23.28L60.78,21.84L62.95,21.04L65.12,18.64L82.48,19.12L84.65,20.72L104.19,22.8L106.36,22.8L119.38,23.6L121.55,23.6L132.4,23.12L134.57,22L138.91,21.84L141.09,22.16L149.77,22.48L151.94,22.48L164.96,23.28L167.13,25.04L175.81,24.88L177.98,24.88L180.16,24.88L182.33,21.2L191.01,21.04L193.18,19.12L201.86,18.8L204.03,22.48L212.71,24.56L214.88,24.56L221.4,23.44L223.57,21.68L232.25,20.4L234.42,20.4L249.61,20.88L251.78,21.84L260.47,22L262.64,23.28L273.49,24.08L275.66,22.96L277.83,21.36L280,22.8" style="vector-effect: none; fill: none; stroke: rgb(0, 180, 219); stroke-opacity: 1; stroke-width: 5px; opacity: 1;"/></g><g class="points"/><g class="text"/></g><g class="trace scatter traceffad57" style="stroke-miterlimit: 2; opacity: 1;"><g class="fills"/><g class="errorbars"/><g class="lines"><path class="js-line" d="M0,12.08L2.17,12.08L4.34,16.24L6.51,18.64L8.68,24.08L10.85,23.92L13.02,21.2L15.19,23.92L17.36,23.92L23.88,24.08L26.05,27.29L28.22,29.21L30.39,27.77L36.9,28.25L39.07,27.61L45.58,28.25L47.75,28.25L58.6,28.73L60.78,27.29L65.12,28.25L67.29,28.25L78.14,28.09L80.31,29.37L86.82,22.48L88.99,22L102.02,20.24L104.19,20.24L112.87,17.68L115.04,19.92L121.55,21.2L123.72,21.2L132.4,22.32L134.57,24.08L138.91,24.56L141.09,24.4L156.28,24.4L158.45,24.4L164.96,25.04L167.13,27.45L175.81,34.33L177.98,34.33L180.16,34.33L182.33,37.37L191.01,37.69L193.18,38.65L204.03,38.49L210.54,34.17L223.57,34.33L227.91,34.97L260.47,36.09L262.64,37.69L273.49,36.57L275.66,36.41L280,33.53" style="vector-effect: none; fill: none; stroke: rgb(138, 44, 81); stroke-opacity: 1; stroke-width: 5px; opacity: 1;"/></g><g class="points"/><g class="text"/></g><g class="trace scatter tracedf1fe6" style="stroke-miterlimit: 2; opacity: 1;"><g class="fills"/><g class="errorbars"/><g class="lines"><path class="js-line" d="M0,66.67L2.17,66.67L4.34,64.59L10.85,65.23L13.02,66.35L17.36,65.23L19.53,65.23L52.09,66.19L54.26,66.51L62.95,67.15L65.12,68.12L99.84,69.08L102.02,69.4L106.36,70.36L108.53,71L132.4,72.12L134.57,72.28L167.13,73.4" style="vector-effect: none; fill: none; stroke: rgb(1, 27, 58); stroke-opacity: 1; stroke-width: 5px; opacity: 1;"/></g><g class="points"/><g class="text"/></g></g></g><g class="overplot"/><path class="xlines-above crisp" d="M0,0" style="fill: none;"/><path class="ylines-above crisp" d="M0,0" style="fill: none;"/><g class="overlines-above"/><g class="xaxislayer-above"/><g class="yaxislayer-above"/><g class="overaxes-above"/></g></g><g class="polarlayer"/><g class="smithlayer"/><g class="ternarylayer"/><g class="geolayer"/><g class="funnelarealayer"/><g class="pielayer"/><g class="iciclelayer"/><g class="treemaplayer"/><g class="sunburstlayer"/><g class="glimages"/><defs id="topdefs-0e0089"><g class="clips"/></defs><g class="layer-above"><g class="imagelayer"/><g class="shapelayer"/></g><g class="infolayer"><g class="g-gtitle"><text class="gtitle" x="15" y="25" text-anchor="start" dy="0em" style="font-family: Ubuntu, verdana, arial, sans-serif; font-size: 16px; fill: rgb(233, 84, 32); opacity: 1; font-weight: normal; white-space: pre;">Premiér/ka 2023</text></g><g class="g-xtitle"/><g class="g-ytitle"/></g></svg>