<svg class="main-svg" xmlns="http://www.w3.org/2000/svg" xmlns:xlink="http://www.w3.org/1999/xlink" width="300" height="135" style="" viewBox="0 0 300 135"><rect x="0" y="0" width="300" height="135" style="fill: rgb(255, 255, 255); fill-opacity: 1;"/><defs id="defs-647f2f"><g class="clips"><clipPath id="clip647f2fxyplot" class="plotclip"><rect width="280" height="75"/></clipPath><clipPath class="axesclip" id="clip647f2fx"><rect x="10" y="0" width="280" height="135"/></clipPath><clipPath class="axesclip" id="clip647f2fy"><rect x="0" y="50" width="300" height="75"/></clipPath><clipPath class="axesclip" id="clip647f2fxy"><rect x="10" y="50" width="280" height="75"/></clipPath></g><g class="gradients"/><g class="patterns"/></defs><g class="bglayer"/><g class="layer-below"><g class="imagelayer"/><g class="shapelayer"/></g><g class="cartesianlayer"><g class="subplot xy"><g class="layer-subplot"><g class="shapelayer"/><g class="imagelayer"/></g><g class="minor-gridlayer"><g class="x"/><g class="y"/></g><g class="gridlayer"><g class="x"><path class="xgrid crisp" transform="translate(77.69,0)" d="M0,50v75" style="stroke: rgb(235, 240, 248); stroke-opacity: 1; stroke-width: 1px;"/><path class="xgrid crisp" transform="translate(158.16,0)" d="M0,50v75" style="stroke: rgb(235, 240, 248); stroke-opacity: 1; stroke-width: 1px;"/><path class="xgrid crisp" transform="translate(238.63,0)" d="M0,50v75" style="stroke: rgb(235, 240, 248); stroke-opacity: 1; stroke-width: 1px;"/></g><g class="y"><path class="ygrid crisp" transform="translate(0,97.18)" d="M10,0h280" style="stroke: rgb(235, 240, 248); stroke-opacity: 1; stroke-width: 1px;"/><path class="ygrid crisp" transform="translate(0,69.35)" d="M10,0h280" style="stroke: rgb(235, 240, 248); stroke-opacity: 1; stroke-width: 1px;"/></g></g><g class="zerolinelayer"><path class="yzl zl crisp" transform="translate(0,125)" d="M10,0h280" style="stroke: rgb(235, 240, 248); stroke-opacity: 1; stroke-width: 2px;"/></g><path class="xlines-below"/><path class="ylines-below"/><g class="overlines-below"/><g class="xaxislayer-below"/><g class="yaxislayer-below"/><g class="overaxes-below"/><g class="plot" transform="translate(10,50)" clip-path="url(#clip647f2fxyplot)"><g class="scatterlayer mlayer"><g class="trace scatter trace728aa3" style="stroke-miterlimit: 2; opacity: 1;"><g class="fills"/><g class="errorbars"/><g class="lines"><path class="js-line" d="M0,24.11Q2.59,19.27 4.19,18.53C5.4,17.97 7.07,18.59 8.16,18.75C8.94,18.86 9.72,19.19 10.14,19.21C10.34,19.22 10.35,19.14 10.58,19.15C11.49,19.2 15.73,20.18 17.2,20.82C18.01,21.17 18.34,21.44 18.96,21.96C19.84,22.7 20.9,23.92 21.83,25.02C22.81,26.18 23.69,27.16 24.69,28.76C26.2,31.18 28.07,36.04 29.54,38.43C30.48,39.97 30.97,40.88 32.19,42.01C33.8,43.51 37.42,45.39 38.8,46.16C39.4,46.49 39.66,46.56 40.13,46.81C40.68,47.1 41.26,47.5 41.89,47.79C42.57,48.11 43.23,48.34 44.09,48.62C45.26,49 47.39,49.59 48.28,49.77C48.68,49.85 48.92,49.88 49.17,49.88C49.34,49.88 49.41,49.83 49.61,49.83C50,49.82 50.88,49.95 51.37,49.96C51.71,49.97 51.86,49.9 52.25,49.94C53.04,50.01 54.66,50.62 55.78,50.69C56.78,50.75 58.23,50.46 58.65,50.43C58.76,50.42 58.75,50.43 58.87,50.42C59.34,50.38 61.68,50.02 62.39,49.99C62.7,49.98 62.79,49.99 63.06,50.02C63.47,50.06 64.24,50.19 64.6,50.24C64.79,50.27 64.82,50.28 65.04,50.3C65.77,50.36 68.66,50.45 69.67,50.44C70.16,50.44 70.45,50.4 70.77,50.39C71.02,50.38 71.12,50.39 71.43,50.37C72.17,50.33 74.3,50.16 75.18,50.09C75.66,50.05 75.84,50.06 76.28,50C76.93,49.92 77.8,49.75 78.71,49.57C79.87,49.34 81.35,49.11 82.68,48.73C84.07,48.33 85.92,47.49 86.87,47.19C87.35,47.04 87.53,46.99 87.97,46.91C88.62,46.79 89.39,46.84 90.39,46.6C92.11,46.19 97.23,44.21 97.23,44.21C97.23,44.21 97.23,44.21 97.23,44.21C97.23,44.21 101.86,42.24 101.86,42.24C101.86,42.24 101.86,42.24 101.86,42.24C101.86,42.24 102.31,42.36 102.74,42.39C103.92,42.47 107.11,42.6 109.35,42.21C111.8,41.78 114.64,40.73 116.85,39.72C118.76,38.84 120.83,37.16 121.92,36.67C122.4,36.45 122.51,36.49 123.02,36.32C124.19,35.94 127.19,35 128.76,34.4C129.89,33.97 130.88,33.29 131.62,33.19C132.06,33.13 132.24,33.24 132.72,33.34C133.7,33.54 136.03,34.4 137.13,34.52C137.77,34.59 138.03,34.44 138.68,34.44C139.81,34.43 141.59,34.72 143.31,34.62C145.51,34.5 149.11,33.86 150.8,33.49C151.68,33.3 152.16,33.02 152.79,32.92C153.33,32.83 153.74,32.85 154.33,32.84C155.14,32.83 156.58,32.93 157.2,32.91C157.5,32.9 157.57,32.85 157.86,32.85C158.41,32.85 159.46,32.94 160.28,33.05C161.15,33.17 161.89,33.44 162.93,33.57C164.39,33.75 167.05,33.75 168.22,33.85C168.81,33.9 168.92,33.94 169.54,34.01C171.05,34.18 175.22,34.82 177.26,34.79C178.59,34.77 179.55,34.44 180.57,34.35C181.44,34.27 182.12,34.25 182.99,34.22C184.01,34.18 185.16,34.21 186.3,34.14C187.51,34.07 188.7,33.96 190.05,33.79C191.66,33.59 193.84,33.13 195.34,32.98C196.44,32.87 197.07,32.93 198.2,32.85C199.87,32.74 203.25,32.41 204.38,32.3C204.81,32.26 204.93,32.24 205.26,32.2C205.7,32.15 206.15,32.12 206.8,32.05C207.93,31.93 210.49,31.58 211.43,31.51C211.84,31.48 211.9,31.53 212.31,31.49C213.25,31.41 216.38,30.88 216.94,30.79C217.07,30.77 217.05,30.77 217.17,30.75C217.63,30.68 219.54,30.42 220.47,30.27C221.15,30.16 221.69,30.05 222.24,29.94C222.71,29.84 223.08,29.75 223.56,29.64C224.15,29.5 225.06,29.28 225.54,29.17C225.82,29.11 225.88,29.09 226.2,29.02C227.1,28.83 230.14,28.28 231.28,28.02C231.87,27.89 232.24,27.83 232.6,27.68C232.87,27.57 232.98,27.44 233.26,27.3C233.7,27.07 234.49,26.62 235.02,26.47C235.42,26.36 235.75,26.44 236.13,26.35C236.56,26.25 237,26.05 237.45,25.85C237.95,25.63 238.99,25.1 238.99,25.1C238.99,25.1 238.99,25.1 238.99,25.1C238.99,25.1 241.45,24.92 242.3,24.95C242.84,24.97 243.18,25.05 243.62,25.09C244.06,25.13 244.62,25.17 244.94,25.17C245.13,25.17 245.27,25.15 245.39,25.14C245.48,25.13 245.5,25.13 245.61,25.11C245.98,25.03 247.28,24.51 248.03,24.44C248.66,24.38 249.21,24.56 249.8,24.61C250.39,24.66 251.11,24.74 251.56,24.75C251.83,24.76 251.99,24.76 252.22,24.73C252.49,24.7 252.71,24.63 253.1,24.54C253.85,24.36 255.66,23.89 256.41,23.68C256.8,23.57 256.96,23.47 257.29,23.42C257.68,23.36 258.12,23.42 258.61,23.37C259.25,23.3 260.18,23.1 260.82,22.97C261.32,22.87 261.78,22.75 262.14,22.66C262.4,22.59 262.6,22.52 262.8,22.47C262.96,22.43 263.05,22.41 263.24,22.37C263.6,22.29 264.23,22.15 264.79,22.01C265.46,21.85 266.22,21.66 266.99,21.46C267.83,21.24 268.87,20.93 269.64,20.77C270.22,20.65 270.69,20.63 271.18,20.54C271.64,20.45 272.25,20.29 272.5,20.23C272.6,20.2 272.65,20.19 272.72,20.17C272.79,20.15 272.85,20.15 272.94,20.13C273.06,20.1 273.22,20.03 273.39,19.98C273.59,19.92 273.83,19.88 274.05,19.83C274.27,19.78 274.45,19.74 274.71,19.69C275.07,19.61 275.59,19.45 276.03,19.42C276.47,19.39 277.03,19.49 277.35,19.5C277.54,19.51 277.8,19.5 277.8,19.5C277.8,19.5 277.8,19.5 277.8,19.5Q277.8,19.5 280,19.45" style="vector-effect: none; fill: none; stroke: rgb(238, 58, 67); stroke-opacity: 1; stroke-width: 5px; opacity: 1;"/></g><g class="points"/><g class="text"/></g><g class="trace scatter trace53a7e3" style="stroke-miterlimit: 2; opacity: 1;"><g class="fills"/><g class="errorbars"/><g class="lines"><path class="js-line" d="M0,55.63Q2.81,56.41 4.19,56.45C5.53,56.49 7.06,55.98 8.16,55.91C8.93,55.86 9.72,55.94 10.14,55.93C10.34,55.92 10.35,55.9 10.58,55.9C11.48,55.91 15.7,56.43 17.2,56.55C17.97,56.61 18.3,56.6 18.96,56.65C19.8,56.72 20.88,56.82 21.83,56.95C22.79,57.08 23.61,57.26 24.69,57.44C26.09,57.68 28.16,58.15 29.54,58.26C30.55,58.34 31.11,58.16 32.19,58.22C33.9,58.32 37.43,59.03 38.8,59.12C39.41,59.16 39.66,59.11 40.13,59.11C40.68,59.11 41.27,59.18 41.89,59.15C42.58,59.12 43.24,58.94 44.09,58.9C45.26,58.84 47.4,58.92 48.28,58.95C48.69,58.96 48.92,58.99 49.17,59C49.34,59 49.41,59 49.61,59C50,58.99 50.88,58.97 51.37,58.94C51.71,58.92 51.86,58.9 52.25,58.86C53.03,58.77 54.66,58.45 55.78,58.4C56.78,58.35 58.24,58.48 58.65,58.5C58.76,58.5 58.75,58.51 58.87,58.51C59.34,58.52 61.68,58.46 62.39,58.43C62.7,58.42 62.79,58.41 63.06,58.39C63.47,58.37 64.24,58.31 64.6,58.3C64.79,58.29 64.82,58.3 65.04,58.3C65.77,58.3 68.66,58.26 69.67,58.29C70.16,58.31 70.45,58.36 70.77,58.36C71.02,58.36 71.12,58.38 71.43,58.33C72.17,58.22 74.3,57.62 75.18,57.38C75.66,57.25 75.84,57.17 76.28,57.06C76.93,56.9 77.8,56.76 78.71,56.55C79.87,56.28 81.33,55.79 82.68,55.57C84.05,55.35 85.92,55.28 86.87,55.23C87.35,55.2 87.53,55.25 87.97,55.2C88.62,55.13 89.37,54.83 90.39,54.71C92.08,54.52 97.23,54.53 97.23,54.53C97.23,54.53 97.23,54.53 97.23,54.53C97.23,54.53 101.86,54.34 101.86,54.34C101.86,54.34 101.86,54.34 101.86,54.34C101.86,54.34 102.31,54.22 102.74,54.14C103.92,53.91 107.07,53.35 109.35,53.07C111.77,52.77 114.6,52.38 116.85,52.43C118.71,52.47 120.85,53.05 121.92,53.07C122.42,53.08 122.51,52.97 123.02,52.97C124.18,52.96 127.18,53.18 128.76,53.43C129.89,53.61 130.89,54.05 131.62,54.1C132.07,54.13 132.24,54.08 132.72,53.99C133.7,53.82 136.03,53.05 137.13,52.86C137.77,52.75 138.03,52.81 138.68,52.71C139.81,52.54 141.58,52.08 143.31,51.78C145.5,51.39 149.1,50.9 150.8,50.65C151.68,50.52 152.17,50.48 152.79,50.37C153.34,50.27 153.73,50.09 154.33,50.05C155.14,49.99 156.58,50.21 157.2,50.24C157.5,50.25 157.57,50.23 157.86,50.26C158.41,50.31 159.45,50.53 160.28,50.61C161.14,50.69 161.9,50.64 162.93,50.71C164.39,50.81 167.05,51.25 168.22,51.2C168.81,51.17 168.92,51.09 169.54,50.96C171.05,50.65 175.21,49.52 177.26,49.18C178.59,48.96 179.55,48.98 180.57,48.85C181.44,48.74 182.12,48.57 182.99,48.47C184,48.35 185.17,48.38 186.3,48.22C187.52,48.05 188.7,47.73 190.05,47.42C191.67,47.04 193.84,46.27 195.34,46.09C196.43,45.96 197.07,46.16 198.2,46.11C199.87,46.04 203.25,45.69 204.38,45.55C204.81,45.5 204.92,45.44 205.26,45.41C205.7,45.38 206.15,45.47 206.8,45.42C207.93,45.33 210.49,44.77 211.43,44.65C211.84,44.6 211.9,44.61 212.31,44.57C213.25,44.48 216.38,44.21 216.94,44.12C217.07,44.1 217.05,44.09 217.17,44.07C217.63,43.99 219.54,43.77 220.47,43.59C221.15,43.46 221.7,43.33 222.24,43.17C222.72,43.03 223.07,42.86 223.56,42.69C224.15,42.49 225.05,42.17 225.54,42.04C225.82,41.97 225.87,41.92 226.2,41.9C227.09,41.83 230.14,42.05 231.28,42.19C231.87,42.26 232.24,42.36 232.6,42.44C232.86,42.5 232.98,42.58 233.26,42.62C233.7,42.69 234.5,42.73 235.02,42.71C235.43,42.69 235.75,42.62 236.13,42.55C236.55,42.47 236.99,42.32 237.45,42.27C237.94,42.21 238.99,42.24 238.99,42.24C238.99,42.24 238.99,42.24 238.99,42.24C238.99,42.24 241.44,41.49 242.3,41.24C242.84,41.09 243.18,40.94 243.62,40.88C244.06,40.82 244.62,40.88 244.94,40.86C245.13,40.85 245.27,40.82 245.39,40.8C245.48,40.79 245.5,40.8 245.61,40.77C245.99,40.67 247.29,40.13 248.03,39.85C248.67,39.61 249.21,39.36 249.8,39.17C250.38,38.98 251.11,38.79 251.56,38.69C251.83,38.63 251.99,38.64 252.22,38.58C252.49,38.51 252.71,38.43 253.1,38.3C253.85,38.05 255.66,37.41 256.41,37.18C256.79,37.06 256.97,37.03 257.29,36.95C257.68,36.86 258.11,36.78 258.61,36.67C259.25,36.52 260.18,36.32 260.82,36.13C261.32,35.98 261.78,35.81 262.14,35.65C262.4,35.53 262.6,35.38 262.8,35.28C262.96,35.2 263.05,35.16 263.24,35.07C263.6,34.9 264.23,34.58 264.79,34.32C265.46,34.02 266.23,33.74 266.99,33.37C267.84,32.96 268.87,32.32 269.64,31.94C270.22,31.65 270.69,31.45 271.18,31.23C271.64,31.02 272.24,30.75 272.5,30.64C272.6,30.6 272.65,30.57 272.72,30.55C272.79,30.53 272.85,30.53 272.94,30.51C273.06,30.48 273.22,30.41 273.39,30.37C273.59,30.32 273.83,30.27 274.05,30.22C274.27,30.17 274.45,30.12 274.71,30.07C275.07,29.99 275.59,29.89 276.03,29.82C276.47,29.75 277.02,29.65 277.35,29.63C277.54,29.62 277.8,29.63 277.8,29.63C277.8,29.63 277.8,29.63 277.8,29.63Q277.8,29.63 280,29.38" style="vector-effect: none; fill: none; stroke: rgb(0, 180, 219); stroke-opacity: 1; stroke-width: 5px; opacity: 1;"/></g><g class="points"/><g class="text"/></g><g class="trace scatter tracee8a37e" style="stroke-miterlimit: 2; opacity: 1;"><g class="fills"/><g class="errorbars"/><g class="lines"><path class="js-line" d="M29.54,43.45Q30.99,39.97 32.19,37.99C33.81,35.32 37.36,30.57 38.8,29.1C39.36,28.53 39.66,28.44 40.13,28.06C40.68,27.62 41.28,27.17 41.89,26.63C42.59,26.01 43.24,25.35 44.09,24.52C45.27,23.37 47.39,21.18 48.28,20.35C48.68,19.98 48.92,19.78 49.17,19.58C49.34,19.45 49.42,19.41 49.61,19.26C50.01,18.94 50.87,18.07 51.37,17.67C51.71,17.4 51.83,17.18 52.25,17.03C53.01,16.76 54.67,16.92 55.78,16.81C56.79,16.71 58.24,16.52 58.65,16.42C58.77,16.39 58.75,16.38 58.87,16.34C59.34,16.17 61.67,15.34 62.39,15.13C62.7,15.04 62.8,15.05 63.06,14.96C63.47,14.82 64.24,14.42 64.6,14.28C64.79,14.21 64.81,14.2 65.04,14.13C65.77,13.92 68.66,13.28 69.67,12.99C70.17,12.85 70.45,12.69 70.77,12.63C71.01,12.58 71.12,12.62 71.43,12.58C72.17,12.48 74.31,12.08 75.18,11.82C75.66,11.67 75.83,11.49 76.28,11.37C76.92,11.2 77.8,11.21 78.71,11.09C79.87,10.94 81.34,10.51 82.68,10.53C84.06,10.55 85.92,11.09 86.87,11.23C87.35,11.3 87.53,11.33 87.97,11.36C88.62,11.4 89.39,11.28 90.39,11.4C92.1,11.61 97.23,13 97.23,13C97.23,13 97.23,13 97.23,13C97.23,13 101.86,14.19 101.86,14.19C101.86,14.19 101.86,14.19 101.86,14.19C101.86,14.19 102.31,14.32 102.74,14.46C103.92,14.84 107.1,15.76 109.35,16.64C111.8,17.6 114.57,19.22 116.85,20.09C118.68,20.78 120.84,21.42 121.92,21.63C122.41,21.72 122.51,21.7 123.02,21.72C124.18,21.77 127.18,21.87 128.76,21.72C129.88,21.61 130.89,21.2 131.62,21.18C132.07,21.17 132.23,21.25 132.72,21.34C133.7,21.52 136.03,22.1 137.13,22.29C137.78,22.4 138.03,22.37 138.68,22.48C139.82,22.68 141.6,23.05 143.31,23.55C145.52,24.2 149.1,25.67 150.8,26.24C151.67,26.53 152.17,26.65 152.79,26.85C153.34,27.03 153.73,27.37 154.33,27.39C155.13,27.42 156.58,26.78 157.2,26.63C157.5,26.56 157.57,26.56 157.86,26.48C158.42,26.33 159.45,25.92 160.28,25.68C161.14,25.43 161.9,25.32 162.93,25.04C164.4,24.64 167.04,23.72 168.22,23.41C168.8,23.26 168.92,23.26 169.54,23.12C171.05,22.78 175.23,21.84 177.26,21.31C178.6,20.96 179.55,20.56 180.57,20.36C181.43,20.19 182.12,20.13 182.99,20.08C184.01,20.02 185.17,19.96 186.3,20.05C187.52,20.15 188.7,20.39 190.05,20.71C191.67,21.1 193.83,22.2 195.34,22.33C196.43,22.43 197.06,22.09 198.2,21.98C199.87,21.82 203.25,21.58 204.38,21.52C204.81,21.5 204.93,21.53 205.26,21.49C205.7,21.44 206.15,21.26 206.8,21.19C207.93,21.06 210.49,21.1 211.43,21.05C211.84,21.03 211.9,20.99 212.31,20.98C213.25,20.97 216.38,21.19 216.94,21.22C217.07,21.23 217.05,21.22 217.17,21.23C217.63,21.26 219.54,21.38 220.47,21.47C221.15,21.54 221.69,21.59 222.24,21.68C222.71,21.76 223.08,21.82 223.56,21.95C224.16,22.11 225.06,22.44 225.54,22.6C225.82,22.69 225.88,22.71 226.2,22.83C227.1,23.16 230.13,24.41 231.28,24.78C231.86,24.96 232.24,25.03 232.6,25.12C232.86,25.19 232.98,25.25 233.26,25.29C233.7,25.35 234.5,25.3 235.02,25.35C235.43,25.39 235.75,25.42 236.13,25.54C236.56,25.67 237,25.9 237.45,26.13C237.95,26.38 238.99,26.99 238.99,26.99C238.99,26.99 238.99,26.99 238.99,26.99C238.99,26.99 241.45,27.84 242.3,28.17C242.84,28.38 243.18,28.56 243.62,28.73C244.06,28.9 244.61,29.1 244.94,29.2C245.13,29.26 245.27,29.29 245.39,29.33C245.48,29.36 245.5,29.37 245.61,29.41C245.98,29.54 247.28,30.04 248.03,30.23C248.66,30.39 249.21,30.43 249.8,30.54C250.39,30.65 251.11,30.8 251.56,30.9C251.83,30.96 251.98,31.02 252.22,31.05C252.49,31.09 252.71,31.05 253.1,31.1C253.85,31.19 255.66,31.54 256.41,31.71C256.8,31.8 256.96,31.88 257.29,31.94C257.68,32.01 258.11,32.04 258.61,32.1C259.25,32.18 260.18,32.26 260.82,32.4C261.32,32.51 261.77,32.72 262.14,32.81C262.4,32.87 262.6,32.91 262.8,32.94C262.96,32.97 263.05,32.96 263.24,33C263.6,33.08 264.23,33.3 264.79,33.47C265.46,33.67 266.23,33.87 266.99,34.15C267.84,34.46 268.86,35.07 269.64,35.29C270.21,35.45 270.69,35.41 271.18,35.53C271.64,35.64 272.24,35.87 272.5,35.95C272.6,35.98 272.65,36 272.72,36.02C272.79,36.04 272.85,36.03 272.94,36.05C273.06,36.08 273.22,36.14 273.39,36.18C273.59,36.22 273.83,36.24 274.05,36.29C274.27,36.34 274.45,36.39 274.71,36.46C275.07,36.55 275.59,36.71 276.03,36.79C276.47,36.86 277.03,36.86 277.35,36.91C277.54,36.94 277.8,37.01 277.8,37.01C277.8,37.01 277.8,37.01 277.8,37.01Q277.8,37.01 280,37.71" style="vector-effect: none; fill: none; stroke: rgb(138, 44, 81); stroke-opacity: 1; stroke-width: 5px; opacity: 1;"/></g><g class="points"/><g class="text"/></g><g class="trace scatter trace83c8f4" style="stroke-miterlimit: 2; opacity: 1;"><g class="fills"/><g class="errorbars"/><g class="lines"><path class="js-line" d="M82.68,70.54Q85.89,67.55 86.87,66.92C87.33,66.63 87.52,66.56 87.97,66.42C88.61,66.22 89.38,66.18 90.39,65.96C92.09,65.59 97.23,64.27 97.23,64.27C97.23,64.27 97.23,64.27 97.23,64.27C97.23,64.27 101.86,63.57 101.86,63.57C101.86,63.57 101.86,63.57 101.86,63.57C101.86,63.57 102.31,63.7 102.74,63.72C103.92,63.78 107.09,63.6 109.35,63.23C111.79,62.83 114.6,61.95 116.85,61.32C118.71,60.8 120.84,59.91 121.92,59.78C122.41,59.72 122.51,59.83 123.02,59.85C124.18,59.89 127.18,59.96 128.76,59.91C129.88,59.87 130.89,59.78 131.62,59.7C132.07,59.65 132.23,59.62 132.72,59.54C133.7,59.38 136.04,58.99 137.13,58.77C137.78,58.64 138.02,58.52 138.68,58.42C139.81,58.26 141.58,58.27 143.31,58.12C145.51,57.93 149.1,57.5 150.8,57.33C151.68,57.24 152.17,57.13 152.79,57.15C153.34,57.17 153.74,57.34 154.33,57.39C155.14,57.46 156.58,57.42 157.2,57.46C157.5,57.48 157.57,57.52 157.86,57.53C158.41,57.54 159.46,57.39 160.28,57.39C161.14,57.39 161.9,57.55 162.93,57.55C164.39,57.55 167.05,57.25 168.22,57.25C168.81,57.25 168.92,57.29 169.54,57.32C171.05,57.39 175.22,57.53 177.26,57.58C178.59,57.61 179.56,57.54 180.57,57.62C181.44,57.68 182.12,57.93 182.99,57.95C184.01,57.98 185.16,57.7 186.3,57.69C187.51,57.68 188.69,57.95 190.05,57.91C191.66,57.86 193.84,57.28 195.34,57.26C196.44,57.25 197.07,57.55 198.2,57.55C199.87,57.54 203.26,57.1 204.38,56.87C204.81,56.78 204.92,56.7 205.26,56.61C205.7,56.5 206.14,56.35 206.8,56.27C207.92,56.13 210.49,56.15 211.43,56.1C211.84,56.08 211.9,56.07 212.31,56.04C213.25,55.98 216.38,55.8 216.94,55.77C217.07,55.76 217.05,55.77 217.17,55.76C217.63,55.73 219.54,55.6 220.47,55.46C221.15,55.36 221.69,55.18 222.24,55.09C222.71,55.02 223.08,55.02 223.56,54.95C224.15,54.87 225.06,54.71 225.54,54.61C225.82,54.55 225.87,54.49 226.2,54.46C227.09,54.38 230.14,54.63 231.28,54.68C231.86,54.7 232.24,54.7 232.6,54.73C232.86,54.75 232.99,54.81 233.26,54.8C233.71,54.79 234.5,54.61 235.02,54.52C235.43,54.45 235.74,54.37 236.13,54.32C236.55,54.27 236.99,54.28 237.45,54.23C237.94,54.18 238.99,54 238.99,54C238.99,54 238.99,54 238.99,54C238.99,54 241.44,53.28 242.3,53.14C242.83,53.05 243.18,53.1 243.62,53.05C244.06,53 244.62,52.89 244.94,52.85C245.13,52.83 245.27,52.81 245.39,52.81C245.48,52.81 245.5,52.83 245.61,52.82C245.98,52.8 247.28,52.5 248.03,52.45C248.66,52.4 249.21,52.5 249.8,52.46C250.39,52.42 251.11,52.28 251.56,52.23C251.83,52.2 251.99,52.21 252.22,52.18C252.49,52.14 252.71,52.06 253.1,52.02C253.85,51.93 255.66,51.94 256.41,51.86C256.8,51.82 256.97,51.76 257.29,51.71C257.69,51.65 258.11,51.57 258.61,51.52C259.25,51.45 260.18,51.36 260.82,51.35C261.32,51.34 261.78,51.38 262.14,51.39C262.4,51.39 262.6,51.38 262.8,51.39C262.96,51.4 263.05,51.43 263.24,51.43C263.6,51.44 264.23,51.39 264.79,51.36C265.46,51.32 266.22,51.24 266.99,51.21C267.83,51.17 268.88,51.11 269.64,51.15C270.22,51.18 270.69,51.31 271.18,51.34C271.64,51.36 272.24,51.32 272.5,51.32C272.6,51.32 272.65,51.32 272.72,51.32C272.79,51.32 272.85,51.33 272.94,51.34C273.06,51.35 273.23,51.36 273.39,51.39C273.59,51.42 273.83,51.51 274.05,51.54C274.27,51.57 274.45,51.56 274.71,51.59C275.07,51.63 275.59,51.72 276.03,51.76C276.47,51.8 277.03,51.85 277.35,51.85C277.54,51.85 277.8,51.81 277.8,51.81C277.8,51.81 277.8,51.81 277.8,51.81Q277.8,51.81 280,51.49" style="vector-effect: none; fill: none; stroke: rgb(153, 51, 0); stroke-opacity: 1; stroke-width: 5px; opacity: 1;"/></g><g class="points"/><g class="text"/></g><g class="trace scatter trace46799f" style="stroke-miterlimit: 2; opacity: 1;"><g class="fills"/><g class="errorbars"/><g class="lines"><path class="js-line" d="M0,5.39Q2.83,5.71 4.19,5.48C5.55,5.25 7.05,4.28 8.16,4.01C8.92,3.82 9.73,3.65 10.14,3.75C10.35,3.8 10.34,3.91 10.58,4.07C11.48,4.67 15.67,7.42 17.2,8.11C17.95,8.44 18.31,8.39 18.96,8.64C19.81,8.97 20.9,9.47 21.83,10.03C22.81,10.62 23.58,11.45 24.69,12.12C26.06,12.95 28.21,13.65 29.54,14.52C30.6,15.21 31.13,15.79 32.19,16.73C33.92,18.26 37.39,21.98 38.8,22.98C39.37,23.38 39.65,23.43 40.13,23.66C40.67,23.92 41.29,24.1 41.89,24.47C42.61,24.91 43.22,25.61 44.09,26.22C45.24,27.03 47.38,28.4 48.28,28.82C48.67,29 48.93,29 49.17,29.11C49.35,29.19 49.41,29.26 49.61,29.36C50,29.55 50.89,29.87 51.37,30.11C51.72,30.28 51.85,30.4 52.25,30.6C53.03,30.99 54.68,31.59 55.78,32.15C56.8,32.67 58.23,33.59 58.65,33.8C58.76,33.86 58.75,33.84 58.87,33.9C59.34,34.14 61.67,35.54 62.39,35.93C62.7,36.1 62.78,36.18 63.06,36.28C63.46,36.42 64.24,36.49 64.6,36.57C64.79,36.61 64.82,36.63 65.04,36.68C65.77,36.85 68.67,37.41 69.67,37.74C70.17,37.9 70.44,38.14 70.77,38.21C71.01,38.26 71.13,38.16 71.43,38.22C72.18,38.36 74.3,39.3 75.18,39.6C75.65,39.76 75.85,39.76 76.28,39.94C76.94,40.22 77.78,40.86 78.71,41.28C79.85,41.8 81.38,42.08 82.68,42.75C84.1,43.49 85.91,45.07 86.87,45.62C87.34,45.89 87.52,45.97 87.97,46.14C88.61,46.38 89.38,46.54 90.39,46.84C92.09,47.35 97.23,48.94 97.23,48.94C97.23,48.94 97.23,48.94 97.23,48.94C97.23,48.94 101.86,50.1 101.86,50.1C101.86,50.1 101.86,50.1 101.86,50.1C101.86,50.1 102.31,50.09 102.74,50.09C103.92,50.08 107.08,50.14 109.35,50.06C111.77,49.98 114.6,49.53 116.85,49.59C118.71,49.64 120.85,50.16 121.92,50.18C122.42,50.19 122.51,50.08 123.02,50.1C124.19,50.14 127.18,50.66 128.76,50.96C129.88,51.17 130.89,51.58 131.62,51.62C132.07,51.65 132.23,51.56 132.72,51.5C133.7,51.39 136.04,50.97 137.13,50.95C137.78,50.94 138.02,51.09 138.68,51.1C139.81,51.12 141.58,50.87 143.31,50.84C145.51,50.8 149.1,50.84 150.8,50.96C151.68,51.02 152.17,51.16 152.79,51.21C153.34,51.25 153.74,51.18 154.33,51.24C155.14,51.32 156.58,51.65 157.2,51.74C157.5,51.78 157.57,51.8 157.86,51.81C158.41,51.83 159.46,51.78 160.28,51.69C161.15,51.6 161.89,51.34 162.93,51.24C164.39,51.1 167.05,51.2 168.22,51.11C168.81,51.06 168.92,51.01 169.54,50.93C171.04,50.74 175.24,49.89 177.26,50.08C178.61,50.21 179.55,50.85 180.57,51.09C181.43,51.29 182.12,51.34 182.99,51.49C184.01,51.67 185.16,52.03 186.3,52.09C187.51,52.15 188.69,51.76 190.05,51.79C191.66,51.83 193.84,52.35 195.34,52.48C196.44,52.58 197.07,52.53 198.2,52.62C199.87,52.75 203.25,53.19 204.38,53.31C204.81,53.36 204.93,53.37 205.26,53.4C205.7,53.44 206.15,53.52 206.8,53.55C207.93,53.61 210.49,53.55 211.43,53.59C211.84,53.61 211.9,53.62 212.31,53.65C213.25,53.73 216.38,54.09 216.94,54.12C217.07,54.13 217.05,54.12 217.17,54.12C217.63,54.12 219.54,54.12 220.47,54.16C221.15,54.19 221.69,54.27 222.24,54.3C222.71,54.32 223.08,54.3 223.56,54.32C224.15,54.35 225.06,54.44 225.54,54.48C225.82,54.5 225.88,54.53 226.2,54.54C227.1,54.56 230.14,54.3 231.28,54.33C231.86,54.35 232.24,54.41 232.6,54.46C232.86,54.49 232.99,54.51 233.26,54.57C233.71,54.67 234.5,54.93 235.02,55.07C235.43,55.18 235.74,55.28 236.13,55.37C236.55,55.47 236.99,55.54 237.45,55.64C237.94,55.75 238.99,55.98 238.99,55.98C238.99,55.98 238.99,55.98 238.99,55.98C238.99,55.98 241.44,56.89 242.3,57.16C242.84,57.33 243.18,57.42 243.62,57.51C244.06,57.6 244.61,57.67 244.94,57.7C245.13,57.72 245.27,57.72 245.39,57.71C245.48,57.71 245.5,57.69 245.61,57.68C245.98,57.65 247.29,57.65 248.03,57.58C248.67,57.52 249.21,57.44 249.8,57.34C250.39,57.24 251.11,57.07 251.56,57C251.83,56.96 251.98,56.93 252.22,56.91C252.49,56.89 252.71,56.92 253.1,56.9C253.85,56.86 255.66,56.62 256.41,56.57C256.8,56.55 256.97,56.55 257.29,56.55C257.69,56.55 258.11,56.57 258.61,56.6C259.25,56.64 260.18,56.75 260.82,56.76C261.32,56.77 261.78,56.71 262.14,56.7C262.4,56.69 262.6,56.7 262.8,56.7C262.96,56.7 263.05,56.69 263.24,56.69C263.6,56.69 264.23,56.72 264.79,56.73C265.46,56.74 266.22,56.77 266.99,56.76C267.83,56.75 268.88,56.68 269.64,56.66C270.22,56.65 270.69,56.64 271.18,56.65C271.64,56.66 272.25,56.68 272.5,56.7C272.6,56.71 272.65,56.72 272.72,56.72C272.79,56.72 272.85,56.72 272.94,56.72C273.06,56.72 273.23,56.72 273.39,56.71C273.59,56.69 273.83,56.65 274.05,56.62C274.27,56.59 274.45,56.55 274.71,56.53C275.07,56.5 275.59,56.51 276.03,56.49C276.47,56.47 277.03,56.41 277.35,56.39C277.54,56.38 277.8,56.38 277.8,56.38C277.8,56.38 277.8,56.38 277.8,56.38Q277.8,56.38 280,56.47" style="vector-effect: none; fill: none; stroke: rgb(97, 162, 41); stroke-opacity: 1; stroke-width: 5px; opacity: 1;"/></g><g class="points"/><g class="text"/></g></g></g><g class="overplot"/><path class="xlines-above crisp" d="M0,0" style="fill: none;"/><path class="ylines-above crisp" d="M0,0" style="fill: none;"/><g class="overlines-above"/><g class="xaxislayer-above"/><g class="yaxislayer-above"/><g class="overaxes-above"/></g></g><g class="polarlayer"/><g class="smithlayer"/><g class="ternarylayer"/><g class="geolayer"/><g class="funnelarealayer"/><g class="pielayer"/><g class="iciclelayer"/><g class="treemaplayer"/><g class="sunburstlayer"/><g class="glimages"/><defs id="topdefs-647f2f"><g class="clips"/></defs><g class="layer-above"><g class="imagelayer"/><g class="shapelayer"/></g><g class="infolayer"><g class="g-gtitle"><text class="gtitle" x="15" y="25" text-anchor="start" dy="0em" style="font-family: Ubuntu, verdana, arial, sans-serif; font-size: 16px; fill: rgb(233, 84, 32); opacity: 1; font-weight: normal; white-space: pre;">NRSR 2020-2023</text></g><g class="g-xtitle"/><g class="g-ytitle"/></g></svg>