<svg class="main-svg" xmlns="http://www.w3.org/2000/svg" xmlns:xlink="http://www.w3.org/1999/xlink" width="300" height="135" style="" viewBox="0 0 300 135"><rect x="0" y="0" width="300" height="135" style="fill: rgb(255, 255, 255); fill-opacity: 1;"/><defs id="defs-dbf746"><g class="clips"><clipPath id="clipdbf746xyplot" class="plotclip"><rect width="280" height="75"/></clipPath><clipPath class="axesclip" id="clipdbf746x"><rect x="10" y="0" width="280" height="135"/></clipPath><clipPath class="axesclip" id="clipdbf746y"><rect x="0" y="50" width="300" height="75"/></clipPath><clipPath class="axesclip" id="clipdbf746xy"><rect x="10" y="50" width="280" height="75"/></clipPath></g><g class="gradients"/><g class="patterns"/></defs><g class="bglayer"/><g class="layer-below"><g class="imagelayer"/><g class="shapelayer"/></g><g class="cartesianlayer"><g class="subplot xy"><g class="layer-subplot"><g class="shapelayer"/><g class="imagelayer"/></g><g class="minor-gridlayer"><g class="x"/><g class="y"/></g><g class="gridlayer"><g class="x"><path class="xgrid crisp" transform="translate(38.57,0)" d="M0,50v75" style="stroke: rgb(235, 240, 248); stroke-opacity: 1; stroke-width: 1px;"/><path class="xgrid crisp" transform="translate(124.29,0)" d="M0,50v75" style="stroke: rgb(235, 240, 248); stroke-opacity: 1; stroke-width: 1px;"/><path class="xgrid crisp" transform="translate(212.86,0)" d="M0,50v75" style="stroke: rgb(235, 240, 248); stroke-opacity: 1; stroke-width: 1px;"/></g><g class="y"><path class="ygrid crisp" transform="translate(0,108.99000000000001)" d="M10,0h280" style="stroke: rgb(235, 240, 248); stroke-opacity: 1; stroke-width: 1px;"/><path class="ygrid crisp" transform="translate(0,92.97999999999999)" d="M10,0h280" style="stroke: rgb(235, 240, 248); stroke-opacity: 1; stroke-width: 1px;"/><path class="ygrid crisp" transform="translate(0,76.97)" d="M10,0h280" style="stroke: rgb(235, 240, 248); stroke-opacity: 1; stroke-width: 1px;"/><path class="ygrid crisp" transform="translate(0,60.96)" d="M10,0h280" style="stroke: rgb(235, 240, 248); stroke-opacity: 1; stroke-width: 1px;"/></g></g><g class="zerolinelayer"><path class="yzl zl crisp" transform="translate(0,125)" d="M10,0h280" style="stroke: rgb(235, 240, 248); stroke-opacity: 1; stroke-width: 2px;"/></g><path class="xlines-below"/><path class="ylines-below"/><g class="overlines-below"/><g class="xaxislayer-below"/><g class="yaxislayer-below"/><g class="overaxes-below"/><g class="plot" transform="translate(10,50)" clip-path="url(#clipdbf746xyplot)"><g class="scatterlayer mlayer"><g class="trace scatter trace0434c4" style="stroke-miterlimit: 2; opacity: 1;"><g class="fills"/><g class="errorbars"/><g class="lines"><path class="js-line" d="M0,17.68L5.71,19.12L8.57,18.64L31.43,18.8L34.29,20.56L68.57,22.32L71.43,21.84L77.14,21.36L80,24.08L82.86,23.6L85.71,24.88L105.71,24.4L108.57,26.01L114.29,27.13L117.14,27.29L140,27.45L142.86,27.45L148.57,27.29L151.43,24.88L157.14,23.6L160,23.12L174.29,22.32L177.14,21.52L200,20.56L202.86,19.92L208.57,19.92L211.43,18.48L217.14,18.48L220,14L231.43,5.67L234.29,5.67L251.43,6.31L254.29,7.11L265.71,7.27L268.57,3.75L280,6.15" style="vector-effect: none; fill: none; stroke: rgb(238, 58, 67); stroke-opacity: 1; stroke-width: 5px; opacity: 1;"/></g><g class="points"/><g class="text"/></g><g class="trace scatter traceb9c734" style="stroke-miterlimit: 2; opacity: 1;"><g class="fills"/><g class="errorbars"/><g class="lines"><path class="js-line" d="M0,43.46L5.71,40.1L8.57,38.17L11.43,32.25L14.29,32.09L17.14,33.37L20,32.09L31.43,31.77L34.29,26.33L37.14,23.92L40,25.04L45.71,23.44L48.57,23.28L51.43,24.08L54.29,23.28L77.14,23.28L80,21.84L82.86,21.04L85.71,18.64L108.57,19.12L111.43,20.72L137.14,22.8L140,22.8L157.14,23.6L160,23.6L174.29,23.12L177.14,22L182.86,21.84L185.71,22.16L197.14,22.48L200,22.48L217.14,23.28L220,25.04L231.43,24.88L234.29,24.88L237.14,24.88L240,21.2L251.43,21.04L254.29,19.12L265.71,18.8L268.57,22.48L280,24.56" style="vector-effect: none; fill: none; stroke: rgb(0, 180, 219); stroke-opacity: 1; stroke-width: 5px; opacity: 1;"/></g><g class="points"/><g class="text"/></g><g class="trace scatter trace88e1e0" style="stroke-miterlimit: 2; opacity: 1;"><g class="fills"/><g class="errorbars"/><g class="lines"><path class="js-line" d="M0,12.08L2.86,12.08L5.71,16.24L8.57,18.64L11.43,24.08L14.29,23.92L17.14,21.2L20,23.92L22.86,23.92L31.43,24.08L34.29,27.29L37.14,29.21L40,27.77L48.57,28.25L51.43,27.61L60,28.25L62.86,28.25L77.14,28.73L80,27.29L85.71,28.25L88.57,28.25L102.86,28.09L105.71,29.37L111.43,23.12L114.29,22.48L134.29,20.24L137.14,20.24L148.57,17.68L151.43,19.92L160,21.2L162.86,21.2L174.29,22.32L177.14,24.08L182.86,24.56L185.71,24.4L205.71,24.4L208.57,24.4L217.14,25.04L220,27.45L231.43,34.33L234.29,34.33L237.14,34.33L240,37.37L251.43,37.69L254.29,38.65L268.57,38.49L277.14,34.17L280,34.17" style="vector-effect: none; fill: none; stroke: rgb(138, 44, 81); stroke-opacity: 1; stroke-width: 5px; opacity: 1;"/></g><g class="points"/><g class="text"/></g><g class="trace scatter trace32fa35" style="stroke-miterlimit: 2; opacity: 1;"><g class="fills"/><g class="errorbars"/><g class="lines"><path class="js-line" d="M0,66.67L2.86,66.67L5.71,64.59L14.29,65.23L17.14,66.35L22.86,65.23L25.71,65.23L68.57,66.19L71.43,66.51L82.86,67.15L85.71,68.12L131.43,69.08L134.29,69.4L140,70.36L142.86,71L174.29,72.12L177.14,72.28L220,73.4" style="vector-effect: none; fill: none; stroke: rgb(1, 27, 58); stroke-opacity: 1; stroke-width: 5px; opacity: 1;"/></g><g class="points"/><g class="text"/></g></g></g><g class="overplot"/><path class="xlines-above crisp" d="M0,0" style="fill: none;"/><path class="ylines-above crisp" d="M0,0" style="fill: none;"/><g class="overlines-above"/><g class="xaxislayer-above"/><g class="yaxislayer-above"/><g class="overaxes-above"/></g></g><g class="polarlayer"/><g class="smithlayer"/><g class="ternarylayer"/><g class="geolayer"/><g class="funnelarealayer"/><g class="pielayer"/><g class="iciclelayer"/><g class="treemaplayer"/><g class="sunburstlayer"/><g class="glimages"/><defs id="topdefs-dbf746"><g class="clips"/></defs><g class="layer-above"><g class="imagelayer"/><g class="shapelayer"/></g><g class="infolayer"><g class="g-gtitle"><text class="gtitle" x="15" y="25" text-anchor="start" dy="0em" style="font-family: Ubuntu, verdana, arial, sans-serif; font-size: 16px; fill: rgb(233, 84, 32); opacity: 1; font-weight: normal; white-space: pre;">Premiér/ka 2023</text></g><g class="g-xtitle"/><g class="g-ytitle"/></g></svg>