<svg class="main-svg" xmlns="http://www.w3.org/2000/svg" xmlns:xlink="http://www.w3.org/1999/xlink" width="300" height="135" style="" viewBox="0 0 300 135"><rect x="0" y="0" width="300" height="135" style="fill: rgb(255, 255, 255); fill-opacity: 1;"/><defs id="defs-eaa59b"><g class="clips"><clipPath id="clipeaa59bxyplot" class="plotclip"><rect width="280" height="75"/></clipPath><clipPath class="axesclip" id="clipeaa59bx"><rect x="10" y="0" width="280" height="135"/></clipPath><clipPath class="axesclip" id="clipeaa59by"><rect x="0" y="50" width="300" height="75"/></clipPath><clipPath class="axesclip" id="clipeaa59bxy"><rect x="10" y="50" width="280" height="75"/></clipPath></g><g class="gradients"/><g class="patterns"/></defs><g class="bglayer"/><g class="layer-below"><g class="imagelayer"/><g class="shapelayer"/></g><g class="cartesianlayer"><g class="subplot xy"><g class="layer-subplot"><g class="shapelayer"/><g class="imagelayer"/></g><g class="minor-gridlayer"><g class="x"/><g class="y"/></g><g class="gridlayer"><g class="x"><path class="xgrid crisp" transform="translate(45,0)" d="M0,50v75" style="stroke: rgb(235, 240, 248); stroke-opacity: 1; stroke-width: 1px;"/><path class="xgrid crisp" transform="translate(150,0)" d="M0,50v75" style="stroke: rgb(235, 240, 248); stroke-opacity: 1; stroke-width: 1px;"/><path class="xgrid crisp" transform="translate(258.5,0)" d="M0,50v75" style="stroke: rgb(235, 240, 248); stroke-opacity: 1; stroke-width: 1px;"/></g><g class="y"><path class="ygrid crisp" transform="translate(0,107.91)" d="M10,0h280" style="stroke: rgb(235, 240, 248); stroke-opacity: 1; stroke-width: 1px;"/><path class="ygrid crisp" transform="translate(0,90.83)" d="M10,0h280" style="stroke: rgb(235, 240, 248); stroke-opacity: 1; stroke-width: 1px;"/><path class="ygrid crisp" transform="translate(0,73.74)" d="M10,0h280" style="stroke: rgb(235, 240, 248); stroke-opacity: 1; stroke-width: 1px;"/><path class="ygrid crisp" transform="translate(0,56.65)" d="M10,0h280" style="stroke: rgb(235, 240, 248); stroke-opacity: 1; stroke-width: 1px;"/></g></g><g class="zerolinelayer"><path class="yzl zl crisp" transform="translate(0,125)" d="M10,0h280" style="stroke: rgb(235, 240, 248); stroke-opacity: 1; stroke-width: 2px;"/></g><path class="xlines-below"/><path class="ylines-below"/><g class="overlines-below"/><g class="xaxislayer-below"/><g class="yaxislayer-below"/><g class="overaxes-below"/><g class="plot" transform="translate(10,50)" clip-path="url(#clipeaa59bxyplot)"><g class="scatterlayer mlayer"><g class="trace scatter trace723b4c" style="stroke-miterlimit: 2; opacity: 1;"><g class="fills"/><g class="errorbars"/><g class="lines"><path class="js-line" d="M0,10.51L3.5,11.96L7,11.13L14,10.95L17.5,10.95L21,11.75L24.5,10.95L38.5,11.12L42,13.26L66.5,15.35L70,15.35L94.5,14.54L98,17.67L101.5,17.35L105,19.07L129.5,18.53L133,20.24L140,22.05L143.5,22.22L182,22.78L185.5,20.38L192.5,19.1L196,18.55L213.5,17.82L217,17.08L227.5,17.59L231,17.08L255.5,16.05L259,13.89L266,13.89L269.5,9.14L280,3.75" style="vector-effect: none; fill: none; stroke: rgb(238, 58, 67); stroke-opacity: 1; stroke-width: 5px; opacity: 1;"/></g><g class="points"/><g class="text"/></g><g class="trace scatter trace18c78c" style="stroke-miterlimit: 2; opacity: 1;"><g class="fills"/><g class="errorbars"/><g class="lines"><path class="js-line" d="M0,39.54L3.5,38.16L7,35.05L10.5,33.01L14,26.18L17.5,26.18L21,28.02L24.5,26.18L28,26.18L38.5,25.85L42,19.83L45.5,17.26L49,18.56L56,16.83L59.5,16.62L63,17.41L66.5,16.62L94.5,16.77L98,15.25L101.5,14.45L105,12.26L133,12.67L136.5,14.82L175,18.16L178.5,18.16L185.5,18.88L189,19.1L213.5,18.49L217,17.59L227.5,18.62L231,19.13L266,19.18L269.5,21.22L280,21.01" style="vector-effect: none; fill: none; stroke: rgb(0, 180, 219); stroke-opacity: 1; stroke-width: 5px; opacity: 1;"/></g><g class="points"/><g class="text"/></g><g class="trace scatter traceeaa982" style="stroke-miterlimit: 2; opacity: 1;"><g class="fills"/><g class="errorbars"/><g class="lines"><path class="js-line" d="M0,4.08L3.5,4.02L7,7.96L10.5,10.56L14,17.01L17.5,17.01L21,14.36L24.5,17.01L28,17.01L38.5,17.17L42,21.05L45.5,23.22L49,21.65L59.5,22.17L63,21.52L70,22.17L73.5,22.17L94.5,22.83L98,21.22L105,22.8L108.5,22.8L126,22.8L129.5,24.16L136.5,17.49L140,16.88L157.5,14.39L161,14.39L171.5,13.8L175,13.05L182,12.37L185.5,14.88L192.5,15.94L196,16.55L210,16.55L213.5,17.82L220.5,21.01L224,21.01L266,21.06L269.5,23.78L280,29.38" style="vector-effect: none; fill: none; stroke: rgb(138, 44, 81); stroke-opacity: 1; stroke-width: 5px; opacity: 1;"/></g><g class="points"/><g class="text"/></g></g></g><g class="overplot"/><path class="xlines-above crisp" d="M0,0" style="fill: none;"/><path class="ylines-above crisp" d="M0,0" style="fill: none;"/><g class="overlines-above"/><g class="xaxislayer-above"/><g class="yaxislayer-above"/><g class="overaxes-above"/></g></g><g class="polarlayer"/><g class="smithlayer"/><g class="ternarylayer"/><g class="geolayer"/><g class="funnelarealayer"/><g class="pielayer"/><g class="iciclelayer"/><g class="treemaplayer"/><g class="sunburstlayer"/><g class="glimages"/><defs id="topdefs-eaa59b"><g class="clips"/></defs><g class="layer-above"><g class="imagelayer"/><g class="shapelayer"/></g><g class="infolayer"><g class="g-gtitle"><text class="gtitle" x="15" y="25" text-anchor="start" dy="0em" style="font-family: Ubuntu, verdana, arial, sans-serif; font-size: 16px; fill: rgb(233, 84, 32); opacity: 1; font-weight: normal; white-space: pre;">Premiér/ka 2023</text></g><g class="g-xtitle"/><g class="g-ytitle"/></g></svg>