<svg class="main-svg" xmlns="http://www.w3.org/2000/svg" xmlns:xlink="http://www.w3.org/1999/xlink" width="300" height="135" style="" viewBox="0 0 300 135"><rect x="0" y="0" width="300" height="135" style="fill: rgb(255, 255, 255); fill-opacity: 1;"/><defs id="defs-6e5827"><g class="clips"><clipPath id="clip6e5827xyplot" class="plotclip"><rect width="280" height="75"/></clipPath><clipPath class="axesclip" id="clip6e5827x"><rect x="10" y="0" width="280" height="135"/></clipPath><clipPath class="axesclip" id="clip6e5827y"><rect x="0" y="50" width="300" height="75"/></clipPath><clipPath class="axesclip" id="clip6e5827xy"><rect x="10" y="50" width="280" height="75"/></clipPath></g><g class="gradients"/><g class="patterns"/></defs><g class="bglayer"/><g class="layer-below"><g class="imagelayer"/><g class="shapelayer"/></g><g class="cartesianlayer"><g class="subplot xy"><g class="layer-subplot"><g class="shapelayer"/><g class="imagelayer"/></g><g class="minor-gridlayer"><g class="x"/><g class="y"/></g><g class="gridlayer"><g class="x"><path class="xgrid crisp" transform="translate(30.59,0)" d="M0,50v75" style="stroke: rgb(235, 240, 248); stroke-opacity: 1; stroke-width: 1px;"/><path class="xgrid crisp" transform="translate(92.35,0)" d="M0,50v75" style="stroke: rgb(235, 240, 248); stroke-opacity: 1; stroke-width: 1px;"/><path class="xgrid crisp" transform="translate(156.18,0)" d="M0,50v75" style="stroke: rgb(235, 240, 248); stroke-opacity: 1; stroke-width: 1px;"/><path class="xgrid crisp" transform="translate(220,0)" d="M0,50v75" style="stroke: rgb(235, 240, 248); stroke-opacity: 1; stroke-width: 1px;"/><path class="xgrid crisp" transform="translate(281.76,0)" d="M0,50v75" style="stroke: rgb(235, 240, 248); stroke-opacity: 1; stroke-width: 1px;"/></g><g class="y"><path class="ygrid crisp" transform="translate(0,95.56)" d="M10,0h280" style="stroke: rgb(235, 240, 248); stroke-opacity: 1; stroke-width: 1px;"/><path class="ygrid crisp" transform="translate(0,66.12)" d="M10,0h280" style="stroke: rgb(235, 240, 248); stroke-opacity: 1; stroke-width: 1px;"/></g></g><g class="zerolinelayer"><path class="yzl zl crisp" transform="translate(0,125)" d="M10,0h280" style="stroke: rgb(235, 240, 248); stroke-opacity: 1; stroke-width: 2px;"/></g><path class="xlines-below"/><path class="ylines-below"/><g class="overlines-below"/><g class="xaxislayer-below"/><g class="yaxislayer-below"/><g class="overaxes-below"/><g class="plot" transform="translate(10,50)" clip-path="url(#clip6e5827xyplot)"><g class="scatterlayer mlayer"><g class="trace scatter traceaa94dc" style="stroke-miterlimit: 2; opacity: 1;"><g class="fills"/><g class="errorbars"/><g class="lines"><path class="js-line" d="M0,22.3L4.12,23.62L6.18,23.18L22.65,23.33L24.71,24.95L49.41,26.57L51.47,26.13L55.59,25.68L57.65,28.19L59.71,27.75L61.76,28.92L76.18,28.48L78.24,29.95L82.35,30.98L84.41,31.13L102.94,31.28L105,31.28L107.06,31.13L109.12,28.92L113.24,27.75L115.29,27.3L125.59,26.57L127.65,25.83L144.12,24.95L146.18,24.36L150.29,24.36L152.35,23.03L156.47,23.03L158.53,18.91L166.76,11.26L168.82,11.26L181.18,11.85L183.24,12.58L191.47,12.73L193.53,9.49L201.76,11.7L203.82,11.7L207.94,12.58L210,13.17L216.18,14.94L218.24,14.94L236.76,14.05L238.82,12.73L247.06,12.29L249.12,9.64L259.41,10.08L261.47,10.96L263.53,14.5L265.59,13.17L269.71,11.4L280,3.75" style="vector-effect: none; fill: none; stroke: rgb(238, 58, 67); stroke-opacity: 1; stroke-width: 5px; opacity: 1;"/></g><g class="points"/><g class="text"/></g><g class="trace scatter trace25c8a6" style="stroke-miterlimit: 2; opacity: 1;"><g class="fills"/><g class="errorbars"/><g class="lines"><path class="js-line" d="M0,17.15L2.06,17.15L4.12,20.97L6.18,23.18L8.24,28.19L10.29,28.04L12.35,25.54L14.41,28.04L16.47,28.04L22.65,28.19L24.71,31.13L26.76,32.9L28.82,31.57L35,32.01L37.06,31.43L43.24,32.01L45.29,32.01L55.59,32.46L57.65,31.13L61.76,32.01L63.82,32.01L74.12,31.87L76.18,33.04L82.35,26.71L84.41,26.27L96.76,24.65L98.82,24.65L107.06,22.3L109.12,24.36L115.29,25.54L117.35,25.54L125.59,26.57L127.65,28.19L131.76,28.63L133.82,28.48L150.29,28.48L152.35,29.07L156.47,29.07L158.53,31.28L166.76,37.61L168.82,37.61L170.88,37.61L172.94,40.41L181.18,40.7L183.24,41.58L193.53,41.44L199.71,37.46L212.06,37.61L216.18,38.2L247.06,39.23L249.12,40.7L261.47,39.52L263.53,37.76L265.59,37.02L267.65,38.05L269.71,38.49L280,6.11" style="vector-effect: none; fill: none; stroke: rgb(138, 44, 81); stroke-opacity: 1; stroke-width: 5px; opacity: 1;"/></g><g class="points"/><g class="text"/></g><g class="trace scatter trace716bb2" style="stroke-miterlimit: 2; opacity: 1;"><g class="fills"/><g class="errorbars"/><g class="lines"><path class="js-line" d="M0,46L4.12,42.91L6.18,41.14L8.24,35.69L10.29,35.55L12.35,36.73L14.41,35.55L22.65,35.25L24.71,30.25L26.76,28.04L28.82,29.07L32.94,27.6L35,27.45L37.06,28.19L39.12,27.45L55.59,27.45L57.65,26.13L59.71,25.39L61.76,23.18L78.24,23.62L80.29,25.1L102.94,27.3L105,27.3L109.12,27.6L111.18,27.75L125.59,27.3L127.65,26.27L131.76,26.13L133.82,26.42L144.12,26.71L146.18,26.86L156.47,27.45L158.53,29.07L166.76,28.92L168.82,28.92L170.88,28.92L172.94,25.54L181.18,25.39L183.24,23.62L191.47,23.33L193.53,26.71L203.82,28.63L205.88,28.63L210,27.6L212.06,25.98L220.29,24.8L222.35,24.8L236.76,25.24L238.82,26.13L247.06,26.27L249.12,27.45L259.41,28.19L261.47,27.16L263.53,25.68L265.59,27.6L269.71,27.89L280,67.93" style="vector-effect: none; fill: none; stroke: rgb(0, 180, 219); stroke-opacity: 1; stroke-width: 5px; opacity: 1;"/></g><g class="points"/><g class="text"/></g><g class="trace scatter trace8f5e8e" style="stroke-miterlimit: 2; opacity: 1;"><g class="fills"/><g class="errorbars"/><g class="lines"><path class="js-line" d="M0,67.35L2.06,67.35L4.12,65.43L10.29,66.02L12.35,67.05L16.47,66.02L18.53,66.02L55.59,67.2L57.65,67.35L70,69.26L72.06,69.26L94.71,69.55L96.76,69.85L100.88,70.73L102.94,71.32L133.82,72.5L135.88,72.79L158.53,73.53" style="vector-effect: none; fill: none; stroke: rgb(1, 27, 58); stroke-opacity: 1; stroke-width: 5px; opacity: 1;"/></g><g class="points"/><g class="text"/></g></g></g><g class="overplot"/><path class="xlines-above crisp" d="M0,0" style="fill: none;"/><path class="ylines-above crisp" d="M0,0" style="fill: none;"/><g class="overlines-above"/><g class="xaxislayer-above"/><g class="yaxislayer-above"/><g class="overaxes-above"/></g></g><g class="polarlayer"/><g class="smithlayer"/><g class="ternarylayer"/><g class="geolayer"/><g class="funnelarealayer"/><g class="pielayer"/><g class="iciclelayer"/><g class="treemaplayer"/><g class="sunburstlayer"/><g class="glimages"/><defs id="topdefs-6e5827"><g class="clips"/></defs><g class="layer-above"><g class="imagelayer"/><g class="shapelayer"/></g><g class="infolayer"><g class="g-gtitle"><text class="gtitle" x="15" y="25" text-anchor="start" dy="0em" style="font-family: Ubuntu, verdana, arial, sans-serif; font-size: 16px; fill: rgb(233, 84, 32); opacity: 1; font-weight: normal; white-space: pre;">Premiér/ka 2023</text></g><g class="g-xtitle"/><g class="g-ytitle"/></g></svg>