<svg class="main-svg" xmlns="http://www.w3.org/2000/svg" xmlns:xlink="http://www.w3.org/1999/xlink" width="300" height="135" style="" viewBox="0 0 300 135"><rect x="0" y="0" width="300" height="135" style="fill: rgb(255, 255, 255); fill-opacity: 1;"/><defs id="defs-f619eb"><g class="clips"><clipPath id="clipf619ebxyplot" class="plotclip"><rect width="280" height="75"/></clipPath><clipPath class="axesclip" id="clipf619ebx"><rect x="10" y="0" width="280" height="135"/></clipPath><clipPath class="axesclip" id="clipf619eby"><rect x="0" y="50" width="300" height="75"/></clipPath><clipPath class="axesclip" id="clipf619ebxy"><rect x="10" y="50" width="280" height="75"/></clipPath></g><g class="gradients"/><g class="patterns"/></defs><g class="bglayer"/><g class="layer-below"><g class="imagelayer"/><g class="shapelayer"/></g><g class="cartesianlayer"><g class="subplot xy"><g class="layer-subplot"><g class="shapelayer"/><g class="imagelayer"/></g><g class="minor-gridlayer"><g class="x"/><g class="y"/></g><g class="gridlayer"><g class="x"><path class="xgrid crisp" transform="translate(63.53,0)" d="M0,50v75" style="stroke: rgb(235, 240, 248); stroke-opacity: 1; stroke-width: 1px;"/><path class="xgrid crisp" transform="translate(121.18,0)" d="M0,50v75" style="stroke: rgb(235, 240, 248); stroke-opacity: 1; stroke-width: 1px;"/><path class="xgrid crisp" transform="translate(178.82,0)" d="M0,50v75" style="stroke: rgb(235, 240, 248); stroke-opacity: 1; stroke-width: 1px;"/><path class="xgrid crisp" transform="translate(236.47,0)" d="M0,50v75" style="stroke: rgb(235, 240, 248); stroke-opacity: 1; stroke-width: 1px;"/></g><g class="y"><path class="ygrid crisp" transform="translate(0,106.9)" d="M10,0h280" style="stroke: rgb(235, 240, 248); stroke-opacity: 1; stroke-width: 1px;"/><path class="ygrid crisp" transform="translate(0,88.81)" d="M10,0h280" style="stroke: rgb(235, 240, 248); stroke-opacity: 1; stroke-width: 1px;"/><path class="ygrid crisp" transform="translate(0,70.71000000000001)" d="M10,0h280" style="stroke: rgb(235, 240, 248); stroke-opacity: 1; stroke-width: 1px;"/><path class="ygrid crisp" transform="translate(0,52.61)" d="M10,0h280" style="stroke: rgb(235, 240, 248); stroke-opacity: 1; stroke-width: 1px;"/></g></g><g class="zerolinelayer"><path class="yzl zl crisp" transform="translate(0,125)" d="M10,0h280" style="stroke: rgb(235, 240, 248); stroke-opacity: 1; stroke-width: 2px;"/></g><path class="xlines-below"/><path class="ylines-below"/><g class="overlines-below"/><g class="xaxislayer-below"/><g class="yaxislayer-below"/><g class="overaxes-below"/><g class="plot" transform="translate(10,50)" clip-path="url(#clipf619ebxyplot)"><g class="scatterlayer mlayer"><g class="trace scatter trace3390d5" style="stroke-miterlimit: 2; opacity: 1;"><g class="fills"/><g class="errorbars"/><g class="lines"><path class="js-line" d="M0,10.24L8.24,11.84L12.35,11.26L37.06,11.24L41.18,11.24L45.29,11.45L49.41,13.41L82.35,15.36L86.47,15.36L111.18,14.31L115.29,17.37L119.41,16.89L123.53,18.39L152.35,17.71L156.47,19.6L164.71,20.95L168.82,21.18L214.12,21.03L218.24,18.34L222.35,16.92L226.47,16.92L238.82,16.4L242.94,16.4L251.18,15.55L255.29,14.56L280,13.47" style="vector-effect: none; fill: none; stroke: rgb(238, 58, 67); stroke-opacity: 1; stroke-width: 5px; opacity: 1;"/></g><g class="points"/><g class="text"/></g><g class="trace scatter tracefd8f28" style="stroke-miterlimit: 2; opacity: 1;"><g class="fills"/><g class="errorbars"/><g class="lines"><path class="js-line" d="M0,39.4L8.24,35.43L12.35,33.41L16.47,26.65L20.59,26.48L24.71,27.96L28.82,26.48L45.29,26.04L49.41,19.95L53.53,17.33L57.65,18.49L65.88,16.78L70,16.47L74.12,17.4L78.24,16.47L111.18,16.69L115.29,14.95L119.41,13.98L123.53,11.35L156.47,11.8L160.59,13.55L177.06,15.24L181.18,15.24L189.41,16.02L193.53,15.86L210,16.32L214.12,17.12L230.59,16.92L234.71,16.92L251.18,16.25L255.29,15.09L263.53,14.86L267.65,15.22L280,15.64" style="vector-effect: none; fill: none; stroke: rgb(0, 180, 219); stroke-opacity: 1; stroke-width: 5px; opacity: 1;"/></g><g class="points"/><g class="text"/></g><g class="trace scatter tracebe75ca" style="stroke-miterlimit: 2; opacity: 1;"><g class="fills"/><g class="errorbars"/><g class="lines"><path class="js-line" d="M0,3.81L4.12,3.75L8.24,8.56L12.35,11.26L16.47,17.44L20.59,17.24L24.71,14.17L28.82,17.24L32.94,17.24L45.29,17.44L49.41,21.01L53.53,23.25L57.65,21.57L65.88,22.13L70,22.16L74.12,21.5L78.24,22.16L111.18,22.59L115.29,21.08L123.53,22.15L127.65,22.15L148.24,21.91L152.35,23.55L160.59,16.43L164.71,15.69L189.41,13.16L193.53,12.99L201.76,11.97L205.88,11.06L214.12,10.14L218.24,12.67L226.47,13.64L230.59,14.16L247.06,14.16L251.18,15.55L259.41,18.09L263.53,17.92L280,17.63" style="vector-effect: none; fill: none; stroke: rgb(138, 44, 81); stroke-opacity: 1; stroke-width: 5px; opacity: 1;"/></g><g class="points"/><g class="text"/></g><g class="trace scatter trace83a32f" style="stroke-miterlimit: 2; opacity: 1;"><g class="fills"/><g class="errorbars"/><g class="lines"><path class="js-line" d="M0,65.58L4.12,65.57L8.24,63.2L20.59,64.06L24.71,65.35L32.94,64.06L37.06,64.06L98.82,65.03L102.94,65.44L119.41,66.26L123.53,67.15L189.41,68.26L193.53,68.75L201.76,69.75L205.88,70.42L247.06,71.55L251.18,71.69L275.88,72.29L280,72.29" style="vector-effect: none; fill: none; stroke: rgb(1, 27, 58); stroke-opacity: 1; stroke-width: 5px; opacity: 1;"/></g><g class="points"/><g class="text"/></g></g></g><g class="overplot"/><path class="xlines-above crisp" d="M0,0" style="fill: none;"/><path class="ylines-above crisp" d="M0,0" style="fill: none;"/><g class="overlines-above"/><g class="xaxislayer-above"/><g class="yaxislayer-above"/><g class="overaxes-above"/></g></g><g class="polarlayer"/><g class="smithlayer"/><g class="ternarylayer"/><g class="geolayer"/><g class="funnelarealayer"/><g class="pielayer"/><g class="iciclelayer"/><g class="treemaplayer"/><g class="sunburstlayer"/><g class="glimages"/><defs id="topdefs-f619eb"><g class="clips"/></defs><g class="layer-above"><g class="imagelayer"/><g class="shapelayer"/></g><g class="infolayer"><g class="g-gtitle"><text class="gtitle" x="15" y="25" text-anchor="start" dy="0em" style="font-family: Ubuntu, verdana, arial, sans-serif; font-size: 16px; fill: rgb(233, 84, 32); opacity: 1; font-weight: normal; white-space: pre;">Premiér/ka 2023</text></g><g class="g-xtitle"/><g class="g-ytitle"/></g></svg>