<svg class="main-svg" xmlns="http://www.w3.org/2000/svg" xmlns:xlink="http://www.w3.org/1999/xlink" width="300" height="135" style="" viewBox="0 0 300 135"><rect x="0" y="0" width="300" height="135" style="fill: rgb(255, 255, 255); fill-opacity: 1;"/><defs id="defs-d7a657"><g class="clips"><clipPath id="clipd7a657xyplot" class="plotclip"><rect width="280" height="75"/></clipPath><clipPath class="axesclip" id="clipd7a657x"><rect x="10" y="0" width="280" height="135"/></clipPath><clipPath class="axesclip" id="clipd7a657y"><rect x="0" y="50" width="300" height="75"/></clipPath><clipPath class="axesclip" id="clipd7a657xy"><rect x="10" y="50" width="280" height="75"/></clipPath></g><g class="gradients"/><g class="patterns"/></defs><g class="bglayer"/><g class="layer-below"><g class="imagelayer"/><g class="shapelayer"/></g><g class="cartesianlayer"><g class="subplot xy"><g class="layer-subplot"><g class="shapelayer"/><g class="imagelayer"/></g><g class="minor-gridlayer"><g class="x"/><g class="y"/></g><g class="gridlayer"><g class="x"><path class="xgrid crisp" transform="translate(31.88,0)" d="M0,50v75" style="stroke: rgb(235, 240, 248); stroke-opacity: 1; stroke-width: 1px;"/><path class="xgrid crisp" transform="translate(97.5,0)" d="M0,50v75" style="stroke: rgb(235, 240, 248); stroke-opacity: 1; stroke-width: 1px;"/><path class="xgrid crisp" transform="translate(165.31,0)" d="M0,50v75" style="stroke: rgb(235, 240, 248); stroke-opacity: 1; stroke-width: 1px;"/><path class="xgrid crisp" transform="translate(233.13,0)" d="M0,50v75" style="stroke: rgb(235, 240, 248); stroke-opacity: 1; stroke-width: 1px;"/></g><g class="y"><path class="ygrid crisp" transform="translate(0,108.99000000000001)" d="M10,0h280" style="stroke: rgb(235, 240, 248); stroke-opacity: 1; stroke-width: 1px;"/><path class="ygrid crisp" transform="translate(0,92.97999999999999)" d="M10,0h280" style="stroke: rgb(235, 240, 248); stroke-opacity: 1; stroke-width: 1px;"/><path class="ygrid crisp" transform="translate(0,76.97)" d="M10,0h280" style="stroke: rgb(235, 240, 248); stroke-opacity: 1; stroke-width: 1px;"/><path class="ygrid crisp" transform="translate(0,60.96)" d="M10,0h280" style="stroke: rgb(235, 240, 248); stroke-opacity: 1; stroke-width: 1px;"/></g></g><g class="zerolinelayer"><path class="yzl zl crisp" transform="translate(0,125)" d="M10,0h280" style="stroke: rgb(235, 240, 248); stroke-opacity: 1; stroke-width: 2px;"/></g><path class="xlines-below"/><path class="ylines-below"/><g class="overlines-below"/><g class="xaxislayer-below"/><g class="yaxislayer-below"/><g class="overaxes-below"/><g class="plot" transform="translate(10,50)" clip-path="url(#clipd7a657xyplot)"><g class="scatterlayer mlayer"><g class="trace scatter trace6b85ea" style="stroke-miterlimit: 2; opacity: 1;"><g class="fills"/><g class="errorbars"/><g class="lines"><path class="js-line" d="M0,17.68L4.38,19.12L6.56,18.64L24.06,18.8L26.25,20.56L52.5,22.32L54.69,21.84L59.06,21.36L61.25,24.08L63.44,23.6L65.63,24.88L80.94,24.4L83.13,26.01L87.5,27.13L89.69,27.29L107.19,27.45L109.38,27.45L113.75,27.29L115.94,24.88L120.31,23.6L122.5,23.12L133.44,22.32L135.63,21.52L153.13,20.56L155.31,19.92L159.69,19.92L161.88,18.48L166.25,18.48L168.44,14L177.19,5.67L179.38,5.67L192.5,6.31L194.69,7.11L203.44,7.27L205.63,3.75L214.38,6.15L216.56,6.15L220.94,7.11L223.13,7.75L225.31,8.87L229.69,9.67L251.56,8.71L253.75,7.27L262.5,6.79L264.69,3.91L273.44,4.39L275.63,4.39L277.81,5.35L280,8.07" style="vector-effect: none; fill: none; stroke: rgb(238, 58, 67); stroke-opacity: 1; stroke-width: 5px; opacity: 1;"/></g><g class="points"/><g class="text"/></g><g class="trace scatter tracec89583" style="stroke-miterlimit: 2; opacity: 1;"><g class="fills"/><g class="errorbars"/><g class="lines"><path class="js-line" d="M0,43.46L4.38,40.1L6.56,38.17L8.75,32.25L10.94,32.09L13.13,33.37L15.31,32.09L24.06,31.77L26.25,26.33L28.44,23.92L30.63,25.04L35,23.44L37.19,23.28L39.38,24.08L41.56,23.28L59.06,23.28L61.25,21.84L63.44,21.04L65.63,18.64L83.13,19.12L85.31,20.72L105,22.8L107.19,22.8L120.31,23.6L122.5,23.6L133.44,23.12L135.63,22L140,21.84L142.19,22.16L150.94,22.48L153.13,22.48L166.25,23.28L168.44,25.04L177.19,24.88L179.38,24.88L181.56,24.88L183.75,21.2L192.5,21.04L194.69,19.12L203.44,18.8L205.63,22.48L214.38,24.56L216.56,24.56L223.13,23.44L225.31,21.68L234.06,20.4L236.25,20.4L251.56,20.88L253.75,21.84L262.5,22L264.69,23.28L275.63,24.08L277.81,22.96L280,21.04" style="vector-effect: none; fill: none; stroke: rgb(0, 180, 219); stroke-opacity: 1; stroke-width: 5px; opacity: 1;"/></g><g class="points"/><g class="text"/></g><g class="trace scatter trace930f68" style="stroke-miterlimit: 2; opacity: 1;"><g class="fills"/><g class="errorbars"/><g class="lines"><path class="js-line" d="M0,12.08L2.19,12.08L4.38,16.24L6.56,18.64L8.75,24.08L10.94,23.92L13.13,21.2L15.31,23.92L17.5,23.92L24.06,24.08L26.25,27.29L28.44,29.21L30.63,27.77L37.19,28.25L39.38,27.61L45.94,28.25L48.13,28.25L59.06,28.73L61.25,27.29L65.63,28.25L67.81,28.25L78.75,28.09L80.94,29.37L87.5,22.48L89.69,22L102.81,20.24L105,20.24L113.75,17.68L115.94,19.92L122.5,21.2L124.69,21.2L133.44,22.32L135.63,24.08L140,24.56L142.19,24.4L157.5,24.4L159.69,24.4L166.25,25.04L168.44,27.45L177.19,34.33L179.38,34.33L181.56,34.33L183.75,37.37L192.5,37.69L194.69,38.65L205.63,38.49L212.19,34.17L225.31,34.33L229.69,34.97L262.5,36.09L264.69,37.69L275.63,36.57L277.81,36.41L280,35.77" style="vector-effect: none; fill: none; stroke: rgb(138, 44, 81); stroke-opacity: 1; stroke-width: 5px; opacity: 1;"/></g><g class="points"/><g class="text"/></g><g class="trace scatter tracebf2044" style="stroke-miterlimit: 2; opacity: 1;"><g class="fills"/><g class="errorbars"/><g class="lines"><path class="js-line" d="M0,66.67L2.19,66.67L4.38,64.59L10.94,65.23L13.13,66.35L17.5,65.23L19.69,65.23L52.5,66.19L54.69,66.51L63.44,67.15L65.63,68.12L100.63,69.08L102.81,69.4L107.19,70.36L109.38,71L133.44,72.12L135.63,72.28L168.44,73.4" style="vector-effect: none; fill: none; stroke: rgb(1, 27, 58); stroke-opacity: 1; stroke-width: 5px; opacity: 1;"/></g><g class="points"/><g class="text"/></g></g></g><g class="overplot"/><path class="xlines-above crisp" d="M0,0" style="fill: none;"/><path class="ylines-above crisp" d="M0,0" style="fill: none;"/><g class="overlines-above"/><g class="xaxislayer-above"/><g class="yaxislayer-above"/><g class="overaxes-above"/></g></g><g class="polarlayer"/><g class="smithlayer"/><g class="ternarylayer"/><g class="geolayer"/><g class="funnelarealayer"/><g class="pielayer"/><g class="iciclelayer"/><g class="treemaplayer"/><g class="sunburstlayer"/><g class="glimages"/><defs id="topdefs-d7a657"><g class="clips"/></defs><g class="layer-above"><g class="imagelayer"/><g class="shapelayer"/></g><g class="infolayer"><g class="g-gtitle"><text class="gtitle" x="15" y="25" text-anchor="start" dy="0em" style="font-family: Ubuntu, verdana, arial, sans-serif; font-size: 16px; fill: rgb(233, 84, 32); opacity: 1; font-weight: normal; white-space: pre;">Premiér/ka 2023</text></g><g class="g-xtitle"/><g class="g-ytitle"/></g></svg>