<svg class="main-svg" xmlns="http://www.w3.org/2000/svg" xmlns:xlink="http://www.w3.org/1999/xlink" width="300" height="135" style="" viewBox="0 0 300 135"><rect x="0" y="0" width="300" height="135" style="fill: rgb(255, 255, 255); fill-opacity: 1;"/><defs id="defs-696acd"><g class="clips"><clipPath id="clip696acdxyplot" class="plotclip"><rect width="280" height="75"/></clipPath><clipPath class="axesclip" id="clip696acdx"><rect x="10" y="0" width="280" height="135"/></clipPath><clipPath class="axesclip" id="clip696acdy"><rect x="0" y="50" width="300" height="75"/></clipPath><clipPath class="axesclip" id="clip696acdxy"><rect x="10" y="50" width="280" height="75"/></clipPath></g><g class="gradients"/><g class="patterns"/></defs><g class="bglayer"/><g class="layer-below"><g class="imagelayer"/><g class="shapelayer"/></g><g class="cartesianlayer"><g class="subplot xy"><g class="layer-subplot"><g class="shapelayer"/><g class="imagelayer"/></g><g class="minor-gridlayer"><g class="x"/><g class="y"/></g><g class="gridlayer"><g class="x"><path class="xgrid crisp" transform="translate(33.93,0)" d="M0,50v75" style="stroke: rgb(235, 240, 248); stroke-opacity: 1; stroke-width: 1px;"/><path class="xgrid crisp" transform="translate(105.73,0)" d="M0,50v75" style="stroke: rgb(235, 240, 248); stroke-opacity: 1; stroke-width: 1px;"/><path class="xgrid crisp" transform="translate(179.91,0)" d="M0,50v75" style="stroke: rgb(235, 240, 248); stroke-opacity: 1; stroke-width: 1px;"/><path class="xgrid crisp" transform="translate(254.1,0)" d="M0,50v75" style="stroke: rgb(235, 240, 248); stroke-opacity: 1; stroke-width: 1px;"/></g><g class="y"><path class="ygrid crisp" transform="translate(0,108.99000000000001)" d="M10,0h280" style="stroke: rgb(235, 240, 248); stroke-opacity: 1; stroke-width: 1px;"/><path class="ygrid crisp" transform="translate(0,92.97999999999999)" d="M10,0h280" style="stroke: rgb(235, 240, 248); stroke-opacity: 1; stroke-width: 1px;"/><path class="ygrid crisp" transform="translate(0,76.97)" d="M10,0h280" style="stroke: rgb(235, 240, 248); stroke-opacity: 1; stroke-width: 1px;"/><path class="ygrid crisp" transform="translate(0,60.96)" d="M10,0h280" style="stroke: rgb(235, 240, 248); stroke-opacity: 1; stroke-width: 1px;"/></g></g><g class="zerolinelayer"><path class="yzl zl crisp" transform="translate(0,125)" d="M10,0h280" style="stroke: rgb(235, 240, 248); stroke-opacity: 1; stroke-width: 2px;"/></g><path class="xlines-below"/><path class="ylines-below"/><g class="overlines-below"/><g class="xaxislayer-below"/><g class="yaxislayer-below"/><g class="overaxes-below"/><g class="plot" transform="translate(10,50)" clip-path="url(#clip696acdxyplot)"><g class="scatterlayer mlayer"><g class="trace scatter trace2f7b75" style="stroke-miterlimit: 2; opacity: 1;"><g class="fills"/><g class="errorbars"/><g class="lines"><path class="js-line" d="M0,17.68L4.79,19.12L7.18,18.64L26.32,18.8L28.72,20.56L57.44,22.32L59.83,21.84L64.62,21.36L67.01,24.08L69.4,23.6L71.79,24.88L88.55,24.4L90.94,26.01L95.73,27.13L98.12,27.29L117.26,27.45L119.66,27.45L124.44,27.29L126.84,24.88L131.62,23.6L134.02,23.12L145.98,22.32L148.38,21.52L167.52,20.56L169.91,19.92L174.7,19.92L177.09,18.48L181.88,18.48L184.27,14L193.85,5.67L196.24,5.67L210.6,6.31L212.99,7.11L222.56,7.27L224.96,3.75L234.53,6.15L236.92,6.15L241.71,7.11L244.1,7.75L246.5,8.87L251.28,9.67L275.21,8.71L277.61,7.27L280,7.27" style="vector-effect: none; fill: none; stroke: rgb(238, 58, 67); stroke-opacity: 1; stroke-width: 5px; opacity: 1;"/></g><g class="points"/><g class="text"/></g><g class="trace scatter trace00619a" style="stroke-miterlimit: 2; opacity: 1;"><g class="fills"/><g class="errorbars"/><g class="lines"><path class="js-line" d="M0,43.46L4.79,40.1L7.18,38.17L9.57,32.25L11.97,32.09L14.36,33.37L16.75,32.09L26.32,31.77L28.72,26.33L31.11,23.92L33.5,25.04L38.29,23.44L40.68,23.28L43.08,24.08L45.47,23.28L64.62,23.28L67.01,21.84L69.4,21.04L71.79,18.64L90.94,19.12L93.33,20.72L114.87,22.8L117.26,22.8L131.62,23.6L134.02,23.6L145.98,23.12L148.38,22L153.16,21.84L155.56,22.16L165.13,22.48L167.52,22.48L181.88,23.28L184.27,25.04L193.85,24.88L196.24,24.88L198.63,24.88L201.03,21.2L210.6,21.04L212.99,19.12L222.56,18.8L224.96,22.48L234.53,24.56L236.92,24.56L244.1,23.44L246.5,21.68L256.07,20.4L258.46,20.4L275.21,20.88L277.61,21.84L280,21.84" style="vector-effect: none; fill: none; stroke: rgb(0, 180, 219); stroke-opacity: 1; stroke-width: 5px; opacity: 1;"/></g><g class="points"/><g class="text"/></g><g class="trace scatter trace60c6c2" style="stroke-miterlimit: 2; opacity: 1;"><g class="fills"/><g class="errorbars"/><g class="lines"><path class="js-line" d="M0,12.08L2.39,12.08L4.79,16.24L7.18,18.64L9.57,24.08L11.97,23.92L14.36,21.2L16.75,23.92L19.15,23.92L26.32,24.08L28.72,27.29L31.11,29.21L33.5,27.77L40.68,28.25L43.08,27.61L50.26,28.25L52.65,28.25L64.62,28.73L67.01,27.29L71.79,28.25L74.19,28.25L86.15,28.09L88.55,29.37L93.33,23.12L95.73,22.48L112.48,20.24L114.87,20.24L124.44,17.68L126.84,19.92L134.02,21.2L136.41,21.2L145.98,22.32L148.38,24.08L153.16,24.56L155.56,24.4L172.31,24.4L174.7,24.4L181.88,25.04L184.27,27.45L193.85,34.33L196.24,34.33L198.63,34.33L201.03,37.37L210.6,37.69L212.99,38.65L224.96,38.49L232.14,34.17L246.5,34.33L251.28,34.97L280,35.77" style="vector-effect: none; fill: none; stroke: rgb(138, 44, 81); stroke-opacity: 1; stroke-width: 5px; opacity: 1;"/></g><g class="points"/><g class="text"/></g><g class="trace scatter trace5c55f8" style="stroke-miterlimit: 2; opacity: 1;"><g class="fills"/><g class="errorbars"/><g class="lines"><path class="js-line" d="M0,66.67L2.39,66.67L4.79,64.59L11.97,65.23L14.36,66.35L19.15,65.23L21.54,65.23L57.44,66.19L59.83,66.51L69.4,67.15L71.79,68.12L110.09,69.08L112.48,69.4L117.26,70.36L119.66,71L145.98,72.12L148.38,72.28L184.27,73.4" style="vector-effect: none; fill: none; stroke: rgb(1, 27, 58); stroke-opacity: 1; stroke-width: 5px; opacity: 1;"/></g><g class="points"/><g class="text"/></g></g></g><g class="overplot"/><path class="xlines-above crisp" d="M0,0" style="fill: none;"/><path class="ylines-above crisp" d="M0,0" style="fill: none;"/><g class="overlines-above"/><g class="xaxislayer-above"/><g class="yaxislayer-above"/><g class="overaxes-above"/></g></g><g class="polarlayer"/><g class="smithlayer"/><g class="ternarylayer"/><g class="geolayer"/><g class="funnelarealayer"/><g class="pielayer"/><g class="iciclelayer"/><g class="treemaplayer"/><g class="sunburstlayer"/><g class="glimages"/><defs id="topdefs-696acd"><g class="clips"/></defs><g class="layer-above"><g class="imagelayer"/><g class="shapelayer"/></g><g class="infolayer"><g class="g-gtitle"><text class="gtitle" x="15" y="25" text-anchor="start" dy="0em" style="font-family: Ubuntu, verdana, arial, sans-serif; font-size: 16px; fill: rgb(233, 84, 32); opacity: 1; font-weight: normal; white-space: pre;">Premiér/ka 2023</text></g><g class="g-xtitle"/><g class="g-ytitle"/></g></svg>