<svg class="main-svg" xmlns="http://www.w3.org/2000/svg" xmlns:xlink="http://www.w3.org/1999/xlink" width="300" height="135" style="" viewBox="0 0 300 135"><rect x="0" y="0" width="300" height="135" style="fill: rgb(255, 255, 255); fill-opacity: 1;"/><defs id="defs-856a71"><g class="clips"><clipPath id="clip856a71xyplot" class="plotclip"><rect width="280" height="75"/></clipPath><clipPath class="axesclip" id="clip856a71x"><rect x="10" y="0" width="280" height="135"/></clipPath><clipPath class="axesclip" id="clip856a71y"><rect x="0" y="50" width="300" height="75"/></clipPath><clipPath class="axesclip" id="clip856a71xy"><rect x="10" y="50" width="280" height="75"/></clipPath></g><g class="gradients"/><g class="patterns"/></defs><g class="bglayer"/><g class="layer-below"><g class="imagelayer"/><g class="shapelayer"/></g><g class="cartesianlayer"><g class="subplot xy"><g class="layer-subplot"><g class="shapelayer"/><g class="imagelayer"/></g><g class="gridlayer"><g class="x"><path class="xgrid crisp" transform="translate(81.99,0)" d="M0,50v75" style="stroke: rgb(235, 240, 248); stroke-opacity: 1; stroke-width: 1px;"/><path class="xgrid crisp" transform="translate(167.59,0)" d="M0,50v75" style="stroke: rgb(235, 240, 248); stroke-opacity: 1; stroke-width: 1px;"/><path class="xgrid crisp" transform="translate(253.18,0)" d="M0,50v75" style="stroke: rgb(235, 240, 248); stroke-opacity: 1; stroke-width: 1px;"/></g><g class="y"><path class="ygrid crisp" transform="translate(0,109.62)" d="M10,0h280" style="stroke: rgb(235, 240, 248); stroke-opacity: 1; stroke-width: 1px;"/><path class="ygrid crisp" transform="translate(0,94.25)" d="M10,0h280" style="stroke: rgb(235, 240, 248); stroke-opacity: 1; stroke-width: 1px;"/><path class="ygrid crisp" transform="translate(0,78.87)" d="M10,0h280" style="stroke: rgb(235, 240, 248); stroke-opacity: 1; stroke-width: 1px;"/><path class="ygrid crisp" transform="translate(0,63.5)" d="M10,0h280" style="stroke: rgb(235, 240, 248); stroke-opacity: 1; stroke-width: 1px;"/></g></g><g class="zerolinelayer"><path class="yzl zl crisp" transform="translate(0,125)" d="M10,0h280" style="stroke: rgb(235, 240, 248); stroke-opacity: 1; stroke-width: 2px;"/></g><path class="xlines-below"/><path class="ylines-below"/><g class="overlines-below"/><g class="xaxislayer-below"/><g class="yaxislayer-below"/><g class="overaxes-below"/><g class="plot" transform="translate(10,50)" clip-path="url(#clip856a71xyplot)"><g class="scatterlayer mlayer"><g class="trace scatter trace74e4d9" style="stroke-miterlimit: 2; opacity: 1;"><g class="fills"/><g class="errorbars"/><g class="lines"><path class="js-line" d="M0,18.76Q2.74,13.41 4.46,12.59C5.74,11.98 7.52,12.66 8.68,12.83C9.51,12.95 10.34,13.32 10.79,13.34C11,13.35 11.01,13.26 11.26,13.27C12.23,13.32 16.73,14.42 18.29,15.12C19.16,15.51 19.51,15.81 20.17,16.38C21.11,17.2 22.23,18.55 23.22,19.76C24.27,21.05 25.2,22.14 26.26,23.9C27.87,26.58 29.85,31.94 31.42,34.59C32.42,36.28 32.94,37.29 34.24,38.54C35.95,40.18 39.81,42.28 41.27,43.13C41.91,43.5 42.18,43.58 42.68,43.85C43.27,44.17 43.89,44.61 44.56,44.93C45.29,45.28 45.99,45.53 46.9,45.84C48.14,46.26 50.42,46.92 51.36,47.11C51.78,47.2 52.03,47.23 52.29,47.23C52.47,47.23 52.55,47.18 52.76,47.18C53.18,47.17 54.12,47.31 54.64,47.33C55.01,47.34 55.17,47.27 55.58,47.31C56.42,47.39 58.14,48.07 59.33,48.14C60.39,48.2 61.94,47.86 62.38,47.84C62.5,47.83 62.49,47.85 62.61,47.84C63.11,47.81 65.61,47.39 66.37,47.36C66.7,47.35 66.79,47.36 67.07,47.39C67.5,47.43 68.33,47.57 68.71,47.63C68.91,47.66 68.94,47.68 69.18,47.7C69.95,47.77 73.02,47.87 74.1,47.86C74.63,47.86 74.94,47.81 75.28,47.8C75.54,47.79 75.65,47.8 75.98,47.78C76.77,47.74 79.04,47.55 79.97,47.47C80.48,47.43 80.68,47.43 81.14,47.37C81.83,47.28 82.76,47.08 83.72,46.89C84.96,46.64 86.53,46.39 87.94,45.97C89.42,45.53 91.39,44.59 92.4,44.26C92.91,44.1 93.1,44.04 93.57,43.95C94.26,43.82 95.09,43.88 96.15,43.62C97.98,43.18 103.42,40.97 103.42,40.97C103.42,40.97 103.42,40.97 103.42,40.97C103.42,40.97 108.34,38.79 108.34,38.79C108.34,38.79 108.34,38.79 108.34,38.79C108.34,38.79 108.82,38.93 109.28,38.96C110.53,39.05 113.93,39.19 116.31,38.76C118.92,38.28 121.95,37.13 124.29,36.01C126.32,35.04 128.52,33.19 129.68,32.64C130.19,32.4 130.31,32.43 130.85,32.25C132.09,31.83 135.28,30.79 136.95,30.13C138.15,29.66 139.21,28.9 140,28.79C140.47,28.73 140.65,28.85 141.17,28.96C142.22,29.18 144.69,30.15 145.86,30.27C146.54,30.34 146.81,30.18 147.5,30.17C148.7,30.16 150.6,30.47 152.43,30.37C154.77,30.24 158.6,29.54 160.4,29.13C161.34,28.92 161.84,28.62 162.51,28.5C163.08,28.4 163.52,28.41 164.15,28.4C165.01,28.39 166.54,28.5 167.2,28.48C167.52,28.47 167.6,28.42 167.91,28.42C168.5,28.42 169.62,28.51 170.49,28.64C171.41,28.77 172.2,29.07 173.3,29.21C174.85,29.41 177.68,29.41 178.93,29.52C179.56,29.58 179.67,29.62 180.34,29.7C181.94,29.89 186.38,30.59 188.54,30.56C189.96,30.54 190.98,30.19 192.06,30.08C192.98,29.99 193.71,29.97 194.64,29.93C195.72,29.89 196.95,29.92 198.16,29.85C199.45,29.77 200.7,29.64 202.14,29.45C203.86,29.23 206.17,28.72 207.77,28.56C208.94,28.44 209.61,28.5 210.82,28.42C212.6,28.3 216.19,27.94 217.39,27.81C217.84,27.76 217.97,27.74 218.32,27.7C218.79,27.65 219.27,27.62 219.97,27.54C221.17,27.41 223.89,27.02 224.89,26.94C225.33,26.91 225.4,26.95 225.83,26.91C226.83,26.82 230.16,26.25 230.75,26.15C230.88,26.13 230.86,26.13 230.99,26.11C231.48,26.03 233.52,25.75 234.51,25.58C235.23,25.46 235.8,25.34 236.38,25.22C236.88,25.11 237.27,25.01 237.79,24.89C238.42,24.74 239.39,24.49 239.9,24.37C240.2,24.3 240.26,24.29 240.6,24.22C241.55,24.02 244.79,23.41 246,23.13C246.62,22.99 247.02,22.92 247.4,22.76C247.69,22.64 247.81,22.5 248.11,22.34C248.58,22.08 249.41,21.58 249.98,21.42C250.41,21.3 250.76,21.39 251.16,21.29C251.61,21.18 252.08,20.96 252.56,20.75C253.09,20.52 254.2,19.93 254.2,19.93C254.2,19.93 254.2,19.93 254.2,19.93C254.2,19.93 256.81,19.76 257.72,19.8C258.3,19.83 258.66,19.93 259.13,19.98C259.6,20.03 260.2,20.11 260.54,20.11C260.74,20.11 260.88,20.09 261.01,20.08C261.1,20.07 261.12,20.07 261.24,20.05C261.64,19.97 263.02,19.4 263.82,19.36C264.49,19.32 265.07,19.55 265.7,19.65C266.32,19.75 267.1,19.89 267.57,19.94C267.86,19.97 268.02,19.98 268.27,19.97C268.56,19.95 268.8,19.9 269.21,19.83C270.01,19.69 271.93,19.28 272.73,19.09C273.14,18.99 273.32,18.86 273.67,18.84C274.09,18.81 274.55,19.01 275.08,19.04C275.76,19.07 276.62,19 277.42,18.94Q278.26,18.87 280,18.64" style="vector-effect: non-scaling-stroke; fill: none; stroke: rgb(238, 58, 67); stroke-opacity: 1; stroke-width: 5px; opacity: 1;"/></g><g class="points"/><g class="text"/></g><g class="trace scatter traced11de3" style="stroke-miterlimit: 2; opacity: 1;"><g class="fills"/><g class="errorbars"/><g class="lines"><path class="js-line" d="M31.42,40.13Q32.96,36.29 34.24,34.1C35.97,31.15 39.74,25.9 41.27,24.27C41.86,23.64 42.18,23.54 42.68,23.12C43.26,22.64 43.91,22.13 44.56,21.54C45.31,20.85 46,20.12 46.9,19.21C48.15,17.94 50.42,15.53 51.36,14.61C51.78,14.2 52.03,13.97 52.29,13.75C52.47,13.6 52.56,13.57 52.76,13.4C53.18,13.04 54.11,12.09 54.64,11.64C55,11.34 55.13,11.1 55.58,10.93C56.39,10.63 58.15,10.81 59.33,10.69C60.4,10.58 61.94,10.37 62.38,10.26C62.5,10.23 62.49,10.22 62.61,10.17C63.11,9.99 65.61,9.08 66.37,8.84C66.69,8.74 66.79,8.75 67.07,8.65C67.51,8.49 68.33,8.04 68.71,7.89C68.91,7.81 68.94,7.8 69.18,7.73C69.95,7.5 73.03,6.79 74.1,6.47C74.63,6.31 74.93,6.14 75.28,6.07C75.54,6.02 75.65,6.07 75.98,6.02C76.77,5.91 79.05,5.47 79.97,5.18C80.49,5.02 80.66,4.81 81.14,4.68C81.82,4.5 82.76,4.5 83.72,4.37C84.96,4.21 86.52,3.73 87.94,3.75C89.41,3.77 91.39,4.37 92.4,4.52C92.91,4.6 93.1,4.63 93.57,4.66C94.26,4.71 95.08,4.57 96.15,4.71C97.97,4.95 103.42,6.48 103.42,6.48C103.42,6.48 103.42,6.48 103.42,6.48C103.42,6.48 108.34,7.79 108.34,7.79C108.34,7.79 108.34,7.79 108.34,7.79C108.34,7.79 108.82,7.95 109.28,8.1C110.54,8.52 113.92,9.52 116.31,10.5C118.92,11.56 121.86,13.36 124.29,14.32C126.23,15.09 128.53,15.79 129.68,16.02C130.2,16.12 130.31,16.1 130.85,16.12C132.09,16.17 135.27,16.28 136.95,16.12C138.15,16 139.22,15.54 140,15.52C140.48,15.51 140.65,15.6 141.17,15.7C142.21,15.9 144.69,16.55 145.86,16.75C146.54,16.87 146.81,16.83 147.5,16.96C148.71,17.18 150.61,17.59 152.43,18.14C154.79,18.86 158.59,20.49 160.4,21.11C161.32,21.43 161.85,21.56 162.51,21.78C163.09,21.98 163.51,22.35 164.15,22.38C165.01,22.42 166.54,21.71 167.2,21.54C167.52,21.46 167.6,21.46 167.91,21.37C168.5,21.2 169.61,20.75 170.49,20.49C171.4,20.22 172.21,20.1 173.3,19.79C174.86,19.35 177.67,18.32 178.93,17.98C179.55,17.81 179.68,17.82 180.34,17.66C181.94,17.28 186.38,16.24 188.54,15.66C189.96,15.27 190.97,14.83 192.06,14.61C192.98,14.42 193.71,14.37 194.64,14.31C195.72,14.24 196.96,14.17 198.16,14.27C199.45,14.38 200.71,14.63 202.14,14.99C203.87,15.42 206.16,16.64 207.77,16.79C208.93,16.9 209.61,16.53 210.82,16.41C212.59,16.23 216.19,15.96 217.39,15.89C217.84,15.86 217.97,15.89 218.32,15.85C218.79,15.79 219.27,15.6 219.97,15.52C221.17,15.38 223.89,15.41 224.89,15.36C225.33,15.34 225.39,15.3 225.83,15.29C226.83,15.28 230.16,15.51 230.75,15.54C230.88,15.55 230.86,15.54 230.99,15.55C231.48,15.58 233.52,15.71 234.51,15.81C235.23,15.88 235.8,15.95 236.38,16.04C236.88,16.12 237.28,16.19 237.79,16.33C238.43,16.5 239.39,16.87 239.9,17.05C240.2,17.15 240.26,17.17 240.6,17.3C241.55,17.66 244.78,19.02 246,19.42C246.61,19.62 247.01,19.69 247.4,19.79C247.68,19.86 247.81,19.93 248.11,19.97C248.58,20.03 249.43,19.96 249.98,20.01C250.42,20.05 250.76,20.09 251.16,20.21C251.62,20.35 252.08,20.6 252.56,20.85C253.09,21.12 254.2,21.78 254.2,21.78C254.2,21.78 254.2,21.78 254.2,21.78C254.2,21.78 256.81,22.66 257.72,23.01C258.3,23.23 258.66,23.42 259.13,23.6C259.6,23.78 260.19,23.98 260.54,24.09C260.74,24.15 260.88,24.18 261.01,24.22C261.1,24.25 261.12,24.26 261.24,24.3C261.63,24.43 263.02,24.93 263.82,25.1C264.49,25.24 265.07,25.25 265.7,25.33C266.32,25.41 267.1,25.53 267.57,25.6C267.86,25.64 268.02,25.7 268.27,25.71C268.56,25.72 268.8,25.65 269.21,25.65C270.01,25.64 271.93,25.75 272.73,25.81C273.14,25.84 273.33,25.92 273.67,25.91C274.09,25.9 274.55,25.82 275.08,25.71C275.77,25.57 276.62,25.25 277.42,25.09Q278.25,24.92 280,24.72" style="vector-effect: non-scaling-stroke; fill: none; stroke: rgb(138, 44, 81); stroke-opacity: 1; stroke-width: 5px; opacity: 1;"/></g><g class="points"/><g class="text"/></g><g class="trace scatter trace8655ef" style="stroke-miterlimit: 2; opacity: 1;"><g class="fills"/><g class="errorbars"/><g class="lines"><path class="js-line" d="M0,53.6Q2.99,54.46 4.46,54.5C5.88,54.54 7.51,53.98 8.68,53.9C9.5,53.85 10.34,53.93 10.79,53.92C11,53.91 11.01,53.89 11.26,53.89C12.22,53.91 16.69,54.48 18.29,54.61C19.12,54.68 19.47,54.66 20.17,54.72C21.07,54.79 22.21,54.9 23.22,55.05C24.24,55.2 25.11,55.4 26.26,55.6C27.75,55.87 29.95,56.39 31.42,56.5C32.5,56.58 33.09,56.38 34.24,56.45C36.06,56.56 39.82,57.35 41.27,57.45C41.92,57.49 42.18,57.44 42.68,57.44C43.26,57.44 43.9,57.51 44.56,57.48C45.3,57.45 45.99,57.26 46.9,57.21C48.15,57.15 50.43,57.22 51.36,57.26C51.79,57.28 52.03,57.31 52.29,57.32C52.47,57.33 52.55,57.32 52.76,57.32C53.18,57.31 54.12,57.28 54.64,57.25C55.01,57.23 55.16,57.21 55.58,57.16C56.41,57.06 58.14,56.71 59.33,56.65C60.4,56.6 61.94,56.76 62.38,56.77C62.5,56.77 62.49,56.77 62.61,56.77C63.11,56.76 65.61,56.72 66.37,56.69C66.7,56.67 66.79,56.66 67.07,56.64C67.5,56.61 68.33,56.55 68.71,56.54C68.91,56.53 68.94,56.54 69.18,56.54C69.95,56.54 73.02,56.49 74.1,56.53C74.63,56.55 74.94,56.61 75.28,56.61C75.54,56.61 75.65,56.63 75.98,56.58C76.77,56.46 79.04,55.8 79.97,55.53C80.48,55.39 80.67,55.29 81.14,55.17C81.83,54.99 82.76,54.84 83.72,54.61C84.96,54.32 86.5,53.77 87.94,53.53C89.4,53.28 91.39,53.21 92.4,53.15C92.92,53.12 93.11,53.17 93.57,53.11C94.27,53.03 95.06,52.7 96.15,52.57C97.95,52.36 103.42,52.38 103.42,52.38C103.42,52.38 103.42,52.38 103.42,52.38C103.42,52.38 108.34,52.17 108.34,52.17C108.34,52.17 108.34,52.17 108.34,52.17C108.34,52.17 108.82,52.04 109.28,51.95C110.53,51.7 113.89,51.07 116.31,50.76C118.88,50.43 121.89,50 124.29,50.05C126.27,50.09 128.54,50.75 129.68,50.77C130.21,50.78 130.31,50.66 130.85,50.65C132.09,50.64 135.27,50.89 136.95,51.16C138.15,51.35 139.22,51.85 140,51.9C140.48,51.93 140.65,51.87 141.17,51.78C142.22,51.59 144.69,50.74 145.86,50.53C146.54,50.4 146.81,50.47 147.5,50.36C148.71,50.17 150.59,49.67 152.43,49.33C154.76,48.9 158.59,48.36 160.4,48.09C161.33,47.95 161.85,47.9 162.51,47.78C163.09,47.67 163.52,47.47 164.15,47.42C165.01,47.36 166.54,47.61 167.2,47.64C167.52,47.66 167.6,47.63 167.91,47.66C168.5,47.71 169.61,47.96 170.49,48.04C171.4,48.13 172.2,48.09 173.3,48.16C174.86,48.27 177.68,48.75 178.93,48.69C179.56,48.66 179.68,48.57 180.34,48.43C181.95,48.09 186.37,46.83 188.54,46.46C189.95,46.22 190.98,46.24 192.06,46.1C192.99,45.98 193.71,45.79 194.64,45.68C195.72,45.55 196.96,45.58 198.16,45.4C199.45,45.21 200.7,44.87 202.14,44.52C203.86,44.11 206.17,43.25 207.77,43.05C208.93,42.9 209.61,43.12 210.82,43.07C212.6,42.99 216.19,42.6 217.39,42.45C217.84,42.39 217.96,42.33 218.32,42.3C218.79,42.26 219.28,42.37 219.97,42.31C221.18,42.21 223.89,41.59 224.89,41.46C225.32,41.4 225.39,41.41 225.83,41.37C226.83,41.27 230.16,40.97 230.75,40.88C230.88,40.86 230.86,40.85 230.99,40.83C231.48,40.74 233.52,40.49 234.51,40.3C235.23,40.16 235.81,40.02 236.38,39.84C236.89,39.68 237.27,39.49 237.79,39.31C238.42,39.09 239.38,38.74 239.9,38.6C240.19,38.52 240.25,38.48 240.6,38.45C241.55,38.38 244.79,38.64 246,38.8C246.62,38.88 247.01,39 247.4,39.09C247.68,39.16 247.81,39.24 248.11,39.29C248.58,39.37 249.43,39.43 249.98,39.41C250.42,39.39 250.75,39.31 251.16,39.24C251.61,39.16 252.07,39.01 252.56,38.96C253.08,38.91 254.2,38.96 254.2,38.96C254.2,38.96 254.2,38.96 254.2,38.96C254.2,38.96 256.81,38.18 257.72,37.93C258.29,37.77 258.66,37.62 259.13,37.56C259.6,37.5 260.2,37.6 260.54,37.59C260.74,37.59 260.88,37.57 261.01,37.56C261.1,37.55 261.12,37.56 261.24,37.54C261.64,37.45 263.03,36.92 263.82,36.64C264.5,36.4 265.07,36.16 265.7,35.98C266.32,35.81 267.1,35.65 267.57,35.58C267.86,35.54 268.02,35.56 268.27,35.52C268.56,35.48 268.8,35.41 269.21,35.31C270.01,35.12 271.93,34.59 272.73,34.44C273.14,34.36 273.32,34.34 273.67,34.31C274.09,34.28 274.55,34.3 275.08,34.29C275.76,34.28 276.62,34.34 277.42,34.27Q278.26,34.2 280,33.83" style="vector-effect: non-scaling-stroke; fill: none; stroke: rgb(0, 180, 219); stroke-opacity: 1; stroke-width: 5px; opacity: 1;"/></g><g class="points"/><g class="text"/></g><g class="trace scatter trace7f73d9" style="stroke-miterlimit: 2; opacity: 1;"><g class="fills"/><g class="errorbars"/><g class="lines"><path class="js-line" d="M87.94,70.07Q91.36,66.76 92.4,66.07C92.89,65.75 93.09,65.68 93.57,65.52C94.25,65.3 95.08,65.25 96.15,65.01C97.96,64.6 103.42,63.14 103.42,63.14C103.42,63.14 103.42,63.14 103.42,63.14C103.42,63.14 108.34,62.36 108.34,62.36C108.34,62.36 108.34,62.36 108.34,62.36C108.34,62.36 108.82,62.51 109.28,62.53C110.53,62.59 113.91,62.41 116.31,62C118.91,61.56 121.9,60.57 124.29,59.88C126.27,59.31 128.53,58.32 129.68,58.18C130.2,58.12 130.31,58.24 130.85,58.26C132.09,58.31 135.27,58.39 136.95,58.33C138.14,58.29 139.22,58.18 140,58.09C140.48,58.03 140.65,58 141.17,57.91C142.21,57.74 144.7,57.3 145.86,57.06C146.55,56.92 146.8,56.78 147.5,56.68C148.7,56.5 150.59,56.51 152.43,56.35C154.77,56.14 158.59,55.66 160.4,55.47C161.33,55.37 161.85,55.25 162.51,55.27C163.09,55.29 163.52,55.47 164.15,55.53C165.01,55.61 166.54,55.56 167.2,55.61C167.52,55.63 167.6,55.69 167.91,55.7C168.5,55.72 169.61,55.54 170.49,55.54C171.41,55.54 172.2,55.71 173.3,55.71C174.85,55.71 177.68,55.38 178.93,55.38C179.56,55.38 179.68,55.43 180.34,55.46C181.94,55.53 186.38,55.69 188.54,55.74C189.96,55.77 190.98,55.71 192.06,55.79C192.99,55.86 193.71,56.12 194.64,56.15C195.72,56.18 196.95,55.88 198.16,55.87C199.45,55.86 200.7,56.16 202.14,56.11C203.86,56.05 206.18,55.41 207.77,55.39C208.94,55.38 209.61,55.71 210.82,55.71C212.6,55.7 216.2,55.22 217.39,54.97C217.85,54.87 217.96,54.78 218.32,54.68C218.79,54.55 219.27,54.39 219.97,54.3C221.17,54.14 223.89,54.16 224.89,54.11C225.33,54.09 225.39,54.08 225.83,54.05C226.83,53.99 230.16,53.78 230.75,53.75C230.88,53.74 230.86,53.75 230.99,53.74C231.48,53.71 233.52,53.56 234.51,53.41C235.24,53.3 235.8,53.09 236.38,53C236.88,52.92 237.27,52.92 237.79,52.85C238.42,52.76 239.39,52.57 239.9,52.47C240.2,52.41 240.25,52.34 240.6,52.31C241.55,52.23 244.79,52.52 246,52.57C246.62,52.6 247.01,52.59 247.4,52.62C247.68,52.64 247.82,52.72 248.11,52.71C248.59,52.7 249.43,52.49 249.98,52.4C250.42,52.32 250.75,52.24 251.16,52.19C251.61,52.14 252.08,52.15 252.56,52.1C253.09,52.04 254.2,51.85 254.2,51.85C254.2,51.85 254.2,51.85 254.2,51.85C254.2,51.85 256.8,51.06 257.72,50.91C258.29,50.82 258.66,50.88 259.13,50.83C259.6,50.78 260.2,50.65 260.54,50.61C260.74,50.59 260.88,50.57 261.01,50.57C261.1,50.57 261.12,50.59 261.24,50.58C261.64,50.56 263.03,50.25 263.82,50.2C264.49,50.16 265.08,50.28 265.7,50.25C266.33,50.22 267.1,50.06 267.57,50.02C267.86,50 268.02,50.02 268.27,49.99C268.56,49.96 268.79,49.85 269.21,49.81C270.01,49.73 271.93,49.85 272.73,49.77C273.15,49.73 273.32,49.66 273.67,49.6C274.09,49.53 274.55,49.45 275.08,49.4C275.76,49.33 276.62,49.21 277.42,49.27Q278.26,49.33 280,49.79" style="vector-effect: non-scaling-stroke; fill: none; stroke: rgb(153, 51, 0); stroke-opacity: 1; stroke-width: 5px; opacity: 1;"/></g><g class="points"/><g class="text"/></g><g class="trace scatter trace75f680" style="stroke-miterlimit: 2; opacity: 1;"><g class="fills"/><g class="errorbars"/><g class="lines"><path class="js-line" d="M0,55.87Q2.95,53.45 4.46,52.53C5.85,51.69 7.5,50.97 8.68,50.51C9.49,50.2 10.34,49.94 10.79,49.88C11,49.85 11.01,49.93 11.26,49.9C12.23,49.78 16.7,48.4 18.29,47.84C19.13,47.54 19.45,47.23 20.17,47.05C21.05,46.83 22.21,46.91 23.22,46.79C24.24,46.67 25.12,46.53 26.26,46.33C27.76,46.07 29.96,45.63 31.42,45.31C32.5,45.07 33.1,44.97 34.24,44.63C36.07,44.09 39.83,42.7 41.27,42.13C41.93,41.87 42.18,41.76 42.68,41.51C43.27,41.22 43.89,40.81 44.56,40.47C45.29,40.1 45.99,39.78 46.9,39.41C48.14,38.91 50.42,38.05 51.36,37.84C51.78,37.75 52.03,37.77 52.29,37.74C52.47,37.72 52.55,37.72 52.76,37.68C53.18,37.59 54.12,37.25 54.64,37.12C55,37.03 55.17,37.05 55.58,36.93C56.42,36.68 58.15,35.95 59.33,35.47C60.4,35.03 61.94,34.39 62.38,34.17C62.5,34.11 62.48,34.1 62.61,34.04C63.1,33.79 65.62,32.73 66.37,32.39C66.7,32.24 66.78,32.16 67.07,32.06C67.5,31.91 68.33,31.69 68.71,31.65C68.91,31.63 68.94,31.63 69.18,31.66C69.96,31.75 73.02,32.64 74.1,32.73C74.62,32.78 74.94,32.71 75.28,32.68C75.54,32.66 75.65,32.6 75.98,32.6C76.77,32.61 79.03,33.11 79.97,33.17C80.47,33.2 80.68,33.1 81.14,33.15C81.84,33.23 82.75,33.55 83.72,33.76C84.95,34.02 86.54,34.14 87.94,34.57C89.43,35.03 91.38,36.3 92.4,36.51C92.9,36.61 93.11,36.57 93.57,36.51C94.27,36.42 95.06,36.03 96.15,35.85C97.95,35.56 103.42,35.35 103.42,35.35C103.42,35.35 103.42,35.35 103.42,35.35C103.42,35.35 108.34,35.36 108.34,35.36C108.34,35.36 108.34,35.36 108.34,35.36C108.34,35.36 108.82,35.22 109.28,35.13C110.53,34.88 113.89,34.31 116.31,34.01C118.88,33.69 121.9,33.14 124.29,33.3C126.27,33.43 128.54,34.48 129.68,34.51C130.21,34.52 130.31,34.32 130.85,34.31C132.09,34.29 135.29,34.67 136.95,35.13C138.17,35.46 139.21,36.28 140,36.43C140.47,36.52 140.65,36.44 141.17,36.4C142.21,36.33 144.7,35.9 145.86,35.88C146.55,35.87 146.81,36.05 147.5,36.01C148.71,35.93 150.58,35.17 152.43,34.98C154.76,34.74 158.6,34.78 160.4,34.96C161.34,35.06 161.85,35.37 162.51,35.4C163.09,35.42 163.52,35.25 164.15,35.2C165.01,35.14 166.54,35.08 167.2,35.13C167.52,35.15 167.6,35.22 167.91,35.25C168.5,35.31 169.61,35.39 170.49,35.34C171.41,35.29 172.21,34.9 173.3,34.94C174.86,35 177.68,36.22 178.93,36.17C179.56,36.14 179.67,35.85 180.34,35.74C181.93,35.47 186.39,35.13 188.54,35.4C189.98,35.58 190.97,36.34 192.06,36.47C192.98,36.58 193.73,36.19 194.64,36.32C195.74,36.48 196.94,37.53 198.16,37.58C199.44,37.63 200.7,36.5 202.14,36.51C203.86,36.52 206.18,37.65 207.77,38.11C208.94,38.45 209.64,38.52 210.82,39.01C212.63,39.76 216.21,41.8 217.39,42.58C217.86,42.89 217.96,43.07 218.32,43.32C218.78,43.63 219.25,43.97 219.97,44.27C221.15,44.75 223.91,45.17 224.89,45.55C225.34,45.73 225.38,45.85 225.83,46.05C226.82,46.49 230.15,47.65 230.75,47.82C230.88,47.86 230.87,47.83 230.99,47.87C231.48,48.03 233.51,49.1 234.51,49.5C235.22,49.79 235.8,49.96 236.38,50.14C236.88,50.29 237.28,50.33 237.79,50.52C238.43,50.77 239.38,51.4 239.9,51.59C240.19,51.7 240.25,51.7 240.6,51.76C241.55,51.93 244.79,52.13 246,52.37C246.62,52.49 247.01,52.66 247.4,52.76C247.68,52.83 247.82,52.84 248.11,52.91C248.59,53.03 249.42,53.32 249.98,53.42C250.41,53.5 250.75,53.51 251.16,53.51C251.61,53.51 252.07,53.4 252.56,53.38C253.08,53.35 254.2,53.37 254.2,53.37C254.2,53.37 254.2,53.37 254.2,53.37C254.2,53.37 256.81,53.81 257.72,53.89C258.29,53.94 258.66,53.88 259.13,53.92C259.6,53.96 260.2,54.07 260.54,54.11C260.74,54.13 260.88,54.16 261.01,54.16C261.1,54.16 261.12,54.15 261.24,54.15C261.64,54.15 263.03,54.3 263.82,54.27C264.5,54.25 265.07,54.07 265.7,54.05C266.32,54.03 267.1,54.11 267.57,54.12C267.86,54.12 268.02,54.09 268.27,54.11C268.56,54.13 268.8,54.22 269.21,54.25C270.01,54.3 271.93,54.13 272.73,54.19C273.15,54.22 273.32,54.3 273.67,54.35C274.09,54.41 274.55,54.48 275.08,54.53C275.76,54.6 276.62,54.73 277.42,54.69Q278.26,54.64 280,54.23" style="vector-effect: non-scaling-stroke; fill: none; stroke: rgb(180, 200, 0); stroke-opacity: 1; stroke-width: 5px; opacity: 1;"/></g><g class="points"/><g class="text"/></g></g></g><g class="overplot"/><path class="xlines-above crisp" d="M0,0" style="fill: none;"/><path class="ylines-above crisp" d="M0,0" style="fill: none;"/><g class="overlines-above"/><g class="xaxislayer-above"/><g class="yaxislayer-above"/><g class="overaxes-above"/></g></g><g class="polarlayer"/><g class="smithlayer"/><g class="ternarylayer"/><g class="geolayer"/><g class="funnelarealayer"/><g class="pielayer"/><g class="iciclelayer"/><g class="treemaplayer"/><g class="sunburstlayer"/><g class="glimages"/><defs id="topdefs-856a71"><g class="clips"/></defs><g class="layer-above"><g class="imagelayer"/><g class="shapelayer"/></g><g class="infolayer"><g class="g-gtitle"><text class="gtitle" x="15" y="25" text-anchor="start" dy="0em" style="font-family: Ubuntu, verdana, arial, sans-serif; font-size: 16px; fill: rgb(233, 84, 32); opacity: 1; font-weight: normal; white-space: pre;">NRSR 2020-2023</text></g><g class="g-xtitle"/><g class="g-ytitle"/></g></svg>