<svg class="main-svg" xmlns="http://www.w3.org/2000/svg" xmlns:xlink="http://www.w3.org/1999/xlink" width="300" height="135" style="" viewBox="0 0 300 135"><rect x="0" y="0" width="300" height="135" style="fill: rgb(255, 255, 255); fill-opacity: 1;"/><defs id="defs-f46d41"><g class="clips"><clipPath id="clipf46d41xyplot" class="plotclip"><rect width="280" height="75"/></clipPath><clipPath class="axesclip" id="clipf46d41x"><rect x="10" y="0" width="280" height="135"/></clipPath><clipPath class="axesclip" id="clipf46d41y"><rect x="0" y="50" width="300" height="75"/></clipPath><clipPath class="axesclip" id="clipf46d41xy"><rect x="10" y="50" width="280" height="75"/></clipPath></g><g class="gradients"/><g class="patterns"/></defs><g class="bglayer"/><g class="layer-below"><g class="imagelayer"/><g class="shapelayer"/></g><g class="cartesianlayer"><g class="subplot xy"><g class="layer-subplot"><g class="shapelayer"/><g class="imagelayer"/></g><g class="minor-gridlayer"><g class="x"/><g class="y"/></g><g class="gridlayer"><g class="x"><path class="xgrid crisp" transform="translate(36.42,0)" d="M0,50v75" style="stroke: rgb(235, 240, 248); stroke-opacity: 1; stroke-width: 1px;"/><path class="xgrid crisp" transform="translate(115.66,0)" d="M0,50v75" style="stroke: rgb(235, 240, 248); stroke-opacity: 1; stroke-width: 1px;"/><path class="xgrid crisp" transform="translate(197.55,0)" d="M0,50v75" style="stroke: rgb(235, 240, 248); stroke-opacity: 1; stroke-width: 1px;"/><path class="xgrid crisp" transform="translate(279.43,0)" d="M0,50v75" style="stroke: rgb(235, 240, 248); stroke-opacity: 1; stroke-width: 1px;"/></g><g class="y"><path class="ygrid crisp" transform="translate(0,108.99000000000001)" d="M10,0h280" style="stroke: rgb(235, 240, 248); stroke-opacity: 1; stroke-width: 1px;"/><path class="ygrid crisp" transform="translate(0,92.97999999999999)" d="M10,0h280" style="stroke: rgb(235, 240, 248); stroke-opacity: 1; stroke-width: 1px;"/><path class="ygrid crisp" transform="translate(0,76.97)" d="M10,0h280" style="stroke: rgb(235, 240, 248); stroke-opacity: 1; stroke-width: 1px;"/><path class="ygrid crisp" transform="translate(0,60.96)" d="M10,0h280" style="stroke: rgb(235, 240, 248); stroke-opacity: 1; stroke-width: 1px;"/></g></g><g class="zerolinelayer"><path class="yzl zl crisp" transform="translate(0,125)" d="M10,0h280" style="stroke: rgb(235, 240, 248); stroke-opacity: 1; stroke-width: 2px;"/></g><path class="xlines-below"/><path class="ylines-below"/><g class="overlines-below"/><g class="xaxislayer-below"/><g class="yaxislayer-below"/><g class="overaxes-below"/><g class="plot" transform="translate(10,50)" clip-path="url(#clipf46d41xyplot)"><g class="scatterlayer mlayer"><g class="trace scatter tracebc9263" style="stroke-miterlimit: 2; opacity: 1;"><g class="fills"/><g class="errorbars"/><g class="lines"><path class="js-line" d="M0,17.68L5.28,19.12L7.92,18.64L29.06,18.8L31.7,20.56L63.4,22.32L66.04,21.84L71.32,21.36L73.96,24.08L76.6,23.6L79.25,24.88L97.74,24.4L100.38,26.01L105.66,27.13L108.3,27.29L129.43,27.45L132.08,27.45L137.36,27.29L140,24.88L145.28,23.6L147.92,23.12L161.13,22.32L163.77,21.52L184.91,20.56L187.55,19.92L192.83,19.92L195.47,18.48L200.75,18.48L203.4,14L213.96,5.67L216.6,5.67L232.45,6.31L235.09,7.11L245.66,7.27L248.3,3.75L258.87,6.15L261.51,6.15L266.79,7.11L269.43,7.75L272.08,8.87L277.36,9.67L280,9.67" style="vector-effect: none; fill: none; stroke: rgb(238, 58, 67); stroke-opacity: 1; stroke-width: 5px; opacity: 1;"/></g><g class="points"/><g class="text"/></g><g class="trace scatter trace47e413" style="stroke-miterlimit: 2; opacity: 1;"><g class="fills"/><g class="errorbars"/><g class="lines"><path class="js-line" d="M0,43.46L5.28,40.1L7.92,38.17L10.57,32.25L13.21,32.09L15.85,33.37L18.49,32.09L29.06,31.77L31.7,26.33L34.34,23.92L36.98,25.04L42.26,23.44L44.91,23.28L47.55,24.08L50.19,23.28L71.32,23.28L73.96,21.84L76.6,21.04L79.25,18.64L100.38,19.12L103.02,20.72L126.79,22.8L129.43,22.8L145.28,23.6L147.92,23.6L161.13,23.12L163.77,22L169.06,21.84L171.7,22.16L182.26,22.48L184.91,22.48L200.75,23.28L203.4,25.04L213.96,24.88L216.6,24.88L219.25,24.88L221.89,21.2L232.45,21.04L235.09,19.12L245.66,18.8L248.3,22.48L258.87,24.56L261.51,24.56L269.43,23.44L272.08,21.68L280,20.4" style="vector-effect: none; fill: none; stroke: rgb(0, 180, 219); stroke-opacity: 1; stroke-width: 5px; opacity: 1;"/></g><g class="points"/><g class="text"/></g><g class="trace scatter trace4343be" style="stroke-miterlimit: 2; opacity: 1;"><g class="fills"/><g class="errorbars"/><g class="lines"><path class="js-line" d="M0,12.08L2.64,12.08L5.28,16.24L7.92,18.64L10.57,24.08L13.21,23.92L15.85,21.2L18.49,23.92L21.13,23.92L29.06,24.08L31.7,27.29L34.34,29.21L36.98,27.77L44.91,28.25L47.55,27.61L55.47,28.25L58.11,28.25L71.32,28.73L73.96,27.29L79.25,28.25L81.89,28.25L95.09,28.09L97.74,29.37L103.02,23.12L105.66,22.48L124.15,20.24L126.79,20.24L137.36,17.68L140,19.92L147.92,21.2L150.57,21.2L161.13,22.32L163.77,24.08L169.06,24.56L171.7,24.4L190.19,24.4L192.83,24.4L200.75,25.04L203.4,27.45L213.96,34.33L216.6,34.33L219.25,34.33L221.89,37.37L232.45,37.69L235.09,38.65L248.3,38.49L256.23,34.17L272.08,34.33L277.36,34.97L280,34.97" style="vector-effect: none; fill: none; stroke: rgb(138, 44, 81); stroke-opacity: 1; stroke-width: 5px; opacity: 1;"/></g><g class="points"/><g class="text"/></g><g class="trace scatter traceff5aff" style="stroke-miterlimit: 2; opacity: 1;"><g class="fills"/><g class="errorbars"/><g class="lines"><path class="js-line" d="M0,66.67L2.64,66.67L5.28,64.59L13.21,65.23L15.85,66.35L21.13,65.23L23.77,65.23L63.4,66.19L66.04,66.51L76.6,67.15L79.25,68.12L121.51,69.08L124.15,69.4L129.43,70.36L132.08,71L161.13,72.12L163.77,72.28L203.4,73.4" style="vector-effect: none; fill: none; stroke: rgb(1, 27, 58); stroke-opacity: 1; stroke-width: 5px; opacity: 1;"/></g><g class="points"/><g class="text"/></g></g></g><g class="overplot"/><path class="xlines-above crisp" d="M0,0" style="fill: none;"/><path class="ylines-above crisp" d="M0,0" style="fill: none;"/><g class="overlines-above"/><g class="xaxislayer-above"/><g class="yaxislayer-above"/><g class="overaxes-above"/></g></g><g class="polarlayer"/><g class="smithlayer"/><g class="ternarylayer"/><g class="geolayer"/><g class="funnelarealayer"/><g class="pielayer"/><g class="iciclelayer"/><g class="treemaplayer"/><g class="sunburstlayer"/><g class="glimages"/><defs id="topdefs-f46d41"><g class="clips"/></defs><g class="layer-above"><g class="imagelayer"/><g class="shapelayer"/></g><g class="infolayer"><g class="g-gtitle"><text class="gtitle" x="15" y="25" text-anchor="start" dy="0em" style="font-family: Ubuntu, verdana, arial, sans-serif; font-size: 16px; fill: rgb(233, 84, 32); opacity: 1; font-weight: normal; white-space: pre;">Premiér/ka 2023</text></g><g class="g-xtitle"/><g class="g-ytitle"/></g></svg>