<svg class="main-svg" xmlns="http://www.w3.org/2000/svg" xmlns:xlink="http://www.w3.org/1999/xlink" width="300" height="135" style="" viewBox="0 0 300 135"><rect x="0" y="0" width="300" height="135" style="fill: rgb(255, 255, 255); fill-opacity: 1;"/><defs id="defs-562be7"><g class="clips"><clipPath id="clip562be7xyplot" class="plotclip"><rect width="280" height="75"/></clipPath><clipPath class="axesclip" id="clip562be7x"><rect x="10" y="0" width="280" height="135"/></clipPath><clipPath class="axesclip" id="clip562be7y"><rect x="0" y="50" width="300" height="75"/></clipPath><clipPath class="axesclip" id="clip562be7xy"><rect x="10" y="50" width="280" height="75"/></clipPath></g><g class="gradients"/><g class="patterns"/></defs><g class="bglayer"/><g class="layer-below"><g class="imagelayer"/><g class="shapelayer"/></g><g class="cartesianlayer"><g class="subplot xy"><g class="layer-subplot"><g class="shapelayer"/><g class="imagelayer"/></g><g class="minor-gridlayer"><g class="x"/><g class="y"/></g><g class="gridlayer"><g class="x"><path class="xgrid crisp" transform="translate(68.71000000000001,0)" d="M0,50v75" style="stroke: rgb(235, 240, 248); stroke-opacity: 1; stroke-width: 1px;"/><path class="xgrid crisp" transform="translate(131.94,0)" d="M0,50v75" style="stroke: rgb(235, 240, 248); stroke-opacity: 1; stroke-width: 1px;"/><path class="xgrid crisp" transform="translate(195.16,0)" d="M0,50v75" style="stroke: rgb(235, 240, 248); stroke-opacity: 1; stroke-width: 1px;"/><path class="xgrid crisp" transform="translate(258.39,0)" d="M0,50v75" style="stroke: rgb(235, 240, 248); stroke-opacity: 1; stroke-width: 1px;"/></g><g class="y"><path class="ygrid crisp" transform="translate(0,105.92)" d="M10,0h280" style="stroke: rgb(235, 240, 248); stroke-opacity: 1; stroke-width: 1px;"/><path class="ygrid crisp" transform="translate(0,86.85)" d="M10,0h280" style="stroke: rgb(235, 240, 248); stroke-opacity: 1; stroke-width: 1px;"/><path class="ygrid crisp" transform="translate(0,67.77)" d="M10,0h280" style="stroke: rgb(235, 240, 248); stroke-opacity: 1; stroke-width: 1px;"/></g></g><g class="zerolinelayer"><path class="yzl zl crisp" transform="translate(0,125)" d="M10,0h280" style="stroke: rgb(235, 240, 248); stroke-opacity: 1; stroke-width: 2px;"/></g><path class="xlines-below"/><path class="ylines-below"/><g class="overlines-below"/><g class="xaxislayer-below"/><g class="yaxislayer-below"/><g class="overaxes-below"/><g class="plot" transform="translate(10,50)" clip-path="url(#clip562be7xyplot)"><g class="scatterlayer mlayer"><g class="trace scatter trace0d59db" style="stroke-miterlimit: 2; opacity: 1;"><g class="fills"/><g class="errorbars"/><g class="lines"><path class="js-line" d="M0,10.23L4.52,11.68L9.03,11.25L18.06,10.35L22.58,10.06L27.1,10.74L31.61,10.06L49.68,10.35L54.19,12.36L85.81,14.26L90.32,14.26L121.94,13.17L126.45,16.22L130.97,15.98L135.48,17.09L167.1,16.66L171.61,18.59L180.65,19.67L185.16,19.99L234.84,19.44L239.35,16.82L243.87,15.48L248.39,15.48L261.94,14.91L266.45,14.91L280,13.96" style="vector-effect: none; fill: none; stroke: rgb(238, 58, 67); stroke-opacity: 1; stroke-width: 5px; opacity: 1;"/></g><g class="points"/><g class="text"/></g><g class="trace scatter trace7422ce" style="stroke-miterlimit: 2; opacity: 1;"><g class="fills"/><g class="errorbars"/><g class="lines"><path class="js-line" d="M0,3.75L4.52,3.75L9.03,7.99L13.55,10.26L18.06,16.59L22.58,16.33L27.1,13.43L31.61,16.33L36.13,16.33L49.68,16.59L54.19,20.21L58.71,22.34L63.23,21.08L90.32,21.22L94.84,21.22L121.94,21.6L126.45,19.96L135.48,20.89L140,20.89L162.58,20.68L167.1,22.57L176.13,15.04L180.65,14.42L194.19,12.79L198.71,12.79L207.74,11.73L212.26,11.48L216.77,11.48L221.29,10.16L230.32,9.02L234.84,8.25L239.35,11.1L243.87,12.24L270.97,12.81L275.48,14.72L280,13.96" style="vector-effect: none; fill: none; stroke: rgb(138, 44, 81); stroke-opacity: 1; stroke-width: 5px; opacity: 1;"/></g><g class="points"/><g class="text"/></g><g class="trace scatter trace7bc9e4" style="stroke-miterlimit: 2; opacity: 1;"><g class="fills"/><g class="errorbars"/><g class="lines"><path class="js-line" d="M0,39.38L4.52,37.92L9.03,35.06L13.55,32.78L18.06,25.88L22.58,25.66L27.1,27.35L31.61,25.66L36.13,25.66L49.68,25.2L54.19,19.04L58.71,16.33L63.23,17.87L72.26,15.69L76.77,15.42L81.29,16.43L85.81,15.48L121.94,15.45L126.45,13.73L130.97,12.96L135.48,10.03L167.1,9.33L171.61,10.75L180.65,12.73L185.16,13.23L216.77,14.48L221.29,14.31L266.45,15.48L270.97,15.48L275.48,15.48L280,13.96" style="vector-effect: none; fill: none; stroke: rgb(0, 180, 219); stroke-opacity: 1; stroke-width: 5px; opacity: 1;"/></g><g class="points"/><g class="text"/></g><g class="trace scatter tracebfd9e2" style="stroke-miterlimit: 2; opacity: 1;"><g class="fills"/><g class="errorbars"/><g class="lines"><path class="js-line" d="M0,65.45L4.52,65.45L9.03,63.1L18.06,63.35L22.58,63.81L27.1,65.1L31.61,63.81L108.39,64.73L112.9,65.34L130.97,66.11L135.48,67.04L207.74,68.09L212.26,68.44L221.29,69.53L225.81,70.27L270.97,71.38L275.48,71.57L280,71.57" style="vector-effect: none; fill: none; stroke: rgb(1, 27, 58); stroke-opacity: 1; stroke-width: 5px; opacity: 1;"/></g><g class="points"/><g class="text"/></g><g class="trace scatter trace658d8d" style="stroke-miterlimit: 2; opacity: 1;"><g class="fills"/><g class="errorbars"/><g class="lines"><path class="js-line" d="M0,72.57L280,72.9" style="vector-effect: none; fill: none; stroke: rgb(97, 162, 41); stroke-opacity: 1; stroke-width: 5px; opacity: 1;"/></g><g class="points"/><g class="text"/></g></g></g><g class="overplot"/><path class="xlines-above crisp" d="M0,0" style="fill: none;"/><path class="ylines-above crisp" d="M0,0" style="fill: none;"/><g class="overlines-above"/><g class="xaxislayer-above"/><g class="yaxislayer-above"/><g class="overaxes-above"/></g></g><g class="polarlayer"/><g class="smithlayer"/><g class="ternarylayer"/><g class="geolayer"/><g class="funnelarealayer"/><g class="pielayer"/><g class="iciclelayer"/><g class="treemaplayer"/><g class="sunburstlayer"/><g class="glimages"/><defs id="topdefs-562be7"><g class="clips"/></defs><g class="layer-above"><g class="imagelayer"/><g class="shapelayer"/></g><g class="infolayer"><g class="g-gtitle"><text class="gtitle" x="15" y="25" text-anchor="start" dy="0em" style="font-family: Ubuntu, verdana, arial, sans-serif; font-size: 16px; fill: rgb(233, 84, 32); opacity: 1; font-weight: normal; white-space: pre;">Premiér/ka 2023</text></g><g class="g-xtitle"/><g class="g-ytitle"/></g></svg>