<svg class="main-svg" xmlns="http://www.w3.org/2000/svg" xmlns:xlink="http://www.w3.org/1999/xlink" width="300" height="135" style="" viewBox="0 0 300 135"><rect x="0" y="0" width="300" height="135" style="fill: rgb(255, 255, 255); fill-opacity: 1;"/><defs id="defs-1b5c97"><g class="clips"><clipPath id="clip1b5c97xyplot" class="plotclip"><rect width="280" height="75"/></clipPath><clipPath class="axesclip" id="clip1b5c97x"><rect x="10" y="0" width="280" height="135"/></clipPath><clipPath class="axesclip" id="clip1b5c97y"><rect x="0" y="50" width="300" height="75"/></clipPath><clipPath class="axesclip" id="clip1b5c97xy"><rect x="10" y="50" width="280" height="75"/></clipPath></g><g class="gradients"/><g class="patterns"/></defs><g class="bglayer"/><g class="layer-below"><g class="imagelayer"/><g class="shapelayer"/></g><g class="cartesianlayer"><g class="subplot xy"><g class="layer-subplot"><g class="shapelayer"/><g class="imagelayer"/></g><g class="minor-gridlayer"><g class="x"/><g class="y"/></g><g class="gridlayer"><g class="x"><path class="xgrid crisp" transform="translate(40.11,0)" d="M0,50v75" style="stroke: rgb(235, 240, 248); stroke-opacity: 1; stroke-width: 1px;"/><path class="xgrid crisp" transform="translate(130.43,0)" d="M0,50v75" style="stroke: rgb(235, 240, 248); stroke-opacity: 1; stroke-width: 1px;"/><path class="xgrid crisp" transform="translate(223.76,0)" d="M0,50v75" style="stroke: rgb(235, 240, 248); stroke-opacity: 1; stroke-width: 1px;"/></g><g class="y"><path class="ygrid crisp" transform="translate(0,108.55)" d="M10,0h280" style="stroke: rgb(235, 240, 248); stroke-opacity: 1; stroke-width: 1px;"/><path class="ygrid crisp" transform="translate(0,92.09)" d="M10,0h280" style="stroke: rgb(235, 240, 248); stroke-opacity: 1; stroke-width: 1px;"/><path class="ygrid crisp" transform="translate(0,75.64)" d="M10,0h280" style="stroke: rgb(235, 240, 248); stroke-opacity: 1; stroke-width: 1px;"/><path class="ygrid crisp" transform="translate(0,59.18)" d="M10,0h280" style="stroke: rgb(235, 240, 248); stroke-opacity: 1; stroke-width: 1px;"/></g></g><g class="zerolinelayer"><path class="yzl zl crisp" transform="translate(0,125)" d="M10,0h280" style="stroke: rgb(235, 240, 248); stroke-opacity: 1; stroke-width: 2px;"/></g><path class="xlines-below"/><path class="ylines-below"/><g class="overlines-below"/><g class="xaxislayer-below"/><g class="yaxislayer-below"/><g class="overaxes-below"/><g class="plot" transform="translate(10,50)" clip-path="url(#clip1b5c97xyplot)"><g class="scatterlayer mlayer"><g class="trace scatter trace99b55d" style="stroke-miterlimit: 2; opacity: 1;"><g class="fills"/><g class="errorbars"/><g class="lines"><path class="js-line" d="M0,16.09L6.02,17.57L9.03,17.08L33.12,17.24L36.13,19.05L72.26,20.86L75.27,20.37L81.29,19.88L84.3,22.67L87.31,22.18L90.32,23.5L111.4,23L114.41,24.65L120.43,25.8L123.44,25.96L147.53,26.13L150.54,26.13L156.56,25.96L159.57,23.5L165.59,22.18L168.6,21.69L183.66,20.86L186.67,20.04L210.75,19.05L213.76,18.39L219.78,18.39L222.8,16.91L228.82,16.91L231.83,12.31L243.87,3.75L246.88,3.75L264.95,4.41L267.96,5.23L280,5.4" style="vector-effect: none; fill: none; stroke: rgb(238, 58, 67); stroke-opacity: 1; stroke-width: 5px; opacity: 1;"/></g><g class="points"/><g class="text"/></g><g class="trace scatter trace626329" style="stroke-miterlimit: 2; opacity: 1;"><g class="fills"/><g class="errorbars"/><g class="lines"><path class="js-line" d="M0,42.58L6.02,39.13L9.03,37.15L12.04,31.07L15.05,30.9L18.06,32.22L21.08,30.9L33.12,30.57L36.13,24.98L39.14,22.51L42.15,23.66L48.17,22.02L51.18,21.85L54.19,22.67L57.2,21.85L81.29,21.85L84.3,20.37L87.31,19.55L90.32,17.08L114.41,17.57L117.42,19.22L144.52,21.36L147.53,21.36L165.59,22.18L168.6,22.18L183.66,21.69L186.67,20.53L192.69,20.37L195.7,20.7L207.74,21.03L210.75,21.03L228.82,21.85L231.83,23.66L243.87,23.5L246.88,23.5L249.89,23.5L252.9,19.71L264.95,19.55L267.96,17.57L280,17.24" style="vector-effect: none; fill: none; stroke: rgb(0, 180, 219); stroke-opacity: 1; stroke-width: 5px; opacity: 1;"/></g><g class="points"/><g class="text"/></g><g class="trace scatter trace503d39" style="stroke-miterlimit: 2; opacity: 1;"><g class="fills"/><g class="errorbars"/><g class="lines"><path class="js-line" d="M0,10.33L3.01,10.33L6.02,14.61L9.03,17.08L12.04,22.67L15.05,22.51L18.06,19.71L21.08,22.51L24.09,22.51L33.12,22.67L36.13,25.96L39.14,27.94L42.15,26.46L51.18,26.95L54.19,26.29L60.22,26.95L63.23,26.95L81.29,27.45L84.3,25.96L90.32,26.95L93.33,26.95L108.39,26.79L111.4,28.1L117.42,21.69L120.43,21.03L141.51,18.72L144.52,18.72L156.56,16.09L159.57,18.39L168.6,19.71L171.61,19.71L183.66,20.86L186.67,22.67L192.69,23.17L195.7,23L216.77,23L219.78,23L225.81,23.66L228.82,23.66L237.85,29.75L240.86,31.23L243.87,33.2L246.88,33.2L249.89,33.2L252.9,36.33L264.95,36.66L267.96,37.65L280,37.65" style="vector-effect: none; fill: none; stroke: rgb(138, 44, 81); stroke-opacity: 1; stroke-width: 5px; opacity: 1;"/></g><g class="points"/><g class="text"/></g><g class="trace scatter trace44e5ad" style="stroke-miterlimit: 2; opacity: 1;"><g class="fills"/><g class="errorbars"/><g class="lines"><path class="js-line" d="M0,66.44L3.01,66.44L6.02,64.3L15.05,64.96L18.06,66.11L24.09,64.96L27.1,64.96L72.26,65.95L75.27,66.28L87.31,66.94L90.32,67.92L138.49,68.91L141.51,69.24L147.53,70.23L150.54,70.89L183.66,72.04L186.67,72.2L231.83,73.35" style="vector-effect: none; fill: none; stroke: rgb(1, 27, 58); stroke-opacity: 1; stroke-width: 5px; opacity: 1;"/></g><g class="points"/><g class="text"/></g></g></g><g class="overplot"/><path class="xlines-above crisp" d="M0,0" style="fill: none;"/><path class="ylines-above crisp" d="M0,0" style="fill: none;"/><g class="overlines-above"/><g class="xaxislayer-above"/><g class="yaxislayer-above"/><g class="overaxes-above"/></g></g><g class="polarlayer"/><g class="smithlayer"/><g class="ternarylayer"/><g class="geolayer"/><g class="funnelarealayer"/><g class="pielayer"/><g class="iciclelayer"/><g class="treemaplayer"/><g class="sunburstlayer"/><g class="glimages"/><defs id="topdefs-1b5c97"><g class="clips"/></defs><g class="layer-above"><g class="imagelayer"/><g class="shapelayer"/></g><g class="infolayer"><g class="g-gtitle"><text class="gtitle" x="15" y="25" text-anchor="start" dy="0em" style="font-family: Ubuntu, verdana, arial, sans-serif; font-size: 16px; fill: rgb(233, 84, 32); opacity: 1; font-weight: normal; white-space: pre;">Premiér/ka 2023</text></g><g class="g-xtitle"/><g class="g-ytitle"/></g></svg>