<svg class="main-svg" xmlns="http://www.w3.org/2000/svg" xmlns:xlink="http://www.w3.org/1999/xlink" width="300" height="135" style="" viewBox="0 0 300 135"><rect x="0" y="0" width="300" height="135" style="fill: rgb(255, 255, 255); fill-opacity: 1;"/><defs id="defs-091abd"><g class="clips"><clipPath id="clip091abdxyplot" class="plotclip"><rect width="280" height="75"/></clipPath><clipPath class="axesclip" id="clip091abdx"><rect x="10" y="0" width="280" height="135"/></clipPath><clipPath class="axesclip" id="clip091abdy"><rect x="0" y="50" width="300" height="75"/></clipPath><clipPath class="axesclip" id="clip091abdxy"><rect x="10" y="50" width="280" height="75"/></clipPath></g><g class="gradients"/><g class="patterns"/></defs><g class="bglayer"/><g class="layer-below"><g class="imagelayer"/><g class="shapelayer"/></g><g class="cartesianlayer"><g class="subplot xy"><g class="layer-subplot"><g class="shapelayer"/><g class="imagelayer"/></g><g class="gridlayer"><g class="x"><path class="xgrid crisp" transform="translate(78.99,0)" d="M0,50v75" style="stroke: rgb(235, 240, 248); stroke-opacity: 1; stroke-width: 1px;"/><path class="xgrid crisp" transform="translate(161.01,0)" d="M0,50v75" style="stroke: rgb(235, 240, 248); stroke-opacity: 1; stroke-width: 1px;"/><path class="xgrid crisp" transform="translate(243.03,0)" d="M0,50v75" style="stroke: rgb(235, 240, 248); stroke-opacity: 1; stroke-width: 1px;"/></g><g class="y"><path class="ygrid crisp" transform="translate(0,97.18)" d="M10,0h280" style="stroke: rgb(235, 240, 248); stroke-opacity: 1; stroke-width: 1px;"/><path class="ygrid crisp" transform="translate(0,69.35)" d="M10,0h280" style="stroke: rgb(235, 240, 248); stroke-opacity: 1; stroke-width: 1px;"/></g></g><g class="zerolinelayer"><path class="yzl zl crisp" transform="translate(0,125)" d="M10,0h280" style="stroke: rgb(235, 240, 248); stroke-opacity: 1; stroke-width: 2px;"/></g><path class="xlines-below"/><path class="ylines-below"/><g class="overlines-below"/><g class="xaxislayer-below"/><g class="yaxislayer-below"/><g class="overaxes-below"/><g class="plot" transform="translate(10,50)" clip-path="url(#clip091abdxyplot)"><g class="scatterlayer mlayer"><g class="trace scatter trace4866a9" style="stroke-miterlimit: 2; opacity: 1;"><g class="fills"/><g class="errorbars"/><g class="lines"><path class="js-line" d="M0,24.11Q2.65,19.28 4.27,18.53C5.5,17.96 7.2,18.59 8.31,18.75C9.11,18.86 9.91,19.19 10.34,19.21C10.54,19.22 10.55,19.14 10.79,19.15C11.71,19.2 16.03,20.18 17.53,20.82C18.36,21.17 18.69,21.44 19.33,21.96C20.23,22.7 21.3,23.92 22.25,25.02C23.25,26.18 24.15,27.16 25.17,28.76C26.71,31.18 28.61,36.04 30.11,38.43C31.07,39.97 31.57,40.88 32.81,42.01C34.46,43.51 38.15,45.39 39.55,46.16C40.16,46.49 40.42,46.56 40.9,46.81C41.46,47.1 42.06,47.5 42.7,47.79C43.4,48.11 44.07,48.34 44.94,48.62C46.13,49 48.31,49.59 49.21,49.77C49.62,49.85 49.86,49.88 50.11,49.88C50.29,49.88 50.36,49.83 50.56,49.83C50.96,49.82 51.86,49.95 52.36,49.96C52.71,49.97 52.86,49.9 53.26,49.94C54.06,50.01 55.71,50.62 56.85,50.69C57.87,50.75 59.36,50.46 59.78,50.43C59.89,50.42 59.88,50.43 60,50.42C60.48,50.38 62.88,50.02 63.6,49.99C63.91,49.98 64,50 64.27,50.02C64.68,50.06 65.47,50.19 65.84,50.24C66.04,50.27 66.06,50.28 66.29,50.3C67.03,50.36 69.98,50.45 71.01,50.44C71.51,50.44 71.8,50.4 72.13,50.39C72.38,50.38 72.49,50.39 72.81,50.37C73.57,50.33 75.74,50.16 76.63,50.09C77.11,50.05 77.31,50.06 77.75,50C78.41,49.92 79.3,49.75 80.22,49.57C81.41,49.34 82.92,49.11 84.27,48.73C85.69,48.33 87.57,47.49 88.54,47.19C89.03,47.04 89.21,46.99 89.66,46.91C90.32,46.79 91.11,46.84 92.13,46.6C93.88,46.19 99.1,44.21 99.1,44.21C99.1,44.21 99.1,44.21 99.1,44.21C99.1,44.21 103.82,42.24 103.82,42.24C103.82,42.24 103.82,42.24 103.82,42.24C103.82,42.24 104.28,42.36 104.72,42.39C105.92,42.47 109.17,42.6 111.46,42.21C113.96,41.78 116.85,40.74 119.1,39.72C121.04,38.84 123.16,37.16 124.27,36.67C124.76,36.45 124.87,36.49 125.39,36.32C126.58,35.94 129.63,35 131.24,34.4C132.39,33.97 133.41,33.29 134.16,33.19C134.61,33.13 134.79,33.24 135.28,33.34C136.28,33.54 138.66,34.4 139.78,34.52C140.43,34.59 140.69,34.44 141.35,34.44C142.5,34.43 144.31,34.72 146.07,34.62C148.32,34.5 151.99,33.86 153.71,33.49C154.61,33.3 155.09,33.02 155.73,32.92C156.28,32.83 156.7,32.85 157.3,32.84C158.12,32.83 159.59,32.93 160.22,32.91C160.53,32.9 160.6,32.85 160.9,32.85C161.47,32.85 162.53,32.94 163.37,33.05C164.25,33.17 165.01,33.44 166.07,33.57C167.55,33.75 170.26,33.75 171.46,33.85C172.06,33.9 172.17,33.94 172.81,34.01C174.34,34.18 178.6,34.82 180.67,34.79C182.03,34.77 183,34.44 184.04,34.35C184.93,34.27 185.63,34.25 186.52,34.22C187.56,34.18 188.73,34.21 189.89,34.14C191.12,34.07 192.33,33.96 193.71,33.79C195.36,33.59 197.57,33.13 199.1,32.98C200.22,32.87 200.86,32.93 202.02,32.85C203.72,32.74 207.16,32.41 208.31,32.3C208.75,32.26 208.87,32.24 209.21,32.2C209.66,32.15 210.12,32.12 210.79,32.05C211.94,31.93 214.56,31.58 215.51,31.51C215.92,31.48 215.99,31.53 216.4,31.49C217.35,31.41 220.55,30.87 221.12,30.79C221.25,30.77 221.23,30.78 221.35,30.76C221.82,30.7 223.77,30.43 224.72,30.27C225.41,30.16 225.96,30.05 226.52,29.94C227,29.84 227.38,29.76 227.87,29.65C228.48,29.51 229.4,29.28 229.89,29.17C230.17,29.11 230.23,29.1 230.56,29.03C231.47,28.85 234.57,28.29 235.73,28.03C236.33,27.9 236.72,27.84 237.08,27.69C237.35,27.58 237.47,27.45 237.75,27.31C238.2,27.08 239.01,26.62 239.55,26.47C239.96,26.36 240.29,26.45 240.67,26.36C241.11,26.26 241.56,26.06 242.02,25.86C242.53,25.64 243.6,25.11 243.6,25.11C243.6,25.11 243.6,25.11 243.6,25.11C243.6,25.11 246.1,24.94 246.97,24.97C247.52,24.99 247.86,25.07 248.31,25.11C248.76,25.15 249.33,25.2 249.66,25.2C249.85,25.2 249.99,25.18 250.11,25.17C250.2,25.16 250.22,25.16 250.34,25.14C250.73,25.06 252.05,24.54 252.81,24.48C253.45,24.43 254.01,24.61 254.61,24.67C255.21,24.73 255.94,24.82 256.4,24.83C256.68,24.84 256.84,24.84 257.08,24.81C257.36,24.78 257.59,24.73 257.98,24.64C258.75,24.47 260.59,24.01 261.35,23.81C261.75,23.71 261.92,23.62 262.25,23.57C262.65,23.51 263.1,23.59 263.6,23.55C264.25,23.49 265.19,23.32 265.84,23.2C266.35,23.11 266.82,23.01 267.19,22.92C267.46,22.86 267.67,22.79 267.87,22.74C268.03,22.7 268.12,22.7 268.31,22.66C268.67,22.59 269.32,22.48 269.89,22.37C270.57,22.24 271.35,22.08 272.13,21.91C272.99,21.73 274.05,21.44 274.83,21.32C275.42,21.23 275.9,21.25 276.4,21.18C276.87,21.11 277.49,20.96 277.75,20.91C277.86,20.89 277.9,20.87 277.98,20.86C278.05,20.85 278.11,20.85 278.2,20.83C278.32,20.81 278.48,20.74 278.65,20.71C278.85,20.67 279.1,20.66 279.33,20.64Q279.55,20.62 280,20.59" style="vector-effect: non-scaling-stroke; fill: none; stroke: rgb(238, 58, 67); stroke-opacity: 1; stroke-width: 5px; opacity: 1;"/></g><g class="points"/><g class="text"/></g><g class="trace scatter trace3cf9d4" style="stroke-miterlimit: 2; opacity: 1;"><g class="fills"/><g class="errorbars"/><g class="lines"><path class="js-line" d="M0,55.63Q2.86,56.41 4.27,56.45C5.63,56.49 7.19,55.98 8.31,55.91C9.1,55.86 9.91,55.94 10.34,55.93C10.54,55.92 10.55,55.9 10.79,55.9C11.71,55.91 16,56.43 17.53,56.55C18.32,56.61 18.66,56.6 19.33,56.65C20.19,56.72 21.28,56.82 22.25,56.95C23.23,57.08 24.07,57.26 25.17,57.44C26.6,57.68 28.71,58.15 30.11,58.26C31.14,58.34 31.71,58.16 32.81,58.22C34.55,58.32 38.16,59.03 39.55,59.12C40.17,59.16 40.42,59.11 40.9,59.11C41.46,59.11 42.07,59.18 42.7,59.15C43.41,59.12 44.07,58.94 44.94,58.9C46.13,58.84 48.31,58.92 49.21,58.95C49.62,58.96 49.86,58.99 50.11,59C50.29,59 50.36,59 50.56,59C50.96,58.99 51.86,58.97 52.36,58.94C52.71,58.92 52.86,58.9 53.26,58.86C54.06,58.77 55.71,58.45 56.85,58.4C57.87,58.35 59.36,58.48 59.78,58.5C59.9,58.5 59.88,58.51 60,58.51C60.48,58.52 62.88,58.46 63.6,58.43C63.91,58.42 64,58.41 64.27,58.39C64.68,58.37 65.47,58.31 65.84,58.3C66.04,58.29 66.06,58.3 66.29,58.3C67.03,58.3 69.98,58.26 71.01,58.29C71.51,58.31 71.8,58.36 72.13,58.36C72.38,58.36 72.49,58.38 72.81,58.33C73.57,58.22 75.74,57.62 76.63,57.38C77.12,57.25 77.3,57.17 77.75,57.06C78.41,56.9 79.3,56.76 80.22,56.55C81.41,56.28 82.89,55.79 84.27,55.57C85.67,55.35 87.58,55.28 88.54,55.23C89.03,55.2 89.22,55.25 89.66,55.2C90.33,55.13 91.09,54.83 92.13,54.71C93.86,54.52 99.1,54.53 99.1,54.53C99.1,54.53 99.1,54.53 99.1,54.53C99.1,54.53 103.82,54.34 103.82,54.34C103.82,54.34 103.82,54.34 103.82,54.34C103.82,54.34 104.28,54.22 104.72,54.14C105.92,53.91 109.14,53.35 111.46,53.07C113.92,52.77 116.8,52.38 119.1,52.43C120.99,52.47 123.17,53.05 124.27,53.07C124.78,53.08 124.87,52.97 125.39,52.97C126.58,52.96 129.63,53.18 131.24,53.43C132.39,53.61 133.41,54.05 134.16,54.1C134.62,54.13 134.79,54.08 135.28,53.99C136.28,53.82 138.66,53.05 139.78,52.86C140.43,52.75 140.69,52.81 141.35,52.71C142.5,52.54 144.3,52.08 146.07,51.78C148.31,51.39 151.98,50.9 153.71,50.65C154.6,50.52 155.1,50.48 155.73,50.37C156.29,50.27 156.69,50.09 157.3,50.05C158.12,49.99 159.59,50.21 160.22,50.24C160.53,50.25 160.6,50.23 160.9,50.26C161.47,50.31 162.53,50.53 163.37,50.61C164.25,50.69 165.02,50.64 166.07,50.71C167.56,50.81 170.26,51.25 171.46,51.2C172.06,51.17 172.18,51.09 172.81,50.96C174.35,50.65 178.59,49.52 180.67,49.18C182.02,48.96 183,48.98 184.04,48.85C184.93,48.74 185.63,48.57 186.52,48.47C187.56,48.35 188.74,48.38 189.89,48.22C191.13,48.05 192.33,47.73 193.71,47.42C195.36,47.04 197.57,46.27 199.1,46.09C200.21,45.96 200.86,46.16 202.02,46.11C203.72,46.04 207.16,45.69 208.31,45.55C208.75,45.5 208.87,45.44 209.21,45.41C209.66,45.38 210.13,45.47 210.79,45.42C211.95,45.33 214.56,44.77 215.51,44.65C215.92,44.6 215.99,44.61 216.4,44.57C217.35,44.48 220.55,44.21 221.12,44.12C221.25,44.1 221.23,44.09 221.35,44.07C221.81,43.99 223.77,43.77 224.72,43.59C225.42,43.46 225.97,43.33 226.52,43.17C227.01,43.03 227.37,42.86 227.87,42.69C228.47,42.49 229.4,42.17 229.89,42.04C230.17,41.97 230.23,41.93 230.56,41.91C231.47,41.85 234.57,42.06 235.73,42.2C236.33,42.27 236.71,42.37 237.08,42.45C237.34,42.51 237.47,42.59 237.75,42.63C238.2,42.7 239.02,42.74 239.55,42.72C239.97,42.7 240.28,42.63 240.67,42.56C241.1,42.49 241.55,42.34 242.02,42.29C242.52,42.24 243.6,42.26 243.6,42.26C243.6,42.26 243.6,42.26 243.6,42.26C243.6,42.26 246.1,41.52 246.97,41.28C247.52,41.13 247.86,40.98 248.31,40.92C248.76,40.86 249.33,40.92 249.66,40.9C249.85,40.89 249.98,40.86 250.11,40.85C250.2,40.84 250.23,40.86 250.34,40.83C250.73,40.74 252.05,40.2 252.81,39.92C253.46,39.68 254.01,39.45 254.61,39.26C255.2,39.08 255.94,38.89 256.4,38.8C256.68,38.74 256.84,38.75 257.08,38.7C257.36,38.64 257.59,38.56 257.98,38.44C258.75,38.21 260.58,37.59 261.35,37.38C261.74,37.27 261.92,37.24 262.25,37.17C262.65,37.09 263.09,37.04 263.6,36.94C264.25,36.82 265.19,36.64 265.84,36.47C266.35,36.34 266.82,36.19 267.19,36.04C267.46,35.93 267.67,35.79 267.87,35.69C268.03,35.61 268.12,35.58 268.31,35.49C268.67,35.33 269.31,35.04 269.89,34.81C270.57,34.54 271.36,34.31 272.13,33.97C273,33.59 274.05,32.98 274.83,32.6C275.42,32.31 275.9,32.11 276.4,31.88C276.87,31.67 277.49,31.4 277.75,31.28C277.86,31.23 277.9,31.2 277.98,31.18C278.05,31.16 278.11,31.18 278.2,31.16C278.32,31.14 278.48,31.07 278.65,31.04C278.85,31 279.1,30.98 279.33,30.95Q279.55,30.92 280,30.88" style="vector-effect: non-scaling-stroke; fill: none; stroke: rgb(0, 180, 219); stroke-opacity: 1; stroke-width: 5px; opacity: 1;"/></g><g class="points"/><g class="text"/></g><g class="trace scatter trace99118f" style="stroke-miterlimit: 2; opacity: 1;"><g class="fills"/><g class="errorbars"/><g class="lines"><path class="js-line" d="M30.11,43.45Q31.59,39.97 32.81,37.99C34.47,35.31 38.09,30.57 39.55,29.1C40.12,28.53 40.42,28.44 40.9,28.06C41.46,27.62 42.08,27.17 42.7,26.63C43.42,26.01 44.08,25.35 44.94,24.52C46.14,23.37 48.31,21.18 49.21,20.35C49.61,19.98 49.86,19.78 50.11,19.58C50.28,19.45 50.37,19.41 50.56,19.26C50.97,18.94 51.85,18.07 52.36,17.67C52.7,17.4 52.83,17.18 53.26,17.03C54.04,16.76 55.72,16.92 56.85,16.81C57.88,16.71 59.36,16.52 59.78,16.42C59.9,16.39 59.88,16.38 60,16.34C60.48,16.17 62.87,15.34 63.6,15.13C63.91,15.04 64,15.05 64.27,14.96C64.69,14.82 65.47,14.42 65.84,14.28C66.03,14.21 66.06,14.2 66.29,14.13C67.03,13.92 69.98,13.28 71.01,12.99C71.52,12.85 71.8,12.69 72.13,12.63C72.38,12.58 72.49,12.62 72.81,12.58C73.57,12.48 75.74,12.08 76.63,11.82C77.12,11.67 77.29,11.49 77.75,11.37C78.4,11.2 79.3,11.21 80.22,11.09C81.4,10.94 82.9,10.51 84.27,10.53C85.68,10.55 87.57,11.09 88.54,11.23C89.03,11.3 89.21,11.33 89.66,11.36C90.32,11.4 91.11,11.28 92.13,11.4C93.87,11.61 99.1,13 99.1,13C99.1,13 99.1,13 99.1,13C99.1,13 103.82,14.19 103.82,14.19C103.82,14.19 103.82,14.19 103.82,14.19C103.82,14.19 104.28,14.32 104.72,14.46C105.92,14.84 109.17,15.76 111.46,16.64C113.95,17.6 116.77,19.22 119.1,20.09C120.97,20.79 123.17,21.42 124.27,21.63C124.77,21.72 124.87,21.7 125.39,21.72C126.58,21.77 129.63,21.87 131.24,21.72C132.39,21.61 133.41,21.2 134.16,21.18C134.62,21.17 134.78,21.25 135.28,21.34C136.28,21.52 138.66,22.1 139.78,22.29C140.44,22.4 140.69,22.37 141.35,22.48C142.5,22.68 144.32,23.05 146.07,23.55C148.33,24.2 151.98,25.67 153.71,26.24C154.6,26.53 155.1,26.65 155.73,26.85C156.29,27.03 156.69,27.37 157.3,27.39C158.12,27.42 159.59,26.78 160.22,26.63C160.52,26.56 160.61,26.56 160.9,26.48C161.47,26.33 162.52,25.92 163.37,25.68C164.25,25.43 165.02,25.32 166.07,25.04C167.56,24.64 170.26,23.72 171.46,23.41C172.06,23.26 172.17,23.26 172.81,23.12C174.35,22.78 178.6,21.84 180.67,21.31C182.03,20.96 182.99,20.56 184.04,20.36C184.92,20.19 185.63,20.13 186.52,20.08C187.56,20.02 188.74,19.96 189.89,20.05C191.13,20.15 192.34,20.39 193.71,20.71C195.36,21.1 197.56,22.2 199.1,22.33C200.21,22.43 200.86,22.09 202.02,21.98C203.72,21.82 207.16,21.58 208.31,21.52C208.74,21.5 208.87,21.53 209.21,21.49C209.66,21.44 210.12,21.26 210.79,21.19C211.94,21.06 214.56,21.1 215.51,21.05C215.92,21.03 215.99,20.99 216.4,20.98C217.35,20.97 220.55,21.18 221.12,21.21C221.25,21.22 221.23,21.21 221.35,21.22C221.82,21.25 223.77,21.37 224.72,21.46C225.41,21.53 225.96,21.59 226.52,21.68C227,21.76 227.38,21.81 227.87,21.94C228.48,22.1 229.4,22.44 229.89,22.6C230.17,22.7 230.23,22.71 230.56,22.83C231.47,23.16 234.56,24.4 235.73,24.77C236.32,24.95 236.71,25.02 237.08,25.11C237.34,25.18 237.47,25.24 237.75,25.28C238.2,25.34 239.02,25.28 239.55,25.33C239.97,25.37 240.29,25.4 240.67,25.52C241.11,25.65 241.56,25.89 242.02,26.12C242.53,26.37 243.6,26.98 243.6,26.98C243.6,26.98 243.6,26.98 243.6,26.98C243.6,26.98 246.1,27.82 246.97,28.15C247.52,28.36 247.86,28.53 248.31,28.7C248.76,28.87 249.33,29.05 249.66,29.16C249.85,29.22 249.98,29.26 250.11,29.3C250.2,29.33 250.22,29.33 250.34,29.37C250.73,29.49 252.05,29.98 252.81,30.17C253.45,30.33 254.01,30.36 254.61,30.47C255.21,30.58 255.95,30.72 256.4,30.81C256.68,30.87 256.84,30.93 257.08,30.96C257.36,31 257.59,30.96 257.98,31C258.75,31.08 260.59,31.39 261.35,31.54C261.75,31.62 261.92,31.7 262.25,31.76C262.65,31.83 263.09,31.83 263.6,31.88C264.25,31.94 265.19,32 265.84,32.12C266.35,32.22 266.81,32.41 267.19,32.49C267.45,32.55 267.67,32.58 267.87,32.6C268.03,32.62 268.12,32.6 268.31,32.63C268.68,32.69 269.32,32.88 269.89,33.02C270.57,33.19 271.36,33.33 272.13,33.58C273,33.86 274.04,34.45 274.83,34.64C275.41,34.78 275.9,34.69 276.4,34.78C276.87,34.86 277.49,35.06 277.75,35.14C277.86,35.17 277.9,35.21 277.98,35.22C278.05,35.23 278.11,35.21 278.2,35.22C278.32,35.23 278.48,35.29 278.65,35.31C278.85,35.33 279.1,35.29 279.33,35.3Q279.55,35.31 280,35.36" style="vector-effect: non-scaling-stroke; fill: none; stroke: rgb(138, 44, 81); stroke-opacity: 1; stroke-width: 5px; opacity: 1;"/></g><g class="points"/><g class="text"/></g><g class="trace scatter trace328a26" style="stroke-miterlimit: 2; opacity: 1;"><g class="fills"/><g class="errorbars"/><g class="lines"><path class="js-line" d="M84.27,70.54Q87.54,67.55 88.54,66.92C89.01,66.63 89.2,66.56 89.66,66.42C90.31,66.22 91.1,66.18 92.13,65.96C93.87,65.59 99.1,64.27 99.1,64.27C99.1,64.27 99.1,64.27 99.1,64.27C99.1,64.27 103.82,63.57 103.82,63.57C103.82,63.57 103.82,63.57 103.82,63.57C103.82,63.57 104.28,63.7 104.72,63.72C105.92,63.78 109.16,63.6 111.46,63.23C113.94,62.83 116.81,61.95 119.1,61.32C121,60.8 123.17,59.91 124.27,59.78C124.77,59.72 124.87,59.83 125.39,59.85C126.58,59.89 129.63,59.96 131.24,59.91C132.38,59.87 133.42,59.78 134.16,59.7C134.62,59.65 134.78,59.62 135.28,59.54C136.28,59.38 138.67,58.99 139.78,58.77C140.44,58.64 140.68,58.52 141.35,58.42C142.5,58.26 144.31,58.27 146.07,58.12C148.31,57.93 151.98,57.5 153.71,57.33C154.6,57.24 155.1,57.13 155.73,57.15C156.29,57.17 156.69,57.34 157.3,57.39C158.12,57.46 159.59,57.42 160.22,57.46C160.53,57.48 160.6,57.52 160.9,57.53C161.47,57.54 162.53,57.39 163.37,57.39C164.25,57.39 165.02,57.55 166.07,57.55C167.56,57.55 170.26,57.25 171.46,57.25C172.06,57.25 172.17,57.29 172.81,57.32C174.35,57.39 178.6,57.53 180.67,57.58C182.03,57.61 183,57.55 184.04,57.62C184.93,57.68 185.63,57.93 186.52,57.95C187.56,57.98 188.73,57.7 189.89,57.69C191.12,57.68 192.33,57.95 193.71,57.91C195.35,57.86 197.58,57.28 199.1,57.26C200.22,57.25 200.86,57.56 202.02,57.55C203.72,57.54 207.16,57.1 208.31,56.87C208.75,56.78 208.87,56.7 209.21,56.61C209.66,56.5 210.12,56.35 210.79,56.27C211.94,56.13 214.56,56.15 215.51,56.1C215.92,56.08 215.99,56.07 216.4,56.04C217.35,55.98 220.55,55.8 221.12,55.77C221.25,55.76 221.23,55.77 221.35,55.76C221.82,55.73 223.77,55.6 224.72,55.46C225.42,55.36 225.96,55.18 226.52,55.09C227,55.02 227.38,55.02 227.87,54.95C228.48,54.87 229.4,54.71 229.89,54.61C230.17,54.55 230.23,54.49 230.56,54.46C231.47,54.38 234.56,54.63 235.73,54.68C236.33,54.7 236.71,54.7 237.08,54.73C237.34,54.75 237.47,54.81 237.75,54.8C238.21,54.79 239.02,54.61 239.55,54.52C239.97,54.45 240.28,54.37 240.67,54.32C241.1,54.27 241.55,54.28 242.02,54.23C242.53,54.18 243.6,54.01 243.6,54.01C243.6,54.01 243.6,54.01 243.6,54.01C243.6,54.01 246.1,53.28 246.97,53.14C247.51,53.05 247.86,53.11 248.31,53.06C248.76,53.01 249.33,52.89 249.66,52.85C249.85,52.83 249.98,52.81 250.11,52.81C250.2,52.81 250.22,52.83 250.34,52.82C250.73,52.8 252.05,52.5 252.81,52.45C253.46,52.4 254.01,52.5 254.61,52.46C255.21,52.42 255.94,52.27 256.4,52.22C256.68,52.19 256.84,52.2 257.08,52.17C257.36,52.13 257.58,52.06 257.98,52.01C258.74,51.92 260.59,51.93 261.35,51.84C261.75,51.79 261.92,51.73 262.25,51.68C262.65,51.61 263.09,51.54 263.6,51.48C264.25,51.4 265.19,51.3 265.84,51.28C266.35,51.26 266.82,51.31 267.19,51.31C267.46,51.31 267.67,51.29 267.87,51.3C268.03,51.31 268.12,51.34 268.31,51.34C268.67,51.34 269.32,51.28 269.89,51.23C270.57,51.17 271.35,51.08 272.13,51.02C272.99,50.95 274.05,50.83 274.83,50.85C275.42,50.86 275.9,51 276.4,51.01C276.87,51.02 277.49,50.93 277.75,50.91C277.86,50.9 277.9,50.9 277.98,50.9C278.05,50.9 278.11,50.91 278.2,50.91C278.32,50.92 278.49,50.91 278.65,50.93C278.85,50.95 279.1,51.02 279.33,51.04Q279.55,51.06 280,51.03" style="vector-effect: non-scaling-stroke; fill: none; stroke: rgb(153, 51, 0); stroke-opacity: 1; stroke-width: 5px; opacity: 1;"/></g><g class="points"/><g class="text"/></g><g class="trace scatter traced5a658" style="stroke-miterlimit: 2; opacity: 1;"><g class="fills"/><g class="errorbars"/><g class="lines"><path class="js-line" d="M0,5.39Q2.89,5.71 4.27,5.48C5.66,5.25 7.18,4.28 8.31,4.01C9.09,3.82 9.92,3.64 10.34,3.75C10.56,3.8 10.55,3.91 10.79,4.07C11.71,4.67 15.97,7.43 17.53,8.11C18.29,8.44 18.67,8.39 19.33,8.64C20.2,8.97 21.3,9.47 22.25,10.03C23.25,10.62 24.04,11.45 25.17,12.12C26.57,12.95 28.75,13.65 30.11,14.52C31.19,15.21 31.73,15.78 32.81,16.73C34.57,18.26 38.11,21.98 39.55,22.98C40.13,23.39 40.41,23.43 40.9,23.66C41.45,23.92 42.09,24.1 42.7,24.47C43.43,24.91 44.05,25.61 44.94,26.22C46.12,27.03 48.3,28.4 49.21,28.82C49.61,29 49.87,29 50.11,29.11C50.29,29.19 50.36,29.26 50.56,29.36C50.96,29.55 51.87,29.87 52.36,30.11C52.72,30.28 52.85,30.4 53.26,30.6C54.05,30.99 55.73,31.59 56.85,32.15C57.89,32.67 59.36,33.59 59.78,33.8C59.89,33.86 59.88,33.84 60,33.9C60.48,34.14 62.87,35.54 63.6,35.93C63.91,36.1 63.99,36.18 64.27,36.28C64.68,36.42 65.48,36.49 65.84,36.57C66.04,36.61 66.06,36.63 66.29,36.68C67.03,36.85 69.99,37.41 71.01,37.74C71.52,37.9 71.8,38.14 72.13,38.21C72.38,38.26 72.5,38.16 72.81,38.22C73.57,38.36 75.73,39.3 76.63,39.6C77.11,39.76 77.31,39.76 77.75,39.94C78.42,40.22 79.28,40.86 80.22,41.28C81.39,41.8 82.94,42.08 84.27,42.75C85.72,43.49 87.56,45.07 88.54,45.62C89.02,45.89 89.21,45.97 89.66,46.14C90.32,46.38 91.1,46.54 92.13,46.84C93.87,47.35 99.1,48.94 99.1,48.94C99.1,48.94 99.1,48.94 99.1,48.94C99.1,48.94 103.82,50.1 103.82,50.1C103.82,50.1 103.82,50.1 103.82,50.1C103.82,50.1 104.28,50.09 104.72,50.09C105.92,50.08 109.14,50.14 111.46,50.06C113.93,49.98 116.8,49.53 119.1,49.59C120.99,49.64 123.17,50.16 124.27,50.18C124.78,50.19 124.87,50.08 125.39,50.1C126.58,50.14 129.63,50.66 131.24,50.96C132.39,51.17 133.41,51.58 134.16,51.62C134.62,51.65 134.78,51.56 135.28,51.5C136.28,51.39 138.67,50.96 139.78,50.95C140.44,50.94 140.69,51.09 141.35,51.1C142.5,51.12 144.31,50.87 146.07,50.84C148.31,50.8 151.98,50.84 153.71,50.96C154.6,51.02 155.1,51.16 155.73,51.21C156.29,51.25 156.7,51.18 157.3,51.24C158.13,51.32 159.59,51.65 160.22,51.74C160.52,51.78 160.6,51.8 160.9,51.81C161.47,51.83 162.53,51.78 163.37,51.69C164.25,51.6 165.01,51.34 166.07,51.24C167.56,51.1 170.26,51.2 171.46,51.11C172.06,51.06 172.17,51.01 172.81,50.93C174.34,50.74 178.61,49.89 180.67,50.08C182.04,50.21 183,50.85 184.04,51.09C184.92,51.29 185.63,51.34 186.52,51.49C187.56,51.67 188.73,52.03 189.89,52.09C191.12,52.15 192.33,51.76 193.71,51.79C195.35,51.83 197.57,52.35 199.1,52.48C200.22,52.58 200.86,52.53 202.02,52.62C203.72,52.75 207.16,53.19 208.31,53.31C208.75,53.36 208.87,53.37 209.21,53.4C209.66,53.44 210.12,53.52 210.79,53.55C211.94,53.61 214.56,53.55 215.51,53.59C215.92,53.61 215.99,53.62 216.4,53.65C217.35,53.73 220.55,54.09 221.12,54.12C221.25,54.13 221.23,54.12 221.35,54.12C221.82,54.12 223.77,54.12 224.72,54.16C225.41,54.19 225.96,54.26 226.52,54.29C227,54.31 227.38,54.29 227.87,54.32C228.48,54.35 229.4,54.44 229.89,54.48C230.17,54.5 230.23,54.53 230.56,54.54C231.47,54.56 234.57,54.3 235.73,54.33C236.33,54.35 236.71,54.41 237.08,54.46C237.34,54.49 237.47,54.51 237.75,54.57C238.21,54.67 239.02,54.93 239.55,55.07C239.97,55.18 240.28,55.28 240.67,55.37C241.1,55.47 241.55,55.54 242.02,55.64C242.53,55.75 243.6,55.98 243.6,55.98C243.6,55.98 243.6,55.98 243.6,55.98C243.6,55.98 246.1,56.89 246.97,57.16C247.51,57.33 247.86,57.43 248.31,57.52C248.76,57.61 249.33,57.68 249.66,57.71C249.85,57.73 249.99,57.73 250.11,57.72C250.2,57.72 250.22,57.7 250.34,57.69C250.72,57.66 252.05,57.66 252.81,57.59C253.46,57.53 254.01,57.45 254.61,57.35C255.21,57.25 255.94,57.08 256.4,57.01C256.68,56.96 256.84,56.94 257.08,56.92C257.36,56.9 257.59,56.93 257.98,56.91C258.75,56.87 260.58,56.63 261.35,56.58C261.74,56.56 261.92,56.56 262.25,56.56C262.65,56.56 263.09,56.58 263.6,56.61C264.25,56.65 265.19,56.77 265.84,56.78C266.35,56.79 266.82,56.74 267.19,56.73C267.46,56.73 267.67,56.73 267.87,56.73C268.03,56.73 268.12,56.73 268.31,56.73C268.67,56.74 269.32,56.76 269.89,56.78C270.57,56.8 271.35,56.83 272.13,56.83C272.99,56.83 274.05,56.76 274.83,56.75C275.42,56.74 275.9,56.74 276.4,56.76C276.87,56.78 277.49,56.82 277.75,56.84C277.86,56.85 277.9,56.87 277.98,56.87C278.05,56.87 278.11,56.87 278.2,56.87C278.32,56.87 278.48,56.88 278.65,56.87C278.85,56.86 279.1,56.81 279.33,56.78Q279.55,56.75 280,56.69" style="vector-effect: non-scaling-stroke; fill: none; stroke: rgb(97, 162, 41); stroke-opacity: 1; stroke-width: 5px; opacity: 1;"/></g><g class="points"/><g class="text"/></g></g></g><g class="overplot"/><path class="xlines-above crisp" d="M0,0" style="fill: none;"/><path class="ylines-above crisp" d="M0,0" style="fill: none;"/><g class="overlines-above"/><g class="xaxislayer-above"/><g class="yaxislayer-above"/><g class="overaxes-above"/></g></g><g class="polarlayer"/><g class="smithlayer"/><g class="ternarylayer"/><g class="geolayer"/><g class="funnelarealayer"/><g class="pielayer"/><g class="iciclelayer"/><g class="treemaplayer"/><g class="sunburstlayer"/><g class="glimages"/><defs id="topdefs-091abd"><g class="clips"/></defs><g class="layer-above"><g class="imagelayer"/><g class="shapelayer"/></g><g class="infolayer"><g class="g-gtitle"><text class="gtitle" x="15" y="25" text-anchor="start" dy="0em" style="font-family: Ubuntu, verdana, arial, sans-serif; font-size: 16px; fill: rgb(233, 84, 32); opacity: 1; font-weight: normal; white-space: pre;">NRSR 2020-2023</text></g><g class="g-xtitle"/><g class="g-ytitle"/></g></svg>