<svg class="main-svg" xmlns="http://www.w3.org/2000/svg" xmlns:xlink="http://www.w3.org/1999/xlink" width="300" height="135" style="" viewBox="0 0 300 135"><rect x="0" y="0" width="300" height="135" style="fill: rgb(255, 255, 255); fill-opacity: 1;"/><defs id="defs-ac68dc"><g class="clips"><clipPath id="clipac68dcxyplot" class="plotclip"><rect width="280" height="75"/></clipPath><clipPath class="axesclip" id="clipac68dcx"><rect x="10" y="0" width="280" height="135"/></clipPath><clipPath class="axesclip" id="clipac68dcy"><rect x="0" y="50" width="300" height="75"/></clipPath><clipPath class="axesclip" id="clipac68dcxy"><rect x="10" y="50" width="280" height="75"/></clipPath></g><g class="gradients"/><g class="patterns"/></defs><g class="bglayer"/><g class="layer-below"><g class="imagelayer"/><g class="shapelayer"/></g><g class="cartesianlayer"><g class="subplot xy"><g class="layer-subplot"><g class="shapelayer"/><g class="imagelayer"/></g><g class="minor-gridlayer"><g class="x"/><g class="y"/></g><g class="gridlayer"><g class="x"><path class="xgrid crisp" transform="translate(34.78,0)" d="M0,50v75" style="stroke: rgb(235, 240, 248); stroke-opacity: 1; stroke-width: 1px;"/><path class="xgrid crisp" transform="translate(109.12,0)" d="M0,50v75" style="stroke: rgb(235, 240, 248); stroke-opacity: 1; stroke-width: 1px;"/><path class="xgrid crisp" transform="translate(185.93,0)" d="M0,50v75" style="stroke: rgb(235, 240, 248); stroke-opacity: 1; stroke-width: 1px;"/><path class="xgrid crisp" transform="translate(262.74,0)" d="M0,50v75" style="stroke: rgb(235, 240, 248); stroke-opacity: 1; stroke-width: 1px;"/></g><g class="y"><path class="ygrid crisp" transform="translate(0,108.99000000000001)" d="M10,0h280" style="stroke: rgb(235, 240, 248); stroke-opacity: 1; stroke-width: 1px;"/><path class="ygrid crisp" transform="translate(0,92.97999999999999)" d="M10,0h280" style="stroke: rgb(235, 240, 248); stroke-opacity: 1; stroke-width: 1px;"/><path class="ygrid crisp" transform="translate(0,76.97)" d="M10,0h280" style="stroke: rgb(235, 240, 248); stroke-opacity: 1; stroke-width: 1px;"/><path class="ygrid crisp" transform="translate(0,60.96)" d="M10,0h280" style="stroke: rgb(235, 240, 248); stroke-opacity: 1; stroke-width: 1px;"/></g></g><g class="zerolinelayer"><path class="yzl zl crisp" transform="translate(0,125)" d="M10,0h280" style="stroke: rgb(235, 240, 248); stroke-opacity: 1; stroke-width: 2px;"/></g><path class="xlines-below"/><path class="ylines-below"/><g class="overlines-below"/><g class="xaxislayer-below"/><g class="yaxislayer-below"/><g class="overaxes-below"/><g class="plot" transform="translate(10,50)" clip-path="url(#clipac68dcxyplot)"><g class="scatterlayer mlayer"><g class="trace scatter tracebc6aef" style="stroke-miterlimit: 2; opacity: 1;"><g class="fills"/><g class="errorbars"/><g class="lines"><path class="js-line" d="M0,17.68L4.96,19.12L7.43,18.64L27.26,18.8L29.73,20.56L59.47,22.32L61.95,21.84L66.9,21.36L69.38,24.08L71.86,23.6L74.34,24.88L91.68,24.4L94.16,26.01L99.12,27.13L101.59,27.29L121.42,27.45L123.89,27.45L128.85,27.29L131.33,24.88L136.28,23.6L138.76,23.12L151.15,22.32L153.63,21.52L173.45,20.56L175.93,19.92L180.88,19.92L183.36,18.48L188.32,18.48L190.8,14L200.71,5.67L203.19,5.67L218.05,6.31L220.53,7.11L230.44,7.27L232.92,3.75L242.83,6.15L245.31,6.15L250.27,7.11L252.74,7.75L255.22,8.87L260.18,9.67L280,9.67" style="vector-effect: none; fill: none; stroke: rgb(238, 58, 67); stroke-opacity: 1; stroke-width: 5px; opacity: 1;"/></g><g class="points"/><g class="text"/></g><g class="trace scatter trace2fb0b1" style="stroke-miterlimit: 2; opacity: 1;"><g class="fills"/><g class="errorbars"/><g class="lines"><path class="js-line" d="M0,43.46L4.96,40.1L7.43,38.17L9.91,32.25L12.39,32.09L14.87,33.37L17.35,32.09L27.26,31.77L29.73,26.33L32.21,23.92L34.69,25.04L39.65,23.44L42.12,23.28L44.6,24.08L47.08,23.28L66.9,23.28L69.38,21.84L71.86,21.04L74.34,18.64L94.16,19.12L96.64,20.72L118.94,22.8L121.42,22.8L136.28,23.6L138.76,23.6L151.15,23.12L153.63,22L158.58,21.84L161.06,22.16L170.97,22.48L173.45,22.48L188.32,23.28L190.8,25.04L200.71,24.88L203.19,24.88L205.66,24.88L208.14,21.2L218.05,21.04L220.53,19.12L230.44,18.8L232.92,22.48L242.83,24.56L245.31,24.56L252.74,23.44L255.22,21.68L265.13,20.4L267.61,20.4L280,20.4" style="vector-effect: none; fill: none; stroke: rgb(0, 180, 219); stroke-opacity: 1; stroke-width: 5px; opacity: 1;"/></g><g class="points"/><g class="text"/></g><g class="trace scatter tracea4b422" style="stroke-miterlimit: 2; opacity: 1;"><g class="fills"/><g class="errorbars"/><g class="lines"><path class="js-line" d="M0,12.08L2.48,12.08L4.96,16.24L7.43,18.64L9.91,24.08L12.39,23.92L14.87,21.2L17.35,23.92L19.82,23.92L27.26,24.08L29.73,27.29L32.21,29.21L34.69,27.77L42.12,28.25L44.6,27.61L52.04,28.25L54.51,28.25L66.9,28.73L69.38,27.29L74.34,28.25L76.81,28.25L89.2,28.09L91.68,29.37L96.64,23.12L99.12,22.48L116.46,20.24L118.94,20.24L128.85,17.68L131.33,19.92L138.76,21.2L141.24,21.2L151.15,22.32L153.63,24.08L158.58,24.56L161.06,24.4L178.41,24.4L180.88,24.4L188.32,25.04L190.8,27.45L200.71,34.33L203.19,34.33L205.66,34.33L208.14,37.37L218.05,37.69L220.53,38.65L232.92,38.49L240.35,34.17L255.22,34.33L260.18,34.97L280,34.97" style="vector-effect: none; fill: none; stroke: rgb(138, 44, 81); stroke-opacity: 1; stroke-width: 5px; opacity: 1;"/></g><g class="points"/><g class="text"/></g><g class="trace scatter trace3910fc" style="stroke-miterlimit: 2; opacity: 1;"><g class="fills"/><g class="errorbars"/><g class="lines"><path class="js-line" d="M0,66.67L2.48,66.67L4.96,64.59L12.39,65.23L14.87,66.35L19.82,65.23L22.3,65.23L59.47,66.19L61.95,66.51L71.86,67.15L74.34,68.12L113.98,69.08L116.46,69.4L121.42,70.36L123.89,71L151.15,72.12L153.63,72.28L190.8,73.4" style="vector-effect: none; fill: none; stroke: rgb(1, 27, 58); stroke-opacity: 1; stroke-width: 5px; opacity: 1;"/></g><g class="points"/><g class="text"/></g></g></g><g class="overplot"/><path class="xlines-above crisp" d="M0,0" style="fill: none;"/><path class="ylines-above crisp" d="M0,0" style="fill: none;"/><g class="overlines-above"/><g class="xaxislayer-above"/><g class="yaxislayer-above"/><g class="overaxes-above"/></g></g><g class="polarlayer"/><g class="smithlayer"/><g class="ternarylayer"/><g class="geolayer"/><g class="funnelarealayer"/><g class="pielayer"/><g class="iciclelayer"/><g class="treemaplayer"/><g class="sunburstlayer"/><g class="glimages"/><defs id="topdefs-ac68dc"><g class="clips"/></defs><g class="layer-above"><g class="imagelayer"/><g class="shapelayer"/></g><g class="infolayer"><g class="g-gtitle"><text class="gtitle" x="15" y="25" text-anchor="start" dy="0em" style="font-family: Ubuntu, verdana, arial, sans-serif; font-size: 16px; fill: rgb(233, 84, 32); opacity: 1; font-weight: normal; white-space: pre;">Premiér/ka 2023</text></g><g class="g-xtitle"/><g class="g-ytitle"/></g></svg>