<svg class="main-svg" xmlns="http://www.w3.org/2000/svg" xmlns:xlink="http://www.w3.org/1999/xlink" width="300" height="135" style="" viewBox="0 0 300 135"><rect x="0" y="0" width="300" height="135" style="fill: rgb(255, 255, 255); fill-opacity: 1;"/><defs id="defs-7819f4"><g class="clips"><clipPath id="clip7819f4xyplot" class="plotclip"><rect width="280" height="75"/></clipPath><clipPath class="axesclip" id="clip7819f4x"><rect x="10" y="0" width="280" height="135"/></clipPath><clipPath class="axesclip" id="clip7819f4y"><rect x="0" y="50" width="300" height="75"/></clipPath><clipPath class="axesclip" id="clip7819f4xy"><rect x="10" y="50" width="280" height="75"/></clipPath></g><g class="gradients"/><g class="patterns"/></defs><g class="bglayer"/><g class="layer-below"><g class="imagelayer"/><g class="shapelayer"/></g><g class="cartesianlayer"><g class="subplot xy"><g class="layer-subplot"><g class="shapelayer"/><g class="imagelayer"/></g><g class="gridlayer"><g class="x"><path class="xgrid crisp" transform="translate(83.91,0)" d="M0,50v75" style="stroke: rgb(235, 240, 248); stroke-opacity: 1; stroke-width: 1px;"/><path class="xgrid crisp" transform="translate(171.79,0)" d="M0,50v75" style="stroke: rgb(235, 240, 248); stroke-opacity: 1; stroke-width: 1px;"/><path class="xgrid crisp" transform="translate(259.65999999999997,0)" d="M0,50v75" style="stroke: rgb(235, 240, 248); stroke-opacity: 1; stroke-width: 1px;"/></g><g class="y"><path class="ygrid crisp" transform="translate(0,109.62)" d="M10,0h280" style="stroke: rgb(235, 240, 248); stroke-opacity: 1; stroke-width: 1px;"/><path class="ygrid crisp" transform="translate(0,94.25)" d="M10,0h280" style="stroke: rgb(235, 240, 248); stroke-opacity: 1; stroke-width: 1px;"/><path class="ygrid crisp" transform="translate(0,78.87)" d="M10,0h280" style="stroke: rgb(235, 240, 248); stroke-opacity: 1; stroke-width: 1px;"/><path class="ygrid crisp" transform="translate(0,63.5)" d="M10,0h280" style="stroke: rgb(235, 240, 248); stroke-opacity: 1; stroke-width: 1px;"/></g></g><g class="zerolinelayer"><path class="yzl zl crisp" transform="translate(0,125)" d="M10,0h280" style="stroke: rgb(235, 240, 248); stroke-opacity: 1; stroke-width: 2px;"/></g><path class="xlines-below"/><path class="ylines-below"/><g class="overlines-below"/><g class="xaxislayer-below"/><g class="yaxislayer-below"/><g class="overaxes-below"/><g class="plot" transform="translate(10,50)" clip-path="url(#clip7819f4xyplot)"><g class="scatterlayer mlayer"><g class="trace scatter trace5aefe8" style="stroke-miterlimit: 2; opacity: 1;"><g class="fills"/><g class="errorbars"/><g class="lines"><path class="js-line" d="M0,18.76Q2.82,13.41 4.57,12.59C5.89,11.97 7.72,12.66 8.91,12.83C9.76,12.95 10.6,13.32 11.07,13.34C11.29,13.35 11.3,13.26 11.56,13.27C12.56,13.32 17.18,14.41 18.78,15.12C19.67,15.51 20.03,15.8 20.71,16.38C21.67,17.19 22.82,18.55 23.83,19.76C24.9,21.05 25.87,22.13 26.96,23.9C28.62,26.58 30.65,31.95 32.26,34.59C33.29,36.28 33.82,37.29 35.15,38.54C36.91,40.19 40.87,42.28 42.37,43.13C43.02,43.5 43.31,43.58 43.82,43.85C44.42,44.17 45.05,44.61 45.74,44.93C46.49,45.28 47.21,45.53 48.15,45.84C49.43,46.26 51.77,46.92 52.73,47.11C53.16,47.2 53.42,47.23 53.69,47.23C53.88,47.23 53.96,47.18 54.17,47.18C54.6,47.17 55.57,47.31 56.1,47.33C56.47,47.34 56.64,47.27 57.06,47.31C57.92,47.39 59.69,48.07 60.91,48.14C62,48.2 63.59,47.86 64.04,47.84C64.17,47.83 64.15,47.85 64.28,47.84C64.79,47.81 67.35,47.39 68.13,47.36C68.47,47.35 68.57,47.36 68.86,47.39C69.31,47.43 70.15,47.57 70.54,47.63C70.75,47.66 70.77,47.68 71.02,47.7C71.81,47.77 74.98,47.87 76.08,47.86C76.62,47.86 76.93,47.81 77.28,47.8C77.55,47.79 77.67,47.8 78.01,47.78C78.82,47.74 81.14,47.55 82.1,47.47C82.62,47.43 82.82,47.43 83.3,47.37C84.01,47.28 84.96,47.08 85.95,46.89C87.22,46.64 88.83,46.39 90.28,45.97C91.8,45.53 93.82,44.59 94.86,44.26C95.38,44.1 95.58,44.04 96.06,43.95C96.77,43.82 97.62,43.88 98.71,43.62C100.59,43.18 106.17,40.97 106.17,40.97C106.17,40.97 106.17,40.97 106.17,40.97C106.17,40.97 111.23,38.79 111.23,38.79C111.23,38.79 111.23,38.79 111.23,38.79C111.23,38.79 111.72,38.93 112.19,38.96C113.47,39.05 116.97,39.2 119.42,38.76C122.1,38.28 125.19,37.13 127.6,36.01C129.69,35.04 131.95,33.19 133.14,32.64C133.67,32.4 133.78,32.43 134.34,32.25C135.61,31.83 138.88,30.79 140.6,30.13C141.83,29.66 142.92,28.9 143.73,28.79C144.22,28.73 144.41,28.85 144.94,28.96C146.02,29.18 148.55,30.15 149.75,30.27C150.45,30.34 150.73,30.18 151.44,30.17C152.67,30.16 154.61,30.47 156.49,30.37C158.9,30.24 162.84,29.54 164.68,29.13C165.64,28.92 166.16,28.62 166.84,28.5C167.43,28.4 167.88,28.41 168.53,28.4C169.41,28.39 170.98,28.5 171.66,28.48C171.98,28.47 172.06,28.42 172.38,28.42C172.99,28.42 174.13,28.51 175.03,28.64C175.98,28.77 176.79,29.07 177.92,29.21C179.51,29.41 182.42,29.41 183.7,29.52C184.34,29.58 184.46,29.62 185.14,29.7C186.78,29.89 191.35,30.59 193.57,30.56C195.03,30.54 196.07,30.19 197.18,30.08C198.13,29.99 198.88,29.97 199.83,29.93C200.94,29.89 202.2,29.92 203.44,29.85C204.76,29.77 206.05,29.64 207.53,29.45C209.29,29.23 211.67,28.72 213.31,28.56C214.51,28.44 215.2,28.5 216.44,28.42C218.26,28.3 221.95,27.94 223.18,27.81C223.65,27.76 223.77,27.74 224.14,27.7C224.62,27.65 225.12,27.62 225.83,27.54C227.07,27.41 229.87,27.03 230.89,26.95C231.33,26.92 231.41,26.96 231.85,26.92C232.87,26.83 236.29,26.26 236.9,26.16C237.04,26.14 237.02,26.14 237.15,26.12C237.65,26.04 239.75,25.77 240.76,25.6C241.5,25.48 242.09,25.36 242.68,25.24C243.2,25.13 243.6,25.04 244.13,24.92C244.78,24.77 245.76,24.52 246.29,24.4C246.6,24.33 246.66,24.32 247.02,24.25C248,24.05 251.3,23.45 252.55,23.17C253.19,23.03 253.61,22.96 254,22.8C254.29,22.68 254.42,22.54 254.72,22.38C255.2,22.12 256.07,21.61 256.65,21.45C257.09,21.33 257.44,21.43 257.85,21.33C258.32,21.22 258.8,21 259.29,20.78C259.84,20.54 260.98,19.92 260.98,19.92C260.98,19.92 260.98,19.92 260.98,19.92C260.98,19.92 262.77,19.8 263.63,19.83C264.45,19.86 265.34,20.02 266.04,20.08C266.58,20.13 267.13,20.19 267.48,20.19C267.68,20.19 267.83,20.16 267.96,20.15C268.05,20.14 268.08,20.15 268.2,20.12C268.61,20.02 270.03,19.28 270.85,19.2C271.54,19.13 272.14,19.37 272.78,19.47C273.42,19.56 273.9,19.71 274.7,19.77Q276.02,19.87 280,19.74" style="vector-effect: non-scaling-stroke; fill: none; stroke: rgb(238, 58, 67); stroke-opacity: 1; stroke-width: 5px; opacity: 1;"/></g><g class="points"/><g class="text"/></g><g class="trace scatter trace252ec1" style="stroke-miterlimit: 2; opacity: 1;"><g class="fills"/><g class="errorbars"/><g class="lines"><path class="js-line" d="M32.26,40.13Q33.84,36.29 35.15,34.1C36.92,31.15 40.8,25.9 42.37,24.27C42.98,23.64 43.3,23.54 43.82,23.12C44.42,22.64 45.08,22.13 45.74,21.54C46.51,20.85 47.22,20.12 48.15,19.21C49.44,17.94 51.76,15.53 52.73,14.61C53.16,14.2 53.42,13.97 53.69,13.75C53.87,13.6 53.96,13.57 54.17,13.4C54.6,13.04 55.56,12.09 56.1,11.64C56.47,11.34 56.6,11.1 57.06,10.93C57.89,10.63 59.7,10.81 60.91,10.69C62.01,10.58 63.59,10.37 64.04,10.26C64.17,10.23 64.15,10.22 64.28,10.17C64.79,9.99 67.35,9.08 68.13,8.84C68.47,8.74 68.57,8.75 68.86,8.65C69.31,8.49 70.15,8.04 70.54,7.89C70.75,7.81 70.77,7.8 71.02,7.73C71.81,7.5 74.98,6.79 76.08,6.47C76.62,6.31 76.93,6.14 77.28,6.07C77.55,6.02 77.67,6.07 78.01,6.02C78.82,5.91 81.15,5.47 82.1,5.18C82.63,5.02 82.81,4.81 83.3,4.68C84,4.5 84.96,4.5 85.95,4.37C87.22,4.21 88.82,3.73 90.28,3.75C91.79,3.77 93.82,4.37 94.86,4.52C95.39,4.6 95.58,4.63 96.06,4.66C96.77,4.71 97.61,4.57 98.71,4.71C100.58,4.95 106.17,6.48 106.17,6.48C106.17,6.48 106.17,6.48 106.17,6.48C106.17,6.48 111.23,7.79 111.23,7.79C111.23,7.79 111.23,7.79 111.23,7.79C111.23,7.79 111.72,7.95 112.19,8.1C113.48,8.52 116.96,9.52 119.42,10.5C122.09,11.56 125.11,13.36 127.6,14.32C129.6,15.09 131.96,15.79 133.14,16.02C133.68,16.12 133.78,16.1 134.34,16.12C135.61,16.17 138.88,16.28 140.6,16.12C141.83,16 142.93,15.54 143.73,15.52C144.23,15.51 144.4,15.6 144.94,15.7C146.01,15.9 148.55,16.55 149.75,16.75C150.45,16.87 150.73,16.83 151.44,16.96C152.68,17.18 154.62,17.59 156.49,18.14C158.91,18.86 162.82,20.49 164.68,21.11C165.63,21.43 166.17,21.56 166.84,21.78C167.44,21.98 167.88,22.35 168.53,22.38C169.41,22.41 170.98,21.71 171.66,21.54C171.98,21.46 172.07,21.46 172.38,21.37C172.99,21.2 174.12,20.75 175.03,20.49C175.97,20.22 176.8,20.1 177.92,19.79C179.52,19.35 182.41,18.32 183.7,17.98C184.34,17.81 184.46,17.82 185.14,17.66C186.78,17.28 191.35,16.25 193.57,15.66C195.03,15.27 196.06,14.84 197.18,14.61C198.12,14.42 198.88,14.36 199.83,14.3C200.94,14.23 202.2,14.17 203.44,14.27C204.77,14.38 206.06,14.63 207.53,14.99C209.3,15.42 211.66,16.64 213.31,16.79C214.5,16.9 215.2,16.52 216.44,16.4C218.26,16.22 221.95,15.96 223.18,15.89C223.64,15.86 223.78,15.89 224.14,15.85C224.63,15.79 225.11,15.6 225.83,15.52C227.06,15.38 229.87,15.4 230.89,15.35C231.34,15.33 231.4,15.29 231.85,15.28C232.87,15.27 236.29,15.49 236.9,15.52C237.04,15.53 237.02,15.52 237.15,15.53C237.65,15.56 239.75,15.68 240.76,15.77C241.5,15.84 242.09,15.9 242.68,15.99C243.2,16.07 243.6,16.13 244.13,16.27C244.78,16.44 245.76,16.8 246.29,16.97C246.6,17.07 246.66,17.09 247.02,17.21C248,17.56 251.29,18.89 252.55,19.28C253.18,19.47 253.6,19.53 254,19.63C254.28,19.7 254.42,19.77 254.72,19.81C255.21,19.87 256.08,19.76 256.65,19.8C257.1,19.83 257.44,19.86 257.85,19.97C258.32,20.1 258.8,20.34 259.29,20.58C259.84,20.84 260.98,21.49 260.98,21.49C260.98,21.49 260.98,21.49 260.98,21.49C260.98,21.49 262.77,22 263.63,22.3C264.46,22.59 265.34,22.99 266.04,23.24C266.58,23.43 267.13,23.6 267.48,23.7C267.68,23.76 267.83,23.78 267.96,23.82C268.05,23.85 268.08,23.86 268.2,23.89C268.61,24 270.03,24.45 270.85,24.56C271.54,24.65 272.14,24.6 272.78,24.61C273.42,24.62 273.9,24.64 274.7,24.64Q276.03,24.64 280,24.55" style="vector-effect: non-scaling-stroke; fill: none; stroke: rgb(138, 44, 81); stroke-opacity: 1; stroke-width: 5px; opacity: 1;"/></g><g class="points"/><g class="text"/></g><g class="trace scatter trace0e32f4" style="stroke-miterlimit: 2; opacity: 1;"><g class="fills"/><g class="errorbars"/><g class="lines"><path class="js-line" d="M0,53.6Q3.06,54.46 4.57,54.5C6.03,54.54 7.71,53.98 8.91,53.9C9.75,53.85 10.61,53.93 11.07,53.92C11.29,53.91 11.3,53.89 11.56,53.89C12.56,53.91 17.14,54.48 18.78,54.61C19.63,54.68 19.99,54.66 20.71,54.72C21.63,54.79 22.79,54.9 23.83,55.05C24.88,55.2 25.78,55.4 26.96,55.6C28.5,55.87 30.75,56.39 32.26,56.5C33.36,56.58 33.97,56.38 35.15,56.45C37.02,56.56 40.88,57.35 42.37,57.45C43.04,57.49 43.3,57.44 43.82,57.44C44.42,57.44 45.06,57.51 45.74,57.48C46.5,57.45 47.22,57.26 48.15,57.21C49.43,57.15 51.77,57.22 52.73,57.26C53.17,57.28 53.42,57.31 53.69,57.32C53.88,57.33 53.96,57.32 54.17,57.32C54.6,57.31 55.57,57.28 56.1,57.25C56.48,57.23 56.63,57.21 57.06,57.16C57.92,57.06 59.69,56.71 60.91,56.65C62,56.6 63.59,56.76 64.04,56.77C64.17,56.77 64.15,56.77 64.28,56.77C64.79,56.76 67.35,56.72 68.13,56.69C68.47,56.67 68.57,56.66 68.86,56.64C69.3,56.61 70.15,56.55 70.54,56.54C70.75,56.53 70.78,56.54 71.02,56.54C71.81,56.54 74.98,56.49 76.08,56.53C76.62,56.55 76.93,56.61 77.28,56.61C77.55,56.61 77.67,56.63 78.01,56.58C78.82,56.46 81.14,55.8 82.1,55.53C82.62,55.39 82.82,55.29 83.3,55.17C84.01,54.99 84.96,54.84 85.95,54.61C87.22,54.32 88.81,53.77 90.28,53.53C91.78,53.28 93.83,53.21 94.86,53.15C95.39,53.12 95.58,53.17 96.06,53.11C96.77,53.03 97.6,52.7 98.71,52.57C100.56,52.36 106.17,52.38 106.17,52.38C106.17,52.38 106.17,52.38 106.17,52.38C106.17,52.38 111.23,52.17 111.23,52.17C111.23,52.17 111.23,52.17 111.23,52.17C111.23,52.17 111.72,52.04 112.19,51.95C113.48,51.7 116.93,51.07 119.42,50.76C122.06,50.43 125.14,50 127.6,50.05C129.63,50.09 131.97,50.75 133.14,50.77C133.69,50.78 133.78,50.66 134.34,50.65C135.61,50.64 138.88,50.89 140.6,51.16C141.83,51.35 142.93,51.85 143.73,51.9C144.22,51.93 144.41,51.87 144.94,51.78C146.02,51.59 148.55,50.74 149.75,50.53C150.45,50.4 150.73,50.47 151.44,50.36C152.68,50.17 154.6,49.67 156.49,49.33C158.89,48.9 162.83,48.36 164.68,48.09C165.63,47.95 166.17,47.9 166.84,47.78C167.44,47.67 167.88,47.47 168.53,47.42C169.41,47.36 170.98,47.61 171.66,47.64C171.98,47.66 172.07,47.63 172.38,47.66C172.99,47.71 174.13,47.96 175.03,48.04C175.97,48.13 176.79,48.08 177.92,48.16C179.52,48.27 182.42,48.75 183.7,48.69C184.34,48.66 184.46,48.57 185.14,48.43C186.79,48.09 191.34,46.83 193.57,46.46C195.02,46.22 196.07,46.24 197.18,46.1C198.13,45.98 198.88,45.79 199.83,45.68C200.94,45.55 202.21,45.58 203.44,45.4C204.77,45.21 206.05,44.87 207.53,44.52C209.29,44.11 211.67,43.25 213.31,43.05C214.5,42.9 215.2,43.12 216.44,43.07C218.26,42.99 221.95,42.62 223.18,42.46C223.65,42.4 223.77,42.33 224.14,42.3C224.62,42.26 225.12,42.38 225.83,42.32C227.07,42.22 229.86,41.6 230.89,41.47C231.33,41.41 231.4,41.42 231.85,41.38C232.87,41.28 236.29,40.98 236.9,40.89C237.04,40.87 237.02,40.86 237.15,40.84C237.65,40.75 239.75,40.51 240.76,40.32C241.5,40.18 242.09,40.04 242.68,39.86C243.2,39.7 243.6,39.51 244.13,39.33C244.78,39.11 245.76,38.76 246.29,38.62C246.59,38.54 246.66,38.5 247.02,38.48C248,38.42 251.31,38.68 252.55,38.85C253.19,38.94 253.6,39.05 254,39.15C254.28,39.22 254.42,39.3 254.72,39.36C255.2,39.45 256.08,39.53 256.65,39.51C257.1,39.5 257.43,39.42 257.85,39.35C258.31,39.28 258.79,39.13 259.29,39.09C259.83,39.04 260.98,39.11 260.98,39.11C260.98,39.11 260.98,39.11 260.98,39.11C260.98,39.11 262.77,38.62 263.63,38.39C264.45,38.17 265.33,37.85 266.04,37.78C266.58,37.73 267.13,37.86 267.48,37.86C267.68,37.86 267.83,37.85 267.96,37.84C268.05,37.84 268.08,37.85 268.2,37.83C268.61,37.75 270.04,37.2 270.85,36.9C271.55,36.64 272.13,36.36 272.78,36.14C273.42,35.93 273.9,35.79 274.7,35.6Q276.02,35.28 280,34.55" style="vector-effect: non-scaling-stroke; fill: none; stroke: rgb(0, 180, 219); stroke-opacity: 1; stroke-width: 5px; opacity: 1;"/></g><g class="points"/><g class="text"/></g><g class="trace scatter trace8e97a9" style="stroke-miterlimit: 2; opacity: 1;"><g class="fills"/><g class="errorbars"/><g class="lines"><path class="js-line" d="M90.28,70.07Q93.79,66.76 94.86,66.07C95.36,65.75 95.57,65.68 96.06,65.52C96.76,65.3 97.61,65.25 98.71,65.01C100.57,64.6 106.17,63.14 106.17,63.14C106.17,63.14 106.17,63.14 106.17,63.14C106.17,63.14 111.23,62.36 111.23,62.36C111.23,62.36 111.23,62.36 111.23,62.36C111.23,62.36 111.72,62.51 112.19,62.53C113.48,62.6 116.95,62.41 119.42,62C122.08,61.56 125.15,60.57 127.6,59.88C129.63,59.3 131.96,58.32 133.14,58.18C133.68,58.12 133.78,58.24 134.34,58.26C135.61,58.31 138.87,58.39 140.6,58.33C141.82,58.29 142.93,58.18 143.73,58.09C144.23,58.03 144.4,58 144.94,57.91C146.01,57.74 148.56,57.3 149.75,57.06C150.46,56.92 150.72,56.78 151.44,56.68C152.67,56.5 154.61,56.51 156.49,56.35C158.89,56.14 162.83,55.66 164.68,55.47C165.63,55.37 166.17,55.25 166.84,55.27C167.44,55.29 167.88,55.47 168.53,55.53C169.41,55.61 170.98,55.56 171.66,55.61C171.99,55.63 172.06,55.69 172.38,55.7C172.98,55.72 174.13,55.54 175.03,55.54C175.97,55.54 176.79,55.71 177.92,55.71C179.52,55.71 182.42,55.38 183.7,55.38C184.34,55.38 184.46,55.43 185.14,55.46C186.78,55.53 191.35,55.69 193.57,55.74C195.02,55.77 196.07,55.71 197.18,55.79C198.13,55.86 198.88,56.12 199.83,56.15C200.94,56.18 202.2,55.88 203.44,55.87C204.76,55.86 206.05,56.17 207.53,56.12C209.29,56.06 211.68,55.42 213.31,55.4C214.51,55.38 215.2,55.72 216.44,55.71C218.26,55.7 221.96,55.22 223.18,54.97C223.65,54.87 223.77,54.78 224.14,54.68C224.62,54.55 225.11,54.4 225.83,54.31C227.06,54.15 229.87,54.17 230.89,54.12C231.34,54.1 231.4,54.09 231.85,54.06C232.87,54 236.29,53.77 236.9,53.75C237.04,53.75 237.02,53.76 237.15,53.75C237.65,53.73 239.75,53.57 240.76,53.42C241.5,53.31 242.08,53.1 242.68,53.01C243.19,52.93 243.6,52.94 244.13,52.87C244.78,52.78 245.76,52.59 246.29,52.49C246.6,52.43 246.66,52.36 247.02,52.33C248,52.25 251.3,52.55 252.55,52.61C253.19,52.64 253.6,52.64 254,52.67C254.28,52.69 254.42,52.76 254.72,52.76C255.21,52.75 256.08,52.55 256.65,52.46C257.1,52.39 257.43,52.3 257.85,52.25C258.31,52.2 258.79,52.21 259.29,52.16C259.83,52.11 260.98,51.93 260.98,51.93C260.98,51.93 260.98,51.93 260.98,51.93C260.98,51.93 262.76,51.36 263.63,51.23C264.45,51.1 265.34,51.18 266.04,51.11C266.58,51.06 267.13,50.94 267.48,50.9C267.68,50.88 267.83,50.86 267.96,50.86C268.05,50.86 268.08,50.89 268.2,50.89C268.61,50.89 270.04,50.57 270.85,50.57C271.54,50.57 272.14,50.77 272.78,50.79C273.42,50.81 273.9,50.65 274.7,50.68Q276.03,50.73 280,51.39" style="vector-effect: non-scaling-stroke; fill: none; stroke: rgb(153, 51, 0); stroke-opacity: 1; stroke-width: 5px; opacity: 1;"/></g><g class="points"/><g class="text"/></g><g class="trace scatter traceb401dd" style="stroke-miterlimit: 2; opacity: 1;"><g class="fills"/><g class="errorbars"/><g class="lines"><path class="js-line" d="M0,55.87Q3.02,53.44 4.57,52.53C5.99,51.69 7.7,50.97 8.91,50.51C9.74,50.2 10.6,49.94 11.07,49.88C11.29,49.85 11.3,49.93 11.56,49.9C12.56,49.78 17.15,48.4 18.78,47.84C19.64,47.54 19.97,47.23 20.71,47.05C21.61,46.83 22.79,46.91 23.83,46.79C24.87,46.67 25.78,46.53 26.96,46.33C28.5,46.07 30.76,45.63 32.26,45.31C33.37,45.07 33.98,44.97 35.15,44.63C37.03,44.09 40.89,42.7 42.37,42.13C43.04,41.87 43.31,41.76 43.82,41.51C44.42,41.22 45.06,40.8 45.74,40.47C46.49,40.1 47.21,39.78 48.15,39.41C49.42,38.91 51.76,38.05 52.73,37.84C53.16,37.74 53.43,37.77 53.69,37.74C53.88,37.72 53.96,37.72 54.17,37.68C54.6,37.59 55.57,37.25 56.1,37.12C56.47,37.03 56.64,37.05 57.06,36.93C57.92,36.68 59.7,35.95 60.91,35.47C62.01,35.03 63.59,34.38 64.04,34.17C64.17,34.11 64.15,34.1 64.28,34.04C64.79,33.79 67.35,32.73 68.13,32.39C68.47,32.24 68.56,32.16 68.86,32.06C69.3,31.91 70.15,31.69 70.54,31.65C70.75,31.63 70.78,31.63 71.02,31.66C71.82,31.75 74.97,32.64 76.08,32.73C76.61,32.77 76.93,32.71 77.28,32.68C77.55,32.66 77.67,32.59 78.01,32.6C78.82,32.61 81.14,33.11 82.1,33.17C82.62,33.2 82.83,33.1 83.3,33.15C84.01,33.23 84.96,33.55 85.95,33.76C87.21,34.02 88.84,34.14 90.28,34.57C91.81,35.03 93.81,36.3 94.86,36.51C95.38,36.61 95.59,36.57 96.06,36.51C96.78,36.42 97.59,36.03 98.71,35.85C100.56,35.56 106.17,35.35 106.17,35.35C106.17,35.35 106.17,35.35 106.17,35.35C106.17,35.35 111.23,35.36 111.23,35.36C111.23,35.36 111.23,35.36 111.23,35.36C111.23,35.36 111.72,35.22 112.19,35.13C113.47,34.88 116.93,34.31 119.42,34.01C122.06,33.69 125.15,33.14 127.6,33.3C129.64,33.43 131.97,34.48 133.14,34.51C133.68,34.52 133.78,34.32 134.34,34.31C135.61,34.29 138.9,34.67 140.6,35.13C141.85,35.46 142.92,36.28 143.73,36.43C144.22,36.52 144.4,36.44 144.94,36.4C146.01,36.33 148.56,35.9 149.75,35.88C150.46,35.87 150.73,36.05 151.44,36.01C152.68,35.93 154.59,35.17 156.49,34.98C158.88,34.74 162.83,34.78 164.68,34.96C165.64,35.06 166.16,35.37 166.84,35.4C167.44,35.42 167.88,35.25 168.53,35.2C169.41,35.14 170.99,35.08 171.66,35.13C171.99,35.15 172.06,35.22 172.38,35.25C172.98,35.31 174.13,35.39 175.03,35.34C175.97,35.29 176.8,34.9 177.92,34.94C179.52,35 182.42,36.22 183.7,36.17C184.34,36.14 184.45,35.85 185.14,35.74C186.77,35.47 191.36,35.13 193.57,35.4C195.04,35.58 196.06,36.34 197.18,36.47C198.12,36.58 198.89,36.19 199.83,36.32C200.96,36.48 202.19,37.53 203.44,37.58C204.75,37.63 206.05,36.5 207.53,36.51C209.29,36.52 211.68,37.65 213.31,38.11C214.51,38.45 215.23,38.51 216.44,39C218.29,39.75 221.97,41.8 223.18,42.58C223.66,42.89 223.76,43.07 224.14,43.32C224.61,43.63 225.09,43.98 225.83,44.27C227.04,44.75 229.88,45.16 230.89,45.54C231.35,45.71 231.39,45.84 231.85,46.04C232.86,46.48 236.28,47.65 236.9,47.81C237.03,47.84 237.02,47.81 237.15,47.85C237.66,48 239.74,49.08 240.76,49.48C241.49,49.77 242.08,49.95 242.68,50.13C243.19,50.28 243.61,50.32 244.13,50.51C244.79,50.76 245.75,51.39 246.29,51.58C246.59,51.69 246.66,51.69 247.02,51.75C248,51.92 251.31,52.12 252.55,52.35C253.2,52.47 253.6,52.64 254,52.74C254.28,52.81 254.42,52.82 254.72,52.89C255.21,53.01 256.08,53.31 256.65,53.41C257.09,53.49 257.43,53.5 257.85,53.5C258.31,53.49 258.79,53.39 259.29,53.36C259.83,53.33 260.98,53.34 260.98,53.34C260.98,53.34 260.98,53.34 260.98,53.34C260.98,53.34 262.77,53.66 263.63,53.73C264.45,53.8 265.34,53.72 266.04,53.78C266.58,53.82 267.13,53.94 267.48,53.98C267.68,54 267.83,54.03 267.96,54.03C268.05,54.03 268.08,54.01 268.2,54.01C268.61,54 270.04,54.17 270.85,54.11C271.55,54.06 272.13,53.82 272.78,53.75C273.42,53.68 273.9,53.79 274.7,53.71Q276.03,53.58 280,52.74" style="vector-effect: non-scaling-stroke; fill: none; stroke: rgb(180, 200, 0); stroke-opacity: 1; stroke-width: 5px; opacity: 1;"/></g><g class="points"/><g class="text"/></g></g></g><g class="overplot"/><path class="xlines-above crisp" d="M0,0" style="fill: none;"/><path class="ylines-above crisp" d="M0,0" style="fill: none;"/><g class="overlines-above"/><g class="xaxislayer-above"/><g class="yaxislayer-above"/><g class="overaxes-above"/></g></g><g class="polarlayer"/><g class="smithlayer"/><g class="ternarylayer"/><g class="geolayer"/><g class="funnelarealayer"/><g class="pielayer"/><g class="iciclelayer"/><g class="treemaplayer"/><g class="sunburstlayer"/><g class="glimages"/><defs id="topdefs-7819f4"><g class="clips"/></defs><g class="layer-above"><g class="imagelayer"/><g class="shapelayer"/></g><g class="infolayer"><g class="g-gtitle"><text class="gtitle" x="15" y="25" text-anchor="start" dy="0em" style="font-family: Ubuntu, verdana, arial, sans-serif; font-size: 16px; fill: rgb(233, 84, 32); opacity: 1; font-weight: normal; white-space: pre;">NRSR 2020-2023</text></g><g class="g-xtitle"/><g class="g-ytitle"/></g></svg>