<svg class="main-svg" xmlns="http://www.w3.org/2000/svg" xmlns:xlink="http://www.w3.org/1999/xlink" width="300" height="135" style="" viewBox="0 0 300 135"><rect x="0" y="0" width="300" height="135" style="fill: rgb(255, 255, 255); fill-opacity: 1;"/><defs id="defs-203059"><g class="clips"><clipPath id="clip203059xyplot" class="plotclip"><rect width="280" height="75"/></clipPath><clipPath class="axesclip" id="clip203059x"><rect x="10" y="0" width="280" height="135"/></clipPath><clipPath class="axesclip" id="clip203059y"><rect x="0" y="50" width="300" height="75"/></clipPath><clipPath class="axesclip" id="clip203059xy"><rect x="10" y="50" width="280" height="75"/></clipPath></g><g class="gradients"/><g class="patterns"/></defs><g class="bglayer"/><g class="layer-below"><g class="imagelayer"/><g class="shapelayer"/></g><g class="cartesianlayer"><g class="subplot xy"><g class="layer-subplot"><g class="shapelayer"/><g class="imagelayer"/></g><g class="minor-gridlayer"><g class="x"/><g class="y"/></g><g class="gridlayer"><g class="x"><path class="xgrid crisp" transform="translate(57.89,0)" d="M0,50v75" style="stroke: rgb(235, 240, 248); stroke-opacity: 1; stroke-width: 1px;"/><path class="xgrid crisp" transform="translate(109.47,0)" d="M0,50v75" style="stroke: rgb(235, 240, 248); stroke-opacity: 1; stroke-width: 1px;"/><path class="xgrid crisp" transform="translate(161.05,0)" d="M0,50v75" style="stroke: rgb(235, 240, 248); stroke-opacity: 1; stroke-width: 1px;"/><path class="xgrid crisp" transform="translate(212.63,0)" d="M0,50v75" style="stroke: rgb(235, 240, 248); stroke-opacity: 1; stroke-width: 1px;"/><path class="xgrid crisp" transform="translate(264.21000000000004,0)" d="M0,50v75" style="stroke: rgb(235, 240, 248); stroke-opacity: 1; stroke-width: 1px;"/></g><g class="y"><path class="ygrid crisp" transform="translate(0,106.9)" d="M10,0h280" style="stroke: rgb(235, 240, 248); stroke-opacity: 1; stroke-width: 1px;"/><path class="ygrid crisp" transform="translate(0,88.8)" d="M10,0h280" style="stroke: rgb(235, 240, 248); stroke-opacity: 1; stroke-width: 1px;"/><path class="ygrid crisp" transform="translate(0,70.69)" d="M10,0h280" style="stroke: rgb(235, 240, 248); stroke-opacity: 1; stroke-width: 1px;"/><path class="ygrid crisp" transform="translate(0,52.59)" d="M10,0h280" style="stroke: rgb(235, 240, 248); stroke-opacity: 1; stroke-width: 1px;"/></g></g><g class="zerolinelayer"><path class="yzl zl crisp" transform="translate(0,125)" d="M10,0h280" style="stroke: rgb(235, 240, 248); stroke-opacity: 1; stroke-width: 2px;"/></g><path class="xlines-below"/><path class="ylines-below"/><g class="overlines-below"/><g class="xaxislayer-below"/><g class="yaxislayer-below"/><g class="overaxes-below"/><g class="plot" transform="translate(10,50)" clip-path="url(#clip203059xyplot)"><g class="scatterlayer mlayer"><g class="trace scatter trace42364a" style="stroke-miterlimit: 2; opacity: 1;"><g class="fills"/><g class="errorbars"/><g class="lines"><path class="js-line" d="M0,10.2L7.37,11.83L11.05,11.24L33.16,11.21L36.84,11.21L40.53,11.38L44.21,13.42L73.68,15.36L77.37,15.36L99.47,14.23L103.16,17.4L106.84,16.96L110.53,18.21L136.32,17.69L140,19.55L147.37,20.99L151.05,21.11L191.58,21.06L195.26,18.33L198.95,16.88L202.63,16.88L213.68,16.35L217.37,16.35L224.74,15.55L228.42,14.66L239.47,15.08L243.16,14.54L268.95,13.45L272.63,11.1L280,11.1" style="vector-effect: none; fill: none; stroke: rgb(238, 58, 67); stroke-opacity: 1; stroke-width: 5px; opacity: 1;"/></g><g class="points"/><g class="text"/></g><g class="trace scatter traceed19d3" style="stroke-miterlimit: 2; opacity: 1;"><g class="fills"/><g class="errorbars"/><g class="lines"><path class="js-line" d="M0,39.4L7.37,35.52L11.05,33.46L14.74,26.58L18.42,26.42L22.11,27.91L25.79,26.42L40.53,26.07L44.21,19.92L47.89,17.25L51.58,18.43L58.95,16.74L62.63,16.48L66.32,17.38L70,16.48L99.47,16.66L103.16,14.93L106.84,14L110.53,11.39L140,11.8L143.68,13.57L169.47,16.03L173.16,15.92L224.74,16.25L228.42,15.02L235.79,15.45L239.47,15.99L250.53,16.53L254.21,16.53L280,16.53" style="vector-effect: none; fill: none; stroke: rgb(0, 180, 219); stroke-opacity: 1; stroke-width: 5px; opacity: 1;"/></g><g class="points"/><g class="text"/></g><g class="trace scatter trace720a50" style="stroke-miterlimit: 2; opacity: 1;"><g class="fills"/><g class="errorbars"/><g class="lines"><path class="js-line" d="M0,3.81L3.68,3.75L7.37,8.49L11.05,11.24L14.74,17.52L18.42,17.33L22.11,14.19L25.79,17.33L29.47,17.33L40.53,17.47L44.21,21L47.89,23.28L51.58,21.57L62.63,22.11L66.32,21.54L77.37,22.11L81.05,22.11L99.47,22.66L103.16,21.01L110.53,22.21L114.21,22.21L132.63,21.97L136.32,23.47L143.68,16.32L147.37,15.64L169.47,13.12L173.16,13L180.53,11.9L184.21,11.1L191.58,10.17L195.26,12.56L202.63,13.73L206.32,14.25L221.05,14.25L224.74,15.55L232.11,18.52L235.79,18.52L280,18.52" style="vector-effect: none; fill: none; stroke: rgb(138, 44, 81); stroke-opacity: 1; stroke-width: 5px; opacity: 1;"/></g><g class="points"/><g class="text"/></g><g class="trace scatter traceff78f8" style="stroke-miterlimit: 2; opacity: 1;"><g class="fills"/><g class="errorbars"/><g class="lines"><path class="js-line" d="M0,65.57L3.68,65.56L7.37,63.15L18.42,64.03L22.11,65.33L29.47,64.03L33.16,64.03L88.42,65.03L92.11,65.44L106.84,66.12L110.53,67.17L169.47,68.31L173.16,68.65L180.53,69.83L184.21,70.35L221.05,71.5L224.74,71.64L250.53,72.47L254.21,72.47L280,72.83" style="vector-effect: none; fill: none; stroke: rgb(1, 27, 58); stroke-opacity: 1; stroke-width: 5px; opacity: 1;"/></g><g class="points"/><g class="text"/></g></g></g><g class="overplot"/><path class="xlines-above crisp" d="M0,0" style="fill: none;"/><path class="ylines-above crisp" d="M0,0" style="fill: none;"/><g class="overlines-above"/><g class="xaxislayer-above"/><g class="yaxislayer-above"/><g class="overaxes-above"/></g></g><g class="polarlayer"/><g class="smithlayer"/><g class="ternarylayer"/><g class="geolayer"/><g class="funnelarealayer"/><g class="pielayer"/><g class="iciclelayer"/><g class="treemaplayer"/><g class="sunburstlayer"/><g class="glimages"/><defs id="topdefs-203059"><g class="clips"/></defs><g class="layer-above"><g class="imagelayer"/><g class="shapelayer"/></g><g class="infolayer"><g class="g-gtitle"><text class="gtitle" x="15" y="25" text-anchor="start" dy="0em" style="font-family: Ubuntu, verdana, arial, sans-serif; font-size: 16px; fill: rgb(233, 84, 32); opacity: 1; font-weight: normal; white-space: pre;">Premiér/ka 2023</text></g><g class="g-xtitle"/><g class="g-ytitle"/></g></svg>