<svg class="main-svg" xmlns="http://www.w3.org/2000/svg" xmlns:xlink="http://www.w3.org/1999/xlink" width="300" height="135" style="" viewBox="0 0 300 135"><rect x="0" y="0" width="300" height="135" style="fill: rgb(255, 255, 255); fill-opacity: 1;"/><defs id="defs-8f61ee"><g class="clips"><clipPath id="clip8f61eexyplot" class="plotclip"><rect width="280" height="75"/></clipPath><clipPath class="axesclip" id="clip8f61eex"><rect x="10" y="0" width="280" height="135"/></clipPath><clipPath class="axesclip" id="clip8f61eey"><rect x="0" y="50" width="300" height="75"/></clipPath><clipPath class="axesclip" id="clip8f61eexy"><rect x="10" y="50" width="280" height="75"/></clipPath></g><g class="gradients"/><g class="patterns"/></defs><g class="bglayer"/><g class="layer-below"><g class="imagelayer"/><g class="shapelayer"/></g><g class="cartesianlayer"><g class="subplot xy"><g class="layer-subplot"><g class="shapelayer"/><g class="imagelayer"/></g><g class="minor-gridlayer"><g class="x"/><g class="y"/></g><g class="gridlayer"><g class="x"><path class="xgrid crisp" transform="translate(75.97,0)" d="M0,50v75" style="stroke: rgb(235, 240, 248); stroke-opacity: 1; stroke-width: 1px;"/><path class="xgrid crisp" transform="translate(154.41,0)" d="M0,50v75" style="stroke: rgb(235, 240, 248); stroke-opacity: 1; stroke-width: 1px;"/><path class="xgrid crisp" transform="translate(232.84,0)" d="M0,50v75" style="stroke: rgb(235, 240, 248); stroke-opacity: 1; stroke-width: 1px;"/></g><g class="y"><path class="ygrid crisp" transform="translate(0,97.18)" d="M10,0h280" style="stroke: rgb(235, 240, 248); stroke-opacity: 1; stroke-width: 1px;"/><path class="ygrid crisp" transform="translate(0,69.35)" d="M10,0h280" style="stroke: rgb(235, 240, 248); stroke-opacity: 1; stroke-width: 1px;"/></g></g><g class="zerolinelayer"><path class="yzl zl crisp" transform="translate(0,125)" d="M10,0h280" style="stroke: rgb(235, 240, 248); stroke-opacity: 1; stroke-width: 2px;"/></g><path class="xlines-below"/><path class="ylines-below"/><g class="overlines-below"/><g class="xaxislayer-below"/><g class="yaxislayer-below"/><g class="overaxes-below"/><g class="plot" transform="translate(10,50)" clip-path="url(#clip8f61eexyplot)"><g class="scatterlayer mlayer"><g class="trace scatter trace9dbc04" style="stroke-miterlimit: 2; opacity: 1;"><g class="fills"/><g class="errorbars"/><g class="lines"><path class="js-line" d="M0,24.11Q2.51,19.27 4.08,18.53C5.25,17.98 6.89,18.59 7.95,18.75C8.71,18.86 9.47,19.19 9.88,19.21C10.07,19.22 10.08,19.14 10.31,19.15C11.19,19.2 15.33,20.18 16.76,20.82C17.56,21.17 17.87,21.44 18.48,21.96C19.34,22.7 20.36,23.93 21.27,25.02C22.23,26.18 23.09,27.17 24.07,28.76C25.55,31.18 27.37,36.03 28.8,38.43C29.72,39.96 30.18,40.88 31.37,42.01C32.94,43.5 36.48,45.39 37.82,46.16C38.4,46.49 38.65,46.56 39.11,46.81C39.65,47.1 40.21,47.5 40.83,47.79C41.5,48.11 42.14,48.34 42.98,48.62C44.12,49 46.2,49.59 47.06,49.77C47.45,49.85 47.68,49.88 47.92,49.88C48.09,49.88 48.16,49.83 48.35,49.83C48.73,49.82 49.59,49.95 50.07,49.96C50.41,49.97 50.55,49.9 50.93,49.94C51.7,50.01 53.28,50.62 54.37,50.69C55.34,50.75 56.75,50.46 57.16,50.43C57.27,50.42 57.26,50.43 57.38,50.42C57.84,50.38 60.12,50.02 60.81,49.99C61.11,49.98 61.2,49.99 61.46,50.02C61.86,50.06 62.61,50.19 62.96,50.24C63.15,50.27 63.17,50.28 63.39,50.3C64.1,50.36 66.91,50.45 67.9,50.44C68.38,50.44 68.67,50.4 68.98,50.39C69.22,50.38 69.32,50.39 69.62,50.37C70.34,50.33 72.42,50.16 73.28,50.09C73.74,50.05 73.92,50.06 74.35,50C74.99,49.92 75.84,49.75 76.72,49.57C77.85,49.34 79.29,49.11 80.58,48.73C81.94,48.33 83.74,47.49 84.67,47.19C85.14,47.04 85.31,46.99 85.74,46.91C86.37,46.79 87.13,46.83 88.1,46.6C89.78,46.19 94.77,44.21 94.77,44.21C94.77,44.21 94.77,44.21 94.77,44.21C94.77,44.21 99.28,42.24 99.28,42.24C99.28,42.24 99.28,42.24 99.28,42.24C99.28,42.24 99.72,42.36 100.14,42.39C101.29,42.47 104.4,42.6 106.58,42.21C108.97,41.78 111.74,40.73 113.89,39.72C115.75,38.84 117.76,37.16 118.83,36.67C119.3,36.45 119.41,36.49 119.91,36.32C121.05,35.94 123.97,34.99 125.5,34.4C126.6,33.97 127.57,33.29 128.29,33.19C128.72,33.13 128.89,33.24 129.36,33.34C130.32,33.54 132.59,34.4 133.66,34.52C134.29,34.59 134.53,34.44 135.17,34.44C136.27,34.43 138,34.72 139.68,34.62C141.83,34.5 145.33,33.86 146.98,33.49C147.84,33.3 148.31,33.02 148.92,32.92C149.45,32.83 149.84,32.85 150.42,32.84C151.21,32.83 152.62,32.93 153.22,32.91C153.51,32.9 153.58,32.85 153.86,32.85C154.4,32.85 155.42,32.94 156.22,33.05C157.06,33.17 157.79,33.44 158.8,33.57C160.22,33.75 162.81,33.75 163.96,33.85C164.53,33.9 164.64,33.94 165.25,34.01C166.72,34.18 170.79,34.82 172.77,34.79C174.07,34.77 175,34.44 175.99,34.35C176.84,34.27 177.51,34.25 178.36,34.22C179.35,34.18 180.47,34.21 181.58,34.14C182.76,34.07 183.91,33.96 185.23,33.79C186.8,33.59 188.93,33.13 190.39,32.98C191.46,32.87 192.07,32.93 193.18,32.85C194.81,32.74 198.1,32.41 199.2,32.3C199.62,32.26 199.73,32.24 200.06,32.2C200.49,32.15 200.93,32.12 201.57,32.05C202.67,31.93 205.17,31.58 206.08,31.51C206.48,31.48 206.54,31.53 206.94,31.49C207.86,31.41 210.91,30.88 211.45,30.79C211.57,30.77 211.55,30.77 211.67,30.75C212.11,30.68 213.98,30.42 214.89,30.27C215.55,30.16 216.08,30.05 216.61,29.94C217.07,29.84 217.43,29.75 217.9,29.64C218.48,29.5 219.36,29.28 219.83,29.17C220.1,29.11 220.16,29.09 220.48,29.02C221.36,28.83 224.31,28.28 225.42,28.02C225.99,27.89 226.36,27.83 226.71,27.68C226.97,27.57 227.08,27.45 227.35,27.3C227.78,27.07 228.55,26.61 229.07,26.46C229.46,26.35 229.78,26.43 230.15,26.34C230.57,26.24 231,26.04 231.44,25.85C231.93,25.64 232.94,25.1 232.94,25.1C232.94,25.1 232.94,25.1 232.94,25.1C232.94,25.1 235.33,24.93 236.16,24.95C236.69,24.96 237.02,25.04 237.45,25.08C237.88,25.11 238.43,25.16 238.74,25.16C238.92,25.16 239.05,25.14 239.17,25.13C239.26,25.12 239.28,25.12 239.39,25.1C239.76,25.02 241.02,24.49 241.75,24.42C242.36,24.36 242.9,24.54 243.47,24.59C244.04,24.64 244.76,24.72 245.19,24.73C245.45,24.73 245.6,24.73 245.83,24.7C246.1,24.67 246.31,24.61 246.69,24.52C247.42,24.34 249.19,23.85 249.92,23.64C250.3,23.53 250.46,23.44 250.78,23.39C251.16,23.33 251.58,23.39 252.06,23.33C252.69,23.26 253.59,23.05 254.21,22.92C254.7,22.82 255.14,22.7 255.5,22.61C255.75,22.54 255.95,22.47 256.15,22.42C256.31,22.38 256.39,22.36 256.58,22.32C256.93,22.24 257.54,22.1 258.08,21.97C258.73,21.81 259.48,21.62 260.23,21.43C261.05,21.22 262.06,20.91 262.81,20.77C263.37,20.66 263.83,20.65 264.31,20.57C264.76,20.49 265.35,20.35 265.6,20.29C265.7,20.27 265.75,20.26 265.82,20.24C265.89,20.23 265.95,20.22 266.03,20.2C266.15,20.17 266.3,20.12 266.46,20.08C266.65,20.04 266.89,20 267.11,19.96C267.32,19.92 267.5,19.89 267.75,19.85C268.11,19.79 268.61,19.68 269.04,19.67C269.47,19.66 270.01,19.78 270.33,19.8C270.51,19.81 270.76,19.82 270.76,19.82C270.76,19.82 270.76,19.82 270.76,19.82C270.76,19.82 272.28,19.9 272.91,19.95C273.4,19.99 273.71,20.07 274.2,20.08C274.83,20.1 276.01,19.95 276.35,19.97C276.46,19.97 276.49,19.99 276.56,20C276.63,20.01 276.67,20.01 276.78,20.02C277.08,20.04 277.99,20.05 278.5,20.08C278.9,20.11 279.35,20.16 279.57,20.18C279.67,20.19 279.72,20.19 279.79,20.2Q279.86,20.21 280,20.24" style="vector-effect: none; fill: none; stroke: rgb(238, 58, 67); stroke-opacity: 1; stroke-width: 5px; opacity: 1;"/></g><g class="points"/><g class="text"/></g><g class="trace scatter tracebc2403" style="stroke-miterlimit: 2; opacity: 1;"><g class="fills"/><g class="errorbars"/><g class="lines"><path class="js-line" d="M0,55.63Q2.73,56.41 4.08,56.45C5.38,56.49 6.88,55.98 7.95,55.91C8.7,55.86 9.47,55.94 9.88,55.93C10.07,55.92 10.08,55.9 10.31,55.9C11.19,55.91 15.29,56.43 16.76,56.55C17.52,56.61 17.84,56.6 18.48,56.65C19.3,56.72 20.34,56.82 21.27,56.95C22.2,57.08 23.01,57.26 24.07,57.44C25.44,57.68 27.46,58.16 28.8,58.26C29.78,58.34 30.32,58.16 31.37,58.22C33.04,58.32 36.49,59.03 37.82,59.12C38.41,59.16 38.65,59.11 39.11,59.11C39.64,59.11 40.23,59.18 40.83,59.15C41.51,59.12 42.15,58.94 42.98,58.9C44.12,58.84 46.2,58.92 47.06,58.95C47.45,58.96 47.68,58.99 47.92,59C48.09,59 48.16,59 48.35,59C48.73,58.99 49.6,58.97 50.07,58.94C50.41,58.92 50.55,58.9 50.93,58.86C51.7,58.77 53.28,58.45 54.37,58.4C55.35,58.35 56.75,58.48 57.16,58.5C57.27,58.5 57.26,58.51 57.38,58.51C57.84,58.52 60.12,58.46 60.81,58.43C61.11,58.42 61.2,58.41 61.46,58.39C61.86,58.37 62.61,58.31 62.96,58.3C63.15,58.29 63.17,58.3 63.39,58.3C64.1,58.3 66.91,58.26 67.9,58.29C68.38,58.31 68.67,58.36 68.98,58.36C69.22,58.36 69.32,58.38 69.62,58.33C70.34,58.22 72.43,57.62 73.28,57.38C73.74,57.25 73.92,57.17 74.35,57.06C74.98,56.9 75.84,56.76 76.72,56.55C77.85,56.28 79.27,55.79 80.58,55.57C81.91,55.35 83.75,55.28 84.67,55.23C85.14,55.2 85.32,55.25 85.74,55.2C86.38,55.13 87.11,54.83 88.1,54.71C89.75,54.52 94.77,54.53 94.77,54.53C94.77,54.53 94.77,54.53 94.77,54.53C94.77,54.53 99.28,54.34 99.28,54.34C99.28,54.34 99.28,54.34 99.28,54.34C99.28,54.34 99.72,54.22 100.14,54.14C101.29,53.91 104.36,53.35 106.58,53.07C108.93,52.77 111.69,52.38 113.89,52.43C115.7,52.47 117.78,53.05 118.83,53.07C119.32,53.08 119.41,52.97 119.91,52.97C121.05,52.96 123.96,53.18 125.5,53.43C126.6,53.61 127.58,54.05 128.29,54.1C128.73,54.13 128.89,54.08 129.36,53.99C130.32,53.82 132.59,53.05 133.66,52.86C134.29,52.75 134.54,52.81 135.17,52.71C136.28,52.54 137.99,52.08 139.68,51.78C141.82,51.39 145.32,50.9 146.98,50.65C147.83,50.52 148.32,50.48 148.92,50.37C149.45,50.27 149.84,50.09 150.42,50.05C151.21,49.99 152.62,50.21 153.22,50.24C153.51,50.25 153.58,50.23 153.86,50.26C154.4,50.31 155.41,50.53 156.22,50.61C157.06,50.69 157.79,50.64 158.8,50.71C160.23,50.81 162.82,51.25 163.96,51.2C164.54,51.17 164.64,51.09 165.25,50.96C166.72,50.65 170.78,49.52 172.77,49.18C174.06,48.96 175,48.98 175.99,48.85C176.84,48.74 177.51,48.57 178.36,48.47C179.35,48.35 180.48,48.38 181.58,48.22C182.76,48.05 183.91,47.73 185.23,47.42C186.8,47.04 188.92,46.27 190.39,46.09C191.45,45.96 192.07,46.16 193.18,46.11C194.81,46.04 198.1,45.69 199.2,45.55C199.62,45.5 199.73,45.44 200.06,45.41C200.49,45.38 200.94,45.47 201.57,45.42C202.67,45.33 205.16,44.77 206.08,44.65C206.48,44.6 206.54,44.61 206.94,44.57C207.85,44.48 210.91,44.21 211.45,44.12C211.57,44.1 211.55,44.09 211.67,44.07C212.11,43.99 213.99,43.77 214.89,43.59C215.56,43.46 216.08,43.33 216.61,43.17C217.08,43.03 217.43,42.86 217.9,42.69C218.48,42.49 219.35,42.17 219.83,42.04C220.1,41.97 220.16,41.92 220.48,41.9C221.35,41.83 224.31,42.05 225.42,42.19C225.99,42.26 226.36,42.36 226.71,42.44C226.96,42.5 227.08,42.57 227.35,42.61C227.78,42.68 228.56,42.73 229.07,42.7C229.47,42.68 229.77,42.6 230.15,42.53C230.56,42.45 230.99,42.31 231.44,42.26C231.92,42.2 232.94,42.22 232.94,42.22C232.94,42.22 232.94,42.22 232.94,42.22C232.94,42.22 235.33,41.47 236.16,41.22C236.69,41.06 237.02,40.92 237.45,40.85C237.88,40.79 238.43,40.84 238.74,40.82C238.92,40.81 239.05,40.79 239.17,40.77C239.26,40.76 239.28,40.77 239.39,40.74C239.76,40.64 241.03,40.09 241.75,39.8C242.37,39.55 242.89,39.31 243.47,39.11C244.04,38.91 244.75,38.71 245.19,38.61C245.45,38.55 245.6,38.55 245.83,38.49C246.1,38.42 246.31,38.33 246.69,38.2C247.42,37.94 249.18,37.27 249.92,37.03C250.3,36.91 250.46,36.87 250.78,36.79C251.16,36.69 251.58,36.61 252.06,36.48C252.69,36.32 253.59,36.09 254.21,35.88C254.7,35.72 255.15,35.55 255.5,35.38C255.76,35.25 255.95,35.1 256.15,34.99C256.31,34.9 256.39,34.87 256.58,34.77C256.93,34.59 257.53,34.24 258.08,33.96C258.73,33.63 259.49,33.31 260.23,32.92C261.06,32.48 262.06,31.83 262.81,31.43C263.37,31.13 263.83,30.92 264.31,30.69C264.75,30.48 265.35,30.21 265.6,30.09C265.7,30.04 265.75,30.02 265.82,29.99C265.89,29.97 265.95,29.96 266.03,29.94C266.15,29.9 266.3,29.83 266.46,29.78C266.65,29.71 266.89,29.65 267.11,29.58C267.32,29.51 267.5,29.45 267.75,29.37C268.1,29.26 268.61,29.12 269.04,29C269.47,28.88 270.01,28.73 270.33,28.66C270.51,28.62 270.76,28.58 270.76,28.58C270.76,28.58 270.76,28.58 270.76,28.58C270.76,28.58 272.28,28.07 272.91,27.87C273.39,27.72 273.71,27.61 274.2,27.47C274.82,27.29 276.01,26.96 276.35,26.87C276.46,26.84 276.49,26.83 276.56,26.82C276.63,26.81 276.67,26.81 276.78,26.79C277.08,26.73 278,26.51 278.5,26.37C278.9,26.26 279.35,26.09 279.57,26.04C279.67,26.02 279.72,26.01 279.79,26.01Q279.86,26.01 280,26.03" style="vector-effect: none; fill: none; stroke: rgb(0, 180, 219); stroke-opacity: 1; stroke-width: 5px; opacity: 1;"/></g><g class="points"/><g class="text"/></g><g class="trace scatter trace711004" style="stroke-miterlimit: 2; opacity: 1;"><g class="fills"/><g class="errorbars"/><g class="lines"><path class="js-line" d="M28.8,43.45Q30.2,39.97 31.37,37.99C32.95,35.32 36.42,30.57 37.82,29.1C38.36,28.53 38.65,28.44 39.11,28.06C39.64,27.62 40.24,27.17 40.83,26.63C41.52,26.01 42.15,25.35 42.98,24.52C44.13,23.37 46.2,21.18 47.06,20.35C47.44,19.98 47.68,19.78 47.92,19.58C48.08,19.45 48.16,19.41 48.35,19.26C48.74,18.94 49.59,18.07 50.07,17.67C50.4,17.4 50.52,17.18 50.93,17.03C51.67,16.76 53.29,16.92 54.37,16.81C55.35,16.71 56.75,16.52 57.16,16.42C57.28,16.39 57.26,16.38 57.38,16.34C57.84,16.17 60.11,15.34 60.81,15.13C61.11,15.04 61.2,15.05 61.46,14.96C61.86,14.82 62.61,14.42 62.96,14.28C63.14,14.21 63.17,14.2 63.39,14.13C64.1,13.92 66.92,13.28 67.9,12.99C68.39,12.85 68.66,12.69 68.98,12.63C69.22,12.58 69.32,12.62 69.62,12.58C70.34,12.48 72.43,12.08 73.28,11.82C73.75,11.67 73.91,11.49 74.35,11.37C74.98,11.2 75.84,11.21 76.72,11.09C77.85,10.94 79.28,10.51 80.58,10.53C81.92,10.55 83.75,11.09 84.67,11.23C85.14,11.3 85.31,11.33 85.74,11.36C86.37,11.4 87.12,11.28 88.1,11.4C89.77,11.61 94.77,13 94.77,13C94.77,13 94.77,13 94.77,13C94.77,13 99.28,14.19 99.28,14.19C99.28,14.19 99.28,14.19 99.28,14.19C99.28,14.19 99.72,14.32 100.14,14.46C101.29,14.84 104.39,15.76 106.58,16.64C108.97,17.6 111.66,19.22 113.89,20.09C115.67,20.78 117.77,21.42 118.83,21.63C119.31,21.72 119.41,21.7 119.91,21.72C121.05,21.77 123.96,21.87 125.5,21.72C126.6,21.61 127.58,21.2 128.29,21.18C128.73,21.17 128.89,21.25 129.36,21.34C130.32,21.52 132.59,22.1 133.66,22.29C134.29,22.4 134.54,22.37 135.17,22.48C136.28,22.68 138.01,23.05 139.68,23.55C141.84,24.2 145.32,25.67 146.98,26.24C147.83,26.53 148.32,26.65 148.92,26.85C149.45,27.03 149.84,27.37 150.42,27.39C151.2,27.42 152.62,26.78 153.22,26.63C153.51,26.56 153.58,26.56 153.86,26.48C154.4,26.33 155.41,25.92 156.22,25.68C157.06,25.44 157.8,25.32 158.8,25.04C160.23,24.64 162.81,23.72 163.96,23.41C164.53,23.26 164.64,23.26 165.25,23.12C166.72,22.78 170.79,21.84 172.77,21.31C174.07,20.96 174.99,20.56 175.99,20.36C176.83,20.19 177.51,20.13 178.36,20.08C179.35,20.02 180.48,19.96 181.58,20.05C182.76,20.15 183.92,20.39 185.23,20.71C186.81,21.1 188.92,22.2 190.39,22.33C191.45,22.43 192.07,22.09 193.18,21.98C194.8,21.82 198.1,21.58 199.2,21.52C199.62,21.5 199.73,21.53 200.06,21.49C200.49,21.44 200.93,21.26 201.57,21.19C202.67,21.06 205.17,21.1 206.08,21.05C206.48,21.03 206.54,20.99 206.94,20.99C207.85,20.98 210.91,21.19 211.45,21.22C211.57,21.23 211.55,21.22 211.67,21.23C212.11,21.26 213.98,21.38 214.89,21.47C215.55,21.54 216.08,21.59 216.61,21.68C217.07,21.76 217.43,21.82 217.9,21.95C218.48,22.11 219.36,22.45 219.83,22.61C220.1,22.7 220.16,22.71 220.48,22.83C221.36,23.15 224.3,24.42 225.42,24.79C225.98,24.97 226.35,25.04 226.71,25.13C226.96,25.2 227.08,25.26 227.35,25.3C227.78,25.36 228.56,25.3 229.07,25.35C229.47,25.39 229.78,25.43 230.15,25.55C230.57,25.68 231,25.91 231.44,26.14C231.93,26.39 232.94,27.01 232.94,27.01C232.94,27.01 232.94,27.01 232.94,27.01C232.94,27.01 235.33,27.86 236.16,28.19C236.69,28.4 237.02,28.58 237.45,28.75C237.88,28.92 238.42,29.11 238.74,29.22C238.92,29.28 239.05,29.32 239.17,29.36C239.26,29.39 239.28,29.4 239.39,29.44C239.76,29.57 241.02,30.07 241.75,30.26C242.36,30.42 242.9,30.47 243.47,30.58C244.04,30.7 244.76,30.85 245.19,30.95C245.46,31.01 245.6,31.07 245.83,31.11C246.09,31.15 246.31,31.12 246.69,31.17C247.43,31.27 249.19,31.64 249.92,31.82C250.3,31.91 250.46,31.99 250.78,32.06C251.16,32.14 251.58,32.17 252.06,32.24C252.68,32.33 253.59,32.44 254.21,32.59C254.7,32.71 255.14,32.92 255.5,33.02C255.75,33.09 255.96,33.13 256.15,33.17C256.31,33.2 256.4,33.19 256.58,33.24C256.93,33.33 257.54,33.57 258.08,33.76C258.73,33.99 259.49,34.21 260.23,34.51C261.06,34.85 262.05,35.46 262.81,35.71C263.37,35.89 263.83,35.87 264.31,36C264.76,36.12 265.35,36.35 265.6,36.44C265.7,36.48 265.75,36.5 265.82,36.52C265.89,36.54 265.95,36.55 266.03,36.57C266.15,36.6 266.3,36.67 266.46,36.71C266.65,36.76 266.9,36.8 267.11,36.86C267.33,36.92 267.5,37 267.75,37.08C268.11,37.2 268.61,37.38 269.04,37.5C269.47,37.61 270.02,37.69 270.33,37.77C270.51,37.82 270.76,37.9 270.76,37.9C270.76,37.9 270.76,37.9 270.76,37.9C270.76,37.9 272.28,38.61 272.91,38.82C273.39,38.98 273.71,39.08 274.2,39.12C274.82,39.18 276.01,39.05 276.35,39.01C276.46,39 276.49,38.98 276.56,38.97C276.63,38.96 276.67,38.96 276.78,38.97C277.08,38.99 278,39.15 278.5,39.25C278.9,39.33 279.35,39.46 279.57,39.48C279.67,39.49 279.72,39.48 279.79,39.47Q279.86,39.47 280,39.45" style="vector-effect: none; fill: none; stroke: rgb(138, 44, 81); stroke-opacity: 1; stroke-width: 5px; opacity: 1;"/></g><g class="points"/><g class="text"/></g><g class="trace scatter trace7ec87f" style="stroke-miterlimit: 2; opacity: 1;"><g class="fills"/><g class="errorbars"/><g class="lines"><path class="js-line" d="M80.58,70.54Q83.71,67.55 84.67,66.92C85.11,66.63 85.3,66.56 85.74,66.42C86.36,66.22 87.12,66.18 88.1,65.96C89.76,65.59 94.77,64.27 94.77,64.27C94.77,64.27 94.77,64.27 94.77,64.27C94.77,64.27 99.28,63.57 99.28,63.57C99.28,63.57 99.28,63.57 99.28,63.57C99.28,63.57 99.72,63.7 100.14,63.72C101.29,63.78 104.38,63.6 106.58,63.23C108.96,62.83 111.7,61.95 113.89,61.32C115.7,60.8 117.77,59.91 118.83,59.78C119.31,59.72 119.41,59.83 119.91,59.85C121.05,59.89 123.96,59.96 125.5,59.91C126.59,59.87 127.58,59.78 128.29,59.7C128.73,59.65 128.88,59.62 129.36,59.54C130.31,59.38 132.6,58.99 133.66,58.77C134.29,58.64 134.53,58.52 135.17,58.42C136.27,58.26 138,58.27 139.68,58.12C141.82,57.93 145.32,57.5 146.98,57.33C147.83,57.24 148.32,57.13 148.92,57.15C149.45,57.17 149.84,57.34 150.42,57.39C151.21,57.46 152.62,57.42 153.22,57.46C153.51,57.48 153.58,57.52 153.86,57.53C154.4,57.54 155.42,57.39 156.22,57.39C157.06,57.39 157.79,57.55 158.8,57.55C160.22,57.55 162.81,57.25 163.96,57.25C164.53,57.25 164.64,57.29 165.25,57.32C166.72,57.39 170.79,57.53 172.77,57.58C174.07,57.61 175,57.55 175.99,57.62C176.84,57.68 177.51,57.93 178.36,57.95C179.35,57.98 180.47,57.7 181.58,57.69C182.76,57.68 183.91,57.95 185.23,57.91C186.8,57.86 188.93,57.28 190.39,57.26C191.46,57.25 192.07,57.55 193.18,57.55C194.81,57.54 198.1,57.1 199.2,56.87C199.62,56.78 199.73,56.7 200.06,56.61C200.49,56.5 200.93,56.35 201.57,56.27C202.67,56.13 205.17,56.15 206.08,56.1C206.48,56.08 206.54,56.07 206.94,56.04C207.85,55.98 210.91,55.8 211.45,55.77C211.57,55.76 211.55,55.77 211.67,55.76C212.11,55.73 213.99,55.6 214.89,55.46C215.56,55.36 216.08,55.18 216.61,55.09C217.07,55.02 217.43,55.02 217.9,54.95C218.48,54.87 219.36,54.71 219.83,54.61C220.11,54.55 220.16,54.49 220.48,54.46C221.35,54.38 224.31,54.63 225.42,54.68C225.99,54.7 226.35,54.7 226.71,54.73C226.96,54.75 227.09,54.81 227.35,54.8C227.79,54.79 228.56,54.61 229.07,54.52C229.47,54.45 229.77,54.37 230.15,54.32C230.56,54.27 230.99,54.28 231.44,54.23C231.92,54.18 232.94,54 232.94,54C232.94,54 232.94,54 232.94,54C232.94,54 235.32,53.28 236.16,53.14C236.68,53.05 237.02,53.1 237.45,53.05C237.88,53 238.42,52.89 238.74,52.85C238.92,52.83 239.05,52.81 239.17,52.81C239.26,52.81 239.28,52.83 239.39,52.82C239.76,52.8 241.02,52.5 241.75,52.45C242.37,52.4 242.9,52.5 243.47,52.46C244.04,52.42 244.76,52.28 245.19,52.23C245.45,52.2 245.6,52.21 245.83,52.18C246.1,52.14 246.31,52.06 246.69,52.02C247.42,51.94 249.19,51.95 249.92,51.87C250.3,51.83 250.46,51.77 250.78,51.72C251.16,51.66 251.58,51.59 252.06,51.54C252.68,51.47 253.58,51.38 254.21,51.37C254.69,51.36 255.14,51.4 255.5,51.41C255.75,51.42 255.96,51.41 256.15,51.42C256.31,51.43 256.39,51.45 256.58,51.45C256.93,51.46 257.54,51.42 258.08,51.4C258.73,51.37 259.48,51.31 260.23,51.28C261.05,51.25 262.07,51.2 262.81,51.24C263.38,51.27 263.83,51.4 264.31,51.43C264.76,51.46 265.35,51.43 265.6,51.43C265.7,51.43 265.75,51.43 265.82,51.43C265.89,51.43 265.95,51.44 266.03,51.45C266.15,51.46 266.3,51.47 266.46,51.5C266.66,51.53 266.89,51.61 267.11,51.64C267.32,51.67 267.5,51.67 267.75,51.7C268.11,51.74 268.61,51.82 269.04,51.86C269.47,51.9 270.02,51.96 270.33,51.96C270.51,51.96 270.76,51.93 270.76,51.93C270.76,51.93 270.76,51.93 270.76,51.93C270.76,51.93 272.28,51.79 272.91,51.79C273.39,51.79 273.72,51.8 274.2,51.87C274.83,51.96 276.01,52.29 276.35,52.37C276.46,52.4 276.49,52.41 276.56,52.42C276.63,52.43 276.67,52.43 276.78,52.43C277.08,52.44 277.99,52.41 278.5,52.42C278.9,52.43 279.35,52.45 279.57,52.46C279.67,52.47 279.72,52.47 279.79,52.48Q279.86,52.48 280,52.49" style="vector-effect: none; fill: none; stroke: rgb(153, 51, 0); stroke-opacity: 1; stroke-width: 5px; opacity: 1;"/></g><g class="points"/><g class="text"/></g><g class="trace scatter trace320590" style="stroke-miterlimit: 2; opacity: 1;"><g class="fills"/><g class="errorbars"/><g class="lines"><path class="js-line" d="M0,5.39Q2.76,5.71 4.08,5.48C5.41,5.25 6.87,4.28 7.95,4.01C8.69,3.82 9.48,3.65 9.88,3.75C10.09,3.8 10.08,3.91 10.31,4.07C11.19,4.67 15.26,7.42 16.76,8.11C17.49,8.44 17.85,8.39 18.48,8.64C19.31,8.97 20.36,9.47 21.27,10.03C22.23,10.62 22.98,11.44 24.07,12.12C25.41,12.95 27.5,13.65 28.8,14.52C29.84,15.21 30.34,15.79 31.37,16.73C33.05,18.27 36.44,21.98 37.82,22.98C38.38,23.38 38.65,23.43 39.11,23.66C39.64,23.92 40.25,24.1 40.83,24.47C41.53,24.91 42.13,25.61 42.98,26.22C44.1,27.03 46.19,28.4 47.06,28.82C47.44,29 47.69,29 47.92,29.11C48.09,29.19 48.16,29.26 48.35,29.36C48.73,29.55 49.6,29.87 50.07,30.11C50.41,30.28 50.54,30.4 50.93,30.6C51.69,30.99 53.3,31.59 54.37,32.15C55.36,32.67 56.75,33.59 57.16,33.8C57.27,33.86 57.27,33.84 57.38,33.9C57.84,34.14 60.11,35.54 60.81,35.93C61.11,36.1 61.19,36.18 61.46,36.28C61.85,36.42 62.61,36.49 62.96,36.57C63.15,36.61 63.17,36.63 63.39,36.68C64.1,36.85 66.92,37.42 67.9,37.74C68.39,37.9 68.66,38.14 68.98,38.21C69.22,38.26 69.33,38.16 69.62,38.22C70.35,38.36 72.42,39.3 73.28,39.6C73.74,39.76 73.93,39.76 74.35,39.94C75,40.22 75.82,40.86 76.72,41.28C77.83,41.8 79.32,42.08 80.58,42.75C81.97,43.49 83.73,45.07 84.67,45.62C85.13,45.89 85.31,45.97 85.74,46.14C86.37,46.38 87.12,46.54 88.1,46.84C89.76,47.35 94.77,48.94 94.77,48.94C94.77,48.94 94.77,48.94 94.77,48.94C94.77,48.94 99.28,50.1 99.28,50.1C99.28,50.1 99.28,50.1 99.28,50.1C99.28,50.1 99.72,50.09 100.14,50.09C101.29,50.08 104.37,50.14 106.58,50.06C108.94,49.98 111.69,49.53 113.89,49.59C115.7,49.64 117.78,50.16 118.83,50.18C119.32,50.19 119.41,50.08 119.91,50.1C121.05,50.14 123.96,50.66 125.5,50.96C126.59,51.17 127.58,51.58 128.29,51.62C128.73,51.65 128.88,51.56 129.36,51.5C130.31,51.39 132.59,50.97 133.66,50.95C134.29,50.94 134.53,51.09 135.17,51.1C136.27,51.12 138,50.87 139.68,50.84C141.82,50.8 145.33,50.84 146.98,50.96C147.84,51.02 148.31,51.17 148.92,51.21C149.45,51.25 149.85,51.18 150.42,51.24C151.21,51.32 152.62,51.65 153.22,51.74C153.51,51.78 153.58,51.8 153.86,51.81C154.4,51.83 155.42,51.78 156.22,51.69C157.06,51.6 157.79,51.34 158.8,51.24C160.22,51.1 162.82,51.2 163.96,51.11C164.54,51.06 164.64,51.01 165.25,50.93C166.72,50.74 170.8,49.89 172.77,50.08C174.08,50.21 174.99,50.85 175.99,51.09C176.83,51.29 177.51,51.34 178.36,51.49C179.35,51.67 180.47,52.03 181.58,52.09C182.75,52.15 183.91,51.76 185.23,51.79C186.8,51.83 188.93,52.35 190.39,52.48C191.46,52.58 192.08,52.53 193.18,52.62C194.81,52.75 198.1,53.19 199.2,53.31C199.62,53.36 199.73,53.37 200.06,53.4C200.49,53.44 200.93,53.52 201.57,53.55C202.67,53.61 205.17,53.55 206.08,53.59C206.48,53.61 206.54,53.62 206.94,53.65C207.85,53.73 210.91,54.09 211.45,54.12C211.57,54.13 211.55,54.12 211.67,54.12C212.11,54.12 213.98,54.12 214.89,54.16C215.55,54.19 216.08,54.27 216.61,54.3C217.07,54.32 217.43,54.3 217.9,54.32C218.48,54.35 219.36,54.44 219.83,54.48C220.1,54.5 220.16,54.53 220.48,54.54C221.36,54.56 224.31,54.3 225.42,54.33C225.99,54.35 226.36,54.41 226.71,54.46C226.96,54.49 227.09,54.51 227.35,54.57C227.79,54.67 228.56,54.93 229.07,55.07C229.47,55.18 229.77,55.28 230.15,55.37C230.56,55.47 230.99,55.54 231.44,55.64C231.92,55.74 232.94,55.98 232.94,55.98C232.94,55.98 232.94,55.98 232.94,55.98C232.94,55.98 235.32,56.88 236.16,57.15C236.68,57.32 237.02,57.42 237.45,57.51C237.88,57.6 238.42,57.68 238.74,57.7C238.92,57.71 239.05,57.71 239.17,57.7C239.26,57.69 239.28,57.68 239.39,57.67C239.76,57.64 241.03,57.64 241.75,57.57C242.37,57.51 242.9,57.42 243.47,57.32C244.04,57.22 244.75,57.06 245.19,56.99C245.45,56.95 245.6,56.92 245.83,56.9C246.09,56.88 246.31,56.9 246.69,56.88C247.42,56.83 249.19,56.6 249.92,56.55C250.3,56.52 250.46,56.52 250.78,56.52C251.16,56.52 251.58,56.54 252.06,56.57C252.68,56.6 253.58,56.71 254.21,56.71C254.69,56.71 255.14,56.65 255.5,56.64C255.75,56.63 255.96,56.64 256.15,56.64C256.31,56.64 256.39,56.63 256.58,56.63C256.93,56.63 257.54,56.65 258.08,56.65C258.73,56.65 259.48,56.66 260.23,56.64C261.05,56.62 262.07,56.53 262.81,56.5C263.38,56.48 263.83,56.47 264.31,56.47C264.76,56.47 265.35,56.49 265.6,56.49C265.7,56.49 265.75,56.49 265.82,56.49C265.89,56.49 265.95,56.49 266.03,56.49C266.15,56.49 266.3,56.48 266.46,56.46C266.65,56.44 266.89,56.4 267.11,56.36C267.32,56.33 267.5,56.28 267.75,56.25C268.1,56.21 268.61,56.19 269.04,56.15C269.47,56.11 270.02,56.02 270.33,55.99C270.51,55.97 270.76,55.95 270.76,55.95C270.76,55.95 270.76,55.95 270.76,55.95C270.76,55.95 272.29,55.85 272.91,55.78C273.4,55.73 273.72,55.67 274.2,55.6C274.83,55.51 276.01,55.35 276.35,55.29C276.46,55.27 276.49,55.26 276.56,55.24C276.63,55.22 276.67,55.22 276.78,55.19C277.08,55.1 277.99,54.75 278.5,54.58C278.9,54.44 279.35,54.28 279.57,54.23C279.67,54.21 279.72,54.21 279.79,54.2Q279.86,54.19 280,54.18" style="vector-effect: none; fill: none; stroke: rgb(97, 162, 41); stroke-opacity: 1; stroke-width: 5px; opacity: 1;"/></g><g class="points"/><g class="text"/></g></g></g><g class="overplot"/><path class="xlines-above crisp" d="M0,0" style="fill: none;"/><path class="ylines-above crisp" d="M0,0" style="fill: none;"/><g class="overlines-above"/><g class="xaxislayer-above"/><g class="yaxislayer-above"/><g class="overaxes-above"/></g></g><g class="polarlayer"/><g class="smithlayer"/><g class="ternarylayer"/><g class="geolayer"/><g class="funnelarealayer"/><g class="pielayer"/><g class="iciclelayer"/><g class="treemaplayer"/><g class="sunburstlayer"/><g class="glimages"/><defs id="topdefs-8f61ee"><g class="clips"/></defs><g class="layer-above"><g class="imagelayer"/><g class="shapelayer"/></g><g class="infolayer"><g class="g-gtitle"><text class="gtitle" x="15" y="25" text-anchor="start" dy="0em" style="font-family: Ubuntu, verdana, arial, sans-serif; font-size: 16px; fill: rgb(233, 84, 32); opacity: 1; font-weight: normal; white-space: pre;">NRSR 2020-2023</text></g><g class="g-xtitle"/><g class="g-ytitle"/></g></svg>