<svg class="main-svg" xmlns="http://www.w3.org/2000/svg" xmlns:xlink="http://www.w3.org/1999/xlink" width="300" height="135" style="" viewBox="0 0 300 135"><rect x="0" y="0" width="300" height="135" style="fill: rgb(255, 255, 255); fill-opacity: 1;"/><defs id="defs-63c5d7"><g class="clips"><clipPath id="clip63c5d7xyplot" class="plotclip"><rect width="280" height="75"/></clipPath><clipPath class="axesclip" id="clip63c5d7x"><rect x="10" y="0" width="280" height="135"/></clipPath><clipPath class="axesclip" id="clip63c5d7y"><rect x="0" y="50" width="300" height="75"/></clipPath><clipPath class="axesclip" id="clip63c5d7xy"><rect x="10" y="50" width="280" height="75"/></clipPath></g><g class="gradients"/><g class="patterns"/></defs><g class="bglayer"/><g class="layer-below"><g class="imagelayer"/><g class="shapelayer"/></g><g class="cartesianlayer"><g class="subplot xy"><g class="layer-subplot"><g class="shapelayer"/><g class="imagelayer"/></g><g class="minor-gridlayer"><g class="x"/><g class="y"/></g><g class="gridlayer"><g class="x"><path class="xgrid crisp" transform="translate(39.79,0)" d="M0,50v75" style="stroke: rgb(235, 240, 248); stroke-opacity: 1; stroke-width: 1px;"/><path class="xgrid crisp" transform="translate(129.15,0)" d="M0,50v75" style="stroke: rgb(235, 240, 248); stroke-opacity: 1; stroke-width: 1px;"/><path class="xgrid crisp" transform="translate(221.49,0)" d="M0,50v75" style="stroke: rgb(235, 240, 248); stroke-opacity: 1; stroke-width: 1px;"/></g><g class="y"><path class="ygrid crisp" transform="translate(0,108.99000000000001)" d="M10,0h280" style="stroke: rgb(235, 240, 248); stroke-opacity: 1; stroke-width: 1px;"/><path class="ygrid crisp" transform="translate(0,92.97999999999999)" d="M10,0h280" style="stroke: rgb(235, 240, 248); stroke-opacity: 1; stroke-width: 1px;"/><path class="ygrid crisp" transform="translate(0,76.97)" d="M10,0h280" style="stroke: rgb(235, 240, 248); stroke-opacity: 1; stroke-width: 1px;"/><path class="ygrid crisp" transform="translate(0,60.96)" d="M10,0h280" style="stroke: rgb(235, 240, 248); stroke-opacity: 1; stroke-width: 1px;"/></g></g><g class="zerolinelayer"><path class="yzl zl crisp" transform="translate(0,125)" d="M10,0h280" style="stroke: rgb(235, 240, 248); stroke-opacity: 1; stroke-width: 2px;"/></g><path class="xlines-below"/><path class="ylines-below"/><g class="overlines-below"/><g class="xaxislayer-below"/><g class="yaxislayer-below"/><g class="overaxes-below"/><g class="plot" transform="translate(10,50)" clip-path="url(#clip63c5d7xyplot)"><g class="scatterlayer mlayer"><g class="trace scatter tracef9b0ba" style="stroke-miterlimit: 2; opacity: 1;"><g class="fills"/><g class="errorbars"/><g class="lines"><path class="js-line" d="M0,17.68L5.96,19.12L8.94,18.64L32.77,18.8L35.74,20.56L71.49,22.32L74.47,21.84L80.43,21.36L83.4,24.08L86.38,23.6L89.36,24.88L110.21,24.4L113.19,26.01L119.15,27.13L122.13,27.29L145.96,27.45L148.94,27.45L154.89,27.29L157.87,24.88L163.83,23.6L166.81,23.12L181.7,22.32L184.68,21.52L208.51,20.56L211.49,19.92L217.45,19.92L220.43,18.48L226.38,18.48L229.36,14L241.28,5.67L244.26,5.67L262.13,6.31L265.11,7.11L277.02,7.27L280,3.75" style="vector-effect: none; fill: none; stroke: rgb(238, 58, 67); stroke-opacity: 1; stroke-width: 5px; opacity: 1;"/></g><g class="points"/><g class="text"/></g><g class="trace scatter tracee5c482" style="stroke-miterlimit: 2; opacity: 1;"><g class="fills"/><g class="errorbars"/><g class="lines"><path class="js-line" d="M0,43.46L5.96,40.1L8.94,38.17L11.91,32.25L14.89,32.09L17.87,33.37L20.85,32.09L32.77,31.77L35.74,26.33L38.72,23.92L41.7,25.04L47.66,23.44L50.64,23.28L53.62,24.08L56.6,23.28L80.43,23.28L83.4,21.84L86.38,21.04L89.36,18.64L113.19,19.12L116.17,20.72L142.98,22.8L145.96,22.8L163.83,23.6L166.81,23.6L181.7,23.12L184.68,22L190.64,21.84L193.62,22.16L205.53,22.48L208.51,22.48L226.38,23.28L229.36,25.04L241.28,24.88L244.26,24.88L247.23,24.88L250.21,21.2L262.13,21.04L265.11,19.12L277.02,18.8L280,22.48" style="vector-effect: none; fill: none; stroke: rgb(0, 180, 219); stroke-opacity: 1; stroke-width: 5px; opacity: 1;"/></g><g class="points"/><g class="text"/></g><g class="trace scatter trace7e070b" style="stroke-miterlimit: 2; opacity: 1;"><g class="fills"/><g class="errorbars"/><g class="lines"><path class="js-line" d="M0,12.08L2.98,12.08L5.96,16.24L8.94,18.64L11.91,24.08L14.89,23.92L17.87,21.2L20.85,23.92L23.83,23.92L32.77,24.08L35.74,27.29L38.72,29.21L41.7,27.77L50.64,28.25L53.62,27.61L62.55,28.25L65.53,28.25L80.43,28.73L83.4,27.29L89.36,28.25L92.34,28.25L107.23,28.09L110.21,29.37L116.17,23.12L119.15,22.48L140,20.24L142.98,20.24L154.89,17.68L157.87,19.92L166.81,21.2L169.79,21.2L181.7,22.32L184.68,24.08L190.64,24.56L193.62,24.4L214.47,24.4L217.45,24.4L226.38,25.04L229.36,27.45L241.28,34.33L244.26,34.33L247.23,34.33L250.21,37.37L262.13,37.69L265.11,38.65L280,38.49" style="vector-effect: none; fill: none; stroke: rgb(138, 44, 81); stroke-opacity: 1; stroke-width: 5px; opacity: 1;"/></g><g class="points"/><g class="text"/></g><g class="trace scatter tracee55404" style="stroke-miterlimit: 2; opacity: 1;"><g class="fills"/><g class="errorbars"/><g class="lines"><path class="js-line" d="M0,66.67L2.98,66.67L5.96,64.59L14.89,65.23L17.87,66.35L23.83,65.23L26.81,65.23L71.49,66.19L74.47,66.51L86.38,67.15L89.36,68.12L137.02,69.08L140,69.4L145.96,70.36L148.94,71L181.7,72.12L184.68,72.28L229.36,73.4" style="vector-effect: none; fill: none; stroke: rgb(1, 27, 58); stroke-opacity: 1; stroke-width: 5px; opacity: 1;"/></g><g class="points"/><g class="text"/></g></g></g><g class="overplot"/><path class="xlines-above crisp" d="M0,0" style="fill: none;"/><path class="ylines-above crisp" d="M0,0" style="fill: none;"/><g class="overlines-above"/><g class="xaxislayer-above"/><g class="yaxislayer-above"/><g class="overaxes-above"/></g></g><g class="polarlayer"/><g class="smithlayer"/><g class="ternarylayer"/><g class="geolayer"/><g class="funnelarealayer"/><g class="pielayer"/><g class="iciclelayer"/><g class="treemaplayer"/><g class="sunburstlayer"/><g class="glimages"/><defs id="topdefs-63c5d7"><g class="clips"/></defs><g class="layer-above"><g class="imagelayer"/><g class="shapelayer"/></g><g class="infolayer"><g class="g-gtitle"><text class="gtitle" x="15" y="25" text-anchor="start" dy="0em" style="font-family: Ubuntu, verdana, arial, sans-serif; font-size: 16px; fill: rgb(233, 84, 32); opacity: 1; font-weight: normal; white-space: pre;">Premiér/ka 2023</text></g><g class="g-xtitle"/><g class="g-ytitle"/></g></svg>