<svg class="main-svg" xmlns="http://www.w3.org/2000/svg" xmlns:xlink="http://www.w3.org/1999/xlink" width="300" height="135" style="" viewBox="0 0 300 135"><rect x="0" y="0" width="300" height="135" style="fill: rgb(255, 255, 255); fill-opacity: 1;"/><defs id="defs-33e762"><g class="clips"><clipPath id="clip33e762xyplot" class="plotclip"><rect width="280" height="75"/></clipPath><clipPath class="axesclip" id="clip33e762x"><rect x="10" y="0" width="280" height="135"/></clipPath><clipPath class="axesclip" id="clip33e762y"><rect x="0" y="50" width="300" height="75"/></clipPath><clipPath class="axesclip" id="clip33e762xy"><rect x="10" y="50" width="280" height="75"/></clipPath></g><g class="gradients"/><g class="patterns"/></defs><g class="bglayer"/><g class="layer-below"><g class="imagelayer"/><g class="shapelayer"/></g><g class="cartesianlayer"><g class="subplot xy"><g class="layer-subplot"><g class="shapelayer"/><g class="imagelayer"/></g><g class="minor-gridlayer"><g class="x"/><g class="y"/></g><g class="gridlayer"><g class="x"><path class="xgrid crisp" transform="translate(34.14,0)" d="M0,50v75" style="stroke: rgb(235, 240, 248); stroke-opacity: 1; stroke-width: 1px;"/><path class="xgrid crisp" transform="translate(106.55,0)" d="M0,50v75" style="stroke: rgb(235, 240, 248); stroke-opacity: 1; stroke-width: 1px;"/><path class="xgrid crisp" transform="translate(181.38,0)" d="M0,50v75" style="stroke: rgb(235, 240, 248); stroke-opacity: 1; stroke-width: 1px;"/><path class="xgrid crisp" transform="translate(256.21000000000004,0)" d="M0,50v75" style="stroke: rgb(235, 240, 248); stroke-opacity: 1; stroke-width: 1px;"/></g><g class="y"><path class="ygrid crisp" transform="translate(0,108.99000000000001)" d="M10,0h280" style="stroke: rgb(235, 240, 248); stroke-opacity: 1; stroke-width: 1px;"/><path class="ygrid crisp" transform="translate(0,92.97999999999999)" d="M10,0h280" style="stroke: rgb(235, 240, 248); stroke-opacity: 1; stroke-width: 1px;"/><path class="ygrid crisp" transform="translate(0,76.97)" d="M10,0h280" style="stroke: rgb(235, 240, 248); stroke-opacity: 1; stroke-width: 1px;"/><path class="ygrid crisp" transform="translate(0,60.96)" d="M10,0h280" style="stroke: rgb(235, 240, 248); stroke-opacity: 1; stroke-width: 1px;"/></g></g><g class="zerolinelayer"><path class="yzl zl crisp" transform="translate(0,125)" d="M10,0h280" style="stroke: rgb(235, 240, 248); stroke-opacity: 1; stroke-width: 2px;"/></g><path class="xlines-below"/><path class="ylines-below"/><g class="overlines-below"/><g class="xaxislayer-below"/><g class="yaxislayer-below"/><g class="overaxes-below"/><g class="plot" transform="translate(10,50)" clip-path="url(#clip33e762xyplot)"><g class="scatterlayer mlayer"><g class="trace scatter trace74b052" style="stroke-miterlimit: 2; opacity: 1;"><g class="fills"/><g class="errorbars"/><g class="lines"><path class="js-line" d="M0,17.68L4.83,19.12L7.24,18.64L26.55,18.8L28.97,20.56L57.93,22.32L60.34,21.84L65.17,21.36L67.59,24.08L70,23.6L72.41,24.88L89.31,24.4L91.72,26.01L96.55,27.13L98.97,27.29L118.28,27.45L120.69,27.45L125.52,27.29L127.93,24.88L132.76,23.6L135.17,23.12L147.24,22.32L149.66,21.52L168.97,20.56L171.38,19.92L176.21,19.92L178.62,18.48L183.45,18.48L185.86,14L195.52,5.67L197.93,5.67L212.41,6.31L214.83,7.11L224.48,7.27L226.9,3.75L236.55,6.15L238.97,6.15L243.79,7.11L246.21,7.75L248.62,8.87L253.45,9.67L277.59,8.71L280,7.27" style="vector-effect: none; fill: none; stroke: rgb(238, 58, 67); stroke-opacity: 1; stroke-width: 5px; opacity: 1;"/></g><g class="points"/><g class="text"/></g><g class="trace scatter trace9d4930" style="stroke-miterlimit: 2; opacity: 1;"><g class="fills"/><g class="errorbars"/><g class="lines"><path class="js-line" d="M0,43.46L4.83,40.1L7.24,38.17L9.66,32.25L12.07,32.09L14.48,33.37L16.9,32.09L26.55,31.77L28.97,26.33L31.38,23.92L33.79,25.04L38.62,23.44L41.03,23.28L43.45,24.08L45.86,23.28L65.17,23.28L67.59,21.84L70,21.04L72.41,18.64L91.72,19.12L94.14,20.72L115.86,22.8L118.28,22.8L132.76,23.6L135.17,23.6L147.24,23.12L149.66,22L154.48,21.84L156.9,22.16L166.55,22.48L168.97,22.48L183.45,23.28L185.86,25.04L195.52,24.88L197.93,24.88L200.34,24.88L202.76,21.2L212.41,21.04L214.83,19.12L224.48,18.8L226.9,22.48L236.55,24.56L238.97,24.56L246.21,23.44L248.62,21.68L258.28,20.4L260.69,20.4L277.59,20.88L280,21.84" style="vector-effect: none; fill: none; stroke: rgb(0, 180, 219); stroke-opacity: 1; stroke-width: 5px; opacity: 1;"/></g><g class="points"/><g class="text"/></g><g class="trace scatter trace427f5f" style="stroke-miterlimit: 2; opacity: 1;"><g class="fills"/><g class="errorbars"/><g class="lines"><path class="js-line" d="M0,12.08L2.41,12.08L4.83,16.24L7.24,18.64L9.66,24.08L12.07,23.92L14.48,21.2L16.9,23.92L19.31,23.92L26.55,24.08L28.97,27.29L31.38,29.21L33.79,27.77L41.03,28.25L43.45,27.61L50.69,28.25L53.1,28.25L65.17,28.73L67.59,27.29L72.41,28.25L74.83,28.25L86.9,28.09L89.31,29.37L94.14,23.12L96.55,22.48L113.45,20.24L115.86,20.24L125.52,17.68L127.93,19.92L135.17,21.2L137.59,21.2L147.24,22.32L149.66,24.08L154.48,24.56L156.9,24.4L173.79,24.4L176.21,24.4L183.45,25.04L185.86,27.45L195.52,34.33L197.93,34.33L200.34,34.33L202.76,37.37L212.41,37.69L214.83,38.65L226.9,38.49L234.14,34.17L248.62,34.33L253.45,34.97L280,35.77" style="vector-effect: none; fill: none; stroke: rgb(138, 44, 81); stroke-opacity: 1; stroke-width: 5px; opacity: 1;"/></g><g class="points"/><g class="text"/></g><g class="trace scatter trace27d738" style="stroke-miterlimit: 2; opacity: 1;"><g class="fills"/><g class="errorbars"/><g class="lines"><path class="js-line" d="M0,66.67L2.41,66.67L4.83,64.59L12.07,65.23L14.48,66.35L19.31,65.23L21.72,65.23L57.93,66.19L60.34,66.51L70,67.15L72.41,68.12L111.03,69.08L113.45,69.4L118.28,70.36L120.69,71L147.24,72.12L149.66,72.28L185.86,73.4" style="vector-effect: none; fill: none; stroke: rgb(1, 27, 58); stroke-opacity: 1; stroke-width: 5px; opacity: 1;"/></g><g class="points"/><g class="text"/></g></g></g><g class="overplot"/><path class="xlines-above crisp" d="M0,0" style="fill: none;"/><path class="ylines-above crisp" d="M0,0" style="fill: none;"/><g class="overlines-above"/><g class="xaxislayer-above"/><g class="yaxislayer-above"/><g class="overaxes-above"/></g></g><g class="polarlayer"/><g class="smithlayer"/><g class="ternarylayer"/><g class="geolayer"/><g class="funnelarealayer"/><g class="pielayer"/><g class="iciclelayer"/><g class="treemaplayer"/><g class="sunburstlayer"/><g class="glimages"/><defs id="topdefs-33e762"><g class="clips"/></defs><g class="layer-above"><g class="imagelayer"/><g class="shapelayer"/></g><g class="infolayer"><g class="g-gtitle"><text class="gtitle" x="15" y="25" text-anchor="start" dy="0em" style="font-family: Ubuntu, verdana, arial, sans-serif; font-size: 16px; fill: rgb(233, 84, 32); opacity: 1; font-weight: normal; white-space: pre;">Premiér/ka 2023</text></g><g class="g-xtitle"/><g class="g-ytitle"/></g></svg>