<svg class="main-svg" xmlns="http://www.w3.org/2000/svg" xmlns:xlink="http://www.w3.org/1999/xlink" width="300" height="135" style="" viewBox="0 0 300 135"><rect x="0" y="0" width="300" height="135" style="fill: rgb(255, 255, 255); fill-opacity: 1;"/><defs id="defs-ce791d"><g class="clips"><clipPath id="clipce791dxyplot" class="plotclip"><rect width="280" height="75"/></clipPath><clipPath class="axesclip" id="clipce791dx"><rect x="10" y="0" width="280" height="135"/></clipPath><clipPath class="axesclip" id="clipce791dy"><rect x="0" y="50" width="300" height="75"/></clipPath><clipPath class="axesclip" id="clipce791dxy"><rect x="10" y="50" width="280" height="75"/></clipPath></g><g class="gradients"/><g class="patterns"/></defs><g class="bglayer"/><g class="layer-below"><g class="imagelayer"/><g class="shapelayer"/></g><g class="cartesianlayer"><g class="subplot xy"><g class="layer-subplot"><g class="shapelayer"/><g class="imagelayer"/></g><g class="minor-gridlayer"><g class="x"/><g class="y"/></g><g class="gridlayer"><g class="x"><path class="xgrid crisp" transform="translate(35.230000000000004,0)" d="M0,50v75" style="stroke: rgb(235, 240, 248); stroke-opacity: 1; stroke-width: 1px;"/><path class="xgrid crisp" transform="translate(110.9,0)" d="M0,50v75" style="stroke: rgb(235, 240, 248); stroke-opacity: 1; stroke-width: 1px;"/><path class="xgrid crisp" transform="translate(189.1,0)" d="M0,50v75" style="stroke: rgb(235, 240, 248); stroke-opacity: 1; stroke-width: 1px;"/><path class="xgrid crisp" transform="translate(267.3,0)" d="M0,50v75" style="stroke: rgb(235, 240, 248); stroke-opacity: 1; stroke-width: 1px;"/></g><g class="y"><path class="ygrid crisp" transform="translate(0,108.99000000000001)" d="M10,0h280" style="stroke: rgb(235, 240, 248); stroke-opacity: 1; stroke-width: 1px;"/><path class="ygrid crisp" transform="translate(0,92.97999999999999)" d="M10,0h280" style="stroke: rgb(235, 240, 248); stroke-opacity: 1; stroke-width: 1px;"/><path class="ygrid crisp" transform="translate(0,76.97)" d="M10,0h280" style="stroke: rgb(235, 240, 248); stroke-opacity: 1; stroke-width: 1px;"/><path class="ygrid crisp" transform="translate(0,60.96)" d="M10,0h280" style="stroke: rgb(235, 240, 248); stroke-opacity: 1; stroke-width: 1px;"/></g></g><g class="zerolinelayer"><path class="yzl zl crisp" transform="translate(0,125)" d="M10,0h280" style="stroke: rgb(235, 240, 248); stroke-opacity: 1; stroke-width: 2px;"/></g><path class="xlines-below"/><path class="ylines-below"/><g class="overlines-below"/><g class="xaxislayer-below"/><g class="yaxislayer-below"/><g class="overaxes-below"/><g class="plot" transform="translate(10,50)" clip-path="url(#clipce791dxyplot)"><g class="scatterlayer mlayer"><g class="trace scatter trace96052b" style="stroke-miterlimit: 2; opacity: 1;"><g class="fills"/><g class="errorbars"/><g class="lines"><path class="js-line" d="M0,17.68L5.05,19.12L7.57,18.64L27.75,18.8L30.27,20.56L60.54,22.32L63.06,21.84L68.11,21.36L70.63,24.08L73.15,23.6L75.68,24.88L93.33,24.4L95.86,26.01L100.9,27.13L103.42,27.29L123.6,27.45L126.13,27.45L131.17,27.29L133.69,24.88L138.74,23.6L141.26,23.12L153.87,22.32L156.4,21.52L176.58,20.56L179.1,19.92L184.14,19.92L186.67,18.48L191.71,18.48L194.23,14L204.32,5.67L206.85,5.67L221.98,6.31L224.5,7.11L234.59,7.27L237.12,3.75L247.21,6.15L249.73,6.15L254.77,7.11L257.3,7.75L259.82,8.87L264.86,9.67L280,9.67" style="vector-effect: none; fill: none; stroke: rgb(238, 58, 67); stroke-opacity: 1; stroke-width: 5px; opacity: 1;"/></g><g class="points"/><g class="text"/></g><g class="trace scatter trace2d2b36" style="stroke-miterlimit: 2; opacity: 1;"><g class="fills"/><g class="errorbars"/><g class="lines"><path class="js-line" d="M0,43.46L5.05,40.1L7.57,38.17L10.09,32.25L12.61,32.09L15.14,33.37L17.66,32.09L27.75,31.77L30.27,26.33L32.79,23.92L35.32,25.04L40.36,23.44L42.88,23.28L45.41,24.08L47.93,23.28L68.11,23.28L70.63,21.84L73.15,21.04L75.68,18.64L95.86,19.12L98.38,20.72L121.08,22.8L123.6,22.8L138.74,23.6L141.26,23.6L153.87,23.12L156.4,22L161.44,21.84L163.96,22.16L174.05,22.48L176.58,22.48L191.71,23.28L194.23,25.04L204.32,24.88L206.85,24.88L209.37,24.88L211.89,21.2L221.98,21.04L224.5,19.12L234.59,18.8L237.12,22.48L247.21,24.56L249.73,24.56L257.3,23.44L259.82,21.68L269.91,20.4L272.43,20.4L280,20.4" style="vector-effect: none; fill: none; stroke: rgb(0, 180, 219); stroke-opacity: 1; stroke-width: 5px; opacity: 1;"/></g><g class="points"/><g class="text"/></g><g class="trace scatter trace81cbaf" style="stroke-miterlimit: 2; opacity: 1;"><g class="fills"/><g class="errorbars"/><g class="lines"><path class="js-line" d="M0,12.08L2.52,12.08L5.05,16.24L7.57,18.64L10.09,24.08L12.61,23.92L15.14,21.2L17.66,23.92L20.18,23.92L27.75,24.08L30.27,27.29L32.79,29.21L35.32,27.77L42.88,28.25L45.41,27.61L52.97,28.25L55.5,28.25L68.11,28.73L70.63,27.29L75.68,28.25L78.2,28.25L90.81,28.09L93.33,29.37L98.38,23.12L100.9,22.48L118.56,20.24L121.08,20.24L131.17,17.68L133.69,19.92L141.26,21.2L143.78,21.2L153.87,22.32L156.4,24.08L161.44,24.56L163.96,24.4L181.62,24.4L184.14,24.4L191.71,25.04L194.23,27.45L204.32,34.33L206.85,34.33L209.37,34.33L211.89,37.37L221.98,37.69L224.5,38.65L237.12,38.49L244.68,34.17L259.82,34.33L264.86,34.97L280,34.97" style="vector-effect: none; fill: none; stroke: rgb(138, 44, 81); stroke-opacity: 1; stroke-width: 5px; opacity: 1;"/></g><g class="points"/><g class="text"/></g><g class="trace scatter trace29983d" style="stroke-miterlimit: 2; opacity: 1;"><g class="fills"/><g class="errorbars"/><g class="lines"><path class="js-line" d="M0,66.67L2.52,66.67L5.05,64.59L12.61,65.23L15.14,66.35L20.18,65.23L22.7,65.23L60.54,66.19L63.06,66.51L73.15,67.15L75.68,68.12L116.04,69.08L118.56,69.4L123.6,70.36L126.13,71L153.87,72.12L156.4,72.28L194.23,73.4" style="vector-effect: none; fill: none; stroke: rgb(1, 27, 58); stroke-opacity: 1; stroke-width: 5px; opacity: 1;"/></g><g class="points"/><g class="text"/></g></g></g><g class="overplot"/><path class="xlines-above crisp" d="M0,0" style="fill: none;"/><path class="ylines-above crisp" d="M0,0" style="fill: none;"/><g class="overlines-above"/><g class="xaxislayer-above"/><g class="yaxislayer-above"/><g class="overaxes-above"/></g></g><g class="polarlayer"/><g class="smithlayer"/><g class="ternarylayer"/><g class="geolayer"/><g class="funnelarealayer"/><g class="pielayer"/><g class="iciclelayer"/><g class="treemaplayer"/><g class="sunburstlayer"/><g class="glimages"/><defs id="topdefs-ce791d"><g class="clips"/></defs><g class="layer-above"><g class="imagelayer"/><g class="shapelayer"/></g><g class="infolayer"><g class="g-gtitle"><text class="gtitle" x="15" y="25" text-anchor="start" dy="0em" style="font-family: Ubuntu, verdana, arial, sans-serif; font-size: 16px; fill: rgb(233, 84, 32); opacity: 1; font-weight: normal; white-space: pre;">Premiér/ka 2023</text></g><g class="g-xtitle"/><g class="g-ytitle"/></g></svg>