<svg class="main-svg" xmlns="http://www.w3.org/2000/svg" xmlns:xlink="http://www.w3.org/1999/xlink" width="300" height="135" style="" viewBox="0 0 300 135"><rect x="0" y="0" width="300" height="135" style="fill: rgb(255, 255, 255); fill-opacity: 1;"/><defs id="defs-518fed"><g class="clips"><clipPath id="clip518fedxyplot" class="plotclip"><rect width="280" height="75"/></clipPath><clipPath class="axesclip" id="clip518fedx"><rect x="10" y="0" width="280" height="135"/></clipPath><clipPath class="axesclip" id="clip518fedy"><rect x="0" y="50" width="300" height="75"/></clipPath><clipPath class="axesclip" id="clip518fedxy"><rect x="10" y="50" width="280" height="75"/></clipPath></g><g class="gradients"/><g class="patterns"/></defs><g class="bglayer"/><g class="layer-below"><g class="imagelayer"/><g class="shapelayer"/></g><g class="cartesianlayer"><g class="subplot xy"><g class="layer-subplot"><g class="shapelayer"/><g class="imagelayer"/></g><g class="minor-gridlayer"><g class="x"/><g class="y"/></g><g class="gridlayer"><g class="x"><path class="xgrid crisp" transform="translate(32.95,0)" d="M0,50v75" style="stroke: rgb(235, 240, 248); stroke-opacity: 1; stroke-width: 1px;"/><path class="xgrid crisp" transform="translate(101.8,0)" d="M0,50v75" style="stroke: rgb(235, 240, 248); stroke-opacity: 1; stroke-width: 1px;"/><path class="xgrid crisp" transform="translate(172.95,0)" d="M0,50v75" style="stroke: rgb(235, 240, 248); stroke-opacity: 1; stroke-width: 1px;"/><path class="xgrid crisp" transform="translate(244.1,0)" d="M0,50v75" style="stroke: rgb(235, 240, 248); stroke-opacity: 1; stroke-width: 1px;"/></g><g class="y"><path class="ygrid crisp" transform="translate(0,108.99000000000001)" d="M10,0h280" style="stroke: rgb(235, 240, 248); stroke-opacity: 1; stroke-width: 1px;"/><path class="ygrid crisp" transform="translate(0,92.97999999999999)" d="M10,0h280" style="stroke: rgb(235, 240, 248); stroke-opacity: 1; stroke-width: 1px;"/><path class="ygrid crisp" transform="translate(0,76.97)" d="M10,0h280" style="stroke: rgb(235, 240, 248); stroke-opacity: 1; stroke-width: 1px;"/><path class="ygrid crisp" transform="translate(0,60.96)" d="M10,0h280" style="stroke: rgb(235, 240, 248); stroke-opacity: 1; stroke-width: 1px;"/></g></g><g class="zerolinelayer"><path class="yzl zl crisp" transform="translate(0,125)" d="M10,0h280" style="stroke: rgb(235, 240, 248); stroke-opacity: 1; stroke-width: 2px;"/></g><path class="xlines-below"/><path class="ylines-below"/><g class="overlines-below"/><g class="xaxislayer-below"/><g class="yaxislayer-below"/><g class="overaxes-below"/><g class="plot" transform="translate(10,50)" clip-path="url(#clip518fedxyplot)"><g class="scatterlayer mlayer"><g class="trace scatter trace303c49" style="stroke-miterlimit: 2; opacity: 1;"><g class="fills"/><g class="errorbars"/><g class="lines"><path class="js-line" d="M0,17.68L4.59,19.12L6.89,18.64L25.25,18.8L27.54,20.56L55.08,22.32L57.38,21.84L61.97,21.36L64.26,24.08L66.56,23.6L68.85,24.88L84.92,24.4L87.21,26.01L91.8,27.13L94.1,27.29L112.46,27.45L114.75,27.45L119.34,27.29L121.64,24.88L126.23,23.6L128.52,23.12L140,22.32L142.3,21.52L160.66,20.56L162.95,19.92L167.54,19.92L169.84,18.48L174.43,18.48L176.72,14L185.9,5.67L188.2,5.67L201.97,6.31L204.26,7.11L213.44,7.27L215.74,3.75L224.92,6.15L227.21,6.15L231.8,7.11L234.1,7.75L236.39,8.87L240.98,9.67L263.93,8.71L266.23,7.27L275.41,6.79L277.7,3.91L280,3.75" style="vector-effect: none; fill: none; stroke: rgb(238, 58, 67); stroke-opacity: 1; stroke-width: 5px; opacity: 1;"/></g><g class="points"/><g class="text"/></g><g class="trace scatter tracedca11a" style="stroke-miterlimit: 2; opacity: 1;"><g class="fills"/><g class="errorbars"/><g class="lines"><path class="js-line" d="M0,43.46L4.59,40.1L6.89,38.17L9.18,32.25L11.48,32.09L13.77,33.37L16.07,32.09L25.25,31.77L27.54,26.33L29.84,23.92L32.13,25.04L36.72,23.44L39.02,23.28L41.31,24.08L43.61,23.28L61.97,23.28L64.26,21.84L66.56,21.04L68.85,18.64L87.21,19.12L89.51,20.72L110.16,22.8L112.46,22.8L126.23,23.6L128.52,23.6L140,23.12L142.3,22L146.89,21.84L149.18,22.16L158.36,22.48L160.66,22.48L174.43,23.28L176.72,25.04L185.9,24.88L188.2,24.88L190.49,24.88L192.79,21.2L201.97,21.04L204.26,19.12L213.44,18.8L215.74,22.48L224.92,24.56L227.21,24.56L234.1,23.44L236.39,21.68L245.57,20.4L247.87,20.4L263.93,20.88L266.23,21.84L275.41,22L277.7,23.28L280,23.44" style="vector-effect: none; fill: none; stroke: rgb(0, 180, 219); stroke-opacity: 1; stroke-width: 5px; opacity: 1;"/></g><g class="points"/><g class="text"/></g><g class="trace scatter trace264411" style="stroke-miterlimit: 2; opacity: 1;"><g class="fills"/><g class="errorbars"/><g class="lines"><path class="js-line" d="M0,12.08L2.3,12.08L4.59,16.24L6.89,18.64L9.18,24.08L11.48,23.92L13.77,21.2L16.07,23.92L18.36,23.92L25.25,24.08L27.54,27.29L29.84,29.21L32.13,27.77L39.02,28.25L41.31,27.61L48.2,28.25L50.49,28.25L61.97,28.73L64.26,27.29L68.85,28.25L71.15,28.25L82.62,28.09L84.92,29.37L89.51,23.12L91.8,22.48L107.87,20.24L110.16,20.24L119.34,17.68L121.64,19.92L128.52,21.2L130.82,21.2L140,22.32L142.3,24.08L146.89,24.56L149.18,24.4L165.25,24.4L167.54,24.4L174.43,25.04L176.72,27.45L185.9,34.33L188.2,34.33L190.49,34.33L192.79,37.37L201.97,37.69L204.26,38.65L215.74,38.49L222.62,34.17L236.39,34.33L240.98,34.97L275.41,36.09L277.7,37.69L280,37.69" style="vector-effect: none; fill: none; stroke: rgb(138, 44, 81); stroke-opacity: 1; stroke-width: 5px; opacity: 1;"/></g><g class="points"/><g class="text"/></g><g class="trace scatter tracea2c15d" style="stroke-miterlimit: 2; opacity: 1;"><g class="fills"/><g class="errorbars"/><g class="lines"><path class="js-line" d="M0,66.67L2.3,66.67L4.59,64.59L11.48,65.23L13.77,66.35L18.36,65.23L20.66,65.23L55.08,66.19L57.38,66.51L66.56,67.15L68.85,68.12L105.57,69.08L107.87,69.4L112.46,70.36L114.75,71L140,72.12L142.3,72.28L176.72,73.4" style="vector-effect: none; fill: none; stroke: rgb(1, 27, 58); stroke-opacity: 1; stroke-width: 5px; opacity: 1;"/></g><g class="points"/><g class="text"/></g></g></g><g class="overplot"/><path class="xlines-above crisp" d="M0,0" style="fill: none;"/><path class="ylines-above crisp" d="M0,0" style="fill: none;"/><g class="overlines-above"/><g class="xaxislayer-above"/><g class="yaxislayer-above"/><g class="overaxes-above"/></g></g><g class="polarlayer"/><g class="smithlayer"/><g class="ternarylayer"/><g class="geolayer"/><g class="funnelarealayer"/><g class="pielayer"/><g class="iciclelayer"/><g class="treemaplayer"/><g class="sunburstlayer"/><g class="glimages"/><defs id="topdefs-518fed"><g class="clips"/></defs><g class="layer-above"><g class="imagelayer"/><g class="shapelayer"/></g><g class="infolayer"><g class="g-gtitle"><text class="gtitle" x="15" y="25" text-anchor="start" dy="0em" style="font-family: Ubuntu, verdana, arial, sans-serif; font-size: 16px; fill: rgb(233, 84, 32); opacity: 1; font-weight: normal; white-space: pre;">Premiér/ka 2023</text></g><g class="g-xtitle"/><g class="g-ytitle"/></g></svg>