<svg class="main-svg" xmlns="http://www.w3.org/2000/svg" xmlns:xlink="http://www.w3.org/1999/xlink" width="300" height="135" style="" viewBox="0 0 300 135"><rect x="0" y="0" width="300" height="135" style="fill: rgb(255, 255, 255); fill-opacity: 1;"/><defs id="defs-89b3e3"><g class="clips"><clipPath id="clip89b3e3xyplot" class="plotclip"><rect width="280" height="75"/></clipPath><clipPath class="axesclip" id="clip89b3e3x"><rect x="10" y="0" width="280" height="135"/></clipPath><clipPath class="axesclip" id="clip89b3e3y"><rect x="0" y="50" width="300" height="75"/></clipPath><clipPath class="axesclip" id="clip89b3e3xy"><rect x="10" y="50" width="280" height="75"/></clipPath></g><g class="gradients"/><g class="patterns"/></defs><g class="bglayer"/><g class="layer-below"><g class="imagelayer"/><g class="shapelayer"/></g><g class="cartesianlayer"><g class="subplot xy"><g class="layer-subplot"><g class="shapelayer"/><g class="imagelayer"/></g><g class="minor-gridlayer"><g class="x"/><g class="y"/></g><g class="gridlayer"><g class="x"><path class="xgrid crisp" transform="translate(66,0)" d="M0,50v75" style="stroke: rgb(235, 240, 248); stroke-opacity: 1; stroke-width: 1px;"/><path class="xgrid crisp" transform="translate(126.31,0)" d="M0,50v75" style="stroke: rgb(235, 240, 248); stroke-opacity: 1; stroke-width: 1px;"/><path class="xgrid crisp" transform="translate(186.62,0)" d="M0,50v75" style="stroke: rgb(235, 240, 248); stroke-opacity: 1; stroke-width: 1px;"/><path class="xgrid crisp" transform="translate(246.92,0)" d="M0,50v75" style="stroke: rgb(235, 240, 248); stroke-opacity: 1; stroke-width: 1px;"/></g><g class="y"><path class="ygrid crisp" transform="translate(0,106.63)" d="M10,0h280" style="stroke: rgb(235, 240, 248); stroke-opacity: 1; stroke-width: 1px;"/><path class="ygrid crisp" transform="translate(0,88.27000000000001)" d="M10,0h280" style="stroke: rgb(235, 240, 248); stroke-opacity: 1; stroke-width: 1px;"/><path class="ygrid crisp" transform="translate(0,69.9)" d="M10,0h280" style="stroke: rgb(235, 240, 248); stroke-opacity: 1; stroke-width: 1px;"/><path class="ygrid crisp" transform="translate(0,51.53)" d="M10,0h280" style="stroke: rgb(235, 240, 248); stroke-opacity: 1; stroke-width: 1px;"/></g></g><g class="zerolinelayer"><path class="yzl zl crisp" transform="translate(0,125)" d="M10,0h280" style="stroke: rgb(235, 240, 248); stroke-opacity: 1; stroke-width: 2px;"/></g><path class="xlines-below"/><path class="ylines-below"/><g class="overlines-below"/><g class="xaxislayer-below"/><g class="yaxislayer-below"/><g class="overaxes-below"/><g class="plot" transform="translate(10,50)" clip-path="url(#clip89b3e3xyplot)"><g class="scatterlayer mlayer"><g class="trace scatter trace79751c" style="stroke-miterlimit: 2; opacity: 1;"><g class="fills"/><g class="errorbars"/><g class="lines"><path class="js-line" d="M0,10.18L4.31,11.65L8.62,11.75L21.54,11.11L25.85,11.55L38.77,11.11L43.08,11.11L47.38,11.39L51.69,13.47L94.77,15.38L99.08,15.38L116.31,14.37L120.62,17.38L124.92,17.1L129.23,18.37L159.38,17.83L163.69,19.76L172.31,21L176.62,21.12L224,20.87L228.31,18.15L232.62,16.69L236.92,16.64L254.15,16.23L258.46,16.23L271.38,14.39L275.69,14.14L280,14.02" style="vector-effect: none; fill: none; stroke: rgb(238, 58, 67); stroke-opacity: 1; stroke-width: 5px; opacity: 1;"/></g><g class="points"/><g class="text"/></g><g class="trace scatter tracedae710" style="stroke-miterlimit: 2; opacity: 1;"><g class="fills"/><g class="errorbars"/><g class="lines"><path class="js-line" d="M0,39.33L8.62,35.41L12.92,33.37L17.23,26.62L21.54,26.46L25.85,27.88L30.15,26.46L47.38,26.04L51.69,19.95L56,17.21L60.31,18.57L68.92,16.76L73.23,16.45L77.54,17.49L81.85,16.5L116.31,16.63L120.62,14.92L124.92,14.16L129.23,11.4L159.38,10.76L163.69,12.04L172.31,14.12L176.62,14.58L202.46,15.89L206.77,15.89L262.77,16.02L267.08,14.8L275.69,14.69L280,14.94" style="vector-effect: none; fill: none; stroke: rgb(0, 180, 219); stroke-opacity: 1; stroke-width: 5px; opacity: 1;"/></g><g class="points"/><g class="text"/></g><g class="trace scatter tracea95c14" style="stroke-miterlimit: 2; opacity: 1;"><g class="fills"/><g class="errorbars"/><g class="lines"><path class="js-line" d="M0,3.81L4.31,3.75L8.62,8.42L12.92,11.17L17.23,17.42L21.54,17.22L25.85,14.19L30.15,17.22L34.46,17.22L47.38,17.47L51.69,21.02L56,23.22L60.31,21.7L73.23,22.22L77.54,21.64L90.46,22.27L94.77,22.27L116.31,22.62L120.62,21.14L129.23,22.19L133.54,22.19L155.08,21.95L159.38,23.58L168,16.47L172.31,15.67L198.15,13.15L202.46,12.98L211.08,11.77L215.38,10.84L224,9.97L228.31,12.38L236.92,13.48L241.23,13.95L258.46,13.95L262.77,15.31L271.38,17.85L275.69,17.63L280,17.51" style="vector-effect: none; fill: none; stroke: rgb(138, 44, 81); stroke-opacity: 1; stroke-width: 5px; opacity: 1;"/></g><g class="points"/><g class="text"/></g><g class="trace scatter tracef7c8cb" style="stroke-miterlimit: 2; opacity: 1;"><g class="fills"/><g class="errorbars"/><g class="lines"><path class="js-line" d="M0,65.44L4.31,65.43L8.62,63.17L21.54,64.04L25.85,65.2L34.46,64.04L38.77,64.04L103.38,64.9L107.69,65.47L124.92,66.17L129.23,67.19L198.15,68.34L202.46,68.66L211.08,69.83L215.38,70.34L258.46,71.49L262.77,71.63L280,71.88" style="vector-effect: none; fill: none; stroke: rgb(1, 27, 58); stroke-opacity: 1; stroke-width: 5px; opacity: 1;"/></g><g class="points"/><g class="text"/></g><g class="trace scatter trace553981" style="stroke-miterlimit: 2; opacity: 1;"><g class="fills"/><g class="errorbars"/><g class="lines"><path class="js-line" d="M0,72.57L232.62,72.9L236.92,73.07L280,72.98" style="vector-effect: none; fill: none; stroke: rgb(97, 162, 41); stroke-opacity: 1; stroke-width: 5px; opacity: 1;"/></g><g class="points"/><g class="text"/></g></g></g><g class="overplot"/><path class="xlines-above crisp" d="M0,0" style="fill: none;"/><path class="ylines-above crisp" d="M0,0" style="fill: none;"/><g class="overlines-above"/><g class="xaxislayer-above"/><g class="yaxislayer-above"/><g class="overaxes-above"/></g></g><g class="polarlayer"/><g class="smithlayer"/><g class="ternarylayer"/><g class="geolayer"/><g class="funnelarealayer"/><g class="pielayer"/><g class="iciclelayer"/><g class="treemaplayer"/><g class="sunburstlayer"/><g class="glimages"/><defs id="topdefs-89b3e3"><g class="clips"/></defs><g class="layer-above"><g class="imagelayer"/><g class="shapelayer"/></g><g class="infolayer"><g class="g-gtitle"><text class="gtitle" x="15" y="25" text-anchor="start" dy="0em" style="font-family: Ubuntu, verdana, arial, sans-serif; font-size: 16px; fill: rgb(233, 84, 32); opacity: 1; font-weight: normal; white-space: pre;">Premiér/ka 2023</text></g><g class="g-xtitle"/><g class="g-ytitle"/></g></svg>