<svg class="main-svg" xmlns="http://www.w3.org/2000/svg" xmlns:xlink="http://www.w3.org/1999/xlink" width="300" height="135" style="" viewBox="0 0 300 135"><rect x="0" y="0" width="300" height="135" style="fill: rgb(255, 255, 255); fill-opacity: 1;"/><defs id="defs-555feb"><g class="clips"><clipPath id="clip555febxyplot" class="plotclip"><rect width="280" height="75"/></clipPath><clipPath class="axesclip" id="clip555febx"><rect x="10" y="0" width="280" height="135"/></clipPath><clipPath class="axesclip" id="clip555feby"><rect x="0" y="50" width="300" height="75"/></clipPath><clipPath class="axesclip" id="clip555febxy"><rect x="10" y="50" width="280" height="75"/></clipPath></g><g class="gradients"/><g class="patterns"/></defs><g class="bglayer"/><g class="layer-below"><g class="imagelayer"/><g class="shapelayer"/></g><g class="cartesianlayer"><g class="subplot xy"><g class="layer-subplot"><g class="shapelayer"/><g class="imagelayer"/></g><g class="minor-gridlayer"><g class="x"/><g class="y"/></g><g class="gridlayer"><g class="x"><path class="xgrid crisp" transform="translate(60.56,0)" d="M0,50v75" style="stroke: rgb(235, 240, 248); stroke-opacity: 1; stroke-width: 1px;"/><path class="xgrid crisp" transform="translate(115,0)" d="M0,50v75" style="stroke: rgb(235, 240, 248); stroke-opacity: 1; stroke-width: 1px;"/><path class="xgrid crisp" transform="translate(169.44,0)" d="M0,50v75" style="stroke: rgb(235, 240, 248); stroke-opacity: 1; stroke-width: 1px;"/><path class="xgrid crisp" transform="translate(223.89,0)" d="M0,50v75" style="stroke: rgb(235, 240, 248); stroke-opacity: 1; stroke-width: 1px;"/><path class="xgrid crisp" transform="translate(278.33,0)" d="M0,50v75" style="stroke: rgb(235, 240, 248); stroke-opacity: 1; stroke-width: 1px;"/></g><g class="y"><path class="ygrid crisp" transform="translate(0,106.88)" d="M10,0h280" style="stroke: rgb(235, 240, 248); stroke-opacity: 1; stroke-width: 1px;"/><path class="ygrid crisp" transform="translate(0,88.75999999999999)" d="M10,0h280" style="stroke: rgb(235, 240, 248); stroke-opacity: 1; stroke-width: 1px;"/><path class="ygrid crisp" transform="translate(0,70.64)" d="M10,0h280" style="stroke: rgb(235, 240, 248); stroke-opacity: 1; stroke-width: 1px;"/><path class="ygrid crisp" transform="translate(0,52.51)" d="M10,0h280" style="stroke: rgb(235, 240, 248); stroke-opacity: 1; stroke-width: 1px;"/></g></g><g class="zerolinelayer"><path class="yzl zl crisp" transform="translate(0,125)" d="M10,0h280" style="stroke: rgb(235, 240, 248); stroke-opacity: 1; stroke-width: 2px;"/></g><path class="xlines-below"/><path class="ylines-below"/><g class="overlines-below"/><g class="xaxislayer-below"/><g class="yaxislayer-below"/><g class="overaxes-below"/><g class="plot" transform="translate(10,50)" clip-path="url(#clip555febxyplot)"><g class="scatterlayer mlayer"><g class="trace scatter trace5a05d8" style="stroke-miterlimit: 2; opacity: 1;"><g class="fills"/><g class="errorbars"/><g class="lines"><path class="js-line" d="M0,10.23L7.78,11.74L11.67,11.21L42.78,11.35L46.67,13.32L81.67,15.29L85.56,15.29L105,14.17L108.89,17.3L112.78,16.88L116.67,18.28L143.89,17.65L147.78,19.55L155.56,20.86L159.44,20.98L202.22,20.93L206.11,18.28L210,16.85L213.89,16.85L225.56,16.33L229.44,16.33L237.22,15.41L241.11,14.48L272.22,13.75L276.11,12.73L280,12.73" style="vector-effect: none; fill: none; stroke: rgb(238, 58, 67); stroke-opacity: 1; stroke-width: 5px; opacity: 1;"/></g><g class="points"/><g class="text"/></g><g class="trace scatter trace436637" style="stroke-miterlimit: 2; opacity: 1;"><g class="fills"/><g class="errorbars"/><g class="lines"><path class="js-line" d="M0,39.3L7.78,35.48L11.67,33.33L15.56,26.65L19.44,26.48L23.33,27.96L27.22,26.48L42.78,26.03L46.67,19.9L50.56,17.21L54.44,18.43L62.22,16.71L66.11,16.4L70,17.34L73.89,16.4L105,16.58L108.89,14.87L112.78,13.94L116.67,11.19L147.78,11.7L151.67,13.4L167.22,15.16L171.11,15.16L178.89,15.95L182.78,15.84L237.22,16.29L241.11,15.01L248.89,14.84L252.78,15.38L268.33,15.74L272.22,15.74L280,15.8" style="vector-effect: none; fill: none; stroke: rgb(0, 180, 219); stroke-opacity: 1; stroke-width: 5px; opacity: 1;"/></g><g class="points"/><g class="text"/></g><g class="trace scatter trace4f878a" style="stroke-miterlimit: 2; opacity: 1;"><g class="fills"/><g class="errorbars"/><g class="lines"><path class="js-line" d="M0,3.75L3.89,3.75L7.78,8.44L11.67,11.21L15.56,17.38L19.44,17.18L23.33,14.08L27.22,17.18L31.11,17.18L42.78,17.38L46.67,20.97L50.56,23.18L54.44,21.54L62.22,22.09L66.11,22.13L70,21.46L73.89,22.13L105,22.51L108.89,21.04L120.56,22.07L124.44,21.88L140,21.88L143.89,23.36L151.67,16.3L155.56,15.56L178.89,13.07L182.78,12.95L190.56,11.92L194.44,11.01L202.22,10.15L206.11,12.58L213.89,13.55L217.78,14.07L233.33,14.07L237.22,15.41L245,17.91L248.89,17.74L280,17.79" style="vector-effect: none; fill: none; stroke: rgb(138, 44, 81); stroke-opacity: 1; stroke-width: 5px; opacity: 1;"/></g><g class="points"/><g class="text"/></g><g class="trace scatter trace44170f" style="stroke-miterlimit: 2; opacity: 1;"><g class="fills"/><g class="errorbars"/><g class="lines"><path class="js-line" d="M0,65.51L3.89,65.51L7.78,63.13L19.44,63.99L23.33,65.28L31.11,63.99L35,63.99L93.33,64.97L97.22,65.53L112.78,66.21L116.67,67.25L178.89,68.38L182.78,68.71L190.56,69.72L194.44,70.39L233.33,71.53L237.22,71.67L260.56,72.28L264.44,72.28L280,72.47" style="vector-effect: none; fill: none; stroke: rgb(1, 27, 58); stroke-opacity: 1; stroke-width: 5px; opacity: 1;"/></g><g class="points"/><g class="text"/></g></g></g><g class="overplot"/><path class="xlines-above crisp" d="M0,0" style="fill: none;"/><path class="ylines-above crisp" d="M0,0" style="fill: none;"/><g class="overlines-above"/><g class="xaxislayer-above"/><g class="yaxislayer-above"/><g class="overaxes-above"/></g></g><g class="polarlayer"/><g class="smithlayer"/><g class="ternarylayer"/><g class="geolayer"/><g class="funnelarealayer"/><g class="pielayer"/><g class="iciclelayer"/><g class="treemaplayer"/><g class="sunburstlayer"/><g class="glimages"/><defs id="topdefs-555feb"><g class="clips"/></defs><g class="layer-above"><g class="imagelayer"/><g class="shapelayer"/></g><g class="infolayer"><g class="g-gtitle"><text class="gtitle" x="15" y="25" text-anchor="start" dy="0em" style="font-family: Ubuntu, verdana, arial, sans-serif; font-size: 16px; fill: rgb(233, 84, 32); opacity: 1; font-weight: normal; white-space: pre;">Premiér/ka 2023</text></g><g class="g-xtitle"/><g class="g-ytitle"/></g></svg>