<svg class="main-svg" xmlns="http://www.w3.org/2000/svg" xmlns:xlink="http://www.w3.org/1999/xlink" width="300" height="135" style="" viewBox="0 0 300 135"><rect x="0" y="0" width="300" height="135" style="fill: rgb(255, 255, 255); fill-opacity: 1;"/><defs id="defs-049f87"><g class="clips"><clipPath id="clip049f87xyplot" class="plotclip"><rect width="280" height="75"/></clipPath><clipPath class="axesclip" id="clip049f87x"><rect x="10" y="0" width="280" height="135"/></clipPath><clipPath class="axesclip" id="clip049f87y"><rect x="0" y="50" width="300" height="75"/></clipPath><clipPath class="axesclip" id="clip049f87xy"><rect x="10" y="50" width="280" height="75"/></clipPath></g><g class="gradients"/><g class="patterns"/></defs><g class="bglayer"/><g class="layer-below"><g class="imagelayer"/><g class="shapelayer"/></g><g class="cartesianlayer"><g class="subplot xy"><g class="layer-subplot"><g class="shapelayer"/><g class="imagelayer"/></g><g class="minor-gridlayer"><g class="x"/><g class="y"/></g><g class="gridlayer"><g class="x"><path class="xgrid crisp" transform="translate(40.43,0)" d="M0,50v75" style="stroke: rgb(235, 240, 248); stroke-opacity: 1; stroke-width: 1px;"/><path class="xgrid crisp" transform="translate(131.74,0)" d="M0,50v75" style="stroke: rgb(235, 240, 248); stroke-opacity: 1; stroke-width: 1px;"/><path class="xgrid crisp" transform="translate(226.09,0)" d="M0,50v75" style="stroke: rgb(235, 240, 248); stroke-opacity: 1; stroke-width: 1px;"/></g><g class="y"><path class="ygrid crisp" transform="translate(0,108.16)" d="M10,0h280" style="stroke: rgb(235, 240, 248); stroke-opacity: 1; stroke-width: 1px;"/><path class="ygrid crisp" transform="translate(0,91.31)" d="M10,0h280" style="stroke: rgb(235, 240, 248); stroke-opacity: 1; stroke-width: 1px;"/><path class="ygrid crisp" transform="translate(0,74.47)" d="M10,0h280" style="stroke: rgb(235, 240, 248); stroke-opacity: 1; stroke-width: 1px;"/><path class="ygrid crisp" transform="translate(0,57.62)" d="M10,0h280" style="stroke: rgb(235, 240, 248); stroke-opacity: 1; stroke-width: 1px;"/></g></g><g class="zerolinelayer"><path class="yzl zl crisp" transform="translate(0,125)" d="M10,0h280" style="stroke: rgb(235, 240, 248); stroke-opacity: 1; stroke-width: 2px;"/></g><path class="xlines-below"/><path class="ylines-below"/><g class="overlines-below"/><g class="xaxislayer-below"/><g class="yaxislayer-below"/><g class="overaxes-below"/><g class="plot" transform="translate(10,50)" clip-path="url(#clip049f87xyplot)"><g class="scatterlayer mlayer"><g class="trace scatter trace52f620" style="stroke-miterlimit: 2; opacity: 1;"><g class="fills"/><g class="errorbars"/><g class="lines"><path class="js-line" d="M0,11.38L3.04,12.83L6.09,12.04L12.17,11.82L15.22,11.82L18.26,12.63L21.3,11.82L33.48,12.05L36.52,14.08L54.78,16L57.83,16.25L82.17,15.38L85.22,18.47L88.26,18.15L91.3,19.89L112.61,19.34L115.65,21.11L118.7,22.66L121.74,22.77L155.22,23.61L158.26,23.5L164.35,19.91L167.39,19.91L176.52,19.36L179.57,19.36L213.04,19.08L216.09,18.07L222.17,18.07L225.22,15.88L231.3,15.88L234.35,11.16L246.52,3.75L249.57,3.75L280,3.82" style="vector-effect: none; fill: none; stroke: rgb(238, 58, 67); stroke-opacity: 1; stroke-width: 5px; opacity: 1;"/></g><g class="points"/><g class="text"/></g><g class="trace scatter tracee3d869" style="stroke-miterlimit: 2; opacity: 1;"><g class="fills"/><g class="errorbars"/><g class="lines"><path class="js-line" d="M0,40.11L3.04,38.72L6.09,35.67L9.13,33.62L12.17,26.99L15.22,26.99L18.26,28.68L21.3,26.99L24.35,26.99L33.48,26.54L36.52,20.7L39.57,18.06L42.61,19.32L48.7,17.69L51.74,17.36L54.78,18.22L57.83,17.36L82.17,17.62L85.22,16.04L88.26,15.4L91.3,13.04L115.65,13.51L118.7,15.61L143.04,18.07L146.09,18.07L167.39,19.91L170.43,19.86L197.83,20.59L200.87,20.93L231.3,20.93L234.35,22.78L252.61,23.63L255.65,19.08L267.83,19.08L270.87,16.55L280,15.94" style="vector-effect: none; fill: none; stroke: rgb(0, 180, 219); stroke-opacity: 1; stroke-width: 5px; opacity: 1;"/></g><g class="points"/><g class="text"/></g><g class="trace scatter trace95969b" style="stroke-miterlimit: 2; opacity: 1;"><g class="fills"/><g class="errorbars"/><g class="lines"><path class="js-line" d="M0,5.07L3.04,5L6.09,8.84L9.13,11.47L12.17,17.76L15.22,17.76L18.26,15.25L21.3,17.76L24.35,17.76L33.48,17.97L36.52,21.78L39.57,23.9L42.61,22.43L51.74,22.95L54.78,22.34L63.91,22.95L66.96,22.95L82.17,23.55L85.22,22.05L94.35,23.64L97.39,23.64L112.61,24.84L115.65,21.94L118.7,18.29L121.74,17.73L136.96,15.24L140,15.24L155.22,13.99L158.26,13.21L161.3,15.79L164.35,16.73L182.61,17.35L185.65,18.74L191.74,22.78L194.78,22.78L231.3,22.78L234.35,25.31L246.52,33.23L249.57,33.23L252.61,33.23L255.65,35.92L280,36.8" style="vector-effect: none; fill: none; stroke: rgb(138, 44, 81); stroke-opacity: 1; stroke-width: 5px; opacity: 1;"/></g><g class="points"/><g class="text"/></g></g></g><g class="overplot"/><path class="xlines-above crisp" d="M0,0" style="fill: none;"/><path class="ylines-above crisp" d="M0,0" style="fill: none;"/><g class="overlines-above"/><g class="xaxislayer-above"/><g class="yaxislayer-above"/><g class="overaxes-above"/></g></g><g class="polarlayer"/><g class="smithlayer"/><g class="ternarylayer"/><g class="geolayer"/><g class="funnelarealayer"/><g class="pielayer"/><g class="iciclelayer"/><g class="treemaplayer"/><g class="sunburstlayer"/><g class="glimages"/><defs id="topdefs-049f87"><g class="clips"/></defs><g class="layer-above"><g class="imagelayer"/><g class="shapelayer"/></g><g class="infolayer"><g class="g-gtitle"><text class="gtitle" x="15" y="25" text-anchor="start" dy="0em" style="font-family: Ubuntu, verdana, arial, sans-serif; font-size: 16px; fill: rgb(233, 84, 32); opacity: 1; font-weight: normal; white-space: pre;">Premiér/ka 2023</text></g><g class="g-xtitle"/><g class="g-ytitle"/></g></svg>