<svg class="main-svg" xmlns="http://www.w3.org/2000/svg" xmlns:xlink="http://www.w3.org/1999/xlink" width="300" height="135" style="" viewBox="0 0 300 135"><rect x="0" y="0" width="300" height="135" style="fill: rgb(255, 255, 255); fill-opacity: 1;"/><defs id="defs-9fb1a2"><g class="clips"><clipPath id="clip9fb1a2xyplot" class="plotclip"><rect width="280" height="75"/></clipPath><clipPath class="axesclip" id="clip9fb1a2x"><rect x="10" y="0" width="280" height="135"/></clipPath><clipPath class="axesclip" id="clip9fb1a2y"><rect x="0" y="50" width="300" height="75"/></clipPath><clipPath class="axesclip" id="clip9fb1a2xy"><rect x="10" y="50" width="280" height="75"/></clipPath></g><g class="gradients"/><g class="patterns"/></defs><g class="bglayer"/><g class="layer-below"><g class="imagelayer"/><g class="shapelayer"/></g><g class="cartesianlayer"><g class="subplot xy"><g class="layer-subplot"><g class="shapelayer"/><g class="imagelayer"/></g><g class="minor-gridlayer"><g class="x"/><g class="y"/></g><g class="gridlayer"><g class="x"><path class="xgrid crisp" transform="translate(45,0)" d="M0,50v75" style="stroke: rgb(235, 240, 248); stroke-opacity: 1; stroke-width: 1px;"/><path class="xgrid crisp" transform="translate(150,0)" d="M0,50v75" style="stroke: rgb(235, 240, 248); stroke-opacity: 1; stroke-width: 1px;"/><path class="xgrid crisp" transform="translate(258.5,0)" d="M0,50v75" style="stroke: rgb(235, 240, 248); stroke-opacity: 1; stroke-width: 1px;"/></g><g class="y"><path class="ygrid crisp" transform="translate(0,107.83)" d="M10,0h280" style="stroke: rgb(235, 240, 248); stroke-opacity: 1; stroke-width: 1px;"/><path class="ygrid crisp" transform="translate(0,90.67)" d="M10,0h280" style="stroke: rgb(235, 240, 248); stroke-opacity: 1; stroke-width: 1px;"/><path class="ygrid crisp" transform="translate(0,73.5)" d="M10,0h280" style="stroke: rgb(235, 240, 248); stroke-opacity: 1; stroke-width: 1px;"/><path class="ygrid crisp" transform="translate(0,56.34)" d="M10,0h280" style="stroke: rgb(235, 240, 248); stroke-opacity: 1; stroke-width: 1px;"/></g></g><g class="zerolinelayer"><path class="yzl zl crisp" transform="translate(0,125)" d="M10,0h280" style="stroke: rgb(235, 240, 248); stroke-opacity: 1; stroke-width: 2px;"/></g><path class="xlines-below"/><path class="ylines-below"/><g class="overlines-below"/><g class="xaxislayer-below"/><g class="yaxislayer-below"/><g class="overaxes-below"/><g class="plot" transform="translate(10,50)" clip-path="url(#clip9fb1a2xyplot)"><g class="scatterlayer mlayer"><g class="trace scatter tracecdbd0f" style="stroke-miterlimit: 2; opacity: 1;"><g class="fills"/><g class="errorbars"/><g class="lines"><path class="js-line" d="M0,10.21L3.5,11.57L7,10.89L14,10.55L17.5,10.55L21,11.36L24.5,10.55L38.5,10.78L42,13.02L66.5,15.13L70,15.13L94.5,14.21L98,17.35L101.5,17.08L105,18.81L129.5,18.26L133,20.04L136.5,21.63L140,21.69L161,22.33L164.5,22.33L182,22.59L185.5,20.12L192.5,18.84L196,18.34L213.5,17.55L217,16.81L227.5,17.32L231,16.81L255.5,15.78L259,13.61L266,13.61L269.5,8.83L280,4.1" style="vector-effect: none; fill: none; stroke: rgb(238, 58, 67); stroke-opacity: 1; stroke-width: 5px; opacity: 1;"/></g><g class="points"/><g class="text"/></g><g class="trace scatter tracef27070" style="stroke-miterlimit: 2; opacity: 1;"><g class="fills"/><g class="errorbars"/><g class="lines"><path class="js-line" d="M0,39.38L3.5,38.02L7,34.9L10.5,32.81L14,26L17.5,26L21,27.85L24.5,26L28,26L38.5,25.55L42,19.62L45.5,16.94L49,18.3L56,16.57L59.5,16.24L63,17.2L66.5,16.24L94.5,16.61L98,14.92L101.5,14.17L105,11.97L133,12.28L136.5,14.43L157.5,17L161,17L178.5,17.89L182,18.77L206.5,18.84L210,18.84L220.5,17.32L224,17.84L238,18.87L241.5,18.87L266,18.92L269.5,20.97L280,20.76" style="vector-effect: none; fill: none; stroke: rgb(0, 180, 219); stroke-opacity: 1; stroke-width: 5px; opacity: 1;"/></g><g class="points"/><g class="text"/></g><g class="trace scatter trace821f0e" style="stroke-miterlimit: 2; opacity: 1;"><g class="fills"/><g class="errorbars"/><g class="lines"><path class="js-line" d="M0,3.75L3.5,3.75L7,7.55L10.5,10.26L14,16.79L17.5,16.79L21,14.13L24.5,16.79L28,16.79L38.5,17L42,20.69L45.5,22.92L49,21.4L56,21.95L59.5,21.97L63,21.32L66.5,21.97L94.5,22.53L98,21.07L105,22.56L108.5,22.56L126,22.56L129.5,23.92L136.5,17.28L140,16.66L150.5,15.1L154,15.1L161,14L164.5,14L178.5,12.76L182,11.97L185.5,14.61L189,15.66L210,16.16L213.5,17.55L220.5,20.76L224,20.76L266,20.81L269.5,23.54L280,28.48" style="vector-effect: none; fill: none; stroke: rgb(138, 44, 81); stroke-opacity: 1; stroke-width: 5px; opacity: 1;"/></g><g class="points"/><g class="text"/></g></g></g><g class="overplot"/><path class="xlines-above crisp" d="M0,0" style="fill: none;"/><path class="ylines-above crisp" d="M0,0" style="fill: none;"/><g class="overlines-above"/><g class="xaxislayer-above"/><g class="yaxislayer-above"/><g class="overaxes-above"/></g></g><g class="polarlayer"/><g class="smithlayer"/><g class="ternarylayer"/><g class="geolayer"/><g class="funnelarealayer"/><g class="pielayer"/><g class="iciclelayer"/><g class="treemaplayer"/><g class="sunburstlayer"/><g class="glimages"/><defs id="topdefs-9fb1a2"><g class="clips"/></defs><g class="layer-above"><g class="imagelayer"/><g class="shapelayer"/></g><g class="infolayer"><g class="g-gtitle"><text class="gtitle" x="15" y="25" text-anchor="start" dy="0em" style="font-family: Ubuntu, verdana, arial, sans-serif; font-size: 16px; fill: rgb(233, 84, 32); opacity: 1; font-weight: normal; white-space: pre;">Premiér/ka 2023</text></g><g class="g-xtitle"/><g class="g-ytitle"/></g></svg>