<svg class="main-svg" xmlns="http://www.w3.org/2000/svg" xmlns:xlink="http://www.w3.org/1999/xlink" width="300" height="135" style="" viewBox="0 0 300 135"><rect x="0" y="0" width="300" height="135" style="fill: rgb(255, 255, 255); fill-opacity: 1;"/><defs id="defs-e5efa3"><g class="clips"><clipPath id="clipe5efa3xyplot" class="plotclip"><rect width="280" height="75"/></clipPath><clipPath class="axesclip" id="clipe5efa3x"><rect x="10" y="0" width="280" height="135"/></clipPath><clipPath class="axesclip" id="clipe5efa3y"><rect x="0" y="50" width="300" height="75"/></clipPath><clipPath class="axesclip" id="clipe5efa3xy"><rect x="10" y="50" width="280" height="75"/></clipPath></g><g class="gradients"/><g class="patterns"/></defs><g class="bglayer"/><g class="layer-below"><g class="imagelayer"/><g class="shapelayer"/></g><g class="cartesianlayer"><g class="subplot xy"><g class="layer-subplot"><g class="shapelayer"/><g class="imagelayer"/></g><g class="minor-gridlayer"><g class="x"/><g class="y"/></g><g class="gridlayer"><g class="x"><path class="xgrid crisp" transform="translate(34.56,0)" d="M0,50v75" style="stroke: rgb(235, 240, 248); stroke-opacity: 1; stroke-width: 1px;"/><path class="xgrid crisp" transform="translate(108.25,0)" d="M0,50v75" style="stroke: rgb(235, 240, 248); stroke-opacity: 1; stroke-width: 1px;"/><path class="xgrid crisp" transform="translate(184.39,0)" d="M0,50v75" style="stroke: rgb(235, 240, 248); stroke-opacity: 1; stroke-width: 1px;"/><path class="xgrid crisp" transform="translate(260.53,0)" d="M0,50v75" style="stroke: rgb(235, 240, 248); stroke-opacity: 1; stroke-width: 1px;"/></g><g class="y"><path class="ygrid crisp" transform="translate(0,108.99000000000001)" d="M10,0h280" style="stroke: rgb(235, 240, 248); stroke-opacity: 1; stroke-width: 1px;"/><path class="ygrid crisp" transform="translate(0,92.97999999999999)" d="M10,0h280" style="stroke: rgb(235, 240, 248); stroke-opacity: 1; stroke-width: 1px;"/><path class="ygrid crisp" transform="translate(0,76.97)" d="M10,0h280" style="stroke: rgb(235, 240, 248); stroke-opacity: 1; stroke-width: 1px;"/><path class="ygrid crisp" transform="translate(0,60.96)" d="M10,0h280" style="stroke: rgb(235, 240, 248); stroke-opacity: 1; stroke-width: 1px;"/></g></g><g class="zerolinelayer"><path class="yzl zl crisp" transform="translate(0,125)" d="M10,0h280" style="stroke: rgb(235, 240, 248); stroke-opacity: 1; stroke-width: 2px;"/></g><path class="xlines-below"/><path class="ylines-below"/><g class="overlines-below"/><g class="xaxislayer-below"/><g class="yaxislayer-below"/><g class="overaxes-below"/><g class="plot" transform="translate(10,50)" clip-path="url(#clipe5efa3xyplot)"><g class="scatterlayer mlayer"><g class="trace scatter trace5a0f6b" style="stroke-miterlimit: 2; opacity: 1;"><g class="fills"/><g class="errorbars"/><g class="lines"><path class="js-line" d="M0,17.68L4.91,19.12L7.37,18.64L27.02,18.8L29.47,20.56L58.95,22.32L61.4,21.84L66.32,21.36L68.77,24.08L71.23,23.6L73.68,24.88L90.88,24.4L93.33,26.01L98.25,27.13L100.7,27.29L120.35,27.45L122.81,27.45L127.72,27.29L130.18,24.88L135.09,23.6L137.54,23.12L149.82,22.32L152.28,21.52L171.93,20.56L174.39,19.92L179.3,19.92L181.75,18.48L186.67,18.48L189.12,14L198.95,5.67L201.4,5.67L216.14,6.31L218.6,7.11L228.42,7.27L230.88,3.75L240.7,6.15L243.16,6.15L248.07,7.11L250.53,7.75L252.98,8.87L257.89,9.67L280,9.67" style="vector-effect: none; fill: none; stroke: rgb(238, 58, 67); stroke-opacity: 1; stroke-width: 5px; opacity: 1;"/></g><g class="points"/><g class="text"/></g><g class="trace scatter tracee73956" style="stroke-miterlimit: 2; opacity: 1;"><g class="fills"/><g class="errorbars"/><g class="lines"><path class="js-line" d="M0,43.46L4.91,40.1L7.37,38.17L9.82,32.25L12.28,32.09L14.74,33.37L17.19,32.09L27.02,31.77L29.47,26.33L31.93,23.92L34.39,25.04L39.3,23.44L41.75,23.28L44.21,24.08L46.67,23.28L66.32,23.28L68.77,21.84L71.23,21.04L73.68,18.64L93.33,19.12L95.79,20.72L117.89,22.8L120.35,22.8L135.09,23.6L137.54,23.6L149.82,23.12L152.28,22L157.19,21.84L159.65,22.16L169.47,22.48L171.93,22.48L186.67,23.28L189.12,25.04L198.95,24.88L201.4,24.88L203.86,24.88L206.32,21.2L216.14,21.04L218.6,19.12L228.42,18.8L230.88,22.48L240.7,24.56L243.16,24.56L250.53,23.44L252.98,21.68L262.81,20.4L265.26,20.4L280,20.4" style="vector-effect: none; fill: none; stroke: rgb(0, 180, 219); stroke-opacity: 1; stroke-width: 5px; opacity: 1;"/></g><g class="points"/><g class="text"/></g><g class="trace scatter trace462583" style="stroke-miterlimit: 2; opacity: 1;"><g class="fills"/><g class="errorbars"/><g class="lines"><path class="js-line" d="M0,12.08L2.46,12.08L4.91,16.24L7.37,18.64L9.82,24.08L12.28,23.92L14.74,21.2L17.19,23.92L19.65,23.92L27.02,24.08L29.47,27.29L31.93,29.21L34.39,27.77L41.75,28.25L44.21,27.61L51.58,28.25L54.04,28.25L66.32,28.73L68.77,27.29L73.68,28.25L76.14,28.25L88.42,28.09L90.88,29.37L95.79,23.12L98.25,22.48L115.44,20.24L117.89,20.24L127.72,17.68L130.18,19.92L137.54,21.2L140,21.2L149.82,22.32L152.28,24.08L157.19,24.56L159.65,24.4L176.84,24.4L179.3,24.4L186.67,25.04L189.12,27.45L198.95,34.33L201.4,34.33L203.86,34.33L206.32,37.37L216.14,37.69L218.6,38.65L230.88,38.49L238.25,34.17L252.98,34.33L257.89,34.97L280,34.97" style="vector-effect: none; fill: none; stroke: rgb(138, 44, 81); stroke-opacity: 1; stroke-width: 5px; opacity: 1;"/></g><g class="points"/><g class="text"/></g><g class="trace scatter tracec0635c" style="stroke-miterlimit: 2; opacity: 1;"><g class="fills"/><g class="errorbars"/><g class="lines"><path class="js-line" d="M0,66.67L2.46,66.67L4.91,64.59L12.28,65.23L14.74,66.35L19.65,65.23L22.11,65.23L58.95,66.19L61.4,66.51L71.23,67.15L73.68,68.12L112.98,69.08L115.44,69.4L120.35,70.36L122.81,71L149.82,72.12L152.28,72.28L189.12,73.4" style="vector-effect: none; fill: none; stroke: rgb(1, 27, 58); stroke-opacity: 1; stroke-width: 5px; opacity: 1;"/></g><g class="points"/><g class="text"/></g></g></g><g class="overplot"/><path class="xlines-above crisp" d="M0,0" style="fill: none;"/><path class="ylines-above crisp" d="M0,0" style="fill: none;"/><g class="overlines-above"/><g class="xaxislayer-above"/><g class="yaxislayer-above"/><g class="overaxes-above"/></g></g><g class="polarlayer"/><g class="smithlayer"/><g class="ternarylayer"/><g class="geolayer"/><g class="funnelarealayer"/><g class="pielayer"/><g class="iciclelayer"/><g class="treemaplayer"/><g class="sunburstlayer"/><g class="glimages"/><defs id="topdefs-e5efa3"><g class="clips"/></defs><g class="layer-above"><g class="imagelayer"/><g class="shapelayer"/></g><g class="infolayer"><g class="g-gtitle"><text class="gtitle" x="15" y="25" text-anchor="start" dy="0em" style="font-family: Ubuntu, verdana, arial, sans-serif; font-size: 16px; fill: rgb(233, 84, 32); opacity: 1; font-weight: normal; white-space: pre;">Premiér/ka 2023</text></g><g class="g-xtitle"/><g class="g-ytitle"/></g></svg>