<svg class="main-svg" xmlns="http://www.w3.org/2000/svg" xmlns:xlink="http://www.w3.org/1999/xlink" width="400" height="400" style="" viewBox="0 0 400 400"><rect x="0" y="0" width="400" height="400" style="fill: rgb(255, 255, 255); fill-opacity: 1;"/><defs id="defs-266eab"><g class="clips"><clipPath id="clip266eabxyplot" class="plotclip"><rect width="204" height="330"/></clipPath><clipPath class="axesclip" id="clip266eabx"><rect x="50" y="0" width="204" height="400"/></clipPath><clipPath class="axesclip" id="clip266eaby"><rect x="0" y="20" width="400" height="330"/></clipPath><clipPath class="axesclip" id="clip266eabxy"><rect x="50" y="20" width="204" height="330"/></clipPath></g><g class="gradients"/><g class="patterns"/></defs><g class="bglayer"/><g class="layer-below"><g class="imagelayer"/><g class="shapelayer"/></g><g class="cartesianlayer"><g class="subplot xy"><g class="layer-subplot"><g class="shapelayer"/><g class="imagelayer"/></g><g class="minor-gridlayer"><g class="x"/><g class="y"/></g><g class="gridlayer"><g class="x"><path class="xgrid crisp" transform="translate(65.57,0)" d="M0,20v330" style="stroke: rgb(235, 240, 248); stroke-opacity: 1; stroke-width: 1px;"/><path class="xgrid crisp" transform="translate(112.28999999999999,0)" d="M0,20v330" style="stroke: rgb(235, 240, 248); stroke-opacity: 1; stroke-width: 1px;"/><path class="xgrid crisp" transform="translate(160.56,0)" d="M0,20v330" style="stroke: rgb(235, 240, 248); stroke-opacity: 1; stroke-width: 1px;"/><path class="xgrid crisp" transform="translate(208.84,0)" d="M0,20v330" style="stroke: rgb(235, 240, 248); stroke-opacity: 1; stroke-width: 1px;"/></g><g class="y"><path class="ygrid crisp" transform="translate(0,279.55)" d="M50,0h204" style="stroke: rgb(235, 240, 248); stroke-opacity: 1; stroke-width: 1px;"/><path class="ygrid crisp" transform="translate(0,209.1)" d="M50,0h204" style="stroke: rgb(235, 240, 248); stroke-opacity: 1; stroke-width: 1px;"/><path class="ygrid crisp" transform="translate(0,138.65)" d="M50,0h204" style="stroke: rgb(235, 240, 248); stroke-opacity: 1; stroke-width: 1px;"/><path class="ygrid crisp" transform="translate(0,68.2)" d="M50,0h204" style="stroke: rgb(235, 240, 248); stroke-opacity: 1; stroke-width: 1px;"/></g></g><g class="zerolinelayer"><path class="yzl zl crisp" transform="translate(0,350)" d="M50,0h204" style="stroke: rgb(235, 240, 248); stroke-opacity: 1; stroke-width: 2px;"/></g><path class="xlines-below"/><path class="ylines-below"/><g class="overlines-below"/><g class="xaxislayer-below"/><g class="yaxislayer-below"/><g class="overaxes-below"/><g class="plot" transform="translate(50,20)" clip-path="url(#clip266eabxyplot)"><g class="scatterlayer mlayer"><g class="trace scatter trace0498d3" style="stroke-miterlimit: 2; opacity: 1;"><g class="fills"/><g class="errorbars"/><g class="lines"><path class="js-line" d="M0,77.79L1.56,83.43L3.11,84.13L4.67,82.02L6.23,82.72L7.79,82.02L9.34,83.43L12.46,82.02L14.02,82.02L17.13,82.72L18.69,90.47L21.8,91.88L23.36,95.4L26.47,98.22L28.03,96.81L31.15,98.22L32.7,98.22L37.37,98.22L38.93,96.11L40.49,96.11L42.05,93.99L43.6,105.97L45.16,103.86L46.72,109.49L48.27,109.49L51.39,108.08L52.95,108.08L57.62,107.38L59.18,114.42L60.73,119.36L62.29,119.36L66.96,120.77L68.52,120.77L71.63,121.47L73.19,121.47L79.42,120.77L80.98,120.06L84.09,103.86L85.65,103.86L88.76,101.74L90.32,101.74L93.44,101.74L94.99,98.22L96.55,94.7L98.11,94.7L101.22,93.29L102.78,90.47L109.01,90.47L110.56,87.65L113.68,87.65L115.24,81.31L118.35,81.31L119.91,61.59L126.14,24.95L127.69,24.95L129.25,24.95L130.81,28.48L132.37,28.48L133.92,26.36L137.04,27.77L138.6,31.29L144.82,32L146.38,16.5L151.05,27.07L152.61,27.07L155.73,27.07L157.28,31.29L163.51,42.57L165.07,42.57L177.53,42.57L179.08,38.34L180.64,32L182.2,32L185.31,32L186.87,29.89L188.43,17.2L189.98,16.5L191.54,17.2L193.1,19.32L196.21,19.32L197.77,23.54L199.33,40.45L200.89,34.11L202.44,26.36L204,25.66" style="vector-effect: none; fill: none; stroke: rgb(238, 58, 67); stroke-opacity: 1; stroke-width: 5px; opacity: 1;"/></g><g class="points"/><g class="text"/></g><g class="trace scatter trace8b9a01" style="stroke-miterlimit: 2; opacity: 1;"><g class="fills"/><g class="errorbars"/><g class="lines"><path class="js-line" d="M0,191.21L1.56,186.28L3.11,176.42L4.67,167.97L6.23,141.9L7.79,141.2L9.34,146.83L10.9,141.2L12.46,141.2L15.57,141.2L17.13,139.79L20.24,105.27L21.8,110.2L24.92,103.15L26.47,102.45L28.03,105.97L29.59,102.45L37.37,102.45L38.93,100.33L40.49,100.33L42.05,102.45L46.72,82.02L48.27,82.02L51.39,81.31L52.95,81.31L56.06,81.31L57.62,79.2L62.29,92.59L63.85,94.7L71.63,100.33L73.19,100.33L76.31,100.33L77.86,101.74L79.42,101.74L80.98,104.56L82.53,103.15L84.09,103.86L93.44,103.86L94.99,101.74L98.11,94.7L99.66,96.11L104.34,98.93L105.89,98.93L113.68,99.63L115.24,102.45L118.35,102.45L119.91,110.2L124.58,107.38L126.14,109.49L129.25,109.49L130.81,93.29L132.37,93.29L133.92,96.11L137.04,92.59L138.6,84.13L143.27,82.72L144.82,82.72L146.38,98.93L151.05,108.08L157.28,107.38L158.84,103.15L160.4,95.4L163.51,89.77L177.53,89.77L179.08,91.88L180.64,96.11L182.2,96.11L186.87,96.81L188.43,102.45L191.54,103.15L193.1,105.27L196.21,105.97L197.77,101.04L199.33,93.99L200.89,103.15L202.44,105.27L204,104.56" style="vector-effect: none; fill: none; stroke: rgb(0, 180, 219); stroke-opacity: 1; stroke-width: 5px; opacity: 1;"/></g><g class="points"/><g class="text"/></g><g class="trace scatter trace8b12f8" style="stroke-miterlimit: 2; opacity: 1;"><g class="fills"/><g class="errorbars"/><g class="lines"><path class="js-line" d="M0,53.13L1.56,53.13L3.11,71.45L4.67,82.02L6.23,105.97L7.79,105.27L9.34,93.29L10.9,105.27L12.46,105.27L17.13,105.97L18.69,120.06L20.24,128.51L21.8,122.17L23.36,124.29L24.92,124.29L26.47,124.29L28.03,121.47L29.59,124.29L31.15,124.29L37.37,124.29L38.93,125.7L42.05,126.4L43.6,120.06L46.72,124.29L48.27,124.29L51.39,123.58L52.95,123.58L56.06,123.58L57.62,129.22L62.29,98.93L63.85,96.81L66.96,93.29L68.52,93.29L70.08,89.06L71.63,89.06L74.75,89.06L76.31,84.84L77.86,81.31L79.42,81.31L80.98,77.79L82.53,87.65L84.09,91.18L85.65,91.18L88.76,93.29L90.32,93.29L93.44,93.29L94.99,98.22L98.11,108.79L99.66,108.08L104.34,106.68L105.89,106.68L113.68,107.38L115.24,110.2L118.35,110.2L119.91,120.77L126.14,151.06L127.69,151.06L129.25,151.06L130.81,164.44L132.37,164.44L133.92,163.03L137.04,165.85L138.6,170.08L146.38,169.38L151.05,150.35L155.73,150.35L157.28,147.54L158.84,148.24L160.4,151.06L165.07,153.88L166.63,153.88L177.53,153.88L179.08,155.29L180.64,157.4L182.2,157.4L185.31,157.4L186.87,158.81L188.43,165.85L189.98,165.85L191.54,165.15L193.1,160.92L197.77,160.22L199.33,151.76L200.89,148.24L202.44,153.17L204,155.29" style="vector-effect: none; fill: none; stroke: rgb(138, 44, 81); stroke-opacity: 1; stroke-width: 5px; opacity: 1;"/></g><g class="points"/><g class="text"/></g><g class="trace scatter traceafc0cd" style="stroke-miterlimit: 2; opacity: 1;"><g class="fills"/><g class="errorbars"/><g class="lines"><path class="js-line" d="M0,293.37L1.56,293.37L3.11,284.21L4.67,283.5L6.23,284.91L7.79,287.03L9.34,291.96L10.9,287.03L12.46,287.03L17.13,287.03L18.69,289.84L20.24,289.84L21.8,291.96L24.92,291.25L26.47,291.25L37.37,291.25L38.93,292.66L43.6,293.37L45.16,295.48L46.72,299.71L48.27,299.71L49.83,302.52L51.39,302.52L56.06,302.52L57.62,299.71L59.18,299L60.73,303.93L71.63,303.93L73.19,305.34L74.75,305.34L76.31,309.57L77.86,312.39L79.42,312.39L80.98,313.09L82.53,315.21L85.65,316.61L87.21,316.61L94.99,317.32L96.55,318.02L101.22,318.02L102.78,319.43L113.68,320.14L115.24,321.55L118.35,321.55L119.91,322.96" style="vector-effect: none; fill: none; stroke: rgb(1, 27, 58); stroke-opacity: 1; stroke-width: 5px; opacity: 1;"/></g><g class="points"/><g class="text"/></g></g></g><g class="overplot"/><path class="xlines-above crisp" d="M0,0" style="fill: none;"/><path class="ylines-above crisp" d="M0,0" style="fill: none;"/><g class="overlines-above"/><g class="xaxislayer-above"><g class="xtick"><text text-anchor="middle" x="0" y="363" transform="translate(65.57,0)" style="font-family: 'Open Sans', verdana, arial, sans-serif; font-size: 12px; fill: rgb(42, 63, 95); fill-opacity: 1; white-space: pre; opacity: 1;">1.6.23</text></g><g class="xtick"><text text-anchor="middle" x="0" y="363" style="font-family: 'Open Sans', verdana, arial, sans-serif; font-size: 12px; fill: rgb(42, 63, 95); fill-opacity: 1; white-space: pre; opacity: 1;" transform="translate(112.28999999999999,0)">1.7.23</text></g><g class="xtick"><text text-anchor="middle" x="0" y="363" style="font-family: 'Open Sans', verdana, arial, sans-serif; font-size: 12px; fill: rgb(42, 63, 95); fill-opacity: 1; white-space: pre; opacity: 1;" transform="translate(160.56,0)">1.8.23</text></g><g class="xtick"><text text-anchor="middle" x="0" y="363" style="font-family: 'Open Sans', verdana, arial, sans-serif; font-size: 12px; fill: rgb(42, 63, 95); fill-opacity: 1; white-space: pre; opacity: 1;" transform="translate(208.84,0)">1.9.23</text></g></g><g class="yaxislayer-above"><g class="ytick"><text text-anchor="end" x="49" y="4.199999999999999" transform="translate(0,350)" style="font-family: 'Open Sans', verdana, arial, sans-serif; font-size: 12px; fill: rgb(42, 63, 95); fill-opacity: 1; white-space: pre; opacity: 1;">0%</text></g><g class="ytick"><text text-anchor="end" x="49" y="4.199999999999999" style="font-family: 'Open Sans', verdana, arial, sans-serif; font-size: 12px; fill: rgb(42, 63, 95); fill-opacity: 1; white-space: pre; opacity: 1;" transform="translate(0,279.55)">10%</text></g><g class="ytick"><text text-anchor="end" x="49" y="4.199999999999999" style="font-family: 'Open Sans', verdana, arial, sans-serif; font-size: 12px; fill: rgb(42, 63, 95); fill-opacity: 1; white-space: pre; opacity: 1;" transform="translate(0,209.1)">20%</text></g><g class="ytick"><text text-anchor="end" x="49" y="4.199999999999999" style="font-family: 'Open Sans', verdana, arial, sans-serif; font-size: 12px; fill: rgb(42, 63, 95); fill-opacity: 1; white-space: pre; opacity: 1;" transform="translate(0,138.65)">30%</text></g><g class="ytick"><text text-anchor="end" x="49" y="4.199999999999999" style="font-family: 'Open Sans', verdana, arial, sans-serif; font-size: 12px; fill: rgb(42, 63, 95); fill-opacity: 1; white-space: pre; opacity: 1;" transform="translate(0,68.2)">40%</text></g></g><g class="overaxes-above"/></g></g><g class="polarlayer"/><g class="smithlayer"/><g class="ternarylayer"/><g class="geolayer"/><g class="funnelarealayer"/><g class="pielayer"/><g class="iciclelayer"/><g class="treemaplayer"/><g class="sunburstlayer"/><g class="glimages"/><defs id="topdefs-266eab"><g class="clips"/><clipPath id="legend266eab"><rect width="130" height="86" x="0" y="0"/></clipPath></defs><g class="layer-above"><g class="imagelayer"/><g class="shapelayer"/></g><g class="infolayer"><g class="legend" pointer-events="all" transform="translate(258.08000000000004,20)"><rect class="bg" shape-rendering="crispEdges" width="130" height="86" x="0" y="0" style="stroke: rgb(68, 68, 68); stroke-opacity: 1; fill: rgb(255, 255, 255); fill-opacity: 1; stroke-width: 0px;"/><g class="scrollbox" transform="" clip-path="url(#legend266eab)"><g class="groups"><g class="traces" transform="translate(0,14.5)" style="opacity: 1;"><text class="legendtext" text-anchor="start" x="40" y="4.680000000000001" style="font-family: 'Open Sans', verdana, arial, sans-serif; font-size: 12px; fill: rgb(42, 63, 95); fill-opacity: 1; white-space: pre;">Fico Robert</text><g class="layers" style="opacity: 1;"><g class="legendfill"/><g class="legendlines"><path class="js-line" d="M5,0h30" style="fill: none; stroke: rgb(238, 58, 67); stroke-opacity: 1; stroke-width: 5px;"/></g><g class="legendsymbols"><g class="legendpoints"/></g></g><rect class="legendtoggle" x="0" y="-9.5" width="124.03125" height="19" style="fill: rgb(0, 0, 0); fill-opacity: 0;"/></g><g class="traces" transform="translate(0,33.5)" style="opacity: 1;"><text class="legendtext" text-anchor="start" x="40" y="4.680000000000001" style="font-family: 'Open Sans', verdana, arial, sans-serif; font-size: 12px; fill: rgb(42, 63, 95); fill-opacity: 1; white-space: pre;">Šimečka Michal</text><g class="layers" style="opacity: 1;"><g class="legendfill"/><g class="legendlines"><path class="js-line" d="M5,0h30" style="fill: none; stroke: rgb(0, 180, 219); stroke-opacity: 1; stroke-width: 5px;"/></g><g class="legendsymbols"><g class="legendpoints"/></g></g><rect class="legendtoggle" x="0" y="-9.5" width="124.03125" height="19" style="fill: rgb(0, 0, 0); fill-opacity: 0;"/></g><g class="traces" transform="translate(0,52.5)" style="opacity: 1;"><text class="legendtext" text-anchor="start" x="40" y="4.680000000000001" style="font-family: 'Open Sans', verdana, arial, sans-serif; font-size: 12px; fill: rgb(42, 63, 95); fill-opacity: 1; white-space: pre;">Pellegrini Peter</text><g class="layers" style="opacity: 1;"><g class="legendfill"/><g class="legendlines"><path class="js-line" d="M5,0h30" style="fill: none; stroke: rgb(138, 44, 81); stroke-opacity: 1; stroke-width: 5px;"/></g><g class="legendsymbols"><g class="legendpoints"/></g></g><rect class="legendtoggle" x="0" y="-9.5" width="124.03125" height="19" style="fill: rgb(0, 0, 0); fill-opacity: 0;"/></g><g class="traces" transform="translate(0,71.5)" style="opacity: 1;"><text class="legendtext" text-anchor="start" x="40" y="4.680000000000001" style="font-family: 'Open Sans', verdana, arial, sans-serif; font-size: 12px; fill: rgb(42, 63, 95); fill-opacity: 1; white-space: pre;">Kollár Boris</text><g class="layers" style="opacity: 1;"><g class="legendfill"/><g class="legendlines"><path class="js-line" d="M5,0h30" style="fill: none; stroke: rgb(1, 27, 58); stroke-opacity: 1; stroke-width: 5px;"/></g><g class="legendsymbols"><g class="legendpoints"/></g></g><rect class="legendtoggle" x="0" y="-9.5" width="124.03125" height="19" style="fill: rgb(0, 0, 0); fill-opacity: 0;"/></g></g></g><rect class="scrollbar" rx="20" ry="3" width="0" height="0" x="0" y="0" style="fill: rgb(128, 139, 164); fill-opacity: 1;"/></g><g class="g-gtitle"/><g class="g-xtitle"/><g class="g-ytitle"/></g></svg>