<svg class="main-svg" xmlns="http://www.w3.org/2000/svg" xmlns:xlink="http://www.w3.org/1999/xlink" width="300" height="135" style="" viewBox="0 0 300 135"><rect x="0" y="0" width="300" height="135" style="fill: rgb(255, 255, 255); fill-opacity: 1;"/><defs id="defs-41c51a"><g class="clips"><clipPath id="clip41c51axyplot" class="plotclip"><rect width="280" height="75"/></clipPath><clipPath class="axesclip" id="clip41c51ax"><rect x="10" y="0" width="280" height="135"/></clipPath><clipPath class="axesclip" id="clip41c51ay"><rect x="0" y="50" width="300" height="75"/></clipPath><clipPath class="axesclip" id="clip41c51axy"><rect x="10" y="50" width="280" height="75"/></clipPath></g><g class="gradients"/><g class="patterns"/></defs><g class="bglayer"/><g class="layer-below"><g class="imagelayer"/><g class="shapelayer"/></g><g class="cartesianlayer"><g class="subplot xy"><g class="layer-subplot"><g class="shapelayer"/><g class="imagelayer"/></g><g class="minor-gridlayer"><g class="x"/><g class="y"/></g><g class="gridlayer"><g class="x"><path class="xgrid crisp" transform="translate(78.68,0)" d="M0,50v75" style="stroke: rgb(235, 240, 248); stroke-opacity: 1; stroke-width: 1px;"/><path class="xgrid crisp" transform="translate(152.64,0)" d="M0,50v75" style="stroke: rgb(235, 240, 248); stroke-opacity: 1; stroke-width: 1px;"/><path class="xgrid crisp" transform="translate(226.6,0)" d="M0,50v75" style="stroke: rgb(235, 240, 248); stroke-opacity: 1; stroke-width: 1px;"/></g><g class="y"><path class="ygrid crisp" transform="translate(0,105.97)" d="M10,0h280" style="stroke: rgb(235, 240, 248); stroke-opacity: 1; stroke-width: 1px;"/><path class="ygrid crisp" transform="translate(0,86.93)" d="M10,0h280" style="stroke: rgb(235, 240, 248); stroke-opacity: 1; stroke-width: 1px;"/><path class="ygrid crisp" transform="translate(0,67.9)" d="M10,0h280" style="stroke: rgb(235, 240, 248); stroke-opacity: 1; stroke-width: 1px;"/></g></g><g class="zerolinelayer"><path class="yzl zl crisp" transform="translate(0,125)" d="M10,0h280" style="stroke: rgb(235, 240, 248); stroke-opacity: 1; stroke-width: 2px;"/></g><path class="xlines-below"/><path class="ylines-below"/><g class="overlines-below"/><g class="xaxislayer-below"/><g class="yaxislayer-below"/><g class="overaxes-below"/><g class="plot" transform="translate(10,50)" clip-path="url(#clip41c51axyplot)"><g class="scatterlayer mlayer"><g class="trace scatter trace8b3d62" style="stroke-miterlimit: 2; opacity: 1;"><g class="fills"/><g class="errorbars"/><g class="lines"><path class="js-line" d="M0,3.75L5.28,3.81L10.57,7.99L15.85,10.33L21.13,16.67L26.42,16.41L31.7,13.59L36.98,16.41L42.26,16.41L58.11,16.67L63.4,20.33L68.68,22.53L73.96,21.16L89.81,21.35L95.09,20.75L105.66,21.4L110.94,21.4L142.64,21.84L147.92,20.13L158.49,21.06L163.77,21.06L190.19,20.86L195.47,22.48L200.75,19.56L206.04,15.04L227.17,12.82L232.45,12.82L243.02,11.81L248.3,11.68L253.58,11.68L258.87,10.29L269.43,9.34L274.72,8.77L280,10.1" style="vector-effect: none; fill: none; stroke: rgb(138, 44, 81); stroke-opacity: 1; stroke-width: 5px; opacity: 1;"/></g><g class="points"/><g class="text"/></g><g class="trace scatter trace1a01d6" style="stroke-miterlimit: 2; opacity: 1;"><g class="fills"/><g class="errorbars"/><g class="lines"><path class="js-line" d="M0,39.46L5.28,38.01L10.57,35.16L15.85,32.89L21.13,25.88L26.42,25.66L31.7,27.33L36.98,25.66L42.26,25.66L58.11,25.37L63.4,19.15L68.68,16.46L73.96,17.92L84.53,15.87L89.81,15.54L95.09,16.56L100.38,15.6L142.64,15.63L147.92,13.84L153.21,13L158.49,10.09L195.47,9.44L200.75,10.7L211.32,12.76L216.6,13.27L264.15,14.86L269.43,14.86L274.72,15.81L280,13.71" style="vector-effect: none; fill: none; stroke: rgb(0, 180, 219); stroke-opacity: 1; stroke-width: 5px; opacity: 1;"/></g><g class="points"/><g class="text"/></g><g class="trace scatter trace154fc2" style="stroke-miterlimit: 2; opacity: 1;"><g class="fills"/><g class="errorbars"/><g class="lines"><path class="js-line" d="M0,10.3L5.28,11.67L10.57,11.28L21.13,10.53L26.42,10.24L31.7,10.88L36.98,10.24L58.11,10.53L63.4,12.57L110.94,14.37L116.23,14.37L142.64,13.33L147.92,16.35L153.21,16.05L158.49,17.23L195.47,16.69L200.75,18.64L211.32,19.78L216.6,19.92L280,19.81" style="vector-effect: none; fill: none; stroke: rgb(238, 58, 67); stroke-opacity: 1; stroke-width: 5px; opacity: 1;"/></g><g class="points"/><g class="text"/></g><g class="trace scatter tracefbaa9e" style="stroke-miterlimit: 2; opacity: 1;"><g class="fills"/><g class="errorbars"/><g class="lines"><path class="js-line" d="M0,65.5L5.28,65.51L10.57,63.15L26.42,63.86L31.7,65.16L36.98,63.86L42.26,63.86L68.68,64.61L73.96,65.12L110.94,64.81L116.23,64.81L153.21,66.01L158.49,67.14L243.02,68.21L248.3,68.57L258.87,69.67L264.15,70.24L280,70.24" style="vector-effect: none; fill: none; stroke: rgb(1, 27, 58); stroke-opacity: 1; stroke-width: 5px; opacity: 1;"/></g><g class="points"/><g class="text"/></g><g class="trace scatter tracea89da3" style="stroke-miterlimit: 2; opacity: 1;"><g class="fills"/><g class="errorbars"/><g class="lines"><path class="js-line" d="M0,72.71L280,72.91" style="vector-effect: none; fill: none; stroke: rgb(97, 162, 41); stroke-opacity: 1; stroke-width: 5px; opacity: 1;"/></g><g class="points"/><g class="text"/></g></g></g><g class="overplot"/><path class="xlines-above crisp" d="M0,0" style="fill: none;"/><path class="ylines-above crisp" d="M0,0" style="fill: none;"/><g class="overlines-above"/><g class="xaxislayer-above"/><g class="yaxislayer-above"/><g class="overaxes-above"/></g></g><g class="polarlayer"/><g class="smithlayer"/><g class="ternarylayer"/><g class="geolayer"/><g class="funnelarealayer"/><g class="pielayer"/><g class="iciclelayer"/><g class="treemaplayer"/><g class="sunburstlayer"/><g class="glimages"/><defs id="topdefs-41c51a"><g class="clips"/></defs><g class="layer-above"><g class="imagelayer"/><g class="shapelayer"/></g><g class="infolayer"><g class="g-gtitle"><text class="gtitle" x="15" y="25" text-anchor="start" dy="0em" style="font-family: Ubuntu, verdana, arial, sans-serif; font-size: 16px; fill: rgb(233, 84, 32); opacity: 1; font-weight: normal; white-space: pre;">Premiér/ka 2023</text></g><g class="g-xtitle"/><g class="g-ytitle"/></g></svg>