<svg class="main-svg" xmlns="http://www.w3.org/2000/svg" xmlns:xlink="http://www.w3.org/1999/xlink" width="300" height="135" style="" viewBox="0 0 300 135"><rect x="0" y="0" width="300" height="135" style="fill: rgb(255, 255, 255); fill-opacity: 1;"/><defs id="defs-15153a"><g class="clips"><clipPath id="clip15153axyplot" class="plotclip"><rect width="280" height="75"/></clipPath><clipPath class="axesclip" id="clip15153ax"><rect x="10" y="0" width="280" height="135"/></clipPath><clipPath class="axesclip" id="clip15153ay"><rect x="0" y="50" width="300" height="75"/></clipPath><clipPath class="axesclip" id="clip15153axy"><rect x="10" y="50" width="280" height="75"/></clipPath></g><g class="gradients"/><g class="patterns"/></defs><g class="bglayer"/><g class="layer-below"><g class="imagelayer"/><g class="shapelayer"/></g><g class="cartesianlayer"><g class="subplot xy"><g class="layer-subplot"><g class="shapelayer"/><g class="imagelayer"/></g><g class="minor-gridlayer"><g class="x"/><g class="y"/></g><g class="gridlayer"><g class="x"><path class="xgrid crisp" transform="translate(67.78,0)" d="M0,50v75" style="stroke: rgb(235, 240, 248); stroke-opacity: 1; stroke-width: 1px;"/><path class="xgrid crisp" transform="translate(130,0)" d="M0,50v75" style="stroke: rgb(235, 240, 248); stroke-opacity: 1; stroke-width: 1px;"/><path class="xgrid crisp" transform="translate(192.22,0)" d="M0,50v75" style="stroke: rgb(235, 240, 248); stroke-opacity: 1; stroke-width: 1px;"/><path class="xgrid crisp" transform="translate(254.44,0)" d="M0,50v75" style="stroke: rgb(235, 240, 248); stroke-opacity: 1; stroke-width: 1px;"/></g><g class="y"><path class="ygrid crisp" transform="translate(0,105.94)" d="M10,0h280" style="stroke: rgb(235, 240, 248); stroke-opacity: 1; stroke-width: 1px;"/><path class="ygrid crisp" transform="translate(0,86.89)" d="M10,0h280" style="stroke: rgb(235, 240, 248); stroke-opacity: 1; stroke-width: 1px;"/><path class="ygrid crisp" transform="translate(0,67.83)" d="M10,0h280" style="stroke: rgb(235, 240, 248); stroke-opacity: 1; stroke-width: 1px;"/></g></g><g class="zerolinelayer"><path class="yzl zl crisp" transform="translate(0,125)" d="M10,0h280" style="stroke: rgb(235, 240, 248); stroke-opacity: 1; stroke-width: 2px;"/></g><path class="xlines-below"/><path class="ylines-below"/><g class="overlines-below"/><g class="xaxislayer-below"/><g class="yaxislayer-below"/><g class="overaxes-below"/><g class="plot" transform="translate(10,50)" clip-path="url(#clip15153axyplot)"><g class="scatterlayer mlayer"><g class="trace scatter traceda7bbc" style="stroke-miterlimit: 2; opacity: 1;"><g class="fills"/><g class="errorbars"/><g class="lines"><path class="js-line" d="M0,39.38L4.44,37.97L8.89,35.19L13.33,32.85L17.78,25.86L22.22,25.65L26.67,27.4L31.11,25.65L35.56,25.65L48.89,25.37L53.33,19.13L57.78,16.43L62.22,17.96L66.67,16.22L71.11,15.86L75.56,15.5L80,16.52L88.89,15.55L93.33,15.55L120,15.58L124.44,13.87L128.89,13.02L133.33,10.03L164.44,9.41L168.89,10.72L177.78,12.68L182.22,13.16L213.33,14.54L217.78,14.5L271.11,14.41L275.56,13.32L280,11.54" style="vector-effect: none; fill: none; stroke: rgb(0, 180, 219); stroke-opacity: 1; stroke-width: 5px; opacity: 1;"/></g><g class="points"/><g class="text"/></g><g class="trace scatter trace3d9a45" style="stroke-miterlimit: 2; opacity: 1;"><g class="fills"/><g class="errorbars"/><g class="lines"><path class="js-line" d="M0,10.28L4.44,11.68L8.89,11.22L17.78,10.45L22.22,10.17L31.11,10.17L35.56,10.17L48.89,10.45L53.33,12.55L97.78,14.38L102.22,14.38L120,13.22L124.44,16.27L128.89,15.93L133.33,17.15L164.44,16.64L168.89,18.62L177.78,19.73L182.22,19.85L217.78,19.75L222.22,19.54L231.11,19.38L235.56,16.63L240,15.05L244.44,15.05L257.78,14.5L262.22,14.5L271.11,13.66L275.56,12.75L280,13.83" style="vector-effect: none; fill: none; stroke: rgb(238, 58, 67); stroke-opacity: 1; stroke-width: 5px; opacity: 1;"/></g><g class="points"/><g class="text"/></g><g class="trace scatter trace26f7d4" style="stroke-miterlimit: 2; opacity: 1;"><g class="fills"/><g class="errorbars"/><g class="lines"><path class="js-line" d="M0,3.75L4.44,3.75L8.89,7.92L13.33,10.26L17.78,16.61L22.22,16.36L26.67,13.52L31.11,16.36L35.56,16.36L48.89,16.61L53.33,20.25L57.78,22.37L62.22,21.04L75.56,21.2L80,20.67L93.33,21.25L97.78,21.25L120,21.66L124.44,20.04L133.33,21.15L137.78,21.15L160,20.9L164.44,22.49L173.33,15.02L177.78,14.31L204.44,11.78L208.89,11.66L213.33,11.66L217.78,10.33L226.67,9.17L231.11,8.25L235.56,10.74L240,11.72L266.67,12.28L271.11,13.66L280,16.88" style="vector-effect: none; fill: none; stroke: rgb(138, 44, 81); stroke-opacity: 1; stroke-width: 5px; opacity: 1;"/></g><g class="points"/><g class="text"/></g><g class="trace scatter trace954158" style="stroke-miterlimit: 2; opacity: 1;"><g class="fills"/><g class="errorbars"/><g class="lines"><path class="js-line" d="M0,65.51L4.44,65.51L8.89,63.09L22.22,63.76L26.67,65.16L31.11,63.76L35.56,63.76L57.78,64.61L62.22,65.11L93.33,64.78L97.78,64.78L124.44,65.41L128.89,66.1L142.22,67.84L146.67,67.84L204.44,68.17L208.89,68.52L217.78,69.57L222.22,70.27L266.67,71.48L271.11,71.63L280,71.57" style="vector-effect: none; fill: none; stroke: rgb(1, 27, 58); stroke-opacity: 1; stroke-width: 5px; opacity: 1;"/></g><g class="points"/><g class="text"/></g><g class="trace scatter trace0c8ed3" style="stroke-miterlimit: 2; opacity: 1;"><g class="fills"/><g class="errorbars"/><g class="lines"><path class="js-line" d="M0,72.67L280,72.9" style="vector-effect: none; fill: none; stroke: rgb(97, 162, 41); stroke-opacity: 1; stroke-width: 5px; opacity: 1;"/></g><g class="points"/><g class="text"/></g></g></g><g class="overplot"/><path class="xlines-above crisp" d="M0,0" style="fill: none;"/><path class="ylines-above crisp" d="M0,0" style="fill: none;"/><g class="overlines-above"/><g class="xaxislayer-above"/><g class="yaxislayer-above"/><g class="overaxes-above"/></g></g><g class="polarlayer"/><g class="smithlayer"/><g class="ternarylayer"/><g class="geolayer"/><g class="funnelarealayer"/><g class="pielayer"/><g class="iciclelayer"/><g class="treemaplayer"/><g class="sunburstlayer"/><g class="glimages"/><defs id="topdefs-15153a"><g class="clips"/></defs><g class="layer-above"><g class="imagelayer"/><g class="shapelayer"/></g><g class="infolayer"><g class="g-gtitle"><text class="gtitle" x="15" y="25" text-anchor="start" dy="0em" style="font-family: Ubuntu, verdana, arial, sans-serif; font-size: 16px; fill: rgb(233, 84, 32); opacity: 1; font-weight: normal; white-space: pre;">Premiér/ka 2023</text></g><g class="g-xtitle"/><g class="g-ytitle"/></g></svg>