<svg class="main-svg" xmlns="http://www.w3.org/2000/svg" xmlns:xlink="http://www.w3.org/1999/xlink" width="300" height="135" style="" viewBox="0 0 300 135"><rect x="0" y="0" width="300" height="135" style="fill: rgb(255, 255, 255); fill-opacity: 1;"/><defs id="defs-c34a03"><g class="clips"><clipPath id="clipc34a03xyplot" class="plotclip"><rect width="280" height="75"/></clipPath><clipPath class="axesclip" id="clipc34a03x"><rect x="10" y="0" width="280" height="135"/></clipPath><clipPath class="axesclip" id="clipc34a03y"><rect x="0" y="50" width="300" height="75"/></clipPath><clipPath class="axesclip" id="clipc34a03xy"><rect x="10" y="50" width="280" height="75"/></clipPath></g><g class="gradients"/><g class="patterns"/></defs><g class="bglayer"/><g class="layer-below"><g class="imagelayer"/><g class="shapelayer"/></g><g class="cartesianlayer"><g class="subplot xy"><g class="layer-subplot"><g class="shapelayer"/><g class="imagelayer"/></g><g class="minor-gridlayer"><g class="x"/><g class="y"/></g><g class="gridlayer"><g class="x"><path class="xgrid crisp" transform="translate(58.53,0)" d="M0,50v75" style="stroke: rgb(235, 240, 248); stroke-opacity: 1; stroke-width: 1px;"/><path class="xgrid crisp" transform="translate(110.8,0)" d="M0,50v75" style="stroke: rgb(235, 240, 248); stroke-opacity: 1; stroke-width: 1px;"/><path class="xgrid crisp" transform="translate(163.07,0)" d="M0,50v75" style="stroke: rgb(235, 240, 248); stroke-opacity: 1; stroke-width: 1px;"/><path class="xgrid crisp" transform="translate(215.33,0)" d="M0,50v75" style="stroke: rgb(235, 240, 248); stroke-opacity: 1; stroke-width: 1px;"/><path class="xgrid crisp" transform="translate(267.6,0)" d="M0,50v75" style="stroke: rgb(235, 240, 248); stroke-opacity: 1; stroke-width: 1px;"/></g><g class="y"><path class="ygrid crisp" transform="translate(0,106.9)" d="M10,0h280" style="stroke: rgb(235, 240, 248); stroke-opacity: 1; stroke-width: 1px;"/><path class="ygrid crisp" transform="translate(0,88.8)" d="M10,0h280" style="stroke: rgb(235, 240, 248); stroke-opacity: 1; stroke-width: 1px;"/><path class="ygrid crisp" transform="translate(0,70.69)" d="M10,0h280" style="stroke: rgb(235, 240, 248); stroke-opacity: 1; stroke-width: 1px;"/><path class="ygrid crisp" transform="translate(0,52.59)" d="M10,0h280" style="stroke: rgb(235, 240, 248); stroke-opacity: 1; stroke-width: 1px;"/></g></g><g class="zerolinelayer"><path class="yzl zl crisp" transform="translate(0,125)" d="M10,0h280" style="stroke: rgb(235, 240, 248); stroke-opacity: 1; stroke-width: 2px;"/></g><path class="xlines-below"/><path class="ylines-below"/><g class="overlines-below"/><g class="xaxislayer-below"/><g class="yaxislayer-below"/><g class="overaxes-below"/><g class="plot" transform="translate(10,50)" clip-path="url(#clipc34a03xyplot)"><g class="scatterlayer mlayer"><g class="trace scatter tracecc3575" style="stroke-miterlimit: 2; opacity: 1;"><g class="fills"/><g class="errorbars"/><g class="lines"><path class="js-line" d="M0,10.2L7.47,11.83L11.2,11.24L33.6,11.21L37.33,11.21L41.07,11.38L44.8,13.42L74.67,15.36L78.4,15.36L100.8,14.23L104.53,17.4L108.27,16.96L112,18.21L138.13,17.69L141.87,19.55L149.33,20.99L153.07,21.11L194.13,21.06L197.87,18.33L201.6,16.88L205.33,16.88L216.53,16.35L220.27,16.35L227.73,15.55L231.47,14.66L242.67,15.08L246.4,14.54L272.53,13.45L276.27,11.1L280,11.1" style="vector-effect: none; fill: none; stroke: rgb(238, 58, 67); stroke-opacity: 1; stroke-width: 5px; opacity: 1;"/></g><g class="points"/><g class="text"/></g><g class="trace scatter trace583e30" style="stroke-miterlimit: 2; opacity: 1;"><g class="fills"/><g class="errorbars"/><g class="lines"><path class="js-line" d="M0,39.4L7.47,35.52L11.2,33.46L14.93,26.58L18.67,26.42L22.4,27.91L26.13,26.42L41.07,26.07L44.8,19.92L48.53,17.25L52.27,18.43L59.73,16.74L63.47,16.48L67.2,17.38L70.93,16.48L100.8,16.66L104.53,14.93L108.27,14L112,11.39L141.87,11.8L145.6,13.57L171.73,16.03L175.47,15.92L227.73,16.25L231.47,15.02L238.93,15.45L242.67,15.99L253.87,16.53L257.6,16.53L280,16.53" style="vector-effect: none; fill: none; stroke: rgb(0, 180, 219); stroke-opacity: 1; stroke-width: 5px; opacity: 1;"/></g><g class="points"/><g class="text"/></g><g class="trace scatter tracef8cbd1" style="stroke-miterlimit: 2; opacity: 1;"><g class="fills"/><g class="errorbars"/><g class="lines"><path class="js-line" d="M0,3.81L3.73,3.75L7.47,8.49L11.2,11.24L14.93,17.52L18.67,17.33L22.4,14.19L26.13,17.33L29.87,17.33L41.07,17.47L44.8,21L48.53,23.28L52.27,21.57L63.47,22.11L67.2,21.54L78.4,22.11L82.13,22.11L100.8,22.66L104.53,21.01L112,22.21L115.73,22.21L134.4,21.97L138.13,23.47L145.6,16.32L149.33,15.64L171.73,13.12L175.47,13L182.93,11.9L186.67,11.1L194.13,10.17L197.87,12.56L205.33,13.73L209.07,14.25L224,14.25L227.73,15.55L235.2,18.52L238.93,18.52L280,18.52" style="vector-effect: none; fill: none; stroke: rgb(138, 44, 81); stroke-opacity: 1; stroke-width: 5px; opacity: 1;"/></g><g class="points"/><g class="text"/></g><g class="trace scatter trace63ec47" style="stroke-miterlimit: 2; opacity: 1;"><g class="fills"/><g class="errorbars"/><g class="lines"><path class="js-line" d="M0,65.57L3.73,65.56L7.47,63.15L18.67,64.03L22.4,65.33L29.87,64.03L33.6,64.03L89.6,65.03L93.33,65.44L108.27,66.12L112,67.17L171.73,68.31L175.47,68.65L182.93,69.83L186.67,70.35L224,71.5L227.73,71.64L253.87,72.47L257.6,72.47L280,72.83" style="vector-effect: none; fill: none; stroke: rgb(1, 27, 58); stroke-opacity: 1; stroke-width: 5px; opacity: 1;"/></g><g class="points"/><g class="text"/></g></g></g><g class="overplot"/><path class="xlines-above crisp" d="M0,0" style="fill: none;"/><path class="ylines-above crisp" d="M0,0" style="fill: none;"/><g class="overlines-above"/><g class="xaxislayer-above"/><g class="yaxislayer-above"/><g class="overaxes-above"/></g></g><g class="polarlayer"/><g class="smithlayer"/><g class="ternarylayer"/><g class="geolayer"/><g class="funnelarealayer"/><g class="pielayer"/><g class="iciclelayer"/><g class="treemaplayer"/><g class="sunburstlayer"/><g class="glimages"/><defs id="topdefs-c34a03"><g class="clips"/></defs><g class="layer-above"><g class="imagelayer"/><g class="shapelayer"/></g><g class="infolayer"><g class="g-gtitle"><text class="gtitle" x="15" y="25" text-anchor="start" dy="0em" style="font-family: Ubuntu, verdana, arial, sans-serif; font-size: 16px; fill: rgb(233, 84, 32); opacity: 1; font-weight: normal; white-space: pre;">Premiér/ka 2023</text></g><g class="g-xtitle"/><g class="g-ytitle"/></g></svg>