<svg class="main-svg" xmlns="http://www.w3.org/2000/svg" xmlns:xlink="http://www.w3.org/1999/xlink" width="300" height="135" style="" viewBox="0 0 300 135"><rect x="0" y="0" width="300" height="135" style="fill: rgb(255, 255, 255); fill-opacity: 1;"/><defs id="defs-3c101f"><g class="clips"><clipPath id="clip3c101fxyplot" class="plotclip"><rect width="280" height="75"/></clipPath><clipPath class="axesclip" id="clip3c101fx"><rect x="10" y="0" width="280" height="135"/></clipPath><clipPath class="axesclip" id="clip3c101fy"><rect x="0" y="50" width="300" height="75"/></clipPath><clipPath class="axesclip" id="clip3c101fxy"><rect x="10" y="50" width="280" height="75"/></clipPath></g><g class="gradients"/><g class="patterns"/></defs><g class="bglayer"/><g class="layer-below"><g class="imagelayer"/><g class="shapelayer"/></g><g class="cartesianlayer"><g class="subplot xy"><g class="layer-subplot"><g class="shapelayer"/><g class="imagelayer"/></g><g class="gridlayer"><g class="x"><path class="xgrid crisp" transform="translate(78.66,0)" d="M0,50v75" style="stroke: rgb(235, 240, 248); stroke-opacity: 1; stroke-width: 1px;"/><path class="xgrid crisp" transform="translate(160.29,0)" d="M0,50v75" style="stroke: rgb(235, 240, 248); stroke-opacity: 1; stroke-width: 1px;"/><path class="xgrid crisp" transform="translate(241.92,0)" d="M0,50v75" style="stroke: rgb(235, 240, 248); stroke-opacity: 1; stroke-width: 1px;"/></g><g class="y"><path class="ygrid crisp" transform="translate(0,97.18)" d="M10,0h280" style="stroke: rgb(235, 240, 248); stroke-opacity: 1; stroke-width: 1px;"/><path class="ygrid crisp" transform="translate(0,69.35)" d="M10,0h280" style="stroke: rgb(235, 240, 248); stroke-opacity: 1; stroke-width: 1px;"/></g></g><g class="zerolinelayer"><path class="yzl zl crisp" transform="translate(0,125)" d="M10,0h280" style="stroke: rgb(235, 240, 248); stroke-opacity: 1; stroke-width: 2px;"/></g><path class="xlines-below"/><path class="ylines-below"/><g class="overlines-below"/><g class="xaxislayer-below"/><g class="yaxislayer-below"/><g class="overaxes-below"/><g class="plot" transform="translate(10,50)" clip-path="url(#clip3c101fxyplot)"><g class="scatterlayer mlayer"><g class="trace scatter traceb561e3" style="stroke-miterlimit: 2; opacity: 1;"><g class="fills"/><g class="errorbars"/><g class="lines"><path class="js-line" d="M0,24.11Q2.63,19.28 4.25,18.53C5.48,17.96 7.16,18.59 8.27,18.75C9.06,18.86 9.86,19.19 10.29,19.21C10.49,19.22 10.5,19.14 10.73,19.15C11.64,19.2 15.95,20.18 17.44,20.82C18.27,21.17 18.6,21.44 19.23,21.96C20.12,22.7 21.2,23.92 22.14,25.02C23.14,26.18 24.03,27.16 25.05,28.76C26.59,31.18 28.48,36.04 29.97,38.43C30.93,39.97 31.42,40.88 32.65,42.01C34.29,43.51 37.97,45.39 39.36,46.16C39.97,46.49 40.22,46.56 40.7,46.81C41.26,47.1 41.85,47.5 42.49,47.79C43.18,48.11 43.86,48.34 44.73,48.62C45.91,49 48.09,49.59 48.98,49.77C49.38,49.85 49.62,49.88 49.87,49.88C50.05,49.88 50.12,49.83 50.32,49.83C50.72,49.82 51.62,49.95 52.11,49.96C52.46,49.97 52.61,49.9 53,49.94C53.8,50.01 55.44,50.62 56.58,50.69C57.6,50.75 59.07,50.46 59.49,50.43C59.6,50.42 59.59,50.43 59.71,50.42C60.18,50.38 62.57,50.02 63.29,49.99C63.6,49.98 63.69,50 63.96,50.02C64.37,50.06 65.17,50.19 65.53,50.24C65.72,50.27 65.74,50.28 65.97,50.3C66.7,50.36 69.64,50.45 70.67,50.44C71.17,50.44 71.46,50.4 71.79,50.39C72.04,50.38 72.15,50.39 72.46,50.37C73.21,50.33 75.37,50.16 76.26,50.09C76.74,50.05 76.94,50.06 77.38,50C78.04,49.92 78.92,49.75 79.84,49.57C81.02,49.34 82.52,49.11 83.87,48.73C85.28,48.33 87.16,47.49 88.12,47.19C88.6,47.04 88.78,46.99 89.23,46.91C89.89,46.79 90.68,46.84 91.69,46.6C93.43,46.19 98.63,44.21 98.63,44.21C98.63,44.21 98.63,44.21 98.63,44.21C98.63,44.21 103.32,42.24 103.32,42.24C103.32,42.24 103.32,42.24 103.32,42.24C103.32,42.24 103.78,42.36 104.22,42.39C105.42,42.47 108.65,42.6 110.93,42.21C113.42,41.78 116.29,40.74 118.53,39.72C120.46,38.84 122.56,37.16 123.67,36.67C124.16,36.45 124.27,36.49 124.79,36.32C125.97,35.94 129.01,35 130.61,34.4C131.75,33.97 132.76,33.29 133.51,33.19C133.96,33.13 134.14,33.24 134.63,33.34C135.63,33.54 137.99,34.4 139.11,34.52C139.76,34.59 140.01,34.44 140.67,34.44C141.82,34.43 143.62,34.72 145.37,34.62C147.61,34.5 151.26,33.86 152.97,33.49C153.86,33.3 154.35,33.02 154.98,32.92C155.53,32.83 155.95,32.85 156.55,32.84C157.37,32.83 158.83,32.93 159.46,32.91C159.76,32.9 159.84,32.85 160.13,32.85C160.69,32.85 161.76,32.94 162.59,33.05C163.47,33.17 164.22,33.44 165.27,33.57C166.75,33.75 169.45,33.75 170.64,33.85C171.24,33.9 171.35,33.94 171.98,34.01C173.51,34.18 177.75,34.82 179.81,34.79C181.16,34.77 182.13,34.44 183.16,34.35C184.04,34.27 184.74,34.25 185.62,34.22C186.65,34.18 187.83,34.21 188.98,34.14C190.21,34.07 191.41,33.96 192.78,33.79C194.42,33.59 196.63,33.13 198.15,32.98C199.26,32.87 199.9,32.93 201.05,32.85C202.74,32.74 206.18,32.41 207.32,32.3C207.75,32.26 207.87,32.24 208.21,32.2C208.66,32.15 209.12,32.12 209.78,32.05C210.93,31.93 213.52,31.58 214.47,31.51C214.89,31.48 214.95,31.53 215.37,31.49C216.32,31.41 219.49,30.87 220.06,30.79C220.19,30.77 220.17,30.78 220.29,30.76C220.75,30.7 222.7,30.43 223.64,30.27C224.33,30.16 224.88,30.05 225.43,29.94C225.91,29.84 226.28,29.76 226.77,29.65C227.38,29.51 228.3,29.28 228.79,29.17C229.07,29.11 229.13,29.1 229.46,29.03C230.37,28.85 233.44,28.29 234.6,28.03C235.19,27.9 235.58,27.84 235.94,27.69C236.21,27.58 236.33,27.46 236.61,27.31C237.06,27.08 237.86,26.62 238.4,26.47C238.81,26.36 239.14,26.44 239.52,26.35C239.95,26.25 240.4,26.05 240.86,25.86C241.37,25.65 242.43,25.11 242.43,25.11C242.43,25.11 242.43,25.11 242.43,25.11C242.43,25.11 244.92,24.93 245.78,24.96C246.33,24.98 246.67,25.06 247.12,25.1C247.57,25.14 248.14,25.19 248.47,25.19C248.66,25.19 248.79,25.16 248.91,25.15C249,25.14 249.02,25.15 249.14,25.13C249.53,25.06 250.84,24.52 251.6,24.46C252.24,24.41 252.79,24.58 253.39,24.64C253.99,24.69 254.73,24.78 255.18,24.79C255.46,24.8 255.61,24.8 255.85,24.77C256.13,24.74 256.35,24.68 256.74,24.59C257.5,24.42 259.34,23.95 260.1,23.74C260.49,23.63 260.66,23.53 260.99,23.48C261.39,23.42 261.83,23.5 262.33,23.45C262.98,23.39 263.92,23.19 264.57,23.06C265.08,22.96 265.54,22.85 265.91,22.76C266.17,22.69 266.38,22.62 266.58,22.57C266.74,22.53 266.83,22.51 267.03,22.47C267.39,22.39 268.02,22.25 268.59,22.12C269.27,21.96 270.05,21.77 270.83,21.57C271.68,21.35 272.73,21.01 273.51,20.85C274.1,20.73 274.58,20.72 275.08,20.61C275.55,20.51 276.16,20.32 276.42,20.25C276.53,20.22 276.57,20.21 276.65,20.19C276.72,20.17 276.78,20.16 276.87,20.13C276.99,20.09 277.15,20.01 277.32,19.95C277.52,19.88 277.77,19.83 277.99,19.77C278.21,19.71 278.4,19.66 278.66,19.58Q279.03,19.47 280,19.15" style="vector-effect: non-scaling-stroke; fill: none; stroke: rgb(238, 58, 67); stroke-opacity: 1; stroke-width: 5px; opacity: 1;"/></g><g class="points"/><g class="text"/></g><g class="trace scatter tracefed314" style="stroke-miterlimit: 2; opacity: 1;"><g class="fills"/><g class="errorbars"/><g class="lines"><path class="js-line" d="M0,55.63Q2.85,56.41 4.25,56.45C5.61,56.49 7.16,55.98 8.27,55.91C9.06,55.86 9.86,55.94 10.29,55.93C10.49,55.92 10.5,55.9 10.73,55.9C11.64,55.91 15.92,56.43 17.44,56.55C18.23,56.61 18.56,56.6 19.23,56.65C20.08,56.72 21.17,56.82 22.14,56.95C23.11,57.08 23.95,57.26 25.05,57.44C26.48,57.68 28.57,58.15 29.97,58.26C30.99,58.34 31.56,58.16 32.65,58.22C34.39,58.32 37.98,59.03 39.36,59.12C39.98,59.16 40.22,59.11 40.7,59.11C41.25,59.11 41.86,59.18 42.49,59.15C43.2,59.12 43.86,58.94 44.73,58.9C45.92,58.84 48.09,58.92 48.98,58.95C49.39,58.96 49.62,58.99 49.87,59C50.05,59 50.12,59 50.32,59C50.72,58.99 51.62,58.97 52.11,58.94C52.46,58.92 52.6,58.9 53,58.86C53.79,58.77 55.45,58.45 56.58,58.4C57.6,58.35 59.07,58.48 59.49,58.5C59.61,58.5 59.59,58.51 59.71,58.51C60.18,58.52 62.57,58.46 63.29,58.43C63.6,58.42 63.69,58.41 63.96,58.39C64.37,58.37 65.17,58.31 65.53,58.3C65.72,58.29 65.75,58.3 65.97,58.3C66.7,58.3 69.64,58.26 70.67,58.29C71.17,58.31 71.46,58.36 71.79,58.36C72.04,58.36 72.15,58.38 72.46,58.33C73.21,58.22 75.37,57.62 76.26,57.38C76.75,57.25 76.93,57.17 77.38,57.06C78.04,56.9 78.92,56.76 79.84,56.55C81.02,56.28 82.5,55.79 83.87,55.57C85.26,55.35 87.16,55.28 88.12,55.23C88.61,55.2 88.79,55.25 89.23,55.2C89.89,55.13 90.66,54.83 91.69,54.71C93.41,54.52 98.63,54.53 98.63,54.53C98.63,54.53 98.63,54.53 98.63,54.53C98.63,54.53 103.32,54.34 103.32,54.34C103.32,54.34 103.32,54.34 103.32,54.34C103.32,54.34 103.78,54.22 104.22,54.14C105.42,53.91 108.62,53.35 110.93,53.07C113.38,52.77 116.25,52.38 118.53,52.43C120.41,52.47 122.58,53.05 123.67,53.07C124.18,53.08 124.27,52.97 124.79,52.97C125.97,52.96 129.01,53.18 130.61,53.43C131.75,53.61 132.77,54.05 133.51,54.1C133.97,54.13 134.14,54.08 134.63,53.99C135.63,53.82 138,53.05 139.11,52.86C139.76,52.75 140.01,52.81 140.67,52.71C141.82,52.54 143.61,52.08 145.37,51.78C147.6,51.39 151.25,50.9 152.97,50.65C153.85,50.52 154.35,50.48 154.98,50.37C155.54,50.27 155.94,50.09 156.55,50.05C157.37,49.99 158.83,50.21 159.46,50.24C159.76,50.25 159.84,50.23 160.13,50.26C160.69,50.31 161.75,50.53 162.59,50.61C163.46,50.69 164.22,50.64 165.27,50.71C166.75,50.81 169.45,51.25 170.64,51.2C171.24,51.17 171.35,51.09 171.98,50.96C173.51,50.65 177.74,49.52 179.81,49.18C181.15,48.96 182.13,48.98 183.16,48.85C184.04,48.74 184.73,48.57 185.62,48.47C186.65,48.35 187.83,48.38 188.98,48.22C190.21,48.05 191.41,47.73 192.78,47.42C194.42,47.04 196.62,46.27 198.15,46.09C199.25,45.96 199.9,46.16 201.05,46.11C202.74,46.04 206.18,45.69 207.32,45.55C207.75,45.5 207.87,45.44 208.21,45.41C208.66,45.38 209.12,45.47 209.78,45.42C210.93,45.33 213.52,44.77 214.47,44.65C214.89,44.6 214.95,44.61 215.37,44.57C216.32,44.48 219.49,44.21 220.06,44.12C220.19,44.1 220.17,44.09 220.29,44.07C220.75,43.99 222.7,43.77 223.64,43.59C224.33,43.46 224.88,43.33 225.43,43.17C225.91,43.03 226.28,42.86 226.77,42.69C227.37,42.49 228.3,42.17 228.79,42.04C229.07,41.97 229.13,41.93 229.46,41.91C230.37,41.85 233.44,42.06 234.6,42.2C235.19,42.27 235.57,42.37 235.94,42.45C236.2,42.51 236.33,42.58 236.61,42.62C237.06,42.69 237.87,42.74 238.4,42.72C238.82,42.7 239.13,42.63 239.52,42.56C239.95,42.49 240.39,42.34 240.86,42.29C241.36,42.23 242.43,42.25 242.43,42.25C242.43,42.25 242.43,42.25 242.43,42.25C242.43,42.25 244.91,41.51 245.78,41.27C246.33,41.12 246.67,40.97 247.12,40.91C247.57,40.85 248.14,40.91 248.47,40.89C248.66,40.88 248.79,40.86 248.91,40.84C249,40.83 249.03,40.84 249.14,40.81C249.53,40.71 250.85,40.18 251.6,39.9C252.24,39.66 252.79,39.42 253.39,39.23C253.98,39.04 254.73,38.87 255.18,38.77C255.46,38.71 255.61,38.71 255.85,38.66C256.13,38.6 256.35,38.52 256.74,38.4C257.5,38.17 259.34,37.55 260.1,37.33C260.49,37.22 260.66,37.18 260.99,37.11C261.39,37.02 261.83,36.96 262.33,36.86C262.98,36.73 263.92,36.55 264.57,36.37C265.08,36.23 265.55,36.09 265.91,35.93C266.18,35.82 266.38,35.67 266.58,35.57C266.74,35.49 266.83,35.46 267.03,35.37C267.39,35.21 268.02,34.91 268.59,34.67C269.27,34.39 270.06,34.14 270.83,33.79C271.69,33.4 272.73,32.77 273.51,32.39C274.1,32.1 274.58,31.9 275.08,31.67C275.54,31.46 276.16,31.18 276.42,31.06C276.53,31.01 276.57,30.98 276.65,30.96C276.72,30.94 276.78,30.95 276.87,30.93C276.99,30.9 277.15,30.84 277.32,30.8C277.52,30.75 277.77,30.72 277.99,30.68C278.21,30.64 278.4,30.6 278.66,30.57Q279.03,30.52 280,30.44" style="vector-effect: non-scaling-stroke; fill: none; stroke: rgb(0, 180, 219); stroke-opacity: 1; stroke-width: 5px; opacity: 1;"/></g><g class="points"/><g class="text"/></g><g class="trace scatter tracedbecea" style="stroke-miterlimit: 2; opacity: 1;"><g class="fills"/><g class="errorbars"/><g class="lines"><path class="js-line" d="M29.97,43.45Q31.43,39.97 32.65,37.99C34.3,35.31 37.91,30.57 39.36,29.1C39.93,28.53 40.22,28.44 40.7,28.06C41.25,27.62 41.87,27.17 42.49,26.63C43.21,26.01 43.87,25.35 44.73,24.52C45.93,23.37 48.08,21.18 48.98,20.35C49.38,19.98 49.62,19.78 49.87,19.58C50.04,19.45 50.13,19.41 50.32,19.26C50.72,18.94 51.61,18.07 52.11,17.67C52.45,17.4 52.57,17.18 53,17.03C53.77,16.76 55.45,16.92 56.58,16.81C57.6,16.71 59.07,16.52 59.49,16.42C59.61,16.39 59.59,16.38 59.71,16.34C60.18,16.17 62.57,15.34 63.29,15.13C63.6,15.04 63.69,15.05 63.96,14.96C64.38,14.82 65.17,14.42 65.53,14.28C65.72,14.21 65.74,14.2 65.97,14.13C66.7,13.92 69.65,13.28 70.67,12.99C71.18,12.85 71.46,12.69 71.79,12.63C72.04,12.58 72.15,12.62 72.46,12.58C73.21,12.48 75.38,12.08 76.26,11.82C76.75,11.67 76.92,11.49 77.38,11.37C78.03,11.21 78.92,11.21 79.84,11.09C81.02,10.94 82.51,10.51 83.87,10.53C85.27,10.55 87.16,11.09 88.12,11.23C88.61,11.3 88.79,11.33 89.23,11.36C89.89,11.4 90.67,11.28 91.69,11.4C93.43,11.61 98.63,13 98.63,13C98.63,13 98.63,13 98.63,13C98.63,13 103.32,14.19 103.32,14.19C103.32,14.19 103.32,14.19 103.32,14.19C103.32,14.19 103.78,14.32 104.22,14.46C105.42,14.83 108.65,15.75 110.93,16.64C113.41,17.6 116.22,19.22 118.53,20.09C120.38,20.79 122.57,21.42 123.67,21.63C124.17,21.72 124.27,21.7 124.79,21.72C125.97,21.77 129.01,21.87 130.61,21.72C131.75,21.61 132.77,21.2 133.51,21.18C133.97,21.17 134.13,21.25 134.63,21.34C135.63,21.52 138,22.1 139.11,22.29C139.76,22.4 140.01,22.37 140.67,22.48C141.82,22.68 143.63,23.05 145.37,23.55C147.62,24.2 151.24,25.67 152.97,26.24C153.85,26.53 154.35,26.65 154.98,26.85C155.54,27.03 155.94,27.37 156.55,27.39C157.37,27.42 158.83,26.78 159.46,26.63C159.76,26.56 159.84,26.56 160.13,26.48C160.69,26.33 161.75,25.92 162.59,25.68C163.46,25.44 164.23,25.32 165.27,25.04C166.76,24.64 169.44,23.72 170.64,23.41C171.23,23.26 171.35,23.26 171.98,23.12C173.51,22.78 177.75,21.84 179.81,21.31C181.17,20.96 182.12,20.56 183.16,20.36C184.04,20.19 184.73,20.13 185.62,20.08C186.65,20.02 187.83,19.96 188.98,20.05C190.21,20.15 191.41,20.39 192.78,20.71C194.43,21.1 196.62,22.2 198.15,22.33C199.25,22.43 199.9,22.09 201.05,21.98C202.74,21.82 206.18,21.58 207.32,21.52C207.75,21.5 207.87,21.53 208.21,21.49C208.66,21.44 209.11,21.26 209.78,21.19C210.92,21.06 213.52,21.1 214.47,21.05C214.89,21.03 214.95,20.99 215.37,20.98C216.32,20.97 219.49,21.17 220.06,21.21C220.19,21.22 220.17,21.22 220.29,21.23C220.75,21.27 222.7,21.37 223.64,21.46C224.33,21.53 224.88,21.59 225.43,21.68C225.91,21.76 226.28,21.81 226.77,21.94C227.38,22.1 228.3,22.44 228.79,22.6C229.07,22.7 229.13,22.71 229.46,22.83C230.37,23.16 233.43,24.42 234.6,24.78C235.18,24.96 235.57,25.01 235.94,25.11C236.2,25.18 236.33,25.25 236.61,25.29C237.06,25.36 237.87,25.29 238.4,25.34C238.82,25.38 239.14,25.42 239.52,25.53C239.95,25.66 240.4,25.89 240.86,26.12C241.37,26.37 242.43,26.98 242.43,26.98C242.43,26.98 242.43,26.98 242.43,26.98C242.43,26.98 244.92,27.83 245.78,28.16C246.33,28.37 246.67,28.54 247.12,28.71C247.57,28.88 248.14,29.07 248.47,29.18C248.66,29.24 248.79,29.27 248.91,29.31C249,29.34 249.02,29.35 249.14,29.39C249.52,29.52 250.84,30 251.6,30.19C252.24,30.35 252.79,30.38 253.39,30.49C253.99,30.6 254.73,30.75 255.18,30.84C255.46,30.9 255.61,30.96 255.85,30.99C256.12,31.03 256.35,31 256.74,31.04C257.5,31.13 259.34,31.45 260.1,31.61C260.49,31.69 260.66,31.77 260.99,31.83C261.39,31.9 261.83,31.91 262.33,31.97C262.98,32.04 263.92,32.11 264.57,32.24C265.08,32.34 265.54,32.53 265.91,32.62C266.17,32.68 266.38,32.72 266.58,32.75C266.74,32.77 266.84,32.76 267.03,32.79C267.4,32.86 268.02,33.06 268.59,33.22C269.27,33.41 270.06,33.58 270.83,33.85C271.69,34.15 272.72,34.77 273.51,34.99C274.09,35.15 274.58,35.09 275.08,35.2C275.55,35.31 276.16,35.54 276.42,35.63C276.53,35.67 276.57,35.69 276.65,35.71C276.72,35.73 276.78,35.71 276.87,35.73C276.99,35.75 277.15,35.83 277.32,35.86C277.52,35.9 277.77,35.9 277.99,35.94C278.21,35.98 278.4,36.04 278.66,36.1Q279.03,36.19 280,36.42" style="vector-effect: non-scaling-stroke; fill: none; stroke: rgb(138, 44, 81); stroke-opacity: 1; stroke-width: 5px; opacity: 1;"/></g><g class="points"/><g class="text"/></g><g class="trace scatter tracedaea8c" style="stroke-miterlimit: 2; opacity: 1;"><g class="fills"/><g class="errorbars"/><g class="lines"><path class="js-line" d="M83.87,70.54Q87.13,67.55 88.12,66.92C88.58,66.63 88.78,66.56 89.23,66.42C89.88,66.22 90.67,66.18 91.69,65.96C93.42,65.59 98.63,64.27 98.63,64.27C98.63,64.27 98.63,64.27 98.63,64.27C98.63,64.27 103.32,63.57 103.32,63.57C103.32,63.57 103.32,63.57 103.32,63.57C103.32,63.57 103.78,63.7 104.22,63.72C105.42,63.78 108.64,63.6 110.93,63.23C113.4,62.83 116.25,61.95 118.53,61.32C120.42,60.8 122.57,59.91 123.67,59.78C124.17,59.72 124.27,59.83 124.79,59.85C125.97,59.89 129.01,59.96 130.61,59.91C131.74,59.87 132.77,59.78 133.51,59.7C133.97,59.65 134.13,59.62 134.63,59.54C135.63,59.38 138,58.99 139.11,58.77C139.77,58.64 140.01,58.52 140.67,58.42C141.81,58.26 143.62,58.27 145.37,58.12C147.6,57.93 151.25,57.5 152.97,57.33C153.85,57.24 154.35,57.13 154.98,57.15C155.54,57.17 155.94,57.34 156.55,57.39C157.37,57.46 158.83,57.42 159.46,57.46C159.76,57.48 159.84,57.52 160.13,57.53C160.69,57.54 161.75,57.39 162.59,57.39C163.46,57.39 164.22,57.55 165.27,57.55C166.75,57.55 169.45,57.25 170.64,57.25C171.24,57.25 171.35,57.29 171.98,57.32C173.51,57.39 177.75,57.53 179.81,57.58C181.16,57.61 182.13,57.55 183.16,57.62C184.05,57.68 184.73,57.93 185.62,57.95C186.65,57.98 187.83,57.7 188.98,57.69C190.21,57.68 191.41,57.95 192.78,57.91C194.42,57.86 196.63,57.28 198.15,57.26C199.26,57.25 199.9,57.55 201.05,57.55C202.74,57.54 206.18,57.1 207.32,56.87C207.76,56.78 207.87,56.7 208.21,56.61C208.66,56.5 209.11,56.35 209.78,56.27C210.92,56.13 213.52,56.15 214.47,56.1C214.89,56.08 214.95,56.07 215.37,56.04C216.32,55.98 219.49,55.8 220.06,55.77C220.19,55.76 220.17,55.77 220.29,55.76C220.75,55.73 222.7,55.6 223.64,55.46C224.33,55.36 224.87,55.18 225.43,55.09C225.91,55.02 226.28,55.02 226.77,54.95C227.38,54.87 228.3,54.71 228.79,54.61C229.07,54.55 229.13,54.49 229.46,54.46C230.37,54.38 233.44,54.63 234.6,54.68C235.19,54.7 235.57,54.7 235.94,54.73C236.2,54.75 236.33,54.81 236.61,54.8C237.06,54.79 237.87,54.61 238.4,54.52C238.82,54.45 239.13,54.37 239.52,54.32C239.95,54.27 240.4,54.28 240.86,54.23C241.36,54.18 242.43,54.01 242.43,54.01C242.43,54.01 242.43,54.01 242.43,54.01C242.43,54.01 244.91,53.28 245.78,53.14C246.32,53.05 246.67,53.11 247.12,53.06C247.57,53.01 248.14,52.89 248.47,52.85C248.66,52.83 248.79,52.81 248.91,52.81C249,52.81 249.02,52.83 249.14,52.82C249.52,52.8 250.84,52.5 251.6,52.45C252.24,52.4 252.79,52.5 253.39,52.46C253.99,52.42 254.73,52.28 255.18,52.23C255.46,52.2 255.61,52.21 255.85,52.18C256.13,52.14 256.35,52.07 256.74,52.02C257.5,51.93 259.34,51.93 260.1,51.85C260.49,51.81 260.66,51.75 260.99,51.7C261.39,51.64 261.83,51.56 262.33,51.5C262.98,51.42 263.92,51.33 264.57,51.31C265.07,51.3 265.54,51.35 265.91,51.35C266.17,51.35 266.38,51.33 266.58,51.34C266.75,51.35 266.83,51.38 267.03,51.38C267.39,51.39 268.02,51.33 268.59,51.29C269.27,51.24 270.05,51.16 270.83,51.11C271.68,51.06 272.74,50.96 273.51,50.99C274.1,51.01 274.58,51.15 275.08,51.17C275.54,51.19 276.16,51.12 276.42,51.11C276.53,51.11 276.57,51.1 276.65,51.1C276.72,51.1 276.78,51.11 276.87,51.12C276.99,51.13 277.16,51.14 277.32,51.16C277.52,51.19 277.77,51.27 277.99,51.3C278.21,51.33 278.4,51.31 278.66,51.33Q279.03,51.36 280,51.46" style="vector-effect: non-scaling-stroke; fill: none; stroke: rgb(153, 51, 0); stroke-opacity: 1; stroke-width: 5px; opacity: 1;"/></g><g class="points"/><g class="text"/></g><g class="trace scatter tracea672b0" style="stroke-miterlimit: 2; opacity: 1;"><g class="fills"/><g class="errorbars"/><g class="lines"><path class="js-line" d="M0,5.39Q2.87,5.71 4.25,5.48C5.63,5.25 7.15,4.28 8.27,4.01C9.05,3.82 9.87,3.64 10.29,3.75C10.51,3.81 10.49,3.91 10.73,4.07C11.64,4.67 15.89,7.43 17.44,8.11C18.2,8.44 18.57,8.39 19.23,8.64C20.09,8.97 21.19,9.47 22.14,10.03C23.14,10.62 23.92,11.45 25.05,12.12C26.45,12.95 28.62,13.65 29.97,14.52C31.05,15.21 31.57,15.79 32.65,16.73C34.4,18.26 37.93,21.98 39.36,22.98C39.94,23.38 40.22,23.43 40.7,23.66C41.25,23.92 41.88,24.1 42.49,24.47C43.22,24.91 43.84,25.61 44.73,26.22C45.9,27.03 48.07,28.4 48.98,28.82C49.37,29 49.63,29 49.87,29.11C50.05,29.19 50.12,29.26 50.32,29.36C50.72,29.55 51.62,29.87 52.11,30.11C52.46,30.28 52.6,30.4 53,30.6C53.79,30.99 55.46,31.59 56.58,32.15C57.61,32.67 59.07,33.59 59.49,33.8C59.6,33.86 59.59,33.84 59.71,33.9C60.19,34.14 62.57,35.54 63.29,35.93C63.6,36.1 63.68,36.18 63.96,36.28C64.37,36.42 65.17,36.49 65.53,36.57C65.72,36.61 65.74,36.63 65.97,36.68C66.7,36.85 69.65,37.41 70.67,37.74C71.18,37.9 71.46,38.14 71.79,38.21C72.04,38.26 72.15,38.16 72.46,38.22C73.22,38.36 75.37,39.3 76.26,39.6C76.74,39.76 76.95,39.76 77.38,39.94C78.05,40.22 78.9,40.86 79.84,41.28C81,41.8 82.55,42.08 83.87,42.75C85.31,43.49 87.15,45.07 88.12,45.62C88.6,45.89 88.78,45.97 89.23,46.14C89.88,46.38 90.66,46.54 91.69,46.84C93.42,47.35 98.63,48.94 98.63,48.94C98.63,48.94 98.63,48.94 98.63,48.94C98.63,48.94 103.32,50.1 103.32,50.1C103.32,50.1 103.32,50.1 103.32,50.1C103.32,50.1 103.78,50.09 104.22,50.09C105.42,50.08 108.62,50.14 110.93,50.06C113.39,49.98 116.25,49.53 118.53,49.59C120.41,49.64 122.58,50.16 123.67,50.18C124.18,50.19 124.27,50.08 124.79,50.1C125.97,50.14 129.01,50.66 130.61,50.96C131.75,51.17 132.77,51.58 133.51,51.62C133.97,51.65 134.13,51.56 134.63,51.5C135.63,51.39 138,50.96 139.11,50.95C139.76,50.94 140.01,51.09 140.67,51.1C141.81,51.12 143.62,50.87 145.37,50.84C147.6,50.8 151.25,50.84 152.97,50.96C153.86,51.02 154.35,51.16 154.98,51.21C155.53,51.25 155.95,51.18 156.55,51.24C157.37,51.32 158.83,51.65 159.46,51.74C159.76,51.78 159.84,51.8 160.13,51.81C160.69,51.83 161.76,51.78 162.59,51.69C163.47,51.6 164.22,51.34 165.27,51.24C166.75,51.1 169.45,51.2 170.64,51.11C171.24,51.06 171.35,51.01 171.98,50.93C173.51,50.74 177.76,49.89 179.81,50.08C181.18,50.21 182.12,50.85 183.16,51.09C184.04,51.29 184.74,51.34 185.62,51.49C186.65,51.67 187.82,52.03 188.98,52.09C190.2,52.15 191.41,51.76 192.78,51.79C194.42,51.83 196.63,52.35 198.15,52.48C199.26,52.58 199.9,52.53 201.05,52.62C202.74,52.75 206.18,53.19 207.32,53.31C207.75,53.36 207.87,53.37 208.21,53.4C208.66,53.44 209.12,53.52 209.78,53.55C210.93,53.61 213.52,53.55 214.47,53.59C214.89,53.61 214.95,53.62 215.37,53.65C216.32,53.73 219.49,54.09 220.06,54.12C220.19,54.13 220.17,54.12 220.29,54.12C220.75,54.12 222.7,54.12 223.64,54.16C224.33,54.19 224.88,54.26 225.43,54.29C225.91,54.31 226.28,54.3 226.77,54.32C227.37,54.35 228.3,54.44 228.79,54.48C229.07,54.5 229.13,54.53 229.46,54.54C230.37,54.56 233.44,54.3 234.6,54.33C235.19,54.35 235.57,54.41 235.94,54.46C236.2,54.49 236.33,54.51 236.61,54.57C237.07,54.67 237.87,54.93 238.4,55.07C238.82,55.18 239.13,55.28 239.52,55.37C239.95,55.47 240.4,55.54 240.86,55.64C241.36,55.75 242.43,55.99 242.43,55.99C242.43,55.99 242.43,55.99 242.43,55.99C242.43,55.99 244.91,56.89 245.78,57.16C246.32,57.33 246.67,57.43 247.12,57.52C247.57,57.61 248.14,57.68 248.47,57.71C248.66,57.73 248.79,57.73 248.91,57.72C249,57.72 249.02,57.7 249.14,57.69C249.52,57.66 250.85,57.66 251.6,57.59C252.25,57.53 252.79,57.45 253.39,57.35C253.99,57.25 254.73,57.08 255.18,57.01C255.46,56.97 255.61,56.94 255.85,56.92C256.13,56.9 256.35,56.93 256.74,56.91C257.5,56.87 259.34,56.63 260.1,56.59C260.49,56.57 260.66,56.57 260.99,56.57C261.39,56.57 261.83,56.59 262.33,56.62C262.98,56.66 263.92,56.78 264.57,56.79C265.07,56.8 265.54,56.75 265.91,56.74C266.17,56.74 266.38,56.74 266.58,56.74C266.74,56.74 266.83,56.74 267.03,56.74C267.39,56.75 268.02,56.77 268.59,56.79C269.27,56.81 270.05,56.85 270.83,56.85C271.68,56.85 272.74,56.79 273.51,56.78C274.1,56.77 274.58,56.77 275.08,56.79C275.54,56.81 276.16,56.85 276.42,56.88C276.53,56.89 276.57,56.91 276.65,56.91C276.72,56.91 276.78,56.91 276.87,56.91C276.99,56.91 277.16,56.92 277.32,56.91C277.52,56.9 277.77,56.86 277.99,56.84C278.21,56.82 278.4,56.78 278.66,56.77Q279.03,56.75 280,56.8" style="vector-effect: non-scaling-stroke; fill: none; stroke: rgb(97, 162, 41); stroke-opacity: 1; stroke-width: 5px; opacity: 1;"/></g><g class="points"/><g class="text"/></g></g></g><g class="overplot"/><path class="xlines-above crisp" d="M0,0" style="fill: none;"/><path class="ylines-above crisp" d="M0,0" style="fill: none;"/><g class="overlines-above"/><g class="xaxislayer-above"/><g class="yaxislayer-above"/><g class="overaxes-above"/></g></g><g class="polarlayer"/><g class="smithlayer"/><g class="ternarylayer"/><g class="geolayer"/><g class="funnelarealayer"/><g class="pielayer"/><g class="iciclelayer"/><g class="treemaplayer"/><g class="sunburstlayer"/><g class="glimages"/><defs id="topdefs-3c101f"><g class="clips"/></defs><g class="layer-above"><g class="imagelayer"/><g class="shapelayer"/></g><g class="infolayer"><g class="g-gtitle"><text class="gtitle" x="15" y="25" text-anchor="start" dy="0em" style="font-family: Ubuntu, verdana, arial, sans-serif; font-size: 16px; fill: rgb(233, 84, 32); opacity: 1; font-weight: normal; white-space: pre;">NRSR 2020-2023</text></g><g class="g-xtitle"/><g class="g-ytitle"/></g></svg>