<svg class="main-svg" xmlns="http://www.w3.org/2000/svg" xmlns:xlink="http://www.w3.org/1999/xlink" width="300" height="135" style="" viewBox="0 0 300 135"><rect x="0" y="0" width="300" height="135" style="fill: rgb(255, 255, 255); fill-opacity: 1;"/><defs id="defs-62fe9c"><g class="clips"><clipPath id="clip62fe9cxyplot" class="plotclip"><rect width="280" height="75"/></clipPath><clipPath class="axesclip" id="clip62fe9cx"><rect x="10" y="0" width="280" height="135"/></clipPath><clipPath class="axesclip" id="clip62fe9cy"><rect x="0" y="50" width="300" height="75"/></clipPath><clipPath class="axesclip" id="clip62fe9cxy"><rect x="10" y="50" width="280" height="75"/></clipPath></g><g class="gradients"/><g class="patterns"/></defs><g class="bglayer"/><g class="layer-below"><g class="imagelayer"/><g class="shapelayer"/></g><g class="cartesianlayer"><g class="subplot xy"><g class="layer-subplot"><g class="shapelayer"/><g class="imagelayer"/></g><g class="minor-gridlayer"><g class="x"/><g class="y"/></g><g class="gridlayer"><g class="x"><path class="xgrid crisp" transform="translate(40.769999999999996,0)" d="M0,50v75" style="stroke: rgb(235, 240, 248); stroke-opacity: 1; stroke-width: 1px;"/><path class="xgrid crisp" transform="translate(133.07999999999998,0)" d="M0,50v75" style="stroke: rgb(235, 240, 248); stroke-opacity: 1; stroke-width: 1px;"/><path class="xgrid crisp" transform="translate(228.46,0)" d="M0,50v75" style="stroke: rgb(235, 240, 248); stroke-opacity: 1; stroke-width: 1px;"/></g><g class="y"><path class="ygrid crisp" transform="translate(0,108.16)" d="M10,0h280" style="stroke: rgb(235, 240, 248); stroke-opacity: 1; stroke-width: 1px;"/><path class="ygrid crisp" transform="translate(0,91.31)" d="M10,0h280" style="stroke: rgb(235, 240, 248); stroke-opacity: 1; stroke-width: 1px;"/><path class="ygrid crisp" transform="translate(0,74.47)" d="M10,0h280" style="stroke: rgb(235, 240, 248); stroke-opacity: 1; stroke-width: 1px;"/><path class="ygrid crisp" transform="translate(0,57.62)" d="M10,0h280" style="stroke: rgb(235, 240, 248); stroke-opacity: 1; stroke-width: 1px;"/></g></g><g class="zerolinelayer"><path class="yzl zl crisp" transform="translate(0,125)" d="M10,0h280" style="stroke: rgb(235, 240, 248); stroke-opacity: 1; stroke-width: 2px;"/></g><path class="xlines-below"/><path class="ylines-below"/><g class="overlines-below"/><g class="xaxislayer-below"/><g class="yaxislayer-below"/><g class="overaxes-below"/><g class="plot" transform="translate(10,50)" clip-path="url(#clip62fe9cxyplot)"><g class="scatterlayer mlayer"><g class="trace scatter trace9ed0b6" style="stroke-miterlimit: 2; opacity: 1;"><g class="fills"/><g class="errorbars"/><g class="lines"><path class="js-line" d="M0,11.38L3.08,12.83L6.15,12.04L12.31,11.82L15.38,11.82L18.46,12.63L21.54,11.82L33.85,12.05L36.92,14.08L55.38,16L58.46,16.25L83.08,15.38L86.15,18.47L89.23,18.15L92.31,19.89L113.85,19.34L116.92,21.11L120,22.66L123.08,22.77L156.92,23.61L160,23.5L166.15,19.91L169.23,19.91L178.46,19.36L181.54,19.36L215.38,19.08L218.46,18.07L224.62,18.07L227.69,15.88L233.85,15.88L236.92,11.16L249.23,3.75L252.31,3.75L280,3.82" style="vector-effect: none; fill: none; stroke: rgb(238, 58, 67); stroke-opacity: 1; stroke-width: 5px; opacity: 1;"/></g><g class="points"/><g class="text"/></g><g class="trace scatter tracec30233" style="stroke-miterlimit: 2; opacity: 1;"><g class="fills"/><g class="errorbars"/><g class="lines"><path class="js-line" d="M0,40.11L3.08,38.72L6.15,35.67L9.23,33.62L12.31,26.99L15.38,26.99L18.46,28.68L21.54,26.99L24.62,26.99L33.85,26.54L36.92,20.7L40,18.06L43.08,19.32L49.23,17.69L52.31,17.36L55.38,18.22L58.46,17.36L83.08,17.62L86.15,16.04L89.23,15.4L92.31,13.04L116.92,13.51L120,15.61L144.62,18.07L147.69,18.07L169.23,19.91L172.31,19.86L200,20.59L203.08,20.93L233.85,20.93L236.92,22.78L255.38,23.63L258.46,19.08L270.77,19.08L273.85,16.55L280,15.94" style="vector-effect: none; fill: none; stroke: rgb(0, 180, 219); stroke-opacity: 1; stroke-width: 5px; opacity: 1;"/></g><g class="points"/><g class="text"/></g><g class="trace scatter trace58dabc" style="stroke-miterlimit: 2; opacity: 1;"><g class="fills"/><g class="errorbars"/><g class="lines"><path class="js-line" d="M0,5.07L3.08,5L6.15,8.84L9.23,11.47L12.31,17.76L15.38,17.76L18.46,15.25L21.54,17.76L24.62,17.76L33.85,17.97L36.92,21.78L40,23.9L43.08,22.43L52.31,22.95L55.38,22.34L64.62,22.95L67.69,22.95L83.08,23.55L86.15,22.05L95.38,23.64L98.46,23.64L113.85,24.84L116.92,21.94L120,18.29L123.08,17.73L138.46,15.24L141.54,15.24L156.92,13.99L160,13.21L163.08,15.79L166.15,16.73L184.62,17.35L187.69,18.74L193.85,22.78L196.92,22.78L233.85,22.78L236.92,25.31L249.23,33.23L252.31,33.23L255.38,33.23L258.46,35.92L280,36.8" style="vector-effect: none; fill: none; stroke: rgb(138, 44, 81); stroke-opacity: 1; stroke-width: 5px; opacity: 1;"/></g><g class="points"/><g class="text"/></g></g></g><g class="overplot"/><path class="xlines-above crisp" d="M0,0" style="fill: none;"/><path class="ylines-above crisp" d="M0,0" style="fill: none;"/><g class="overlines-above"/><g class="xaxislayer-above"/><g class="yaxislayer-above"/><g class="overaxes-above"/></g></g><g class="polarlayer"/><g class="smithlayer"/><g class="ternarylayer"/><g class="geolayer"/><g class="funnelarealayer"/><g class="pielayer"/><g class="iciclelayer"/><g class="treemaplayer"/><g class="sunburstlayer"/><g class="glimages"/><defs id="topdefs-62fe9c"><g class="clips"/></defs><g class="layer-above"><g class="imagelayer"/><g class="shapelayer"/></g><g class="infolayer"><g class="g-gtitle"><text class="gtitle" x="15" y="25" text-anchor="start" dy="0em" style="font-family: Ubuntu, verdana, arial, sans-serif; font-size: 16px; fill: rgb(233, 84, 32); opacity: 1; font-weight: normal; white-space: pre;">Premiér/ka 2023</text></g><g class="g-xtitle"/><g class="g-ytitle"/></g></svg>