<svg class="main-svg" xmlns="http://www.w3.org/2000/svg" xmlns:xlink="http://www.w3.org/1999/xlink" width="300" height="135" style="" viewBox="0 0 300 135"><rect x="0" y="0" width="300" height="135" style="fill: rgb(255, 255, 255); fill-opacity: 1;"/><defs id="defs-bbf818"><g class="clips"><clipPath id="clipbbf818xyplot" class="plotclip"><rect width="280" height="75"/></clipPath><clipPath class="axesclip" id="clipbbf818x"><rect x="10" y="0" width="280" height="135"/></clipPath><clipPath class="axesclip" id="clipbbf818y"><rect x="0" y="50" width="300" height="75"/></clipPath><clipPath class="axesclip" id="clipbbf818xy"><rect x="10" y="50" width="280" height="75"/></clipPath></g><g class="gradients"/><g class="patterns"/></defs><g class="bglayer"/><g class="layer-below"><g class="imagelayer"/><g class="shapelayer"/></g><g class="cartesianlayer"><g class="subplot xy"><g class="layer-subplot"><g class="shapelayer"/><g class="imagelayer"/></g><g class="minor-gridlayer"><g class="x"/><g class="y"/></g><g class="gridlayer"><g class="x"><path class="xgrid crisp" transform="translate(32.760000000000005,0)" d="M0,50v75" style="stroke: rgb(235, 240, 248); stroke-opacity: 1; stroke-width: 1px;"/><path class="xgrid crisp" transform="translate(101.06,0)" d="M0,50v75" style="stroke: rgb(235, 240, 248); stroke-opacity: 1; stroke-width: 1px;"/><path class="xgrid crisp" transform="translate(171.63,0)" d="M0,50v75" style="stroke: rgb(235, 240, 248); stroke-opacity: 1; stroke-width: 1px;"/><path class="xgrid crisp" transform="translate(242.2,0)" d="M0,50v75" style="stroke: rgb(235, 240, 248); stroke-opacity: 1; stroke-width: 1px;"/></g><g class="y"><path class="ygrid crisp" transform="translate(0,108.99000000000001)" d="M10,0h280" style="stroke: rgb(235, 240, 248); stroke-opacity: 1; stroke-width: 1px;"/><path class="ygrid crisp" transform="translate(0,92.97999999999999)" d="M10,0h280" style="stroke: rgb(235, 240, 248); stroke-opacity: 1; stroke-width: 1px;"/><path class="ygrid crisp" transform="translate(0,76.97)" d="M10,0h280" style="stroke: rgb(235, 240, 248); stroke-opacity: 1; stroke-width: 1px;"/><path class="ygrid crisp" transform="translate(0,60.96)" d="M10,0h280" style="stroke: rgb(235, 240, 248); stroke-opacity: 1; stroke-width: 1px;"/></g></g><g class="zerolinelayer"><path class="yzl zl crisp" transform="translate(0,125)" d="M10,0h280" style="stroke: rgb(235, 240, 248); stroke-opacity: 1; stroke-width: 2px;"/></g><path class="xlines-below"/><path class="ylines-below"/><g class="overlines-below"/><g class="xaxislayer-below"/><g class="yaxislayer-below"/><g class="overaxes-below"/><g class="plot" transform="translate(10,50)" clip-path="url(#clipbbf818xyplot)"><g class="scatterlayer mlayer"><g class="trace scatter traceaf3ea5" style="stroke-miterlimit: 2; opacity: 1;"><g class="fills"/><g class="errorbars"/><g class="lines"><path class="js-line" d="M0,17.68L4.55,19.12L6.83,18.64L25.04,18.8L27.32,20.56L54.63,22.32L56.91,21.84L61.46,21.36L63.74,24.08L66.02,23.6L68.29,24.88L84.23,24.4L86.5,26.01L91.06,27.13L93.33,27.29L111.54,27.45L113.82,27.45L118.37,27.29L120.65,24.88L125.2,23.6L127.48,23.12L138.86,22.32L141.14,21.52L159.35,20.56L161.63,19.92L166.18,19.92L168.46,18.48L173.01,18.48L175.28,14L184.39,5.67L186.67,5.67L200.33,6.31L202.6,7.11L211.71,7.27L213.98,3.75L223.09,6.15L225.37,6.15L229.92,7.11L232.2,7.75L234.47,8.87L239.02,9.67L261.79,8.71L264.07,7.27L273.17,6.79L275.45,3.91L280,3.75" style="vector-effect: none; fill: none; stroke: rgb(238, 58, 67); stroke-opacity: 1; stroke-width: 5px; opacity: 1;"/></g><g class="points"/><g class="text"/></g><g class="trace scatter traceb1d78f" style="stroke-miterlimit: 2; opacity: 1;"><g class="fills"/><g class="errorbars"/><g class="lines"><path class="js-line" d="M0,43.46L4.55,40.1L6.83,38.17L9.11,32.25L11.38,32.09L13.66,33.37L15.93,32.09L25.04,31.77L27.32,26.33L29.59,23.92L31.87,25.04L36.42,23.44L38.7,23.28L40.98,24.08L43.25,23.28L61.46,23.28L63.74,21.84L66.02,21.04L68.29,18.64L86.5,19.12L88.78,20.72L109.27,22.8L111.54,22.8L125.2,23.6L127.48,23.6L138.86,23.12L141.14,22L145.69,21.84L147.97,22.16L157.07,22.48L159.35,22.48L173.01,23.28L175.28,25.04L184.39,24.88L186.67,24.88L188.94,24.88L191.22,21.2L200.33,21.04L202.6,19.12L211.71,18.8L213.98,22.48L223.09,24.56L225.37,24.56L232.2,23.44L234.47,21.68L243.58,20.4L245.85,20.4L261.79,20.88L264.07,21.84L273.17,22L275.45,23.28L280,23.44" style="vector-effect: none; fill: none; stroke: rgb(0, 180, 219); stroke-opacity: 1; stroke-width: 5px; opacity: 1;"/></g><g class="points"/><g class="text"/></g><g class="trace scatter trace52e190" style="stroke-miterlimit: 2; opacity: 1;"><g class="fills"/><g class="errorbars"/><g class="lines"><path class="js-line" d="M0,12.08L2.28,12.08L4.55,16.24L6.83,18.64L9.11,24.08L11.38,23.92L13.66,21.2L15.93,23.92L18.21,23.92L25.04,24.08L27.32,27.29L29.59,29.21L31.87,27.77L38.7,28.25L40.98,27.61L47.8,28.25L50.08,28.25L61.46,28.73L63.74,27.29L68.29,28.25L70.57,28.25L81.95,28.09L84.23,29.37L88.78,23.12L91.06,22.48L106.99,20.24L109.27,20.24L118.37,17.68L120.65,19.92L127.48,21.2L129.76,21.2L138.86,22.32L141.14,24.08L145.69,24.56L147.97,24.4L163.9,24.4L166.18,24.4L173.01,25.04L175.28,27.45L184.39,34.33L186.67,34.33L188.94,34.33L191.22,37.37L200.33,37.69L202.6,38.65L213.98,38.49L220.81,34.17L234.47,34.33L239.02,34.97L273.17,36.09L275.45,37.69L280,37.69" style="vector-effect: none; fill: none; stroke: rgb(138, 44, 81); stroke-opacity: 1; stroke-width: 5px; opacity: 1;"/></g><g class="points"/><g class="text"/></g><g class="trace scatter trace1f7ef6" style="stroke-miterlimit: 2; opacity: 1;"><g class="fills"/><g class="errorbars"/><g class="lines"><path class="js-line" d="M0,66.67L2.28,66.67L4.55,64.59L11.38,65.23L13.66,66.35L18.21,65.23L20.49,65.23L54.63,66.19L56.91,66.51L66.02,67.15L68.29,68.12L104.72,69.08L106.99,69.4L111.54,70.36L113.82,71L138.86,72.12L141.14,72.28L175.28,73.4" style="vector-effect: none; fill: none; stroke: rgb(1, 27, 58); stroke-opacity: 1; stroke-width: 5px; opacity: 1;"/></g><g class="points"/><g class="text"/></g></g></g><g class="overplot"/><path class="xlines-above crisp" d="M0,0" style="fill: none;"/><path class="ylines-above crisp" d="M0,0" style="fill: none;"/><g class="overlines-above"/><g class="xaxislayer-above"/><g class="yaxislayer-above"/><g class="overaxes-above"/></g></g><g class="polarlayer"/><g class="smithlayer"/><g class="ternarylayer"/><g class="geolayer"/><g class="funnelarealayer"/><g class="pielayer"/><g class="iciclelayer"/><g class="treemaplayer"/><g class="sunburstlayer"/><g class="glimages"/><defs id="topdefs-bbf818"><g class="clips"/></defs><g class="layer-above"><g class="imagelayer"/><g class="shapelayer"/></g><g class="infolayer"><g class="g-gtitle"><text class="gtitle" x="15" y="25" text-anchor="start" dy="0em" style="font-family: Ubuntu, verdana, arial, sans-serif; font-size: 16px; fill: rgb(233, 84, 32); opacity: 1; font-weight: normal; white-space: pre;">Premiér/ka 2023</text></g><g class="g-xtitle"/><g class="g-ytitle"/></g></svg>