<svg class="main-svg" xmlns="http://www.w3.org/2000/svg" xmlns:xlink="http://www.w3.org/1999/xlink" width="300" height="135" style="" viewBox="0 0 300 135"><rect x="0" y="0" width="300" height="135" style="fill: rgb(255, 255, 255); fill-opacity: 1;"/><defs id="defs-076fa5"><g class="clips"><clipPath id="clip076fa5xyplot" class="plotclip"><rect width="280" height="75"/></clipPath><clipPath class="axesclip" id="clip076fa5x"><rect x="10" y="0" width="280" height="135"/></clipPath><clipPath class="axesclip" id="clip076fa5y"><rect x="0" y="50" width="300" height="75"/></clipPath><clipPath class="axesclip" id="clip076fa5xy"><rect x="10" y="50" width="280" height="75"/></clipPath></g><g class="gradients"/><g class="patterns"/></defs><g class="bglayer"/><g class="layer-below"><g class="imagelayer"/><g class="shapelayer"/></g><g class="cartesianlayer"><g class="subplot xy"><g class="layer-subplot"><g class="shapelayer"/><g class="imagelayer"/></g><g class="minor-gridlayer"><g class="x"/><g class="y"/></g><g class="gridlayer"><g class="x"><path class="xgrid crisp" transform="translate(61.27,0)" d="M0,50v75" style="stroke: rgb(235, 240, 248); stroke-opacity: 1; stroke-width: 1px;"/><path class="xgrid crisp" transform="translate(116.48,0)" d="M0,50v75" style="stroke: rgb(235, 240, 248); stroke-opacity: 1; stroke-width: 1px;"/><path class="xgrid crisp" transform="translate(171.69,0)" d="M0,50v75" style="stroke: rgb(235, 240, 248); stroke-opacity: 1; stroke-width: 1px;"/><path class="xgrid crisp" transform="translate(226.9,0)" d="M0,50v75" style="stroke: rgb(235, 240, 248); stroke-opacity: 1; stroke-width: 1px;"/><path class="xgrid crisp" transform="translate(282.11,0)" d="M0,50v75" style="stroke: rgb(235, 240, 248); stroke-opacity: 1; stroke-width: 1px;"/></g><g class="y"><path class="ygrid crisp" transform="translate(0,106.88)" d="M10,0h280" style="stroke: rgb(235, 240, 248); stroke-opacity: 1; stroke-width: 1px;"/><path class="ygrid crisp" transform="translate(0,88.75999999999999)" d="M10,0h280" style="stroke: rgb(235, 240, 248); stroke-opacity: 1; stroke-width: 1px;"/><path class="ygrid crisp" transform="translate(0,70.64)" d="M10,0h280" style="stroke: rgb(235, 240, 248); stroke-opacity: 1; stroke-width: 1px;"/><path class="ygrid crisp" transform="translate(0,52.51)" d="M10,0h280" style="stroke: rgb(235, 240, 248); stroke-opacity: 1; stroke-width: 1px;"/></g></g><g class="zerolinelayer"><path class="yzl zl crisp" transform="translate(0,125)" d="M10,0h280" style="stroke: rgb(235, 240, 248); stroke-opacity: 1; stroke-width: 2px;"/></g><path class="xlines-below"/><path class="ylines-below"/><g class="overlines-below"/><g class="xaxislayer-below"/><g class="yaxislayer-below"/><g class="overaxes-below"/><g class="plot" transform="translate(10,50)" clip-path="url(#clip076fa5xyplot)"><g class="scatterlayer mlayer"><g class="trace scatter trace867241" style="stroke-miterlimit: 2; opacity: 1;"><g class="fills"/><g class="errorbars"/><g class="lines"><path class="js-line" d="M0,10.23L7.89,11.74L11.83,11.21L43.38,11.35L47.32,13.32L82.82,15.29L86.76,15.29L106.48,14.17L110.42,17.3L114.37,16.88L118.31,18.28L145.92,17.65L149.86,19.55L157.75,20.86L161.69,20.98L205.07,20.93L209.01,18.28L212.96,16.85L216.9,16.85L228.73,16.33L232.68,16.33L240.56,15.41L244.51,14.48L276.06,13.75L280,12.73" style="vector-effect: none; fill: none; stroke: rgb(238, 58, 67); stroke-opacity: 1; stroke-width: 5px; opacity: 1;"/></g><g class="points"/><g class="text"/></g><g class="trace scatter tracef354c3" style="stroke-miterlimit: 2; opacity: 1;"><g class="fills"/><g class="errorbars"/><g class="lines"><path class="js-line" d="M0,39.3L7.89,35.48L11.83,33.33L15.77,26.65L19.72,26.48L23.66,27.96L27.61,26.48L43.38,26.03L47.32,19.9L51.27,17.21L55.21,18.43L63.1,16.71L67.04,16.4L70.99,17.34L74.93,16.4L106.48,16.58L110.42,14.87L114.37,13.94L118.31,11.19L149.86,11.7L153.8,13.4L169.58,15.16L173.52,15.16L181.41,15.95L185.35,15.84L240.56,16.29L244.51,15.01L252.39,14.84L256.34,15.38L272.11,15.74L276.06,15.74L280,15.8" style="vector-effect: none; fill: none; stroke: rgb(0, 180, 219); stroke-opacity: 1; stroke-width: 5px; opacity: 1;"/></g><g class="points"/><g class="text"/></g><g class="trace scatter trace523f44" style="stroke-miterlimit: 2; opacity: 1;"><g class="fills"/><g class="errorbars"/><g class="lines"><path class="js-line" d="M0,3.75L3.94,3.75L7.89,8.44L11.83,11.21L15.77,17.38L19.72,17.18L23.66,14.08L27.61,17.18L31.55,17.18L43.38,17.38L47.32,20.97L51.27,23.18L55.21,21.54L63.1,22.09L67.04,22.13L70.99,21.46L74.93,22.13L106.48,22.51L110.42,21.04L122.25,22.07L126.2,21.88L141.97,21.88L145.92,23.36L153.8,16.3L157.75,15.56L181.41,13.07L185.35,12.95L193.24,11.92L197.18,11.01L205.07,10.15L209.01,12.58L216.9,13.55L220.85,14.07L236.62,14.07L240.56,15.41L248.45,17.91L252.39,17.74L280,17.79" style="vector-effect: none; fill: none; stroke: rgb(138, 44, 81); stroke-opacity: 1; stroke-width: 5px; opacity: 1;"/></g><g class="points"/><g class="text"/></g><g class="trace scatter traced5b6a4" style="stroke-miterlimit: 2; opacity: 1;"><g class="fills"/><g class="errorbars"/><g class="lines"><path class="js-line" d="M0,65.51L3.94,65.51L7.89,63.13L19.72,63.99L23.66,65.28L31.55,63.99L35.49,63.99L94.65,64.97L98.59,65.53L114.37,66.21L118.31,67.25L181.41,68.38L185.35,68.71L193.24,69.72L197.18,70.39L236.62,71.53L240.56,71.67L264.23,72.28L268.17,72.28L280,72.47" style="vector-effect: none; fill: none; stroke: rgb(1, 27, 58); stroke-opacity: 1; stroke-width: 5px; opacity: 1;"/></g><g class="points"/><g class="text"/></g></g></g><g class="overplot"/><path class="xlines-above crisp" d="M0,0" style="fill: none;"/><path class="ylines-above crisp" d="M0,0" style="fill: none;"/><g class="overlines-above"/><g class="xaxislayer-above"/><g class="yaxislayer-above"/><g class="overaxes-above"/></g></g><g class="polarlayer"/><g class="smithlayer"/><g class="ternarylayer"/><g class="geolayer"/><g class="funnelarealayer"/><g class="pielayer"/><g class="iciclelayer"/><g class="treemaplayer"/><g class="sunburstlayer"/><g class="glimages"/><defs id="topdefs-076fa5"><g class="clips"/></defs><g class="layer-above"><g class="imagelayer"/><g class="shapelayer"/></g><g class="infolayer"><g class="g-gtitle"><text class="gtitle" x="15" y="25" text-anchor="start" dy="0em" style="font-family: Ubuntu, verdana, arial, sans-serif; font-size: 16px; fill: rgb(233, 84, 32); opacity: 1; font-weight: normal; white-space: pre;">Premiér/ka 2023</text></g><g class="g-xtitle"/><g class="g-ytitle"/></g></svg>