<svg class="main-svg" xmlns="http://www.w3.org/2000/svg" xmlns:xlink="http://www.w3.org/1999/xlink" width="300" height="135" style="" viewBox="0 0 300 135"><rect x="0" y="0" width="300" height="135" style="fill: rgb(255, 255, 255); fill-opacity: 1;"/><defs id="defs-588a6d"><g class="clips"><clipPath id="clip588a6dxyplot" class="plotclip"><rect width="280" height="75"/></clipPath><clipPath class="axesclip" id="clip588a6dx"><rect x="10" y="0" width="280" height="135"/></clipPath><clipPath class="axesclip" id="clip588a6dy"><rect x="0" y="50" width="300" height="75"/></clipPath><clipPath class="axesclip" id="clip588a6dxy"><rect x="10" y="50" width="280" height="75"/></clipPath></g><g class="gradients"/><g class="patterns"/></defs><g class="bglayer"/><g class="layer-below"><g class="imagelayer"/><g class="shapelayer"/></g><g class="cartesianlayer"><g class="subplot xy"><g class="layer-subplot"><g class="shapelayer"/><g class="imagelayer"/></g><g class="minor-gridlayer"><g class="x"/><g class="y"/></g><g class="gridlayer"><g class="x"><path class="xgrid crisp" transform="translate(62.75,0)" d="M0,50v75" style="stroke: rgb(235, 240, 248); stroke-opacity: 1; stroke-width: 1px;"/><path class="xgrid crisp" transform="translate(119.57,0)" d="M0,50v75" style="stroke: rgb(235, 240, 248); stroke-opacity: 1; stroke-width: 1px;"/><path class="xgrid crisp" transform="translate(176.38,0)" d="M0,50v75" style="stroke: rgb(235, 240, 248); stroke-opacity: 1; stroke-width: 1px;"/><path class="xgrid crisp" transform="translate(233.19,0)" d="M0,50v75" style="stroke: rgb(235, 240, 248); stroke-opacity: 1; stroke-width: 1px;"/></g><g class="y"><path class="ygrid crisp" transform="translate(0,106.9)" d="M10,0h280" style="stroke: rgb(235, 240, 248); stroke-opacity: 1; stroke-width: 1px;"/><path class="ygrid crisp" transform="translate(0,88.81)" d="M10,0h280" style="stroke: rgb(235, 240, 248); stroke-opacity: 1; stroke-width: 1px;"/><path class="ygrid crisp" transform="translate(0,70.71000000000001)" d="M10,0h280" style="stroke: rgb(235, 240, 248); stroke-opacity: 1; stroke-width: 1px;"/><path class="ygrid crisp" transform="translate(0,52.61)" d="M10,0h280" style="stroke: rgb(235, 240, 248); stroke-opacity: 1; stroke-width: 1px;"/></g></g><g class="zerolinelayer"><path class="yzl zl crisp" transform="translate(0,125)" d="M10,0h280" style="stroke: rgb(235, 240, 248); stroke-opacity: 1; stroke-width: 2px;"/></g><path class="xlines-below"/><path class="ylines-below"/><g class="overlines-below"/><g class="xaxislayer-below"/><g class="yaxislayer-below"/><g class="overaxes-below"/><g class="plot" transform="translate(10,50)" clip-path="url(#clip588a6dxyplot)"><g class="scatterlayer mlayer"><g class="trace scatter tracea6394d" style="stroke-miterlimit: 2; opacity: 1;"><g class="fills"/><g class="errorbars"/><g class="lines"><path class="js-line" d="M0,10.24L8.12,11.84L12.17,11.26L36.52,11.24L40.58,11.24L44.64,11.45L48.7,13.41L81.16,15.36L85.22,15.36L109.57,14.31L113.62,17.37L117.68,16.89L121.74,18.39L150.14,17.71L154.2,19.6L162.32,20.95L166.38,21.18L211.01,21.03L215.07,18.34L219.13,16.92L223.19,16.92L235.36,16.4L239.42,16.4L247.54,15.55L251.59,14.56L280,13.47" style="vector-effect: none; fill: none; stroke: rgb(238, 58, 67); stroke-opacity: 1; stroke-width: 5px; opacity: 1;"/></g><g class="points"/><g class="text"/></g><g class="trace scatter trace188e3f" style="stroke-miterlimit: 2; opacity: 1;"><g class="fills"/><g class="errorbars"/><g class="lines"><path class="js-line" d="M0,39.4L8.12,35.43L12.17,33.41L16.23,26.65L20.29,26.48L24.35,27.96L28.41,26.48L44.64,26.04L48.7,19.95L52.75,17.33L56.81,18.49L64.93,16.78L68.99,16.47L73.04,17.4L77.1,16.47L109.57,16.69L113.62,14.95L117.68,13.98L121.74,11.35L154.2,11.8L158.26,13.55L174.49,15.24L178.55,15.24L186.67,16.02L190.72,15.86L206.96,16.32L211.01,17.12L227.25,16.92L231.3,16.92L247.54,16.25L251.59,15.09L259.71,14.86L263.77,15.22L275.94,15.64L280,15.64" style="vector-effect: none; fill: none; stroke: rgb(0, 180, 219); stroke-opacity: 1; stroke-width: 5px; opacity: 1;"/></g><g class="points"/><g class="text"/></g><g class="trace scatter trace3c875a" style="stroke-miterlimit: 2; opacity: 1;"><g class="fills"/><g class="errorbars"/><g class="lines"><path class="js-line" d="M0,3.81L4.06,3.75L8.12,8.56L12.17,11.26L16.23,17.44L20.29,17.24L24.35,14.17L28.41,17.24L32.46,17.24L44.64,17.44L48.7,21.01L52.75,23.25L56.81,21.57L64.93,22.13L68.99,22.16L73.04,21.5L77.1,22.16L109.57,22.59L113.62,21.08L121.74,22.15L125.8,22.15L146.09,21.91L150.14,23.55L158.26,16.43L162.32,15.69L186.67,13.16L190.72,12.99L198.84,11.97L202.9,11.06L211.01,10.14L215.07,12.67L223.19,13.64L227.25,14.16L243.48,14.16L247.54,15.55L255.65,18.09L259.71,17.92L280,17.63" style="vector-effect: none; fill: none; stroke: rgb(138, 44, 81); stroke-opacity: 1; stroke-width: 5px; opacity: 1;"/></g><g class="points"/><g class="text"/></g><g class="trace scatter trace065ce4" style="stroke-miterlimit: 2; opacity: 1;"><g class="fills"/><g class="errorbars"/><g class="lines"><path class="js-line" d="M0,65.58L4.06,65.57L8.12,63.2L20.29,64.06L24.35,65.35L32.46,64.06L36.52,64.06L97.39,65.03L101.45,65.44L117.68,66.26L121.74,67.15L186.67,68.26L190.72,68.75L198.84,69.75L202.9,70.42L243.48,71.55L247.54,71.69L271.88,72.29L275.94,72.29L280,72.29" style="vector-effect: none; fill: none; stroke: rgb(1, 27, 58); stroke-opacity: 1; stroke-width: 5px; opacity: 1;"/></g><g class="points"/><g class="text"/></g></g></g><g class="overplot"/><path class="xlines-above crisp" d="M0,0" style="fill: none;"/><path class="ylines-above crisp" d="M0,0" style="fill: none;"/><g class="overlines-above"/><g class="xaxislayer-above"/><g class="yaxislayer-above"/><g class="overaxes-above"/></g></g><g class="polarlayer"/><g class="smithlayer"/><g class="ternarylayer"/><g class="geolayer"/><g class="funnelarealayer"/><g class="pielayer"/><g class="iciclelayer"/><g class="treemaplayer"/><g class="sunburstlayer"/><g class="glimages"/><defs id="topdefs-588a6d"><g class="clips"/></defs><g class="layer-above"><g class="imagelayer"/><g class="shapelayer"/></g><g class="infolayer"><g class="g-gtitle"><text class="gtitle" x="15" y="25" text-anchor="start" dy="0em" style="font-family: Ubuntu, verdana, arial, sans-serif; font-size: 16px; fill: rgb(233, 84, 32); opacity: 1; font-weight: normal; white-space: pre;">Premiér/ka 2023</text></g><g class="g-xtitle"/><g class="g-ytitle"/></g></svg>