<svg class="main-svg" xmlns="http://www.w3.org/2000/svg" xmlns:xlink="http://www.w3.org/1999/xlink" width="300" height="135" style="" viewBox="0 0 300 135"><rect x="0" y="0" width="300" height="135" style="fill: rgb(255, 255, 255); fill-opacity: 1;"/><defs id="defs-a3a255"><g class="clips"><clipPath id="clipa3a255xyplot" class="plotclip"><rect width="280" height="75"/></clipPath><clipPath class="axesclip" id="clipa3a255x"><rect x="10" y="0" width="280" height="135"/></clipPath><clipPath class="axesclip" id="clipa3a255y"><rect x="0" y="50" width="300" height="75"/></clipPath><clipPath class="axesclip" id="clipa3a255xy"><rect x="10" y="50" width="280" height="75"/></clipPath></g><g class="gradients"/><g class="patterns"/></defs><g class="bglayer"/><g class="layer-below"><g class="imagelayer"/><g class="shapelayer"/></g><g class="cartesianlayer"><g class="subplot xy"><g class="layer-subplot"><g class="shapelayer"/><g class="imagelayer"/></g><g class="gridlayer"><g class="x"><path class="xgrid crisp" transform="translate(79.32,0)" d="M0,50v75" style="stroke: rgb(235, 240, 248); stroke-opacity: 1; stroke-width: 1px;"/><path class="xgrid crisp" transform="translate(161.74,0)" d="M0,50v75" style="stroke: rgb(235, 240, 248); stroke-opacity: 1; stroke-width: 1px;"/><path class="xgrid crisp" transform="translate(244.16,0)" d="M0,50v75" style="stroke: rgb(235, 240, 248); stroke-opacity: 1; stroke-width: 1px;"/></g><g class="y"><path class="ygrid crisp" transform="translate(0,109.62)" d="M10,0h280" style="stroke: rgb(235, 240, 248); stroke-opacity: 1; stroke-width: 1px;"/><path class="ygrid crisp" transform="translate(0,94.25)" d="M10,0h280" style="stroke: rgb(235, 240, 248); stroke-opacity: 1; stroke-width: 1px;"/><path class="ygrid crisp" transform="translate(0,78.87)" d="M10,0h280" style="stroke: rgb(235, 240, 248); stroke-opacity: 1; stroke-width: 1px;"/><path class="ygrid crisp" transform="translate(0,63.5)" d="M10,0h280" style="stroke: rgb(235, 240, 248); stroke-opacity: 1; stroke-width: 1px;"/></g></g><g class="zerolinelayer"><path class="yzl zl crisp" transform="translate(0,125)" d="M10,0h280" style="stroke: rgb(235, 240, 248); stroke-opacity: 1; stroke-width: 2px;"/></g><path class="xlines-below"/><path class="ylines-below"/><g class="overlines-below"/><g class="xaxislayer-below"/><g class="yaxislayer-below"/><g class="overaxes-below"/><g class="plot" transform="translate(10,50)" clip-path="url(#clipa3a255xyplot)"><g class="scatterlayer mlayer"><g class="trace scatter traceb69734" style="stroke-miterlimit: 2; opacity: 1;"><g class="fills"/><g class="errorbars"/><g class="lines"><path class="js-line" d="M0,18.76Q2.62,13.4 4.29,12.59C5.52,11.99 7.23,12.66 8.35,12.83C9.15,12.95 9.95,13.32 10.39,13.34C10.59,13.35 10.6,13.26 10.84,13.27C11.77,13.32 16.11,14.42 17.61,15.12C18.45,15.51 18.78,15.81 19.42,16.38C20.33,17.2 21.4,18.55 22.35,19.76C23.36,21.05 24.27,22.14 25.29,23.9C26.85,26.58 28.75,31.94 30.26,34.59C31.22,36.28 31.71,37.29 32.97,38.54C34.62,40.18 38.33,42.28 39.74,43.13C40.35,43.5 40.62,43.58 41.1,43.85C41.66,44.17 42.25,44.61 42.9,44.93C43.6,45.28 44.28,45.53 45.16,45.84C46.35,46.26 48.55,46.92 49.45,47.11C49.86,47.2 50.1,47.23 50.35,47.23C50.53,47.23 50.61,47.18 50.81,47.18C51.21,47.17 52.11,47.31 52.61,47.33C52.96,47.34 53.12,47.27 53.52,47.31C54.33,47.39 55.98,48.07 57.13,48.14C58.15,48.2 59.63,47.86 60.06,47.84C60.18,47.83 60.17,47.85 60.29,47.84C60.78,47.81 63.17,47.39 63.9,47.36C64.22,47.35 64.31,47.36 64.58,47.39C65,47.43 65.79,47.57 66.16,47.63C66.36,47.66 66.38,47.68 66.61,47.7C67.35,47.77 70.31,47.87 71.35,47.86C71.86,47.86 72.15,47.81 72.48,47.8C72.74,47.79 72.84,47.8 73.16,47.78C73.92,47.74 76.1,47.55 77,47.47C77.49,47.43 77.68,47.43 78.13,47.37C78.8,47.28 79.68,47.08 80.61,46.89C81.8,46.64 83.32,46.39 84.68,45.97C86.11,45.53 87.99,44.59 88.97,44.26C89.46,44.1 89.65,44.04 90.1,43.95C90.76,43.82 91.56,43.88 92.58,43.62C94.34,43.18 99.58,40.97 99.58,40.97C99.58,40.97 99.58,40.97 99.58,40.97C99.58,40.97 104.32,38.79 104.32,38.79C104.32,38.79 104.32,38.79 104.32,38.79C104.32,38.79 104.78,38.93 105.23,38.96C106.44,39.05 109.71,39.19 112,38.76C114.52,38.28 117.43,37.13 119.68,36.01C121.64,35.04 123.75,33.19 124.87,32.64C125.36,32.4 125.48,32.43 126,32.25C127.19,31.83 130.26,30.79 131.87,30.13C133.03,29.66 134.05,28.9 134.81,28.79C135.26,28.73 135.44,28.85 135.94,28.96C136.95,29.18 139.32,30.15 140.45,30.27C141.1,30.34 141.36,30.18 142.03,30.17C143.19,30.16 145.01,30.47 146.77,30.37C149.03,30.24 152.72,29.54 154.45,29.13C155.35,28.92 155.84,28.62 156.48,28.5C157.03,28.4 157.45,28.41 158.06,28.4C158.89,28.39 160.36,28.5 161,28.48C161.31,28.47 161.38,28.42 161.68,28.42C162.25,28.42 163.32,28.51 164.16,28.64C165.05,28.77 165.81,29.07 166.87,29.21C168.36,29.41 171.09,29.41 172.29,29.52C172.9,29.58 173.01,29.62 173.65,29.7C175.19,29.89 179.47,30.59 181.55,30.56C182.92,30.54 183.9,30.19 184.94,30.08C185.83,29.99 186.53,29.97 187.42,29.93C188.46,29.89 189.65,29.92 190.81,29.85C192.05,29.77 193.26,29.64 194.65,29.45C196.3,29.23 198.53,28.71 200.06,28.55C201.18,28.43 201.84,28.49 203,28.41C204.71,28.29 208.16,27.94 209.32,27.81C209.76,27.76 209.88,27.73 210.23,27.69C210.68,27.64 211.14,27.61 211.81,27.53C212.97,27.4 215.59,27.02 216.55,26.94C216.97,26.91 217.03,26.95 217.45,26.91C218.41,26.82 221.62,26.24 222.19,26.14C222.32,26.12 222.3,26.12 222.42,26.1C222.89,26.02 224.86,25.74 225.81,25.57C226.51,25.44 227.05,25.32 227.61,25.2C228.1,25.09 228.47,25 228.97,24.88C229.58,24.73 230.5,24.47 231,24.35C231.29,24.28 231.35,24.26 231.68,24.19C232.6,23.98 235.7,23.37 236.87,23.09C237.47,22.94 237.87,22.88 238.23,22.72C238.5,22.6 238.62,22.46 238.9,22.3C239.35,22.04 240.16,21.54 240.71,21.38C241.12,21.26 241.45,21.35 241.84,21.25C242.28,21.14 242.73,20.92 243.19,20.7C243.7,20.46 244.77,19.87 244.77,19.87C244.77,19.87 244.77,19.87 244.77,19.87C244.77,19.87 247.28,19.69 248.16,19.72C248.72,19.74 249.07,19.83 249.52,19.87C249.97,19.91 250.54,19.98 250.87,19.98C251.06,19.98 251.19,19.95 251.32,19.94C251.41,19.93 251.43,19.94 251.55,19.92C251.94,19.85 253.26,19.25 254.03,19.19C254.67,19.14 255.24,19.34 255.84,19.41C256.44,19.48 257.19,19.57 257.65,19.59C257.93,19.6 258.08,19.61 258.32,19.58C258.6,19.55 258.83,19.48 259.23,19.39C260,19.21 261.84,18.72 262.61,18.5C263.01,18.39 263.18,18.28 263.52,18.23C263.92,18.17 264.36,18.27 264.87,18.23C265.53,18.17 266.47,17.98 267.13,17.85C267.64,17.75 268.11,17.64 268.48,17.55C268.75,17.48 268.96,17.41 269.16,17.36C269.32,17.32 269.41,17.3 269.61,17.26C269.98,17.18 270.62,17.07 271.19,16.95C271.88,16.8 272.66,16.63 273.45,16.43C274.31,16.21 275.37,15.84 276.16,15.69C276.75,15.57 277.24,15.61 277.74,15.5C278.21,15.4 278.84,15.18 279.1,15.09C279.21,15.06 279.23,15.04 279.32,15.01Q279.48,14.96 280,14.83" style="vector-effect: non-scaling-stroke; fill: none; stroke: rgb(238, 58, 67); stroke-opacity: 1; stroke-width: 5px; opacity: 1;"/></g><g class="points"/><g class="text"/></g><g class="trace scatter traced01902" style="stroke-miterlimit: 2; opacity: 1;"><g class="fills"/><g class="errorbars"/><g class="lines"><path class="js-line" d="M0,53.6Q2.88,54.46 4.29,54.5C5.66,54.54 7.22,53.98 8.35,53.9C9.14,53.85 9.96,53.93 10.39,53.92C10.59,53.91 10.6,53.89 10.84,53.89C11.77,53.91 16.07,54.48 17.61,54.61C18.4,54.68 18.75,54.66 19.42,54.72C20.28,54.79 21.38,54.9 22.35,55.05C23.33,55.2 24.18,55.4 25.29,55.6C26.73,55.87 28.85,56.39 30.26,56.5C31.29,56.58 31.87,56.38 32.97,56.45C34.72,56.56 38.34,57.35 39.74,57.45C40.36,57.49 40.61,57.44 41.1,57.44C41.66,57.44 42.27,57.51 42.9,57.48C43.61,57.45 44.29,57.26 45.16,57.21C46.36,57.15 48.55,57.22 49.45,57.26C49.86,57.28 50.1,57.31 50.35,57.32C50.53,57.33 50.61,57.32 50.81,57.32C51.21,57.31 52.11,57.28 52.61,57.25C52.96,57.23 53.12,57.21 53.52,57.16C54.33,57.06 55.99,56.71 57.13,56.65C58.16,56.6 59.63,56.76 60.06,56.77C60.18,56.77 60.17,56.77 60.29,56.77C60.78,56.76 63.17,56.72 63.9,56.69C64.22,56.67 64.31,56.66 64.58,56.64C65,56.61 65.79,56.55 66.16,56.54C66.36,56.53 66.38,56.54 66.61,56.54C67.35,56.54 70.31,56.49 71.35,56.53C71.86,56.55 72.15,56.61 72.48,56.61C72.74,56.61 72.84,56.63 73.16,56.58C73.92,56.46 76.1,55.8 77,55.53C77.49,55.38 77.68,55.29 78.13,55.17C78.79,54.99 79.68,54.84 80.61,54.61C81.8,54.32 83.29,53.77 84.68,53.53C86.08,53.28 88,53.21 88.97,53.15C89.47,53.12 89.65,53.17 90.1,53.11C90.77,53.03 91.54,52.7 92.58,52.57C94.31,52.36 99.58,52.38 99.58,52.38C99.58,52.38 99.58,52.38 99.58,52.38C99.58,52.38 104.32,52.17 104.32,52.17C104.32,52.17 104.32,52.17 104.32,52.17C104.32,52.17 104.78,52.04 105.23,51.95C106.44,51.7 109.67,51.07 112,50.76C114.47,50.43 117.37,50 119.68,50.05C121.58,50.09 123.77,50.75 124.87,50.77C125.38,50.78 125.48,50.66 126,50.65C127.19,50.64 130.26,50.89 131.87,51.16C133.03,51.35 134.06,51.85 134.81,51.9C135.27,51.93 135.44,51.87 135.94,51.78C136.95,51.59 139.33,50.74 140.45,50.53C141.11,50.4 141.37,50.47 142.03,50.36C143.19,50.17 145,49.67 146.77,49.33C149.02,48.9 152.71,48.36 154.45,48.09C155.34,47.95 155.85,47.9 156.48,47.78C157.04,47.67 157.45,47.47 158.06,47.42C158.89,47.36 160.36,47.61 161,47.64C161.31,47.66 161.38,47.63 161.68,47.66C162.25,47.71 163.31,47.96 164.16,48.04C165.04,48.13 165.81,48.08 166.87,48.16C168.37,48.27 171.09,48.75 172.29,48.69C172.9,48.66 173.01,48.57 173.65,48.43C175.2,48.09 179.46,46.83 181.55,46.46C182.91,46.22 183.9,46.24 184.94,46.1C185.83,45.98 186.53,45.79 187.42,45.68C188.46,45.55 189.65,45.58 190.81,45.4C192.06,45.21 193.26,44.87 194.65,44.52C196.3,44.11 198.52,43.25 200.06,43.05C201.18,42.9 201.84,43.12 203,43.07C204.71,42.99 208.16,42.6 209.32,42.45C209.76,42.39 209.88,42.33 210.23,42.3C210.68,42.26 211.15,42.37 211.81,42.31C212.97,42.21 215.59,41.59 216.55,41.46C216.97,41.4 217.03,41.41 217.45,41.37C218.41,41.27 221.62,40.96 222.19,40.87C222.32,40.85 222.3,40.84 222.42,40.82C222.89,40.73 224.86,40.49 225.81,40.29C226.51,40.14 227.06,40 227.61,39.82C228.1,39.66 228.47,39.48 228.97,39.3C229.58,39.08 230.5,38.72 231,38.58C231.28,38.5 231.34,38.46 231.68,38.43C232.6,38.36 235.7,38.6 236.87,38.76C237.47,38.84 237.86,38.95 238.23,39.04C238.49,39.1 238.62,39.18 238.9,39.23C239.35,39.31 240.18,39.37 240.71,39.34C241.13,39.32 241.45,39.23 241.84,39.16C242.27,39.08 242.72,38.92 243.19,38.87C243.69,38.81 244.77,38.84 244.77,38.84C244.77,38.84 244.77,38.84 244.77,38.84C244.77,38.84 247.28,38.03 248.16,37.76C248.71,37.59 249.06,37.44 249.52,37.37C249.97,37.31 250.54,37.38 250.87,37.36C251.06,37.35 251.19,37.33 251.32,37.31C251.41,37.3 251.44,37.31 251.55,37.28C251.94,37.18 253.27,36.59 254.03,36.29C254.68,36.03 255.23,35.77 255.84,35.57C256.44,35.37 257.19,35.19 257.65,35.09C257.93,35.03 258.08,35.03 258.32,34.98C258.6,34.92 258.83,34.83 259.23,34.71C260,34.47 261.84,33.81 262.61,33.59C263.01,33.48 263.19,33.45 263.52,33.38C263.92,33.3 264.36,33.24 264.87,33.15C265.53,33.03 266.48,32.86 267.13,32.69C267.64,32.55 268.11,32.41 268.48,32.25C268.75,32.13 268.95,31.97 269.16,31.87C269.32,31.79 269.41,31.76 269.61,31.67C269.98,31.5 270.61,31.19 271.19,30.95C271.87,30.67 272.68,30.46 273.45,30.09C274.33,29.66 275.38,28.94 276.16,28.48C276.76,28.13 277.24,27.87 277.74,27.57C278.21,27.28 278.84,26.87 279.1,26.71C279.2,26.64 279.22,26.61 279.32,26.57Q279.48,26.51 280,26.44" style="vector-effect: non-scaling-stroke; fill: none; stroke: rgb(0, 180, 219); stroke-opacity: 1; stroke-width: 5px; opacity: 1;"/></g><g class="points"/><g class="text"/></g><g class="trace scatter tracebc5557" style="stroke-miterlimit: 2; opacity: 1;"><g class="fills"/><g class="errorbars"/><g class="lines"><path class="js-line" d="M30.26,40.13Q31.74,36.29 32.97,34.1C34.63,31.15 38.26,25.9 39.74,24.27C40.31,23.64 40.62,23.54 41.1,23.12C41.66,22.64 42.28,22.13 42.9,21.54C43.62,20.85 44.29,20.12 45.16,19.21C46.37,17.94 48.54,15.53 49.45,14.61C49.85,14.2 50.09,13.97 50.35,13.75C50.52,13.6 50.61,13.57 50.81,13.4C51.22,13.05 52.1,12.09 52.61,11.64C52.95,11.34 53.08,11.1 53.52,10.93C54.3,10.63 55.99,10.81 57.13,10.69C58.16,10.58 59.64,10.37 60.06,10.26C60.18,10.23 60.17,10.22 60.29,10.17C60.77,9.99 63.17,9.08 63.9,8.84C64.21,8.74 64.31,8.75 64.58,8.65C65,8.49 65.79,8.04 66.16,7.89C66.35,7.81 66.38,7.8 66.61,7.73C67.35,7.5 70.32,6.79 71.35,6.47C71.86,6.31 72.15,6.14 72.48,6.07C72.73,6.02 72.84,6.07 73.16,6.02C73.92,5.91 76.11,5.47 77,5.18C77.5,5.02 77.67,4.81 78.13,4.68C78.79,4.5 79.68,4.5 80.61,4.37C81.8,4.2 83.31,3.73 84.68,3.75C86.09,3.77 88,4.37 88.97,4.52C89.47,4.6 89.65,4.63 90.1,4.66C90.77,4.71 91.55,4.57 92.58,4.71C94.33,4.95 99.58,6.48 99.58,6.48C99.58,6.48 99.58,6.48 99.58,6.48C99.58,6.48 104.32,7.79 104.32,7.79C104.32,7.79 104.32,7.79 104.32,7.79C104.32,7.79 104.79,7.95 105.23,8.1C106.44,8.52 109.7,9.53 112,10.5C114.51,11.56 117.34,13.36 119.68,14.32C121.55,15.09 123.76,15.79 124.87,16.02C125.38,16.12 125.48,16.1 126,16.12C127.19,16.17 130.26,16.28 131.87,16.12C133.02,16 134.06,15.54 134.81,15.52C135.27,15.51 135.44,15.6 135.94,15.7C136.95,15.9 139.33,16.55 140.45,16.75C141.11,16.87 141.37,16.83 142.03,16.96C143.19,17.18 145.02,17.59 146.77,18.14C149.04,18.86 152.71,20.49 154.45,21.11C155.34,21.43 155.85,21.56 156.48,21.78C157.04,21.98 157.45,22.35 158.06,22.38C158.88,22.41 160.36,21.71 161,21.54C161.31,21.46 161.39,21.46 161.68,21.37C162.25,21.2 163.31,20.75 164.16,20.49C165.04,20.22 165.82,20.1 166.87,19.79C168.37,19.35 171.08,18.32 172.29,17.98C172.89,17.81 173.01,17.82 173.65,17.66C175.2,17.28 179.47,16.24 181.55,15.66C182.92,15.27 183.89,14.83 184.94,14.61C185.82,14.42 186.53,14.37 187.42,14.31C188.46,14.24 189.65,14.17 190.81,14.27C192.06,14.38 193.27,14.63 194.65,14.99C196.31,15.42 198.51,16.64 200.06,16.79C201.17,16.9 201.83,16.53 203,16.41C204.71,16.23 208.16,15.96 209.32,15.89C209.76,15.86 209.89,15.9 210.23,15.86C210.69,15.81 211.14,15.61 211.81,15.53C212.96,15.39 215.59,15.42 216.55,15.37C216.97,15.35 217.03,15.31 217.45,15.3C218.41,15.29 221.62,15.51 222.19,15.55C222.32,15.56 222.3,15.56 222.42,15.57C222.89,15.61 224.86,15.73 225.81,15.83C226.51,15.9 227.05,15.96 227.61,16.06C228.1,16.14 228.48,16.22 228.97,16.36C229.58,16.54 230.5,16.9 231,17.08C231.29,17.18 231.35,17.2 231.68,17.33C232.6,17.69 235.69,19.07 236.87,19.48C237.46,19.68 237.86,19.75 238.23,19.86C238.49,19.93 238.62,20.01 238.9,20.05C239.35,20.12 240.18,20.04 240.71,20.1C241.13,20.14 241.46,20.18 241.84,20.31C242.28,20.45 242.73,20.71 243.19,20.96C243.7,21.24 244.77,21.91 244.77,21.91C244.77,21.91 244.77,21.91 244.77,21.91C244.77,21.91 247.29,22.84 248.16,23.2C248.72,23.43 249.06,23.62 249.52,23.81C249.97,23.99 250.54,24.2 250.87,24.32C251.06,24.39 251.2,24.42 251.32,24.47C251.41,24.5 251.43,24.52 251.55,24.56C251.94,24.7 253.26,25.23 254.03,25.43C254.67,25.6 255.24,25.63 255.84,25.75C256.44,25.87 257.19,26.03 257.65,26.13C257.93,26.19 258.08,26.26 258.32,26.29C258.6,26.33 258.83,26.29 259.23,26.33C260,26.41 261.84,26.75 262.61,26.92C263.01,27.01 263.18,27.1 263.52,27.16C263.92,27.23 264.36,27.24 264.87,27.29C265.53,27.36 266.48,27.4 267.13,27.54C267.64,27.65 268.1,27.87 268.48,27.96C268.74,28.03 268.96,28.06 269.16,28.09C269.32,28.11 269.42,28.09 269.61,28.12C269.98,28.19 270.62,28.41 271.19,28.58C271.88,28.78 272.68,28.94 273.45,29.26C274.33,29.63 275.36,30.44 276.16,30.72C276.74,30.93 277.24,30.85 277.74,31.02C278.22,31.18 278.84,31.55 279.1,31.7C279.21,31.76 279.22,31.8 279.32,31.85Q279.48,31.92 280,32.03" style="vector-effect: non-scaling-stroke; fill: none; stroke: rgb(138, 44, 81); stroke-opacity: 1; stroke-width: 5px; opacity: 1;"/></g><g class="points"/><g class="text"/></g><g class="trace scatter trace6aefea" style="stroke-miterlimit: 2; opacity: 1;"><g class="fills"/><g class="errorbars"/><g class="lines"><path class="js-line" d="M84.68,70.07Q87.96,66.76 88.97,66.07C89.44,65.75 89.64,65.68 90.1,65.52C90.76,65.3 91.55,65.25 92.58,65.01C94.33,64.6 99.58,63.14 99.58,63.14C99.58,63.14 99.58,63.14 99.58,63.14C99.58,63.14 104.32,62.36 104.32,62.36C104.32,62.36 104.32,62.36 104.32,62.36C104.32,62.36 104.78,62.51 105.23,62.53C106.44,62.59 109.69,62.41 112,62C114.5,61.56 117.38,60.57 119.68,59.88C121.59,59.3 123.76,58.32 124.87,58.18C125.38,58.12 125.48,58.24 126,58.26C127.19,58.31 130.25,58.39 131.87,58.33C133.02,58.29 134.06,58.18 134.81,58.09C135.28,58.03 135.44,58 135.94,57.91C136.94,57.74 139.33,57.3 140.45,57.06C141.11,56.92 141.36,56.78 142.03,56.68C143.18,56.5 145,56.51 146.77,56.35C149.02,56.14 152.71,55.66 154.45,55.47C155.34,55.37 155.85,55.25 156.48,55.27C157.04,55.29 157.45,55.47 158.06,55.53C158.89,55.61 160.36,55.56 161,55.61C161.31,55.63 161.38,55.69 161.68,55.7C162.25,55.72 163.31,55.54 164.16,55.54C165.04,55.54 165.81,55.71 166.87,55.71C168.37,55.71 171.08,55.38 172.29,55.38C172.89,55.38 173.01,55.43 173.65,55.46C175.19,55.53 179.47,55.69 181.55,55.74C182.92,55.77 183.9,55.71 184.94,55.79C185.83,55.86 186.53,56.12 187.42,56.15C188.46,56.18 189.64,55.88 190.81,55.87C192.05,55.86 193.26,56.16 194.65,56.11C196.3,56.05 198.53,55.41 200.06,55.39C201.19,55.38 201.84,55.71 203,55.71C204.71,55.7 208.17,55.22 209.32,54.97C209.77,54.87 209.88,54.78 210.23,54.68C210.68,54.55 211.14,54.39 211.81,54.3C212.96,54.14 215.59,54.16 216.55,54.11C216.97,54.09 217.03,54.08 217.45,54.05C218.41,53.99 221.62,53.76 222.19,53.74C222.32,53.74 222.3,53.75 222.42,53.74C222.89,53.72 224.86,53.55 225.81,53.4C226.51,53.29 227.05,53.09 227.61,53C228.09,52.92 228.47,52.92 228.97,52.84C229.58,52.75 230.5,52.56 231,52.46C231.29,52.4 231.34,52.33 231.68,52.3C232.6,52.22 235.7,52.5 236.87,52.55C237.47,52.58 237.86,52.57 238.23,52.6C238.49,52.62 238.62,52.69 238.9,52.68C239.36,52.67 240.18,52.47 240.71,52.37C241.13,52.29 241.44,52.2 241.84,52.15C242.27,52.09 242.72,52.1 243.19,52.05C243.7,51.99 244.77,51.8 244.77,51.8C244.77,51.8 244.77,51.8 244.77,51.8C244.77,51.8 247.28,50.99 248.16,50.84C248.71,50.75 249.07,50.8 249.52,50.75C249.97,50.7 250.54,50.57 250.87,50.52C251.06,50.49 251.19,50.47 251.32,50.47C251.41,50.47 251.43,50.49 251.55,50.49C251.94,50.47 253.27,50.13 254.03,50.07C254.68,50.02 255.24,50.12 255.84,50.08C256.44,50.04 257.19,49.87 257.65,49.82C257.93,49.79 258.08,49.8 258.32,49.77C258.6,49.73 258.83,49.63 259.23,49.58C260,49.48 261.84,49.49 262.61,49.39C263.01,49.34 263.19,49.26 263.52,49.2C263.93,49.12 264.36,49.04 264.87,48.97C265.53,48.88 266.47,48.75 267.13,48.72C267.64,48.7 268.11,48.74 268.48,48.74C268.75,48.74 268.96,48.72 269.16,48.73C269.33,48.73 269.41,48.76 269.61,48.76C269.98,48.75 270.62,48.67 271.19,48.6C271.88,48.51 272.66,48.37 273.45,48.26C274.31,48.14 275.38,47.92 276.16,47.89C276.76,47.87 277.24,48.03 277.74,48C278.21,47.97 278.84,47.78 279.1,47.72C279.21,47.69 279.23,47.68 279.32,47.66Q279.48,47.63 280,47.59" style="vector-effect: non-scaling-stroke; fill: none; stroke: rgb(153, 51, 0); stroke-opacity: 1; stroke-width: 5px; opacity: 1;"/></g><g class="points"/><g class="text"/></g><g class="trace scatter trace37e5ba" style="stroke-miterlimit: 2; opacity: 1;"><g class="fills"/><g class="errorbars"/><g class="lines"><path class="js-line" d="M0,49.66Q2.68,44.93 4.29,44.29C5.53,43.79 7.23,44.94 8.35,44.86C9.15,44.8 9.95,44.4 10.39,44.28C10.59,44.23 10.6,44.19 10.84,44.17C11.76,44.09 16.08,44.29 17.61,44.59C18.42,44.75 18.73,45.06 19.42,45.2C20.27,45.37 21.37,45.42 22.35,45.41C23.33,45.4 24.23,44.88 25.29,45.15C26.79,45.53 28.79,47.93 30.26,48.46C31.25,48.82 31.86,48.68 32.97,48.76C34.72,48.88 38.35,48.76 39.74,48.98C40.38,49.08 40.62,49.21 41.1,49.38C41.66,49.57 42.26,49.9 42.9,50.09C43.6,50.29 44.29,50.32 45.16,50.52C46.37,50.8 48.56,51.4 49.45,51.68C49.87,51.81 50.1,51.91 50.35,52.01C50.53,52.08 50.61,52.12 50.81,52.21C51.21,52.38 52.11,52.77 52.61,52.99C52.97,53.15 53.12,53.22 53.52,53.4C54.32,53.77 55.98,54.59 57.13,55.06C58.15,55.47 59.63,55.95 60.06,56.1C60.18,56.14 60.17,56.14 60.29,56.18C60.77,56.32 63.17,56.87 63.9,56.99C64.21,57.04 64.31,57.04 64.58,57.06C65,57.09 65.79,57.11 66.16,57.13C66.36,57.14 66.38,57.14 66.61,57.15C67.35,57.2 70.31,57.46 71.35,57.54C71.86,57.58 72.15,57.61 72.48,57.62C72.74,57.63 72.84,57.61 73.16,57.61C73.92,57.6 76.1,57.6 77,57.55C77.49,57.52 77.68,57.52 78.13,57.45C78.8,57.35 79.69,57.2 80.61,56.92C81.81,56.55 83.32,55.94 84.68,55.3C86.11,54.63 87.98,53.26 88.97,52.97C89.45,52.83 89.65,52.92 90.1,52.9C90.77,52.87 91.54,52.85 92.58,52.84C94.32,52.83 99.58,52.93 99.58,52.93C99.58,52.93 99.58,52.93 99.58,52.93C99.58,52.93 104.32,53.2 104.32,53.2C104.32,53.2 104.32,53.2 104.32,53.2C104.32,53.2 104.78,53.11 105.23,53.07C106.44,52.95 109.68,52.65 112,52.72C114.48,52.8 117.37,53.47 119.68,53.59C121.58,53.69 123.77,53.6 124.87,53.56C125.38,53.54 125.48,53.53 126,53.48C127.19,53.36 130.25,52.89 131.87,52.74C133.02,52.63 134.07,52.44 134.81,52.55C135.28,52.62 135.43,52.83 135.94,52.98C136.94,53.28 139.33,53.74 140.45,53.99C141.11,54.14 141.36,54.23 142.03,54.34C143.18,54.52 145,54.65 146.77,54.81C149.02,55.02 152.71,55.33 154.45,55.47C155.34,55.54 155.85,55.59 156.48,55.63C157.04,55.66 157.45,55.7 158.06,55.69C158.89,55.68 160.36,55.5 161,55.49C161.31,55.48 161.38,55.51 161.68,55.51C162.25,55.51 163.32,55.47 164.16,55.43C165.04,55.39 165.81,55.38 166.87,55.29C168.37,55.16 171.08,54.67 172.29,54.65C172.89,54.64 173.01,54.69 173.65,54.76C175.2,54.92 179.46,55.54 181.55,55.73C182.91,55.85 183.9,55.95 184.94,55.93C185.83,55.92 186.53,55.85 187.42,55.71C188.47,55.54 189.64,55.04 190.81,54.92C192.04,54.8 193.26,55.08 194.65,55.03C196.3,54.97 198.53,54.67 200.06,54.47C201.19,54.32 201.84,54.21 203,54.01C204.71,53.72 208.16,52.98 209.32,52.84C209.76,52.79 209.88,52.8 210.23,52.79C210.68,52.78 211.14,52.8 211.81,52.79C212.97,52.77 215.59,52.59 216.55,52.59C216.97,52.59 217.03,52.6 217.45,52.62C218.41,52.67 221.62,52.93 222.19,52.94C222.32,52.94 222.3,52.94 222.42,52.93C222.89,52.9 224.86,52.78 225.81,52.7C226.5,52.64 227.05,52.58 227.61,52.53C228.09,52.49 228.47,52.44 228.97,52.41C229.58,52.37 230.5,52.32 231,52.33C231.29,52.33 231.35,52.39 231.68,52.38C232.6,52.36 235.7,51.98 236.87,51.82C237.47,51.74 237.86,51.65 238.23,51.6C238.49,51.56 238.62,51.5 238.9,51.52C239.36,51.55 240.18,51.85 240.71,51.95C241.13,52.03 241.45,52.04 241.84,52.09C242.27,52.15 242.72,52.22 243.19,52.28C243.7,52.34 244.77,52.45 244.77,52.45C244.77,52.45 244.77,52.45 244.77,52.45C244.77,52.45 247.28,52.38 248.16,52.35C248.72,52.33 249.07,52.34 249.52,52.31C249.97,52.28 250.54,52.2 250.87,52.19C251.06,52.18 251.19,52.2 251.32,52.2C251.41,52.2 251.43,52.19 251.55,52.21C251.94,52.27 253.26,52.71 254.03,52.85C254.68,52.97 255.24,52.99 255.84,53.06C256.44,53.13 257.19,53.23 257.65,53.27C257.93,53.29 258.08,53.27 258.32,53.31C258.6,53.36 258.83,53.46 259.23,53.55C260,53.73 261.84,54.11 262.61,54.21C263.01,54.26 263.19,54.27 263.52,54.28C263.93,54.29 264.36,54.25 264.87,54.26C265.53,54.28 266.47,54.36 267.13,54.4C267.64,54.43 268.11,54.44 268.48,54.47C268.75,54.49 268.96,54.51 269.16,54.53C269.33,54.54 269.41,54.56 269.61,54.57C269.98,54.6 270.62,54.61 271.19,54.67C271.88,54.74 272.66,54.89 273.45,54.99C274.31,55.1 275.38,55.26 276.16,55.29C276.76,55.32 277.23,55.27 277.74,55.25C278.21,55.23 278.84,55.19 279.1,55.17C279.2,55.16 279.23,55.16 279.32,55.15Q279.48,55.13 280,55.07" style="vector-effect: non-scaling-stroke; fill: none; stroke: rgb(1, 27, 58); stroke-opacity: 1; stroke-width: 5px; opacity: 1;"/></g><g class="points"/><g class="text"/></g></g></g><g class="overplot"/><path class="xlines-above crisp" d="M0,0" style="fill: none;"/><path class="ylines-above crisp" d="M0,0" style="fill: none;"/><g class="overlines-above"/><g class="xaxislayer-above"/><g class="yaxislayer-above"/><g class="overaxes-above"/></g></g><g class="polarlayer"/><g class="smithlayer"/><g class="ternarylayer"/><g class="geolayer"/><g class="funnelarealayer"/><g class="pielayer"/><g class="iciclelayer"/><g class="treemaplayer"/><g class="sunburstlayer"/><g class="glimages"/><defs id="topdefs-a3a255"><g class="clips"/></defs><g class="layer-above"><g class="imagelayer"/><g class="shapelayer"/></g><g class="infolayer"><g class="g-gtitle"><text class="gtitle" x="15" y="25" text-anchor="start" dy="0em" style="font-family: Ubuntu, verdana, arial, sans-serif; font-size: 16px; fill: rgb(233, 84, 32); opacity: 1; font-weight: normal; white-space: pre;">NRSR 2020-2023</text></g><g class="g-xtitle"/><g class="g-ytitle"/></g></svg>