<svg class="main-svg" xmlns="http://www.w3.org/2000/svg" xmlns:xlink="http://www.w3.org/1999/xlink" width="300" height="135" style="" viewBox="0 0 300 135"><rect x="0" y="0" width="300" height="135" style="fill: rgb(255, 255, 255); fill-opacity: 1;"/><defs id="defs-c526ed"><g class="clips"><clipPath id="clipc526edxyplot" class="plotclip"><rect width="280" height="75"/></clipPath><clipPath class="axesclip" id="clipc526edx"><rect x="10" y="0" width="280" height="135"/></clipPath><clipPath class="axesclip" id="clipc526edy"><rect x="0" y="50" width="300" height="75"/></clipPath><clipPath class="axesclip" id="clipc526edxy"><rect x="10" y="50" width="280" height="75"/></clipPath></g><g class="gradients"/><g class="patterns"/></defs><g class="bglayer"/><g class="layer-below"><g class="imagelayer"/><g class="shapelayer"/></g><g class="cartesianlayer"><g class="subplot xy"><g class="layer-subplot"><g class="shapelayer"/><g class="imagelayer"/></g><g class="gridlayer"><g class="x"><path class="xgrid crisp" transform="translate(83.28,0)" d="M0,50v75" style="stroke: rgb(235, 240, 248); stroke-opacity: 1; stroke-width: 1px;"/><path class="xgrid crisp" transform="translate(170.41,0)" d="M0,50v75" style="stroke: rgb(235, 240, 248); stroke-opacity: 1; stroke-width: 1px;"/><path class="xgrid crisp" transform="translate(257.53999999999996,0)" d="M0,50v75" style="stroke: rgb(235, 240, 248); stroke-opacity: 1; stroke-width: 1px;"/></g><g class="y"><path class="ygrid crisp" transform="translate(0,109.62)" d="M10,0h280" style="stroke: rgb(235, 240, 248); stroke-opacity: 1; stroke-width: 1px;"/><path class="ygrid crisp" transform="translate(0,94.25)" d="M10,0h280" style="stroke: rgb(235, 240, 248); stroke-opacity: 1; stroke-width: 1px;"/><path class="ygrid crisp" transform="translate(0,78.87)" d="M10,0h280" style="stroke: rgb(235, 240, 248); stroke-opacity: 1; stroke-width: 1px;"/><path class="ygrid crisp" transform="translate(0,63.5)" d="M10,0h280" style="stroke: rgb(235, 240, 248); stroke-opacity: 1; stroke-width: 1px;"/></g></g><g class="zerolinelayer"><path class="yzl zl crisp" transform="translate(0,125)" d="M10,0h280" style="stroke: rgb(235, 240, 248); stroke-opacity: 1; stroke-width: 2px;"/></g><path class="xlines-below"/><path class="ylines-below"/><g class="overlines-below"/><g class="xaxislayer-below"/><g class="yaxislayer-below"/><g class="overaxes-below"/><g class="plot" transform="translate(10,50)" clip-path="url(#clipc526edxyplot)"><g class="scatterlayer mlayer"><g class="trace scatter tracefea4e2" style="stroke-miterlimit: 2; opacity: 1;"><g class="fills"/><g class="errorbars"/><g class="lines"><path class="js-line" d="M0,18.76Q2.8,13.41 4.54,12.59C5.84,11.98 7.65,12.66 8.83,12.83C9.68,12.95 10.52,13.32 10.98,13.34C11.2,13.35 11.21,13.26 11.46,13.27C12.44,13.32 17.03,14.41 18.62,15.12C19.5,15.51 19.85,15.8 20.53,16.38C21.49,17.19 22.63,18.55 23.63,19.76C24.7,21.05 25.65,22.14 26.73,23.9C28.37,26.58 30.4,31.94 31.99,34.59C33.01,36.28 33.53,37.29 34.85,38.54C36.59,40.19 40.52,42.28 42.01,43.13C42.66,43.5 42.93,43.58 43.44,43.85C44.03,44.17 44.66,44.61 45.35,44.93C46.09,45.28 46.81,45.53 47.74,45.84C49,46.26 51.33,46.92 52.28,47.11C52.71,47.2 52.97,47.23 53.23,47.23C53.42,47.23 53.5,47.18 53.71,47.18C54.14,47.17 55.09,47.31 55.62,47.33C55.99,47.34 56.15,47.27 56.57,47.31C57.42,47.39 59.18,48.07 60.39,48.14C61.47,48.2 63.06,47.86 63.5,47.84C63.62,47.83 63.61,47.85 63.73,47.84C64.23,47.81 66.78,47.39 67.55,47.36C67.88,47.35 67.98,47.36 68.27,47.39C68.71,47.43 69.55,47.57 69.94,47.63C70.15,47.66 70.17,47.68 70.42,47.7C71.21,47.77 74.34,47.87 75.43,47.86C75.96,47.86 76.27,47.81 76.62,47.8C76.89,47.79 77,47.8 77.34,47.78C78.14,47.74 80.45,47.55 81.4,47.47C81.91,47.43 82.12,47.43 82.59,47.37C83.3,47.28 84.24,47.08 85.22,46.89C86.48,46.64 88.08,46.39 89.51,45.97C91.02,45.53 93.02,44.59 94.05,44.26C94.57,44.1 94.76,44.04 95.24,43.95C95.94,43.82 96.79,43.88 97.87,43.62C99.73,43.18 105.27,40.97 105.27,40.97C105.27,40.97 105.27,40.97 105.27,40.97C105.27,40.97 110.28,38.79 110.28,38.79C110.28,38.79 110.28,38.79 110.28,38.79C110.28,38.79 110.77,38.93 111.24,38.96C112.52,39.05 115.97,39.2 118.4,38.76C121.05,38.28 124.12,37.13 126.51,36.01C128.58,35.04 130.81,33.19 132,32.64C132.53,32.4 132.65,32.43 133.2,32.25C134.46,31.83 137.7,30.79 139.4,30.13C140.62,29.66 141.71,28.9 142.51,28.79C142.99,28.73 143.18,28.85 143.7,28.96C144.76,29.18 147.28,30.15 148.47,30.27C149.16,30.34 149.43,30.18 150.14,30.17C151.36,30.16 153.29,30.47 155.16,30.37C157.55,30.24 161.44,29.54 163.27,29.13C164.23,28.92 164.74,28.62 165.42,28.5C166.01,28.4 166.45,28.41 167.09,28.4C167.97,28.39 169.53,28.5 170.2,28.48C170.52,28.47 170.6,28.42 170.91,28.42C171.51,28.42 172.65,28.51 173.54,28.64C174.48,28.77 175.28,29.07 176.4,29.21C177.98,29.41 180.86,29.41 182.13,29.52C182.77,29.58 182.88,29.62 183.56,29.7C185.19,29.89 189.72,30.59 191.92,30.56C193.36,30.54 194.4,30.19 195.5,30.08C196.44,29.99 197.18,29.97 198.12,29.93C199.22,29.88 200.48,29.91 201.71,29.84C203.02,29.76 204.3,29.64 205.76,29.45C207.51,29.23 209.87,28.71 211.49,28.55C212.68,28.43 213.37,28.49 214.6,28.41C216.41,28.29 220.06,27.94 221.28,27.81C221.74,27.76 221.87,27.73 222.23,27.69C222.71,27.64 223.19,27.61 223.9,27.53C225.12,27.4 227.9,27.01 228.92,26.93C229.36,26.9 229.43,26.94 229.87,26.9C230.88,26.81 234.28,26.22 234.88,26.12C235.01,26.1 234.99,26.1 235.12,26.08C235.61,26 237.69,25.71 238.7,25.54C239.44,25.41 240.02,25.3 240.61,25.17C241.13,25.06 241.52,24.96 242.05,24.83C242.69,24.67 243.67,24.41 244.19,24.29C244.49,24.22 244.56,24.21 244.91,24.13C245.88,23.92 249.17,23.27 250.4,22.97C251.03,22.82 251.44,22.75 251.83,22.58C252.12,22.45 252.25,22.31 252.55,22.14C253.03,21.87 253.89,21.37 254.46,21.19C254.89,21.06 255.24,21.14 255.65,21.03C256.11,20.91 256.59,20.67 257.08,20.44C257.62,20.19 258.76,19.56 258.76,19.56C258.76,19.56 258.76,19.56 258.76,19.56C258.76,19.56 261.41,19.23 262.34,19.2C262.92,19.18 263.29,19.25 263.77,19.26C264.25,19.27 264.85,19.27 265.2,19.24C265.4,19.22 265.55,19.19 265.68,19.16C265.77,19.14 265.8,19.14 265.92,19.1C266.33,18.96 268.54,17.99 268.54,17.99C268.54,17.99 268.54,17.99 268.54,17.99C268.54,17.99 269.81,18.36 270.45,18.54C271.09,18.72 271.87,18.96 272.36,19.06C272.66,19.12 272.82,19.16 273.08,19.17C273.37,19.18 273.61,19.15 274.03,19.11C274.84,19.03 276.8,18.76 277.61,18.61C278.03,18.53 278.22,18.4 278.57,18.4Q279,18.4 280,18.69" style="vector-effect: non-scaling-stroke; fill: none; stroke: rgb(238, 58, 67); stroke-opacity: 1; stroke-width: 5px; opacity: 1;"/></g><g class="points"/><g class="text"/></g><g class="trace scatter trace7a64df" style="stroke-miterlimit: 2; opacity: 1;"><g class="fills"/><g class="errorbars"/><g class="lines"><path class="js-line" d="M31.99,40.13Q33.55,36.29 34.85,34.1C36.6,31.15 40.46,25.9 42.01,24.27C42.61,23.64 42.93,23.54 43.44,23.12C44.03,22.64 44.69,22.13 45.35,21.54C46.12,20.85 46.82,20.12 47.74,19.21C49.02,17.94 51.32,15.53 52.28,14.61C52.71,14.2 52.96,13.97 53.23,13.75C53.41,13.6 53.5,13.57 53.71,13.4C54.14,13.05 55.08,12.09 55.62,11.64C55.98,11.34 56.11,11.1 56.57,10.93C57.39,10.63 59.18,10.81 60.39,10.69C61.48,10.58 63.06,10.37 63.5,10.26C63.62,10.23 63.61,10.22 63.73,10.17C64.23,9.98 66.78,9.08 67.55,8.84C67.88,8.74 67.99,8.75 68.27,8.65C68.72,8.49 69.55,8.04 69.94,7.89C70.15,7.81 70.17,7.8 70.42,7.73C71.21,7.5 74.34,6.79 75.43,6.47C75.97,6.31 76.27,6.14 76.62,6.07C76.89,6.02 77,6.07 77.34,6.02C78.14,5.91 80.46,5.47 81.4,5.18C81.93,5.02 82.1,4.81 82.59,4.68C83.28,4.5 84.24,4.5 85.22,4.37C86.48,4.21 88.06,3.73 89.51,3.75C91,3.77 93.02,4.37 94.05,4.52C94.57,4.6 94.76,4.63 95.24,4.66C95.94,4.71 96.78,4.57 97.87,4.71C99.72,4.95 105.27,6.48 105.27,6.48C105.27,6.48 105.27,6.48 105.27,6.48C105.27,6.48 110.28,7.79 110.28,7.79C110.28,7.79 110.28,7.79 110.28,7.79C110.28,7.79 110.77,7.95 111.24,8.1C112.52,8.52 115.97,9.52 118.4,10.5C121.05,11.56 124.04,13.36 126.51,14.32C128.49,15.09 130.83,15.79 132,16.02C132.54,16.12 132.64,16.1 133.2,16.12C134.46,16.17 137.69,16.28 139.4,16.12C140.62,16 141.72,15.54 142.51,15.52C143,15.51 143.17,15.6 143.7,15.7C144.76,15.9 147.28,16.55 148.47,16.75C149.17,16.87 149.44,16.83 150.14,16.96C151.37,17.18 153.31,17.58 155.16,18.14C157.56,18.86 161.43,20.49 163.27,21.11C164.21,21.43 164.75,21.56 165.42,21.78C166.01,21.98 166.44,22.35 167.09,22.38C167.96,22.42 169.53,21.71 170.2,21.54C170.52,21.46 170.6,21.46 170.91,21.37C171.51,21.2 172.64,20.75 173.54,20.49C174.47,20.22 175.29,20.1 176.4,19.79C177.99,19.35 180.85,18.32 182.13,17.98C182.76,17.81 182.89,17.82 183.56,17.66C185.19,17.28 189.72,16.25 191.92,15.66C193.37,15.27 194.39,14.83 195.5,14.61C196.43,14.42 197.18,14.37 198.12,14.31C199.22,14.24 200.48,14.17 201.71,14.27C203.02,14.38 204.31,14.64 205.76,15C207.52,15.43 209.86,16.64 211.49,16.79C212.67,16.9 213.37,16.53 214.6,16.41C216.4,16.23 220.06,15.96 221.28,15.89C221.74,15.86 221.87,15.9 222.23,15.86C222.71,15.81 223.19,15.61 223.9,15.53C225.12,15.39 227.91,15.42 228.92,15.37C229.36,15.35 229.43,15.31 229.87,15.31C230.88,15.3 234.28,15.52 234.88,15.56C235.01,15.57 234.99,15.57 235.12,15.58C235.61,15.62 237.69,15.74 238.7,15.84C239.44,15.91 240.02,15.98 240.61,16.08C241.13,16.17 241.53,16.24 242.05,16.38C242.7,16.56 243.67,16.93 244.19,17.11C244.49,17.21 244.56,17.23 244.91,17.36C245.89,17.72 249.15,19.13 250.4,19.54C251.02,19.75 251.43,19.82 251.83,19.92C252.11,19.99 252.25,20.07 252.55,20.11C253.03,20.18 253.9,20.12 254.46,20.18C254.91,20.23 255.24,20.27 255.65,20.4C256.11,20.55 256.59,20.81 257.08,21.07C257.62,21.35 258.76,22.04 258.76,22.04C258.76,22.04 258.76,22.04 258.76,22.04C258.76,22.04 261.42,23.02 262.34,23.4C262.93,23.64 263.29,23.84 263.77,24.04C264.24,24.24 264.85,24.46 265.2,24.59C265.4,24.66 265.55,24.7 265.68,24.75C265.77,24.78 265.8,24.79 265.92,24.84C266.33,24.99 268.54,25.84 268.54,25.84C268.54,25.84 268.54,25.84 268.54,25.84C268.54,25.84 269.81,25.91 270.45,25.97C271.09,26.03 271.88,26.13 272.36,26.19C272.66,26.23 272.82,26.29 273.08,26.3C273.37,26.31 273.61,26.24 274.03,26.25C274.84,26.27 276.8,26.46 277.61,26.6C278.03,26.67 278.22,26.79 278.57,26.83Q279,26.88 280,26.84" style="vector-effect: non-scaling-stroke; fill: none; stroke: rgb(138, 44, 81); stroke-opacity: 1; stroke-width: 5px; opacity: 1;"/></g><g class="points"/><g class="text"/></g><g class="trace scatter trace08ef00" style="stroke-miterlimit: 2; opacity: 1;"><g class="fills"/><g class="errorbars"/><g class="lines"><path class="js-line" d="M0,53.6Q3.04,54.46 4.54,54.5C5.99,54.54 7.64,53.98 8.83,53.9C9.67,53.85 10.52,53.93 10.98,53.92C11.2,53.91 11.21,53.89 11.46,53.89C12.44,53.91 16.99,54.48 18.62,54.61C19.46,54.68 19.82,54.66 20.53,54.72C21.44,54.79 22.6,54.9 23.63,55.05C24.67,55.2 25.56,55.4 26.73,55.6C28.25,55.87 30.5,56.39 31.99,56.5C33.08,56.58 33.69,56.38 34.85,56.45C36.7,56.56 40.53,57.35 42.01,57.45C42.67,57.49 42.93,57.44 43.44,57.44C44.03,57.44 44.68,57.51 45.35,57.48C46.1,57.45 46.81,57.26 47.74,57.21C49.01,57.15 51.33,57.22 52.28,57.26C52.71,57.28 52.97,57.31 53.23,57.32C53.42,57.33 53.5,57.32 53.71,57.32C54.14,57.31 55.09,57.28 55.62,57.25C55.99,57.23 56.15,57.21 56.57,57.16C57.42,57.06 59.18,56.71 60.39,56.65C61.48,56.6 63.06,56.76 63.5,56.77C63.62,56.77 63.61,56.77 63.73,56.77C64.23,56.76 66.78,56.72 67.55,56.69C67.88,56.67 67.98,56.66 68.27,56.64C68.71,56.61 69.55,56.55 69.94,56.54C70.15,56.53 70.18,56.54 70.42,56.54C71.21,56.54 74.34,56.49 75.43,56.53C75.96,56.55 76.27,56.61 76.62,56.61C76.89,56.61 77.01,56.63 77.34,56.58C78.15,56.46 80.45,55.8 81.4,55.53C81.92,55.39 82.11,55.29 82.59,55.17C83.29,54.99 84.24,54.84 85.22,54.61C86.48,54.32 88.05,53.77 89.51,53.53C90.99,53.28 93.02,53.21 94.05,53.15C94.57,53.12 94.77,53.17 95.24,53.11C95.95,53.03 96.76,52.7 97.87,52.57C99.71,52.36 105.27,52.38 105.27,52.38C105.27,52.38 105.27,52.38 105.27,52.38C105.27,52.38 110.28,52.17 110.28,52.17C110.28,52.17 110.28,52.17 110.28,52.17C110.28,52.17 110.77,52.04 111.24,51.95C112.52,51.7 115.93,51.07 118.4,50.76C121.01,50.43 124.07,50 126.51,50.05C128.52,50.09 130.83,50.75 132,50.77C132.54,50.78 132.64,50.65 133.2,50.65C134.46,50.64 137.69,50.89 139.4,51.16C140.62,51.35 141.71,51.85 142.51,51.9C143,51.93 143.18,51.87 143.7,51.78C144.76,51.59 147.28,50.74 148.47,50.53C149.16,50.4 149.44,50.47 150.14,50.36C151.37,50.17 153.28,49.67 155.16,49.33C157.54,48.9 161.43,48.36 163.27,48.09C164.22,47.95 164.75,47.9 165.42,47.78C166.01,47.67 166.44,47.47 167.09,47.42C167.96,47.36 169.53,47.61 170.2,47.64C170.52,47.66 170.6,47.63 170.91,47.66C171.51,47.71 172.64,47.96 173.54,48.04C174.47,48.13 175.28,48.09 176.4,48.16C177.98,48.27 180.86,48.75 182.13,48.69C182.77,48.66 182.89,48.57 183.56,48.43C185.19,48.09 189.71,46.83 191.92,46.46C193.35,46.22 194.4,46.24 195.5,46.1C196.44,45.98 197.18,45.79 198.12,45.68C199.22,45.55 200.48,45.58 201.71,45.4C203.03,45.21 204.3,44.87 205.76,44.52C207.51,44.11 209.86,43.25 211.49,43.05C212.67,42.9 213.37,43.12 214.6,43.07C216.41,42.99 220.06,42.6 221.28,42.45C221.74,42.39 221.87,42.33 222.23,42.3C222.71,42.26 223.2,42.37 223.9,42.31C225.13,42.21 227.9,41.59 228.92,41.46C229.36,41.4 229.43,41.41 229.87,41.37C230.88,41.27 234.28,40.95 234.88,40.87C235.01,40.85 234.99,40.85 235.12,40.83C235.61,40.75 237.7,40.49 238.7,40.29C239.44,40.15 240.02,40.01 240.61,39.83C241.13,39.67 241.52,39.49 242.05,39.3C242.69,39.08 243.66,38.73 244.19,38.59C244.49,38.51 244.56,38.47 244.91,38.44C245.88,38.37 249.17,38.62 250.4,38.78C251.03,38.86 251.44,38.97 251.83,39.06C252.11,39.13 252.25,39.21 252.55,39.26C253.03,39.34 253.9,39.39 254.46,39.37C254.9,39.35 255.24,39.27 255.65,39.2C256.11,39.12 256.58,38.97 257.08,38.92C257.62,38.86 258.76,38.9 258.76,38.9C258.76,38.9 258.76,38.9 258.76,38.9C258.76,38.9 261.41,38.12 262.34,37.87C262.92,37.71 263.29,37.57 263.77,37.51C264.24,37.45 264.85,37.53 265.2,37.52C265.4,37.51 265.55,37.49 265.68,37.48C265.77,37.47 265.8,37.48 265.92,37.46C266.33,37.38 268.54,36.59 268.54,36.59C268.54,36.59 268.54,36.59 268.54,36.59C268.54,36.59 269.81,36.18 270.45,36.02C271.08,35.87 271.87,35.72 272.36,35.66C272.66,35.62 272.82,35.65 273.08,35.61C273.38,35.57 273.61,35.51 274.03,35.41C274.84,35.22 276.79,34.69 277.61,34.53C278.03,34.45 278.22,34.42 278.57,34.39Q279,34.36 280,34.37" style="vector-effect: non-scaling-stroke; fill: none; stroke: rgb(0, 180, 219); stroke-opacity: 1; stroke-width: 5px; opacity: 1;"/></g><g class="points"/><g class="text"/></g><g class="trace scatter trace2d2bff" style="stroke-miterlimit: 2; opacity: 1;"><g class="fills"/><g class="errorbars"/><g class="lines"><path class="js-line" d="M89.51,70.07Q92.99,66.76 94.05,66.07C94.54,65.75 94.75,65.68 95.24,65.52C95.93,65.3 96.78,65.25 97.87,65.01C99.72,64.6 105.27,63.14 105.27,63.14C105.27,63.14 105.27,63.14 105.27,63.14C105.27,63.14 110.28,62.36 110.28,62.36C110.28,62.36 110.28,62.36 110.28,62.36C110.28,62.36 110.77,62.51 111.24,62.53C112.52,62.59 115.96,62.41 118.4,62C121.04,61.56 124.08,60.57 126.51,59.88C128.52,59.3 130.83,58.32 132,58.18C132.54,58.12 132.64,58.24 133.2,58.26C134.46,58.31 137.69,58.39 139.4,58.33C140.61,58.29 141.72,58.18 142.51,58.09C143,58.03 143.17,58 143.7,57.91C144.76,57.74 147.29,57.3 148.47,57.06C149.17,56.92 149.43,56.78 150.14,56.68C151.36,56.5 153.29,56.51 155.16,56.35C157.54,56.14 161.43,55.66 163.27,55.47C164.22,55.37 164.75,55.25 165.42,55.27C166.01,55.29 166.45,55.47 167.09,55.53C167.96,55.61 169.53,55.56 170.2,55.61C170.52,55.63 170.6,55.69 170.91,55.7C171.51,55.72 172.64,55.54 173.54,55.54C174.47,55.54 175.28,55.71 176.4,55.71C177.98,55.71 180.86,55.38 182.13,55.38C182.77,55.38 182.89,55.43 183.56,55.46C185.19,55.53 189.72,55.69 191.92,55.74C193.36,55.77 194.4,55.71 195.5,55.79C196.44,55.86 197.18,56.12 198.12,56.15C199.22,56.18 200.48,55.88 201.71,55.87C203.02,55.86 204.3,56.16 205.76,56.11C207.51,56.05 209.87,55.41 211.49,55.39C212.68,55.38 213.37,55.72 214.6,55.71C216.41,55.7 220.07,55.21 221.28,54.96C221.75,54.86 221.87,54.77 222.23,54.67C222.71,54.54 223.19,54.39 223.9,54.3C225.12,54.14 227.91,54.16 228.92,54.11C229.36,54.09 229.43,54.08 229.87,54.05C230.88,53.99 234.28,53.77 234.88,53.74C235.01,53.73 234.99,53.74 235.12,53.73C235.61,53.7 237.7,53.54 238.7,53.39C239.44,53.28 240.02,53.07 240.61,52.98C241.12,52.9 241.52,52.91 242.05,52.83C242.69,52.74 243.67,52.55 244.19,52.44C244.49,52.38 244.55,52.31 244.91,52.28C245.88,52.19 249.16,52.46 250.4,52.5C251.03,52.52 251.43,52.51 251.83,52.54C252.11,52.56 252.25,52.63 252.55,52.62C253.04,52.61 253.9,52.39 254.46,52.29C254.9,52.21 255.23,52.13 255.65,52.07C256.1,52.01 256.59,52.01 257.08,51.95C257.62,51.88 258.76,51.68 258.76,51.68C258.76,51.68 258.76,51.68 258.76,51.68C258.76,51.68 261.41,50.82 262.34,50.65C262.92,50.54 263.29,50.58 263.77,50.52C264.25,50.45 264.85,50.32 265.2,50.26C265.4,50.23 265.55,50.2 265.68,50.19C265.77,50.18 265.8,50.2 265.92,50.19C266.33,50.15 268.54,49.64 268.54,49.64C268.54,49.64 268.54,49.64 268.54,49.64C268.54,49.64 269.81,49.82 270.45,49.83C271.09,49.84 271.88,49.74 272.36,49.72C272.66,49.71 272.82,49.73 273.08,49.71C273.38,49.69 273.61,49.61 274.03,49.59C274.84,49.55 276.8,49.75 277.61,49.7C278.03,49.68 278.22,49.61 278.57,49.56Q279,49.5 280,49.4" style="vector-effect: non-scaling-stroke; fill: none; stroke: rgb(153, 51, 0); stroke-opacity: 1; stroke-width: 5px; opacity: 1;"/></g><g class="points"/><g class="text"/></g><g class="trace scatter trace580249" style="stroke-miterlimit: 2; opacity: 1;"><g class="fills"/><g class="errorbars"/><g class="lines"><path class="js-line" d="M0,49.66Q2.85,44.94 4.54,44.29C5.86,43.78 7.65,44.94 8.83,44.86C9.68,44.8 10.52,44.39 10.98,44.28C11.2,44.23 11.2,44.19 11.46,44.17C12.44,44.09 17.01,44.29 18.62,44.59C19.47,44.75 19.81,45.06 20.53,45.2C21.43,45.37 22.6,45.42 23.63,45.41C24.66,45.4 25.61,44.88 26.73,45.15C28.31,45.54 30.45,47.93 31.99,48.46C33.04,48.82 33.68,48.68 34.85,48.76C36.7,48.89 40.54,48.76 42.01,48.98C42.68,49.08 42.93,49.22 43.44,49.38C44.03,49.57 44.67,49.9 45.35,50.09C46.09,50.29 46.82,50.32 47.74,50.52C49.02,50.8 51.33,51.4 52.28,51.68C52.72,51.81 52.97,51.91 53.23,52.01C53.42,52.08 53.5,52.12 53.71,52.21C54.13,52.39 55.09,52.77 55.62,52.99C55.99,53.15 56.15,53.22 56.57,53.4C57.42,53.77 59.17,54.59 60.39,55.06C61.47,55.47 63.06,55.95 63.5,56.1C63.62,56.14 63.61,56.15 63.73,56.18C64.23,56.32 66.78,56.87 67.55,56.99C67.88,57.04 67.98,57.04 68.27,57.06C68.71,57.09 69.55,57.11 69.94,57.13C70.15,57.14 70.18,57.14 70.42,57.15C71.21,57.2 74.34,57.46 75.43,57.54C75.96,57.58 76.27,57.61 76.62,57.62C76.89,57.63 77,57.61 77.34,57.61C78.14,57.6 80.45,57.6 81.4,57.55C81.92,57.52 82.12,57.52 82.59,57.45C83.3,57.35 84.25,57.2 85.22,56.92C86.49,56.56 88.08,55.94 89.51,55.3C91.02,54.63 93,53.26 94.05,52.97C94.56,52.83 94.77,52.92 95.24,52.9C95.94,52.87 96.77,52.85 97.87,52.84C99.71,52.83 105.27,52.93 105.27,52.93C105.27,52.93 105.27,52.93 105.27,52.93C105.27,52.93 110.28,53.2 110.28,53.2C110.28,53.2 110.28,53.2 110.28,53.2C110.28,53.2 110.77,53.11 111.24,53.07C112.52,52.95 115.94,52.65 118.4,52.72C121.02,52.8 124.07,53.47 126.51,53.59C128.51,53.69 130.83,53.6 132,53.56C132.55,53.54 132.65,53.53 133.2,53.48C134.46,53.36 137.68,52.89 139.4,52.74C140.61,52.63 141.73,52.44 142.51,52.55C143.01,52.62 143.16,52.83 143.7,52.98C144.75,53.28 147.29,53.74 148.47,53.99C149.17,54.14 149.43,54.23 150.14,54.34C151.36,54.52 153.29,54.65 155.16,54.81C157.54,55.02 161.43,55.33 163.27,55.47C164.22,55.54 164.75,55.59 165.42,55.63C166.01,55.66 166.45,55.7 167.09,55.69C167.97,55.68 169.53,55.5 170.2,55.49C170.52,55.48 170.6,55.51 170.91,55.51C171.51,55.51 172.65,55.47 173.54,55.43C174.47,55.39 175.28,55.38 176.4,55.29C177.98,55.16 180.86,54.67 182.13,54.65C182.77,54.64 182.89,54.7 183.56,54.76C185.19,54.92 189.71,55.54 191.92,55.73C193.36,55.85 194.4,55.95 195.5,55.93C196.44,55.92 197.18,55.85 198.12,55.71C199.23,55.54 200.47,55.04 201.71,54.92C203.01,54.8 204.29,55.08 205.76,55.03C207.51,54.97 209.87,54.67 211.49,54.47C212.69,54.32 213.37,54.21 214.6,54.01C216.41,53.72 220.06,52.98 221.28,52.84C221.74,52.79 221.87,52.8 222.23,52.79C222.71,52.78 223.19,52.8 223.9,52.79C225.12,52.77 227.91,52.59 228.92,52.59C229.36,52.59 229.43,52.6 229.87,52.62C230.88,52.67 234.28,52.94 234.88,52.95C235.01,52.95 234.99,52.95 235.12,52.94C235.61,52.91 237.69,52.79 238.7,52.71C239.44,52.65 240.02,52.59 240.61,52.54C241.12,52.5 241.52,52.45 242.05,52.42C242.69,52.38 243.67,52.34 244.19,52.35C244.49,52.35 244.56,52.4 244.91,52.39C245.88,52.37 249.16,52.01 250.4,51.86C251.03,51.78 251.43,51.69 251.83,51.64C252.11,51.6 252.25,51.55 252.55,51.57C253.04,51.6 253.9,51.91 254.46,52.01C254.9,52.09 255.24,52.1 255.65,52.15C256.11,52.21 256.58,52.29 257.08,52.35C257.62,52.42 258.76,52.54 258.76,52.54C258.76,52.54 258.76,52.54 258.76,52.54C258.76,52.54 261.42,52.51 262.34,52.5C262.92,52.49 263.29,52.51 263.77,52.49C264.25,52.47 264.85,52.4 265.2,52.4C265.4,52.4 265.55,52.42 265.68,52.43C265.77,52.43 265.8,52.42 265.92,52.44C266.33,52.51 268.54,53.19 268.54,53.19C268.54,53.19 268.54,53.19 268.54,53.19C268.54,53.19 269.81,53.24 270.45,53.26C271.09,53.29 271.88,53.33 272.36,53.34C272.66,53.34 272.82,53.31 273.08,53.33C273.38,53.36 273.61,53.45 274.03,53.53C274.84,53.68 276.79,54.04 277.61,54.13C278.03,54.17 278.22,54.18 278.57,54.17Q279,54.16 280,54.03" style="vector-effect: non-scaling-stroke; fill: none; stroke: rgb(1, 27, 58); stroke-opacity: 1; stroke-width: 5px; opacity: 1;"/></g><g class="points"/><g class="text"/></g></g></g><g class="overplot"/><path class="xlines-above crisp" d="M0,0" style="fill: none;"/><path class="ylines-above crisp" d="M0,0" style="fill: none;"/><g class="overlines-above"/><g class="xaxislayer-above"/><g class="yaxislayer-above"/><g class="overaxes-above"/></g></g><g class="polarlayer"/><g class="smithlayer"/><g class="ternarylayer"/><g class="geolayer"/><g class="funnelarealayer"/><g class="pielayer"/><g class="iciclelayer"/><g class="treemaplayer"/><g class="sunburstlayer"/><g class="glimages"/><defs id="topdefs-c526ed"><g class="clips"/></defs><g class="layer-above"><g class="imagelayer"/><g class="shapelayer"/></g><g class="infolayer"><g class="g-gtitle"><text class="gtitle" x="15" y="25" text-anchor="start" dy="0em" style="font-family: Ubuntu, verdana, arial, sans-serif; font-size: 16px; fill: rgb(233, 84, 32); opacity: 1; font-weight: normal; white-space: pre;">NRSR 2020-2023</text></g><g class="g-xtitle"/><g class="g-ytitle"/></g></svg>