<svg class="main-svg" xmlns="http://www.w3.org/2000/svg" xmlns:xlink="http://www.w3.org/1999/xlink" width="300" height="135" style="" viewBox="0 0 300 135"><rect x="0" y="0" width="300" height="135" style="fill: rgb(255, 255, 255); fill-opacity: 1;"/><defs id="defs-3cc176"><g class="clips"><clipPath id="clip3cc176xyplot" class="plotclip"><rect width="280" height="75"/></clipPath><clipPath class="axesclip" id="clip3cc176x"><rect x="10" y="0" width="280" height="135"/></clipPath><clipPath class="axesclip" id="clip3cc176y"><rect x="0" y="50" width="300" height="75"/></clipPath><clipPath class="axesclip" id="clip3cc176xy"><rect x="10" y="50" width="280" height="75"/></clipPath></g><g class="gradients"/><g class="patterns"/></defs><g class="bglayer"/><g class="layer-below"><g class="imagelayer"/><g class="shapelayer"/></g><g class="cartesianlayer"><g class="subplot xy"><g class="layer-subplot"><g class="shapelayer"/><g class="imagelayer"/></g><g class="minor-gridlayer"><g class="x"/><g class="y"/></g><g class="gridlayer"><g class="x"><path class="xgrid crisp" transform="translate(59.19,0)" d="M0,50v75" style="stroke: rgb(235, 240, 248); stroke-opacity: 1; stroke-width: 1px;"/><path class="xgrid crisp" transform="translate(112.16,0)" d="M0,50v75" style="stroke: rgb(235, 240, 248); stroke-opacity: 1; stroke-width: 1px;"/><path class="xgrid crisp" transform="translate(165.14,0)" d="M0,50v75" style="stroke: rgb(235, 240, 248); stroke-opacity: 1; stroke-width: 1px;"/><path class="xgrid crisp" transform="translate(218.11,0)" d="M0,50v75" style="stroke: rgb(235, 240, 248); stroke-opacity: 1; stroke-width: 1px;"/><path class="xgrid crisp" transform="translate(271.08,0)" d="M0,50v75" style="stroke: rgb(235, 240, 248); stroke-opacity: 1; stroke-width: 1px;"/></g><g class="y"><path class="ygrid crisp" transform="translate(0,106.9)" d="M10,0h280" style="stroke: rgb(235, 240, 248); stroke-opacity: 1; stroke-width: 1px;"/><path class="ygrid crisp" transform="translate(0,88.8)" d="M10,0h280" style="stroke: rgb(235, 240, 248); stroke-opacity: 1; stroke-width: 1px;"/><path class="ygrid crisp" transform="translate(0,70.69)" d="M10,0h280" style="stroke: rgb(235, 240, 248); stroke-opacity: 1; stroke-width: 1px;"/><path class="ygrid crisp" transform="translate(0,52.59)" d="M10,0h280" style="stroke: rgb(235, 240, 248); stroke-opacity: 1; stroke-width: 1px;"/></g></g><g class="zerolinelayer"><path class="yzl zl crisp" transform="translate(0,125)" d="M10,0h280" style="stroke: rgb(235, 240, 248); stroke-opacity: 1; stroke-width: 2px;"/></g><path class="xlines-below"/><path class="ylines-below"/><g class="overlines-below"/><g class="xaxislayer-below"/><g class="yaxislayer-below"/><g class="overaxes-below"/><g class="plot" transform="translate(10,50)" clip-path="url(#clip3cc176xyplot)"><g class="scatterlayer mlayer"><g class="trace scatter traceab898b" style="stroke-miterlimit: 2; opacity: 1;"><g class="fills"/><g class="errorbars"/><g class="lines"><path class="js-line" d="M0,10.2L7.57,11.83L11.35,11.24L34.05,11.21L37.84,11.21L41.62,11.38L45.41,13.42L75.68,15.36L79.46,15.36L102.16,14.23L105.95,17.4L109.73,16.96L113.51,18.21L140,17.69L143.78,19.55L151.35,20.99L155.14,21.11L196.76,21.06L200.54,18.33L204.32,16.88L208.11,16.88L219.46,16.35L223.24,16.35L230.81,15.55L234.59,14.66L245.95,15.08L249.73,14.54L276.22,13.45L280,11.1" style="vector-effect: none; fill: none; stroke: rgb(238, 58, 67); stroke-opacity: 1; stroke-width: 5px; opacity: 1;"/></g><g class="points"/><g class="text"/></g><g class="trace scatter trace952d5d" style="stroke-miterlimit: 2; opacity: 1;"><g class="fills"/><g class="errorbars"/><g class="lines"><path class="js-line" d="M0,39.4L7.57,35.52L11.35,33.46L15.14,26.58L18.92,26.42L22.7,27.91L26.49,26.42L41.62,26.07L45.41,19.92L49.19,17.25L52.97,18.43L60.54,16.74L64.32,16.48L68.11,17.38L71.89,16.48L102.16,16.66L105.95,14.93L109.73,14L113.51,11.39L143.78,11.8L147.57,13.57L174.05,16.03L177.84,15.92L230.81,16.25L234.59,15.02L242.16,15.45L245.95,15.99L257.3,16.53L261.08,16.53L280,16.53" style="vector-effect: none; fill: none; stroke: rgb(0, 180, 219); stroke-opacity: 1; stroke-width: 5px; opacity: 1;"/></g><g class="points"/><g class="text"/></g><g class="trace scatter trace1ec890" style="stroke-miterlimit: 2; opacity: 1;"><g class="fills"/><g class="errorbars"/><g class="lines"><path class="js-line" d="M0,3.81L3.78,3.75L7.57,8.49L11.35,11.24L15.14,17.52L18.92,17.33L22.7,14.19L26.49,17.33L30.27,17.33L41.62,17.47L45.41,21L49.19,23.28L52.97,21.57L64.32,22.11L68.11,21.54L79.46,22.11L83.24,22.11L102.16,22.66L105.95,21.01L113.51,22.21L117.3,22.21L136.22,21.97L140,23.47L147.57,16.32L151.35,15.64L174.05,13.12L177.84,13L185.41,11.9L189.19,11.1L196.76,10.17L200.54,12.56L208.11,13.73L211.89,14.25L227.03,14.25L230.81,15.55L238.38,18.52L242.16,18.52L280,18.52" style="vector-effect: none; fill: none; stroke: rgb(138, 44, 81); stroke-opacity: 1; stroke-width: 5px; opacity: 1;"/></g><g class="points"/><g class="text"/></g><g class="trace scatter trace5117f4" style="stroke-miterlimit: 2; opacity: 1;"><g class="fills"/><g class="errorbars"/><g class="lines"><path class="js-line" d="M0,65.57L3.78,65.56L7.57,63.15L18.92,64.03L22.7,65.33L30.27,64.03L34.05,64.03L90.81,65.03L94.59,65.44L109.73,66.12L113.51,67.17L174.05,68.31L177.84,68.65L185.41,69.83L189.19,70.35L227.03,71.5L230.81,71.64L257.3,72.47L261.08,72.47L280,72.83" style="vector-effect: none; fill: none; stroke: rgb(1, 27, 58); stroke-opacity: 1; stroke-width: 5px; opacity: 1;"/></g><g class="points"/><g class="text"/></g></g></g><g class="overplot"/><path class="xlines-above crisp" d="M0,0" style="fill: none;"/><path class="ylines-above crisp" d="M0,0" style="fill: none;"/><g class="overlines-above"/><g class="xaxislayer-above"/><g class="yaxislayer-above"/><g class="overaxes-above"/></g></g><g class="polarlayer"/><g class="smithlayer"/><g class="ternarylayer"/><g class="geolayer"/><g class="funnelarealayer"/><g class="pielayer"/><g class="iciclelayer"/><g class="treemaplayer"/><g class="sunburstlayer"/><g class="glimages"/><defs id="topdefs-3cc176"><g class="clips"/></defs><g class="layer-above"><g class="imagelayer"/><g class="shapelayer"/></g><g class="infolayer"><g class="g-gtitle"><text class="gtitle" x="15" y="25" text-anchor="start" dy="0em" style="font-family: Ubuntu, verdana, arial, sans-serif; font-size: 16px; fill: rgb(233, 84, 32); opacity: 1; font-weight: normal; white-space: pre;">Premiér/ka 2023</text></g><g class="g-xtitle"/><g class="g-ytitle"/></g></svg>