<svg class="main-svg" xmlns="http://www.w3.org/2000/svg" xmlns:xlink="http://www.w3.org/1999/xlink" width="300" height="135" style="" viewBox="0 0 300 135"><rect x="0" y="0" width="300" height="135" style="fill: rgb(255, 255, 255); fill-opacity: 1;"/><defs id="defs-720d13"><g class="clips"><clipPath id="clip720d13xyplot" class="plotclip"><rect width="280" height="75"/></clipPath><clipPath class="axesclip" id="clip720d13x"><rect x="10" y="0" width="280" height="135"/></clipPath><clipPath class="axesclip" id="clip720d13y"><rect x="0" y="50" width="300" height="75"/></clipPath><clipPath class="axesclip" id="clip720d13xy"><rect x="10" y="50" width="280" height="75"/></clipPath></g><g class="gradients"/><g class="patterns"/></defs><g class="bglayer"/><g class="layer-below"><g class="imagelayer"/><g class="shapelayer"/></g><g class="cartesianlayer"><g class="subplot xy"><g class="layer-subplot"><g class="shapelayer"/><g class="imagelayer"/></g><g class="gridlayer"><g class="x"><path class="xgrid crisp" transform="translate(83.28,0)" d="M0,50v75" style="stroke: rgb(235, 240, 248); stroke-opacity: 1; stroke-width: 1px;"/><path class="xgrid crisp" transform="translate(170.41,0)" d="M0,50v75" style="stroke: rgb(235, 240, 248); stroke-opacity: 1; stroke-width: 1px;"/><path class="xgrid crisp" transform="translate(257.53999999999996,0)" d="M0,50v75" style="stroke: rgb(235, 240, 248); stroke-opacity: 1; stroke-width: 1px;"/></g><g class="y"><path class="ygrid crisp" transform="translate(0,109.62)" d="M10,0h280" style="stroke: rgb(235, 240, 248); stroke-opacity: 1; stroke-width: 1px;"/><path class="ygrid crisp" transform="translate(0,94.25)" d="M10,0h280" style="stroke: rgb(235, 240, 248); stroke-opacity: 1; stroke-width: 1px;"/><path class="ygrid crisp" transform="translate(0,78.87)" d="M10,0h280" style="stroke: rgb(235, 240, 248); stroke-opacity: 1; stroke-width: 1px;"/><path class="ygrid crisp" transform="translate(0,63.5)" d="M10,0h280" style="stroke: rgb(235, 240, 248); stroke-opacity: 1; stroke-width: 1px;"/></g></g><g class="zerolinelayer"><path class="yzl zl crisp" transform="translate(0,125)" d="M10,0h280" style="stroke: rgb(235, 240, 248); stroke-opacity: 1; stroke-width: 2px;"/></g><path class="xlines-below"/><path class="ylines-below"/><g class="overlines-below"/><g class="xaxislayer-below"/><g class="yaxislayer-below"/><g class="overaxes-below"/><g class="plot" transform="translate(10,50)" clip-path="url(#clip720d13xyplot)"><g class="scatterlayer mlayer"><g class="trace scatter trace88c648" style="stroke-miterlimit: 2; opacity: 1;"><g class="fills"/><g class="errorbars"/><g class="lines"><path class="js-line" d="M0,18.76Q2.8,13.41 4.54,12.59C5.84,11.98 7.65,12.66 8.83,12.83C9.68,12.95 10.52,13.32 10.98,13.34C11.2,13.35 11.21,13.26 11.46,13.27C12.44,13.32 17.03,14.41 18.62,15.12C19.5,15.51 19.85,15.8 20.53,16.38C21.49,17.19 22.63,18.55 23.63,19.76C24.7,21.05 25.65,22.14 26.73,23.9C28.37,26.58 30.4,31.94 31.99,34.59C33.01,36.28 33.53,37.29 34.85,38.54C36.59,40.19 40.52,42.28 42.01,43.13C42.66,43.5 42.93,43.58 43.44,43.85C44.03,44.17 44.66,44.61 45.35,44.93C46.09,45.28 46.81,45.53 47.74,45.84C49,46.26 51.33,46.92 52.28,47.11C52.71,47.2 52.97,47.23 53.23,47.23C53.42,47.23 53.5,47.18 53.71,47.18C54.14,47.17 55.09,47.31 55.62,47.33C55.99,47.34 56.15,47.27 56.57,47.31C57.42,47.39 59.18,48.07 60.39,48.14C61.47,48.2 63.06,47.86 63.5,47.84C63.62,47.83 63.61,47.85 63.73,47.84C64.23,47.81 66.78,47.39 67.55,47.36C67.88,47.35 67.98,47.36 68.27,47.39C68.71,47.43 69.55,47.57 69.94,47.63C70.15,47.66 70.17,47.68 70.42,47.7C71.21,47.77 74.34,47.87 75.43,47.86C75.96,47.86 76.27,47.81 76.62,47.8C76.89,47.79 77,47.8 77.34,47.78C78.14,47.74 80.45,47.55 81.4,47.47C81.91,47.43 82.12,47.43 82.59,47.37C83.3,47.28 84.24,47.08 85.22,46.89C86.48,46.64 88.08,46.39 89.51,45.97C91.02,45.53 93.02,44.59 94.05,44.26C94.57,44.1 94.76,44.04 95.24,43.95C95.94,43.82 96.79,43.88 97.87,43.62C99.73,43.18 105.27,40.97 105.27,40.97C105.27,40.97 105.27,40.97 105.27,40.97C105.27,40.97 110.28,38.79 110.28,38.79C110.28,38.79 110.28,38.79 110.28,38.79C110.28,38.79 110.77,38.93 111.24,38.96C112.52,39.05 115.97,39.2 118.4,38.76C121.05,38.28 124.12,37.13 126.51,36.01C128.58,35.04 130.81,33.19 132,32.64C132.53,32.4 132.65,32.43 133.2,32.25C134.46,31.83 137.7,30.79 139.4,30.13C140.62,29.66 141.71,28.9 142.51,28.79C142.99,28.73 143.18,28.85 143.7,28.96C144.76,29.18 147.28,30.15 148.47,30.27C149.16,30.34 149.43,30.18 150.14,30.17C151.36,30.16 153.29,30.47 155.16,30.37C157.55,30.24 161.44,29.54 163.27,29.13C164.23,28.92 164.74,28.62 165.42,28.5C166.01,28.4 166.45,28.41 167.09,28.4C167.97,28.39 169.53,28.5 170.2,28.48C170.52,28.47 170.6,28.42 170.91,28.42C171.51,28.42 172.65,28.51 173.54,28.64C174.48,28.77 175.28,29.07 176.4,29.21C177.98,29.41 180.86,29.41 182.13,29.52C182.77,29.58 182.88,29.62 183.56,29.7C185.19,29.89 189.72,30.59 191.92,30.56C193.36,30.54 194.4,30.19 195.5,30.08C196.44,29.99 197.18,29.97 198.12,29.93C199.22,29.89 200.48,29.92 201.71,29.85C203.02,29.77 204.3,29.64 205.76,29.45C207.51,29.23 209.87,28.72 211.49,28.56C212.68,28.44 213.37,28.5 214.6,28.42C216.41,28.3 220.06,27.94 221.28,27.81C221.74,27.76 221.87,27.74 222.23,27.7C222.71,27.65 223.19,27.62 223.9,27.54C225.12,27.41 227.9,27.01 228.92,26.94C229.36,26.91 229.43,26.96 229.87,26.92C230.88,26.83 234.28,26.25 234.88,26.15C235.01,26.13 234.99,26.13 235.12,26.11C235.61,26.03 237.69,25.75 238.7,25.58C239.44,25.46 240.02,25.34 240.61,25.22C241.12,25.11 241.52,25.02 242.05,24.9C242.69,24.75 243.67,24.5 244.19,24.38C244.49,24.31 244.56,24.29 244.91,24.22C245.88,24.02 249.17,23.42 250.4,23.14C251.03,23 251.44,22.93 251.83,22.77C252.12,22.65 252.25,22.51 252.55,22.35C253.03,22.09 253.89,21.59 254.46,21.43C254.89,21.31 255.24,21.41 255.65,21.31C256.11,21.2 256.59,20.98 257.08,20.77C257.62,20.53 258.76,19.94 258.76,19.94C258.76,19.94 258.76,19.94 258.76,19.94C258.76,19.94 261.42,19.78 262.34,19.82C262.93,19.85 263.29,19.95 263.77,20C264.25,20.05 264.85,20.12 265.2,20.13C265.4,20.13 265.55,20.12 265.68,20.11C265.77,20.1 265.8,20.11 265.92,20.09C266.33,20.02 267.73,19.43 268.54,19.39C269.22,19.36 269.81,19.6 270.45,19.7C271.09,19.81 271.87,19.97 272.36,20.02C272.66,20.05 272.82,20.07 273.08,20.06C273.38,20.05 273.61,20 274.03,19.93C274.84,19.79 276.8,19.39 277.61,19.19C278.03,19.09 278.22,18.94 278.57,18.92Q279,18.9 280,19.19" style="vector-effect: non-scaling-stroke; fill: none; stroke: rgb(238, 58, 67); stroke-opacity: 1; stroke-width: 5px; opacity: 1;"/></g><g class="points"/><g class="text"/></g><g class="trace scatter tracecdab82" style="stroke-miterlimit: 2; opacity: 1;"><g class="fills"/><g class="errorbars"/><g class="lines"><path class="js-line" d="M31.99,40.13Q33.55,36.29 34.85,34.1C36.6,31.15 40.46,25.9 42.01,24.27C42.61,23.64 42.93,23.54 43.44,23.12C44.03,22.64 44.69,22.13 45.35,21.54C46.12,20.85 46.82,20.12 47.74,19.21C49.02,17.94 51.32,15.53 52.28,14.61C52.71,14.2 52.96,13.97 53.23,13.75C53.41,13.6 53.5,13.57 53.71,13.4C54.14,13.05 55.08,12.09 55.62,11.64C55.98,11.34 56.11,11.1 56.57,10.93C57.39,10.63 59.18,10.81 60.39,10.69C61.48,10.58 63.06,10.37 63.5,10.26C63.62,10.23 63.61,10.22 63.73,10.17C64.23,9.98 66.78,9.08 67.55,8.84C67.88,8.74 67.99,8.75 68.27,8.65C68.72,8.49 69.55,8.04 69.94,7.89C70.15,7.81 70.17,7.8 70.42,7.73C71.21,7.5 74.34,6.79 75.43,6.47C75.97,6.31 76.27,6.14 76.62,6.07C76.89,6.02 77,6.07 77.34,6.02C78.14,5.91 80.46,5.47 81.4,5.18C81.93,5.02 82.1,4.81 82.59,4.68C83.28,4.5 84.24,4.5 85.22,4.37C86.48,4.21 88.06,3.73 89.51,3.75C91,3.77 93.02,4.37 94.05,4.52C94.57,4.6 94.76,4.63 95.24,4.66C95.94,4.71 96.78,4.57 97.87,4.71C99.72,4.95 105.27,6.48 105.27,6.48C105.27,6.48 105.27,6.48 105.27,6.48C105.27,6.48 110.28,7.79 110.28,7.79C110.28,7.79 110.28,7.79 110.28,7.79C110.28,7.79 110.77,7.95 111.24,8.1C112.52,8.52 115.97,9.52 118.4,10.5C121.05,11.56 124.04,13.36 126.51,14.32C128.49,15.09 130.83,15.79 132,16.02C132.54,16.12 132.64,16.1 133.2,16.12C134.46,16.17 137.69,16.28 139.4,16.12C140.62,16 141.72,15.54 142.51,15.52C143,15.51 143.17,15.6 143.7,15.7C144.76,15.9 147.28,16.55 148.47,16.75C149.17,16.87 149.44,16.83 150.14,16.96C151.37,17.18 153.31,17.58 155.16,18.14C157.56,18.86 161.43,20.49 163.27,21.11C164.21,21.43 164.75,21.56 165.42,21.78C166.01,21.98 166.44,22.35 167.09,22.38C167.96,22.42 169.53,21.71 170.2,21.54C170.52,21.46 170.6,21.46 170.91,21.37C171.51,21.2 172.64,20.75 173.54,20.49C174.47,20.22 175.29,20.1 176.4,19.79C177.99,19.35 180.85,18.32 182.13,17.98C182.76,17.81 182.89,17.82 183.56,17.66C185.19,17.28 189.72,16.25 191.92,15.66C193.37,15.27 194.39,14.83 195.5,14.61C196.43,14.42 197.18,14.37 198.12,14.31C199.22,14.24 200.48,14.17 201.71,14.27C203.02,14.38 204.31,14.63 205.76,14.99C207.52,15.42 209.86,16.64 211.49,16.79C212.67,16.9 213.37,16.53 214.6,16.41C216.4,16.23 220.06,15.96 221.28,15.89C221.74,15.86 221.87,15.89 222.23,15.85C222.71,15.79 223.19,15.6 223.9,15.52C225.12,15.38 227.91,15.41 228.92,15.36C229.36,15.34 229.43,15.3 229.87,15.29C230.88,15.28 234.28,15.51 234.88,15.54C235.01,15.55 234.99,15.54 235.12,15.55C235.61,15.58 237.69,15.71 238.7,15.81C239.44,15.88 240.02,15.95 240.61,16.04C241.13,16.12 241.53,16.19 242.05,16.33C242.7,16.5 243.67,16.87 244.19,17.05C244.49,17.15 244.56,17.16 244.91,17.29C245.89,17.64 249.15,19.02 250.4,19.42C251.02,19.62 251.43,19.68 251.83,19.78C252.11,19.85 252.25,19.93 252.55,19.97C253.03,20.04 253.9,19.95 254.46,20C254.91,20.04 255.24,20.08 255.65,20.2C256.11,20.34 256.59,20.59 257.08,20.84C257.62,21.11 258.76,21.78 258.76,21.78C258.76,21.78 258.76,21.78 258.76,21.78C258.76,21.78 261.42,22.68 262.34,23.03C262.93,23.26 263.29,23.45 263.77,23.63C264.24,23.81 264.85,24.02 265.2,24.13C265.4,24.19 265.55,24.23 265.68,24.27C265.77,24.3 265.8,24.31 265.92,24.35C266.33,24.48 267.73,25 268.54,25.19C269.22,25.35 269.81,25.37 270.45,25.47C271.09,25.57 271.88,25.71 272.36,25.8C272.66,25.86 272.82,25.93 273.08,25.95C273.37,25.98 273.61,25.91 274.03,25.93C274.84,25.97 276.8,26.24 277.61,26.39C278.03,26.47 278.22,26.58 278.57,26.63Q279,26.69 280,26.66" style="vector-effect: non-scaling-stroke; fill: none; stroke: rgb(138, 44, 81); stroke-opacity: 1; stroke-width: 5px; opacity: 1;"/></g><g class="points"/><g class="text"/></g><g class="trace scatter tracef56431" style="stroke-miterlimit: 2; opacity: 1;"><g class="fills"/><g class="errorbars"/><g class="lines"><path class="js-line" d="M0,53.6Q3.04,54.46 4.54,54.5C5.99,54.54 7.64,53.98 8.83,53.9C9.67,53.85 10.52,53.93 10.98,53.92C11.2,53.91 11.21,53.89 11.46,53.89C12.44,53.91 16.99,54.48 18.62,54.61C19.46,54.68 19.82,54.66 20.53,54.72C21.44,54.79 22.6,54.9 23.63,55.05C24.67,55.2 25.56,55.4 26.73,55.6C28.25,55.87 30.5,56.39 31.99,56.5C33.08,56.58 33.69,56.38 34.85,56.45C36.7,56.56 40.53,57.35 42.01,57.45C42.67,57.49 42.93,57.44 43.44,57.44C44.03,57.44 44.68,57.51 45.35,57.48C46.1,57.45 46.81,57.26 47.74,57.21C49.01,57.15 51.33,57.22 52.28,57.26C52.71,57.28 52.97,57.31 53.23,57.32C53.42,57.33 53.5,57.32 53.71,57.32C54.14,57.31 55.09,57.28 55.62,57.25C55.99,57.23 56.15,57.21 56.57,57.16C57.42,57.06 59.18,56.71 60.39,56.65C61.48,56.6 63.06,56.76 63.5,56.77C63.62,56.77 63.61,56.77 63.73,56.77C64.23,56.76 66.78,56.72 67.55,56.69C67.88,56.67 67.98,56.66 68.27,56.64C68.71,56.61 69.55,56.55 69.94,56.54C70.15,56.53 70.18,56.54 70.42,56.54C71.21,56.54 74.34,56.49 75.43,56.53C75.96,56.55 76.27,56.61 76.62,56.61C76.89,56.61 77.01,56.63 77.34,56.58C78.15,56.46 80.45,55.8 81.4,55.53C81.92,55.39 82.11,55.29 82.59,55.17C83.29,54.99 84.24,54.84 85.22,54.61C86.48,54.32 88.05,53.77 89.51,53.53C90.99,53.28 93.02,53.21 94.05,53.15C94.57,53.12 94.77,53.17 95.24,53.11C95.95,53.03 96.76,52.7 97.87,52.57C99.71,52.36 105.27,52.38 105.27,52.38C105.27,52.38 105.27,52.38 105.27,52.38C105.27,52.38 110.28,52.17 110.28,52.17C110.28,52.17 110.28,52.17 110.28,52.17C110.28,52.17 110.77,52.04 111.24,51.95C112.52,51.7 115.93,51.07 118.4,50.76C121.01,50.43 124.07,50 126.51,50.05C128.52,50.09 130.83,50.75 132,50.77C132.54,50.78 132.64,50.65 133.2,50.65C134.46,50.64 137.69,50.89 139.4,51.16C140.62,51.35 141.71,51.85 142.51,51.9C143,51.93 143.18,51.87 143.7,51.78C144.76,51.59 147.28,50.74 148.47,50.53C149.16,50.4 149.44,50.47 150.14,50.36C151.37,50.17 153.28,49.67 155.16,49.33C157.54,48.9 161.43,48.36 163.27,48.09C164.22,47.95 164.75,47.9 165.42,47.78C166.01,47.67 166.44,47.47 167.09,47.42C167.96,47.36 169.53,47.61 170.2,47.64C170.52,47.66 170.6,47.63 170.91,47.66C171.51,47.71 172.64,47.96 173.54,48.04C174.47,48.13 175.28,48.09 176.4,48.16C177.98,48.27 180.86,48.75 182.13,48.69C182.77,48.66 182.89,48.57 183.56,48.43C185.19,48.09 189.71,46.83 191.92,46.46C193.35,46.22 194.4,46.24 195.5,46.1C196.44,45.98 197.18,45.79 198.12,45.68C199.22,45.55 200.48,45.58 201.71,45.4C203.03,45.21 204.3,44.87 205.76,44.52C207.51,44.11 209.86,43.25 211.49,43.05C212.67,42.9 213.37,43.12 214.6,43.07C216.41,42.99 220.06,42.6 221.28,42.45C221.74,42.39 221.87,42.33 222.23,42.3C222.71,42.26 223.2,42.37 223.9,42.31C225.13,42.21 227.9,41.61 228.92,41.47C229.36,41.41 229.43,41.41 229.87,41.37C230.88,41.27 234.28,40.97 234.88,40.88C235.01,40.86 234.99,40.85 235.12,40.83C235.61,40.74 237.7,40.51 238.7,40.31C239.44,40.17 240.02,40.02 240.61,39.84C241.13,39.68 241.52,39.5 242.05,39.32C242.69,39.1 243.66,38.74 244.19,38.6C244.49,38.52 244.56,38.48 244.91,38.46C245.88,38.4 249.17,38.65 250.4,38.81C251.04,38.89 251.44,39.01 251.83,39.1C252.11,39.17 252.25,39.25 252.55,39.3C253.03,39.38 253.9,39.45 254.46,39.43C254.9,39.42 255.24,39.34 255.65,39.27C256.11,39.19 256.58,39.04 257.08,38.99C257.62,38.94 258.76,38.99 258.76,38.99C258.76,38.99 258.76,38.99 258.76,38.99C258.76,38.99 261.41,38.23 262.34,37.98C262.92,37.82 263.29,37.66 263.77,37.61C264.24,37.56 264.85,37.66 265.2,37.65C265.4,37.65 265.55,37.63 265.68,37.62C265.77,37.61 265.8,37.63 265.92,37.6C266.33,37.51 267.74,36.98 268.54,36.71C269.23,36.48 269.81,36.24 270.45,36.06C271.08,35.89 271.87,35.73 272.36,35.66C272.66,35.62 272.82,35.65 273.08,35.61C273.38,35.57 273.61,35.5 274.03,35.4C274.84,35.21 276.79,34.64 277.61,34.48C278.03,34.4 278.22,34.37 278.57,34.34Q279,34.31 280,34.32" style="vector-effect: non-scaling-stroke; fill: none; stroke: rgb(0, 180, 219); stroke-opacity: 1; stroke-width: 5px; opacity: 1;"/></g><g class="points"/><g class="text"/></g><g class="trace scatter traceb0244f" style="stroke-miterlimit: 2; opacity: 1;"><g class="fills"/><g class="errorbars"/><g class="lines"><path class="js-line" d="M89.51,70.07Q92.99,66.76 94.05,66.07C94.54,65.75 94.75,65.68 95.24,65.52C95.93,65.3 96.78,65.25 97.87,65.01C99.72,64.6 105.27,63.14 105.27,63.14C105.27,63.14 105.27,63.14 105.27,63.14C105.27,63.14 110.28,62.36 110.28,62.36C110.28,62.36 110.28,62.36 110.28,62.36C110.28,62.36 110.77,62.51 111.24,62.53C112.52,62.59 115.96,62.41 118.4,62C121.04,61.56 124.08,60.57 126.51,59.88C128.52,59.3 130.83,58.32 132,58.18C132.54,58.12 132.64,58.24 133.2,58.26C134.46,58.31 137.69,58.39 139.4,58.33C140.61,58.29 141.72,58.18 142.51,58.09C143,58.03 143.17,58 143.7,57.91C144.76,57.74 147.29,57.3 148.47,57.06C149.17,56.92 149.43,56.78 150.14,56.68C151.36,56.5 153.29,56.51 155.16,56.35C157.54,56.14 161.43,55.66 163.27,55.47C164.22,55.37 164.75,55.25 165.42,55.27C166.01,55.29 166.45,55.47 167.09,55.53C167.96,55.61 169.53,55.56 170.2,55.61C170.52,55.63 170.6,55.69 170.91,55.7C171.51,55.72 172.64,55.54 173.54,55.54C174.47,55.54 175.28,55.71 176.4,55.71C177.98,55.71 180.86,55.38 182.13,55.38C182.77,55.38 182.89,55.43 183.56,55.46C185.19,55.53 189.72,55.69 191.92,55.74C193.36,55.77 194.4,55.71 195.5,55.79C196.44,55.86 197.18,56.12 198.12,56.15C199.22,56.18 200.48,55.88 201.71,55.87C203.02,55.86 204.3,56.16 205.76,56.11C207.51,56.05 209.87,55.41 211.49,55.39C212.68,55.38 213.37,55.71 214.6,55.71C216.41,55.7 220.07,55.22 221.28,54.97C221.75,54.87 221.87,54.78 222.23,54.68C222.71,54.55 223.19,54.39 223.9,54.3C225.12,54.14 227.91,54.16 228.92,54.11C229.36,54.09 229.43,54.08 229.87,54.05C230.88,53.99 234.28,53.77 234.88,53.75C235.01,53.75 234.99,53.76 235.12,53.75C235.61,53.73 237.7,53.56 238.7,53.41C239.44,53.3 240.02,53.1 240.61,53.01C241.12,52.93 241.52,52.93 242.05,52.86C242.69,52.77 243.67,52.58 244.19,52.48C244.49,52.42 244.55,52.35 244.91,52.32C245.88,52.24 249.16,52.52 250.4,52.58C251.03,52.61 251.43,52.61 251.83,52.64C252.11,52.66 252.25,52.73 252.55,52.72C253.03,52.71 253.9,52.51 254.46,52.42C254.9,52.35 255.23,52.26 255.65,52.21C256.1,52.16 256.59,52.17 257.08,52.12C257.62,52.06 258.76,51.88 258.76,51.88C258.76,51.88 258.76,51.88 258.76,51.88C258.76,51.88 261.41,51.09 262.34,50.94C262.92,50.85 263.29,50.91 263.77,50.86C264.25,50.81 264.85,50.68 265.2,50.64C265.4,50.62 265.55,50.6 265.68,50.6C265.77,50.6 265.8,50.62 265.92,50.62C266.33,50.61 267.73,50.29 268.54,50.25C269.23,50.21 269.81,50.34 270.45,50.32C271.09,50.3 271.88,50.14 272.36,50.1C272.66,50.08 272.82,50.1 273.08,50.07C273.38,50.04 273.61,49.93 274.03,49.9C274.84,49.83 276.8,50.01 277.61,49.94C278.03,49.91 278.22,49.82 278.57,49.77Q279,49.71 280,49.59" style="vector-effect: non-scaling-stroke; fill: none; stroke: rgb(153, 51, 0); stroke-opacity: 1; stroke-width: 5px; opacity: 1;"/></g><g class="points"/><g class="text"/></g><g class="trace scatter tracedb61aa" style="stroke-miterlimit: 2; opacity: 1;"><g class="fills"/><g class="errorbars"/><g class="lines"><path class="js-line" d="M0,49.66Q2.85,44.94 4.54,44.29C5.86,43.78 7.65,44.94 8.83,44.86C9.68,44.8 10.52,44.39 10.98,44.28C11.2,44.23 11.2,44.19 11.46,44.17C12.44,44.09 17.01,44.29 18.62,44.59C19.47,44.75 19.81,45.06 20.53,45.2C21.43,45.37 22.6,45.42 23.63,45.41C24.66,45.4 25.61,44.88 26.73,45.15C28.31,45.54 30.45,47.93 31.99,48.46C33.04,48.82 33.68,48.68 34.85,48.76C36.7,48.89 40.54,48.76 42.01,48.98C42.68,49.08 42.93,49.22 43.44,49.38C44.03,49.57 44.67,49.9 45.35,50.09C46.09,50.29 46.82,50.32 47.74,50.52C49.02,50.8 51.33,51.4 52.28,51.68C52.72,51.81 52.97,51.91 53.23,52.01C53.42,52.08 53.5,52.12 53.71,52.21C54.13,52.39 55.09,52.77 55.62,52.99C55.99,53.15 56.15,53.22 56.57,53.4C57.42,53.77 59.17,54.59 60.39,55.06C61.47,55.47 63.06,55.95 63.5,56.1C63.62,56.14 63.61,56.15 63.73,56.18C64.23,56.32 66.78,56.87 67.55,56.99C67.88,57.04 67.98,57.04 68.27,57.06C68.71,57.09 69.55,57.11 69.94,57.13C70.15,57.14 70.18,57.14 70.42,57.15C71.21,57.2 74.34,57.46 75.43,57.54C75.96,57.58 76.27,57.61 76.62,57.62C76.89,57.63 77,57.61 77.34,57.61C78.14,57.6 80.45,57.6 81.4,57.55C81.92,57.52 82.12,57.52 82.59,57.45C83.3,57.35 84.25,57.2 85.22,56.92C86.49,56.56 88.08,55.94 89.51,55.3C91.02,54.63 93,53.26 94.05,52.97C94.56,52.83 94.77,52.92 95.24,52.9C95.94,52.87 96.77,52.85 97.87,52.84C99.71,52.83 105.27,52.93 105.27,52.93C105.27,52.93 105.27,52.93 105.27,52.93C105.27,52.93 110.28,53.2 110.28,53.2C110.28,53.2 110.28,53.2 110.28,53.2C110.28,53.2 110.77,53.11 111.24,53.07C112.52,52.95 115.94,52.65 118.4,52.72C121.02,52.8 124.07,53.47 126.51,53.59C128.51,53.69 130.83,53.6 132,53.56C132.55,53.54 132.65,53.53 133.2,53.48C134.46,53.36 137.68,52.89 139.4,52.74C140.61,52.63 141.73,52.44 142.51,52.55C143.01,52.62 143.16,52.83 143.7,52.98C144.75,53.28 147.29,53.74 148.47,53.99C149.17,54.14 149.43,54.23 150.14,54.34C151.36,54.52 153.29,54.65 155.16,54.81C157.54,55.02 161.43,55.33 163.27,55.47C164.22,55.54 164.75,55.59 165.42,55.63C166.01,55.66 166.45,55.7 167.09,55.69C167.97,55.68 169.53,55.5 170.2,55.49C170.52,55.48 170.6,55.51 170.91,55.51C171.51,55.51 172.65,55.47 173.54,55.43C174.47,55.39 175.28,55.38 176.4,55.29C177.98,55.16 180.86,54.67 182.13,54.65C182.77,54.64 182.89,54.7 183.56,54.76C185.19,54.92 189.71,55.54 191.92,55.73C193.36,55.85 194.4,55.95 195.5,55.93C196.44,55.92 197.18,55.85 198.12,55.71C199.23,55.54 200.47,55.04 201.71,54.92C203.01,54.8 204.29,55.08 205.76,55.03C207.51,54.97 209.87,54.67 211.49,54.47C212.69,54.32 213.37,54.21 214.6,54.01C216.41,53.72 220.06,52.98 221.28,52.84C221.74,52.79 221.87,52.8 222.23,52.79C222.71,52.78 223.19,52.8 223.9,52.79C225.12,52.77 227.91,52.59 228.92,52.59C229.36,52.59 229.43,52.6 229.87,52.62C230.88,52.67 234.28,52.93 234.88,52.94C235.01,52.94 234.99,52.94 235.12,52.93C235.61,52.9 237.69,52.78 238.7,52.7C239.44,52.64 240.02,52.58 240.61,52.53C241.12,52.48 241.52,52.43 242.05,52.4C242.69,52.36 243.67,52.31 244.19,52.32C244.49,52.32 244.56,52.38 244.91,52.37C245.88,52.35 249.16,51.96 250.4,51.8C251.03,51.72 251.43,51.62 251.83,51.57C252.11,51.53 252.25,51.47 252.55,51.49C253.04,51.52 253.9,51.83 254.46,51.92C254.9,51.99 255.24,52 255.65,52.05C256.11,52.11 256.58,52.18 257.08,52.24C257.62,52.3 258.76,52.4 258.76,52.4C258.76,52.4 258.76,52.4 258.76,52.4C258.76,52.4 261.42,52.31 262.34,52.27C262.92,52.25 263.29,52.23 263.77,52.2C264.25,52.16 264.85,52.08 265.2,52.06C265.4,52.05 265.55,52.06 265.68,52.06C265.77,52.06 265.8,52.05 265.92,52.06C266.33,52.11 267.73,52.55 268.54,52.68C269.22,52.79 269.81,52.8 270.45,52.86C271.09,52.92 271.88,53.01 272.36,53.03C272.66,53.05 272.83,53.01 273.08,53.04C273.38,53.08 273.61,53.19 274.03,53.28C274.84,53.46 276.79,53.87 277.61,53.97C278.03,54.02 278.22,54.03 278.57,54.02Q279,54.01 280,53.89" style="vector-effect: non-scaling-stroke; fill: none; stroke: rgb(1, 27, 58); stroke-opacity: 1; stroke-width: 5px; opacity: 1;"/></g><g class="points"/><g class="text"/></g></g></g><g class="overplot"/><path class="xlines-above crisp" d="M0,0" style="fill: none;"/><path class="ylines-above crisp" d="M0,0" style="fill: none;"/><g class="overlines-above"/><g class="xaxislayer-above"/><g class="yaxislayer-above"/><g class="overaxes-above"/></g></g><g class="polarlayer"/><g class="smithlayer"/><g class="ternarylayer"/><g class="geolayer"/><g class="funnelarealayer"/><g class="pielayer"/><g class="iciclelayer"/><g class="treemaplayer"/><g class="sunburstlayer"/><g class="glimages"/><defs id="topdefs-720d13"><g class="clips"/></defs><g class="layer-above"><g class="imagelayer"/><g class="shapelayer"/></g><g class="infolayer"><g class="g-gtitle"><text class="gtitle" x="15" y="25" text-anchor="start" dy="0em" style="font-family: Ubuntu, verdana, arial, sans-serif; font-size: 16px; fill: rgb(233, 84, 32); opacity: 1; font-weight: normal; white-space: pre;">NRSR 2020-2023</text></g><g class="g-xtitle"/><g class="g-ytitle"/></g></svg>