<svg class="main-svg" xmlns="http://www.w3.org/2000/svg" xmlns:xlink="http://www.w3.org/1999/xlink" width="400" height="400" style="" viewBox="0 0 400 400"><rect x="0" y="0" width="400" height="400" style="fill: rgb(255, 255, 255); fill-opacity: 1;"/><defs id="defs-8ce1c5"><g class="clips"><clipPath id="clip8ce1c5xyplot" class="plotclip"><rect width="204" height="330"/></clipPath><clipPath class="axesclip" id="clip8ce1c5x"><rect x="50" y="0" width="204" height="400"/></clipPath><clipPath class="axesclip" id="clip8ce1c5y"><rect x="0" y="20" width="400" height="330"/></clipPath><clipPath class="axesclip" id="clip8ce1c5xy"><rect x="50" y="20" width="204" height="330"/></clipPath></g><g class="gradients"/><g class="patterns"/></defs><g class="bglayer"/><g class="layer-below"><g class="imagelayer"/><g class="shapelayer"/></g><g class="cartesianlayer"><g class="subplot xy"><g class="layer-subplot"><g class="shapelayer"/><g class="imagelayer"/></g><g class="minor-gridlayer"><g class="x"/><g class="y"/></g><g class="gridlayer"><g class="x"><path class="xgrid crisp" transform="translate(65.57,0)" d="M0,20v330" style="stroke: rgb(235, 240, 248); stroke-opacity: 1; stroke-width: 1px;"/><path class="xgrid crisp" transform="translate(112.28999999999999,0)" d="M0,20v330" style="stroke: rgb(235, 240, 248); stroke-opacity: 1; stroke-width: 1px;"/><path class="xgrid crisp" transform="translate(160.56,0)" d="M0,20v330" style="stroke: rgb(235, 240, 248); stroke-opacity: 1; stroke-width: 1px;"/><path class="xgrid crisp" transform="translate(208.84,0)" d="M0,20v330" style="stroke: rgb(235, 240, 248); stroke-opacity: 1; stroke-width: 1px;"/></g><g class="y"><path class="ygrid crisp" transform="translate(0,280.49)" d="M50,0h204" style="stroke: rgb(235, 240, 248); stroke-opacity: 1; stroke-width: 1px;"/><path class="ygrid crisp" transform="translate(0,210.98)" d="M50,0h204" style="stroke: rgb(235, 240, 248); stroke-opacity: 1; stroke-width: 1px;"/><path class="ygrid crisp" transform="translate(0,141.45999999999998)" d="M50,0h204" style="stroke: rgb(235, 240, 248); stroke-opacity: 1; stroke-width: 1px;"/><path class="ygrid crisp" transform="translate(0,71.95)" d="M50,0h204" style="stroke: rgb(235, 240, 248); stroke-opacity: 1; stroke-width: 1px;"/></g></g><g class="zerolinelayer"><path class="yzl zl crisp" transform="translate(0,350)" d="M50,0h204" style="stroke: rgb(235, 240, 248); stroke-opacity: 1; stroke-width: 2px;"/></g><path class="xlines-below"/><path class="ylines-below"/><g class="overlines-below"/><g class="xaxislayer-below"/><g class="yaxislayer-below"/><g class="overaxes-below"/><g class="plot" transform="translate(50,20)" clip-path="url(#clip8ce1c5xyplot)"><g class="scatterlayer mlayer"><g class="trace scatter tracefc4a76" style="stroke-miterlimit: 2; opacity: 1;"><g class="fills"/><g class="errorbars"/><g class="lines"><path class="js-line" d="M0,81.15L1.56,86.71L3.11,87.4L4.67,85.32L6.23,86.01L7.79,85.32L9.34,86.71L12.46,85.32L14.02,85.32L17.13,86.01L18.69,93.66L21.8,95.05L23.36,98.52L26.47,101.3L28.03,99.91L31.15,101.3L32.7,101.3L37.37,101.3L38.93,99.22L40.49,99.22L42.05,97.13L43.6,108.95L45.16,106.87L46.72,112.43L48.27,112.43L51.39,111.04L52.95,111.04L57.62,110.34L59.18,117.29L60.73,122.16L62.29,122.16L66.96,123.55L68.52,123.55L71.63,124.24L73.19,124.24L79.42,123.55L80.98,122.85L84.09,106.87L85.65,106.87L88.76,104.78L90.32,104.78L93.44,104.78L94.99,101.3L96.55,97.83L98.11,97.83L101.22,96.44L102.78,93.66L109.01,93.66L110.56,90.88L113.68,90.88L115.24,84.62L118.35,84.62L119.91,65.16L126.14,29.01L127.69,29.01L129.25,29.01L130.81,32.49L132.37,32.49L133.92,30.4L137.04,31.79L138.6,35.27L144.82,35.96L146.38,20.67L151.05,31.1L152.61,31.1L155.73,31.1L157.28,35.27L163.51,46.39L165.07,46.39L177.53,46.39L179.08,42.22L180.64,35.96L182.2,35.96L185.31,35.96L186.87,33.88L188.43,21.37L189.98,20.67L191.54,21.37L193.1,23.45L196.21,23.45L197.77,16.5" style="vector-effect: none; fill: none; stroke: rgb(238, 58, 67); stroke-opacity: 1; stroke-width: 5px; opacity: 1;"/></g><g class="points"/><g class="text"/></g><g class="trace scatter traceb3a426" style="stroke-miterlimit: 2; opacity: 1;"><g class="fills"/><g class="errorbars"/><g class="lines"><path class="js-line" d="M0,193.06L1.56,188.2L3.11,178.46L4.67,170.12L6.23,144.4L7.79,143.71L9.34,149.27L10.9,143.71L12.46,143.71L15.57,143.71L17.13,142.32L20.24,108.26L21.8,113.12L24.92,106.17L26.47,105.48L28.03,108.95L29.59,105.48L37.37,105.48L38.93,103.39L40.49,103.39L42.05,105.48L46.72,85.32L48.27,85.32L51.39,84.62L52.95,84.62L56.06,84.62L57.62,82.54L62.29,95.74L63.85,97.83L71.63,103.39L73.19,103.39L76.31,103.39L77.86,104.78L79.42,104.78L80.98,107.56L82.53,106.17L84.09,106.87L93.44,106.87L94.99,104.78L98.11,97.83L99.66,99.22L104.34,102L105.89,102L113.68,102.7L115.24,105.48L118.35,105.48L119.91,113.12L124.58,110.34L126.14,112.43L129.25,112.43L130.81,96.44L132.37,96.44L133.92,99.22L137.04,95.74L138.6,87.4L143.27,86.01L144.82,86.01L146.38,102L151.05,111.04L157.28,110.34L158.84,106.17L160.4,98.52L163.51,92.96L177.53,92.96L179.08,95.05L180.64,99.22L182.2,99.22L186.87,99.91L188.43,105.48L191.54,106.17L193.1,108.26L196.21,108.95L197.77,115.9" style="vector-effect: none; fill: none; stroke: rgb(0, 180, 219); stroke-opacity: 1; stroke-width: 5px; opacity: 1;"/></g><g class="points"/><g class="text"/></g><g class="trace scatter trace3180f2" style="stroke-miterlimit: 2; opacity: 1;"><g class="fills"/><g class="errorbars"/><g class="lines"><path class="js-line" d="M0,56.82L1.56,56.82L3.11,74.89L4.67,85.32L6.23,108.95L7.79,108.26L9.34,96.44L10.9,108.26L12.46,108.26L17.13,108.95L18.69,122.85L20.24,131.2L21.8,124.94L24.92,127.02L26.47,127.02L28.03,124.24L29.59,127.02L37.37,127.02L38.93,128.41L42.05,129.11L43.6,122.85L46.72,127.02L48.27,127.02L51.39,126.33L52.95,126.33L56.06,126.33L57.62,131.89L62.29,102L63.85,99.91L66.96,96.44L68.52,96.44L70.08,92.27L71.63,92.27L74.75,92.27L76.31,88.1L77.86,84.62L79.42,84.62L80.98,81.15L82.53,90.88L84.09,94.35L85.65,94.35L88.76,96.44L90.32,96.44L93.44,96.44L94.99,101.3L98.11,111.73L99.66,111.04L104.34,109.65L105.89,109.65L113.68,110.34L115.24,113.12L118.35,113.12L119.91,123.55L126.14,153.44L127.69,153.44L129.25,153.44L130.81,166.65L132.37,166.65L133.92,165.26L137.04,168.04L138.6,172.21L146.38,171.51L151.05,152.74L155.73,152.74L157.28,149.96L158.84,150.66L160.4,153.44L165.07,156.22L166.63,156.22L177.53,156.22L179.08,157.61L180.64,159.7L182.2,159.7L185.31,159.7L186.87,161.09L188.43,168.04L189.98,168.04L191.54,167.34L193.1,163.17L197.77,163.17" style="vector-effect: none; fill: none; stroke: rgb(138, 44, 81); stroke-opacity: 1; stroke-width: 5px; opacity: 1;"/></g><g class="points"/><g class="text"/></g><g class="trace scatter trace109dfe" style="stroke-miterlimit: 2; opacity: 1;"><g class="fills"/><g class="errorbars"/><g class="lines"><path class="js-line" d="M0,293.85L1.56,293.85L3.11,284.82L4.67,284.12L6.23,285.51L7.79,287.6L9.34,292.46L10.9,287.6L12.46,287.6L17.13,287.6L18.69,290.38L20.24,290.38L21.8,292.46L24.92,291.77L26.47,291.77L37.37,291.77L38.93,293.16L43.6,293.85L45.16,295.94L46.72,300.11L48.27,300.11L49.83,302.89L51.39,302.89L56.06,302.89L57.62,300.11L59.18,299.41L60.73,304.28L71.63,304.28L73.19,305.67L74.75,305.67L76.31,309.84L77.86,312.62L79.42,312.62L80.98,313.32L82.53,315.4L85.65,316.79L87.21,316.79L94.99,317.49L96.55,318.18L101.22,318.18L102.78,319.57L113.68,320.27L115.24,321.66L118.35,321.66L119.91,323.05" style="vector-effect: none; fill: none; stroke: rgb(1, 27, 58); stroke-opacity: 1; stroke-width: 5px; opacity: 1;"/></g><g class="points"/><g class="text"/></g></g></g><g class="overplot"/><path class="xlines-above crisp" d="M0,0" style="fill: none;"/><path class="ylines-above crisp" d="M0,0" style="fill: none;"/><g class="overlines-above"/><g class="xaxislayer-above"><g class="xtick"><text text-anchor="middle" x="0" y="363" transform="translate(65.57,0)" style="font-family: 'Open Sans', verdana, arial, sans-serif; font-size: 12px; fill: rgb(42, 63, 95); fill-opacity: 1; white-space: pre; opacity: 1;">1.6.23</text></g><g class="xtick"><text text-anchor="middle" x="0" y="363" style="font-family: 'Open Sans', verdana, arial, sans-serif; font-size: 12px; fill: rgb(42, 63, 95); fill-opacity: 1; white-space: pre; opacity: 1;" transform="translate(112.28999999999999,0)">1.7.23</text></g><g class="xtick"><text text-anchor="middle" x="0" y="363" style="font-family: 'Open Sans', verdana, arial, sans-serif; font-size: 12px; fill: rgb(42, 63, 95); fill-opacity: 1; white-space: pre; opacity: 1;" transform="translate(160.56,0)">1.8.23</text></g><g class="xtick"><text text-anchor="middle" x="0" y="363" style="font-family: 'Open Sans', verdana, arial, sans-serif; font-size: 12px; fill: rgb(42, 63, 95); fill-opacity: 1; white-space: pre; opacity: 1;" transform="translate(208.84,0)">1.9.23</text></g></g><g class="yaxislayer-above"><g class="ytick"><text text-anchor="end" x="49" y="4.199999999999999" transform="translate(0,350)" style="font-family: 'Open Sans', verdana, arial, sans-serif; font-size: 12px; fill: rgb(42, 63, 95); fill-opacity: 1; white-space: pre; opacity: 1;">0%</text></g><g class="ytick"><text text-anchor="end" x="49" y="4.199999999999999" style="font-family: 'Open Sans', verdana, arial, sans-serif; font-size: 12px; fill: rgb(42, 63, 95); fill-opacity: 1; white-space: pre; opacity: 1;" transform="translate(0,280.49)">10%</text></g><g class="ytick"><text text-anchor="end" x="49" y="4.199999999999999" style="font-family: 'Open Sans', verdana, arial, sans-serif; font-size: 12px; fill: rgb(42, 63, 95); fill-opacity: 1; white-space: pre; opacity: 1;" transform="translate(0,210.98)">20%</text></g><g class="ytick"><text text-anchor="end" x="49" y="4.199999999999999" style="font-family: 'Open Sans', verdana, arial, sans-serif; font-size: 12px; fill: rgb(42, 63, 95); fill-opacity: 1; white-space: pre; opacity: 1;" transform="translate(0,141.45999999999998)">30%</text></g><g class="ytick"><text text-anchor="end" x="49" y="4.199999999999999" style="font-family: 'Open Sans', verdana, arial, sans-serif; font-size: 12px; fill: rgb(42, 63, 95); fill-opacity: 1; white-space: pre; opacity: 1;" transform="translate(0,71.95)">40%</text></g></g><g class="overaxes-above"/></g></g><g class="polarlayer"/><g class="smithlayer"/><g class="ternarylayer"/><g class="geolayer"/><g class="funnelarealayer"/><g class="pielayer"/><g class="iciclelayer"/><g class="treemaplayer"/><g class="sunburstlayer"/><g class="glimages"/><defs id="topdefs-8ce1c5"><g class="clips"/><clipPath id="legend8ce1c5"><rect width="130" height="86" x="0" y="0"/></clipPath></defs><g class="layer-above"><g class="imagelayer"/><g class="shapelayer"/></g><g class="infolayer"><g class="legend" pointer-events="all" transform="translate(258.08000000000004,20)"><rect class="bg" shape-rendering="crispEdges" width="130" height="86" x="0" y="0" style="stroke: rgb(68, 68, 68); stroke-opacity: 1; fill: rgb(255, 255, 255); fill-opacity: 1; stroke-width: 0px;"/><g class="scrollbox" transform="" clip-path="url(#legend8ce1c5)"><g class="groups"><g class="traces" transform="translate(0,14.5)" style="opacity: 1;"><text class="legendtext" text-anchor="start" x="40" y="4.680000000000001" style="font-family: 'Open Sans', verdana, arial, sans-serif; font-size: 12px; fill: rgb(42, 63, 95); fill-opacity: 1; white-space: pre;">Fico Robert</text><g class="layers" style="opacity: 1;"><g class="legendfill"/><g class="legendlines"><path class="js-line" d="M5,0h30" style="fill: none; stroke: rgb(238, 58, 67); stroke-opacity: 1; stroke-width: 5px;"/></g><g class="legendsymbols"><g class="legendpoints"/></g></g><rect class="legendtoggle" x="0" y="-9.5" width="124.03125" height="19" style="fill: rgb(0, 0, 0); fill-opacity: 0;"/></g><g class="traces" transform="translate(0,33.5)" style="opacity: 1;"><text class="legendtext" text-anchor="start" x="40" y="4.680000000000001" style="font-family: 'Open Sans', verdana, arial, sans-serif; font-size: 12px; fill: rgb(42, 63, 95); fill-opacity: 1; white-space: pre;">Šimečka Michal</text><g class="layers" style="opacity: 1;"><g class="legendfill"/><g class="legendlines"><path class="js-line" d="M5,0h30" style="fill: none; stroke: rgb(0, 180, 219); stroke-opacity: 1; stroke-width: 5px;"/></g><g class="legendsymbols"><g class="legendpoints"/></g></g><rect class="legendtoggle" x="0" y="-9.5" width="124.03125" height="19" style="fill: rgb(0, 0, 0); fill-opacity: 0;"/></g><g class="traces" transform="translate(0,52.5)" style="opacity: 1;"><text class="legendtext" text-anchor="start" x="40" y="4.680000000000001" style="font-family: 'Open Sans', verdana, arial, sans-serif; font-size: 12px; fill: rgb(42, 63, 95); fill-opacity: 1; white-space: pre;">Pellegrini Peter</text><g class="layers" style="opacity: 1;"><g class="legendfill"/><g class="legendlines"><path class="js-line" d="M5,0h30" style="fill: none; stroke: rgb(138, 44, 81); stroke-opacity: 1; stroke-width: 5px;"/></g><g class="legendsymbols"><g class="legendpoints"/></g></g><rect class="legendtoggle" x="0" y="-9.5" width="124.03125" height="19" style="fill: rgb(0, 0, 0); fill-opacity: 0;"/></g><g class="traces" transform="translate(0,71.5)" style="opacity: 1;"><text class="legendtext" text-anchor="start" x="40" y="4.680000000000001" style="font-family: 'Open Sans', verdana, arial, sans-serif; font-size: 12px; fill: rgb(42, 63, 95); fill-opacity: 1; white-space: pre;">Kollár Boris</text><g class="layers" style="opacity: 1;"><g class="legendfill"/><g class="legendlines"><path class="js-line" d="M5,0h30" style="fill: none; stroke: rgb(1, 27, 58); stroke-opacity: 1; stroke-width: 5px;"/></g><g class="legendsymbols"><g class="legendpoints"/></g></g><rect class="legendtoggle" x="0" y="-9.5" width="124.03125" height="19" style="fill: rgb(0, 0, 0); fill-opacity: 0;"/></g></g></g><rect class="scrollbar" rx="20" ry="3" width="0" height="0" x="0" y="0" style="fill: rgb(128, 139, 164); fill-opacity: 1;"/></g><g class="g-gtitle"/><g class="g-xtitle"/><g class="g-ytitle"/></g></svg>