<svg class="main-svg" xmlns="http://www.w3.org/2000/svg" xmlns:xlink="http://www.w3.org/1999/xlink" width="300" height="135" style="" viewBox="0 0 300 135"><rect x="0" y="0" width="300" height="135" style="fill: rgb(255, 255, 255); fill-opacity: 1;"/><defs id="defs-d1a991"><g class="clips"><clipPath id="clipd1a991xyplot" class="plotclip"><rect width="280" height="75"/></clipPath><clipPath class="axesclip" id="clipd1a991x"><rect x="10" y="0" width="280" height="135"/></clipPath><clipPath class="axesclip" id="clipd1a991y"><rect x="0" y="50" width="300" height="75"/></clipPath><clipPath class="axesclip" id="clipd1a991xy"><rect x="10" y="50" width="280" height="75"/></clipPath></g><g class="gradients"/><g class="patterns"/></defs><g class="bglayer"/><g class="layer-below"><g class="imagelayer"/><g class="shapelayer"/></g><g class="cartesianlayer"><g class="subplot xy"><g class="layer-subplot"><g class="shapelayer"/><g class="imagelayer"/></g><g class="minor-gridlayer"><g class="x"/><g class="y"/></g><g class="gridlayer"><g class="x"><path class="xgrid crisp" transform="translate(78.22,0)" d="M0,50v75" style="stroke: rgb(235, 240, 248); stroke-opacity: 1; stroke-width: 1px;"/><path class="xgrid crisp" transform="translate(159.33,0)" d="M0,50v75" style="stroke: rgb(235, 240, 248); stroke-opacity: 1; stroke-width: 1px;"/><path class="xgrid crisp" transform="translate(240.44,0)" d="M0,50v75" style="stroke: rgb(235, 240, 248); stroke-opacity: 1; stroke-width: 1px;"/></g><g class="y"><path class="ygrid crisp" transform="translate(0,97.18)" d="M10,0h280" style="stroke: rgb(235, 240, 248); stroke-opacity: 1; stroke-width: 1px;"/><path class="ygrid crisp" transform="translate(0,69.35)" d="M10,0h280" style="stroke: rgb(235, 240, 248); stroke-opacity: 1; stroke-width: 1px;"/></g></g><g class="zerolinelayer"><path class="yzl zl crisp" transform="translate(0,125)" d="M10,0h280" style="stroke: rgb(235, 240, 248); stroke-opacity: 1; stroke-width: 2px;"/></g><path class="xlines-below"/><path class="ylines-below"/><g class="overlines-below"/><g class="xaxislayer-below"/><g class="yaxislayer-below"/><g class="overaxes-below"/><g class="plot" transform="translate(10,50)" clip-path="url(#clipd1a991xyplot)"><g class="scatterlayer mlayer"><g class="trace scatter trace324058" style="stroke-miterlimit: 2; opacity: 1;"><g class="fills"/><g class="errorbars"/><g class="lines"><path class="js-line" d="M0,24.11Q2.61,19.28 4.22,18.53C5.44,17.97 7.12,18.59 8.22,18.75C9.01,18.86 9.79,19.19 10.22,19.21C10.42,19.22 10.43,19.14 10.67,19.15C11.59,19.2 15.85,20.18 17.33,20.82C18.15,21.17 18.48,21.44 19.11,21.96C20,22.7 21.06,23.92 22,25.02C22.99,26.18 23.88,27.16 24.89,28.76C26.42,31.18 28.3,36.04 29.78,38.43C30.73,39.97 31.21,40.88 32.44,42.01C34.07,43.51 37.72,45.39 39.11,46.16C39.71,46.49 39.97,46.56 40.44,46.81C40.99,47.1 41.58,47.5 42.22,47.79C42.91,48.11 43.57,48.34 44.44,48.62C45.62,49 47.78,49.59 48.67,49.77C49.07,49.85 49.31,49.88 49.56,49.88C49.73,49.88 49.8,49.83 50,49.83C50.39,49.82 51.29,49.95 51.78,49.96C52.13,49.97 52.28,49.9 52.67,49.94C53.46,50.01 55.09,50.62 56.22,50.69C57.23,50.75 58.69,50.46 59.11,50.43C59.22,50.42 59.21,50.43 59.33,50.42C59.8,50.38 62.17,50.02 62.89,49.99C63.2,49.98 63.29,49.99 63.56,50.02C63.97,50.06 64.75,50.19 65.11,50.24C65.3,50.27 65.33,50.28 65.56,50.3C66.3,50.36 69.2,50.45 70.22,50.44C70.72,50.44 71.01,50.4 71.33,50.39C71.58,50.38 71.69,50.39 72,50.37C72.75,50.33 74.89,50.16 75.78,50.09C76.26,50.05 76.45,50.06 76.89,50C77.55,49.92 78.42,49.75 79.33,49.57C80.5,49.34 81.99,49.11 83.33,48.73C84.73,48.33 86.6,47.49 87.56,47.19C88.04,47.04 88.23,46.99 88.67,46.91C89.32,46.79 90.11,46.84 91.11,46.6C92.84,46.19 98,44.21 98,44.21C98,44.21 98,44.21 98,44.21C98,44.21 102.67,42.24 102.67,42.24C102.67,42.24 102.67,42.24 102.67,42.24C102.67,42.24 103.12,42.36 103.56,42.39C104.75,42.47 107.96,42.6 110.22,42.21C112.69,41.78 115.56,40.74 117.78,39.72C119.7,38.84 121.79,37.16 122.89,36.67C123.38,36.45 123.49,36.49 124,36.32C125.17,35.94 128.19,34.99 129.78,34.4C130.92,33.97 131.92,33.29 132.67,33.19C133.12,33.13 133.29,33.24 133.78,33.34C134.77,33.54 137.11,34.4 138.22,34.52C138.87,34.59 139.12,34.44 139.78,34.44C140.92,34.43 142.7,34.72 144.44,34.62C146.66,34.5 150.3,33.86 152,33.49C152.89,33.3 153.37,33.02 154,32.92C154.55,32.83 154.96,32.85 155.56,32.84C156.37,32.83 157.82,32.93 158.44,32.91C158.74,32.9 158.82,32.85 159.11,32.85C159.67,32.85 160.73,32.94 161.56,33.05C162.43,33.17 163.18,33.44 164.22,33.57C165.69,33.75 168.38,33.75 169.56,33.85C170.15,33.9 170.26,33.94 170.89,34.01C172.41,34.18 176.62,34.82 178.67,34.79C180.01,34.77 180.97,34.44 182,34.35C182.87,34.27 183.56,34.25 184.44,34.22C185.47,34.18 186.63,34.21 187.78,34.14C189,34.07 190.19,33.96 191.56,33.79C193.19,33.59 195.38,33.13 196.89,32.98C198,32.87 198.64,32.93 199.78,32.85C201.46,32.74 204.86,32.41 206,32.3C206.43,32.26 206.55,32.24 206.89,32.2C207.34,32.15 207.78,32.12 208.44,32.05C209.58,31.93 212.16,31.58 213.11,31.51C213.52,31.48 213.59,31.53 214,31.49C214.95,31.41 218.12,30.88 218.67,30.79C218.79,30.77 218.77,30.77 218.89,30.75C219.34,30.68 221.28,30.42 222.22,30.27C222.91,30.16 223.45,30.05 224,29.94C224.48,29.84 224.84,29.76 225.33,29.65C225.93,29.51 226.84,29.28 227.33,29.17C227.61,29.11 227.67,29.1 228,29.03C228.91,28.85 231.96,28.28 233.11,28.02C233.7,27.89 234.08,27.83 234.44,27.68C234.71,27.57 234.83,27.44 235.11,27.3C235.56,27.07 236.36,26.62 236.89,26.47C237.29,26.36 237.62,26.44 238,26.35C238.43,26.25 238.87,26.05 239.33,25.85C239.83,25.63 240.89,25.1 240.89,25.1C240.89,25.1 240.89,25.1 240.89,25.1C240.89,25.1 243.36,24.92 244.22,24.95C244.77,24.97 245.11,25.05 245.56,25.09C246,25.13 246.57,25.18 246.89,25.18C247.08,25.18 247.21,25.15 247.33,25.14C247.42,25.13 247.44,25.14 247.56,25.12C247.94,25.05 249.24,24.5 250,24.44C250.63,24.39 251.19,24.57 251.78,24.62C252.37,24.67 253.11,24.75 253.56,24.76C253.83,24.77 253.98,24.77 254.22,24.74C254.5,24.71 254.72,24.64 255.11,24.55C255.87,24.37 257.68,23.89 258.44,23.69C258.83,23.58 259,23.49 259.33,23.44C259.73,23.38 260.17,23.44 260.67,23.39C261.32,23.32 262.25,23.12 262.89,22.99C263.39,22.89 263.85,22.78 264.22,22.69C264.48,22.62 264.69,22.55 264.89,22.5C265.05,22.46 265.14,22.44 265.33,22.4C265.69,22.32 266.33,22.18 266.89,22.05C267.57,21.89 268.34,21.7 269.11,21.5C269.96,21.29 271.01,20.96 271.78,20.81C272.36,20.69 272.83,20.68 273.33,20.59C273.8,20.5 274.41,20.34 274.67,20.27C274.77,20.24 274.82,20.23 274.89,20.21C274.96,20.19 275.02,20.19 275.11,20.17C275.23,20.14 275.39,20.07 275.56,20.02C275.76,19.96 276,19.92 276.22,19.87C276.44,19.82 276.63,19.78 276.89,19.73C277.26,19.65 277.77,19.48 278.22,19.45C278.66,19.42 279.23,19.55 279.56,19.56C279.75,19.57 280,19.56 280,19.56Q280,19.56 280,19.56" style="vector-effect: none; fill: none; stroke: rgb(238, 58, 67); stroke-opacity: 1; stroke-width: 5px; opacity: 1;"/></g><g class="points"/><g class="text"/></g><g class="trace scatter trace091dd1" style="stroke-miterlimit: 2; opacity: 1;"><g class="fills"/><g class="errorbars"/><g class="lines"><path class="js-line" d="M0,57.69Q2.79,55.5 4.22,54.67C5.54,53.91 7.1,53.25 8.22,52.84C8.99,52.56 9.79,52.32 10.22,52.27C10.42,52.25 10.44,52.32 10.67,52.29C11.59,52.18 15.83,50.94 17.33,50.43C18.12,50.16 18.43,49.87 19.11,49.71C19.94,49.51 21.04,49.58 22,49.47C22.96,49.36 23.8,49.24 24.89,49.06C26.31,48.82 28.4,48.42 29.78,48.13C30.8,47.92 31.36,47.83 32.44,47.52C34.17,47.03 37.74,45.78 39.11,45.26C39.73,45.02 39.97,44.91 40.44,44.69C40.99,44.43 41.59,44.06 42.22,43.76C42.91,43.43 43.57,43.13 44.44,42.8C45.62,42.35 47.78,41.57 48.67,41.38C49.07,41.29 49.32,41.32 49.56,41.29C49.73,41.27 49.81,41.28 50,41.24C50.4,41.16 51.29,40.85 51.78,40.73C52.13,40.65 52.28,40.66 52.67,40.55C53.47,40.32 55.1,39.66 56.22,39.23C57.24,38.84 58.7,38.26 59.11,38.06C59.23,38 59.21,38 59.33,37.94C59.8,37.71 62.17,36.75 62.89,36.44C63.2,36.3 63.29,36.23 63.56,36.14C63.96,36 64.75,35.82 65.11,35.78C65.3,35.76 65.33,35.76 65.56,35.79C66.3,35.87 69.2,36.66 70.22,36.75C70.71,36.79 71.01,36.73 71.33,36.71C71.58,36.69 71.69,36.64 72,36.64C72.75,36.65 74.89,37.09 75.78,37.15C76.26,37.18 76.45,37.09 76.89,37.14C77.55,37.21 78.41,37.49 79.33,37.68C80.5,37.92 82,38.03 83.33,38.42C84.74,38.84 86.59,39.98 87.56,40.17C88.04,40.26 88.23,40.22 88.67,40.17C89.33,40.09 90.08,39.73 91.11,39.57C92.82,39.31 98,39.13 98,39.13C98,39.13 98,39.13 98,39.13C98,39.13 102.67,39.14 102.67,39.14C102.67,39.14 102.67,39.14 102.67,39.14C102.67,39.14 103.12,39.01 103.56,38.92C104.75,38.68 107.93,38.19 110.22,37.92C112.66,37.63 115.52,37.13 117.78,37.27C119.66,37.39 121.81,38.34 122.89,38.37C123.39,38.38 123.48,38.2 124,38.19C125.17,38.17 128.21,38.52 129.78,38.93C130.93,39.23 131.92,39.98 132.67,40.11C133.12,40.19 133.29,40.1 133.78,40.07C134.77,40 137.12,39.62 138.22,39.6C138.87,39.59 139.12,39.76 139.78,39.72C140.92,39.65 142.69,38.97 144.44,38.79C146.65,38.57 150.29,38.6 152,38.77C152.89,38.86 153.37,39.14 154,39.17C154.55,39.19 154.96,39.03 155.56,38.99C156.37,38.93 157.82,38.87 158.44,38.92C158.74,38.94 158.82,39.01 159.11,39.04C159.67,39.1 160.73,39.15 161.56,39.11C162.43,39.06 163.18,38.71 164.22,38.75C165.7,38.8 168.38,39.9 169.56,39.86C170.16,39.84 170.25,39.58 170.89,39.48C172.4,39.24 176.63,38.92 178.67,39.17C180.03,39.34 180.97,40.02 182,40.14C182.87,40.24 183.58,39.88 184.44,40C185.48,40.14 186.63,41.09 187.78,41.14C188.99,41.19 190.19,40.17 191.56,40.18C193.19,40.19 195.38,41.21 196.89,41.62C198,41.93 198.66,41.99 199.78,42.43C201.49,43.11 204.88,44.96 206,45.67C206.45,45.95 206.54,46.11 206.89,46.34C207.33,46.62 207.76,46.93 208.44,47.2C209.56,47.64 212.18,48.01 213.11,48.36C213.54,48.52 213.58,48.63 214,48.81C214.94,49.21 218.11,50.27 218.67,50.42C218.79,50.45 218.78,50.43 218.89,50.46C219.35,50.6 221.27,51.57 222.22,51.93C222.9,52.19 223.45,52.36 224,52.52C224.47,52.66 224.85,52.69 225.33,52.87C225.94,53.09 226.83,53.65 227.33,53.83C227.61,53.93 227.67,53.93 228,53.99C228.9,54.15 231.96,54.34 233.11,54.55C233.7,54.66 234.07,54.81 234.44,54.9C234.7,54.96 234.83,54.97 235.11,55.04C235.56,55.15 236.36,55.42 236.89,55.51C237.3,55.58 237.61,55.59 238,55.59C238.42,55.59 238.87,55.5 239.33,55.48C239.83,55.46 240.89,55.48 240.89,55.48C240.89,55.48 240.89,55.48 240.89,55.48C240.89,55.48 243.36,55.89 244.22,55.97C244.76,56.02 245.12,55.97 245.56,56.01C246.01,56.05 246.57,56.16 246.89,56.2C247.08,56.22 247.21,56.23 247.33,56.24C247.42,56.24 247.44,56.24 247.56,56.24C247.94,56.25 249.25,56.4 250,56.4C250.64,56.4 251.19,56.26 251.78,56.26C252.37,56.26 253.11,56.36 253.56,56.38C253.83,56.39 253.98,56.38 254.22,56.4C254.5,56.43 254.72,56.51 255.11,56.56C255.86,56.65 257.69,56.63 258.44,56.73C258.83,56.78 259,56.86 259.33,56.92C259.73,57 260.17,57.07 260.67,57.15C261.32,57.25 262.24,57.42 262.89,57.48C263.39,57.53 263.85,57.52 264.22,57.54C264.48,57.56 264.69,57.59 264.89,57.59C265.05,57.59 265.14,57.57 265.33,57.57C265.69,57.58 266.33,57.62 266.89,57.69C267.57,57.77 268.33,57.97 269.11,58.06C269.96,58.16 271.01,58.24 271.78,58.25C272.37,58.26 272.83,58.17 273.33,58.18C273.79,58.19 274.41,58.27 274.67,58.28C274.77,58.28 274.82,58.28 274.89,58.28C274.96,58.28 275.02,58.28 275.11,58.28C275.23,58.28 275.4,58.27 275.56,58.26C275.76,58.25 276,58.24 276.22,58.24C276.44,58.24 276.63,58.24 276.89,58.26C277.26,58.28 277.78,58.37 278.22,58.38C278.67,58.39 279.23,58.34 279.56,58.33C279.75,58.33 280,58.33 280,58.33Q280,58.33 280,58.33" style="vector-effect: none; fill: none; stroke: rgb(180, 200, 0); stroke-opacity: 1; stroke-width: 5px; opacity: 1;"/></g><g class="points"/><g class="text"/></g><g class="trace scatter trace7847a9" style="stroke-miterlimit: 2; opacity: 1;"><g class="fills"/><g class="errorbars"/><g class="lines"><path class="js-line" d="M0,5.39Q2.85,5.71 4.22,5.48C5.59,5.25 7.1,4.28 8.22,4.01C8.99,3.82 9.8,3.65 10.22,3.75C10.44,3.8 10.43,3.91 10.67,4.07C11.58,4.67 15.79,7.43 17.33,8.11C18.08,8.44 18.46,8.39 19.11,8.64C19.97,8.97 21.06,9.47 22,10.03C22.99,10.62 23.77,11.45 24.89,12.12C26.28,12.95 28.44,13.65 29.78,14.52C30.85,15.21 31.37,15.79 32.44,16.73C34.18,18.26 37.69,21.98 39.11,22.98C39.68,23.38 39.96,23.43 40.44,23.66C40.99,23.92 41.62,24.1 42.22,24.47C42.95,24.91 43.56,25.61 44.44,26.22C45.61,27.03 47.77,28.4 48.67,28.82C49.06,29 49.32,29 49.56,29.11C49.74,29.19 49.8,29.26 50,29.36C50.39,29.55 51.29,29.87 51.78,30.11C52.13,30.28 52.27,30.4 52.67,30.6C53.45,30.99 55.11,31.59 56.22,32.15C57.25,32.67 58.69,33.59 59.11,33.8C59.22,33.86 59.21,33.84 59.33,33.9C59.8,34.14 62.17,35.54 62.89,35.93C63.2,36.1 63.28,36.18 63.56,36.28C63.96,36.42 64.75,36.49 65.11,36.57C65.31,36.61 65.33,36.63 65.56,36.68C66.3,36.85 69.21,37.41 70.22,37.74C70.73,37.9 71,38.14 71.33,38.21C71.58,38.26 71.69,38.16 72,38.22C72.75,38.36 74.89,39.3 75.78,39.6C76.26,39.76 76.46,39.76 76.89,39.94C77.56,40.22 78.4,40.86 79.33,41.28C80.48,41.8 82.02,42.08 83.33,42.75C84.77,43.49 86.59,45.07 87.56,45.62C88.04,45.89 88.22,45.97 88.67,46.14C89.32,46.38 90.09,46.54 91.11,46.84C92.83,47.35 98,48.94 98,48.94C98,48.94 98,48.94 98,48.94C98,48.94 102.67,50.1 102.67,50.1C102.67,50.1 102.67,50.1 102.67,50.1C102.67,50.1 103.13,50.09 103.56,50.09C104.75,50.08 107.93,50.14 110.22,50.06C112.66,49.98 115.51,49.53 117.78,49.59C119.65,49.64 121.81,50.16 122.89,50.18C123.39,50.19 123.49,50.08 124,50.1C125.18,50.14 128.19,50.66 129.78,50.96C130.91,51.17 131.93,51.58 132.67,51.62C133.12,51.65 133.29,51.56 133.78,51.5C134.77,51.39 137.12,50.97 138.22,50.95C138.87,50.94 139.12,51.09 139.78,51.1C140.92,51.12 142.7,50.87 144.44,50.84C146.66,50.8 150.29,50.84 152,50.96C152.88,51.02 153.37,51.16 154,51.21C154.55,51.25 154.96,51.18 155.56,51.24C156.38,51.32 157.81,51.65 158.44,51.74C158.74,51.78 158.82,51.8 159.11,51.81C159.67,51.83 160.73,51.78 161.56,51.69C162.43,51.6 163.18,51.34 164.22,51.24C165.69,51.1 168.38,51.2 169.56,51.11C170.15,51.06 170.26,51.01 170.89,50.93C172.41,50.74 176.63,49.89 178.67,50.08C180.03,50.21 180.97,50.85 182,51.09C182.87,51.29 183.56,51.34 184.44,51.49C185.47,51.67 186.63,52.03 187.78,52.09C189,52.15 190.19,51.76 191.56,51.79C193.19,51.83 195.38,52.35 196.89,52.48C198,52.58 198.64,52.53 199.78,52.62C201.46,52.75 204.86,53.19 206,53.31C206.43,53.36 206.55,53.37 206.89,53.4C207.34,53.44 207.78,53.52 208.44,53.55C209.58,53.61 212.16,53.55 213.11,53.59C213.52,53.61 213.59,53.62 214,53.65C214.95,53.73 218.11,54.09 218.67,54.12C218.79,54.13 218.77,54.12 218.89,54.12C219.34,54.12 221.28,54.12 222.22,54.16C222.91,54.19 223.45,54.27 224,54.3C224.48,54.32 224.84,54.3 225.33,54.32C225.93,54.35 226.84,54.44 227.33,54.48C227.61,54.5 227.67,54.53 228,54.54C228.91,54.56 231.96,54.3 233.11,54.33C233.7,54.35 234.07,54.41 234.44,54.46C234.7,54.49 234.84,54.51 235.11,54.57C235.56,54.67 236.37,54.93 236.89,55.07C237.3,55.18 237.61,55.28 238,55.37C238.42,55.47 238.87,55.54 239.33,55.64C239.83,55.75 240.89,55.98 240.89,55.98C240.89,55.98 240.89,55.98 240.89,55.98C240.89,55.98 243.35,56.89 244.22,57.16C244.76,57.33 245.11,57.42 245.56,57.51C246,57.6 246.57,57.67 246.89,57.7C247.08,57.72 247.21,57.72 247.33,57.71C247.42,57.71 247.44,57.69 247.56,57.68C247.94,57.65 249.25,57.65 250,57.58C250.64,57.52 251.19,57.44 251.78,57.34C252.37,57.24 253.11,57.07 253.56,57C253.83,56.96 253.98,56.93 254.22,56.91C254.49,56.89 254.72,56.92 255.11,56.9C255.87,56.86 257.68,56.62 258.44,56.57C258.83,56.55 259,56.55 259.33,56.55C259.73,56.55 260.17,56.56 260.67,56.59C261.32,56.62 262.24,56.74 262.89,56.75C263.39,56.76 263.85,56.7 264.22,56.69C264.48,56.68 264.69,56.69 264.89,56.69C265.05,56.69 265.14,56.69 265.33,56.69C265.69,56.69 266.32,56.71 266.89,56.72C267.56,56.73 268.34,56.75 269.11,56.74C269.96,56.73 271.01,56.66 271.78,56.64C272.37,56.63 272.83,56.61 273.33,56.62C273.79,56.63 274.41,56.65 274.67,56.67C274.77,56.68 274.82,56.69 274.89,56.69C274.96,56.69 275.02,56.69 275.11,56.69C275.23,56.69 275.4,56.68 275.56,56.67C275.76,56.65 276,56.61 276.22,56.58C276.44,56.55 276.63,56.51 276.89,56.48C277.26,56.44 277.78,56.45 278.22,56.42C278.67,56.39 279.23,56.32 279.56,56.29C279.75,56.27 280,56.26 280,56.26Q280,56.26 280,56.26" style="vector-effect: none; fill: none; stroke: rgb(97, 162, 41); stroke-opacity: 1; stroke-width: 5px; opacity: 1;"/></g><g class="points"/><g class="text"/></g><g class="trace scatter trace2d6ce9" style="stroke-miterlimit: 2; opacity: 1;"><g class="fills"/><g class="errorbars"/><g class="lines"><path class="js-line" d="M0,66.21Q2.63,68.12 4.22,68.75C5.99,69.45 9.36,69.95 10.22,70.04C10.45,70.06 10.43,70.04 10.67,70.04C11.59,70.03 15.82,69.94 17.33,69.83C18.11,69.77 18.45,69.73 19.11,69.62C19.96,69.47 21.03,69.08 22,68.96C22.96,68.84 23.8,68.93 24.89,68.89C26.31,68.84 28.4,68.85 29.78,68.66C30.81,68.52 31.34,68.15 32.44,68.05C34.15,67.89 37.74,68.23 39.11,68.35C39.72,68.41 39.97,68.44 40.44,68.53C40.99,68.63 41.59,68.83 42.22,68.93C42.92,69.04 43.58,69.05 44.44,69.15C45.63,69.29 47.66,69.61 48.67,69.72C49.24,69.78 49.52,69.83 50,69.84C50.55,69.86 51.29,69.82 51.78,69.78C52.13,69.75 52.27,69.7 52.67,69.67C53.46,69.62 55.1,69.62 56.22,69.64C57.23,69.66 58.69,69.76 59.11,69.79C59.23,69.8 59.21,69.8 59.33,69.81C59.85,69.86 62.5,70.11 63.56,70.16C64.2,70.19 64.75,70.18 65.11,70.19C65.3,70.19 65.33,70.21 65.56,70.2C66.3,70.18 69.2,69.94 70.22,69.83C70.72,69.78 71.01,69.71 71.33,69.68C71.58,69.66 71.69,69.69 72,69.66C72.75,69.59 74.9,69.2 75.78,69.04C76.26,68.95 76.45,68.91 76.89,68.82C77.55,68.69 78.42,68.48 79.33,68.3C80.5,68.06 81.98,67.77 83.33,67.54C84.72,67.3 86.6,67.03 87.56,66.91C88.05,66.85 88.23,66.82 88.67,66.79C89.32,66.74 90.09,66.71 91.11,66.71C92.82,66.71 98,66.91 98,66.91C98,66.91 98,66.91 98,66.91C98,66.91 102.67,66.34 102.67,66.34C102.67,66.34 102.67,66.34 102.67,66.34C102.67,66.34 103.13,66.34 103.56,66.32C104.75,66.27 107.93,66.04 110.22,65.9C112.66,65.75 115.51,65.56 117.78,65.46C119.65,65.38 121.81,65.33 122.89,65.32C123.39,65.32 123.49,65.32 124,65.33C125.17,65.34 128.18,65.37 129.78,65.41C130.91,65.44 131.93,65.51 132.67,65.52C133.13,65.52 133.29,65.52 133.78,65.5C134.77,65.47 137.12,65.31 138.22,65.27C138.87,65.24 139.12,65.24 139.78,65.23C140.92,65.21 142.7,65.17 144.44,65.16C146.66,65.14 150.29,65.16 152,65.17C152.88,65.17 153.38,65.16 154,65.19C154.55,65.21 154.96,65.28 155.56,65.31C156.37,65.34 157.82,65.31 158.44,65.33C158.74,65.34 158.82,65.37 159.11,65.36C159.67,65.34 160.73,65.19 161.56,65.11C162.43,65.03 163.18,64.96 164.22,64.9C165.69,64.81 168.38,64.75 169.56,64.69C170.15,64.66 170.26,64.63 170.89,64.6C172.41,64.52 176.62,64.32 178.67,64.27C180.01,64.24 180.98,64.28 182,64.26C182.88,64.24 183.56,64.17 184.44,64.17C185.47,64.17 186.63,64.21 187.78,64.27C189,64.33 190.2,64.38 191.56,64.53C193.19,64.71 195.38,65.34 196.89,65.37C198,65.39 198.63,65.09 199.78,65.02C201.46,64.91 204.86,64.94 206,64.99C206.43,65.01 206.55,65.07 206.89,65.08C207.34,65.1 207.78,65.03 208.44,65.03C209.58,65.02 212.16,65.07 213.11,65.13C213.52,65.16 213.59,65.19 214,65.22C214.95,65.28 218.11,65.3 218.67,65.32C218.79,65.32 218.77,65.32 218.89,65.33C219.34,65.38 221.28,65.75 222.22,65.85C222.9,65.92 223.45,65.9 224,65.94C224.48,65.98 224.84,66.01 225.33,66.08C225.93,66.17 226.49,66.43 227.33,66.47C228.75,66.54 231.86,66.02 233.11,65.96C233.71,65.93 234.07,65.96 234.44,65.95C234.7,65.94 234.83,65.94 235.11,65.91C235.56,65.86 236.37,65.69 236.89,65.62C237.3,65.56 237.61,65.53 238,65.49C238.42,65.44 238.87,65.39 239.33,65.36C239.83,65.32 240.89,65.29 240.89,65.29C240.89,65.29 240.89,65.29 240.89,65.29C240.89,65.29 243.36,65.47 244.22,65.49C244.77,65.5 245.11,65.46 245.56,65.47C246,65.48 246.57,65.53 246.89,65.54C247.08,65.54 247.21,65.54 247.33,65.54C247.42,65.54 247.44,65.55 247.56,65.55C247.94,65.53 249.25,65.38 250,65.25C250.64,65.14 251.18,64.97 251.78,64.85C252.37,64.74 253.11,64.63 253.56,64.56C253.83,64.52 253.98,64.5 254.22,64.47C254.49,64.43 254.72,64.4 255.11,64.34C255.87,64.23 257.68,63.96 258.44,63.86C258.83,63.81 259,63.81 259.33,63.76C259.73,63.7 260.17,63.62 260.67,63.52C261.32,63.39 262.24,63.16 262.89,63.04C263.39,62.95 263.85,62.89 264.22,62.83C264.48,62.79 264.69,62.76 264.89,62.73C265.05,62.7 265.14,62.68 265.33,62.65C265.69,62.59 266.32,62.49 266.89,62.39C267.57,62.27 268.33,62.08 269.11,61.96C269.96,61.83 271.01,61.74 271.78,61.65C272.37,61.58 272.83,61.51 273.33,61.46C273.79,61.41 274.41,61.36 274.67,61.34C274.77,61.33 274.82,61.33 274.89,61.32C274.96,61.31 275.02,61.3 275.11,61.29C275.23,61.27 275.4,61.26 275.56,61.23C275.76,61.2 276,61.14 276.22,61.1C276.44,61.06 276.63,61.05 276.89,61.01C277.26,60.96 277.78,60.87 278.22,60.82C278.67,60.77 279.23,60.74 279.56,60.72C279.75,60.71 280,60.71 280,60.71Q280,60.71 280,60.71" style="vector-effect: none; fill: none; stroke: rgb(255, 1, 1); stroke-opacity: 1; stroke-width: 5px; opacity: 1;"/></g><g class="points"/><g class="text"/></g><g class="trace scatter tracebce48a" style="stroke-miterlimit: 2; opacity: 1;"><g class="fills"/><g class="errorbars"/><g class="lines"><path class="js-line" d="M0,52.82Q2.83,53.41 4.22,53.47C5.57,53.53 7.12,53.29 8.22,53.19C9,53.12 9.8,53.07 10.22,52.96C10.43,52.91 10.43,52.85 10.67,52.78C11.58,52.51 15.81,51.53 17.33,51.42C18.11,51.37 18.45,51.56 19.11,51.53C19.96,51.49 21.03,51.21 22,51.11C22.96,51.01 23.8,50.87 24.89,50.91C26.31,50.96 28.39,51.49 29.78,51.6C30.8,51.68 31.35,51.68 32.44,51.66C34.16,51.63 37.74,51.32 39.11,51.3C39.72,51.29 39.96,51.32 40.44,51.33C40.99,51.34 41.59,51.36 42.22,51.37C42.92,51.38 43.58,51.38 44.44,51.41C45.63,51.46 47.78,51.6 48.67,51.66C49.08,51.69 49.32,51.7 49.56,51.72C49.73,51.74 49.81,51.74 50,51.78C50.4,51.87 51.29,52.21 51.78,52.37C52.13,52.48 52.27,52.57 52.67,52.66C53.45,52.83 55.1,52.99 56.22,53.05C57.23,53.1 58.69,52.98 59.11,53.02C59.23,53.03 59.21,53.04 59.33,53.06C59.8,53.16 62.17,53.77 62.89,53.86C63.2,53.9 63.29,53.86 63.56,53.88C63.97,53.91 64.75,54.04 65.11,54.04C65.31,54.04 65.33,54.01 65.56,53.99C66.3,53.92 69.2,53.65 70.22,53.68C70.72,53.7 71.01,53.75 71.33,53.83C71.59,53.9 71.7,53.94 72,54.09C72.76,54.47 74.9,55.89 75.78,56.48C76.27,56.81 76.43,57.02 76.89,57.28C77.53,57.63 78.44,57.82 79.33,58.28C80.52,58.89 81.96,59.98 83.33,60.76C84.71,61.55 86.59,62.62 87.56,62.99C88.04,63.17 88.23,63.15 88.67,63.27C89.33,63.45 90.08,63.76 91.11,63.96C92.81,64.29 98,64.73 98,64.73C98,64.73 98,64.73 98,64.73C98,64.73 102.67,64.84 102.67,64.84C102.67,64.84 102.67,64.84 102.67,64.84C102.67,64.84 103.12,64.91 103.56,64.94C104.75,65.01 107.93,65 110.22,65C112.66,64.99 115.51,64.85 117.78,64.9C119.65,64.94 121.81,65 122.89,65.18C123.4,65.26 123.48,65.39 124,65.49C125.17,65.72 128.18,66.17 129.78,66.21C130.91,66.24 131.94,66.11 132.67,66C133.13,65.93 133.28,65.84 133.78,65.75C134.76,65.57 137.12,65.25 138.22,65.08C138.87,64.98 139.12,64.85 139.78,64.83C140.92,64.79 142.7,65.1 144.44,65.23C146.66,65.39 150.29,65.67 152,65.69C152.88,65.7 153.38,65.58 154,65.61C154.55,65.63 154.96,65.69 155.56,65.8C156.38,65.95 157.81,66.39 158.44,66.51C158.74,66.57 158.82,66.58 159.11,66.6C159.67,66.63 160.73,66.5 161.56,66.54C162.43,66.58 163.18,66.85 164.22,66.86C165.69,66.87 168.38,66.25 169.56,66.3C170.15,66.32 170.27,66.41 170.89,66.55C172.41,66.89 176.61,68.33 178.67,68.52C180,68.64 180.98,68.32 182,68.3C182.88,68.28 183.56,68.4 184.44,68.37C185.47,68.33 186.63,68.01 187.78,68.02C189,68.03 190.19,68.46 191.56,68.49C193.18,68.53 195.38,68.13 196.89,68.1C198,68.07 198.63,68.19 199.78,68.18C201.46,68.16 204.86,67.95 206,67.89C206.43,67.87 206.55,67.85 206.89,67.83C207.34,67.8 207.78,67.77 208.44,67.75C209.58,67.72 212.16,67.74 213.11,67.74C213.52,67.74 213.59,67.74 214,67.74C214.95,67.74 218.12,67.68 218.67,67.72C218.79,67.73 218.77,67.74 218.89,67.75C219.34,67.79 221.28,67.78 222.22,67.82C222.91,67.85 223.45,67.88 224,67.92C224.48,67.96 224.84,68.03 225.33,68.06C225.93,68.1 226.84,68.07 227.33,68.09C227.61,68.1 227.67,68.12 228,68.14C228.91,68.19 231.96,68.28 233.11,68.28C233.7,68.28 234.07,68.23 234.44,68.24C234.7,68.24 234.83,68.27 235.11,68.28C235.56,68.3 236.37,68.34 236.89,68.36C237.3,68.37 237.61,68.37 238,68.39C238.42,68.41 238.87,68.48 239.33,68.5C239.83,68.52 240.89,68.51 240.89,68.51C240.89,68.51 240.89,68.51 240.89,68.51C240.89,68.51 243.36,68.64 244.22,68.68C244.77,68.71 245.11,68.74 245.56,68.74C246,68.74 246.57,68.7 246.89,68.68C247.08,68.67 247.21,68.65 247.33,68.65C247.42,68.65 247.44,68.64 247.56,68.65C247.94,68.67 249.25,68.87 250,68.96C250.64,69.04 251.19,69.11 251.78,69.16C252.37,69.21 253.11,69.21 253.56,69.24C253.83,69.26 253.98,69.27 254.22,69.29C254.49,69.31 254.72,69.33 255.11,69.38C255.87,69.49 257.44,69.9 258.44,69.98C259.25,70.04 259.93,69.96 260.67,69.92C261.41,69.88 262.24,69.76 262.89,69.72C263.39,69.69 263.85,69.67 264.22,69.67C264.48,69.67 264.69,69.69 264.89,69.71C265.05,69.73 265.11,69.77 265.33,69.79C265.97,69.85 267.96,69.8 269.11,69.77C270.08,69.75 271.01,69.65 271.78,69.65C272.37,69.65 272.83,69.69 273.33,69.7C273.79,69.71 274.41,69.72 274.67,69.73C274.77,69.73 274.82,69.74 274.89,69.74C274.96,69.75 275.01,69.75 275.11,69.76C275.34,69.78 275.9,69.82 276.22,69.82C276.47,69.82 276.63,69.78 276.89,69.77C277.26,69.75 277.78,69.72 278.22,69.72C278.67,69.72 279.23,69.78 279.56,69.77C279.75,69.76 280,69.72 280,69.72Q280,69.72 280,69.72" style="vector-effect: none; fill: none; stroke: rgb(0, 82, 30); stroke-opacity: 1; stroke-width: 5px; opacity: 1;"/></g><g class="points"/><g class="text"/></g></g></g><g class="overplot"/><path class="xlines-above crisp" d="M0,0" style="fill: none;"/><path class="ylines-above crisp" d="M0,0" style="fill: none;"/><g class="overlines-above"/><g class="xaxislayer-above"/><g class="yaxislayer-above"/><g class="overaxes-above"/></g></g><g class="polarlayer"/><g class="smithlayer"/><g class="ternarylayer"/><g class="geolayer"/><g class="funnelarealayer"/><g class="pielayer"/><g class="iciclelayer"/><g class="treemaplayer"/><g class="sunburstlayer"/><g class="glimages"/><defs id="topdefs-d1a991"><g class="clips"/></defs><g class="layer-above"><g class="imagelayer"/><g class="shapelayer"/></g><g class="infolayer"><g class="g-gtitle"><text class="gtitle" x="15" y="25" text-anchor="start" dy="0em" style="font-family: Ubuntu, verdana, arial, sans-serif; font-size: 16px; fill: rgb(233, 84, 32); opacity: 1; font-weight: normal; white-space: pre;">NRSR 2020-2023</text></g><g class="g-xtitle"/><g class="g-ytitle"/></g></svg>