<svg class="main-svg" xmlns="http://www.w3.org/2000/svg" xmlns:xlink="http://www.w3.org/1999/xlink" width="300" height="135" style="" viewBox="0 0 300 135"><rect x="0" y="0" width="300" height="135" style="fill: rgb(255, 255, 255); fill-opacity: 1;"/><defs id="defs-33910b"><g class="clips"><clipPath id="clip33910bxyplot" class="plotclip"><rect width="280" height="75"/></clipPath><clipPath class="axesclip" id="clip33910bx"><rect x="10" y="0" width="280" height="135"/></clipPath><clipPath class="axesclip" id="clip33910by"><rect x="0" y="50" width="300" height="75"/></clipPath><clipPath class="axesclip" id="clip33910bxy"><rect x="10" y="50" width="280" height="75"/></clipPath></g><g class="gradients"/><g class="patterns"/></defs><g class="bglayer"/><g class="layer-below"><g class="imagelayer"/><g class="shapelayer"/></g><g class="cartesianlayer"><g class="subplot xy"><g class="layer-subplot"><g class="shapelayer"/><g class="imagelayer"/></g><g class="minor-gridlayer"><g class="x"/><g class="y"/></g><g class="gridlayer"><g class="x"><path class="xgrid crisp" transform="translate(41.46,0)" d="M0,50v75" style="stroke: rgb(235, 240, 248); stroke-opacity: 1; stroke-width: 1px;"/><path class="xgrid crisp" transform="translate(135.84,0)" d="M0,50v75" style="stroke: rgb(235, 240, 248); stroke-opacity: 1; stroke-width: 1px;"/><path class="xgrid crisp" transform="translate(233.37,0)" d="M0,50v75" style="stroke: rgb(235, 240, 248); stroke-opacity: 1; stroke-width: 1px;"/></g><g class="y"><path class="ygrid crisp" transform="translate(0,108.24000000000001)" d="M10,0h280" style="stroke: rgb(235, 240, 248); stroke-opacity: 1; stroke-width: 1px;"/><path class="ygrid crisp" transform="translate(0,91.47)" d="M10,0h280" style="stroke: rgb(235, 240, 248); stroke-opacity: 1; stroke-width: 1px;"/><path class="ygrid crisp" transform="translate(0,74.71000000000001)" d="M10,0h280" style="stroke: rgb(235, 240, 248); stroke-opacity: 1; stroke-width: 1px;"/><path class="ygrid crisp" transform="translate(0,57.94)" d="M10,0h280" style="stroke: rgb(235, 240, 248); stroke-opacity: 1; stroke-width: 1px;"/></g></g><g class="zerolinelayer"><path class="yzl zl crisp" transform="translate(0,125)" d="M10,0h280" style="stroke: rgb(235, 240, 248); stroke-opacity: 1; stroke-width: 2px;"/></g><path class="xlines-below"/><path class="ylines-below"/><g class="overlines-below"/><g class="xaxislayer-below"/><g class="yaxislayer-below"/><g class="overaxes-below"/><g class="plot" transform="translate(10,50)" clip-path="url(#clip33910bxyplot)"><g class="scatterlayer mlayer"><g class="trace scatter tracef0d7bf" style="stroke-miterlimit: 2; opacity: 1;"><g class="fills"/><g class="errorbars"/><g class="lines"><path class="js-line" d="M0,11.78L3.15,13.12L6.29,12.34L12.58,12.06L15.73,12.06L18.88,12.91L22.02,12.06L34.61,12.29L37.75,14.51L62.92,16.43L66.07,16.43L84.94,15.68L88.09,18.64L91.24,18.48L94.38,20.14L116.4,19.54L119.55,21.35L125.84,23.05L128.99,23.16L163.6,23.77L166.74,21.38L173.03,20.17L176.18,19.67L220.22,19.01L223.37,18L229.66,18L232.81,15.82L239.1,15.82L242.25,10.96L254.83,3.75L257.98,3.75L280,3.75" style="vector-effect: none; fill: none; stroke: rgb(238, 58, 67); stroke-opacity: 1; stroke-width: 5px; opacity: 1;"/></g><g class="points"/><g class="text"/></g><g class="trace scatter tracec84fa3" style="stroke-miterlimit: 2; opacity: 1;"><g class="fills"/><g class="errorbars"/><g class="lines"><path class="js-line" d="M0,40.19L3.15,38.85L6.29,35.84L9.44,33.81L12.58,27.21L15.73,27.21L18.88,28.93L22.02,27.21L25.17,27.21L34.61,26.77L37.75,20.89L40.9,18.39L44.04,19.63L50.34,17.97L53.48,17.7L56.63,18.49L59.78,17.7L84.94,17.9L88.09,16.39L91.24,15.59L94.38,13.36L119.55,13.83L122.7,15.97L147.87,18.24L151.01,18.24L169.89,20.17L173.03,20.17L204.49,20.51L207.64,20.85L239.1,20.85L242.25,22.69L261.12,23.53L264.27,19.01L276.85,19.01L280,16.83" style="vector-effect: none; fill: none; stroke: rgb(0, 180, 219); stroke-opacity: 1; stroke-width: 5px; opacity: 1;"/></g><g class="points"/><g class="text"/></g><g class="trace scatter trace0db2b9" style="stroke-miterlimit: 2; opacity: 1;"><g class="fills"/><g class="errorbars"/><g class="lines"><path class="js-line" d="M0,5.38L3.15,5.38L6.29,9.18L9.44,11.77L12.58,18.09L15.73,18.09L18.88,15.51L22.02,18.09L25.17,18.09L34.61,18.3L37.75,21.95L40.9,24.16L44.04,22.71L53.48,23.22L56.63,22.57L62.92,23.22L66.07,23.22L84.94,23.77L88.09,22.33L94.38,23.85L97.53,23.85L113.26,23.85L116.4,25.14L122.7,18.62L125.84,17.9L144.72,15.6L147.87,15.6L154.16,14.95L157.3,14.2L163.6,13.59L166.74,16.08L173.03,17.02L176.18,17.52L188.76,17.52L191.91,18.84L198.2,22.69L201.35,22.69L239.1,22.69L242.25,25.21L254.83,33.26L257.98,33.26L261.12,33.26L264.27,35.77L280,36.78" style="vector-effect: none; fill: none; stroke: rgb(138, 44, 81); stroke-opacity: 1; stroke-width: 5px; opacity: 1;"/></g><g class="points"/><g class="text"/></g></g></g><g class="overplot"/><path class="xlines-above crisp" d="M0,0" style="fill: none;"/><path class="ylines-above crisp" d="M0,0" style="fill: none;"/><g class="overlines-above"/><g class="xaxislayer-above"/><g class="yaxislayer-above"/><g class="overaxes-above"/></g></g><g class="polarlayer"/><g class="smithlayer"/><g class="ternarylayer"/><g class="geolayer"/><g class="funnelarealayer"/><g class="pielayer"/><g class="iciclelayer"/><g class="treemaplayer"/><g class="sunburstlayer"/><g class="glimages"/><defs id="topdefs-33910b"><g class="clips"/></defs><g class="layer-above"><g class="imagelayer"/><g class="shapelayer"/></g><g class="infolayer"><g class="g-gtitle"><text class="gtitle" x="15" y="25" text-anchor="start" dy="0em" style="font-family: Ubuntu, verdana, arial, sans-serif; font-size: 16px; fill: rgb(233, 84, 32); opacity: 1; font-weight: normal; white-space: pre;">Premiér/ka 2023</text></g><g class="g-xtitle"/><g class="g-ytitle"/></g></svg>