<svg class="main-svg" xmlns="http://www.w3.org/2000/svg" xmlns:xlink="http://www.w3.org/1999/xlink" width="300" height="135" style="" viewBox="0 0 300 135"><rect x="0" y="0" width="300" height="135" style="fill: rgb(255, 255, 255); fill-opacity: 1;"/><defs id="defs-780403"><g class="clips"><clipPath id="clip780403xyplot" class="plotclip"><rect width="280" height="75"/></clipPath><clipPath class="axesclip" id="clip780403x"><rect x="10" y="0" width="280" height="135"/></clipPath><clipPath class="axesclip" id="clip780403y"><rect x="0" y="50" width="300" height="75"/></clipPath><clipPath class="axesclip" id="clip780403xy"><rect x="10" y="50" width="280" height="75"/></clipPath></g><g class="gradients"/><g class="patterns"/></defs><g class="bglayer"/><g class="layer-below"><g class="imagelayer"/><g class="shapelayer"/></g><g class="cartesianlayer"><g class="subplot xy"><g class="layer-subplot"><g class="shapelayer"/><g class="imagelayer"/></g><g class="minor-gridlayer"><g class="x"/><g class="y"/></g><g class="gridlayer"><g class="x"><path class="xgrid crisp" transform="translate(37.18,0)" d="M0,50v75" style="stroke: rgb(235, 240, 248); stroke-opacity: 1; stroke-width: 1px;"/><path class="xgrid crisp" transform="translate(118.74,0)" d="M0,50v75" style="stroke: rgb(235, 240, 248); stroke-opacity: 1; stroke-width: 1px;"/><path class="xgrid crisp" transform="translate(203.01,0)" d="M0,50v75" style="stroke: rgb(235, 240, 248); stroke-opacity: 1; stroke-width: 1px;"/><path class="xgrid crisp" transform="translate(287.28,0)" d="M0,50v75" style="stroke: rgb(235, 240, 248); stroke-opacity: 1; stroke-width: 1px;"/></g><g class="y"><path class="ygrid crisp" transform="translate(0,108.99000000000001)" d="M10,0h280" style="stroke: rgb(235, 240, 248); stroke-opacity: 1; stroke-width: 1px;"/><path class="ygrid crisp" transform="translate(0,92.97999999999999)" d="M10,0h280" style="stroke: rgb(235, 240, 248); stroke-opacity: 1; stroke-width: 1px;"/><path class="ygrid crisp" transform="translate(0,76.97)" d="M10,0h280" style="stroke: rgb(235, 240, 248); stroke-opacity: 1; stroke-width: 1px;"/><path class="ygrid crisp" transform="translate(0,60.96)" d="M10,0h280" style="stroke: rgb(235, 240, 248); stroke-opacity: 1; stroke-width: 1px;"/></g></g><g class="zerolinelayer"><path class="yzl zl crisp" transform="translate(0,125)" d="M10,0h280" style="stroke: rgb(235, 240, 248); stroke-opacity: 1; stroke-width: 2px;"/></g><path class="xlines-below"/><path class="ylines-below"/><g class="overlines-below"/><g class="xaxislayer-below"/><g class="yaxislayer-below"/><g class="overaxes-below"/><g class="plot" transform="translate(10,50)" clip-path="url(#clip780403xyplot)"><g class="scatterlayer mlayer"><g class="trace scatter traceea72d6" style="stroke-miterlimit: 2; opacity: 1;"><g class="fills"/><g class="errorbars"/><g class="lines"><path class="js-line" d="M0,17.68L5.44,19.12L8.16,18.64L29.9,18.8L32.62,20.56L65.24,22.32L67.96,21.84L73.4,21.36L76.12,24.08L78.83,23.6L81.55,24.88L100.58,24.4L103.3,26.01L108.74,27.13L111.46,27.29L133.2,27.45L135.92,27.45L141.36,27.29L144.08,24.88L149.51,23.6L152.23,23.12L165.83,22.32L168.54,21.52L190.29,20.56L193.01,19.92L198.45,19.92L201.17,18.48L206.6,18.48L209.32,14L220.19,5.67L222.91,5.67L239.22,6.31L241.94,7.11L252.82,7.27L255.53,3.75L266.41,6.15L269.13,6.15L274.56,7.11L277.28,7.75L280,8.39" style="vector-effect: none; fill: none; stroke: rgb(238, 58, 67); stroke-opacity: 1; stroke-width: 5px; opacity: 1;"/></g><g class="points"/><g class="text"/></g><g class="trace scatter tracece1a8e" style="stroke-miterlimit: 2; opacity: 1;"><g class="fills"/><g class="errorbars"/><g class="lines"><path class="js-line" d="M0,43.46L5.44,40.1L8.16,38.17L10.87,32.25L13.59,32.09L16.31,33.37L19.03,32.09L29.9,31.77L32.62,26.33L35.34,23.92L38.06,25.04L43.5,23.44L46.21,23.28L48.93,24.08L51.65,23.28L73.4,23.28L76.12,21.84L78.83,21.04L81.55,18.64L103.3,19.12L106.02,20.72L130.49,22.8L133.2,22.8L149.51,23.6L152.23,23.6L165.83,23.12L168.54,22L173.98,21.84L176.7,22.16L187.57,22.48L190.29,22.48L206.6,23.28L209.32,25.04L220.19,24.88L222.91,24.88L225.63,24.88L228.35,21.2L239.22,21.04L241.94,19.12L252.82,18.8L255.53,22.48L266.41,24.56L269.13,24.56L277.28,23.44L280,22.48" style="vector-effect: none; fill: none; stroke: rgb(0, 180, 219); stroke-opacity: 1; stroke-width: 5px; opacity: 1;"/></g><g class="points"/><g class="text"/></g><g class="trace scatter trace56bc6b" style="stroke-miterlimit: 2; opacity: 1;"><g class="fills"/><g class="errorbars"/><g class="lines"><path class="js-line" d="M0,12.08L2.72,12.08L5.44,16.24L8.16,18.64L10.87,24.08L13.59,23.92L16.31,21.2L19.03,23.92L21.75,23.92L29.9,24.08L32.62,27.29L35.34,29.21L38.06,27.77L46.21,28.25L48.93,27.61L57.09,28.25L59.81,28.25L73.4,28.73L76.12,27.29L81.55,28.25L84.27,28.25L97.86,28.09L100.58,29.37L106.02,23.12L108.74,22.48L127.77,20.24L130.49,20.24L141.36,17.68L144.08,19.92L152.23,21.2L154.95,21.2L165.83,22.32L168.54,24.08L173.98,24.56L176.7,24.4L195.73,24.4L198.45,24.4L206.6,25.04L209.32,27.45L220.19,34.33L222.91,34.33L225.63,34.33L228.35,37.37L239.22,37.69L241.94,38.65L255.53,38.49L263.69,34.17L280,34.01" style="vector-effect: none; fill: none; stroke: rgb(138, 44, 81); stroke-opacity: 1; stroke-width: 5px; opacity: 1;"/></g><g class="points"/><g class="text"/></g><g class="trace scatter trace59f102" style="stroke-miterlimit: 2; opacity: 1;"><g class="fills"/><g class="errorbars"/><g class="lines"><path class="js-line" d="M0,66.67L2.72,66.67L5.44,64.59L13.59,65.23L16.31,66.35L21.75,65.23L24.47,65.23L65.24,66.19L67.96,66.51L78.83,67.15L81.55,68.12L125.05,69.08L127.77,69.4L133.2,70.36L135.92,71L165.83,72.12L168.54,72.28L209.32,73.4" style="vector-effect: none; fill: none; stroke: rgb(1, 27, 58); stroke-opacity: 1; stroke-width: 5px; opacity: 1;"/></g><g class="points"/><g class="text"/></g></g></g><g class="overplot"/><path class="xlines-above crisp" d="M0,0" style="fill: none;"/><path class="ylines-above crisp" d="M0,0" style="fill: none;"/><g class="overlines-above"/><g class="xaxislayer-above"/><g class="yaxislayer-above"/><g class="overaxes-above"/></g></g><g class="polarlayer"/><g class="smithlayer"/><g class="ternarylayer"/><g class="geolayer"/><g class="funnelarealayer"/><g class="pielayer"/><g class="iciclelayer"/><g class="treemaplayer"/><g class="sunburstlayer"/><g class="glimages"/><defs id="topdefs-780403"><g class="clips"/></defs><g class="layer-above"><g class="imagelayer"/><g class="shapelayer"/></g><g class="infolayer"><g class="g-gtitle"><text class="gtitle" x="15" y="25" text-anchor="start" dy="0em" style="font-family: Ubuntu, verdana, arial, sans-serif; font-size: 16px; fill: rgb(233, 84, 32); opacity: 1; font-weight: normal; white-space: pre;">Premiér/ka 2023</text></g><g class="g-xtitle"/><g class="g-ytitle"/></g></svg>