<svg class="main-svg" xmlns="http://www.w3.org/2000/svg" xmlns:xlink="http://www.w3.org/1999/xlink" width="300" height="135" style="" viewBox="0 0 300 135"><rect x="0" y="0" width="300" height="135" style="fill: rgb(255, 255, 255); fill-opacity: 1;"/><defs id="defs-352d9e"><g class="clips"><clipPath id="clip352d9exyplot" class="plotclip"><rect width="280" height="75"/></clipPath><clipPath class="axesclip" id="clip352d9ex"><rect x="10" y="0" width="280" height="135"/></clipPath><clipPath class="axesclip" id="clip352d9ey"><rect x="0" y="50" width="300" height="75"/></clipPath><clipPath class="axesclip" id="clip352d9exy"><rect x="10" y="50" width="280" height="75"/></clipPath></g><g class="gradients"/><g class="patterns"/></defs><g class="bglayer"/><g class="layer-below"><g class="imagelayer"/><g class="shapelayer"/></g><g class="cartesianlayer"><g class="subplot xy"><g class="layer-subplot"><g class="shapelayer"/><g class="imagelayer"/></g><g class="minor-gridlayer"><g class="x"/><g class="y"/></g><g class="gridlayer"><g class="x"><path class="xgrid crisp" transform="translate(76.74,0)" d="M0,50v75" style="stroke: rgb(235, 240, 248); stroke-opacity: 1; stroke-width: 1px;"/><path class="xgrid crisp" transform="translate(156.09,0)" d="M0,50v75" style="stroke: rgb(235, 240, 248); stroke-opacity: 1; stroke-width: 1px;"/><path class="xgrid crisp" transform="translate(235.43,0)" d="M0,50v75" style="stroke: rgb(235, 240, 248); stroke-opacity: 1; stroke-width: 1px;"/></g><g class="y"><path class="ygrid crisp" transform="translate(0,97.18)" d="M10,0h280" style="stroke: rgb(235, 240, 248); stroke-opacity: 1; stroke-width: 1px;"/><path class="ygrid crisp" transform="translate(0,69.35)" d="M10,0h280" style="stroke: rgb(235, 240, 248); stroke-opacity: 1; stroke-width: 1px;"/></g></g><g class="zerolinelayer"><path class="yzl zl crisp" transform="translate(0,125)" d="M10,0h280" style="stroke: rgb(235, 240, 248); stroke-opacity: 1; stroke-width: 2px;"/></g><path class="xlines-below"/><path class="ylines-below"/><g class="overlines-below"/><g class="xaxislayer-below"/><g class="yaxislayer-below"/><g class="overaxes-below"/><g class="plot" transform="translate(10,50)" clip-path="url(#clip352d9exyplot)"><g class="scatterlayer mlayer"><g class="trace scatter trace282a03" style="stroke-miterlimit: 2; opacity: 1;"><g class="fills"/><g class="errorbars"/><g class="lines"><path class="js-line" d="M0,24.11Q2.55,19.27 4.13,18.53C5.32,17.97 6.97,18.59 8.04,18.75C8.81,18.86 9.58,19.19 10,19.21C10.19,19.22 10.2,19.14 10.43,19.15C11.32,19.2 15.51,20.18 16.96,20.82C17.76,21.17 18.08,21.44 18.7,21.96C19.57,22.7 20.6,23.93 21.52,25.02C22.49,26.18 23.36,27.16 24.35,28.76C25.85,31.18 27.68,36.04 29.13,38.43C30.06,39.96 30.54,40.88 31.74,42.01C33.33,43.5 36.9,45.39 38.26,46.16C38.85,46.49 39.11,46.56 39.57,46.81C40.11,47.1 40.68,47.5 41.3,47.79C41.97,48.11 42.63,48.34 43.48,48.62C44.63,49 46.74,49.59 47.61,49.77C48,49.85 48.24,49.88 48.48,49.88C48.65,49.88 48.72,49.83 48.91,49.83C49.29,49.82 50.17,49.95 50.65,49.96C50.99,49.97 51.14,49.9 51.52,49.94C52.3,50.01 53.9,50.62 55,50.69C55.99,50.75 57.43,50.46 57.83,50.43C57.94,50.42 57.93,50.43 58.04,50.42C58.5,50.38 60.82,50.02 61.52,49.99C61.82,49.98 61.91,50 62.17,50.02C62.57,50.06 63.35,50.19 63.7,50.24C63.89,50.27 63.91,50.28 64.13,50.3C64.84,50.36 67.7,50.45 68.7,50.44C69.18,50.44 69.47,50.4 69.78,50.39C70.02,50.38 70.12,50.39 70.43,50.37C71.16,50.33 73.26,50.16 74.13,50.09C74.6,50.05 74.79,50.06 75.22,50C75.86,49.92 76.72,49.75 77.61,49.57C78.76,49.34 80.21,49.11 81.52,48.73C82.89,48.33 84.71,47.49 85.65,47.19C86.12,47.04 86.3,46.99 86.74,46.91C87.38,46.79 88.15,46.84 89.13,46.6C90.82,46.19 95.87,44.21 95.87,44.21C95.87,44.21 95.87,44.21 95.87,44.21C95.87,44.21 100.43,42.24 100.43,42.24C100.43,42.24 100.43,42.24 100.43,42.24C100.43,42.24 100.87,42.36 101.3,42.39C102.46,42.47 105.62,42.6 107.83,42.21C110.25,41.78 113.05,40.73 115.22,39.72C117.1,38.84 119.14,37.16 120.22,36.67C120.69,36.45 120.8,36.49 121.3,36.32C122.45,35.94 125.41,35 126.96,34.4C128.07,33.97 129.05,33.29 129.78,33.19C130.22,33.13 130.39,33.24 130.87,33.34C131.84,33.54 134.14,34.4 135.22,34.52C135.85,34.59 136.1,34.44 136.74,34.44C137.85,34.43 139.6,34.72 141.3,34.62C143.47,34.5 147.03,33.86 148.7,33.49C149.57,33.3 150.03,33.02 150.65,32.92C151.18,32.83 151.59,32.85 152.17,32.84C152.97,32.83 154.39,32.93 155,32.91C155.29,32.9 155.37,32.85 155.65,32.85C156.2,32.85 157.23,32.94 158.04,33.05C158.89,33.17 159.63,33.44 160.65,33.57C162.09,33.75 164.71,33.75 165.87,33.85C166.45,33.9 166.56,33.94 167.17,34.01C168.65,34.18 172.77,34.82 174.78,34.79C176.1,34.77 177.04,34.44 178.04,34.35C178.9,34.27 179.57,34.25 180.43,34.22C181.43,34.18 182.58,34.21 183.7,34.14C184.89,34.07 186.06,33.96 187.39,33.79C188.98,33.59 191.13,33.13 192.61,32.98C193.69,32.87 194.31,32.93 195.43,32.85C197.08,32.74 200.41,32.41 201.52,32.3C201.94,32.26 202.06,32.24 202.39,32.2C202.83,32.15 203.27,32.12 203.91,32.05C205.02,31.93 207.55,31.58 208.48,31.51C208.88,31.48 208.95,31.53 209.35,31.49C210.28,31.41 213.36,30.88 213.91,30.79C214.03,30.77 214.01,30.77 214.13,30.75C214.58,30.68 216.47,30.42 217.39,30.27C218.06,30.16 218.59,30.05 219.13,29.94C219.6,29.84 219.95,29.75 220.43,29.64C221.02,29.5 221.91,29.28 222.39,29.17C222.66,29.11 222.72,29.09 223.04,29.02C223.92,28.83 226.91,28.28 228.04,28.02C228.62,27.89 229,27.83 229.35,27.68C229.61,27.57 229.73,27.45 230,27.3C230.44,27.07 231.22,26.61 231.74,26.46C232.13,26.35 232.46,26.44 232.83,26.35C233.25,26.25 233.68,26.05 234.13,25.85C234.62,25.63 235.65,25.1 235.65,25.1C235.65,25.1 235.65,25.1 235.65,25.1C235.65,25.1 238.07,24.93 238.91,24.95C239.45,24.96 239.78,25.04 240.22,25.08C240.65,25.12 241.2,25.17 241.52,25.17C241.71,25.17 241.84,25.14 241.96,25.13C242.04,25.12 242.06,25.13 242.17,25.11C242.54,25.04 243.83,24.5 244.57,24.43C245.19,24.37 245.72,24.55 246.3,24.6C246.88,24.65 247.6,24.73 248.04,24.74C248.31,24.74 248.47,24.74 248.7,24.71C248.97,24.68 249.19,24.62 249.57,24.53C250.31,24.35 252.09,23.87 252.83,23.66C253.21,23.55 253.38,23.45 253.7,23.4C254.09,23.34 254.51,23.4 255,23.35C255.63,23.28 256.54,23.07 257.17,22.94C257.66,22.84 258.12,22.73 258.48,22.63C258.74,22.56 258.93,22.49 259.13,22.44C259.29,22.4 259.38,22.38 259.57,22.34C259.92,22.26 260.54,22.12 261.09,21.99C261.75,21.83 262.5,21.64 263.26,21.45C264.09,21.24 265.11,20.93 265.87,20.78C266.44,20.67 266.9,20.67 267.39,20.58C267.84,20.5 268.45,20.33 268.7,20.28C268.8,20.26 268.84,20.25 268.91,20.24C268.98,20.22 269.04,20.21 269.13,20.19C269.25,20.16 269.41,20.1 269.57,20.06C269.76,20.01 270,19.98 270.22,19.94C270.44,19.9 270.62,19.86 270.87,19.82C271.23,19.76 271.74,19.63 272.17,19.62C272.61,19.61 273.16,19.72 273.48,19.74C273.66,19.75 273.91,19.76 273.91,19.76C273.91,19.76 273.91,19.76 273.91,19.76C273.91,19.76 275.46,19.83 276.09,19.88C276.58,19.92 276.9,20.02 277.39,20.02C278.02,20.03 279.23,19.82 279.57,19.83C279.68,19.83 279.71,19.85 279.78,19.86Q279.85,19.87 280,19.89" style="vector-effect: none; fill: none; stroke: rgb(238, 58, 67); stroke-opacity: 1; stroke-width: 5px; opacity: 1;"/></g><g class="points"/><g class="text"/></g><g class="trace scatter trace71287b" style="stroke-miterlimit: 2; opacity: 1;"><g class="fills"/><g class="errorbars"/><g class="lines"><path class="js-line" d="M0,55.63Q2.77,56.41 4.13,56.45C5.45,56.49 6.96,55.98 8.04,55.91C8.8,55.86 9.58,55.94 10,55.93C10.2,55.92 10.2,55.9 10.43,55.9C11.32,55.91 15.48,56.43 16.96,56.55C17.72,56.61 18.05,56.6 18.7,56.65C19.53,56.72 20.58,56.82 21.52,56.95C22.46,57.08 23.28,57.26 24.35,57.44C25.74,57.68 27.77,58.15 29.13,58.26C30.13,58.34 30.68,58.16 31.74,58.22C33.43,58.32 36.91,59.03 38.26,59.12C38.86,59.16 39.1,59.11 39.57,59.11C40.11,59.11 40.69,59.18 41.3,59.15C41.99,59.12 42.64,58.94 43.48,58.9C44.64,58.84 46.74,58.92 47.61,58.95C48.01,58.96 48.24,58.99 48.48,59C48.65,59 48.72,59 48.91,59C49.3,58.99 50.17,58.97 50.65,58.94C50.99,58.92 51.13,58.9 51.52,58.86C52.29,58.77 53.9,58.45 55,58.4C55.99,58.35 57.43,58.48 57.83,58.5C57.94,58.5 57.93,58.51 58.04,58.51C58.5,58.52 60.82,58.46 61.52,58.43C61.82,58.42 61.91,58.41 62.17,58.39C62.57,58.37 63.35,58.31 63.7,58.3C63.89,58.29 63.91,58.3 64.13,58.3C64.85,58.3 67.7,58.26 68.7,58.29C69.18,58.31 69.47,58.36 69.78,58.36C70.02,58.36 70.13,58.38 70.43,58.33C71.16,58.22 73.26,57.62 74.13,57.38C74.6,57.25 74.78,57.17 75.22,57.06C75.86,56.9 76.72,56.76 77.61,56.55C78.76,56.28 80.19,55.79 81.52,55.57C82.87,55.35 84.72,55.28 85.65,55.23C86.13,55.2 86.31,55.25 86.74,55.2C87.38,55.13 88.12,54.83 89.13,54.71C90.8,54.52 95.87,54.53 95.87,54.53C95.87,54.53 95.87,54.53 95.87,54.53C95.87,54.53 100.43,54.34 100.43,54.34C100.43,54.34 100.43,54.34 100.43,54.34C100.43,54.34 100.87,54.22 101.3,54.14C102.46,53.91 105.58,53.35 107.83,53.07C110.21,52.77 113,52.38 115.22,52.43C117.05,52.47 119.16,53.05 120.22,53.07C120.71,53.08 120.8,52.97 121.3,52.97C122.45,52.96 125.41,53.18 126.96,53.43C128.07,53.61 129.06,54.05 129.78,54.1C130.23,54.13 130.39,54.08 130.87,53.99C131.84,53.82 134.14,53.05 135.22,52.86C135.85,52.75 136.1,52.81 136.74,52.71C137.86,52.54 139.59,52.08 141.3,51.78C143.47,51.39 147.03,50.9 148.7,50.65C149.56,50.52 150.04,50.48 150.65,50.37C151.19,50.27 151.58,50.09 152.17,50.05C152.96,49.99 154.39,50.21 155,50.24C155.29,50.25 155.37,50.23 155.65,50.26C156.2,50.31 157.22,50.53 158.04,50.61C158.89,50.69 159.63,50.64 160.65,50.71C162.09,50.81 164.71,51.25 165.87,51.2C166.45,51.17 166.56,51.09 167.17,50.96C168.66,50.65 172.76,49.52 174.78,49.18C176.09,48.96 177.04,48.98 178.04,48.85C178.9,48.74 179.57,48.57 180.43,48.47C181.43,48.35 182.58,48.38 183.7,48.22C184.9,48.05 186.06,47.73 187.39,47.42C188.98,47.04 191.13,46.27 192.61,46.09C193.68,45.96 194.31,46.16 195.43,46.11C197.08,46.04 200.41,45.69 201.52,45.55C201.94,45.5 202.06,45.44 202.39,45.41C202.83,45.38 203.27,45.47 203.91,45.42C205.03,45.33 207.55,44.77 208.48,44.65C208.88,44.6 208.95,44.61 209.35,44.57C210.27,44.48 213.36,44.21 213.91,44.12C214.03,44.1 214.01,44.09 214.13,44.07C214.58,43.99 216.48,43.77 217.39,43.59C218.06,43.46 218.6,43.33 219.13,43.17C219.6,43.03 219.95,42.86 220.43,42.69C221.01,42.49 221.91,42.17 222.39,42.04C222.66,41.97 222.72,41.92 223.04,41.9C223.92,41.83 226.91,42.05 228.04,42.19C228.62,42.26 228.99,42.36 229.35,42.44C229.61,42.5 229.73,42.57 230,42.61C230.44,42.68 231.23,42.72 231.74,42.7C232.15,42.68 232.45,42.61 232.83,42.54C233.25,42.47 233.68,42.32 234.13,42.27C234.61,42.21 235.65,42.23 235.65,42.23C235.65,42.23 235.65,42.23 235.65,42.23C235.65,42.23 238.07,41.48 238.91,41.23C239.44,41.07 239.78,40.92 240.22,40.86C240.65,40.8 241.2,40.86 241.52,40.84C241.71,40.83 241.84,40.8 241.96,40.78C242.04,40.77 242.06,40.78 242.17,40.75C242.54,40.65 243.84,40.11 244.57,39.82C245.19,39.57 245.72,39.33 246.3,39.13C246.87,38.94 247.6,38.74 248.04,38.64C248.31,38.58 248.47,38.58 248.7,38.52C248.97,38.45 249.19,38.37 249.57,38.24C250.31,37.99 252.09,37.32 252.83,37.09C253.21,36.97 253.38,36.93 253.7,36.85C254.09,36.75 254.51,36.68 255,36.56C255.63,36.4 256.54,36.18 257.17,35.98C257.67,35.82 258.12,35.66 258.48,35.49C258.74,35.37 258.93,35.22 259.13,35.11C259.29,35.02 259.38,34.99 259.57,34.89C259.92,34.71 260.53,34.37 261.09,34.1C261.75,33.78 262.51,33.48 263.26,33.1C264.1,32.67 265.11,32.03 265.87,31.64C266.44,31.34 266.9,31.14 267.39,30.91C267.84,30.7 268.45,30.44 268.7,30.32C268.8,30.27 268.84,30.24 268.91,30.22C268.98,30.2 269.05,30.2 269.13,30.18C269.25,30.15 269.41,30.08 269.57,30.03C269.76,29.97 270,29.9 270.22,29.84C270.44,29.78 270.62,29.73 270.87,29.66C271.23,29.57 271.74,29.44 272.17,29.34C272.61,29.24 273.16,29.1 273.48,29.05C273.66,29.02 273.91,29 273.91,29C273.91,29 273.91,29 273.91,29C273.91,29 275.46,28.59 276.09,28.44C276.58,28.32 276.9,28.24 277.39,28.14C278.02,28.01 279.23,27.8 279.57,27.75C279.68,27.74 279.71,27.73 279.78,27.73Q279.85,27.73 280,27.74" style="vector-effect: none; fill: none; stroke: rgb(0, 180, 219); stroke-opacity: 1; stroke-width: 5px; opacity: 1;"/></g><g class="points"/><g class="text"/></g><g class="trace scatter trace4fceed" style="stroke-miterlimit: 2; opacity: 1;"><g class="fills"/><g class="errorbars"/><g class="lines"><path class="js-line" d="M29.13,43.45Q30.55,39.97 31.74,37.99C33.34,35.32 36.84,30.57 38.26,29.1C38.81,28.53 39.11,28.44 39.57,28.06C40.11,27.62 40.7,27.17 41.3,26.63C42,26.01 42.64,25.35 43.48,24.52C44.64,23.37 46.73,21.18 47.61,20.35C48,19.98 48.24,19.78 48.48,19.58C48.65,19.45 48.72,19.41 48.91,19.26C49.3,18.94 50.16,18.07 50.65,17.67C50.98,17.4 51.1,17.18 51.52,17.03C52.27,16.76 53.9,16.92 55,16.81C55.99,16.71 57.43,16.52 57.83,16.42C57.94,16.39 57.93,16.38 58.04,16.34C58.5,16.17 60.82,15.34 61.52,15.13C61.82,15.04 61.91,15.05 62.17,14.96C62.58,14.82 63.34,14.42 63.7,14.28C63.89,14.21 63.91,14.2 64.13,14.13C64.84,13.92 67.71,13.28 68.7,12.99C69.19,12.85 69.46,12.69 69.78,12.63C70.02,12.58 70.13,12.62 70.43,12.58C71.16,12.48 73.27,12.08 74.13,11.82C74.61,11.67 74.78,11.49 75.22,11.37C75.85,11.21 76.72,11.21 77.61,11.09C78.75,10.94 80.2,10.51 81.52,10.53C82.88,10.55 84.71,11.1 85.65,11.23C86.13,11.3 86.31,11.33 86.74,11.36C87.38,11.4 88.14,11.28 89.13,11.4C90.82,11.61 95.87,13 95.87,13C95.87,13 95.87,13 95.87,13C95.87,13 100.43,14.19 100.43,14.19C100.43,14.19 100.43,14.19 100.43,14.19C100.43,14.19 100.88,14.32 101.3,14.46C102.47,14.84 105.61,15.76 107.83,16.64C110.24,17.6 112.97,19.22 115.22,20.09C117.02,20.78 119.16,21.42 120.22,21.63C120.7,21.72 120.8,21.7 121.3,21.72C122.45,21.77 125.4,21.87 126.96,21.72C128.07,21.61 129.06,21.2 129.78,21.18C130.23,21.17 130.39,21.25 130.87,21.34C131.84,21.52 134.14,22.1 135.22,22.29C135.85,22.4 136.1,22.37 136.74,22.48C137.86,22.68 139.61,23.05 141.3,23.55C143.49,24.2 147.02,25.67 148.7,26.24C149.55,26.53 150.04,26.65 150.65,26.85C151.19,27.03 151.58,27.37 152.17,27.39C152.96,27.42 154.39,26.78 155,26.63C155.29,26.56 155.37,26.56 155.65,26.48C156.2,26.33 157.22,25.92 158.04,25.68C158.89,25.44 159.64,25.32 160.65,25.04C162.1,24.64 164.71,23.72 165.87,23.41C166.44,23.26 166.56,23.26 167.17,23.12C168.65,22.78 172.78,21.84 174.78,21.31C176.1,20.96 177.03,20.56 178.04,20.36C178.89,20.19 179.57,20.13 180.43,20.08C181.43,20.02 182.58,19.96 183.7,20.05C184.9,20.15 186.06,20.39 187.39,20.71C188.99,21.1 191.12,22.2 192.61,22.33C193.68,22.43 194.31,22.09 195.43,21.98C197.07,21.82 200.41,21.58 201.52,21.52C201.94,21.5 202.06,21.53 202.39,21.49C202.83,21.44 203.26,21.26 203.91,21.19C205.02,21.06 207.55,21.1 208.48,21.05C208.88,21.03 208.95,20.99 209.35,20.99C210.27,20.98 213.36,21.19 213.91,21.22C214.03,21.23 214.01,21.22 214.13,21.23C214.58,21.26 216.47,21.38 217.39,21.47C218.06,21.54 218.59,21.59 219.13,21.68C219.6,21.76 219.96,21.82 220.43,21.95C221.02,22.11 221.91,22.45 222.39,22.61C222.67,22.7 222.72,22.71 223.04,22.83C223.93,23.15 226.9,24.41 228.04,24.78C228.61,24.96 228.99,25.02 229.35,25.12C229.6,25.19 229.73,25.26 230,25.3C230.44,25.37 231.23,25.3 231.74,25.35C232.15,25.39 232.46,25.42 232.83,25.54C233.25,25.67 233.68,25.91 234.13,26.14C234.62,26.39 235.65,27 235.65,27C235.65,27 235.65,27 235.65,27C235.65,27 238.07,27.86 238.91,28.19C239.45,28.4 239.78,28.57 240.22,28.74C240.65,28.91 241.2,29.1 241.52,29.21C241.7,29.27 241.84,29.31 241.96,29.35C242.04,29.38 242.06,29.39 242.17,29.43C242.53,29.56 243.83,30.06 244.57,30.25C245.19,30.41 245.72,30.45 246.3,30.56C246.88,30.67 247.6,30.83 248.04,30.93C248.31,30.99 248.46,31.05 248.7,31.09C248.97,31.13 249.19,31.1 249.57,31.15C250.31,31.25 252.09,31.61 252.83,31.78C253.21,31.87 253.38,31.95 253.7,32.02C254.09,32.1 254.51,32.12 255,32.19C255.63,32.28 256.54,32.37 257.17,32.52C257.67,32.64 258.12,32.84 258.48,32.94C258.73,33.01 258.93,33.05 259.13,33.09C259.29,33.12 259.38,33.11 259.57,33.15C259.93,33.23 260.54,33.48 261.09,33.66C261.75,33.88 262.51,34.09 263.26,34.38C264.1,34.71 265.1,35.33 265.87,35.57C266.43,35.75 266.91,35.72 267.39,35.84C267.85,35.96 268.45,36.18 268.7,36.27C268.8,36.31 268.84,36.34 268.91,36.36C268.98,36.38 269.05,36.37 269.13,36.39C269.25,36.42 269.41,36.5 269.57,36.54C269.76,36.59 270,36.61 270.22,36.67C270.44,36.73 270.62,36.8 270.87,36.88C271.23,36.99 271.73,37.17 272.17,37.28C272.6,37.38 273.16,37.43 273.48,37.51C273.66,37.55 273.91,37.64 273.91,37.64C273.91,37.64 273.91,37.64 273.91,37.64C273.91,37.64 275.45,38.34 276.09,38.53C276.57,38.67 276.9,38.78 277.39,38.79C278.02,38.8 279.23,38.55 279.57,38.46C279.68,38.43 279.71,38.4 279.78,38.38Q279.85,38.36 280,38.35" style="vector-effect: none; fill: none; stroke: rgb(138, 44, 81); stroke-opacity: 1; stroke-width: 5px; opacity: 1;"/></g><g class="points"/><g class="text"/></g><g class="trace scatter trace7f48bc" style="stroke-miterlimit: 2; opacity: 1;"><g class="fills"/><g class="errorbars"/><g class="lines"><path class="js-line" d="M81.52,70.54Q84.68,67.55 85.65,66.92C86.1,66.63 86.3,66.56 86.74,66.42C87.37,66.22 88.14,66.18 89.13,65.96C90.81,65.59 95.87,64.27 95.87,64.27C95.87,64.27 95.87,64.27 95.87,64.27C95.87,64.27 100.43,63.57 100.43,63.57C100.43,63.57 100.43,63.57 100.43,63.57C100.43,63.57 100.87,63.7 101.3,63.72C102.46,63.78 105.6,63.6 107.83,63.23C110.23,62.83 113,61.95 115.22,61.32C117.06,60.8 119.15,59.91 120.22,59.78C120.7,59.72 120.8,59.83 121.3,59.85C122.45,59.89 125.4,59.96 126.96,59.91C128.06,59.87 129.06,59.78 129.78,59.7C130.23,59.65 130.39,59.62 130.87,59.54C131.84,59.38 134.14,58.99 135.22,58.77C135.86,58.64 136.09,58.52 136.74,58.42C137.85,58.26 139.6,58.27 141.3,58.12C143.47,57.93 147.03,57.5 148.7,57.33C149.56,57.24 150.04,57.13 150.65,57.15C151.19,57.17 151.58,57.34 152.17,57.39C152.97,57.46 154.39,57.42 155,57.46C155.29,57.48 155.36,57.52 155.65,57.53C156.2,57.54 157.23,57.39 158.04,57.39C158.89,57.39 159.63,57.55 160.65,57.55C162.09,57.55 164.71,57.25 165.87,57.25C166.45,57.25 166.56,57.29 167.17,57.32C168.65,57.39 172.77,57.53 174.78,57.58C176.09,57.61 177.04,57.55 178.04,57.62C178.9,57.68 179.57,57.93 180.43,57.95C181.43,57.98 182.58,57.7 183.7,57.69C184.89,57.68 186.06,57.95 187.39,57.91C188.98,57.86 191.13,57.28 192.61,57.26C193.69,57.25 194.31,57.55 195.43,57.55C197.07,57.54 200.41,57.1 201.52,56.87C201.95,56.78 202.06,56.7 202.39,56.61C202.82,56.5 203.26,56.35 203.91,56.27C205.02,56.13 207.55,56.15 208.48,56.1C208.88,56.08 208.95,56.07 209.35,56.04C210.27,55.98 213.36,55.8 213.91,55.77C214.03,55.76 214.01,55.77 214.13,55.76C214.58,55.73 216.48,55.6 217.39,55.46C218.06,55.36 218.59,55.18 219.13,55.09C219.59,55.02 219.95,55.02 220.43,54.95C221.02,54.87 221.91,54.71 222.39,54.61C222.67,54.55 222.72,54.49 223.04,54.46C223.92,54.38 226.91,54.63 228.04,54.68C228.62,54.7 228.99,54.7 229.35,54.73C229.6,54.75 229.73,54.81 230,54.8C230.44,54.79 231.23,54.61 231.74,54.52C232.15,54.45 232.45,54.37 232.83,54.32C233.24,54.27 233.68,54.28 234.13,54.23C234.62,54.18 235.65,54 235.65,54C235.65,54 235.65,54 235.65,54C235.65,54 238.06,53.28 238.91,53.14C239.44,53.05 239.79,53.1 240.22,53.05C240.66,53 241.2,52.89 241.52,52.85C241.71,52.83 241.84,52.81 241.96,52.81C242.04,52.81 242.06,52.83 242.17,52.82C242.54,52.8 243.83,52.5 244.57,52.45C245.19,52.4 245.72,52.5 246.3,52.46C246.88,52.42 247.6,52.28 248.04,52.23C248.31,52.2 248.47,52.21 248.7,52.18C248.97,52.14 249.19,52.06 249.57,52.02C250.31,51.94 252.09,51.95 252.83,51.87C253.21,51.83 253.38,51.77 253.7,51.72C254.09,51.66 254.51,51.58 255,51.53C255.63,51.46 256.54,51.38 257.17,51.36C257.66,51.35 258.12,51.39 258.48,51.4C258.73,51.41 258.93,51.4 259.13,51.41C259.29,51.42 259.38,51.44 259.57,51.44C259.92,51.45 260.54,51.41 261.09,51.38C261.75,51.35 262.5,51.28 263.26,51.25C264.09,51.22 265.12,51.17 265.87,51.21C266.45,51.24 266.9,51.37 267.39,51.4C267.84,51.43 268.45,51.39 268.7,51.39C268.8,51.39 268.84,51.39 268.91,51.39C268.98,51.39 269.04,51.4 269.13,51.41C269.25,51.42 269.41,51.43 269.57,51.46C269.77,51.49 270,51.57 270.22,51.6C270.44,51.63 270.62,51.63 270.87,51.66C271.23,51.7 271.74,51.79 272.17,51.83C272.61,51.87 273.16,51.92 273.48,51.92C273.66,51.92 273.91,51.89 273.91,51.89C273.91,51.89 273.91,51.89 273.91,51.89C273.91,51.89 275.46,51.71 276.09,51.7C276.58,51.69 276.91,51.69 277.39,51.77C278.03,51.87 279.23,52.27 279.57,52.37C279.68,52.4 279.71,52.43 279.78,52.44Q279.85,52.45 280,52.44" style="vector-effect: none; fill: none; stroke: rgb(153, 51, 0); stroke-opacity: 1; stroke-width: 5px; opacity: 1;"/></g><g class="points"/><g class="text"/></g><g class="trace scatter trace5eb338" style="stroke-miterlimit: 2; opacity: 1;"><g class="fills"/><g class="errorbars"/><g class="lines"><path class="js-line" d="M0,5.39Q2.79,5.71 4.13,5.48C5.47,5.25 6.95,4.28 8.04,4.01C8.79,3.82 9.6,3.64 10,3.75C10.21,3.8 10.2,3.91 10.43,4.07C11.31,4.67 15.45,7.42 16.96,8.11C17.7,8.44 18.06,8.39 18.7,8.64C19.54,8.97 20.6,9.47 21.52,10.03C22.49,10.62 23.25,11.44 24.35,12.12C25.71,12.95 27.82,13.65 29.13,14.52C30.18,15.21 30.69,15.79 31.74,16.73C33.44,18.26 36.87,21.98 38.26,22.98C38.82,23.38 39.1,23.43 39.57,23.66C40.1,23.92 40.71,24.1 41.3,24.47C42.01,24.91 42.62,25.61 43.48,26.22C44.62,27.03 46.73,28.4 47.61,28.82C47.99,29 48.24,29 48.48,29.11C48.65,29.19 48.71,29.26 48.91,29.36C49.29,29.55 50.17,29.87 50.65,30.11C51,30.28 51.13,30.4 51.52,30.6C52.29,30.99 53.91,31.59 55,32.15C56.01,32.67 57.42,33.59 57.83,33.8C57.94,33.86 57.93,33.84 58.04,33.9C58.5,34.14 60.82,35.54 61.52,35.93C61.82,36.1 61.9,36.18 62.17,36.28C62.56,36.42 63.35,36.49 63.7,36.57C63.89,36.61 63.91,36.63 64.13,36.68C64.84,36.85 67.71,37.41 68.7,37.74C69.19,37.9 69.46,38.14 69.78,38.21C70.02,38.26 70.13,38.16 70.43,38.22C71.17,38.36 73.26,39.3 74.13,39.6C74.6,39.76 74.8,39.76 75.22,39.94C75.87,40.22 76.7,40.86 77.61,41.28C78.74,41.8 80.24,42.08 81.52,42.75C82.92,43.49 84.7,45.07 85.65,45.62C86.12,45.89 86.3,45.97 86.74,46.14C87.37,46.38 88.13,46.54 89.13,46.84C90.81,47.35 95.87,48.94 95.87,48.94C95.87,48.94 95.87,48.94 95.87,48.94C95.87,48.94 100.43,50.1 100.43,50.1C100.43,50.1 100.43,50.1 100.43,50.1C100.43,50.1 100.88,50.09 101.3,50.09C102.46,50.08 105.59,50.14 107.83,50.06C110.22,49.98 113,49.53 115.22,49.59C117.05,49.64 119.16,50.16 120.22,50.18C120.71,50.19 120.8,50.08 121.3,50.1C122.45,50.14 125.4,50.66 126.96,50.96C128.07,51.17 129.06,51.58 129.78,51.62C130.23,51.65 130.39,51.56 130.87,51.5C131.84,51.39 134.14,50.96 135.22,50.95C135.86,50.94 136.1,51.09 136.74,51.1C137.85,51.12 139.6,50.87 141.3,50.84C143.47,50.8 147.03,50.84 148.7,50.96C149.56,51.02 150.04,51.16 150.65,51.21C151.19,51.25 151.59,51.18 152.17,51.24C152.97,51.32 154.39,51.65 155,51.74C155.29,51.78 155.36,51.8 155.65,51.81C156.2,51.83 157.23,51.78 158.04,51.69C158.89,51.6 159.63,51.34 160.65,51.24C162.09,51.1 164.71,51.2 165.87,51.11C166.45,51.06 166.56,51.01 167.17,50.93C168.65,50.74 172.79,49.89 174.78,50.08C176.11,50.21 177.03,50.85 178.04,51.09C178.89,51.29 179.57,51.34 180.43,51.49C181.44,51.67 182.57,52.03 183.7,52.09C184.89,52.15 186.06,51.76 187.39,51.79C188.98,51.83 191.13,52.35 192.61,52.48C193.69,52.58 194.31,52.53 195.43,52.62C197.08,52.75 200.41,53.19 201.52,53.31C201.94,53.36 202.06,53.37 202.39,53.4C202.83,53.44 203.27,53.52 203.91,53.55C205.02,53.61 207.55,53.55 208.48,53.59C208.88,53.61 208.95,53.62 209.35,53.65C210.27,53.73 213.36,54.09 213.91,54.12C214.03,54.13 214.01,54.12 214.13,54.12C214.58,54.12 216.47,54.12 217.39,54.16C218.06,54.19 218.59,54.27 219.13,54.3C219.59,54.32 219.95,54.3 220.43,54.32C221.02,54.35 221.91,54.44 222.39,54.48C222.67,54.5 222.72,54.53 223.04,54.54C223.92,54.56 226.91,54.3 228.04,54.33C228.62,54.35 228.99,54.41 229.35,54.46C229.6,54.49 229.73,54.51 230,54.57C230.44,54.67 231.23,54.93 231.74,55.07C232.15,55.18 232.45,55.28 232.83,55.37C233.24,55.47 233.68,55.54 234.13,55.64C234.62,55.75 235.65,55.99 235.65,55.99C235.65,55.99 235.65,55.99 235.65,55.99C235.65,55.99 238.06,56.9 238.91,57.16C239.44,57.33 239.78,57.42 240.22,57.51C240.65,57.6 241.2,57.67 241.52,57.7C241.7,57.72 241.84,57.72 241.96,57.71C242.04,57.71 242.06,57.69 242.17,57.68C242.53,57.65 243.84,57.65 244.57,57.58C245.2,57.52 245.72,57.43 246.3,57.33C246.88,57.23 247.6,57.07 248.04,57C248.31,56.96 248.46,56.93 248.7,56.91C248.97,56.89 249.19,56.92 249.57,56.9C250.31,56.86 252.09,56.62 252.83,56.57C253.21,56.55 253.38,56.55 253.7,56.55C254.09,56.55 254.51,56.57 255,56.6C255.63,56.63 256.54,56.74 257.17,56.75C257.66,56.76 258.12,56.71 258.48,56.7C258.73,56.7 258.93,56.7 259.13,56.7C259.29,56.7 259.38,56.69 259.57,56.69C259.92,56.69 260.54,56.72 261.09,56.73C261.75,56.74 262.5,56.76 263.26,56.75C264.09,56.74 265.12,56.67 265.87,56.65C266.44,56.64 266.9,56.63 267.39,56.64C267.84,56.65 268.45,56.68 268.7,56.69C268.8,56.69 268.84,56.7 268.91,56.7C268.98,56.7 269.04,56.7 269.13,56.7C269.25,56.7 269.41,56.7 269.57,56.69C269.77,56.67 270,56.63 270.22,56.6C270.44,56.57 270.62,56.55 270.87,56.53C271.23,56.5 271.74,56.5 272.17,56.48C272.61,56.46 273.16,56.41 273.48,56.4C273.66,56.39 273.91,56.39 273.91,56.39C273.91,56.39 273.91,56.39 273.91,56.39C273.91,56.39 275.46,56.45 276.09,56.46C276.58,56.47 276.9,56.45 277.39,56.46C278.02,56.47 279.23,56.55 279.57,56.56C279.68,56.56 279.71,56.56 279.78,56.56Q279.85,56.56 280,56.57" style="vector-effect: none; fill: none; stroke: rgb(97, 162, 41); stroke-opacity: 1; stroke-width: 5px; opacity: 1;"/></g><g class="points"/><g class="text"/></g></g></g><g class="overplot"/><path class="xlines-above crisp" d="M0,0" style="fill: none;"/><path class="ylines-above crisp" d="M0,0" style="fill: none;"/><g class="overlines-above"/><g class="xaxislayer-above"/><g class="yaxislayer-above"/><g class="overaxes-above"/></g></g><g class="polarlayer"/><g class="smithlayer"/><g class="ternarylayer"/><g class="geolayer"/><g class="funnelarealayer"/><g class="pielayer"/><g class="iciclelayer"/><g class="treemaplayer"/><g class="sunburstlayer"/><g class="glimages"/><defs id="topdefs-352d9e"><g class="clips"/></defs><g class="layer-above"><g class="imagelayer"/><g class="shapelayer"/></g><g class="infolayer"><g class="g-gtitle"><text class="gtitle" x="15" y="25" text-anchor="start" dy="0em" style="font-family: Ubuntu, verdana, arial, sans-serif; font-size: 16px; fill: rgb(233, 84, 32); opacity: 1; font-weight: normal; white-space: pre;">NRSR 2020-2023</text></g><g class="g-xtitle"/><g class="g-ytitle"/></g></svg>