<svg class="main-svg" xmlns="http://www.w3.org/2000/svg" xmlns:xlink="http://www.w3.org/1999/xlink" width="300" height="135" style="" viewBox="0 0 300 135"><rect x="0" y="0" width="300" height="135" style="fill: rgb(255, 255, 255); fill-opacity: 1;"/><defs id="defs-b3876e"><g class="clips"><clipPath id="clipb3876exyplot" class="plotclip"><rect width="280" height="75"/></clipPath><clipPath class="axesclip" id="clipb3876ex"><rect x="10" y="0" width="280" height="135"/></clipPath><clipPath class="axesclip" id="clipb3876ey"><rect x="0" y="50" width="300" height="75"/></clipPath><clipPath class="axesclip" id="clipb3876exy"><rect x="10" y="50" width="280" height="75"/></clipPath></g><g class="gradients"/><g class="patterns"/></defs><g class="bglayer"/><g class="layer-below"><g class="imagelayer"/><g class="shapelayer"/></g><g class="cartesianlayer"><g class="subplot xy"><g class="layer-subplot"><g class="shapelayer"/><g class="imagelayer"/></g><g class="minor-gridlayer"><g class="x"/><g class="y"/></g><g class="gridlayer"><g class="x"><path class="xgrid crisp" transform="translate(43.73,0)" d="M0,50v75" style="stroke: rgb(235, 240, 248); stroke-opacity: 1; stroke-width: 1px;"/><path class="xgrid crisp" transform="translate(144.94,0)" d="M0,50v75" style="stroke: rgb(235, 240, 248); stroke-opacity: 1; stroke-width: 1px;"/><path class="xgrid crisp" transform="translate(249.52,0)" d="M0,50v75" style="stroke: rgb(235, 240, 248); stroke-opacity: 1; stroke-width: 1px;"/></g><g class="y"><path class="ygrid crisp" transform="translate(0,108.55)" d="M10,0h280" style="stroke: rgb(235, 240, 248); stroke-opacity: 1; stroke-width: 1px;"/><path class="ygrid crisp" transform="translate(0,92.09)" d="M10,0h280" style="stroke: rgb(235, 240, 248); stroke-opacity: 1; stroke-width: 1px;"/><path class="ygrid crisp" transform="translate(0,75.64)" d="M10,0h280" style="stroke: rgb(235, 240, 248); stroke-opacity: 1; stroke-width: 1px;"/><path class="ygrid crisp" transform="translate(0,59.18)" d="M10,0h280" style="stroke: rgb(235, 240, 248); stroke-opacity: 1; stroke-width: 1px;"/></g></g><g class="zerolinelayer"><path class="yzl zl crisp" transform="translate(0,125)" d="M10,0h280" style="stroke: rgb(235, 240, 248); stroke-opacity: 1; stroke-width: 2px;"/></g><path class="xlines-below"/><path class="ylines-below"/><g class="overlines-below"/><g class="xaxislayer-below"/><g class="yaxislayer-below"/><g class="overaxes-below"/><g class="plot" transform="translate(10,50)" clip-path="url(#clipb3876exyplot)"><g class="scatterlayer mlayer"><g class="trace scatter trace2cf974" style="stroke-miterlimit: 2; opacity: 1;"><g class="fills"/><g class="errorbars"/><g class="lines"><path class="js-line" d="M0,12.94L3.37,14.28L6.75,13.53L13.49,13.29L16.87,13.29L20.24,14.07L23.61,13.29L37.11,13.52L40.48,15.51L64.1,17.57L67.47,17.57L91.08,16.79L94.46,19.79L97.83,19.48L101.2,21.08L124.82,20.61L128.19,22.36L131.57,23.88L134.94,23.99L175.42,24.69L178.8,22.38L185.54,21.16L188.92,20.63L205.78,19.94L209.16,19.22L219.28,19.55L222.65,19.05L246.27,17.9L249.64,16.17L256.39,16.17L259.76,11.62L273.25,3.75L276.63,3.75L280,3.75" style="vector-effect: none; fill: none; stroke: rgb(238, 58, 67); stroke-opacity: 1; stroke-width: 5px; opacity: 1;"/></g><g class="points"/><g class="text"/></g><g class="trace scatter trace5ccbbd" style="stroke-miterlimit: 2; opacity: 1;"><g class="fills"/><g class="errorbars"/><g class="lines"><path class="js-line" d="M0,40.89L3.37,39.48L6.75,36.58L10.12,34.59L13.49,28.05L16.87,28.05L20.24,29.82L23.61,28.05L26.99,28.05L37.11,27.63L40.48,21.96L43.86,19.4L47.23,20.64L53.98,18.99L57.35,18.78L60.72,19.49L64.1,18.78L91.08,18.93L94.46,17.47L97.83,16.71L101.2,14.56L128.19,14.95L131.57,17.01L158.55,19.36L161.93,19.36L182.17,21.16L185.54,21.16L205.78,20.58L209.16,19.55L215.9,19.88L219.28,20.37L229.4,20.86L232.77,20.86L256.39,21.24L259.76,23.19L280,23.5" style="vector-effect: none; fill: none; stroke: rgb(0, 180, 219); stroke-opacity: 1; stroke-width: 5px; opacity: 1;"/></g><g class="points"/><g class="text"/></g><g class="trace scatter tracec356fe" style="stroke-miterlimit: 2; opacity: 1;"><g class="fills"/><g class="errorbars"/><g class="lines"><path class="js-line" d="M0,6.63L3.37,6.69L6.75,10.34L10.12,12.93L13.49,19.11L16.87,19.11L20.24,16.57L23.61,19.11L26.99,19.11L37.11,19.31L40.48,22.98L43.86,25.11L47.23,23.61L57.35,24.1L60.72,23.58L70.84,24.1L74.22,24.1L91.08,24.73L94.46,23.19L101.2,24.81L104.58,24.81L124.82,26L128.19,23.14L131.57,19.56L134.94,19.03L151.81,16.65L155.18,16.65L165.3,16.03L168.67,15.36L175.42,14.72L178.8,17.12L185.54,18.13L188.92,18.72L205.78,19.94L209.16,21.68L215.9,22.67L219.28,22.67L256.39,23.04L259.76,25.64L273.25,33.2L276.63,33.2L280,33.2" style="vector-effect: none; fill: none; stroke: rgb(138, 44, 81); stroke-opacity: 1; stroke-width: 5px; opacity: 1;"/></g><g class="points"/><g class="text"/></g></g></g><g class="overplot"/><path class="xlines-above crisp" d="M0,0" style="fill: none;"/><path class="ylines-above crisp" d="M0,0" style="fill: none;"/><g class="overlines-above"/><g class="xaxislayer-above"/><g class="yaxislayer-above"/><g class="overaxes-above"/></g></g><g class="polarlayer"/><g class="smithlayer"/><g class="ternarylayer"/><g class="geolayer"/><g class="funnelarealayer"/><g class="pielayer"/><g class="iciclelayer"/><g class="treemaplayer"/><g class="sunburstlayer"/><g class="glimages"/><defs id="topdefs-b3876e"><g class="clips"/></defs><g class="layer-above"><g class="imagelayer"/><g class="shapelayer"/></g><g class="infolayer"><g class="g-gtitle"><text class="gtitle" x="15" y="25" text-anchor="start" dy="0em" style="font-family: Ubuntu, verdana, arial, sans-serif; font-size: 16px; fill: rgb(233, 84, 32); opacity: 1; font-weight: normal; white-space: pre;">Premiér/ka 2023</text></g><g class="g-xtitle"/><g class="g-ytitle"/></g></svg>