<svg class="main-svg" xmlns="http://www.w3.org/2000/svg" xmlns:xlink="http://www.w3.org/1999/xlink" width="300" height="135" style="" viewBox="0 0 300 135"><rect x="0" y="0" width="300" height="135" style="fill: rgb(255, 255, 255); fill-opacity: 1;"/><defs id="defs-2fe9fd"><g class="clips"><clipPath id="clip2fe9fdxyplot" class="plotclip"><rect width="280" height="75"/></clipPath><clipPath class="axesclip" id="clip2fe9fdx"><rect x="10" y="0" width="280" height="135"/></clipPath><clipPath class="axesclip" id="clip2fe9fdy"><rect x="0" y="50" width="300" height="75"/></clipPath><clipPath class="axesclip" id="clip2fe9fdxy"><rect x="10" y="50" width="280" height="75"/></clipPath></g><g class="gradients"/><g class="patterns"/></defs><g class="bglayer"/><g class="layer-below"><g class="imagelayer"/><g class="shapelayer"/></g><g class="cartesianlayer"><g class="subplot xy"><g class="layer-subplot"><g class="shapelayer"/><g class="imagelayer"/></g><g class="minor-gridlayer"><g class="x"/><g class="y"/></g><g class="gridlayer"><g class="x"><path class="xgrid crisp" transform="translate(40.43,0)" d="M0,50v75" style="stroke: rgb(235, 240, 248); stroke-opacity: 1; stroke-width: 1px;"/><path class="xgrid crisp" transform="translate(131.74,0)" d="M0,50v75" style="stroke: rgb(235, 240, 248); stroke-opacity: 1; stroke-width: 1px;"/><path class="xgrid crisp" transform="translate(226.09,0)" d="M0,50v75" style="stroke: rgb(235, 240, 248); stroke-opacity: 1; stroke-width: 1px;"/></g><g class="y"><path class="ygrid crisp" transform="translate(0,108.56)" d="M10,0h280" style="stroke: rgb(235, 240, 248); stroke-opacity: 1; stroke-width: 1px;"/><path class="ygrid crisp" transform="translate(0,92.11)" d="M10,0h280" style="stroke: rgb(235, 240, 248); stroke-opacity: 1; stroke-width: 1px;"/><path class="ygrid crisp" transform="translate(0,75.67)" d="M10,0h280" style="stroke: rgb(235, 240, 248); stroke-opacity: 1; stroke-width: 1px;"/><path class="ygrid crisp" transform="translate(0,59.22)" d="M10,0h280" style="stroke: rgb(235, 240, 248); stroke-opacity: 1; stroke-width: 1px;"/></g></g><g class="zerolinelayer"><path class="yzl zl crisp" transform="translate(0,125)" d="M10,0h280" style="stroke: rgb(235, 240, 248); stroke-opacity: 1; stroke-width: 2px;"/></g><path class="xlines-below"/><path class="ylines-below"/><g class="overlines-below"/><g class="xaxislayer-below"/><g class="yaxislayer-below"/><g class="overaxes-below"/><g class="plot" transform="translate(10,50)" clip-path="url(#clip2fe9fdxyplot)"><g class="scatterlayer mlayer"><g class="trace scatter trace488fb4" style="stroke-miterlimit: 2; opacity: 1;"><g class="fills"/><g class="errorbars"/><g class="lines"><path class="js-line" d="M0,19.95L3.04,21.16L6.09,20.69L12.17,19.9L15.22,19.68L21.3,19.68L24.35,19.68L33.48,19.92L36.52,21.07L42.61,22.26L45.65,22.18L63.91,22.65L66.96,22.65L73.04,23.2L76.09,22.19L82.17,21.67L85.22,24.35L88.26,24.04L91.3,25.06L112.61,24.68L115.65,26.34L121.74,27.32L124.78,27.47L158.26,27.02L161.3,24.09L167.39,22.8L170.43,22.32L185.65,21.55L188.7,20.73L197.83,20.36L200.87,19.1L222.17,18.38L225.22,16.9L231.3,16.9L234.35,12.28L246.52,3.75L249.57,3.75L267.83,4.39L270.87,5.29L280,5.52" style="vector-effect: none; fill: none; stroke: rgb(238, 58, 67); stroke-opacity: 1; stroke-width: 5px; opacity: 1;"/></g><g class="points"/><g class="text"/></g><g class="trace scatter trace661412" style="stroke-miterlimit: 2; opacity: 1;"><g class="fills"/><g class="errorbars"/><g class="lines"><path class="js-line" d="M0,44.72L6.09,41.05L9.13,39.04L12.17,33.08L15.22,32.91L18.26,34.35L21.3,32.91L33.48,32.59L36.52,26.82L39.57,24.98L42.61,26.32L45.65,24.27L48.7,23.93L51.74,23.63L54.78,25.07L57.83,23.66L60.87,23.66L82.17,23.72L85.22,22.21L88.26,21.51L91.3,18.94L115.65,19.52L118.7,20.8L140,22.97L143.04,22.83L182.61,22.77L185.65,22.24L191.74,20.65L194.78,20.98L203.91,21.03L206.96,21.03L231.3,21.91L234.35,23.77L243.48,23.04L246.52,23.61L252.61,23.61L255.65,19.68L267.83,19.52L270.87,17.67L280,17.32" style="vector-effect: none; fill: none; stroke: rgb(0, 180, 219); stroke-opacity: 1; stroke-width: 5px; opacity: 1;"/></g><g class="points"/><g class="text"/></g><g class="trace scatter trace1e76f8" style="stroke-miterlimit: 2; opacity: 1;"><g class="fills"/><g class="errorbars"/><g class="lines"><path class="js-line" d="M0,14.45L3.04,14.43L6.09,17.92L9.13,19.84L12.17,25.13L15.22,24.93L18.26,22.49L21.3,24.93L24.35,24.93L33.48,25.15L36.52,27.76L39.57,30.12L42.61,28.97L60.87,28.61L63.91,28.61L82.17,28.97L85.22,27.55L91.3,28.45L94.35,28.45L109.57,28.25L112.61,29.71L118.7,23.25L121.74,22.69L140,20.43L143.04,20.28L149.13,19.15L152.17,18.2L158.26,17.4L161.3,18.99L170.43,20.37L173.48,20.37L185.65,21.55L188.7,23.24L194.78,23.7L197.83,23.55L203.91,22.83L206.96,22.83L231.3,23.68L234.35,26.21L246.52,33.2L249.57,33.2L252.61,33.2L255.65,36.28L267.83,36.64L270.87,37.6L280,37.72" style="vector-effect: none; fill: none; stroke: rgb(138, 44, 81); stroke-opacity: 1; stroke-width: 5px; opacity: 1;"/></g><g class="points"/><g class="text"/></g><g class="trace scatter trace97164a" style="stroke-miterlimit: 2; opacity: 1;"><g class="fills"/><g class="errorbars"/><g class="lines"><path class="js-line" d="M0,66.93L3.04,66.92L6.09,64.82L15.22,65.46L18.26,66.6L24.35,65.46L27.39,65.46L82.17,66.63L85.22,66.74L100.43,68.8L103.48,68.8L140,69.1L143.04,69.42L149.13,70.36L152.17,70.9L185.65,72.02L188.7,72.21L231.3,73.08L234.35,73.29" style="vector-effect: none; fill: none; stroke: rgb(1, 27, 58); stroke-opacity: 1; stroke-width: 5px; opacity: 1;"/></g><g class="points"/><g class="text"/></g></g></g><g class="overplot"/><path class="xlines-above crisp" d="M0,0" style="fill: none;"/><path class="ylines-above crisp" d="M0,0" style="fill: none;"/><g class="overlines-above"/><g class="xaxislayer-above"/><g class="yaxislayer-above"/><g class="overaxes-above"/></g></g><g class="polarlayer"/><g class="smithlayer"/><g class="ternarylayer"/><g class="geolayer"/><g class="funnelarealayer"/><g class="pielayer"/><g class="iciclelayer"/><g class="treemaplayer"/><g class="sunburstlayer"/><g class="glimages"/><defs id="topdefs-2fe9fd"><g class="clips"/></defs><g class="layer-above"><g class="imagelayer"/><g class="shapelayer"/></g><g class="infolayer"><g class="g-gtitle"><text class="gtitle" x="15" y="25" text-anchor="start" dy="0em" style="font-family: Ubuntu, verdana, arial, sans-serif; font-size: 16px; fill: rgb(233, 84, 32); opacity: 1; font-weight: normal; white-space: pre;">Premiér/ka 2023</text></g><g class="g-xtitle"/><g class="g-ytitle"/></g></svg>