<svg class="main-svg" xmlns="http://www.w3.org/2000/svg" xmlns:xlink="http://www.w3.org/1999/xlink" width="300" height="135" style="" viewBox="0 0 300 135"><rect x="0" y="0" width="300" height="135" style="fill: rgb(255, 255, 255); fill-opacity: 1;"/><defs id="defs-590ba0"><g class="clips"><clipPath id="clip590ba0xyplot" class="plotclip"><rect width="280" height="75"/></clipPath><clipPath class="axesclip" id="clip590ba0x"><rect x="10" y="0" width="280" height="135"/></clipPath><clipPath class="axesclip" id="clip590ba0y"><rect x="0" y="50" width="300" height="75"/></clipPath><clipPath class="axesclip" id="clip590ba0xy"><rect x="10" y="50" width="280" height="75"/></clipPath></g><g class="gradients"/><g class="patterns"/></defs><g class="bglayer"/><g class="layer-below"><g class="imagelayer"/><g class="shapelayer"/></g><g class="cartesianlayer"><g class="subplot xy"><g class="layer-subplot"><g class="shapelayer"/><g class="imagelayer"/></g><g class="gridlayer"><g class="x"><path class="xgrid crisp" transform="translate(78.22,0)" d="M0,50v75" style="stroke: rgb(235, 240, 248); stroke-opacity: 1; stroke-width: 1px;"/><path class="xgrid crisp" transform="translate(159.33,0)" d="M0,50v75" style="stroke: rgb(235, 240, 248); stroke-opacity: 1; stroke-width: 1px;"/><path class="xgrid crisp" transform="translate(240.44,0)" d="M0,50v75" style="stroke: rgb(235, 240, 248); stroke-opacity: 1; stroke-width: 1px;"/></g><g class="y"><path class="ygrid crisp" transform="translate(0,97.18)" d="M10,0h280" style="stroke: rgb(235, 240, 248); stroke-opacity: 1; stroke-width: 1px;"/><path class="ygrid crisp" transform="translate(0,69.35)" d="M10,0h280" style="stroke: rgb(235, 240, 248); stroke-opacity: 1; stroke-width: 1px;"/></g></g><g class="zerolinelayer"><path class="yzl zl crisp" transform="translate(0,125)" d="M10,0h280" style="stroke: rgb(235, 240, 248); stroke-opacity: 1; stroke-width: 2px;"/></g><path class="xlines-below"/><path class="ylines-below"/><g class="overlines-below"/><g class="xaxislayer-below"/><g class="yaxislayer-below"/><g class="overaxes-below"/><g class="plot" transform="translate(10,50)" clip-path="url(#clip590ba0xyplot)"><g class="scatterlayer mlayer"><g class="trace scatter trace2a086c" style="stroke-miterlimit: 2; opacity: 1;"><g class="fills"/><g class="errorbars"/><g class="lines"><path class="js-line" d="M0,24.11Q2.61,19.28 4.22,18.53C5.44,17.97 7.12,18.59 8.22,18.75C9.01,18.86 9.79,19.19 10.22,19.21C10.42,19.22 10.43,19.14 10.67,19.15C11.59,19.2 15.85,20.18 17.33,20.82C18.15,21.17 18.48,21.44 19.11,21.96C20,22.7 21.06,23.92 22,25.02C22.99,26.18 23.88,27.16 24.89,28.76C26.42,31.18 28.3,36.04 29.78,38.43C30.73,39.97 31.21,40.88 32.44,42.01C34.07,43.51 37.72,45.39 39.11,46.16C39.71,46.49 39.97,46.56 40.44,46.81C40.99,47.1 41.58,47.5 42.22,47.79C42.91,48.11 43.57,48.34 44.44,48.62C45.62,49 47.78,49.59 48.67,49.77C49.07,49.85 49.31,49.88 49.56,49.88C49.73,49.88 49.8,49.83 50,49.83C50.39,49.82 51.29,49.95 51.78,49.96C52.13,49.97 52.28,49.9 52.67,49.94C53.46,50.01 55.09,50.62 56.22,50.69C57.23,50.75 58.69,50.46 59.11,50.43C59.22,50.42 59.21,50.43 59.33,50.42C59.8,50.38 62.17,50.02 62.89,49.99C63.2,49.98 63.29,49.99 63.56,50.02C63.97,50.06 64.75,50.19 65.11,50.24C65.3,50.27 65.33,50.28 65.56,50.3C66.3,50.36 69.2,50.45 70.22,50.44C70.72,50.44 71.01,50.4 71.33,50.39C71.58,50.38 71.69,50.39 72,50.37C72.75,50.33 74.89,50.16 75.78,50.09C76.26,50.05 76.45,50.06 76.89,50C77.55,49.92 78.42,49.75 79.33,49.57C80.5,49.34 81.99,49.11 83.33,48.73C84.73,48.33 86.6,47.49 87.56,47.19C88.04,47.04 88.23,46.99 88.67,46.91C89.32,46.79 90.11,46.84 91.11,46.6C92.84,46.19 98,44.21 98,44.21C98,44.21 98,44.21 98,44.21C98,44.21 102.67,42.24 102.67,42.24C102.67,42.24 102.67,42.24 102.67,42.24C102.67,42.24 103.12,42.36 103.56,42.39C104.75,42.47 107.96,42.6 110.22,42.21C112.69,41.78 115.56,40.74 117.78,39.72C119.7,38.84 121.79,37.16 122.89,36.67C123.38,36.45 123.49,36.49 124,36.32C125.17,35.94 128.19,34.99 129.78,34.4C130.92,33.97 131.92,33.29 132.67,33.19C133.12,33.13 133.29,33.24 133.78,33.34C134.77,33.54 137.11,34.4 138.22,34.52C138.87,34.59 139.12,34.44 139.78,34.44C140.92,34.43 142.7,34.72 144.44,34.62C146.66,34.5 150.3,33.86 152,33.49C152.89,33.3 153.37,33.02 154,32.92C154.55,32.83 154.96,32.85 155.56,32.84C156.37,32.83 157.82,32.93 158.44,32.91C158.74,32.9 158.82,32.85 159.11,32.85C159.67,32.85 160.73,32.94 161.56,33.05C162.43,33.17 163.18,33.44 164.22,33.57C165.69,33.75 168.38,33.75 169.56,33.85C170.15,33.9 170.26,33.94 170.89,34.01C172.41,34.18 176.62,34.82 178.67,34.79C180.01,34.77 180.97,34.44 182,34.35C182.87,34.27 183.56,34.25 184.44,34.22C185.47,34.18 186.63,34.21 187.78,34.14C189,34.07 190.19,33.96 191.56,33.79C193.19,33.59 195.38,33.13 196.89,32.98C198,32.87 198.64,32.93 199.78,32.85C201.46,32.74 204.86,32.41 206,32.3C206.43,32.26 206.55,32.24 206.89,32.2C207.34,32.15 207.78,32.12 208.44,32.05C209.58,31.93 212.16,31.58 213.11,31.51C213.52,31.48 213.59,31.53 214,31.49C214.95,31.41 218.11,30.87 218.67,30.79C218.79,30.77 218.77,30.78 218.89,30.76C219.34,30.7 221.28,30.43 222.22,30.27C222.91,30.16 223.45,30.05 224,29.94C224.48,29.84 224.84,29.76 225.33,29.65C225.93,29.51 226.84,29.28 227.33,29.17C227.61,29.11 227.67,29.1 228,29.03C228.91,28.85 231.96,28.28 233.11,28.02C233.7,27.89 234.08,27.83 234.44,27.69C234.71,27.58 234.83,27.46 235.11,27.31C235.56,27.08 236.35,26.62 236.89,26.47C237.29,26.36 237.62,26.44 238,26.35C238.43,26.25 238.87,26.05 239.33,25.86C239.83,25.65 240.89,25.11 240.89,25.11C240.89,25.11 240.89,25.11 240.89,25.11C240.89,25.11 243.36,24.94 244.22,24.96C244.77,24.97 245.11,25.05 245.56,25.09C246,25.13 246.57,25.18 246.89,25.18C247.08,25.18 247.21,25.16 247.33,25.15C247.42,25.14 247.44,25.14 247.56,25.12C247.94,25.04 249.25,24.51 250,24.45C250.63,24.4 251.19,24.57 251.78,24.63C252.37,24.68 253.11,24.77 253.56,24.78C253.83,24.79 253.98,24.79 254.22,24.76C254.5,24.73 254.72,24.67 255.11,24.58C255.87,24.41 257.68,23.92 258.44,23.72C258.83,23.61 259,23.52 259.33,23.47C259.73,23.41 260.17,23.48 260.67,23.43C261.32,23.36 262.25,23.16 262.89,23.03C263.39,22.93 263.85,22.82 264.22,22.73C264.48,22.66 264.69,22.59 264.89,22.54C265.05,22.5 265.14,22.48 265.33,22.44C265.69,22.36 266.33,22.23 266.89,22.1C267.57,21.94 268.34,21.74 269.11,21.54C269.96,21.32 271.01,20.99 271.78,20.83C272.36,20.71 272.83,20.69 273.33,20.59C273.8,20.5 274.41,20.32 274.67,20.25C274.77,20.22 274.82,20.21 274.89,20.19C274.96,20.17 275.02,20.16 275.11,20.13C275.23,20.09 275.39,20.01 275.56,19.96C275.76,19.9 276,19.86 276.22,19.8C276.44,19.74 276.63,19.69 276.89,19.62C277.26,19.52 277.74,19.31 278.22,19.25Q278.77,19.18 280,19.31" style="vector-effect: non-scaling-stroke; fill: none; stroke: rgb(238, 58, 67); stroke-opacity: 1; stroke-width: 5px; opacity: 1;"/></g><g class="points"/><g class="text"/></g><g class="trace scatter tracea7b7e1" style="stroke-miterlimit: 2; opacity: 1;"><g class="fills"/><g class="errorbars"/><g class="lines"><path class="js-line" d="M0,55.63Q2.83,56.41 4.22,56.45C5.57,56.49 7.11,55.98 8.22,55.91C9,55.86 9.79,55.94 10.22,55.93C10.42,55.92 10.43,55.9 10.67,55.9C11.59,55.91 15.82,56.43 17.33,56.55C18.11,56.61 18.45,56.6 19.11,56.65C19.96,56.72 21.04,56.82 22,56.95C22.97,57.08 23.8,57.26 24.89,57.44C26.31,57.68 28.39,58.15 29.78,58.26C30.8,58.34 31.36,58.16 32.44,58.22C34.16,58.32 37.74,59.03 39.11,59.12C39.72,59.16 39.96,59.11 40.44,59.11C40.99,59.11 41.59,59.18 42.22,59.15C42.92,59.12 43.58,58.94 44.44,58.9C45.62,58.84 47.78,58.92 48.67,58.95C49.08,58.96 49.31,58.99 49.56,59C49.73,59 49.8,59 50,59C50.39,58.99 51.29,58.97 51.78,58.94C52.13,58.92 52.28,58.9 52.67,58.86C53.46,58.77 55.1,58.45 56.22,58.4C57.23,58.35 58.69,58.48 59.11,58.5C59.22,58.5 59.21,58.51 59.33,58.51C59.8,58.52 62.17,58.46 62.89,58.43C63.2,58.42 63.29,58.41 63.56,58.39C63.97,58.37 64.75,58.31 65.11,58.3C65.3,58.29 65.33,58.3 65.56,58.3C66.3,58.3 69.2,58.26 70.22,58.29C70.72,58.31 71.01,58.36 71.33,58.36C71.58,58.36 71.69,58.38 72,58.33C72.75,58.22 74.9,57.62 75.78,57.38C76.26,57.25 76.45,57.17 76.89,57.06C77.54,56.9 78.42,56.76 79.33,56.55C80.5,56.28 81.97,55.79 83.33,55.57C84.71,55.35 86.6,55.28 87.56,55.23C88.05,55.2 88.23,55.25 88.67,55.2C89.33,55.13 90.08,54.83 91.11,54.71C92.82,54.52 98,54.53 98,54.53C98,54.53 98,54.53 98,54.53C98,54.53 102.67,54.34 102.67,54.34C102.67,54.34 102.67,54.34 102.67,54.34C102.67,54.34 103.12,54.22 103.56,54.14C104.75,53.91 107.92,53.35 110.22,53.07C112.65,52.77 115.51,52.38 117.78,52.43C119.65,52.47 121.81,53.05 122.89,53.07C123.39,53.08 123.49,52.97 124,52.97C125.17,52.96 128.19,53.18 129.78,53.43C130.92,53.61 131.93,54.05 132.67,54.1C133.12,54.13 133.29,54.08 133.78,53.99C134.77,53.82 137.11,53.05 138.22,52.86C138.87,52.75 139.12,52.81 139.78,52.71C140.92,52.54 142.7,52.08 144.44,51.78C146.65,51.39 150.29,50.9 152,50.65C152.88,50.52 153.38,50.48 154,50.37C154.55,50.27 154.96,50.09 155.56,50.05C156.37,49.99 157.82,50.21 158.44,50.24C158.74,50.25 158.82,50.23 159.11,50.26C159.67,50.31 160.72,50.53 161.56,50.61C162.43,50.69 163.18,50.64 164.22,50.71C165.69,50.81 168.38,51.25 169.56,51.2C170.15,51.17 170.26,51.09 170.89,50.96C172.41,50.65 176.61,49.52 178.67,49.18C180,48.96 180.98,48.98 182,48.85C182.88,48.74 183.56,48.57 184.44,48.47C185.46,48.35 186.64,48.38 187.78,48.22C189.01,48.05 190.2,47.73 191.56,47.42C193.19,47.04 195.37,46.27 196.89,46.09C197.99,45.96 198.64,46.16 199.78,46.11C201.46,46.04 204.86,45.69 206,45.55C206.43,45.5 206.55,45.44 206.89,45.41C207.33,45.38 207.79,45.47 208.44,45.42C209.58,45.33 212.16,44.77 213.11,44.65C213.52,44.6 213.59,44.61 214,44.57C214.95,44.48 218.12,44.21 218.67,44.12C218.79,44.1 218.77,44.09 218.89,44.07C219.34,43.99 221.29,43.77 222.22,43.59C222.91,43.46 223.45,43.33 224,43.17C224.48,43.03 224.84,42.86 225.33,42.69C225.93,42.49 226.84,42.17 227.33,42.04C227.61,41.97 227.67,41.93 228,41.91C228.9,41.85 231.96,42.06 233.11,42.2C233.7,42.27 234.07,42.37 234.44,42.45C234.7,42.51 234.83,42.58 235.11,42.62C235.56,42.69 236.37,42.75 236.89,42.72C237.3,42.7 237.61,42.62 238,42.55C238.42,42.47 238.87,42.33 239.33,42.28C239.83,42.23 240.89,42.25 240.89,42.25C240.89,42.25 240.89,42.25 240.89,42.25C240.89,42.25 243.36,41.5 244.22,41.26C244.77,41.11 245.11,40.96 245.56,40.9C246,40.84 246.57,40.9 246.89,40.88C247.08,40.87 247.21,40.85 247.33,40.83C247.42,40.82 247.45,40.83 247.56,40.8C247.94,40.7 249.25,40.16 250,39.88C250.64,39.64 251.18,39.41 251.78,39.22C252.37,39.03 253.11,38.85 253.56,38.75C253.83,38.69 253.99,38.69 254.22,38.64C254.5,38.58 254.72,38.49 255.11,38.37C255.87,38.13 257.68,37.49 258.44,37.28C258.83,37.17 259,37.14 259.33,37.07C259.73,36.98 260.17,36.92 260.67,36.81C261.32,36.67 262.25,36.48 262.89,36.3C263.39,36.16 263.86,36.01 264.22,35.85C264.49,35.73 264.69,35.59 264.89,35.49C265.05,35.41 265.14,35.38 265.33,35.29C265.69,35.12 266.32,34.82 266.89,34.57C267.56,34.28 268.35,34.03 269.11,33.67C269.97,33.27 271.01,32.64 271.78,32.25C272.36,31.96 272.83,31.76 273.33,31.53C273.79,31.32 274.41,31.03 274.67,30.92C274.77,30.88 274.82,30.85 274.89,30.83C274.96,30.81 275.02,30.81 275.11,30.79C275.23,30.76 275.39,30.7 275.56,30.66C275.76,30.61 276,30.56 276.22,30.52C276.44,30.47 276.63,30.43 276.89,30.39C277.26,30.33 277.74,30.25 278.22,30.2Q278.77,30.14 280,30.06" style="vector-effect: non-scaling-stroke; fill: none; stroke: rgb(0, 180, 219); stroke-opacity: 1; stroke-width: 5px; opacity: 1;"/></g><g class="points"/><g class="text"/></g><g class="trace scatter trace387e28" style="stroke-miterlimit: 2; opacity: 1;"><g class="fills"/><g class="errorbars"/><g class="lines"><path class="js-line" d="M29.78,43.45Q31.23,39.97 32.44,37.99C34.07,35.31 37.67,30.57 39.11,29.1C39.67,28.53 39.97,28.44 40.44,28.06C40.99,27.62 41.61,27.17 42.22,26.63C42.93,26.01 43.59,25.35 44.44,24.52C45.63,23.37 47.77,21.18 48.67,20.35C49.07,19.98 49.31,19.78 49.56,19.58C49.73,19.45 49.81,19.41 50,19.26C50.4,18.94 51.28,18.07 51.78,17.67C52.12,17.4 52.24,17.18 52.67,17.03C53.44,16.76 55.1,16.92 56.22,16.81C57.23,16.71 58.7,16.52 59.11,16.42C59.23,16.39 59.21,16.38 59.33,16.34C59.8,16.17 62.17,15.34 62.89,15.13C63.2,15.04 63.3,15.05 63.56,14.96C63.97,14.82 64.75,14.42 65.11,14.28C65.3,14.21 65.33,14.2 65.56,14.13C66.29,13.92 69.2,13.28 70.22,12.99C70.72,12.85 71,12.69 71.33,12.63C71.58,12.58 71.69,12.62 72,12.58C72.75,12.48 74.9,12.08 75.78,11.82C76.27,11.67 76.44,11.49 76.89,11.37C77.54,11.21 78.42,11.21 79.33,11.09C80.5,10.94 81.98,10.51 83.33,10.53C84.72,10.55 86.6,11.09 87.56,11.23C88.05,11.3 88.23,11.33 88.67,11.36C89.32,11.4 90.1,11.28 91.11,11.4C92.83,11.61 98,13 98,13C98,13 98,13 98,13C98,13 102.67,14.19 102.67,14.19C102.67,14.19 102.67,14.19 102.67,14.19C102.67,14.19 103.13,14.32 103.56,14.46C104.75,14.84 107.95,15.76 110.22,16.64C112.69,17.6 115.48,19.22 117.78,20.09C119.62,20.78 121.8,21.42 122.89,21.63C123.39,21.72 123.48,21.7 124,21.72C125.17,21.77 128.19,21.87 129.78,21.72C130.91,21.61 131.93,21.2 132.67,21.18C133.13,21.17 133.29,21.25 133.78,21.34C134.77,21.52 137.12,22.1 138.22,22.29C138.87,22.4 139.12,22.37 139.78,22.48C140.92,22.68 142.72,23.05 144.44,23.55C146.67,24.2 150.28,25.67 152,26.24C152.88,26.53 153.38,26.65 154,26.85C154.55,27.03 154.96,27.37 155.56,27.39C156.37,27.42 157.81,26.78 158.44,26.63C158.74,26.56 158.82,26.56 159.11,26.48C159.67,26.33 160.72,25.92 161.56,25.68C162.42,25.44 163.19,25.32 164.22,25.04C165.7,24.64 168.37,23.72 169.56,23.41C170.15,23.26 170.26,23.26 170.89,23.12C172.41,22.78 176.62,21.84 178.67,21.31C180.02,20.96 180.97,20.56 182,20.36C182.87,20.19 183.56,20.13 184.44,20.08C185.46,20.02 186.64,19.96 187.78,20.05C189.01,20.15 190.2,20.39 191.56,20.71C193.2,21.1 195.37,22.2 196.89,22.33C197.99,22.43 198.63,22.09 199.78,21.98C201.46,21.82 204.86,21.58 206,21.52C206.43,21.5 206.55,21.53 206.89,21.49C207.34,21.44 207.78,21.26 208.44,21.19C209.57,21.06 212.16,21.1 213.11,21.05C213.52,21.03 213.59,20.99 214,20.98C214.95,20.97 218.11,21.17 218.67,21.21C218.79,21.22 218.77,21.22 218.89,21.23C219.34,21.27 221.28,21.37 222.22,21.46C222.91,21.53 223.45,21.59 224,21.68C224.48,21.76 224.85,21.81 225.33,21.94C225.93,22.1 226.84,22.44 227.33,22.6C227.61,22.7 227.67,22.71 228,22.83C228.91,23.16 231.95,24.42 233.11,24.78C233.69,24.96 234.07,25.02 234.44,25.11C234.7,25.18 234.83,25.25 235.11,25.29C235.56,25.36 236.37,25.29 236.89,25.34C237.31,25.38 237.62,25.42 238,25.53C238.43,25.66 238.87,25.89 239.33,26.12C239.83,26.37 240.89,26.99 240.89,26.99C240.89,26.99 240.89,26.99 240.89,26.99C240.89,26.99 243.36,27.83 244.22,28.16C244.77,28.37 245.11,28.55 245.56,28.72C246,28.89 246.57,29.07 246.89,29.18C247.08,29.24 247.21,29.28 247.33,29.32C247.42,29.35 247.44,29.36 247.56,29.4C247.94,29.53 249.24,30.01 250,30.2C250.63,30.36 251.19,30.39 251.78,30.5C252.37,30.61 253.11,30.76 253.56,30.86C253.83,30.92 253.98,30.98 254.22,31.01C254.49,31.05 254.72,31.02 255.11,31.06C255.87,31.15 257.69,31.48 258.44,31.64C258.83,31.72 259,31.8 259.33,31.86C259.73,31.93 260.17,31.95 260.67,32.01C261.32,32.09 262.25,32.15 262.89,32.28C263.39,32.39 263.85,32.59 264.22,32.68C264.48,32.74 264.69,32.77 264.89,32.8C265.05,32.82 265.14,32.81 265.33,32.85C265.69,32.92 266.32,33.13 266.89,33.29C267.57,33.48 268.34,33.66 269.11,33.94C269.97,34.25 271,34.87 271.78,35.09C272.35,35.25 272.84,35.2 273.33,35.31C273.8,35.42 274.41,35.64 274.67,35.73C274.78,35.77 274.82,35.8 274.89,35.82C274.96,35.84 275.02,35.82 275.11,35.84C275.23,35.86 275.39,35.93 275.56,35.97C275.76,36.01 276,36.02 276.22,36.06C276.44,36.1 276.63,36.16 276.89,36.23C277.26,36.32 277.74,36.5 278.22,36.57Q278.77,36.65 280,36.66" style="vector-effect: non-scaling-stroke; fill: none; stroke: rgb(138, 44, 81); stroke-opacity: 1; stroke-width: 5px; opacity: 1;"/></g><g class="points"/><g class="text"/></g><g class="trace scatter trace8b39f5" style="stroke-miterlimit: 2; opacity: 1;"><g class="fills"/><g class="errorbars"/><g class="lines"><path class="js-line" d="M83.33,70.54Q86.57,67.55 87.56,66.92C88.02,66.63 88.22,66.56 88.67,66.42C89.32,66.22 90.09,66.18 91.11,65.96C92.83,65.59 98,64.27 98,64.27C98,64.27 98,64.27 98,64.27C98,64.27 102.67,63.57 102.67,63.57C102.67,63.57 102.67,63.57 102.67,63.57C102.67,63.57 103.12,63.7 103.56,63.72C104.75,63.78 107.95,63.6 110.22,63.23C112.68,62.83 115.51,61.95 117.78,61.32C119.66,60.8 121.8,59.91 122.89,59.78C123.39,59.72 123.49,59.83 124,59.85C125.17,59.89 128.18,59.96 129.78,59.91C130.91,59.87 131.93,59.78 132.67,59.7C133.13,59.65 133.29,59.62 133.78,59.54C134.77,59.38 137.12,58.99 138.22,58.77C138.87,58.64 139.12,58.52 139.78,58.42C140.91,58.26 142.7,58.27 144.44,58.12C146.66,57.93 150.29,57.5 152,57.33C152.88,57.24 153.38,57.13 154,57.15C154.55,57.17 154.96,57.34 155.56,57.39C156.37,57.46 157.82,57.42 158.44,57.46C158.74,57.48 158.82,57.52 159.11,57.53C159.67,57.54 160.73,57.39 161.56,57.39C162.43,57.39 163.18,57.55 164.22,57.55C165.69,57.55 168.37,57.25 169.56,57.25C170.15,57.25 170.26,57.29 170.89,57.32C172.41,57.39 176.62,57.53 178.67,57.58C180.01,57.61 180.98,57.55 182,57.62C182.88,57.68 183.56,57.93 184.44,57.95C185.46,57.98 186.63,57.7 187.78,57.69C189,57.68 190.19,57.95 191.56,57.91C193.19,57.86 195.38,57.28 196.89,57.26C198,57.25 198.63,57.56 199.78,57.55C201.46,57.54 204.87,57.1 206,56.87C206.44,56.78 206.55,56.7 206.89,56.61C207.33,56.5 207.78,56.35 208.44,56.27C209.57,56.13 212.16,56.15 213.11,56.1C213.52,56.08 213.59,56.07 214,56.04C214.95,55.98 218.11,55.8 218.67,55.77C218.79,55.76 218.77,55.77 218.89,55.76C219.34,55.73 221.29,55.6 222.22,55.46C222.91,55.36 223.45,55.18 224,55.09C224.47,55.02 224.84,55.02 225.33,54.95C225.93,54.87 226.84,54.71 227.33,54.61C227.61,54.55 227.67,54.49 228,54.46C228.9,54.38 231.96,54.63 233.11,54.68C233.7,54.7 234.07,54.7 234.44,54.73C234.7,54.75 234.83,54.81 235.11,54.8C235.56,54.79 236.37,54.61 236.89,54.52C237.3,54.45 237.61,54.37 238,54.32C238.42,54.27 238.87,54.28 239.33,54.23C239.83,54.18 240.89,54.01 240.89,54.01C240.89,54.01 240.89,54.01 240.89,54.01C240.89,54.01 243.35,53.28 244.22,53.14C244.76,53.05 245.12,53.11 245.56,53.06C246.01,53.01 246.57,52.89 246.89,52.85C247.08,52.83 247.21,52.81 247.33,52.81C247.42,52.81 247.44,52.83 247.56,52.82C247.94,52.8 249.25,52.5 250,52.45C250.64,52.4 251.19,52.5 251.78,52.46C252.37,52.42 253.11,52.28 253.56,52.23C253.83,52.2 253.98,52.21 254.22,52.18C254.5,52.14 254.72,52.06 255.11,52.02C255.86,51.93 257.69,51.95 258.44,51.86C258.83,51.82 259,51.75 259.33,51.7C259.73,51.64 260.17,51.57 260.67,51.51C261.32,51.44 262.24,51.35 262.89,51.33C263.39,51.32 263.85,51.36 264.22,51.36C264.48,51.36 264.69,51.35 264.89,51.36C265.05,51.37 265.14,51.4 265.33,51.4C265.69,51.41 266.32,51.36 266.89,51.32C267.57,51.28 268.34,51.19 269.11,51.15C269.96,51.1 271.01,51.02 271.78,51.05C272.37,51.07 272.83,51.22 273.33,51.24C273.79,51.26 274.41,51.21 274.67,51.2C274.77,51.2 274.82,51.19 274.89,51.19C274.96,51.19 275.02,51.2 275.11,51.21C275.23,51.22 275.4,51.23 275.56,51.26C275.76,51.29 276,51.37 276.22,51.4C276.44,51.43 276.63,51.42 276.89,51.45C277.26,51.49 277.74,51.57 278.22,51.61Q278.77,51.66 280,51.7" style="vector-effect: non-scaling-stroke; fill: none; stroke: rgb(153, 51, 0); stroke-opacity: 1; stroke-width: 5px; opacity: 1;"/></g><g class="points"/><g class="text"/></g><g class="trace scatter trace6ffeee" style="stroke-miterlimit: 2; opacity: 1;"><g class="fills"/><g class="errorbars"/><g class="lines"><path class="js-line" d="M0,5.39Q2.85,5.71 4.22,5.48C5.59,5.25 7.1,4.28 8.22,4.01C8.99,3.82 9.8,3.65 10.22,3.75C10.44,3.8 10.43,3.91 10.67,4.07C11.58,4.67 15.79,7.43 17.33,8.11C18.08,8.44 18.46,8.39 19.11,8.64C19.97,8.97 21.06,9.47 22,10.03C22.99,10.62 23.77,11.45 24.89,12.12C26.28,12.95 28.44,13.65 29.78,14.52C30.85,15.21 31.37,15.79 32.44,16.73C34.18,18.26 37.69,21.98 39.11,22.98C39.68,23.38 39.96,23.43 40.44,23.66C40.99,23.92 41.62,24.1 42.22,24.47C42.95,24.91 43.56,25.61 44.44,26.22C45.61,27.03 47.77,28.4 48.67,28.82C49.06,29 49.32,29 49.56,29.11C49.74,29.19 49.8,29.26 50,29.36C50.39,29.55 51.29,29.87 51.78,30.11C52.13,30.28 52.27,30.4 52.67,30.6C53.45,30.99 55.11,31.59 56.22,32.15C57.25,32.67 58.69,33.59 59.11,33.8C59.22,33.86 59.21,33.84 59.33,33.9C59.8,34.14 62.17,35.54 62.89,35.93C63.2,36.1 63.28,36.18 63.56,36.28C63.96,36.42 64.75,36.49 65.11,36.57C65.31,36.61 65.33,36.63 65.56,36.68C66.3,36.85 69.21,37.41 70.22,37.74C70.73,37.9 71,38.14 71.33,38.21C71.58,38.26 71.69,38.16 72,38.22C72.75,38.36 74.89,39.3 75.78,39.6C76.26,39.76 76.46,39.76 76.89,39.94C77.56,40.22 78.4,40.86 79.33,41.28C80.48,41.8 82.02,42.08 83.33,42.75C84.77,43.49 86.59,45.07 87.56,45.62C88.04,45.89 88.22,45.97 88.67,46.14C89.32,46.38 90.09,46.54 91.11,46.84C92.83,47.35 98,48.94 98,48.94C98,48.94 98,48.94 98,48.94C98,48.94 102.67,50.1 102.67,50.1C102.67,50.1 102.67,50.1 102.67,50.1C102.67,50.1 103.13,50.09 103.56,50.09C104.75,50.08 107.93,50.14 110.22,50.06C112.66,49.98 115.51,49.53 117.78,49.59C119.65,49.64 121.81,50.16 122.89,50.18C123.39,50.19 123.49,50.08 124,50.1C125.18,50.14 128.19,50.66 129.78,50.96C130.91,51.17 131.93,51.58 132.67,51.62C133.12,51.65 133.29,51.56 133.78,51.5C134.77,51.39 137.12,50.97 138.22,50.95C138.87,50.94 139.12,51.09 139.78,51.1C140.92,51.12 142.7,50.87 144.44,50.84C146.66,50.8 150.29,50.84 152,50.96C152.88,51.02 153.37,51.16 154,51.21C154.55,51.25 154.96,51.18 155.56,51.24C156.38,51.32 157.81,51.65 158.44,51.74C158.74,51.78 158.82,51.8 159.11,51.81C159.67,51.83 160.73,51.78 161.56,51.69C162.43,51.6 163.18,51.34 164.22,51.24C165.69,51.1 168.38,51.2 169.56,51.11C170.15,51.06 170.26,51.01 170.89,50.93C172.41,50.74 176.63,49.89 178.67,50.08C180.03,50.21 180.97,50.85 182,51.09C182.87,51.29 183.56,51.34 184.44,51.49C185.47,51.67 186.63,52.03 187.78,52.09C189,52.15 190.19,51.76 191.56,51.79C193.19,51.83 195.38,52.35 196.89,52.48C198,52.58 198.64,52.53 199.78,52.62C201.46,52.75 204.86,53.19 206,53.31C206.43,53.36 206.55,53.37 206.89,53.4C207.34,53.44 207.78,53.52 208.44,53.55C209.58,53.61 212.16,53.55 213.11,53.59C213.52,53.61 213.59,53.62 214,53.65C214.95,53.73 218.11,54.09 218.67,54.12C218.79,54.13 218.77,54.12 218.89,54.12C219.34,54.12 221.28,54.12 222.22,54.16C222.91,54.19 223.45,54.26 224,54.29C224.48,54.31 224.84,54.29 225.33,54.32C225.93,54.35 226.84,54.44 227.33,54.48C227.61,54.5 227.67,54.53 228,54.54C228.91,54.56 231.96,54.3 233.11,54.33C233.7,54.35 234.07,54.41 234.44,54.46C234.7,54.49 234.84,54.51 235.11,54.57C235.56,54.67 236.37,54.93 236.89,55.07C237.3,55.18 237.61,55.28 238,55.37C238.42,55.47 238.87,55.54 239.33,55.64C239.83,55.75 240.89,55.98 240.89,55.98C240.89,55.98 240.89,55.98 240.89,55.98C240.89,55.98 243.35,56.89 244.22,57.16C244.76,57.33 245.11,57.42 245.56,57.51C246,57.6 246.57,57.69 246.89,57.71C247.08,57.72 247.21,57.72 247.33,57.71C247.42,57.7 247.44,57.69 247.56,57.68C247.94,57.65 249.25,57.66 250,57.59C250.64,57.53 251.19,57.44 251.78,57.34C252.37,57.24 253.11,57.09 253.56,57.01C253.83,56.96 253.98,56.93 254.22,56.91C254.49,56.89 254.72,56.92 255.11,56.9C255.87,56.86 257.68,56.62 258.44,56.57C258.83,56.55 259,56.55 259.33,56.55C259.73,56.55 260.17,56.57 260.67,56.6C261.32,56.64 262.24,56.75 262.89,56.76C263.39,56.77 263.85,56.72 264.22,56.71C264.48,56.71 264.69,56.71 264.89,56.71C265.05,56.71 265.14,56.7 265.33,56.7C265.69,56.7 266.32,56.73 266.89,56.74C267.56,56.75 268.34,56.79 269.11,56.78C269.96,56.77 271.01,56.7 271.78,56.68C272.37,56.67 272.83,56.66 273.33,56.67C273.79,56.68 274.41,56.71 274.67,56.73C274.77,56.74 274.82,56.75 274.89,56.75C274.96,56.75 275.02,56.75 275.11,56.75C275.23,56.75 275.4,56.75 275.56,56.74C275.76,56.72 276,56.67 276.22,56.64C276.44,56.61 276.63,56.57 276.89,56.55C277.26,56.52 277.75,56.53 278.22,56.49Q278.77,56.45 280,56.3" style="vector-effect: non-scaling-stroke; fill: none; stroke: rgb(97, 162, 41); stroke-opacity: 1; stroke-width: 5px; opacity: 1;"/></g><g class="points"/><g class="text"/></g></g></g><g class="overplot"/><path class="xlines-above crisp" d="M0,0" style="fill: none;"/><path class="ylines-above crisp" d="M0,0" style="fill: none;"/><g class="overlines-above"/><g class="xaxislayer-above"/><g class="yaxislayer-above"/><g class="overaxes-above"/></g></g><g class="polarlayer"/><g class="smithlayer"/><g class="ternarylayer"/><g class="geolayer"/><g class="funnelarealayer"/><g class="pielayer"/><g class="iciclelayer"/><g class="treemaplayer"/><g class="sunburstlayer"/><g class="glimages"/><defs id="topdefs-590ba0"><g class="clips"/></defs><g class="layer-above"><g class="imagelayer"/><g class="shapelayer"/></g><g class="infolayer"><g class="g-gtitle"><text class="gtitle" x="15" y="25" text-anchor="start" dy="0em" style="font-family: Ubuntu, verdana, arial, sans-serif; font-size: 16px; fill: rgb(233, 84, 32); opacity: 1; font-weight: normal; white-space: pre;">NRSR 2020-2023</text></g><g class="g-xtitle"/><g class="g-ytitle"/></g></svg>