<svg class="main-svg" xmlns="http://www.w3.org/2000/svg" xmlns:xlink="http://www.w3.org/1999/xlink" width="300" height="135" style="" viewBox="0 0 300 135"><rect x="0" y="0" width="300" height="135" style="fill: rgb(255, 255, 255); fill-opacity: 1;"/><defs id="defs-69adf3"><g class="clips"><clipPath id="clip69adf3xyplot" class="plotclip"><rect width="280" height="75"/></clipPath><clipPath class="axesclip" id="clip69adf3x"><rect x="10" y="0" width="280" height="135"/></clipPath><clipPath class="axesclip" id="clip69adf3y"><rect x="0" y="50" width="300" height="75"/></clipPath><clipPath class="axesclip" id="clip69adf3xy"><rect x="10" y="50" width="280" height="75"/></clipPath></g><g class="gradients"/><g class="patterns"/></defs><g class="bglayer"/><g class="layer-below"><g class="imagelayer"/><g class="shapelayer"/></g><g class="cartesianlayer"><g class="subplot xy"><g class="layer-subplot"><g class="shapelayer"/><g class="imagelayer"/></g><g class="minor-gridlayer"><g class="x"/><g class="y"/></g><g class="gridlayer"><g class="x"><path class="xgrid crisp" transform="translate(33.53,0)" d="M0,50v75" style="stroke: rgb(235, 240, 248); stroke-opacity: 1; stroke-width: 1px;"/><path class="xgrid crisp" transform="translate(104.12,0)" d="M0,50v75" style="stroke: rgb(235, 240, 248); stroke-opacity: 1; stroke-width: 1px;"/><path class="xgrid crisp" transform="translate(177.06,0)" d="M0,50v75" style="stroke: rgb(235, 240, 248); stroke-opacity: 1; stroke-width: 1px;"/><path class="xgrid crisp" transform="translate(250,0)" d="M0,50v75" style="stroke: rgb(235, 240, 248); stroke-opacity: 1; stroke-width: 1px;"/></g><g class="y"><path class="ygrid crisp" transform="translate(0,108.99000000000001)" d="M10,0h280" style="stroke: rgb(235, 240, 248); stroke-opacity: 1; stroke-width: 1px;"/><path class="ygrid crisp" transform="translate(0,92.97999999999999)" d="M10,0h280" style="stroke: rgb(235, 240, 248); stroke-opacity: 1; stroke-width: 1px;"/><path class="ygrid crisp" transform="translate(0,76.97)" d="M10,0h280" style="stroke: rgb(235, 240, 248); stroke-opacity: 1; stroke-width: 1px;"/><path class="ygrid crisp" transform="translate(0,60.96)" d="M10,0h280" style="stroke: rgb(235, 240, 248); stroke-opacity: 1; stroke-width: 1px;"/></g></g><g class="zerolinelayer"><path class="yzl zl crisp" transform="translate(0,125)" d="M10,0h280" style="stroke: rgb(235, 240, 248); stroke-opacity: 1; stroke-width: 2px;"/></g><path class="xlines-below"/><path class="ylines-below"/><g class="overlines-below"/><g class="xaxislayer-below"/><g class="yaxislayer-below"/><g class="overaxes-below"/><g class="plot" transform="translate(10,50)" clip-path="url(#clip69adf3xyplot)"><g class="scatterlayer mlayer"><g class="trace scatter trace33fbc3" style="stroke-miterlimit: 2; opacity: 1;"><g class="fills"/><g class="errorbars"/><g class="lines"><path class="js-line" d="M0,17.68L4.71,19.12L7.06,18.64L25.88,18.8L28.24,20.56L56.47,22.32L58.82,21.84L63.53,21.36L65.88,24.08L68.24,23.6L70.59,24.88L87.06,24.4L89.41,26.01L94.12,27.13L96.47,27.29L115.29,27.45L117.65,27.45L122.35,27.29L124.71,24.88L129.41,23.6L131.76,23.12L143.53,22.32L145.88,21.52L164.71,20.56L167.06,19.92L171.76,19.92L174.12,18.48L178.82,18.48L181.18,14L190.59,5.67L192.94,5.67L207.06,6.31L209.41,7.11L218.82,7.27L221.18,3.75L230.59,6.15L232.94,6.15L237.65,7.11L240,7.75L242.35,8.87L247.06,9.67L270.59,8.71L272.94,7.27L280,7.27" style="vector-effect: none; fill: none; stroke: rgb(238, 58, 67); stroke-opacity: 1; stroke-width: 5px; opacity: 1;"/></g><g class="points"/><g class="text"/></g><g class="trace scatter trace5556de" style="stroke-miterlimit: 2; opacity: 1;"><g class="fills"/><g class="errorbars"/><g class="lines"><path class="js-line" d="M0,43.46L4.71,40.1L7.06,38.17L9.41,32.25L11.76,32.09L14.12,33.37L16.47,32.09L25.88,31.77L28.24,26.33L30.59,23.92L32.94,25.04L37.65,23.44L40,23.28L42.35,24.08L44.71,23.28L63.53,23.28L65.88,21.84L68.24,21.04L70.59,18.64L89.41,19.12L91.76,20.72L112.94,22.8L115.29,22.8L129.41,23.6L131.76,23.6L143.53,23.12L145.88,22L150.59,21.84L152.94,22.16L162.35,22.48L164.71,22.48L178.82,23.28L181.18,25.04L190.59,24.88L192.94,24.88L195.29,24.88L197.65,21.2L207.06,21.04L209.41,19.12L218.82,18.8L221.18,22.48L230.59,24.56L232.94,24.56L240,23.44L242.35,21.68L251.76,20.4L254.12,20.4L270.59,20.88L272.94,21.84L280,21.84" style="vector-effect: none; fill: none; stroke: rgb(0, 180, 219); stroke-opacity: 1; stroke-width: 5px; opacity: 1;"/></g><g class="points"/><g class="text"/></g><g class="trace scatter trace2ec807" style="stroke-miterlimit: 2; opacity: 1;"><g class="fills"/><g class="errorbars"/><g class="lines"><path class="js-line" d="M0,12.08L2.35,12.08L4.71,16.24L7.06,18.64L9.41,24.08L11.76,23.92L14.12,21.2L16.47,23.92L18.82,23.92L25.88,24.08L28.24,27.29L30.59,29.21L32.94,27.77L40,28.25L42.35,27.61L49.41,28.25L51.76,28.25L63.53,28.73L65.88,27.29L70.59,28.25L72.94,28.25L84.71,28.09L87.06,29.37L91.76,23.12L94.12,22.48L110.59,20.24L112.94,20.24L122.35,17.68L124.71,19.92L131.76,21.2L134.12,21.2L143.53,22.32L145.88,24.08L150.59,24.56L152.94,24.4L169.41,24.4L171.76,24.4L178.82,25.04L181.18,27.45L190.59,34.33L192.94,34.33L195.29,34.33L197.65,37.37L207.06,37.69L209.41,38.65L221.18,38.49L228.24,34.17L242.35,34.33L247.06,34.97L280,35.77" style="vector-effect: none; fill: none; stroke: rgb(138, 44, 81); stroke-opacity: 1; stroke-width: 5px; opacity: 1;"/></g><g class="points"/><g class="text"/></g><g class="trace scatter trace529e89" style="stroke-miterlimit: 2; opacity: 1;"><g class="fills"/><g class="errorbars"/><g class="lines"><path class="js-line" d="M0,66.67L2.35,66.67L4.71,64.59L11.76,65.23L14.12,66.35L18.82,65.23L21.18,65.23L56.47,66.19L58.82,66.51L68.24,67.15L70.59,68.12L108.24,69.08L110.59,69.4L115.29,70.36L117.65,71L143.53,72.12L145.88,72.28L181.18,73.4" style="vector-effect: none; fill: none; stroke: rgb(1, 27, 58); stroke-opacity: 1; stroke-width: 5px; opacity: 1;"/></g><g class="points"/><g class="text"/></g></g></g><g class="overplot"/><path class="xlines-above crisp" d="M0,0" style="fill: none;"/><path class="ylines-above crisp" d="M0,0" style="fill: none;"/><g class="overlines-above"/><g class="xaxislayer-above"/><g class="yaxislayer-above"/><g class="overaxes-above"/></g></g><g class="polarlayer"/><g class="smithlayer"/><g class="ternarylayer"/><g class="geolayer"/><g class="funnelarealayer"/><g class="pielayer"/><g class="iciclelayer"/><g class="treemaplayer"/><g class="sunburstlayer"/><g class="glimages"/><defs id="topdefs-69adf3"><g class="clips"/></defs><g class="layer-above"><g class="imagelayer"/><g class="shapelayer"/></g><g class="infolayer"><g class="g-gtitle"><text class="gtitle" x="15" y="25" text-anchor="start" dy="0em" style="font-family: Ubuntu, verdana, arial, sans-serif; font-size: 16px; fill: rgb(233, 84, 32); opacity: 1; font-weight: normal; white-space: pre;">Premiér/ka 2023</text></g><g class="g-xtitle"/><g class="g-ytitle"/></g></svg>