<svg class="main-svg" xmlns="http://www.w3.org/2000/svg" xmlns:xlink="http://www.w3.org/1999/xlink" width="300" height="135" style="" viewBox="0 0 300 135"><rect x="0" y="0" width="300" height="135" style="fill: rgb(255, 255, 255); fill-opacity: 1;"/><defs id="defs-d52100"><g class="clips"><clipPath id="clipd52100xyplot" class="plotclip"><rect width="280" height="75"/></clipPath><clipPath class="axesclip" id="clipd52100x"><rect x="10" y="0" width="280" height="135"/></clipPath><clipPath class="axesclip" id="clipd52100y"><rect x="0" y="50" width="300" height="75"/></clipPath><clipPath class="axesclip" id="clipd52100xy"><rect x="10" y="50" width="280" height="75"/></clipPath></g><g class="gradients"/><g class="patterns"/></defs><g class="bglayer"/><g class="layer-below"><g class="imagelayer"/><g class="shapelayer"/></g><g class="cartesianlayer"><g class="subplot xy"><g class="layer-subplot"><g class="shapelayer"/><g class="imagelayer"/></g><g class="minor-gridlayer"><g class="x"/><g class="y"/></g><g class="gridlayer"><g class="x"><path class="xgrid crisp" transform="translate(32.22,0)" d="M0,50v75" style="stroke: rgb(235, 240, 248); stroke-opacity: 1; stroke-width: 1px;"/><path class="xgrid crisp" transform="translate(98.89,0)" d="M0,50v75" style="stroke: rgb(235, 240, 248); stroke-opacity: 1; stroke-width: 1px;"/><path class="xgrid crisp" transform="translate(167.78,0)" d="M0,50v75" style="stroke: rgb(235, 240, 248); stroke-opacity: 1; stroke-width: 1px;"/><path class="xgrid crisp" transform="translate(236.67,0)" d="M0,50v75" style="stroke: rgb(235, 240, 248); stroke-opacity: 1; stroke-width: 1px;"/></g><g class="y"><path class="ygrid crisp" transform="translate(0,108.99000000000001)" d="M10,0h280" style="stroke: rgb(235, 240, 248); stroke-opacity: 1; stroke-width: 1px;"/><path class="ygrid crisp" transform="translate(0,92.97999999999999)" d="M10,0h280" style="stroke: rgb(235, 240, 248); stroke-opacity: 1; stroke-width: 1px;"/><path class="ygrid crisp" transform="translate(0,76.97)" d="M10,0h280" style="stroke: rgb(235, 240, 248); stroke-opacity: 1; stroke-width: 1px;"/><path class="ygrid crisp" transform="translate(0,60.96)" d="M10,0h280" style="stroke: rgb(235, 240, 248); stroke-opacity: 1; stroke-width: 1px;"/></g></g><g class="zerolinelayer"><path class="yzl zl crisp" transform="translate(0,125)" d="M10,0h280" style="stroke: rgb(235, 240, 248); stroke-opacity: 1; stroke-width: 2px;"/></g><path class="xlines-below"/><path class="ylines-below"/><g class="overlines-below"/><g class="xaxislayer-below"/><g class="yaxislayer-below"/><g class="overaxes-below"/><g class="plot" transform="translate(10,50)" clip-path="url(#clipd52100xyplot)"><g class="scatterlayer mlayer"><g class="trace scatter trace17c457" style="stroke-miterlimit: 2; opacity: 1;"><g class="fills"/><g class="errorbars"/><g class="lines"><path class="js-line" d="M0,17.68L4.44,19.12L6.67,18.64L24.44,18.8L26.67,20.56L53.33,22.32L55.56,21.84L60,21.36L62.22,24.08L64.44,23.6L66.67,24.88L82.22,24.4L84.44,26.01L88.89,27.13L91.11,27.29L108.89,27.45L111.11,27.45L115.56,27.29L117.78,24.88L122.22,23.6L124.44,23.12L135.56,22.32L137.78,21.52L155.56,20.56L157.78,19.92L162.22,19.92L164.44,18.48L168.89,18.48L171.11,14L180,5.67L182.22,5.67L195.56,6.31L197.78,7.11L206.67,7.27L208.89,3.75L217.78,6.15L220,6.15L224.44,7.11L226.67,7.75L228.89,8.87L233.33,9.67L255.56,8.71L257.78,7.27L266.67,6.79L268.89,3.91L277.78,4.39L280,4.39" style="vector-effect: none; fill: none; stroke: rgb(238, 58, 67); stroke-opacity: 1; stroke-width: 5px; opacity: 1;"/></g><g class="points"/><g class="text"/></g><g class="trace scatter tracebe9af0" style="stroke-miterlimit: 2; opacity: 1;"><g class="fills"/><g class="errorbars"/><g class="lines"><path class="js-line" d="M0,43.46L4.44,40.1L6.67,38.17L8.89,32.25L11.11,32.09L13.33,33.37L15.56,32.09L24.44,31.77L26.67,26.33L28.89,23.92L31.11,25.04L35.56,23.44L37.78,23.28L40,24.08L42.22,23.28L60,23.28L62.22,21.84L64.44,21.04L66.67,18.64L84.44,19.12L86.67,20.72L106.67,22.8L108.89,22.8L122.22,23.6L124.44,23.6L135.56,23.12L137.78,22L142.22,21.84L144.44,22.16L153.33,22.48L155.56,22.48L168.89,23.28L171.11,25.04L180,24.88L182.22,24.88L184.44,24.88L186.67,21.2L195.56,21.04L197.78,19.12L206.67,18.8L208.89,22.48L217.78,24.56L220,24.56L226.67,23.44L228.89,21.68L237.78,20.4L240,20.4L255.56,20.88L257.78,21.84L266.67,22L268.89,23.28L280,23.92" style="vector-effect: none; fill: none; stroke: rgb(0, 180, 219); stroke-opacity: 1; stroke-width: 5px; opacity: 1;"/></g><g class="points"/><g class="text"/></g><g class="trace scatter trace16476e" style="stroke-miterlimit: 2; opacity: 1;"><g class="fills"/><g class="errorbars"/><g class="lines"><path class="js-line" d="M0,12.08L2.22,12.08L4.44,16.24L6.67,18.64L8.89,24.08L11.11,23.92L13.33,21.2L15.56,23.92L17.78,23.92L24.44,24.08L26.67,27.29L28.89,29.21L31.11,27.77L37.78,28.25L40,27.61L46.67,28.25L48.89,28.25L60,28.73L62.22,27.29L66.67,28.25L68.89,28.25L80,28.09L82.22,29.37L86.67,23.12L88.89,22.48L104.44,20.24L106.67,20.24L115.56,17.68L117.78,19.92L124.44,21.2L126.67,21.2L135.56,22.32L137.78,24.08L142.22,24.56L144.44,24.4L160,24.4L162.22,24.4L168.89,25.04L171.11,27.45L180,34.33L182.22,34.33L184.44,34.33L186.67,37.37L195.56,37.69L197.78,38.65L208.89,38.49L215.56,34.17L228.89,34.33L233.33,34.97L266.67,36.09L268.89,37.69L280,36.57" style="vector-effect: none; fill: none; stroke: rgb(138, 44, 81); stroke-opacity: 1; stroke-width: 5px; opacity: 1;"/></g><g class="points"/><g class="text"/></g><g class="trace scatter tracedf3375" style="stroke-miterlimit: 2; opacity: 1;"><g class="fills"/><g class="errorbars"/><g class="lines"><path class="js-line" d="M0,66.67L2.22,66.67L4.44,64.59L11.11,65.23L13.33,66.35L17.78,65.23L20,65.23L53.33,66.19L55.56,66.51L64.44,67.15L66.67,68.12L102.22,69.08L104.44,69.4L108.89,70.36L111.11,71L135.56,72.12L137.78,72.28L171.11,73.4" style="vector-effect: none; fill: none; stroke: rgb(1, 27, 58); stroke-opacity: 1; stroke-width: 5px; opacity: 1;"/></g><g class="points"/><g class="text"/></g></g></g><g class="overplot"/><path class="xlines-above crisp" d="M0,0" style="fill: none;"/><path class="ylines-above crisp" d="M0,0" style="fill: none;"/><g class="overlines-above"/><g class="xaxislayer-above"/><g class="yaxislayer-above"/><g class="overaxes-above"/></g></g><g class="polarlayer"/><g class="smithlayer"/><g class="ternarylayer"/><g class="geolayer"/><g class="funnelarealayer"/><g class="pielayer"/><g class="iciclelayer"/><g class="treemaplayer"/><g class="sunburstlayer"/><g class="glimages"/><defs id="topdefs-d52100"><g class="clips"/></defs><g class="layer-above"><g class="imagelayer"/><g class="shapelayer"/></g><g class="infolayer"><g class="g-gtitle"><text class="gtitle" x="15" y="25" text-anchor="start" dy="0em" style="font-family: Ubuntu, verdana, arial, sans-serif; font-size: 16px; fill: rgb(233, 84, 32); opacity: 1; font-weight: normal; white-space: pre;">Premiér/ka 2023</text></g><g class="g-xtitle"/><g class="g-ytitle"/></g></svg>