<svg class="main-svg" xmlns="http://www.w3.org/2000/svg" xmlns:xlink="http://www.w3.org/1999/xlink" width="300" height="135" style="" viewBox="0 0 300 135"><rect x="0" y="0" width="300" height="135" style="fill: rgb(255, 255, 255); fill-opacity: 1;"/><defs id="defs-7f9077"><g class="clips"><clipPath id="clip7f9077xyplot" class="plotclip"><rect width="280" height="75"/></clipPath><clipPath class="axesclip" id="clip7f9077x"><rect x="10" y="0" width="280" height="135"/></clipPath><clipPath class="axesclip" id="clip7f9077y"><rect x="0" y="50" width="300" height="75"/></clipPath><clipPath class="axesclip" id="clip7f9077xy"><rect x="10" y="50" width="280" height="75"/></clipPath></g><g class="gradients"/><g class="patterns"/></defs><g class="bglayer"/><g class="layer-below"><g class="imagelayer"/><g class="shapelayer"/></g><g class="cartesianlayer"><g class="subplot xy"><g class="layer-subplot"><g class="shapelayer"/><g class="imagelayer"/></g><g class="minor-gridlayer"><g class="x"/><g class="y"/></g><g class="gridlayer"><g class="x"><path class="xgrid crisp" transform="translate(59.86,0)" d="M0,50v75" style="stroke: rgb(235, 240, 248); stroke-opacity: 1; stroke-width: 1px;"/><path class="xgrid crisp" transform="translate(113.56,0)" d="M0,50v75" style="stroke: rgb(235, 240, 248); stroke-opacity: 1; stroke-width: 1px;"/><path class="xgrid crisp" transform="translate(167.26,0)" d="M0,50v75" style="stroke: rgb(235, 240, 248); stroke-opacity: 1; stroke-width: 1px;"/><path class="xgrid crisp" transform="translate(220.96,0)" d="M0,50v75" style="stroke: rgb(235, 240, 248); stroke-opacity: 1; stroke-width: 1px;"/><path class="xgrid crisp" transform="translate(274.66,0)" d="M0,50v75" style="stroke: rgb(235, 240, 248); stroke-opacity: 1; stroke-width: 1px;"/></g><g class="y"><path class="ygrid crisp" transform="translate(0,106.88)" d="M10,0h280" style="stroke: rgb(235, 240, 248); stroke-opacity: 1; stroke-width: 1px;"/><path class="ygrid crisp" transform="translate(0,88.75999999999999)" d="M10,0h280" style="stroke: rgb(235, 240, 248); stroke-opacity: 1; stroke-width: 1px;"/><path class="ygrid crisp" transform="translate(0,70.64)" d="M10,0h280" style="stroke: rgb(235, 240, 248); stroke-opacity: 1; stroke-width: 1px;"/><path class="ygrid crisp" transform="translate(0,52.51)" d="M10,0h280" style="stroke: rgb(235, 240, 248); stroke-opacity: 1; stroke-width: 1px;"/></g></g><g class="zerolinelayer"><path class="yzl zl crisp" transform="translate(0,125)" d="M10,0h280" style="stroke: rgb(235, 240, 248); stroke-opacity: 1; stroke-width: 2px;"/></g><path class="xlines-below"/><path class="ylines-below"/><g class="overlines-below"/><g class="xaxislayer-below"/><g class="yaxislayer-below"/><g class="overaxes-below"/><g class="plot" transform="translate(10,50)" clip-path="url(#clip7f9077xyplot)"><g class="scatterlayer mlayer"><g class="trace scatter tracead4a95" style="stroke-miterlimit: 2; opacity: 1;"><g class="fills"/><g class="errorbars"/><g class="lines"><path class="js-line" d="M0,10.23L7.67,11.74L11.51,11.21L42.19,11.35L46.03,13.32L80.55,15.29L84.38,15.29L103.56,14.17L107.4,17.3L111.23,16.88L115.07,18.28L141.92,17.65L145.75,19.55L153.42,20.86L157.26,20.98L199.45,20.93L203.29,18.28L207.12,16.85L210.96,16.85L222.47,16.33L226.3,16.33L233.97,15.41L237.81,14.48L268.49,13.75L272.33,12.73L280,12.73" style="vector-effect: none; fill: none; stroke: rgb(238, 58, 67); stroke-opacity: 1; stroke-width: 5px; opacity: 1;"/></g><g class="points"/><g class="text"/></g><g class="trace scatter trace98d444" style="stroke-miterlimit: 2; opacity: 1;"><g class="fills"/><g class="errorbars"/><g class="lines"><path class="js-line" d="M0,39.3L7.67,35.48L11.51,33.33L15.34,26.65L19.18,26.48L23.01,27.96L26.85,26.48L42.19,26.03L46.03,19.9L49.86,17.21L53.7,18.43L61.37,16.71L65.21,16.4L69.04,17.34L72.88,16.4L103.56,16.58L107.4,14.87L111.23,13.94L115.07,11.19L145.75,11.7L149.59,13.4L164.93,15.16L168.77,15.16L176.44,15.95L180.27,15.84L233.97,16.29L237.81,15.01L245.48,14.84L249.32,15.38L264.66,15.74L268.49,15.74L280,15.8" style="vector-effect: none; fill: none; stroke: rgb(0, 180, 219); stroke-opacity: 1; stroke-width: 5px; opacity: 1;"/></g><g class="points"/><g class="text"/></g><g class="trace scatter traceab29e6" style="stroke-miterlimit: 2; opacity: 1;"><g class="fills"/><g class="errorbars"/><g class="lines"><path class="js-line" d="M0,3.75L3.84,3.75L7.67,8.44L11.51,11.21L15.34,17.38L19.18,17.18L23.01,14.08L26.85,17.18L30.68,17.18L42.19,17.38L46.03,20.97L49.86,23.18L53.7,21.54L61.37,22.09L65.21,22.13L69.04,21.46L72.88,22.13L103.56,22.51L107.4,21.04L118.9,22.07L122.74,21.88L138.08,21.88L141.92,23.36L149.59,16.3L153.42,15.56L176.44,13.07L180.27,12.95L187.95,11.92L191.78,11.01L199.45,10.15L203.29,12.58L210.96,13.55L214.79,14.07L230.14,14.07L233.97,15.41L241.64,17.91L245.48,17.74L280,17.79" style="vector-effect: none; fill: none; stroke: rgb(138, 44, 81); stroke-opacity: 1; stroke-width: 5px; opacity: 1;"/></g><g class="points"/><g class="text"/></g><g class="trace scatter tracedd801a" style="stroke-miterlimit: 2; opacity: 1;"><g class="fills"/><g class="errorbars"/><g class="lines"><path class="js-line" d="M0,65.51L3.84,65.51L7.67,63.13L19.18,63.99L23.01,65.28L30.68,63.99L34.52,63.99L92.05,64.97L95.89,65.53L111.23,66.21L115.07,67.25L176.44,68.38L180.27,68.71L187.95,69.72L191.78,70.39L230.14,71.53L233.97,71.67L256.99,72.28L260.82,72.28L280,72.47" style="vector-effect: none; fill: none; stroke: rgb(1, 27, 58); stroke-opacity: 1; stroke-width: 5px; opacity: 1;"/></g><g class="points"/><g class="text"/></g></g></g><g class="overplot"/><path class="xlines-above crisp" d="M0,0" style="fill: none;"/><path class="ylines-above crisp" d="M0,0" style="fill: none;"/><g class="overlines-above"/><g class="xaxislayer-above"/><g class="yaxislayer-above"/><g class="overaxes-above"/></g></g><g class="polarlayer"/><g class="smithlayer"/><g class="ternarylayer"/><g class="geolayer"/><g class="funnelarealayer"/><g class="pielayer"/><g class="iciclelayer"/><g class="treemaplayer"/><g class="sunburstlayer"/><g class="glimages"/><defs id="topdefs-7f9077"><g class="clips"/></defs><g class="layer-above"><g class="imagelayer"/><g class="shapelayer"/></g><g class="infolayer"><g class="g-gtitle"><text class="gtitle" x="15" y="25" text-anchor="start" dy="0em" style="font-family: Ubuntu, verdana, arial, sans-serif; font-size: 16px; fill: rgb(233, 84, 32); opacity: 1; font-weight: normal; white-space: pre;">Premiér/ka 2023</text></g><g class="g-xtitle"/><g class="g-ytitle"/></g></svg>