<svg class="main-svg" xmlns="http://www.w3.org/2000/svg" xmlns:xlink="http://www.w3.org/1999/xlink" width="300" height="135" style="" viewBox="0 0 300 135"><rect x="0" y="0" width="300" height="135" style="fill: rgb(255, 255, 255); fill-opacity: 1;"/><defs id="defs-fb4a4a"><g class="clips"><clipPath id="clipfb4a4axyplot" class="plotclip"><rect width="280" height="75"/></clipPath><clipPath class="axesclip" id="clipfb4a4ax"><rect x="10" y="0" width="280" height="135"/></clipPath><clipPath class="axesclip" id="clipfb4a4ay"><rect x="0" y="50" width="300" height="75"/></clipPath><clipPath class="axesclip" id="clipfb4a4axy"><rect x="10" y="50" width="280" height="75"/></clipPath></g><g class="gradients"/><g class="patterns"/></defs><g class="bglayer"/><g class="layer-below"><g class="imagelayer"/><g class="shapelayer"/></g><g class="cartesianlayer"><g class="subplot xy"><g class="layer-subplot"><g class="shapelayer"/><g class="imagelayer"/></g><g class="minor-gridlayer"><g class="x"/><g class="y"/></g><g class="gridlayer"><g class="x"><path class="xgrid crisp" transform="translate(37.72,0)" d="M0,50v75" style="stroke: rgb(235, 240, 248); stroke-opacity: 1; stroke-width: 1px;"/><path class="xgrid crisp" transform="translate(120.89,0)" d="M0,50v75" style="stroke: rgb(235, 240, 248); stroke-opacity: 1; stroke-width: 1px;"/><path class="xgrid crisp" transform="translate(206.83,0)" d="M0,50v75" style="stroke: rgb(235, 240, 248); stroke-opacity: 1; stroke-width: 1px;"/></g><g class="y"><path class="ygrid crisp" transform="translate(0,108.99000000000001)" d="M10,0h280" style="stroke: rgb(235, 240, 248); stroke-opacity: 1; stroke-width: 1px;"/><path class="ygrid crisp" transform="translate(0,92.97999999999999)" d="M10,0h280" style="stroke: rgb(235, 240, 248); stroke-opacity: 1; stroke-width: 1px;"/><path class="ygrid crisp" transform="translate(0,76.97)" d="M10,0h280" style="stroke: rgb(235, 240, 248); stroke-opacity: 1; stroke-width: 1px;"/><path class="ygrid crisp" transform="translate(0,60.96)" d="M10,0h280" style="stroke: rgb(235, 240, 248); stroke-opacity: 1; stroke-width: 1px;"/></g></g><g class="zerolinelayer"><path class="yzl zl crisp" transform="translate(0,125)" d="M10,0h280" style="stroke: rgb(235, 240, 248); stroke-opacity: 1; stroke-width: 2px;"/></g><path class="xlines-below"/><path class="ylines-below"/><g class="overlines-below"/><g class="xaxislayer-below"/><g class="yaxislayer-below"/><g class="overaxes-below"/><g class="plot" transform="translate(10,50)" clip-path="url(#clipfb4a4axyplot)"><g class="scatterlayer mlayer"><g class="trace scatter trace31fb27" style="stroke-miterlimit: 2; opacity: 1;"><g class="fills"/><g class="errorbars"/><g class="lines"><path class="js-line" d="M0,17.68L5.54,19.12L8.32,18.64L30.5,18.8L33.27,20.56L66.53,22.32L69.31,21.84L74.85,21.36L77.62,24.08L80.4,23.6L83.17,24.88L102.57,24.4L105.35,26.01L110.89,27.13L113.66,27.29L135.84,27.45L138.61,27.45L144.16,27.29L146.93,24.88L152.48,23.6L155.25,23.12L169.11,22.32L171.88,21.52L194.06,20.56L196.83,19.92L202.38,19.92L205.15,18.48L210.69,18.48L213.47,14L224.55,5.67L227.33,5.67L243.96,6.31L246.73,7.11L257.82,7.27L260.59,3.75L271.68,6.15L274.46,6.15L280,7.11" style="vector-effect: none; fill: none; stroke: rgb(238, 58, 67); stroke-opacity: 1; stroke-width: 5px; opacity: 1;"/></g><g class="points"/><g class="text"/></g><g class="trace scatter trace5854c3" style="stroke-miterlimit: 2; opacity: 1;"><g class="fills"/><g class="errorbars"/><g class="lines"><path class="js-line" d="M0,43.46L5.54,40.1L8.32,38.17L11.09,32.25L13.86,32.09L16.63,33.37L19.41,32.09L30.5,31.77L33.27,26.33L36.04,23.92L38.81,25.04L44.36,23.44L47.13,23.28L49.9,24.08L52.67,23.28L74.85,23.28L77.62,21.84L80.4,21.04L83.17,18.64L105.35,19.12L108.12,20.72L133.07,22.8L135.84,22.8L152.48,23.6L155.25,23.6L169.11,23.12L171.88,22L177.43,21.84L180.2,22.16L191.29,22.48L194.06,22.48L210.69,23.28L213.47,25.04L224.55,24.88L227.33,24.88L230.1,24.88L232.87,21.2L243.96,21.04L246.73,19.12L257.82,18.8L260.59,22.48L271.68,24.56L274.46,24.56L280,24.4" style="vector-effect: none; fill: none; stroke: rgb(0, 180, 219); stroke-opacity: 1; stroke-width: 5px; opacity: 1;"/></g><g class="points"/><g class="text"/></g><g class="trace scatter trace4847d6" style="stroke-miterlimit: 2; opacity: 1;"><g class="fills"/><g class="errorbars"/><g class="lines"><path class="js-line" d="M0,12.08L2.77,12.08L5.54,16.24L8.32,18.64L11.09,24.08L13.86,23.92L16.63,21.2L19.41,23.92L22.18,23.92L30.5,24.08L33.27,27.29L36.04,29.21L38.81,27.77L47.13,28.25L49.9,27.61L58.22,28.25L60.99,28.25L74.85,28.73L77.62,27.29L83.17,28.25L85.94,28.25L99.8,28.09L102.57,29.37L108.12,23.12L110.89,22.48L130.3,20.24L133.07,20.24L144.16,17.68L146.93,19.92L155.25,21.2L158.02,21.2L169.11,22.32L171.88,24.08L177.43,24.56L180.2,24.4L199.6,24.4L202.38,24.4L210.69,25.04L213.47,27.45L224.55,34.33L227.33,34.33L230.1,34.33L232.87,37.37L243.96,37.69L246.73,38.65L260.59,38.49L268.91,34.17L280,33.53" style="vector-effect: none; fill: none; stroke: rgb(138, 44, 81); stroke-opacity: 1; stroke-width: 5px; opacity: 1;"/></g><g class="points"/><g class="text"/></g><g class="trace scatter trace68eac6" style="stroke-miterlimit: 2; opacity: 1;"><g class="fills"/><g class="errorbars"/><g class="lines"><path class="js-line" d="M0,66.67L2.77,66.67L5.54,64.59L13.86,65.23L16.63,66.35L22.18,65.23L24.95,65.23L66.53,66.19L69.31,66.51L80.4,67.15L83.17,68.12L127.52,69.08L130.3,69.4L135.84,70.36L138.61,71L169.11,72.12L171.88,72.28L213.47,73.4" style="vector-effect: none; fill: none; stroke: rgb(1, 27, 58); stroke-opacity: 1; stroke-width: 5px; opacity: 1;"/></g><g class="points"/><g class="text"/></g></g></g><g class="overplot"/><path class="xlines-above crisp" d="M0,0" style="fill: none;"/><path class="ylines-above crisp" d="M0,0" style="fill: none;"/><g class="overlines-above"/><g class="xaxislayer-above"/><g class="yaxislayer-above"/><g class="overaxes-above"/></g></g><g class="polarlayer"/><g class="smithlayer"/><g class="ternarylayer"/><g class="geolayer"/><g class="funnelarealayer"/><g class="pielayer"/><g class="iciclelayer"/><g class="treemaplayer"/><g class="sunburstlayer"/><g class="glimages"/><defs id="topdefs-fb4a4a"><g class="clips"/></defs><g class="layer-above"><g class="imagelayer"/><g class="shapelayer"/></g><g class="infolayer"><g class="g-gtitle"><text class="gtitle" x="15" y="25" text-anchor="start" dy="0em" style="font-family: Ubuntu, verdana, arial, sans-serif; font-size: 16px; fill: rgb(233, 84, 32); opacity: 1; font-weight: normal; white-space: pre;">Premiér/ka 2023</text></g><g class="g-xtitle"/><g class="g-ytitle"/></g></svg>