<svg class="main-svg" xmlns="http://www.w3.org/2000/svg" xmlns:xlink="http://www.w3.org/1999/xlink" width="300" height="135" style="" viewBox="0 0 300 135"><rect x="0" y="0" width="300" height="135" style="fill: rgb(255, 255, 255); fill-opacity: 1;"/><defs id="defs-c6ef91"><g class="clips"><clipPath id="clipc6ef91xyplot" class="plotclip"><rect width="280" height="75"/></clipPath><clipPath class="axesclip" id="clipc6ef91x"><rect x="10" y="0" width="280" height="135"/></clipPath><clipPath class="axesclip" id="clipc6ef91y"><rect x="0" y="50" width="300" height="75"/></clipPath><clipPath class="axesclip" id="clipc6ef91xy"><rect x="10" y="50" width="280" height="75"/></clipPath></g><g class="gradients"/><g class="patterns"/></defs><g class="bglayer"/><g class="layer-below"><g class="imagelayer"/><g class="shapelayer"/></g><g class="cartesianlayer"><g class="subplot xy"><g class="layer-subplot"><g class="shapelayer"/><g class="imagelayer"/></g><g class="minor-gridlayer"><g class="x"/><g class="y"/></g><g class="gridlayer"><g class="x"><path class="xgrid crisp" transform="translate(31.54,0)" d="M0,50v75" style="stroke: rgb(235, 240, 248); stroke-opacity: 1; stroke-width: 1px;"/><path class="xgrid crisp" transform="translate(96.15,0)" d="M0,50v75" style="stroke: rgb(235, 240, 248); stroke-opacity: 1; stroke-width: 1px;"/><path class="xgrid crisp" transform="translate(162.92,0)" d="M0,50v75" style="stroke: rgb(235, 240, 248); stroke-opacity: 1; stroke-width: 1px;"/><path class="xgrid crisp" transform="translate(229.69,0)" d="M0,50v75" style="stroke: rgb(235, 240, 248); stroke-opacity: 1; stroke-width: 1px;"/></g><g class="y"><path class="ygrid crisp" transform="translate(0,108.99000000000001)" d="M10,0h280" style="stroke: rgb(235, 240, 248); stroke-opacity: 1; stroke-width: 1px;"/><path class="ygrid crisp" transform="translate(0,92.97999999999999)" d="M10,0h280" style="stroke: rgb(235, 240, 248); stroke-opacity: 1; stroke-width: 1px;"/><path class="ygrid crisp" transform="translate(0,76.97)" d="M10,0h280" style="stroke: rgb(235, 240, 248); stroke-opacity: 1; stroke-width: 1px;"/><path class="ygrid crisp" transform="translate(0,60.96)" d="M10,0h280" style="stroke: rgb(235, 240, 248); stroke-opacity: 1; stroke-width: 1px;"/></g></g><g class="zerolinelayer"><path class="yzl zl crisp" transform="translate(0,125)" d="M10,0h280" style="stroke: rgb(235, 240, 248); stroke-opacity: 1; stroke-width: 2px;"/></g><path class="xlines-below"/><path class="ylines-below"/><g class="overlines-below"/><g class="xaxislayer-below"/><g class="yaxislayer-below"/><g class="overaxes-below"/><g class="plot" transform="translate(10,50)" clip-path="url(#clipc6ef91xyplot)"><g class="scatterlayer mlayer"><g class="trace scatter trace0fdcf1" style="stroke-miterlimit: 2; opacity: 1;"><g class="fills"/><g class="errorbars"/><g class="lines"><path class="js-line" d="M0,17.68L4.31,19.12L6.46,18.64L23.69,18.8L25.85,20.56L51.69,22.32L53.85,21.84L58.15,21.36L60.31,24.08L62.46,23.6L64.62,24.88L79.69,24.4L81.85,26.01L86.15,27.13L88.31,27.29L105.54,27.45L107.69,27.45L112,27.29L114.15,24.88L118.46,23.6L120.62,23.12L131.38,22.32L133.54,21.52L150.77,20.56L152.92,19.92L157.23,19.92L159.38,18.48L163.69,18.48L165.85,14L174.46,5.67L176.62,5.67L189.54,6.31L191.69,7.11L200.31,7.27L202.46,3.75L211.08,6.15L213.23,6.15L217.54,7.11L219.69,7.75L221.85,8.87L226.15,9.67L247.69,8.71L249.85,7.27L258.46,6.79L260.62,3.91L269.23,4.39L271.38,4.39L273.54,5.35L275.69,9.19L280,6.31" style="vector-effect: none; fill: none; stroke: rgb(238, 58, 67); stroke-opacity: 1; stroke-width: 5px; opacity: 1;"/></g><g class="points"/><g class="text"/></g><g class="trace scatter trace5efc48" style="stroke-miterlimit: 2; opacity: 1;"><g class="fills"/><g class="errorbars"/><g class="lines"><path class="js-line" d="M0,43.46L4.31,40.1L6.46,38.17L8.62,32.25L10.77,32.09L12.92,33.37L15.08,32.09L23.69,31.77L25.85,26.33L28,23.92L30.15,25.04L34.46,23.44L36.62,23.28L38.77,24.08L40.92,23.28L58.15,23.28L60.31,21.84L62.46,21.04L64.62,18.64L81.85,19.12L84,20.72L103.38,22.8L105.54,22.8L118.46,23.6L120.62,23.6L131.38,23.12L133.54,22L137.85,21.84L140,22.16L148.62,22.48L150.77,22.48L163.69,23.28L165.85,25.04L174.46,24.88L176.62,24.88L178.77,24.88L180.92,21.2L189.54,21.04L191.69,19.12L200.31,18.8L202.46,22.48L211.08,24.56L213.23,24.56L219.69,23.44L221.85,21.68L230.46,20.4L232.62,20.4L247.69,20.88L249.85,21.84L258.46,22L260.62,23.28L271.38,24.08L273.54,22.96L275.69,21.36L277.85,23.44L280,24.24" style="vector-effect: none; fill: none; stroke: rgb(0, 180, 219); stroke-opacity: 1; stroke-width: 5px; opacity: 1;"/></g><g class="points"/><g class="text"/></g><g class="trace scatter trace61fbca" style="stroke-miterlimit: 2; opacity: 1;"><g class="fills"/><g class="errorbars"/><g class="lines"><path class="js-line" d="M0,12.08L2.15,12.08L4.31,16.24L6.46,18.64L8.62,24.08L10.77,23.92L12.92,21.2L15.08,23.92L17.23,23.92L23.69,24.08L25.85,27.29L28,29.21L30.15,27.77L36.62,28.25L38.77,27.61L45.23,28.25L47.38,28.25L58.15,28.73L60.31,27.29L64.62,28.25L66.77,28.25L77.54,28.09L79.69,29.37L86.15,22.48L88.31,22L101.23,20.24L103.38,20.24L112,17.68L114.15,19.92L120.62,21.2L122.77,21.2L131.38,22.32L133.54,24.08L137.85,24.56L140,24.4L155.08,24.4L157.23,24.4L163.69,25.04L165.85,27.45L174.46,34.33L176.62,34.33L178.77,34.33L180.92,37.37L189.54,37.69L191.69,38.65L202.46,38.49L208.92,34.17L221.85,34.33L226.15,34.97L258.46,36.09L260.62,37.69L271.38,36.57L273.54,36.41L277.85,33.69L280,34.49" style="vector-effect: none; fill: none; stroke: rgb(138, 44, 81); stroke-opacity: 1; stroke-width: 5px; opacity: 1;"/></g><g class="points"/><g class="text"/></g><g class="trace scatter tracea5702a" style="stroke-miterlimit: 2; opacity: 1;"><g class="fills"/><g class="errorbars"/><g class="lines"><path class="js-line" d="M0,66.67L2.15,66.67L4.31,64.59L10.77,65.23L12.92,66.35L17.23,65.23L19.38,65.23L51.69,66.19L53.85,66.51L62.46,67.15L64.62,68.12L99.08,69.08L101.23,69.4L105.54,70.36L107.69,71L131.38,72.12L133.54,72.28L165.85,73.4" style="vector-effect: none; fill: none; stroke: rgb(1, 27, 58); stroke-opacity: 1; stroke-width: 5px; opacity: 1;"/></g><g class="points"/><g class="text"/></g></g></g><g class="overplot"/><path class="xlines-above crisp" d="M0,0" style="fill: none;"/><path class="ylines-above crisp" d="M0,0" style="fill: none;"/><g class="overlines-above"/><g class="xaxislayer-above"/><g class="yaxislayer-above"/><g class="overaxes-above"/></g></g><g class="polarlayer"/><g class="smithlayer"/><g class="ternarylayer"/><g class="geolayer"/><g class="funnelarealayer"/><g class="pielayer"/><g class="iciclelayer"/><g class="treemaplayer"/><g class="sunburstlayer"/><g class="glimages"/><defs id="topdefs-c6ef91"><g class="clips"/></defs><g class="layer-above"><g class="imagelayer"/><g class="shapelayer"/></g><g class="infolayer"><g class="g-gtitle"><text class="gtitle" x="15" y="25" text-anchor="start" dy="0em" style="font-family: Ubuntu, verdana, arial, sans-serif; font-size: 16px; fill: rgb(233, 84, 32); opacity: 1; font-weight: normal; white-space: pre;">Premiér/ka 2023</text></g><g class="g-xtitle"/><g class="g-ytitle"/></g></svg>