<svg class="main-svg" xmlns="http://www.w3.org/2000/svg" xmlns:xlink="http://www.w3.org/1999/xlink" width="300" height="135" style="" viewBox="0 0 300 135"><rect x="0" y="0" width="300" height="135" style="fill: rgb(255, 255, 255); fill-opacity: 1;"/><defs id="defs-5384d4"><g class="clips"><clipPath id="clip5384d4xyplot" class="plotclip"><rect width="280" height="75"/></clipPath><clipPath class="axesclip" id="clip5384d4x"><rect x="10" y="0" width="280" height="135"/></clipPath><clipPath class="axesclip" id="clip5384d4y"><rect x="0" y="50" width="300" height="75"/></clipPath><clipPath class="axesclip" id="clip5384d4xy"><rect x="10" y="50" width="280" height="75"/></clipPath></g><g class="gradients"/><g class="patterns"/></defs><g class="bglayer"/><g class="layer-below"><g class="imagelayer"/><g class="shapelayer"/></g><g class="cartesianlayer"><g class="subplot xy"><g class="layer-subplot"><g class="shapelayer"/><g class="imagelayer"/></g><g class="minor-gridlayer"><g class="x"/><g class="y"/></g><g class="gridlayer"><g class="x"><path class="xgrid crisp" transform="translate(68.71000000000001,0)" d="M0,50v75" style="stroke: rgb(235, 240, 248); stroke-opacity: 1; stroke-width: 1px;"/><path class="xgrid crisp" transform="translate(131.94,0)" d="M0,50v75" style="stroke: rgb(235, 240, 248); stroke-opacity: 1; stroke-width: 1px;"/><path class="xgrid crisp" transform="translate(195.16,0)" d="M0,50v75" style="stroke: rgb(235, 240, 248); stroke-opacity: 1; stroke-width: 1px;"/><path class="xgrid crisp" transform="translate(258.39,0)" d="M0,50v75" style="stroke: rgb(235, 240, 248); stroke-opacity: 1; stroke-width: 1px;"/></g><g class="y"><path class="ygrid crisp" transform="translate(0,105.94)" d="M10,0h280" style="stroke: rgb(235, 240, 248); stroke-opacity: 1; stroke-width: 1px;"/><path class="ygrid crisp" transform="translate(0,86.88)" d="M10,0h280" style="stroke: rgb(235, 240, 248); stroke-opacity: 1; stroke-width: 1px;"/><path class="ygrid crisp" transform="translate(0,67.83)" d="M10,0h280" style="stroke: rgb(235, 240, 248); stroke-opacity: 1; stroke-width: 1px;"/></g></g><g class="zerolinelayer"><path class="yzl zl crisp" transform="translate(0,125)" d="M10,0h280" style="stroke: rgb(235, 240, 248); stroke-opacity: 1; stroke-width: 2px;"/></g><path class="xlines-below"/><path class="ylines-below"/><g class="overlines-below"/><g class="xaxislayer-below"/><g class="yaxislayer-below"/><g class="overaxes-below"/><g class="plot" transform="translate(10,50)" clip-path="url(#clip5384d4xyplot)"><g class="scatterlayer mlayer"><g class="trace scatter tracef8bb84" style="stroke-miterlimit: 2; opacity: 1;"><g class="fills"/><g class="errorbars"/><g class="lines"><path class="js-line" d="M0,39.45L4.52,38.03L9.03,35.1L13.55,32.86L18.06,25.87L22.58,25.65L27.1,27.31L31.61,25.65L36.13,25.65L49.68,25.2L54.19,19.17L58.71,16.4L63.23,18.02L67.74,16.19L72.26,15.82L76.77,15.45L81.29,16.55L90.32,15.45L94.84,15.45L121.94,15.55L126.45,13.74L130.97,12.98L135.48,9.94L167.1,9.43L171.61,10.76L180.65,12.7L185.16,13.13L212.26,14.53L216.77,14.53L275.48,14.46L280,12.68" style="vector-effect: none; fill: none; stroke: rgb(0, 180, 219); stroke-opacity: 1; stroke-width: 5px; opacity: 1;"/></g><g class="points"/><g class="text"/></g><g class="trace scatter trace8c3693" style="stroke-miterlimit: 2; opacity: 1;"><g class="fills"/><g class="errorbars"/><g class="lines"><path class="js-line" d="M0,10.26L4.52,11.68L9.03,11.31L18.06,10.48L22.58,10.2L27.1,10.87L31.61,10.2L49.68,10.48L54.19,12.46L85.81,14.26L90.32,14.26L121.94,13.14L126.45,16.36L130.97,15.94L135.48,17.03L167.1,16.62L171.61,18.63L180.65,19.68L185.16,19.94L230.32,19.68L234.84,19.41L243.87,15.11L248.39,15.11L261.94,14.55L266.45,14.55L280,13.82" style="vector-effect: none; fill: none; stroke: rgb(238, 58, 67); stroke-opacity: 1; stroke-width: 5px; opacity: 1;"/></g><g class="points"/><g class="text"/></g><g class="trace scatter trace581c0f" style="stroke-miterlimit: 2; opacity: 1;"><g class="fills"/><g class="errorbars"/><g class="lines"><path class="js-line" d="M0,3.75L4.52,3.75L9.03,7.96L13.55,10.34L18.06,16.6L22.58,16.35L27.1,13.5L31.61,16.35L36.13,16.35L49.68,16.6L54.19,20.15L58.71,22.44L63.23,21L76.77,21.25L81.29,20.62L94.84,21.25L99.35,21.25L121.94,21.58L126.45,20.02L135.48,21.11L140,21.11L162.58,20.85L167.1,22.58L171.61,19.53L176.13,14.96L207.74,11.72L212.26,11.59L216.77,11.59L221.29,10.24L230.32,9.13L234.84,8.25L239.35,10.78L243.87,11.72L270.97,12.29L275.48,13.69L280,15.54" style="vector-effect: none; fill: none; stroke: rgb(138, 44, 81); stroke-opacity: 1; stroke-width: 5px; opacity: 1;"/></g><g class="points"/><g class="text"/></g><g class="trace scatter trace76d211" style="stroke-miterlimit: 2; opacity: 1;"><g class="fills"/><g class="errorbars"/><g class="lines"><path class="js-line" d="M0,65.48L4.52,65.48L9.03,63.03L18.06,63.25L22.58,63.87L27.1,65.13L31.61,63.87L108.39,64.76L112.9,65.36L130.97,66.12L135.48,67.02L171.61,66.95L176.13,68.21L216.77,68.59L221.29,69.65L243.87,71.42L248.39,71.42L280,71.57" style="vector-effect: none; fill: none; stroke: rgb(1, 27, 58); stroke-opacity: 1; stroke-width: 5px; opacity: 1;"/></g><g class="points"/><g class="text"/></g><g class="trace scatter trace5cccf0" style="stroke-miterlimit: 2; opacity: 1;"><g class="fills"/><g class="errorbars"/><g class="lines"><path class="js-line" d="M0,72.62L280,72.9" style="vector-effect: none; fill: none; stroke: rgb(97, 162, 41); stroke-opacity: 1; stroke-width: 5px; opacity: 1;"/></g><g class="points"/><g class="text"/></g></g></g><g class="overplot"/><path class="xlines-above crisp" d="M0,0" style="fill: none;"/><path class="ylines-above crisp" d="M0,0" style="fill: none;"/><g class="overlines-above"/><g class="xaxislayer-above"/><g class="yaxislayer-above"/><g class="overaxes-above"/></g></g><g class="polarlayer"/><g class="smithlayer"/><g class="ternarylayer"/><g class="geolayer"/><g class="funnelarealayer"/><g class="pielayer"/><g class="iciclelayer"/><g class="treemaplayer"/><g class="sunburstlayer"/><g class="glimages"/><defs id="topdefs-5384d4"><g class="clips"/></defs><g class="layer-above"><g class="imagelayer"/><g class="shapelayer"/></g><g class="infolayer"><g class="g-gtitle"><text class="gtitle" x="15" y="25" text-anchor="start" dy="0em" style="font-family: Ubuntu, verdana, arial, sans-serif; font-size: 16px; fill: rgb(233, 84, 32); opacity: 1; font-weight: normal; white-space: pre;">Premiér/ka 2023</text></g><g class="g-xtitle"/><g class="g-ytitle"/></g></svg>