<svg class="main-svg" xmlns="http://www.w3.org/2000/svg" xmlns:xlink="http://www.w3.org/1999/xlink" width="300" height="135" style="" viewBox="0 0 300 135"><rect x="0" y="0" width="300" height="135" style="fill: rgb(255, 255, 255); fill-opacity: 1;"/><defs id="defs-285fbc"><g class="clips"><clipPath id="clip285fbcxyplot" class="plotclip"><rect width="280" height="75"/></clipPath><clipPath class="axesclip" id="clip285fbcx"><rect x="10" y="0" width="280" height="135"/></clipPath><clipPath class="axesclip" id="clip285fbcy"><rect x="0" y="50" width="300" height="75"/></clipPath><clipPath class="axesclip" id="clip285fbcxy"><rect x="10" y="50" width="280" height="75"/></clipPath></g><g class="gradients"/><g class="patterns"/></defs><g class="bglayer"/><g class="layer-below"><g class="imagelayer"/><g class="shapelayer"/></g><g class="cartesianlayer"><g class="subplot xy"><g class="layer-subplot"><g class="shapelayer"/><g class="imagelayer"/></g><g class="minor-gridlayer"><g class="x"/><g class="y"/></g><g class="gridlayer"><g class="x"><path class="xgrid crisp" transform="translate(32.58,0)" d="M0,50v75" style="stroke: rgb(235, 240, 248); stroke-opacity: 1; stroke-width: 1px;"/><path class="xgrid crisp" transform="translate(100.32,0)" d="M0,50v75" style="stroke: rgb(235, 240, 248); stroke-opacity: 1; stroke-width: 1px;"/><path class="xgrid crisp" transform="translate(170.32,0)" d="M0,50v75" style="stroke: rgb(235, 240, 248); stroke-opacity: 1; stroke-width: 1px;"/><path class="xgrid crisp" transform="translate(240.32,0)" d="M0,50v75" style="stroke: rgb(235, 240, 248); stroke-opacity: 1; stroke-width: 1px;"/></g><g class="y"><path class="ygrid crisp" transform="translate(0,108.99000000000001)" d="M10,0h280" style="stroke: rgb(235, 240, 248); stroke-opacity: 1; stroke-width: 1px;"/><path class="ygrid crisp" transform="translate(0,92.97999999999999)" d="M10,0h280" style="stroke: rgb(235, 240, 248); stroke-opacity: 1; stroke-width: 1px;"/><path class="ygrid crisp" transform="translate(0,76.97)" d="M10,0h280" style="stroke: rgb(235, 240, 248); stroke-opacity: 1; stroke-width: 1px;"/><path class="ygrid crisp" transform="translate(0,60.96)" d="M10,0h280" style="stroke: rgb(235, 240, 248); stroke-opacity: 1; stroke-width: 1px;"/></g></g><g class="zerolinelayer"><path class="yzl zl crisp" transform="translate(0,125)" d="M10,0h280" style="stroke: rgb(235, 240, 248); stroke-opacity: 1; stroke-width: 2px;"/></g><path class="xlines-below"/><path class="ylines-below"/><g class="overlines-below"/><g class="xaxislayer-below"/><g class="yaxislayer-below"/><g class="overaxes-below"/><g class="plot" transform="translate(10,50)" clip-path="url(#clip285fbcxyplot)"><g class="scatterlayer mlayer"><g class="trace scatter trace86f7ec" style="stroke-miterlimit: 2; opacity: 1;"><g class="fills"/><g class="errorbars"/><g class="lines"><path class="js-line" d="M0,17.68L4.52,19.12L6.77,18.64L24.84,18.8L27.1,20.56L54.19,22.32L56.45,21.84L60.97,21.36L63.23,24.08L65.48,23.6L67.74,24.88L83.55,24.4L85.81,26.01L90.32,27.13L92.58,27.29L110.65,27.45L112.9,27.45L117.42,27.29L119.68,24.88L124.19,23.6L126.45,23.12L137.74,22.32L140,21.52L158.06,20.56L160.32,19.92L164.84,19.92L167.1,18.48L171.61,18.48L173.87,14L182.9,5.67L185.16,5.67L198.71,6.31L200.97,7.11L210,7.27L212.26,3.75L221.29,6.15L223.55,6.15L228.06,7.11L230.32,7.75L232.58,8.87L237.1,9.67L259.68,8.71L261.94,7.27L270.97,6.79L273.23,3.91L280,4.39" style="vector-effect: none; fill: none; stroke: rgb(238, 58, 67); stroke-opacity: 1; stroke-width: 5px; opacity: 1;"/></g><g class="points"/><g class="text"/></g><g class="trace scatter trace6c1f9b" style="stroke-miterlimit: 2; opacity: 1;"><g class="fills"/><g class="errorbars"/><g class="lines"><path class="js-line" d="M0,43.46L4.52,40.1L6.77,38.17L9.03,32.25L11.29,32.09L13.55,33.37L15.81,32.09L24.84,31.77L27.1,26.33L29.35,23.92L31.61,25.04L36.13,23.44L38.39,23.28L40.65,24.08L42.9,23.28L60.97,23.28L63.23,21.84L65.48,21.04L67.74,18.64L85.81,19.12L88.06,20.72L108.39,22.8L110.65,22.8L124.19,23.6L126.45,23.6L137.74,23.12L140,22L144.52,21.84L146.77,22.16L155.81,22.48L158.06,22.48L171.61,23.28L173.87,25.04L182.9,24.88L185.16,24.88L187.42,24.88L189.68,21.2L198.71,21.04L200.97,19.12L210,18.8L212.26,22.48L221.29,24.56L223.55,24.56L230.32,23.44L232.58,21.68L241.61,20.4L243.87,20.4L259.68,20.88L261.94,21.84L270.97,22L273.23,23.28L280,23.92" style="vector-effect: none; fill: none; stroke: rgb(0, 180, 219); stroke-opacity: 1; stroke-width: 5px; opacity: 1;"/></g><g class="points"/><g class="text"/></g><g class="trace scatter trace407b0c" style="stroke-miterlimit: 2; opacity: 1;"><g class="fills"/><g class="errorbars"/><g class="lines"><path class="js-line" d="M0,12.08L2.26,12.08L4.52,16.24L6.77,18.64L9.03,24.08L11.29,23.92L13.55,21.2L15.81,23.92L18.06,23.92L24.84,24.08L27.1,27.29L29.35,29.21L31.61,27.77L38.39,28.25L40.65,27.61L47.42,28.25L49.68,28.25L60.97,28.73L63.23,27.29L67.74,28.25L70,28.25L81.29,28.09L83.55,29.37L88.06,23.12L90.32,22.48L106.13,20.24L108.39,20.24L117.42,17.68L119.68,19.92L126.45,21.2L128.71,21.2L137.74,22.32L140,24.08L144.52,24.56L146.77,24.4L162.58,24.4L164.84,24.4L171.61,25.04L173.87,27.45L182.9,34.33L185.16,34.33L187.42,34.33L189.68,37.37L198.71,37.69L200.97,38.65L212.26,38.49L219.03,34.17L232.58,34.33L237.1,34.97L270.97,36.09L273.23,37.69L280,36.57" style="vector-effect: none; fill: none; stroke: rgb(138, 44, 81); stroke-opacity: 1; stroke-width: 5px; opacity: 1;"/></g><g class="points"/><g class="text"/></g><g class="trace scatter tracea2f5d9" style="stroke-miterlimit: 2; opacity: 1;"><g class="fills"/><g class="errorbars"/><g class="lines"><path class="js-line" d="M0,66.67L2.26,66.67L4.52,64.59L11.29,65.23L13.55,66.35L18.06,65.23L20.32,65.23L54.19,66.19L56.45,66.51L65.48,67.15L67.74,68.12L103.87,69.08L106.13,69.4L110.65,70.36L112.9,71L137.74,72.12L140,72.28L173.87,73.4" style="vector-effect: none; fill: none; stroke: rgb(1, 27, 58); stroke-opacity: 1; stroke-width: 5px; opacity: 1;"/></g><g class="points"/><g class="text"/></g></g></g><g class="overplot"/><path class="xlines-above crisp" d="M0,0" style="fill: none;"/><path class="ylines-above crisp" d="M0,0" style="fill: none;"/><g class="overlines-above"/><g class="xaxislayer-above"/><g class="yaxislayer-above"/><g class="overaxes-above"/></g></g><g class="polarlayer"/><g class="smithlayer"/><g class="ternarylayer"/><g class="geolayer"/><g class="funnelarealayer"/><g class="pielayer"/><g class="iciclelayer"/><g class="treemaplayer"/><g class="sunburstlayer"/><g class="glimages"/><defs id="topdefs-285fbc"><g class="clips"/></defs><g class="layer-above"><g class="imagelayer"/><g class="shapelayer"/></g><g class="infolayer"><g class="g-gtitle"><text class="gtitle" x="15" y="25" text-anchor="start" dy="0em" style="font-family: Ubuntu, verdana, arial, sans-serif; font-size: 16px; fill: rgb(233, 84, 32); opacity: 1; font-weight: normal; white-space: pre;">Premiér/ka 2023</text></g><g class="g-xtitle"/><g class="g-ytitle"/></g></svg>