<svg class="main-svg" xmlns="http://www.w3.org/2000/svg" xmlns:xlink="http://www.w3.org/1999/xlink" width="300" height="135" style="" viewBox="0 0 300 135"><rect x="0" y="0" width="300" height="135" style="fill: rgb(255, 255, 255); fill-opacity: 1;"/><defs id="defs-0fa0d7"><g class="clips"><clipPath id="clip0fa0d7xyplot" class="plotclip"><rect width="280" height="75"/></clipPath><clipPath class="axesclip" id="clip0fa0d7x"><rect x="10" y="0" width="280" height="135"/></clipPath><clipPath class="axesclip" id="clip0fa0d7y"><rect x="0" y="50" width="300" height="75"/></clipPath><clipPath class="axesclip" id="clip0fa0d7xy"><rect x="10" y="50" width="280" height="75"/></clipPath></g><g class="gradients"/><g class="patterns"/></defs><g class="bglayer"/><g class="layer-below"><g class="imagelayer"/><g class="shapelayer"/></g><g class="cartesianlayer"><g class="subplot xy"><g class="layer-subplot"><g class="shapelayer"/><g class="imagelayer"/></g><g class="minor-gridlayer"><g class="x"/><g class="y"/></g><g class="gridlayer"><g class="x"><path class="xgrid crisp" transform="translate(32.05,0)" d="M0,50v75" style="stroke: rgb(235, 240, 248); stroke-opacity: 1; stroke-width: 1px;"/><path class="xgrid crisp" transform="translate(98.19,0)" d="M0,50v75" style="stroke: rgb(235, 240, 248); stroke-opacity: 1; stroke-width: 1px;"/><path class="xgrid crisp" transform="translate(166.54,0)" d="M0,50v75" style="stroke: rgb(235, 240, 248); stroke-opacity: 1; stroke-width: 1px;"/><path class="xgrid crisp" transform="translate(234.88,0)" d="M0,50v75" style="stroke: rgb(235, 240, 248); stroke-opacity: 1; stroke-width: 1px;"/></g><g class="y"><path class="ygrid crisp" transform="translate(0,109.2)" d="M10,0h280" style="stroke: rgb(235, 240, 248); stroke-opacity: 1; stroke-width: 1px;"/><path class="ygrid crisp" transform="translate(0,93.4)" d="M10,0h280" style="stroke: rgb(235, 240, 248); stroke-opacity: 1; stroke-width: 1px;"/><path class="ygrid crisp" transform="translate(0,77.61)" d="M10,0h280" style="stroke: rgb(235, 240, 248); stroke-opacity: 1; stroke-width: 1px;"/><path class="ygrid crisp" transform="translate(0,61.81)" d="M10,0h280" style="stroke: rgb(235, 240, 248); stroke-opacity: 1; stroke-width: 1px;"/></g></g><g class="zerolinelayer"><path class="yzl zl crisp" transform="translate(0,125)" d="M10,0h280" style="stroke: rgb(235, 240, 248); stroke-opacity: 1; stroke-width: 2px;"/></g><path class="xlines-below"/><path class="ylines-below"/><g class="overlines-below"/><g class="xaxislayer-below"/><g class="yaxislayer-below"/><g class="overaxes-below"/><g class="plot" transform="translate(10,50)" clip-path="url(#clip0fa0d7xyplot)"><g class="scatterlayer mlayer"><g class="trace scatter trace318e04" style="stroke-miterlimit: 2; opacity: 1;"><g class="fills"/><g class="errorbars"/><g class="lines"><path class="js-line" d="M0,18.44L4.41,19.86L6.61,19.39L24.25,19.55L26.46,21.29L52.91,23.02L55.12,22.55L59.53,22.08L61.73,24.76L63.94,24.29L66.14,25.55L81.57,25.08L83.78,26.66L88.19,27.76L90.39,27.92L108.03,28.08L110.24,28.08L114.65,27.92L116.85,25.55L121.26,24.29L123.46,23.81L134.49,23.02L136.69,22.23L154.33,21.29L156.54,20.65L160.94,20.65L163.15,19.23L167.56,19.23L169.76,14.81L178.58,6.59L180.79,6.59L194.02,7.23L196.22,8.02L205.04,8.17L207.24,4.7L216.06,7.07L218.27,7.07L222.68,8.02L224.88,8.65L227.09,9.75L231.5,10.54L253.54,9.6L255.75,8.17L264.57,7.7L266.77,4.86L275.59,5.33L277.8,5.33L280,3.75" style="vector-effect: none; fill: none; stroke: rgb(238, 58, 67); stroke-opacity: 1; stroke-width: 5px; opacity: 1;"/></g><g class="points"/><g class="text"/></g><g class="trace scatter tracec84167" style="stroke-miterlimit: 2; opacity: 1;"><g class="fills"/><g class="errorbars"/><g class="lines"><path class="js-line" d="M0,43.88L4.41,40.56L6.61,38.66L8.82,32.82L11.02,32.66L13.23,33.92L15.43,32.66L24.25,32.34L26.46,26.97L28.66,24.6L30.87,25.71L35.28,24.13L37.48,23.97L39.69,24.76L41.89,23.97L59.53,23.97L61.73,22.55L63.94,21.76L66.14,19.39L83.78,19.86L85.98,21.44L105.83,23.5L108.03,23.5L121.26,24.29L123.46,24.29L134.49,23.81L136.69,22.71L141.1,22.55L143.31,22.87L154.33,23.18L156.54,23.34L167.56,23.97L169.76,25.71L178.58,25.55L180.79,25.55L182.99,25.55L185.2,21.92L194.02,21.76L196.22,19.86L205.04,19.55L207.24,23.18L216.06,25.24L218.27,25.24L224.88,24.13L227.09,22.39L235.91,21.13L238.11,21.13L253.54,21.6L255.75,22.55L264.57,22.71L266.77,23.97L277.8,24.76L280,26.34" style="vector-effect: none; fill: none; stroke: rgb(0, 180, 219); stroke-opacity: 1; stroke-width: 5px; opacity: 1;"/></g><g class="points"/><g class="text"/></g><g class="trace scatter trace2304de" style="stroke-miterlimit: 2; opacity: 1;"><g class="fills"/><g class="errorbars"/><g class="lines"><path class="js-line" d="M0,12.91L2.2,12.91L4.41,17.02L6.61,19.39L8.82,24.76L11.02,24.6L13.23,21.92L15.43,24.6L17.64,24.6L24.25,24.76L26.46,27.92L28.66,29.82L30.87,28.4L37.48,28.87L39.69,28.24L46.3,28.87L48.5,28.87L59.53,29.34L61.73,27.92L66.14,28.87L68.35,28.87L79.37,28.71L81.57,29.98L88.19,23.18L90.39,22.71L103.62,20.97L105.83,20.97L114.65,18.44L116.85,20.65L123.46,21.92L125.67,21.92L134.49,23.02L136.69,24.76L141.1,25.24L143.31,25.08L158.74,25.08L160.94,25.08L167.56,25.71L169.76,28.08L178.58,34.87L180.79,34.87L182.99,34.87L185.2,37.87L194.02,38.19L196.22,39.14L207.24,38.98L213.86,34.71L227.09,34.87L231.5,35.5L264.57,36.61L266.77,38.19L280,37.08" style="vector-effect: none; fill: none; stroke: rgb(138, 44, 81); stroke-opacity: 1; stroke-width: 5px; opacity: 1;"/></g><g class="points"/><g class="text"/></g><g class="trace scatter tracea65466" style="stroke-miterlimit: 2; opacity: 1;"><g class="fills"/><g class="errorbars"/><g class="lines"><path class="js-line" d="M0,66.78L2.2,66.78L4.41,64.73L11.02,65.36L13.23,66.47L17.64,65.36L19.84,65.36L52.91,66.31L55.12,66.63L63.94,67.26L66.14,68.21L101.42,69.15L103.62,69.47L108.03,70.42L110.24,71.05L134.49,72.16L136.69,72.31L169.76,73.42" style="vector-effect: none; fill: none; stroke: rgb(1, 27, 58); stroke-opacity: 1; stroke-width: 5px; opacity: 1;"/></g><g class="points"/><g class="text"/></g></g></g><g class="overplot"/><path class="xlines-above crisp" d="M0,0" style="fill: none;"/><path class="ylines-above crisp" d="M0,0" style="fill: none;"/><g class="overlines-above"/><g class="xaxislayer-above"/><g class="yaxislayer-above"/><g class="overaxes-above"/></g></g><g class="polarlayer"/><g class="smithlayer"/><g class="ternarylayer"/><g class="geolayer"/><g class="funnelarealayer"/><g class="pielayer"/><g class="iciclelayer"/><g class="treemaplayer"/><g class="sunburstlayer"/><g class="glimages"/><defs id="topdefs-0fa0d7"><g class="clips"/></defs><g class="layer-above"><g class="imagelayer"/><g class="shapelayer"/></g><g class="infolayer"><g class="g-gtitle"><text class="gtitle" x="15" y="25" text-anchor="start" dy="0em" style="font-family: Ubuntu, verdana, arial, sans-serif; font-size: 16px; fill: rgb(233, 84, 32); opacity: 1; font-weight: normal; white-space: pre;">Premiér/ka 2023</text></g><g class="g-xtitle"/><g class="g-ytitle"/></g></svg>