<svg class="main-svg" xmlns="http://www.w3.org/2000/svg" xmlns:xlink="http://www.w3.org/1999/xlink" width="300" height="135" style="" viewBox="0 0 300 135"><rect x="0" y="0" width="300" height="135" style="fill: rgb(255, 255, 255); fill-opacity: 1;"/><defs id="defs-f2c8d1"><g class="clips"><clipPath id="clipf2c8d1xyplot" class="plotclip"><rect width="280" height="75"/></clipPath><clipPath class="axesclip" id="clipf2c8d1x"><rect x="10" y="0" width="280" height="135"/></clipPath><clipPath class="axesclip" id="clipf2c8d1y"><rect x="0" y="50" width="300" height="75"/></clipPath><clipPath class="axesclip" id="clipf2c8d1xy"><rect x="10" y="50" width="280" height="75"/></clipPath></g><g class="gradients"/><g class="patterns"/></defs><g class="bglayer"/><g class="layer-below"><g class="imagelayer"/><g class="shapelayer"/></g><g class="cartesianlayer"><g class="subplot xy"><g class="layer-subplot"><g class="shapelayer"/><g class="imagelayer"/></g><g class="minor-gridlayer"><g class="x"/><g class="y"/></g><g class="gridlayer"><g class="x"><path class="xgrid crisp" transform="translate(76.79,0)" d="M0,50v75" style="stroke: rgb(235, 240, 248); stroke-opacity: 1; stroke-width: 1px;"/><path class="xgrid crisp" transform="translate(156.2,0)" d="M0,50v75" style="stroke: rgb(235, 240, 248); stroke-opacity: 1; stroke-width: 1px;"/><path class="xgrid crisp" transform="translate(235.61,0)" d="M0,50v75" style="stroke: rgb(235, 240, 248); stroke-opacity: 1; stroke-width: 1px;"/></g><g class="y"><path class="ygrid crisp" transform="translate(0,97.18)" d="M10,0h280" style="stroke: rgb(235, 240, 248); stroke-opacity: 1; stroke-width: 1px;"/><path class="ygrid crisp" transform="translate(0,69.35)" d="M10,0h280" style="stroke: rgb(235, 240, 248); stroke-opacity: 1; stroke-width: 1px;"/></g></g><g class="zerolinelayer"><path class="yzl zl crisp" transform="translate(0,125)" d="M10,0h280" style="stroke: rgb(235, 240, 248); stroke-opacity: 1; stroke-width: 2px;"/></g><path class="xlines-below"/><path class="ylines-below"/><g class="overlines-below"/><g class="xaxislayer-below"/><g class="yaxislayer-below"/><g class="overaxes-below"/><g class="plot" transform="translate(10,50)" clip-path="url(#clipf2c8d1xyplot)"><g class="scatterlayer mlayer"><g class="trace scatter trace5ffa5d" style="stroke-miterlimit: 2; opacity: 1;"><g class="fills"/><g class="errorbars"/><g class="lines"><path class="js-line" d="M0,24.11Q2.55,19.27 4.13,18.53C5.32,17.97 6.97,18.59 8.05,18.75C8.82,18.86 9.59,19.19 10.01,19.21C10.2,19.22 10.21,19.14 10.44,19.15C11.33,19.2 15.52,20.18 16.97,20.82C17.77,21.17 18.09,21.44 18.71,21.96C19.58,22.7 20.62,23.92 21.54,25.02C22.51,26.18 23.38,27.16 24.37,28.76C25.87,31.18 27.7,36.04 29.15,38.43C30.08,39.96 30.56,40.88 31.76,42.01C33.35,43.5 36.93,45.39 38.29,46.16C38.88,46.49 39.14,46.56 39.6,46.81C40.14,47.1 40.72,47.5 41.34,47.79C42.01,48.11 42.66,48.34 43.51,48.62C44.66,49 46.78,49.59 47.65,49.77C48.04,49.85 48.28,49.88 48.52,49.88C48.69,49.88 48.76,49.83 48.95,49.83C49.33,49.82 50.21,49.95 50.69,49.96C51.03,49.97 51.18,49.9 51.56,49.94C52.34,50.01 53.94,50.62 55.04,50.69C56.03,50.75 57.46,50.46 57.87,50.43C57.98,50.42 57.97,50.43 58.09,50.42C58.56,50.38 60.87,50.02 61.57,49.99C61.87,49.98 61.96,50 62.22,50.02C62.62,50.06 63.4,50.19 63.75,50.24C63.94,50.27 63.96,50.28 64.18,50.3C64.89,50.36 67.75,50.45 68.75,50.44C69.24,50.44 69.52,50.4 69.84,50.39C70.08,50.38 70.18,50.39 70.49,50.37C71.22,50.33 73.32,50.16 74.19,50.09C74.66,50.05 74.85,50.06 75.28,50C75.92,49.92 76.78,49.75 77.67,49.57C78.82,49.34 80.28,49.11 81.59,48.73C82.96,48.33 84.78,47.49 85.72,47.19C86.19,47.04 86.37,46.99 86.81,46.91C87.45,46.79 88.22,46.84 89.2,46.6C90.89,46.19 95.94,44.21 95.94,44.21C95.94,44.21 95.94,44.21 95.94,44.21C95.94,44.21 100.51,42.24 100.51,42.24C100.51,42.24 100.51,42.24 100.51,42.24C100.51,42.24 100.95,42.36 101.38,42.39C102.54,42.47 105.7,42.6 107.91,42.21C110.33,41.78 113.13,40.73 115.31,39.72C117.19,38.84 119.23,37.16 120.31,36.67C120.79,36.45 120.9,36.49 121.4,36.32C122.55,35.94 125.51,35 127.06,34.4C128.17,33.97 129.15,33.29 129.88,33.19C130.32,33.13 130.49,33.24 130.97,33.34C131.94,33.54 134.23,34.4 135.32,34.52C135.95,34.59 136.2,34.44 136.85,34.44C137.96,34.43 139.71,34.72 141.41,34.62C143.58,34.5 147.14,33.86 148.81,33.49C149.68,33.3 150.15,33.02 150.77,32.92C151.3,32.83 151.71,32.85 152.29,32.84C153.09,32.83 154.51,32.93 155.12,32.91C155.41,32.9 155.48,32.85 155.77,32.85C156.32,32.85 157.36,32.94 158.17,33.05C159.03,33.17 159.76,33.44 160.78,33.57C162.22,33.75 164.84,33.75 166,33.85C166.58,33.9 166.69,33.94 167.3,34.01C168.78,34.18 172.91,34.82 174.92,34.79C176.24,34.77 177.18,34.44 178.18,34.35C179.04,34.27 179.71,34.25 180.57,34.22C181.57,34.18 182.72,34.21 183.84,34.14C185.04,34.07 186.2,33.96 187.54,33.79C189.13,33.59 191.28,33.13 192.76,32.98C193.84,32.87 194.47,32.93 195.59,32.85C197.24,32.74 200.57,32.41 201.68,32.3C202.1,32.26 202.22,32.24 202.55,32.2C202.99,32.15 203.43,32.12 204.07,32.05C205.18,31.93 207.71,31.58 208.64,31.51C209.04,31.48 209.11,31.53 209.51,31.49C210.44,31.41 213.53,30.88 214.08,30.79C214.2,30.77 214.18,30.77 214.3,30.75C214.75,30.68 216.64,30.42 217.56,30.27C218.23,30.16 218.76,30.05 219.3,29.94C219.77,29.84 220.13,29.75 220.61,29.64C221.2,29.5 222.08,29.28 222.56,29.17C222.84,29.1 222.9,29.09 223.22,29.02C224.11,28.83 227.09,28.28 228.22,28.02C228.8,27.89 229.18,27.83 229.53,27.68C229.79,27.57 229.91,27.44 230.18,27.3C230.62,27.07 231.4,26.62 231.92,26.47C232.32,26.36 232.64,26.44 233.01,26.35C233.43,26.25 233.86,26.04 234.31,25.85C234.8,25.63 235.84,25.1 235.84,25.1C235.84,25.1 235.84,25.1 235.84,25.1C235.84,25.1 238.26,24.93 239.1,24.95C239.63,24.96 239.97,25.04 240.4,25.08C240.84,25.12 241.39,25.17 241.71,25.17C241.89,25.17 242.02,25.14 242.14,25.13C242.23,25.12 242.25,25.13 242.36,25.11C242.73,25.04 244.02,24.5 244.76,24.43C245.38,24.37 245.92,24.55 246.5,24.6C247.08,24.65 247.8,24.73 248.24,24.74C248.51,24.74 248.66,24.74 248.89,24.71C249.16,24.68 249.38,24.62 249.76,24.53C250.5,24.35 252.28,23.87 253.02,23.66C253.4,23.55 253.57,23.45 253.89,23.4C254.28,23.34 254.71,23.41 255.2,23.35C255.83,23.28 256.74,23.07 257.37,22.94C257.86,22.84 258.32,22.74 258.68,22.64C258.94,22.57 259.13,22.49 259.33,22.44C259.49,22.4 259.58,22.38 259.77,22.34C260.12,22.26 260.74,22.12 261.29,21.99C261.95,21.83 262.71,21.63 263.47,21.44C264.3,21.23 265.32,20.91 266.08,20.76C266.65,20.65 267.12,20.64 267.6,20.55C268.05,20.47 268.65,20.31 268.9,20.25C269,20.23 269.05,20.22 269.12,20.2C269.19,20.19 269.26,20.18 269.34,20.16C269.46,20.13 269.61,20.06 269.77,20.02C269.97,19.97 270.21,19.93 270.43,19.89C270.65,19.85 270.83,19.82 271.08,19.77C271.44,19.71 271.95,19.56 272.39,19.54C272.82,19.52 273.37,19.63 273.69,19.65C273.88,19.66 274.13,19.66 274.13,19.66C274.13,19.66 274.13,19.66 274.13,19.66C274.13,19.66 275.67,19.7 276.3,19.73C276.79,19.76 277.12,19.85 277.61,19.83C278.24,19.8 279.43,19.5 279.78,19.48Q279.89,19.47 280,19.49" style="vector-effect: none; fill: none; stroke: rgb(238, 58, 67); stroke-opacity: 1; stroke-width: 5px; opacity: 1;"/></g><g class="points"/><g class="text"/></g><g class="trace scatter traceb16336" style="stroke-miterlimit: 2; opacity: 1;"><g class="fills"/><g class="errorbars"/><g class="lines"><path class="js-line" d="M0,55.63Q2.77,56.41 4.13,56.45C5.45,56.49 6.97,55.98 8.05,55.91C8.81,55.86 9.59,55.94 10.01,55.93C10.21,55.92 10.21,55.9 10.44,55.9C11.33,55.91 15.49,56.43 16.97,56.55C17.73,56.61 18.06,56.6 18.71,56.65C19.54,56.72 20.6,56.82 21.54,56.95C22.49,57.08 23.3,57.26 24.37,57.44C25.76,57.68 27.79,58.15 29.15,58.26C30.15,58.34 30.7,58.16 31.76,58.22C33.45,58.32 36.94,59.03 38.29,59.12C38.89,59.16 39.13,59.11 39.6,59.11C40.14,59.11 40.73,59.18 41.34,59.15C42.02,59.12 42.67,58.94 43.51,58.9C44.67,58.84 46.78,58.92 47.65,58.95C48.05,58.96 48.28,58.99 48.52,59C48.69,59 48.76,59 48.95,59C49.34,58.99 50.21,58.97 50.69,58.94C51.03,58.92 51.17,58.9 51.56,58.86C52.33,58.77 53.94,58.45 55.04,58.4C56.03,58.35 57.46,58.48 57.87,58.5C57.98,58.5 57.97,58.51 58.09,58.51C58.56,58.52 60.87,58.46 61.57,58.43C61.87,58.42 61.96,58.41 62.22,58.39C62.62,58.37 63.4,58.31 63.75,58.3C63.94,58.29 63.96,58.3 64.18,58.3C64.9,58.3 67.75,58.26 68.75,58.29C69.24,58.31 69.52,58.36 69.84,58.36C70.08,58.36 70.19,58.38 70.49,58.33C71.22,58.22 73.32,57.62 74.19,57.38C74.66,57.25 74.84,57.17 75.28,57.06C75.92,56.9 76.78,56.76 77.67,56.55C78.82,56.28 80.26,55.79 81.59,55.57C82.94,55.35 84.79,55.28 85.72,55.23C86.2,55.2 86.38,55.25 86.81,55.2C87.45,55.13 88.19,54.83 89.2,54.71C90.87,54.52 95.94,54.53 95.94,54.53C95.94,54.53 95.94,54.53 95.94,54.53C95.94,54.53 100.51,54.34 100.51,54.34C100.51,54.34 100.51,54.34 100.51,54.34C100.51,54.34 100.95,54.22 101.38,54.14C102.54,53.91 105.66,53.35 107.91,53.07C110.29,52.77 113.09,52.38 115.31,52.43C117.14,52.47 119.25,53.05 120.31,53.07C120.8,53.08 120.89,52.97 121.4,52.97C122.55,52.96 125.51,53.18 127.06,53.43C128.17,53.61 129.16,54.05 129.88,54.1C130.33,54.13 130.49,54.08 130.97,53.99C131.94,53.82 134.23,53.05 135.32,52.86C135.95,52.75 136.21,52.81 136.85,52.71C137.97,52.54 139.7,52.08 141.41,51.78C143.58,51.39 147.13,50.9 148.81,50.65C149.67,50.52 150.16,50.48 150.77,50.37C151.31,50.27 151.7,50.09 152.29,50.05C153.08,49.99 154.51,50.21 155.12,50.24C155.41,50.25 155.49,50.23 155.77,50.26C156.32,50.31 157.35,50.53 158.17,50.61C159.02,50.69 159.76,50.64 160.78,50.71C162.22,50.81 164.84,51.25 166,51.2C166.58,51.17 166.69,51.09 167.3,50.96C168.79,50.65 172.9,49.52 174.92,49.18C176.23,48.96 177.18,48.98 178.18,48.85C179.04,48.74 179.71,48.57 180.57,48.47C181.57,48.35 182.72,48.38 183.84,48.22C185.04,48.05 186.2,47.73 187.54,47.42C189.13,47.04 191.27,46.27 192.76,46.09C193.84,45.96 194.47,46.16 195.59,46.11C197.24,46.04 200.57,45.69 201.68,45.55C202.1,45.5 202.22,45.44 202.55,45.41C202.99,45.38 203.43,45.47 204.07,45.42C205.19,45.33 207.71,44.77 208.64,44.65C209.04,44.6 209.11,44.61 209.51,44.57C210.44,44.48 213.53,44.21 214.08,44.12C214.2,44.1 214.18,44.09 214.3,44.07C214.75,43.99 216.65,43.77 217.56,43.59C218.23,43.46 218.77,43.33 219.3,43.17C219.77,43.03 220.13,42.86 220.61,42.69C221.19,42.49 222.08,42.17 222.56,42.04C222.84,41.97 222.89,41.92 223.22,41.9C224.11,41.83 227.09,42.05 228.22,42.19C228.8,42.26 229.17,42.36 229.53,42.44C229.79,42.5 229.91,42.57 230.18,42.61C230.62,42.68 231.41,42.73 231.92,42.71C232.33,42.69 232.63,42.61 233.01,42.54C233.43,42.46 233.86,42.32 234.31,42.27C234.8,42.21 235.84,42.23 235.84,42.23C235.84,42.23 235.84,42.23 235.84,42.23C235.84,42.23 238.26,41.48 239.1,41.23C239.63,41.07 239.96,40.92 240.4,40.86C240.83,40.8 241.39,40.86 241.71,40.84C241.89,40.83 242.02,40.81 242.14,40.79C242.23,40.78 242.25,40.79 242.36,40.76C242.73,40.66 244.02,40.11 244.76,39.82C245.39,39.57 245.92,39.34 246.5,39.14C247.08,38.95 247.8,38.75 248.24,38.65C248.51,38.59 248.66,38.59 248.89,38.53C249.16,38.46 249.38,38.38 249.76,38.25C250.5,38 252.28,37.33 253.02,37.1C253.4,36.98 253.57,36.95 253.89,36.87C254.28,36.77 254.71,36.69 255.2,36.57C255.83,36.41 256.74,36.2 257.37,36C257.87,35.84 258.32,35.68 258.68,35.51C258.94,35.39 259.13,35.23 259.33,35.13C259.49,35.05 259.58,35.01 259.77,34.92C260.13,34.74 260.73,34.4 261.29,34.13C261.95,33.81 262.72,33.51 263.47,33.13C264.31,32.7 265.32,32.07 266.08,31.67C266.65,31.37 267.11,31.16 267.6,30.93C268.05,30.72 268.65,30.45 268.9,30.34C269,30.29 269.05,30.27 269.12,30.24C269.19,30.22 269.26,30.21 269.34,30.19C269.46,30.16 269.61,30.09 269.77,30.04C269.97,29.98 270.21,29.92 270.43,29.86C270.65,29.8 270.82,29.74 271.08,29.67C271.44,29.57 271.95,29.45 272.39,29.35C272.82,29.25 273.37,29.1 273.69,29.05C273.87,29.02 274.13,29 274.13,29C274.13,29 274.13,29 274.13,29C274.13,29 275.67,28.57 276.3,28.4C276.79,28.27 277.12,28.18 277.61,28.06C278.24,27.91 279.43,27.62 279.78,27.56Q279.89,27.54 280,27.53" style="vector-effect: none; fill: none; stroke: rgb(0, 180, 219); stroke-opacity: 1; stroke-width: 5px; opacity: 1;"/></g><g class="points"/><g class="text"/></g><g class="trace scatter trace5ded2e" style="stroke-miterlimit: 2; opacity: 1;"><g class="fills"/><g class="errorbars"/><g class="lines"><path class="js-line" d="M29.15,43.45Q30.57,39.97 31.76,37.99C33.36,35.32 36.87,30.57 38.29,29.1C38.84,28.53 39.13,28.44 39.6,28.06C40.14,27.62 40.74,27.17 41.34,26.63C42.04,26.01 42.68,25.35 43.51,24.52C44.67,23.37 46.77,21.18 47.65,20.35C48.04,19.98 48.28,19.78 48.52,19.58C48.69,19.45 48.76,19.41 48.95,19.26C49.34,18.94 50.2,18.07 50.69,17.67C51.02,17.4 51.14,17.18 51.56,17.03C52.31,16.76 53.94,16.92 55.04,16.81C56.03,16.71 57.46,16.52 57.87,16.42C57.99,16.39 57.97,16.38 58.09,16.34C58.56,16.17 60.87,15.34 61.57,15.13C61.87,15.04 61.96,15.05 62.22,14.96C62.63,14.82 63.39,14.42 63.75,14.28C63.94,14.21 63.96,14.2 64.18,14.13C64.89,13.92 67.75,13.28 68.75,12.99C69.24,12.85 69.52,12.69 69.84,12.63C70.08,12.58 70.19,12.62 70.49,12.58C71.22,12.48 73.33,12.08 74.19,11.82C74.67,11.67 74.84,11.49 75.28,11.37C75.91,11.21 76.78,11.21 77.67,11.09C78.82,10.94 80.27,10.51 81.59,10.53C82.95,10.55 84.78,11.1 85.72,11.23C86.2,11.3 86.38,11.33 86.81,11.36C87.45,11.4 88.21,11.28 89.2,11.4C90.89,11.61 95.94,13 95.94,13C95.94,13 95.94,13 95.94,13C95.94,13 100.51,14.19 100.51,14.19C100.51,14.19 100.51,14.19 100.51,14.19C100.51,14.19 100.96,14.32 101.38,14.46C102.55,14.84 105.69,15.76 107.91,16.64C110.33,17.6 113.06,19.22 115.31,20.09C117.11,20.78 119.24,21.42 120.31,21.63C120.8,21.72 120.89,21.7 121.4,21.72C122.55,21.77 125.5,21.87 127.06,21.72C128.17,21.61 129.16,21.2 129.88,21.18C130.33,21.17 130.49,21.25 130.97,21.34C131.94,21.52 134.24,22.1 135.32,22.29C135.96,22.4 136.21,22.37 136.85,22.48C137.97,22.68 139.72,23.05 141.41,23.55C143.6,24.2 147.13,25.67 148.81,26.24C149.67,26.53 150.16,26.65 150.77,26.85C151.31,27.03 151.7,27.37 152.29,27.39C153.08,27.42 154.51,26.78 155.12,26.63C155.41,26.56 155.49,26.56 155.77,26.48C156.32,26.33 157.35,25.92 158.17,25.68C159.02,25.44 159.77,25.32 160.78,25.04C162.23,24.64 164.84,23.72 166,23.41C166.57,23.26 166.69,23.26 167.3,23.12C168.79,22.78 172.92,21.84 174.92,21.31C176.24,20.96 177.17,20.56 178.18,20.36C179.03,20.19 179.71,20.13 180.57,20.08C181.57,20.02 182.72,19.96 183.84,20.05C185.04,20.15 186.21,20.39 187.54,20.71C189.14,21.1 191.27,22.2 192.76,22.33C193.83,22.43 194.47,22.09 195.59,21.98C197.23,21.82 200.57,21.58 201.68,21.52C202.1,21.5 202.22,21.53 202.55,21.49C202.99,21.44 203.42,21.26 204.07,21.19C205.18,21.06 207.71,21.1 208.64,21.05C209.04,21.03 209.11,20.99 209.51,20.99C210.44,20.98 213.53,21.19 214.08,21.22C214.2,21.23 214.18,21.22 214.3,21.23C214.75,21.26 216.64,21.38 217.56,21.47C218.23,21.54 218.76,21.59 219.3,21.68C219.77,21.76 220.13,21.82 220.61,21.95C221.2,22.11 222.08,22.45 222.56,22.61C222.84,22.7 222.9,22.71 223.22,22.83C224.11,23.15 227.08,24.41 228.22,24.78C228.79,24.96 229.17,25.02 229.53,25.12C229.78,25.19 229.91,25.26 230.18,25.3C230.62,25.37 231.41,25.3 231.92,25.35C232.33,25.39 232.64,25.42 233.01,25.54C233.43,25.67 233.86,25.91 234.31,26.14C234.8,26.39 235.84,27 235.84,27C235.84,27 235.84,27 235.84,27C235.84,27 238.26,27.85 239.1,28.18C239.64,28.39 239.96,28.57 240.4,28.74C240.83,28.91 241.39,29.1 241.71,29.21C241.89,29.27 242.02,29.31 242.14,29.35C242.23,29.38 242.25,29.39 242.36,29.43C242.73,29.56 244.02,30.06 244.76,30.25C245.38,30.41 245.92,30.45 246.5,30.56C247.08,30.67 247.8,30.83 248.24,30.93C248.51,30.99 248.66,31.05 248.89,31.09C249.16,31.13 249.38,31.1 249.76,31.15C250.5,31.25 252.28,31.6 253.02,31.77C253.4,31.86 253.57,31.94 253.89,32.01C254.28,32.09 254.71,32.12 255.2,32.19C255.83,32.28 256.74,32.37 257.37,32.52C257.87,32.64 258.32,32.84 258.68,32.94C258.93,33.01 259.13,33.05 259.33,33.09C259.49,33.12 259.58,33.11 259.77,33.15C260.13,33.23 260.74,33.47 261.29,33.65C261.95,33.87 262.72,34.08 263.47,34.38C264.31,34.71 265.31,35.34 266.08,35.58C266.64,35.76 267.12,35.73 267.6,35.86C268.05,35.98 268.65,36.21 268.9,36.3C269,36.34 269.05,36.37 269.12,36.39C269.19,36.41 269.26,36.41 269.34,36.43C269.46,36.46 269.61,36.53 269.77,36.57C269.97,36.62 270.21,36.65 270.43,36.71C270.65,36.77 270.83,36.85 271.08,36.93C271.44,37.05 271.95,37.25 272.39,37.36C272.82,37.47 273.37,37.53 273.69,37.61C273.88,37.66 274.13,37.76 274.13,37.76C274.13,37.76 274.13,37.76 274.13,37.76C274.13,37.76 275.66,38.54 276.3,38.78C276.78,38.96 277.11,39.1 277.61,39.15C278.24,39.22 279.43,39.07 279.78,39.02Q279.89,39 280,38.97" style="vector-effect: none; fill: none; stroke: rgb(138, 44, 81); stroke-opacity: 1; stroke-width: 5px; opacity: 1;"/></g><g class="points"/><g class="text"/></g><g class="trace scatter trace46c806" style="stroke-miterlimit: 2; opacity: 1;"><g class="fills"/><g class="errorbars"/><g class="lines"><path class="js-line" d="M81.59,70.54Q84.75,67.55 85.72,66.92C86.17,66.63 86.37,66.56 86.81,66.42C87.44,66.22 88.21,66.18 89.2,65.96C90.88,65.59 95.94,64.27 95.94,64.27C95.94,64.27 95.94,64.27 95.94,64.27C95.94,64.27 100.51,63.57 100.51,63.57C100.51,63.57 100.51,63.57 100.51,63.57C100.51,63.57 100.95,63.7 101.38,63.72C102.54,63.78 105.68,63.6 107.91,63.23C110.32,62.83 113.09,61.95 115.31,61.32C117.15,60.8 119.24,59.91 120.31,59.78C120.8,59.72 120.89,59.83 121.4,59.85C122.55,59.89 125.5,59.96 127.06,59.91C128.16,59.87 129.16,59.78 129.88,59.7C130.33,59.65 130.49,59.62 130.97,59.54C131.94,59.38 134.24,58.99 135.32,58.77C135.96,58.64 136.2,58.52 136.85,58.42C137.96,58.26 139.71,58.27 141.41,58.12C143.58,57.93 147.13,57.5 148.81,57.33C149.67,57.24 150.16,57.13 150.77,57.15C151.31,57.17 151.7,57.34 152.29,57.39C153.09,57.46 154.51,57.42 155.12,57.46C155.41,57.48 155.48,57.52 155.77,57.53C156.32,57.54 157.35,57.39 158.17,57.39C159.02,57.39 159.76,57.55 160.78,57.55C162.22,57.55 164.84,57.25 166,57.25C166.58,57.25 166.69,57.29 167.3,57.32C168.78,57.39 172.91,57.53 174.92,57.58C176.23,57.61 177.18,57.55 178.18,57.62C179.04,57.68 179.71,57.93 180.57,57.95C181.57,57.98 182.72,57.7 183.84,57.69C185.03,57.68 186.2,57.95 187.54,57.91C189.13,57.86 191.28,57.28 192.76,57.26C193.85,57.25 194.47,57.56 195.59,57.55C197.24,57.54 200.57,57.1 201.68,56.87C202.11,56.78 202.22,56.7 202.55,56.61C202.98,56.5 203.42,56.35 204.07,56.27C205.18,56.13 207.71,56.15 208.64,56.1C209.04,56.08 209.11,56.07 209.51,56.04C210.44,55.98 213.53,55.8 214.08,55.77C214.2,55.76 214.18,55.77 214.3,55.76C214.75,55.73 216.65,55.6 217.56,55.46C218.23,55.36 218.76,55.18 219.3,55.09C219.77,55.02 220.13,55.02 220.61,54.95C221.2,54.87 222.08,54.71 222.56,54.61C222.84,54.55 222.89,54.49 223.22,54.46C224.11,54.38 227.09,54.63 228.22,54.68C228.8,54.7 229.17,54.7 229.53,54.73C229.78,54.75 229.91,54.81 230.18,54.8C230.62,54.79 231.41,54.61 231.92,54.52C232.33,54.45 232.63,54.37 233.01,54.32C233.42,54.27 233.86,54.28 234.31,54.23C234.8,54.18 235.84,54 235.84,54C235.84,54 235.84,54 235.84,54C235.84,54 238.25,53.28 239.1,53.14C239.63,53.05 239.97,53.1 240.4,53.05C240.84,53 241.39,52.89 241.71,52.85C241.89,52.83 242.02,52.81 242.14,52.81C242.23,52.81 242.25,52.83 242.36,52.82C242.73,52.8 244.02,52.5 244.76,52.45C245.38,52.4 245.92,52.5 246.5,52.46C247.08,52.42 247.8,52.28 248.24,52.23C248.51,52.2 248.66,52.21 248.89,52.18C249.16,52.14 249.38,52.06 249.76,52.02C250.5,51.94 252.28,51.95 253.02,51.87C253.4,51.83 253.57,51.76 253.89,51.71C254.28,51.65 254.71,51.58 255.2,51.53C255.83,51.46 256.74,51.38 257.37,51.36C257.86,51.35 258.32,51.39 258.68,51.4C258.93,51.4 259.13,51.39 259.33,51.4C259.49,51.41 259.58,51.44 259.77,51.44C260.12,51.45 260.74,51.4 261.29,51.37C261.95,51.34 262.71,51.27 263.47,51.24C264.3,51.21 265.33,51.15 266.08,51.19C266.66,51.22 267.11,51.35 267.6,51.38C268.05,51.41 268.65,51.37 268.9,51.37C269,51.37 269.05,51.37 269.12,51.37C269.19,51.37 269.25,51.38 269.34,51.39C269.46,51.4 269.61,51.41 269.77,51.44C269.97,51.47 270.21,51.55 270.43,51.58C270.65,51.61 270.83,51.61 271.08,51.64C271.44,51.68 271.95,51.76 272.39,51.8C272.82,51.84 273.37,51.9 273.69,51.9C273.88,51.9 274.13,51.86 274.13,51.86C274.13,51.86 274.13,51.86 274.13,51.86C274.13,51.86 275.67,51.66 276.3,51.64C276.79,51.63 277.12,51.62 277.61,51.7C278.25,51.8 279.43,52.21 279.78,52.32Q279.89,52.36 280,52.4" style="vector-effect: none; fill: none; stroke: rgb(153, 51, 0); stroke-opacity: 1; stroke-width: 5px; opacity: 1;"/></g><g class="points"/><g class="text"/></g><g class="trace scatter tracea61827" style="stroke-miterlimit: 2; opacity: 1;"><g class="fills"/><g class="errorbars"/><g class="lines"><path class="js-line" d="M0,5.39Q2.79,5.71 4.13,5.48C5.48,5.25 6.95,4.28 8.05,4.01C8.8,3.82 9.61,3.64 10.01,3.75C10.22,3.8 10.21,3.91 10.44,4.07C11.32,4.67 15.46,7.42 16.97,8.11C17.71,8.44 18.07,8.39 18.71,8.64C19.55,8.97 20.62,9.47 21.54,10.03C22.51,10.62 23.27,11.44 24.37,12.12C25.73,12.95 27.84,13.65 29.15,14.52C30.2,15.21 30.71,15.79 31.76,16.73C33.46,18.26 36.89,21.98 38.29,22.98C38.85,23.38 39.13,23.43 39.6,23.66C40.14,23.92 40.75,24.1 41.34,24.47C42.05,24.91 42.65,25.61 43.51,26.22C44.65,27.03 46.77,28.4 47.65,28.82C48.03,29 48.28,29 48.52,29.11C48.69,29.19 48.75,29.26 48.95,29.36C49.33,29.55 50.21,29.87 50.69,30.11C51.04,30.28 51.17,30.4 51.56,30.6C52.33,30.99 53.95,31.59 55.04,32.15C56.05,32.67 57.46,33.59 57.87,33.8C57.98,33.86 57.98,33.84 58.09,33.9C58.56,34.14 60.87,35.54 61.57,35.93C61.87,36.1 61.95,36.18 62.22,36.28C62.61,36.42 63.4,36.49 63.75,36.57C63.94,36.61 63.96,36.63 64.18,36.68C64.89,36.85 67.76,37.41 68.75,37.74C69.25,37.9 69.52,38.14 69.84,38.21C70.08,38.26 70.19,38.16 70.49,38.22C71.23,38.36 73.32,39.3 74.19,39.6C74.66,39.76 74.86,39.76 75.28,39.94C75.93,40.22 76.76,40.86 77.67,41.28C78.8,41.8 80.31,42.08 81.59,42.75C83,43.49 84.77,45.07 85.72,45.62C86.19,45.89 86.37,45.97 86.81,46.14C87.44,46.38 88.2,46.54 89.2,46.84C90.88,47.35 95.94,48.94 95.94,48.94C95.94,48.94 95.94,48.94 95.94,48.94C95.94,48.94 100.51,50.1 100.51,50.1C100.51,50.1 100.51,50.1 100.51,50.1C100.51,50.1 100.96,50.09 101.38,50.09C102.54,50.08 105.67,50.14 107.91,50.06C110.3,49.98 113.09,49.53 115.31,49.59C117.14,49.64 119.25,50.16 120.31,50.18C120.8,50.19 120.9,50.08 121.4,50.1C122.55,50.14 125.5,50.66 127.06,50.96C128.17,51.17 129.16,51.58 129.88,51.62C130.33,51.65 130.49,51.56 130.97,51.5C131.94,51.39 134.24,50.97 135.32,50.95C135.96,50.94 136.2,51.09 136.85,51.1C137.96,51.12 139.71,50.87 141.41,50.84C143.58,50.8 147.14,50.84 148.81,50.96C149.67,51.02 150.16,51.16 150.77,51.21C151.31,51.25 151.71,51.18 152.29,51.24C153.09,51.32 154.51,51.65 155.12,51.74C155.41,51.78 155.48,51.8 155.77,51.81C156.32,51.83 157.36,51.78 158.17,51.69C159.02,51.6 159.76,51.34 160.78,51.24C162.22,51.1 164.84,51.2 166,51.11C166.58,51.06 166.69,51.01 167.3,50.93C168.78,50.74 172.93,49.89 174.92,50.08C176.25,50.21 177.17,50.85 178.18,51.09C179.03,51.29 179.71,51.34 180.57,51.49C181.58,51.67 182.71,52.03 183.84,52.09C185.03,52.15 186.2,51.76 187.54,51.79C189.13,51.83 191.28,52.35 192.76,52.48C193.84,52.58 194.47,52.53 195.59,52.62C197.24,52.75 200.57,53.19 201.68,53.31C202.1,53.36 202.22,53.37 202.55,53.4C202.99,53.44 203.43,53.52 204.07,53.55C205.18,53.61 207.71,53.55 208.64,53.59C209.04,53.61 209.11,53.62 209.51,53.65C210.44,53.73 213.53,54.09 214.08,54.12C214.2,54.13 214.18,54.12 214.3,54.12C214.75,54.12 216.64,54.12 217.56,54.16C218.23,54.19 218.76,54.27 219.3,54.3C219.77,54.32 220.13,54.3 220.61,54.32C221.2,54.35 222.08,54.44 222.56,54.48C222.84,54.5 222.9,54.53 223.22,54.54C224.11,54.56 227.09,54.3 228.22,54.33C228.8,54.35 229.17,54.41 229.53,54.46C229.78,54.49 229.91,54.51 230.18,54.57C230.62,54.67 231.41,54.93 231.92,55.07C232.33,55.18 232.63,55.28 233.01,55.37C233.42,55.47 233.86,55.54 234.31,55.64C234.8,55.75 235.84,55.99 235.84,55.99C235.84,55.99 235.84,55.99 235.84,55.99C235.84,55.99 238.25,56.89 239.1,57.16C239.63,57.33 239.96,57.42 240.4,57.51C240.83,57.6 241.39,57.67 241.71,57.7C241.89,57.72 242.02,57.72 242.14,57.71C242.23,57.71 242.25,57.69 242.36,57.68C242.73,57.65 244.03,57.65 244.76,57.58C245.39,57.52 245.92,57.43 246.5,57.33C247.08,57.23 247.8,57.07 248.24,57C248.51,56.96 248.66,56.93 248.89,56.91C249.16,56.89 249.38,56.92 249.76,56.9C250.5,56.86 252.28,56.62 253.02,56.57C253.4,56.55 253.57,56.55 253.89,56.55C254.28,56.55 254.71,56.57 255.2,56.6C255.83,56.63 256.74,56.74 257.37,56.75C257.86,56.76 258.32,56.7 258.68,56.69C258.93,56.68 259.13,56.69 259.33,56.69C259.49,56.69 259.58,56.69 259.77,56.69C260.12,56.69 260.74,56.71 261.29,56.72C261.95,56.73 262.71,56.75 263.47,56.74C264.3,56.73 265.33,56.66 266.08,56.64C266.65,56.63 267.11,56.62 267.6,56.63C268.05,56.64 268.65,56.65 268.9,56.67C269,56.68 269.05,56.69 269.12,56.69C269.19,56.69 269.25,56.69 269.34,56.69C269.46,56.69 269.61,56.68 269.77,56.67C269.97,56.65 270.21,56.62 270.43,56.59C270.65,56.56 270.83,56.53 271.08,56.51C271.44,56.48 271.95,56.49 272.39,56.46C272.82,56.44 273.37,56.38 273.69,56.36C273.88,56.35 274.13,56.35 274.13,56.35C274.13,56.35 274.13,56.35 274.13,56.35C274.13,56.35 275.67,56.4 276.3,56.4C276.79,56.4 277.12,56.38 277.61,56.38C278.24,56.38 279.43,56.44 279.78,56.44Q279.89,56.44 280,56.43" style="vector-effect: none; fill: none; stroke: rgb(97, 162, 41); stroke-opacity: 1; stroke-width: 5px; opacity: 1;"/></g><g class="points"/><g class="text"/></g></g></g><g class="overplot"/><path class="xlines-above crisp" d="M0,0" style="fill: none;"/><path class="ylines-above crisp" d="M0,0" style="fill: none;"/><g class="overlines-above"/><g class="xaxislayer-above"/><g class="yaxislayer-above"/><g class="overaxes-above"/></g></g><g class="polarlayer"/><g class="smithlayer"/><g class="ternarylayer"/><g class="geolayer"/><g class="funnelarealayer"/><g class="pielayer"/><g class="iciclelayer"/><g class="treemaplayer"/><g class="sunburstlayer"/><g class="glimages"/><defs id="topdefs-f2c8d1"><g class="clips"/></defs><g class="layer-above"><g class="imagelayer"/><g class="shapelayer"/></g><g class="infolayer"><g class="g-gtitle"><text class="gtitle" x="15" y="25" text-anchor="start" dy="0em" style="font-family: Ubuntu, verdana, arial, sans-serif; font-size: 16px; fill: rgb(233, 84, 32); opacity: 1; font-weight: normal; white-space: pre;">NRSR 2020-2023</text></g><g class="g-xtitle"/><g class="g-ytitle"/></g></svg>