<svg class="main-svg" xmlns="http://www.w3.org/2000/svg" xmlns:xlink="http://www.w3.org/1999/xlink" width="300" height="135" style="" viewBox="0 0 300 135"><rect x="0" y="0" width="300" height="135" style="fill: rgb(255, 255, 255); fill-opacity: 1;"/><defs id="defs-bb27e3"><g class="clips"><clipPath id="clipbb27e3xyplot" class="plotclip"><rect width="280" height="75"/></clipPath><clipPath class="axesclip" id="clipbb27e3x"><rect x="10" y="0" width="280" height="135"/></clipPath><clipPath class="axesclip" id="clipbb27e3y"><rect x="0" y="50" width="300" height="75"/></clipPath><clipPath class="axesclip" id="clipbb27e3xy"><rect x="10" y="50" width="280" height="75"/></clipPath></g><g class="gradients"/><g class="patterns"/></defs><g class="bglayer"/><g class="layer-below"><g class="imagelayer"/><g class="shapelayer"/></g><g class="cartesianlayer"><g class="subplot xy"><g class="layer-subplot"><g class="shapelayer"/><g class="imagelayer"/></g><g class="minor-gridlayer"><g class="x"/><g class="y"/></g><g class="gridlayer"><g class="x"><path class="xgrid crisp" transform="translate(35,0)" d="M0,50v75" style="stroke: rgb(235, 240, 248); stroke-opacity: 1; stroke-width: 1px;"/><path class="xgrid crisp" transform="translate(110,0)" d="M0,50v75" style="stroke: rgb(235, 240, 248); stroke-opacity: 1; stroke-width: 1px;"/><path class="xgrid crisp" transform="translate(187.5,0)" d="M0,50v75" style="stroke: rgb(235, 240, 248); stroke-opacity: 1; stroke-width: 1px;"/><path class="xgrid crisp" transform="translate(265,0)" d="M0,50v75" style="stroke: rgb(235, 240, 248); stroke-opacity: 1; stroke-width: 1px;"/></g><g class="y"><path class="ygrid crisp" transform="translate(0,108.99000000000001)" d="M10,0h280" style="stroke: rgb(235, 240, 248); stroke-opacity: 1; stroke-width: 1px;"/><path class="ygrid crisp" transform="translate(0,92.97999999999999)" d="M10,0h280" style="stroke: rgb(235, 240, 248); stroke-opacity: 1; stroke-width: 1px;"/><path class="ygrid crisp" transform="translate(0,76.97)" d="M10,0h280" style="stroke: rgb(235, 240, 248); stroke-opacity: 1; stroke-width: 1px;"/><path class="ygrid crisp" transform="translate(0,60.96)" d="M10,0h280" style="stroke: rgb(235, 240, 248); stroke-opacity: 1; stroke-width: 1px;"/></g></g><g class="zerolinelayer"><path class="yzl zl crisp" transform="translate(0,125)" d="M10,0h280" style="stroke: rgb(235, 240, 248); stroke-opacity: 1; stroke-width: 2px;"/></g><path class="xlines-below"/><path class="ylines-below"/><g class="overlines-below"/><g class="xaxislayer-below"/><g class="yaxislayer-below"/><g class="overaxes-below"/><g class="plot" transform="translate(10,50)" clip-path="url(#clipbb27e3xyplot)"><g class="scatterlayer mlayer"><g class="trace scatter trace955578" style="stroke-miterlimit: 2; opacity: 1;"><g class="fills"/><g class="errorbars"/><g class="lines"><path class="js-line" d="M0,17.68L5,19.12L7.5,18.64L27.5,18.8L30,20.56L60,22.32L62.5,21.84L67.5,21.36L70,24.08L72.5,23.6L75,24.88L92.5,24.4L95,26.01L100,27.13L102.5,27.29L122.5,27.45L125,27.45L130,27.29L132.5,24.88L137.5,23.6L140,23.12L152.5,22.32L155,21.52L175,20.56L177.5,19.92L182.5,19.92L185,18.48L190,18.48L192.5,14L202.5,5.67L205,5.67L220,6.31L222.5,7.11L232.5,7.27L235,3.75L245,6.15L247.5,6.15L252.5,7.11L255,7.75L257.5,8.87L262.5,9.67L280,9.67" style="vector-effect: none; fill: none; stroke: rgb(238, 58, 67); stroke-opacity: 1; stroke-width: 5px; opacity: 1;"/></g><g class="points"/><g class="text"/></g><g class="trace scatter traceac3a65" style="stroke-miterlimit: 2; opacity: 1;"><g class="fills"/><g class="errorbars"/><g class="lines"><path class="js-line" d="M0,43.46L5,40.1L7.5,38.17L10,32.25L12.5,32.09L15,33.37L17.5,32.09L27.5,31.77L30,26.33L32.5,23.92L35,25.04L40,23.44L42.5,23.28L45,24.08L47.5,23.28L67.5,23.28L70,21.84L72.5,21.04L75,18.64L95,19.12L97.5,20.72L120,22.8L122.5,22.8L137.5,23.6L140,23.6L152.5,23.12L155,22L160,21.84L162.5,22.16L172.5,22.48L175,22.48L190,23.28L192.5,25.04L202.5,24.88L205,24.88L207.5,24.88L210,21.2L220,21.04L222.5,19.12L232.5,18.8L235,22.48L245,24.56L247.5,24.56L255,23.44L257.5,21.68L267.5,20.4L270,20.4L280,20.4" style="vector-effect: none; fill: none; stroke: rgb(0, 180, 219); stroke-opacity: 1; stroke-width: 5px; opacity: 1;"/></g><g class="points"/><g class="text"/></g><g class="trace scatter traceb41299" style="stroke-miterlimit: 2; opacity: 1;"><g class="fills"/><g class="errorbars"/><g class="lines"><path class="js-line" d="M0,12.08L2.5,12.08L5,16.24L7.5,18.64L10,24.08L12.5,23.92L15,21.2L17.5,23.92L20,23.92L27.5,24.08L30,27.29L32.5,29.21L35,27.77L42.5,28.25L45,27.61L52.5,28.25L55,28.25L67.5,28.73L70,27.29L75,28.25L77.5,28.25L90,28.09L92.5,29.37L97.5,23.12L100,22.48L117.5,20.24L120,20.24L130,17.68L132.5,19.92L140,21.2L142.5,21.2L152.5,22.32L155,24.08L160,24.56L162.5,24.4L180,24.4L182.5,24.4L190,25.04L192.5,27.45L202.5,34.33L205,34.33L207.5,34.33L210,37.37L220,37.69L222.5,38.65L235,38.49L242.5,34.17L257.5,34.33L262.5,34.97L280,34.97" style="vector-effect: none; fill: none; stroke: rgb(138, 44, 81); stroke-opacity: 1; stroke-width: 5px; opacity: 1;"/></g><g class="points"/><g class="text"/></g><g class="trace scatter trace7ad412" style="stroke-miterlimit: 2; opacity: 1;"><g class="fills"/><g class="errorbars"/><g class="lines"><path class="js-line" d="M0,66.67L2.5,66.67L5,64.59L12.5,65.23L15,66.35L20,65.23L22.5,65.23L60,66.19L62.5,66.51L72.5,67.15L75,68.12L115,69.08L117.5,69.4L122.5,70.36L125,71L152.5,72.12L155,72.28L192.5,73.4" style="vector-effect: none; fill: none; stroke: rgb(1, 27, 58); stroke-opacity: 1; stroke-width: 5px; opacity: 1;"/></g><g class="points"/><g class="text"/></g></g></g><g class="overplot"/><path class="xlines-above crisp" d="M0,0" style="fill: none;"/><path class="ylines-above crisp" d="M0,0" style="fill: none;"/><g class="overlines-above"/><g class="xaxislayer-above"/><g class="yaxislayer-above"/><g class="overaxes-above"/></g></g><g class="polarlayer"/><g class="smithlayer"/><g class="ternarylayer"/><g class="geolayer"/><g class="funnelarealayer"/><g class="pielayer"/><g class="iciclelayer"/><g class="treemaplayer"/><g class="sunburstlayer"/><g class="glimages"/><defs id="topdefs-bb27e3"><g class="clips"/></defs><g class="layer-above"><g class="imagelayer"/><g class="shapelayer"/></g><g class="infolayer"><g class="g-gtitle"><text class="gtitle" x="15" y="25" text-anchor="start" dy="0em" style="font-family: Ubuntu, verdana, arial, sans-serif; font-size: 16px; fill: rgb(233, 84, 32); opacity: 1; font-weight: normal; white-space: pre;">Premiér/ka 2023</text></g><g class="g-xtitle"/><g class="g-ytitle"/></g></svg>