<svg class="main-svg" xmlns="http://www.w3.org/2000/svg" xmlns:xlink="http://www.w3.org/1999/xlink" width="300" height="135" style="" viewBox="0 0 300 135"><rect x="0" y="0" width="300" height="135" style="fill: rgb(255, 255, 255); fill-opacity: 1;"/><defs id="defs-a6a36e"><g class="clips"><clipPath id="clipa6a36exyplot" class="plotclip"><rect width="280" height="75"/></clipPath><clipPath class="axesclip" id="clipa6a36ex"><rect x="10" y="0" width="280" height="135"/></clipPath><clipPath class="axesclip" id="clipa6a36ey"><rect x="0" y="50" width="300" height="75"/></clipPath><clipPath class="axesclip" id="clipa6a36exy"><rect x="10" y="50" width="280" height="75"/></clipPath></g><g class="gradients"/><g class="patterns"/></defs><g class="bglayer"/><g class="layer-below"><g class="imagelayer"/><g class="shapelayer"/></g><g class="cartesianlayer"><g class="subplot xy"><g class="layer-subplot"><g class="shapelayer"/><g class="imagelayer"/></g><g class="minor-gridlayer"><g class="x"/><g class="y"/></g><g class="gridlayer"><g class="x"><path class="xgrid crisp" transform="translate(77.41,0)" d="M0,50v75" style="stroke: rgb(235, 240, 248); stroke-opacity: 1; stroke-width: 1px;"/><path class="xgrid crisp" transform="translate(150,0)" d="M0,50v75" style="stroke: rgb(235, 240, 248); stroke-opacity: 1; stroke-width: 1px;"/><path class="xgrid crisp" transform="translate(222.59,0)" d="M0,50v75" style="stroke: rgb(235, 240, 248); stroke-opacity: 1; stroke-width: 1px;"/></g><g class="y"><path class="ygrid crisp" transform="translate(0,105.94)" d="M10,0h280" style="stroke: rgb(235, 240, 248); stroke-opacity: 1; stroke-width: 1px;"/><path class="ygrid crisp" transform="translate(0,86.88)" d="M10,0h280" style="stroke: rgb(235, 240, 248); stroke-opacity: 1; stroke-width: 1px;"/><path class="ygrid crisp" transform="translate(0,67.82)" d="M10,0h280" style="stroke: rgb(235, 240, 248); stroke-opacity: 1; stroke-width: 1px;"/></g></g><g class="zerolinelayer"><path class="yzl zl crisp" transform="translate(0,125)" d="M10,0h280" style="stroke: rgb(235, 240, 248); stroke-opacity: 1; stroke-width: 2px;"/></g><path class="xlines-below"/><path class="ylines-below"/><g class="overlines-below"/><g class="xaxislayer-below"/><g class="yaxislayer-below"/><g class="overaxes-below"/><g class="plot" transform="translate(10,50)" clip-path="url(#clipa6a36exyplot)"><g class="scatterlayer mlayer"><g class="trace scatter trace584b8b" style="stroke-miterlimit: 2; opacity: 1;"><g class="fills"/><g class="errorbars"/><g class="lines"><path class="js-line" d="M0,3.81L5.19,3.75L10.37,8.08L15.56,10.32L20.74,16.6L25.93,16.4L31.11,13.58L36.3,16.4L41.48,16.4L57.04,16.65L62.22,20.19L67.41,22.42L72.59,21.12L88.15,21.16L93.33,20.67L108.89,21.21L114.07,21.21L140,21.69L145.19,19.96L155.56,20.98L160.74,20.98L186.67,20.78L191.85,22.42L197.04,19.56L202.22,15L238.52,11.78L243.7,11.53L254.07,10.29L259.26,9.22L269.63,8.27L274.81,10.71L280,11.72" style="vector-effect: none; fill: none; stroke: rgb(138, 44, 81); stroke-opacity: 1; stroke-width: 5px; opacity: 1;"/></g><g class="points"/><g class="text"/></g><g class="trace scatter tracea7402b" style="stroke-miterlimit: 2; opacity: 1;"><g class="fills"/><g class="errorbars"/><g class="lines"><path class="js-line" d="M0,10.24L5.19,11.63L10.37,11.31L20.74,10.41L25.93,10.18L36.3,10.18L41.48,10.18L57.04,10.47L62.22,12.57L124.44,14.29L129.63,13.8L140,13.15L145.19,16.25L150.37,15.94L155.56,17.03L191.85,16.74L197.04,18.66L207.41,19.78L212.59,19.91L264.44,19.53L269.63,19.36L280,15.15" style="vector-effect: none; fill: none; stroke: rgb(238, 58, 67); stroke-opacity: 1; stroke-width: 5px; opacity: 1;"/></g><g class="points"/><g class="text"/></g><g class="trace scatter tracea7d2c0" style="stroke-miterlimit: 2; opacity: 1;"><g class="fills"/><g class="errorbars"/><g class="lines"><path class="js-line" d="M0,39.32L5.19,38.01L10.37,35.07L15.56,32.81L20.74,25.97L25.93,25.8L31.11,27.39L36.3,25.8L41.48,25.8L57.04,25.35L62.22,19.2L67.41,16.46L72.59,17.94L77.78,16.25L82.96,15.88L88.15,15.45L93.33,16.55L103.7,15.51L108.89,15.51L140,15.59L145.19,13.77L150.37,13.12L155.56,10.03L197.04,10.69L202.22,12.21L238.52,14.74L243.7,14.5L280,15.15" style="vector-effect: none; fill: none; stroke: rgb(0, 180, 219); stroke-opacity: 1; stroke-width: 5px; opacity: 1;"/></g><g class="points"/><g class="text"/></g><g class="trace scatter trace4d6617" style="stroke-miterlimit: 2; opacity: 1;"><g class="fills"/><g class="errorbars"/><g class="lines"><path class="js-line" d="M0,65.52L5.19,65.51L10.37,63.04L20.74,63.29L25.93,63.75L31.11,65.18L36.3,63.75L67.41,64.62L72.59,65.13L108.89,64.8L114.07,64.8L150.37,66.01L155.56,67.1L238.52,68.16L243.7,68.5L254.07,69.58L259.26,70.31L280,71.38" style="vector-effect: none; fill: none; stroke: rgb(1, 27, 58); stroke-opacity: 1; stroke-width: 5px; opacity: 1;"/></g><g class="points"/><g class="text"/></g><g class="trace scatter trace8f0cc0" style="stroke-miterlimit: 2; opacity: 1;"><g class="fills"/><g class="errorbars"/><g class="lines"><path class="js-line" d="M0,72.59L280,72.9" style="vector-effect: none; fill: none; stroke: rgb(97, 162, 41); stroke-opacity: 1; stroke-width: 5px; opacity: 1;"/></g><g class="points"/><g class="text"/></g></g></g><g class="overplot"/><path class="xlines-above crisp" d="M0,0" style="fill: none;"/><path class="ylines-above crisp" d="M0,0" style="fill: none;"/><g class="overlines-above"/><g class="xaxislayer-above"/><g class="yaxislayer-above"/><g class="overaxes-above"/></g></g><g class="polarlayer"/><g class="smithlayer"/><g class="ternarylayer"/><g class="geolayer"/><g class="funnelarealayer"/><g class="pielayer"/><g class="iciclelayer"/><g class="treemaplayer"/><g class="sunburstlayer"/><g class="glimages"/><defs id="topdefs-a6a36e"><g class="clips"/></defs><g class="layer-above"><g class="imagelayer"/><g class="shapelayer"/></g><g class="infolayer"><g class="g-gtitle"><text class="gtitle" x="15" y="25" text-anchor="start" dy="0em" style="font-family: Ubuntu, verdana, arial, sans-serif; font-size: 16px; fill: rgb(233, 84, 32); opacity: 1; font-weight: normal; white-space: pre;">Premiér/ka 2023</text></g><g class="g-xtitle"/><g class="g-ytitle"/></g></svg>