<svg class="main-svg" xmlns="http://www.w3.org/2000/svg" xmlns:xlink="http://www.w3.org/1999/xlink" width="300" height="135" style="" viewBox="0 0 300 135"><rect x="0" y="0" width="300" height="135" style="fill: rgb(255, 255, 255); fill-opacity: 1;"/><defs id="defs-7bf7b4"><g class="clips"><clipPath id="clip7bf7b4xyplot" class="plotclip"><rect width="280" height="75"/></clipPath><clipPath class="axesclip" id="clip7bf7b4x"><rect x="10" y="0" width="280" height="135"/></clipPath><clipPath class="axesclip" id="clip7bf7b4y"><rect x="0" y="50" width="300" height="75"/></clipPath><clipPath class="axesclip" id="clip7bf7b4xy"><rect x="10" y="50" width="280" height="75"/></clipPath></g><g class="gradients"/><g class="patterns"/></defs><g class="bglayer"/><g class="layer-below"><g class="imagelayer"/><g class="shapelayer"/></g><g class="cartesianlayer"><g class="subplot xy"><g class="layer-subplot"><g class="shapelayer"/><g class="imagelayer"/></g><g class="minor-gridlayer"><g class="x"/><g class="y"/></g><g class="gridlayer"><g class="x"><path class="xgrid crisp" transform="translate(35.45,0)" d="M0,50v75" style="stroke: rgb(235, 240, 248); stroke-opacity: 1; stroke-width: 1px;"/><path class="xgrid crisp" transform="translate(111.82,0)" d="M0,50v75" style="stroke: rgb(235, 240, 248); stroke-opacity: 1; stroke-width: 1px;"/><path class="xgrid crisp" transform="translate(190.73,0)" d="M0,50v75" style="stroke: rgb(235, 240, 248); stroke-opacity: 1; stroke-width: 1px;"/><path class="xgrid crisp" transform="translate(269.64,0)" d="M0,50v75" style="stroke: rgb(235, 240, 248); stroke-opacity: 1; stroke-width: 1px;"/></g><g class="y"><path class="ygrid crisp" transform="translate(0,108.99000000000001)" d="M10,0h280" style="stroke: rgb(235, 240, 248); stroke-opacity: 1; stroke-width: 1px;"/><path class="ygrid crisp" transform="translate(0,92.97999999999999)" d="M10,0h280" style="stroke: rgb(235, 240, 248); stroke-opacity: 1; stroke-width: 1px;"/><path class="ygrid crisp" transform="translate(0,76.97)" d="M10,0h280" style="stroke: rgb(235, 240, 248); stroke-opacity: 1; stroke-width: 1px;"/><path class="ygrid crisp" transform="translate(0,60.96)" d="M10,0h280" style="stroke: rgb(235, 240, 248); stroke-opacity: 1; stroke-width: 1px;"/></g></g><g class="zerolinelayer"><path class="yzl zl crisp" transform="translate(0,125)" d="M10,0h280" style="stroke: rgb(235, 240, 248); stroke-opacity: 1; stroke-width: 2px;"/></g><path class="xlines-below"/><path class="ylines-below"/><g class="overlines-below"/><g class="xaxislayer-below"/><g class="yaxislayer-below"/><g class="overaxes-below"/><g class="plot" transform="translate(10,50)" clip-path="url(#clip7bf7b4xyplot)"><g class="scatterlayer mlayer"><g class="trace scatter trace7576a3" style="stroke-miterlimit: 2; opacity: 1;"><g class="fills"/><g class="errorbars"/><g class="lines"><path class="js-line" d="M0,17.68L5.09,19.12L7.64,18.64L28,18.8L30.55,20.56L61.09,22.32L63.64,21.84L68.73,21.36L71.27,24.08L73.82,23.6L76.36,24.88L94.18,24.4L96.73,26.01L101.82,27.13L104.36,27.29L124.73,27.45L127.27,27.45L132.36,27.29L134.91,24.88L140,23.6L142.55,23.12L155.27,22.32L157.82,21.52L178.18,20.56L180.73,19.92L185.82,19.92L188.36,18.48L193.45,18.48L196,14L206.18,5.67L208.73,5.67L224,6.31L226.55,7.11L236.73,7.27L239.27,3.75L249.45,6.15L252,6.15L257.09,7.11L259.64,7.75L262.18,8.87L267.27,9.67L280,9.67" style="vector-effect: none; fill: none; stroke: rgb(238, 58, 67); stroke-opacity: 1; stroke-width: 5px; opacity: 1;"/></g><g class="points"/><g class="text"/></g><g class="trace scatter traceb59e29" style="stroke-miterlimit: 2; opacity: 1;"><g class="fills"/><g class="errorbars"/><g class="lines"><path class="js-line" d="M0,43.46L5.09,40.1L7.64,38.17L10.18,32.25L12.73,32.09L15.27,33.37L17.82,32.09L28,31.77L30.55,26.33L33.09,23.92L35.64,25.04L40.73,23.44L43.27,23.28L45.82,24.08L48.36,23.28L68.73,23.28L71.27,21.84L73.82,21.04L76.36,18.64L96.73,19.12L99.27,20.72L122.18,22.8L124.73,22.8L140,23.6L142.55,23.6L155.27,23.12L157.82,22L162.91,21.84L165.45,22.16L175.64,22.48L178.18,22.48L193.45,23.28L196,25.04L206.18,24.88L208.73,24.88L211.27,24.88L213.82,21.2L224,21.04L226.55,19.12L236.73,18.8L239.27,22.48L249.45,24.56L252,24.56L259.64,23.44L262.18,21.68L272.36,20.4L274.91,20.4L280,20.4" style="vector-effect: none; fill: none; stroke: rgb(0, 180, 219); stroke-opacity: 1; stroke-width: 5px; opacity: 1;"/></g><g class="points"/><g class="text"/></g><g class="trace scatter traceb5d7fe" style="stroke-miterlimit: 2; opacity: 1;"><g class="fills"/><g class="errorbars"/><g class="lines"><path class="js-line" d="M0,12.08L2.55,12.08L5.09,16.24L7.64,18.64L10.18,24.08L12.73,23.92L15.27,21.2L17.82,23.92L20.36,23.92L28,24.08L30.55,27.29L33.09,29.21L35.64,27.77L43.27,28.25L45.82,27.61L53.45,28.25L56,28.25L68.73,28.73L71.27,27.29L76.36,28.25L78.91,28.25L91.64,28.09L94.18,29.37L99.27,23.12L101.82,22.48L119.64,20.24L122.18,20.24L132.36,17.68L134.91,19.92L142.55,21.2L145.09,21.2L155.27,22.32L157.82,24.08L162.91,24.56L165.45,24.4L183.27,24.4L185.82,24.4L193.45,25.04L196,27.45L206.18,34.33L208.73,34.33L211.27,34.33L213.82,37.37L224,37.69L226.55,38.65L239.27,38.49L246.91,34.17L262.18,34.33L267.27,34.97L280,34.97" style="vector-effect: none; fill: none; stroke: rgb(138, 44, 81); stroke-opacity: 1; stroke-width: 5px; opacity: 1;"/></g><g class="points"/><g class="text"/></g><g class="trace scatter trace320ed3" style="stroke-miterlimit: 2; opacity: 1;"><g class="fills"/><g class="errorbars"/><g class="lines"><path class="js-line" d="M0,66.67L2.55,66.67L5.09,64.59L12.73,65.23L15.27,66.35L20.36,65.23L22.91,65.23L61.09,66.19L63.64,66.51L73.82,67.15L76.36,68.12L117.09,69.08L119.64,69.4L124.73,70.36L127.27,71L155.27,72.12L157.82,72.28L196,73.4" style="vector-effect: none; fill: none; stroke: rgb(1, 27, 58); stroke-opacity: 1; stroke-width: 5px; opacity: 1;"/></g><g class="points"/><g class="text"/></g></g></g><g class="overplot"/><path class="xlines-above crisp" d="M0,0" style="fill: none;"/><path class="ylines-above crisp" d="M0,0" style="fill: none;"/><g class="overlines-above"/><g class="xaxislayer-above"/><g class="yaxislayer-above"/><g class="overaxes-above"/></g></g><g class="polarlayer"/><g class="smithlayer"/><g class="ternarylayer"/><g class="geolayer"/><g class="funnelarealayer"/><g class="pielayer"/><g class="iciclelayer"/><g class="treemaplayer"/><g class="sunburstlayer"/><g class="glimages"/><defs id="topdefs-7bf7b4"><g class="clips"/></defs><g class="layer-above"><g class="imagelayer"/><g class="shapelayer"/></g><g class="infolayer"><g class="g-gtitle"><text class="gtitle" x="15" y="25" text-anchor="start" dy="0em" style="font-family: Ubuntu, verdana, arial, sans-serif; font-size: 16px; fill: rgb(233, 84, 32); opacity: 1; font-weight: normal; white-space: pre;">Premiér/ka 2023</text></g><g class="g-xtitle"/><g class="g-ytitle"/></g></svg>