<svg class="main-svg" xmlns="http://www.w3.org/2000/svg" xmlns:xlink="http://www.w3.org/1999/xlink" width="300" height="135" style="" viewBox="0 0 300 135"><rect x="0" y="0" width="300" height="135" style="fill: rgb(255, 255, 255); fill-opacity: 1;"/><defs id="defs-144324"><g class="clips"><clipPath id="clip144324xyplot" class="plotclip"><rect width="280" height="75"/></clipPath><clipPath class="axesclip" id="clip144324x"><rect x="10" y="0" width="280" height="135"/></clipPath><clipPath class="axesclip" id="clip144324y"><rect x="0" y="50" width="300" height="75"/></clipPath><clipPath class="axesclip" id="clip144324xy"><rect x="10" y="50" width="280" height="75"/></clipPath></g><g class="gradients"/><g class="patterns"/></defs><g class="bglayer"/><g class="layer-below"><g class="imagelayer"/><g class="shapelayer"/></g><g class="cartesianlayer"><g class="subplot xy"><g class="layer-subplot"><g class="shapelayer"/><g class="imagelayer"/></g><g class="minor-gridlayer"><g class="x"/><g class="y"/></g><g class="gridlayer"><g class="x"><path class="xgrid crisp" transform="translate(41.82,0)" d="M0,50v75" style="stroke: rgb(235, 240, 248); stroke-opacity: 1; stroke-width: 1px;"/><path class="xgrid crisp" transform="translate(137.26999999999998,0)" d="M0,50v75" style="stroke: rgb(235, 240, 248); stroke-opacity: 1; stroke-width: 1px;"/><path class="xgrid crisp" transform="translate(235.91,0)" d="M0,50v75" style="stroke: rgb(235, 240, 248); stroke-opacity: 1; stroke-width: 1px;"/></g><g class="y"><path class="ygrid crisp" transform="translate(0,108.39)" d="M10,0h280" style="stroke: rgb(235, 240, 248); stroke-opacity: 1; stroke-width: 1px;"/><path class="ygrid crisp" transform="translate(0,91.78)" d="M10,0h280" style="stroke: rgb(235, 240, 248); stroke-opacity: 1; stroke-width: 1px;"/><path class="ygrid crisp" transform="translate(0,75.17)" d="M10,0h280" style="stroke: rgb(235, 240, 248); stroke-opacity: 1; stroke-width: 1px;"/><path class="ygrid crisp" transform="translate(0,58.57)" d="M10,0h280" style="stroke: rgb(235, 240, 248); stroke-opacity: 1; stroke-width: 1px;"/></g></g><g class="zerolinelayer"><path class="yzl zl crisp" transform="translate(0,125)" d="M10,0h280" style="stroke: rgb(235, 240, 248); stroke-opacity: 1; stroke-width: 2px;"/></g><path class="xlines-below"/><path class="ylines-below"/><g class="overlines-below"/><g class="xaxislayer-below"/><g class="yaxislayer-below"/><g class="overaxes-below"/><g class="plot" transform="translate(10,50)" clip-path="url(#clip144324xyplot)"><g class="scatterlayer mlayer"><g class="trace scatter trace441507" style="stroke-miterlimit: 2; opacity: 1;"><g class="fills"/><g class="errorbars"/><g class="lines"><path class="js-line" d="M0,12.34L3.18,13.65L6.36,13L12.73,12.66L15.91,12.66L19.09,13.5L22.27,12.66L35,12.89L38.18,15.01L63.64,17.11L66.82,17.11L85.91,16.16L89.09,19.27L92.27,19.01L95.45,20.59L117.73,20.11L120.91,21.89L127.27,23.55L130.45,23.61L165.45,24.26L168.64,21.91L175,20.61L178.18,20.23L222.73,19.03L225.91,17.87L232.27,17.87L235.45,15.87L241.82,15.87L245,10.96L257.73,3.75L260.91,3.75L280,3.75" style="vector-effect: none; fill: none; stroke: rgb(238, 58, 67); stroke-opacity: 1; stroke-width: 5px; opacity: 1;"/></g><g class="points"/><g class="text"/></g><g class="trace scatter trace082e6e" style="stroke-miterlimit: 2; opacity: 1;"><g class="fills"/><g class="errorbars"/><g class="lines"><path class="js-line" d="M0,40.53L3.18,39.21L6.36,36.17L9.55,34.15L12.73,27.68L15.91,27.68L19.09,29.36L22.27,27.68L25.45,27.68L35,27.25L38.18,21.43L41.36,18.87L44.55,20.24L50.91,18.46L54.09,18.19L57.27,19.07L60.45,18.19L85.91,18.5L89.09,16.91L92.27,16.18L95.45,13.94L120.91,14.34L124.09,16.5L159.09,19.69L162.27,19.69L168.64,20.45L171.82,20.61L206.82,20.36L210,20.86L241.82,20.86L245,22.74L264.09,23.51L267.27,19.14L280,19.03" style="vector-effect: none; fill: none; stroke: rgb(0, 180, 219); stroke-opacity: 1; stroke-width: 5px; opacity: 1;"/></g><g class="points"/><g class="text"/></g><g class="trace scatter trace43d99e" style="stroke-miterlimit: 2; opacity: 1;"><g class="fills"/><g class="errorbars"/><g class="lines"><path class="js-line" d="M0,6.05L3.18,6.05L6.36,9.75L9.55,12.38L12.73,18.58L15.91,18.58L19.09,16.05L22.27,18.58L25.45,18.58L35,18.78L38.18,22.47L41.36,24.69L44.55,23.11L54.09,23.61L57.27,23.08L66.82,23.61L70,23.61L85.91,24.26L89.09,22.73L95.45,24.38L98.64,24.38L117.73,25.6L120.91,22.69L124.09,19.1L127.27,18.5L146.36,16.08L149.55,16.08L162.27,14.87L165.45,14.11L171.82,17.69L175,17.69L184.55,18.12L187.73,18.12L190.91,18.12L194.09,19.42L200.45,22.68L203.64,22.68L241.82,22.68L245,25.22L257.73,33.15L260.91,33.15L264.09,33.15L267.27,35.88L280,36.3" style="vector-effect: none; fill: none; stroke: rgb(138, 44, 81); stroke-opacity: 1; stroke-width: 5px; opacity: 1;"/></g><g class="points"/><g class="text"/></g></g></g><g class="overplot"/><path class="xlines-above crisp" d="M0,0" style="fill: none;"/><path class="ylines-above crisp" d="M0,0" style="fill: none;"/><g class="overlines-above"/><g class="xaxislayer-above"/><g class="yaxislayer-above"/><g class="overaxes-above"/></g></g><g class="polarlayer"/><g class="smithlayer"/><g class="ternarylayer"/><g class="geolayer"/><g class="funnelarealayer"/><g class="pielayer"/><g class="iciclelayer"/><g class="treemaplayer"/><g class="sunburstlayer"/><g class="glimages"/><defs id="topdefs-144324"><g class="clips"/></defs><g class="layer-above"><g class="imagelayer"/><g class="shapelayer"/></g><g class="infolayer"><g class="g-gtitle"><text class="gtitle" x="15" y="25" text-anchor="start" dy="0em" style="font-family: Ubuntu, verdana, arial, sans-serif; font-size: 16px; fill: rgb(233, 84, 32); opacity: 1; font-weight: normal; white-space: pre;">Premiér/ka 2023</text></g><g class="g-xtitle"/><g class="g-ytitle"/></g></svg>