<svg class="main-svg" xmlns="http://www.w3.org/2000/svg" xmlns:xlink="http://www.w3.org/1999/xlink" width="300" height="135" style="" viewBox="0 0 300 135"><rect x="0" y="0" width="300" height="135" style="fill: rgb(255, 255, 255); fill-opacity: 1;"/><defs id="defs-9d1a07"><g class="clips"><clipPath id="clip9d1a07xyplot" class="plotclip"><rect width="280" height="75"/></clipPath><clipPath class="axesclip" id="clip9d1a07x"><rect x="10" y="0" width="280" height="135"/></clipPath><clipPath class="axesclip" id="clip9d1a07y"><rect x="0" y="50" width="300" height="75"/></clipPath><clipPath class="axesclip" id="clip9d1a07xy"><rect x="10" y="50" width="280" height="75"/></clipPath></g><g class="gradients"/><g class="patterns"/></defs><g class="bglayer"/><g class="layer-below"><g class="imagelayer"/><g class="shapelayer"/></g><g class="cartesianlayer"><g class="subplot xy"><g class="layer-subplot"><g class="shapelayer"/><g class="imagelayer"/></g><g class="minor-gridlayer"><g class="x"/><g class="y"/></g><g class="gridlayer"><g class="x"><path class="xgrid crisp" transform="translate(41.46,0)" d="M0,50v75" style="stroke: rgb(235, 240, 248); stroke-opacity: 1; stroke-width: 1px;"/><path class="xgrid crisp" transform="translate(135.84,0)" d="M0,50v75" style="stroke: rgb(235, 240, 248); stroke-opacity: 1; stroke-width: 1px;"/><path class="xgrid crisp" transform="translate(233.37,0)" d="M0,50v75" style="stroke: rgb(235, 240, 248); stroke-opacity: 1; stroke-width: 1px;"/></g><g class="y"><path class="ygrid crisp" transform="translate(0,108.2)" d="M10,0h280" style="stroke: rgb(235, 240, 248); stroke-opacity: 1; stroke-width: 1px;"/><path class="ygrid crisp" transform="translate(0,91.39)" d="M10,0h280" style="stroke: rgb(235, 240, 248); stroke-opacity: 1; stroke-width: 1px;"/><path class="ygrid crisp" transform="translate(0,74.59)" d="M10,0h280" style="stroke: rgb(235, 240, 248); stroke-opacity: 1; stroke-width: 1px;"/><path class="ygrid crisp" transform="translate(0,57.78)" d="M10,0h280" style="stroke: rgb(235, 240, 248); stroke-opacity: 1; stroke-width: 1px;"/></g></g><g class="zerolinelayer"><path class="yzl zl crisp" transform="translate(0,125)" d="M10,0h280" style="stroke: rgb(235, 240, 248); stroke-opacity: 1; stroke-width: 2px;"/></g><path class="xlines-below"/><path class="ylines-below"/><g class="overlines-below"/><g class="xaxislayer-below"/><g class="yaxislayer-below"/><g class="overaxes-below"/><g class="plot" transform="translate(10,50)" clip-path="url(#clip9d1a07xyplot)"><g class="scatterlayer mlayer"><g class="trace scatter trace90c015" style="stroke-miterlimit: 2; opacity: 1;"><g class="fills"/><g class="errorbars"/><g class="lines"><path class="js-line" d="M0,11.55L3.15,13L6.29,12.17L12.58,11.98L15.73,11.98L18.88,12.85L22.02,11.98L34.61,12.22L37.75,14.35L66.07,16.39L69.21,16.39L84.94,15.53L88.09,18.61L91.24,18.29L94.38,20.01L116.4,19.52L119.55,21.23L122.7,22.77L125.84,22.88L160.45,23.71L163.6,23.61L169.89,20.04L173.03,20.04L182.47,19.54L185.62,19.54L220.22,19.04L223.37,18.03L229.66,18.03L232.81,15.85L239.1,15.85L242.25,10.98L254.83,3.75L257.98,3.75L280,3.75" style="vector-effect: none; fill: none; stroke: rgb(238, 58, 67); stroke-opacity: 1; stroke-width: 5px; opacity: 1;"/></g><g class="points"/><g class="text"/></g><g class="trace scatter trace14be41" style="stroke-miterlimit: 2; opacity: 1;"><g class="fills"/><g class="errorbars"/><g class="lines"><path class="js-line" d="M0,40.13L3.15,38.76L6.29,35.79L9.44,33.75L12.58,27.08L15.73,27.08L18.88,28.81L22.02,27.08L25.17,27.08L34.61,26.63L37.75,20.77L40.9,18.25L44.04,19.5L50.34,17.83L53.48,17.5L56.63,18.35L59.78,17.5L84.94,17.76L88.09,16.19L91.24,15.55L94.38,13.2L119.55,13.67L122.7,15.76L147.87,18.21L151.01,18.21L173.03,20.04L176.18,20.04L204.49,20.55L207.64,20.89L239.1,20.89L242.25,22.74L261.12,23.58L264.27,19.04L276.85,19.04L280,16.35" style="vector-effect: none; fill: none; stroke: rgb(0, 180, 219); stroke-opacity: 1; stroke-width: 5px; opacity: 1;"/></g><g class="points"/><g class="text"/></g><g class="trace scatter trace20e90e" style="stroke-miterlimit: 2; opacity: 1;"><g class="fills"/><g class="errorbars"/><g class="lines"><path class="js-line" d="M0,5.27L3.15,5.21L6.29,8.99L9.44,11.6L12.58,17.9L15.73,17.9L18.88,15.3L22.02,17.9L25.17,17.9L34.61,18.11L37.75,21.84L40.9,24.05L44.04,22.59L53.48,23.06L56.63,22.46L66.07,23.06L69.21,23.06L84.94,23.66L88.09,22.16L97.53,23.74L100.67,23.74L116.4,24.99L119.55,22.06L122.7,18.43L125.84,17.87L141.57,15.39L144.72,15.39L160.45,14.15L163.6,13.37L166.74,15.94L169.89,16.88L188.76,17.38L191.91,18.71L198.2,22.74L201.35,22.74L239.1,22.74L242.25,25.26L254.83,33.16L257.98,33.16L261.12,33.16L264.27,35.85L280,36.85" style="vector-effect: none; fill: none; stroke: rgb(138, 44, 81); stroke-opacity: 1; stroke-width: 5px; opacity: 1;"/></g><g class="points"/><g class="text"/></g></g></g><g class="overplot"/><path class="xlines-above crisp" d="M0,0" style="fill: none;"/><path class="ylines-above crisp" d="M0,0" style="fill: none;"/><g class="overlines-above"/><g class="xaxislayer-above"/><g class="yaxislayer-above"/><g class="overaxes-above"/></g></g><g class="polarlayer"/><g class="smithlayer"/><g class="ternarylayer"/><g class="geolayer"/><g class="funnelarealayer"/><g class="pielayer"/><g class="iciclelayer"/><g class="treemaplayer"/><g class="sunburstlayer"/><g class="glimages"/><defs id="topdefs-9d1a07"><g class="clips"/></defs><g class="layer-above"><g class="imagelayer"/><g class="shapelayer"/></g><g class="infolayer"><g class="g-gtitle"><text class="gtitle" x="15" y="25" text-anchor="start" dy="0em" style="font-family: Ubuntu, verdana, arial, sans-serif; font-size: 16px; fill: rgb(233, 84, 32); opacity: 1; font-weight: normal; white-space: pre;">Premiér/ka 2023</text></g><g class="g-xtitle"/><g class="g-ytitle"/></g></svg>