<svg class="main-svg" xmlns="http://www.w3.org/2000/svg" xmlns:xlink="http://www.w3.org/1999/xlink" width="300" height="135" style="" viewBox="0 0 300 135"><rect x="0" y="0" width="300" height="135" style="fill: rgb(255, 255, 255); fill-opacity: 1;"/><defs id="defs-367037"><g class="clips"><clipPath id="clip367037xyplot" class="plotclip"><rect width="280" height="75"/></clipPath><clipPath class="axesclip" id="clip367037x"><rect x="10" y="0" width="280" height="135"/></clipPath><clipPath class="axesclip" id="clip367037y"><rect x="0" y="50" width="300" height="75"/></clipPath><clipPath class="axesclip" id="clip367037xy"><rect x="10" y="50" width="280" height="75"/></clipPath></g><g class="gradients"/><g class="patterns"/></defs><g class="bglayer"/><g class="layer-below"><g class="imagelayer"/><g class="shapelayer"/></g><g class="cartesianlayer"><g class="subplot xy"><g class="layer-subplot"><g class="shapelayer"/><g class="imagelayer"/></g><g class="minor-gridlayer"><g class="x"/><g class="y"/></g><g class="gridlayer"><g class="x"><path class="xgrid crisp" transform="translate(64.33,0)" d="M0,50v75" style="stroke: rgb(235, 240, 248); stroke-opacity: 1; stroke-width: 1px;"/><path class="xgrid crisp" transform="translate(122.84,0)" d="M0,50v75" style="stroke: rgb(235, 240, 248); stroke-opacity: 1; stroke-width: 1px;"/><path class="xgrid crisp" transform="translate(181.34,0)" d="M0,50v75" style="stroke: rgb(235, 240, 248); stroke-opacity: 1; stroke-width: 1px;"/><path class="xgrid crisp" transform="translate(239.85,0)" d="M0,50v75" style="stroke: rgb(235, 240, 248); stroke-opacity: 1; stroke-width: 1px;"/></g><g class="y"><path class="ygrid crisp" transform="translate(0,106.9)" d="M10,0h280" style="stroke: rgb(235, 240, 248); stroke-opacity: 1; stroke-width: 1px;"/><path class="ygrid crisp" transform="translate(0,88.81)" d="M10,0h280" style="stroke: rgb(235, 240, 248); stroke-opacity: 1; stroke-width: 1px;"/><path class="ygrid crisp" transform="translate(0,70.71000000000001)" d="M10,0h280" style="stroke: rgb(235, 240, 248); stroke-opacity: 1; stroke-width: 1px;"/><path class="ygrid crisp" transform="translate(0,52.61)" d="M10,0h280" style="stroke: rgb(235, 240, 248); stroke-opacity: 1; stroke-width: 1px;"/></g></g><g class="zerolinelayer"><path class="yzl zl crisp" transform="translate(0,125)" d="M10,0h280" style="stroke: rgb(235, 240, 248); stroke-opacity: 1; stroke-width: 2px;"/></g><path class="xlines-below"/><path class="ylines-below"/><g class="overlines-below"/><g class="xaxislayer-below"/><g class="yaxislayer-below"/><g class="overaxes-below"/><g class="plot" transform="translate(10,50)" clip-path="url(#clip367037xyplot)"><g class="scatterlayer mlayer"><g class="trace scatter trace1ece01" style="stroke-miterlimit: 2; opacity: 1;"><g class="fills"/><g class="errorbars"/><g class="lines"><path class="js-line" d="M0,10.24L8.36,11.84L12.54,11.26L37.61,11.24L41.79,11.24L45.97,11.45L50.15,13.41L83.58,15.36L87.76,15.36L112.84,14.31L117.01,17.37L121.19,16.89L125.37,18.39L154.63,17.71L158.81,19.6L167.16,20.95L171.34,21.18L217.31,21.03L221.49,18.34L225.67,16.92L229.85,16.92L242.39,16.4L246.57,16.4L254.93,15.55L259.1,14.56L280,13.47" style="vector-effect: none; fill: none; stroke: rgb(238, 58, 67); stroke-opacity: 1; stroke-width: 5px; opacity: 1;"/></g><g class="points"/><g class="text"/></g><g class="trace scatter tracee36826" style="stroke-miterlimit: 2; opacity: 1;"><g class="fills"/><g class="errorbars"/><g class="lines"><path class="js-line" d="M0,39.4L8.36,35.43L12.54,33.41L16.72,26.65L20.9,26.48L25.07,27.96L29.25,26.48L45.97,26.04L50.15,19.95L54.33,17.33L58.51,18.49L66.87,16.78L71.04,16.47L75.22,17.4L79.4,16.47L112.84,16.69L117.01,14.95L121.19,13.98L125.37,11.35L158.81,11.8L162.99,13.55L179.7,15.24L183.88,15.24L192.24,16.02L196.42,15.86L213.13,16.32L217.31,17.12L234.03,16.92L238.21,16.92L254.93,16.25L259.1,15.09L267.46,14.86L271.64,15.22L280,15.64" style="vector-effect: none; fill: none; stroke: rgb(0, 180, 219); stroke-opacity: 1; stroke-width: 5px; opacity: 1;"/></g><g class="points"/><g class="text"/></g><g class="trace scatter tracee340a2" style="stroke-miterlimit: 2; opacity: 1;"><g class="fills"/><g class="errorbars"/><g class="lines"><path class="js-line" d="M0,3.81L4.18,3.75L8.36,8.56L12.54,11.26L16.72,17.44L20.9,17.24L25.07,14.17L29.25,17.24L33.43,17.24L45.97,17.44L50.15,21.01L54.33,23.25L58.51,21.57L66.87,22.13L71.04,22.16L75.22,21.5L79.4,22.16L112.84,22.59L117.01,21.08L125.37,22.15L129.55,22.15L150.45,21.91L154.63,23.55L162.99,16.43L167.16,15.69L192.24,13.16L196.42,12.99L204.78,11.97L208.96,11.06L217.31,10.14L221.49,12.67L229.85,13.64L234.03,14.16L250.75,14.16L254.93,15.55L263.28,18.09L267.46,17.92L280,17.63" style="vector-effect: none; fill: none; stroke: rgb(138, 44, 81); stroke-opacity: 1; stroke-width: 5px; opacity: 1;"/></g><g class="points"/><g class="text"/></g><g class="trace scatter trace6c848d" style="stroke-miterlimit: 2; opacity: 1;"><g class="fills"/><g class="errorbars"/><g class="lines"><path class="js-line" d="M0,65.58L4.18,65.57L8.36,63.2L20.9,64.06L25.07,65.35L33.43,64.06L37.61,64.06L100.3,65.03L104.48,65.44L121.19,66.26L125.37,67.15L192.24,68.26L196.42,68.75L204.78,69.75L208.96,70.42L250.75,71.55L254.93,71.69L280,72.29" style="vector-effect: none; fill: none; stroke: rgb(1, 27, 58); stroke-opacity: 1; stroke-width: 5px; opacity: 1;"/></g><g class="points"/><g class="text"/></g></g></g><g class="overplot"/><path class="xlines-above crisp" d="M0,0" style="fill: none;"/><path class="ylines-above crisp" d="M0,0" style="fill: none;"/><g class="overlines-above"/><g class="xaxislayer-above"/><g class="yaxislayer-above"/><g class="overaxes-above"/></g></g><g class="polarlayer"/><g class="smithlayer"/><g class="ternarylayer"/><g class="geolayer"/><g class="funnelarealayer"/><g class="pielayer"/><g class="iciclelayer"/><g class="treemaplayer"/><g class="sunburstlayer"/><g class="glimages"/><defs id="topdefs-367037"><g class="clips"/></defs><g class="layer-above"><g class="imagelayer"/><g class="shapelayer"/></g><g class="infolayer"><g class="g-gtitle"><text class="gtitle" x="15" y="25" text-anchor="start" dy="0em" style="font-family: Ubuntu, verdana, arial, sans-serif; font-size: 16px; fill: rgb(233, 84, 32); opacity: 1; font-weight: normal; white-space: pre;">Premiér/ka 2023</text></g><g class="g-xtitle"/><g class="g-ytitle"/></g></svg>