<svg class="main-svg" xmlns="http://www.w3.org/2000/svg" xmlns:xlink="http://www.w3.org/1999/xlink" width="300" height="135" style="" viewBox="0 0 300 135"><rect x="0" y="0" width="300" height="135" style="fill: rgb(255, 255, 255); fill-opacity: 1;"/><defs id="defs-c394ff"><g class="clips"><clipPath id="clipc394ffxyplot" class="plotclip"><rect width="280" height="75"/></clipPath><clipPath class="axesclip" id="clipc394ffx"><rect x="10" y="0" width="280" height="135"/></clipPath><clipPath class="axesclip" id="clipc394ffy"><rect x="0" y="50" width="300" height="75"/></clipPath><clipPath class="axesclip" id="clipc394ffxy"><rect x="10" y="50" width="280" height="75"/></clipPath></g><g class="gradients"/><g class="patterns"/></defs><g class="bglayer"/><g class="layer-below"><g class="imagelayer"/><g class="shapelayer"/></g><g class="cartesianlayer"><g class="subplot xy"><g class="layer-subplot"><g class="shapelayer"/><g class="imagelayer"/></g><g class="minor-gridlayer"><g class="x"/><g class="y"/></g><g class="gridlayer"><g class="x"><path class="xgrid crisp" transform="translate(33.730000000000004,0)" d="M0,50v75" style="stroke: rgb(235, 240, 248); stroke-opacity: 1; stroke-width: 1px;"/><path class="xgrid crisp" transform="translate(104.92,0)" d="M0,50v75" style="stroke: rgb(235, 240, 248); stroke-opacity: 1; stroke-width: 1px;"/><path class="xgrid crisp" transform="translate(178.47,0)" d="M0,50v75" style="stroke: rgb(235, 240, 248); stroke-opacity: 1; stroke-width: 1px;"/><path class="xgrid crisp" transform="translate(252.03,0)" d="M0,50v75" style="stroke: rgb(235, 240, 248); stroke-opacity: 1; stroke-width: 1px;"/></g><g class="y"><path class="ygrid crisp" transform="translate(0,108.99000000000001)" d="M10,0h280" style="stroke: rgb(235, 240, 248); stroke-opacity: 1; stroke-width: 1px;"/><path class="ygrid crisp" transform="translate(0,92.97999999999999)" d="M10,0h280" style="stroke: rgb(235, 240, 248); stroke-opacity: 1; stroke-width: 1px;"/><path class="ygrid crisp" transform="translate(0,76.97)" d="M10,0h280" style="stroke: rgb(235, 240, 248); stroke-opacity: 1; stroke-width: 1px;"/><path class="ygrid crisp" transform="translate(0,60.96)" d="M10,0h280" style="stroke: rgb(235, 240, 248); stroke-opacity: 1; stroke-width: 1px;"/></g></g><g class="zerolinelayer"><path class="yzl zl crisp" transform="translate(0,125)" d="M10,0h280" style="stroke: rgb(235, 240, 248); stroke-opacity: 1; stroke-width: 2px;"/></g><path class="xlines-below"/><path class="ylines-below"/><g class="overlines-below"/><g class="xaxislayer-below"/><g class="yaxislayer-below"/><g class="overaxes-below"/><g class="plot" transform="translate(10,50)" clip-path="url(#clipc394ffxyplot)"><g class="scatterlayer mlayer"><g class="trace scatter trace9c94ce" style="stroke-miterlimit: 2; opacity: 1;"><g class="fills"/><g class="errorbars"/><g class="lines"><path class="js-line" d="M0,17.68L4.75,19.12L7.12,18.64L26.1,18.8L28.47,20.56L56.95,22.32L59.32,21.84L64.07,21.36L66.44,24.08L68.81,23.6L71.19,24.88L87.8,24.4L90.17,26.01L94.92,27.13L97.29,27.29L116.27,27.45L118.64,27.45L123.39,27.29L125.76,24.88L130.51,23.6L132.88,23.12L144.75,22.32L147.12,21.52L166.1,20.56L168.47,19.92L173.22,19.92L175.59,18.48L180.34,18.48L182.71,14L192.2,5.67L194.58,5.67L208.81,6.31L211.19,7.11L220.68,7.27L223.05,3.75L232.54,6.15L234.92,6.15L239.66,7.11L242.03,7.75L244.41,8.87L249.15,9.67L272.88,8.71L275.25,7.27L280,7.27" style="vector-effect: none; fill: none; stroke: rgb(238, 58, 67); stroke-opacity: 1; stroke-width: 5px; opacity: 1;"/></g><g class="points"/><g class="text"/></g><g class="trace scatter trace82f88e" style="stroke-miterlimit: 2; opacity: 1;"><g class="fills"/><g class="errorbars"/><g class="lines"><path class="js-line" d="M0,43.46L4.75,40.1L7.12,38.17L9.49,32.25L11.86,32.09L14.24,33.37L16.61,32.09L26.1,31.77L28.47,26.33L30.85,23.92L33.22,25.04L37.97,23.44L40.34,23.28L42.71,24.08L45.08,23.28L64.07,23.28L66.44,21.84L68.81,21.04L71.19,18.64L90.17,19.12L92.54,20.72L113.9,22.8L116.27,22.8L130.51,23.6L132.88,23.6L144.75,23.12L147.12,22L151.86,21.84L154.24,22.16L163.73,22.48L166.1,22.48L180.34,23.28L182.71,25.04L192.2,24.88L194.58,24.88L196.95,24.88L199.32,21.2L208.81,21.04L211.19,19.12L220.68,18.8L223.05,22.48L232.54,24.56L234.92,24.56L242.03,23.44L244.41,21.68L253.9,20.4L256.27,20.4L272.88,20.88L275.25,21.84L280,21.84" style="vector-effect: none; fill: none; stroke: rgb(0, 180, 219); stroke-opacity: 1; stroke-width: 5px; opacity: 1;"/></g><g class="points"/><g class="text"/></g><g class="trace scatter trace8ea6db" style="stroke-miterlimit: 2; opacity: 1;"><g class="fills"/><g class="errorbars"/><g class="lines"><path class="js-line" d="M0,12.08L2.37,12.08L4.75,16.24L7.12,18.64L9.49,24.08L11.86,23.92L14.24,21.2L16.61,23.92L18.98,23.92L26.1,24.08L28.47,27.29L30.85,29.21L33.22,27.77L40.34,28.25L42.71,27.61L49.83,28.25L52.2,28.25L64.07,28.73L66.44,27.29L71.19,28.25L73.56,28.25L85.42,28.09L87.8,29.37L92.54,23.12L94.92,22.48L111.53,20.24L113.9,20.24L123.39,17.68L125.76,19.92L132.88,21.2L135.25,21.2L144.75,22.32L147.12,24.08L151.86,24.56L154.24,24.4L170.85,24.4L173.22,24.4L180.34,25.04L182.71,27.45L192.2,34.33L194.58,34.33L196.95,34.33L199.32,37.37L208.81,37.69L211.19,38.65L223.05,38.49L230.17,34.17L244.41,34.33L249.15,34.97L280,35.77" style="vector-effect: none; fill: none; stroke: rgb(138, 44, 81); stroke-opacity: 1; stroke-width: 5px; opacity: 1;"/></g><g class="points"/><g class="text"/></g><g class="trace scatter tracee79486" style="stroke-miterlimit: 2; opacity: 1;"><g class="fills"/><g class="errorbars"/><g class="lines"><path class="js-line" d="M0,66.67L2.37,66.67L4.75,64.59L11.86,65.23L14.24,66.35L18.98,65.23L21.36,65.23L56.95,66.19L59.32,66.51L68.81,67.15L71.19,68.12L109.15,69.08L111.53,69.4L116.27,70.36L118.64,71L144.75,72.12L147.12,72.28L182.71,73.4" style="vector-effect: none; fill: none; stroke: rgb(1, 27, 58); stroke-opacity: 1; stroke-width: 5px; opacity: 1;"/></g><g class="points"/><g class="text"/></g></g></g><g class="overplot"/><path class="xlines-above crisp" d="M0,0" style="fill: none;"/><path class="ylines-above crisp" d="M0,0" style="fill: none;"/><g class="overlines-above"/><g class="xaxislayer-above"/><g class="yaxislayer-above"/><g class="overaxes-above"/></g></g><g class="polarlayer"/><g class="smithlayer"/><g class="ternarylayer"/><g class="geolayer"/><g class="funnelarealayer"/><g class="pielayer"/><g class="iciclelayer"/><g class="treemaplayer"/><g class="sunburstlayer"/><g class="glimages"/><defs id="topdefs-c394ff"><g class="clips"/></defs><g class="layer-above"><g class="imagelayer"/><g class="shapelayer"/></g><g class="infolayer"><g class="g-gtitle"><text class="gtitle" x="15" y="25" text-anchor="start" dy="0em" style="font-family: Ubuntu, verdana, arial, sans-serif; font-size: 16px; fill: rgb(233, 84, 32); opacity: 1; font-weight: normal; white-space: pre;">Premiér/ka 2023</text></g><g class="g-xtitle"/><g class="g-ytitle"/></g></svg>