<svg class="main-svg" xmlns="http://www.w3.org/2000/svg" xmlns:xlink="http://www.w3.org/1999/xlink" width="300" height="135" style="" viewBox="0 0 300 135"><rect x="0" y="0" width="300" height="135" style="fill: rgb(255, 255, 255); fill-opacity: 1;"/><defs id="defs-ee17ec"><g class="clips"><clipPath id="clipee17ecxyplot" class="plotclip"><rect width="280" height="75"/></clipPath><clipPath class="axesclip" id="clipee17ecx"><rect x="10" y="0" width="280" height="135"/></clipPath><clipPath class="axesclip" id="clipee17ecy"><rect x="0" y="50" width="300" height="75"/></clipPath><clipPath class="axesclip" id="clipee17ecxy"><rect x="10" y="50" width="280" height="75"/></clipPath></g><g class="gradients"/><g class="patterns"/></defs><g class="bglayer"/><g class="layer-below"><g class="imagelayer"/><g class="shapelayer"/></g><g class="cartesianlayer"><g class="subplot xy"><g class="layer-subplot"><g class="shapelayer"/><g class="imagelayer"/></g><g class="minor-gridlayer"><g class="x"/><g class="y"/></g><g class="gridlayer"><g class="x"><path class="xgrid crisp" transform="translate(44.57,0)" d="M0,50v75" style="stroke: rgb(235, 240, 248); stroke-opacity: 1; stroke-width: 1px;"/><path class="xgrid crisp" transform="translate(148.27,0)" d="M0,50v75" style="stroke: rgb(235, 240, 248); stroke-opacity: 1; stroke-width: 1px;"/><path class="xgrid crisp" transform="translate(255.43,0)" d="M0,50v75" style="stroke: rgb(235, 240, 248); stroke-opacity: 1; stroke-width: 1px;"/></g><g class="y"><path class="ygrid crisp" transform="translate(0,108.55)" d="M10,0h280" style="stroke: rgb(235, 240, 248); stroke-opacity: 1; stroke-width: 1px;"/><path class="ygrid crisp" transform="translate(0,92.09)" d="M10,0h280" style="stroke: rgb(235, 240, 248); stroke-opacity: 1; stroke-width: 1px;"/><path class="ygrid crisp" transform="translate(0,75.64)" d="M10,0h280" style="stroke: rgb(235, 240, 248); stroke-opacity: 1; stroke-width: 1px;"/><path class="ygrid crisp" transform="translate(0,59.18)" d="M10,0h280" style="stroke: rgb(235, 240, 248); stroke-opacity: 1; stroke-width: 1px;"/></g></g><g class="zerolinelayer"><path class="yzl zl crisp" transform="translate(0,125)" d="M10,0h280" style="stroke: rgb(235, 240, 248); stroke-opacity: 1; stroke-width: 2px;"/></g><path class="xlines-below"/><path class="ylines-below"/><g class="overlines-below"/><g class="xaxislayer-below"/><g class="yaxislayer-below"/><g class="overaxes-below"/><g class="plot" transform="translate(10,50)" clip-path="url(#clipee17ecxyplot)"><g class="scatterlayer mlayer"><g class="trace scatter tracebccac2" style="stroke-miterlimit: 2; opacity: 1;"><g class="fills"/><g class="errorbars"/><g class="lines"><path class="js-line" d="M0,12.94L3.46,14.28L6.91,13.53L13.83,13.29L17.28,13.29L20.74,14.07L24.2,13.29L38.02,13.52L41.48,15.51L65.68,17.57L69.14,17.57L93.33,16.79L96.79,19.79L100.25,19.48L103.7,21.08L127.9,20.61L131.36,22.36L134.81,23.88L138.27,23.99L179.75,24.69L183.21,22.38L190.12,21.16L193.58,20.63L210.86,19.94L214.32,19.22L224.69,19.55L228.15,19.05L252.35,17.9L255.8,16.17L262.72,16.17L266.17,11.62L280,3.75" style="vector-effect: none; fill: none; stroke: rgb(238, 58, 67); stroke-opacity: 1; stroke-width: 5px; opacity: 1;"/></g><g class="points"/><g class="text"/></g><g class="trace scatter trace05b31e" style="stroke-miterlimit: 2; opacity: 1;"><g class="fills"/><g class="errorbars"/><g class="lines"><path class="js-line" d="M0,40.89L3.46,39.48L6.91,36.58L10.37,34.59L13.83,28.05L17.28,28.05L20.74,29.82L24.2,28.05L27.65,28.05L38.02,27.63L41.48,21.96L44.94,19.4L48.4,20.64L55.31,18.99L58.77,18.78L62.22,19.49L65.68,18.78L93.33,18.93L96.79,17.47L100.25,16.71L103.7,14.56L131.36,14.95L134.81,17.01L162.47,19.36L165.93,19.36L186.67,21.16L190.12,21.16L210.86,20.58L214.32,19.55L221.23,19.88L224.69,20.37L235.06,20.86L238.52,20.86L262.72,21.24L266.17,23.19L280,23.5" style="vector-effect: none; fill: none; stroke: rgb(0, 180, 219); stroke-opacity: 1; stroke-width: 5px; opacity: 1;"/></g><g class="points"/><g class="text"/></g><g class="trace scatter trace9482a7" style="stroke-miterlimit: 2; opacity: 1;"><g class="fills"/><g class="errorbars"/><g class="lines"><path class="js-line" d="M0,6.63L3.46,6.69L6.91,10.34L10.37,12.93L13.83,19.11L17.28,19.11L20.74,16.57L24.2,19.11L27.65,19.11L38.02,19.31L41.48,22.98L44.94,25.11L48.4,23.61L58.77,24.1L62.22,23.58L72.59,24.1L76.05,24.1L93.33,24.73L96.79,23.19L103.7,24.81L107.16,24.81L127.9,26L131.36,23.14L134.81,19.56L138.27,19.03L155.56,16.65L159.01,16.65L169.38,16.03L172.84,15.36L179.75,14.72L183.21,17.12L190.12,18.13L193.58,18.72L210.86,19.94L214.32,21.68L221.23,22.67L224.69,22.67L262.72,23.04L266.17,25.64L280,33.2" style="vector-effect: none; fill: none; stroke: rgb(138, 44, 81); stroke-opacity: 1; stroke-width: 5px; opacity: 1;"/></g><g class="points"/><g class="text"/></g></g></g><g class="overplot"/><path class="xlines-above crisp" d="M0,0" style="fill: none;"/><path class="ylines-above crisp" d="M0,0" style="fill: none;"/><g class="overlines-above"/><g class="xaxislayer-above"/><g class="yaxislayer-above"/><g class="overaxes-above"/></g></g><g class="polarlayer"/><g class="smithlayer"/><g class="ternarylayer"/><g class="geolayer"/><g class="funnelarealayer"/><g class="pielayer"/><g class="iciclelayer"/><g class="treemaplayer"/><g class="sunburstlayer"/><g class="glimages"/><defs id="topdefs-ee17ec"><g class="clips"/></defs><g class="layer-above"><g class="imagelayer"/><g class="shapelayer"/></g><g class="infolayer"><g class="g-gtitle"><text class="gtitle" x="15" y="25" text-anchor="start" dy="0em" style="font-family: Ubuntu, verdana, arial, sans-serif; font-size: 16px; fill: rgb(233, 84, 32); opacity: 1; font-weight: normal; white-space: pre;">Premiér/ka 2023</text></g><g class="g-xtitle"/><g class="g-ytitle"/></g></svg>