<svg class="main-svg" xmlns="http://www.w3.org/2000/svg" xmlns:xlink="http://www.w3.org/1999/xlink" width="300" height="135" style="" viewBox="0 0 300 135"><rect x="0" y="0" width="300" height="135" style="fill: rgb(255, 255, 255); fill-opacity: 1;"/><defs id="defs-eae7d3"><g class="clips"><clipPath id="clipeae7d3xyplot" class="plotclip"><rect width="280" height="75"/></clipPath><clipPath class="axesclip" id="clipeae7d3x"><rect x="10" y="0" width="280" height="135"/></clipPath><clipPath class="axesclip" id="clipeae7d3y"><rect x="0" y="50" width="300" height="75"/></clipPath><clipPath class="axesclip" id="clipeae7d3xy"><rect x="10" y="50" width="280" height="75"/></clipPath></g><g class="gradients"/><g class="patterns"/></defs><g class="bglayer"/><g class="layer-below"><g class="imagelayer"/><g class="shapelayer"/></g><g class="cartesianlayer"><g class="subplot xy"><g class="layer-subplot"><g class="shapelayer"/><g class="imagelayer"/></g><g class="minor-gridlayer"><g class="x"/><g class="y"/></g><g class="gridlayer"><g class="x"><path class="xgrid crisp" transform="translate(27.39,0)" d="M0,50v75" style="stroke: rgb(235, 240, 248); stroke-opacity: 1; stroke-width: 1px;"/><path class="xgrid crisp" transform="translate(135.22,0)" d="M0,50v75" style="stroke: rgb(235, 240, 248); stroke-opacity: 1; stroke-width: 1px;"/><path class="xgrid crisp" transform="translate(241.3,0)" d="M0,50v75" style="stroke: rgb(235, 240, 248); stroke-opacity: 1; stroke-width: 1px;"/></g><g class="y"><path class="ygrid crisp" transform="translate(0,97)" d="M10,0h280" style="stroke: rgb(235, 240, 248); stroke-opacity: 1; stroke-width: 1px;"/><path class="ygrid crisp" transform="translate(0,69.01)" d="M10,0h280" style="stroke: rgb(235, 240, 248); stroke-opacity: 1; stroke-width: 1px;"/></g></g><g class="zerolinelayer"><path class="yzl zl crisp" transform="translate(0,125)" d="M10,0h280" style="stroke: rgb(235, 240, 248); stroke-opacity: 1; stroke-width: 2px;"/></g><path class="xlines-below"/><path class="ylines-below"/><g class="overlines-below"/><g class="xaxislayer-below"/><g class="yaxislayer-below"/><g class="overaxes-below"/><g class="plot" transform="translate(10,50)" clip-path="url(#clipeae7d3xyplot)"><g class="scatterlayer mlayer"><g class="trace scatter traceea2f2b" style="stroke-miterlimit: 2; opacity: 1;"><g class="fills"/><g class="errorbars"/><g class="lines"><path class="js-line" d="M0,45.74L5.22,42.1L6.96,42.1L13.91,42.38L15.65,41.4L40,40.28L41.74,39.44L74.78,38.47L76.52,32.59L97.39,32.59L100.87,36.65L102.61,35.81L106.09,35.81L120,35.53L121.74,38.61L125.22,40.14L126.96,39.58L128.7,39.03L130.43,40.28L175.65,39.44L177.39,36.65L180.87,37.77L182.61,37.77L184.35,37.49L186.09,32.87L187.83,30.07L189.57,30.07L193.04,29.37L194.78,24.75L198.26,22.09L200,22.09L205.22,21.25L206.96,19.99L212.17,16.91L213.91,16.91L227.83,17.33L229.57,18.73L243.48,18.73L245.22,16.77L246.96,16.77L248.7,13.41L255.65,13.41L257.39,9.63L267.83,9.63L269.57,7.39L273.04,6.55L274.78,6.55L280,3.75" style="vector-effect: none; fill: none; stroke: rgb(138, 44, 81); stroke-opacity: 1; stroke-width: 5px; opacity: 1;"/></g><g class="points"/><g class="text"/></g><g class="trace scatter tracee94d5c" style="stroke-miterlimit: 2; opacity: 1;"><g class="fills"/><g class="errorbars"/><g class="lines"><path class="js-line" d="M0,13.97L5.22,15.93L6.96,15.93L12.17,16.91L13.91,15.65L17.39,14.81L19.13,14.81L40,15.37L41.74,16.07L100.87,16.07L102.61,19.99L118.26,19.29L120,18.73L123.48,10.75L125.22,10.75L128.7,13.27L130.43,9.07L146.09,9.07L147.83,11.17L149.57,11.17L151.3,9.07L153.04,11.17L154.78,8.65L158.26,8.09L160,10.75L161.74,8.09L163.48,8.09L166.96,8.09L168.7,10.75L170.43,10.75L172.17,8.09L173.91,10.75L175.65,10.75L177.39,8.23L179.13,11.45L191.3,12.29L193.04,12.99L196.52,16.21L198.26,16.35L224.35,17.33L226.09,18.17L246.96,18.31L248.7,19.71L267.83,19.43L269.57,21.67L280,24.61" style="vector-effect: none; fill: none; stroke: rgb(0, 174, 239); stroke-opacity: 1; stroke-width: 5px; opacity: 1;"/></g><g class="points"/><g class="text"/></g><g class="trace scatter tracefaf1c1" style="stroke-miterlimit: 2; opacity: 1;"><g class="fills"/><g class="errorbars"/><g class="lines"><path class="js-line" d="M0,60.86L12.17,62.26L13.91,61.42L17.39,60.58L19.13,60.58L74.78,60.86L76.52,62.54L100.87,61.42L102.61,52.32L121.74,53.16L123.48,54L153.04,53.58L154.78,54.42L158.26,54.98L160,54L163.48,54.98L165.22,54.98L175.65,54L177.39,58.06L179.13,55.26L180.87,55.26L184.35,55.4L186.09,57.5L189.57,59.18L191.3,59.18L193.04,58.76L194.78,60.16L203.48,60.44L205.22,60.3L210.43,61L212.17,61L224.35,60.44L226.09,59.18L227.83,59.18L229.57,57.22L243.48,57.22L245.22,59.04L246.96,59.6L248.7,61.56L269.57,62.68L271.3,62.82L280,63.1" style="vector-effect: none; fill: none; stroke: rgb(255, 1, 170); stroke-opacity: 1; stroke-width: 5px; opacity: 1;"/></g><g class="points"/><g class="text"/></g><g class="trace scatter trace49754b" style="stroke-miterlimit: 2; opacity: 1;"><g class="fills"/><g class="errorbars"/><g class="lines"><path class="js-line" d="M0,60.3L10.43,60.86L12.17,60.3L40,61.98L41.74,61.98L74.78,61.7L76.52,63.8L100.87,62.96L102.61,64.78L121.74,65.2L123.48,66.74L126.96,65.9L128.7,65.06L130.43,67.44L132.17,67.44L158.26,67.3L160,66.18L163.48,67.3L165.22,67.3L177.39,66.32L179.13,65.34L184.35,65.48L186.09,66.88L189.57,67.58L191.3,67.58L215.65,70.66L217.39,70.66L280,70.66" style="vector-effect: none; fill: none; stroke: rgb(238, 58, 67); stroke-opacity: 1; stroke-width: 5px; opacity: 1;"/></g><g class="points"/><g class="text"/></g><g class="trace scatter trace7a76e8" style="stroke-miterlimit: 2; opacity: 1;"><g class="fills"/><g class="errorbars"/><g class="lines"><path class="js-line" d="M0,63.94L10.43,64.22L12.17,62.26L15.65,66.6L17.39,66.6L118.26,67.3L120,67.44L175.65,68.42L177.39,68.84L196.52,69.82L198.26,69.96L208.7,70.94L210.43,71.36L255.65,71.36L257.39,72.76L280,72.9" style="vector-effect: none; fill: none; stroke: rgb(202, 166, 105); stroke-opacity: 1; stroke-width: 5px; opacity: 1;"/></g><g class="points"/><g class="text"/></g></g></g><g class="overplot"/><path class="xlines-above crisp" d="M0,0" style="fill: none;"/><path class="ylines-above crisp" d="M0,0" style="fill: none;"/><g class="overlines-above"/><g class="xaxislayer-above"/><g class="yaxislayer-above"/><g class="overaxes-above"/></g></g><g class="polarlayer"/><g class="smithlayer"/><g class="ternarylayer"/><g class="geolayer"/><g class="funnelarealayer"/><g class="pielayer"/><g class="iciclelayer"/><g class="treemaplayer"/><g class="sunburstlayer"/><g class="glimages"/><defs id="topdefs-eae7d3"><g class="clips"/></defs><g class="layer-above"><g class="imagelayer"/><g class="shapelayer"/></g><g class="infolayer"><g class="g-gtitle"><text class="gtitle" x="15" y="25" text-anchor="start" dy="0em" style="font-family: Ubuntu, verdana, arial, sans-serif; font-size: 16px; fill: rgb(233, 84, 32); opacity: 1; font-weight: normal; white-space: pre;">Prezident/ka 2024</text></g><g class="g-xtitle"/><g class="g-ytitle"/></g></svg>