<svg class="main-svg" xmlns="http://www.w3.org/2000/svg" xmlns:xlink="http://www.w3.org/1999/xlink" width="300" height="135" style="" viewBox="0 0 300 135"><rect x="0" y="0" width="300" height="135" style="fill: rgb(255, 255, 255); fill-opacity: 1;"/><defs id="defs-766198"><g class="clips"><clipPath id="clip766198xyplot" class="plotclip"><rect width="280" height="75"/></clipPath><clipPath class="axesclip" id="clip766198x"><rect x="10" y="0" width="280" height="135"/></clipPath><clipPath class="axesclip" id="clip766198y"><rect x="0" y="50" width="300" height="75"/></clipPath><clipPath class="axesclip" id="clip766198xy"><rect x="10" y="50" width="280" height="75"/></clipPath></g><g class="gradients"/><g class="patterns"/></defs><g class="bglayer"/><g class="layer-below"><g class="imagelayer"/><g class="shapelayer"/></g><g class="cartesianlayer"><g class="subplot xy"><g class="layer-subplot"><g class="shapelayer"/><g class="imagelayer"/></g><g class="minor-gridlayer"><g class="x"/><g class="y"/></g><g class="gridlayer"><g class="x"><path class="xgrid crisp" transform="translate(25.91,0)" d="M0,50v75" style="stroke: rgb(235, 240, 248); stroke-opacity: 1; stroke-width: 1px;"/><path class="xgrid crisp" transform="translate(124.55,0)" d="M0,50v75" style="stroke: rgb(235, 240, 248); stroke-opacity: 1; stroke-width: 1px;"/><path class="xgrid crisp" transform="translate(221.59,0)" d="M0,50v75" style="stroke: rgb(235, 240, 248); stroke-opacity: 1; stroke-width: 1px;"/></g><g class="y"><path class="ygrid crisp" transform="translate(0,101.28999999999999)" d="M10,0h280" style="stroke: rgb(235, 240, 248); stroke-opacity: 1; stroke-width: 1px;"/><path class="ygrid crisp" transform="translate(0,77.58)" d="M10,0h280" style="stroke: rgb(235, 240, 248); stroke-opacity: 1; stroke-width: 1px;"/><path class="ygrid crisp" transform="translate(0,53.87)" d="M10,0h280" style="stroke: rgb(235, 240, 248); stroke-opacity: 1; stroke-width: 1px;"/></g></g><g class="zerolinelayer"><path class="yzl zl crisp" transform="translate(0,125)" d="M10,0h280" style="stroke: rgb(235, 240, 248); stroke-opacity: 1; stroke-width: 2px;"/></g><path class="xlines-below"/><path class="ylines-below"/><g class="overlines-below"/><g class="xaxislayer-below"/><g class="yaxislayer-below"/><g class="overaxes-below"/><g class="plot" transform="translate(10,50)" clip-path="url(#clip766198xyplot)"><g class="scatterlayer mlayer"><g class="trace scatter trace93fc70" style="stroke-miterlimit: 2; opacity: 1;"><g class="fills"/><g class="errorbars"/><g class="lines"><path class="js-line" d="M0,50.22L4.77,47.14L6.36,47.14L12.73,47.38L14.32,46.55L36.59,45.6L38.18,44.89L68.41,44.06L70,39.08L89.09,39.08L92.27,42.52L93.86,41.81L97.05,41.81L109.77,41.57L111.36,44.18L114.55,45.48L116.14,45.01L117.73,44.53L119.32,45.6L160.68,44.89L162.27,42.52L165.45,43.47L167.05,43.47L168.64,43.23L170.23,39.32L171.82,36.94L173.41,36.94L176.59,36.35L178.18,32.44L181.36,30.19L182.95,30.19L187.73,29.48L189.32,28.41L194.09,25.8L195.68,25.8L208.41,26.16L210,27.34L222.73,27.34L224.32,25.68L225.91,25.68L227.5,22.84L233.86,22.84L235.45,19.64L245,19.64L246.59,17.74L249.77,17.03L251.36,17.03L257.73,14.66L259.32,10.63L262.5,10.63L264.09,8.61L265.68,3.75L267.27,3.75L280,3.75" style="vector-effect: none; fill: none; stroke: rgb(138, 44, 81); stroke-opacity: 1; stroke-width: 5px; opacity: 1;"/></g><g class="points"/><g class="text"/></g><g class="trace scatter traceea2295" style="stroke-miterlimit: 2; opacity: 1;"><g class="fills"/><g class="errorbars"/><g class="lines"><path class="js-line" d="M0,23.31L4.77,24.97L6.36,24.97L12.73,24.73L14.32,24.02L92.27,25.09L93.86,28.41L109.77,27.34L111.36,24.62L112.95,20.58L114.55,20.58L117.73,22.72L119.32,19.16L133.64,19.16L135.23,20.94L136.82,20.94L138.41,19.16L140,20.94L141.59,18.81L144.77,18.33L146.36,20.58L147.95,18.33L149.55,18.33L152.73,18.33L154.32,20.58L155.91,20.58L157.5,18.33L159.09,20.58L160.68,20.58L162.27,18.45L163.86,21.18L175,21.89L176.59,22.48L179.77,25.21L181.36,25.33L205.23,26.16L206.82,26.87L225.91,26.99L227.5,28.17L245,27.93L246.59,29.83L257.73,32.32L259.32,30.07L264.09,31.25L265.68,32.8L280,32.8" style="vector-effect: none; fill: none; stroke: rgb(0, 174, 239); stroke-opacity: 1; stroke-width: 5px; opacity: 1;"/></g><g class="points"/><g class="text"/></g><g class="trace scatter trace2b72ad" style="stroke-miterlimit: 2; opacity: 1;"><g class="fills"/><g class="errorbars"/><g class="lines"><path class="js-line" d="M0,63.03L11.14,64.21L12.73,63.5L15.91,62.79L17.5,62.79L68.41,63.03L70,64.45L92.27,63.5L93.86,55.79L111.36,56.51L112.95,57.22L141.59,57.57L143.18,58.05L160.68,57.22L162.27,60.66L163.86,58.28L165.45,58.28L168.64,58.4L170.23,60.18L173.41,61.6L175,61.6L176.59,61.25L178.18,62.43L186.14,62.67L187.73,62.55L195.68,63.14L197.27,63.14L205.23,62.67L206.82,61.6L208.41,61.6L210,59.94L222.73,59.94L224.32,61.49L230.68,63.62L232.27,63.62L254.55,64.8L256.14,64.92L257.73,64.92L259.32,68.6L280,69.78" style="vector-effect: none; fill: none; stroke: rgb(255, 1, 170); stroke-opacity: 1; stroke-width: 5px; opacity: 1;"/></g><g class="points"/><g class="text"/></g><g class="trace scatter trace9e1b8c" style="stroke-miterlimit: 2; opacity: 1;"><g class="fills"/><g class="errorbars"/><g class="lines"><path class="js-line" d="M0,62.55L9.55,63.03L11.14,62.55L39.77,63.97L41.36,63.97L68.41,63.74L70,65.52L92.27,64.8L93.86,66.35L111.36,66.7L112.95,68.01L116.14,67.29L117.73,66.58L120.91,68.6L122.5,68.6L162.27,67.65L163.86,66.82L168.64,66.94L170.23,68.12L175,68.72L176.59,68.95L184.55,69.78L186.14,69.78L200.45,71.32L202.05,71.32L257.73,71.32L259.32,73.58L264.09,73.81" style="vector-effect: none; fill: none; stroke: rgb(238, 58, 67); stroke-opacity: 1; stroke-width: 5px; opacity: 1;"/></g><g class="points"/><g class="text"/></g><g class="trace scatter trace6e8993" style="stroke-miterlimit: 2; opacity: 1;"><g class="fills"/><g class="errorbars"/><g class="lines"><path class="js-line" d="M0,65.63L9.55,65.87L11.14,64.21L14.32,67.89L15.91,67.89L114.55,68.48L116.14,68.95L117.73,69.43L119.32,68.6L170.23,69.78L171.82,70.02L187.73,70.97L189.32,71.32L200.45,71.92L202.05,71.92L252.95,73.1L254.55,73.22L264.09,73.81" style="vector-effect: none; fill: none; stroke: rgb(202, 166, 105); stroke-opacity: 1; stroke-width: 5px; opacity: 1;"/></g><g class="points"/><g class="text"/></g></g></g><g class="overplot"/><path class="xlines-above crisp" d="M0,0" style="fill: none;"/><path class="ylines-above crisp" d="M0,0" style="fill: none;"/><g class="overlines-above"/><g class="xaxislayer-above"/><g class="yaxislayer-above"/><g class="overaxes-above"/></g></g><g class="polarlayer"/><g class="smithlayer"/><g class="ternarylayer"/><g class="geolayer"/><g class="funnelarealayer"/><g class="pielayer"/><g class="iciclelayer"/><g class="treemaplayer"/><g class="sunburstlayer"/><g class="glimages"/><defs id="topdefs-766198"><g class="clips"/></defs><g class="layer-above"><g class="imagelayer"/><g class="shapelayer"/></g><g class="infolayer"><g class="g-gtitle"><text class="gtitle" x="15" y="25" text-anchor="start" dy="0em" style="font-family: Ubuntu, verdana, arial, sans-serif; font-size: 16px; fill: rgb(233, 84, 32); opacity: 1; font-weight: normal; white-space: pre;">Prezident/ka 2024</text></g><g class="g-xtitle"/><g class="g-ytitle"/></g></svg>