<svg class="main-svg" xmlns="http://www.w3.org/2000/svg" xmlns:xlink="http://www.w3.org/1999/xlink" width="300" height="135" style="" viewBox="0 0 300 135"><rect x="0" y="0" width="300" height="135" style="fill: rgb(255, 255, 255); fill-opacity: 1;"/><defs id="defs-c0b5df"><g class="clips"><clipPath id="clipc0b5dfxyplot" class="plotclip"><rect width="280" height="75"/></clipPath><clipPath class="axesclip" id="clipc0b5dfx"><rect x="10" y="0" width="280" height="135"/></clipPath><clipPath class="axesclip" id="clipc0b5dfy"><rect x="0" y="50" width="300" height="75"/></clipPath><clipPath class="axesclip" id="clipc0b5dfxy"><rect x="10" y="50" width="280" height="75"/></clipPath></g><g class="gradients"/><g class="patterns"/></defs><g class="bglayer"/><g class="layer-below"><g class="imagelayer"/><g class="shapelayer"/></g><g class="cartesianlayer"><g class="subplot xy"><g class="layer-subplot"><g class="shapelayer"/><g class="imagelayer"/></g><g class="minor-gridlayer"><g class="x"/><g class="y"/></g><g class="gridlayer"><g class="x"><path class="xgrid crisp" transform="translate(24.810000000000002,0)" d="M0,50v75" style="stroke: rgb(235, 240, 248); stroke-opacity: 1; stroke-width: 1px;"/><path class="xgrid crisp" transform="translate(116.67,0)" d="M0,50v75" style="stroke: rgb(235, 240, 248); stroke-opacity: 1; stroke-width: 1px;"/><path class="xgrid crisp" transform="translate(207.04,0)" d="M0,50v75" style="stroke: rgb(235, 240, 248); stroke-opacity: 1; stroke-width: 1px;"/></g><g class="y"><path class="ygrid crisp" transform="translate(0,101.28999999999999)" d="M10,0h280" style="stroke: rgb(235, 240, 248); stroke-opacity: 1; stroke-width: 1px;"/><path class="ygrid crisp" transform="translate(0,77.58)" d="M10,0h280" style="stroke: rgb(235, 240, 248); stroke-opacity: 1; stroke-width: 1px;"/><path class="ygrid crisp" transform="translate(0,53.87)" d="M10,0h280" style="stroke: rgb(235, 240, 248); stroke-opacity: 1; stroke-width: 1px;"/></g></g><g class="zerolinelayer"><path class="yzl zl crisp" transform="translate(0,125)" d="M10,0h280" style="stroke: rgb(235, 240, 248); stroke-opacity: 1; stroke-width: 2px;"/></g><path class="xlines-below"/><path class="ylines-below"/><g class="overlines-below"/><g class="xaxislayer-below"/><g class="yaxislayer-below"/><g class="overaxes-below"/><g class="plot" transform="translate(10,50)" clip-path="url(#clipc0b5dfxyplot)"><g class="scatterlayer mlayer"><g class="trace scatter trace76abdf" style="stroke-miterlimit: 2; opacity: 1;"><g class="fills"/><g class="errorbars"/><g class="lines"><path class="js-line" d="M0,50.22L4.44,47.14L5.93,47.14L11.85,47.38L13.33,46.55L34.07,45.6L35.56,44.89L63.7,44.06L65.19,39.08L82.96,39.08L85.93,42.52L87.41,41.81L90.37,41.81L102.22,41.57L103.7,44.18L106.67,45.48L108.15,45.01L109.63,44.53L111.11,45.6L149.63,44.89L151.11,42.52L154.07,43.47L155.56,43.47L157.04,43.23L158.52,39.32L160,36.94L161.48,36.94L164.44,36.35L165.93,32.44L168.89,30.19L170.37,30.19L174.81,29.48L176.3,28.41L180.74,25.8L182.22,25.8L194.07,26.16L195.56,27.34L207.41,27.34L208.89,25.68L210.37,25.68L211.85,22.84L217.78,22.84L219.26,19.64L228.15,19.64L229.63,17.74L232.59,17.03L234.07,17.03L240,14.66L241.48,10.63L244.44,10.63L245.93,8.61L247.41,3.75L248.89,3.75L260.74,3.75L262.22,5.53L265.19,6.36L266.67,6.36L268.15,6.83L269.63,8.73L272.59,8.97L274.07,8.14L280,8.14" style="vector-effect: none; fill: none; stroke: rgb(138, 44, 81); stroke-opacity: 1; stroke-width: 5px; opacity: 1;"/></g><g class="points"/><g class="text"/></g><g class="trace scatter traced36a50" style="stroke-miterlimit: 2; opacity: 1;"><g class="fills"/><g class="errorbars"/><g class="lines"><path class="js-line" d="M0,23.31L4.44,24.97L5.93,24.97L11.85,24.73L13.33,24.02L85.93,25.09L87.41,28.41L102.22,27.34L103.7,24.62L105.19,20.58L106.67,20.58L109.63,22.72L111.11,19.16L124.44,19.16L125.93,20.94L127.41,20.94L128.89,19.16L130.37,20.94L131.85,18.81L134.81,18.33L136.3,20.58L139.26,18.33L140.74,18.33L142.22,18.33L143.7,20.58L145.19,20.58L146.67,18.33L149.63,20.58L151.11,18.45L152.59,21.18L154.07,21.18L162.96,21.89L164.44,22.48L167.41,25.21L168.89,25.33L191.11,26.16L192.59,26.87L210.37,26.99L211.85,28.17L228.15,27.93L229.63,29.83L240,32.32L241.48,30.07L245.93,31.25L247.41,32.8L260.74,32.8L262.22,31.14L265.19,30.19L266.67,30.19L268.15,29.71L269.63,26.99L272.59,26.39L274.07,26.75L280,26.75" style="vector-effect: none; fill: none; stroke: rgb(0, 174, 239); stroke-opacity: 1; stroke-width: 5px; opacity: 1;"/></g><g class="points"/><g class="text"/></g><g class="trace scatter trace17ee30" style="stroke-miterlimit: 2; opacity: 1;"><g class="fills"/><g class="errorbars"/><g class="lines"><path class="js-line" d="M0,63.03L10.37,64.21L11.85,63.5L14.81,62.79L16.3,62.79L63.7,63.03L65.19,64.45L85.93,63.5L87.41,55.79L103.7,56.51L105.19,57.22L131.85,57.57L133.33,58.05L149.63,57.22L151.11,60.66L152.59,58.28L154.07,58.28L157.04,58.4L158.52,60.18L161.48,61.6L162.96,61.6L164.44,61.25L165.93,62.43L173.33,62.67L174.81,62.55L182.22,63.14L183.7,63.14L191.11,62.67L192.59,61.6L194.07,61.6L195.56,59.94L207.41,59.94L208.89,61.49L214.81,63.62L216.3,63.62L237.04,64.8L238.52,64.92L240,64.92L241.48,68.6L260.74,69.78L262.22,69.9L271.11,70.85L272.59,71.09L277.04,71.56L278.52,71.56L280,71.56" style="vector-effect: none; fill: none; stroke: rgb(255, 1, 170); stroke-opacity: 1; stroke-width: 5px; opacity: 1;"/></g><g class="points"/><g class="text"/></g><g class="trace scatter trace3ca1ef" style="stroke-miterlimit: 2; opacity: 1;"><g class="fills"/><g class="errorbars"/><g class="lines"><path class="js-line" d="M0,66.7L14.81,66.82L16.3,66.82L54.81,67.18L56.3,68.12L82.96,69.07L85.93,67.65L87.41,70.73L90.37,70.73L109.63,71.68L111.11,72.15L174.81,72.98L176.3,73.46L217.78,73.46" style="vector-effect: none; fill: none; stroke: rgb(255, 192, 203); stroke-opacity: 1; stroke-width: 5px; opacity: 1;"/></g><g class="points"/><g class="text"/></g><g class="trace scatter trace9cd9d9" style="stroke-miterlimit: 2; opacity: 1;"><g class="fills"/><g class="errorbars"/><g class="lines"><path class="js-line" d="M0,65.63L8.89,65.87L10.37,64.21L13.33,67.89L14.81,67.89L106.67,68.48L108.15,68.95L111.11,68.6L112.59,68.6L158.52,69.78L160,70.02L174.81,70.97L176.3,71.32L186.67,71.92L188.15,71.92L235.56,73.1L237.04,73.22L245.93,73.81" style="vector-effect: none; fill: none; stroke: rgb(202, 166, 105); stroke-opacity: 1; stroke-width: 5px; opacity: 1;"/></g><g class="points"/><g class="text"/></g></g></g><g class="overplot"/><path class="xlines-above crisp" d="M0,0" style="fill: none;"/><path class="ylines-above crisp" d="M0,0" style="fill: none;"/><g class="overlines-above"/><g class="xaxislayer-above"/><g class="yaxislayer-above"/><g class="overaxes-above"/></g></g><g class="polarlayer"/><g class="smithlayer"/><g class="ternarylayer"/><g class="geolayer"/><g class="funnelarealayer"/><g class="pielayer"/><g class="iciclelayer"/><g class="treemaplayer"/><g class="sunburstlayer"/><g class="glimages"/><defs id="topdefs-c0b5df"><g class="clips"/></defs><g class="layer-above"><g class="imagelayer"/><g class="shapelayer"/></g><g class="infolayer"><g class="g-gtitle"><text class="gtitle" x="15" y="25" text-anchor="start" dy="0em" style="font-family: Ubuntu, verdana, arial, sans-serif; font-size: 16px; fill: rgb(233, 84, 32); opacity: 1; font-weight: normal; white-space: pre;">Prezident/ka 2024</text></g><g class="g-xtitle"/><g class="g-ytitle"/></g></svg>