<svg class="main-svg" xmlns="http://www.w3.org/2000/svg" xmlns:xlink="http://www.w3.org/1999/xlink" width="300" height="135" style="" viewBox="0 0 300 135"><rect x="0" y="0" width="300" height="135" style="fill: rgb(255, 255, 255); fill-opacity: 1;"/><defs id="defs-fbcb9f"><g class="clips"><clipPath id="clipfbcb9fxyplot" class="plotclip"><rect width="280" height="75"/></clipPath><clipPath class="axesclip" id="clipfbcb9fx"><rect x="10" y="0" width="280" height="135"/></clipPath><clipPath class="axesclip" id="clipfbcb9fy"><rect x="0" y="50" width="300" height="75"/></clipPath><clipPath class="axesclip" id="clipfbcb9fxy"><rect x="10" y="50" width="280" height="75"/></clipPath></g><g class="gradients"/><g class="patterns"/></defs><g class="bglayer"/><g class="layer-below"><g class="imagelayer"/><g class="shapelayer"/></g><g class="cartesianlayer"><g class="subplot xy"><g class="layer-subplot"><g class="shapelayer"/><g class="imagelayer"/></g><g class="minor-gridlayer"><g class="x"/><g class="y"/></g><g class="gridlayer"><g class="x"><path class="xgrid crisp" transform="translate(30.44,0)" d="M0,50v75" style="stroke: rgb(235, 240, 248); stroke-opacity: 1; stroke-width: 1px;"/><path class="xgrid crisp" transform="translate(93.8,0)" d="M0,50v75" style="stroke: rgb(235, 240, 248); stroke-opacity: 1; stroke-width: 1px;"/><path class="xgrid crisp" transform="translate(157.15,0)" d="M0,50v75" style="stroke: rgb(235, 240, 248); stroke-opacity: 1; stroke-width: 1px;"/><path class="xgrid crisp" transform="translate(218.47,0)" d="M0,50v75" style="stroke: rgb(235, 240, 248); stroke-opacity: 1; stroke-width: 1px;"/><path class="xgrid crisp" transform="translate(281.82,0)" d="M0,50v75" style="stroke: rgb(235, 240, 248); stroke-opacity: 1; stroke-width: 1px;"/></g><g class="y"><path class="ygrid crisp" transform="translate(0,109.38)" d="M10,0h280" style="stroke: rgb(235, 240, 248); stroke-opacity: 1; stroke-width: 1px;"/><path class="ygrid crisp" transform="translate(0,93.75)" d="M10,0h280" style="stroke: rgb(235, 240, 248); stroke-opacity: 1; stroke-width: 1px;"/><path class="ygrid crisp" transform="translate(0,78.13)" d="M10,0h280" style="stroke: rgb(235, 240, 248); stroke-opacity: 1; stroke-width: 1px;"/><path class="ygrid crisp" transform="translate(0,62.5)" d="M10,0h280" style="stroke: rgb(235, 240, 248); stroke-opacity: 1; stroke-width: 1px;"/></g></g><g class="zerolinelayer"><path class="yzl zl crisp" transform="translate(0,125)" d="M10,0h280" style="stroke: rgb(235, 240, 248); stroke-opacity: 1; stroke-width: 2px;"/></g><path class="xlines-below"/><path class="ylines-below"/><g class="overlines-below"/><g class="xaxislayer-below"/><g class="yaxislayer-below"/><g class="overaxes-below"/><g class="plot" transform="translate(10,50)" clip-path="url(#clipfbcb9fxyplot)"><g class="scatterlayer mlayer"><g class="trace scatter tracedd26f1" style="stroke-miterlimit: 2; opacity: 1;"><g class="fills"/><g class="errorbars"/><g class="lines"><path class="js-line" d="M0,43.44L4.09,39.38L6.13,39.38L16.35,39.53L18.39,38.75L47.01,37.66L49.05,36.88L87.88,35.78L89.93,29.69L114.45,29.69L118.54,33.75L120.58,32.97L124.67,32.97L141.02,32.66L143.07,35.94L147.15,37.34L149.2,36.88L151.24,36.25L153.28,37.66L206.42,36.88L208.47,34.06L212.55,35L214.6,35L216.64,34.69L218.69,29.69L220.73,26.72L222.77,26.72L226.86,25.78L228.91,20.63L230.95,18.13L232.99,17.66L241.17,16.72L243.21,15L249.34,11.41L251.39,11.41L267.74,11.87L269.78,13.44L280,13.44" style="vector-effect: none; fill: none; stroke: rgb(138, 44, 81); stroke-opacity: 1; stroke-width: 5px; opacity: 1;"/></g><g class="points"/><g class="text"/></g><g class="trace scatter trace8c9029" style="stroke-miterlimit: 2; opacity: 1;"><g class="fills"/><g class="errorbars"/><g class="lines"><path class="js-line" d="M0,9.06L6.13,11.25L8.18,11.25L16.35,10.63L18.39,10.16L47.01,10.94L49.05,11.56L118.54,11.56L120.58,15.94L138.98,15.16L141.02,14.53L145.11,5.78L147.15,5.78L151.24,8.44L153.28,3.91L171.68,3.91L173.72,6.25L175.77,6.25L177.81,3.91L179.85,6.25L181.9,3.75L185.99,3.75L188.03,6.09L190.07,3.75L192.12,3.75L196.2,3.75L198.25,6.09L200.29,6.09L202.34,3.75L204.38,6.09L206.42,6.09L208.47,3.75L210.51,6.72L224.82,7.66L226.86,8.13L230.95,11.41L232.99,11.41L263.65,11.72L265.69,12.66L280,13.44" style="vector-effect: none; fill: none; stroke: rgb(0, 174, 239); stroke-opacity: 1; stroke-width: 5px; opacity: 1;"/></g><g class="points"/><g class="text"/></g><g class="trace scatter traced0c2ea" style="stroke-miterlimit: 2; opacity: 1;"><g class="fills"/><g class="errorbars"/><g class="lines"><path class="js-line" d="M0,59.69L14.31,61.09L16.35,60.31L20.44,59.53L22.48,59.53L87.88,59.84L89.93,61.72L114.45,61.72L118.54,60.31L120.58,50.78L124.67,50.78L143.07,51.56L145.11,52.34L179.85,51.88L181.9,52.97L185.99,53.59L188.03,52.5L192.12,53.59L194.16,53.59L206.42,52.5L208.47,57.03L210.51,53.75L212.55,53.75L216.64,53.91L218.69,56.25L220.73,57.97L222.77,57.97L226.86,57.5L228.91,58.91L239.12,59.22L241.17,59.06L251.39,59.53L253.43,59.53L263.65,59.06L265.69,57.81L267.74,57.81L269.78,55.47L280,55.47" style="vector-effect: none; fill: none; stroke: rgb(255, 1, 170); stroke-opacity: 1; stroke-width: 5px; opacity: 1;"/></g><g class="points"/><g class="text"/></g><g class="trace scatter trace063b7f" style="stroke-miterlimit: 2; opacity: 1;"><g class="fills"/><g class="errorbars"/><g class="lines"><path class="js-line" d="M0,59.22L12.26,59.69L14.31,58.91L26.57,60L28.61,60L42.92,60.94L44.96,60.94L87.88,60.78L89.93,63.13L118.54,62.03L120.58,64.06L143.07,64.38L145.11,66.09L149.2,65.16L151.24,64.38L153.28,66.88L155.33,66.88L208.47,65.78L210.51,64.53L216.64,64.69L218.69,66.25L222.77,67.03L224.82,67.03L245.26,69.38L247.3,70.16L280,70.31" style="vector-effect: none; fill: none; stroke: rgb(238, 58, 67); stroke-opacity: 1; stroke-width: 5px; opacity: 1;"/></g><g class="points"/><g class="text"/></g><g class="trace scatter trace8b1b4b" style="stroke-miterlimit: 2; opacity: 1;"><g class="fills"/><g class="errorbars"/><g class="lines"><path class="js-line" d="M0,62.97L12.26,63.44L14.31,61.09L18.39,65.94L20.44,65.94L138.98,66.72L141.02,66.88L206.42,67.81L208.47,68.44L220.73,68.59L222.77,68.59L241.17,69.84L243.21,70.31L261.61,71.09L263.65,71.09L280,71.09" style="vector-effect: none; fill: none; stroke: rgb(202, 166, 105); stroke-opacity: 1; stroke-width: 5px; opacity: 1;"/></g><g class="points"/><g class="text"/></g></g></g><g class="overplot"/><path class="xlines-above crisp" d="M0,0" style="fill: none;"/><path class="ylines-above crisp" d="M0,0" style="fill: none;"/><g class="overlines-above"/><g class="xaxislayer-above"/><g class="yaxislayer-above"/><g class="overaxes-above"/></g></g><g class="polarlayer"/><g class="smithlayer"/><g class="ternarylayer"/><g class="geolayer"/><g class="funnelarealayer"/><g class="pielayer"/><g class="iciclelayer"/><g class="treemaplayer"/><g class="sunburstlayer"/><g class="glimages"/><defs id="topdefs-fbcb9f"><g class="clips"/></defs><g class="layer-above"><g class="imagelayer"/><g class="shapelayer"/></g><g class="infolayer"><g class="g-gtitle"><text class="gtitle" x="15" y="25" text-anchor="start" dy="0em" style="font-family: Ubuntu, verdana, arial, sans-serif; font-size: 16px; fill: rgb(233, 84, 32); opacity: 1; font-weight: normal; white-space: pre;">Prezident/ka 2024</text></g><g class="g-xtitle"/><g class="g-ytitle"/></g></svg>