<svg class="main-svg" xmlns="http://www.w3.org/2000/svg" xmlns:xlink="http://www.w3.org/1999/xlink" width="300" height="135" style="" viewBox="0 0 300 135"><rect x="0" y="0" width="300" height="135" style="fill: rgb(255, 255, 255); fill-opacity: 1;"/><defs id="defs-041195"><g class="clips"><clipPath id="clip041195xyplot" class="plotclip"><rect width="280" height="75"/></clipPath><clipPath class="axesclip" id="clip041195x"><rect x="10" y="0" width="280" height="135"/></clipPath><clipPath class="axesclip" id="clip041195y"><rect x="0" y="50" width="300" height="75"/></clipPath><clipPath class="axesclip" id="clip041195xy"><rect x="10" y="50" width="280" height="75"/></clipPath></g><g class="gradients"/><g class="patterns"/></defs><g class="bglayer"/><g class="layer-below"><g class="imagelayer"/><g class="shapelayer"/></g><g class="cartesianlayer"><g class="subplot xy"><g class="layer-subplot"><g class="shapelayer"/><g class="imagelayer"/></g><g class="minor-gridlayer"><g class="x"/><g class="y"/></g><g class="gridlayer"><g class="x"><path class="xgrid crisp" transform="translate(20.45,0)" d="M0,50v75" style="stroke: rgb(235, 240, 248); stroke-opacity: 1; stroke-width: 1px;"/><path class="xgrid crisp" transform="translate(85.22,0)" d="M0,50v75" style="stroke: rgb(235, 240, 248); stroke-opacity: 1; stroke-width: 1px;"/><path class="xgrid crisp" transform="translate(148.96,0)" d="M0,50v75" style="stroke: rgb(235, 240, 248); stroke-opacity: 1; stroke-width: 1px;"/><path class="xgrid crisp" transform="translate(212.69,0)" d="M0,50v75" style="stroke: rgb(235, 240, 248); stroke-opacity: 1; stroke-width: 1px;"/><path class="xgrid crisp" transform="translate(275.37,0)" d="M0,50v75" style="stroke: rgb(235, 240, 248); stroke-opacity: 1; stroke-width: 1px;"/></g><g class="y"><path class="ygrid crisp" transform="translate(0,103.44)" d="M10,0h280" style="stroke: rgb(235, 240, 248); stroke-opacity: 1; stroke-width: 1px;"/><path class="ygrid crisp" transform="translate(0,81.88)" d="M10,0h280" style="stroke: rgb(235, 240, 248); stroke-opacity: 1; stroke-width: 1px;"/><path class="ygrid crisp" transform="translate(0,60.33)" d="M10,0h280" style="stroke: rgb(235, 240, 248); stroke-opacity: 1; stroke-width: 1px;"/></g></g><g class="zerolinelayer"><path class="yzl zl crisp" transform="translate(0,125)" d="M10,0h280" style="stroke: rgb(235, 240, 248); stroke-opacity: 1; stroke-width: 2px;"/></g><path class="xlines-below"/><path class="ylines-below"/><g class="overlines-below"/><g class="xaxislayer-below"/><g class="yaxislayer-below"/><g class="overaxes-below"/><g class="plot" transform="translate(10,50)" clip-path="url(#clip041195xyplot)"><g class="scatterlayer mlayer"><g class="trace scatter tracea6aafe" style="stroke-miterlimit: 2; opacity: 1;"><g class="fills"/><g class="errorbars"/><g class="lines"><path class="js-line" d="M0,52.47L3.13,49.67L4.18,49.67L8.36,49.88L9.4,49.13L24.03,48.27L25.07,47.62L44.93,46.87L45.97,42.34L58.51,42.34L60.6,45.47L63.73,44.82L64.78,44.82L72.09,44.6L73.13,46.97L75.22,48.16L76.27,47.73L77.31,47.3L78.36,48.27L105.52,47.62L106.57,45.47L108.66,46.33L109.7,46.33L110.75,46.11L111.79,42.55L113.88,40.4L114.93,40.4L115.97,39.86L117.01,36.3L119.1,34.25L120.15,34.25L123.28,33.61L124.33,32.64L127.46,30.27L128.51,30.27L136.87,30.59L137.91,31.67L146.27,31.67L147.31,30.16L148.36,30.16L149.4,27.57L153.58,27.57L154.63,24.66L160.9,24.66L161.94,22.94L168.21,20.13L169.25,20.13L171.34,16.47L172.39,16.47L173.43,14.64L174.48,10.22L183.88,10.22L184.93,11.83L188.06,12.59L189.1,13.02L191.19,15.39L192.24,14.96L195.37,14.21L196.42,14.21L203.73,14.31L204.78,10.76L206.87,7.2L207.91,7.09L211.04,7.95L212.09,5.91L215.22,6.88L216.27,7.74L218.36,8.82L219.4,12.48L220.45,13.77L221.49,12.48L223.58,12.59L224.63,10.86L226.72,10.97L227.76,11.08L229.85,10.65L230.9,9.79L234.03,6.77L235.07,6.77L238.21,8.71L239.25,7.85L241.34,8.49L242.39,10.65L244.48,16.68L245.52,16.47L248.66,17.55L249.7,17.87L251.79,16.47L252.84,17.66L254.93,18.41L255.97,16.9L259.1,10.33L260.15,10.22L262.24,7.95L263.28,7.85L265.37,8.06L266.42,9.79L271.64,9.03L272.69,8.39L275.82,7.95L276.87,6.88L278.96,5.8L280,3.75" style="vector-effect: none; fill: none; stroke: rgb(138, 44, 81); stroke-opacity: 1; stroke-width: 5px; opacity: 1;"/></g><g class="points"/><g class="text"/></g><g class="trace scatter tracefbbf7e" style="stroke-miterlimit: 2; opacity: 1;"><g class="fills"/><g class="errorbars"/><g class="lines"><path class="js-line" d="M0,28L4.18,29.51L5.22,29.51L8.36,29.3L9.4,28.65L60.6,29.62L61.64,32.64L72.09,31.67L73.13,29.19L75.22,25.52L76.27,26.49L77.31,27.46L78.36,24.23L87.76,24.23L88.81,25.85L89.85,25.85L90.9,24.23L91.94,25.85L92.99,23.91L95.07,23.48L96.12,25.52L98.21,23.48L99.25,23.48L100.3,23.48L101.34,25.52L102.39,25.52L103.43,23.48L105.52,25.52L106.57,23.58L108.66,26.06L109.7,26.06L115.97,27.25L117.01,29.08L120.15,29.84L121.19,29.84L134.78,30.59L135.82,31.24L160.9,32.21L161.94,33.93L169.25,36.2L170.3,34.15L173.43,35.23L174.48,36.63L183.88,36.63L184.93,35.12L187.01,34.25L188.06,34.25L189.1,33.82L190.15,31.34L192.24,30.81L193.28,31.13L203.73,30.59L204.78,33.39L206.87,36.63L207.91,36.73L210,35.01L211.04,34.25L213.13,36.3L214.18,35.76L218.36,33.39L219.4,29.73L220.45,28.43L221.49,29.73L223.58,29.62L224.63,31.34L226.72,31.24L227.76,31.13L229.85,31.56L230.9,32.42L234.03,35.44L235.07,35.44L238.21,33.5L239.25,34.36L241.34,33.72L242.39,31.56L244.48,25.52L245.52,25.74L248.66,24.66L249.7,24.34L251.79,25.74L252.84,24.55L254.93,23.8L255.97,25.31L259.1,31.88L260.15,31.99L262.24,34.25L263.28,34.36L265.37,34.15L266.42,32.42L271.64,33.18L272.69,33.82L275.82,34.25L276.87,35.33L278.96,36.41L280,38.46" style="vector-effect: none; fill: none; stroke: rgb(0, 174, 239); stroke-opacity: 1; stroke-width: 5px; opacity: 1;"/></g><g class="points"/><g class="text"/></g><g class="trace scatter tracef3047e" style="stroke-miterlimit: 2; opacity: 1;"><g class="fills"/><g class="errorbars"/><g class="lines"><path class="js-line" d="M0,64.11L7.31,65.19L8.36,64.54L11.49,63.9L12.54,63.9L44.93,64.11L45.97,65.41L60.6,64.54L61.64,57.54L73.13,58.18L74.18,58.83L92.99,59.15L94.03,59.59L105.52,58.83L106.57,61.96L108.66,59.8L109.7,59.8L110.75,59.91L111.79,61.53L113.88,62.82L114.93,62.82L115.97,62.5L117.01,63.57L123.28,63.68L124.33,63.57L131.64,64.22L132.69,64.22L134.78,63.79L135.82,62.82L136.87,62.82L137.91,61.31L146.27,61.31L147.31,62.71L152.54,64.65L153.58,64.65L155.67,65.51L156.72,65.51L169.25,65.84L170.3,69.18L189.1,70.26L190.15,71.23L203.73,72.31L204.78,73.06L210,73.6" style="vector-effect: none; fill: none; stroke: rgb(255, 1, 170); stroke-opacity: 1; stroke-width: 5px; opacity: 1;"/></g><g class="points"/><g class="text"/></g><g class="trace scatter tracec34e5c" style="stroke-miterlimit: 2; opacity: 1;"><g class="fills"/><g class="errorbars"/><g class="lines"><path class="js-line" d="M0,63.68L6.27,64.11L7.31,63.68L27.16,64.98L28.21,64.98L44.93,64.76L45.97,66.38L60.6,65.73L61.64,67.13L73.13,67.45L74.18,68.64L76.27,67.99L77.31,67.35L79.4,69.18L80.45,69.18L106.57,68.32L107.61,67.56L111.79,68.75L112.84,69.29L123.28,70.47L124.33,70.9L131.64,71.66L132.69,71.66L169.25,71.66L170.3,73.71L173.43,73.92" style="vector-effect: none; fill: none; stroke: rgb(238, 58, 67); stroke-opacity: 1; stroke-width: 5px; opacity: 1;"/></g><g class="points"/><g class="text"/></g><g class="trace scatter trace7da261" style="stroke-miterlimit: 2; opacity: 1;"><g class="fills"/><g class="errorbars"/><g class="lines"><path class="js-line" d="M0,66.48L6.27,66.7L7.31,65.19L9.4,68.53L10.45,68.53L75.22,69.07L76.27,69.5L78.36,69.18L79.4,69.18L111.79,70.26L112.84,70.47L124.33,71.66L125.37,71.87L129.55,72.2L130.6,72.2L169.25,73.38L170.3,73.71L173.43,73.92" style="vector-effect: none; fill: none; stroke: rgb(202, 166, 105); stroke-opacity: 1; stroke-width: 5px; opacity: 1;"/></g><g class="points"/><g class="text"/></g></g></g><g class="overplot"/><path class="xlines-above crisp" d="M0,0" style="fill: none;"/><path class="ylines-above crisp" d="M0,0" style="fill: none;"/><g class="overlines-above"/><g class="xaxislayer-above"/><g class="yaxislayer-above"/><g class="overaxes-above"/></g></g><g class="polarlayer"/><g class="smithlayer"/><g class="ternarylayer"/><g class="geolayer"/><g class="funnelarealayer"/><g class="pielayer"/><g class="iciclelayer"/><g class="treemaplayer"/><g class="sunburstlayer"/><g class="glimages"/><defs id="topdefs-041195"><g class="clips"/></defs><g class="layer-above"><g class="imagelayer"/><g class="shapelayer"/></g><g class="infolayer"><g class="g-gtitle"><text class="gtitle" x="15" y="25" text-anchor="start" dy="0em" style="font-family: Ubuntu, verdana, arial, sans-serif; font-size: 16px; fill: rgb(233, 84, 32); opacity: 1; font-weight: normal; white-space: pre;">Prezident/ka 2024</text></g><g class="g-xtitle"/><g class="g-ytitle"/></g></svg>