<svg class="main-svg" xmlns="http://www.w3.org/2000/svg" xmlns:xlink="http://www.w3.org/1999/xlink" width="1200" height="600" style="" viewBox="0 0 1200 600"><rect x="0" y="0" width="1200" height="600" style="fill: rgb(255, 255, 255); fill-opacity: 1;"/><defs id="defs-4271f7"><g class="clips"><clipPath id="clip4271f7xyplot" class="plotclip"><rect width="990" height="530"/></clipPath><clipPath class="axesclip" id="clip4271f7x"><rect x="50" y="0" width="990" height="600"/></clipPath><clipPath class="axesclip" id="clip4271f7y"><rect x="0" y="20" width="1200" height="530"/></clipPath><clipPath class="axesclip" id="clip4271f7xy"><rect x="50" y="20" width="990" height="530"/></clipPath></g><g class="gradients"/><g class="patterns"/></defs><g class="bglayer"/><g class="layer-below"><g class="imagelayer"/><g class="shapelayer"/></g><g class="cartesianlayer"><g class="subplot xy"><g class="layer-subplot"><g class="shapelayer"/><g class="imagelayer"/></g><g class="minor-gridlayer"><g class="x"/><g class="y"/></g><g class="gridlayer"><g class="x"><path class="xgrid crisp" transform="translate(83,0)" d="M0,20v530" style="stroke: rgb(235, 240, 248); stroke-opacity: 1; stroke-width: 1px;"/><path class="xgrid crisp" transform="translate(185.3,0)" d="M0,20v530" style="stroke: rgb(235, 240, 248); stroke-opacity: 1; stroke-width: 1px;"/><path class="xgrid crisp" transform="translate(287.6,0)" d="M0,20v530" style="stroke: rgb(235, 240, 248); stroke-opacity: 1; stroke-width: 1px;"/><path class="xgrid crisp" transform="translate(386.6,0)" d="M0,20v530" style="stroke: rgb(235, 240, 248); stroke-opacity: 1; stroke-width: 1px;"/><path class="xgrid crisp" transform="translate(488.9,0)" d="M0,20v530" style="stroke: rgb(235, 240, 248); stroke-opacity: 1; stroke-width: 1px;"/><path class="xgrid crisp" transform="translate(587.9,0)" d="M0,20v530" style="stroke: rgb(235, 240, 248); stroke-opacity: 1; stroke-width: 1px;"/><path class="xgrid crisp" transform="translate(690.2,0)" d="M0,20v530" style="stroke: rgb(235, 240, 248); stroke-opacity: 1; stroke-width: 1px;"/><path class="xgrid crisp" transform="translate(792.5,0)" d="M0,20v530" style="stroke: rgb(235, 240, 248); stroke-opacity: 1; stroke-width: 1px;"/><path class="xgrid crisp" transform="translate(888.2,0)" d="M0,20v530" style="stroke: rgb(235, 240, 248); stroke-opacity: 1; stroke-width: 1px;"/><path class="xgrid crisp" transform="translate(990.5,0)" d="M0,20v530" style="stroke: rgb(235, 240, 248); stroke-opacity: 1; stroke-width: 1px;"/></g><g class="y"><path class="ygrid crisp" transform="translate(0,470.08)" d="M50,0h990" style="stroke: rgb(235, 240, 248); stroke-opacity: 1; stroke-width: 1px;"/><path class="ygrid crisp" transform="translate(0,390.16)" d="M50,0h990" style="stroke: rgb(235, 240, 248); stroke-opacity: 1; stroke-width: 1px;"/><path class="ygrid crisp" transform="translate(0,310.24)" d="M50,0h990" style="stroke: rgb(235, 240, 248); stroke-opacity: 1; stroke-width: 1px;"/><path class="ygrid crisp" transform="translate(0,230.32)" d="M50,0h990" style="stroke: rgb(235, 240, 248); stroke-opacity: 1; stroke-width: 1px;"/><path class="ygrid crisp" transform="translate(0,150.4)" d="M50,0h990" style="stroke: rgb(235, 240, 248); stroke-opacity: 1; stroke-width: 1px;"/><path class="ygrid crisp" transform="translate(0,70.47999999999999)" d="M50,0h990" style="stroke: rgb(235, 240, 248); stroke-opacity: 1; stroke-width: 1px;"/></g></g><g class="zerolinelayer"><path class="yzl zl crisp" transform="translate(0,550)" d="M50,0h990" style="stroke: rgb(235, 240, 248); stroke-opacity: 1; stroke-width: 2px;"/></g><path class="xlines-below"/><path class="ylines-below"/><g class="overlines-below"/><g class="xaxislayer-below"/><g class="yaxislayer-below"/><g class="overaxes-below"/><g class="plot" transform="translate(50,20)" clip-path="url(#clip4271f7xyplot)"><g class="scatterlayer mlayer"><g class="trace scatter trace49622f" style="stroke-miterlimit: 2; opacity: 1;"><g class="fills"/><g class="errorbars"/><g class="lines"><path class="js-line" d="M0,362.97L6.6,342.19L9.9,342.19L19.8,342.19L23.1,347.78L29.7,338.19L33,338.19L46.2,338.19L49.5,335.79L59.4,335.79L62.7,333.4L66,331.8L69.3,331.8L75.9,331.8L79.2,327L122.1,327L125.4,321.41L141.9,321.41L145.2,287.84L184.8,287.84L191.4,311.02L194.7,306.22L201.3,306.22L224.4,305.42L227.7,304.62L231,322.21L234.3,331L237.6,331L240.9,327.8L244.2,324.6L247.5,331.8L277.2,331.8L280.5,328.6L283.8,328.6L287.1,331.8L290.4,328.6L293.7,331L297,328.6L300.3,328.6L303.6,327L306.9,328.6L316.8,328.6L320.1,327L323.4,327L326.7,328.6L330,327L333.3,327L336.6,311.02L339.9,317.41L346.5,317.41L349.8,315.81L353.1,289.44L356.4,273.45L363,273.45L366.3,269.46L369.6,243.08L372.9,230.3L376.2,227.9L379.5,227.9L386.1,227.9L389.4,223.1L396,209.52L399.3,198.33L425.7,199.13L429,200.73L432.3,200.73L435.6,208.72L462,208.72L465.3,197.53L468.6,197.53L471.9,178.35L485.1,178.35L488.4,156.77L508.2,156.77L511.5,143.98L514.8,139.19L518.1,139.19L521.4,139.19L524.7,134.39L528,127.2L531.3,123.2L534.6,123.2L537.9,96.03L544.5,96.03L547.8,82.44L551.1,49.68L554.4,49.68L580.8,49.68L584.1,61.67L587.4,67.26L590.7,67.26L594,67.26L597.3,70.46L600.6,83.24L603.9,88.04L607.2,84.84L610.5,79.25L633.6,79.25L636.9,77.65L640.2,81.65L643.5,80.05L650.1,36.09L653.4,27.3L656.7,26.5L660,28.9L663.3,28.9" style="vector-effect: none; fill: none; stroke: rgb(138, 44, 81); stroke-opacity: 1; stroke-width: 5px; opacity: 1;"/></g><g class="points"/><g class="text"/></g><g class="trace scatter traceeafd07" style="stroke-miterlimit: 2; opacity: 1;"><g class="fills"/><g class="errorbars"/><g class="lines"><path class="js-line" d="M0,181.55L6.6,192.73L9.9,192.73L19.8,192.73L23.1,198.33L29.7,186.34L33,186.34L59.4,186.34L62.7,187.94L66,189.54L69.3,189.54L75.9,189.54L79.2,193.53L191.4,193.53L194.7,215.91L221.1,215.91L224.4,211.92L227.7,208.72L231,190.34L234.3,163.16L237.6,163.16L244.2,177.55L247.5,153.57L277.2,153.57L280.5,165.56L283.8,165.56L287.1,153.57L290.4,165.56L293.7,151.18L297,147.98L300.3,147.98L303.6,163.16L306.9,147.98L316.8,147.98L320.1,163.16L323.4,163.16L326.7,147.98L330,163.16L333.3,163.16L336.6,148.78L339.9,167.16L349.8,167.16L353.1,171.96L363,171.96L366.3,175.95L369.6,189.54L372.9,194.33L379.5,195.13L382.8,195.13L392.7,195.13L396,197.53L402.6,198.33L405.9,198.33L422.4,198.33L425.7,200.73L429,205.52L432.3,205.52L435.6,208.72L442.2,208.72L465.3,209.52L468.6,206.32L471.9,214.31L475.2,214.31L485.1,214.31L488.4,212.72L508.2,212.72L511.5,225.5L514.8,228.7L518.1,228.7L521.4,228.7L524.7,233.49L531.3,242.29L534.6,242.29L537.9,227.1L541.2,227.1L544.5,227.1L547.8,235.09L551.1,245.48L554.4,245.48L580.8,245.48L584.1,234.29L587.4,227.9L590.7,227.9L594,227.9L597.3,224.7L600.6,206.32L603.9,200.73L610.5,204.72L613.8,204.72L630.3,204.72L633.6,203.12L636.9,204.72L640.2,200.73L643.5,200.73L646.8,221.51L650.1,236.69L653.4,245.48L656.7,246.28L660,243.88L663.3,243.88" style="vector-effect: none; fill: none; stroke: rgb(0, 174, 239); stroke-opacity: 1; stroke-width: 5px; opacity: 1;"/></g><g class="points"/><g class="text"/></g><g class="trace scatter traceadfe94" style="stroke-miterlimit: 2; opacity: 1;"><g class="fills"/><g class="errorbars"/><g class="lines"><path class="js-line" d="M0,449.28L6.6,451.68L9.9,451.68L19.8,451.68L23.1,457.27L29.7,447.68L33,447.68L46.2,447.68L49.5,449.28L62.7,448.48L66,447.68L122.1,447.68L125.4,449.28L141.9,449.28L145.2,458.87L184.8,458.87L191.4,452.48L194.7,400.53L201.3,400.53L221.1,400.53L224.4,402.93L227.7,405.32L231,405.32L234.3,410.12L237.6,410.12L244.2,404.52L247.5,410.92L277.2,410.92L280.5,407.72L283.8,407.72L287.1,410.92L290.4,407.72L293.7,412.52L297,415.71L300.3,415.71L303.6,410.12L306.9,415.71L316.8,415.71L320.1,410.12L323.4,410.12L326.7,415.71L330,410.12L333.3,410.12L336.6,433.3L339.9,417.31L349.8,418.11L353.1,430.1L356.4,439.69L359.7,439.69L363,439.69L366.3,437.29L369.6,445.28L372.9,446.88L389.4,446.08L392.7,445.28L396,446.88L399.3,450.08L422.4,450.08L425.7,446.88L429,439.69L432.3,439.69L435.6,428.5L442.2,428.5L462,428.5L465.3,438.89L468.6,442.09L471.9,453.28L485.1,453.28L488.4,459.67L524.7,460.47L528,461.27L534.6,462.07L537.9,486.84L544.5,486.84L547.8,490.04L551.1,494.83L554.4,494.83L597.3,494.83L600.6,502.03L603.9,502.03L607.2,503.63L610.5,506.82L613.8,506.82L630.3,506.82L633.6,508.42L640.2,508.42L643.5,510.02L646.8,515.61L650.1,518.01L663.3,518.01" style="vector-effect: none; fill: none; stroke: rgb(255, 1, 170); stroke-opacity: 1; stroke-width: 5px; opacity: 1;"/></g><g class="points"/><g class="text"/></g><g class="trace scatter tracef23bcd" style="stroke-miterlimit: 2; opacity: 1;"><g class="fills"/><g class="errorbars"/><g class="lines"><path class="js-line" d="M0,466.86L9.9,468.46L13.2,468.46L19.8,468.46L23.1,457.27L29.7,482.05L33,482.05L62.7,481.25L66,480.45L141.9,479.65L145.2,483.65L184.8,483.65L191.4,482.05L194.7,485.24L201.3,485.24L224.4,486.04L227.7,486.84L237.6,486.04L240.9,489.24L244.2,492.44L247.5,486.84L277.2,486.84L280.5,489.24L283.8,489.24L287.1,486.84L290.4,489.24L293.7,488.44L297,491.64L300.3,491.64L303.6,492.44L306.9,491.64L333.3,492.44L336.6,494.83L353.1,494.83L356.4,496.43L366.3,497.23L369.6,498.03L372.9,500.43L376.2,501.23L386.1,501.23L389.4,502.83L399.3,509.22L402.6,509.22L485.1,509.22L488.4,517.21L534.6,518.01L537.9,520.41L544.5,520.41L547.8,522.01" style="vector-effect: none; fill: none; stroke: rgb(202, 166, 105); stroke-opacity: 1; stroke-width: 5px; opacity: 1;"/></g><g class="points"/><g class="text"/></g><g class="trace scatter traceced916" style="stroke-miterlimit: 2; opacity: 1;"><g class="fills"/><g class="errorbars"/><g class="lines"><path class="js-line" d="M0,446.08L6.6,449.28L9.9,449.28L19.8,449.28L23.1,446.08L26.4,446.88L29.7,450.88L59.4,451.68L62.7,454.08L66,455.67L69.3,455.67L122.1,455.67L125.4,454.08L141.9,454.08L145.2,466.06L184.8,466.06L191.4,461.27L194.7,471.66L201.3,471.66L224.4,472.46L227.7,474.06L231,474.06L234.3,482.85L237.6,482.85L240.9,478.05L244.2,473.26L247.5,486.84L277.2,486.84L280.5,480.45L283.8,480.45L287.1,486.84L290.4,480.45L293.7,486.04L300.3,486.04L303.6,479.65L306.9,486.04L310.2,486.04L316.8,486.04L320.1,479.65L323.4,479.65L326.7,486.04L330,479.65L333.3,479.65L336.6,480.45L339.9,474.85L349.8,475.65L353.1,483.65L356.4,487.64L359.7,487.64L363,487.64L366.3,489.24L372.9,494.04L376.2,494.83L386.1,494.83L389.4,496.43L399.3,505.22L402.6,505.22L485.1,505.22L488.4,504.43L534.6,505.22L537.9,520.41L544.5,520.41L547.8,522.01" style="vector-effect: none; fill: none; stroke: rgb(238, 58, 67); stroke-opacity: 1; stroke-width: 5px; opacity: 1;"/></g><g class="points"/><g class="text"/></g><g class="trace scatter trace4191d5" style="stroke-miterlimit: 2; opacity: 1;"><g class="fills"/><g class="errorbars"/><g class="lines"><path class="js-line" d="M0,474.06L9.9,476.45L13.2,476.45L23.1,475.65L26.4,474.06L33,474.85L36.3,474.85L46.2,474.85L49.5,476.45L75.9,475.65L79.2,477.25L122.1,477.25L125.4,483.65L141.9,483.65L145.2,490.04L184.8,490.04L191.4,480.45L194.7,501.23L201.3,501.23L231,502.03L234.3,507.62L244.2,507.62L247.5,510.82L277.2,510.82L280.5,509.22L283.8,509.22L287.1,510.82L290.4,509.22L293.7,510.82L300.3,510.82L303.6,509.22L306.9,510.82L310.2,510.82L316.8,510.82L320.1,509.22L323.4,509.22L326.7,510.82L330,509.22L333.3,509.22L336.6,511.62L339.9,510.02L363,510.82L366.3,511.62L372.9,514.02L376.2,514.82L386.1,514.82L389.4,516.41L392.7,519.61L396,519.61L402.6,520.41L405.9,520.41L485.1,519.61" style="vector-effect: none; fill: none; stroke: rgb(255, 192, 203); stroke-opacity: 1; stroke-width: 5px; opacity: 1;"/></g><g class="points"/><g class="text"/></g></g></g><g class="overplot"/><path class="xlines-above crisp" d="M0,0" style="fill: none;"/><path class="ylines-above crisp" d="M0,0" style="fill: none;"/><g class="overlines-above"/><g class="xaxislayer-above"><g class="xtick"><text text-anchor="middle" x="0" y="563" transform="translate(83,0)" style="font-family: 'Open Sans', verdana, arial, sans-serif; font-size: 12px; fill: rgb(42, 63, 95); fill-opacity: 1; white-space: pre; opacity: 1;">1.7.23</text></g><g class="xtick"><text text-anchor="middle" x="0" y="563" style="font-family: 'Open Sans', verdana, arial, sans-serif; font-size: 12px; fill: rgb(42, 63, 95); fill-opacity: 1; white-space: pre; opacity: 1;" transform="translate(185.3,0)">1.8.23</text></g><g class="xtick"><text text-anchor="middle" x="0" y="563" style="font-family: 'Open Sans', verdana, arial, sans-serif; font-size: 12px; fill: rgb(42, 63, 95); fill-opacity: 1; white-space: pre; opacity: 1;" transform="translate(287.6,0)">1.9.23</text></g><g class="xtick"><text text-anchor="middle" x="0" y="563" style="font-family: 'Open Sans', verdana, arial, sans-serif; font-size: 12px; fill: rgb(42, 63, 95); fill-opacity: 1; white-space: pre; opacity: 1;" transform="translate(386.6,0)">1.10.23</text></g><g class="xtick"><text text-anchor="middle" x="0" y="563" style="font-family: 'Open Sans', verdana, arial, sans-serif; font-size: 12px; fill: rgb(42, 63, 95); fill-opacity: 1; white-space: pre; opacity: 1;" transform="translate(488.9,0)">1.11.23</text></g><g class="xtick"><text text-anchor="middle" x="0" y="563" style="font-family: 'Open Sans', verdana, arial, sans-serif; font-size: 12px; fill: rgb(42, 63, 95); fill-opacity: 1; white-space: pre; opacity: 1;" transform="translate(587.9,0)">1.12.23</text></g><g class="xtick"><text text-anchor="middle" x="0" y="563" style="font-family: 'Open Sans', verdana, arial, sans-serif; font-size: 12px; fill: rgb(42, 63, 95); fill-opacity: 1; white-space: pre; opacity: 1;" transform="translate(690.2,0)">1.1.24</text></g><g class="xtick"><text text-anchor="middle" x="0" y="563" style="font-family: 'Open Sans', verdana, arial, sans-serif; font-size: 12px; fill: rgb(42, 63, 95); fill-opacity: 1; white-space: pre; opacity: 1;" transform="translate(792.5,0)">1.2.24</text></g><g class="xtick"><text text-anchor="middle" x="0" y="563" style="font-family: 'Open Sans', verdana, arial, sans-serif; font-size: 12px; fill: rgb(42, 63, 95); fill-opacity: 1; white-space: pre; opacity: 1;" transform="translate(888.2,0)">1.3.24</text></g><g class="xtick"><text text-anchor="middle" x="0" y="563" style="font-family: 'Open Sans', verdana, arial, sans-serif; font-size: 12px; fill: rgb(42, 63, 95); fill-opacity: 1; white-space: pre; opacity: 1;" transform="translate(990.5,0)">1.4.24</text></g></g><g class="yaxislayer-above"><g class="ytick"><text text-anchor="end" x="49" y="4.199999999999999" transform="translate(0,550)" style="font-family: 'Open Sans', verdana, arial, sans-serif; font-size: 12px; fill: rgb(42, 63, 95); fill-opacity: 1; white-space: pre; opacity: 1;">0%</text></g><g class="ytick"><text text-anchor="end" x="49" y="4.199999999999999" style="font-family: 'Open Sans', verdana, arial, sans-serif; font-size: 12px; fill: rgb(42, 63, 95); fill-opacity: 1; white-space: pre; opacity: 1;" transform="translate(0,470.08)">10%</text></g><g class="ytick"><text text-anchor="end" x="49" y="4.199999999999999" style="font-family: 'Open Sans', verdana, arial, sans-serif; font-size: 12px; fill: rgb(42, 63, 95); fill-opacity: 1; white-space: pre; opacity: 1;" transform="translate(0,390.16)">20%</text></g><g class="ytick"><text text-anchor="end" x="49" y="4.199999999999999" style="font-family: 'Open Sans', verdana, arial, sans-serif; font-size: 12px; fill: rgb(42, 63, 95); fill-opacity: 1; white-space: pre; opacity: 1;" transform="translate(0,310.24)">30%</text></g><g class="ytick"><text text-anchor="end" x="49" y="4.199999999999999" style="font-family: 'Open Sans', verdana, arial, sans-serif; font-size: 12px; fill: rgb(42, 63, 95); fill-opacity: 1; white-space: pre; opacity: 1;" transform="translate(0,230.32)">40%</text></g><g class="ytick"><text text-anchor="end" x="49" y="4.199999999999999" style="font-family: 'Open Sans', verdana, arial, sans-serif; font-size: 12px; fill: rgb(42, 63, 95); fill-opacity: 1; white-space: pre; opacity: 1;" transform="translate(0,150.4)">50%</text></g><g class="ytick"><text text-anchor="end" x="49" y="4.199999999999999" style="font-family: 'Open Sans', verdana, arial, sans-serif; font-size: 12px; fill: rgb(42, 63, 95); fill-opacity: 1; white-space: pre; opacity: 1;" transform="translate(0,70.47999999999999)">60%</text></g></g><g class="overaxes-above"/></g></g><g class="polarlayer"/><g class="smithlayer"/><g class="ternarylayer"/><g class="geolayer"/><g class="funnelarealayer"/><g class="pielayer"/><g class="iciclelayer"/><g class="treemaplayer"/><g class="sunburstlayer"/><g class="glimages"/><defs id="topdefs-4271f7"><g class="clips"/><clipPath id="legend4271f7"><rect width="128" height="124" x="0" y="0"/></clipPath></defs><g class="layer-above"><g class="imagelayer"/><g class="shapelayer"/></g><g class="infolayer"><g class="legend" pointer-events="all" transform="translate(1059.8000000000002,20)"><rect class="bg" shape-rendering="crispEdges" style="stroke: rgb(68, 68, 68); stroke-opacity: 1; fill: rgb(255, 255, 255); fill-opacity: 1; stroke-width: 0px;" width="128" height="124" x="0" y="0"/><g class="scrollbox" transform="" clip-path="url(#legend4271f7)"><g class="groups"><g class="traces" transform="translate(0,14.5)" style="opacity: 1;"><text class="legendtext" text-anchor="start" x="40" y="4.680000000000001" style="font-family: 'Open Sans', verdana, arial, sans-serif; font-size: 12px; fill: rgb(42, 63, 95); fill-opacity: 1; white-space: pre;">Pellegrini Peter</text><g class="layers" style="opacity: 1;"><g class="legendfill"/><g class="legendlines"><path class="js-line" d="M5,0h30" style="fill: none; stroke: rgb(138, 44, 81); stroke-opacity: 1; stroke-width: 5px;"/></g><g class="legendsymbols"><g class="legendpoints"/></g></g><rect class="legendtoggle" x="0" y="-9.5" width="122.703125" height="19" style="fill: rgb(0, 0, 0); fill-opacity: 0;"/></g><g class="traces" transform="translate(0,33.5)" style="opacity: 1;"><text class="legendtext" text-anchor="start" x="40" y="4.680000000000001" style="font-family: 'Open Sans', verdana, arial, sans-serif; font-size: 12px; fill: rgb(42, 63, 95); fill-opacity: 1; white-space: pre;">Korčok Ivan</text><g class="layers" style="opacity: 1;"><g class="legendfill"/><g class="legendlines"><path class="js-line" d="M5,0h30" style="fill: none; stroke: rgb(0, 174, 239); stroke-opacity: 1; stroke-width: 5px;"/></g><g class="legendsymbols"><g class="legendpoints"/></g></g><rect class="legendtoggle" x="0" y="-9.5" width="122.703125" height="19" style="fill: rgb(0, 0, 0); fill-opacity: 0;"/></g><g class="traces" transform="translate(0,52.5)" style="opacity: 1;"><text class="legendtext" text-anchor="start" x="40" y="4.680000000000001" style="font-family: 'Open Sans', verdana, arial, sans-serif; font-size: 12px; fill: rgb(42, 63, 95); fill-opacity: 1; white-space: pre;">Kubiš Ján</text><g class="layers" style="opacity: 1;"><g class="legendfill"/><g class="legendlines"><path class="js-line" d="M5,0h30" style="fill: none; stroke: rgb(255, 1, 170); stroke-opacity: 1; stroke-width: 5px;"/></g><g class="legendsymbols"><g class="legendpoints"/></g></g><rect class="legendtoggle" x="0" y="-9.5" width="122.703125" height="19" style="fill: rgb(0, 0, 0); fill-opacity: 0;"/></g><g class="traces" transform="translate(0,71.5)" style="opacity: 1;"><text class="legendtext" text-anchor="start" x="40" y="4.680000000000001" style="font-family: 'Open Sans', verdana, arial, sans-serif; font-size: 12px; fill: rgb(42, 63, 95); fill-opacity: 1; white-space: pre;">Mistrík Robert</text><g class="layers" style="opacity: 1;"><g class="legendfill"/><g class="legendlines"><path class="js-line" d="M5,0h30" style="fill: none; stroke: rgb(202, 166, 105); stroke-opacity: 1; stroke-width: 5px;"/></g><g class="legendsymbols"><g class="legendpoints"/></g></g><rect class="legendtoggle" x="0" y="-9.5" width="122.703125" height="19" style="fill: rgb(0, 0, 0); fill-opacity: 0;"/></g><g class="traces" transform="translate(0,90.5)" style="opacity: 1;"><text class="legendtext" text-anchor="start" x="40" y="4.680000000000001" style="font-family: 'Open Sans', verdana, arial, sans-serif; font-size: 12px; fill: rgb(42, 63, 95); fill-opacity: 1; white-space: pre;">Fico Robert</text><g class="layers" style="opacity: 1;"><g class="legendfill"/><g class="legendlines"><path class="js-line" d="M5,0h30" style="fill: none; stroke: rgb(238, 58, 67); stroke-opacity: 1; stroke-width: 5px;"/></g><g class="legendsymbols"><g class="legendpoints"/></g></g><rect class="legendtoggle" x="0" y="-9.5" width="122.703125" height="19" style="fill: rgb(0, 0, 0); fill-opacity: 0;"/></g><g class="traces" transform="translate(0,109.5)" style="opacity: 1;"><text class="legendtext" text-anchor="start" x="40" y="4.680000000000001" style="font-family: 'Open Sans', verdana, arial, sans-serif; font-size: 12px; fill: rgb(42, 63, 95); fill-opacity: 1; white-space: pre;">Lajčák Miroslav</text><g class="layers" style="opacity: 1;"><g class="legendfill"/><g class="legendlines"><path class="js-line" d="M5,0h30" style="fill: none; stroke: rgb(255, 192, 203); stroke-opacity: 1; stroke-width: 5px;"/></g><g class="legendsymbols"><g class="legendpoints"/></g></g><rect class="legendtoggle" x="0" y="-9.5" width="122.703125" height="19" style="fill: rgb(0, 0, 0); fill-opacity: 0;"/></g></g></g><rect class="scrollbar" rx="20" ry="3" width="0" height="0" style="fill: rgb(128, 139, 164); fill-opacity: 1;" x="0" y="0"/></g><g class="g-gtitle"/><g class="g-xtitle"/><g class="g-ytitle"/></g></svg>