<svg class="main-svg" xmlns="http://www.w3.org/2000/svg" xmlns:xlink="http://www.w3.org/1999/xlink" width="300" height="135" style="" viewBox="0 0 300 135"><rect x="0" y="0" width="300" height="135" style="fill: rgb(255, 255, 255); fill-opacity: 1;"/><defs id="defs-35aa8c"><g class="clips"><clipPath id="clip35aa8cxyplot" class="plotclip"><rect width="280" height="75"/></clipPath><clipPath class="axesclip" id="clip35aa8cx"><rect x="10" y="0" width="280" height="135"/></clipPath><clipPath class="axesclip" id="clip35aa8cy"><rect x="0" y="50" width="300" height="75"/></clipPath><clipPath class="axesclip" id="clip35aa8cxy"><rect x="10" y="50" width="280" height="75"/></clipPath></g><g class="gradients"/><g class="patterns"/></defs><g class="bglayer"/><g class="layer-below"><g class="imagelayer"/><g class="shapelayer"/></g><g class="cartesianlayer"><g class="subplot xy"><g class="layer-subplot"><g class="shapelayer"/><g class="imagelayer"/></g><g class="minor-gridlayer"><g class="x"/><g class="y"/></g><g class="gridlayer"><g class="x"><path class="xgrid crisp" transform="translate(24.740000000000002,0)" d="M0,50v75" style="stroke: rgb(235, 240, 248); stroke-opacity: 1; stroke-width: 1px;"/><path class="xgrid crisp" transform="translate(116.11,0)" d="M0,50v75" style="stroke: rgb(235, 240, 248); stroke-opacity: 1; stroke-width: 1px;"/><path class="xgrid crisp" transform="translate(206,0)" d="M0,50v75" style="stroke: rgb(235, 240, 248); stroke-opacity: 1; stroke-width: 1px;"/></g><g class="y"><path class="ygrid crisp" transform="translate(0,101.28999999999999)" d="M10,0h280" style="stroke: rgb(235, 240, 248); stroke-opacity: 1; stroke-width: 1px;"/><path class="ygrid crisp" transform="translate(0,77.58)" d="M10,0h280" style="stroke: rgb(235, 240, 248); stroke-opacity: 1; stroke-width: 1px;"/><path class="ygrid crisp" transform="translate(0,53.87)" d="M10,0h280" style="stroke: rgb(235, 240, 248); stroke-opacity: 1; stroke-width: 1px;"/></g></g><g class="zerolinelayer"><path class="yzl zl crisp" transform="translate(0,125)" d="M10,0h280" style="stroke: rgb(235, 240, 248); stroke-opacity: 1; stroke-width: 2px;"/></g><path class="xlines-below"/><path class="ylines-below"/><g class="overlines-below"/><g class="xaxislayer-below"/><g class="yaxislayer-below"/><g class="overaxes-below"/><g class="plot" transform="translate(10,50)" clip-path="url(#clip35aa8cxyplot)"><g class="scatterlayer mlayer"><g class="trace scatter trace1a4e50" style="stroke-miterlimit: 2; opacity: 1;"><g class="fills"/><g class="errorbars"/><g class="lines"><path class="js-line" d="M0,50.22L4.42,47.14L5.89,47.14L11.79,47.38L13.26,46.55L33.89,45.6L35.37,44.89L63.37,44.06L64.84,39.08L82.53,39.08L85.47,42.52L86.95,41.81L89.89,41.81L101.68,41.57L103.16,44.18L106.11,45.48L107.58,45.01L109.05,44.53L110.53,45.6L148.84,44.89L150.32,42.52L153.26,43.47L154.74,43.47L156.21,43.23L157.68,39.32L160.63,36.94L162.11,36.94L163.58,36.35L165.05,32.44L168,30.19L169.47,30.19L173.89,29.48L175.37,28.41L179.79,25.8L181.26,25.8L193.05,26.16L194.53,27.34L206.32,27.34L207.79,25.68L209.26,25.68L210.74,22.84L216.63,22.84L218.11,19.64L226.95,19.64L228.42,17.74L231.37,17.03L232.84,17.03L238.74,14.66L240.21,10.63L243.16,10.63L244.63,8.61L246.11,3.75L247.58,3.75L259.37,3.75L260.84,5.53L263.79,6.36L265.26,6.36L266.74,6.83L268.21,8.73L271.16,8.97L272.63,8.14L280,8.14" style="vector-effect: none; fill: none; stroke: rgb(138, 44, 81); stroke-opacity: 1; stroke-width: 5px; opacity: 1;"/></g><g class="points"/><g class="text"/></g><g class="trace scatter trace419c44" style="stroke-miterlimit: 2; opacity: 1;"><g class="fills"/><g class="errorbars"/><g class="lines"><path class="js-line" d="M0,23.31L4.42,24.97L5.89,24.97L11.79,24.73L13.26,24.02L85.47,25.09L86.95,28.41L101.68,27.34L103.16,24.62L104.63,20.58L106.11,20.58L109.05,22.72L110.53,19.16L123.79,19.16L125.26,20.94L126.74,20.94L128.21,19.16L129.68,20.94L131.16,18.81L134.11,18.33L135.58,20.58L138.53,18.33L140,18.33L141.47,18.33L142.95,20.58L144.42,20.58L145.89,18.33L148.84,20.58L150.32,18.45L151.79,21.18L153.26,21.18L162.11,21.89L163.58,22.48L166.53,25.21L168,25.33L190.11,26.16L191.58,26.87L209.26,26.99L210.74,28.17L226.95,27.93L228.42,29.83L238.74,32.32L240.21,30.07L244.63,31.25L246.11,32.8L259.37,32.8L260.84,31.14L263.79,30.19L265.26,30.19L266.74,29.71L268.21,26.99L271.16,26.39L272.63,26.75L280,26.75" style="vector-effect: none; fill: none; stroke: rgb(0, 174, 239); stroke-opacity: 1; stroke-width: 5px; opacity: 1;"/></g><g class="points"/><g class="text"/></g><g class="trace scatter tracee4bb6d" style="stroke-miterlimit: 2; opacity: 1;"><g class="fills"/><g class="errorbars"/><g class="lines"><path class="js-line" d="M0,63.03L10.32,64.21L11.79,63.5L14.74,62.79L16.21,62.79L63.37,63.03L64.84,64.45L85.47,63.5L86.95,55.79L103.16,56.51L104.63,57.22L131.16,57.57L132.63,58.05L148.84,57.22L150.32,60.66L151.79,58.28L153.26,58.28L156.21,58.4L157.68,60.18L160.63,61.6L162.11,61.6L163.58,61.25L165.05,62.43L172.42,62.67L173.89,62.55L181.26,63.14L182.74,63.14L190.11,62.67L191.58,61.6L193.05,61.6L194.53,59.94L206.32,59.94L207.79,61.49L213.68,63.62L215.16,63.62L235.79,64.8L237.26,64.92L238.74,64.92L240.21,68.6L259.37,69.78L260.84,69.9L269.68,70.85L271.16,71.09L275.58,71.56L277.05,71.56L280,71.56" style="vector-effect: none; fill: none; stroke: rgb(255, 1, 170); stroke-opacity: 1; stroke-width: 5px; opacity: 1;"/></g><g class="points"/><g class="text"/></g><g class="trace scatter tracea2d063" style="stroke-miterlimit: 2; opacity: 1;"><g class="fills"/><g class="errorbars"/><g class="lines"><path class="js-line" d="M0,62.55L8.84,63.03L10.32,62.55L36.84,63.97L38.32,63.97L63.37,63.74L64.84,65.52L85.47,64.8L86.95,66.35L103.16,66.7L104.63,68.01L107.58,67.29L109.05,66.58L112,68.6L113.47,68.6L150.32,67.65L151.79,66.82L156.21,66.94L157.68,68.12L162.11,68.72L163.58,68.95L170.95,69.78L172.42,69.78L185.68,71.32L187.16,71.32L238.74,71.32L240.21,73.58L244.63,73.81" style="vector-effect: none; fill: none; stroke: rgb(238, 58, 67); stroke-opacity: 1; stroke-width: 5px; opacity: 1;"/></g><g class="points"/><g class="text"/></g><g class="trace scatter tracea8f780" style="stroke-miterlimit: 2; opacity: 1;"><g class="fills"/><g class="errorbars"/><g class="lines"><path class="js-line" d="M0,65.63L8.84,65.87L10.32,64.21L13.26,67.89L14.74,67.89L106.11,68.48L107.58,68.95L110.53,68.6L112,68.6L157.68,69.78L159.16,70.02L173.89,70.97L175.37,71.32L185.68,71.92L187.16,71.92L234.32,73.1L235.79,73.22L244.63,73.81" style="vector-effect: none; fill: none; stroke: rgb(202, 166, 105); stroke-opacity: 1; stroke-width: 5px; opacity: 1;"/></g><g class="points"/><g class="text"/></g></g></g><g class="overplot"/><path class="xlines-above crisp" d="M0,0" style="fill: none;"/><path class="ylines-above crisp" d="M0,0" style="fill: none;"/><g class="overlines-above"/><g class="xaxislayer-above"/><g class="yaxislayer-above"/><g class="overaxes-above"/></g></g><g class="polarlayer"/><g class="smithlayer"/><g class="ternarylayer"/><g class="geolayer"/><g class="funnelarealayer"/><g class="pielayer"/><g class="iciclelayer"/><g class="treemaplayer"/><g class="sunburstlayer"/><g class="glimages"/><defs id="topdefs-35aa8c"><g class="clips"/></defs><g class="layer-above"><g class="imagelayer"/><g class="shapelayer"/></g><g class="infolayer"><g class="g-gtitle"><text class="gtitle" x="15" y="25" text-anchor="start" dy="0em" style="font-family: Ubuntu, verdana, arial, sans-serif; font-size: 16px; fill: rgb(233, 84, 32); opacity: 1; font-weight: normal; white-space: pre;">Prezident/ka 2024</text></g><g class="g-xtitle"/><g class="g-ytitle"/></g></svg>