<svg class="main-svg" xmlns="http://www.w3.org/2000/svg" xmlns:xlink="http://www.w3.org/1999/xlink" width="400" height="400" style="" viewBox="0 0 400 400"><rect x="0" y="0" width="400" height="400" style="fill: rgb(255, 255, 255); fill-opacity: 1;"/><defs id="defs-f37f69"><g class="clips"><clipPath id="clipf37f69xyplot" class="plotclip"><rect width="206" height="330"/></clipPath><clipPath class="axesclip" id="clipf37f69x"><rect x="50" y="0" width="206" height="400"/></clipPath><clipPath class="axesclip" id="clipf37f69y"><rect x="0" y="20" width="400" height="330"/></clipPath><clipPath class="axesclip" id="clipf37f69xy"><rect x="50" y="20" width="206" height="330"/></clipPath></g><g class="gradients"/><g class="patterns"/></defs><g class="bglayer"/><g class="layer-below"><g class="imagelayer"/><g class="shapelayer"/></g><g class="cartesianlayer"><g class="subplot xy"><g class="layer-subplot"><g class="shapelayer"/><g class="imagelayer"/></g><g class="minor-gridlayer"><g class="x"/><g class="y"/></g><g class="gridlayer"><g class="x"><path class="xgrid crisp" transform="translate(56.87,0)" d="M0,20v330" style="stroke: rgb(235, 240, 248); stroke-opacity: 1; stroke-width: 1px;"/><path class="xgrid crisp" transform="translate(99.44,0)" d="M0,20v330" style="stroke: rgb(235, 240, 248); stroke-opacity: 1; stroke-width: 1px;"/><path class="xgrid crisp" transform="translate(141.32999999999998,0)" d="M0,20v330" style="stroke: rgb(235, 240, 248); stroke-opacity: 1; stroke-width: 1px;"/><path class="xgrid crisp" transform="translate(183.21,0)" d="M0,20v330" style="stroke: rgb(235, 240, 248); stroke-opacity: 1; stroke-width: 1px;"/><path class="xgrid crisp" transform="translate(224.41,0)" d="M0,20v330" style="stroke: rgb(235, 240, 248); stroke-opacity: 1; stroke-width: 1px;"/></g><g class="y"><path class="ygrid crisp" transform="translate(0,284.41)" d="M50,0h206" style="stroke: rgb(235, 240, 248); stroke-opacity: 1; stroke-width: 1px;"/><path class="ygrid crisp" transform="translate(0,218.83)" d="M50,0h206" style="stroke: rgb(235, 240, 248); stroke-opacity: 1; stroke-width: 1px;"/><path class="ygrid crisp" transform="translate(0,153.24)" d="M50,0h206" style="stroke: rgb(235, 240, 248); stroke-opacity: 1; stroke-width: 1px;"/><path class="ygrid crisp" transform="translate(0,87.66)" d="M50,0h206" style="stroke: rgb(235, 240, 248); stroke-opacity: 1; stroke-width: 1px;"/><path class="ygrid crisp" transform="translate(0,22.07)" d="M50,0h206" style="stroke: rgb(235, 240, 248); stroke-opacity: 1; stroke-width: 1px;"/></g></g><g class="zerolinelayer"><path class="yzl zl crisp" transform="translate(0,350)" d="M50,0h206" style="stroke: rgb(235, 240, 248); stroke-opacity: 1; stroke-width: 2px;"/></g><path class="xlines-below"/><path class="ylines-below"/><g class="overlines-below"/><g class="xaxislayer-below"/><g class="yaxislayer-below"/><g class="overaxes-below"/><g class="plot" transform="translate(50,20)" clip-path="url(#clipf37f69xyplot)"><g class="scatterlayer mlayer"><g class="trace scatter trace32cbb8" style="stroke-miterlimit: 2; opacity: 1;"><g class="fills"/><g class="errorbars"/><g class="lines"><path class="js-line" d="M0,192.93L2.06,175.87L2.75,175.87L4.12,175.87L4.81,180.46L6.87,172.59L7.55,172.59L9.61,172.59L10.3,170.63L12.36,170.63L13.05,168.66L15.11,167.35L15.79,167.35L17.17,163.41L17.85,163.41L25.41,163.41L26.09,158.82L29.53,158.82L30.21,131.28L38.45,131.28L39.83,150.29L40.51,146.36L41.89,146.36L46.69,145.7L47.38,145.05L49.44,166.69L50.13,164.07L50.81,161.44L51.5,167.35L57.68,167.35L58.37,164.72L59.05,164.72L59.74,167.35L60.43,164.72L61.11,166.69L61.8,164.72L62.49,164.72L63.17,163.41L65.23,164.72L65.92,164.72L67.29,163.41L67.98,164.72L69.35,163.41L70.04,150.29L71.41,155.54L72.1,155.54L72.79,154.23L73.47,132.59L74.85,119.47L75.53,119.47L76.22,116.19L76.91,94.55L78.28,82.09L78.97,82.09L80.34,82.09L81.03,78.15L83.77,57.82L84.46,57.82L88.58,58.47L89.27,59.79L89.95,59.79L90.64,66.35L96.13,66.35L96.82,57.16L97.51,57.16L98.19,41.42L100.94,41.42L101.63,23.71L103.69,23.71" style="vector-effect: none; fill: none; stroke: rgb(138, 44, 81); stroke-opacity: 1; stroke-width: 5px; opacity: 1;"/></g><g class="points"/><g class="text"/></g><g class="trace scatter trace55d93c" style="stroke-miterlimit: 2; opacity: 1;"><g class="fills"/><g class="errorbars"/><g class="lines"><path class="js-line" d="M0,44.05L2.06,53.23L2.75,53.23L4.12,53.23L4.81,57.82L6.87,47.98L7.55,47.98L12.36,47.98L13.05,49.29L15.11,50.6L15.79,50.6L17.17,53.88L17.85,53.88L39.83,53.88L40.51,72.25L46.01,72.25L46.69,68.97L47.38,66.35L48.07,51.26L49.44,28.96L50.13,34.86L50.81,40.77L51.5,21.09L57.68,21.09L58.37,30.93L59.05,30.93L59.74,21.09L60.43,30.93L61.11,19.12L62.49,16.5L63.17,28.96L64.55,16.5L65.23,16.5L65.92,16.5L66.61,28.96L67.29,28.96L67.98,16.5L69.35,28.96L70.04,17.16L71.41,32.24L72.1,32.24L72.79,32.24L73.47,36.18L75.53,36.18L76.22,39.46L78.28,55.2L78.97,55.2L81.71,55.2L82.4,57.16L84.46,57.82L85.15,57.82L87.89,57.82L88.58,59.79L90.64,66.35L92.01,66.35L96.82,67L97.51,64.38L98.88,70.94L99.57,70.94L100.94,70.94L101.63,69.62L103.69,69.62" style="vector-effect: none; fill: none; stroke: rgb(0, 174, 239); stroke-opacity: 1; stroke-width: 5px; opacity: 1;"/></g><g class="points"/><g class="text"/></g><g class="trace scatter trace8f916d" style="stroke-miterlimit: 2; opacity: 1;"><g class="fills"/><g class="errorbars"/><g class="lines"><path class="js-line" d="M0,263.76L2.06,265.73L2.75,265.73L4.12,265.73L4.81,270.32L6.87,262.45L7.55,262.45L9.61,262.45L10.3,263.76L13.05,263.1L13.73,262.45L25.41,262.45L26.09,263.76L29.53,263.76L30.21,271.63L38.45,271.63L39.83,266.38L40.51,223.75L41.89,223.75L46.01,223.75L46.69,225.72L49.44,231.62L50.13,229.65L50.81,227.03L51.5,232.28L57.68,232.28L58.37,229.65L59.05,229.65L59.74,232.28L60.43,229.65L61.11,233.59L62.49,236.21L63.17,231.62L64.55,236.21L65.23,236.21L65.92,236.21L66.61,231.62L67.29,231.62L67.98,236.21L69.35,231.62L70.04,250.64L71.41,237.52L72.1,237.52L72.79,238.18L73.47,248.02L74.85,255.89L75.53,255.89L76.22,253.92L76.91,260.48L78.97,261.79L79.65,261.79L81.03,261.13L81.71,260.48L84.46,264.41L85.15,264.41L87.89,264.41L88.58,261.79L90.64,246.71L92.01,246.71L96.13,246.71L96.82,255.23L97.51,257.86L98.19,267.04L100.94,267.04L101.63,272.28L103.69,272.28" style="vector-effect: none; fill: none; stroke: rgb(255, 1, 170); stroke-opacity: 1; stroke-width: 5px; opacity: 1;"/></g><g class="points"/><g class="text"/></g><g class="trace scatter trace564ffb" style="stroke-miterlimit: 2; opacity: 1;"><g class="fills"/><g class="errorbars"/><g class="lines"><path class="js-line" d="M0,261.13L2.75,263.76L3.43,263.76L4.12,263.76L4.81,261.13L5.49,261.79L6.18,265.07L12.36,265.73L13.05,267.69L15.11,269.01L15.79,269.01L25.41,269.01L26.09,267.69L29.53,267.69L30.21,277.53L38.45,277.53L39.83,273.6L40.51,282.12L41.89,282.12L46.69,282.78L47.38,284.09L48.07,284.09L48.75,291.3L49.44,291.3L50.13,287.37L50.81,283.43L51.5,294.58L57.68,294.58L58.37,289.34L59.05,289.34L59.74,294.58L60.43,289.34L61.11,293.93L62.49,293.93L63.17,288.68L64.55,293.93L65.23,293.93L65.92,293.93L66.61,288.68L67.29,288.68L67.98,293.93L69.35,288.68L70.04,289.34L71.41,284.75L72.1,284.75L72.79,285.4L73.47,291.96L74.85,295.24L75.53,295.24L78.97,301.14L79.65,301.14L80.34,301.14L81.03,302.45L83.77,309.67L84.46,309.67L100.94,309.67L101.63,309.01L103.69,309.01" style="vector-effect: none; fill: none; stroke: rgb(238, 58, 67); stroke-opacity: 1; stroke-width: 5px; opacity: 1;"/></g><g class="points"/><g class="text"/></g><g class="trace scatter traceccf8a6" style="stroke-miterlimit: 2; opacity: 1;"><g class="fills"/><g class="errorbars"/><g class="lines"><path class="js-line" d="M0,278.19L2.75,279.5L3.43,279.5L4.12,279.5L4.81,270.32L6.87,290.65L7.55,290.65L13.05,289.99L13.73,289.34L29.53,288.68L30.21,291.96L38.45,291.96L39.83,290.65L40.51,293.27L41.89,293.27L46.69,293.93L47.38,294.58L49.44,293.93L50.13,296.55L50.81,299.17L51.5,294.58L57.68,294.58L58.37,296.55L59.05,296.55L59.74,294.58L61.8,298.52L62.49,298.52L63.86,298.52L64.55,298.52L69.35,299.17L70.04,301.14L73.47,301.14L74.16,302.45L76.22,303.11L76.91,303.77L78.97,306.39L79.65,306.39L80.34,306.39L81.03,307.7L83.77,312.95L84.46,312.95L100.94,312.95L101.63,319.51L103.69,319.51" style="vector-effect: none; fill: none; stroke: rgb(202, 166, 105); stroke-opacity: 1; stroke-width: 5px; opacity: 1;"/></g><g class="points"/><g class="text"/></g><g class="trace scatter traceea481a" style="stroke-miterlimit: 2; opacity: 1;"><g class="fills"/><g class="errorbars"/><g class="lines"><path class="js-line" d="M0,284.09L2.75,286.06L3.43,286.06L4.81,285.4L5.49,284.09L7.55,284.75L8.24,284.75L9.61,284.75L10.3,286.06L15.79,285.4L16.48,286.71L25.41,286.71L26.09,291.96L29.53,291.96L30.21,297.21L38.45,297.21L39.83,289.34L40.51,306.39L41.89,306.39L48.07,307.04L48.75,311.64L50.81,311.64L51.5,314.26L57.68,314.26L58.37,312.95L59.05,312.95L59.74,314.26L60.43,312.95L61.11,314.26L61.8,314.26L62.49,314.26L63.17,312.95L65.23,314.26L65.92,314.26L67.29,312.95L67.98,314.26L69.35,312.95L70.04,314.92L72.1,313.6L72.79,313.6L75.53,314.26L76.22,314.92L78.97,317.54L79.65,317.54L80.34,317.54L81.03,318.85L83.09,322.13L83.77,322.13L100.94,321.47" style="vector-effect: none; fill: none; stroke: rgb(255, 192, 203); stroke-opacity: 1; stroke-width: 5px; opacity: 1;"/></g><g class="points"/><g class="text"/></g></g></g><g class="overplot"/><path class="xlines-above crisp" d="M0,0" style="fill: none;"/><path class="ylines-above crisp" d="M0,0" style="fill: none;"/><g class="overlines-above"/><g class="xaxislayer-above"><g class="xtick"><text text-anchor="middle" x="0" y="363" transform="translate(56.87,0)" style="font-family: 'Open Sans', verdana, arial, sans-serif; font-size: 12px; fill: rgb(42, 63, 95); fill-opacity: 1; white-space: pre; opacity: 1;">1.7.23</text></g><g class="xtick"><text text-anchor="middle" x="0" y="363" style="font-family: 'Open Sans', verdana, arial, sans-serif; font-size: 12px; fill: rgb(42, 63, 95); fill-opacity: 1; white-space: pre; opacity: 1;" transform="translate(99.44,0)">1.9.23</text></g><g class="xtick"><text text-anchor="middle" x="0" y="363" style="font-family: 'Open Sans', verdana, arial, sans-serif; font-size: 12px; fill: rgb(42, 63, 95); fill-opacity: 1; white-space: pre; opacity: 1;" transform="translate(141.32999999999998,0)">1.11.23</text></g><g class="xtick"><text text-anchor="middle" x="0" y="363" style="font-family: 'Open Sans', verdana, arial, sans-serif; font-size: 12px; fill: rgb(42, 63, 95); fill-opacity: 1; white-space: pre; opacity: 1;" transform="translate(183.21,0)">1.1.24</text></g><g class="xtick"><text text-anchor="middle" x="0" y="363" style="font-family: 'Open Sans', verdana, arial, sans-serif; font-size: 12px; fill: rgb(42, 63, 95); fill-opacity: 1; white-space: pre; opacity: 1;" transform="translate(224.41,0)">1.3.24</text></g></g><g class="yaxislayer-above"><g class="ytick"><text text-anchor="end" x="49" y="4.199999999999999" transform="translate(0,350)" style="font-family: 'Open Sans', verdana, arial, sans-serif; font-size: 12px; fill: rgb(42, 63, 95); fill-opacity: 1; white-space: pre; opacity: 1;">0%</text></g><g class="ytick"><text text-anchor="end" x="49" y="4.199999999999999" style="font-family: 'Open Sans', verdana, arial, sans-serif; font-size: 12px; fill: rgb(42, 63, 95); fill-opacity: 1; white-space: pre; opacity: 1;" transform="translate(0,284.41)">10%</text></g><g class="ytick"><text text-anchor="end" x="49" y="4.199999999999999" style="font-family: 'Open Sans', verdana, arial, sans-serif; font-size: 12px; fill: rgb(42, 63, 95); fill-opacity: 1; white-space: pre; opacity: 1;" transform="translate(0,218.83)">20%</text></g><g class="ytick"><text text-anchor="end" x="49" y="4.199999999999999" style="font-family: 'Open Sans', verdana, arial, sans-serif; font-size: 12px; fill: rgb(42, 63, 95); fill-opacity: 1; white-space: pre; opacity: 1;" transform="translate(0,153.24)">30%</text></g><g class="ytick"><text text-anchor="end" x="49" y="4.199999999999999" style="font-family: 'Open Sans', verdana, arial, sans-serif; font-size: 12px; fill: rgb(42, 63, 95); fill-opacity: 1; white-space: pre; opacity: 1;" transform="translate(0,87.66)">40%</text></g><g class="ytick"><text text-anchor="end" x="49" y="4.199999999999999" style="font-family: 'Open Sans', verdana, arial, sans-serif; font-size: 12px; fill: rgb(42, 63, 95); fill-opacity: 1; white-space: pre; opacity: 1;" transform="translate(0,22.07)">50%</text></g></g><g class="overaxes-above"/></g></g><g class="polarlayer"/><g class="smithlayer"/><g class="ternarylayer"/><g class="geolayer"/><g class="funnelarealayer"/><g class="pielayer"/><g class="iciclelayer"/><g class="treemaplayer"/><g class="sunburstlayer"/><g class="glimages"/><defs id="topdefs-f37f69"><g class="clips"/><clipPath id="legendf37f69"><rect width="128" height="124" x="0" y="0"/></clipPath></defs><g class="layer-above"><g class="imagelayer"/><g class="shapelayer"/></g><g class="infolayer"><g class="legend" pointer-events="all" transform="translate(260.12,20)"><rect class="bg" shape-rendering="crispEdges" width="128" height="124" x="0" y="0" style="stroke: rgb(68, 68, 68); stroke-opacity: 1; fill: rgb(255, 255, 255); fill-opacity: 1; stroke-width: 0px;"/><g class="scrollbox" transform="" clip-path="url(#legendf37f69)"><g class="groups"><g class="traces" transform="translate(0,14.5)" style="opacity: 1;"><text class="legendtext" text-anchor="start" x="40" y="4.680000000000001" style="font-family: 'Open Sans', verdana, arial, sans-serif; font-size: 12px; fill: rgb(42, 63, 95); fill-opacity: 1; white-space: pre;">Pellegrini Peter</text><g class="layers" style="opacity: 1;"><g class="legendfill"/><g class="legendlines"><path class="js-line" d="M5,0h30" style="fill: none; stroke: rgb(138, 44, 81); stroke-opacity: 1; stroke-width: 5px;"/></g><g class="legendsymbols"><g class="legendpoints"/></g></g><rect class="legendtoggle" x="0" y="-9.5" width="122.703125" height="19" style="fill: rgb(0, 0, 0); fill-opacity: 0;"/></g><g class="traces" transform="translate(0,33.5)" style="opacity: 1;"><text class="legendtext" text-anchor="start" x="40" y="4.680000000000001" style="font-family: 'Open Sans', verdana, arial, sans-serif; font-size: 12px; fill: rgb(42, 63, 95); fill-opacity: 1; white-space: pre;">Korčok Ivan</text><g class="layers" style="opacity: 1;"><g class="legendfill"/><g class="legendlines"><path class="js-line" d="M5,0h30" style="fill: none; stroke: rgb(0, 174, 239); stroke-opacity: 1; stroke-width: 5px;"/></g><g class="legendsymbols"><g class="legendpoints"/></g></g><rect class="legendtoggle" x="0" y="-9.5" width="122.703125" height="19" style="fill: rgb(0, 0, 0); fill-opacity: 0;"/></g><g class="traces" transform="translate(0,52.5)" style="opacity: 1;"><text class="legendtext" text-anchor="start" x="40" y="4.680000000000001" style="font-family: 'Open Sans', verdana, arial, sans-serif; font-size: 12px; fill: rgb(42, 63, 95); fill-opacity: 1; white-space: pre;">Kubiš Ján</text><g class="layers" style="opacity: 1;"><g class="legendfill"/><g class="legendlines"><path class="js-line" d="M5,0h30" style="fill: none; stroke: rgb(255, 1, 170); stroke-opacity: 1; stroke-width: 5px;"/></g><g class="legendsymbols"><g class="legendpoints"/></g></g><rect class="legendtoggle" x="0" y="-9.5" width="122.703125" height="19" style="fill: rgb(0, 0, 0); fill-opacity: 0;"/></g><g class="traces" transform="translate(0,71.5)" style="opacity: 1;"><text class="legendtext" text-anchor="start" x="40" y="4.680000000000001" style="font-family: 'Open Sans', verdana, arial, sans-serif; font-size: 12px; fill: rgb(42, 63, 95); fill-opacity: 1; white-space: pre;">Fico Robert</text><g class="layers" style="opacity: 1;"><g class="legendfill"/><g class="legendlines"><path class="js-line" d="M5,0h30" style="fill: none; stroke: rgb(238, 58, 67); stroke-opacity: 1; stroke-width: 5px;"/></g><g class="legendsymbols"><g class="legendpoints"/></g></g><rect class="legendtoggle" x="0" y="-9.5" width="122.703125" height="19" style="fill: rgb(0, 0, 0); fill-opacity: 0;"/></g><g class="traces" transform="translate(0,90.5)" style="opacity: 1;"><text class="legendtext" text-anchor="start" x="40" y="4.680000000000001" style="font-family: 'Open Sans', verdana, arial, sans-serif; font-size: 12px; fill: rgb(42, 63, 95); fill-opacity: 1; white-space: pre;">Mistrík Robert</text><g class="layers" style="opacity: 1;"><g class="legendfill"/><g class="legendlines"><path class="js-line" d="M5,0h30" style="fill: none; stroke: rgb(202, 166, 105); stroke-opacity: 1; stroke-width: 5px;"/></g><g class="legendsymbols"><g class="legendpoints"/></g></g><rect class="legendtoggle" x="0" y="-9.5" width="122.703125" height="19" style="fill: rgb(0, 0, 0); fill-opacity: 0;"/></g><g class="traces" transform="translate(0,109.5)" style="opacity: 1;"><text class="legendtext" text-anchor="start" x="40" y="4.680000000000001" style="font-family: 'Open Sans', verdana, arial, sans-serif; font-size: 12px; fill: rgb(42, 63, 95); fill-opacity: 1; white-space: pre;">Lajčák Miroslav</text><g class="layers" style="opacity: 1;"><g class="legendfill"/><g class="legendlines"><path class="js-line" d="M5,0h30" style="fill: none; stroke: rgb(255, 192, 203); stroke-opacity: 1; stroke-width: 5px;"/></g><g class="legendsymbols"><g class="legendpoints"/></g></g><rect class="legendtoggle" x="0" y="-9.5" width="122.703125" height="19" style="fill: rgb(0, 0, 0); fill-opacity: 0;"/></g></g></g><rect class="scrollbar" rx="20" ry="3" width="0" height="0" x="0" y="0" style="fill: rgb(128, 139, 164); fill-opacity: 1;"/></g><g class="g-gtitle"/><g class="g-xtitle"/><g class="g-ytitle"/></g></svg>