<svg class="main-svg" xmlns="http://www.w3.org/2000/svg" xmlns:xlink="http://www.w3.org/1999/xlink" width="300" height="135" style="" viewBox="0 0 300 135"><rect x="0" y="0" width="300" height="135" style="fill: rgb(255, 255, 255); fill-opacity: 1;"/><defs id="defs-3288a2"><g class="clips"><clipPath id="clip3288a2xyplot" class="plotclip"><rect width="280" height="75"/></clipPath><clipPath class="axesclip" id="clip3288a2x"><rect x="10" y="0" width="280" height="135"/></clipPath><clipPath class="axesclip" id="clip3288a2y"><rect x="0" y="50" width="300" height="75"/></clipPath><clipPath class="axesclip" id="clip3288a2xy"><rect x="10" y="50" width="280" height="75"/></clipPath></g><g class="gradients"/><g class="patterns"/></defs><g class="bglayer"/><g class="layer-below"><g class="imagelayer"/><g class="shapelayer"/></g><g class="cartesianlayer"><g class="subplot xy"><g class="layer-subplot"><g class="shapelayer"/><g class="imagelayer"/></g><g class="minor-gridlayer"><g class="x"/><g class="y"/></g><g class="gridlayer"><g class="x"><path class="xgrid crisp" transform="translate(25.14,0)" d="M0,50v75" style="stroke: rgb(235, 240, 248); stroke-opacity: 1; stroke-width: 1px;"/><path class="xgrid crisp" transform="translate(118.97,0)" d="M0,50v75" style="stroke: rgb(235, 240, 248); stroke-opacity: 1; stroke-width: 1px;"/><path class="xgrid crisp" transform="translate(211.3,0)" d="M0,50v75" style="stroke: rgb(235, 240, 248); stroke-opacity: 1; stroke-width: 1px;"/></g><g class="y"><path class="ygrid crisp" transform="translate(0,101.28999999999999)" d="M10,0h280" style="stroke: rgb(235, 240, 248); stroke-opacity: 1; stroke-width: 1px;"/><path class="ygrid crisp" transform="translate(0,77.58)" d="M10,0h280" style="stroke: rgb(235, 240, 248); stroke-opacity: 1; stroke-width: 1px;"/><path class="ygrid crisp" transform="translate(0,53.87)" d="M10,0h280" style="stroke: rgb(235, 240, 248); stroke-opacity: 1; stroke-width: 1px;"/></g></g><g class="zerolinelayer"><path class="yzl zl crisp" transform="translate(0,125)" d="M10,0h280" style="stroke: rgb(235, 240, 248); stroke-opacity: 1; stroke-width: 2px;"/></g><path class="xlines-below"/><path class="ylines-below"/><g class="overlines-below"/><g class="xaxislayer-below"/><g class="yaxislayer-below"/><g class="overaxes-below"/><g class="plot" transform="translate(10,50)" clip-path="url(#clip3288a2xyplot)"><g class="scatterlayer mlayer"><g class="trace scatter trace223da1" style="stroke-miterlimit: 2; opacity: 1;"><g class="fills"/><g class="errorbars"/><g class="lines"><path class="js-line" d="M0,50.22L4.54,47.14L6.05,47.14L12.11,47.38L13.62,46.55L34.81,45.6L36.32,44.89L65.08,44.06L66.59,39.08L84.76,39.08L87.78,42.52L89.3,41.81L92.32,41.81L104.43,41.57L105.95,44.18L108.97,45.48L110.49,45.01L112,44.53L113.51,45.6L152.86,44.89L154.38,42.52L157.41,43.47L158.92,43.47L160.43,43.23L161.95,39.32L163.46,36.94L164.97,36.94L168,36.35L169.51,32.44L172.54,30.19L174.05,30.19L178.59,29.48L180.11,28.41L184.65,25.8L186.16,25.8L198.27,26.16L199.78,27.34L211.89,27.34L213.41,25.68L214.92,25.68L216.43,22.84L222.49,22.84L224,19.64L233.08,19.64L234.59,17.74L237.62,17.03L239.14,17.03L245.19,14.66L246.7,10.63L249.73,10.63L251.24,8.61L252.76,3.75L254.27,3.75L266.38,3.75L267.89,5.53L270.92,6.36L272.43,6.36L273.95,6.83L275.46,8.73L278.49,8.97L280,8.14" style="vector-effect: none; fill: none; stroke: rgb(138, 44, 81); stroke-opacity: 1; stroke-width: 5px; opacity: 1;"/></g><g class="points"/><g class="text"/></g><g class="trace scatter trace0fa6dc" style="stroke-miterlimit: 2; opacity: 1;"><g class="fills"/><g class="errorbars"/><g class="lines"><path class="js-line" d="M0,23.31L4.54,24.97L6.05,24.97L12.11,24.73L13.62,24.02L87.78,25.09L89.3,28.41L104.43,27.34L105.95,24.62L107.46,20.58L108.97,20.58L112,22.72L113.51,19.16L127.14,19.16L128.65,20.94L130.16,20.94L131.68,19.16L133.19,20.94L134.7,18.81L137.73,18.33L139.24,20.58L140.76,18.33L142.27,18.33L145.3,18.33L146.81,20.58L148.32,20.58L149.84,18.33L151.35,20.58L152.86,20.58L154.38,18.45L155.89,21.18L166.49,21.89L168,22.48L171.03,25.21L172.54,25.33L195.24,26.16L196.76,26.87L214.92,26.99L216.43,28.17L233.08,27.93L234.59,29.83L245.19,32.32L246.7,30.07L251.24,31.25L252.76,32.8L266.38,32.8L267.89,31.14L270.92,30.19L272.43,30.19L273.95,29.71L275.46,26.99L278.49,26.39L280,26.75" style="vector-effect: none; fill: none; stroke: rgb(0, 174, 239); stroke-opacity: 1; stroke-width: 5px; opacity: 1;"/></g><g class="points"/><g class="text"/></g><g class="trace scatter trace366e9e" style="stroke-miterlimit: 2; opacity: 1;"><g class="fills"/><g class="errorbars"/><g class="lines"><path class="js-line" d="M0,63.03L10.59,64.21L12.11,63.5L15.14,62.79L16.65,62.79L65.08,63.03L66.59,64.45L87.78,63.5L89.3,55.79L105.95,56.51L107.46,57.22L134.7,57.57L136.22,58.05L152.86,57.22L154.38,60.66L155.89,58.28L157.41,58.28L160.43,58.4L161.95,60.18L164.97,61.6L166.49,61.6L168,61.25L169.51,62.43L177.08,62.67L178.59,62.55L186.16,63.14L187.68,63.14L195.24,62.67L196.76,61.6L198.27,61.6L199.78,59.94L211.89,59.94L213.41,61.49L219.46,63.62L220.97,63.62L242.16,64.8L243.68,64.92L245.19,64.92L246.7,68.6L266.38,69.78L267.89,69.9L276.97,70.85L278.49,71.09L280,71.56" style="vector-effect: none; fill: none; stroke: rgb(255, 1, 170); stroke-opacity: 1; stroke-width: 5px; opacity: 1;"/></g><g class="points"/><g class="text"/></g><g class="trace scatter tracee722c4" style="stroke-miterlimit: 2; opacity: 1;"><g class="fills"/><g class="errorbars"/><g class="lines"><path class="js-line" d="M0,65.63L9.08,65.87L10.59,64.21L13.62,67.89L15.14,67.89L108.97,68.48L110.49,68.95L113.51,68.6L115.03,68.6L161.95,69.78L163.46,70.02L178.59,70.97L180.11,71.32L190.7,71.92L192.22,71.92L240.65,73.1L242.16,73.22L251.24,73.81" style="vector-effect: none; fill: none; stroke: rgb(202, 166, 105); stroke-opacity: 1; stroke-width: 5px; opacity: 1;"/></g><g class="points"/><g class="text"/></g><g class="trace scatter trace401292" style="stroke-miterlimit: 2; opacity: 1;"><g class="fills"/><g class="errorbars"/><g class="lines"><path class="js-line" d="M0,62.55L9.08,63.03L10.59,62.55L37.84,63.97L39.35,63.97L65.08,63.74L66.59,65.52L87.78,64.8L89.3,66.35L105.95,66.7L107.46,68.01L110.49,67.29L112,66.58L115.03,68.6L116.54,68.6L154.38,67.65L155.89,66.82L160.43,66.94L161.95,68.12L166.49,68.72L168,68.95L175.57,69.78L177.08,69.78L190.7,71.32L192.22,71.32L245.19,71.32L246.7,73.58L251.24,73.81" style="vector-effect: none; fill: none; stroke: rgb(238, 58, 67); stroke-opacity: 1; stroke-width: 5px; opacity: 1;"/></g><g class="points"/><g class="text"/></g></g></g><g class="overplot"/><path class="xlines-above crisp" d="M0,0" style="fill: none;"/><path class="ylines-above crisp" d="M0,0" style="fill: none;"/><g class="overlines-above"/><g class="xaxislayer-above"/><g class="yaxislayer-above"/><g class="overaxes-above"/></g></g><g class="polarlayer"/><g class="smithlayer"/><g class="ternarylayer"/><g class="geolayer"/><g class="funnelarealayer"/><g class="pielayer"/><g class="iciclelayer"/><g class="treemaplayer"/><g class="sunburstlayer"/><g class="glimages"/><defs id="topdefs-3288a2"><g class="clips"/></defs><g class="layer-above"><g class="imagelayer"/><g class="shapelayer"/></g><g class="infolayer"><g class="g-gtitle"><text class="gtitle" x="15" y="25" text-anchor="start" dy="0em" style="font-family: Ubuntu, verdana, arial, sans-serif; font-size: 16px; fill: rgb(233, 84, 32); opacity: 1; font-weight: normal; white-space: pre;">Prezident/ka 2024</text></g><g class="g-xtitle"/><g class="g-ytitle"/></g></svg>