<svg class="main-svg" xmlns="http://www.w3.org/2000/svg" xmlns:xlink="http://www.w3.org/1999/xlink" width="300" height="135" style="" viewBox="0 0 300 135"><rect x="0" y="0" width="300" height="135" style="fill: rgb(255, 255, 255); fill-opacity: 1;"/><defs id="defs-3f33a6"><g class="clips"><clipPath id="clip3f33a6xyplot" class="plotclip"><rect width="280" height="75"/></clipPath><clipPath class="axesclip" id="clip3f33a6x"><rect x="10" y="0" width="280" height="135"/></clipPath><clipPath class="axesclip" id="clip3f33a6y"><rect x="0" y="50" width="300" height="75"/></clipPath><clipPath class="axesclip" id="clip3f33a6xy"><rect x="10" y="50" width="280" height="75"/></clipPath></g><g class="gradients"/><g class="patterns"/></defs><g class="bglayer"/><g class="layer-below"><g class="imagelayer"/><g class="shapelayer"/></g><g class="cartesianlayer"><g class="subplot xy"><g class="layer-subplot"><g class="shapelayer"/><g class="imagelayer"/></g><g class="minor-gridlayer"><g class="x"/><g class="y"/></g><g class="gridlayer"><g class="x"><path class="xgrid crisp" transform="translate(22.96,0)" d="M0,50v75" style="stroke: rgb(235, 240, 248); stroke-opacity: 1; stroke-width: 1px;"/><path class="xgrid crisp" transform="translate(103.33,0)" d="M0,50v75" style="stroke: rgb(235, 240, 248); stroke-opacity: 1; stroke-width: 1px;"/><path class="xgrid crisp" transform="translate(182.41,0)" d="M0,50v75" style="stroke: rgb(235, 240, 248); stroke-opacity: 1; stroke-width: 1px;"/><path class="xgrid crisp" transform="translate(261.48,0)" d="M0,50v75" style="stroke: rgb(235, 240, 248); stroke-opacity: 1; stroke-width: 1px;"/></g><g class="y"><path class="ygrid crisp" transform="translate(0,102.77000000000001)" d="M10,0h280" style="stroke: rgb(235, 240, 248); stroke-opacity: 1; stroke-width: 1px;"/><path class="ygrid crisp" transform="translate(0,80.53999999999999)" d="M10,0h280" style="stroke: rgb(235, 240, 248); stroke-opacity: 1; stroke-width: 1px;"/><path class="ygrid crisp" transform="translate(0,58.31)" d="M10,0h280" style="stroke: rgb(235, 240, 248); stroke-opacity: 1; stroke-width: 1px;"/></g></g><g class="zerolinelayer"><path class="yzl zl crisp" transform="translate(0,125)" d="M10,0h280" style="stroke: rgb(235, 240, 248); stroke-opacity: 1; stroke-width: 2px;"/></g><path class="xlines-below"/><path class="ylines-below"/><g class="overlines-below"/><g class="xaxislayer-below"/><g class="yaxislayer-below"/><g class="overaxes-below"/><g class="plot" transform="translate(10,50)" clip-path="url(#clip3f33a6xyplot)"><g class="scatterlayer mlayer"><g class="trace scatter trace711550" style="stroke-miterlimit: 2; opacity: 1;"><g class="fills"/><g class="errorbars"/><g class="lines"><path class="js-line" d="M0,51.77L3.89,48.88L5.19,48.88L10.37,49.1L11.67,48.32L29.81,47.43L31.11,46.77L55.74,45.99L57.04,41.32L72.59,41.32L75.19,44.54L79.07,43.88L80.37,43.88L89.44,43.65L90.74,46.1L93.33,47.32L94.63,46.88L95.93,46.43L97.22,47.43L130.93,46.77L132.22,44.54L134.81,45.43L136.11,45.43L137.41,45.21L138.7,41.54L141.3,39.32L142.59,39.32L143.89,38.76L145.19,35.1L147.78,32.98L149.07,32.98L152.96,32.32L154.26,31.32L158.15,28.87L159.44,28.87L169.81,29.2L171.11,30.32L181.48,30.32L182.78,28.76L184.07,28.76L185.37,26.09L190.56,26.09L191.85,23.09L199.63,23.09L200.93,21.31L208.7,18.42L210,18.42L212.59,14.64L213.89,14.64L215.19,12.75L216.48,8.2L228.15,8.2L229.44,9.86L232.04,10.64L233.33,10.64L235.93,12.86L237.22,13.53L243.7,12.31L245,12.31L252.78,12.42L254.07,8.75L256.67,5.08L257.96,4.97L261.85,5.86L263.15,3.75L267.04,4.75L268.33,5.64L270.93,6.75L272.22,10.53L273.52,11.86L274.81,10.53L277.41,10.64L278.7,8.86L280,8.53" style="vector-effect: none; fill: none; stroke: rgb(138, 44, 81); stroke-opacity: 1; stroke-width: 5px; opacity: 1;"/></g><g class="points"/><g class="text"/></g><g class="trace scatter tracea8e835" style="stroke-miterlimit: 2; opacity: 1;"><g class="fills"/><g class="errorbars"/><g class="lines"><path class="js-line" d="M0,26.54L5.19,28.09L6.48,28.09L10.37,27.87L11.67,27.2L75.19,28.2L76.48,31.32L89.44,30.32L90.74,27.76L93.33,23.98L94.63,24.98L95.93,25.98L97.22,22.65L108.89,22.65L110.19,24.31L111.48,24.31L112.78,22.65L114.07,24.31L115.37,22.31L117.96,21.87L119.26,23.98L121.85,21.87L123.15,21.87L124.44,21.87L125.74,23.98L127.04,23.98L128.33,21.87L130.93,23.98L132.22,21.98L134.81,24.54L136.11,24.54L143.89,25.76L145.19,27.65L149.07,28.43L150.37,28.43L167.22,29.2L168.52,29.87L199.63,30.87L200.93,32.65L210,34.98L211.3,32.87L215.19,33.98L216.48,35.43L228.15,35.43L229.44,33.87L232.04,32.98L233.33,32.98L234.63,32.54L235.93,29.98L238.52,29.43L239.81,29.76L252.78,29.2L254.07,32.09L256.67,35.43L257.96,35.54L260.56,33.76L261.85,32.98L264.44,35.1L265.74,34.54L270.93,32.09L272.22,28.32L273.52,26.98L274.81,28.32L277.41,28.2L278.7,29.98L280,30.32" style="vector-effect: none; fill: none; stroke: rgb(0, 174, 239); stroke-opacity: 1; stroke-width: 5px; opacity: 1;"/></g><g class="points"/><g class="text"/></g><g class="trace scatter trace27e912" style="stroke-miterlimit: 2; opacity: 1;"><g class="fills"/><g class="errorbars"/><g class="lines"><path class="js-line" d="M0,63.77L9.07,64.88L10.37,64.22L14.26,63.55L15.56,63.55L55.74,63.77L57.04,65.11L75.19,64.22L76.48,56.99L90.74,57.66L92.04,58.33L115.37,58.66L116.67,59.1L130.93,58.33L132.22,61.55L134.81,59.33L136.11,59.33L137.41,59.44L138.7,61.11L141.3,62.44L142.59,62.44L143.89,62.11L145.19,63.22L152.96,63.33L154.26,63.22L163.33,63.88L164.63,63.88L167.22,63.44L168.52,62.44L169.81,62.44L171.11,60.88L181.48,60.88L182.78,62.33L187.96,64.33L189.26,64.33L210,65.55L211.3,69L234.63,70.11L235.93,71.11L252.78,72.22L254.07,73L260.56,73.55" style="vector-effect: none; fill: none; stroke: rgb(255, 1, 170); stroke-opacity: 1; stroke-width: 5px; opacity: 1;"/></g><g class="points"/><g class="text"/></g><g class="trace scatter traced6f1f3" style="stroke-miterlimit: 2; opacity: 1;"><g class="fills"/><g class="errorbars"/><g class="lines"><path class="js-line" d="M0,66.22L7.78,66.44L9.07,64.88L11.67,68.33L12.96,68.33L93.33,68.89L94.63,69.33L97.22,69L98.52,69L138.7,70.11L140,70.33L154.26,71.55L155.56,71.78L160.74,72.11L162.04,72.11L210,73.33L211.3,73.67L215.19,73.89" style="vector-effect: none; fill: none; stroke: rgb(202, 166, 105); stroke-opacity: 1; stroke-width: 5px; opacity: 1;"/></g><g class="points"/><g class="text"/></g><g class="trace scatter trace94c156" style="stroke-miterlimit: 2; opacity: 1;"><g class="fills"/><g class="errorbars"/><g class="lines"><path class="js-line" d="M0,63.33L7.78,63.77L9.07,63.33L33.7,64.66L35,64.66L55.74,64.44L57.04,66.11L75.19,65.44L76.48,66.89L90.74,67.22L92.04,68.44L94.63,67.77L95.93,67.11L98.52,69L99.81,69L132.22,68.11L133.52,67.33L138.7,68.55L140,69.11L152.96,70.33L154.26,70.78L163.33,71.55L164.63,71.55L210,71.55L211.3,73.67L215.19,73.89" style="vector-effect: none; fill: none; stroke: rgb(238, 58, 67); stroke-opacity: 1; stroke-width: 5px; opacity: 1;"/></g><g class="points"/><g class="text"/></g></g></g><g class="overplot"/><path class="xlines-above crisp" d="M0,0" style="fill: none;"/><path class="ylines-above crisp" d="M0,0" style="fill: none;"/><g class="overlines-above"/><g class="xaxislayer-above"/><g class="yaxislayer-above"/><g class="overaxes-above"/></g></g><g class="polarlayer"/><g class="smithlayer"/><g class="ternarylayer"/><g class="geolayer"/><g class="funnelarealayer"/><g class="pielayer"/><g class="iciclelayer"/><g class="treemaplayer"/><g class="sunburstlayer"/><g class="glimages"/><defs id="topdefs-3f33a6"><g class="clips"/></defs><g class="layer-above"><g class="imagelayer"/><g class="shapelayer"/></g><g class="infolayer"><g class="g-gtitle"><text class="gtitle" x="15" y="25" text-anchor="start" dy="0em" style="font-family: Ubuntu, verdana, arial, sans-serif; font-size: 16px; fill: rgb(233, 84, 32); opacity: 1; font-weight: normal; white-space: pre;">Prezident/ka 2024</text></g><g class="g-xtitle"/><g class="g-ytitle"/></g></svg>