<svg class="main-svg" xmlns="http://www.w3.org/2000/svg" xmlns:xlink="http://www.w3.org/1999/xlink" width="300" height="135" style="" viewBox="0 0 300 135"><rect x="0" y="0" width="300" height="135" style="fill: rgb(255, 255, 255); fill-opacity: 1;"/><defs id="defs-9e748d"><g class="clips"><clipPath id="clip9e748dxyplot" class="plotclip"><rect width="280" height="75"/></clipPath><clipPath class="axesclip" id="clip9e748dx"><rect x="10" y="0" width="280" height="135"/></clipPath><clipPath class="axesclip" id="clip9e748dy"><rect x="0" y="50" width="300" height="75"/></clipPath><clipPath class="axesclip" id="clip9e748dxy"><rect x="10" y="50" width="280" height="75"/></clipPath></g><g class="gradients"/><g class="patterns"/></defs><g class="bglayer"/><g class="layer-below"><g class="imagelayer"/><g class="shapelayer"/></g><g class="cartesianlayer"><g class="subplot xy"><g class="layer-subplot"><g class="shapelayer"/><g class="imagelayer"/></g><g class="minor-gridlayer"><g class="x"/><g class="y"/></g><g class="gridlayer"><g class="x"><path class="xgrid crisp" transform="translate(20,0)" d="M0,50v75" style="stroke: rgb(235, 240, 248); stroke-opacity: 1; stroke-width: 1px;"/><path class="xgrid crisp" transform="translate(82,0)" d="M0,50v75" style="stroke: rgb(235, 240, 248); stroke-opacity: 1; stroke-width: 1px;"/><path class="xgrid crisp" transform="translate(143,0)" d="M0,50v75" style="stroke: rgb(235, 240, 248); stroke-opacity: 1; stroke-width: 1px;"/><path class="xgrid crisp" transform="translate(204,0)" d="M0,50v75" style="stroke: rgb(235, 240, 248); stroke-opacity: 1; stroke-width: 1px;"/><path class="xgrid crisp" transform="translate(264,0)" d="M0,50v75" style="stroke: rgb(235, 240, 248); stroke-opacity: 1; stroke-width: 1px;"/></g><g class="y"><path class="ygrid crisp" transform="translate(0,105.03999999999999)" d="M10,0h280" style="stroke: rgb(235, 240, 248); stroke-opacity: 1; stroke-width: 1px;"/><path class="ygrid crisp" transform="translate(0,85.08)" d="M10,0h280" style="stroke: rgb(235, 240, 248); stroke-opacity: 1; stroke-width: 1px;"/><path class="ygrid crisp" transform="translate(0,65.13)" d="M10,0h280" style="stroke: rgb(235, 240, 248); stroke-opacity: 1; stroke-width: 1px;"/></g></g><g class="zerolinelayer"><path class="yzl zl crisp" transform="translate(0,125)" d="M10,0h280" style="stroke: rgb(235, 240, 248); stroke-opacity: 1; stroke-width: 2px;"/></g><path class="xlines-below"/><path class="ylines-below"/><g class="overlines-below"/><g class="xaxislayer-below"/><g class="yaxislayer-below"/><g class="overaxes-below"/><g class="plot" transform="translate(10,50)" clip-path="url(#clip9e748dxyplot)"><g class="scatterlayer mlayer"><g class="trace scatter trace26ebf3" style="stroke-miterlimit: 2; opacity: 1;"><g class="fills"/><g class="errorbars"/><g class="lines"><path class="js-line" d="M0,31.49L4,32.89L5,32.89L8,32.69L9,32.09L58,32.99L59,35.78L69,34.88L70,32.59L72,29.2L73,30.09L74,30.99L75,28L84,28L85,29.5L86,29.5L87,28L88,29.5L89,27.7L91,27.3L92,29.2L94,27.3L95,27.3L96,27.3L97,29.2L98,29.2L99,27.3L101,29.2L102,27.4L104,29.7L105,29.7L111,30.79L112,32.49L115,33.19L116,33.19L129,33.89L130,34.49L154,35.38L155,36.98L162,39.08L163,37.18L166,38.18L167,39.47L176,39.47L177,38.08L180,37.28L181,36.88L183,33.89L184,34.09L189,34.39L190,34.39L195,33.89L196,36.48L199,39.57L200,39.28L202,37.28L203,39.18L206,38.28L207,37.48L209,36.48L210,33.09L211,31.89L212,33.09L214,32.99L215,34.59L217,34.49L218,34.39L220,34.78L221,35.58L224,38.38L225,38.38L228,36.58L229,37.38L231,36.78L232,34.78L234,29.2L235,29.4L238,28.4L239,28.1L241,29.4L242,28.3L244,27.6L245,29L248,35.08L249,35.18L251,37.28L252,37.38L254,37.18L255,35.58L260,36.28L261,36.88L264,37.28L265,38.28L267,39.28L268,41.97L272,44.07L273,44.66L275,46.46L276,43.77L278,24.01L279,24.31L280,23.81" style="vector-effect: none; fill: none; stroke: rgb(0, 174, 239); stroke-opacity: 1; stroke-width: 5px; opacity: 1;"/></g><g class="points"/><g class="text"/></g><g class="trace scatter traceb5de6a" style="stroke-miterlimit: 2; opacity: 1;"><g class="fills"/><g class="errorbars"/><g class="lines"><path class="js-line" d="M0,54.14L3,51.55L4,51.55L14,51.05L15,50.75L37,49.65L38,48.95L43,48.95L44,44.76L56,44.76L58,47.66L61,47.06L62,47.06L69,46.86L70,49.05L72,50.15L73,49.75L75,50.25L76,50.25L101,49.65L102,47.66L105,48.46L106,48.26L108,42.97L109,42.97L111,42.47L112,39.18L114,37.28L115,37.28L118,36.68L119,35.78L123,33.59L124,33.59L131,33.89L132,34.88L140,34.88L141,33.49L142,33.49L143,31.09L147,31.09L148,28.4L154,28.4L155,26.8L161,24.21L162,24.21L164,20.81L165,20.81L168,15.03L169,15.03L176,15.03L177,16.52L180,17.22L181,17.62L183,19.82L184,19.42L187,18.72L188,18.72L195,18.82L196,15.53L198,12.23L199,12.13L202,12.93L203,11.03L206,11.93L207,12.73L209,13.73L210,17.12L211,18.32L212,17.12L214,17.22L215,15.63L217,15.72L218,15.82L220,15.43L221,14.63L224,11.83L225,11.83L228,13.63L229,12.83L231,13.43L232,15.43L234,21.01L235,20.81L238,21.81L239,22.11L241,20.81L242,21.91L244,22.61L245,21.21L248,15.13L249,15.03L251,12.93L252,12.83L254,13.03L255,14.63L260,13.93L261,13.33L264,12.93L265,11.93L267,10.93L268,8.24L272,6.14L273,5.55L275,3.75L276,6.44L278,26.2L279,25.9L280,26.4" style="vector-effect: none; fill: none; stroke: rgb(138, 44, 81); stroke-opacity: 1; stroke-width: 5px; opacity: 1;"/></g><g class="points"/><g class="text"/></g><g class="trace scatter tracecd1153" style="stroke-miterlimit: 2; opacity: 1;"><g class="fills"/><g class="errorbars"/><g class="lines"><path class="js-line" d="M0,64.52L6,64.92L7,64.52L27,65.72L28,65.72L43,65.52L44,67.02L58,66.42L59,67.72L70,68.01L71,69.11L74,67.91L75,69.61L102,68.81L103,68.11L107,69.21L108,69.71L118,70.81L119,71.21L127,71.91L128,71.91L162,71.91L163,73.8L166,74" style="vector-effect: none; fill: none; stroke: rgb(238, 58, 67); stroke-opacity: 1; stroke-width: 5px; opacity: 1;"/></g><g class="points"/><g class="text"/></g><g class="trace scatter tracecfc320" style="stroke-miterlimit: 2; opacity: 1;"><g class="fills"/><g class="errorbars"/><g class="lines"><path class="js-line" d="M0,67.12L6,67.32L7,65.92L10,69.01L11,69.01L73,69.91L74,70.31L77,69.61L78,69.61L110,70.81L111,70.91L134,72.51L135,72.51L162,73.5L163,73.8L166,74" style="vector-effect: none; fill: none; stroke: rgb(202, 166, 105); stroke-opacity: 1; stroke-width: 5px; opacity: 1;"/></g><g class="points"/><g class="text"/></g><g class="trace scatter traceae55aa" style="stroke-miterlimit: 2; opacity: 1;"><g class="fills"/><g class="errorbars"/><g class="lines"><path class="js-line" d="M0,64.92L8,65.32L9,64.72L43,64.92L44,66.12L58,65.32L59,58.83L74,59.33L75,60.13L101,60.03L102,62.93L104,60.93L105,60.93L106,61.03L107,62.53L109,63.72L110,63.72L112,64.42L113,64.62L129,64.62L130,63.72L131,63.72L132,62.33L140,62.33L141,63.62L146,65.42L147,65.42L150,66.22L151,66.22L162,66.52L163,69.61L181,70.61L182,71.51L195,72.51L196,73.2L201,73.7" style="vector-effect: none; fill: none; stroke: rgb(255, 1, 170); stroke-opacity: 1; stroke-width: 5px; opacity: 1;"/></g><g class="points"/><g class="text"/></g></g></g><g class="overplot"/><path class="xlines-above crisp" d="M0,0" style="fill: none;"/><path class="ylines-above crisp" d="M0,0" style="fill: none;"/><g class="overlines-above"/><g class="xaxislayer-above"/><g class="yaxislayer-above"/><g class="overaxes-above"/></g></g><g class="polarlayer"/><g class="smithlayer"/><g class="ternarylayer"/><g class="geolayer"/><g class="funnelarealayer"/><g class="pielayer"/><g class="iciclelayer"/><g class="treemaplayer"/><g class="sunburstlayer"/><g class="glimages"/><defs id="topdefs-9e748d"><g class="clips"/></defs><g class="layer-above"><g class="imagelayer"/><g class="shapelayer"/></g><g class="infolayer"><g class="g-gtitle"><text class="gtitle" x="15" y="25" text-anchor="start" dy="0em" style="font-family: Ubuntu, verdana, arial, sans-serif; font-size: 16px; fill: rgb(233, 84, 32); opacity: 1; font-weight: normal; white-space: pre;">Prezident/ka 2024</text></g><g class="g-xtitle"/><g class="g-ytitle"/></g></svg>