<svg class="main-svg" xmlns="http://www.w3.org/2000/svg" xmlns:xlink="http://www.w3.org/1999/xlink" width="300" height="135" style="" viewBox="0 0 300 135"><rect x="0" y="0" width="300" height="135" style="fill: rgb(255, 255, 255); fill-opacity: 1;"/><defs id="defs-65f937"><g class="clips"><clipPath id="clip65f937xyplot" class="plotclip"><rect width="280" height="75"/></clipPath><clipPath class="axesclip" id="clip65f937x"><rect x="10" y="0" width="280" height="135"/></clipPath><clipPath class="axesclip" id="clip65f937y"><rect x="0" y="50" width="300" height="75"/></clipPath><clipPath class="axesclip" id="clip65f937xy"><rect x="10" y="50" width="280" height="75"/></clipPath></g><g class="gradients"/><g class="patterns"/></defs><g class="bglayer"/><g class="layer-below"><g class="imagelayer"/><g class="shapelayer"/></g><g class="cartesianlayer"><g class="subplot xy"><g class="layer-subplot"><g class="shapelayer"/><g class="imagelayer"/></g><g class="minor-gridlayer"><g class="x"/><g class="y"/></g><g class="gridlayer"><g class="x"><path class="xgrid crisp" transform="translate(20.04,0)" d="M0,50v75" style="stroke: rgb(235, 240, 248); stroke-opacity: 1; stroke-width: 1px;"/><path class="xgrid crisp" transform="translate(82.26,0)" d="M0,50v75" style="stroke: rgb(235, 240, 248); stroke-opacity: 1; stroke-width: 1px;"/><path class="xgrid crisp" transform="translate(143.48,0)" d="M0,50v75" style="stroke: rgb(235, 240, 248); stroke-opacity: 1; stroke-width: 1px;"/><path class="xgrid crisp" transform="translate(204.7,0)" d="M0,50v75" style="stroke: rgb(235, 240, 248); stroke-opacity: 1; stroke-width: 1px;"/><path class="xgrid crisp" transform="translate(264.90999999999997,0)" d="M0,50v75" style="stroke: rgb(235, 240, 248); stroke-opacity: 1; stroke-width: 1px;"/></g><g class="y"><path class="ygrid crisp" transform="translate(0,95.19)" d="M10,0h280" style="stroke: rgb(235, 240, 248); stroke-opacity: 1; stroke-width: 1px;"/><path class="ygrid crisp" transform="translate(0,65.38)" d="M10,0h280" style="stroke: rgb(235, 240, 248); stroke-opacity: 1; stroke-width: 1px;"/></g></g><g class="zerolinelayer"><path class="yzl zl crisp" transform="translate(0,125)" d="M10,0h280" style="stroke: rgb(235, 240, 248); stroke-opacity: 1; stroke-width: 2px;"/></g><path class="xlines-below"/><path class="ylines-below"/><g class="overlines-below"/><g class="xaxislayer-below"/><g class="yaxislayer-below"/><g class="overaxes-below"/><g class="plot" transform="translate(10,50)" clip-path="url(#clip65f937xyplot)"><g class="scatterlayer mlayer"><g class="trace scatter trace766a3e" style="stroke-miterlimit: 2; opacity: 1;"><g class="fills"/><g class="errorbars"/><g class="lines"><path class="js-line" d="M279,38.48L280,20.44" style="vector-effect: none; fill: none; stroke: rgb(187, 187, 187); stroke-opacity: 1; stroke-width: 5px; opacity: 1;"/></g><g class="points"/><g class="text"/></g><g class="trace scatter trace62d9c4" style="stroke-miterlimit: 2; opacity: 1;"><g class="fills"/><g class="errorbars"/><g class="lines"><path class="js-line" d="M0,42.95L5.02,44L6.02,44" style="vector-effect: none; fill: none; stroke: rgb(187, 187, 187); stroke-opacity: 1; stroke-width: 5px; opacity: 1;"/><path class="js-line" d="M9.03,43.4L37.13,44L38.14,12.25L56.2,12.4L58.21,44.14L59.21,16.42L61.22,16.42L68.24,15.67L69.25,15.08L72.26,6.58L73.26,41.01" style="vector-effect: none; fill: none; stroke: rgb(187, 187, 187); stroke-opacity: 1; stroke-width: 5px; opacity: 1;"/><path class="js-line" d="M75.27,4.79L84.3,4.79L85.3,39.97L86.31,39.97L87.31,4.79L88.32,39.97L89.32,4.35L91.33,3.75L92.33,39.67L94.34,3.75L95.34,3.75L96.34,3.75L97.35,39.67L98.35,39.67L99.35,3.75L101.36,39.67L102.37,3.9L104.37,40.87L105.38,40.87L111.4,41.91L112.4,43.25L114.41,44.44L115.41,44.44L131.47,44.29" style="vector-effect: none; fill: none; stroke: rgb(187, 187, 187); stroke-opacity: 1; stroke-width: 5px; opacity: 1;"/><path class="js-line" d="M192.69,44L195.7,44.29L196.7,46.98L200.72,47.28L201.72,46.53L204.73,48.77L205.73,48.02L209.75,46.68L210.75,44.44L211.76,43.55L212.76,44.59L214.77,44.29L215.77,46.98L217.78,46.53L218.78,46.38L220.79,46.08L221.79,46.53L225.81,48.17L226.81,48.17L232.83,45.34L233.84,42.21L234.84,41.31L235.84,52.04L245.88,51.6L246.88,53.83L250.9,56.52L251.9,56.37L254.91,55.92L255.91,54.88L263.94,56.07L264.95,56.22L272.97,59.35L273.98,59.35L275.99,60.39L276.99,59.05L277.99,38.03L279,50.11L280,37.74" style="vector-effect: none; fill: none; stroke: rgb(187, 187, 187); stroke-opacity: 1; stroke-width: 5px; opacity: 1;"/></g><g class="points"/><g class="text"/></g><g class="trace scatter trace32d118" style="stroke-miterlimit: 2; opacity: 1;"><g class="fills"/><g class="errorbars"/><g class="lines"><path class="js-line" d="M0,56.81L6.02,57.41" style="vector-effect: none; fill: none; stroke: rgb(187, 187, 187); stroke-opacity: 1; stroke-width: 5px; opacity: 1;"/><path class="js-line" d="M9.03,57.11L23.08,56.52L24.09,55.77L37.13,55.77L38.14,36.1L43.15,36.1L44.16,29.84L56.2,29.84L58.21,52.79L59.21,33.26L61.22,33.26L69.25,32.97L70.25,36.24L72.26,37.88L73.26,56.52" style="vector-effect: none; fill: none; stroke: rgb(187, 187, 187); stroke-opacity: 1; stroke-width: 5px; opacity: 1;"/><path class="js-line" d="M75.27,38.03L84.3,38.03L85.3,56.52L86.31,56.52L87.31,38.03L88.32,56.52L89.32,37.88L91.33,37.44L92.33,56.37L94.34,37.44L95.34,37.44L96.34,37.44L97.35,56.37L98.35,56.37L99.35,37.44L101.36,56.37L102.37,34.16L104.37,54.73L105.38,54.73L106.38,54.58L107.38,51L111.4,49.66L112.4,47.28L114.41,45.19L115.41,45.19L120.43,44.29L121.43,43.25L131.47,43.55" style="vector-effect: none; fill: none; stroke: rgb(187, 187, 187); stroke-opacity: 1; stroke-width: 5px; opacity: 1;"/><path class="js-line" d="M192.69,32.52L195.7,32.67L196.7,29.24L199.71,27L200.72,27.6L201.72,28.64L202.72,27.45L204.73,26.41L205.73,27.3L207.74,26.85L208.75,28.49L210.75,30.43L211.76,31.92L213.76,30.43L214.77,30.43L216.77,28.34L217.78,29.54L220.79,28.79L221.79,27.9L225.81,26.26L226.81,26.26L229.82,27.6L230.82,28.05L232.83,29.98L233.84,32.97L234.84,33.71L235.84,46.83L245.88,47.13L246.88,45.19L250.9,42.51L251.9,42.8L254.91,43.25L255.91,43.85L265.95,42.95L266.95,42.65L271.97,39.67L272.97,39.67L275.99,39.23L276.99,40.87L277.99,37.44L279,50.7L280,38.48" style="vector-effect: none; fill: none; stroke: rgb(187, 187, 187); stroke-opacity: 1; stroke-width: 5px; opacity: 1;"/></g><g class="points"/><g class="text"/></g><g class="trace scatter trace02da38" style="stroke-miterlimit: 2; opacity: 1;"><g class="fills"/><g class="errorbars"/><g class="lines"><path class="js-line" d="M279,61.14L280,54.28" style="vector-effect: none; fill: none; stroke: rgb(187, 187, 187); stroke-opacity: 1; stroke-width: 5px; opacity: 1;"/></g><g class="points"/><g class="text"/></g><g class="trace scatter traceb4ba77" style="stroke-miterlimit: 2; opacity: 1;"><g class="fills"/><g class="errorbars"/><g class="lines"><path class="js-line" d="M235.84,27.9L275.99,27.15L276.99,26.41" style="vector-effect: none; fill: none; stroke: rgb(187, 187, 187); stroke-opacity: 1; stroke-width: 5px; opacity: 1;"/></g><g class="points"/><g class="text"/></g></g></g><g class="overplot"/><path class="xlines-above crisp" d="M0,0" style="fill: none;"/><path class="ylines-above crisp" d="M0,0" style="fill: none;"/><g class="overlines-above"/><g class="xaxislayer-above"/><g class="yaxislayer-above"/><g class="overaxes-above"/></g></g><g class="polarlayer"/><g class="smithlayer"/><g class="ternarylayer"/><g class="geolayer"/><g class="funnelarealayer"/><g class="pielayer"/><g class="iciclelayer"/><g class="treemaplayer"/><g class="sunburstlayer"/><g class="glimages"/><defs id="topdefs-65f937"><g class="clips"/></defs><g class="layer-above"><g class="imagelayer"/><g class="shapelayer"/></g><g class="infolayer"><g class="g-gtitle"><text class="gtitle" x="15" y="25" text-anchor="start" dy="0em" style="font-family: Ubuntu, verdana, arial, sans-serif; font-size: 16px; fill: rgb(233, 84, 32); opacity: 1; font-weight: normal; white-space: pre;">Prezident/ka 2024</text></g><g class="g-xtitle"/><g class="g-ytitle"/></g></svg>