<svg class="main-svg" xmlns="http://www.w3.org/2000/svg" xmlns:xlink="http://www.w3.org/1999/xlink" width="400" height="400" style="" viewBox="0 0 400 400"><rect x="0" y="0" width="400" height="400" style="fill: rgb(255, 255, 255); fill-opacity: 1;"/><defs id="defs-8bfe0e"><g class="clips"><clipPath id="clip8bfe0exyplot" class="plotclip"><rect width="206" height="330"/></clipPath><clipPath class="axesclip" id="clip8bfe0ex"><rect x="50" y="0" width="206" height="400"/></clipPath><clipPath class="axesclip" id="clip8bfe0ey"><rect x="0" y="20" width="400" height="330"/></clipPath><clipPath class="axesclip" id="clip8bfe0exy"><rect x="50" y="20" width="206" height="330"/></clipPath></g><g class="gradients"/><g class="patterns"/></defs><g class="bglayer"/><g class="layer-below"><g class="imagelayer"/><g class="shapelayer"/></g><g class="cartesianlayer"><g class="subplot xy"><g class="layer-subplot"><g class="shapelayer"/><g class="imagelayer"/></g><g class="minor-gridlayer"><g class="x"/><g class="y"/></g><g class="gridlayer"><g class="x"><path class="xgrid crisp" transform="translate(57.1,0)" d="M0,20v330" style="stroke: rgb(235, 240, 248); stroke-opacity: 1; stroke-width: 1px;"/><path class="xgrid crisp" transform="translate(101.14,0)" d="M0,20v330" style="stroke: rgb(235, 240, 248); stroke-opacity: 1; stroke-width: 1px;"/><path class="xgrid crisp" transform="translate(144.48000000000002,0)" d="M0,20v330" style="stroke: rgb(235, 240, 248); stroke-opacity: 1; stroke-width: 1px;"/><path class="xgrid crisp" transform="translate(187.81,0)" d="M0,20v330" style="stroke: rgb(235, 240, 248); stroke-opacity: 1; stroke-width: 1px;"/><path class="xgrid crisp" transform="translate(230.43,0)" d="M0,20v330" style="stroke: rgb(235, 240, 248); stroke-opacity: 1; stroke-width: 1px;"/></g><g class="y"><path class="ygrid crisp" transform="translate(0,306.34)" d="M50,0h206" style="stroke: rgb(235, 240, 248); stroke-opacity: 1; stroke-width: 1px;"/><path class="ygrid crisp" transform="translate(0,262.66999999999996)" d="M50,0h206" style="stroke: rgb(235, 240, 248); stroke-opacity: 1; stroke-width: 1px;"/><path class="ygrid crisp" transform="translate(0,219.01)" d="M50,0h206" style="stroke: rgb(235, 240, 248); stroke-opacity: 1; stroke-width: 1px;"/><path class="ygrid crisp" transform="translate(0,175.35)" d="M50,0h206" style="stroke: rgb(235, 240, 248); stroke-opacity: 1; stroke-width: 1px;"/><path class="ygrid crisp" transform="translate(0,131.69)" d="M50,0h206" style="stroke: rgb(235, 240, 248); stroke-opacity: 1; stroke-width: 1px;"/><path class="ygrid crisp" transform="translate(0,88.02)" d="M50,0h206" style="stroke: rgb(235, 240, 248); stroke-opacity: 1; stroke-width: 1px;"/><path class="ygrid crisp" transform="translate(0,44.36)" d="M50,0h206" style="stroke: rgb(235, 240, 248); stroke-opacity: 1; stroke-width: 1px;"/></g></g><g class="zerolinelayer"><path class="yzl zl crisp" transform="translate(0,350)" d="M50,0h206" style="stroke: rgb(235, 240, 248); stroke-opacity: 1; stroke-width: 2px;"/></g><path class="xlines-below"/><path class="ylines-below"/><g class="overlines-below"/><g class="xaxislayer-below"/><g class="yaxislayer-below"/><g class="overaxes-below"/><g class="plot" transform="translate(50,20)" clip-path="url(#clip8bfe0exyplot)"><g class="scatterlayer mlayer"><g class="trace scatter tracec05338" style="stroke-miterlimit: 2; opacity: 1;"><g class="fills"/><g class="errorbars"/><g class="lines"><path class="js-line" d="M0,238.74L2.13,227.39L2.84,227.39L4.26,227.39L4.97,230.45L7.1,225.21L7.81,225.21L9.94,225.21L10.66,223.9L12.79,223.9L13.5,222.59L15.63,221.72L16.34,221.72L17.76,219.1L18.47,219.1L26.28,219.1L26.99,216.04L30.54,216.04L31.26,197.7L39.78,197.7L41.2,210.36L41.91,207.74L43.33,207.74L49.01,206.87L49.72,216.48L51.14,221.28L51.86,219.53L52.57,217.79L53.28,221.72L59.67,221.72L60.38,219.97L61.09,219.97L61.8,221.72L62.51,219.97L63.22,221.28L63.93,219.97L71.74,219.1L72.46,210.36L73.88,213.86L74.59,213.86L75.3,212.98L76.01,198.57L77.43,189.84L78.14,189.84L78.85,187.66L79.56,173.25L80.98,164.95L81.69,164.95L83.11,164.95L83.82,162.33L86.66,148.8L87.37,148.8L91.63,149.24L92.34,150.11L93.06,150.11L93.77,154.47L99.45,154.47L100.16,148.36L100.87,148.36L101.58,137.88L104.42,137.88L105.13,126.09L109.39,126.09L110.1,119.11L111.52,116.49L112.23,116.49L115.08,107.76L115.79,92.91L117.21,92.91L117.92,85.49L119.34,67.59L120.05,67.59L125.02,67.59L125.73,74.14L127.15,77.19L127.86,77.19L128.57,78.94L129.28,85.92L129.99,88.54L130.7,86.8L131.41,83.74L137.1,82.87L137.81,85.05L138.52,84.18L139.23,69.77L141.36,54.92L142.07,56.23L142.78,61.47L143.49,58.42L144.2,50.12L144.91,50.12L145.62,52.3L147.04,57.54L147.75,61.47L148.46,61.91L149.17,76.75L149.88,81.99L150.59,76.75L151.3,78.94L152.01,77.19L152.72,70.21L153.43,68.46L154.14,70.64L155.57,71.95L156.28,69.33L159.12,53.61L159.83,53.61L160.54,55.36L161.25,60.6L161.96,61.47L162.67,57.98L163.38,57.54L164.09,60.6L166.22,93.78L166.93,92.91L167.64,92.91L168.35,93.35L169.06,97.28L169.77,98.59L170.48,97.71L171.19,92.91L173.32,100.77L174.03,94.66L176.17,68.02L176.88,67.59L177.59,57.98L178.3,58.42L179.01,57.98L179.72,55.8L180.43,58.85L181.85,65.84L182.56,66.28L183.27,65.84L183.98,63.66L187.53,58.42L188.24,54.05L189.66,49.68L190.37,37.89L193.21,28.73L193.92,26.11L195.34,16.5" style="vector-effect: none; fill: none; stroke: rgb(138, 44, 81); stroke-opacity: 1; stroke-width: 5px; opacity: 1;"/></g><g class="points"/><g class="text"/></g><g class="trace scatter trace69e7dd" style="stroke-miterlimit: 2; opacity: 1;"><g class="fills"/><g class="errorbars"/><g class="lines"><path class="js-line" d="M0,139.63L2.13,145.74L2.84,145.74L4.26,145.74L4.97,148.8L7.1,142.25L7.81,142.25L13.5,143.12L14.21,144L16.34,144L17.05,146.18L41.2,146.18L41.91,158.4L47.59,158.4L48.3,156.22L49.01,154.47L49.72,144.43L51.14,129.59L51.86,133.52L52.57,137.45L53.28,124.35L59.67,124.35L60.38,130.9L61.09,130.9L61.8,124.35L62.51,130.9L63.22,123.04L64.64,121.29L65.35,129.59L66.77,121.29L67.48,121.29L68.19,121.29L68.9,129.59L69.61,129.59L70.32,121.29L71.74,129.59L72.46,121.73L73.88,131.77L74.59,131.77L75.3,131.77L76.01,134.39L78.14,134.39L78.85,136.57L80.98,147.05L81.69,147.05L84.53,147.05L85.24,148.36L88.08,148.8L88.79,148.8L90.92,148.8L91.63,150.11L93.77,154.47L95.19,154.47L100.16,154.91L100.87,153.17L102.29,157.53L103,157.53L109.39,156.66L110.1,163.64L111.52,165.39L112.23,165.39L115.08,172.81L115.79,164.52L117.21,164.52L117.92,168.88L119.34,174.56L120.05,174.56L125.02,174.56L125.73,168.45L127.15,164.95L127.86,164.95L128.57,163.21L129.28,153.17L129.99,150.11L130.7,150.98L131.41,152.29L137.1,152.29L137.81,150.11L138.52,150.11L139.23,161.46L141.36,175L142.07,173.69L143.49,164.95L144.2,173.25L144.91,173.25L145.62,171.07L147.04,165.83L147.75,161.9L148.46,161.46L149.17,146.62L149.88,141.38L150.59,146.62L151.3,144.43L152.01,146.18L152.72,153.17L153.43,154.91L154.14,152.73L155.57,151.42L156.28,154.04L159.12,169.76L159.83,169.76L160.54,168.01L161.25,162.77L161.96,161.9L162.67,165.39L163.38,165.83L164.09,162.77L166.22,129.59L166.93,130.46L167.64,130.46L168.35,130.02L169.06,126.09L169.77,124.78L170.48,125.66L171.19,130.46L173.32,122.6L174.03,128.71L176.17,155.35L176.88,155.78L177.59,165.39L178.3,164.95L179.01,165.39L179.72,167.57L180.43,164.52L181.85,157.53L182.56,157.09L183.27,157.53L183.98,159.71L187.53,164.95L188.24,169.32L189.66,173.69L190.37,185.48L193.21,194.64L193.92,197.26L195.34,206.87" style="vector-effect: none; fill: none; stroke: rgb(0, 174, 239); stroke-opacity: 1; stroke-width: 5px; opacity: 1;"/></g><g class="points"/><g class="text"/></g><g class="trace scatter trace270e8f" style="stroke-miterlimit: 2; opacity: 1;"><g class="fills"/><g class="errorbars"/><g class="lines"><path class="js-line" d="M0,285.9L2.13,287.21L2.84,287.21L4.26,287.21L4.97,290.27L7.1,285.03L7.81,285.03L30.54,285.9L31.26,291.14L39.78,291.14L41.2,287.65L41.91,259.27L43.33,259.27L47.59,259.27L48.3,260.58L51.14,264.51L51.86,263.2L52.57,261.45L53.28,264.94L59.67,264.94L60.38,263.2L61.09,263.2L61.8,264.94L62.51,263.2L63.22,265.82L64.64,267.56L65.35,264.51L66.77,267.56L67.48,267.56L68.19,267.56L68.9,264.51L69.61,264.51L70.32,267.56L71.74,264.51L72.46,277.17L73.88,268.44L74.59,268.44L75.3,268.87L76.01,275.42L77.43,280.66L78.14,280.66L78.85,279.35L79.56,283.72L81.69,284.59L82.4,284.59L85.24,284.59L85.95,286.34L90.92,286.34L91.63,284.59L93.77,274.55L95.19,274.55L99.45,274.55L100.16,280.22L100.87,281.97L101.58,288.08L104.42,288.08L105.13,291.58L113.66,292.45L114.37,292.89L115.08,292.89L115.79,306.42L117.21,306.42L117.92,308.17L119.34,310.79L120.05,310.79L128.57,310.79L129.28,314.72L130.7,315.59L131.41,317.34L137.81,318.21L138.52,319.08L140.65,323.45L141.36,323.45L142.78,324.32" style="vector-effect: none; fill: none; stroke: rgb(255, 1, 170); stroke-opacity: 1; stroke-width: 5px; opacity: 1;"/></g><g class="points"/><g class="text"/></g><g class="trace scatter trace5f15d9" style="stroke-miterlimit: 2; opacity: 1;"><g class="fills"/><g class="errorbars"/><g class="lines"><path class="js-line" d="M0,295.51L3.55,296.38L4.26,296.38L4.97,290.27L5.68,298.56L7.1,303.8L7.81,303.8L26.28,302.93L26.99,302.49L30.54,302.49L31.26,304.68L41.2,303.8L41.91,305.55L51.14,305.99L51.86,307.73L52.57,309.48L53.28,306.42L59.67,306.42L60.38,307.73L61.09,307.73L61.8,306.42L64.64,309.04L65.35,309.48L68.19,309.04L68.9,309.48L71.74,309.48L72.46,310.79L76.01,310.79L76.72,311.66L79.56,312.53L80.27,313.84L84.53,316.46L85.24,317.34L87.37,318.65L88.08,318.65L104.42,318.65L105.13,323.01L115.08,323.45L115.79,324.76L117.92,325.63" style="vector-effect: none; fill: none; stroke: rgb(202, 166, 105); stroke-opacity: 1; stroke-width: 5px; opacity: 1;"/></g><g class="points"/><g class="text"/></g><g class="trace scatter tracef73f68" style="stroke-miterlimit: 2; opacity: 1;"><g class="fills"/><g class="errorbars"/><g class="lines"><path class="js-line" d="M0,284.15L2.84,285.9L3.55,285.9L4.26,285.9L4.97,284.15L5.68,284.59L6.39,286.77L12.79,287.21L13.5,288.52L15.63,289.39L16.34,289.39L30.54,288.52L31.26,295.07L39.78,295.07L41.2,292.45L41.91,298.13L43.33,298.13L48.3,298.56L49.01,299.44L49.72,299.44L50.43,304.24L51.14,304.24L51.86,301.62L52.57,299L53.28,306.42L59.67,306.42L60.38,302.93L61.09,302.93L61.8,306.42L62.51,302.93L63.22,305.99L64.64,305.99L65.35,302.49L66.77,305.99L67.48,305.99L68.19,305.99L68.9,302.49L69.61,302.49L70.32,305.99L71.74,302.49L72.46,302.93L73.88,299.87L74.59,299.87L75.3,300.31L76.01,304.68L77.43,306.86L78.14,306.86L81.69,310.79L82.4,310.79L83.82,311.66L84.53,313.41L87.37,316.46L88.08,316.46L115.08,316.46L115.79,324.76L117.92,325.63" style="vector-effect: none; fill: none; stroke: rgb(238, 58, 67); stroke-opacity: 1; stroke-width: 5px; opacity: 1;"/></g><g class="points"/><g class="text"/></g><g class="trace scatter trace472293" style="stroke-miterlimit: 2; opacity: 1;"><g class="fills"/><g class="errorbars"/><g class="lines"><path class="js-line" d="M0,299.44L3.55,300.75L4.26,300.75L7.1,299.87L7.81,299.87L16.34,300.31L17.05,301.18L26.28,301.18L26.99,304.68L30.54,304.68L31.26,308.17L39.78,308.17L41.2,302.93L41.91,314.28L43.33,314.28L49.72,314.72L50.43,317.77L52.57,317.77L53.28,319.52L71.74,318.65L72.46,319.96L74.59,319.08L75.3,319.08L78.85,319.96L79.56,320.83L83.82,322.58L84.53,324.32L104.42,324.32" style="vector-effect: none; fill: none; stroke: rgb(255, 192, 203); stroke-opacity: 1; stroke-width: 5px; opacity: 1;"/></g><g class="points"/><g class="text"/></g></g></g><g class="overplot"/><path class="xlines-above crisp" d="M0,0" style="fill: none;"/><path class="ylines-above crisp" d="M0,0" style="fill: none;"/><g class="overlines-above"/><g class="xaxislayer-above"><g class="xtick"><text text-anchor="middle" x="0" y="363" transform="translate(57.1,0)" style="font-family: 'Open Sans', verdana, arial, sans-serif; font-size: 12px; fill: rgb(42, 63, 95); fill-opacity: 1; white-space: pre; opacity: 1;">1.7.23</text></g><g class="xtick"><text text-anchor="middle" x="0" y="363" style="font-family: 'Open Sans', verdana, arial, sans-serif; font-size: 12px; fill: rgb(42, 63, 95); fill-opacity: 1; white-space: pre; opacity: 1;" transform="translate(101.14,0)">1.9.23</text></g><g class="xtick"><text text-anchor="middle" x="0" y="363" style="font-family: 'Open Sans', verdana, arial, sans-serif; font-size: 12px; fill: rgb(42, 63, 95); fill-opacity: 1; white-space: pre; opacity: 1;" transform="translate(144.48000000000002,0)">1.11.23</text></g><g class="xtick"><text text-anchor="middle" x="0" y="363" style="font-family: 'Open Sans', verdana, arial, sans-serif; font-size: 12px; fill: rgb(42, 63, 95); fill-opacity: 1; white-space: pre; opacity: 1;" transform="translate(187.81,0)">1.1.24</text></g><g class="xtick"><text text-anchor="middle" x="0" y="363" style="font-family: 'Open Sans', verdana, arial, sans-serif; font-size: 12px; fill: rgb(42, 63, 95); fill-opacity: 1; white-space: pre; opacity: 1;" transform="translate(230.43,0)">1.3.24</text></g></g><g class="yaxislayer-above"><g class="ytick"><text text-anchor="end" x="49" y="4.199999999999999" transform="translate(0,350)" style="font-family: 'Open Sans', verdana, arial, sans-serif; font-size: 12px; fill: rgb(42, 63, 95); fill-opacity: 1; white-space: pre; opacity: 1;">0%</text></g><g class="ytick"><text text-anchor="end" x="49" y="4.199999999999999" style="font-family: 'Open Sans', verdana, arial, sans-serif; font-size: 12px; fill: rgb(42, 63, 95); fill-opacity: 1; white-space: pre; opacity: 1;" transform="translate(0,306.34)">10%</text></g><g class="ytick"><text text-anchor="end" x="49" y="4.199999999999999" style="font-family: 'Open Sans', verdana, arial, sans-serif; font-size: 12px; fill: rgb(42, 63, 95); fill-opacity: 1; white-space: pre; opacity: 1;" transform="translate(0,262.66999999999996)">20%</text></g><g class="ytick"><text text-anchor="end" x="49" y="4.199999999999999" style="font-family: 'Open Sans', verdana, arial, sans-serif; font-size: 12px; fill: rgb(42, 63, 95); fill-opacity: 1; white-space: pre; opacity: 1;" transform="translate(0,219.01)">30%</text></g><g class="ytick"><text text-anchor="end" x="49" y="4.199999999999999" style="font-family: 'Open Sans', verdana, arial, sans-serif; font-size: 12px; fill: rgb(42, 63, 95); fill-opacity: 1; white-space: pre; opacity: 1;" transform="translate(0,175.35)">40%</text></g><g class="ytick"><text text-anchor="end" x="49" y="4.199999999999999" style="font-family: 'Open Sans', verdana, arial, sans-serif; font-size: 12px; fill: rgb(42, 63, 95); fill-opacity: 1; white-space: pre; opacity: 1;" transform="translate(0,131.69)">50%</text></g><g class="ytick"><text text-anchor="end" x="49" y="4.199999999999999" style="font-family: 'Open Sans', verdana, arial, sans-serif; font-size: 12px; fill: rgb(42, 63, 95); fill-opacity: 1; white-space: pre; opacity: 1;" transform="translate(0,88.02)">60%</text></g><g class="ytick"><text text-anchor="end" x="49" y="4.199999999999999" style="font-family: 'Open Sans', verdana, arial, sans-serif; font-size: 12px; fill: rgb(42, 63, 95); fill-opacity: 1; white-space: pre; opacity: 1;" transform="translate(0,44.36)">70%</text></g></g><g class="overaxes-above"/></g></g><g class="polarlayer"/><g class="smithlayer"/><g class="ternarylayer"/><g class="geolayer"/><g class="funnelarealayer"/><g class="pielayer"/><g class="iciclelayer"/><g class="treemaplayer"/><g class="sunburstlayer"/><g class="glimages"/><defs id="topdefs-8bfe0e"><g class="clips"/><clipPath id="legend8bfe0e"><rect width="128" height="124" x="0" y="0"/></clipPath></defs><g class="layer-above"><g class="imagelayer"/><g class="shapelayer"/></g><g class="infolayer"><g class="legend" pointer-events="all" transform="translate(260.12,20)"><rect class="bg" shape-rendering="crispEdges" width="128" height="124" x="0" y="0" style="stroke: rgb(68, 68, 68); stroke-opacity: 1; fill: rgb(255, 255, 255); fill-opacity: 1; stroke-width: 0px;"/><g class="scrollbox" transform="" clip-path="url(#legend8bfe0e)"><g class="groups"><g class="traces" transform="translate(0,14.5)" style="opacity: 1;"><text class="legendtext" text-anchor="start" x="40" y="4.680000000000001" style="font-family: 'Open Sans', verdana, arial, sans-serif; font-size: 12px; fill: rgb(42, 63, 95); fill-opacity: 1; white-space: pre;">Pellegrini Peter</text><g class="layers" style="opacity: 1;"><g class="legendfill"/><g class="legendlines"><path class="js-line" d="M5,0h30" style="fill: none; stroke: rgb(138, 44, 81); stroke-opacity: 1; stroke-width: 5px;"/></g><g class="legendsymbols"><g class="legendpoints"/></g></g><rect class="legendtoggle" x="0" y="-9.5" width="122.703125" height="19" style="fill: rgb(0, 0, 0); fill-opacity: 0;"/></g><g class="traces" transform="translate(0,33.5)" style="opacity: 1;"><text class="legendtext" text-anchor="start" x="40" y="4.680000000000001" style="font-family: 'Open Sans', verdana, arial, sans-serif; font-size: 12px; fill: rgb(42, 63, 95); fill-opacity: 1; white-space: pre;">Korčok Ivan</text><g class="layers" style="opacity: 1;"><g class="legendfill"/><g class="legendlines"><path class="js-line" d="M5,0h30" style="fill: none; stroke: rgb(0, 174, 239); stroke-opacity: 1; stroke-width: 5px;"/></g><g class="legendsymbols"><g class="legendpoints"/></g></g><rect class="legendtoggle" x="0" y="-9.5" width="122.703125" height="19" style="fill: rgb(0, 0, 0); fill-opacity: 0;"/></g><g class="traces" transform="translate(0,52.5)" style="opacity: 1;"><text class="legendtext" text-anchor="start" x="40" y="4.680000000000001" style="font-family: 'Open Sans', verdana, arial, sans-serif; font-size: 12px; fill: rgb(42, 63, 95); fill-opacity: 1; white-space: pre;">Kubiš Ján</text><g class="layers" style="opacity: 1;"><g class="legendfill"/><g class="legendlines"><path class="js-line" d="M5,0h30" style="fill: none; stroke: rgb(255, 1, 170); stroke-opacity: 1; stroke-width: 5px;"/></g><g class="legendsymbols"><g class="legendpoints"/></g></g><rect class="legendtoggle" x="0" y="-9.5" width="122.703125" height="19" style="fill: rgb(0, 0, 0); fill-opacity: 0;"/></g><g class="traces" transform="translate(0,71.5)" style="opacity: 1;"><text class="legendtext" text-anchor="start" x="40" y="4.680000000000001" style="font-family: 'Open Sans', verdana, arial, sans-serif; font-size: 12px; fill: rgb(42, 63, 95); fill-opacity: 1; white-space: pre;">Mistrík Robert</text><g class="layers" style="opacity: 1;"><g class="legendfill"/><g class="legendlines"><path class="js-line" d="M5,0h30" style="fill: none; stroke: rgb(202, 166, 105); stroke-opacity: 1; stroke-width: 5px;"/></g><g class="legendsymbols"><g class="legendpoints"/></g></g><rect class="legendtoggle" x="0" y="-9.5" width="122.703125" height="19" style="fill: rgb(0, 0, 0); fill-opacity: 0;"/></g><g class="traces" transform="translate(0,90.5)" style="opacity: 1;"><text class="legendtext" text-anchor="start" x="40" y="4.680000000000001" style="font-family: 'Open Sans', verdana, arial, sans-serif; font-size: 12px; fill: rgb(42, 63, 95); fill-opacity: 1; white-space: pre;">Fico Robert</text><g class="layers" style="opacity: 1;"><g class="legendfill"/><g class="legendlines"><path class="js-line" d="M5,0h30" style="fill: none; stroke: rgb(238, 58, 67); stroke-opacity: 1; stroke-width: 5px;"/></g><g class="legendsymbols"><g class="legendpoints"/></g></g><rect class="legendtoggle" x="0" y="-9.5" width="122.703125" height="19" style="fill: rgb(0, 0, 0); fill-opacity: 0;"/></g><g class="traces" transform="translate(0,109.5)" style="opacity: 1;"><text class="legendtext" text-anchor="start" x="40" y="4.680000000000001" style="font-family: 'Open Sans', verdana, arial, sans-serif; font-size: 12px; fill: rgb(42, 63, 95); fill-opacity: 1; white-space: pre;">Lajčák Miroslav</text><g class="layers" style="opacity: 1;"><g class="legendfill"/><g class="legendlines"><path class="js-line" d="M5,0h30" style="fill: none; stroke: rgb(255, 192, 203); stroke-opacity: 1; stroke-width: 5px;"/></g><g class="legendsymbols"><g class="legendpoints"/></g></g><rect class="legendtoggle" x="0" y="-9.5" width="122.703125" height="19" style="fill: rgb(0, 0, 0); fill-opacity: 0;"/></g></g></g><rect class="scrollbar" rx="20" ry="3" width="0" height="0" x="0" y="0" style="fill: rgb(128, 139, 164); fill-opacity: 1;"/></g><g class="g-gtitle"/><g class="g-xtitle"/><g class="g-ytitle"/></g></svg>