<svg class="main-svg" xmlns="http://www.w3.org/2000/svg" xmlns:xlink="http://www.w3.org/1999/xlink" width="1200" height="600" style="" viewBox="0 0 1200 600"><rect x="0" y="0" width="1200" height="600" style="fill: rgb(255, 255, 255); fill-opacity: 1;"/><defs id="defs-49019d"><g class="clips"><clipPath id="clip49019dxyplot" class="plotclip"><rect width="990" height="530"/></clipPath><clipPath class="axesclip" id="clip49019dx"><rect x="50" y="0" width="990" height="600"/></clipPath><clipPath class="axesclip" id="clip49019dy"><rect x="0" y="20" width="1200" height="530"/></clipPath><clipPath class="axesclip" id="clip49019dxy"><rect x="50" y="20" width="990" height="530"/></clipPath></g><g class="gradients"/><g class="patterns"/></defs><g class="bglayer"/><g class="layer-below"><g class="imagelayer"/><g class="shapelayer"/></g><g class="cartesianlayer"><g class="subplot xy"><g class="layer-subplot"><g class="shapelayer"/><g class="imagelayer"/></g><g class="minor-gridlayer"><g class="x"/><g class="y"/></g><g class="gridlayer"><g class="x"><path class="xgrid crisp" transform="translate(83,0)" d="M0,20v530" style="stroke: rgb(235, 240, 248); stroke-opacity: 1; stroke-width: 1px;"/><path class="xgrid crisp" transform="translate(185.3,0)" d="M0,20v530" style="stroke: rgb(235, 240, 248); stroke-opacity: 1; stroke-width: 1px;"/><path class="xgrid crisp" transform="translate(287.6,0)" d="M0,20v530" style="stroke: rgb(235, 240, 248); stroke-opacity: 1; stroke-width: 1px;"/><path class="xgrid crisp" transform="translate(386.6,0)" d="M0,20v530" style="stroke: rgb(235, 240, 248); stroke-opacity: 1; stroke-width: 1px;"/><path class="xgrid crisp" transform="translate(488.9,0)" d="M0,20v530" style="stroke: rgb(235, 240, 248); stroke-opacity: 1; stroke-width: 1px;"/><path class="xgrid crisp" transform="translate(587.9,0)" d="M0,20v530" style="stroke: rgb(235, 240, 248); stroke-opacity: 1; stroke-width: 1px;"/><path class="xgrid crisp" transform="translate(690.2,0)" d="M0,20v530" style="stroke: rgb(235, 240, 248); stroke-opacity: 1; stroke-width: 1px;"/><path class="xgrid crisp" transform="translate(792.5,0)" d="M0,20v530" style="stroke: rgb(235, 240, 248); stroke-opacity: 1; stroke-width: 1px;"/><path class="xgrid crisp" transform="translate(888.2,0)" d="M0,20v530" style="stroke: rgb(235, 240, 248); stroke-opacity: 1; stroke-width: 1px;"/><path class="xgrid crisp" transform="translate(990.5,0)" d="M0,20v530" style="stroke: rgb(235, 240, 248); stroke-opacity: 1; stroke-width: 1px;"/></g><g class="y"><path class="ygrid crisp" transform="translate(0,457.27)" d="M50,0h990" style="stroke: rgb(235, 240, 248); stroke-opacity: 1; stroke-width: 1px;"/><path class="ygrid crisp" transform="translate(0,364.55)" d="M50,0h990" style="stroke: rgb(235, 240, 248); stroke-opacity: 1; stroke-width: 1px;"/><path class="ygrid crisp" transform="translate(0,271.82)" d="M50,0h990" style="stroke: rgb(235, 240, 248); stroke-opacity: 1; stroke-width: 1px;"/><path class="ygrid crisp" transform="translate(0,179.1)" d="M50,0h990" style="stroke: rgb(235, 240, 248); stroke-opacity: 1; stroke-width: 1px;"/><path class="ygrid crisp" transform="translate(0,86.37)" d="M50,0h990" style="stroke: rgb(235, 240, 248); stroke-opacity: 1; stroke-width: 1px;"/></g></g><g class="zerolinelayer"><path class="yzl zl crisp" transform="translate(0,550)" d="M50,0h990" style="stroke: rgb(235, 240, 248); stroke-opacity: 1; stroke-width: 2px;"/></g><path class="xlines-below"/><path class="ylines-below"/><g class="overlines-below"/><g class="xaxislayer-below"/><g class="yaxislayer-below"/><g class="overaxes-below"/><g class="plot" transform="translate(50,20)" clip-path="url(#clip49019dxyplot)"><g class="scatterlayer mlayer"><g class="trace scatter trace90377c" style="stroke-miterlimit: 2; opacity: 1;"><g class="fills"/><g class="errorbars"/><g class="lines"><path class="js-line" d="M0,336.2L6.6,312.09L9.9,312.09L19.8,312.09L23.1,318.59L29.7,307.46L33,307.46L46.2,307.46L49.5,304.68L59.4,304.68L62.7,301.9L66,300.04L69.3,300.04L75.9,300.04L79.2,294.48L122.1,294.48L125.4,287.99L141.9,287.99L145.2,249.04L184.8,249.04L191.4,275.93L194.7,270.37L201.3,270.37L224.4,269.44L227.7,268.51L231,288.91L234.3,299.11L237.6,299.11L240.9,295.4L244.2,291.7L247.5,300.04L277.2,300.04L280.5,296.33L283.8,296.33L287.1,300.04L290.4,296.33L293.7,299.11L297,296.33L300.3,296.33L303.6,294.48L306.9,296.33L316.8,296.33L320.1,294.48L323.4,294.48L326.7,296.33L330,294.48L333.3,294.48L336.6,275.93L339.9,283.35L346.5,283.35L349.8,281.5L353.1,250.9L356.4,232.35L363,232.35L366.3,227.71L369.6,197.12L372.9,182.28L376.2,179.5L379.5,179.5L386.1,179.5L389.4,173.93L396,158.17L399.3,145.19L425.7,146.12L429,147.97L432.3,147.97L435.6,157.24L462,157.24L465.3,144.26L468.6,144.26L471.9,122.01L485.1,122.01L488.4,96.97L508.2,96.97L511.5,82.14L514.8,76.57L518.1,76.57L521.4,76.57L524.7,71.01L528,62.66L531.3,58.03L534.6,58.03L537.9,26.5" style="vector-effect: none; fill: none; stroke: rgb(138, 44, 81); stroke-opacity: 1; stroke-width: 5px; opacity: 1;"/></g><g class="points"/><g class="text"/></g><g class="trace scatter trace02d090" style="stroke-miterlimit: 2; opacity: 1;"><g class="fills"/><g class="errorbars"/><g class="lines"><path class="js-line" d="M0,125.72L6.6,138.7L9.9,138.7L19.8,138.7L23.1,145.19L29.7,131.28L33,131.28L59.4,131.28L62.7,133.13L66,134.99L69.3,134.99L75.9,134.99L79.2,139.63L191.4,139.63L194.7,165.59L221.1,165.59L224.4,160.95L227.7,157.24L231,135.92L234.3,104.39L237.6,104.39L244.2,121.08L247.5,93.26L277.2,93.26L280.5,107.17L283.8,107.17L287.1,93.26L290.4,107.17L293.7,90.48L297,86.77L300.3,86.77L303.6,104.39L306.9,86.77L316.8,86.77L320.1,104.39L323.4,104.39L326.7,86.77L330,104.39L333.3,104.39L336.6,87.7L339.9,109.03L349.8,109.03L353.1,114.59L363,114.59L366.3,119.23L369.6,134.99L372.9,140.55L379.5,141.48L382.8,141.48L392.7,141.48L396,144.26L402.6,145.19L405.9,145.19L422.4,145.19L425.7,147.97L429,153.53L432.3,153.53L435.6,157.24L442.2,157.24L465.3,158.17L468.6,154.46L471.9,163.73L475.2,163.73L485.1,163.73L488.4,161.88L508.2,161.88L511.5,176.72L514.8,180.42L518.1,180.42L521.4,180.42L524.7,185.99L528,192.48L531.3,196.19L534.6,196.19L537.9,178.57" style="vector-effect: none; fill: none; stroke: rgb(0, 174, 239); stroke-opacity: 1; stroke-width: 5px; opacity: 1;"/></g><g class="points"/><g class="text"/></g><g class="trace scatter trace8af626" style="stroke-miterlimit: 2; opacity: 1;"><g class="fills"/><g class="errorbars"/><g class="lines"><path class="js-line" d="M0,436.35L6.6,439.13L9.9,439.13L19.8,439.13L23.1,445.62L29.7,434.49L33,434.49L46.2,434.49L49.5,436.35L62.7,435.42L66,434.49L122.1,434.49L125.4,436.35L141.9,436.35L145.2,447.47L184.8,447.47L191.4,440.06L194.7,379.78L201.3,379.78L221.1,379.78L224.4,382.57L227.7,385.35L231,385.35L234.3,390.91L237.6,390.91L244.2,384.42L247.5,391.84L277.2,391.84L280.5,388.13L283.8,388.13L287.1,391.84L290.4,388.13L293.7,393.69L297,397.4L300.3,397.4L303.6,390.91L306.9,397.4L316.8,397.4L320.1,390.91L323.4,390.91L326.7,397.4L330,390.91L333.3,390.91L336.6,417.8L339.9,399.26L349.8,400.18L353.1,414.09L356.4,425.22L359.7,425.22L363,425.22L366.3,422.44L369.6,431.71L372.9,433.57L389.4,432.64L392.7,431.71L396,433.57L399.3,437.27L422.4,437.27L425.7,433.57L429,425.22L432.3,425.22L435.6,412.24L442.2,412.24L462,412.24L465.3,424.29L468.6,428L471.9,440.98L485.1,440.98L488.4,448.4L524.7,449.33L528,450.26L534.6,451.18L537.9,479.93" style="vector-effect: none; fill: none; stroke: rgb(255, 1, 170); stroke-opacity: 1; stroke-width: 5px; opacity: 1;"/></g><g class="points"/><g class="text"/></g><g class="trace scatter trace88655e" style="stroke-miterlimit: 2; opacity: 1;"><g class="fills"/><g class="errorbars"/><g class="lines"><path class="js-line" d="M0,432.64L6.6,436.35L9.9,436.35L19.8,436.35L23.1,432.64L26.4,433.57L29.7,438.2L59.4,439.13L62.7,441.91L66,443.77L69.3,443.77L122.1,443.77L125.4,441.91L141.9,441.91L145.2,455.82L184.8,455.82L191.4,450.26L194.7,462.31L201.3,462.31L224.4,463.24L227.7,465.09L231,465.09L234.3,475.29L237.6,475.29L240.9,469.73L244.2,464.16L247.5,479.93L277.2,479.93L280.5,472.51L283.8,472.51L287.1,479.93L290.4,472.51L293.7,479L300.3,479L303.6,471.58L306.9,479L310.2,479L316.8,479L320.1,471.58L323.4,471.58L326.7,479L330,471.58L333.3,471.58L336.6,472.51L339.9,466.02L349.8,466.95L353.1,476.22L356.4,480.86L359.7,480.86L363,480.86L366.3,482.71L372.9,488.27L376.2,489.2L386.1,489.2L389.4,491.06L399.3,501.26L402.6,501.26L485.1,501.26L488.4,500.33L534.6,501.26L537.9,518.87" style="vector-effect: none; fill: none; stroke: rgb(238, 58, 67); stroke-opacity: 1; stroke-width: 5px; opacity: 1;"/></g><g class="points"/><g class="text"/></g><g class="trace scatter trace753efe" style="stroke-miterlimit: 2; opacity: 1;"><g class="fills"/><g class="errorbars"/><g class="lines"><path class="js-line" d="M0,456.75L9.9,458.6L13.2,458.6L19.8,458.6L23.1,445.62L29.7,474.36L33,474.36L62.7,473.44L66,472.51L141.9,471.58L145.2,476.22L184.8,476.22L191.4,474.36L194.7,478.07L201.3,478.07L224.4,479L227.7,479.93L237.6,479L240.9,482.71L244.2,486.42L247.5,479.93L277.2,479.93L280.5,482.71L283.8,482.71L287.1,479.93L290.4,482.71L293.7,481.78L297,485.49L300.3,485.49L303.6,486.42L306.9,485.49L333.3,486.42L336.6,489.2L353.1,489.2L356.4,491.06L366.3,491.98L369.6,492.91L372.9,495.69L376.2,496.62L386.1,496.62L389.4,498.47L399.3,505.89L402.6,505.89L485.1,505.89L488.4,515.16L534.6,516.09L537.9,518.87" style="vector-effect: none; fill: none; stroke: rgb(202, 166, 105); stroke-opacity: 1; stroke-width: 5px; opacity: 1;"/></g><g class="points"/><g class="text"/></g><g class="trace scatter traceb17181" style="stroke-miterlimit: 2; opacity: 1;"><g class="fills"/><g class="errorbars"/><g class="lines"><path class="js-line" d="M0,465.09L9.9,467.87L13.2,467.87L23.1,466.95L26.4,465.09L33,466.02L36.3,466.02L46.2,466.02L49.5,467.87L75.9,466.95L79.2,468.8L122.1,468.8L125.4,476.22L141.9,476.22L145.2,483.64L184.8,483.64L191.4,472.51L194.7,496.62L201.3,496.62L231,497.55L234.3,504.04L244.2,504.04L247.5,507.75L277.2,507.75L280.5,505.89L283.8,505.89L287.1,507.75L290.4,505.89L293.7,507.75L300.3,507.75L303.6,505.89L306.9,507.75L310.2,507.75L316.8,507.75L320.1,505.89L323.4,505.89L326.7,507.75L330,505.89L333.3,505.89L336.6,508.67L339.9,506.82L363,507.75L366.3,508.67L372.9,511.45L376.2,512.38L386.1,512.38L389.4,514.24L392.7,517.95L396,517.95L402.6,518.87L405.9,518.87L485.1,517.95" style="vector-effect: none; fill: none; stroke: rgb(255, 192, 203); stroke-opacity: 1; stroke-width: 5px; opacity: 1;"/></g><g class="points"/><g class="text"/></g></g></g><g class="overplot"/><path class="xlines-above crisp" d="M0,0" style="fill: none;"/><path class="ylines-above crisp" d="M0,0" style="fill: none;"/><g class="overlines-above"/><g class="xaxislayer-above"><g class="xtick"><text text-anchor="middle" x="0" y="563" transform="translate(83,0)" style="font-family: 'Open Sans', verdana, arial, sans-serif; font-size: 12px; fill: rgb(42, 63, 95); fill-opacity: 1; white-space: pre; opacity: 1;">1.7.23</text></g><g class="xtick"><text text-anchor="middle" x="0" y="563" style="font-family: 'Open Sans', verdana, arial, sans-serif; font-size: 12px; fill: rgb(42, 63, 95); fill-opacity: 1; white-space: pre; opacity: 1;" transform="translate(185.3,0)">1.8.23</text></g><g class="xtick"><text text-anchor="middle" x="0" y="563" style="font-family: 'Open Sans', verdana, arial, sans-serif; font-size: 12px; fill: rgb(42, 63, 95); fill-opacity: 1; white-space: pre; opacity: 1;" transform="translate(287.6,0)">1.9.23</text></g><g class="xtick"><text text-anchor="middle" x="0" y="563" style="font-family: 'Open Sans', verdana, arial, sans-serif; font-size: 12px; fill: rgb(42, 63, 95); fill-opacity: 1; white-space: pre; opacity: 1;" transform="translate(386.6,0)">1.10.23</text></g><g class="xtick"><text text-anchor="middle" x="0" y="563" style="font-family: 'Open Sans', verdana, arial, sans-serif; font-size: 12px; fill: rgb(42, 63, 95); fill-opacity: 1; white-space: pre; opacity: 1;" transform="translate(488.9,0)">1.11.23</text></g><g class="xtick"><text text-anchor="middle" x="0" y="563" style="font-family: 'Open Sans', verdana, arial, sans-serif; font-size: 12px; fill: rgb(42, 63, 95); fill-opacity: 1; white-space: pre; opacity: 1;" transform="translate(587.9,0)">1.12.23</text></g><g class="xtick"><text text-anchor="middle" x="0" y="563" style="font-family: 'Open Sans', verdana, arial, sans-serif; font-size: 12px; fill: rgb(42, 63, 95); fill-opacity: 1; white-space: pre; opacity: 1;" transform="translate(690.2,0)">1.1.24</text></g><g class="xtick"><text text-anchor="middle" x="0" y="563" style="font-family: 'Open Sans', verdana, arial, sans-serif; font-size: 12px; fill: rgb(42, 63, 95); fill-opacity: 1; white-space: pre; opacity: 1;" transform="translate(792.5,0)">1.2.24</text></g><g class="xtick"><text text-anchor="middle" x="0" y="563" style="font-family: 'Open Sans', verdana, arial, sans-serif; font-size: 12px; fill: rgb(42, 63, 95); fill-opacity: 1; white-space: pre; opacity: 1;" transform="translate(888.2,0)">1.3.24</text></g><g class="xtick"><text text-anchor="middle" x="0" y="563" style="font-family: 'Open Sans', verdana, arial, sans-serif; font-size: 12px; fill: rgb(42, 63, 95); fill-opacity: 1; white-space: pre; opacity: 1;" transform="translate(990.5,0)">1.4.24</text></g></g><g class="yaxislayer-above"><g class="ytick"><text text-anchor="end" x="49" y="4.199999999999999" transform="translate(0,550)" style="font-family: 'Open Sans', verdana, arial, sans-serif; font-size: 12px; fill: rgb(42, 63, 95); fill-opacity: 1; white-space: pre; opacity: 1;">0%</text></g><g class="ytick"><text text-anchor="end" x="49" y="4.199999999999999" style="font-family: 'Open Sans', verdana, arial, sans-serif; font-size: 12px; fill: rgb(42, 63, 95); fill-opacity: 1; white-space: pre; opacity: 1;" transform="translate(0,457.27)">10%</text></g><g class="ytick"><text text-anchor="end" x="49" y="4.199999999999999" style="font-family: 'Open Sans', verdana, arial, sans-serif; font-size: 12px; fill: rgb(42, 63, 95); fill-opacity: 1; white-space: pre; opacity: 1;" transform="translate(0,364.55)">20%</text></g><g class="ytick"><text text-anchor="end" x="49" y="4.199999999999999" style="font-family: 'Open Sans', verdana, arial, sans-serif; font-size: 12px; fill: rgb(42, 63, 95); fill-opacity: 1; white-space: pre; opacity: 1;" transform="translate(0,271.82)">30%</text></g><g class="ytick"><text text-anchor="end" x="49" y="4.199999999999999" style="font-family: 'Open Sans', verdana, arial, sans-serif; font-size: 12px; fill: rgb(42, 63, 95); fill-opacity: 1; white-space: pre; opacity: 1;" transform="translate(0,179.1)">40%</text></g><g class="ytick"><text text-anchor="end" x="49" y="4.199999999999999" style="font-family: 'Open Sans', verdana, arial, sans-serif; font-size: 12px; fill: rgb(42, 63, 95); fill-opacity: 1; white-space: pre; opacity: 1;" transform="translate(0,86.37)">50%</text></g></g><g class="overaxes-above"/></g></g><g class="polarlayer"/><g class="smithlayer"/><g class="ternarylayer"/><g class="geolayer"/><g class="funnelarealayer"/><g class="pielayer"/><g class="iciclelayer"/><g class="treemaplayer"/><g class="sunburstlayer"/><g class="glimages"/><defs id="topdefs-49019d"><g class="clips"/><clipPath id="legend49019d"><rect width="128" height="124" x="0" y="0"/></clipPath></defs><g class="layer-above"><g class="imagelayer"/><g class="shapelayer"/></g><g class="infolayer"><g class="legend" pointer-events="all" transform="translate(1059.8000000000002,20)"><rect class="bg" shape-rendering="crispEdges" style="stroke: rgb(68, 68, 68); stroke-opacity: 1; fill: rgb(255, 255, 255); fill-opacity: 1; stroke-width: 0px;" width="128" height="124" x="0" y="0"/><g class="scrollbox" transform="" clip-path="url(#legend49019d)"><g class="groups"><g class="traces" transform="translate(0,14.5)" style="opacity: 1;"><text class="legendtext" text-anchor="start" x="40" y="4.680000000000001" style="font-family: 'Open Sans', verdana, arial, sans-serif; font-size: 12px; fill: rgb(42, 63, 95); fill-opacity: 1; white-space: pre;">Pellegrini Peter</text><g class="layers" style="opacity: 1;"><g class="legendfill"/><g class="legendlines"><path class="js-line" d="M5,0h30" style="fill: none; stroke: rgb(138, 44, 81); stroke-opacity: 1; stroke-width: 5px;"/></g><g class="legendsymbols"><g class="legendpoints"/></g></g><rect class="legendtoggle" x="0" y="-9.5" width="122.703125" height="19" style="fill: rgb(0, 0, 0); fill-opacity: 0;"/></g><g class="traces" transform="translate(0,33.5)" style="opacity: 1;"><text class="legendtext" text-anchor="start" x="40" y="4.680000000000001" style="font-family: 'Open Sans', verdana, arial, sans-serif; font-size: 12px; fill: rgb(42, 63, 95); fill-opacity: 1; white-space: pre;">Korčok Ivan</text><g class="layers" style="opacity: 1;"><g class="legendfill"/><g class="legendlines"><path class="js-line" d="M5,0h30" style="fill: none; stroke: rgb(0, 174, 239); stroke-opacity: 1; stroke-width: 5px;"/></g><g class="legendsymbols"><g class="legendpoints"/></g></g><rect class="legendtoggle" x="0" y="-9.5" width="122.703125" height="19" style="fill: rgb(0, 0, 0); fill-opacity: 0;"/></g><g class="traces" transform="translate(0,52.5)" style="opacity: 1;"><text class="legendtext" text-anchor="start" x="40" y="4.680000000000001" style="font-family: 'Open Sans', verdana, arial, sans-serif; font-size: 12px; fill: rgb(42, 63, 95); fill-opacity: 1; white-space: pre;">Kubiš Ján</text><g class="layers" style="opacity: 1;"><g class="legendfill"/><g class="legendlines"><path class="js-line" d="M5,0h30" style="fill: none; stroke: rgb(255, 1, 170); stroke-opacity: 1; stroke-width: 5px;"/></g><g class="legendsymbols"><g class="legendpoints"/></g></g><rect class="legendtoggle" x="0" y="-9.5" width="122.703125" height="19" style="fill: rgb(0, 0, 0); fill-opacity: 0;"/></g><g class="traces" transform="translate(0,71.5)" style="opacity: 1;"><text class="legendtext" text-anchor="start" x="40" y="4.680000000000001" style="font-family: 'Open Sans', verdana, arial, sans-serif; font-size: 12px; fill: rgb(42, 63, 95); fill-opacity: 1; white-space: pre;">Fico Robert</text><g class="layers" style="opacity: 1;"><g class="legendfill"/><g class="legendlines"><path class="js-line" d="M5,0h30" style="fill: none; stroke: rgb(238, 58, 67); stroke-opacity: 1; stroke-width: 5px;"/></g><g class="legendsymbols"><g class="legendpoints"/></g></g><rect class="legendtoggle" x="0" y="-9.5" width="122.703125" height="19" style="fill: rgb(0, 0, 0); fill-opacity: 0;"/></g><g class="traces" transform="translate(0,90.5)" style="opacity: 1;"><text class="legendtext" text-anchor="start" x="40" y="4.680000000000001" style="font-family: 'Open Sans', verdana, arial, sans-serif; font-size: 12px; fill: rgb(42, 63, 95); fill-opacity: 1; white-space: pre;">Mistrík Robert</text><g class="layers" style="opacity: 1;"><g class="legendfill"/><g class="legendlines"><path class="js-line" d="M5,0h30" style="fill: none; stroke: rgb(202, 166, 105); stroke-opacity: 1; stroke-width: 5px;"/></g><g class="legendsymbols"><g class="legendpoints"/></g></g><rect class="legendtoggle" x="0" y="-9.5" width="122.703125" height="19" style="fill: rgb(0, 0, 0); fill-opacity: 0;"/></g><g class="traces" transform="translate(0,109.5)" style="opacity: 1;"><text class="legendtext" text-anchor="start" x="40" y="4.680000000000001" style="font-family: 'Open Sans', verdana, arial, sans-serif; font-size: 12px; fill: rgb(42, 63, 95); fill-opacity: 1; white-space: pre;">Lajčák Miroslav</text><g class="layers" style="opacity: 1;"><g class="legendfill"/><g class="legendlines"><path class="js-line" d="M5,0h30" style="fill: none; stroke: rgb(255, 192, 203); stroke-opacity: 1; stroke-width: 5px;"/></g><g class="legendsymbols"><g class="legendpoints"/></g></g><rect class="legendtoggle" x="0" y="-9.5" width="122.703125" height="19" style="fill: rgb(0, 0, 0); fill-opacity: 0;"/></g></g></g><rect class="scrollbar" rx="20" ry="3" width="0" height="0" style="fill: rgb(128, 139, 164); fill-opacity: 1;" x="0" y="0"/></g><g class="g-gtitle"/><g class="g-xtitle"/><g class="g-ytitle"/></g></svg>