<svg class="main-svg" xmlns="http://www.w3.org/2000/svg" xmlns:xlink="http://www.w3.org/1999/xlink" width="400" height="400" style="" viewBox="0 0 400 400"><rect x="0" y="0" width="400" height="400" style="fill: rgb(255, 255, 255); fill-opacity: 1;"/><defs id="defs-4fcd60"><g class="clips"><clipPath id="clip4fcd60xyplot" class="plotclip"><rect width="206" height="330"/></clipPath><clipPath class="axesclip" id="clip4fcd60x"><rect x="50" y="0" width="206" height="400"/></clipPath><clipPath class="axesclip" id="clip4fcd60y"><rect x="0" y="20" width="400" height="330"/></clipPath><clipPath class="axesclip" id="clip4fcd60xy"><rect x="50" y="20" width="206" height="330"/></clipPath></g><g class="gradients"/><g class="patterns"/></defs><g class="bglayer"/><g class="layer-below"><g class="imagelayer"/><g class="shapelayer"/></g><g class="cartesianlayer"><g class="subplot xy"><g class="layer-subplot"><g class="shapelayer"/><g class="imagelayer"/></g><g class="minor-gridlayer"><g class="x"/><g class="y"/></g><g class="gridlayer"><g class="x"><path class="xgrid crisp" transform="translate(56.87,0)" d="M0,20v330" style="stroke: rgb(235, 240, 248); stroke-opacity: 1; stroke-width: 1px;"/><path class="xgrid crisp" transform="translate(99.44,0)" d="M0,20v330" style="stroke: rgb(235, 240, 248); stroke-opacity: 1; stroke-width: 1px;"/><path class="xgrid crisp" transform="translate(141.32999999999998,0)" d="M0,20v330" style="stroke: rgb(235, 240, 248); stroke-opacity: 1; stroke-width: 1px;"/><path class="xgrid crisp" transform="translate(183.21,0)" d="M0,20v330" style="stroke: rgb(235, 240, 248); stroke-opacity: 1; stroke-width: 1px;"/><path class="xgrid crisp" transform="translate(224.41,0)" d="M0,20v330" style="stroke: rgb(235, 240, 248); stroke-opacity: 1; stroke-width: 1px;"/></g><g class="y"><path class="ygrid crisp" transform="translate(0,299.92)" d="M50,0h206" style="stroke: rgb(235, 240, 248); stroke-opacity: 1; stroke-width: 1px;"/><path class="ygrid crisp" transform="translate(0,249.84)" d="M50,0h206" style="stroke: rgb(235, 240, 248); stroke-opacity: 1; stroke-width: 1px;"/><path class="ygrid crisp" transform="translate(0,199.76)" d="M50,0h206" style="stroke: rgb(235, 240, 248); stroke-opacity: 1; stroke-width: 1px;"/><path class="ygrid crisp" transform="translate(0,149.68)" d="M50,0h206" style="stroke: rgb(235, 240, 248); stroke-opacity: 1; stroke-width: 1px;"/><path class="ygrid crisp" transform="translate(0,99.6)" d="M50,0h206" style="stroke: rgb(235, 240, 248); stroke-opacity: 1; stroke-width: 1px;"/><path class="ygrid crisp" transform="translate(0,49.519999999999996)" d="M50,0h206" style="stroke: rgb(235, 240, 248); stroke-opacity: 1; stroke-width: 1px;"/></g></g><g class="zerolinelayer"><path class="yzl zl crisp" transform="translate(0,350)" d="M50,0h206" style="stroke: rgb(235, 240, 248); stroke-opacity: 1; stroke-width: 2px;"/></g><path class="xlines-below"/><path class="ylines-below"/><g class="overlines-below"/><g class="xaxislayer-below"/><g class="yaxislayer-below"/><g class="overaxes-below"/><g class="plot" transform="translate(50,20)" clip-path="url(#clip4fcd60xyplot)"><g class="scatterlayer mlayer"><g class="trace scatter trace2f18b1" style="stroke-miterlimit: 2; opacity: 1;"><g class="fills"/><g class="errorbars"/><g class="lines"><path class="js-line" d="M0,225.33L2.06,212.31L2.75,212.31L4.12,212.31L4.81,215.82L6.87,209.81L7.55,209.81L9.61,209.81L10.3,208.31L12.36,208.31L13.05,206.8L15.11,205.8L15.79,205.8L17.17,202.8L17.85,202.8L25.41,202.8L26.09,199.29L29.53,199.29L30.21,178.26L38.45,178.26L39.83,192.78L40.51,189.78L41.89,189.78L47.38,188.77L48.07,199.79L49.44,205.3L50.13,203.3L50.81,201.29L51.5,205.8L57.68,205.8L58.37,203.8L59.05,203.8L59.74,205.8L60.43,203.8L61.11,205.3L61.8,203.8L69.35,202.8L70.04,192.78L71.41,196.79L72.1,196.79L72.79,195.79L73.47,179.26L74.85,169.24L75.53,169.24L76.22,166.74L76.91,150.21L78.97,140.7L79.65,140.7L80.34,140.7L81.03,137.69L83.77,122.17L84.46,122.17L88.58,122.67L89.27,123.67L89.95,123.67L90.64,128.68L96.13,128.68L96.82,121.67L97.51,121.67L98.19,109.65L100.94,109.65L101.63,96.13L105.75,96.13L106.43,88.11L107.81,85.11L108.49,85.11L111.24,75.09L111.93,58.07L113.3,58.07L113.99,49.55L115.36,29.02L116.05,29.02L120.85,29.02L121.54,36.53L122.91,40.04L123.6,40.04L124.29,42.04L124.97,50.05L125.66,53.06L126.35,51.06L127.03,47.55L132.53,46.55L133.21,49.05L133.9,48.05L134.59,31.52L135.96,16.5" style="vector-effect: none; fill: none; stroke: rgb(138, 44, 81); stroke-opacity: 1; stroke-width: 5px; opacity: 1;"/></g><g class="points"/><g class="text"/></g><g class="trace scatter tracef8a83d" style="stroke-miterlimit: 2; opacity: 1;"><g class="fills"/><g class="errorbars"/><g class="lines"><path class="js-line" d="M0,111.65L2.06,118.66L2.75,118.66L4.12,118.66L4.81,122.17L6.87,114.66L7.55,114.66L13.05,115.66L13.73,116.66L15.79,116.66L16.48,119.16L39.83,119.16L40.51,133.19L46.01,133.19L46.69,130.68L47.38,128.68L48.07,117.16L49.44,100.13L50.13,104.64L50.81,109.15L51.5,94.12L57.68,94.12L58.37,101.64L59.05,101.64L59.74,94.12L60.43,101.64L61.11,92.62L62.49,90.62L63.17,100.13L64.55,90.62L65.23,90.62L65.92,90.62L66.61,100.13L67.29,100.13L67.98,90.62L69.35,100.13L70.04,91.12L71.41,102.64L72.1,102.64L72.79,102.64L73.47,105.64L75.53,105.64L76.22,108.15L78.28,120.17L78.97,120.17L81.71,120.17L82.4,121.67L85.15,122.17L85.83,122.17L87.89,122.17L88.58,123.67L90.64,128.68L92.01,128.68L96.82,129.18L97.51,127.18L98.88,132.18L99.57,132.18L105.75,131.18L106.43,139.2L107.81,141.2L108.49,141.2L111.24,149.71L111.93,140.2L113.3,140.2L113.99,145.21L115.36,151.72L116.05,151.72L120.85,151.72L121.54,144.7L122.91,140.7L123.6,140.7L124.29,138.69L124.97,127.18L125.66,123.67L126.35,124.67L127.03,126.17L132.53,126.17L133.21,123.67L133.9,123.67L134.59,136.69L135.96,150.21" style="vector-effect: none; fill: none; stroke: rgb(0, 174, 239); stroke-opacity: 1; stroke-width: 5px; opacity: 1;"/></g><g class="points"/><g class="text"/></g><g class="trace scatter trace05fb85" style="stroke-miterlimit: 2; opacity: 1;"><g class="fills"/><g class="errorbars"/><g class="lines"><path class="js-line" d="M0,279.42L2.06,280.92L2.75,280.92L4.12,280.92L4.81,284.43L6.87,278.42L7.55,278.42L29.53,279.42L30.21,285.43L38.45,285.43L39.83,281.42L40.51,248.87L41.89,248.87L46.01,248.87L46.69,250.37L49.44,254.88L50.13,253.38L50.81,251.37L51.5,255.38L57.68,255.38L58.37,253.38L59.05,253.38L59.74,255.38L60.43,253.38L61.11,256.38L62.49,258.39L63.17,254.88L64.55,258.39L65.23,258.39L65.92,258.39L66.61,254.88L67.29,254.88L67.98,258.39L69.35,254.88L70.04,269.4L71.41,259.39L72.1,259.39L72.79,259.89L73.47,267.4L74.85,273.41L75.53,273.41L76.22,271.91L76.91,276.92L78.97,277.92L79.65,277.92L82.4,277.92L83.09,279.92L87.89,279.92L88.58,277.92L90.64,266.4L92.01,266.4L96.13,266.4L96.82,272.91L97.51,274.91L98.19,281.92L100.94,281.92L101.63,285.93L109.87,286.93L110.55,287.43L111.24,287.43L111.93,302.96L113.3,302.96L113.99,304.96L115.36,307.96L116.05,307.96L124.29,307.96L124.97,312.47L126.35,313.47L127.03,315.48L133.21,316.48L133.9,317.48L135.96,322.49" style="vector-effect: none; fill: none; stroke: rgb(255, 1, 170); stroke-opacity: 1; stroke-width: 5px; opacity: 1;"/></g><g class="points"/><g class="text"/></g><g class="trace scatter trace6cbd76" style="stroke-miterlimit: 2; opacity: 1;"><g class="fills"/><g class="errorbars"/><g class="lines"><path class="js-line" d="M0,277.42L2.75,279.42L3.43,279.42L4.12,279.42L4.81,277.42L5.49,277.92L6.18,280.42L12.36,280.92L13.05,282.42L15.11,283.43L15.79,283.43L29.53,282.42L30.21,289.94L38.45,289.94L39.83,286.93L40.51,293.44L41.89,293.44L46.69,293.94L47.38,294.94L48.07,294.94L48.75,300.45L49.44,300.45L50.13,297.45L50.81,294.44L51.5,302.96L57.68,302.96L58.37,298.95L59.05,298.95L59.74,302.96L60.43,298.95L61.11,302.46L62.49,302.46L63.17,298.45L64.55,302.46L65.23,302.46L65.92,302.46L66.61,298.45L67.29,298.45L67.98,302.46L69.35,298.45L70.04,298.95L71.41,295.44L72.1,295.44L72.79,295.95L73.47,300.95L74.85,303.46L75.53,303.46L78.97,307.96L79.65,307.96L81.03,308.97L81.71,310.97L84.46,314.48L85.15,314.48L111.24,314.48L111.93,323.99L113.99,324.99" style="vector-effect: none; fill: none; stroke: rgb(238, 58, 67); stroke-opacity: 1; stroke-width: 5px; opacity: 1;"/></g><g class="points"/><g class="text"/></g><g class="trace scatter traceae6c66" style="stroke-miterlimit: 2; opacity: 1;"><g class="fills"/><g class="errorbars"/><g class="lines"><path class="js-line" d="M0,294.94L3.43,296.45L4.12,296.45L6.87,295.44L7.55,295.44L15.79,295.95L16.48,296.95L25.41,296.95L26.09,300.95L29.53,300.95L30.21,304.96L38.45,304.96L39.83,298.95L40.51,311.97L41.89,311.97L48.07,312.47L48.75,315.98L50.81,315.98L51.5,317.98L69.35,316.98L70.04,318.48L72.1,317.48L72.79,317.48L76.22,318.48L76.91,319.48L81.03,321.49L81.71,323.49L100.94,323.49" style="vector-effect: none; fill: none; stroke: rgb(255, 192, 203); stroke-opacity: 1; stroke-width: 5px; opacity: 1;"/></g><g class="points"/><g class="text"/></g><g class="trace scatter trace121c4f" style="stroke-miterlimit: 2; opacity: 1;"><g class="fills"/><g class="errorbars"/><g class="lines"><path class="js-line" d="M0,290.44L3.43,291.44L4.12,291.44L4.81,284.43L5.49,293.94L6.87,299.95L7.55,299.95L25.41,298.95L26.09,298.45L29.53,298.45L30.21,300.95L39.83,299.95L40.51,301.96L49.44,302.46L50.13,304.46L50.81,306.46L51.5,302.96L57.68,302.96L58.37,304.46L59.05,304.46L59.74,302.96L62.49,305.96L63.17,306.46L65.92,305.96L66.61,306.46L69.35,306.46L70.04,307.96L73.47,307.96L74.16,308.97L76.91,309.97L77.59,311.47L81.71,314.48L82.4,315.48L84.46,316.98L85.15,316.98L100.94,316.98L101.63,321.99L111.24,322.49L111.93,323.99L113.99,324.99" style="vector-effect: none; fill: none; stroke: rgb(202, 166, 105); stroke-opacity: 1; stroke-width: 5px; opacity: 1;"/></g><g class="points"/><g class="text"/></g></g></g><g class="overplot"/><path class="xlines-above crisp" d="M0,0" style="fill: none;"/><path class="ylines-above crisp" d="M0,0" style="fill: none;"/><g class="overlines-above"/><g class="xaxislayer-above"><g class="xtick"><text text-anchor="middle" x="0" y="363" transform="translate(56.87,0)" style="font-family: 'Open Sans', verdana, arial, sans-serif; font-size: 12px; fill: rgb(42, 63, 95); fill-opacity: 1; white-space: pre; opacity: 1;">1.7.23</text></g><g class="xtick"><text text-anchor="middle" x="0" y="363" style="font-family: 'Open Sans', verdana, arial, sans-serif; font-size: 12px; fill: rgb(42, 63, 95); fill-opacity: 1; white-space: pre; opacity: 1;" transform="translate(99.44,0)">1.9.23</text></g><g class="xtick"><text text-anchor="middle" x="0" y="363" style="font-family: 'Open Sans', verdana, arial, sans-serif; font-size: 12px; fill: rgb(42, 63, 95); fill-opacity: 1; white-space: pre; opacity: 1;" transform="translate(141.32999999999998,0)">1.11.23</text></g><g class="xtick"><text text-anchor="middle" x="0" y="363" style="font-family: 'Open Sans', verdana, arial, sans-serif; font-size: 12px; fill: rgb(42, 63, 95); fill-opacity: 1; white-space: pre; opacity: 1;" transform="translate(183.21,0)">1.1.24</text></g><g class="xtick"><text text-anchor="middle" x="0" y="363" style="font-family: 'Open Sans', verdana, arial, sans-serif; font-size: 12px; fill: rgb(42, 63, 95); fill-opacity: 1; white-space: pre; opacity: 1;" transform="translate(224.41,0)">1.3.24</text></g></g><g class="yaxislayer-above"><g class="ytick"><text text-anchor="end" x="49" y="4.199999999999999" transform="translate(0,350)" style="font-family: 'Open Sans', verdana, arial, sans-serif; font-size: 12px; fill: rgb(42, 63, 95); fill-opacity: 1; white-space: pre; opacity: 1;">0%</text></g><g class="ytick"><text text-anchor="end" x="49" y="4.199999999999999" style="font-family: 'Open Sans', verdana, arial, sans-serif; font-size: 12px; fill: rgb(42, 63, 95); fill-opacity: 1; white-space: pre; opacity: 1;" transform="translate(0,299.92)">10%</text></g><g class="ytick"><text text-anchor="end" x="49" y="4.199999999999999" style="font-family: 'Open Sans', verdana, arial, sans-serif; font-size: 12px; fill: rgb(42, 63, 95); fill-opacity: 1; white-space: pre; opacity: 1;" transform="translate(0,249.84)">20%</text></g><g class="ytick"><text text-anchor="end" x="49" y="4.199999999999999" style="font-family: 'Open Sans', verdana, arial, sans-serif; font-size: 12px; fill: rgb(42, 63, 95); fill-opacity: 1; white-space: pre; opacity: 1;" transform="translate(0,199.76)">30%</text></g><g class="ytick"><text text-anchor="end" x="49" y="4.199999999999999" style="font-family: 'Open Sans', verdana, arial, sans-serif; font-size: 12px; fill: rgb(42, 63, 95); fill-opacity: 1; white-space: pre; opacity: 1;" transform="translate(0,149.68)">40%</text></g><g class="ytick"><text text-anchor="end" x="49" y="4.199999999999999" style="font-family: 'Open Sans', verdana, arial, sans-serif; font-size: 12px; fill: rgb(42, 63, 95); fill-opacity: 1; white-space: pre; opacity: 1;" transform="translate(0,99.6)">50%</text></g><g class="ytick"><text text-anchor="end" x="49" y="4.199999999999999" style="font-family: 'Open Sans', verdana, arial, sans-serif; font-size: 12px; fill: rgb(42, 63, 95); fill-opacity: 1; white-space: pre; opacity: 1;" transform="translate(0,49.519999999999996)">60%</text></g></g><g class="overaxes-above"/></g></g><g class="polarlayer"/><g class="smithlayer"/><g class="ternarylayer"/><g class="geolayer"/><g class="funnelarealayer"/><g class="pielayer"/><g class="iciclelayer"/><g class="treemaplayer"/><g class="sunburstlayer"/><g class="glimages"/><defs id="topdefs-4fcd60"><g class="clips"/><clipPath id="legend4fcd60"><rect width="128" height="124" x="0" y="0"/></clipPath></defs><g class="layer-above"><g class="imagelayer"/><g class="shapelayer"/></g><g class="infolayer"><g class="legend" pointer-events="all" transform="translate(260.12,20)"><rect class="bg" shape-rendering="crispEdges" width="128" height="124" x="0" y="0" style="stroke: rgb(68, 68, 68); stroke-opacity: 1; fill: rgb(255, 255, 255); fill-opacity: 1; stroke-width: 0px;"/><g class="scrollbox" transform="" clip-path="url(#legend4fcd60)"><g class="groups"><g class="traces" transform="translate(0,14.5)" style="opacity: 1;"><text class="legendtext" text-anchor="start" x="40" y="4.680000000000001" style="font-family: 'Open Sans', verdana, arial, sans-serif; font-size: 12px; fill: rgb(42, 63, 95); fill-opacity: 1; white-space: pre;">Pellegrini Peter</text><g class="layers" style="opacity: 1;"><g class="legendfill"/><g class="legendlines"><path class="js-line" d="M5,0h30" style="fill: none; stroke: rgb(138, 44, 81); stroke-opacity: 1; stroke-width: 5px;"/></g><g class="legendsymbols"><g class="legendpoints"/></g></g><rect class="legendtoggle" x="0" y="-9.5" width="122.703125" height="19" style="fill: rgb(0, 0, 0); fill-opacity: 0;"/></g><g class="traces" transform="translate(0,33.5)" style="opacity: 1;"><text class="legendtext" text-anchor="start" x="40" y="4.680000000000001" style="font-family: 'Open Sans', verdana, arial, sans-serif; font-size: 12px; fill: rgb(42, 63, 95); fill-opacity: 1; white-space: pre;">Korčok Ivan</text><g class="layers" style="opacity: 1;"><g class="legendfill"/><g class="legendlines"><path class="js-line" d="M5,0h30" style="fill: none; stroke: rgb(0, 174, 239); stroke-opacity: 1; stroke-width: 5px;"/></g><g class="legendsymbols"><g class="legendpoints"/></g></g><rect class="legendtoggle" x="0" y="-9.5" width="122.703125" height="19" style="fill: rgb(0, 0, 0); fill-opacity: 0;"/></g><g class="traces" transform="translate(0,52.5)" style="opacity: 1;"><text class="legendtext" text-anchor="start" x="40" y="4.680000000000001" style="font-family: 'Open Sans', verdana, arial, sans-serif; font-size: 12px; fill: rgb(42, 63, 95); fill-opacity: 1; white-space: pre;">Kubiš Ján</text><g class="layers" style="opacity: 1;"><g class="legendfill"/><g class="legendlines"><path class="js-line" d="M5,0h30" style="fill: none; stroke: rgb(255, 1, 170); stroke-opacity: 1; stroke-width: 5px;"/></g><g class="legendsymbols"><g class="legendpoints"/></g></g><rect class="legendtoggle" x="0" y="-9.5" width="122.703125" height="19" style="fill: rgb(0, 0, 0); fill-opacity: 0;"/></g><g class="traces" transform="translate(0,71.5)" style="opacity: 1;"><text class="legendtext" text-anchor="start" x="40" y="4.680000000000001" style="font-family: 'Open Sans', verdana, arial, sans-serif; font-size: 12px; fill: rgb(42, 63, 95); fill-opacity: 1; white-space: pre;">Fico Robert</text><g class="layers" style="opacity: 1;"><g class="legendfill"/><g class="legendlines"><path class="js-line" d="M5,0h30" style="fill: none; stroke: rgb(238, 58, 67); stroke-opacity: 1; stroke-width: 5px;"/></g><g class="legendsymbols"><g class="legendpoints"/></g></g><rect class="legendtoggle" x="0" y="-9.5" width="122.703125" height="19" style="fill: rgb(0, 0, 0); fill-opacity: 0;"/></g><g class="traces" transform="translate(0,90.5)" style="opacity: 1;"><text class="legendtext" text-anchor="start" x="40" y="4.680000000000001" style="font-family: 'Open Sans', verdana, arial, sans-serif; font-size: 12px; fill: rgb(42, 63, 95); fill-opacity: 1; white-space: pre;">Lajčák Miroslav</text><g class="layers" style="opacity: 1;"><g class="legendfill"/><g class="legendlines"><path class="js-line" d="M5,0h30" style="fill: none; stroke: rgb(255, 192, 203); stroke-opacity: 1; stroke-width: 5px;"/></g><g class="legendsymbols"><g class="legendpoints"/></g></g><rect class="legendtoggle" x="0" y="-9.5" width="122.703125" height="19" style="fill: rgb(0, 0, 0); fill-opacity: 0;"/></g><g class="traces" transform="translate(0,109.5)" style="opacity: 1;"><text class="legendtext" text-anchor="start" x="40" y="4.680000000000001" style="font-family: 'Open Sans', verdana, arial, sans-serif; font-size: 12px; fill: rgb(42, 63, 95); fill-opacity: 1; white-space: pre;">Mistrík Robert</text><g class="layers" style="opacity: 1;"><g class="legendfill"/><g class="legendlines"><path class="js-line" d="M5,0h30" style="fill: none; stroke: rgb(202, 166, 105); stroke-opacity: 1; stroke-width: 5px;"/></g><g class="legendsymbols"><g class="legendpoints"/></g></g><rect class="legendtoggle" x="0" y="-9.5" width="122.703125" height="19" style="fill: rgb(0, 0, 0); fill-opacity: 0;"/></g></g></g><rect class="scrollbar" rx="20" ry="3" width="0" height="0" x="0" y="0" style="fill: rgb(128, 139, 164); fill-opacity: 1;"/></g><g class="g-gtitle"/><g class="g-xtitle"/><g class="g-ytitle"/></g></svg>