<svg class="main-svg" xmlns="http://www.w3.org/2000/svg" xmlns:xlink="http://www.w3.org/1999/xlink" width="300" height="135" style="" viewBox="0 0 300 135"><rect x="0" y="0" width="300" height="135" style="fill: rgb(255, 255, 255); fill-opacity: 1;"/><defs id="defs-539f2e"><g class="clips"><clipPath id="clip539f2exyplot" class="plotclip"><rect width="280" height="75"/></clipPath><clipPath class="axesclip" id="clip539f2ex"><rect x="10" y="0" width="280" height="135"/></clipPath><clipPath class="axesclip" id="clip539f2ey"><rect x="0" y="50" width="300" height="75"/></clipPath><clipPath class="axesclip" id="clip539f2exy"><rect x="10" y="50" width="280" height="75"/></clipPath></g><g class="gradients"/><g class="patterns"/></defs><g class="bglayer"/><g class="layer-below"><g class="imagelayer"/><g class="shapelayer"/></g><g class="cartesianlayer"><g class="subplot xy"><g class="layer-subplot"><g class="shapelayer"/><g class="imagelayer"/></g><g class="minor-gridlayer"><g class="x"/><g class="y"/></g><g class="gridlayer"><g class="x"><path class="xgrid crisp" transform="translate(20.73,0)" d="M0,50v75" style="stroke: rgb(235, 240, 248); stroke-opacity: 1; stroke-width: 1px;"/><path class="xgrid crisp" transform="translate(87.24,0)" d="M0,50v75" style="stroke: rgb(235, 240, 248); stroke-opacity: 1; stroke-width: 1px;"/><path class="xgrid crisp" transform="translate(152.68,0)" d="M0,50v75" style="stroke: rgb(235, 240, 248); stroke-opacity: 1; stroke-width: 1px;"/><path class="xgrid crisp" transform="translate(218.12,0)" d="M0,50v75" style="stroke: rgb(235, 240, 248); stroke-opacity: 1; stroke-width: 1px;"/><path class="xgrid crisp" transform="translate(282.49,0)" d="M0,50v75" style="stroke: rgb(235, 240, 248); stroke-opacity: 1; stroke-width: 1px;"/></g><g class="y"><path class="ygrid crisp" transform="translate(0,102.77000000000001)" d="M10,0h280" style="stroke: rgb(235, 240, 248); stroke-opacity: 1; stroke-width: 1px;"/><path class="ygrid crisp" transform="translate(0,80.53999999999999)" d="M10,0h280" style="stroke: rgb(235, 240, 248); stroke-opacity: 1; stroke-width: 1px;"/><path class="ygrid crisp" transform="translate(0,58.31)" d="M10,0h280" style="stroke: rgb(235, 240, 248); stroke-opacity: 1; stroke-width: 1px;"/></g></g><g class="zerolinelayer"><path class="yzl zl crisp" transform="translate(0,125)" d="M10,0h280" style="stroke: rgb(235, 240, 248); stroke-opacity: 1; stroke-width: 2px;"/></g><path class="xlines-below"/><path class="ylines-below"/><g class="overlines-below"/><g class="xaxislayer-below"/><g class="yaxislayer-below"/><g class="overaxes-below"/><g class="plot" transform="translate(10,50)" clip-path="url(#clip539f2exyplot)"><g class="scatterlayer mlayer"><g class="trace scatter trace419a8c" style="stroke-miterlimit: 2; opacity: 1;"><g class="fills"/><g class="errorbars"/><g class="lines"><path class="js-line" d="M0,51.77L3.22,48.88L4.29,48.88L8.58,49.1L9.66,48.32L24.67,47.43L25.75,46.77L46.13,45.99L47.2,41.32L60.08,41.32L62.22,44.54L65.44,43.88L66.51,43.88L74.02,43.65L75.1,46.1L77.24,47.32L78.31,46.88L79.39,46.43L80.46,47.43L108.35,46.77L109.43,44.54L111.57,45.43L112.64,45.43L113.72,45.21L114.79,41.54L116.93,39.32L118.01,39.32L119.08,38.76L120.15,35.1L122.3,32.98L123.37,32.98L126.59,32.32L127.66,31.32L130.88,28.87L131.95,28.87L140.54,29.2L141.61,30.32L150.19,30.32L151.26,28.76L152.34,28.76L153.41,26.09L157.7,26.09L158.77,23.09L165.21,23.09L166.28,21.31L172.72,18.42L173.79,18.42L175.94,14.64L177.01,14.64L178.08,12.75L179.16,8.2L188.81,8.2L189.89,9.86L192.03,10.64L193.1,10.64L195.25,12.86L196.32,13.53L201.69,12.31L202.76,12.31L209.2,12.42L210.27,8.75L212.41,5.08L213.49,4.97L216.7,5.86L217.78,3.75L221,4.75L222.07,5.64L224.21,6.75L225.29,10.53L226.36,11.86L227.43,10.53L229.58,10.64L230.65,8.86L232.8,8.97L233.87,9.09L236.02,8.64L237.09,7.75L240.31,4.64L241.38,4.64L244.6,6.64L245.67,5.75L247.82,6.42L248.89,8.64L251.03,14.87L252.11,14.64L255.33,15.75L256.4,16.09L258.54,14.64L259.62,15.87L261.76,16.64L262.84,15.09L266.05,8.31L267.13,8.2L269.27,5.86L270.34,5.75L272.49,5.97L273.56,7.75L278.93,6.97L280,6.31" style="vector-effect: none; fill: none; stroke: rgb(138, 44, 81); stroke-opacity: 1; stroke-width: 5px; opacity: 1;"/></g><g class="points"/><g class="text"/></g><g class="trace scatter trace65955a" style="stroke-miterlimit: 2; opacity: 1;"><g class="fills"/><g class="errorbars"/><g class="lines"><path class="js-line" d="M0,26.54L4.29,28.09L5.36,28.09L8.58,27.87L9.66,27.2L62.22,28.2L63.3,31.32L74.02,30.32L75.1,27.76L77.24,23.98L78.31,24.98L79.39,25.98L80.46,22.65L90.11,22.65L91.19,24.31L92.26,24.31L93.33,22.65L94.41,24.31L95.48,22.31L97.62,21.87L98.7,23.98L100.84,21.87L101.92,21.87L102.99,21.87L104.06,23.98L105.13,23.98L106.21,21.87L108.35,23.98L109.43,21.98L111.57,24.54L112.64,24.54L119.08,25.76L120.15,27.65L123.37,28.43L124.44,28.43L138.39,29.2L139.46,29.87L165.21,30.87L166.28,32.65L173.79,34.98L174.87,32.87L178.08,33.98L179.16,35.43L188.81,35.43L189.89,33.87L192.03,32.98L193.1,32.98L194.18,32.54L195.25,29.98L197.39,29.43L198.47,29.76L209.2,29.2L210.27,32.09L212.41,35.43L213.49,35.54L215.63,33.76L216.7,32.98L218.85,35.1L219.92,34.54L224.21,32.09L225.29,28.32L226.36,26.98L227.43,28.32L229.58,28.2L230.65,29.98L232.8,29.87L233.87,29.76L236.02,30.2L237.09,31.09L240.31,34.21L241.38,34.21L244.6,32.21L245.67,33.09L247.82,32.43L248.89,30.2L251.03,23.98L252.11,24.2L255.33,23.09L256.4,22.76L258.54,24.2L259.62,22.98L261.76,22.2L262.84,23.76L266.05,30.54L267.13,30.65L269.27,32.98L270.34,33.09L272.49,32.87L273.56,31.09L278.93,31.87L280,32.54" style="vector-effect: none; fill: none; stroke: rgb(0, 174, 239); stroke-opacity: 1; stroke-width: 5px; opacity: 1;"/></g><g class="points"/><g class="text"/></g><g class="trace scatter trace4801ae" style="stroke-miterlimit: 2; opacity: 1;"><g class="fills"/><g class="errorbars"/><g class="lines"><path class="js-line" d="M0,66.22L6.44,66.44L7.51,64.88L9.66,68.33L10.73,68.33L77.24,68.89L78.31,69.33L80.46,69L81.53,69L114.79,70.11L115.86,70.33L127.66,71.55L128.74,71.78L133.03,72.11L134.1,72.11L173.79,73.33L174.87,73.67L178.08,73.89" style="vector-effect: none; fill: none; stroke: rgb(202, 166, 105); stroke-opacity: 1; stroke-width: 5px; opacity: 1;"/></g><g class="points"/><g class="text"/></g><g class="trace scatter trace8539a4" style="stroke-miterlimit: 2; opacity: 1;"><g class="fills"/><g class="errorbars"/><g class="lines"><path class="js-line" d="M0,63.77L7.51,64.88L8.58,64.22L11.8,63.55L12.87,63.55L46.13,63.77L47.2,65.11L62.22,64.22L63.3,56.99L75.1,57.66L76.17,58.33L95.48,58.66L96.55,59.1L108.35,58.33L109.43,61.55L111.57,59.33L112.64,59.33L113.72,59.44L114.79,61.11L116.93,62.44L118.01,62.44L119.08,62.11L120.15,63.22L126.59,63.33L127.66,63.22L135.17,63.88L136.25,63.88L138.39,63.44L139.46,62.44L140.54,62.44L141.61,60.88L150.19,60.88L151.26,62.33L156.63,64.33L157.7,64.33L159.85,65.22L160.92,65.22L173.79,65.55L174.87,69L194.18,70.11L195.25,71.11L209.2,72.22L210.27,73L215.63,73.55" style="vector-effect: none; fill: none; stroke: rgb(255, 1, 170); stroke-opacity: 1; stroke-width: 5px; opacity: 1;"/></g><g class="points"/><g class="text"/></g><g class="trace scatter trace84bc8c" style="stroke-miterlimit: 2; opacity: 1;"><g class="fills"/><g class="errorbars"/><g class="lines"><path class="js-line" d="M0,63.33L6.44,63.77L7.51,63.33L27.89,64.66L28.97,64.66L46.13,64.44L47.2,66.11L62.22,65.44L63.3,66.89L75.1,67.22L76.17,68.44L78.31,67.77L79.39,67.11L81.53,69L82.61,69L109.43,68.11L110.5,67.33L114.79,68.55L115.86,69.11L126.59,70.33L127.66,70.78L135.17,71.55L136.25,71.55L173.79,71.55L174.87,73.67L178.08,73.89" style="vector-effect: none; fill: none; stroke: rgb(238, 58, 67); stroke-opacity: 1; stroke-width: 5px; opacity: 1;"/></g><g class="points"/><g class="text"/></g></g></g><g class="overplot"/><path class="xlines-above crisp" d="M0,0" style="fill: none;"/><path class="ylines-above crisp" d="M0,0" style="fill: none;"/><g class="overlines-above"/><g class="xaxislayer-above"/><g class="yaxislayer-above"/><g class="overaxes-above"/></g></g><g class="polarlayer"/><g class="smithlayer"/><g class="ternarylayer"/><g class="geolayer"/><g class="funnelarealayer"/><g class="pielayer"/><g class="iciclelayer"/><g class="treemaplayer"/><g class="sunburstlayer"/><g class="glimages"/><defs id="topdefs-539f2e"><g class="clips"/></defs><g class="layer-above"><g class="imagelayer"/><g class="shapelayer"/></g><g class="infolayer"><g class="g-gtitle"><text class="gtitle" x="15" y="25" text-anchor="start" dy="0em" style="font-family: Ubuntu, verdana, arial, sans-serif; font-size: 16px; fill: rgb(233, 84, 32); opacity: 1; font-weight: normal; white-space: pre;">Prezident/ka 2024</text></g><g class="g-xtitle"/><g class="g-ytitle"/></g></svg>