<svg class="main-svg" xmlns="http://www.w3.org/2000/svg" xmlns:xlink="http://www.w3.org/1999/xlink" width="300" height="135" style="" viewBox="0 0 300 135"><rect x="0" y="0" width="300" height="135" style="fill: rgb(255, 255, 255); fill-opacity: 1;"/><defs id="defs-b91e94"><g class="clips"><clipPath id="clipb91e94xyplot" class="plotclip"><rect width="280" height="75"/></clipPath><clipPath class="axesclip" id="clipb91e94x"><rect x="10" y="0" width="280" height="135"/></clipPath><clipPath class="axesclip" id="clipb91e94y"><rect x="0" y="50" width="300" height="75"/></clipPath><clipPath class="axesclip" id="clipb91e94xy"><rect x="10" y="50" width="280" height="75"/></clipPath></g><g class="gradients"/><g class="patterns"/></defs><g class="bglayer"/><g class="layer-below"><g class="imagelayer"/><g class="shapelayer"/></g><g class="cartesianlayer"><g class="subplot xy"><g class="layer-subplot"><g class="shapelayer"/><g class="imagelayer"/></g><g class="minor-gridlayer"><g class="x"/><g class="y"/></g><g class="gridlayer"><g class="x"><path class="xgrid crisp" transform="translate(24.43,0)" d="M0,50v75" style="stroke: rgb(235, 240, 248); stroke-opacity: 1; stroke-width: 1px;"/><path class="xgrid crisp" transform="translate(113.92,0)" d="M0,50v75" style="stroke: rgb(235, 240, 248); stroke-opacity: 1; stroke-width: 1px;"/><path class="xgrid crisp" transform="translate(201.96,0)" d="M0,50v75" style="stroke: rgb(235, 240, 248); stroke-opacity: 1; stroke-width: 1px;"/></g><g class="y"><path class="ygrid crisp" transform="translate(0,101.28999999999999)" d="M10,0h280" style="stroke: rgb(235, 240, 248); stroke-opacity: 1; stroke-width: 1px;"/><path class="ygrid crisp" transform="translate(0,77.58)" d="M10,0h280" style="stroke: rgb(235, 240, 248); stroke-opacity: 1; stroke-width: 1px;"/><path class="ygrid crisp" transform="translate(0,53.87)" d="M10,0h280" style="stroke: rgb(235, 240, 248); stroke-opacity: 1; stroke-width: 1px;"/></g></g><g class="zerolinelayer"><path class="yzl zl crisp" transform="translate(0,125)" d="M10,0h280" style="stroke: rgb(235, 240, 248); stroke-opacity: 1; stroke-width: 2px;"/></g><path class="xlines-below"/><path class="ylines-below"/><g class="overlines-below"/><g class="xaxislayer-below"/><g class="yaxislayer-below"/><g class="overaxes-below"/><g class="plot" transform="translate(10,50)" clip-path="url(#clipb91e94xyplot)"><g class="scatterlayer mlayer"><g class="trace scatter tracee69847" style="stroke-miterlimit: 2; opacity: 1;"><g class="fills"/><g class="errorbars"/><g class="lines"><path class="js-line" d="M0,50.22L4.33,47.14L5.77,47.14L11.55,47.38L12.99,46.55L33.2,45.6L34.64,44.89L62.06,44.06L63.51,39.08L80.82,39.08L83.71,42.52L85.15,41.81L88.04,41.81L99.59,41.57L101.03,44.18L103.92,45.48L105.36,45.01L106.8,44.53L108.25,45.6L145.77,44.89L147.22,42.52L150.1,43.47L151.55,43.47L152.99,43.23L154.43,39.32L157.32,36.94L158.76,36.94L160.21,36.35L161.65,32.44L164.54,30.19L165.98,30.19L170.31,29.48L171.75,28.41L176.08,25.8L177.53,25.8L189.07,26.16L190.52,27.34L202.06,27.34L203.51,25.68L204.95,25.68L206.39,22.84L212.16,22.84L213.61,19.64L222.27,19.64L223.71,17.74L226.6,17.03L228.04,17.03L233.81,14.66L235.26,10.63L238.14,10.63L239.59,8.61L241.03,3.75L242.47,3.75L254.02,3.75L255.46,5.53L258.35,6.36L259.79,6.36L261.24,6.83L262.68,8.73L265.57,8.97L267.01,8.14L280,8.49" style="vector-effect: none; fill: none; stroke: rgb(138, 44, 81); stroke-opacity: 1; stroke-width: 5px; opacity: 1;"/></g><g class="points"/><g class="text"/></g><g class="trace scatter trace889c6f" style="stroke-miterlimit: 2; opacity: 1;"><g class="fills"/><g class="errorbars"/><g class="lines"><path class="js-line" d="M0,23.31L4.33,24.97L5.77,24.97L11.55,24.73L12.99,24.02L83.71,25.09L85.15,28.41L99.59,27.34L101.03,24.62L102.47,20.58L103.92,20.58L106.8,22.72L108.25,19.16L121.24,19.16L122.68,20.94L124.12,20.94L125.57,19.16L127.01,20.94L128.45,18.81L131.34,18.33L132.78,20.58L135.67,18.33L137.11,18.33L138.56,18.33L140,20.58L141.44,20.58L142.89,18.33L145.77,20.58L147.22,18.45L148.66,21.18L150.1,21.18L158.76,21.89L160.21,22.48L163.09,25.21L164.54,25.33L186.19,26.16L187.63,26.87L204.95,26.99L206.39,28.17L222.27,27.93L223.71,29.83L233.81,32.32L235.26,30.07L239.59,31.25L241.03,32.8L254.02,32.8L255.46,31.14L258.35,30.19L259.79,30.19L261.24,29.71L262.68,26.99L265.57,26.39L267.01,26.75L280,26.16" style="vector-effect: none; fill: none; stroke: rgb(0, 174, 239); stroke-opacity: 1; stroke-width: 5px; opacity: 1;"/></g><g class="points"/><g class="text"/></g><g class="trace scatter trace4ce0fd" style="stroke-miterlimit: 2; opacity: 1;"><g class="fills"/><g class="errorbars"/><g class="lines"><path class="js-line" d="M0,63.03L10.1,64.21L11.55,63.5L14.43,62.79L15.88,62.79L62.06,63.03L63.51,64.45L83.71,63.5L85.15,55.79L101.03,56.51L102.47,57.22L128.45,57.57L129.9,58.05L145.77,57.22L147.22,60.66L150.1,58.28L151.55,58.28L152.99,58.4L154.43,60.18L157.32,61.6L158.76,61.6L160.21,61.25L161.65,62.43L168.87,62.67L170.31,62.55L177.53,63.14L178.97,63.14L186.19,62.67L187.63,61.6L189.07,61.6L190.52,59.94L202.06,59.94L203.51,61.49L209.28,63.62L210.72,63.62L230.93,64.8L232.37,64.92L233.81,64.92L235.26,68.6L254.02,69.78L255.46,69.9L264.12,70.85L265.57,71.09L269.9,71.56L271.34,71.56L280,71.8" style="vector-effect: none; fill: none; stroke: rgb(255, 1, 170); stroke-opacity: 1; stroke-width: 5px; opacity: 1;"/></g><g class="points"/><g class="text"/></g><g class="trace scatter tracecfcd2e" style="stroke-miterlimit: 2; opacity: 1;"><g class="fills"/><g class="errorbars"/><g class="lines"><path class="js-line" d="M0,65.63L8.66,65.87L10.1,64.21L12.99,67.89L14.43,67.89L103.92,68.48L105.36,68.95L108.25,68.6L109.69,68.6L154.43,69.78L155.88,70.02L170.31,70.97L171.75,71.32L181.86,71.92L183.3,71.92L229.48,73.1L230.93,73.22L239.59,73.81" style="vector-effect: none; fill: none; stroke: rgb(202, 166, 105); stroke-opacity: 1; stroke-width: 5px; opacity: 1;"/></g><g class="points"/><g class="text"/></g><g class="trace scatter trace83d7bd" style="stroke-miterlimit: 2; opacity: 1;"><g class="fills"/><g class="errorbars"/><g class="lines"><path class="js-line" d="M0,66.7L14.43,66.82L15.88,66.82L53.4,67.18L54.85,68.12L80.82,69.07L83.71,67.65L85.15,70.73L88.04,70.73L106.8,71.68L108.25,72.15L170.31,72.98L171.75,73.46L212.16,73.46" style="vector-effect: none; fill: none; stroke: rgb(255, 192, 203); stroke-opacity: 1; stroke-width: 5px; opacity: 1;"/></g><g class="points"/><g class="text"/></g></g></g><g class="overplot"/><path class="xlines-above crisp" d="M0,0" style="fill: none;"/><path class="ylines-above crisp" d="M0,0" style="fill: none;"/><g class="overlines-above"/><g class="xaxislayer-above"/><g class="yaxislayer-above"/><g class="overaxes-above"/></g></g><g class="polarlayer"/><g class="smithlayer"/><g class="ternarylayer"/><g class="geolayer"/><g class="funnelarealayer"/><g class="pielayer"/><g class="iciclelayer"/><g class="treemaplayer"/><g class="sunburstlayer"/><g class="glimages"/><defs id="topdefs-b91e94"><g class="clips"/></defs><g class="layer-above"><g class="imagelayer"/><g class="shapelayer"/></g><g class="infolayer"><g class="g-gtitle"><text class="gtitle" x="15" y="25" text-anchor="start" dy="0em" style="font-family: Ubuntu, verdana, arial, sans-serif; font-size: 16px; fill: rgb(233, 84, 32); opacity: 1; font-weight: normal; white-space: pre;">Prezident/ka 2024</text></g><g class="g-xtitle"/><g class="g-ytitle"/></g></svg>