<svg class="main-svg" xmlns="http://www.w3.org/2000/svg" xmlns:xlink="http://www.w3.org/1999/xlink" width="1200" height="600" style="" viewBox="0 0 1200 600"><rect x="0" y="0" width="1200" height="600" style="fill: rgb(255, 255, 255); fill-opacity: 1;"/><defs id="defs-7950e4"><g class="clips"><clipPath id="clip7950e4xyplot" class="plotclip"><rect width="980" height="530"/></clipPath><clipPath class="axesclip" id="clip7950e4x"><rect x="50" y="0" width="980" height="600"/></clipPath><clipPath class="axesclip" id="clip7950e4y"><rect x="0" y="20" width="1200" height="530"/></clipPath><clipPath class="axesclip" id="clip7950e4xy"><rect x="50" y="20" width="980" height="530"/></clipPath></g><g class="gradients"/><g class="patterns"/></defs><g class="bglayer"/><g class="layer-below"><g class="imagelayer"/><g class="shapelayer"/></g><g class="cartesianlayer"><g class="subplot xy"><g class="layer-subplot"><g class="shapelayer"/><g class="imagelayer"/></g><g class="minor-gridlayer"><g class="x"/><g class="y"/></g><g class="gridlayer"><g class="x"><path class="xgrid crisp" transform="translate(83.78999999999999,0)" d="M0,20v530" style="stroke: rgb(235, 240, 248); stroke-opacity: 1; stroke-width: 1px;"/><path class="xgrid crisp" transform="translate(188.55,0)" d="M0,20v530" style="stroke: rgb(235, 240, 248); stroke-opacity: 1; stroke-width: 1px;"/><path class="xgrid crisp" transform="translate(293.31,0)" d="M0,20v530" style="stroke: rgb(235, 240, 248); stroke-opacity: 1; stroke-width: 1px;"/><path class="xgrid crisp" transform="translate(394.69,0)" d="M0,20v530" style="stroke: rgb(235, 240, 248); stroke-opacity: 1; stroke-width: 1px;"/><path class="xgrid crisp" transform="translate(499.45,0)" d="M0,20v530" style="stroke: rgb(235, 240, 248); stroke-opacity: 1; stroke-width: 1px;"/><path class="xgrid crisp" transform="translate(600.83,0)" d="M0,20v530" style="stroke: rgb(235, 240, 248); stroke-opacity: 1; stroke-width: 1px;"/><path class="xgrid crisp" transform="translate(705.59,0)" d="M0,20v530" style="stroke: rgb(235, 240, 248); stroke-opacity: 1; stroke-width: 1px;"/><path class="xgrid crisp" transform="translate(810.34,0)" d="M0,20v530" style="stroke: rgb(235, 240, 248); stroke-opacity: 1; stroke-width: 1px;"/><path class="xgrid crisp" transform="translate(908.34,0)" d="M0,20v530" style="stroke: rgb(235, 240, 248); stroke-opacity: 1; stroke-width: 1px;"/><path class="xgrid crisp" transform="translate(1013.1,0)" d="M0,20v530" style="stroke: rgb(235, 240, 248); stroke-opacity: 1; stroke-width: 1px;"/></g><g class="y"><path class="ygrid crisp" transform="translate(0,479.48)" d="M50,0h980" style="stroke: rgb(235, 240, 248); stroke-opacity: 1; stroke-width: 1px;"/><path class="ygrid crisp" transform="translate(0,408.96)" d="M50,0h980" style="stroke: rgb(235, 240, 248); stroke-opacity: 1; stroke-width: 1px;"/><path class="ygrid crisp" transform="translate(0,338.45)" d="M50,0h980" style="stroke: rgb(235, 240, 248); stroke-opacity: 1; stroke-width: 1px;"/><path class="ygrid crisp" transform="translate(0,267.93)" d="M50,0h980" style="stroke: rgb(235, 240, 248); stroke-opacity: 1; stroke-width: 1px;"/><path class="ygrid crisp" transform="translate(0,197.41)" d="M50,0h980" style="stroke: rgb(235, 240, 248); stroke-opacity: 1; stroke-width: 1px;"/><path class="ygrid crisp" transform="translate(0,126.89)" d="M50,0h980" style="stroke: rgb(235, 240, 248); stroke-opacity: 1; stroke-width: 1px;"/><path class="ygrid crisp" transform="translate(0,56.37)" d="M50,0h980" style="stroke: rgb(235, 240, 248); stroke-opacity: 1; stroke-width: 1px;"/></g></g><g class="zerolinelayer"><path class="yzl zl crisp" transform="translate(0,550)" d="M50,0h980" style="stroke: rgb(235, 240, 248); stroke-opacity: 1; stroke-width: 2px;"/></g><path class="xlines-below"/><path class="ylines-below"/><g class="overlines-below"/><g class="xaxislayer-below"/><g class="yaxislayer-below"/><g class="overaxes-below"/><g class="plot" transform="translate(50,20)" clip-path="url(#clip7950e4xyplot)"><g class="scatterlayer mlayer"><g class="trace scatter traceaf9d4f" style="stroke-miterlimit: 2; opacity: 1;"><g class="fills"/><g class="errorbars"/><g class="lines"><path class="js-line" d="M0,222.54L6.76,232.41L10.14,232.41L20.28,232.41L23.66,237.35L30.41,226.77L33.79,226.77L60.83,226.77L64.21,228.18L67.59,229.59L70.97,229.59L77.72,229.59L81.1,233.12L196,233.12L199.38,252.86L226.41,252.86L229.79,249.34L233.17,246.52L236.55,230.3L239.93,206.32L243.31,206.32L250.07,219.01L253.45,197.86L283.86,197.86L287.24,208.44L290.62,208.44L294,197.86L297.38,208.44L300.76,195.74L304.14,192.92L307.52,192.92L310.9,206.32L314.28,192.92L324.41,192.92L327.79,206.32L331.17,206.32L334.55,192.92L337.93,206.32L341.31,206.32L344.69,193.63L348.07,209.85L358.21,209.85L361.59,214.08L371.72,214.08L375.1,217.6L378.48,229.59L381.86,233.82L388.62,234.53L392,234.53L402.14,234.53L405.52,236.64L412.28,237.35L415.66,237.35L432.55,237.35L435.93,239.46L439.31,243.7L442.69,243.7L446.07,246.52L452.83,246.52L476.48,247.22L479.86,244.4L483.24,251.45L486.62,251.45L496.76,251.45L500.14,250.04L520.41,250.04L523.79,261.33L527.17,264.15L530.55,264.15L533.93,264.15L537.31,268.38L544.07,276.13L547.45,276.13L550.83,262.74L554.21,262.74L557.59,262.74L560.97,269.79L564.34,278.96L567.72,278.96L594.76,278.96L598.14,269.08L601.52,263.44L604.9,263.44L608.28,263.44L611.66,260.62L615.03,244.4L618.41,239.46L625.17,242.99L628.55,242.99L645.45,242.99L648.83,241.58L652.21,242.99L655.59,239.46L658.97,239.46L662.34,257.8L665.72,271.2L669.1,278.96L672.48,279.66L675.86,277.54L679.24,268.38L682.62,263.44L686,276.84L689.38,276.84L696.14,270.49L699.52,264.85L702.9,258.5L706.28,257.8L709.66,233.82L713.03,225.36L716.41,233.82L719.79,230.3L723.17,233.12L726.55,244.4L729.93,247.22L733.31,243.7L740.07,241.58L743.45,245.81L746.83,251.45L750.21,261.33L753.59,271.2L756.97,271.2L760.34,271.2L763.72,268.38L767.1,259.92L770.48,258.5L773.86,264.15L777.24,264.85L780.62,259.92L784,245.81L787.38,218.31L790.76,206.32L794.14,207.73L797.52,207.73L800.9,207.03L804.28,200.68L807.66,198.56L811.03,199.97L814.41,207.73L817.79,199.97L824.55,195.04L827.93,204.91L831.31,226.07L834.69,238.76L838.07,247.93L841.45,248.63L844.83,264.15L848.21,263.44L851.59,264.15L854.97,267.67L858.34,262.74L861.72,251.45L871.86,251.45L875.24,254.98L878.62,256.39L882,260.62L888.76,260.62L892.14,263.44L895.52,270.49L898.9,273.31L902.28,277.54L905.66,296.58L909.03,302.93L912.41,302.93L915.79,309.98L919.17,311.39L922.55,315.62L925.93,326.2L929.31,328.32L932.69,309.28L936.07,176.7L939.45,169.65L942.83,171.77L946.21,168.24" style="vector-effect: none; fill: none; stroke: rgb(0, 174, 239); stroke-opacity: 1; stroke-width: 5px; opacity: 1;"/></g><g class="points"/><g class="text"/></g><g class="trace scatter trace73249f" style="stroke-miterlimit: 2; opacity: 1;"><g class="fills"/><g class="errorbars"/><g class="lines"><path class="js-line" d="M0,382.62L6.76,364.28L10.14,364.28L20.28,364.28L23.66,369.22L30.41,360.76L33.79,360.76L47.31,360.76L50.69,358.64L60.83,358.64L64.21,356.53L67.59,355.11L70.97,355.11L77.72,355.11L81.1,350.88L125.03,350.88L128.41,345.95L145.31,345.95L148.69,316.33L189.24,316.33L196,336.78L199.38,332.55L206.14,332.55L229.79,331.84L233.17,331.14L236.55,346.65L239.93,354.41L243.31,354.41L246.69,351.59L250.07,348.77L253.45,355.11L283.86,355.11L287.24,352.29L290.62,352.29L294,355.11L297.38,352.29L300.76,354.41L304.14,352.29L307.52,352.29L310.9,350.88L314.28,352.29L324.41,352.29L327.79,350.88L331.17,350.88L334.55,352.29L337.93,350.88L341.31,350.88L344.69,336.78L348.07,342.42L354.83,342.42L358.21,341.01L361.59,317.74L364.97,303.64L371.72,303.64L375.1,300.11L378.48,276.84L381.86,265.56L385.24,263.44L388.62,263.44L395.38,263.44L398.76,259.21L405.52,247.22L408.9,237.35L435.93,238.05L439.31,239.46L442.69,239.46L446.07,246.52L473.1,246.52L476.48,236.64L479.86,236.64L483.24,219.72L496.76,219.72L500.14,200.68L520.41,200.68L523.79,189.4L527.17,185.17L530.55,185.17L533.93,185.17L537.31,180.93L540.69,174.59L544.07,171.06L547.45,171.06L550.83,147.09L557.59,147.09L560.97,135.1L564.34,106.19L567.72,106.19L594.76,106.19L598.14,116.76L601.52,121.7L604.9,121.7L608.28,121.7L611.66,124.52L615.03,135.8L618.41,140.03L621.79,137.21L625.17,132.28L648.83,132.28L652.21,130.87L655.59,134.39L658.97,132.98L665.72,94.2L669.1,86.44L672.48,85.74L675.86,87.85L679.24,96.31L682.62,91.38L686,77.98L689.38,77.98L696.14,84.32L699.52,89.97L702.9,96.31L706.28,97.02L709.66,120.99L713.03,129.46L716.41,120.99L719.79,124.52L723.17,121.7L726.55,110.42L729.93,107.6L733.31,111.12L740.07,113.24L743.45,109.01L746.83,103.36L750.21,93.49L753.59,83.62L756.97,83.62L760.34,83.62L763.72,86.44L767.1,94.9L770.48,96.31L773.86,90.67L777.24,89.97L780.62,94.9L784,109.01L787.38,136.51L790.76,148.5L794.14,147.09L797.52,147.09L800.9,147.79L804.28,154.14L807.66,156.25L811.03,154.84L814.41,147.09L817.79,154.84L824.55,159.78L827.93,149.91L831.31,128.75L834.69,116.06L838.07,106.89L841.45,106.19L844.83,90.67L848.21,91.38L851.59,90.67L854.97,87.15L858.34,92.08L861.72,103.36L871.86,103.36L875.24,99.84L878.62,98.43L882,94.2L888.76,94.2L892.14,91.38L895.52,84.32L898.9,81.5L902.28,77.27L905.66,58.23L909.03,51.89L912.41,51.89L915.79,44.83L919.17,43.42L922.55,39.19L925.93,28.62L929.31,26.5L932.69,45.54L936.07,178.11L939.45,185.17L942.83,183.05L946.21,186.58" style="vector-effect: none; fill: none; stroke: rgb(138, 44, 81); stroke-opacity: 1; stroke-width: 5px; opacity: 1;"/></g><g class="points"/><g class="text"/></g><g class="trace scatter tracebd71bc" style="stroke-miterlimit: 2; opacity: 1;"><g class="fills"/><g class="errorbars"/><g class="lines"><path class="js-line" d="M0,455.96L6.76,458.78L10.14,458.78L20.28,458.78L23.66,455.96L27.03,456.66L30.41,460.19L60.83,460.89L64.21,463.01L67.59,464.42L70.97,464.42L125.03,464.42L128.41,463.01L145.31,463.01L148.69,473.59L189.24,473.59L196,469.35L199.38,478.52L206.14,478.52L229.79,479.23L233.17,480.64L236.55,480.64L239.93,488.39L243.31,488.39L246.69,484.16L250.07,479.93L253.45,491.92L283.86,491.92L287.24,486.28L290.62,486.28L294,491.92L297.38,486.28L300.76,491.21L307.52,491.21L310.9,485.57L314.28,491.21L317.66,491.21L324.41,491.21L327.79,485.57L331.17,485.57L334.55,491.21L337.93,485.57L341.31,485.57L344.69,486.28L348.07,481.34L358.21,482.05L361.59,489.1L364.97,492.63L368.34,492.63L371.72,492.63L375.1,494.04L385.24,498.97L388.62,498.97L395.38,498.97L398.76,500.38L408.9,508.14L412.28,508.14L496.76,508.14L500.14,507.43L547.45,508.14L550.83,521.54L557.59,521.54L560.97,522.95" style="vector-effect: none; fill: none; stroke: rgb(238, 58, 67); stroke-opacity: 1; stroke-width: 5px; opacity: 1;"/></g><g class="points"/><g class="text"/></g><g class="trace scatter tracec2165e" style="stroke-miterlimit: 2; opacity: 1;"><g class="fills"/><g class="errorbars"/><g class="lines"><path class="js-line" d="M0,474.29L10.14,475.7L13.52,475.7L20.28,475.7L23.66,465.83L30.41,487.69L33.79,487.69L64.21,486.98L67.59,486.28L145.31,485.57L148.69,489.1L189.24,489.1L196,487.69L199.38,490.51L206.14,490.51L229.79,491.21L233.17,491.92L243.31,491.21L246.69,494.04L250.07,496.86L253.45,491.92L283.86,491.92L287.24,494.04L290.62,494.04L294,491.92L297.38,494.04L300.76,493.33L304.14,496.15L307.52,496.15L310.9,496.86L314.28,496.15L341.31,496.86L344.69,498.97L361.59,498.97L364.97,500.38L375.1,501.09L378.48,501.79L385.24,504.61L388.62,504.61L395.38,504.61L398.76,506.02L408.9,511.67L412.28,511.67L496.76,511.67L500.14,518.72L547.45,519.42L550.83,521.54L557.59,521.54L560.97,522.95" style="vector-effect: none; fill: none; stroke: rgb(202, 166, 105); stroke-opacity: 1; stroke-width: 5px; opacity: 1;"/></g><g class="points"/><g class="text"/></g><g class="trace scatter trace03ca49" style="stroke-miterlimit: 2; opacity: 1;"><g class="fills"/><g class="errorbars"/><g class="lines"><path class="js-line" d="M0,458.78L6.76,460.89L10.14,460.89L20.28,460.89L23.66,465.83L30.41,457.37L33.79,457.37L47.31,457.37L50.69,458.78L64.21,458.07L67.59,457.37L125.03,457.37L128.41,458.78L145.31,458.78L148.69,467.24L189.24,467.24L196,461.6L199.38,415.76L206.14,415.76L226.41,415.76L229.79,417.88L233.17,419.99L236.55,419.99L239.93,424.22L243.31,424.22L250.07,419.29L253.45,424.93L283.86,424.93L287.24,422.11L290.62,422.11L294,424.93L297.38,422.11L300.76,426.34L304.14,429.16L307.52,429.16L310.9,424.22L314.28,429.16L324.41,429.16L327.79,424.22L331.17,424.22L334.55,429.16L337.93,424.22L341.31,424.22L344.69,444.67L348.07,430.57L358.21,431.27L361.59,441.85L364.97,450.31L368.34,450.31L371.72,450.31L375.1,448.2L378.48,455.25L381.86,456.66L398.76,455.96L402.14,455.25L405.52,456.66L408.9,459.48L432.55,459.48L435.93,456.66L439.31,450.31L442.69,450.31L446.07,440.44L452.83,440.44L473.1,440.44L476.48,449.61L479.86,452.43L483.24,462.3L496.76,462.3L500.14,467.94L537.31,468.65L540.69,469.35L547.45,470.06L550.83,491.92L557.59,491.92L560.97,494.74L564.34,498.97L567.72,498.97L611.66,498.97L615.03,505.32L618.41,505.32L621.79,506.73L625.17,509.55L628.55,509.55L645.45,509.55L648.83,510.96L655.59,510.96L658.97,512.37L662.34,517.31L665.72,519.42L675.86,519.42L679.24,520.83" style="vector-effect: none; fill: none; stroke: rgb(255, 1, 170); stroke-opacity: 1; stroke-width: 5px; opacity: 1;"/></g><g class="points"/><g class="text"/></g><g class="trace scatter trace5a0ac4" style="stroke-miterlimit: 2; opacity: 1;"><g class="fills"/><g class="errorbars"/><g class="lines"><path class="js-line" d="M0,480.64L10.14,482.75L13.52,482.75L23.66,482.05L27.03,480.64L33.79,481.34L37.17,481.34L47.31,481.34L50.69,482.75L77.72,482.05L81.1,483.46L125.03,483.46L128.41,489.1L145.31,489.1L148.69,494.74L189.24,494.74L196,486.28L199.38,504.61L206.14,504.61L236.55,505.32L239.93,510.25L250.07,510.25L253.45,513.08L283.86,513.08L287.24,511.67L290.62,511.67L294,513.08L297.38,511.67L300.76,513.08L307.52,513.08L310.9,511.67L314.28,513.08L317.66,513.08L324.41,513.08L327.79,511.67L331.17,511.67L334.55,513.08L337.93,511.67L341.31,511.67L344.69,513.78L348.07,512.37L371.72,513.08L375.1,513.78L381.86,515.9L385.24,516.6L395.38,516.6L398.76,518.01L402.14,520.83L405.52,520.83L412.28,521.54L415.66,521.54L496.76,520.83" style="vector-effect: none; fill: none; stroke: rgb(255, 192, 203); stroke-opacity: 1; stroke-width: 5px; opacity: 1;"/></g><g class="points"/><g class="text"/></g></g></g><g class="overplot"/><path class="xlines-above crisp" d="M0,0" style="fill: none;"/><path class="ylines-above crisp" d="M0,0" style="fill: none;"/><g class="overlines-above"/><g class="xaxislayer-above"><g class="xtick"><text text-anchor="middle" x="0" y="563" transform="translate(83.78999999999999,0)" style="font-family: 'Open Sans', verdana, arial, sans-serif; font-size: 12px; fill: rgb(42, 63, 95); fill-opacity: 1; white-space: pre; opacity: 1;">1.7.23</text></g><g class="xtick"><text text-anchor="middle" x="0" y="563" style="font-family: 'Open Sans', verdana, arial, sans-serif; font-size: 12px; fill: rgb(42, 63, 95); fill-opacity: 1; white-space: pre; opacity: 1;" transform="translate(188.55,0)">1.8.23</text></g><g class="xtick"><text text-anchor="middle" x="0" y="563" style="font-family: 'Open Sans', verdana, arial, sans-serif; font-size: 12px; fill: rgb(42, 63, 95); fill-opacity: 1; white-space: pre; opacity: 1;" transform="translate(293.31,0)">1.9.23</text></g><g class="xtick"><text text-anchor="middle" x="0" y="563" style="font-family: 'Open Sans', verdana, arial, sans-serif; font-size: 12px; fill: rgb(42, 63, 95); fill-opacity: 1; white-space: pre; opacity: 1;" transform="translate(394.69,0)">1.10.23</text></g><g class="xtick"><text text-anchor="middle" x="0" y="563" style="font-family: 'Open Sans', verdana, arial, sans-serif; font-size: 12px; fill: rgb(42, 63, 95); fill-opacity: 1; white-space: pre; opacity: 1;" transform="translate(499.45,0)">1.11.23</text></g><g class="xtick"><text text-anchor="middle" x="0" y="563" style="font-family: 'Open Sans', verdana, arial, sans-serif; font-size: 12px; fill: rgb(42, 63, 95); fill-opacity: 1; white-space: pre; opacity: 1;" transform="translate(600.83,0)">1.12.23</text></g><g class="xtick"><text text-anchor="middle" x="0" y="563" style="font-family: 'Open Sans', verdana, arial, sans-serif; font-size: 12px; fill: rgb(42, 63, 95); fill-opacity: 1; white-space: pre; opacity: 1;" transform="translate(705.59,0)">1.1.24</text></g><g class="xtick"><text text-anchor="middle" x="0" y="563" style="font-family: 'Open Sans', verdana, arial, sans-serif; font-size: 12px; fill: rgb(42, 63, 95); fill-opacity: 1; white-space: pre; opacity: 1;" transform="translate(810.34,0)">1.2.24</text></g><g class="xtick"><text text-anchor="middle" x="0" y="563" style="font-family: 'Open Sans', verdana, arial, sans-serif; font-size: 12px; fill: rgb(42, 63, 95); fill-opacity: 1; white-space: pre; opacity: 1;" transform="translate(908.34,0)">1.3.24</text></g><g class="xtick"><text text-anchor="middle" x="0" y="563" style="font-family: 'Open Sans', verdana, arial, sans-serif; font-size: 12px; fill: rgb(42, 63, 95); fill-opacity: 1; white-space: pre; opacity: 1;" transform="translate(1013.1,0)">1.4.24</text></g></g><g class="yaxislayer-above"><g class="ytick"><text text-anchor="end" x="49" y="4.199999999999999" transform="translate(0,550)" style="font-family: 'Open Sans', verdana, arial, sans-serif; font-size: 12px; fill: rgb(42, 63, 95); fill-opacity: 1; white-space: pre; opacity: 1;">0%</text></g><g class="ytick"><text text-anchor="end" x="49" y="4.199999999999999" style="font-family: 'Open Sans', verdana, arial, sans-serif; font-size: 12px; fill: rgb(42, 63, 95); fill-opacity: 1; white-space: pre; opacity: 1;" transform="translate(0,479.48)">10%</text></g><g class="ytick"><text text-anchor="end" x="49" y="4.199999999999999" style="font-family: 'Open Sans', verdana, arial, sans-serif; font-size: 12px; fill: rgb(42, 63, 95); fill-opacity: 1; white-space: pre; opacity: 1;" transform="translate(0,408.96)">20%</text></g><g class="ytick"><text text-anchor="end" x="49" y="4.199999999999999" style="font-family: 'Open Sans', verdana, arial, sans-serif; font-size: 12px; fill: rgb(42, 63, 95); fill-opacity: 1; white-space: pre; opacity: 1;" transform="translate(0,338.45)">30%</text></g><g class="ytick"><text text-anchor="end" x="49" y="4.199999999999999" style="font-family: 'Open Sans', verdana, arial, sans-serif; font-size: 12px; fill: rgb(42, 63, 95); fill-opacity: 1; white-space: pre; opacity: 1;" transform="translate(0,267.93)">40%</text></g><g class="ytick"><text text-anchor="end" x="49" y="4.199999999999999" style="font-family: 'Open Sans', verdana, arial, sans-serif; font-size: 12px; fill: rgb(42, 63, 95); fill-opacity: 1; white-space: pre; opacity: 1;" transform="translate(0,197.41)">50%</text></g><g class="ytick"><text text-anchor="end" x="49" y="4.199999999999999" style="font-family: 'Open Sans', verdana, arial, sans-serif; font-size: 12px; fill: rgb(42, 63, 95); fill-opacity: 1; white-space: pre; opacity: 1;" transform="translate(0,126.89)">60%</text></g><g class="ytick"><text text-anchor="end" x="49" y="4.199999999999999" style="font-family: 'Open Sans', verdana, arial, sans-serif; font-size: 12px; fill: rgb(42, 63, 95); fill-opacity: 1; white-space: pre; opacity: 1;" transform="translate(0,56.37)">70%</text></g></g><g class="overaxes-above"/></g></g><g class="polarlayer"/><g class="smithlayer"/><g class="ternarylayer"/><g class="geolayer"/><g class="funnelarealayer"/><g class="pielayer"/><g class="iciclelayer"/><g class="treemaplayer"/><g class="sunburstlayer"/><g class="glimages"/><defs id="topdefs-7950e4"><g class="clips"/><clipPath id="legend7950e4"><rect width="138" height="124" x="0" y="0"/></clipPath></defs><g class="layer-above"><g class="imagelayer"/><g class="shapelayer"/></g><g class="infolayer"><g class="legend" pointer-events="all" transform="translate(1049.6,20)"><rect class="bg" shape-rendering="crispEdges" width="138" height="124" x="0" y="0" style="stroke: rgb(68, 68, 68); stroke-opacity: 1; fill: rgb(255, 255, 255); fill-opacity: 1; stroke-width: 0px;"/><g class="scrollbox" transform="" clip-path="url(#legend7950e4)"><g class="groups"><g class="traces" transform="translate(0,14.5)" style="opacity: 1;"><text class="legendtext" text-anchor="start" x="40" y="4.680000000000001" style="font-family: 'Open Sans', verdana, arial, sans-serif; font-size: 12px; fill: rgb(42, 63, 95); fill-opacity: 1; white-space: pre;">Korčok Ivan</text><g class="layers" style="opacity: 1;"><g class="legendfill"/><g class="legendlines"><path class="js-line" d="M5,0h30" style="fill: none; stroke: rgb(0, 174, 239); stroke-opacity: 1; stroke-width: 5px;"/></g><g class="legendsymbols"><g class="legendpoints"/></g></g><rect class="legendtoggle" x="0" y="-9.5" width="132.375" height="19" style="fill: rgb(0, 0, 0); fill-opacity: 0;"/></g><g class="traces" transform="translate(0,33.5)" style="opacity: 1;"><text class="legendtext" text-anchor="start" x="40" y="4.680000000000001" style="font-family: 'Open Sans', verdana, arial, sans-serif; font-size: 12px; fill: rgb(42, 63, 95); fill-opacity: 1; white-space: pre;">Pellegrini Peter</text><g class="layers" style="opacity: 1;"><g class="legendfill"/><g class="legendlines"><path class="js-line" d="M5,0h30" style="fill: none; stroke: rgb(138, 44, 81); stroke-opacity: 1; stroke-width: 5px;"/></g><g class="legendsymbols"><g class="legendpoints"/></g></g><rect class="legendtoggle" x="0" y="-9.5" width="132.375" height="19" style="fill: rgb(0, 0, 0); fill-opacity: 0;"/></g><g class="traces" transform="translate(0,52.5)" style="opacity: 1;"><text class="legendtext" text-anchor="start" x="40" y="4.680000000000001" style="font-family: 'Open Sans', verdana, arial, sans-serif; font-size: 12px; fill: rgb(42, 63, 95); fill-opacity: 1; white-space: pre;">Fico Robert</text><g class="layers" style="opacity: 1;"><g class="legendfill"/><g class="legendlines"><path class="js-line" d="M5,0h30" style="fill: none; stroke: rgb(238, 58, 67); stroke-opacity: 1; stroke-width: 5px;"/></g><g class="legendsymbols"><g class="legendpoints"/></g></g><rect class="legendtoggle" x="0" y="-9.5" width="132.375" height="19" style="fill: rgb(0, 0, 0); fill-opacity: 0;"/></g><g class="traces" transform="translate(0,71.5)" style="opacity: 1;"><text class="legendtext" text-anchor="start" x="40" y="4.680000000000001" style="font-family: 'Open Sans', verdana, arial, sans-serif; font-size: 12px; fill: rgb(42, 63, 95); fill-opacity: 1; white-space: pre;">Mistrík Robert</text><g class="layers" style="opacity: 1;"><g class="legendfill"/><g class="legendlines"><path class="js-line" d="M5,0h30" style="fill: none; stroke: rgb(202, 166, 105); stroke-opacity: 1; stroke-width: 5px;"/></g><g class="legendsymbols"><g class="legendpoints"/></g></g><rect class="legendtoggle" x="0" y="-9.5" width="132.375" height="19" style="fill: rgb(0, 0, 0); fill-opacity: 0;"/></g><g class="traces" transform="translate(0,90.5)" style="opacity: 1;"><text class="legendtext" text-anchor="start" x="40" y="4.680000000000001" style="font-family: 'Open Sans', verdana, arial, sans-serif; font-size: 12px; fill: rgb(42, 63, 95); fill-opacity: 1; white-space: pre;">Kubiš Ján</text><g class="layers" style="opacity: 1;"><g class="legendfill"/><g class="legendlines"><path class="js-line" d="M5,0h30" style="fill: none; stroke: rgb(255, 1, 170); stroke-opacity: 1; stroke-width: 5px;"/></g><g class="legendsymbols"><g class="legendpoints"/></g></g><rect class="legendtoggle" x="0" y="-9.5" width="132.375" height="19" style="fill: rgb(0, 0, 0); fill-opacity: 0;"/></g><g class="traces" transform="translate(0,109.5)" style="opacity: 1;"><text class="legendtext" text-anchor="start" x="40" y="4.680000000000001" style="font-family: 'Open Sans', verdana, arial, sans-serif; font-size: 12px; fill: rgb(42, 63, 95); fill-opacity: 1; white-space: pre;">Lajčák Miroslav</text><g class="layers" style="opacity: 1;"><g class="legendfill"/><g class="legendlines"><path class="js-line" d="M5,0h30" style="fill: none; stroke: rgb(255, 192, 203); stroke-opacity: 1; stroke-width: 5px;"/></g><g class="legendsymbols"><g class="legendpoints"/></g></g><rect class="legendtoggle" x="0" y="-9.5" width="132.375" height="19" style="fill: rgb(0, 0, 0); fill-opacity: 0;"/></g></g></g><rect class="scrollbar" rx="20" ry="3" width="0" height="0" x="0" y="0" style="fill: rgb(128, 139, 164); fill-opacity: 1;"/></g><g class="g-gtitle"/><g class="g-xtitle"/><g class="g-ytitle"/></g></svg>