<svg class="main-svg" xmlns="http://www.w3.org/2000/svg" xmlns:xlink="http://www.w3.org/1999/xlink" width="400" height="400" style="" viewBox="0 0 400 400"><rect x="0" y="0" width="400" height="400" style="fill: rgb(255, 255, 255); fill-opacity: 1;"/><defs id="defs-1d3efe"><g class="clips"><clipPath id="clip1d3efexyplot" class="plotclip"><rect width="206" height="330"/></clipPath><clipPath class="axesclip" id="clip1d3efex"><rect x="50" y="0" width="206" height="400"/></clipPath><clipPath class="axesclip" id="clip1d3efey"><rect x="0" y="20" width="400" height="330"/></clipPath><clipPath class="axesclip" id="clip1d3efexy"><rect x="50" y="20" width="206" height="330"/></clipPath></g><g class="gradients"/><g class="patterns"/></defs><g class="bglayer"/><g class="layer-below"><g class="imagelayer"/><g class="shapelayer"/></g><g class="cartesianlayer"><g class="subplot xy"><g class="layer-subplot"><g class="shapelayer"/><g class="imagelayer"/></g><g class="minor-gridlayer"><g class="x"/><g class="y"/></g><g class="gridlayer"><g class="x"><path class="xgrid crisp" transform="translate(56.87,0)" d="M0,20v330" style="stroke: rgb(235, 240, 248); stroke-opacity: 1; stroke-width: 1px;"/><path class="xgrid crisp" transform="translate(99.44,0)" d="M0,20v330" style="stroke: rgb(235, 240, 248); stroke-opacity: 1; stroke-width: 1px;"/><path class="xgrid crisp" transform="translate(141.32999999999998,0)" d="M0,20v330" style="stroke: rgb(235, 240, 248); stroke-opacity: 1; stroke-width: 1px;"/><path class="xgrid crisp" transform="translate(183.21,0)" d="M0,20v330" style="stroke: rgb(235, 240, 248); stroke-opacity: 1; stroke-width: 1px;"/><path class="xgrid crisp" transform="translate(224.41,0)" d="M0,20v330" style="stroke: rgb(235, 240, 248); stroke-opacity: 1; stroke-width: 1px;"/></g><g class="y"><path class="ygrid crisp" transform="translate(0,287.43)" d="M50,0h206" style="stroke: rgb(235, 240, 248); stroke-opacity: 1; stroke-width: 1px;"/><path class="ygrid crisp" transform="translate(0,224.85)" d="M50,0h206" style="stroke: rgb(235, 240, 248); stroke-opacity: 1; stroke-width: 1px;"/><path class="ygrid crisp" transform="translate(0,162.28)" d="M50,0h206" style="stroke: rgb(235, 240, 248); stroke-opacity: 1; stroke-width: 1px;"/><path class="ygrid crisp" transform="translate(0,99.7)" d="M50,0h206" style="stroke: rgb(235, 240, 248); stroke-opacity: 1; stroke-width: 1px;"/><path class="ygrid crisp" transform="translate(0,37.129999999999995)" d="M50,0h206" style="stroke: rgb(235, 240, 248); stroke-opacity: 1; stroke-width: 1px;"/></g></g><g class="zerolinelayer"><path class="yzl zl crisp" transform="translate(0,350)" d="M50,0h206" style="stroke: rgb(235, 240, 248); stroke-opacity: 1; stroke-width: 2px;"/></g><path class="xlines-below"/><path class="ylines-below"/><g class="overlines-below"/><g class="xaxislayer-below"/><g class="yaxislayer-below"/><g class="overaxes-below"/><g class="plot" transform="translate(50,20)" clip-path="url(#clip1d3efexyplot)"><g class="scatterlayer mlayer"><g class="trace scatter trace81e3b2" style="stroke-miterlimit: 2; opacity: 1;"><g class="fills"/><g class="errorbars"/><g class="lines"><path class="js-line" d="M0,199.22L2.06,182.95L2.75,182.95L4.12,182.95L4.81,187.33L6.87,179.82L7.55,179.82L9.61,179.82L10.3,177.94L12.36,177.94L13.05,176.07L15.11,174.81L15.79,174.81L17.17,171.06L17.85,171.06L25.41,171.06L26.09,166.68L29.53,166.68L30.21,140.4L38.45,140.4L39.83,158.54L40.51,154.79L41.89,154.79L47.38,153.54L48.07,167.31L49.44,174.19L50.13,171.69L50.81,169.18L51.5,174.81L57.68,174.81L58.37,172.31L59.05,172.31L59.74,174.81L60.43,172.31L61.11,174.19L61.8,172.31L69.35,171.06L70.04,158.54L71.41,163.55L72.1,163.55L72.79,162.3L73.47,141.65L74.85,129.13L75.53,129.13L76.22,126.01L76.91,105.36L78.28,93.47L78.97,93.47L80.34,93.47L81.03,89.71L83.77,70.31L84.46,70.31L88.58,70.94L89.27,72.19L89.95,72.19L90.64,78.45L96.13,78.45L96.82,69.69L97.51,69.69L98.19,54.67L100.94,54.67L101.63,37.78L105.75,37.78L106.43,27.76L107.81,24.01L108.49,24.01L109.87,16.5" style="vector-effect: none; fill: none; stroke: rgb(138, 44, 81); stroke-opacity: 1; stroke-width: 5px; opacity: 1;"/></g><g class="points"/><g class="text"/></g><g class="trace scatter traced8262a" style="stroke-miterlimit: 2; opacity: 1;"><g class="fills"/><g class="errorbars"/><g class="lines"><path class="js-line" d="M0,57.17L2.06,65.93L2.75,65.93L4.12,65.93L4.81,70.31L6.87,60.93L7.55,60.93L13.05,62.18L13.73,63.43L15.79,63.43L16.48,66.56L39.83,66.56L40.51,84.08L46.01,84.08L46.69,80.95L47.38,78.45L48.07,64.06L49.44,42.78L50.13,48.41L50.81,54.04L51.5,35.27L57.68,35.27L58.37,44.66L59.05,44.66L59.74,35.27L60.43,44.66L61.11,33.4L62.49,30.89L63.17,42.78L64.55,30.89L65.23,30.89L65.92,30.89L66.61,42.78L67.29,42.78L67.98,30.89L69.35,42.78L70.04,31.52L71.41,45.91L72.1,45.91L72.79,45.91L73.47,49.66L75.53,49.66L76.22,52.79L78.28,67.81L78.97,67.81L81.71,67.81L82.4,69.69L84.46,70.31L85.15,70.31L87.89,70.31L88.58,72.19L90.64,78.45L92.01,78.45L96.82,79.07L97.51,76.57L98.88,82.83L99.57,82.83L105.75,81.58L106.43,91.59L107.81,94.09L108.49,94.09L109.87,100.98" style="vector-effect: none; fill: none; stroke: rgb(0, 174, 239); stroke-opacity: 1; stroke-width: 5px; opacity: 1;"/></g><g class="points"/><g class="text"/></g><g class="trace scatter trace25bf62" style="stroke-miterlimit: 2; opacity: 1;"><g class="fills"/><g class="errorbars"/><g class="lines"><path class="js-line" d="M0,266.8L2.06,268.68L2.75,268.68L4.12,268.68L4.81,273.06L6.87,265.55L7.55,265.55L29.53,266.8L30.21,274.31L38.45,274.31L39.83,269.3L40.51,228.63L41.89,228.63L46.01,228.63L46.69,230.51L49.44,236.14L50.13,234.26L50.81,231.76L51.5,236.76L57.68,236.76L58.37,234.26L59.05,234.26L59.74,236.76L60.43,234.26L61.11,238.01L62.49,240.52L63.17,236.14L64.55,240.52L65.23,240.52L65.92,240.52L66.61,236.14L67.29,236.14L67.98,240.52L69.35,236.14L70.04,254.28L71.41,241.77L72.1,241.77L72.79,242.4L73.47,251.78L74.85,259.29L75.53,259.29L76.22,257.41L76.91,263.67L78.97,264.92L79.65,264.92L82.4,264.92L83.09,267.43L87.89,267.43L88.58,264.92L90.64,250.53L92.01,250.53L96.13,250.53L96.82,258.66L97.51,261.17L98.19,269.93L100.94,269.93L101.63,274.93L109.18,275.56L109.87,276.19" style="vector-effect: none; fill: none; stroke: rgb(255, 1, 170); stroke-opacity: 1; stroke-width: 5px; opacity: 1;"/></g><g class="points"/><g class="text"/></g><g class="trace scatter trace7dffb5" style="stroke-miterlimit: 2; opacity: 1;"><g class="fills"/><g class="errorbars"/><g class="lines"><path class="js-line" d="M0,264.3L2.75,266.8L3.43,266.8L4.12,266.8L4.81,264.3L5.49,264.92L6.18,268.05L12.36,268.68L13.05,270.55L15.11,271.81L15.79,271.81L25.41,271.81L26.09,270.55L29.53,270.55L30.21,279.94L38.45,279.94L39.83,276.19L40.51,284.32L41.89,284.32L46.69,284.95L47.38,286.2L48.07,286.2L48.75,293.08L49.44,293.08L50.13,289.33L50.81,285.57L51.5,296.21L57.68,296.21L58.37,291.2L59.05,291.2L59.74,296.21L60.43,291.2L61.11,295.58L62.49,295.58L63.17,290.58L64.55,295.58L65.23,295.58L65.92,295.58L66.61,290.58L67.29,290.58L67.98,295.58L69.35,290.58L70.04,291.2L71.41,286.82L72.1,286.82L72.79,287.45L73.47,293.71L74.85,296.84L75.53,296.84L78.97,302.47L79.65,302.47L81.03,303.72L81.71,306.22L84.46,310.6L85.15,310.6L109.87,310.6" style="vector-effect: none; fill: none; stroke: rgb(238, 58, 67); stroke-opacity: 1; stroke-width: 5px; opacity: 1;"/></g><g class="points"/><g class="text"/></g><g class="trace scatter trace1d8fb6" style="stroke-miterlimit: 2; opacity: 1;"><g class="fills"/><g class="errorbars"/><g class="lines"><path class="js-line" d="M0,280.57L2.75,281.82L3.43,281.82L4.12,281.82L4.81,273.06L6.87,292.46L7.55,292.46L13.05,291.83L13.73,291.2L29.53,290.58L30.21,293.71L39.83,292.46L40.51,294.96L49.44,295.58L50.13,298.09L50.81,300.59L51.5,296.21L57.68,296.21L58.37,298.09L59.05,298.09L59.74,296.21L61.8,299.96L62.49,299.96L63.86,299.96L64.55,299.96L69.35,300.59L70.04,302.47L73.47,302.47L74.16,303.72L76.91,304.97L77.59,306.85L79.65,307.47L80.34,307.47L84.46,313.73L85.15,313.73L100.94,313.73L101.63,319.99L109.87,319.99" style="vector-effect: none; fill: none; stroke: rgb(202, 166, 105); stroke-opacity: 1; stroke-width: 5px; opacity: 1;"/></g><g class="points"/><g class="text"/></g><g class="trace scatter trace16d008" style="stroke-miterlimit: 2; opacity: 1;"><g class="fills"/><g class="errorbars"/><g class="lines"><path class="js-line" d="M0,286.2L2.75,288.07L3.43,288.07L4.81,287.45L5.49,286.2L7.55,286.82L8.24,286.82L15.79,287.45L16.48,288.7L25.41,288.7L26.09,293.71L29.53,293.71L30.21,298.71L38.45,298.71L39.83,291.2L40.51,307.47L41.89,307.47L48.07,308.1L48.75,312.48L50.81,312.48L51.5,314.98L69.35,313.73L70.04,315.61L72.1,314.36L72.79,314.36L76.22,315.61L76.91,316.86L79.65,318.11L80.34,318.11L83.09,322.49L83.77,322.49L100.94,321.87" style="vector-effect: none; fill: none; stroke: rgb(255, 192, 203); stroke-opacity: 1; stroke-width: 5px; opacity: 1;"/></g><g class="points"/><g class="text"/></g></g></g><g class="overplot"/><path class="xlines-above crisp" d="M0,0" style="fill: none;"/><path class="ylines-above crisp" d="M0,0" style="fill: none;"/><g class="overlines-above"/><g class="xaxislayer-above"><g class="xtick"><text text-anchor="middle" x="0" y="363" transform="translate(56.87,0)" style="font-family: 'Open Sans', verdana, arial, sans-serif; font-size: 12px; fill: rgb(42, 63, 95); fill-opacity: 1; white-space: pre; opacity: 1;">1.7.23</text></g><g class="xtick"><text text-anchor="middle" x="0" y="363" style="font-family: 'Open Sans', verdana, arial, sans-serif; font-size: 12px; fill: rgb(42, 63, 95); fill-opacity: 1; white-space: pre; opacity: 1;" transform="translate(99.44,0)">1.9.23</text></g><g class="xtick"><text text-anchor="middle" x="0" y="363" style="font-family: 'Open Sans', verdana, arial, sans-serif; font-size: 12px; fill: rgb(42, 63, 95); fill-opacity: 1; white-space: pre; opacity: 1;" transform="translate(141.32999999999998,0)">1.11.23</text></g><g class="xtick"><text text-anchor="middle" x="0" y="363" style="font-family: 'Open Sans', verdana, arial, sans-serif; font-size: 12px; fill: rgb(42, 63, 95); fill-opacity: 1; white-space: pre; opacity: 1;" transform="translate(183.21,0)">1.1.24</text></g><g class="xtick"><text text-anchor="middle" x="0" y="363" style="font-family: 'Open Sans', verdana, arial, sans-serif; font-size: 12px; fill: rgb(42, 63, 95); fill-opacity: 1; white-space: pre; opacity: 1;" transform="translate(224.41,0)">1.3.24</text></g></g><g class="yaxislayer-above"><g class="ytick"><text text-anchor="end" x="49" y="4.199999999999999" transform="translate(0,350)" style="font-family: 'Open Sans', verdana, arial, sans-serif; font-size: 12px; fill: rgb(42, 63, 95); fill-opacity: 1; white-space: pre; opacity: 1;">0%</text></g><g class="ytick"><text text-anchor="end" x="49" y="4.199999999999999" style="font-family: 'Open Sans', verdana, arial, sans-serif; font-size: 12px; fill: rgb(42, 63, 95); fill-opacity: 1; white-space: pre; opacity: 1;" transform="translate(0,287.43)">10%</text></g><g class="ytick"><text text-anchor="end" x="49" y="4.199999999999999" style="font-family: 'Open Sans', verdana, arial, sans-serif; font-size: 12px; fill: rgb(42, 63, 95); fill-opacity: 1; white-space: pre; opacity: 1;" transform="translate(0,224.85)">20%</text></g><g class="ytick"><text text-anchor="end" x="49" y="4.199999999999999" style="font-family: 'Open Sans', verdana, arial, sans-serif; font-size: 12px; fill: rgb(42, 63, 95); fill-opacity: 1; white-space: pre; opacity: 1;" transform="translate(0,162.28)">30%</text></g><g class="ytick"><text text-anchor="end" x="49" y="4.199999999999999" style="font-family: 'Open Sans', verdana, arial, sans-serif; font-size: 12px; fill: rgb(42, 63, 95); fill-opacity: 1; white-space: pre; opacity: 1;" transform="translate(0,99.7)">40%</text></g><g class="ytick"><text text-anchor="end" x="49" y="4.199999999999999" style="font-family: 'Open Sans', verdana, arial, sans-serif; font-size: 12px; fill: rgb(42, 63, 95); fill-opacity: 1; white-space: pre; opacity: 1;" transform="translate(0,37.129999999999995)">50%</text></g></g><g class="overaxes-above"/></g></g><g class="polarlayer"/><g class="smithlayer"/><g class="ternarylayer"/><g class="geolayer"/><g class="funnelarealayer"/><g class="pielayer"/><g class="iciclelayer"/><g class="treemaplayer"/><g class="sunburstlayer"/><g class="glimages"/><defs id="topdefs-1d3efe"><g class="clips"/><clipPath id="legend1d3efe"><rect width="128" height="124" x="0" y="0"/></clipPath></defs><g class="layer-above"><g class="imagelayer"/><g class="shapelayer"/></g><g class="infolayer"><g class="legend" pointer-events="all" transform="translate(260.12,20)"><rect class="bg" shape-rendering="crispEdges" width="128" height="124" x="0" y="0" style="stroke: rgb(68, 68, 68); stroke-opacity: 1; fill: rgb(255, 255, 255); fill-opacity: 1; stroke-width: 0px;"/><g class="scrollbox" transform="" clip-path="url(#legend1d3efe)"><g class="groups"><g class="traces" transform="translate(0,14.5)" style="opacity: 1;"><text class="legendtext" text-anchor="start" x="40" y="4.680000000000001" style="font-family: 'Open Sans', verdana, arial, sans-serif; font-size: 12px; fill: rgb(42, 63, 95); fill-opacity: 1; white-space: pre;">Pellegrini Peter</text><g class="layers" style="opacity: 1;"><g class="legendfill"/><g class="legendlines"><path class="js-line" d="M5,0h30" style="fill: none; stroke: rgb(138, 44, 81); stroke-opacity: 1; stroke-width: 5px;"/></g><g class="legendsymbols"><g class="legendpoints"/></g></g><rect class="legendtoggle" x="0" y="-9.5" width="122.703125" height="19" style="fill: rgb(0, 0, 0); fill-opacity: 0;"/></g><g class="traces" transform="translate(0,33.5)" style="opacity: 1;"><text class="legendtext" text-anchor="start" x="40" y="4.680000000000001" style="font-family: 'Open Sans', verdana, arial, sans-serif; font-size: 12px; fill: rgb(42, 63, 95); fill-opacity: 1; white-space: pre;">Korčok Ivan</text><g class="layers" style="opacity: 1;"><g class="legendfill"/><g class="legendlines"><path class="js-line" d="M5,0h30" style="fill: none; stroke: rgb(0, 174, 239); stroke-opacity: 1; stroke-width: 5px;"/></g><g class="legendsymbols"><g class="legendpoints"/></g></g><rect class="legendtoggle" x="0" y="-9.5" width="122.703125" height="19" style="fill: rgb(0, 0, 0); fill-opacity: 0;"/></g><g class="traces" transform="translate(0,52.5)" style="opacity: 1;"><text class="legendtext" text-anchor="start" x="40" y="4.680000000000001" style="font-family: 'Open Sans', verdana, arial, sans-serif; font-size: 12px; fill: rgb(42, 63, 95); fill-opacity: 1; white-space: pre;">Kubiš Ján</text><g class="layers" style="opacity: 1;"><g class="legendfill"/><g class="legendlines"><path class="js-line" d="M5,0h30" style="fill: none; stroke: rgb(255, 1, 170); stroke-opacity: 1; stroke-width: 5px;"/></g><g class="legendsymbols"><g class="legendpoints"/></g></g><rect class="legendtoggle" x="0" y="-9.5" width="122.703125" height="19" style="fill: rgb(0, 0, 0); fill-opacity: 0;"/></g><g class="traces" transform="translate(0,71.5)" style="opacity: 1;"><text class="legendtext" text-anchor="start" x="40" y="4.680000000000001" style="font-family: 'Open Sans', verdana, arial, sans-serif; font-size: 12px; fill: rgb(42, 63, 95); fill-opacity: 1; white-space: pre;">Fico Robert</text><g class="layers" style="opacity: 1;"><g class="legendfill"/><g class="legendlines"><path class="js-line" d="M5,0h30" style="fill: none; stroke: rgb(238, 58, 67); stroke-opacity: 1; stroke-width: 5px;"/></g><g class="legendsymbols"><g class="legendpoints"/></g></g><rect class="legendtoggle" x="0" y="-9.5" width="122.703125" height="19" style="fill: rgb(0, 0, 0); fill-opacity: 0;"/></g><g class="traces" transform="translate(0,90.5)" style="opacity: 1;"><text class="legendtext" text-anchor="start" x="40" y="4.680000000000001" style="font-family: 'Open Sans', verdana, arial, sans-serif; font-size: 12px; fill: rgb(42, 63, 95); fill-opacity: 1; white-space: pre;">Mistrík Robert</text><g class="layers" style="opacity: 1;"><g class="legendfill"/><g class="legendlines"><path class="js-line" d="M5,0h30" style="fill: none; stroke: rgb(202, 166, 105); stroke-opacity: 1; stroke-width: 5px;"/></g><g class="legendsymbols"><g class="legendpoints"/></g></g><rect class="legendtoggle" x="0" y="-9.5" width="122.703125" height="19" style="fill: rgb(0, 0, 0); fill-opacity: 0;"/></g><g class="traces" transform="translate(0,109.5)" style="opacity: 1;"><text class="legendtext" text-anchor="start" x="40" y="4.680000000000001" style="font-family: 'Open Sans', verdana, arial, sans-serif; font-size: 12px; fill: rgb(42, 63, 95); fill-opacity: 1; white-space: pre;">Lajčák Miroslav</text><g class="layers" style="opacity: 1;"><g class="legendfill"/><g class="legendlines"><path class="js-line" d="M5,0h30" style="fill: none; stroke: rgb(255, 192, 203); stroke-opacity: 1; stroke-width: 5px;"/></g><g class="legendsymbols"><g class="legendpoints"/></g></g><rect class="legendtoggle" x="0" y="-9.5" width="122.703125" height="19" style="fill: rgb(0, 0, 0); fill-opacity: 0;"/></g></g></g><rect class="scrollbar" rx="20" ry="3" width="0" height="0" x="0" y="0" style="fill: rgb(128, 139, 164); fill-opacity: 1;"/></g><g class="g-gtitle"/><g class="g-xtitle"/><g class="g-ytitle"/></g></svg>