<svg class="main-svg" xmlns="http://www.w3.org/2000/svg" xmlns:xlink="http://www.w3.org/1999/xlink" width="1200" height="600" style="" viewBox="0 0 1200 600"><rect x="0" y="0" width="1200" height="600" style="fill: rgb(255, 255, 255); fill-opacity: 1;"/><defs id="defs-40b4b0"><g class="clips"><clipPath id="clip40b4b0xyplot" class="plotclip"><rect width="990" height="530"/></clipPath><clipPath class="axesclip" id="clip40b4b0x"><rect x="50" y="0" width="990" height="600"/></clipPath><clipPath class="axesclip" id="clip40b4b0y"><rect x="0" y="20" width="1200" height="530"/></clipPath><clipPath class="axesclip" id="clip40b4b0xy"><rect x="50" y="20" width="990" height="530"/></clipPath></g><g class="gradients"/><g class="patterns"/></defs><g class="bglayer"/><g class="layer-below"><g class="imagelayer"/><g class="shapelayer"/></g><g class="cartesianlayer"><g class="subplot xy"><g class="layer-subplot"><g class="shapelayer"/><g class="imagelayer"/></g><g class="minor-gridlayer"><g class="x"/><g class="y"/></g><g class="gridlayer"><g class="x"><path class="xgrid crisp" transform="translate(83,0)" d="M0,20v530" style="stroke: rgb(235, 240, 248); stroke-opacity: 1; stroke-width: 1px;"/><path class="xgrid crisp" transform="translate(185.3,0)" d="M0,20v530" style="stroke: rgb(235, 240, 248); stroke-opacity: 1; stroke-width: 1px;"/><path class="xgrid crisp" transform="translate(287.6,0)" d="M0,20v530" style="stroke: rgb(235, 240, 248); stroke-opacity: 1; stroke-width: 1px;"/><path class="xgrid crisp" transform="translate(386.6,0)" d="M0,20v530" style="stroke: rgb(235, 240, 248); stroke-opacity: 1; stroke-width: 1px;"/><path class="xgrid crisp" transform="translate(488.9,0)" d="M0,20v530" style="stroke: rgb(235, 240, 248); stroke-opacity: 1; stroke-width: 1px;"/><path class="xgrid crisp" transform="translate(587.9,0)" d="M0,20v530" style="stroke: rgb(235, 240, 248); stroke-opacity: 1; stroke-width: 1px;"/><path class="xgrid crisp" transform="translate(690.2,0)" d="M0,20v530" style="stroke: rgb(235, 240, 248); stroke-opacity: 1; stroke-width: 1px;"/><path class="xgrid crisp" transform="translate(792.5,0)" d="M0,20v530" style="stroke: rgb(235, 240, 248); stroke-opacity: 1; stroke-width: 1px;"/><path class="xgrid crisp" transform="translate(888.2,0)" d="M0,20v530" style="stroke: rgb(235, 240, 248); stroke-opacity: 1; stroke-width: 1px;"/><path class="xgrid crisp" transform="translate(990.5,0)" d="M0,20v530" style="stroke: rgb(235, 240, 248); stroke-opacity: 1; stroke-width: 1px;"/></g><g class="y"><path class="ygrid crisp" transform="translate(0,470.83)" d="M50,0h990" style="stroke: rgb(235, 240, 248); stroke-opacity: 1; stroke-width: 1px;"/><path class="ygrid crisp" transform="translate(0,391.67)" d="M50,0h990" style="stroke: rgb(235, 240, 248); stroke-opacity: 1; stroke-width: 1px;"/><path class="ygrid crisp" transform="translate(0,312.5)" d="M50,0h990" style="stroke: rgb(235, 240, 248); stroke-opacity: 1; stroke-width: 1px;"/><path class="ygrid crisp" transform="translate(0,233.33)" d="M50,0h990" style="stroke: rgb(235, 240, 248); stroke-opacity: 1; stroke-width: 1px;"/><path class="ygrid crisp" transform="translate(0,154.17)" d="M50,0h990" style="stroke: rgb(235, 240, 248); stroke-opacity: 1; stroke-width: 1px;"/><path class="ygrid crisp" transform="translate(0,75)" d="M50,0h990" style="stroke: rgb(235, 240, 248); stroke-opacity: 1; stroke-width: 1px;"/></g></g><g class="zerolinelayer"><path class="yzl zl crisp" transform="translate(0,550)" d="M50,0h990" style="stroke: rgb(235, 240, 248); stroke-opacity: 1; stroke-width: 2px;"/></g><path class="xlines-below"/><path class="ylines-below"/><g class="overlines-below"/><g class="xaxislayer-below"/><g class="yaxislayer-below"/><g class="overaxes-below"/><g class="plot" transform="translate(50,20)" clip-path="url(#clip40b4b0xyplot)"><g class="scatterlayer mlayer"><g class="trace scatter trace19e28e" style="stroke-miterlimit: 2; opacity: 1;"><g class="fills"/><g class="errorbars"/><g class="lines"><path class="js-line" d="M0,364.54L6.6,343.96L9.9,343.96L19.8,343.96L23.1,349.5L29.7,340L33,340L46.2,340L49.5,337.63L59.4,337.63L62.7,335.25L66,333.67L69.3,333.67L75.9,333.67L79.2,328.92L122.1,328.92L125.4,323.38L141.9,323.38L145.2,290.13L184.8,290.13L191.4,313.08L194.7,308.33L201.3,308.33L224.4,307.54L227.7,306.75L231,324.17L234.3,332.88L237.6,332.88L240.9,329.71L244.2,326.54L247.5,333.67L277.2,333.67L280.5,330.5L283.8,330.5L287.1,333.67L290.4,330.5L293.7,332.88L297,330.5L300.3,330.5L303.6,328.92L306.9,330.5L316.8,330.5L320.1,328.92L323.4,328.92L326.7,330.5L330,328.92L333.3,328.92L336.6,313.08L339.9,319.42L346.5,319.42L349.8,317.83L353.1,291.71L356.4,275.88L363,275.88L366.3,271.92L369.6,245.79L372.9,233.13L376.2,230.75L379.5,230.75L386.1,230.75L389.4,226L396,212.54L399.3,201.46L425.7,202.25L429,203.83L432.3,203.83L435.6,211.75L462,211.75L465.3,200.67L468.6,200.67L471.9,181.67L485.1,181.67L488.4,160.29L508.2,160.29L511.5,147.63L514.8,142.88L518.1,142.88L521.4,142.88L524.7,138.13L528,131L531.3,127.04L534.6,127.04L537.9,100.13L544.5,100.13L547.8,86.67L551.1,54.21L554.4,54.21L580.8,54.21L584.1,66.08L587.4,71.63L590.7,71.63L594,71.63L597.3,74.79L600.6,87.46L603.9,92.21L607.2,89.04L610.5,83.5L633.6,83.5L636.9,81.92L640.2,85.88L643.5,84.29L650.1,40.75L653.4,32.04L656.7,26.5" style="vector-effect: none; fill: none; stroke: rgb(138, 44, 81); stroke-opacity: 1; stroke-width: 5px; opacity: 1;"/></g><g class="points"/><g class="text"/></g><g class="trace scatter tracef669f8" style="stroke-miterlimit: 2; opacity: 1;"><g class="fills"/><g class="errorbars"/><g class="lines"><path class="js-line" d="M0,184.83L6.6,195.92L9.9,195.92L19.8,195.92L23.1,201.46L29.7,189.58L33,189.58L59.4,189.58L62.7,191.17L66,192.75L69.3,192.75L75.9,192.75L79.2,196.71L191.4,196.71L194.7,218.88L221.1,218.88L224.4,214.92L227.7,211.75L231,193.54L234.3,166.63L237.6,166.63L244.2,180.88L247.5,157.13L277.2,157.13L280.5,169L283.8,169L287.1,157.13L290.4,169L293.7,154.75L297,151.58L300.3,151.58L303.6,166.63L306.9,151.58L316.8,151.58L320.1,166.63L323.4,166.63L326.7,151.58L330,166.63L333.3,166.63L336.6,152.38L339.9,170.58L349.8,170.58L353.1,175.33L363,175.33L366.3,179.29L369.6,192.75L372.9,197.5L379.5,198.29L382.8,198.29L392.7,198.29L396,200.67L402.6,201.46L405.9,201.46L422.4,201.46L425.7,203.83L429,208.58L432.3,208.58L435.6,211.75L442.2,211.75L465.3,212.54L468.6,209.38L471.9,217.29L475.2,217.29L485.1,217.29L488.4,215.71L508.2,215.71L511.5,228.38L514.8,231.54L518.1,231.54L521.4,231.54L524.7,236.29L531.3,245L534.6,245L537.9,229.96L541.2,229.96L544.5,229.96L547.8,237.88L551.1,248.17L554.4,248.17L580.8,248.17L584.1,237.08L587.4,230.75L590.7,230.75L594,230.75L597.3,227.58L600.6,209.38L603.9,203.83L610.5,207.79L613.8,207.79L630.3,207.79L633.6,206.21L636.9,207.79L640.2,203.83L643.5,203.83L646.8,224.42L650.1,239.46L653.4,248.17L656.7,252.92" style="vector-effect: none; fill: none; stroke: rgb(0, 174, 239); stroke-opacity: 1; stroke-width: 5px; opacity: 1;"/></g><g class="points"/><g class="text"/></g><g class="trace scatter tracecbcd36" style="stroke-miterlimit: 2; opacity: 1;"><g class="fills"/><g class="errorbars"/><g class="lines"><path class="js-line" d="M0,450.04L6.6,452.42L9.9,452.42L19.8,452.42L23.1,457.96L29.7,448.46L33,448.46L46.2,448.46L49.5,450.04L62.7,449.25L66,448.46L122.1,448.46L125.4,450.04L141.9,450.04L145.2,459.54L184.8,459.54L191.4,453.21L194.7,401.75L201.3,401.75L221.1,401.75L224.4,404.13L227.7,406.5L231,406.5L234.3,411.25L237.6,411.25L244.2,405.71L247.5,412.04L277.2,412.04L280.5,408.88L283.8,408.88L287.1,412.04L290.4,408.88L293.7,413.63L297,416.79L300.3,416.79L303.6,411.25L306.9,416.79L316.8,416.79L320.1,411.25L323.4,411.25L326.7,416.79L330,411.25L333.3,411.25L336.6,434.21L339.9,418.38L349.8,419.17L353.1,431.04L356.4,440.54L359.7,440.54L363,440.54L366.3,438.17L369.6,446.08L372.9,447.67L389.4,446.88L392.7,446.08L396,447.67L399.3,450.83L422.4,450.83L425.7,447.67L429,440.54L432.3,440.54L435.6,429.46L442.2,429.46L462,429.46L465.3,439.75L468.6,442.92L471.9,454L485.1,454L488.4,460.33L524.7,461.13L528,461.92L534.6,462.71L537.9,487.25L544.5,487.25L547.8,490.42L551.1,495.17L554.4,495.17L597.3,495.17L600.6,502.29L603.9,502.29L607.2,503.88L610.5,507.04L613.8,507.04L630.3,507.04L633.6,508.63L640.2,508.63L643.5,510.21L646.8,515.75L650.1,518.13L656.7,518.13" style="vector-effect: none; fill: none; stroke: rgb(255, 1, 170); stroke-opacity: 1; stroke-width: 5px; opacity: 1;"/></g><g class="points"/><g class="text"/></g><g class="trace scatter trace8e9f0e" style="stroke-miterlimit: 2; opacity: 1;"><g class="fills"/><g class="errorbars"/><g class="lines"><path class="js-line" d="M0,474.58L9.9,476.96L13.2,476.96L23.1,476.17L26.4,474.58L33,475.38L36.3,475.38L46.2,475.38L49.5,476.96L75.9,476.17L79.2,477.75L122.1,477.75L125.4,484.08L141.9,484.08L145.2,490.42L184.8,490.42L191.4,480.92L194.7,501.5L201.3,501.5L231,502.29L234.3,507.83L244.2,507.83L247.5,511L277.2,511L280.5,509.42L283.8,509.42L287.1,511L290.4,509.42L293.7,511L300.3,511L303.6,509.42L306.9,511L310.2,511L316.8,511L320.1,509.42L323.4,509.42L326.7,511L330,509.42L333.3,509.42L336.6,511.79L339.9,510.21L363,511L366.3,511.79L372.9,514.17L376.2,514.96L386.1,514.96L389.4,516.54L392.7,519.71L396,519.71L402.6,520.5L405.9,520.5L485.1,519.71" style="vector-effect: none; fill: none; stroke: rgb(255, 192, 203); stroke-opacity: 1; stroke-width: 5px; opacity: 1;"/></g><g class="points"/><g class="text"/></g><g class="trace scatter traceab6f73" style="stroke-miterlimit: 2; opacity: 1;"><g class="fills"/><g class="errorbars"/><g class="lines"><path class="js-line" d="M0,446.88L6.6,450.04L9.9,450.04L19.8,450.04L23.1,446.88L26.4,447.67L29.7,451.63L59.4,452.42L62.7,454.79L66,456.38L69.3,456.38L122.1,456.38L125.4,454.79L141.9,454.79L145.2,466.67L184.8,466.67L191.4,461.92L194.7,472.21L201.3,472.21L224.4,473L227.7,474.58L231,474.58L234.3,483.29L237.6,483.29L240.9,478.54L244.2,473.79L247.5,487.25L277.2,487.25L280.5,480.92L283.8,480.92L287.1,487.25L290.4,480.92L293.7,486.46L300.3,486.46L303.6,480.13L306.9,486.46L310.2,486.46L316.8,486.46L320.1,480.13L323.4,480.13L326.7,486.46L330,480.13L333.3,480.13L336.6,480.92L339.9,475.38L349.8,476.17L353.1,484.08L356.4,488.04L359.7,488.04L363,488.04L366.3,489.63L372.9,494.38L376.2,495.17L386.1,495.17L389.4,496.75L399.3,505.46L402.6,505.46L485.1,505.46L488.4,504.67L534.6,505.46L537.9,520.5L544.5,520.5L547.8,522.08" style="vector-effect: none; fill: none; stroke: rgb(238, 58, 67); stroke-opacity: 1; stroke-width: 5px; opacity: 1;"/></g><g class="points"/><g class="text"/></g><g class="trace scatter trace8d6d1c" style="stroke-miterlimit: 2; opacity: 1;"><g class="fills"/><g class="errorbars"/><g class="lines"><path class="js-line" d="M0,467.46L9.9,469.04L13.2,469.04L19.8,469.04L23.1,457.96L29.7,482.5L33,482.5L62.7,481.71L66,480.92L141.9,480.13L145.2,484.08L184.8,484.08L191.4,482.5L194.7,485.67L201.3,485.67L224.4,486.46L227.7,487.25L237.6,486.46L240.9,489.63L244.2,492.79L247.5,487.25L277.2,487.25L280.5,489.63L283.8,489.63L287.1,487.25L290.4,489.63L293.7,488.83L297,492L300.3,492L303.6,492.79L306.9,492L333.3,492.79L336.6,495.17L353.1,495.17L356.4,496.75L366.3,497.54L369.6,498.33L372.9,500.71L376.2,501.5L386.1,501.5L389.4,503.08L399.3,509.42L402.6,509.42L485.1,509.42L488.4,517.33L534.6,518.13L537.9,520.5L544.5,520.5L547.8,522.08" style="vector-effect: none; fill: none; stroke: rgb(202, 166, 105); stroke-opacity: 1; stroke-width: 5px; opacity: 1;"/></g><g class="points"/><g class="text"/></g></g></g><g class="overplot"/><path class="xlines-above crisp" d="M0,0" style="fill: none;"/><path class="ylines-above crisp" d="M0,0" style="fill: none;"/><g class="overlines-above"/><g class="xaxislayer-above"><g class="xtick"><text text-anchor="middle" x="0" y="563" transform="translate(83,0)" style="font-family: 'Open Sans', verdana, arial, sans-serif; font-size: 12px; fill: rgb(42, 63, 95); fill-opacity: 1; white-space: pre; opacity: 1;">1.7.23</text></g><g class="xtick"><text text-anchor="middle" x="0" y="563" style="font-family: 'Open Sans', verdana, arial, sans-serif; font-size: 12px; fill: rgb(42, 63, 95); fill-opacity: 1; white-space: pre; opacity: 1;" transform="translate(185.3,0)">1.8.23</text></g><g class="xtick"><text text-anchor="middle" x="0" y="563" style="font-family: 'Open Sans', verdana, arial, sans-serif; font-size: 12px; fill: rgb(42, 63, 95); fill-opacity: 1; white-space: pre; opacity: 1;" transform="translate(287.6,0)">1.9.23</text></g><g class="xtick"><text text-anchor="middle" x="0" y="563" style="font-family: 'Open Sans', verdana, arial, sans-serif; font-size: 12px; fill: rgb(42, 63, 95); fill-opacity: 1; white-space: pre; opacity: 1;" transform="translate(386.6,0)">1.10.23</text></g><g class="xtick"><text text-anchor="middle" x="0" y="563" style="font-family: 'Open Sans', verdana, arial, sans-serif; font-size: 12px; fill: rgb(42, 63, 95); fill-opacity: 1; white-space: pre; opacity: 1;" transform="translate(488.9,0)">1.11.23</text></g><g class="xtick"><text text-anchor="middle" x="0" y="563" style="font-family: 'Open Sans', verdana, arial, sans-serif; font-size: 12px; fill: rgb(42, 63, 95); fill-opacity: 1; white-space: pre; opacity: 1;" transform="translate(587.9,0)">1.12.23</text></g><g class="xtick"><text text-anchor="middle" x="0" y="563" style="font-family: 'Open Sans', verdana, arial, sans-serif; font-size: 12px; fill: rgb(42, 63, 95); fill-opacity: 1; white-space: pre; opacity: 1;" transform="translate(690.2,0)">1.1.24</text></g><g class="xtick"><text text-anchor="middle" x="0" y="563" style="font-family: 'Open Sans', verdana, arial, sans-serif; font-size: 12px; fill: rgb(42, 63, 95); fill-opacity: 1; white-space: pre; opacity: 1;" transform="translate(792.5,0)">1.2.24</text></g><g class="xtick"><text text-anchor="middle" x="0" y="563" style="font-family: 'Open Sans', verdana, arial, sans-serif; font-size: 12px; fill: rgb(42, 63, 95); fill-opacity: 1; white-space: pre; opacity: 1;" transform="translate(888.2,0)">1.3.24</text></g><g class="xtick"><text text-anchor="middle" x="0" y="563" style="font-family: 'Open Sans', verdana, arial, sans-serif; font-size: 12px; fill: rgb(42, 63, 95); fill-opacity: 1; white-space: pre; opacity: 1;" transform="translate(990.5,0)">1.4.24</text></g></g><g class="yaxislayer-above"><g class="ytick"><text text-anchor="end" x="49" y="4.199999999999999" transform="translate(0,550)" style="font-family: 'Open Sans', verdana, arial, sans-serif; font-size: 12px; fill: rgb(42, 63, 95); fill-opacity: 1; white-space: pre; opacity: 1;">0%</text></g><g class="ytick"><text text-anchor="end" x="49" y="4.199999999999999" style="font-family: 'Open Sans', verdana, arial, sans-serif; font-size: 12px; fill: rgb(42, 63, 95); fill-opacity: 1; white-space: pre; opacity: 1;" transform="translate(0,470.83)">10%</text></g><g class="ytick"><text text-anchor="end" x="49" y="4.199999999999999" style="font-family: 'Open Sans', verdana, arial, sans-serif; font-size: 12px; fill: rgb(42, 63, 95); fill-opacity: 1; white-space: pre; opacity: 1;" transform="translate(0,391.67)">20%</text></g><g class="ytick"><text text-anchor="end" x="49" y="4.199999999999999" style="font-family: 'Open Sans', verdana, arial, sans-serif; font-size: 12px; fill: rgb(42, 63, 95); fill-opacity: 1; white-space: pre; opacity: 1;" transform="translate(0,312.5)">30%</text></g><g class="ytick"><text text-anchor="end" x="49" y="4.199999999999999" style="font-family: 'Open Sans', verdana, arial, sans-serif; font-size: 12px; fill: rgb(42, 63, 95); fill-opacity: 1; white-space: pre; opacity: 1;" transform="translate(0,233.33)">40%</text></g><g class="ytick"><text text-anchor="end" x="49" y="4.199999999999999" style="font-family: 'Open Sans', verdana, arial, sans-serif; font-size: 12px; fill: rgb(42, 63, 95); fill-opacity: 1; white-space: pre; opacity: 1;" transform="translate(0,154.17)">50%</text></g><g class="ytick"><text text-anchor="end" x="49" y="4.199999999999999" style="font-family: 'Open Sans', verdana, arial, sans-serif; font-size: 12px; fill: rgb(42, 63, 95); fill-opacity: 1; white-space: pre; opacity: 1;" transform="translate(0,75)">60%</text></g></g><g class="overaxes-above"/></g></g><g class="polarlayer"/><g class="smithlayer"/><g class="ternarylayer"/><g class="geolayer"/><g class="funnelarealayer"/><g class="pielayer"/><g class="iciclelayer"/><g class="treemaplayer"/><g class="sunburstlayer"/><g class="glimages"/><defs id="topdefs-40b4b0"><g class="clips"/><clipPath id="legend40b4b0"><rect width="128" height="124" x="0" y="0"/></clipPath></defs><g class="layer-above"><g class="imagelayer"/><g class="shapelayer"/></g><g class="infolayer"><g class="legend" pointer-events="all" transform="translate(1059.8000000000002,20)"><rect class="bg" shape-rendering="crispEdges" style="stroke: rgb(68, 68, 68); stroke-opacity: 1; fill: rgb(255, 255, 255); fill-opacity: 1; stroke-width: 0px;" width="128" height="124" x="0" y="0"/><g class="scrollbox" transform="" clip-path="url(#legend40b4b0)"><g class="groups"><g class="traces" transform="translate(0,14.5)" style="opacity: 1;"><text class="legendtext" text-anchor="start" x="40" y="4.680000000000001" style="font-family: 'Open Sans', verdana, arial, sans-serif; font-size: 12px; fill: rgb(42, 63, 95); fill-opacity: 1; white-space: pre;">Pellegrini Peter</text><g class="layers" style="opacity: 1;"><g class="legendfill"/><g class="legendlines"><path class="js-line" d="M5,0h30" style="fill: none; stroke: rgb(138, 44, 81); stroke-opacity: 1; stroke-width: 5px;"/></g><g class="legendsymbols"><g class="legendpoints"/></g></g><rect class="legendtoggle" x="0" y="-9.5" width="122.703125" height="19" style="fill: rgb(0, 0, 0); fill-opacity: 0;"/></g><g class="traces" transform="translate(0,33.5)" style="opacity: 1;"><text class="legendtext" text-anchor="start" x="40" y="4.680000000000001" style="font-family: 'Open Sans', verdana, arial, sans-serif; font-size: 12px; fill: rgb(42, 63, 95); fill-opacity: 1; white-space: pre;">Korčok Ivan</text><g class="layers" style="opacity: 1;"><g class="legendfill"/><g class="legendlines"><path class="js-line" d="M5,0h30" style="fill: none; stroke: rgb(0, 174, 239); stroke-opacity: 1; stroke-width: 5px;"/></g><g class="legendsymbols"><g class="legendpoints"/></g></g><rect class="legendtoggle" x="0" y="-9.5" width="122.703125" height="19" style="fill: rgb(0, 0, 0); fill-opacity: 0;"/></g><g class="traces" transform="translate(0,52.5)" style="opacity: 1;"><text class="legendtext" text-anchor="start" x="40" y="4.680000000000001" style="font-family: 'Open Sans', verdana, arial, sans-serif; font-size: 12px; fill: rgb(42, 63, 95); fill-opacity: 1; white-space: pre;">Kubiš Ján</text><g class="layers" style="opacity: 1;"><g class="legendfill"/><g class="legendlines"><path class="js-line" d="M5,0h30" style="fill: none; stroke: rgb(255, 1, 170); stroke-opacity: 1; stroke-width: 5px;"/></g><g class="legendsymbols"><g class="legendpoints"/></g></g><rect class="legendtoggle" x="0" y="-9.5" width="122.703125" height="19" style="fill: rgb(0, 0, 0); fill-opacity: 0;"/></g><g class="traces" transform="translate(0,71.5)" style="opacity: 1;"><text class="legendtext" text-anchor="start" x="40" y="4.680000000000001" style="font-family: 'Open Sans', verdana, arial, sans-serif; font-size: 12px; fill: rgb(42, 63, 95); fill-opacity: 1; white-space: pre;">Lajčák Miroslav</text><g class="layers" style="opacity: 1;"><g class="legendfill"/><g class="legendlines"><path class="js-line" d="M5,0h30" style="fill: none; stroke: rgb(255, 192, 203); stroke-opacity: 1; stroke-width: 5px;"/></g><g class="legendsymbols"><g class="legendpoints"/></g></g><rect class="legendtoggle" x="0" y="-9.5" width="122.703125" height="19" style="fill: rgb(0, 0, 0); fill-opacity: 0;"/></g><g class="traces" transform="translate(0,90.5)" style="opacity: 1;"><text class="legendtext" text-anchor="start" x="40" y="4.680000000000001" style="font-family: 'Open Sans', verdana, arial, sans-serif; font-size: 12px; fill: rgb(42, 63, 95); fill-opacity: 1; white-space: pre;">Fico Robert</text><g class="layers" style="opacity: 1;"><g class="legendfill"/><g class="legendlines"><path class="js-line" d="M5,0h30" style="fill: none; stroke: rgb(238, 58, 67); stroke-opacity: 1; stroke-width: 5px;"/></g><g class="legendsymbols"><g class="legendpoints"/></g></g><rect class="legendtoggle" x="0" y="-9.5" width="122.703125" height="19" style="fill: rgb(0, 0, 0); fill-opacity: 0;"/></g><g class="traces" transform="translate(0,109.5)" style="opacity: 1;"><text class="legendtext" text-anchor="start" x="40" y="4.680000000000001" style="font-family: 'Open Sans', verdana, arial, sans-serif; font-size: 12px; fill: rgb(42, 63, 95); fill-opacity: 1; white-space: pre;">Mistrík Robert</text><g class="layers" style="opacity: 1;"><g class="legendfill"/><g class="legendlines"><path class="js-line" d="M5,0h30" style="fill: none; stroke: rgb(202, 166, 105); stroke-opacity: 1; stroke-width: 5px;"/></g><g class="legendsymbols"><g class="legendpoints"/></g></g><rect class="legendtoggle" x="0" y="-9.5" width="122.703125" height="19" style="fill: rgb(0, 0, 0); fill-opacity: 0;"/></g></g></g><rect class="scrollbar" rx="20" ry="3" width="0" height="0" style="fill: rgb(128, 139, 164); fill-opacity: 1;" x="0" y="0"/></g><g class="g-gtitle"/><g class="g-xtitle"/><g class="g-ytitle"/></g></svg>