<svg class="main-svg" xmlns="http://www.w3.org/2000/svg" xmlns:xlink="http://www.w3.org/1999/xlink" width="300" height="135" style="" viewBox="0 0 300 135"><rect x="0" y="0" width="300" height="135" style="fill: rgb(255, 255, 255); fill-opacity: 1;"/><defs id="defs-c7da49"><g class="clips"><clipPath id="clipc7da49xyplot" class="plotclip"><rect width="280" height="75"/></clipPath><clipPath class="axesclip" id="clipc7da49x"><rect x="10" y="0" width="280" height="135"/></clipPath><clipPath class="axesclip" id="clipc7da49y"><rect x="0" y="50" width="300" height="75"/></clipPath><clipPath class="axesclip" id="clipc7da49xy"><rect x="10" y="50" width="280" height="75"/></clipPath></g><g class="gradients"/><g class="patterns"/></defs><g class="bglayer"/><g class="layer-below"><g class="imagelayer"/><g class="shapelayer"/></g><g class="cartesianlayer"><g class="subplot xy"><g class="layer-subplot"><g class="shapelayer"/><g class="imagelayer"/></g><g class="minor-gridlayer"><g class="x"/><g class="y"/></g><g class="gridlayer"><g class="x"><path class="xgrid crisp" transform="translate(22.67,0)" d="M0,50v75" style="stroke: rgb(235, 240, 248); stroke-opacity: 1; stroke-width: 1px;"/><path class="xgrid crisp" transform="translate(101.22,0)" d="M0,50v75" style="stroke: rgb(235, 240, 248); stroke-opacity: 1; stroke-width: 1px;"/><path class="xgrid crisp" transform="translate(178.51,0)" d="M0,50v75" style="stroke: rgb(235, 240, 248); stroke-opacity: 1; stroke-width: 1px;"/><path class="xgrid crisp" transform="translate(255.79,0)" d="M0,50v75" style="stroke: rgb(235, 240, 248); stroke-opacity: 1; stroke-width: 1px;"/></g><g class="y"><path class="ygrid crisp" transform="translate(0,102.77000000000001)" d="M10,0h280" style="stroke: rgb(235, 240, 248); stroke-opacity: 1; stroke-width: 1px;"/><path class="ygrid crisp" transform="translate(0,80.53999999999999)" d="M10,0h280" style="stroke: rgb(235, 240, 248); stroke-opacity: 1; stroke-width: 1px;"/><path class="ygrid crisp" transform="translate(0,58.31)" d="M10,0h280" style="stroke: rgb(235, 240, 248); stroke-opacity: 1; stroke-width: 1px;"/></g></g><g class="zerolinelayer"><path class="yzl zl crisp" transform="translate(0,125)" d="M10,0h280" style="stroke: rgb(235, 240, 248); stroke-opacity: 1; stroke-width: 2px;"/></g><path class="xlines-below"/><path class="ylines-below"/><g class="overlines-below"/><g class="xaxislayer-below"/><g class="yaxislayer-below"/><g class="overaxes-below"/><g class="plot" transform="translate(10,50)" clip-path="url(#clipc7da49xyplot)"><g class="scatterlayer mlayer"><g class="trace scatter trace7ed21b" style="stroke-miterlimit: 2; opacity: 1;"><g class="fills"/><g class="errorbars"/><g class="lines"><path class="js-line" d="M0,51.77L3.8,48.88L5.07,48.88L10.14,49.1L11.4,48.32L29.14,47.43L30.41,46.77L54.48,45.99L55.75,41.32L70.95,41.32L73.48,44.54L77.29,43.88L78.55,43.88L87.42,43.65L88.69,46.1L91.22,47.32L92.49,46.88L93.76,46.43L95.02,47.43L127.96,46.77L129.23,44.54L131.76,45.43L133.03,45.43L134.3,45.21L135.57,41.54L138.1,39.32L139.37,39.32L140.63,38.76L141.9,35.1L144.43,32.98L145.7,32.98L149.5,32.32L150.77,31.32L154.57,28.87L155.84,28.87L165.97,29.2L167.24,30.32L177.38,30.32L178.64,28.76L179.91,28.76L181.18,26.09L186.24,26.09L187.51,23.09L195.11,23.09L196.38,21.31L203.98,18.42L205.25,18.42L207.78,14.64L209.05,14.64L210.32,12.75L211.58,8.2L222.99,8.2L224.25,9.86L226.79,10.64L228.05,10.64L230.59,12.86L231.86,13.53L236.92,12.31L238.19,12.31L247.06,12.42L248.33,8.75L250.86,5.08L252.13,4.97L255.93,5.86L257.19,3.75L261,4.75L262.26,5.64L264.8,6.75L266.06,10.53L267.33,11.86L268.6,10.53L271.13,10.64L272.4,8.86L274.93,8.97L276.2,9.09L278.73,8.64L280,8.2" style="vector-effect: none; fill: none; stroke: rgb(138, 44, 81); stroke-opacity: 1; stroke-width: 5px; opacity: 1;"/></g><g class="points"/><g class="text"/></g><g class="trace scatter traceff19a9" style="stroke-miterlimit: 2; opacity: 1;"><g class="fills"/><g class="errorbars"/><g class="lines"><path class="js-line" d="M0,26.54L5.07,28.09L6.33,28.09L10.14,27.87L11.4,27.2L73.48,28.2L74.75,31.32L87.42,30.32L88.69,27.76L91.22,23.98L92.49,24.98L93.76,25.98L95.02,22.65L106.43,22.65L107.69,24.31L108.96,24.31L110.23,22.65L111.49,24.31L112.76,22.31L115.29,21.87L116.56,23.98L119.1,21.87L120.36,21.87L121.63,21.87L122.9,23.98L124.16,23.98L125.43,21.87L127.96,23.98L129.23,21.98L131.76,24.54L133.03,24.54L140.63,25.76L141.9,27.65L145.7,28.43L146.97,28.43L163.44,29.2L164.71,29.87L195.11,30.87L196.38,32.65L205.25,34.98L206.52,32.87L210.32,33.98L211.58,35.43L222.99,35.43L224.25,33.87L226.79,32.98L228.05,32.98L229.32,32.54L230.59,29.98L233.12,29.43L234.39,29.76L247.06,29.2L248.33,32.09L250.86,35.43L252.13,35.54L254.66,33.76L255.93,32.98L258.46,35.1L259.73,34.54L264.8,32.09L266.06,28.32L267.33,26.98L268.6,28.32L271.13,28.2L272.4,29.98L274.93,29.87L276.2,29.76L278.73,30.2L280,30.65" style="vector-effect: none; fill: none; stroke: rgb(0, 174, 239); stroke-opacity: 1; stroke-width: 5px; opacity: 1;"/></g><g class="points"/><g class="text"/></g><g class="trace scatter trace556422" style="stroke-miterlimit: 2; opacity: 1;"><g class="fills"/><g class="errorbars"/><g class="lines"><path class="js-line" d="M0,67.22L13.94,67.33L15.2,67.33L54.48,68.55L55.75,69.44L70.95,69.44L73.48,68.11L74.75,71L77.29,71L93.76,71.89L95.02,72.33L149.5,73.11L150.77,73.55L186.24,73.55" style="vector-effect: none; fill: none; stroke: rgb(255, 192, 203); stroke-opacity: 1; stroke-width: 5px; opacity: 1;"/></g><g class="points"/><g class="text"/></g><g class="trace scatter trace1165ca" style="stroke-miterlimit: 2; opacity: 1;"><g class="fills"/><g class="errorbars"/><g class="lines"><path class="js-line" d="M0,66.22L7.6,66.44L8.87,64.88L11.4,68.33L12.67,68.33L91.22,68.89L92.49,69.33L95.02,69L96.29,69L135.57,70.11L136.83,70.33L150.77,71.55L152.04,71.78L157.1,72.11L158.37,72.11L205.25,73.33L206.52,73.67L210.32,73.89" style="vector-effect: none; fill: none; stroke: rgb(202, 166, 105); stroke-opacity: 1; stroke-width: 5px; opacity: 1;"/></g><g class="points"/><g class="text"/></g><g class="trace scatter trace52dbd4" style="stroke-miterlimit: 2; opacity: 1;"><g class="fills"/><g class="errorbars"/><g class="lines"><path class="js-line" d="M0,63.77L8.87,64.88L10.14,64.22L13.94,63.55L15.2,63.55L54.48,63.77L55.75,65.11L73.48,64.22L74.75,56.99L88.69,57.66L89.95,58.33L112.76,58.66L114.03,59.1L127.96,58.33L129.23,61.55L131.76,59.33L133.03,59.33L134.3,59.44L135.57,61.11L138.1,62.44L139.37,62.44L140.63,62.11L141.9,63.22L149.5,63.33L150.77,63.22L159.64,63.88L160.9,63.88L163.44,63.44L164.71,62.44L165.97,62.44L167.24,60.88L177.38,60.88L178.64,62.33L184.98,64.33L186.24,64.33L188.78,65.22L190.05,65.22L205.25,65.55L206.52,69L229.32,70.11L230.59,71.11L247.06,72.22L248.33,73L254.66,73.55" style="vector-effect: none; fill: none; stroke: rgb(255, 1, 170); stroke-opacity: 1; stroke-width: 5px; opacity: 1;"/></g><g class="points"/><g class="text"/></g></g></g><g class="overplot"/><path class="xlines-above crisp" d="M0,0" style="fill: none;"/><path class="ylines-above crisp" d="M0,0" style="fill: none;"/><g class="overlines-above"/><g class="xaxislayer-above"/><g class="yaxislayer-above"/><g class="overaxes-above"/></g></g><g class="polarlayer"/><g class="smithlayer"/><g class="ternarylayer"/><g class="geolayer"/><g class="funnelarealayer"/><g class="pielayer"/><g class="iciclelayer"/><g class="treemaplayer"/><g class="sunburstlayer"/><g class="glimages"/><defs id="topdefs-c7da49"><g class="clips"/></defs><g class="layer-above"><g class="imagelayer"/><g class="shapelayer"/></g><g class="infolayer"><g class="g-gtitle"><text class="gtitle" x="15" y="25" text-anchor="start" dy="0em" style="font-family: Ubuntu, verdana, arial, sans-serif; font-size: 16px; fill: rgb(233, 84, 32); opacity: 1; font-weight: normal; white-space: pre;">Prezident/ka 2024</text></g><g class="g-xtitle"/><g class="g-ytitle"/></g></svg>