<svg class="main-svg" xmlns="http://www.w3.org/2000/svg" xmlns:xlink="http://www.w3.org/1999/xlink" width="300" height="135" style="" viewBox="0 0 300 135"><rect x="0" y="0" width="300" height="135" style="fill: rgb(255, 255, 255); fill-opacity: 1;"/><defs id="defs-337b1c"><g class="clips"><clipPath id="clip337b1cxyplot" class="plotclip"><rect width="280" height="75"/></clipPath><clipPath class="axesclip" id="clip337b1cx"><rect x="10" y="0" width="280" height="135"/></clipPath><clipPath class="axesclip" id="clip337b1cy"><rect x="0" y="50" width="300" height="75"/></clipPath><clipPath class="axesclip" id="clip337b1cxy"><rect x="10" y="50" width="280" height="75"/></clipPath></g><g class="gradients"/><g class="patterns"/></defs><g class="bglayer"/><g class="layer-below"><g class="imagelayer"/><g class="shapelayer"/></g><g class="cartesianlayer"><g class="subplot xy"><g class="layer-subplot"><g class="shapelayer"/><g class="imagelayer"/></g><g class="minor-gridlayer"><g class="x"/><g class="y"/></g><g class="gridlayer"><g class="x"><path class="xgrid crisp" transform="translate(20.11,0)" d="M0,50v75" style="stroke: rgb(235, 240, 248); stroke-opacity: 1; stroke-width: 1px;"/><path class="xgrid crisp" transform="translate(82.78,0)" d="M0,50v75" style="stroke: rgb(235, 240, 248); stroke-opacity: 1; stroke-width: 1px;"/><path class="xgrid crisp" transform="translate(144.44,0)" d="M0,50v75" style="stroke: rgb(235, 240, 248); stroke-opacity: 1; stroke-width: 1px;"/><path class="xgrid crisp" transform="translate(206.1,0)" d="M0,50v75" style="stroke: rgb(235, 240, 248); stroke-opacity: 1; stroke-width: 1px;"/><path class="xgrid crisp" transform="translate(266.75,0)" d="M0,50v75" style="stroke: rgb(235, 240, 248); stroke-opacity: 1; stroke-width: 1px;"/></g><g class="y"><path class="ygrid crisp" transform="translate(0,105.03999999999999)" d="M10,0h280" style="stroke: rgb(235, 240, 248); stroke-opacity: 1; stroke-width: 1px;"/><path class="ygrid crisp" transform="translate(0,85.08)" d="M10,0h280" style="stroke: rgb(235, 240, 248); stroke-opacity: 1; stroke-width: 1px;"/><path class="ygrid crisp" transform="translate(0,65.13)" d="M10,0h280" style="stroke: rgb(235, 240, 248); stroke-opacity: 1; stroke-width: 1px;"/></g></g><g class="zerolinelayer"><path class="yzl zl crisp" transform="translate(0,125)" d="M10,0h280" style="stroke: rgb(235, 240, 248); stroke-opacity: 1; stroke-width: 2px;"/></g><path class="xlines-below"/><path class="ylines-below"/><g class="overlines-below"/><g class="xaxislayer-below"/><g class="yaxislayer-below"/><g class="overaxes-below"/><g class="plot" transform="translate(10,50)" clip-path="url(#clip337b1cxyplot)"><g class="scatterlayer mlayer"><g class="trace scatter trace9d213b" style="stroke-miterlimit: 2; opacity: 1;"><g class="fills"/><g class="errorbars"/><g class="lines"><path class="js-line" d="M0,54.14L3.03,51.55L4.04,51.55L14.15,51.05L15.16,50.75L37.4,49.65L38.41,48.95L43.47,48.95L44.48,44.76L56.61,44.76L58.63,47.66L61.66,47.06L62.67,47.06L69.75,46.86L70.76,49.05L72.78,50.15L73.79,49.75L75.81,50.25L76.82,50.25L102.09,49.65L103.1,47.66L106.14,48.46L107.15,48.26L109.17,42.97L110.18,42.97L112.2,42.47L113.21,39.18L115.23,37.28L116.25,37.28L119.28,36.68L120.29,35.78L123.32,33.59L124.33,33.59L132.42,33.89L133.43,34.88L141.52,34.88L142.53,33.49L143.54,33.49L144.55,31.09L148.59,31.09L149.6,28.4L155.67,28.4L156.68,26.8L162.74,24.21L163.75,24.21L165.78,20.81L166.79,20.81L169.82,15.03L170.83,15.03L177.91,15.03L178.92,16.52L181.95,17.22L182.96,17.62L184.98,19.82L185.99,19.42L189.03,18.72L190.04,18.72L197.11,18.82L198.12,15.53L200.14,12.23L201.16,12.13L204.19,12.93L205.2,11.03L208.23,11.93L209.24,12.73L211.26,13.73L212.27,17.12L213.29,18.32L214.3,17.12L216.32,17.22L217.33,15.63L219.35,15.72L220.36,15.82L222.38,15.43L223.39,14.63L226.43,11.83L227.44,11.83L230.47,13.63L231.48,12.83L233.5,13.43L234.51,15.43L236.53,21.01L237.55,20.81L240.58,21.81L241.59,22.11L243.61,20.81L244.62,21.91L246.64,22.61L247.65,21.21L250.69,15.13L251.7,15.03L253.72,12.93L254.73,12.83L256.75,13.03L257.76,14.63L262.82,13.93L263.83,13.33L266.86,12.93L267.87,11.93L269.89,10.93L270.9,8.24L274.95,6.14L275.96,5.55L277.98,3.75L278.99,6.44L280,24.51" style="vector-effect: none; fill: none; stroke: rgb(138, 44, 81); stroke-opacity: 1; stroke-width: 5px; opacity: 1;"/></g><g class="points"/><g class="text"/></g><g class="trace scatter tracef59757" style="stroke-miterlimit: 2; opacity: 1;"><g class="fills"/><g class="errorbars"/><g class="lines"><path class="js-line" d="M0,31.49L4.04,32.89L5.05,32.89L8.09,32.69L9.1,32.09L58.63,32.99L59.64,35.78L69.75,34.88L70.76,32.59L72.78,29.2L73.79,30.09L74.8,30.99L75.81,28L84.91,28L85.92,29.5L86.93,29.5L87.94,28L88.95,29.5L89.96,27.7L91.99,27.3L93,29.2L95.02,27.3L96.03,27.3L97.04,27.3L98.05,29.2L99.06,29.2L100.07,27.3L102.09,29.2L103.1,27.4L105.13,29.7L106.14,29.7L112.2,30.79L113.21,32.49L116.25,33.19L117.26,33.19L130.4,33.89L131.41,34.49L155.67,35.38L156.68,36.98L163.75,39.08L164.77,37.18L167.8,38.18L168.81,39.47L177.91,39.47L178.92,38.08L180.94,37.28L181.95,37.28L182.96,36.88L183.97,34.59L185.99,34.09L187,34.39L197.11,33.89L198.12,36.48L201.16,39.57L202.17,39.28L204.19,37.28L205.2,39.18L208.23,38.28L209.24,37.48L211.26,36.48L212.27,33.09L213.29,31.89L214.3,33.09L216.32,32.99L217.33,34.59L219.35,34.49L220.36,34.39L222.38,34.78L223.39,35.58L226.43,38.38L227.44,38.38L230.47,36.58L231.48,37.38L233.5,36.78L234.51,34.78L236.53,29.2L237.55,29.4L240.58,28.4L241.59,28.1L243.61,29.4L244.62,28.3L246.64,27.6L247.65,29L250.69,35.08L251.7,35.18L253.72,37.28L254.73,37.38L256.75,37.18L257.76,35.58L262.82,36.28L263.83,36.88L266.86,37.28L267.87,38.28L269.89,39.28L270.9,41.97L274.95,44.07L275.96,44.66L277.98,46.46L278.99,43.77L280,25.7" style="vector-effect: none; fill: none; stroke: rgb(0, 174, 239); stroke-opacity: 1; stroke-width: 5px; opacity: 1;"/></g><g class="points"/><g class="text"/></g><g class="trace scatter trace53621c" style="stroke-miterlimit: 2; opacity: 1;"><g class="fills"/><g class="errorbars"/><g class="lines"><path class="js-line" d="M0,64.52L6.06,64.92L7.08,64.52L27.29,65.72L28.3,65.72L43.47,65.52L44.48,67.02L58.63,66.42L59.64,67.72L70.76,68.01L71.77,69.11L74.8,67.91L75.81,69.61L103.1,68.81L104.12,68.11L108.16,69.21L109.17,69.71L119.28,70.81L120.29,71.21L128.38,71.91L129.39,71.91L163.75,71.91L164.77,73.8L167.8,74" style="vector-effect: none; fill: none; stroke: rgb(238, 58, 67); stroke-opacity: 1; stroke-width: 5px; opacity: 1;"/></g><g class="points"/><g class="text"/></g><g class="trace scatter tracef132e7" style="stroke-miterlimit: 2; opacity: 1;"><g class="fills"/><g class="errorbars"/><g class="lines"><path class="js-line" d="M0,64.92L8.09,65.32L9.1,64.72L43.47,64.92L44.48,66.12L58.63,65.32L59.64,58.83L74.8,59.33L75.81,60.13L102.09,60.03L103.1,62.93L105.13,60.93L106.14,60.93L107.15,61.03L108.16,62.53L110.18,63.72L111.19,63.72L113.21,64.42L114.22,64.62L130.4,64.62L131.41,63.72L132.42,63.72L133.43,62.33L141.52,62.33L142.53,63.62L147.58,65.42L148.59,65.42L150.61,66.22L151.62,66.22L163.75,66.52L164.77,69.61L182.96,70.61L183.97,71.51L197.11,72.51L198.12,73.2L203.18,73.7" style="vector-effect: none; fill: none; stroke: rgb(255, 1, 170); stroke-opacity: 1; stroke-width: 5px; opacity: 1;"/></g><g class="points"/><g class="text"/></g><g class="trace scatter trace969aa5" style="stroke-miterlimit: 2; opacity: 1;"><g class="fills"/><g class="errorbars"/><g class="lines"><path class="js-line" d="M0,68.01L12.13,68.11L13.14,68.11L43.47,69.21L44.48,70.01L58.63,68.81L59.64,71.41L102.09,72.41L103.1,72.7L110.18,72.61L111.19,72.61L133.43,73.7L135.45,73.7L148.59,73.7" style="vector-effect: none; fill: none; stroke: rgb(255, 192, 203); stroke-opacity: 1; stroke-width: 5px; opacity: 1;"/></g><g class="points"/><g class="text"/></g></g></g><g class="overplot"/><path class="xlines-above crisp" d="M0,0" style="fill: none;"/><path class="ylines-above crisp" d="M0,0" style="fill: none;"/><g class="overlines-above"/><g class="xaxislayer-above"/><g class="yaxislayer-above"/><g class="overaxes-above"/></g></g><g class="polarlayer"/><g class="smithlayer"/><g class="ternarylayer"/><g class="geolayer"/><g class="funnelarealayer"/><g class="pielayer"/><g class="iciclelayer"/><g class="treemaplayer"/><g class="sunburstlayer"/><g class="glimages"/><defs id="topdefs-337b1c"><g class="clips"/></defs><g class="layer-above"><g class="imagelayer"/><g class="shapelayer"/></g><g class="infolayer"><g class="g-gtitle"><text class="gtitle" x="15" y="25" text-anchor="start" dy="0em" style="font-family: Ubuntu, verdana, arial, sans-serif; font-size: 16px; fill: rgb(233, 84, 32); opacity: 1; font-weight: normal; white-space: pre;">Prezident/ka 2024</text></g><g class="g-xtitle"/><g class="g-ytitle"/></g></svg>