<svg class="main-svg" xmlns="http://www.w3.org/2000/svg" xmlns:xlink="http://www.w3.org/1999/xlink" width="300" height="135" style="" viewBox="0 0 300 135"><rect x="0" y="0" width="300" height="135" style="fill: rgb(255, 255, 255); fill-opacity: 1;"/><defs id="defs-4c3b38"><g class="clips"><clipPath id="clip4c3b38xyplot" class="plotclip"><rect width="280" height="75"/></clipPath><clipPath class="axesclip" id="clip4c3b38x"><rect x="10" y="0" width="280" height="135"/></clipPath><clipPath class="axesclip" id="clip4c3b38y"><rect x="0" y="50" width="300" height="75"/></clipPath><clipPath class="axesclip" id="clip4c3b38xy"><rect x="10" y="50" width="280" height="75"/></clipPath></g><g class="gradients"/><g class="patterns"/></defs><g class="bglayer"/><g class="layer-below"><g class="imagelayer"/><g class="shapelayer"/></g><g class="cartesianlayer"><g class="subplot xy"><g class="layer-subplot"><g class="shapelayer"/><g class="imagelayer"/></g><g class="minor-gridlayer"><g class="x"/><g class="y"/></g><g class="gridlayer"><g class="x"><path class="xgrid crisp" transform="translate(20.490000000000002,0)" d="M0,50v75" style="stroke: rgb(235, 240, 248); stroke-opacity: 1; stroke-width: 1px;"/><path class="xgrid crisp" transform="translate(85.51,0)" d="M0,50v75" style="stroke: rgb(235, 240, 248); stroke-opacity: 1; stroke-width: 1px;"/><path class="xgrid crisp" transform="translate(149.48,0)" d="M0,50v75" style="stroke: rgb(235, 240, 248); stroke-opacity: 1; stroke-width: 1px;"/><path class="xgrid crisp" transform="translate(213.45,0)" d="M0,50v75" style="stroke: rgb(235, 240, 248); stroke-opacity: 1; stroke-width: 1px;"/><path class="xgrid crisp" transform="translate(276.37,0)" d="M0,50v75" style="stroke: rgb(235, 240, 248); stroke-opacity: 1; stroke-width: 1px;"/></g><g class="y"><path class="ygrid crisp" transform="translate(0,102.77000000000001)" d="M10,0h280" style="stroke: rgb(235, 240, 248); stroke-opacity: 1; stroke-width: 1px;"/><path class="ygrid crisp" transform="translate(0,80.53999999999999)" d="M10,0h280" style="stroke: rgb(235, 240, 248); stroke-opacity: 1; stroke-width: 1px;"/><path class="ygrid crisp" transform="translate(0,58.31)" d="M10,0h280" style="stroke: rgb(235, 240, 248); stroke-opacity: 1; stroke-width: 1px;"/></g></g><g class="zerolinelayer"><path class="yzl zl crisp" transform="translate(0,125)" d="M10,0h280" style="stroke: rgb(235, 240, 248); stroke-opacity: 1; stroke-width: 2px;"/></g><path class="xlines-below"/><path class="ylines-below"/><g class="overlines-below"/><g class="xaxislayer-below"/><g class="yaxislayer-below"/><g class="overaxes-below"/><g class="plot" transform="translate(10,50)" clip-path="url(#clip4c3b38xyplot)"><g class="scatterlayer mlayer"><g class="trace scatter tracee367f1" style="stroke-miterlimit: 2; opacity: 1;"><g class="fills"/><g class="errorbars"/><g class="lines"><path class="js-line" d="M0,51.77L3.15,48.88L4.19,48.88L8.39,49.1L9.44,48.32L24.12,47.43L25.17,46.77L45.09,45.99L46.14,41.32L58.73,41.32L60.82,44.54L63.97,43.88L65.02,43.88L72.36,43.65L73.41,46.1L75.51,47.32L76.55,46.88L77.6,46.43L78.65,47.43L105.92,46.77L106.97,44.54L109.06,45.43L110.11,45.43L111.16,45.21L112.21,41.54L114.31,39.32L115.36,39.32L116.4,38.76L117.45,35.1L119.55,32.98L120.6,32.98L123.75,32.32L124.79,31.32L127.94,28.87L128.99,28.87L137.38,29.2L138.43,30.32L146.82,30.32L147.87,28.76L148.91,28.76L149.96,26.09L154.16,26.09L155.21,23.09L161.5,23.09L162.55,21.31L168.84,18.42L169.89,18.42L171.99,14.64L173.03,14.64L174.08,12.75L175.13,8.2L184.57,8.2L185.62,9.86L188.76,10.64L189.81,11.09L191.91,13.53L192.96,13.09L196.1,12.31L197.15,12.31L204.49,12.42L205.54,8.75L207.64,5.08L208.69,4.97L211.84,5.86L212.88,3.75L216.03,4.75L217.08,5.64L219.18,6.75L220.22,10.53L221.27,11.86L222.32,10.53L224.42,10.64L225.47,8.86L227.57,8.97L228.61,9.09L230.71,8.64L231.76,7.75L234.91,4.64L235.96,4.64L239.1,6.64L240.15,5.75L242.25,6.42L243.3,8.64L245.39,14.87L246.44,14.64L249.59,15.75L250.64,16.09L252.73,14.64L253.78,15.87L255.88,16.64L256.93,15.09L260.07,8.31L261.12,8.2L263.22,5.86L264.27,5.75L266.37,5.97L267.42,7.75L272.66,6.97L273.71,6.31L276.85,5.86L277.9,4.75L280,3.97" style="vector-effect: none; fill: none; stroke: rgb(138, 44, 81); stroke-opacity: 1; stroke-width: 5px; opacity: 1;"/></g><g class="points"/><g class="text"/></g><g class="trace scatter trace13ba18" style="stroke-miterlimit: 2; opacity: 1;"><g class="fills"/><g class="errorbars"/><g class="lines"><path class="js-line" d="M0,26.54L4.19,28.09L5.24,28.09L8.39,27.87L9.44,27.2L60.82,28.2L61.87,31.32L72.36,30.32L73.41,27.76L75.51,23.98L76.55,24.98L77.6,25.98L78.65,22.65L88.09,22.65L89.14,24.31L90.19,24.31L91.24,22.65L92.28,24.31L93.33,22.31L95.43,21.87L96.48,23.98L98.58,21.87L99.63,21.87L100.67,21.87L101.72,23.98L102.77,23.98L103.82,21.87L105.92,23.98L106.97,21.98L109.06,24.54L110.11,24.54L116.4,25.76L117.45,27.65L120.6,28.43L121.65,28.43L135.28,29.2L136.33,29.87L161.5,30.87L162.55,32.65L169.89,34.98L170.94,32.87L174.08,33.98L175.13,35.43L184.57,35.43L185.62,33.87L187.72,32.98L188.76,32.98L189.81,32.54L190.86,29.98L192.96,29.43L194.01,29.76L204.49,29.2L205.54,32.09L207.64,35.43L208.69,35.54L210.79,33.76L211.84,32.98L213.93,35.1L214.98,34.54L219.18,32.09L220.22,28.32L221.27,26.98L222.32,28.32L224.42,28.2L225.47,29.98L227.57,29.87L228.61,29.76L230.71,30.2L231.76,31.09L234.91,34.21L235.96,34.21L239.1,32.21L240.15,33.09L242.25,32.43L243.3,30.2L245.39,23.98L246.44,24.2L249.59,23.09L250.64,22.76L252.73,24.2L253.78,22.98L255.88,22.2L256.93,23.76L260.07,30.54L261.12,30.65L263.22,32.98L264.27,33.09L266.37,32.87L267.42,31.09L272.66,31.87L273.71,32.54L276.85,32.98L277.9,34.1L280,34.87" style="vector-effect: none; fill: none; stroke: rgb(0, 174, 239); stroke-opacity: 1; stroke-width: 5px; opacity: 1;"/></g><g class="points"/><g class="text"/></g><g class="trace scatter tracebb5289" style="stroke-miterlimit: 2; opacity: 1;"><g class="fills"/><g class="errorbars"/><g class="lines"><path class="js-line" d="M0,66.22L6.29,66.44L7.34,64.88L9.44,68.33L10.49,68.33L75.51,68.89L76.55,69.33L78.65,69L79.7,69L112.21,70.11L113.26,70.33L124.79,71.55L125.84,71.78L130.04,72.11L131.09,72.11L169.89,73.33L170.94,73.67L174.08,73.89" style="vector-effect: none; fill: none; stroke: rgb(202, 166, 105); stroke-opacity: 1; stroke-width: 5px; opacity: 1;"/></g><g class="points"/><g class="text"/></g><g class="trace scatter trace76aa44" style="stroke-miterlimit: 2; opacity: 1;"><g class="fills"/><g class="errorbars"/><g class="lines"><path class="js-line" d="M0,63.77L7.34,64.88L8.39,64.22L11.54,63.55L12.58,63.55L45.09,63.77L46.14,65.11L60.82,64.22L61.87,56.99L73.41,57.66L74.46,58.33L93.33,58.66L94.38,59.1L105.92,58.33L106.97,61.55L109.06,59.33L110.11,59.33L111.16,59.44L112.21,61.11L114.31,62.44L115.36,62.44L116.4,62.11L117.45,63.22L123.75,63.33L124.79,63.22L132.13,63.88L133.18,63.88L135.28,63.44L136.33,62.44L137.38,62.44L138.43,60.88L146.82,60.88L147.87,62.33L153.11,64.33L154.16,64.33L156.25,65.22L157.3,65.22L169.89,65.55L170.94,69L189.81,70.11L190.86,71.11L204.49,72.22L205.54,73L210.79,73.55" style="vector-effect: none; fill: none; stroke: rgb(255, 1, 170); stroke-opacity: 1; stroke-width: 5px; opacity: 1;"/></g><g class="points"/><g class="text"/></g><g class="trace scatter trace966067" style="stroke-miterlimit: 2; opacity: 1;"><g class="fills"/><g class="errorbars"/><g class="lines"><path class="js-line" d="M0,63.33L6.29,63.77L7.34,63.33L27.27,64.66L28.31,64.66L45.09,64.44L46.14,66.11L60.82,65.44L61.87,66.89L73.41,67.22L74.46,68.44L76.55,67.77L77.6,67.11L79.7,69L80.75,69L106.97,68.11L108.01,67.33L112.21,68.55L113.26,69.11L123.75,70.33L124.79,70.78L132.13,71.55L133.18,71.55L169.89,71.55L170.94,73.67L174.08,73.89" style="vector-effect: none; fill: none; stroke: rgb(238, 58, 67); stroke-opacity: 1; stroke-width: 5px; opacity: 1;"/></g><g class="points"/><g class="text"/></g></g></g><g class="overplot"/><path class="xlines-above crisp" d="M0,0" style="fill: none;"/><path class="ylines-above crisp" d="M0,0" style="fill: none;"/><g class="overlines-above"/><g class="xaxislayer-above"/><g class="yaxislayer-above"/><g class="overaxes-above"/></g></g><g class="polarlayer"/><g class="smithlayer"/><g class="ternarylayer"/><g class="geolayer"/><g class="funnelarealayer"/><g class="pielayer"/><g class="iciclelayer"/><g class="treemaplayer"/><g class="sunburstlayer"/><g class="glimages"/><defs id="topdefs-4c3b38"><g class="clips"/></defs><g class="layer-above"><g class="imagelayer"/><g class="shapelayer"/></g><g class="infolayer"><g class="g-gtitle"><text class="gtitle" x="15" y="25" text-anchor="start" dy="0em" style="font-family: Ubuntu, verdana, arial, sans-serif; font-size: 16px; fill: rgb(233, 84, 32); opacity: 1; font-weight: normal; white-space: pre;">Prezident/ka 2024</text></g><g class="g-xtitle"/><g class="g-ytitle"/></g></svg>