<svg class="main-svg" xmlns="http://www.w3.org/2000/svg" xmlns:xlink="http://www.w3.org/1999/xlink" width="300" height="135" style="" viewBox="0 0 300 135"><rect x="0" y="0" width="300" height="135" style="fill: rgb(255, 255, 255); fill-opacity: 1;"/><defs id="defs-180177"><g class="clips"><clipPath id="clip180177xyplot" class="plotclip"><rect width="280" height="75"/></clipPath><clipPath class="axesclip" id="clip180177x"><rect x="10" y="0" width="280" height="135"/></clipPath><clipPath class="axesclip" id="clip180177y"><rect x="0" y="50" width="300" height="75"/></clipPath><clipPath class="axesclip" id="clip180177xy"><rect x="10" y="50" width="280" height="75"/></clipPath></g><g class="gradients"/><g class="patterns"/></defs><g class="bglayer"/><g class="layer-below"><g class="imagelayer"/><g class="shapelayer"/></g><g class="cartesianlayer"><g class="subplot xy"><g class="layer-subplot"><g class="shapelayer"/><g class="imagelayer"/></g><g class="minor-gridlayer"><g class="x"/><g class="y"/></g><g class="gridlayer"><g class="x"><path class="xgrid crisp" transform="translate(20.18,0)" d="M0,50v75" style="stroke: rgb(235, 240, 248); stroke-opacity: 1; stroke-width: 1px;"/><path class="xgrid crisp" transform="translate(83.31,0)" d="M0,50v75" style="stroke: rgb(235, 240, 248); stroke-opacity: 1; stroke-width: 1px;"/><path class="xgrid crisp" transform="translate(145.42,0)" d="M0,50v75" style="stroke: rgb(235, 240, 248); stroke-opacity: 1; stroke-width: 1px;"/><path class="xgrid crisp" transform="translate(207.53,0)" d="M0,50v75" style="stroke: rgb(235, 240, 248); stroke-opacity: 1; stroke-width: 1px;"/><path class="xgrid crisp" transform="translate(268.62,0)" d="M0,50v75" style="stroke: rgb(235, 240, 248); stroke-opacity: 1; stroke-width: 1px;"/></g><g class="y"><path class="ygrid crisp" transform="translate(0,105.15)" d="M10,0h280" style="stroke: rgb(235, 240, 248); stroke-opacity: 1; stroke-width: 1px;"/><path class="ygrid crisp" transform="translate(0,85.31)" d="M10,0h280" style="stroke: rgb(235, 240, 248); stroke-opacity: 1; stroke-width: 1px;"/><path class="ygrid crisp" transform="translate(0,65.46000000000001)" d="M10,0h280" style="stroke: rgb(235, 240, 248); stroke-opacity: 1; stroke-width: 1px;"/></g></g><g class="zerolinelayer"><path class="yzl zl crisp" transform="translate(0,125)" d="M10,0h280" style="stroke: rgb(235, 240, 248); stroke-opacity: 1; stroke-width: 2px;"/></g><path class="xlines-below"/><path class="ylines-below"/><g class="overlines-below"/><g class="xaxislayer-below"/><g class="yaxislayer-below"/><g class="overaxes-below"/><g class="plot" transform="translate(10,50)" clip-path="url(#clip180177xyplot)"><g class="scatterlayer mlayer"><g class="trace scatter trace2a1dd7" style="stroke-miterlimit: 2; opacity: 1;"><g class="fills"/><g class="errorbars"/><g class="lines"><path class="js-line" d="M0,54.26L3.05,51.68L4.07,51.68L14.25,51.18L15.27,50.89L37.67,49.79L38.69,49.1L43.78,49.1L44.8,44.93L57.02,44.93L59.05,47.81L62.11,47.21L63.13,47.21L70.25,47.02L71.27,49.2L73.31,50.29L74.33,49.89L76.36,50.39L77.38,50.39L102.84,49.79L103.85,47.81L106.91,48.6L107.93,48.41L109.96,43.15L110.98,43.15L113.02,42.65L114.04,39.38L116.07,37.49L117.09,37.49L120.15,36.89L121.16,36L125.24,33.82L126.25,33.82L133.38,34.12L134.4,35.11L142.55,35.11L143.56,33.72L144.58,33.72L145.6,31.34L149.67,31.34L150.69,28.66L156.8,28.66L157.82,27.07L163.93,24.49L164.95,24.49L166.98,21.12L168,21.12L171.05,15.36L172.07,15.36L179.2,15.36L180.22,16.85L183.27,17.54L184.29,17.94L186.33,20.12L187.35,19.73L190.4,19.03L191.42,19.03L198.55,19.13L199.56,15.86L201.6,12.58L202.62,12.48L205.67,13.28L206.69,11.39L209.75,12.28L210.76,13.08L212.8,14.07L213.82,17.44L214.84,18.64L215.85,17.44L217.89,17.54L218.91,15.96L220.95,16.06L221.96,16.15L224,15.76L225.02,14.96L228.07,12.18L229.09,12.18L232.15,13.97L233.16,13.18L235.2,13.77L236.22,15.76L238.25,21.31L239.27,21.12L242.33,22.11L243.35,22.41L245.38,21.12L246.4,22.21L248.44,22.9L249.45,21.51L252.51,15.46L253.53,15.36L255.56,13.28L256.58,13.18L258.62,13.38L259.64,14.96L264.73,14.27L265.75,13.67L268.8,13.28L269.82,12.28L271.85,11.29L272.87,8.61L276.95,6.53L277.96,5.93L280,3.75" style="vector-effect: none; fill: none; stroke: rgb(138, 44, 81); stroke-opacity: 1; stroke-width: 5px; opacity: 1;"/></g><g class="points"/><g class="text"/></g><g class="trace scatter trace94800a" style="stroke-miterlimit: 2; opacity: 1;"><g class="fills"/><g class="errorbars"/><g class="lines"><path class="js-line" d="M0,31.73L4.07,33.12L5.09,33.12L8.15,32.92L9.16,32.33L59.05,33.22L60.07,36L70.25,35.11L71.27,32.83L73.31,29.45L74.33,30.34L75.35,31.24L76.36,28.26L85.53,28.26L86.55,29.75L87.56,29.75L88.58,28.26L89.6,29.75L90.62,27.96L92.65,27.57L93.67,29.45L95.71,27.57L96.73,27.57L97.75,27.57L98.76,29.45L99.78,29.45L100.8,27.57L102.84,29.45L103.85,27.67L105.89,29.95L106.91,29.95L113.02,31.04L114.04,32.73L117.09,33.42L118.11,33.42L131.35,34.12L132.36,34.71L156.8,35.6L157.82,37.19L164.95,39.28L165.96,37.39L169.02,38.38L170.04,39.67L179.2,39.67L180.22,38.28L183.27,37.49L184.29,37.09L186.33,34.12L187.35,34.31L192.44,34.61L193.45,34.61L198.55,34.12L199.56,36.7L202.62,39.77L203.64,39.47L205.67,37.49L206.69,39.38L209.75,38.48L210.76,37.69L212.8,36.7L213.82,33.32L214.84,32.13L215.85,33.32L217.89,33.22L218.91,34.81L220.95,34.71L221.96,34.61L224,35.01L225.02,35.8L228.07,38.58L229.09,38.58L232.15,36.79L233.16,37.59L235.2,36.99L236.22,35.01L238.25,29.45L239.27,29.65L242.33,28.66L243.35,28.36L245.38,29.65L246.4,28.56L248.44,27.86L249.45,29.25L252.51,35.31L253.53,35.41L255.56,37.49L256.58,37.59L258.62,37.39L259.64,35.8L264.73,36.5L265.75,37.09L268.8,37.49L269.82,38.48L271.85,39.47L272.87,42.15L276.95,44.24L277.96,44.83L280,47.02" style="vector-effect: none; fill: none; stroke: rgb(0, 174, 239); stroke-opacity: 1; stroke-width: 5px; opacity: 1;"/></g><g class="points"/><g class="text"/></g><g class="trace scatter trace0f2f33" style="stroke-miterlimit: 2; opacity: 1;"><g class="fills"/><g class="errorbars"/><g class="lines"><path class="js-line" d="M0,64.58L6.11,64.98L7.13,64.58L27.49,65.77L28.51,65.77L43.78,65.57L44.8,67.06L59.05,66.47L60.07,67.76L71.27,68.05L72.29,69.15L75.35,67.95L76.36,69.64L103.85,68.85L104.87,68.15L108.95,69.24L109.96,69.74L120.15,70.83L121.16,71.23L129.31,71.92L130.33,71.92L164.95,71.92L165.96,73.81L169.02,74.01" style="vector-effect: none; fill: none; stroke: rgb(238, 58, 67); stroke-opacity: 1; stroke-width: 5px; opacity: 1;"/></g><g class="points"/><g class="text"/></g><g class="trace scatter trace117cf9" style="stroke-miterlimit: 2; opacity: 1;"><g class="fills"/><g class="errorbars"/><g class="lines"><path class="js-line" d="M0,68.05L12.22,68.15L13.24,68.15L43.78,69.24L44.8,70.04L59.05,68.85L60.07,71.43L102.84,72.42L103.85,72.72L109.96,72.62L110.98,72.62L149.67,73.71" style="vector-effect: none; fill: none; stroke: rgb(255, 192, 203); stroke-opacity: 1; stroke-width: 5px; opacity: 1;"/></g><g class="points"/><g class="text"/></g><g class="trace scatter trace79683b" style="stroke-miterlimit: 2; opacity: 1;"><g class="fills"/><g class="errorbars"/><g class="lines"><path class="js-line" d="M0,67.16L6.11,67.36L7.13,65.97L10.18,69.05L11.2,69.05L74.33,69.94L75.35,70.34L78.4,69.64L79.42,69.64L112,70.83L113.02,70.93L136.44,72.52L137.45,72.52L164.95,73.51L165.96,73.81L169.02,74.01" style="vector-effect: none; fill: none; stroke: rgb(202, 166, 105); stroke-opacity: 1; stroke-width: 5px; opacity: 1;"/></g><g class="points"/><g class="text"/></g></g></g><g class="overplot"/><path class="xlines-above crisp" d="M0,0" style="fill: none;"/><path class="ylines-above crisp" d="M0,0" style="fill: none;"/><g class="overlines-above"/><g class="xaxislayer-above"/><g class="yaxislayer-above"/><g class="overaxes-above"/></g></g><g class="polarlayer"/><g class="smithlayer"/><g class="ternarylayer"/><g class="geolayer"/><g class="funnelarealayer"/><g class="pielayer"/><g class="iciclelayer"/><g class="treemaplayer"/><g class="sunburstlayer"/><g class="glimages"/><defs id="topdefs-180177"><g class="clips"/></defs><g class="layer-above"><g class="imagelayer"/><g class="shapelayer"/></g><g class="infolayer"><g class="g-gtitle"><text class="gtitle" x="15" y="25" text-anchor="start" dy="0em" style="font-family: Ubuntu, verdana, arial, sans-serif; font-size: 16px; fill: rgb(233, 84, 32); opacity: 1; font-weight: normal; white-space: pre;">Prezident/ka 2024</text></g><g class="g-xtitle"/><g class="g-ytitle"/></g></svg>