<svg class="main-svg" xmlns="http://www.w3.org/2000/svg" xmlns:xlink="http://www.w3.org/1999/xlink" width="300" height="135" style="" viewBox="0 0 300 135"><rect x="0" y="0" width="300" height="135" style="fill: rgb(255, 255, 255); fill-opacity: 1;"/><defs id="defs-f93395"><g class="clips"><clipPath id="clipf93395xyplot" class="plotclip"><rect width="280" height="75"/></clipPath><clipPath class="axesclip" id="clipf93395x"><rect x="10" y="0" width="280" height="135"/></clipPath><clipPath class="axesclip" id="clipf93395y"><rect x="0" y="50" width="300" height="75"/></clipPath><clipPath class="axesclip" id="clipf93395xy"><rect x="10" y="50" width="280" height="75"/></clipPath></g><g class="gradients"/><g class="patterns"/></defs><g class="bglayer"/><g class="layer-below"><g class="imagelayer"/><g class="shapelayer"/></g><g class="cartesianlayer"><g class="subplot xy"><g class="layer-subplot"><g class="shapelayer"/><g class="imagelayer"/></g><g class="minor-gridlayer"><g class="x"/><g class="y"/></g><g class="gridlayer"><g class="x"><path class="xgrid crisp" transform="translate(20.22,0)" d="M0,50v75" style="stroke: rgb(235, 240, 248); stroke-opacity: 1; stroke-width: 1px;"/><path class="xgrid crisp" transform="translate(83.58,0)" d="M0,50v75" style="stroke: rgb(235, 240, 248); stroke-opacity: 1; stroke-width: 1px;"/><path class="xgrid crisp" transform="translate(145.91,0)" d="M0,50v75" style="stroke: rgb(235, 240, 248); stroke-opacity: 1; stroke-width: 1px;"/><path class="xgrid crisp" transform="translate(208.25,0)" d="M0,50v75" style="stroke: rgb(235, 240, 248); stroke-opacity: 1; stroke-width: 1px;"/><path class="xgrid crisp" transform="translate(269.56,0)" d="M0,50v75" style="stroke: rgb(235, 240, 248); stroke-opacity: 1; stroke-width: 1px;"/></g><g class="y"><path class="ygrid crisp" transform="translate(0,104.87)" d="M10,0h280" style="stroke: rgb(235, 240, 248); stroke-opacity: 1; stroke-width: 1px;"/><path class="ygrid crisp" transform="translate(0,84.75)" d="M10,0h280" style="stroke: rgb(235, 240, 248); stroke-opacity: 1; stroke-width: 1px;"/><path class="ygrid crisp" transform="translate(0,64.62)" d="M10,0h280" style="stroke: rgb(235, 240, 248); stroke-opacity: 1; stroke-width: 1px;"/></g></g><g class="zerolinelayer"><path class="yzl zl crisp" transform="translate(0,125)" d="M10,0h280" style="stroke: rgb(235, 240, 248); stroke-opacity: 1; stroke-width: 2px;"/></g><path class="xlines-below"/><path class="ylines-below"/><g class="overlines-below"/><g class="xaxislayer-below"/><g class="yaxislayer-below"/><g class="overaxes-below"/><g class="plot" transform="translate(10,50)" clip-path="url(#clipf93395xyplot)"><g class="scatterlayer mlayer"><g class="trace scatter trace8e22a1" style="stroke-miterlimit: 2; opacity: 1;"><g class="fills"/><g class="errorbars"/><g class="lines"><path class="js-line" d="M0,53.97L3.07,51.35L4.09,51.35L14.31,50.85L15.33,50.55L37.81,49.44L38.83,48.73L43.94,48.73L44.96,44.51L57.23,44.51L59.27,47.43L62.34,46.82L63.36,46.82L70.51,46.62L71.53,48.83L73.58,49.94L74.6,49.54L76.64,50.04L77.66,50.04L103.21,49.44L104.23,47.43L106.28,48.23L107.3,48.23L108.32,48.03L109.34,44.71L111.39,42.7L112.41,42.7L113.43,42.19L114.45,38.87L116.5,36.96L117.52,36.96L120.58,36.36L121.61,35.45L124.67,33.24L125.69,33.24L133.87,33.54L134.89,34.54L143.07,34.54L144.09,33.14L145.11,33.14L146.13,30.72L150.22,30.72L151.24,28L157.37,28L158.39,26.39L164.53,23.78L165.55,23.78L167.59,20.35L168.61,20.35L169.64,18.64L170.66,14.52L179.85,14.52L180.88,16.03L183.94,16.73L184.96,17.13L187.01,19.35L188.03,18.95L191.09,18.24L192.12,18.24L199.27,18.34L200.29,15.02L202.34,11.7L203.36,11.6L206.42,12.4L207.45,10.49L210.51,11.4L211.53,12.2L213.58,13.21L214.6,16.63L215.62,17.84L216.64,16.63L218.69,16.73L219.71,15.12L221.75,15.22L222.77,15.32L224.82,14.92L225.84,14.12L228.91,11.3L229.93,11.3L232.99,13.11L234.01,12.3L236.06,12.91L237.08,14.92L239.12,20.56L240.15,20.35L243.21,21.36L244.23,21.66L246.28,20.35L247.3,21.46L249.34,22.17L250.36,20.76L253.43,14.62L254.45,14.52L256.5,12.4L257.52,12.3L259.56,12.51L260.58,14.12L265.69,13.41L266.72,12.81L269.78,12.4L270.8,11.4L272.85,10.39L273.87,7.67L277.96,5.56L278.98,4.96L280,3.75" style="vector-effect: none; fill: none; stroke: rgb(138, 44, 81); stroke-opacity: 1; stroke-width: 5px; opacity: 1;"/></g><g class="points"/><g class="text"/></g><g class="trace scatter tracec4b998" style="stroke-miterlimit: 2; opacity: 1;"><g class="fills"/><g class="errorbars"/><g class="lines"><path class="js-line" d="M0,31.12L4.09,32.53L5.11,32.53L8.18,32.33L9.2,31.73L59.27,32.63L60.29,35.45L70.51,34.54L71.53,32.23L73.58,28.81L74.6,29.71L75.62,30.62L76.64,27.6L85.84,27.6L86.86,29.11L87.88,29.11L88.91,27.6L89.93,29.11L90.95,27.3L92.99,26.9L94.01,28.81L96.06,26.9L97.08,26.9L98.1,26.9L99.12,28.81L100.15,28.81L101.17,26.9L103.21,28.81L104.23,27L106.28,29.31L107.3,29.31L113.43,30.42L114.45,32.13L117.52,32.83L118.54,32.83L131.82,33.54L132.85,34.14L157.37,35.05L158.39,36.66L165.55,38.77L166.57,36.86L169.64,37.87L170.66,39.17L179.85,39.17L180.88,37.76L182.92,36.96L183.94,36.96L184.96,36.56L185.99,34.24L188.03,33.74L189.05,34.04L199.27,33.54L200.29,36.15L203.36,39.27L204.38,38.97L206.42,36.96L207.45,38.87L210.51,37.97L211.53,37.16L213.58,36.15L214.6,32.73L215.62,31.53L216.64,32.73L218.69,32.63L219.71,34.24L221.75,34.14L222.77,34.04L224.82,34.44L225.84,35.25L228.91,38.07L229.93,38.07L232.99,36.26L234.01,37.06L236.06,36.46L237.08,34.44L239.12,28.81L240.15,29.01L243.21,28L244.23,27.7L246.28,29.01L247.3,27.9L249.34,27.2L250.36,28.61L253.43,34.75L254.45,34.85L256.5,36.96L257.52,37.06L259.56,36.86L260.58,35.25L265.69,35.95L266.72,36.56L269.78,36.96L270.8,37.97L272.85,38.97L273.87,41.69L277.96,43.8L278.98,44.41L280,45.61" style="vector-effect: none; fill: none; stroke: rgb(0, 174, 239); stroke-opacity: 1; stroke-width: 5px; opacity: 1;"/></g><g class="points"/><g class="text"/></g><g class="trace scatter trace09c008" style="stroke-miterlimit: 2; opacity: 1;"><g class="fills"/><g class="errorbars"/><g class="lines"><path class="js-line" d="M0,67.05L6.13,67.25L7.15,65.84L10.22,68.96L11.24,68.96L74.6,69.87L75.62,70.27L78.69,69.57L79.71,69.57L112.41,70.77L113.43,70.87L136.93,72.48L137.96,72.48L165.55,73.49L166.57,73.79L169.64,73.99" style="vector-effect: none; fill: none; stroke: rgb(202, 166, 105); stroke-opacity: 1; stroke-width: 5px; opacity: 1;"/></g><g class="points"/><g class="text"/></g><g class="trace scatter tracee00d2c" style="stroke-miterlimit: 2; opacity: 1;"><g class="fills"/><g class="errorbars"/><g class="lines"><path class="js-line" d="M0,64.84L8.18,65.24L9.2,64.63L43.94,64.84L44.96,66.04L59.27,65.24L60.29,58.7L75.62,59.2L76.64,60.01L103.21,59.9L104.23,62.82L106.28,60.81L107.3,60.81L108.32,60.91L109.34,62.42L111.39,63.63L112.41,63.63L114.45,64.33L115.47,64.53L131.82,64.53L132.85,63.63L133.87,63.63L134.89,62.22L143.07,62.22L144.09,63.53L149.2,65.34L150.22,65.34L152.26,66.14L153.28,66.14L165.55,66.45L166.57,69.57L184.96,70.57L185.99,71.48L199.27,72.48L200.29,73.19L205.4,73.69" style="vector-effect: none; fill: none; stroke: rgb(255, 1, 170); stroke-opacity: 1; stroke-width: 5px; opacity: 1;"/></g><g class="points"/><g class="text"/></g><g class="trace scatter trace911c8d" style="stroke-miterlimit: 2; opacity: 1;"><g class="fills"/><g class="errorbars"/><g class="lines"><path class="js-line" d="M0,67.96L12.26,68.06L13.28,68.06L43.94,69.16L44.96,69.97L59.27,68.76L60.29,71.38L103.21,72.38L104.23,72.69L110.36,72.58L111.39,72.58L150.22,73.69" style="vector-effect: none; fill: none; stroke: rgb(255, 192, 203); stroke-opacity: 1; stroke-width: 5px; opacity: 1;"/></g><g class="points"/><g class="text"/></g></g></g><g class="overplot"/><path class="xlines-above crisp" d="M0,0" style="fill: none;"/><path class="ylines-above crisp" d="M0,0" style="fill: none;"/><g class="overlines-above"/><g class="xaxislayer-above"/><g class="yaxislayer-above"/><g class="overaxes-above"/></g></g><g class="polarlayer"/><g class="smithlayer"/><g class="ternarylayer"/><g class="geolayer"/><g class="funnelarealayer"/><g class="pielayer"/><g class="iciclelayer"/><g class="treemaplayer"/><g class="sunburstlayer"/><g class="glimages"/><defs id="topdefs-f93395"><g class="clips"/></defs><g class="layer-above"><g class="imagelayer"/><g class="shapelayer"/></g><g class="infolayer"><g class="g-gtitle"><text class="gtitle" x="15" y="25" text-anchor="start" dy="0em" style="font-family: Ubuntu, verdana, arial, sans-serif; font-size: 16px; fill: rgb(233, 84, 32); opacity: 1; font-weight: normal; white-space: pre;">Prezident/ka 2024</text></g><g class="g-xtitle"/><g class="g-ytitle"/></g></svg>