<svg class="main-svg" xmlns="http://www.w3.org/2000/svg" xmlns:xlink="http://www.w3.org/1999/xlink" width="300" height="135" style="" viewBox="0 0 300 135"><rect x="0" y="0" width="300" height="135" style="fill: rgb(255, 255, 255); fill-opacity: 1;"/><defs id="defs-413e39"><g class="clips"><clipPath id="clip413e39xyplot" class="plotclip"><rect width="280" height="75"/></clipPath><clipPath class="axesclip" id="clip413e39x"><rect x="10" y="0" width="280" height="135"/></clipPath><clipPath class="axesclip" id="clip413e39y"><rect x="0" y="50" width="300" height="75"/></clipPath><clipPath class="axesclip" id="clip413e39xy"><rect x="10" y="50" width="280" height="75"/></clipPath></g><g class="gradients"/><g class="patterns"/></defs><g class="bglayer"/><g class="layer-below"><g class="imagelayer"/><g class="shapelayer"/></g><g class="cartesianlayer"><g class="subplot xy"><g class="layer-subplot"><g class="shapelayer"/><g class="imagelayer"/></g><g class="minor-gridlayer"><g class="x"/><g class="y"/></g><g class="gridlayer"><g class="x"><path class="xgrid crisp" transform="translate(27.18,0)" d="M0,50v75" style="stroke: rgb(235, 240, 248); stroke-opacity: 1; stroke-width: 1px;"/><path class="xgrid crisp" transform="translate(133.68,0)" d="M0,50v75" style="stroke: rgb(235, 240, 248); stroke-opacity: 1; stroke-width: 1px;"/><path class="xgrid crisp" transform="translate(238.47,0)" d="M0,50v75" style="stroke: rgb(235, 240, 248); stroke-opacity: 1; stroke-width: 1px;"/></g><g class="y"><path class="ygrid crisp" transform="translate(0,98.75999999999999)" d="M10,0h280" style="stroke: rgb(235, 240, 248); stroke-opacity: 1; stroke-width: 1px;"/><path class="ygrid crisp" transform="translate(0,72.51)" d="M10,0h280" style="stroke: rgb(235, 240, 248); stroke-opacity: 1; stroke-width: 1px;"/></g></g><g class="zerolinelayer"><path class="yzl zl crisp" transform="translate(0,125)" d="M10,0h280" style="stroke: rgb(235, 240, 248); stroke-opacity: 1; stroke-width: 2px;"/></g><path class="xlines-below"/><path class="ylines-below"/><g class="overlines-below"/><g class="xaxislayer-below"/><g class="yaxislayer-below"/><g class="overaxes-below"/><g class="plot" transform="translate(10,50)" clip-path="url(#clip413e39xyplot)"><g class="scatterlayer mlayer"><g class="trace scatter trace5df509" style="stroke-miterlimit: 2; opacity: 1;"><g class="fills"/><g class="errorbars"/><g class="lines"><path class="js-line" d="M0,47.58L5.15,44.16L6.87,44.16L13.74,44.43L15.46,43.51L39.51,42.46L41.23,41.67L73.87,40.75L75.58,35.24L96.2,35.24L99.63,39.05L101.35,38.26L104.79,38.26L118.53,38L120.25,40.88L123.68,42.33L125.4,41.8L127.12,41.28L128.83,42.46L173.5,41.67L175.21,39.05L178.65,40.1L180.37,40.1L182.09,39.83L183.8,35.5L185.52,32.88L187.24,32.88L190.67,32.22L192.39,27.89L195.83,25.4L197.55,25.4L202.7,24.61L204.42,23.43L209.57,20.55L211.29,20.55L225.03,20.94L226.75,22.25L240.49,22.25L242.21,20.41L243.93,20.41L245.64,17.27L252.52,17.27L254.23,13.72L264.54,13.72L266.26,11.62L269.69,10.84L271.41,10.84L278.28,8.21L280,3.75" style="vector-effect: none; fill: none; stroke: rgb(138, 44, 81); stroke-opacity: 1; stroke-width: 5px; opacity: 1;"/></g><g class="points"/><g class="text"/></g><g class="trace scatter tracefeaa3c" style="stroke-miterlimit: 2; opacity: 1;"><g class="fills"/><g class="errorbars"/><g class="lines"><path class="js-line" d="M0,17.79L5.15,19.63L6.87,19.63L13.74,19.36L15.46,18.58L73.87,19.76L75.58,19.89L99.63,19.76L101.35,23.43L118.53,22.25L120.25,19.23L121.96,14.77L123.68,14.77L127.12,17.13L128.83,13.2L144.29,13.2L146.01,15.17L147.73,15.17L149.45,13.2L151.17,15.17L152.88,12.8L156.32,12.28L158.04,14.77L159.75,12.28L161.47,12.28L164.91,12.28L166.63,14.77L168.34,14.77L170.06,12.28L171.78,14.77L173.5,14.77L175.21,12.41L176.93,15.43L188.96,16.22L190.67,16.87L194.11,19.89L195.83,20.02L221.6,20.94L223.31,21.73L243.93,21.86L245.64,23.17L264.54,22.91L266.26,25.01L278.28,27.76L280,25.27" style="vector-effect: none; fill: none; stroke: rgb(0, 174, 239); stroke-opacity: 1; stroke-width: 5px; opacity: 1;"/></g><g class="points"/><g class="text"/></g><g class="trace scatter trace867ab4" style="stroke-miterlimit: 2; opacity: 1;"><g class="fills"/><g class="errorbars"/><g class="lines"><path class="js-line" d="M0,61.75L12.02,63.06L13.74,62.27L17.18,61.48L18.9,61.48L73.87,61.75L75.58,63.32L99.63,62.27L101.35,53.74L120.25,54.53L121.96,55.32L151.17,54.92L152.88,55.71L156.32,56.24L158.04,55.32L161.47,56.24L163.19,56.24L173.5,55.32L175.21,59.12L176.93,56.5L178.65,56.5L182.09,56.63L183.8,58.6L187.24,60.17L188.96,60.17L190.67,59.78L192.39,61.09L200.98,61.35L202.7,61.22L209.57,61.88L211.29,61.88L221.6,61.35L223.31,60.17L225.03,60.17L226.75,58.34L240.49,58.34L242.21,60.04L249.08,62.4L250.8,62.4L273.13,63.58L274.85,63.72L278.28,63.85L280,67.91" style="vector-effect: none; fill: none; stroke: rgb(255, 1, 170); stroke-opacity: 1; stroke-width: 5px; opacity: 1;"/></g><g class="points"/><g class="text"/></g><g class="trace scatter tracea177b7" style="stroke-miterlimit: 2; opacity: 1;"><g class="fills"/><g class="errorbars"/><g class="lines"><path class="js-line" d="M0,64.63L10.31,64.9L12.02,63.06L15.46,67.13L17.18,67.13L123.68,67.78L125.4,68.31L127.12,68.83L128.83,67.91L173.5,68.83L175.21,69.23L200.98,70.28L202.7,70.54L211.29,71.59L213.01,71.59L252.52,71.59L254.23,72.9L280,73.43" style="vector-effect: none; fill: none; stroke: rgb(202, 166, 105); stroke-opacity: 1; stroke-width: 5px; opacity: 1;"/></g><g class="points"/><g class="text"/></g><g class="trace scatter trace4fcbdb" style="stroke-miterlimit: 2; opacity: 1;"><g class="fills"/><g class="errorbars"/><g class="lines"><path class="js-line" d="M0,61.22L10.31,61.75L12.02,61.22L41.23,62.8L42.94,62.8L73.87,62.53L75.58,64.5L99.63,63.72L101.35,65.42L120.25,65.81L121.96,67.26L125.4,66.47L127.12,65.68L128.83,67.91L130.55,67.91L175.21,66.86L176.93,65.95L182.09,66.08L183.8,67.39L188.96,68.05L190.67,68.31L199.26,69.23L200.98,69.23L214.72,70.93L216.44,70.93L278.28,70.93L280,73.43" style="vector-effect: none; fill: none; stroke: rgb(238, 58, 67); stroke-opacity: 1; stroke-width: 5px; opacity: 1;"/></g><g class="points"/><g class="text"/></g></g></g><g class="overplot"/><path class="xlines-above crisp" d="M0,0" style="fill: none;"/><path class="ylines-above crisp" d="M0,0" style="fill: none;"/><g class="overlines-above"/><g class="xaxislayer-above"/><g class="yaxislayer-above"/><g class="overaxes-above"/></g></g><g class="polarlayer"/><g class="smithlayer"/><g class="ternarylayer"/><g class="geolayer"/><g class="funnelarealayer"/><g class="pielayer"/><g class="iciclelayer"/><g class="treemaplayer"/><g class="sunburstlayer"/><g class="glimages"/><defs id="topdefs-413e39"><g class="clips"/></defs><g class="layer-above"><g class="imagelayer"/><g class="shapelayer"/></g><g class="infolayer"><g class="g-gtitle"><text class="gtitle" x="15" y="25" text-anchor="start" dy="0em" style="font-family: Ubuntu, verdana, arial, sans-serif; font-size: 16px; fill: rgb(233, 84, 32); opacity: 1; font-weight: normal; white-space: pre;">Prezident/ka 2024</text></g><g class="g-xtitle"/><g class="g-ytitle"/></g></svg>