<svg class="main-svg" xmlns="http://www.w3.org/2000/svg" xmlns:xlink="http://www.w3.org/1999/xlink" width="300" height="135" style="" viewBox="0 0 300 135"><rect x="0" y="0" width="300" height="135" style="fill: rgb(255, 255, 255); fill-opacity: 1;"/><defs id="defs-bc3fef"><g class="clips"><clipPath id="clipbc3fefxyplot" class="plotclip"><rect width="280" height="75"/></clipPath><clipPath class="axesclip" id="clipbc3fefx"><rect x="10" y="0" width="280" height="135"/></clipPath><clipPath class="axesclip" id="clipbc3fefy"><rect x="0" y="50" width="300" height="75"/></clipPath><clipPath class="axesclip" id="clipbc3fefxy"><rect x="10" y="50" width="280" height="75"/></clipPath></g><g class="gradients"/><g class="patterns"/></defs><g class="bglayer"/><g class="layer-below"><g class="imagelayer"/><g class="shapelayer"/></g><g class="cartesianlayer"><g class="subplot xy"><g class="layer-subplot"><g class="shapelayer"/><g class="imagelayer"/></g><g class="minor-gridlayer"><g class="x"/><g class="y"/></g><g class="gridlayer"><g class="x"><path class="xgrid crisp" transform="translate(22.61,0)" d="M0,50v75" style="stroke: rgb(235, 240, 248); stroke-opacity: 1; stroke-width: 1px;"/><path class="xgrid crisp" transform="translate(100.81,0)" d="M0,50v75" style="stroke: rgb(235, 240, 248); stroke-opacity: 1; stroke-width: 1px;"/><path class="xgrid crisp" transform="translate(177.75,0)" d="M0,50v75" style="stroke: rgb(235, 240, 248); stroke-opacity: 1; stroke-width: 1px;"/><path class="xgrid crisp" transform="translate(254.68,0)" d="M0,50v75" style="stroke: rgb(235, 240, 248); stroke-opacity: 1; stroke-width: 1px;"/></g><g class="y"><path class="ygrid crisp" transform="translate(0,102.77000000000001)" d="M10,0h280" style="stroke: rgb(235, 240, 248); stroke-opacity: 1; stroke-width: 1px;"/><path class="ygrid crisp" transform="translate(0,80.53999999999999)" d="M10,0h280" style="stroke: rgb(235, 240, 248); stroke-opacity: 1; stroke-width: 1px;"/><path class="ygrid crisp" transform="translate(0,58.31)" d="M10,0h280" style="stroke: rgb(235, 240, 248); stroke-opacity: 1; stroke-width: 1px;"/></g></g><g class="zerolinelayer"><path class="yzl zl crisp" transform="translate(0,125)" d="M10,0h280" style="stroke: rgb(235, 240, 248); stroke-opacity: 1; stroke-width: 2px;"/></g><path class="xlines-below"/><path class="ylines-below"/><g class="overlines-below"/><g class="xaxislayer-below"/><g class="yaxislayer-below"/><g class="overaxes-below"/><g class="plot" transform="translate(10,50)" clip-path="url(#clipbc3fefxyplot)"><g class="scatterlayer mlayer"><g class="trace scatter trace684ee3" style="stroke-miterlimit: 2; opacity: 1;"><g class="fills"/><g class="errorbars"/><g class="lines"><path class="js-line" d="M0,51.77L3.78,48.88L5.05,48.88L10.09,49.1L11.35,48.32L29.01,47.43L30.27,46.77L54.23,45.99L55.5,41.32L70.63,41.32L73.15,44.54L76.94,43.88L78.2,43.88L87.03,43.65L88.29,46.1L90.81,47.32L92.07,46.88L93.33,46.43L94.59,47.43L127.39,46.77L128.65,44.54L131.17,45.43L132.43,45.43L133.69,45.21L134.95,41.54L137.48,39.32L138.74,39.32L140,38.76L141.26,35.1L143.78,32.98L145.05,32.98L148.83,32.32L150.09,31.32L153.87,28.87L155.14,28.87L165.23,29.2L166.49,30.32L176.58,30.32L177.84,28.76L179.1,28.76L180.36,26.09L185.41,26.09L186.67,23.09L194.23,23.09L195.5,21.31L203.06,18.42L204.32,18.42L206.85,14.64L208.11,14.64L209.37,12.75L210.63,8.2L221.98,8.2L223.24,9.86L225.77,10.64L227.03,10.64L229.55,12.86L230.81,13.53L237.12,12.31L238.38,12.31L245.95,12.42L247.21,8.75L249.73,5.08L250.99,4.97L254.77,5.86L256.04,3.75L259.82,4.75L261.08,5.64L263.6,6.75L264.86,10.53L266.13,11.86L267.39,10.53L269.91,10.64L271.17,8.86L273.69,8.97L274.95,9.09L277.48,8.64L278.74,7.75L280,6.97" style="vector-effect: none; fill: none; stroke: rgb(138, 44, 81); stroke-opacity: 1; stroke-width: 5px; opacity: 1;"/></g><g class="points"/><g class="text"/></g><g class="trace scatter traceb466f3" style="stroke-miterlimit: 2; opacity: 1;"><g class="fills"/><g class="errorbars"/><g class="lines"><path class="js-line" d="M0,26.54L5.05,28.09L6.31,28.09L10.09,27.87L11.35,27.2L73.15,28.2L74.41,31.32L87.03,30.32L88.29,27.76L90.81,23.98L92.07,24.98L93.33,25.98L94.59,22.65L105.95,22.65L107.21,24.31L108.47,24.31L109.73,22.65L110.99,24.31L112.25,22.31L114.77,21.87L116.04,23.98L118.56,21.87L119.82,21.87L121.08,21.87L122.34,23.98L123.6,23.98L124.86,21.87L127.39,23.98L128.65,21.98L131.17,24.54L132.43,24.54L140,25.76L141.26,27.65L145.05,28.43L146.31,28.43L162.7,29.2L163.96,29.87L194.23,30.87L195.5,32.65L204.32,34.98L205.59,32.87L209.37,33.98L210.63,35.43L221.98,35.43L223.24,33.87L225.77,32.98L227.03,32.98L228.29,32.54L229.55,29.98L232.07,29.43L233.33,29.76L245.95,29.2L247.21,32.09L249.73,35.43L250.99,35.54L253.51,33.76L254.77,32.98L257.3,35.1L258.56,34.54L263.6,32.09L264.86,28.32L266.13,26.98L267.39,28.32L269.91,28.2L271.17,29.98L273.69,29.87L274.95,29.76L277.48,30.2L278.74,31.09L280,31.87" style="vector-effect: none; fill: none; stroke: rgb(0, 174, 239); stroke-opacity: 1; stroke-width: 5px; opacity: 1;"/></g><g class="points"/><g class="text"/></g><g class="trace scatter traceb7746b" style="stroke-miterlimit: 2; opacity: 1;"><g class="fills"/><g class="errorbars"/><g class="lines"><path class="js-line" d="M0,63.77L8.83,64.88L10.09,64.22L13.87,63.55L15.14,63.55L54.23,63.77L55.5,65.11L73.15,64.22L74.41,56.99L88.29,57.66L89.55,58.33L112.25,58.66L113.51,59.1L127.39,58.33L128.65,61.55L131.17,59.33L132.43,59.33L133.69,59.44L134.95,61.11L137.48,62.44L138.74,62.44L140,62.11L141.26,63.22L148.83,63.33L150.09,63.22L158.92,63.88L160.18,63.88L162.7,63.44L163.96,62.44L165.23,62.44L166.49,60.88L176.58,60.88L177.84,62.33L184.14,64.33L185.41,64.33L187.93,65.22L189.19,65.22L204.32,65.55L205.59,69L228.29,70.11L229.55,71.11L245.95,72.22L247.21,73L253.51,73.55" style="vector-effect: none; fill: none; stroke: rgb(255, 1, 170); stroke-opacity: 1; stroke-width: 5px; opacity: 1;"/></g><g class="points"/><g class="text"/></g><g class="trace scatter trace43372a" style="stroke-miterlimit: 2; opacity: 1;"><g class="fills"/><g class="errorbars"/><g class="lines"><path class="js-line" d="M0,63.33L7.57,63.77L8.83,63.33L32.79,64.66L34.05,64.66L54.23,64.44L55.5,66.11L73.15,65.44L74.41,66.89L88.29,67.22L89.55,68.44L92.07,67.77L93.33,67.11L95.86,69L97.12,69L128.65,68.11L129.91,67.33L134.95,68.55L136.22,69.11L148.83,70.33L150.09,70.78L158.92,71.55L160.18,71.55L204.32,71.55L205.59,73.67L209.37,73.89" style="vector-effect: none; fill: none; stroke: rgb(238, 58, 67); stroke-opacity: 1; stroke-width: 5px; opacity: 1;"/></g><g class="points"/><g class="text"/></g><g class="trace scatter trace8d2164" style="stroke-miterlimit: 2; opacity: 1;"><g class="fills"/><g class="errorbars"/><g class="lines"><path class="js-line" d="M0,67.22L13.87,67.33L15.14,67.33L54.23,68.55L55.5,69.44L70.63,69.44L73.15,68.11L74.41,71L76.94,71L93.33,71.89L94.59,72.33L148.83,73.11L150.09,73.55L185.41,73.55" style="vector-effect: none; fill: none; stroke: rgb(255, 192, 203); stroke-opacity: 1; stroke-width: 5px; opacity: 1;"/></g><g class="points"/><g class="text"/></g></g></g><g class="overplot"/><path class="xlines-above crisp" d="M0,0" style="fill: none;"/><path class="ylines-above crisp" d="M0,0" style="fill: none;"/><g class="overlines-above"/><g class="xaxislayer-above"/><g class="yaxislayer-above"/><g class="overaxes-above"/></g></g><g class="polarlayer"/><g class="smithlayer"/><g class="ternarylayer"/><g class="geolayer"/><g class="funnelarealayer"/><g class="pielayer"/><g class="iciclelayer"/><g class="treemaplayer"/><g class="sunburstlayer"/><g class="glimages"/><defs id="topdefs-bc3fef"><g class="clips"/></defs><g class="layer-above"><g class="imagelayer"/><g class="shapelayer"/></g><g class="infolayer"><g class="g-gtitle"><text class="gtitle" x="15" y="25" text-anchor="start" dy="0em" style="font-family: Ubuntu, verdana, arial, sans-serif; font-size: 16px; fill: rgb(233, 84, 32); opacity: 1; font-weight: normal; white-space: pre;">Prezident/ka 2024</text></g><g class="g-xtitle"/><g class="g-ytitle"/></g></svg>