<svg class="main-svg" xmlns="http://www.w3.org/2000/svg" xmlns:xlink="http://www.w3.org/1999/xlink" width="1200" height="600" style="" viewBox="0 0 1200 600"><rect x="0" y="0" width="1200" height="600" style="fill: rgb(255, 255, 255); fill-opacity: 1;"/><defs id="defs-b2f3ae"><g class="clips"><clipPath id="clipb2f3aexyplot" class="plotclip"><rect width="990" height="530"/></clipPath><clipPath class="axesclip" id="clipb2f3aex"><rect x="50" y="0" width="990" height="600"/></clipPath><clipPath class="axesclip" id="clipb2f3aey"><rect x="0" y="20" width="1200" height="530"/></clipPath><clipPath class="axesclip" id="clipb2f3aexy"><rect x="50" y="20" width="990" height="530"/></clipPath></g><g class="gradients"/><g class="patterns"/></defs><g class="bglayer"/><g class="layer-below"><g class="imagelayer"/><g class="shapelayer"/></g><g class="cartesianlayer"><g class="subplot xy"><g class="layer-subplot"><g class="shapelayer"/><g class="imagelayer"/></g><g class="minor-gridlayer"><g class="x"/><g class="y"/></g><g class="gridlayer"><g class="x"><path class="xgrid crisp" transform="translate(84.14,0)" d="M0,20v530" style="stroke: rgb(235, 240, 248); stroke-opacity: 1; stroke-width: 1px;"/><path class="xgrid crisp" transform="translate(189.97,0)" d="M0,20v530" style="stroke: rgb(235, 240, 248); stroke-opacity: 1; stroke-width: 1px;"/><path class="xgrid crisp" transform="translate(295.78999999999996,0)" d="M0,20v530" style="stroke: rgb(235, 240, 248); stroke-opacity: 1; stroke-width: 1px;"/><path class="xgrid crisp" transform="translate(398.21,0)" d="M0,20v530" style="stroke: rgb(235, 240, 248); stroke-opacity: 1; stroke-width: 1px;"/><path class="xgrid crisp" transform="translate(504.03,0)" d="M0,20v530" style="stroke: rgb(235, 240, 248); stroke-opacity: 1; stroke-width: 1px;"/><path class="xgrid crisp" transform="translate(606.45,0)" d="M0,20v530" style="stroke: rgb(235, 240, 248); stroke-opacity: 1; stroke-width: 1px;"/><path class="xgrid crisp" transform="translate(712.28,0)" d="M0,20v530" style="stroke: rgb(235, 240, 248); stroke-opacity: 1; stroke-width: 1px;"/><path class="xgrid crisp" transform="translate(818.1,0)" d="M0,20v530" style="stroke: rgb(235, 240, 248); stroke-opacity: 1; stroke-width: 1px;"/><path class="xgrid crisp" transform="translate(917.1,0)" d="M0,20v530" style="stroke: rgb(235, 240, 248); stroke-opacity: 1; stroke-width: 1px;"/><path class="xgrid crisp" transform="translate(1022.93,0)" d="M0,20v530" style="stroke: rgb(235, 240, 248); stroke-opacity: 1; stroke-width: 1px;"/></g><g class="y"><path class="ygrid crisp" transform="translate(0,477.66)" d="M50,0h990" style="stroke: rgb(235, 240, 248); stroke-opacity: 1; stroke-width: 1px;"/><path class="ygrid crisp" transform="translate(0,405.32)" d="M50,0h990" style="stroke: rgb(235, 240, 248); stroke-opacity: 1; stroke-width: 1px;"/><path class="ygrid crisp" transform="translate(0,332.97)" d="M50,0h990" style="stroke: rgb(235, 240, 248); stroke-opacity: 1; stroke-width: 1px;"/><path class="ygrid crisp" transform="translate(0,260.63)" d="M50,0h990" style="stroke: rgb(235, 240, 248); stroke-opacity: 1; stroke-width: 1px;"/><path class="ygrid crisp" transform="translate(0,188.29)" d="M50,0h990" style="stroke: rgb(235, 240, 248); stroke-opacity: 1; stroke-width: 1px;"/><path class="ygrid crisp" transform="translate(0,115.95)" d="M50,0h990" style="stroke: rgb(235, 240, 248); stroke-opacity: 1; stroke-width: 1px;"/><path class="ygrid crisp" transform="translate(0,43.61)" d="M50,0h990" style="stroke: rgb(235, 240, 248); stroke-opacity: 1; stroke-width: 1px;"/></g></g><g class="zerolinelayer"><path class="yzl zl crisp" transform="translate(0,550)" d="M50,0h990" style="stroke: rgb(235, 240, 248); stroke-opacity: 1; stroke-width: 2px;"/></g><path class="xlines-below"/><path class="ylines-below"/><g class="overlines-below"/><g class="xaxislayer-below"/><g class="yaxislayer-below"/><g class="overaxes-below"/><g class="plot" transform="translate(50,20)" clip-path="url(#clipb2f3aexyplot)"><g class="scatterlayer mlayer"><g class="trace scatter traceb22198" style="stroke-miterlimit: 2; opacity: 1;"><g class="fills"/><g class="errorbars"/><g class="lines"><path class="js-line" d="M0,378.81L6.83,360L10.24,360L20.48,360L23.9,365.06L30.72,356.38L34.14,356.38L47.79,356.38L51.21,354.21L61.45,354.21L64.86,352.04L68.28,350.59L71.69,350.59L78.52,350.59L81.93,346.25L126.31,346.25L129.72,341.19L146.79,341.19L150.21,310.8L191.17,310.8L198,331.78L201.41,327.44L208.24,327.44L232.14,326.72L235.55,326L238.97,341.91L242.38,349.87L245.79,349.87L249.21,346.97L252.62,344.08L256.03,350.59L286.76,350.59L290.17,347.7L293.59,347.7L297,350.59L300.41,347.7L303.83,349.87L307.24,347.7L310.66,347.7L314.07,346.25L317.48,347.7L327.72,347.7L331.14,346.25L334.55,346.25L337.97,347.7L341.38,346.25L344.79,346.25L348.21,331.78L351.62,337.57L358.45,337.57L361.86,336.12L365.28,312.25L368.69,297.78L375.52,297.78L378.93,294.17L382.34,270.29L385.76,258.72L389.17,256.55L392.59,256.55L399.41,256.55L402.83,252.21L409.66,239.91L413.07,229.78L440.38,230.5L443.79,231.95L447.21,231.95L450.62,239.19L477.93,239.19L481.34,229.06L484.76,229.06L488.17,211.7L501.83,211.7L505.24,192.16L525.72,192.16L529.14,180.59L532.55,176.25L535.97,176.25L539.38,176.25L542.79,171.91L546.21,165.4L549.62,161.78L553.03,161.78L556.45,137.18L563.28,137.18L566.69,124.89L570.1,95.22L573.52,95.22L600.83,95.22L604.24,106.08L607.66,111.14L611.07,111.14L614.48,111.14L617.9,114.03L621.31,125.61L624.72,129.95L628.14,127.06L631.55,121.99L655.45,121.99L658.86,120.54L662.28,124.16L665.69,122.71L672.52,82.93L675.93,74.97L679.34,74.25L682.76,76.42L686.17,85.1L689.59,80.03L693,66.29L696.41,66.29L703.24,72.8L706.66,78.59L710.07,85.1L713.48,85.82L716.9,110.42L720.31,119.1L723.72,110.42L727.14,114.03L730.55,111.14L733.97,99.57L737.38,96.67L740.79,100.29L747.62,102.46L751.03,98.12L754.45,92.33L757.86,82.2L761.28,72.08L764.69,72.08L768.1,72.08L771.52,74.97L774.93,83.65L778.34,85.1L781.76,79.31L785.17,78.59L788.59,83.65L792,98.12L795.41,126.33L798.83,138.63L802.24,137.18L805.66,137.18L809.07,137.91L812.48,144.42L815.9,146.59L819.31,145.14L822.72,137.18L826.14,145.14L832.97,150.2L836.38,140.08L839.79,118.37L843.21,105.35L846.62,95.95L850.03,95.22L853.45,79.31L856.86,80.03L860.28,79.31L863.69,75.69L867.1,80.76L870.52,92.33L880.76,92.33L884.17,88.71L887.59,87.27L891,82.93L897.83,82.93L901.24,80.03L904.66,72.8L908.07,69.91L911.48,65.56L914.9,46.03L918.31,39.52L921.72,39.52L925.14,32.29L928.55,30.84L931.97,26.5" style="vector-effect: none; fill: none; stroke: rgb(138, 44, 81); stroke-opacity: 1; stroke-width: 5px; opacity: 1;"/></g><g class="points"/><g class="text"/></g><g class="trace scatter tracee3df73" style="stroke-miterlimit: 2; opacity: 1;"><g class="fills"/><g class="errorbars"/><g class="lines"><path class="js-line" d="M0,214.59L6.83,224.72L10.24,224.72L20.48,224.72L23.9,229.78L30.72,218.93L34.14,218.93L61.45,218.93L64.86,220.38L68.28,221.82L71.69,221.82L78.52,221.82L81.93,225.44L198,225.44L201.41,245.7L228.72,245.7L232.14,242.08L235.55,239.19L238.97,222.55L242.38,197.95L245.79,197.95L252.62,210.97L256.03,189.27L286.76,189.27L290.17,200.12L293.59,200.12L297,189.27L300.41,200.12L303.83,187.1L307.24,184.21L310.66,184.21L314.07,197.95L317.48,184.21L327.72,184.21L331.14,197.95L334.55,197.95L337.97,184.21L341.38,197.95L344.79,197.95L348.21,184.93L351.62,201.57L361.86,201.57L365.28,205.91L375.52,205.91L378.93,209.53L382.34,221.82L385.76,226.16L392.59,226.89L396,226.89L406.24,226.89L409.66,229.06L416.48,229.78L419.9,229.78L436.97,229.78L440.38,231.95L443.79,236.29L447.21,236.29L450.62,239.19L457.45,239.19L481.34,239.91L484.76,237.02L488.17,244.25L491.59,244.25L501.83,244.25L505.24,242.8L525.72,242.8L529.14,254.38L532.55,257.27L535.97,257.27L539.38,257.27L542.79,261.61L549.62,269.57L553.03,269.57L556.45,255.82L559.86,255.82L563.28,255.82L566.69,263.06L570.1,272.46L573.52,272.46L600.83,272.46L604.24,262.33L607.66,256.55L611.07,256.55L614.48,256.55L617.9,253.65L621.31,237.02L624.72,231.95L631.55,235.57L634.97,235.57L652.03,235.57L655.45,234.12L658.86,235.57L662.28,231.95L665.69,231.95L669.1,250.76L672.52,264.51L675.93,272.46L679.34,273.19L682.76,271.02L686.17,261.61L689.59,256.55L693,270.29L696.41,270.29L703.24,263.78L706.66,257.99L710.07,251.48L713.48,250.76L716.9,226.16L720.31,217.48L723.72,226.16L727.14,222.55L730.55,225.44L733.97,237.02L737.38,239.91L740.79,236.29L747.62,234.12L751.03,238.46L754.45,244.25L757.86,254.38L761.28,264.51L764.69,264.51L768.1,264.51L771.52,261.61L774.93,252.93L778.34,251.48L781.76,257.27L785.17,257.99L788.59,252.93L792,238.46L795.41,210.25L798.83,197.95L802.24,199.4L805.66,199.4L809.07,198.67L812.48,192.16L815.9,189.99L819.31,191.44L822.72,199.4L826.14,191.44L832.97,186.38L836.38,196.5L839.79,218.21L843.21,231.23L846.62,240.63L850.03,241.36L853.45,257.27L856.86,256.55L860.28,257.27L863.69,260.89L867.1,255.82L870.52,244.25L880.76,244.25L884.17,247.87L887.59,249.31L891,253.65L897.83,253.65L901.24,256.55L904.66,263.78L908.07,266.68L911.48,271.02L914.9,290.55L918.31,297.06L921.72,297.06L925.14,304.29L928.55,305.74L931.97,310.08" style="vector-effect: none; fill: none; stroke: rgb(0, 174, 239); stroke-opacity: 1; stroke-width: 5px; opacity: 1;"/></g><g class="points"/><g class="text"/></g><g class="trace scatter tracef42c26" style="stroke-miterlimit: 2; opacity: 1;"><g class="fills"/><g class="errorbars"/><g class="lines"><path class="js-line" d="M0,456.93L6.83,459.1L10.24,459.1L20.48,459.1L23.9,464.17L30.72,455.49L34.14,455.49L47.79,455.49L51.21,456.93L64.86,456.21L68.28,455.49L126.31,455.49L129.72,456.93L146.79,456.93L150.21,465.62L191.17,465.62L198,459.83L201.41,412.81L208.24,412.81L228.72,412.81L232.14,414.98L235.55,417.15L238.97,417.15L242.38,421.49L245.79,421.49L252.62,416.42L256.03,422.21L286.76,422.21L290.17,419.32L293.59,419.32L297,422.21L300.41,419.32L303.83,423.66L307.24,426.55L310.66,426.55L314.07,421.49L317.48,426.55L327.72,426.55L331.14,421.49L334.55,421.49L337.97,426.55L341.38,421.49L344.79,421.49L348.21,442.47L351.62,428L361.86,428.72L365.28,439.57L368.69,448.25L372.1,448.25L375.52,448.25L378.93,446.08L382.34,453.32L385.76,454.76L402.83,454.04L406.24,453.32L409.66,454.76L413.07,457.66L436.97,457.66L440.38,454.76L443.79,448.25L447.21,448.25L450.62,438.13L457.45,438.13L477.93,438.13L481.34,447.53L484.76,450.42L488.17,460.55L501.83,460.55L505.24,466.34L542.79,467.06L546.21,467.79L553.03,468.51L556.45,490.94L563.28,490.94L566.69,493.83L570.1,498.17L573.52,498.17L617.9,498.17L621.31,504.68L624.72,504.68L628.14,506.13L631.55,509.02L634.97,509.02L652.03,509.02L655.45,510.47L662.28,510.47L665.69,511.91L669.1,516.98L672.52,519.15L682.76,519.15L686.17,520.6" style="vector-effect: none; fill: none; stroke: rgb(255, 1, 170); stroke-opacity: 1; stroke-width: 5px; opacity: 1;"/></g><g class="points"/><g class="text"/></g><g class="trace scatter trace447c6d" style="stroke-miterlimit: 2; opacity: 1;"><g class="fills"/><g class="errorbars"/><g class="lines"><path class="js-line" d="M0,472.85L10.24,474.3L13.66,474.3L20.48,474.3L23.9,464.17L30.72,486.59L34.14,486.59L64.86,485.87L68.28,485.15L146.79,484.42L150.21,488.04L191.17,488.04L198,486.59L201.41,489.49L208.24,489.49L232.14,490.21L235.55,490.94L245.79,490.21L249.21,493.11L252.62,496L256.03,490.94L286.76,490.94L290.17,493.11L293.59,493.11L297,490.94L300.41,493.11L303.83,492.38L307.24,495.28L310.66,495.28L314.07,496L317.48,495.28L344.79,496L348.21,498.17L365.28,498.17L368.69,499.62L378.93,500.34L382.34,501.06L389.17,503.96L392.59,503.96L399.41,503.96L402.83,505.4L413.07,511.19L416.48,511.19L501.83,511.19L505.24,518.43L553.03,519.15L556.45,521.32L563.28,521.32L566.69,522.77" style="vector-effect: none; fill: none; stroke: rgb(202, 166, 105); stroke-opacity: 1; stroke-width: 5px; opacity: 1;"/></g><g class="points"/><g class="text"/></g><g class="trace scatter tracea7947a" style="stroke-miterlimit: 2; opacity: 1;"><g class="fills"/><g class="errorbars"/><g class="lines"><path class="js-line" d="M0,454.04L6.83,456.93L10.24,456.93L20.48,456.93L23.9,454.04L27.31,454.76L30.72,458.38L61.45,459.1L64.86,461.28L68.28,462.72L71.69,462.72L126.31,462.72L129.72,461.28L146.79,461.28L150.21,472.13L191.17,472.13L198,467.79L201.41,477.19L208.24,477.19L232.14,477.91L235.55,479.36L238.97,479.36L242.38,487.32L245.79,487.32L249.21,482.98L252.62,478.64L256.03,490.94L286.76,490.94L290.17,485.15L293.59,485.15L297,490.94L300.41,485.15L303.83,490.21L310.66,490.21L314.07,484.42L317.48,490.21L320.9,490.21L327.72,490.21L331.14,484.42L334.55,484.42L337.97,490.21L341.38,484.42L344.79,484.42L348.21,485.15L351.62,480.08L361.86,480.81L365.28,488.04L368.69,491.66L372.1,491.66L375.52,491.66L378.93,493.11L389.17,498.17L392.59,498.17L399.41,498.17L402.83,499.62L413.07,507.57L416.48,507.57L501.83,507.57L505.24,506.85L553.03,507.57L556.45,521.32L563.28,521.32L566.69,522.77" style="vector-effect: none; fill: none; stroke: rgb(238, 58, 67); stroke-opacity: 1; stroke-width: 5px; opacity: 1;"/></g><g class="points"/><g class="text"/></g><g class="trace scatter trace7385a2" style="stroke-miterlimit: 2; opacity: 1;"><g class="fills"/><g class="errorbars"/><g class="lines"><path class="js-line" d="M0,479.36L10.24,481.53L13.66,481.53L23.9,480.81L27.31,479.36L34.14,480.08L37.55,480.08L47.79,480.08L51.21,481.53L78.52,480.81L81.93,482.25L126.31,482.25L129.72,488.04L146.79,488.04L150.21,493.83L191.17,493.83L198,485.15L201.41,503.96L208.24,503.96L238.97,504.68L242.38,509.74L252.62,509.74L256.03,512.64L286.76,512.64L290.17,511.19L293.59,511.19L297,512.64L300.41,511.19L303.83,512.64L310.66,512.64L314.07,511.19L317.48,512.64L320.9,512.64L327.72,512.64L331.14,511.19L334.55,511.19L337.97,512.64L341.38,511.19L344.79,511.19L348.21,513.36L351.62,511.91L375.52,512.64L378.93,513.36L385.76,515.53L389.17,516.26L399.41,516.26L402.83,517.7L406.24,520.6L409.66,520.6L416.48,521.32L419.9,521.32L501.83,520.6" style="vector-effect: none; fill: none; stroke: rgb(255, 192, 203); stroke-opacity: 1; stroke-width: 5px; opacity: 1;"/></g><g class="points"/><g class="text"/></g></g></g><g class="overplot"/><path class="xlines-above crisp" d="M0,0" style="fill: none;"/><path class="ylines-above crisp" d="M0,0" style="fill: none;"/><g class="overlines-above"/><g class="xaxislayer-above"><g class="xtick"><text text-anchor="middle" x="0" y="563" transform="translate(84.14,0)" style="font-family: 'Open Sans', verdana, arial, sans-serif; font-size: 12px; fill: rgb(42, 63, 95); fill-opacity: 1; white-space: pre; opacity: 1;">1.7.23</text></g><g class="xtick"><text text-anchor="middle" x="0" y="563" style="font-family: 'Open Sans', verdana, arial, sans-serif; font-size: 12px; fill: rgb(42, 63, 95); fill-opacity: 1; white-space: pre; opacity: 1;" transform="translate(189.97,0)">1.8.23</text></g><g class="xtick"><text text-anchor="middle" x="0" y="563" style="font-family: 'Open Sans', verdana, arial, sans-serif; font-size: 12px; fill: rgb(42, 63, 95); fill-opacity: 1; white-space: pre; opacity: 1;" transform="translate(295.78999999999996,0)">1.9.23</text></g><g class="xtick"><text text-anchor="middle" x="0" y="563" style="font-family: 'Open Sans', verdana, arial, sans-serif; font-size: 12px; fill: rgb(42, 63, 95); fill-opacity: 1; white-space: pre; opacity: 1;" transform="translate(398.21,0)">1.10.23</text></g><g class="xtick"><text text-anchor="middle" x="0" y="563" style="font-family: 'Open Sans', verdana, arial, sans-serif; font-size: 12px; fill: rgb(42, 63, 95); fill-opacity: 1; white-space: pre; opacity: 1;" transform="translate(504.03,0)">1.11.23</text></g><g class="xtick"><text text-anchor="middle" x="0" y="563" style="font-family: 'Open Sans', verdana, arial, sans-serif; font-size: 12px; fill: rgb(42, 63, 95); fill-opacity: 1; white-space: pre; opacity: 1;" transform="translate(606.45,0)">1.12.23</text></g><g class="xtick"><text text-anchor="middle" x="0" y="563" style="font-family: 'Open Sans', verdana, arial, sans-serif; font-size: 12px; fill: rgb(42, 63, 95); fill-opacity: 1; white-space: pre; opacity: 1;" transform="translate(712.28,0)">1.1.24</text></g><g class="xtick"><text text-anchor="middle" x="0" y="563" style="font-family: 'Open Sans', verdana, arial, sans-serif; font-size: 12px; fill: rgb(42, 63, 95); fill-opacity: 1; white-space: pre; opacity: 1;" transform="translate(818.1,0)">1.2.24</text></g><g class="xtick"><text text-anchor="middle" x="0" y="563" style="font-family: 'Open Sans', verdana, arial, sans-serif; font-size: 12px; fill: rgb(42, 63, 95); fill-opacity: 1; white-space: pre; opacity: 1;" transform="translate(917.1,0)">1.3.24</text></g><g class="xtick"><text text-anchor="middle" x="0" y="563" style="font-family: 'Open Sans', verdana, arial, sans-serif; font-size: 12px; fill: rgb(42, 63, 95); fill-opacity: 1; white-space: pre; opacity: 1;" transform="translate(1022.93,0)">1.4.24</text></g></g><g class="yaxislayer-above"><g class="ytick"><text text-anchor="end" x="49" y="4.199999999999999" transform="translate(0,550)" style="font-family: 'Open Sans', verdana, arial, sans-serif; font-size: 12px; fill: rgb(42, 63, 95); fill-opacity: 1; white-space: pre; opacity: 1;">0%</text></g><g class="ytick"><text text-anchor="end" x="49" y="4.199999999999999" style="font-family: 'Open Sans', verdana, arial, sans-serif; font-size: 12px; fill: rgb(42, 63, 95); fill-opacity: 1; white-space: pre; opacity: 1;" transform="translate(0,477.66)">10%</text></g><g class="ytick"><text text-anchor="end" x="49" y="4.199999999999999" style="font-family: 'Open Sans', verdana, arial, sans-serif; font-size: 12px; fill: rgb(42, 63, 95); fill-opacity: 1; white-space: pre; opacity: 1;" transform="translate(0,405.32)">20%</text></g><g class="ytick"><text text-anchor="end" x="49" y="4.199999999999999" style="font-family: 'Open Sans', verdana, arial, sans-serif; font-size: 12px; fill: rgb(42, 63, 95); fill-opacity: 1; white-space: pre; opacity: 1;" transform="translate(0,332.97)">30%</text></g><g class="ytick"><text text-anchor="end" x="49" y="4.199999999999999" style="font-family: 'Open Sans', verdana, arial, sans-serif; font-size: 12px; fill: rgb(42, 63, 95); fill-opacity: 1; white-space: pre; opacity: 1;" transform="translate(0,260.63)">40%</text></g><g class="ytick"><text text-anchor="end" x="49" y="4.199999999999999" style="font-family: 'Open Sans', verdana, arial, sans-serif; font-size: 12px; fill: rgb(42, 63, 95); fill-opacity: 1; white-space: pre; opacity: 1;" transform="translate(0,188.29)">50%</text></g><g class="ytick"><text text-anchor="end" x="49" y="4.199999999999999" style="font-family: 'Open Sans', verdana, arial, sans-serif; font-size: 12px; fill: rgb(42, 63, 95); fill-opacity: 1; white-space: pre; opacity: 1;" transform="translate(0,115.95)">60%</text></g><g class="ytick"><text text-anchor="end" x="49" y="4.199999999999999" style="font-family: 'Open Sans', verdana, arial, sans-serif; font-size: 12px; fill: rgb(42, 63, 95); fill-opacity: 1; white-space: pre; opacity: 1;" transform="translate(0,43.61)">70%</text></g></g><g class="overaxes-above"/></g></g><g class="polarlayer"/><g class="smithlayer"/><g class="ternarylayer"/><g class="geolayer"/><g class="funnelarealayer"/><g class="pielayer"/><g class="iciclelayer"/><g class="treemaplayer"/><g class="sunburstlayer"/><g class="glimages"/><defs id="topdefs-b2f3ae"><g class="clips"/><clipPath id="legendb2f3ae"><rect width="128" height="124" x="0" y="0"/></clipPath></defs><g class="layer-above"><g class="imagelayer"/><g class="shapelayer"/></g><g class="infolayer"><g class="legend" pointer-events="all" transform="translate(1059.8000000000002,20)"><rect class="bg" shape-rendering="crispEdges" style="stroke: rgb(68, 68, 68); stroke-opacity: 1; fill: rgb(255, 255, 255); fill-opacity: 1; stroke-width: 0px;" width="128" height="124" x="0" y="0"/><g class="scrollbox" transform="" clip-path="url(#legendb2f3ae)"><g class="groups"><g class="traces" transform="translate(0,14.5)" style="opacity: 1;"><text class="legendtext" text-anchor="start" x="40" y="4.680000000000001" style="font-family: 'Open Sans', verdana, arial, sans-serif; font-size: 12px; fill: rgb(42, 63, 95); fill-opacity: 1; white-space: pre;">Pellegrini Peter</text><g class="layers" style="opacity: 1;"><g class="legendfill"/><g class="legendlines"><path class="js-line" d="M5,0h30" style="fill: none; stroke: rgb(138, 44, 81); stroke-opacity: 1; stroke-width: 5px;"/></g><g class="legendsymbols"><g class="legendpoints"/></g></g><rect class="legendtoggle" x="0" y="-9.5" width="122.703125" height="19" style="fill: rgb(0, 0, 0); fill-opacity: 0;"/></g><g class="traces" transform="translate(0,33.5)" style="opacity: 1;"><text class="legendtext" text-anchor="start" x="40" y="4.680000000000001" style="font-family: 'Open Sans', verdana, arial, sans-serif; font-size: 12px; fill: rgb(42, 63, 95); fill-opacity: 1; white-space: pre;">Korčok Ivan</text><g class="layers" style="opacity: 1;"><g class="legendfill"/><g class="legendlines"><path class="js-line" d="M5,0h30" style="fill: none; stroke: rgb(0, 174, 239); stroke-opacity: 1; stroke-width: 5px;"/></g><g class="legendsymbols"><g class="legendpoints"/></g></g><rect class="legendtoggle" x="0" y="-9.5" width="122.703125" height="19" style="fill: rgb(0, 0, 0); fill-opacity: 0;"/></g><g class="traces" transform="translate(0,52.5)" style="opacity: 1;"><text class="legendtext" text-anchor="start" x="40" y="4.680000000000001" style="font-family: 'Open Sans', verdana, arial, sans-serif; font-size: 12px; fill: rgb(42, 63, 95); fill-opacity: 1; white-space: pre;">Kubiš Ján</text><g class="layers" style="opacity: 1;"><g class="legendfill"/><g class="legendlines"><path class="js-line" d="M5,0h30" style="fill: none; stroke: rgb(255, 1, 170); stroke-opacity: 1; stroke-width: 5px;"/></g><g class="legendsymbols"><g class="legendpoints"/></g></g><rect class="legendtoggle" x="0" y="-9.5" width="122.703125" height="19" style="fill: rgb(0, 0, 0); fill-opacity: 0;"/></g><g class="traces" transform="translate(0,71.5)" style="opacity: 1;"><text class="legendtext" text-anchor="start" x="40" y="4.680000000000001" style="font-family: 'Open Sans', verdana, arial, sans-serif; font-size: 12px; fill: rgb(42, 63, 95); fill-opacity: 1; white-space: pre;">Mistrík Robert</text><g class="layers" style="opacity: 1;"><g class="legendfill"/><g class="legendlines"><path class="js-line" d="M5,0h30" style="fill: none; stroke: rgb(202, 166, 105); stroke-opacity: 1; stroke-width: 5px;"/></g><g class="legendsymbols"><g class="legendpoints"/></g></g><rect class="legendtoggle" x="0" y="-9.5" width="122.703125" height="19" style="fill: rgb(0, 0, 0); fill-opacity: 0;"/></g><g class="traces" transform="translate(0,90.5)" style="opacity: 1;"><text class="legendtext" text-anchor="start" x="40" y="4.680000000000001" style="font-family: 'Open Sans', verdana, arial, sans-serif; font-size: 12px; fill: rgb(42, 63, 95); fill-opacity: 1; white-space: pre;">Fico Robert</text><g class="layers" style="opacity: 1;"><g class="legendfill"/><g class="legendlines"><path class="js-line" d="M5,0h30" style="fill: none; stroke: rgb(238, 58, 67); stroke-opacity: 1; stroke-width: 5px;"/></g><g class="legendsymbols"><g class="legendpoints"/></g></g><rect class="legendtoggle" x="0" y="-9.5" width="122.703125" height="19" style="fill: rgb(0, 0, 0); fill-opacity: 0;"/></g><g class="traces" transform="translate(0,109.5)" style="opacity: 1;"><text class="legendtext" text-anchor="start" x="40" y="4.680000000000001" style="font-family: 'Open Sans', verdana, arial, sans-serif; font-size: 12px; fill: rgb(42, 63, 95); fill-opacity: 1; white-space: pre;">Lajčák Miroslav</text><g class="layers" style="opacity: 1;"><g class="legendfill"/><g class="legendlines"><path class="js-line" d="M5,0h30" style="fill: none; stroke: rgb(255, 192, 203); stroke-opacity: 1; stroke-width: 5px;"/></g><g class="legendsymbols"><g class="legendpoints"/></g></g><rect class="legendtoggle" x="0" y="-9.5" width="122.703125" height="19" style="fill: rgb(0, 0, 0); fill-opacity: 0;"/></g></g></g><rect class="scrollbar" rx="20" ry="3" width="0" height="0" style="fill: rgb(128, 139, 164); fill-opacity: 1;" x="0" y="0"/></g><g class="g-gtitle"/><g class="g-xtitle"/><g class="g-ytitle"/></g></svg>