<svg class="main-svg" xmlns="http://www.w3.org/2000/svg" xmlns:xlink="http://www.w3.org/1999/xlink" width="300" height="135" style="" viewBox="0 0 300 135"><rect x="0" y="0" width="300" height="135" style="fill: rgb(255, 255, 255); fill-opacity: 1;"/><defs id="defs-1bebdf"><g class="clips"><clipPath id="clip1bebdfxyplot" class="plotclip"><rect width="280" height="75"/></clipPath><clipPath class="axesclip" id="clip1bebdfx"><rect x="10" y="0" width="280" height="135"/></clipPath><clipPath class="axesclip" id="clip1bebdfy"><rect x="0" y="50" width="300" height="75"/></clipPath><clipPath class="axesclip" id="clip1bebdfxy"><rect x="10" y="50" width="280" height="75"/></clipPath></g><g class="gradients"/><g class="patterns"/></defs><g class="bglayer"/><g class="layer-below"><g class="imagelayer"/><g class="shapelayer"/></g><g class="cartesianlayer"><g class="subplot xy"><g class="layer-subplot"><g class="shapelayer"/><g class="imagelayer"/></g><g class="minor-gridlayer"><g class="x"/><g class="y"/></g><g class="gridlayer"><g class="x"><path class="xgrid crisp" transform="translate(26.87,0)" d="M0,50v75" style="stroke: rgb(235, 240, 248); stroke-opacity: 1; stroke-width: 1px;"/><path class="xgrid crisp" transform="translate(131.45,0)" d="M0,50v75" style="stroke: rgb(235, 240, 248); stroke-opacity: 1; stroke-width: 1px;"/><path class="xgrid crisp" transform="translate(234.34,0)" d="M0,50v75" style="stroke: rgb(235, 240, 248); stroke-opacity: 1; stroke-width: 1px;"/></g><g class="y"><path class="ygrid crisp" transform="translate(0,98.75999999999999)" d="M10,0h280" style="stroke: rgb(235, 240, 248); stroke-opacity: 1; stroke-width: 1px;"/><path class="ygrid crisp" transform="translate(0,72.51)" d="M10,0h280" style="stroke: rgb(235, 240, 248); stroke-opacity: 1; stroke-width: 1px;"/></g></g><g class="zerolinelayer"><path class="yzl zl crisp" transform="translate(0,125)" d="M10,0h280" style="stroke: rgb(235, 240, 248); stroke-opacity: 1; stroke-width: 2px;"/></g><path class="xlines-below"/><path class="ylines-below"/><g class="overlines-below"/><g class="xaxislayer-below"/><g class="yaxislayer-below"/><g class="overaxes-below"/><g class="plot" transform="translate(10,50)" clip-path="url(#clip1bebdfxyplot)"><g class="scatterlayer mlayer"><g class="trace scatter trace1209c5" style="stroke-miterlimit: 2; opacity: 1;"><g class="fills"/><g class="errorbars"/><g class="lines"><path class="js-line" d="M0,47.58L5.06,44.16L6.75,44.16L13.49,44.43L15.18,43.51L38.8,42.46L40.48,41.67L72.53,40.75L74.22,35.24L94.46,35.24L97.83,39.05L99.52,38.26L102.89,38.26L116.39,38L118.07,40.88L121.45,42.33L123.13,41.8L124.82,41.28L126.51,42.46L170.36,41.67L172.05,39.05L175.42,40.1L177.11,40.1L178.8,39.83L180.48,35.5L182.17,32.88L183.86,32.88L187.23,32.22L188.92,27.89L192.29,25.4L193.98,25.4L199.04,24.61L200.72,23.43L205.78,20.55L207.47,20.55L220.96,20.94L222.65,22.25L236.14,22.25L237.83,20.41L239.52,20.41L241.2,17.27L247.95,17.27L249.64,13.72L259.76,13.72L261.45,11.62L264.82,10.84L266.51,10.84L273.25,8.21L274.94,3.75L280,3.75" style="vector-effect: none; fill: none; stroke: rgb(138, 44, 81); stroke-opacity: 1; stroke-width: 5px; opacity: 1;"/></g><g class="points"/><g class="text"/></g><g class="trace scatter tracea2bfe1" style="stroke-miterlimit: 2; opacity: 1;"><g class="fills"/><g class="errorbars"/><g class="lines"><path class="js-line" d="M0,17.79L5.06,19.63L6.75,19.63L13.49,19.36L15.18,18.58L72.53,19.76L74.22,19.89L97.83,19.76L99.52,23.43L116.39,22.25L118.07,19.23L119.76,14.77L121.45,14.77L124.82,17.13L126.51,13.2L141.69,13.2L143.37,15.17L145.06,15.17L146.75,13.2L148.43,15.17L150.12,12.8L153.49,12.28L155.18,14.77L156.87,12.28L158.55,12.28L161.93,12.28L163.61,14.77L165.3,14.77L166.99,12.28L168.67,14.77L170.36,14.77L172.05,12.41L173.73,15.43L185.54,16.22L187.23,16.87L190.6,19.89L192.29,20.02L217.59,20.94L219.28,21.73L239.52,21.86L241.2,23.17L259.76,22.91L261.45,25.01L273.25,27.76L274.94,25.27L280,25.27" style="vector-effect: none; fill: none; stroke: rgb(0, 174, 239); stroke-opacity: 1; stroke-width: 5px; opacity: 1;"/></g><g class="points"/><g class="text"/></g><g class="trace scatter trace533693" style="stroke-miterlimit: 2; opacity: 1;"><g class="fills"/><g class="errorbars"/><g class="lines"><path class="js-line" d="M0,61.75L11.81,63.06L13.49,62.27L16.87,61.48L18.55,61.48L72.53,61.75L74.22,63.32L97.83,62.27L99.52,53.74L118.07,54.53L119.76,55.32L148.43,54.92L150.12,55.71L153.49,56.24L155.18,55.32L158.55,56.24L160.24,56.24L170.36,55.32L172.05,59.12L173.73,56.5L175.42,56.5L178.8,56.63L180.48,58.6L183.86,60.17L185.54,60.17L187.23,59.78L188.92,61.09L197.35,61.35L199.04,61.22L205.78,61.88L207.47,61.88L217.59,61.35L219.28,60.17L220.96,60.17L222.65,58.34L236.14,58.34L237.83,60.04L244.58,62.4L246.27,62.4L268.19,63.58L269.88,63.72L273.25,63.85L274.94,67.91L280,67.91" style="vector-effect: none; fill: none; stroke: rgb(255, 1, 170); stroke-opacity: 1; stroke-width: 5px; opacity: 1;"/></g><g class="points"/><g class="text"/></g><g class="trace scatter trace0d085b" style="stroke-miterlimit: 2; opacity: 1;"><g class="fills"/><g class="errorbars"/><g class="lines"><path class="js-line" d="M0,64.63L10.12,64.9L11.81,63.06L15.18,67.13L16.87,67.13L121.45,67.78L123.13,68.31L124.82,68.83L126.51,67.91L170.36,68.83L172.05,69.23L197.35,70.28L199.04,70.54L207.47,71.59L209.16,71.59L247.95,71.59L249.64,72.9L280,73.43" style="vector-effect: none; fill: none; stroke: rgb(202, 166, 105); stroke-opacity: 1; stroke-width: 5px; opacity: 1;"/></g><g class="points"/><g class="text"/></g><g class="trace scatter traceb0f5b1" style="stroke-miterlimit: 2; opacity: 1;"><g class="fills"/><g class="errorbars"/><g class="lines"><path class="js-line" d="M0,61.22L10.12,61.75L11.81,61.22L40.48,62.8L42.17,62.8L72.53,62.53L74.22,64.5L97.83,63.72L99.52,65.42L118.07,65.81L119.76,67.26L123.13,66.47L124.82,65.68L126.51,67.91L128.19,67.91L172.05,66.86L173.73,65.95L178.8,66.08L180.48,67.39L185.54,68.05L187.23,68.31L195.66,69.23L197.35,69.23L210.84,70.93L212.53,70.93L273.25,70.93L274.94,73.43L280,73.43" style="vector-effect: none; fill: none; stroke: rgb(238, 58, 67); stroke-opacity: 1; stroke-width: 5px; opacity: 1;"/></g><g class="points"/><g class="text"/></g></g></g><g class="overplot"/><path class="xlines-above crisp" d="M0,0" style="fill: none;"/><path class="ylines-above crisp" d="M0,0" style="fill: none;"/><g class="overlines-above"/><g class="xaxislayer-above"/><g class="yaxislayer-above"/><g class="overaxes-above"/></g></g><g class="polarlayer"/><g class="smithlayer"/><g class="ternarylayer"/><g class="geolayer"/><g class="funnelarealayer"/><g class="pielayer"/><g class="iciclelayer"/><g class="treemaplayer"/><g class="sunburstlayer"/><g class="glimages"/><defs id="topdefs-1bebdf"><g class="clips"/></defs><g class="layer-above"><g class="imagelayer"/><g class="shapelayer"/></g><g class="infolayer"><g class="g-gtitle"><text class="gtitle" x="15" y="25" text-anchor="start" dy="0em" style="font-family: Ubuntu, verdana, arial, sans-serif; font-size: 16px; fill: rgb(233, 84, 32); opacity: 1; font-weight: normal; white-space: pre;">Prezident/ka 2024</text></g><g class="g-xtitle"/><g class="g-ytitle"/></g></svg>