<svg class="main-svg" xmlns="http://www.w3.org/2000/svg" xmlns:xlink="http://www.w3.org/1999/xlink" width="300" height="135" style="" viewBox="0 0 300 135"><rect x="0" y="0" width="300" height="135" style="fill: rgb(255, 255, 255); fill-opacity: 1;"/><defs id="defs-da1358"><g class="clips"><clipPath id="clipda1358xyplot" class="plotclip"><rect width="280" height="75"/></clipPath><clipPath class="axesclip" id="clipda1358x"><rect x="10" y="0" width="280" height="135"/></clipPath><clipPath class="axesclip" id="clipda1358y"><rect x="0" y="50" width="300" height="75"/></clipPath><clipPath class="axesclip" id="clipda1358xy"><rect x="10" y="50" width="280" height="75"/></clipPath></g><g class="gradients"/><g class="patterns"/></defs><g class="bglayer"/><g class="layer-below"><g class="imagelayer"/><g class="shapelayer"/></g><g class="cartesianlayer"><g class="subplot xy"><g class="layer-subplot"><g class="shapelayer"/><g class="imagelayer"/></g><g class="minor-gridlayer"><g class="x"/><g class="y"/></g><g class="gridlayer"><g class="x"><path class="xgrid crisp" transform="translate(28.79,0)" d="M0,50v75" style="stroke: rgb(235, 240, 248); stroke-opacity: 1; stroke-width: 1px;"/><path class="xgrid crisp" transform="translate(87.05,0)" d="M0,50v75" style="stroke: rgb(235, 240, 248); stroke-opacity: 1; stroke-width: 1px;"/><path class="xgrid crisp" transform="translate(145.3,0)" d="M0,50v75" style="stroke: rgb(235, 240, 248); stroke-opacity: 1; stroke-width: 1px;"/><path class="xgrid crisp" transform="translate(201.68,0)" d="M0,50v75" style="stroke: rgb(235, 240, 248); stroke-opacity: 1; stroke-width: 1px;"/><path class="xgrid crisp" transform="translate(259.93,0)" d="M0,50v75" style="stroke: rgb(235, 240, 248); stroke-opacity: 1; stroke-width: 1px;"/></g><g class="y"><path class="ygrid crisp" transform="translate(0,95.19)" d="M10,0h280" style="stroke: rgb(235, 240, 248); stroke-opacity: 1; stroke-width: 1px;"/><path class="ygrid crisp" transform="translate(0,65.38)" d="M10,0h280" style="stroke: rgb(235, 240, 248); stroke-opacity: 1; stroke-width: 1px;"/></g></g><g class="zerolinelayer"><path class="yzl zl crisp" transform="translate(0,125)" d="M10,0h280" style="stroke: rgb(235, 240, 248); stroke-opacity: 1; stroke-width: 2px;"/></g><path class="xlines-below"/><path class="ylines-below"/><g class="overlines-below"/><g class="xaxislayer-below"/><g class="yaxislayer-below"/><g class="overaxes-below"/><g class="plot" transform="translate(10,50)" clip-path="url(#clipda1358xyplot)"><g class="scatterlayer mlayer"><g class="trace scatter trace46f77a" style="stroke-miterlimit: 2; opacity: 1;"><g class="fills"/><g class="errorbars"/><g class="lines"><path class="js-line" d="M0,43.85L5.64,39.97L7.52,39.97L15.03,40.27L16.91,39.23L43.22,38.03L45.1,37.14L80.81,36.1L82.68,29.84L105.23,29.84L108.99,34.16L110.87,33.26L114.63,33.26L129.66,32.97L131.54,36.24L135.3,37.88L137.18,37.29L139.06,36.69L140.94,38.03L189.8,37.14L191.68,34.16L195.44,35.35L197.32,35.35L199.19,35.05L201.07,30.13L202.95,27.15L204.83,27.15L208.59,26.41L210.47,21.49L214.23,18.66L216.11,18.66L221.74,17.76L223.62,16.42L229.26,13.14L231.14,13.14L246.17,13.59L248.05,15.08L263.09,15.08L264.97,12.99L266.85,12.99L268.72,9.41L276.24,9.41L278.12,5.39L280,5.39" style="vector-effect: none; fill: none; stroke: rgb(138, 44, 81); stroke-opacity: 1; stroke-width: 5px; opacity: 1;"/></g><g class="points"/><g class="text"/></g><g class="trace scatter trace358e6b" style="stroke-miterlimit: 2; opacity: 1;"><g class="fills"/><g class="errorbars"/><g class="lines"><path class="js-line" d="M0,10.01L5.64,12.1L7.52,12.1L13.15,13.14L15.03,11.8L18.79,10.9L20.67,10.9L43.22,11.5L45.1,12.25L108.99,12.25L110.87,16.42L127.79,15.67L129.66,15.08L133.42,6.58L135.3,6.58L139.06,9.27L140.94,4.79L157.85,4.79L159.73,7.03L161.61,7.03L163.49,4.79L165.37,7.03L167.25,4.35L171.01,3.75L172.89,6.58L174.77,3.75L176.64,3.75L180.4,3.75L182.28,6.58L184.16,6.58L186.04,3.75L187.92,6.58L189.8,6.58L191.68,3.9L193.56,7.33L206.71,8.22L208.59,8.97L212.35,12.4L214.23,12.54L242.42,13.59L244.3,14.48L266.85,14.63L268.72,16.12L280,15.82" style="vector-effect: none; fill: none; stroke: rgb(0, 174, 239); stroke-opacity: 1; stroke-width: 5px; opacity: 1;"/></g><g class="points"/><g class="text"/></g><g class="trace scatter tracef2dff4" style="stroke-miterlimit: 2; opacity: 1;"><g class="fills"/><g class="errorbars"/><g class="lines"><path class="js-line" d="M0,59.95L9.4,60.39L11.28,60.39L13.15,61.44L15.03,60.54L18.79,59.65L20.67,59.65L80.81,59.95L82.68,61.73L108.99,60.54L110.87,50.85L131.54,51.75L133.42,52.64L165.37,52.19L167.25,53.09L171.01,53.68L172.89,52.64L176.64,53.68L178.52,53.68L189.8,52.64L191.68,56.96L193.56,53.98L195.44,53.98L199.19,54.13L201.07,56.37L202.95,58.16L204.83,58.16L208.59,57.71L210.47,59.2L219.87,59.5L221.74,59.35L227.38,60.09L229.26,60.09L242.42,59.5L244.3,58.16L246.17,58.16L248.05,56.07L263.09,56.07L264.97,58.01L266.85,58.6L268.72,60.69L280,61.88" style="vector-effect: none; fill: none; stroke: rgb(255, 1, 170); stroke-opacity: 1; stroke-width: 5px; opacity: 1;"/></g><g class="points"/><g class="text"/></g><g class="trace scatter trace040955" style="stroke-miterlimit: 2; opacity: 1;"><g class="fills"/><g class="errorbars"/><g class="lines"><path class="js-line" d="M0,59.35L11.28,59.95L13.15,59.35L43.22,61.14L45.1,61.14L80.81,60.84L82.68,63.08L108.99,62.18L110.87,64.12L131.54,64.57L133.42,66.21L137.18,65.31L139.06,64.42L140.94,66.95L142.82,66.95L171.01,66.8L172.89,65.61L176.64,66.8L178.52,66.8L191.68,65.76L193.56,64.71L199.19,64.86L201.07,66.35L204.83,67.1L206.71,67.1L233.02,70.38L234.9,70.38L280,70.23" style="vector-effect: none; fill: none; stroke: rgb(238, 58, 67); stroke-opacity: 1; stroke-width: 5px; opacity: 1;"/></g><g class="points"/><g class="text"/></g><g class="trace scatter trace10b3fd" style="stroke-miterlimit: 2; opacity: 1;"><g class="fills"/><g class="errorbars"/><g class="lines"><path class="js-line" d="M0,63.22L11.28,63.52L13.15,61.44L16.91,66.06L18.79,66.06L127.79,66.8L129.66,66.95L189.8,67.99L191.68,68.44L212.35,69.48L214.23,69.63L225.5,70.68L227.38,71.12L276.24,71.12L278.12,72.62L280,72.62" style="vector-effect: none; fill: none; stroke: rgb(202, 166, 105); stroke-opacity: 1; stroke-width: 5px; opacity: 1;"/></g><g class="points"/><g class="text"/></g></g></g><g class="overplot"/><path class="xlines-above crisp" d="M0,0" style="fill: none;"/><path class="ylines-above crisp" d="M0,0" style="fill: none;"/><g class="overlines-above"/><g class="xaxislayer-above"/><g class="yaxislayer-above"/><g class="overaxes-above"/></g></g><g class="polarlayer"/><g class="smithlayer"/><g class="ternarylayer"/><g class="geolayer"/><g class="funnelarealayer"/><g class="pielayer"/><g class="iciclelayer"/><g class="treemaplayer"/><g class="sunburstlayer"/><g class="glimages"/><defs id="topdefs-da1358"><g class="clips"/></defs><g class="layer-above"><g class="imagelayer"/><g class="shapelayer"/></g><g class="infolayer"><g class="g-gtitle"><text class="gtitle" x="15" y="25" text-anchor="start" dy="0em" style="font-family: Ubuntu, verdana, arial, sans-serif; font-size: 16px; fill: rgb(233, 84, 32); opacity: 1; font-weight: normal; white-space: pre;">Prezident/ka 2024</text></g><g class="g-xtitle"/><g class="g-ytitle"/></g></svg>