<svg class="main-svg" xmlns="http://www.w3.org/2000/svg" xmlns:xlink="http://www.w3.org/1999/xlink" width="400" height="400" style="" viewBox="0 0 400 400"><rect x="0" y="0" width="400" height="400" style="fill: rgb(255, 255, 255); fill-opacity: 1;"/><defs id="defs-2075e3"><g class="clips"><clipPath id="clip2075e3xyplot" class="plotclip"><rect width="206" height="330"/></clipPath><clipPath class="axesclip" id="clip2075e3x"><rect x="50" y="0" width="206" height="400"/></clipPath><clipPath class="axesclip" id="clip2075e3y"><rect x="0" y="20" width="400" height="330"/></clipPath><clipPath class="axesclip" id="clip2075e3xy"><rect x="50" y="20" width="206" height="330"/></clipPath></g><g class="gradients"/><g class="patterns"/></defs><g class="bglayer"/><g class="layer-below"><g class="imagelayer"/><g class="shapelayer"/></g><g class="cartesianlayer"><g class="subplot xy"><g class="layer-subplot"><g class="shapelayer"/><g class="imagelayer"/></g><g class="minor-gridlayer"><g class="x"/><g class="y"/></g><g class="gridlayer"><g class="x"><path class="xgrid crisp" transform="translate(56.87,0)" d="M0,20v330" style="stroke: rgb(235, 240, 248); stroke-opacity: 1; stroke-width: 1px;"/><path class="xgrid crisp" transform="translate(99.44,0)" d="M0,20v330" style="stroke: rgb(235, 240, 248); stroke-opacity: 1; stroke-width: 1px;"/><path class="xgrid crisp" transform="translate(141.32999999999998,0)" d="M0,20v330" style="stroke: rgb(235, 240, 248); stroke-opacity: 1; stroke-width: 1px;"/><path class="xgrid crisp" transform="translate(183.21,0)" d="M0,20v330" style="stroke: rgb(235, 240, 248); stroke-opacity: 1; stroke-width: 1px;"/><path class="xgrid crisp" transform="translate(224.41,0)" d="M0,20v330" style="stroke: rgb(235, 240, 248); stroke-opacity: 1; stroke-width: 1px;"/></g><g class="y"><path class="ygrid crisp" transform="translate(0,299.27)" d="M50,0h206" style="stroke: rgb(235, 240, 248); stroke-opacity: 1; stroke-width: 1px;"/><path class="ygrid crisp" transform="translate(0,248.54)" d="M50,0h206" style="stroke: rgb(235, 240, 248); stroke-opacity: 1; stroke-width: 1px;"/><path class="ygrid crisp" transform="translate(0,197.82)" d="M50,0h206" style="stroke: rgb(235, 240, 248); stroke-opacity: 1; stroke-width: 1px;"/><path class="ygrid crisp" transform="translate(0,147.09)" d="M50,0h206" style="stroke: rgb(235, 240, 248); stroke-opacity: 1; stroke-width: 1px;"/><path class="ygrid crisp" transform="translate(0,96.36)" d="M50,0h206" style="stroke: rgb(235, 240, 248); stroke-opacity: 1; stroke-width: 1px;"/><path class="ygrid crisp" transform="translate(0,45.629999999999995)" d="M50,0h206" style="stroke: rgb(235, 240, 248); stroke-opacity: 1; stroke-width: 1px;"/></g></g><g class="zerolinelayer"><path class="yzl zl crisp" transform="translate(0,350)" d="M50,0h206" style="stroke: rgb(235, 240, 248); stroke-opacity: 1; stroke-width: 2px;"/></g><path class="xlines-below"/><path class="ylines-below"/><g class="overlines-below"/><g class="xaxislayer-below"/><g class="yaxislayer-below"/><g class="overaxes-below"/><g class="plot" transform="translate(50,20)" clip-path="url(#clip2075e3xyplot)"><g class="scatterlayer mlayer"><g class="trace scatter trace18bee7" style="stroke-miterlimit: 2; opacity: 1;"><g class="fills"/><g class="errorbars"/><g class="lines"><path class="js-line" d="M0,223.98L2.06,210.79L2.75,210.79L4.12,210.79L4.81,214.34L6.87,208.25L7.55,208.25L9.61,208.25L10.3,206.73L12.36,206.73L13.05,205.21L15.11,204.19L15.79,204.19L17.17,201.15L17.85,201.15L25.41,201.15L26.09,197.6L29.53,197.6L30.21,176.29L38.45,176.29L39.83,191L40.51,187.96L41.89,187.96L47.38,186.95L48.07,198.11L49.44,203.69L50.13,201.66L50.81,199.63L51.5,204.19L57.68,204.19L58.37,202.17L59.05,202.17L59.74,204.19L60.43,202.17L61.11,203.69L61.8,202.17L69.35,201.15L70.04,191L71.41,195.06L72.1,195.06L72.79,194.05L73.47,177.31L74.85,167.16L75.53,167.16L76.22,164.63L76.91,147.89L78.97,138.25L79.65,138.25L80.34,138.25L81.03,135.2L83.77,119.48L84.46,119.48L88.58,119.99L89.27,121L89.95,121L90.64,126.07L96.13,126.07L96.82,118.97L97.51,118.97L98.19,106.8L100.94,106.8L101.63,93.1L105.75,93.1L106.43,84.98L107.81,81.94L108.49,81.94L111.24,71.79L111.93,54.55L113.3,54.55L113.99,45.92L115.36,25.12L116.05,25.12L120.85,25.12L121.54,32.73L122.91,36.28L123.6,36.28L124.29,38.31L124.97,46.43L125.66,49.47L126.35,47.44L127.03,43.89L132.53,42.88L133.21,45.42L133.9,44.4L134.59,27.66L135.27,16.5L135.96,17.51" style="vector-effect: none; fill: none; stroke: rgb(138, 44, 81); stroke-opacity: 1; stroke-width: 5px; opacity: 1;"/></g><g class="points"/><g class="text"/></g><g class="trace scatter tracec14b7f" style="stroke-miterlimit: 2; opacity: 1;"><g class="fills"/><g class="errorbars"/><g class="lines"><path class="js-line" d="M0,108.83L2.06,115.93L2.75,115.93L4.12,115.93L4.81,119.48L6.87,111.87L7.55,111.87L13.05,112.88L13.73,113.9L15.79,113.9L16.48,116.43L39.83,116.43L40.51,130.64L46.01,130.64L46.69,128.1L47.38,126.07L48.07,114.41L49.44,97.16L50.13,101.72L50.81,106.29L51.5,91.07L57.68,91.07L58.37,98.68L59.05,98.68L59.74,91.07L60.43,98.68L61.11,89.55L62.49,87.52L63.17,97.16L64.55,87.52L65.23,87.52L65.92,87.52L66.61,97.16L67.29,97.16L67.98,87.52L69.35,97.16L70.04,88.03L71.41,99.69L72.1,99.69L72.79,99.69L73.47,102.74L75.53,102.74L76.22,105.27L78.28,117.45L78.97,117.45L81.71,117.45L82.4,118.97L85.15,119.48L85.83,119.48L87.89,119.48L88.58,121L90.64,126.07L92.01,126.07L96.82,126.58L97.51,124.55L98.88,129.62L99.57,129.62L105.75,128.61L106.43,136.73L107.81,138.75L108.49,138.75L111.24,147.38L111.93,137.74L113.3,137.74L113.99,142.81L115.36,149.41L116.05,149.41L120.85,149.41L121.54,142.31L122.91,138.25L123.6,138.25L124.29,136.22L124.97,124.55L125.66,121L126.35,122.01L127.03,123.54L132.53,123.54L133.21,121L133.9,121L134.59,134.19L135.27,143.83L135.96,142.81" style="vector-effect: none; fill: none; stroke: rgb(0, 174, 239); stroke-opacity: 1; stroke-width: 5px; opacity: 1;"/></g><g class="points"/><g class="text"/></g><g class="trace scatter trace7b393b" style="stroke-miterlimit: 2; opacity: 1;"><g class="fills"/><g class="errorbars"/><g class="lines"><path class="js-line" d="M0,278.76L2.06,280.29L2.75,280.29L4.12,280.29L4.81,283.84L6.87,277.75L7.55,277.75L29.53,278.76L30.21,284.85L38.45,284.85L39.83,280.79L40.51,247.82L41.89,247.82L46.01,247.82L46.69,249.34L49.44,253.91L50.13,252.39L50.81,250.36L51.5,254.42L57.68,254.42L58.37,252.39L59.05,252.39L59.74,254.42L60.43,252.39L61.11,255.43L62.49,257.46L63.17,253.91L64.55,257.46L65.23,257.46L65.92,257.46L66.61,253.91L67.29,253.91L67.98,257.46L69.35,253.91L70.04,268.62L71.41,258.47L72.1,258.47L72.79,258.98L73.47,266.59L74.85,272.68L75.53,272.68L76.22,271.16L76.91,276.23L78.97,277.24L79.65,277.24L82.4,277.24L83.09,279.27L87.89,279.27L88.58,277.24L90.64,265.58L92.01,265.58L96.13,265.58L96.82,272.17L97.51,274.2L98.19,281.3L100.94,281.3L101.63,285.36L109.87,286.37L110.55,286.88L111.24,286.88L111.93,302.61L113.3,302.61L113.99,304.64L115.36,307.68L116.05,307.68L124.29,307.68L124.97,312.25L126.35,313.26L127.03,315.29L133.21,316.3L133.9,317.32L135.96,322.39" style="vector-effect: none; fill: none; stroke: rgb(255, 1, 170); stroke-opacity: 1; stroke-width: 5px; opacity: 1;"/></g><g class="points"/><g class="text"/></g><g class="trace scatter tracedfa64a" style="stroke-miterlimit: 2; opacity: 1;"><g class="fills"/><g class="errorbars"/><g class="lines"><path class="js-line" d="M0,289.92L3.43,290.94L4.12,290.94L4.81,283.84L5.49,293.48L6.87,299.56L7.55,299.56L25.41,298.55L26.09,298.04L29.53,298.04L30.21,300.58L39.83,299.56L40.51,301.59L49.44,302.1L50.13,304.13L50.81,306.16L51.5,302.61L57.68,302.61L58.37,304.13L59.05,304.13L59.74,302.61L62.49,305.65L63.17,306.16L65.92,305.65L66.61,306.16L69.35,306.16L70.04,307.68L73.47,307.68L74.16,308.69L76.91,309.71L77.59,311.23L81.71,314.27L82.4,315.29L84.46,316.81L85.15,316.81L100.94,316.81L101.63,321.88L111.24,322.39L111.93,323.91L113.99,324.93" style="vector-effect: none; fill: none; stroke: rgb(202, 166, 105); stroke-opacity: 1; stroke-width: 5px; opacity: 1;"/></g><g class="points"/><g class="text"/></g><g class="trace scatter tracea87a6b" style="stroke-miterlimit: 2; opacity: 1;"><g class="fills"/><g class="errorbars"/><g class="lines"><path class="js-line" d="M0,294.49L3.43,296.01L4.12,296.01L6.87,295L7.55,295L15.79,295.5L16.48,296.52L25.41,296.52L26.09,300.58L29.53,300.58L30.21,304.64L38.45,304.64L39.83,298.55L40.51,311.74L41.89,311.74L48.07,312.25L48.75,315.8L50.81,315.8L51.5,317.83L69.35,316.81L70.04,318.33L72.1,317.32L72.79,317.32L76.22,318.33L76.91,319.35L81.03,321.38L81.71,323.41L100.94,323.41" style="vector-effect: none; fill: none; stroke: rgb(255, 192, 203); stroke-opacity: 1; stroke-width: 5px; opacity: 1;"/></g><g class="points"/><g class="text"/></g><g class="trace scatter trace9346d1" style="stroke-miterlimit: 2; opacity: 1;"><g class="fills"/><g class="errorbars"/><g class="lines"><path class="js-line" d="M0,276.74L2.75,278.76L3.43,278.76L4.12,278.76L4.81,276.74L5.49,277.24L6.18,279.78L12.36,280.29L13.05,281.81L15.11,282.82L15.79,282.82L29.53,281.81L30.21,289.42L38.45,289.42L39.83,286.37L40.51,292.97L41.89,292.97L46.69,293.48L47.38,294.49L48.07,294.49L48.75,300.07L49.44,300.07L50.13,297.03L50.81,293.98L51.5,302.61L57.68,302.61L58.37,298.55L59.05,298.55L59.74,302.61L60.43,298.55L61.11,302.1L62.49,302.1L63.17,298.04L64.55,302.1L65.23,302.1L65.92,302.1L66.61,298.04L67.29,298.04L67.98,302.1L69.35,298.04L70.04,298.55L71.41,295L72.1,295L72.79,295.5L73.47,300.58L74.85,303.11L75.53,303.11L78.97,307.68L79.65,307.68L81.03,308.69L81.71,310.72L84.46,314.27L85.15,314.27L111.24,314.27L111.93,323.91L113.99,324.93" style="vector-effect: none; fill: none; stroke: rgb(238, 58, 67); stroke-opacity: 1; stroke-width: 5px; opacity: 1;"/></g><g class="points"/><g class="text"/></g></g></g><g class="overplot"/><path class="xlines-above crisp" d="M0,0" style="fill: none;"/><path class="ylines-above crisp" d="M0,0" style="fill: none;"/><g class="overlines-above"/><g class="xaxislayer-above"><g class="xtick"><text text-anchor="middle" x="0" y="363" transform="translate(56.87,0)" style="font-family: 'Open Sans', verdana, arial, sans-serif; font-size: 12px; fill: rgb(42, 63, 95); fill-opacity: 1; white-space: pre; opacity: 1;">1.7.23</text></g><g class="xtick"><text text-anchor="middle" x="0" y="363" style="font-family: 'Open Sans', verdana, arial, sans-serif; font-size: 12px; fill: rgb(42, 63, 95); fill-opacity: 1; white-space: pre; opacity: 1;" transform="translate(99.44,0)">1.9.23</text></g><g class="xtick"><text text-anchor="middle" x="0" y="363" style="font-family: 'Open Sans', verdana, arial, sans-serif; font-size: 12px; fill: rgb(42, 63, 95); fill-opacity: 1; white-space: pre; opacity: 1;" transform="translate(141.32999999999998,0)">1.11.23</text></g><g class="xtick"><text text-anchor="middle" x="0" y="363" style="font-family: 'Open Sans', verdana, arial, sans-serif; font-size: 12px; fill: rgb(42, 63, 95); fill-opacity: 1; white-space: pre; opacity: 1;" transform="translate(183.21,0)">1.1.24</text></g><g class="xtick"><text text-anchor="middle" x="0" y="363" style="font-family: 'Open Sans', verdana, arial, sans-serif; font-size: 12px; fill: rgb(42, 63, 95); fill-opacity: 1; white-space: pre; opacity: 1;" transform="translate(224.41,0)">1.3.24</text></g></g><g class="yaxislayer-above"><g class="ytick"><text text-anchor="end" x="49" y="4.199999999999999" transform="translate(0,350)" style="font-family: 'Open Sans', verdana, arial, sans-serif; font-size: 12px; fill: rgb(42, 63, 95); fill-opacity: 1; white-space: pre; opacity: 1;">0%</text></g><g class="ytick"><text text-anchor="end" x="49" y="4.199999999999999" style="font-family: 'Open Sans', verdana, arial, sans-serif; font-size: 12px; fill: rgb(42, 63, 95); fill-opacity: 1; white-space: pre; opacity: 1;" transform="translate(0,299.27)">10%</text></g><g class="ytick"><text text-anchor="end" x="49" y="4.199999999999999" style="font-family: 'Open Sans', verdana, arial, sans-serif; font-size: 12px; fill: rgb(42, 63, 95); fill-opacity: 1; white-space: pre; opacity: 1;" transform="translate(0,248.54)">20%</text></g><g class="ytick"><text text-anchor="end" x="49" y="4.199999999999999" style="font-family: 'Open Sans', verdana, arial, sans-serif; font-size: 12px; fill: rgb(42, 63, 95); fill-opacity: 1; white-space: pre; opacity: 1;" transform="translate(0,197.82)">30%</text></g><g class="ytick"><text text-anchor="end" x="49" y="4.199999999999999" style="font-family: 'Open Sans', verdana, arial, sans-serif; font-size: 12px; fill: rgb(42, 63, 95); fill-opacity: 1; white-space: pre; opacity: 1;" transform="translate(0,147.09)">40%</text></g><g class="ytick"><text text-anchor="end" x="49" y="4.199999999999999" style="font-family: 'Open Sans', verdana, arial, sans-serif; font-size: 12px; fill: rgb(42, 63, 95); fill-opacity: 1; white-space: pre; opacity: 1;" transform="translate(0,96.36)">50%</text></g><g class="ytick"><text text-anchor="end" x="49" y="4.199999999999999" style="font-family: 'Open Sans', verdana, arial, sans-serif; font-size: 12px; fill: rgb(42, 63, 95); fill-opacity: 1; white-space: pre; opacity: 1;" transform="translate(0,45.629999999999995)">60%</text></g></g><g class="overaxes-above"/></g></g><g class="polarlayer"/><g class="smithlayer"/><g class="ternarylayer"/><g class="geolayer"/><g class="funnelarealayer"/><g class="pielayer"/><g class="iciclelayer"/><g class="treemaplayer"/><g class="sunburstlayer"/><g class="glimages"/><defs id="topdefs-2075e3"><g class="clips"/><clipPath id="legend2075e3"><rect width="128" height="124" x="0" y="0"/></clipPath></defs><g class="layer-above"><g class="imagelayer"/><g class="shapelayer"/></g><g class="infolayer"><g class="legend" pointer-events="all" transform="translate(260.12,20)"><rect class="bg" shape-rendering="crispEdges" width="128" height="124" x="0" y="0" style="stroke: rgb(68, 68, 68); stroke-opacity: 1; fill: rgb(255, 255, 255); fill-opacity: 1; stroke-width: 0px;"/><g class="scrollbox" transform="" clip-path="url(#legend2075e3)"><g class="groups"><g class="traces" transform="translate(0,14.5)" style="opacity: 1;"><text class="legendtext" text-anchor="start" x="40" y="4.680000000000001" style="font-family: 'Open Sans', verdana, arial, sans-serif; font-size: 12px; fill: rgb(42, 63, 95); fill-opacity: 1; white-space: pre;">Pellegrini Peter</text><g class="layers" style="opacity: 1;"><g class="legendfill"/><g class="legendlines"><path class="js-line" d="M5,0h30" style="fill: none; stroke: rgb(138, 44, 81); stroke-opacity: 1; stroke-width: 5px;"/></g><g class="legendsymbols"><g class="legendpoints"/></g></g><rect class="legendtoggle" x="0" y="-9.5" width="122.703125" height="19" style="fill: rgb(0, 0, 0); fill-opacity: 0;"/></g><g class="traces" transform="translate(0,33.5)" style="opacity: 1;"><text class="legendtext" text-anchor="start" x="40" y="4.680000000000001" style="font-family: 'Open Sans', verdana, arial, sans-serif; font-size: 12px; fill: rgb(42, 63, 95); fill-opacity: 1; white-space: pre;">Korčok Ivan</text><g class="layers" style="opacity: 1;"><g class="legendfill"/><g class="legendlines"><path class="js-line" d="M5,0h30" style="fill: none; stroke: rgb(0, 174, 239); stroke-opacity: 1; stroke-width: 5px;"/></g><g class="legendsymbols"><g class="legendpoints"/></g></g><rect class="legendtoggle" x="0" y="-9.5" width="122.703125" height="19" style="fill: rgb(0, 0, 0); fill-opacity: 0;"/></g><g class="traces" transform="translate(0,52.5)" style="opacity: 1;"><text class="legendtext" text-anchor="start" x="40" y="4.680000000000001" style="font-family: 'Open Sans', verdana, arial, sans-serif; font-size: 12px; fill: rgb(42, 63, 95); fill-opacity: 1; white-space: pre;">Kubiš Ján</text><g class="layers" style="opacity: 1;"><g class="legendfill"/><g class="legendlines"><path class="js-line" d="M5,0h30" style="fill: none; stroke: rgb(255, 1, 170); stroke-opacity: 1; stroke-width: 5px;"/></g><g class="legendsymbols"><g class="legendpoints"/></g></g><rect class="legendtoggle" x="0" y="-9.5" width="122.703125" height="19" style="fill: rgb(0, 0, 0); fill-opacity: 0;"/></g><g class="traces" transform="translate(0,71.5)" style="opacity: 1;"><text class="legendtext" text-anchor="start" x="40" y="4.680000000000001" style="font-family: 'Open Sans', verdana, arial, sans-serif; font-size: 12px; fill: rgb(42, 63, 95); fill-opacity: 1; white-space: pre;">Mistrík Robert</text><g class="layers" style="opacity: 1;"><g class="legendfill"/><g class="legendlines"><path class="js-line" d="M5,0h30" style="fill: none; stroke: rgb(202, 166, 105); stroke-opacity: 1; stroke-width: 5px;"/></g><g class="legendsymbols"><g class="legendpoints"/></g></g><rect class="legendtoggle" x="0" y="-9.5" width="122.703125" height="19" style="fill: rgb(0, 0, 0); fill-opacity: 0;"/></g><g class="traces" transform="translate(0,90.5)" style="opacity: 1;"><text class="legendtext" text-anchor="start" x="40" y="4.680000000000001" style="font-family: 'Open Sans', verdana, arial, sans-serif; font-size: 12px; fill: rgb(42, 63, 95); fill-opacity: 1; white-space: pre;">Lajčák Miroslav</text><g class="layers" style="opacity: 1;"><g class="legendfill"/><g class="legendlines"><path class="js-line" d="M5,0h30" style="fill: none; stroke: rgb(255, 192, 203); stroke-opacity: 1; stroke-width: 5px;"/></g><g class="legendsymbols"><g class="legendpoints"/></g></g><rect class="legendtoggle" x="0" y="-9.5" width="122.703125" height="19" style="fill: rgb(0, 0, 0); fill-opacity: 0;"/></g><g class="traces" transform="translate(0,109.5)" style="opacity: 1;"><text class="legendtext" text-anchor="start" x="40" y="4.680000000000001" style="font-family: 'Open Sans', verdana, arial, sans-serif; font-size: 12px; fill: rgb(42, 63, 95); fill-opacity: 1; white-space: pre;">Fico Robert</text><g class="layers" style="opacity: 1;"><g class="legendfill"/><g class="legendlines"><path class="js-line" d="M5,0h30" style="fill: none; stroke: rgb(238, 58, 67); stroke-opacity: 1; stroke-width: 5px;"/></g><g class="legendsymbols"><g class="legendpoints"/></g></g><rect class="legendtoggle" x="0" y="-9.5" width="122.703125" height="19" style="fill: rgb(0, 0, 0); fill-opacity: 0;"/></g></g></g><rect class="scrollbar" rx="20" ry="3" width="0" height="0" x="0" y="0" style="fill: rgb(128, 139, 164); fill-opacity: 1;"/></g><g class="g-gtitle"/><g class="g-xtitle"/><g class="g-ytitle"/></g></svg>