<svg class="main-svg" xmlns="http://www.w3.org/2000/svg" xmlns:xlink="http://www.w3.org/1999/xlink" width="300" height="135" style="" viewBox="0 0 300 135"><rect x="0" y="0" width="300" height="135" style="fill: rgb(255, 255, 255); fill-opacity: 1;"/><defs id="defs-0cb984"><g class="clips"><clipPath id="clip0cb984xyplot" class="plotclip"><rect width="280" height="75"/></clipPath><clipPath class="axesclip" id="clip0cb984x"><rect x="10" y="0" width="280" height="135"/></clipPath><clipPath class="axesclip" id="clip0cb984y"><rect x="0" y="50" width="300" height="75"/></clipPath><clipPath class="axesclip" id="clip0cb984xy"><rect x="10" y="50" width="280" height="75"/></clipPath></g><g class="gradients"/><g class="patterns"/></defs><g class="bglayer"/><g class="layer-below"><g class="imagelayer"/><g class="shapelayer"/></g><g class="cartesianlayer"><g class="subplot xy"><g class="layer-subplot"><g class="shapelayer"/><g class="imagelayer"/></g><g class="minor-gridlayer"><g class="x"/><g class="y"/></g><g class="gridlayer"><g class="x"><path class="xgrid crisp" transform="translate(21.52,0)" d="M0,50v75" style="stroke: rgb(235, 240, 248); stroke-opacity: 1; stroke-width: 1px;"/><path class="xgrid crisp" transform="translate(92.96,0)" d="M0,50v75" style="stroke: rgb(235, 240, 248); stroke-opacity: 1; stroke-width: 1px;"/><path class="xgrid crisp" transform="translate(163.25,0)" d="M0,50v75" style="stroke: rgb(235, 240, 248); stroke-opacity: 1; stroke-width: 1px;"/><path class="xgrid crisp" transform="translate(233.54,0)" d="M0,50v75" style="stroke: rgb(235, 240, 248); stroke-opacity: 1; stroke-width: 1px;"/></g><g class="y"><path class="ygrid crisp" transform="translate(0,102.77000000000001)" d="M10,0h280" style="stroke: rgb(235, 240, 248); stroke-opacity: 1; stroke-width: 1px;"/><path class="ygrid crisp" transform="translate(0,80.53999999999999)" d="M10,0h280" style="stroke: rgb(235, 240, 248); stroke-opacity: 1; stroke-width: 1px;"/><path class="ygrid crisp" transform="translate(0,58.31)" d="M10,0h280" style="stroke: rgb(235, 240, 248); stroke-opacity: 1; stroke-width: 1px;"/></g></g><g class="zerolinelayer"><path class="yzl zl crisp" transform="translate(0,125)" d="M10,0h280" style="stroke: rgb(235, 240, 248); stroke-opacity: 1; stroke-width: 2px;"/></g><path class="xlines-below"/><path class="ylines-below"/><g class="overlines-below"/><g class="xaxislayer-below"/><g class="yaxislayer-below"/><g class="overaxes-below"/><g class="plot" transform="translate(10,50)" clip-path="url(#clip0cb984xyplot)"><g class="scatterlayer mlayer"><g class="trace scatter trace8826b0" style="stroke-miterlimit: 2; opacity: 1;"><g class="fills"/><g class="errorbars"/><g class="lines"><path class="js-line" d="M270.78,21.65L280,21.65" style="vector-effect: none; fill: none; stroke: rgb(187, 187, 187); stroke-opacity: 1; stroke-width: 5px; opacity: 1;"/></g><g class="points"/><g class="text"/></g><g class="trace scatter trace873e47" style="stroke-miterlimit: 2; opacity: 1;"><g class="fills"/><g class="errorbars"/><g class="lines"><path class="js-line" d="M0,51.77L3.46,48.88L4.61,48.88L9.22,49.1L10.37,48.32L26.5,47.43L27.65,46.77L49.55,45.99L50.7,41.32L64.53,41.32L66.83,44.54L70.29,43.88L71.44,43.88L79.51,43.65L80.66,46.1L82.96,47.32L84.12,46.88L85.27,46.43L86.42,47.43L116.38,46.77L117.53,44.54L119.84,45.43L120.99,45.43L122.14,45.21L123.29,41.54L125.6,39.32L126.75,39.32L127.9,38.76L129.05,35.1L131.36,32.98L132.51,32.98L135.97,32.32L137.12,31.32L140.58,28.87L141.73,28.87L150.95,29.2L152.1,30.32L161.32,30.32L162.47,28.76L163.62,28.76L164.77,26.09L169.38,26.09L170.53,23.09L177.45,23.09L178.6,21.31L185.51,18.42L186.67,18.42L188.97,14.64L190.12,14.64L191.28,12.75L192.43,8.2L202.8,8.2L203.95,9.86L206.26,10.64L207.41,10.64L209.71,12.86L210.86,13.53L216.63,12.31L217.78,12.31L224.69,12.42L225.84,8.75L228.15,5.08L229.3,4.97L232.76,5.86L233.91,3.75L237.37,4.75L238.52,5.64L240.82,6.75L241.98,10.53L243.13,11.86L244.28,10.53L246.58,10.64L247.74,8.86L250.04,8.97L251.19,9.09L253.5,8.64L254.65,7.75L258.11,4.64L259.26,4.64L262.72,6.64L263.87,5.75L266.17,6.42L267.33,8.64L269.63,14.87L270.78,43.65L280,44.43" style="vector-effect: none; fill: none; stroke: rgb(138, 44, 81); stroke-opacity: 1; stroke-width: 5px; opacity: 1;"/></g><g class="points"/><g class="text"/></g><g class="trace scatter tracebeaaa1" style="stroke-miterlimit: 2; opacity: 1;"><g class="fills"/><g class="errorbars"/><g class="lines"><path class="js-line" d="M0,26.54L4.61,28.09L5.76,28.09L9.22,27.87L10.37,27.2L66.83,28.2L67.98,31.32L79.51,30.32L80.66,27.76L82.96,23.98L84.12,24.98L85.27,25.98L86.42,22.65L96.79,22.65L97.94,24.31L99.09,24.31L100.25,22.65L101.4,24.31L102.55,22.31L104.86,21.87L106.01,23.98L108.31,21.87L109.47,21.87L110.62,21.87L111.77,23.98L112.92,23.98L114.07,21.87L116.38,23.98L117.53,21.98L119.84,24.54L120.99,24.54L127.9,25.76L129.05,27.65L132.51,28.43L133.66,28.43L148.64,29.2L149.79,29.87L177.45,30.87L178.6,32.65L186.67,34.98L187.82,32.87L191.28,33.98L192.43,35.43L202.8,35.43L203.95,33.87L206.26,32.98L207.41,32.98L208.56,32.54L209.71,29.98L212.02,29.43L213.17,29.76L224.69,29.2L225.84,32.09L228.15,35.43L229.3,35.54L231.6,33.76L232.76,32.98L235.06,35.1L236.21,34.54L240.82,32.09L241.98,28.32L243.13,26.98L244.28,28.32L246.58,28.2L247.74,29.98L250.04,29.87L251.19,29.76L253.5,30.2L254.65,31.09L258.11,34.21L259.26,34.21L262.72,32.21L263.87,33.09L266.17,32.43L267.33,30.2L269.63,23.98L270.78,48.66L280,47.77" style="vector-effect: none; fill: none; stroke: rgb(0, 174, 239); stroke-opacity: 1; stroke-width: 5px; opacity: 1;"/></g><g class="points"/><g class="text"/></g><g class="trace scatter trace8b691e" style="stroke-miterlimit: 2; opacity: 1;"><g class="fills"/><g class="errorbars"/><g class="lines"><path class="js-line" d="M0,63.33L6.91,63.77L8.07,63.33L29.96,64.66L31.11,64.66L49.55,64.44L50.7,66.11L66.83,65.44L67.98,66.89L80.66,67.22L81.81,68.44L84.12,67.77L85.27,67.11L87.57,69L88.72,69L117.53,68.11L118.68,67.33L123.29,68.55L124.44,69.11L135.97,70.33L137.12,70.78L145.19,71.55L146.34,71.55L186.67,71.55L187.82,73.67L191.28,73.89" style="vector-effect: none; fill: none; stroke: rgb(238, 58, 67); stroke-opacity: 1; stroke-width: 5px; opacity: 1;"/></g><g class="points"/><g class="text"/></g><g class="trace scatter trace21f51e" style="stroke-miterlimit: 2; opacity: 1;"><g class="fills"/><g class="errorbars"/><g class="lines"><path class="js-line" d="M0,63.77L8.07,64.88L9.22,64.22L12.67,63.55L13.83,63.55L49.55,63.77L50.7,65.11L66.83,64.22L67.98,56.99L80.66,57.66L81.81,58.33L102.55,58.66L103.7,59.1L116.38,58.33L117.53,61.55L119.84,59.33L120.99,59.33L122.14,59.44L123.29,61.11L125.6,62.44L126.75,62.44L127.9,62.11L129.05,63.22L135.97,63.33L137.12,63.22L145.19,63.88L146.34,63.88L148.64,63.44L149.79,62.44L150.95,62.44L152.1,60.88L161.32,60.88L162.47,62.33L168.23,64.33L169.38,64.33L171.69,65.22L172.84,65.22L186.67,65.55L187.82,69L208.56,70.11L209.71,71.11L224.69,72.22L225.84,73L231.6,73.55" style="vector-effect: none; fill: none; stroke: rgb(255, 1, 170); stroke-opacity: 1; stroke-width: 5px; opacity: 1;"/></g><g class="points"/><g class="text"/></g></g></g><g class="overplot"/><path class="xlines-above crisp" d="M0,0" style="fill: none;"/><path class="ylines-above crisp" d="M0,0" style="fill: none;"/><g class="overlines-above"/><g class="xaxislayer-above"/><g class="yaxislayer-above"/><g class="overaxes-above"/></g></g><g class="polarlayer"/><g class="smithlayer"/><g class="ternarylayer"/><g class="geolayer"/><g class="funnelarealayer"/><g class="pielayer"/><g class="iciclelayer"/><g class="treemaplayer"/><g class="sunburstlayer"/><g class="glimages"/><defs id="topdefs-0cb984"><g class="clips"/></defs><g class="layer-above"><g class="imagelayer"/><g class="shapelayer"/></g><g class="infolayer"><g class="g-gtitle"><text class="gtitle" x="15" y="25" text-anchor="start" dy="0em" style="font-family: Ubuntu, verdana, arial, sans-serif; font-size: 16px; fill: rgb(233, 84, 32); opacity: 1; font-weight: normal; white-space: pre;">Prezident/ka 2024</text></g><g class="g-xtitle"/><g class="g-ytitle"/></g></svg>