<svg class="main-svg" xmlns="http://www.w3.org/2000/svg" xmlns:xlink="http://www.w3.org/1999/xlink" width="300" height="135" style="" viewBox="0 0 300 135"><rect x="0" y="0" width="300" height="135" style="fill: rgb(255, 255, 255); fill-opacity: 1;"/><defs id="defs-ec0ba4"><g class="clips"><clipPath id="clipec0ba4xyplot" class="plotclip"><rect width="280" height="75"/></clipPath><clipPath class="axesclip" id="clipec0ba4x"><rect x="10" y="0" width="280" height="135"/></clipPath><clipPath class="axesclip" id="clipec0ba4y"><rect x="0" y="50" width="300" height="75"/></clipPath><clipPath class="axesclip" id="clipec0ba4xy"><rect x="10" y="50" width="280" height="75"/></clipPath></g><g class="gradients"/><g class="patterns"/></defs><g class="bglayer"/><g class="layer-below"><g class="imagelayer"/><g class="shapelayer"/></g><g class="cartesianlayer"><g class="subplot xy"><g class="layer-subplot"><g class="shapelayer"/><g class="imagelayer"/></g><g class="minor-gridlayer"><g class="x"/><g class="y"/></g><g class="gridlayer"><g class="x"><path class="xgrid crisp" transform="translate(21.43,0)" d="M0,50v75" style="stroke: rgb(235, 240, 248); stroke-opacity: 1; stroke-width: 1px;"/><path class="xgrid crisp" transform="translate(92.29,0)" d="M0,50v75" style="stroke: rgb(235, 240, 248); stroke-opacity: 1; stroke-width: 1px;"/><path class="xgrid crisp" transform="translate(162,0)" d="M0,50v75" style="stroke: rgb(235, 240, 248); stroke-opacity: 1; stroke-width: 1px;"/><path class="xgrid crisp" transform="translate(231.71,0)" d="M0,50v75" style="stroke: rgb(235, 240, 248); stroke-opacity: 1; stroke-width: 1px;"/></g><g class="y"><path class="ygrid crisp" transform="translate(0,102.77000000000001)" d="M10,0h280" style="stroke: rgb(235, 240, 248); stroke-opacity: 1; stroke-width: 1px;"/><path class="ygrid crisp" transform="translate(0,80.53999999999999)" d="M10,0h280" style="stroke: rgb(235, 240, 248); stroke-opacity: 1; stroke-width: 1px;"/><path class="ygrid crisp" transform="translate(0,58.31)" d="M10,0h280" style="stroke: rgb(235, 240, 248); stroke-opacity: 1; stroke-width: 1px;"/></g></g><g class="zerolinelayer"><path class="yzl zl crisp" transform="translate(0,125)" d="M10,0h280" style="stroke: rgb(235, 240, 248); stroke-opacity: 1; stroke-width: 2px;"/></g><path class="xlines-below"/><path class="ylines-below"/><g class="overlines-below"/><g class="xaxislayer-below"/><g class="yaxislayer-below"/><g class="overaxes-below"/><g class="plot" transform="translate(10,50)" clip-path="url(#clipec0ba4xyplot)"><g class="scatterlayer mlayer"><g class="trace scatter tracefb1b88" style="stroke-miterlimit: 2; opacity: 1;"><g class="fills"/><g class="errorbars"/><g class="lines"><path class="js-line" d="M268.57,21.65L280,21.53" style="vector-effect: none; fill: none; stroke: rgb(187, 187, 187); stroke-opacity: 1; stroke-width: 5px; opacity: 1;"/></g><g class="points"/><g class="text"/></g><g class="trace scatter trace5d7c44" style="stroke-miterlimit: 2; opacity: 1;"><g class="fills"/><g class="errorbars"/><g class="lines"><path class="js-line" d="M0,51.77L3.43,48.88L4.57,48.88L9.14,49.1L10.29,48.32L26.29,47.43L27.43,46.77L49.14,45.99L50.29,41.32L64,41.32L66.29,44.54L69.71,43.88L70.86,43.88L78.86,43.65L80,46.1L82.29,47.32L83.43,46.88L84.57,46.43L85.71,47.43L115.43,46.77L116.57,44.54L118.86,45.43L120,45.43L121.14,45.21L122.29,41.54L124.57,39.32L125.71,39.32L126.86,38.76L128,35.1L130.29,32.98L131.43,32.98L134.86,32.32L136,31.32L139.43,28.87L140.57,28.87L149.71,29.2L150.86,30.32L160,30.32L161.14,28.76L162.29,28.76L163.43,26.09L168,26.09L169.14,23.09L176,23.09L177.14,21.31L184,18.42L185.14,18.42L187.43,14.64L188.57,14.64L189.71,12.75L190.86,8.2L201.14,8.2L202.29,9.86L204.57,10.64L205.71,10.64L208,12.86L209.14,13.53L214.86,12.31L216,12.31L222.86,12.42L224,8.75L226.29,5.08L227.43,4.97L230.86,5.86L232,3.75L235.43,4.75L236.57,5.64L238.86,6.75L240,10.53L241.14,11.86L242.29,10.53L244.57,10.64L245.71,8.86L248,8.97L249.14,9.09L251.43,8.64L252.57,7.75L256,4.64L257.14,4.64L260.57,6.64L261.71,5.75L264,6.42L265.14,8.64L267.43,14.87L268.57,43.65L280,43.99" style="vector-effect: none; fill: none; stroke: rgb(138, 44, 81); stroke-opacity: 1; stroke-width: 5px; opacity: 1;"/></g><g class="points"/><g class="text"/></g><g class="trace scatter traceac0781" style="stroke-miterlimit: 2; opacity: 1;"><g class="fills"/><g class="errorbars"/><g class="lines"><path class="js-line" d="M0,26.54L4.57,28.09L5.71,28.09L9.14,27.87L10.29,27.2L66.29,28.2L67.43,31.32L78.86,30.32L80,27.76L82.29,23.98L83.43,24.98L84.57,25.98L85.71,22.65L96,22.65L97.14,24.31L98.29,24.31L99.43,22.65L100.57,24.31L101.71,22.31L104,21.87L105.14,23.98L107.43,21.87L108.57,21.87L109.71,21.87L110.86,23.98L112,23.98L113.14,21.87L115.43,23.98L116.57,21.98L118.86,24.54L120,24.54L126.86,25.76L128,27.65L131.43,28.43L132.57,28.43L147.43,29.2L148.57,29.87L176,30.87L177.14,32.65L185.14,34.98L186.29,32.87L189.71,33.98L190.86,35.43L201.14,35.43L202.29,33.87L204.57,32.98L205.71,32.98L206.86,32.54L208,29.98L210.29,29.43L211.43,29.76L222.86,29.2L224,32.09L226.29,35.43L227.43,35.54L229.71,33.76L230.86,32.98L233.14,35.1L234.29,34.54L238.86,32.09L240,28.32L241.14,26.98L242.29,28.32L244.57,28.2L245.71,29.98L248,29.87L249.14,29.76L251.43,30.2L252.57,31.09L256,34.21L257.14,34.21L260.57,32.21L261.71,33.09L264,32.43L265.14,30.2L267.43,23.98L268.57,48.66L280,48.32" style="vector-effect: none; fill: none; stroke: rgb(0, 174, 239); stroke-opacity: 1; stroke-width: 5px; opacity: 1;"/></g><g class="points"/><g class="text"/></g><g class="trace scatter tracea39e37" style="stroke-miterlimit: 2; opacity: 1;"><g class="fills"/><g class="errorbars"/><g class="lines"><path class="js-line" d="M0,63.33L6.86,63.77L8,63.33L29.71,64.66L30.86,64.66L49.14,64.44L50.29,66.11L66.29,65.44L67.43,66.89L80,67.22L81.14,68.44L83.43,67.77L84.57,67.11L86.86,69L88,69L116.57,68.11L117.71,67.33L122.29,68.55L123.43,69.11L134.86,70.33L136,70.78L144,71.55L145.14,71.55L185.14,71.55L186.29,73.67L189.71,73.89" style="vector-effect: none; fill: none; stroke: rgb(238, 58, 67); stroke-opacity: 1; stroke-width: 5px; opacity: 1;"/></g><g class="points"/><g class="text"/></g><g class="trace scatter trace69aa05" style="stroke-miterlimit: 2; opacity: 1;"><g class="fills"/><g class="errorbars"/><g class="lines"><path class="js-line" d="M0,67.22L12.57,67.33L13.71,67.33L49.14,68.55L50.29,69.44L64,69.44L66.29,68.11L67.43,71L69.71,71L84.57,71.89L85.71,72.33L134.86,73.11L136,73.55L168,73.55" style="vector-effect: none; fill: none; stroke: rgb(255, 192, 203); stroke-opacity: 1; stroke-width: 5px; opacity: 1;"/></g><g class="points"/><g class="text"/></g></g></g><g class="overplot"/><path class="xlines-above crisp" d="M0,0" style="fill: none;"/><path class="ylines-above crisp" d="M0,0" style="fill: none;"/><g class="overlines-above"/><g class="xaxislayer-above"/><g class="yaxislayer-above"/><g class="overaxes-above"/></g></g><g class="polarlayer"/><g class="smithlayer"/><g class="ternarylayer"/><g class="geolayer"/><g class="funnelarealayer"/><g class="pielayer"/><g class="iciclelayer"/><g class="treemaplayer"/><g class="sunburstlayer"/><g class="glimages"/><defs id="topdefs-ec0ba4"><g class="clips"/></defs><g class="layer-above"><g class="imagelayer"/><g class="shapelayer"/></g><g class="infolayer"><g class="g-gtitle"><text class="gtitle" x="15" y="25" text-anchor="start" dy="0em" style="font-family: Ubuntu, verdana, arial, sans-serif; font-size: 16px; fill: rgb(233, 84, 32); opacity: 1; font-weight: normal; white-space: pre;">Prezident/ka 2024</text></g><g class="g-xtitle"/><g class="g-ytitle"/></g></svg>