<svg class="main-svg" xmlns="http://www.w3.org/2000/svg" xmlns:xlink="http://www.w3.org/1999/xlink" width="300" height="135" style="" viewBox="0 0 300 135"><rect x="0" y="0" width="300" height="135" style="fill: rgb(255, 255, 255); fill-opacity: 1;"/><defs id="defs-7755f4"><g class="clips"><clipPath id="clip7755f4xyplot" class="plotclip"><rect width="280" height="75"/></clipPath><clipPath class="axesclip" id="clip7755f4x"><rect x="10" y="0" width="280" height="135"/></clipPath><clipPath class="axesclip" id="clip7755f4y"><rect x="0" y="50" width="300" height="75"/></clipPath><clipPath class="axesclip" id="clip7755f4xy"><rect x="10" y="50" width="280" height="75"/></clipPath></g><g class="gradients"/><g class="patterns"/></defs><g class="bglayer"/><g class="layer-below"><g class="imagelayer"/><g class="shapelayer"/></g><g class="cartesianlayer"><g class="subplot xy"><g class="layer-subplot"><g class="shapelayer"/><g class="imagelayer"/></g><g class="minor-gridlayer"><g class="x"/><g class="y"/></g><g class="gridlayer"><g class="x"><path class="xgrid crisp" transform="translate(23.08,0)" d="M0,50v75" style="stroke: rgb(235, 240, 248); stroke-opacity: 1; stroke-width: 1px;"/><path class="xgrid crisp" transform="translate(104.21,0)" d="M0,50v75" style="stroke: rgb(235, 240, 248); stroke-opacity: 1; stroke-width: 1px;"/><path class="xgrid crisp" transform="translate(184.02,0)" d="M0,50v75" style="stroke: rgb(235, 240, 248); stroke-opacity: 1; stroke-width: 1px;"/><path class="xgrid crisp" transform="translate(263.83000000000004,0)" d="M0,50v75" style="stroke: rgb(235, 240, 248); stroke-opacity: 1; stroke-width: 1px;"/></g><g class="y"><path class="ygrid crisp" transform="translate(0,102.77000000000001)" d="M10,0h280" style="stroke: rgb(235, 240, 248); stroke-opacity: 1; stroke-width: 1px;"/><path class="ygrid crisp" transform="translate(0,80.53999999999999)" d="M10,0h280" style="stroke: rgb(235, 240, 248); stroke-opacity: 1; stroke-width: 1px;"/><path class="ygrid crisp" transform="translate(0,58.31)" d="M10,0h280" style="stroke: rgb(235, 240, 248); stroke-opacity: 1; stroke-width: 1px;"/></g></g><g class="zerolinelayer"><path class="yzl zl crisp" transform="translate(0,125)" d="M10,0h280" style="stroke: rgb(235, 240, 248); stroke-opacity: 1; stroke-width: 2px;"/></g><path class="xlines-below"/><path class="ylines-below"/><g class="overlines-below"/><g class="xaxislayer-below"/><g class="yaxislayer-below"/><g class="overaxes-below"/><g class="plot" transform="translate(10,50)" clip-path="url(#clip7755f4xyplot)"><g class="scatterlayer mlayer"><g class="trace scatter trace522407" style="stroke-miterlimit: 2; opacity: 1;"><g class="fills"/><g class="errorbars"/><g class="lines"><path class="js-line" d="M0,51.77L3.93,48.88L5.23,48.88L10.47,49.1L11.78,48.32L30.09,47.43L31.4,46.77L56.26,45.99L57.57,41.32L73.27,41.32L75.89,44.54L79.81,43.88L81.12,43.88L90.28,43.65L91.59,46.1L94.21,47.32L95.51,46.88L96.82,46.43L98.13,47.43L132.15,46.77L133.46,44.54L136.07,45.43L137.38,45.43L138.69,45.21L140,41.54L142.62,39.32L143.93,39.32L145.23,38.76L146.54,35.1L149.16,32.98L150.47,32.98L154.39,32.32L155.7,31.32L159.63,28.87L160.93,28.87L171.4,29.2L172.71,30.32L183.18,30.32L184.49,28.76L185.79,28.76L187.1,26.09L192.34,26.09L193.64,23.09L201.5,23.09L202.8,21.31L210.65,18.42L211.96,18.42L214.58,14.64L215.89,14.64L217.2,12.75L218.5,8.2L230.28,8.2L231.59,9.86L234.21,10.64L235.51,10.64L238.13,12.86L239.44,13.53L245.98,12.31L247.29,12.31L255.14,12.42L256.45,8.75L259.07,5.08L260.37,4.97L264.3,5.86L265.61,3.75L269.53,4.75L270.84,5.64L273.46,6.75L274.77,10.53L276.07,11.86L277.38,10.53L280,10.64" style="vector-effect: none; fill: none; stroke: rgb(138, 44, 81); stroke-opacity: 1; stroke-width: 5px; opacity: 1;"/></g><g class="points"/><g class="text"/></g><g class="trace scatter trace9f46cc" style="stroke-miterlimit: 2; opacity: 1;"><g class="fills"/><g class="errorbars"/><g class="lines"><path class="js-line" d="M0,26.54L5.23,28.09L6.54,28.09L10.47,27.87L11.78,27.2L75.89,28.2L77.2,31.32L90.28,30.32L91.59,27.76L94.21,23.98L95.51,24.98L96.82,25.98L98.13,22.65L109.91,22.65L111.21,24.31L112.52,24.31L113.83,22.65L115.14,24.31L116.45,22.31L119.07,21.87L120.37,23.98L122.99,21.87L124.3,21.87L125.61,21.87L126.92,23.98L128.22,23.98L129.53,21.87L132.15,23.98L133.46,21.98L136.07,24.54L137.38,24.54L145.23,25.76L146.54,27.65L150.47,28.43L151.78,28.43L168.79,29.2L170.09,29.87L201.5,30.87L202.8,32.65L211.96,34.98L213.27,32.87L217.2,33.98L218.5,35.43L230.28,35.43L231.59,33.87L234.21,32.98L235.51,32.98L236.82,32.54L238.13,29.98L240.75,29.43L242.06,29.76L255.14,29.2L256.45,32.09L259.07,35.43L260.37,35.54L262.99,33.76L264.3,32.98L266.92,35.1L268.22,34.54L273.46,32.09L274.77,28.32L276.07,26.98L277.38,28.32L280,28.2" style="vector-effect: none; fill: none; stroke: rgb(0, 174, 239); stroke-opacity: 1; stroke-width: 5px; opacity: 1;"/></g><g class="points"/><g class="text"/></g><g class="trace scatter trace6f1b61" style="stroke-miterlimit: 2; opacity: 1;"><g class="fills"/><g class="errorbars"/><g class="lines"><path class="js-line" d="M0,67.22L14.39,67.33L15.7,67.33L56.26,68.55L57.57,69.44L73.27,69.44L75.89,68.11L77.2,71L79.81,71L96.82,71.89L98.13,72.33L154.39,73.11L155.7,73.55L192.34,73.55" style="vector-effect: none; fill: none; stroke: rgb(255, 192, 203); stroke-opacity: 1; stroke-width: 5px; opacity: 1;"/></g><g class="points"/><g class="text"/></g><g class="trace scatter trace2de90e" style="stroke-miterlimit: 2; opacity: 1;"><g class="fills"/><g class="errorbars"/><g class="lines"><path class="js-line" d="M0,63.77L9.16,64.88L10.47,64.22L14.39,63.55L15.7,63.55L56.26,63.77L57.57,65.11L75.89,64.22L77.2,56.99L91.59,57.66L92.9,58.33L116.45,58.66L117.76,59.1L132.15,58.33L133.46,61.55L136.07,59.33L137.38,59.33L138.69,59.44L140,61.11L142.62,62.44L143.93,62.44L145.23,62.11L146.54,63.22L154.39,63.33L155.7,63.22L164.86,63.88L166.17,63.88L168.79,63.44L170.09,62.44L171.4,62.44L172.71,60.88L183.18,60.88L184.49,62.33L189.72,64.33L191.03,64.33L211.96,65.55L213.27,69L236.82,70.11L238.13,71.11L255.14,72.22L256.45,73L262.99,73.55" style="vector-effect: none; fill: none; stroke: rgb(255, 1, 170); stroke-opacity: 1; stroke-width: 5px; opacity: 1;"/></g><g class="points"/><g class="text"/></g><g class="trace scatter trace729a39" style="stroke-miterlimit: 2; opacity: 1;"><g class="fills"/><g class="errorbars"/><g class="lines"><path class="js-line" d="M0,66.22L7.85,66.44L9.16,64.88L11.78,68.33L13.08,68.33L94.21,68.89L95.51,69.33L98.13,69L99.44,69L140,70.11L141.31,70.33L155.7,71.55L157.01,71.78L162.24,72.11L163.55,72.11L211.96,73.33L213.27,73.67L217.2,73.89" style="vector-effect: none; fill: none; stroke: rgb(202, 166, 105); stroke-opacity: 1; stroke-width: 5px; opacity: 1;"/></g><g class="points"/><g class="text"/></g></g></g><g class="overplot"/><path class="xlines-above crisp" d="M0,0" style="fill: none;"/><path class="ylines-above crisp" d="M0,0" style="fill: none;"/><g class="overlines-above"/><g class="xaxislayer-above"/><g class="yaxislayer-above"/><g class="overaxes-above"/></g></g><g class="polarlayer"/><g class="smithlayer"/><g class="ternarylayer"/><g class="geolayer"/><g class="funnelarealayer"/><g class="pielayer"/><g class="iciclelayer"/><g class="treemaplayer"/><g class="sunburstlayer"/><g class="glimages"/><defs id="topdefs-7755f4"><g class="clips"/></defs><g class="layer-above"><g class="imagelayer"/><g class="shapelayer"/></g><g class="infolayer"><g class="g-gtitle"><text class="gtitle" x="15" y="25" text-anchor="start" dy="0em" style="font-family: Ubuntu, verdana, arial, sans-serif; font-size: 16px; fill: rgb(233, 84, 32); opacity: 1; font-weight: normal; white-space: pre;">Prezident/ka 2024</text></g><g class="g-xtitle"/><g class="g-ytitle"/></g></svg>