<svg class="main-svg" xmlns="http://www.w3.org/2000/svg" xmlns:xlink="http://www.w3.org/1999/xlink" width="300" height="135" style="" viewBox="0 0 300 135"><rect x="0" y="0" width="300" height="135" style="fill: rgb(255, 255, 255); fill-opacity: 1;"/><defs id="defs-d0c4d4"><g class="clips"><clipPath id="clipd0c4d4xyplot" class="plotclip"><rect width="280" height="75"/></clipPath><clipPath class="axesclip" id="clipd0c4d4x"><rect x="10" y="0" width="280" height="135"/></clipPath><clipPath class="axesclip" id="clipd0c4d4y"><rect x="0" y="50" width="300" height="75"/></clipPath><clipPath class="axesclip" id="clipd0c4d4xy"><rect x="10" y="50" width="280" height="75"/></clipPath></g><g class="gradients"/><g class="patterns"/></defs><g class="bglayer"/><g class="layer-below"><g class="imagelayer"/><g class="shapelayer"/></g><g class="cartesianlayer"><g class="subplot xy"><g class="layer-subplot"><g class="shapelayer"/><g class="imagelayer"/></g><g class="minor-gridlayer"><g class="x"/><g class="y"/></g><g class="gridlayer"><g class="x"><path class="xgrid crisp" transform="translate(24.58,0)" d="M0,50v75" style="stroke: rgb(235, 240, 248); stroke-opacity: 1; stroke-width: 1px;"/><path class="xgrid crisp" transform="translate(115,0)" d="M0,50v75" style="stroke: rgb(235, 240, 248); stroke-opacity: 1; stroke-width: 1px;"/><path class="xgrid crisp" transform="translate(203.96,0)" d="M0,50v75" style="stroke: rgb(235, 240, 248); stroke-opacity: 1; stroke-width: 1px;"/></g><g class="y"><path class="ygrid crisp" transform="translate(0,101.28999999999999)" d="M10,0h280" style="stroke: rgb(235, 240, 248); stroke-opacity: 1; stroke-width: 1px;"/><path class="ygrid crisp" transform="translate(0,77.58)" d="M10,0h280" style="stroke: rgb(235, 240, 248); stroke-opacity: 1; stroke-width: 1px;"/><path class="ygrid crisp" transform="translate(0,53.87)" d="M10,0h280" style="stroke: rgb(235, 240, 248); stroke-opacity: 1; stroke-width: 1px;"/></g></g><g class="zerolinelayer"><path class="yzl zl crisp" transform="translate(0,125)" d="M10,0h280" style="stroke: rgb(235, 240, 248); stroke-opacity: 1; stroke-width: 2px;"/></g><path class="xlines-below"/><path class="ylines-below"/><g class="overlines-below"/><g class="xaxislayer-below"/><g class="yaxislayer-below"/><g class="overaxes-below"/><g class="plot" transform="translate(10,50)" clip-path="url(#clipd0c4d4xyplot)"><g class="scatterlayer mlayer"><g class="trace scatter trace86543e" style="stroke-miterlimit: 2; opacity: 1;"><g class="fills"/><g class="errorbars"/><g class="lines"><path class="js-line" d="M0,50.22L4.38,47.14L5.83,47.14L11.67,47.38L13.13,46.55L33.54,45.6L35,44.89L62.71,44.06L64.17,39.08L81.67,39.08L84.58,42.52L86.04,41.81L88.96,41.81L100.63,41.57L102.08,44.18L105,45.48L106.46,45.01L107.92,44.53L109.38,45.6L147.29,44.89L148.75,42.52L151.67,43.47L153.13,43.47L154.58,43.23L156.04,39.32L158.96,36.94L160.42,36.94L161.88,36.35L163.33,32.44L166.25,30.19L167.71,30.19L172.08,29.48L173.54,28.41L177.92,25.8L179.38,25.8L191.04,26.16L192.5,27.34L204.17,27.34L205.63,25.68L207.08,25.68L208.54,22.84L214.38,22.84L215.83,19.64L224.58,19.64L226.04,17.74L228.96,17.03L230.42,17.03L236.25,14.66L237.71,10.63L240.63,10.63L242.08,8.61L243.54,3.75L245,3.75L256.67,3.75L258.13,5.53L261.04,6.36L262.5,6.36L263.96,6.83L265.42,8.73L268.33,8.97L269.79,8.14L280,8.14" style="vector-effect: none; fill: none; stroke: rgb(138, 44, 81); stroke-opacity: 1; stroke-width: 5px; opacity: 1;"/></g><g class="points"/><g class="text"/></g><g class="trace scatter trace33b66d" style="stroke-miterlimit: 2; opacity: 1;"><g class="fills"/><g class="errorbars"/><g class="lines"><path class="js-line" d="M0,23.31L4.38,24.97L5.83,24.97L11.67,24.73L13.13,24.02L84.58,25.09L86.04,28.41L100.63,27.34L102.08,24.62L103.54,20.58L105,20.58L107.92,22.72L109.38,19.16L122.5,19.16L123.96,20.94L125.42,20.94L126.88,19.16L128.33,20.94L129.79,18.81L132.71,18.33L134.17,20.58L137.08,18.33L138.54,18.33L140,18.33L141.46,20.58L142.92,20.58L144.38,18.33L147.29,20.58L148.75,18.45L150.21,21.18L151.67,21.18L160.42,21.89L161.88,22.48L164.79,25.21L166.25,25.33L188.13,26.16L189.58,26.87L207.08,26.99L208.54,28.17L224.58,27.93L226.04,29.83L236.25,32.32L237.71,30.07L242.08,31.25L243.54,32.8L256.67,32.8L258.13,31.14L261.04,30.19L262.5,30.19L263.96,29.71L265.42,26.99L268.33,26.39L269.79,26.75L280,26.16" style="vector-effect: none; fill: none; stroke: rgb(0, 174, 239); stroke-opacity: 1; stroke-width: 5px; opacity: 1;"/></g><g class="points"/><g class="text"/></g><g class="trace scatter trace6ae67b" style="stroke-miterlimit: 2; opacity: 1;"><g class="fills"/><g class="errorbars"/><g class="lines"><path class="js-line" d="M0,63.03L10.21,64.21L11.67,63.5L14.58,62.79L16.04,62.79L62.71,63.03L64.17,64.45L84.58,63.5L86.04,55.79L102.08,56.51L103.54,57.22L129.79,57.57L131.25,58.05L147.29,57.22L148.75,60.66L151.67,58.28L153.13,58.28L154.58,58.4L156.04,60.18L158.96,61.6L160.42,61.6L161.88,61.25L163.33,62.43L170.63,62.67L172.08,62.55L179.38,63.14L180.83,63.14L188.13,62.67L189.58,61.6L191.04,61.6L192.5,59.94L204.17,59.94L205.63,61.49L211.46,63.62L212.92,63.62L233.33,64.8L234.79,64.92L236.25,64.92L237.71,68.6L256.67,69.78L258.13,69.9L266.88,70.85L268.33,71.09L272.71,71.56L274.17,71.56L280,72.15" style="vector-effect: none; fill: none; stroke: rgb(255, 1, 170); stroke-opacity: 1; stroke-width: 5px; opacity: 1;"/></g><g class="points"/><g class="text"/></g><g class="trace scatter tracec63859" style="stroke-miterlimit: 2; opacity: 1;"><g class="fills"/><g class="errorbars"/><g class="lines"><path class="js-line" d="M0,65.63L8.75,65.87L10.21,64.21L13.13,67.89L14.58,67.89L105,68.48L106.46,68.95L109.38,68.6L110.83,68.6L156.04,69.78L157.5,70.02L172.08,70.97L173.54,71.32L183.75,71.92L185.21,71.92L231.88,73.1L233.33,73.22L242.08,73.81" style="vector-effect: none; fill: none; stroke: rgb(202, 166, 105); stroke-opacity: 1; stroke-width: 5px; opacity: 1;"/></g><g class="points"/><g class="text"/></g><g class="trace scatter trace71d947" style="stroke-miterlimit: 2; opacity: 1;"><g class="fills"/><g class="errorbars"/><g class="lines"><path class="js-line" d="M0,62.55L8.75,63.03L10.21,62.55L36.46,63.97L37.92,63.97L62.71,63.74L64.17,65.52L84.58,64.8L86.04,66.35L102.08,66.7L103.54,68.01L106.46,67.29L107.92,66.58L110.83,68.6L112.29,68.6L148.75,67.65L150.21,66.82L154.58,66.94L156.04,68.12L160.42,68.72L161.88,68.95L169.17,69.78L170.63,69.78L183.75,71.32L185.21,71.32L236.25,71.32L237.71,73.58L242.08,73.81" style="vector-effect: none; fill: none; stroke: rgb(238, 58, 67); stroke-opacity: 1; stroke-width: 5px; opacity: 1;"/></g><g class="points"/><g class="text"/></g></g></g><g class="overplot"/><path class="xlines-above crisp" d="M0,0" style="fill: none;"/><path class="ylines-above crisp" d="M0,0" style="fill: none;"/><g class="overlines-above"/><g class="xaxislayer-above"/><g class="yaxislayer-above"/><g class="overaxes-above"/></g></g><g class="polarlayer"/><g class="smithlayer"/><g class="ternarylayer"/><g class="geolayer"/><g class="funnelarealayer"/><g class="pielayer"/><g class="iciclelayer"/><g class="treemaplayer"/><g class="sunburstlayer"/><g class="glimages"/><defs id="topdefs-d0c4d4"><g class="clips"/></defs><g class="layer-above"><g class="imagelayer"/><g class="shapelayer"/></g><g class="infolayer"><g class="g-gtitle"><text class="gtitle" x="15" y="25" text-anchor="start" dy="0em" style="font-family: Ubuntu, verdana, arial, sans-serif; font-size: 16px; fill: rgb(233, 84, 32); opacity: 1; font-weight: normal; white-space: pre;">Prezident/ka 2024</text></g><g class="g-xtitle"/><g class="g-ytitle"/></g></svg>