<svg class="main-svg" xmlns="http://www.w3.org/2000/svg" xmlns:xlink="http://www.w3.org/1999/xlink" width="1200" height="600" style="" viewBox="0 0 1200 600"><rect x="0" y="0" width="1200" height="600" style="fill: rgb(255, 255, 255); fill-opacity: 1;"/><defs id="defs-cfe2ae"><g class="clips"><clipPath id="clipcfe2aexyplot" class="plotclip"><rect width="990" height="530"/></clipPath><clipPath class="axesclip" id="clipcfe2aex"><rect x="50" y="0" width="990" height="600"/></clipPath><clipPath class="axesclip" id="clipcfe2aey"><rect x="0" y="20" width="1200" height="530"/></clipPath><clipPath class="axesclip" id="clipcfe2aexy"><rect x="50" y="20" width="990" height="530"/></clipPath></g><g class="gradients"/><g class="patterns"/></defs><g class="bglayer"/><g class="layer-below"><g class="imagelayer"/><g class="shapelayer"/></g><g class="cartesianlayer"><g class="subplot xy"><g class="layer-subplot"><g class="shapelayer"/><g class="imagelayer"/></g><g class="minor-gridlayer"><g class="x"/><g class="y"/></g><g class="gridlayer"><g class="x"><path class="xgrid crisp" transform="translate(84.14,0)" d="M0,20v530" style="stroke: rgb(235, 240, 248); stroke-opacity: 1; stroke-width: 1px;"/><path class="xgrid crisp" transform="translate(189.97,0)" d="M0,20v530" style="stroke: rgb(235, 240, 248); stroke-opacity: 1; stroke-width: 1px;"/><path class="xgrid crisp" transform="translate(295.78999999999996,0)" d="M0,20v530" style="stroke: rgb(235, 240, 248); stroke-opacity: 1; stroke-width: 1px;"/><path class="xgrid crisp" transform="translate(398.21,0)" d="M0,20v530" style="stroke: rgb(235, 240, 248); stroke-opacity: 1; stroke-width: 1px;"/><path class="xgrid crisp" transform="translate(504.03,0)" d="M0,20v530" style="stroke: rgb(235, 240, 248); stroke-opacity: 1; stroke-width: 1px;"/><path class="xgrid crisp" transform="translate(606.45,0)" d="M0,20v530" style="stroke: rgb(235, 240, 248); stroke-opacity: 1; stroke-width: 1px;"/><path class="xgrid crisp" transform="translate(712.28,0)" d="M0,20v530" style="stroke: rgb(235, 240, 248); stroke-opacity: 1; stroke-width: 1px;"/><path class="xgrid crisp" transform="translate(818.1,0)" d="M0,20v530" style="stroke: rgb(235, 240, 248); stroke-opacity: 1; stroke-width: 1px;"/><path class="xgrid crisp" transform="translate(917.1,0)" d="M0,20v530" style="stroke: rgb(235, 240, 248); stroke-opacity: 1; stroke-width: 1px;"/><path class="xgrid crisp" transform="translate(1022.93,0)" d="M0,20v530" style="stroke: rgb(235, 240, 248); stroke-opacity: 1; stroke-width: 1px;"/></g><g class="y"><path class="ygrid crisp" transform="translate(0,476.6)" d="M50,0h990" style="stroke: rgb(235, 240, 248); stroke-opacity: 1; stroke-width: 1px;"/><path class="ygrid crisp" transform="translate(0,403.21)" d="M50,0h990" style="stroke: rgb(235, 240, 248); stroke-opacity: 1; stroke-width: 1px;"/><path class="ygrid crisp" transform="translate(0,329.81)" d="M50,0h990" style="stroke: rgb(235, 240, 248); stroke-opacity: 1; stroke-width: 1px;"/><path class="ygrid crisp" transform="translate(0,256.40999999999997)" d="M50,0h990" style="stroke: rgb(235, 240, 248); stroke-opacity: 1; stroke-width: 1px;"/><path class="ygrid crisp" transform="translate(0,183.02)" d="M50,0h990" style="stroke: rgb(235, 240, 248); stroke-opacity: 1; stroke-width: 1px;"/><path class="ygrid crisp" transform="translate(0,109.62)" d="M50,0h990" style="stroke: rgb(235, 240, 248); stroke-opacity: 1; stroke-width: 1px;"/><path class="ygrid crisp" transform="translate(0,36.22)" d="M50,0h990" style="stroke: rgb(235, 240, 248); stroke-opacity: 1; stroke-width: 1px;"/></g></g><g class="zerolinelayer"><path class="yzl zl crisp" transform="translate(0,550)" d="M50,0h990" style="stroke: rgb(235, 240, 248); stroke-opacity: 1; stroke-width: 2px;"/></g><path class="xlines-below"/><path class="ylines-below"/><g class="overlines-below"/><g class="xaxislayer-below"/><g class="yaxislayer-below"/><g class="overaxes-below"/><g class="plot" transform="translate(50,20)" clip-path="url(#clipcfe2aexyplot)"><g class="scatterlayer mlayer"><g class="trace scatter traceb5704e" style="stroke-miterlimit: 2; opacity: 1;"><g class="fills"/><g class="errorbars"/><g class="lines"><path class="js-line" d="M0,376.6L6.83,357.52L10.24,357.52L20.48,357.52L23.9,362.66L30.72,353.85L34.14,353.85L47.79,353.85L51.21,351.65L61.45,351.65L64.86,349.44L68.28,347.98L71.69,347.98L78.52,347.98L81.93,343.57L126.31,343.57L129.72,338.44L146.79,338.44L150.21,307.61L191.17,307.61L198,328.89L201.41,324.49L208.24,324.49L232.14,323.76L235.55,323.02L238.97,339.17L242.38,347.24L245.79,347.24L249.21,344.31L252.62,341.37L256.03,347.98L286.76,347.98L290.17,345.04L293.59,345.04L297,347.98L300.41,345.04L303.83,347.24L307.24,345.04L310.66,345.04L314.07,343.57L317.48,345.04L327.72,345.04L331.14,343.57L334.55,343.57L337.97,345.04L341.38,343.57L344.79,343.57L348.21,328.89L351.62,334.77L358.45,334.77L361.86,333.3L365.28,309.08L368.69,294.4L375.52,294.4L378.93,290.73L382.34,266.51L385.76,254.76L389.17,252.56L392.59,252.56L399.41,252.56L402.83,248.16L409.66,235.68L413.07,225.4L440.38,226.14L443.79,227.61L447.21,227.61L450.62,234.95L477.93,234.95L481.34,224.67L484.76,224.67L488.17,207.06L501.83,207.06L505.24,187.24L525.72,187.24L529.14,175.49L532.55,171.09L535.97,171.09L539.38,171.09L542.79,166.69L546.21,160.08L549.62,156.41L553.03,156.41L556.45,131.46L563.28,131.46L566.69,118.98L570.1,88.89L573.52,88.89L600.83,88.89L604.24,99.9L607.66,105.03L611.07,105.03L614.48,105.03L617.9,107.97L621.31,119.71L624.72,124.12L628.14,121.18L631.55,116.04L655.45,116.04L658.86,114.58L662.28,118.25L665.69,116.78L672.52,76.41L675.93,68.34L679.34,67.6L682.76,69.8L686.17,78.61L689.59,73.47L693,59.53L696.41,59.53L703.24,66.13L706.66,72.01L710.07,78.61L713.48,79.35L716.9,104.3L720.31,113.11L723.72,104.3L727.14,107.97L730.55,105.03L733.97,93.29L737.38,90.35L740.79,94.02L747.62,96.23L751.03,91.82L754.45,85.95L757.86,75.68L761.28,65.4L764.69,65.4L768.1,65.4L771.52,68.34L774.93,77.14L778.34,78.61L781.76,72.74L785.17,72.01L788.59,77.14L792,91.82L795.41,120.45L798.83,132.92L802.24,131.46L805.66,131.46L809.07,132.19L812.48,138.8L815.9,141L819.31,139.53L822.72,131.46L826.14,139.53L832.97,144.67L836.38,134.39L839.79,112.37L843.21,99.16L846.62,89.62L850.03,88.89L853.45,72.74L856.86,73.47L860.28,72.74L863.69,69.07L867.1,74.21L870.52,85.95L880.76,85.95L884.17,82.28L887.59,80.81L891,76.41L897.83,76.41L901.24,73.47L904.66,66.13L908.07,63.2L911.48,58.79L914.9,38.98L918.31,32.37L921.72,32.37L925.14,26.5" style="vector-effect: none; fill: none; stroke: rgb(138, 44, 81); stroke-opacity: 1; stroke-width: 5px; opacity: 1;"/></g><g class="points"/><g class="text"/></g><g class="trace scatter traceb75d00" style="stroke-miterlimit: 2; opacity: 1;"><g class="fills"/><g class="errorbars"/><g class="lines"><path class="js-line" d="M0,209.99L6.83,220.27L10.24,220.27L20.48,220.27L23.9,225.4L30.72,214.4L34.14,214.4L61.45,214.4L64.86,215.86L68.28,217.33L71.69,217.33L78.52,217.33L81.93,221L198,221L201.41,241.55L228.72,241.55L232.14,237.88L235.55,234.95L238.97,218.06L242.38,193.11L245.79,193.11L252.62,206.32L256.03,184.3L286.76,184.3L290.17,195.31L293.59,195.31L297,184.3L300.41,195.31L303.83,182.1L307.24,179.16L310.66,179.16L314.07,193.11L317.48,179.16L327.72,179.16L331.14,193.11L334.55,193.11L337.97,179.16L341.38,193.11L344.79,193.11L348.21,179.9L351.62,196.78L361.86,196.78L365.28,201.18L375.52,201.18L378.93,204.85L382.34,217.33L385.76,221.73L392.59,222.47L396,222.47L406.24,222.47L409.66,224.67L416.48,225.4L419.9,225.4L436.97,225.4L440.38,227.61L443.79,232.01L447.21,232.01L450.62,234.95L457.45,234.95L481.34,235.68L484.76,232.74L488.17,240.08L491.59,240.08L501.83,240.08L505.24,238.62L525.72,238.62L529.14,250.36L532.55,253.3L535.97,253.3L539.38,253.3L542.79,257.7L549.62,265.77L553.03,265.77L556.45,251.83L559.86,251.83L563.28,251.83L566.69,259.17L570.1,268.71L573.52,268.71L600.83,268.71L604.24,258.43L607.66,252.56L611.07,252.56L614.48,252.56L617.9,249.63L621.31,232.74L624.72,227.61L631.55,231.28L634.97,231.28L652.03,231.28L655.45,229.81L658.86,231.28L662.28,227.61L665.69,227.61L669.1,246.69L672.52,260.63L675.93,268.71L679.34,269.44L682.76,267.24L686.17,257.7L689.59,252.56L693,266.51L696.41,266.51L703.24,259.9L706.66,254.03L710.07,247.42L713.48,246.69L716.9,221.73L720.31,212.93L723.72,221.73L727.14,218.06L730.55,221L733.97,232.74L737.38,235.68L740.79,232.01L747.62,229.81L751.03,234.21L754.45,240.08L757.86,250.36L761.28,260.63L764.69,260.63L768.1,260.63L771.52,257.7L774.93,248.89L778.34,247.42L781.76,253.3L785.17,254.03L788.59,248.89L792,234.21L795.41,205.59L798.83,193.11L802.24,194.58L805.66,194.58L809.07,193.84L812.48,187.24L815.9,185.04L819.31,186.5L822.72,194.58L826.14,186.5L832.97,181.37L836.38,191.64L839.79,213.66L843.21,226.87L846.62,236.41L850.03,237.15L853.45,253.3L856.86,252.56L860.28,253.3L863.69,256.97L867.1,251.83L870.52,240.08L880.76,240.08L884.17,243.75L887.59,245.22L891,249.63L897.83,249.63L901.24,252.56L904.66,259.9L908.07,262.84L911.48,267.24L914.9,287.06L918.31,293.66L921.72,293.66L925.14,299.53" style="vector-effect: none; fill: none; stroke: rgb(0, 174, 239); stroke-opacity: 1; stroke-width: 5px; opacity: 1;"/></g><g class="points"/><g class="text"/></g><g class="trace scatter trace59be76" style="stroke-miterlimit: 2; opacity: 1;"><g class="fills"/><g class="errorbars"/><g class="lines"><path class="js-line" d="M0,452.93L6.83,455.87L10.24,455.87L20.48,455.87L23.9,452.93L27.31,453.67L30.72,457.34L61.45,458.07L64.86,460.27L68.28,461.74L71.69,461.74L126.31,461.74L129.72,460.27L146.79,460.27L150.21,471.28L191.17,471.28L198,466.88L201.41,476.42L208.24,476.42L232.14,477.15L235.55,478.62L238.97,478.62L242.38,486.7L245.79,486.7L249.21,482.29L252.62,477.89L256.03,490.37L286.76,490.37L290.17,484.49L293.59,484.49L297,490.37L300.41,484.49L303.83,489.63L310.66,489.63L314.07,483.76L317.48,489.63L320.9,489.63L327.72,489.63L331.14,483.76L334.55,483.76L337.97,489.63L341.38,483.76L344.79,483.76L348.21,484.49L351.62,479.36L361.86,480.09L365.28,487.43L368.69,491.1L372.1,491.1L375.52,491.1L378.93,492.57L389.17,497.71L392.59,497.71L399.41,497.71L402.83,499.17L413.07,507.25L416.48,507.25L501.83,507.25L505.24,506.51L553.03,507.25L556.45,521.19L563.28,521.19L566.69,522.66" style="vector-effect: none; fill: none; stroke: rgb(238, 58, 67); stroke-opacity: 1; stroke-width: 5px; opacity: 1;"/></g><g class="points"/><g class="text"/></g><g class="trace scatter tracef95dce" style="stroke-miterlimit: 2; opacity: 1;"><g class="fills"/><g class="errorbars"/><g class="lines"><path class="js-line" d="M0,472.02L10.24,473.48L13.66,473.48L20.48,473.48L23.9,463.21L30.72,485.96L34.14,485.96L64.86,485.23L68.28,484.49L146.79,483.76L150.21,487.43L191.17,487.43L198,485.96L201.41,488.9L208.24,488.9L232.14,489.63L235.55,490.37L245.79,489.63L249.21,492.57L252.62,495.5L256.03,490.37L286.76,490.37L290.17,492.57L293.59,492.57L297,490.37L300.41,492.57L303.83,491.83L307.24,494.77L310.66,494.77L314.07,495.5L317.48,494.77L344.79,495.5L348.21,497.71L365.28,497.71L368.69,499.17L378.93,499.91L382.34,500.64L389.17,503.58L392.59,503.58L399.41,503.58L402.83,505.05L413.07,510.92L416.48,510.92L501.83,510.92L505.24,518.26L553.03,518.99L556.45,521.19L563.28,521.19L566.69,522.66" style="vector-effect: none; fill: none; stroke: rgb(202, 166, 105); stroke-opacity: 1; stroke-width: 5px; opacity: 1;"/></g><g class="points"/><g class="text"/></g><g class="trace scatter tracee2f8e5" style="stroke-miterlimit: 2; opacity: 1;"><g class="fills"/><g class="errorbars"/><g class="lines"><path class="js-line" d="M0,455.87L6.83,458.07L10.24,458.07L20.48,458.07L23.9,463.21L30.72,454.4L34.14,454.4L47.79,454.4L51.21,455.87L64.86,455.14L68.28,454.4L126.31,454.4L129.72,455.87L146.79,455.87L150.21,464.68L191.17,464.68L198,458.81L201.41,411.1L208.24,411.1L228.72,411.1L232.14,413.3L235.55,415.5L238.97,415.5L242.38,419.91L245.79,419.91L252.62,414.77L256.03,420.64L286.76,420.64L290.17,417.7L293.59,417.7L297,420.64L300.41,417.7L303.83,422.11L307.24,425.04L310.66,425.04L314.07,419.91L317.48,425.04L327.72,425.04L331.14,419.91L334.55,419.91L337.97,425.04L341.38,419.91L344.79,419.91L348.21,441.19L351.62,426.51L361.86,427.24L365.28,438.25L368.69,447.06L372.1,447.06L375.52,447.06L378.93,444.86L382.34,452.2L385.76,453.67L402.83,452.93L406.24,452.2L409.66,453.67L413.07,456.6L436.97,456.6L440.38,453.67L443.79,447.06L447.21,447.06L450.62,436.79L457.45,436.79L477.93,436.79L481.34,446.33L484.76,449.26L488.17,459.54L501.83,459.54L505.24,465.41L542.79,466.15L546.21,466.88L553.03,467.61L556.45,490.37L563.28,490.37L566.69,493.3L570.1,497.71L573.52,497.71L617.9,497.71L621.31,504.31L624.72,504.31L628.14,505.78L631.55,508.72L634.97,508.72L652.03,508.72L655.45,510.18L662.28,510.18L665.69,511.65L669.1,516.79L672.52,518.99L682.76,518.99L686.17,520.46" style="vector-effect: none; fill: none; stroke: rgb(255, 1, 170); stroke-opacity: 1; stroke-width: 5px; opacity: 1;"/></g><g class="points"/><g class="text"/></g><g class="trace scatter trace2d606d" style="stroke-miterlimit: 2; opacity: 1;"><g class="fills"/><g class="errorbars"/><g class="lines"><path class="js-line" d="M0,478.62L10.24,480.82L13.66,480.82L23.9,480.09L27.31,478.62L34.14,479.36L37.55,479.36L47.79,479.36L51.21,480.82L78.52,480.09L81.93,481.56L126.31,481.56L129.72,487.43L146.79,487.43L150.21,493.3L191.17,493.3L198,484.49L201.41,503.58L208.24,503.58L238.97,504.31L242.38,509.45L252.62,509.45L256.03,512.38L286.76,512.38L290.17,510.92L293.59,510.92L297,512.38L300.41,510.92L303.83,512.38L310.66,512.38L314.07,510.92L317.48,512.38L320.9,512.38L327.72,512.38L331.14,510.92L334.55,510.92L337.97,512.38L341.38,510.92L344.79,510.92L348.21,513.12L351.62,511.65L375.52,512.38L378.93,513.12L385.76,515.32L389.17,516.05L399.41,516.05L402.83,517.52L406.24,520.46L409.66,520.46L416.48,521.19L419.9,521.19L501.83,520.46" style="vector-effect: none; fill: none; stroke: rgb(255, 192, 203); stroke-opacity: 1; stroke-width: 5px; opacity: 1;"/></g><g class="points"/><g class="text"/></g></g></g><g class="overplot"/><path class="xlines-above crisp" d="M0,0" style="fill: none;"/><path class="ylines-above crisp" d="M0,0" style="fill: none;"/><g class="overlines-above"/><g class="xaxislayer-above"><g class="xtick"><text text-anchor="middle" x="0" y="563" transform="translate(84.14,0)" style="font-family: 'Open Sans', verdana, arial, sans-serif; font-size: 12px; fill: rgb(42, 63, 95); fill-opacity: 1; white-space: pre; opacity: 1;">1.7.23</text></g><g class="xtick"><text text-anchor="middle" x="0" y="563" style="font-family: 'Open Sans', verdana, arial, sans-serif; font-size: 12px; fill: rgb(42, 63, 95); fill-opacity: 1; white-space: pre; opacity: 1;" transform="translate(189.97,0)">1.8.23</text></g><g class="xtick"><text text-anchor="middle" x="0" y="563" style="font-family: 'Open Sans', verdana, arial, sans-serif; font-size: 12px; fill: rgb(42, 63, 95); fill-opacity: 1; white-space: pre; opacity: 1;" transform="translate(295.78999999999996,0)">1.9.23</text></g><g class="xtick"><text text-anchor="middle" x="0" y="563" style="font-family: 'Open Sans', verdana, arial, sans-serif; font-size: 12px; fill: rgb(42, 63, 95); fill-opacity: 1; white-space: pre; opacity: 1;" transform="translate(398.21,0)">1.10.23</text></g><g class="xtick"><text text-anchor="middle" x="0" y="563" style="font-family: 'Open Sans', verdana, arial, sans-serif; font-size: 12px; fill: rgb(42, 63, 95); fill-opacity: 1; white-space: pre; opacity: 1;" transform="translate(504.03,0)">1.11.23</text></g><g class="xtick"><text text-anchor="middle" x="0" y="563" style="font-family: 'Open Sans', verdana, arial, sans-serif; font-size: 12px; fill: rgb(42, 63, 95); fill-opacity: 1; white-space: pre; opacity: 1;" transform="translate(606.45,0)">1.12.23</text></g><g class="xtick"><text text-anchor="middle" x="0" y="563" style="font-family: 'Open Sans', verdana, arial, sans-serif; font-size: 12px; fill: rgb(42, 63, 95); fill-opacity: 1; white-space: pre; opacity: 1;" transform="translate(712.28,0)">1.1.24</text></g><g class="xtick"><text text-anchor="middle" x="0" y="563" style="font-family: 'Open Sans', verdana, arial, sans-serif; font-size: 12px; fill: rgb(42, 63, 95); fill-opacity: 1; white-space: pre; opacity: 1;" transform="translate(818.1,0)">1.2.24</text></g><g class="xtick"><text text-anchor="middle" x="0" y="563" style="font-family: 'Open Sans', verdana, arial, sans-serif; font-size: 12px; fill: rgb(42, 63, 95); fill-opacity: 1; white-space: pre; opacity: 1;" transform="translate(917.1,0)">1.3.24</text></g><g class="xtick"><text text-anchor="middle" x="0" y="563" style="font-family: 'Open Sans', verdana, arial, sans-serif; font-size: 12px; fill: rgb(42, 63, 95); fill-opacity: 1; white-space: pre; opacity: 1;" transform="translate(1022.93,0)">1.4.24</text></g></g><g class="yaxislayer-above"><g class="ytick"><text text-anchor="end" x="49" y="4.199999999999999" transform="translate(0,550)" style="font-family: 'Open Sans', verdana, arial, sans-serif; font-size: 12px; fill: rgb(42, 63, 95); fill-opacity: 1; white-space: pre; opacity: 1;">0%</text></g><g class="ytick"><text text-anchor="end" x="49" y="4.199999999999999" style="font-family: 'Open Sans', verdana, arial, sans-serif; font-size: 12px; fill: rgb(42, 63, 95); fill-opacity: 1; white-space: pre; opacity: 1;" transform="translate(0,476.6)">10%</text></g><g class="ytick"><text text-anchor="end" x="49" y="4.199999999999999" style="font-family: 'Open Sans', verdana, arial, sans-serif; font-size: 12px; fill: rgb(42, 63, 95); fill-opacity: 1; white-space: pre; opacity: 1;" transform="translate(0,403.21)">20%</text></g><g class="ytick"><text text-anchor="end" x="49" y="4.199999999999999" style="font-family: 'Open Sans', verdana, arial, sans-serif; font-size: 12px; fill: rgb(42, 63, 95); fill-opacity: 1; white-space: pre; opacity: 1;" transform="translate(0,329.81)">30%</text></g><g class="ytick"><text text-anchor="end" x="49" y="4.199999999999999" style="font-family: 'Open Sans', verdana, arial, sans-serif; font-size: 12px; fill: rgb(42, 63, 95); fill-opacity: 1; white-space: pre; opacity: 1;" transform="translate(0,256.40999999999997)">40%</text></g><g class="ytick"><text text-anchor="end" x="49" y="4.199999999999999" style="font-family: 'Open Sans', verdana, arial, sans-serif; font-size: 12px; fill: rgb(42, 63, 95); fill-opacity: 1; white-space: pre; opacity: 1;" transform="translate(0,183.02)">50%</text></g><g class="ytick"><text text-anchor="end" x="49" y="4.199999999999999" style="font-family: 'Open Sans', verdana, arial, sans-serif; font-size: 12px; fill: rgb(42, 63, 95); fill-opacity: 1; white-space: pre; opacity: 1;" transform="translate(0,109.62)">60%</text></g><g class="ytick"><text text-anchor="end" x="49" y="4.199999999999999" style="font-family: 'Open Sans', verdana, arial, sans-serif; font-size: 12px; fill: rgb(42, 63, 95); fill-opacity: 1; white-space: pre; opacity: 1;" transform="translate(0,36.22)">70%</text></g></g><g class="overaxes-above"/></g></g><g class="polarlayer"/><g class="smithlayer"/><g class="ternarylayer"/><g class="geolayer"/><g class="funnelarealayer"/><g class="pielayer"/><g class="iciclelayer"/><g class="treemaplayer"/><g class="sunburstlayer"/><g class="glimages"/><defs id="topdefs-cfe2ae"><g class="clips"/><clipPath id="legendcfe2ae"><rect width="128" height="124" x="0" y="0"/></clipPath></defs><g class="layer-above"><g class="imagelayer"/><g class="shapelayer"/></g><g class="infolayer"><g class="legend" pointer-events="all" transform="translate(1059.8000000000002,20)"><rect class="bg" shape-rendering="crispEdges" style="stroke: rgb(68, 68, 68); stroke-opacity: 1; fill: rgb(255, 255, 255); fill-opacity: 1; stroke-width: 0px;" width="128" height="124" x="0" y="0"/><g class="scrollbox" transform="" clip-path="url(#legendcfe2ae)"><g class="groups"><g class="traces" transform="translate(0,14.5)" style="opacity: 1;"><text class="legendtext" text-anchor="start" x="40" y="4.680000000000001" style="font-family: 'Open Sans', verdana, arial, sans-serif; font-size: 12px; fill: rgb(42, 63, 95); fill-opacity: 1; white-space: pre;">Pellegrini Peter</text><g class="layers" style="opacity: 1;"><g class="legendfill"/><g class="legendlines"><path class="js-line" d="M5,0h30" style="fill: none; stroke: rgb(138, 44, 81); stroke-opacity: 1; stroke-width: 5px;"/></g><g class="legendsymbols"><g class="legendpoints"/></g></g><rect class="legendtoggle" x="0" y="-9.5" width="122.703125" height="19" style="fill: rgb(0, 0, 0); fill-opacity: 0;"/></g><g class="traces" transform="translate(0,33.5)" style="opacity: 1;"><text class="legendtext" text-anchor="start" x="40" y="4.680000000000001" style="font-family: 'Open Sans', verdana, arial, sans-serif; font-size: 12px; fill: rgb(42, 63, 95); fill-opacity: 1; white-space: pre;">Korčok Ivan</text><g class="layers" style="opacity: 1;"><g class="legendfill"/><g class="legendlines"><path class="js-line" d="M5,0h30" style="fill: none; stroke: rgb(0, 174, 239); stroke-opacity: 1; stroke-width: 5px;"/></g><g class="legendsymbols"><g class="legendpoints"/></g></g><rect class="legendtoggle" x="0" y="-9.5" width="122.703125" height="19" style="fill: rgb(0, 0, 0); fill-opacity: 0;"/></g><g class="traces" transform="translate(0,52.5)" style="opacity: 1;"><text class="legendtext" text-anchor="start" x="40" y="4.680000000000001" style="font-family: 'Open Sans', verdana, arial, sans-serif; font-size: 12px; fill: rgb(42, 63, 95); fill-opacity: 1; white-space: pre;">Fico Robert</text><g class="layers" style="opacity: 1;"><g class="legendfill"/><g class="legendlines"><path class="js-line" d="M5,0h30" style="fill: none; stroke: rgb(238, 58, 67); stroke-opacity: 1; stroke-width: 5px;"/></g><g class="legendsymbols"><g class="legendpoints"/></g></g><rect class="legendtoggle" x="0" y="-9.5" width="122.703125" height="19" style="fill: rgb(0, 0, 0); fill-opacity: 0;"/></g><g class="traces" transform="translate(0,71.5)" style="opacity: 1;"><text class="legendtext" text-anchor="start" x="40" y="4.680000000000001" style="font-family: 'Open Sans', verdana, arial, sans-serif; font-size: 12px; fill: rgb(42, 63, 95); fill-opacity: 1; white-space: pre;">Mistrík Robert</text><g class="layers" style="opacity: 1;"><g class="legendfill"/><g class="legendlines"><path class="js-line" d="M5,0h30" style="fill: none; stroke: rgb(202, 166, 105); stroke-opacity: 1; stroke-width: 5px;"/></g><g class="legendsymbols"><g class="legendpoints"/></g></g><rect class="legendtoggle" x="0" y="-9.5" width="122.703125" height="19" style="fill: rgb(0, 0, 0); fill-opacity: 0;"/></g><g class="traces" transform="translate(0,90.5)" style="opacity: 1;"><text class="legendtext" text-anchor="start" x="40" y="4.680000000000001" style="font-family: 'Open Sans', verdana, arial, sans-serif; font-size: 12px; fill: rgb(42, 63, 95); fill-opacity: 1; white-space: pre;">Kubiš Ján</text><g class="layers" style="opacity: 1;"><g class="legendfill"/><g class="legendlines"><path class="js-line" d="M5,0h30" style="fill: none; stroke: rgb(255, 1, 170); stroke-opacity: 1; stroke-width: 5px;"/></g><g class="legendsymbols"><g class="legendpoints"/></g></g><rect class="legendtoggle" x="0" y="-9.5" width="122.703125" height="19" style="fill: rgb(0, 0, 0); fill-opacity: 0;"/></g><g class="traces" transform="translate(0,109.5)" style="opacity: 1;"><text class="legendtext" text-anchor="start" x="40" y="4.680000000000001" style="font-family: 'Open Sans', verdana, arial, sans-serif; font-size: 12px; fill: rgb(42, 63, 95); fill-opacity: 1; white-space: pre;">Lajčák Miroslav</text><g class="layers" style="opacity: 1;"><g class="legendfill"/><g class="legendlines"><path class="js-line" d="M5,0h30" style="fill: none; stroke: rgb(255, 192, 203); stroke-opacity: 1; stroke-width: 5px;"/></g><g class="legendsymbols"><g class="legendpoints"/></g></g><rect class="legendtoggle" x="0" y="-9.5" width="122.703125" height="19" style="fill: rgb(0, 0, 0); fill-opacity: 0;"/></g></g></g><rect class="scrollbar" rx="20" ry="3" width="0" height="0" style="fill: rgb(128, 139, 164); fill-opacity: 1;" x="0" y="0"/></g><g class="g-gtitle"/><g class="g-xtitle"/><g class="g-ytitle"/></g></svg>