<svg class="main-svg" xmlns="http://www.w3.org/2000/svg" xmlns:xlink="http://www.w3.org/1999/xlink" width="300" height="135" style="" viewBox="0 0 300 135"><rect x="0" y="0" width="300" height="135" style="fill: rgb(255, 255, 255); fill-opacity: 1;"/><defs id="defs-f19f03"><g class="clips"><clipPath id="clipf19f03xyplot" class="plotclip"><rect width="280" height="75"/></clipPath><clipPath class="axesclip" id="clipf19f03x"><rect x="10" y="0" width="280" height="135"/></clipPath><clipPath class="axesclip" id="clipf19f03y"><rect x="0" y="50" width="300" height="75"/></clipPath><clipPath class="axesclip" id="clipf19f03xy"><rect x="10" y="50" width="280" height="75"/></clipPath></g><g class="gradients"/><g class="patterns"/></defs><g class="bglayer"/><g class="layer-below"><g class="imagelayer"/><g class="shapelayer"/></g><g class="cartesianlayer"><g class="subplot xy"><g class="layer-subplot"><g class="shapelayer"/><g class="imagelayer"/></g><g class="minor-gridlayer"><g class="x"/><g class="y"/></g><g class="gridlayer"><g class="x"><path class="xgrid crisp" transform="translate(21.57,0)" d="M0,50v75" style="stroke: rgb(235, 240, 248); stroke-opacity: 1; stroke-width: 1px;"/><path class="xgrid crisp" transform="translate(93.31,0)" d="M0,50v75" style="stroke: rgb(235, 240, 248); stroke-opacity: 1; stroke-width: 1px;"/><path class="xgrid crisp" transform="translate(163.88,0)" d="M0,50v75" style="stroke: rgb(235, 240, 248); stroke-opacity: 1; stroke-width: 1px;"/><path class="xgrid crisp" transform="translate(234.46,0)" d="M0,50v75" style="stroke: rgb(235, 240, 248); stroke-opacity: 1; stroke-width: 1px;"/></g><g class="y"><path class="ygrid crisp" transform="translate(0,102.77000000000001)" d="M10,0h280" style="stroke: rgb(235, 240, 248); stroke-opacity: 1; stroke-width: 1px;"/><path class="ygrid crisp" transform="translate(0,80.53999999999999)" d="M10,0h280" style="stroke: rgb(235, 240, 248); stroke-opacity: 1; stroke-width: 1px;"/><path class="ygrid crisp" transform="translate(0,58.31)" d="M10,0h280" style="stroke: rgb(235, 240, 248); stroke-opacity: 1; stroke-width: 1px;"/></g></g><g class="zerolinelayer"><path class="yzl zl crisp" transform="translate(0,125)" d="M10,0h280" style="stroke: rgb(235, 240, 248); stroke-opacity: 1; stroke-width: 2px;"/></g><path class="xlines-below"/><path class="ylines-below"/><g class="overlines-below"/><g class="xaxislayer-below"/><g class="yaxislayer-below"/><g class="overaxes-below"/><g class="plot" transform="translate(10,50)" clip-path="url(#clipf19f03xyplot)"><g class="scatterlayer mlayer"><g class="trace scatter trace873726" style="stroke-miterlimit: 2; opacity: 1;"><g class="fills"/><g class="errorbars"/><g class="lines"><path class="js-line" d="M271.9,21.65L280,21.65" style="vector-effect: none; fill: none; stroke: rgb(187, 187, 187); stroke-opacity: 1; stroke-width: 5px; opacity: 1;"/></g><g class="points"/><g class="text"/></g><g class="trace scatter tracecedae1" style="stroke-miterlimit: 2; opacity: 1;"><g class="fills"/><g class="errorbars"/><g class="lines"><path class="js-line" d="M0,51.77L3.47,48.88L4.63,48.88L9.26,49.1L10.41,48.32L26.61,47.43L27.77,46.77L49.75,45.99L50.91,41.32L64.79,41.32L67.11,44.54L70.58,43.88L71.74,43.88L79.83,43.65L80.99,46.1L83.31,47.32L84.46,46.88L85.62,46.43L86.78,47.43L116.86,46.77L118.02,44.54L120.33,45.43L121.49,45.43L122.64,45.21L123.8,41.54L126.12,39.32L127.27,39.32L128.43,38.76L129.59,35.1L131.9,32.98L133.06,32.98L136.53,32.32L137.69,31.32L141.16,28.87L142.31,28.87L151.57,29.2L152.73,30.32L161.98,30.32L163.14,28.76L164.3,28.76L165.45,26.09L170.08,26.09L171.24,23.09L178.18,23.09L179.34,21.31L186.28,18.42L187.44,18.42L189.75,14.64L190.91,14.64L192.07,12.75L193.22,8.2L203.64,8.2L204.79,9.86L207.11,10.64L208.26,10.64L210.58,12.86L211.74,13.53L217.52,12.31L218.68,12.31L225.62,12.42L226.78,8.75L229.09,5.08L230.25,4.97L233.72,5.86L234.88,3.75L238.35,4.75L239.5,5.64L241.82,6.75L242.98,10.53L244.13,11.86L245.29,10.53L247.6,10.64L248.76,8.86L251.07,8.97L252.23,9.09L254.55,8.64L255.7,7.75L259.17,4.64L260.33,4.64L263.8,6.64L264.96,5.75L267.27,6.42L268.43,8.64L270.74,14.87L271.9,43.65L280,44.21" style="vector-effect: none; fill: none; stroke: rgb(138, 44, 81); stroke-opacity: 1; stroke-width: 5px; opacity: 1;"/></g><g class="points"/><g class="text"/></g><g class="trace scatter trace2b50ad" style="stroke-miterlimit: 2; opacity: 1;"><g class="fills"/><g class="errorbars"/><g class="lines"><path class="js-line" d="M0,26.54L4.63,28.09L5.79,28.09L9.26,27.87L10.41,27.2L67.11,28.2L68.26,31.32L79.83,30.32L80.99,27.76L83.31,23.98L84.46,24.98L85.62,25.98L86.78,22.65L97.19,22.65L98.35,24.31L99.5,24.31L100.66,22.65L101.82,24.31L102.98,22.31L105.29,21.87L106.45,23.98L108.76,21.87L109.92,21.87L111.07,21.87L112.23,23.98L113.39,23.98L114.55,21.87L116.86,23.98L118.02,21.98L120.33,24.54L121.49,24.54L128.43,25.76L129.59,27.65L133.06,28.43L134.21,28.43L149.26,29.2L150.41,29.87L178.18,30.87L179.34,32.65L187.44,34.98L188.6,32.87L192.07,33.98L193.22,35.43L203.64,35.43L204.79,33.87L207.11,32.98L208.26,32.98L209.42,32.54L210.58,29.98L212.89,29.43L214.05,29.76L225.62,29.2L226.78,32.09L229.09,35.43L230.25,35.54L232.56,33.76L233.72,32.98L236.03,35.1L237.19,34.54L241.82,32.09L242.98,28.32L244.13,26.98L245.29,28.32L247.6,28.2L248.76,29.98L251.07,29.87L252.23,29.76L254.55,30.2L255.7,31.09L259.17,34.21L260.33,34.21L263.8,32.21L264.96,33.09L267.27,32.43L268.43,30.2L270.74,23.98L271.9,48.66L280,47.99" style="vector-effect: none; fill: none; stroke: rgb(0, 174, 239); stroke-opacity: 1; stroke-width: 5px; opacity: 1;"/></g><g class="points"/><g class="text"/></g><g class="trace scatter trace2a54b7" style="stroke-miterlimit: 2; opacity: 1;"><g class="fills"/><g class="errorbars"/><g class="lines"><path class="js-line" d="M0,63.77L8.1,64.88L9.26,64.22L12.73,63.55L13.88,63.55L49.75,63.77L50.91,65.11L67.11,64.22L68.26,56.99L80.99,57.66L82.15,58.33L102.98,58.66L104.13,59.1L116.86,58.33L118.02,61.55L120.33,59.33L121.49,59.33L122.64,59.44L123.8,61.11L126.12,62.44L127.27,62.44L128.43,62.11L129.59,63.22L136.53,63.33L137.69,63.22L145.79,63.88L146.94,63.88L149.26,63.44L150.41,62.44L151.57,62.44L152.73,60.88L161.98,60.88L163.14,62.33L168.93,64.33L170.08,64.33L172.4,65.22L173.55,65.22L187.44,65.55L188.6,69L209.42,70.11L210.58,71.11L225.62,72.22L226.78,73L232.56,73.55" style="vector-effect: none; fill: none; stroke: rgb(255, 1, 170); stroke-opacity: 1; stroke-width: 5px; opacity: 1;"/></g><g class="points"/><g class="text"/></g><g class="trace scatter traceacb9f9" style="stroke-miterlimit: 2; opacity: 1;"><g class="fills"/><g class="errorbars"/><g class="lines"><path class="js-line" d="M0,63.33L6.94,63.77L8.1,63.33L30.08,64.66L31.24,64.66L49.75,64.44L50.91,66.11L67.11,65.44L68.26,66.89L80.99,67.22L82.15,68.44L84.46,67.77L85.62,67.11L87.93,69L89.09,69L118.02,68.11L119.17,67.33L123.8,68.55L124.96,69.11L136.53,70.33L137.69,70.78L145.79,71.55L146.94,71.55L187.44,71.55L188.6,73.67L192.07,73.89" style="vector-effect: none; fill: none; stroke: rgb(238, 58, 67); stroke-opacity: 1; stroke-width: 5px; opacity: 1;"/></g><g class="points"/><g class="text"/></g></g></g><g class="overplot"/><path class="xlines-above crisp" d="M0,0" style="fill: none;"/><path class="ylines-above crisp" d="M0,0" style="fill: none;"/><g class="overlines-above"/><g class="xaxislayer-above"/><g class="yaxislayer-above"/><g class="overaxes-above"/></g></g><g class="polarlayer"/><g class="smithlayer"/><g class="ternarylayer"/><g class="geolayer"/><g class="funnelarealayer"/><g class="pielayer"/><g class="iciclelayer"/><g class="treemaplayer"/><g class="sunburstlayer"/><g class="glimages"/><defs id="topdefs-f19f03"><g class="clips"/></defs><g class="layer-above"><g class="imagelayer"/><g class="shapelayer"/></g><g class="infolayer"><g class="g-gtitle"><text class="gtitle" x="15" y="25" text-anchor="start" dy="0em" style="font-family: Ubuntu, verdana, arial, sans-serif; font-size: 16px; fill: rgb(233, 84, 32); opacity: 1; font-weight: normal; white-space: pre;">Prezident/ka 2024</text></g><g class="g-xtitle"/><g class="g-ytitle"/></g></svg>