<svg class="main-svg" xmlns="http://www.w3.org/2000/svg" xmlns:xlink="http://www.w3.org/1999/xlink" width="300" height="135" style="" viewBox="0 0 300 135"><rect x="0" y="0" width="300" height="135" style="fill: rgb(255, 255, 255); fill-opacity: 1;"/><defs id="defs-5c42d5"><g class="clips"><clipPath id="clip5c42d5xyplot" class="plotclip"><rect width="280" height="75"/></clipPath><clipPath class="axesclip" id="clip5c42d5x"><rect x="10" y="0" width="280" height="135"/></clipPath><clipPath class="axesclip" id="clip5c42d5y"><rect x="0" y="50" width="300" height="75"/></clipPath><clipPath class="axesclip" id="clip5c42d5xy"><rect x="10" y="50" width="280" height="75"/></clipPath></g><g class="gradients"/><g class="patterns"/></defs><g class="bglayer"/><g class="layer-below"><g class="imagelayer"/><g class="shapelayer"/></g><g class="cartesianlayer"><g class="subplot xy"><g class="layer-subplot"><g class="shapelayer"/><g class="imagelayer"/></g><g class="minor-gridlayer"><g class="x"/><g class="y"/></g><g class="gridlayer"><g class="x"><path class="xgrid crisp" transform="translate(24.14,0)" d="M0,50v75" style="stroke: rgb(235, 240, 248); stroke-opacity: 1; stroke-width: 1px;"/><path class="xgrid crisp" transform="translate(111.82,0)" d="M0,50v75" style="stroke: rgb(235, 240, 248); stroke-opacity: 1; stroke-width: 1px;"/><path class="xgrid crisp" transform="translate(198.08,0)" d="M0,50v75" style="stroke: rgb(235, 240, 248); stroke-opacity: 1; stroke-width: 1px;"/><path class="xgrid crisp" transform="translate(284.34,0)" d="M0,50v75" style="stroke: rgb(235, 240, 248); stroke-opacity: 1; stroke-width: 1px;"/></g><g class="y"><path class="ygrid crisp" transform="translate(0,102.24000000000001)" d="M10,0h280" style="stroke: rgb(235, 240, 248); stroke-opacity: 1; stroke-width: 1px;"/><path class="ygrid crisp" transform="translate(0,79.47)" d="M10,0h280" style="stroke: rgb(235, 240, 248); stroke-opacity: 1; stroke-width: 1px;"/><path class="ygrid crisp" transform="translate(0,56.71)" d="M10,0h280" style="stroke: rgb(235, 240, 248); stroke-opacity: 1; stroke-width: 1px;"/></g></g><g class="zerolinelayer"><path class="yzl zl crisp" transform="translate(0,125)" d="M10,0h280" style="stroke: rgb(235, 240, 248); stroke-opacity: 1; stroke-width: 2px;"/></g><path class="xlines-below"/><path class="ylines-below"/><g class="overlines-below"/><g class="xaxislayer-below"/><g class="yaxislayer-below"/><g class="overaxes-below"/><g class="plot" transform="translate(10,50)" clip-path="url(#clip5c42d5xyplot)"><g class="scatterlayer mlayer"><g class="trace scatter tracea1f8ac" style="stroke-miterlimit: 2; opacity: 1;"><g class="fills"/><g class="errorbars"/><g class="lines"><path class="js-line" d="M0,51.21L4.24,48.25L5.66,48.25L11.31,48.48L12.73,47.68L32.53,46.77L33.94,46.09L60.81,45.29L62.22,40.51L79.19,40.51L82.02,43.81L86.26,43.13L87.68,43.13L97.58,42.9L98.99,45.41L101.82,46.66L103.23,46.2L104.65,45.75L106.06,46.77L142.83,46.09L144.24,43.81L147.07,44.72L148.48,44.72L149.9,44.5L151.31,40.74L154.14,38.46L155.56,38.46L156.97,37.9L158.38,34.14L161.21,31.98L162.63,31.98L166.87,31.29L168.28,30.27L172.53,27.77L173.94,27.77L185.25,28.11L186.67,29.25L197.98,29.25L199.39,27.65L200.81,27.65L202.22,24.92L207.88,24.92L209.29,21.85L217.78,21.85L219.19,20.03L227.68,17.07L229.09,17.07L230.51,13.2L231.92,13.2L233.33,13.2L234.75,11.26L236.16,6.6L237.58,6.6L248.89,6.6L250.3,8.3L253.13,9.1L254.55,9.1L255.96,9.55L257.37,11.38L260.2,11.6L261.62,10.81L275.76,10.92L277.17,7.16L280,3.75" style="vector-effect: none; fill: none; stroke: rgb(138, 44, 81); stroke-opacity: 1; stroke-width: 5px; opacity: 1;"/></g><g class="points"/><g class="text"/></g><g class="trace scatter trace4fa6e9" style="stroke-miterlimit: 2; opacity: 1;"><g class="fills"/><g class="errorbars"/><g class="lines"><path class="js-line" d="M0,25.38L5.66,26.97L7.07,26.97L11.31,26.74L12.73,26.06L82.02,27.08L83.43,30.27L97.58,29.25L98.99,26.63L100.4,22.76L101.82,22.76L104.65,24.81L106.06,21.39L118.79,21.39L120.2,23.1L121.62,23.1L123.03,21.39L124.44,23.1L125.86,21.05L128.69,20.6L130.1,22.76L132.93,20.6L134.34,20.6L135.76,20.6L137.17,22.76L138.59,22.76L140,20.6L142.83,22.76L144.24,20.71L147.07,23.33L148.48,23.33L156.97,24.58L158.38,26.51L162.63,27.31L164.04,27.31L182.42,28.11L183.84,28.79L217.78,29.81L219.19,31.64L229.09,34.03L230.51,31.86L234.75,33L236.16,34.48L248.89,34.48L250.3,32.89L253.13,31.98L254.55,31.98L255.96,31.52L257.37,28.9L260.2,28.33L261.62,28.68L275.76,28.11L277.17,31.07L280,34.14" style="vector-effect: none; fill: none; stroke: rgb(0, 174, 239); stroke-opacity: 1; stroke-width: 5px; opacity: 1;"/></g><g class="points"/><g class="text"/></g><g class="trace scatter trace16abd2" style="stroke-miterlimit: 2; opacity: 1;"><g class="fills"/><g class="errorbars"/><g class="lines"><path class="js-line" d="M0,63.5L9.9,64.64L11.31,63.96L15.56,63.28L16.97,63.28L60.81,63.5L62.22,64.87L82.02,63.96L83.43,56.56L98.99,57.24L100.4,57.93L125.86,58.27L127.27,58.72L142.83,57.93L144.24,61.23L147.07,58.95L148.48,58.95L149.9,59.07L151.31,60.77L154.14,62.14L155.56,62.14L156.97,61.8L158.38,62.94L166.87,63.05L168.28,62.94L178.18,63.62L179.6,63.62L182.42,63.16L183.84,62.14L185.25,62.14L186.67,60.55L197.98,60.55L199.39,62.02L205.05,64.07L206.46,64.07L226.26,65.21L227.68,65.33L229.09,65.33L230.51,68.85L248.89,69.99L250.3,70.11L260.2,71.24L261.62,71.7L277.17,72.95L278.59,73.29L280,73.29" style="vector-effect: none; fill: none; stroke: rgb(255, 1, 170); stroke-opacity: 1; stroke-width: 5px; opacity: 1;"/></g><g class="points"/><g class="text"/></g><g class="trace scatter traceedd40a" style="stroke-miterlimit: 2; opacity: 1;"><g class="fills"/><g class="errorbars"/><g class="lines"><path class="js-line" d="M0,63.05L8.48,63.5L9.9,63.05L36.77,64.41L38.18,64.41L60.81,64.19L62.22,65.89L82.02,65.21L83.43,66.69L98.99,67.03L100.4,68.28L103.23,67.6L104.65,66.92L107.47,68.85L108.89,68.85L144.24,67.94L145.66,67.15L151.31,68.4L152.73,68.97L166.87,70.22L168.28,70.67L178.18,71.47L179.6,71.47L229.09,71.47L230.51,73.63L234.75,73.86" style="vector-effect: none; fill: none; stroke: rgb(238, 58, 67); stroke-opacity: 1; stroke-width: 5px; opacity: 1;"/></g><g class="points"/><g class="text"/></g><g class="trace scatter trace12a4f2" style="stroke-miterlimit: 2; opacity: 1;"><g class="fills"/><g class="errorbars"/><g class="lines"><path class="js-line" d="M0,67.03L14.14,67.15L15.56,67.15L60.81,68.4L62.22,69.31L79.19,69.31L82.02,67.94L83.43,70.9L86.26,70.9L104.65,71.81L106.06,72.27L166.87,73.07L168.28,73.52L207.88,73.52" style="vector-effect: none; fill: none; stroke: rgb(255, 192, 203); stroke-opacity: 1; stroke-width: 5px; opacity: 1;"/></g><g class="points"/><g class="text"/></g></g></g><g class="overplot"/><path class="xlines-above crisp" d="M0,0" style="fill: none;"/><path class="ylines-above crisp" d="M0,0" style="fill: none;"/><g class="overlines-above"/><g class="xaxislayer-above"/><g class="yaxislayer-above"/><g class="overaxes-above"/></g></g><g class="polarlayer"/><g class="smithlayer"/><g class="ternarylayer"/><g class="geolayer"/><g class="funnelarealayer"/><g class="pielayer"/><g class="iciclelayer"/><g class="treemaplayer"/><g class="sunburstlayer"/><g class="glimages"/><defs id="topdefs-5c42d5"><g class="clips"/></defs><g class="layer-above"><g class="imagelayer"/><g class="shapelayer"/></g><g class="infolayer"><g class="g-gtitle"><text class="gtitle" x="15" y="25" text-anchor="start" dy="0em" style="font-family: Ubuntu, verdana, arial, sans-serif; font-size: 16px; fill: rgb(233, 84, 32); opacity: 1; font-weight: normal; white-space: pre;">Prezident/ka 2024</text></g><g class="g-xtitle"/><g class="g-ytitle"/></g></svg>