<svg class="main-svg" xmlns="http://www.w3.org/2000/svg" xmlns:xlink="http://www.w3.org/1999/xlink" width="300" height="135" style="" viewBox="0 0 300 135"><rect x="0" y="0" width="300" height="135" style="fill: rgb(255, 255, 255); fill-opacity: 1;"/><defs id="defs-930aa5"><g class="clips"><clipPath id="clip930aa5xyplot" class="plotclip"><rect width="280" height="75"/></clipPath><clipPath class="axesclip" id="clip930aa5x"><rect x="10" y="0" width="280" height="135"/></clipPath><clipPath class="axesclip" id="clip930aa5y"><rect x="0" y="50" width="300" height="75"/></clipPath><clipPath class="axesclip" id="clip930aa5xy"><rect x="10" y="50" width="280" height="75"/></clipPath></g><g class="gradients"/><g class="patterns"/></defs><g class="bglayer"/><g class="layer-below"><g class="imagelayer"/><g class="shapelayer"/></g><g class="cartesianlayer"><g class="subplot xy"><g class="layer-subplot"><g class="shapelayer"/><g class="imagelayer"/></g><g class="minor-gridlayer"><g class="x"/><g class="y"/></g><g class="gridlayer"><g class="x"><path class="xgrid crisp" transform="translate(20.939999999999998,0)" d="M0,50v75" style="stroke: rgb(235, 240, 248); stroke-opacity: 1; stroke-width: 1px;"/><path class="xgrid crisp" transform="translate(88.75,0)" d="M0,50v75" style="stroke: rgb(235, 240, 248); stroke-opacity: 1; stroke-width: 1px;"/><path class="xgrid crisp" transform="translate(155.47,0)" d="M0,50v75" style="stroke: rgb(235, 240, 248); stroke-opacity: 1; stroke-width: 1px;"/><path class="xgrid crisp" transform="translate(222.19,0)" d="M0,50v75" style="stroke: rgb(235, 240, 248); stroke-opacity: 1; stroke-width: 1px;"/><path class="xgrid crisp" transform="translate(287.81,0)" d="M0,50v75" style="stroke: rgb(235, 240, 248); stroke-opacity: 1; stroke-width: 1px;"/></g><g class="y"><path class="ygrid crisp" transform="translate(0,102.77000000000001)" d="M10,0h280" style="stroke: rgb(235, 240, 248); stroke-opacity: 1; stroke-width: 1px;"/><path class="ygrid crisp" transform="translate(0,80.53999999999999)" d="M10,0h280" style="stroke: rgb(235, 240, 248); stroke-opacity: 1; stroke-width: 1px;"/><path class="ygrid crisp" transform="translate(0,58.31)" d="M10,0h280" style="stroke: rgb(235, 240, 248); stroke-opacity: 1; stroke-width: 1px;"/></g></g><g class="zerolinelayer"><path class="yzl zl crisp" transform="translate(0,125)" d="M10,0h280" style="stroke: rgb(235, 240, 248); stroke-opacity: 1; stroke-width: 2px;"/></g><path class="xlines-below"/><path class="ylines-below"/><g class="overlines-below"/><g class="xaxislayer-below"/><g class="yaxislayer-below"/><g class="overaxes-below"/><g class="plot" transform="translate(10,50)" clip-path="url(#clip930aa5xyplot)"><g class="scatterlayer mlayer"><g class="trace scatter trace4ab6d7" style="stroke-miterlimit: 2; opacity: 1;"><g class="fills"/><g class="errorbars"/><g class="lines"><path class="js-line" d="M0,51.77L3.28,48.88L4.38,48.88L8.75,49.1L9.84,48.32L25.16,47.43L26.25,46.77L47.03,45.99L48.13,41.32L61.25,41.32L63.44,44.54L66.72,43.88L67.81,43.88L75.47,43.65L76.56,46.1L78.75,47.32L79.84,46.88L80.94,46.43L82.03,47.43L110.47,46.77L111.56,44.54L113.75,45.43L114.84,45.43L115.94,45.21L117.03,41.54L119.22,39.32L120.31,39.32L121.41,38.76L122.5,35.1L124.69,32.98L125.78,32.98L129.06,32.32L130.16,31.32L133.44,28.87L134.53,28.87L143.28,29.2L144.38,30.32L153.13,30.32L154.22,28.76L155.31,28.76L156.41,26.09L160.78,26.09L161.88,23.09L168.44,23.09L169.53,21.31L176.09,18.42L177.19,18.42L179.38,14.64L180.47,14.64L181.56,12.75L182.66,8.2L192.5,8.2L193.59,9.86L195.78,10.64L196.88,10.64L199.06,12.86L200.16,13.53L205.63,12.31L206.72,12.31L213.28,12.42L214.38,8.75L216.56,5.08L217.66,4.97L220.94,5.86L222.03,3.75L225.31,4.75L226.41,5.64L228.59,6.75L229.69,10.53L230.78,11.86L231.88,10.53L234.06,10.64L235.16,8.86L237.34,8.97L238.44,9.09L240.63,8.64L241.72,7.75L245,4.64L246.09,4.64L249.38,6.64L250.47,5.75L252.66,6.42L253.75,8.64L255.94,14.87L257.03,14.64L260.31,15.75L261.41,16.09L263.59,14.64L264.69,15.87L266.88,16.64L267.97,15.09L271.25,8.31L272.34,8.2L274.53,5.86L275.63,5.75L277.81,5.97L278.91,7.75L280,7.75" style="vector-effect: none; fill: none; stroke: rgb(138, 44, 81); stroke-opacity: 1; stroke-width: 5px; opacity: 1;"/></g><g class="points"/><g class="text"/></g><g class="trace scatter trace47bbfc" style="stroke-miterlimit: 2; opacity: 1;"><g class="fills"/><g class="errorbars"/><g class="lines"><path class="js-line" d="M0,26.54L4.38,28.09L5.47,28.09L8.75,27.87L9.84,27.2L63.44,28.2L64.53,31.32L75.47,30.32L76.56,27.76L78.75,23.98L79.84,24.98L80.94,25.98L82.03,22.65L91.88,22.65L92.97,24.31L94.06,24.31L95.16,22.65L96.25,24.31L97.34,22.31L99.53,21.87L100.63,23.98L102.81,21.87L103.91,21.87L105,21.87L106.09,23.98L107.19,23.98L108.28,21.87L110.47,23.98L111.56,21.98L113.75,24.54L114.84,24.54L121.41,25.76L122.5,27.65L125.78,28.43L126.88,28.43L141.09,29.2L142.19,29.87L168.44,30.87L169.53,32.65L177.19,34.98L178.28,32.87L181.56,33.98L182.66,35.43L192.5,35.43L193.59,33.87L195.78,32.98L196.88,32.98L197.97,32.54L199.06,29.98L201.25,29.43L202.34,29.76L213.28,29.2L214.38,32.09L216.56,35.43L217.66,35.54L219.84,33.76L220.94,32.98L223.13,35.1L224.22,34.54L228.59,32.09L229.69,28.32L230.78,26.98L231.88,28.32L234.06,28.2L235.16,29.98L237.34,29.87L238.44,29.76L240.63,30.2L241.72,31.09L245,34.21L246.09,34.21L249.38,32.21L250.47,33.09L252.66,32.43L253.75,30.2L255.94,23.98L257.03,24.2L260.31,23.09L261.41,22.76L263.59,24.2L264.69,22.98L266.88,22.2L267.97,23.76L271.25,30.54L272.34,30.65L274.53,32.98L275.63,33.09L277.81,32.87L278.91,31.09L280,31.09" style="vector-effect: none; fill: none; stroke: rgb(0, 174, 239); stroke-opacity: 1; stroke-width: 5px; opacity: 1;"/></g><g class="points"/><g class="text"/></g><g class="trace scatter trace134c3d" style="stroke-miterlimit: 2; opacity: 1;"><g class="fills"/><g class="errorbars"/><g class="lines"><path class="js-line" d="M0,63.77L7.66,64.88L8.75,64.22L12.03,63.55L13.13,63.55L47.03,63.77L48.13,65.11L63.44,64.22L64.53,56.99L76.56,57.66L77.66,58.33L97.34,58.66L98.44,59.1L110.47,58.33L111.56,61.55L113.75,59.33L114.84,59.33L115.94,59.44L117.03,61.11L119.22,62.44L120.31,62.44L121.41,62.11L122.5,63.22L129.06,63.33L130.16,63.22L137.81,63.88L138.91,63.88L141.09,63.44L142.19,62.44L143.28,62.44L144.38,60.88L153.13,60.88L154.22,62.33L159.69,64.33L160.78,64.33L162.97,65.22L164.06,65.22L177.19,65.55L178.28,69L197.97,70.11L199.06,71.11L213.28,72.22L214.38,73L219.84,73.55" style="vector-effect: none; fill: none; stroke: rgb(255, 1, 170); stroke-opacity: 1; stroke-width: 5px; opacity: 1;"/></g><g class="points"/><g class="text"/></g><g class="trace scatter traceb44973" style="stroke-miterlimit: 2; opacity: 1;"><g class="fills"/><g class="errorbars"/><g class="lines"><path class="js-line" d="M0,67.22L12.03,67.33L13.13,67.33L47.03,68.55L48.13,69.44L61.25,69.44L63.44,68.11L64.53,71L66.72,71L80.94,71.89L82.03,72.33L129.06,73.11L130.16,73.55L160.78,73.55" style="vector-effect: none; fill: none; stroke: rgb(255, 192, 203); stroke-opacity: 1; stroke-width: 5px; opacity: 1;"/></g><g class="points"/><g class="text"/></g><g class="trace scatter tracee99a8b" style="stroke-miterlimit: 2; opacity: 1;"><g class="fills"/><g class="errorbars"/><g class="lines"><path class="js-line" d="M0,63.33L6.56,63.77L7.66,63.33L28.44,64.66L29.53,64.66L47.03,64.44L48.13,66.11L63.44,65.44L64.53,66.89L76.56,67.22L77.66,68.44L79.84,67.77L80.94,67.11L83.13,69L84.22,69L111.56,68.11L112.66,67.33L117.03,68.55L118.13,69.11L129.06,70.33L130.16,70.78L137.81,71.55L138.91,71.55L177.19,71.55L178.28,73.67L181.56,73.89" style="vector-effect: none; fill: none; stroke: rgb(238, 58, 67); stroke-opacity: 1; stroke-width: 5px; opacity: 1;"/></g><g class="points"/><g class="text"/></g></g></g><g class="overplot"/><path class="xlines-above crisp" d="M0,0" style="fill: none;"/><path class="ylines-above crisp" d="M0,0" style="fill: none;"/><g class="overlines-above"/><g class="xaxislayer-above"/><g class="yaxislayer-above"/><g class="overaxes-above"/></g></g><g class="polarlayer"/><g class="smithlayer"/><g class="ternarylayer"/><g class="geolayer"/><g class="funnelarealayer"/><g class="pielayer"/><g class="iciclelayer"/><g class="treemaplayer"/><g class="sunburstlayer"/><g class="glimages"/><defs id="topdefs-930aa5"><g class="clips"/></defs><g class="layer-above"><g class="imagelayer"/><g class="shapelayer"/></g><g class="infolayer"><g class="g-gtitle"><text class="gtitle" x="15" y="25" text-anchor="start" dy="0em" style="font-family: Ubuntu, verdana, arial, sans-serif; font-size: 16px; fill: rgb(233, 84, 32); opacity: 1; font-weight: normal; white-space: pre;">Prezident/ka 2024</text></g><g class="g-xtitle"/><g class="g-ytitle"/></g></svg>