<svg class="main-svg" xmlns="http://www.w3.org/2000/svg" xmlns:xlink="http://www.w3.org/1999/xlink" width="300" height="135" style="" viewBox="0 0 300 135"><rect x="0" y="0" width="300" height="135" style="fill: rgb(255, 255, 255); fill-opacity: 1;"/><defs id="defs-e94aec"><g class="clips"><clipPath id="clipe94aecxyplot" class="plotclip"><rect width="280" height="75"/></clipPath><clipPath class="axesclip" id="clipe94aecx"><rect x="10" y="0" width="280" height="135"/></clipPath><clipPath class="axesclip" id="clipe94aecy"><rect x="0" y="50" width="300" height="75"/></clipPath><clipPath class="axesclip" id="clipe94aecxy"><rect x="10" y="50" width="280" height="75"/></clipPath></g><g class="gradients"/><g class="patterns"/></defs><g class="bglayer"/><g class="layer-below"><g class="imagelayer"/><g class="shapelayer"/></g><g class="cartesianlayer"><g class="subplot xy"><g class="layer-subplot"><g class="shapelayer"/><g class="imagelayer"/></g><g class="minor-gridlayer"><g class="x"/><g class="y"/></g><g class="gridlayer"><g class="x"><path class="xgrid crisp" transform="translate(23.27,0)" d="M0,50v75" style="stroke: rgb(235, 240, 248); stroke-opacity: 1; stroke-width: 1px;"/><path class="xgrid crisp" transform="translate(105.55,0)" d="M0,50v75" style="stroke: rgb(235, 240, 248); stroke-opacity: 1; stroke-width: 1px;"/><path class="xgrid crisp" transform="translate(186.49,0)" d="M0,50v75" style="stroke: rgb(235, 240, 248); stroke-opacity: 1; stroke-width: 1px;"/><path class="xgrid crisp" transform="translate(267.44,0)" d="M0,50v75" style="stroke: rgb(235, 240, 248); stroke-opacity: 1; stroke-width: 1px;"/></g><g class="y"><path class="ygrid crisp" transform="translate(0,102.77000000000001)" d="M10,0h280" style="stroke: rgb(235, 240, 248); stroke-opacity: 1; stroke-width: 1px;"/><path class="ygrid crisp" transform="translate(0,80.53999999999999)" d="M10,0h280" style="stroke: rgb(235, 240, 248); stroke-opacity: 1; stroke-width: 1px;"/><path class="ygrid crisp" transform="translate(0,58.31)" d="M10,0h280" style="stroke: rgb(235, 240, 248); stroke-opacity: 1; stroke-width: 1px;"/></g></g><g class="zerolinelayer"><path class="yzl zl crisp" transform="translate(0,125)" d="M10,0h280" style="stroke: rgb(235, 240, 248); stroke-opacity: 1; stroke-width: 2px;"/></g><path class="xlines-below"/><path class="ylines-below"/><g class="overlines-below"/><g class="xaxislayer-below"/><g class="yaxislayer-below"/><g class="overaxes-below"/><g class="plot" transform="translate(10,50)" clip-path="url(#clipe94aecxyplot)"><g class="scatterlayer mlayer"><g class="trace scatter tracede8297" style="stroke-miterlimit: 2; opacity: 1;"><g class="fills"/><g class="errorbars"/><g class="lines"><path class="js-line" d="M0,51.77L3.98,48.88L5.31,48.88L10.62,49.1L11.94,48.32L30.52,47.43L31.85,46.77L57.06,45.99L58.39,41.32L74.31,41.32L76.97,44.54L80.95,43.88L82.27,43.88L91.56,43.65L92.89,46.1L95.55,47.32L96.87,46.88L98.2,46.43L99.53,47.43L134.03,46.77L135.36,44.54L138.01,45.43L139.34,45.43L140.66,45.21L141.99,41.54L144.64,39.32L145.97,39.32L147.3,38.76L148.63,35.1L151.28,32.98L152.61,32.98L156.59,32.32L157.91,31.32L161.9,28.87L163.22,28.87L173.84,29.2L175.17,30.32L185.78,30.32L187.11,28.76L188.44,28.76L189.76,26.09L195.07,26.09L196.4,23.09L204.36,23.09L205.69,21.31L213.65,18.42L214.98,18.42L216.3,14.64L217.63,14.64L218.96,14.64L220.28,12.75L221.61,8.2L222.94,8.2L233.55,8.2L234.88,9.86L237.54,10.64L238.86,10.64L240.19,11.09L241.52,12.86L244.17,13.09L245.5,12.31L258.77,12.42L260.09,8.75L262.75,5.08L264.08,4.97L268.06,5.86L269.38,3.75L273.36,4.75L274.69,5.64L277.35,6.75L278.67,10.53L280,12.75" style="vector-effect: none; fill: none; stroke: rgb(138, 44, 81); stroke-opacity: 1; stroke-width: 5px; opacity: 1;"/></g><g class="points"/><g class="text"/></g><g class="trace scatter trace5b4f59" style="stroke-miterlimit: 2; opacity: 1;"><g class="fills"/><g class="errorbars"/><g class="lines"><path class="js-line" d="M0,26.54L5.31,28.09L6.64,28.09L10.62,27.87L11.94,27.2L76.97,28.2L78.29,31.32L91.56,30.32L92.89,27.76L94.22,23.98L95.55,23.98L98.2,25.98L99.53,22.65L111.47,22.65L112.8,24.31L114.12,24.31L115.45,22.65L116.78,24.31L118.1,22.31L120.76,21.87L122.09,23.98L124.74,21.87L126.07,21.87L127.39,21.87L128.72,23.98L130.05,23.98L131.37,21.87L134.03,23.98L135.36,21.98L138.01,24.54L139.34,24.54L147.3,25.76L148.63,27.65L152.61,28.43L153.93,28.43L171.18,29.2L172.51,29.87L204.36,30.87L205.69,32.65L214.98,34.98L216.3,32.87L220.28,33.98L221.61,35.43L233.55,35.43L234.88,33.87L237.54,32.98L238.86,32.98L240.19,32.54L241.52,29.98L244.17,29.43L245.5,29.76L258.77,29.2L260.09,32.09L262.75,35.43L264.08,35.54L266.73,33.76L268.06,32.98L270.71,35.1L272.04,34.54L277.35,32.09L278.67,28.32L280,26.09" style="vector-effect: none; fill: none; stroke: rgb(0, 174, 239); stroke-opacity: 1; stroke-width: 5px; opacity: 1;"/></g><g class="points"/><g class="text"/></g><g class="trace scatter trace9ba115" style="stroke-miterlimit: 2; opacity: 1;"><g class="fills"/><g class="errorbars"/><g class="lines"><path class="js-line" d="M0,67.22L14.6,67.33L15.92,67.33L57.06,68.55L58.39,69.44L74.31,69.44L76.97,68.11L78.29,71L80.95,71L98.2,71.89L99.53,72.33L156.59,73.11L157.91,73.55L195.07,73.55" style="vector-effect: none; fill: none; stroke: rgb(255, 192, 203); stroke-opacity: 1; stroke-width: 5px; opacity: 1;"/></g><g class="points"/><g class="text"/></g><g class="trace scatter tracef1c65c" style="stroke-miterlimit: 2; opacity: 1;"><g class="fills"/><g class="errorbars"/><g class="lines"><path class="js-line" d="M0,66.22L7.96,66.44L9.29,64.88L11.94,68.33L13.27,68.33L95.55,68.89L96.87,69.33L99.53,69L100.85,69L141.99,70.11L143.32,70.33L157.91,71.55L159.24,71.78L164.55,72.11L165.88,72.11L214.98,73.33L216.3,73.67L220.28,73.89" style="vector-effect: none; fill: none; stroke: rgb(202, 166, 105); stroke-opacity: 1; stroke-width: 5px; opacity: 1;"/></g><g class="points"/><g class="text"/></g><g class="trace scatter trace5c7f90" style="stroke-miterlimit: 2; opacity: 1;"><g class="fills"/><g class="errorbars"/><g class="lines"><path class="js-line" d="M0,63.77L9.29,64.88L10.62,64.22L14.6,63.55L15.92,63.55L57.06,63.77L58.39,65.11L76.97,64.22L78.29,56.99L92.89,57.66L94.22,58.33L118.1,58.66L119.43,59.1L134.03,58.33L135.36,61.55L138.01,59.33L139.34,59.33L140.66,59.44L141.99,61.11L144.64,62.44L145.97,62.44L147.3,62.11L148.63,63.22L156.59,63.33L157.91,63.22L167.2,63.88L168.53,63.88L171.18,63.44L172.51,62.44L173.84,62.44L175.17,60.88L185.78,60.88L187.11,62.33L192.42,64.33L193.74,64.33L214.98,65.55L216.3,69L240.19,70.11L241.52,71.11L258.77,72.22L260.09,73L266.73,73.55" style="vector-effect: none; fill: none; stroke: rgb(255, 1, 170); stroke-opacity: 1; stroke-width: 5px; opacity: 1;"/></g><g class="points"/><g class="text"/></g></g></g><g class="overplot"/><path class="xlines-above crisp" d="M0,0" style="fill: none;"/><path class="ylines-above crisp" d="M0,0" style="fill: none;"/><g class="overlines-above"/><g class="xaxislayer-above"/><g class="yaxislayer-above"/><g class="overaxes-above"/></g></g><g class="polarlayer"/><g class="smithlayer"/><g class="ternarylayer"/><g class="geolayer"/><g class="funnelarealayer"/><g class="pielayer"/><g class="iciclelayer"/><g class="treemaplayer"/><g class="sunburstlayer"/><g class="glimages"/><defs id="topdefs-e94aec"><g class="clips"/></defs><g class="layer-above"><g class="imagelayer"/><g class="shapelayer"/></g><g class="infolayer"><g class="g-gtitle"><text class="gtitle" x="15" y="25" text-anchor="start" dy="0em" style="font-family: Ubuntu, verdana, arial, sans-serif; font-size: 16px; fill: rgb(233, 84, 32); opacity: 1; font-weight: normal; white-space: pre;">Prezident/ka 2024</text></g><g class="g-xtitle"/><g class="g-ytitle"/></g></svg>