<svg class="main-svg" xmlns="http://www.w3.org/2000/svg" xmlns:xlink="http://www.w3.org/1999/xlink" width="300" height="135" style="" viewBox="0 0 300 135"><rect x="0" y="0" width="300" height="135" style="fill: rgb(255, 255, 255); fill-opacity: 1;"/><defs id="defs-4d2575"><g class="clips"><clipPath id="clip4d2575xyplot" class="plotclip"><rect width="280" height="75"/></clipPath><clipPath class="axesclip" id="clip4d2575x"><rect x="10" y="0" width="280" height="135"/></clipPath><clipPath class="axesclip" id="clip4d2575y"><rect x="0" y="50" width="300" height="75"/></clipPath><clipPath class="axesclip" id="clip4d2575xy"><rect x="10" y="50" width="280" height="75"/></clipPath></g><g class="gradients"/><g class="patterns"/></defs><g class="bglayer"/><g class="layer-below"><g class="imagelayer"/><g class="shapelayer"/></g><g class="cartesianlayer"><g class="subplot xy"><g class="layer-subplot"><g class="shapelayer"/><g class="imagelayer"/></g><g class="minor-gridlayer"><g class="x"/><g class="y"/></g><g class="gridlayer"><g class="x"><path class="xgrid crisp" transform="translate(21.11,0)" d="M0,50v75" style="stroke: rgb(235, 240, 248); stroke-opacity: 1; stroke-width: 1px;"/><path class="xgrid crisp" transform="translate(90,0)" d="M0,50v75" style="stroke: rgb(235, 240, 248); stroke-opacity: 1; stroke-width: 1px;"/><path class="xgrid crisp" transform="translate(157.78,0)" d="M0,50v75" style="stroke: rgb(235, 240, 248); stroke-opacity: 1; stroke-width: 1px;"/><path class="xgrid crisp" transform="translate(225.56,0)" d="M0,50v75" style="stroke: rgb(235, 240, 248); stroke-opacity: 1; stroke-width: 1px;"/></g><g class="y"><path class="ygrid crisp" transform="translate(0,102.77000000000001)" d="M10,0h280" style="stroke: rgb(235, 240, 248); stroke-opacity: 1; stroke-width: 1px;"/><path class="ygrid crisp" transform="translate(0,80.53999999999999)" d="M10,0h280" style="stroke: rgb(235, 240, 248); stroke-opacity: 1; stroke-width: 1px;"/><path class="ygrid crisp" transform="translate(0,58.31)" d="M10,0h280" style="stroke: rgb(235, 240, 248); stroke-opacity: 1; stroke-width: 1px;"/></g></g><g class="zerolinelayer"><path class="yzl zl crisp" transform="translate(0,125)" d="M10,0h280" style="stroke: rgb(235, 240, 248); stroke-opacity: 1; stroke-width: 2px;"/></g><path class="xlines-below"/><path class="ylines-below"/><g class="overlines-below"/><g class="xaxislayer-below"/><g class="yaxislayer-below"/><g class="overaxes-below"/><g class="plot" transform="translate(10,50)" clip-path="url(#clip4d2575xyplot)"><g class="scatterlayer mlayer"><g class="trace scatter tracebb73b2" style="stroke-miterlimit: 2; opacity: 1;"><g class="fills"/><g class="errorbars"/><g class="lines"><path class="js-line" d="M261.11,21.65L280,21.42" style="vector-effect: none; fill: none; stroke: rgb(187, 187, 187); stroke-opacity: 1; stroke-width: 5px; opacity: 1;"/></g><g class="points"/><g class="text"/></g><g class="trace scatter trace772093" style="stroke-miterlimit: 2; opacity: 1;"><g class="fills"/><g class="errorbars"/><g class="lines"><path class="js-line" d="M0,51.77L3.33,48.88L4.44,48.88L8.89,49.1L10,48.32L25.56,47.43L26.67,46.77L47.78,45.99L48.89,41.32L62.22,41.32L64.44,44.54L67.78,43.88L68.89,43.88L76.67,43.65L77.78,46.1L80,47.32L81.11,46.88L82.22,46.43L83.33,47.43L112.22,46.77L113.33,44.54L115.56,45.43L116.67,45.43L117.78,45.21L118.89,41.54L121.11,39.32L122.22,39.32L123.33,38.76L124.44,35.1L126.67,32.98L127.78,32.98L131.11,32.32L132.22,31.32L135.56,28.87L136.67,28.87L145.56,29.2L146.67,30.32L155.56,30.32L156.67,28.76L157.78,28.76L158.89,26.09L163.33,26.09L164.44,23.09L171.11,23.09L172.22,21.31L178.89,18.42L180,18.42L182.22,14.64L183.33,14.64L184.44,12.75L185.56,8.2L195.56,8.2L196.67,9.86L198.89,10.64L200,10.64L202.22,12.86L203.33,13.53L208.89,12.31L210,12.31L216.67,12.42L217.78,8.75L220,5.08L221.11,4.97L224.44,5.86L225.56,3.75L228.89,4.75L230,5.64L232.22,6.75L233.33,10.53L234.44,11.86L235.56,10.53L237.78,10.64L238.89,8.86L241.11,8.97L242.22,9.09L244.44,8.64L245.56,7.75L248.89,4.64L250,4.64L253.33,6.64L254.44,5.75L256.67,6.42L257.78,8.64L260,14.87L261.11,43.65L272.22,43.88L273.33,42.21L277.78,38.99L278.89,39.1L280,39.21" style="vector-effect: none; fill: none; stroke: rgb(138, 44, 81); stroke-opacity: 1; stroke-width: 5px; opacity: 1;"/></g><g class="points"/><g class="text"/></g><g class="trace scatter tracef67083" style="stroke-miterlimit: 2; opacity: 1;"><g class="fills"/><g class="errorbars"/><g class="lines"><path class="js-line" d="M0,26.54L4.44,28.09L5.56,28.09L8.89,27.87L10,27.2L64.44,28.2L65.56,31.32L76.67,30.32L77.78,27.76L80,23.98L81.11,24.98L82.22,25.98L83.33,22.65L93.33,22.65L94.44,24.31L95.56,24.31L96.67,22.65L97.78,24.31L98.89,22.31L101.11,21.87L102.22,23.98L104.44,21.87L105.56,21.87L106.67,21.87L107.78,23.98L108.89,23.98L110,21.87L112.22,23.98L113.33,21.98L115.56,24.54L116.67,24.54L123.33,25.76L124.44,27.65L127.78,28.43L128.89,28.43L143.33,29.2L144.44,29.87L171.11,30.87L172.22,32.65L180,34.98L181.11,32.87L184.44,33.98L185.56,35.43L195.56,35.43L196.67,33.87L198.89,32.98L200,32.98L201.11,32.54L202.22,29.98L204.44,29.43L205.56,29.76L216.67,29.2L217.78,32.09L220,35.43L221.11,35.54L223.33,33.76L224.44,32.98L226.67,35.1L227.78,34.54L232.22,32.09L233.33,28.32L234.44,26.98L235.56,28.32L237.78,28.2L238.89,29.98L241.11,29.87L242.22,29.76L244.44,30.2L245.56,31.09L248.89,34.21L250,34.21L253.33,32.21L254.44,33.09L256.67,32.43L257.78,30.2L260,23.98L261.11,48.66L272.22,48.43L273.33,50.21L277.78,53.21L278.89,53.21L280,53.1" style="vector-effect: none; fill: none; stroke: rgb(0, 174, 239); stroke-opacity: 1; stroke-width: 5px; opacity: 1;"/></g><g class="points"/><g class="text"/></g><g class="trace scatter traceb4cc0e" style="stroke-miterlimit: 2; opacity: 1;"><g class="fills"/><g class="errorbars"/><g class="lines"><path class="js-line" d="M0,66.22L6.67,66.44L7.78,64.88L10,68.33L11.11,68.33L80,68.89L81.11,69.33L83.33,69L84.44,69L118.89,70.11L120,70.33L132.22,71.55L133.33,71.78L137.78,72.11L138.89,72.11L180,73.33L181.11,73.67L184.44,73.89" style="vector-effect: none; fill: none; stroke: rgb(202, 166, 105); stroke-opacity: 1; stroke-width: 5px; opacity: 1;"/></g><g class="points"/><g class="text"/></g><g class="trace scatter tracebbd055" style="stroke-miterlimit: 2; opacity: 1;"><g class="fills"/><g class="errorbars"/><g class="lines"><path class="js-line" d="M0,67.22L12.22,67.33L13.33,67.33L47.78,68.55L48.89,69.44L62.22,69.44L64.44,68.11L65.56,71L67.78,71L82.22,71.89L83.33,72.33L131.11,73.11L132.22,73.55L163.33,73.55" style="vector-effect: none; fill: none; stroke: rgb(255, 192, 203); stroke-opacity: 1; stroke-width: 5px; opacity: 1;"/></g><g class="points"/><g class="text"/></g></g></g><g class="overplot"/><path class="xlines-above crisp" d="M0,0" style="fill: none;"/><path class="ylines-above crisp" d="M0,0" style="fill: none;"/><g class="overlines-above"/><g class="xaxislayer-above"/><g class="yaxislayer-above"/><g class="overaxes-above"/></g></g><g class="polarlayer"/><g class="smithlayer"/><g class="ternarylayer"/><g class="geolayer"/><g class="funnelarealayer"/><g class="pielayer"/><g class="iciclelayer"/><g class="treemaplayer"/><g class="sunburstlayer"/><g class="glimages"/><defs id="topdefs-4d2575"><g class="clips"/></defs><g class="layer-above"><g class="imagelayer"/><g class="shapelayer"/></g><g class="infolayer"><g class="g-gtitle"><text class="gtitle" x="15" y="25" text-anchor="start" dy="0em" style="font-family: Ubuntu, verdana, arial, sans-serif; font-size: 16px; fill: rgb(233, 84, 32); opacity: 1; font-weight: normal; white-space: pre;">Prezident/ka 2024</text></g><g class="g-xtitle"/><g class="g-ytitle"/></g></svg>