<svg class="main-svg" xmlns="http://www.w3.org/2000/svg" xmlns:xlink="http://www.w3.org/1999/xlink" width="300" height="135" style="" viewBox="0 0 300 135"><rect x="0" y="0" width="300" height="135" style="fill: rgb(255, 255, 255); fill-opacity: 1;"/><defs id="defs-f28d5c"><g class="clips"><clipPath id="clipf28d5cxyplot" class="plotclip"><rect width="280" height="75"/></clipPath><clipPath class="axesclip" id="clipf28d5cx"><rect x="10" y="0" width="280" height="135"/></clipPath><clipPath class="axesclip" id="clipf28d5cy"><rect x="0" y="50" width="300" height="75"/></clipPath><clipPath class="axesclip" id="clipf28d5cxy"><rect x="10" y="50" width="280" height="75"/></clipPath></g><g class="gradients"/><g class="patterns"/></defs><g class="bglayer"/><g class="layer-below"><g class="imagelayer"/><g class="shapelayer"/></g><g class="cartesianlayer"><g class="subplot xy"><g class="layer-subplot"><g class="shapelayer"/><g class="imagelayer"/></g><g class="minor-gridlayer"><g class="x"/><g class="y"/></g><g class="gridlayer"><g class="x"><path class="xgrid crisp" transform="translate(20.22,0)" d="M0,50v75" style="stroke: rgb(235, 240, 248); stroke-opacity: 1; stroke-width: 1px;"/><path class="xgrid crisp" transform="translate(83.58,0)" d="M0,50v75" style="stroke: rgb(235, 240, 248); stroke-opacity: 1; stroke-width: 1px;"/><path class="xgrid crisp" transform="translate(145.91,0)" d="M0,50v75" style="stroke: rgb(235, 240, 248); stroke-opacity: 1; stroke-width: 1px;"/><path class="xgrid crisp" transform="translate(208.25,0)" d="M0,50v75" style="stroke: rgb(235, 240, 248); stroke-opacity: 1; stroke-width: 1px;"/><path class="xgrid crisp" transform="translate(269.56,0)" d="M0,50v75" style="stroke: rgb(235, 240, 248); stroke-opacity: 1; stroke-width: 1px;"/></g><g class="y"><path class="ygrid crisp" transform="translate(0,104.84)" d="M10,0h280" style="stroke: rgb(235, 240, 248); stroke-opacity: 1; stroke-width: 1px;"/><path class="ygrid crisp" transform="translate(0,84.69)" d="M10,0h280" style="stroke: rgb(235, 240, 248); stroke-opacity: 1; stroke-width: 1px;"/><path class="ygrid crisp" transform="translate(0,64.53)" d="M10,0h280" style="stroke: rgb(235, 240, 248); stroke-opacity: 1; stroke-width: 1px;"/></g></g><g class="zerolinelayer"><path class="yzl zl crisp" transform="translate(0,125)" d="M10,0h280" style="stroke: rgb(235, 240, 248); stroke-opacity: 1; stroke-width: 2px;"/></g><path class="xlines-below"/><path class="ylines-below"/><g class="overlines-below"/><g class="xaxislayer-below"/><g class="yaxislayer-below"/><g class="overaxes-below"/><g class="plot" transform="translate(10,50)" clip-path="url(#clipf28d5cxyplot)"><g class="scatterlayer mlayer"><g class="trace scatter tracef29fa9" style="stroke-miterlimit: 2; opacity: 1;"><g class="fills"/><g class="errorbars"/><g class="lines"><path class="js-line" d="M0,53.94L3.07,51.32L4.09,51.32L14.31,50.81L15.33,50.51L37.81,49.4L38.83,48.7L43.94,48.7L44.96,44.46L57.23,44.46L59.27,47.39L62.34,46.78L63.36,46.78L70.51,46.58L71.53,48.8L73.58,49.91L74.6,49.5L76.64,50.01L77.66,50.01L103.21,49.4L104.23,47.39L106.28,48.19L107.3,48.19L108.32,47.99L109.34,44.67L111.39,42.65L112.41,42.65L113.43,42.15L114.45,38.82L116.5,36.91L117.52,36.91L120.58,36.3L121.61,35.39L124.67,33.18L125.69,33.18L133.87,33.48L134.89,34.49L143.07,34.49L144.09,33.08L145.11,33.08L146.13,30.66L150.22,30.66L151.24,27.94L157.37,27.94L158.39,26.32L164.53,23.7L165.55,23.7L167.59,20.28L168.61,20.28L171.68,14.43L172.7,14.43L179.85,14.43L180.88,15.94L183.94,16.65L184.96,17.05L187.01,19.27L188.03,18.87L191.09,18.16L192.12,18.16L199.27,18.26L200.29,14.94L202.34,11.61L203.36,11.51L206.42,12.32L207.45,10.4L210.51,11.31L211.53,12.11L213.58,13.12L214.6,16.55L215.62,17.76L216.64,16.55L218.69,16.65L219.71,15.04L221.75,15.14L222.77,15.24L224.82,14.84L225.84,14.03L228.91,11.21L229.93,11.21L232.99,13.02L234.01,12.22L236.06,12.82L237.08,14.84L239.12,20.48L240.15,20.28L243.21,21.29L244.23,21.59L246.28,20.28L247.3,21.39L249.34,22.09L250.36,20.68L253.43,14.53L254.45,14.43L256.5,12.32L257.52,12.22L259.56,12.42L260.58,14.03L265.69,13.32L266.72,12.72L269.78,12.32L270.8,11.31L272.85,10.3L273.87,7.58L277.96,5.46L278.98,4.86L280,3.75" style="vector-effect: none; fill: none; stroke: rgb(138, 44, 81); stroke-opacity: 1; stroke-width: 5px; opacity: 1;"/></g><g class="points"/><g class="text"/></g><g class="trace scatter trace2afb59" style="stroke-miterlimit: 2; opacity: 1;"><g class="fills"/><g class="errorbars"/><g class="lines"><path class="js-line" d="M0,31.06L4.09,32.47L5.11,32.47L8.18,32.27L9.2,31.67L59.27,32.57L60.29,35.39L70.51,34.49L71.53,32.17L73.58,28.74L74.6,29.65L75.62,30.56L76.64,27.53L85.84,27.53L86.86,29.05L87.88,29.05L88.91,27.53L89.93,29.05L90.95,27.23L92.99,26.83L94.01,28.74L96.06,26.83L97.08,26.83L98.1,26.83L99.12,28.74L100.15,28.74L101.17,26.83L103.21,28.74L104.23,26.93L106.28,29.25L107.3,29.25L113.43,30.36L114.45,32.07L117.52,32.77L118.54,32.77L131.82,33.48L132.85,34.08L157.37,34.99L158.39,36.6L165.55,38.72L166.57,36.81L169.64,37.81L170.66,39.12L179.85,39.12L180.88,37.71L182.92,36.91L183.94,36.91L184.96,36.5L185.99,34.18L188.03,33.68L189.05,33.98L199.27,33.48L200.29,36.1L203.36,39.22L204.38,38.92L206.42,36.91L207.45,38.82L210.51,37.91L211.53,37.11L213.58,36.1L214.6,32.67L215.62,31.46L216.64,32.67L218.69,32.57L219.71,34.18L221.75,34.08L222.77,33.98L224.82,34.39L225.84,35.19L228.91,38.01L229.93,38.01L232.99,36.2L234.01,37.01L236.06,36.4L237.08,34.39L239.12,28.74L240.15,28.94L243.21,27.94L244.23,27.63L246.28,28.94L247.3,27.84L249.34,27.13L250.36,28.54L253.43,34.69L254.45,34.79L256.5,36.91L257.52,37.01L259.56,36.81L260.58,35.19L265.69,35.9L266.72,36.5L269.78,36.91L270.8,37.91L272.85,38.92L273.87,41.64L277.96,43.76L278.98,44.36L280,45.47" style="vector-effect: none; fill: none; stroke: rgb(0, 174, 239); stroke-opacity: 1; stroke-width: 5px; opacity: 1;"/></g><g class="points"/><g class="text"/></g><g class="trace scatter trace7e4982" style="stroke-miterlimit: 2; opacity: 1;"><g class="fills"/><g class="errorbars"/><g class="lines"><path class="js-line" d="M0,67.95L12.26,68.05L13.28,68.05L43.94,69.15L44.96,69.96L59.27,68.75L60.29,71.37L103.21,72.38L104.23,72.68L110.36,72.58L111.39,72.58L150.22,73.69" style="vector-effect: none; fill: none; stroke: rgb(255, 192, 203); stroke-opacity: 1; stroke-width: 5px; opacity: 1;"/></g><g class="points"/><g class="text"/></g><g class="trace scatter trace119fa3" style="stroke-miterlimit: 2; opacity: 1;"><g class="fills"/><g class="errorbars"/><g class="lines"><path class="js-line" d="M0,67.04L6.13,67.24L7.15,65.83L10.22,68.95L11.24,68.95L74.6,69.86L75.62,70.26L78.69,69.56L79.71,69.56L112.41,70.77L113.43,70.87L136.93,72.48L137.96,72.48L165.55,73.49L166.57,73.79L169.64,73.99" style="vector-effect: none; fill: none; stroke: rgb(202, 166, 105); stroke-opacity: 1; stroke-width: 5px; opacity: 1;"/></g><g class="points"/><g class="text"/></g><g class="trace scatter trace3a7d80" style="stroke-miterlimit: 2; opacity: 1;"><g class="fills"/><g class="errorbars"/><g class="lines"><path class="js-line" d="M0,64.82L8.18,65.22L9.2,64.62L43.94,64.82L44.96,66.03L59.27,65.22L60.29,58.67L75.62,59.18L76.64,59.98L103.21,59.88L104.23,62.81L106.28,60.79L107.3,60.79L108.32,60.89L109.34,62.4L111.39,63.61L112.41,63.61L113.43,63.31L114.45,64.32L120.58,64.42L121.61,64.32L129.78,64.92L130.8,64.92L137.96,62.2L138.98,62.2L143.07,62.2L144.09,63.51L149.2,65.33L150.22,65.33L152.26,66.13L153.28,66.13L165.55,66.43L166.57,69.56L184.96,70.57L185.99,71.47L199.27,72.48L200.29,73.19L205.4,73.69" style="vector-effect: none; fill: none; stroke: rgb(255, 1, 170); stroke-opacity: 1; stroke-width: 5px; opacity: 1;"/></g><g class="points"/><g class="text"/></g></g></g><g class="overplot"/><path class="xlines-above crisp" d="M0,0" style="fill: none;"/><path class="ylines-above crisp" d="M0,0" style="fill: none;"/><g class="overlines-above"/><g class="xaxislayer-above"/><g class="yaxislayer-above"/><g class="overaxes-above"/></g></g><g class="polarlayer"/><g class="smithlayer"/><g class="ternarylayer"/><g class="geolayer"/><g class="funnelarealayer"/><g class="pielayer"/><g class="iciclelayer"/><g class="treemaplayer"/><g class="sunburstlayer"/><g class="glimages"/><defs id="topdefs-f28d5c"><g class="clips"/></defs><g class="layer-above"><g class="imagelayer"/><g class="shapelayer"/></g><g class="infolayer"><g class="g-gtitle"><text class="gtitle" x="15" y="25" text-anchor="start" dy="0em" style="font-family: Ubuntu, verdana, arial, sans-serif; font-size: 16px; fill: rgb(233, 84, 32); opacity: 1; font-weight: normal; white-space: pre;">Prezident/ka 2024</text></g><g class="g-xtitle"/><g class="g-ytitle"/></g></svg>