<svg class="main-svg" xmlns="http://www.w3.org/2000/svg" xmlns:xlink="http://www.w3.org/1999/xlink" width="300" height="135" style="" viewBox="0 0 300 135"><rect x="0" y="0" width="300" height="135" style="fill: rgb(255, 255, 255); fill-opacity: 1;"/><defs id="defs-c34888"><g class="clips"><clipPath id="clipc34888xyplot" class="plotclip"><rect width="280" height="75"/></clipPath><clipPath class="axesclip" id="clipc34888x"><rect x="10" y="0" width="280" height="135"/></clipPath><clipPath class="axesclip" id="clipc34888y"><rect x="0" y="50" width="300" height="75"/></clipPath><clipPath class="axesclip" id="clipc34888xy"><rect x="10" y="50" width="280" height="75"/></clipPath></g><g class="gradients"/><g class="patterns"/></defs><g class="bglayer"/><g class="layer-below"><g class="imagelayer"/><g class="shapelayer"/></g><g class="cartesianlayer"><g class="subplot xy"><g class="layer-subplot"><g class="shapelayer"/><g class="imagelayer"/></g><g class="minor-gridlayer"><g class="x"/><g class="y"/></g><g class="gridlayer"><g class="x"><path class="xgrid crisp" transform="translate(26.09,0)" d="M0,50v75" style="stroke: rgb(235, 240, 248); stroke-opacity: 1; stroke-width: 1px;"/><path class="xgrid crisp" transform="translate(125.86,0)" d="M0,50v75" style="stroke: rgb(235, 240, 248); stroke-opacity: 1; stroke-width: 1px;"/><path class="xgrid crisp" transform="translate(224.02,0)" d="M0,50v75" style="stroke: rgb(235, 240, 248); stroke-opacity: 1; stroke-width: 1px;"/></g><g class="y"><path class="ygrid crisp" transform="translate(0,101.28999999999999)" d="M10,0h280" style="stroke: rgb(235, 240, 248); stroke-opacity: 1; stroke-width: 1px;"/><path class="ygrid crisp" transform="translate(0,77.58)" d="M10,0h280" style="stroke: rgb(235, 240, 248); stroke-opacity: 1; stroke-width: 1px;"/><path class="ygrid crisp" transform="translate(0,53.87)" d="M10,0h280" style="stroke: rgb(235, 240, 248); stroke-opacity: 1; stroke-width: 1px;"/></g></g><g class="zerolinelayer"><path class="yzl zl crisp" transform="translate(0,125)" d="M10,0h280" style="stroke: rgb(235, 240, 248); stroke-opacity: 1; stroke-width: 2px;"/></g><path class="xlines-below"/><path class="ylines-below"/><g class="overlines-below"/><g class="xaxislayer-below"/><g class="yaxislayer-below"/><g class="overaxes-below"/><g class="plot" transform="translate(10,50)" clip-path="url(#clipc34888xyplot)"><g class="scatterlayer mlayer"><g class="trace scatter trace03bbf4" style="stroke-miterlimit: 2; opacity: 1;"><g class="fills"/><g class="errorbars"/><g class="lines"><path class="js-line" d="M0,50.22L4.83,47.14L6.44,47.14L12.87,47.38L14.48,46.55L37.01,45.6L38.62,44.89L69.2,44.06L70.8,39.08L90.11,39.08L93.33,42.52L94.94,41.81L98.16,41.81L111.03,41.57L112.64,44.18L115.86,45.48L117.47,45.01L119.08,44.53L120.69,45.6L162.53,44.89L164.14,42.52L167.36,43.47L168.97,43.47L170.57,43.23L172.18,39.32L173.79,36.94L175.4,36.94L178.62,36.35L180.23,32.44L183.45,30.19L185.06,30.19L189.89,29.48L191.49,28.41L196.32,25.8L197.93,25.8L210.8,26.16L212.41,27.34L225.29,27.34L226.9,25.68L228.51,25.68L230.11,22.84L236.55,22.84L238.16,19.64L247.82,19.64L249.43,17.74L252.64,17.03L254.25,17.03L260.69,14.66L262.3,10.63L265.52,10.63L267.13,8.61L268.74,3.75L270.34,3.75L280,3.75" style="vector-effect: none; fill: none; stroke: rgb(138, 44, 81); stroke-opacity: 1; stroke-width: 5px; opacity: 1;"/></g><g class="points"/><g class="text"/></g><g class="trace scatter tracecd2f38" style="stroke-miterlimit: 2; opacity: 1;"><g class="fills"/><g class="errorbars"/><g class="lines"><path class="js-line" d="M0,23.31L4.83,24.97L6.44,24.97L12.87,24.73L14.48,24.02L93.33,25.09L94.94,28.41L111.03,27.34L112.64,24.62L114.25,20.58L115.86,20.58L119.08,22.72L120.69,19.16L135.17,19.16L136.78,20.94L138.39,20.94L140,19.16L141.61,20.94L143.22,18.81L146.44,18.33L148.05,20.58L149.66,18.33L151.26,18.33L154.48,18.33L156.09,20.58L157.7,20.58L159.31,18.33L160.92,20.58L162.53,20.58L164.14,18.45L165.75,21.18L177.01,21.89L178.62,22.48L181.84,25.21L183.45,25.33L207.59,26.16L209.2,26.87L228.51,26.99L230.11,28.17L247.82,27.93L249.43,29.83L260.69,32.32L262.3,30.07L267.13,31.25L268.74,32.8L280,32.8" style="vector-effect: none; fill: none; stroke: rgb(0, 174, 239); stroke-opacity: 1; stroke-width: 5px; opacity: 1;"/></g><g class="points"/><g class="text"/></g><g class="trace scatter trace9e1b6d" style="stroke-miterlimit: 2; opacity: 1;"><g class="fills"/><g class="errorbars"/><g class="lines"><path class="js-line" d="M0,63.03L11.26,64.21L12.87,63.5L16.09,62.79L17.7,62.79L69.2,63.03L70.8,64.45L93.33,63.5L94.94,55.79L112.64,56.51L114.25,57.22L143.22,57.57L144.83,58.05L162.53,57.22L164.14,60.66L165.75,58.28L167.36,58.28L170.57,58.4L172.18,60.18L175.4,61.6L177.01,61.6L178.62,61.25L180.23,62.43L188.28,62.67L189.89,62.55L197.93,63.14L199.54,63.14L207.59,62.67L209.2,61.6L210.8,61.6L212.41,59.94L225.29,59.94L226.9,61.49L233.33,63.62L234.94,63.62L257.47,64.8L259.08,64.92L260.69,64.92L262.3,68.6L280,69.78" style="vector-effect: none; fill: none; stroke: rgb(255, 1, 170); stroke-opacity: 1; stroke-width: 5px; opacity: 1;"/></g><g class="points"/><g class="text"/></g><g class="trace scatter trace2d4d41" style="stroke-miterlimit: 2; opacity: 1;"><g class="fills"/><g class="errorbars"/><g class="lines"><path class="js-line" d="M0,65.63L9.66,65.87L11.26,64.21L14.48,67.89L16.09,67.89L115.86,68.48L117.47,68.95L119.08,69.43L120.69,68.6L172.18,69.78L173.79,70.02L189.89,70.97L191.49,71.32L202.76,71.92L204.37,71.92L255.86,73.1L257.47,73.22L267.13,73.81" style="vector-effect: none; fill: none; stroke: rgb(202, 166, 105); stroke-opacity: 1; stroke-width: 5px; opacity: 1;"/></g><g class="points"/><g class="text"/></g><g class="trace scatter trace070c55" style="stroke-miterlimit: 2; opacity: 1;"><g class="fills"/><g class="errorbars"/><g class="lines"><path class="js-line" d="M0,66.7L16.09,66.82L17.7,66.82L59.54,67.18L61.15,68.12L90.11,69.07L93.33,67.65L94.94,70.73L98.16,70.73L119.08,71.68L120.69,72.15L189.89,72.98L191.49,73.46L236.55,73.46" style="vector-effect: none; fill: none; stroke: rgb(255, 192, 203); stroke-opacity: 1; stroke-width: 5px; opacity: 1;"/></g><g class="points"/><g class="text"/></g></g></g><g class="overplot"/><path class="xlines-above crisp" d="M0,0" style="fill: none;"/><path class="ylines-above crisp" d="M0,0" style="fill: none;"/><g class="overlines-above"/><g class="xaxislayer-above"/><g class="yaxislayer-above"/><g class="overaxes-above"/></g></g><g class="polarlayer"/><g class="smithlayer"/><g class="ternarylayer"/><g class="geolayer"/><g class="funnelarealayer"/><g class="pielayer"/><g class="iciclelayer"/><g class="treemaplayer"/><g class="sunburstlayer"/><g class="glimages"/><defs id="topdefs-c34888"><g class="clips"/></defs><g class="layer-above"><g class="imagelayer"/><g class="shapelayer"/></g><g class="infolayer"><g class="g-gtitle"><text class="gtitle" x="15" y="25" text-anchor="start" dy="0em" style="font-family: Ubuntu, verdana, arial, sans-serif; font-size: 16px; fill: rgb(233, 84, 32); opacity: 1; font-weight: normal; white-space: pre;">Prezident/ka 2024</text></g><g class="g-xtitle"/><g class="g-ytitle"/></g></svg>