<svg class="main-svg" xmlns="http://www.w3.org/2000/svg" xmlns:xlink="http://www.w3.org/1999/xlink" width="300" height="135" style="" viewBox="0 0 300 135"><rect x="0" y="0" width="300" height="135" style="fill: rgb(255, 255, 255); fill-opacity: 1;"/><defs id="defs-90c779"><g class="clips"><clipPath id="clip90c779xyplot" class="plotclip"><rect width="280" height="75"/></clipPath><clipPath class="axesclip" id="clip90c779x"><rect x="10" y="0" width="280" height="135"/></clipPath><clipPath class="axesclip" id="clip90c779y"><rect x="0" y="50" width="300" height="75"/></clipPath><clipPath class="axesclip" id="clip90c779xy"><rect x="10" y="50" width="280" height="75"/></clipPath></g><g class="gradients"/><g class="patterns"/></defs><g class="bglayer"/><g class="layer-below"><g class="imagelayer"/><g class="shapelayer"/></g><g class="cartesianlayer"><g class="subplot xy"><g class="layer-subplot"><g class="shapelayer"/><g class="imagelayer"/></g><g class="minor-gridlayer"><g class="x"/><g class="y"/></g><g class="gridlayer"><g class="x"><path class="xgrid crisp" transform="translate(29.58,0)" d="M0,50v75" style="stroke: rgb(235, 240, 248); stroke-opacity: 1; stroke-width: 1px;"/><path class="xgrid crisp" transform="translate(90.28,0)" d="M0,50v75" style="stroke: rgb(235, 240, 248); stroke-opacity: 1; stroke-width: 1px;"/><path class="xgrid crisp" transform="translate(150.98,0)" d="M0,50v75" style="stroke: rgb(235, 240, 248); stroke-opacity: 1; stroke-width: 1px;"/><path class="xgrid crisp" transform="translate(209.72,0)" d="M0,50v75" style="stroke: rgb(235, 240, 248); stroke-opacity: 1; stroke-width: 1px;"/><path class="xgrid crisp" transform="translate(270.42,0)" d="M0,50v75" style="stroke: rgb(235, 240, 248); stroke-opacity: 1; stroke-width: 1px;"/></g><g class="y"><path class="ygrid crisp" transform="translate(0,109.38)" d="M10,0h280" style="stroke: rgb(235, 240, 248); stroke-opacity: 1; stroke-width: 1px;"/><path class="ygrid crisp" transform="translate(0,93.75)" d="M10,0h280" style="stroke: rgb(235, 240, 248); stroke-opacity: 1; stroke-width: 1px;"/><path class="ygrid crisp" transform="translate(0,78.13)" d="M10,0h280" style="stroke: rgb(235, 240, 248); stroke-opacity: 1; stroke-width: 1px;"/><path class="ygrid crisp" transform="translate(0,62.5)" d="M10,0h280" style="stroke: rgb(235, 240, 248); stroke-opacity: 1; stroke-width: 1px;"/></g></g><g class="zerolinelayer"><path class="yzl zl crisp" transform="translate(0,125)" d="M10,0h280" style="stroke: rgb(235, 240, 248); stroke-opacity: 1; stroke-width: 2px;"/></g><path class="xlines-below"/><path class="ylines-below"/><g class="overlines-below"/><g class="xaxislayer-below"/><g class="yaxislayer-below"/><g class="overaxes-below"/><g class="plot" transform="translate(10,50)" clip-path="url(#clip90c779xyplot)"><g class="scatterlayer mlayer"><g class="trace scatter trace491040" style="stroke-miterlimit: 2; opacity: 1;"><g class="fills"/><g class="errorbars"/><g class="lines"><path class="js-line" d="M0,43.44L3.92,39.38L5.87,39.38L15.66,39.53L17.62,38.75L45.03,37.66L46.99,36.88L84.2,35.78L86.15,29.69L109.65,29.69L113.57,33.75L115.52,32.97L119.44,32.97L135.1,32.66L137.06,35.94L140.98,37.34L142.94,36.88L144.9,36.25L146.85,37.66L197.76,36.88L199.72,34.06L203.64,35L205.59,35L207.55,34.69L209.51,29.69L211.47,26.72L213.43,26.72L217.34,25.78L219.3,20.63L221.26,18.13L223.22,17.66L231.05,16.72L233.01,15L238.88,11.41L240.84,11.41L256.5,11.87L258.46,13.44L274.13,13.44L276.08,11.25L278.04,11.25L280,7.5" style="vector-effect: none; fill: none; stroke: rgb(138, 44, 81); stroke-opacity: 1; stroke-width: 5px; opacity: 1;"/></g><g class="points"/><g class="text"/></g><g class="trace scatter trace472e50" style="stroke-miterlimit: 2; opacity: 1;"><g class="fills"/><g class="errorbars"/><g class="lines"><path class="js-line" d="M0,9.06L5.87,11.25L7.83,11.25L15.66,10.63L17.62,10.16L45.03,10.94L46.99,11.56L113.57,11.56L115.52,15.94L133.15,15.16L135.1,14.53L139.02,5.78L140.98,5.78L144.9,8.44L146.85,3.91L164.48,3.91L166.43,6.25L168.39,6.25L170.35,3.91L172.31,6.25L174.27,3.75L178.18,3.75L180.14,6.09L182.1,3.75L184.06,3.75L187.97,3.75L189.93,6.09L191.89,6.09L193.85,3.75L195.8,6.09L197.76,6.09L199.72,3.75L201.68,6.72L215.38,7.66L217.34,8.13L221.26,11.41L223.22,11.41L252.59,11.72L254.55,12.66L278.04,12.97L280,14.53" style="vector-effect: none; fill: none; stroke: rgb(0, 174, 239); stroke-opacity: 1; stroke-width: 5px; opacity: 1;"/></g><g class="points"/><g class="text"/></g><g class="trace scatter trace531137" style="stroke-miterlimit: 2; opacity: 1;"><g class="fills"/><g class="errorbars"/><g class="lines"><path class="js-line" d="M0,59.69L13.71,61.09L15.66,60.31L19.58,59.53L21.54,59.53L84.2,59.84L86.15,61.72L109.65,61.72L113.57,60.31L115.52,50.78L119.44,50.78L137.06,51.56L139.02,52.34L172.31,51.88L174.27,52.97L178.18,53.59L180.14,52.5L184.06,53.59L186.01,53.59L197.76,52.5L199.72,57.03L201.68,53.75L203.64,53.75L207.55,53.91L209.51,56.25L211.47,57.97L213.43,57.97L217.34,57.5L219.3,58.91L229.09,59.22L231.05,59.06L240.84,59.53L242.8,59.53L252.59,59.06L254.55,57.81L256.5,57.81L258.46,55.47L274.13,55.47L276.08,57.5L278.04,58.13L280,60.31" style="vector-effect: none; fill: none; stroke: rgb(255, 1, 170); stroke-opacity: 1; stroke-width: 5px; opacity: 1;"/></g><g class="points"/><g class="text"/></g><g class="trace scatter tracefa05d6" style="stroke-miterlimit: 2; opacity: 1;"><g class="fills"/><g class="errorbars"/><g class="lines"><path class="js-line" d="M0,59.22L11.75,59.69L13.71,58.91L25.45,60L27.41,60L41.12,60.94L43.08,60.94L84.2,60.78L86.15,63.13L113.57,62.03L115.52,64.06L137.06,64.38L139.02,66.09L142.94,65.16L144.9,64.38L146.85,66.88L148.81,66.88L199.72,65.78L201.68,64.53L207.55,64.69L209.51,66.25L213.43,67.03L215.38,67.03L234.97,69.38L236.92,70.16L280,70.31" style="vector-effect: none; fill: none; stroke: rgb(238, 58, 67); stroke-opacity: 1; stroke-width: 5px; opacity: 1;"/></g><g class="points"/><g class="text"/></g><g class="trace scatter trace0a83e8" style="stroke-miterlimit: 2; opacity: 1;"><g class="fills"/><g class="errorbars"/><g class="lines"><path class="js-line" d="M0,62.97L11.75,63.44L13.71,61.09L17.62,65.94L19.58,65.94L133.15,66.72L135.1,66.88L197.76,67.81L199.72,68.44L211.47,68.59L213.43,68.59L231.05,69.84L233.01,70.31L250.63,71.09L252.59,71.09L280,71.09" style="vector-effect: none; fill: none; stroke: rgb(202, 166, 105); stroke-opacity: 1; stroke-width: 5px; opacity: 1;"/></g><g class="points"/><g class="text"/></g></g></g><g class="overplot"/><path class="xlines-above crisp" d="M0,0" style="fill: none;"/><path class="ylines-above crisp" d="M0,0" style="fill: none;"/><g class="overlines-above"/><g class="xaxislayer-above"/><g class="yaxislayer-above"/><g class="overaxes-above"/></g></g><g class="polarlayer"/><g class="smithlayer"/><g class="ternarylayer"/><g class="geolayer"/><g class="funnelarealayer"/><g class="pielayer"/><g class="iciclelayer"/><g class="treemaplayer"/><g class="sunburstlayer"/><g class="glimages"/><defs id="topdefs-90c779"><g class="clips"/></defs><g class="layer-above"><g class="imagelayer"/><g class="shapelayer"/></g><g class="infolayer"><g class="g-gtitle"><text class="gtitle" x="15" y="25" text-anchor="start" dy="0em" style="font-family: Ubuntu, verdana, arial, sans-serif; font-size: 16px; fill: rgb(233, 84, 32); opacity: 1; font-weight: normal; white-space: pre;">Prezident/ka 2024</text></g><g class="g-xtitle"/><g class="g-ytitle"/></g></svg>