<svg class="main-svg" xmlns="http://www.w3.org/2000/svg" xmlns:xlink="http://www.w3.org/1999/xlink" width="400" height="400" style="" viewBox="0 0 400 400"><rect x="0" y="0" width="400" height="400" style="fill: rgb(255, 255, 255); fill-opacity: 1;"/><defs id="defs-ba2dd3"><g class="clips"><clipPath id="clipba2dd3xyplot" class="plotclip"><rect width="206" height="330"/></clipPath><clipPath class="axesclip" id="clipba2dd3x"><rect x="50" y="0" width="206" height="400"/></clipPath><clipPath class="axesclip" id="clipba2dd3y"><rect x="0" y="20" width="400" height="330"/></clipPath><clipPath class="axesclip" id="clipba2dd3xy"><rect x="50" y="20" width="206" height="330"/></clipPath></g><g class="gradients"/><g class="patterns"/></defs><g class="bglayer"/><g class="layer-below"><g class="imagelayer"/><g class="shapelayer"/></g><g class="cartesianlayer"><g class="subplot xy"><g class="layer-subplot"><g class="shapelayer"/><g class="imagelayer"/></g><g class="minor-gridlayer"><g class="x"/><g class="y"/></g><g class="gridlayer"><g class="x"><path class="xgrid crisp" transform="translate(56.87,0)" d="M0,20v330" style="stroke: rgb(235, 240, 248); stroke-opacity: 1; stroke-width: 1px;"/><path class="xgrid crisp" transform="translate(99.44,0)" d="M0,20v330" style="stroke: rgb(235, 240, 248); stroke-opacity: 1; stroke-width: 1px;"/><path class="xgrid crisp" transform="translate(141.32999999999998,0)" d="M0,20v330" style="stroke: rgb(235, 240, 248); stroke-opacity: 1; stroke-width: 1px;"/><path class="xgrid crisp" transform="translate(183.21,0)" d="M0,20v330" style="stroke: rgb(235, 240, 248); stroke-opacity: 1; stroke-width: 1px;"/><path class="xgrid crisp" transform="translate(224.41,0)" d="M0,20v330" style="stroke: rgb(235, 240, 248); stroke-opacity: 1; stroke-width: 1px;"/></g><g class="y"><path class="ygrid crisp" transform="translate(0,297.84)" d="M50,0h206" style="stroke: rgb(235, 240, 248); stroke-opacity: 1; stroke-width: 1px;"/><path class="ygrid crisp" transform="translate(0,245.67)" d="M50,0h206" style="stroke: rgb(235, 240, 248); stroke-opacity: 1; stroke-width: 1px;"/><path class="ygrid crisp" transform="translate(0,193.51)" d="M50,0h206" style="stroke: rgb(235, 240, 248); stroke-opacity: 1; stroke-width: 1px;"/><path class="ygrid crisp" transform="translate(0,141.35)" d="M50,0h206" style="stroke: rgb(235, 240, 248); stroke-opacity: 1; stroke-width: 1px;"/><path class="ygrid crisp" transform="translate(0,89.18)" d="M50,0h206" style="stroke: rgb(235, 240, 248); stroke-opacity: 1; stroke-width: 1px;"/><path class="ygrid crisp" transform="translate(0,37.019999999999996)" d="M50,0h206" style="stroke: rgb(235, 240, 248); stroke-opacity: 1; stroke-width: 1px;"/></g></g><g class="zerolinelayer"><path class="yzl zl crisp" transform="translate(0,350)" d="M50,0h206" style="stroke: rgb(235, 240, 248); stroke-opacity: 1; stroke-width: 2px;"/></g><path class="xlines-below"/><path class="ylines-below"/><g class="overlines-below"/><g class="xaxislayer-below"/><g class="yaxislayer-below"/><g class="overaxes-below"/><g class="plot" transform="translate(50,20)" clip-path="url(#clipba2dd3xyplot)"><g class="scatterlayer mlayer"><g class="trace scatter traced5c232" style="stroke-miterlimit: 2; opacity: 1;"><g class="fills"/><g class="errorbars"/><g class="lines"><path class="js-line" d="M0,220.98L2.06,207.42L2.75,207.42L4.12,207.42L4.81,211.07L6.87,204.81L7.55,204.81L9.61,204.81L10.3,203.24L12.36,203.24L13.05,201.68L15.11,200.64L15.79,200.64L17.17,197.51L17.85,197.51L25.41,197.51L26.09,193.85L29.53,193.85L30.21,171.95L38.45,171.95L39.83,187.07L40.51,183.94L41.89,183.94L47.38,182.9L48.07,194.38L49.44,200.11L50.13,198.03L50.81,195.94L51.5,200.64L57.68,200.64L58.37,198.55L59.05,198.55L59.74,200.64L60.43,198.55L61.11,200.11L61.8,198.55L69.35,197.51L70.04,187.07L71.41,191.25L72.1,191.25L72.79,190.2L73.47,172.99L74.85,162.56L75.53,162.56L76.22,159.95L76.91,142.73L78.97,132.82L79.65,132.82L80.34,132.82L81.03,129.69L83.77,113.52L84.46,113.52L88.58,114.04L89.27,115.09L89.95,115.09L90.64,120.3L96.13,120.3L96.82,113L97.51,113L98.19,100.48L100.94,100.48L101.63,86.4L105.75,86.4L106.43,78.05L107.81,74.92L108.49,74.92L111.24,64.49L111.93,46.75L113.3,46.75L113.99,37.89L115.36,16.5L116.05,16.5L120.85,16.5L121.54,24.32L122.91,27.98L123.6,27.98L124.29,30.06L124.97,38.41L125.66,41.54L126.35,39.45L127.03,35.8L132.53,35.28" style="vector-effect: none; fill: none; stroke: rgb(138, 44, 81); stroke-opacity: 1; stroke-width: 5px; opacity: 1;"/></g><g class="points"/><g class="text"/></g><g class="trace scatter trace45c3ac" style="stroke-miterlimit: 2; opacity: 1;"><g class="fills"/><g class="errorbars"/><g class="lines"><path class="js-line" d="M0,102.57L2.06,109.87L2.75,109.87L4.12,109.87L4.81,113.52L6.87,105.7L7.55,105.7L13.05,106.74L13.73,107.79L15.79,107.79L16.48,110.39L39.83,110.39L40.51,125L46.01,125L46.69,122.39L47.38,120.3L48.07,108.31L49.44,90.57L50.13,95.27L50.81,99.96L51.5,84.31L57.68,84.31L58.37,92.14L59.05,92.14L59.74,84.31L60.43,92.14L61.11,82.75L62.49,80.66L63.17,90.57L64.55,80.66L65.23,80.66L65.92,80.66L66.61,90.57L67.29,90.57L67.98,80.66L69.35,90.57L70.04,81.18L71.41,93.18L72.1,93.18L72.79,93.18L73.47,96.31L75.53,96.31L76.22,98.92L78.28,111.44L78.97,111.44L81.71,111.44L82.4,113L85.15,113.52L85.83,113.52L87.89,113.52L88.58,115.09L90.64,120.3L92.01,120.3L96.82,120.83L97.51,118.74L98.88,123.96L99.57,123.96L105.75,122.91L106.43,131.26L107.81,133.35L108.49,133.35L111.24,142.21L111.93,132.3L113.3,132.3L113.99,137.52L115.36,144.3L116.05,144.3L120.85,144.3L121.54,137L122.91,132.82L123.6,132.82L124.29,130.74L124.97,118.74L125.66,115.09L126.35,116.13L127.03,117.7L132.53,117.17" style="vector-effect: none; fill: none; stroke: rgb(0, 174, 239); stroke-opacity: 1; stroke-width: 5px; opacity: 1;"/></g><g class="points"/><g class="text"/></g><g class="trace scatter trace2c3170" style="stroke-miterlimit: 2; opacity: 1;"><g class="fills"/><g class="errorbars"/><g class="lines"><path class="js-line" d="M0,277.32L2.06,278.88L2.75,278.88L4.12,278.88L4.81,282.53L6.87,276.27L7.55,276.27L29.53,277.32L30.21,283.57L38.45,283.57L39.83,279.4L40.51,245.5L41.89,245.5L46.01,245.5L46.69,247.06L49.44,251.76L50.13,250.19L50.81,248.1L51.5,252.28L57.68,252.28L58.37,250.19L59.05,250.19L59.74,252.28L60.43,250.19L61.11,253.32L62.49,255.41L63.17,251.76L64.55,255.41L65.23,255.41L65.92,255.41L66.61,251.76L67.29,251.76L67.98,255.41L69.35,251.76L70.04,266.88L71.41,256.45L72.1,256.45L72.79,256.97L73.47,264.8L74.85,271.06L75.53,271.06L76.22,269.49L76.91,274.71L78.97,275.75L79.65,275.75L82.4,275.75L83.09,277.84L87.89,277.84L88.58,275.75L90.64,263.75L92.01,263.75L96.13,263.75L96.82,270.53L97.51,272.62L98.19,279.92L100.94,279.92L101.63,284.1L109.87,285.14L110.55,285.66L111.24,285.66L111.93,301.83L113.3,301.83L113.99,303.92L115.36,307.05L116.05,307.05L124.29,307.05L124.97,311.74L126.35,312.79L127.03,314.87L132.53,315.92" style="vector-effect: none; fill: none; stroke: rgb(255, 1, 170); stroke-opacity: 1; stroke-width: 5px; opacity: 1;"/></g><g class="points"/><g class="text"/></g><g class="trace scatter trace648507" style="stroke-miterlimit: 2; opacity: 1;"><g class="fills"/><g class="errorbars"/><g class="lines"><path class="js-line" d="M0,288.79L3.43,289.83L4.12,289.83L4.81,282.53L5.49,292.44L6.87,298.7L7.55,298.7L25.41,297.66L26.09,297.14L29.53,297.14L30.21,299.75L39.83,298.7L40.51,300.79L49.44,301.31L50.13,303.4L50.81,305.48L51.5,301.83L57.68,301.83L58.37,303.4L59.05,303.4L59.74,301.83L61.8,304.96L62.49,304.96L63.86,304.96L64.55,304.96L69.35,305.48L70.04,307.05L73.47,307.05L74.16,308.09L76.91,309.13L77.59,310.7L81.03,312.26L81.71,313.83L84.46,316.44L85.15,316.44L100.94,316.44L101.63,321.65L111.24,322.18L111.93,323.74L113.99,324.78" style="vector-effect: none; fill: none; stroke: rgb(202, 166, 105); stroke-opacity: 1; stroke-width: 5px; opacity: 1;"/></g><g class="points"/><g class="text"/></g><g class="trace scatter trace329709" style="stroke-miterlimit: 2; opacity: 1;"><g class="fills"/><g class="errorbars"/><g class="lines"><path class="js-line" d="M0,293.49L3.43,295.05L4.12,295.05L6.87,294.01L7.55,294.01L15.79,294.53L16.48,295.57L25.41,295.57L26.09,299.75L29.53,299.75L30.21,303.92L38.45,303.92L39.83,297.66L40.51,311.22L41.89,311.22L48.07,311.74L48.75,315.39L50.81,315.39L51.5,317.48L69.35,316.44L70.04,318L72.1,316.96L72.79,316.96L76.22,318L76.91,319.05L79.65,320.09L80.34,320.09L83.09,323.74L83.77,323.74L100.94,323.22" style="vector-effect: none; fill: none; stroke: rgb(255, 192, 203); stroke-opacity: 1; stroke-width: 5px; opacity: 1;"/></g><g class="points"/><g class="text"/></g><g class="trace scatter trace1e9e39" style="stroke-miterlimit: 2; opacity: 1;"><g class="fills"/><g class="errorbars"/><g class="lines"><path class="js-line" d="M0,275.23L2.75,277.32L3.43,277.32L4.12,277.32L4.81,275.23L5.49,275.75L6.18,278.36L12.36,278.88L13.05,280.45L15.11,281.49L15.79,281.49L29.53,280.45L30.21,288.27L38.45,288.27L39.83,285.14L40.51,291.92L41.89,291.92L46.69,292.44L47.38,293.49L48.07,293.49L48.75,299.22L49.44,299.22L50.13,296.09L50.81,292.96L51.5,301.83L57.68,301.83L58.37,297.66L59.05,297.66L59.74,301.83L60.43,297.66L61.11,301.31L62.49,301.31L63.17,297.14L64.55,301.31L65.23,301.31L65.92,301.31L66.61,297.14L67.29,297.14L67.98,301.31L69.35,297.14L70.04,297.66L71.41,294.01L72.1,294.01L72.79,294.53L73.47,299.75L74.85,302.35L75.53,302.35L78.97,307.05L79.65,307.05L81.03,308.09L81.71,310.18L84.46,313.83L85.15,313.83L111.24,313.83L111.93,323.74L113.99,324.78" style="vector-effect: none; fill: none; stroke: rgb(238, 58, 67); stroke-opacity: 1; stroke-width: 5px; opacity: 1;"/></g><g class="points"/><g class="text"/></g></g></g><g class="overplot"/><path class="xlines-above crisp" d="M0,0" style="fill: none;"/><path class="ylines-above crisp" d="M0,0" style="fill: none;"/><g class="overlines-above"/><g class="xaxislayer-above"><g class="xtick"><text text-anchor="middle" x="0" y="363" transform="translate(56.87,0)" style="font-family: 'Open Sans', verdana, arial, sans-serif; font-size: 12px; fill: rgb(42, 63, 95); fill-opacity: 1; white-space: pre; opacity: 1;">1.7.23</text></g><g class="xtick"><text text-anchor="middle" x="0" y="363" style="font-family: 'Open Sans', verdana, arial, sans-serif; font-size: 12px; fill: rgb(42, 63, 95); fill-opacity: 1; white-space: pre; opacity: 1;" transform="translate(99.44,0)">1.9.23</text></g><g class="xtick"><text text-anchor="middle" x="0" y="363" style="font-family: 'Open Sans', verdana, arial, sans-serif; font-size: 12px; fill: rgb(42, 63, 95); fill-opacity: 1; white-space: pre; opacity: 1;" transform="translate(141.32999999999998,0)">1.11.23</text></g><g class="xtick"><text text-anchor="middle" x="0" y="363" style="font-family: 'Open Sans', verdana, arial, sans-serif; font-size: 12px; fill: rgb(42, 63, 95); fill-opacity: 1; white-space: pre; opacity: 1;" transform="translate(183.21,0)">1.1.24</text></g><g class="xtick"><text text-anchor="middle" x="0" y="363" style="font-family: 'Open Sans', verdana, arial, sans-serif; font-size: 12px; fill: rgb(42, 63, 95); fill-opacity: 1; white-space: pre; opacity: 1;" transform="translate(224.41,0)">1.3.24</text></g></g><g class="yaxislayer-above"><g class="ytick"><text text-anchor="end" x="49" y="4.199999999999999" transform="translate(0,350)" style="font-family: 'Open Sans', verdana, arial, sans-serif; font-size: 12px; fill: rgb(42, 63, 95); fill-opacity: 1; white-space: pre; opacity: 1;">0%</text></g><g class="ytick"><text text-anchor="end" x="49" y="4.199999999999999" style="font-family: 'Open Sans', verdana, arial, sans-serif; font-size: 12px; fill: rgb(42, 63, 95); fill-opacity: 1; white-space: pre; opacity: 1;" transform="translate(0,297.84)">10%</text></g><g class="ytick"><text text-anchor="end" x="49" y="4.199999999999999" style="font-family: 'Open Sans', verdana, arial, sans-serif; font-size: 12px; fill: rgb(42, 63, 95); fill-opacity: 1; white-space: pre; opacity: 1;" transform="translate(0,245.67)">20%</text></g><g class="ytick"><text text-anchor="end" x="49" y="4.199999999999999" style="font-family: 'Open Sans', verdana, arial, sans-serif; font-size: 12px; fill: rgb(42, 63, 95); fill-opacity: 1; white-space: pre; opacity: 1;" transform="translate(0,193.51)">30%</text></g><g class="ytick"><text text-anchor="end" x="49" y="4.199999999999999" style="font-family: 'Open Sans', verdana, arial, sans-serif; font-size: 12px; fill: rgb(42, 63, 95); fill-opacity: 1; white-space: pre; opacity: 1;" transform="translate(0,141.35)">40%</text></g><g class="ytick"><text text-anchor="end" x="49" y="4.199999999999999" style="font-family: 'Open Sans', verdana, arial, sans-serif; font-size: 12px; fill: rgb(42, 63, 95); fill-opacity: 1; white-space: pre; opacity: 1;" transform="translate(0,89.18)">50%</text></g><g class="ytick"><text text-anchor="end" x="49" y="4.199999999999999" style="font-family: 'Open Sans', verdana, arial, sans-serif; font-size: 12px; fill: rgb(42, 63, 95); fill-opacity: 1; white-space: pre; opacity: 1;" transform="translate(0,37.019999999999996)">60%</text></g></g><g class="overaxes-above"/></g></g><g class="polarlayer"/><g class="smithlayer"/><g class="ternarylayer"/><g class="geolayer"/><g class="funnelarealayer"/><g class="pielayer"/><g class="iciclelayer"/><g class="treemaplayer"/><g class="sunburstlayer"/><g class="glimages"/><defs id="topdefs-ba2dd3"><g class="clips"/><clipPath id="legendba2dd3"><rect width="128" height="124" x="0" y="0"/></clipPath></defs><g class="layer-above"><g class="imagelayer"/><g class="shapelayer"/></g><g class="infolayer"><g class="legend" pointer-events="all" transform="translate(260.12,20)"><rect class="bg" shape-rendering="crispEdges" width="128" height="124" x="0" y="0" style="stroke: rgb(68, 68, 68); stroke-opacity: 1; fill: rgb(255, 255, 255); fill-opacity: 1; stroke-width: 0px;"/><g class="scrollbox" transform="" clip-path="url(#legendba2dd3)"><g class="groups"><g class="traces" transform="translate(0,14.5)" style="opacity: 1;"><text class="legendtext" text-anchor="start" x="40" y="4.680000000000001" style="font-family: 'Open Sans', verdana, arial, sans-serif; font-size: 12px; fill: rgb(42, 63, 95); fill-opacity: 1; white-space: pre;">Pellegrini Peter</text><g class="layers" style="opacity: 1;"><g class="legendfill"/><g class="legendlines"><path class="js-line" d="M5,0h30" style="fill: none; stroke: rgb(138, 44, 81); stroke-opacity: 1; stroke-width: 5px;"/></g><g class="legendsymbols"><g class="legendpoints"/></g></g><rect class="legendtoggle" x="0" y="-9.5" width="122.703125" height="19" style="fill: rgb(0, 0, 0); fill-opacity: 0;"/></g><g class="traces" transform="translate(0,33.5)" style="opacity: 1;"><text class="legendtext" text-anchor="start" x="40" y="4.680000000000001" style="font-family: 'Open Sans', verdana, arial, sans-serif; font-size: 12px; fill: rgb(42, 63, 95); fill-opacity: 1; white-space: pre;">Korčok Ivan</text><g class="layers" style="opacity: 1;"><g class="legendfill"/><g class="legendlines"><path class="js-line" d="M5,0h30" style="fill: none; stroke: rgb(0, 174, 239); stroke-opacity: 1; stroke-width: 5px;"/></g><g class="legendsymbols"><g class="legendpoints"/></g></g><rect class="legendtoggle" x="0" y="-9.5" width="122.703125" height="19" style="fill: rgb(0, 0, 0); fill-opacity: 0;"/></g><g class="traces" transform="translate(0,52.5)" style="opacity: 1;"><text class="legendtext" text-anchor="start" x="40" y="4.680000000000001" style="font-family: 'Open Sans', verdana, arial, sans-serif; font-size: 12px; fill: rgb(42, 63, 95); fill-opacity: 1; white-space: pre;">Kubiš Ján</text><g class="layers" style="opacity: 1;"><g class="legendfill"/><g class="legendlines"><path class="js-line" d="M5,0h30" style="fill: none; stroke: rgb(255, 1, 170); stroke-opacity: 1; stroke-width: 5px;"/></g><g class="legendsymbols"><g class="legendpoints"/></g></g><rect class="legendtoggle" x="0" y="-9.5" width="122.703125" height="19" style="fill: rgb(0, 0, 0); fill-opacity: 0;"/></g><g class="traces" transform="translate(0,71.5)" style="opacity: 1;"><text class="legendtext" text-anchor="start" x="40" y="4.680000000000001" style="font-family: 'Open Sans', verdana, arial, sans-serif; font-size: 12px; fill: rgb(42, 63, 95); fill-opacity: 1; white-space: pre;">Mistrík Robert</text><g class="layers" style="opacity: 1;"><g class="legendfill"/><g class="legendlines"><path class="js-line" d="M5,0h30" style="fill: none; stroke: rgb(202, 166, 105); stroke-opacity: 1; stroke-width: 5px;"/></g><g class="legendsymbols"><g class="legendpoints"/></g></g><rect class="legendtoggle" x="0" y="-9.5" width="122.703125" height="19" style="fill: rgb(0, 0, 0); fill-opacity: 0;"/></g><g class="traces" transform="translate(0,90.5)" style="opacity: 1;"><text class="legendtext" text-anchor="start" x="40" y="4.680000000000001" style="font-family: 'Open Sans', verdana, arial, sans-serif; font-size: 12px; fill: rgb(42, 63, 95); fill-opacity: 1; white-space: pre;">Lajčák Miroslav</text><g class="layers" style="opacity: 1;"><g class="legendfill"/><g class="legendlines"><path class="js-line" d="M5,0h30" style="fill: none; stroke: rgb(255, 192, 203); stroke-opacity: 1; stroke-width: 5px;"/></g><g class="legendsymbols"><g class="legendpoints"/></g></g><rect class="legendtoggle" x="0" y="-9.5" width="122.703125" height="19" style="fill: rgb(0, 0, 0); fill-opacity: 0;"/></g><g class="traces" transform="translate(0,109.5)" style="opacity: 1;"><text class="legendtext" text-anchor="start" x="40" y="4.680000000000001" style="font-family: 'Open Sans', verdana, arial, sans-serif; font-size: 12px; fill: rgb(42, 63, 95); fill-opacity: 1; white-space: pre;">Fico Robert</text><g class="layers" style="opacity: 1;"><g class="legendfill"/><g class="legendlines"><path class="js-line" d="M5,0h30" style="fill: none; stroke: rgb(238, 58, 67); stroke-opacity: 1; stroke-width: 5px;"/></g><g class="legendsymbols"><g class="legendpoints"/></g></g><rect class="legendtoggle" x="0" y="-9.5" width="122.703125" height="19" style="fill: rgb(0, 0, 0); fill-opacity: 0;"/></g></g></g><rect class="scrollbar" rx="20" ry="3" width="0" height="0" x="0" y="0" style="fill: rgb(128, 139, 164); fill-opacity: 1;"/></g><g class="g-gtitle"/><g class="g-xtitle"/><g class="g-ytitle"/></g></svg>