<svg class="main-svg" xmlns="http://www.w3.org/2000/svg" xmlns:xlink="http://www.w3.org/1999/xlink" width="300" height="135" style="" viewBox="0 0 300 135"><rect x="0" y="0" width="300" height="135" style="fill: rgb(255, 255, 255); fill-opacity: 1;"/><defs id="defs-30f12e"><g class="clips"><clipPath id="clip30f12exyplot" class="plotclip"><rect width="280" height="75"/></clipPath><clipPath class="axesclip" id="clip30f12ex"><rect x="10" y="0" width="280" height="135"/></clipPath><clipPath class="axesclip" id="clip30f12ey"><rect x="0" y="50" width="300" height="75"/></clipPath><clipPath class="axesclip" id="clip30f12exy"><rect x="10" y="50" width="280" height="75"/></clipPath></g><g class="gradients"/><g class="patterns"/></defs><g class="bglayer"/><g class="layer-below"><g class="imagelayer"/><g class="shapelayer"/></g><g class="cartesianlayer"><g class="subplot xy"><g class="layer-subplot"><g class="shapelayer"/><g class="imagelayer"/></g><g class="minor-gridlayer"><g class="x"/><g class="y"/></g><g class="gridlayer"><g class="x"><path class="xgrid crisp" transform="translate(22.5,0)" d="M0,50v75" style="stroke: rgb(235, 240, 248); stroke-opacity: 1; stroke-width: 1px;"/><path class="xgrid crisp" transform="translate(100,0)" d="M0,50v75" style="stroke: rgb(235, 240, 248); stroke-opacity: 1; stroke-width: 1px;"/><path class="xgrid crisp" transform="translate(176.25,0)" d="M0,50v75" style="stroke: rgb(235, 240, 248); stroke-opacity: 1; stroke-width: 1px;"/><path class="xgrid crisp" transform="translate(252.5,0)" d="M0,50v75" style="stroke: rgb(235, 240, 248); stroke-opacity: 1; stroke-width: 1px;"/></g><g class="y"><path class="ygrid crisp" transform="translate(0,102.77000000000001)" d="M10,0h280" style="stroke: rgb(235, 240, 248); stroke-opacity: 1; stroke-width: 1px;"/><path class="ygrid crisp" transform="translate(0,80.53999999999999)" d="M10,0h280" style="stroke: rgb(235, 240, 248); stroke-opacity: 1; stroke-width: 1px;"/><path class="ygrid crisp" transform="translate(0,58.31)" d="M10,0h280" style="stroke: rgb(235, 240, 248); stroke-opacity: 1; stroke-width: 1px;"/></g></g><g class="zerolinelayer"><path class="yzl zl crisp" transform="translate(0,125)" d="M10,0h280" style="stroke: rgb(235, 240, 248); stroke-opacity: 1; stroke-width: 2px;"/></g><path class="xlines-below"/><path class="ylines-below"/><g class="overlines-below"/><g class="xaxislayer-below"/><g class="yaxislayer-below"/><g class="overaxes-below"/><g class="plot" transform="translate(10,50)" clip-path="url(#clip30f12exyplot)"><g class="scatterlayer mlayer"><g class="trace scatter trace41634f" style="stroke-miterlimit: 2; opacity: 1;"><g class="fills"/><g class="errorbars"/><g class="lines"><path class="js-line" d="M0,51.77L3.75,48.88L5,48.88L10,49.1L11.25,48.32L28.75,47.43L30,46.77L53.75,45.99L55,41.32L70,41.32L72.5,44.54L76.25,43.88L77.5,43.88L86.25,43.65L87.5,46.1L90,47.32L91.25,46.88L92.5,46.43L93.75,47.43L126.25,46.77L127.5,44.54L130,45.43L131.25,45.43L132.5,45.21L133.75,41.54L136.25,39.32L137.5,39.32L138.75,38.76L140,35.1L142.5,32.98L143.75,32.98L147.5,32.32L148.75,31.32L152.5,28.87L153.75,28.87L163.75,29.2L165,30.32L175,30.32L176.25,28.76L177.5,28.76L178.75,26.09L183.75,26.09L185,23.09L192.5,23.09L193.75,21.31L201.25,18.42L202.5,18.42L205,14.64L206.25,14.64L207.5,12.75L208.75,8.2L220,8.2L221.25,9.86L223.75,10.64L225,10.64L227.5,12.86L228.75,13.53L235,12.31L236.25,12.31L243.75,12.42L245,8.75L247.5,5.08L248.75,4.97L252.5,5.86L253.75,3.75L257.5,4.75L258.75,5.64L261.25,6.75L262.5,10.53L263.75,11.86L265,10.53L267.5,10.64L268.75,8.86L271.25,8.97L272.5,9.09L275,8.64L276.25,7.75L280,4.64" style="vector-effect: none; fill: none; stroke: rgb(138, 44, 81); stroke-opacity: 1; stroke-width: 5px; opacity: 1;"/></g><g class="points"/><g class="text"/></g><g class="trace scatter tracec62f8d" style="stroke-miterlimit: 2; opacity: 1;"><g class="fills"/><g class="errorbars"/><g class="lines"><path class="js-line" d="M0,26.54L5,28.09L6.25,28.09L10,27.87L11.25,27.2L72.5,28.2L73.75,31.32L86.25,30.32L87.5,27.76L90,23.98L91.25,24.98L92.5,25.98L93.75,22.65L105,22.65L106.25,24.31L107.5,24.31L108.75,22.65L110,24.31L111.25,22.31L113.75,21.87L115,23.98L117.5,21.87L118.75,21.87L120,21.87L121.25,23.98L122.5,23.98L123.75,21.87L126.25,23.98L127.5,21.98L130,24.54L131.25,24.54L138.75,25.76L140,27.65L143.75,28.43L145,28.43L161.25,29.2L162.5,29.87L192.5,30.87L193.75,32.65L202.5,34.98L203.75,32.87L207.5,33.98L208.75,35.43L220,35.43L221.25,33.87L223.75,32.98L225,32.98L226.25,32.54L227.5,29.98L230,29.43L231.25,29.76L243.75,29.2L245,32.09L247.5,35.43L248.75,35.54L251.25,33.76L252.5,32.98L255,35.1L256.25,34.54L261.25,32.09L262.5,28.32L263.75,26.98L265,28.32L267.5,28.2L268.75,29.98L271.25,29.87L272.5,29.76L275,30.2L276.25,31.09L280,34.21" style="vector-effect: none; fill: none; stroke: rgb(0, 174, 239); stroke-opacity: 1; stroke-width: 5px; opacity: 1;"/></g><g class="points"/><g class="text"/></g><g class="trace scatter trace8443f2" style="stroke-miterlimit: 2; opacity: 1;"><g class="fills"/><g class="errorbars"/><g class="lines"><path class="js-line" d="M0,67.22L13.75,67.33L15,67.33L53.75,68.55L55,69.44L70,69.44L72.5,68.11L73.75,71L76.25,71L92.5,71.89L93.75,72.33L147.5,73.11L148.75,73.55L183.75,73.55" style="vector-effect: none; fill: none; stroke: rgb(255, 192, 203); stroke-opacity: 1; stroke-width: 5px; opacity: 1;"/></g><g class="points"/><g class="text"/></g><g class="trace scatter tracee95cf1" style="stroke-miterlimit: 2; opacity: 1;"><g class="fills"/><g class="errorbars"/><g class="lines"><path class="js-line" d="M0,63.77L8.75,64.88L10,64.22L13.75,63.55L15,63.55L53.75,63.77L55,65.11L72.5,64.22L73.75,56.99L87.5,57.66L88.75,58.33L111.25,58.66L112.5,59.1L126.25,58.33L127.5,61.55L130,59.33L131.25,59.33L132.5,59.44L133.75,61.11L136.25,62.44L137.5,62.44L138.75,62.11L140,63.22L147.5,63.33L148.75,63.22L157.5,63.88L158.75,63.88L161.25,63.44L162.5,62.44L163.75,62.44L165,60.88L175,60.88L176.25,62.33L182.5,64.33L183.75,64.33L186.25,65.22L187.5,65.22L202.5,65.55L203.75,69L226.25,70.11L227.5,71.11L243.75,72.22L245,73L251.25,73.55" style="vector-effect: none; fill: none; stroke: rgb(255, 1, 170); stroke-opacity: 1; stroke-width: 5px; opacity: 1;"/></g><g class="points"/><g class="text"/></g><g class="trace scatter trace149e21" style="stroke-miterlimit: 2; opacity: 1;"><g class="fills"/><g class="errorbars"/><g class="lines"><path class="js-line" d="M0,66.22L7.5,66.44L8.75,64.88L11.25,68.33L12.5,68.33L90,68.89L91.25,69.33L93.75,69L95,69L133.75,70.11L135,70.33L148.75,71.55L150,71.78L155,72.11L156.25,72.11L202.5,73.33L203.75,73.67L207.5,73.89" style="vector-effect: none; fill: none; stroke: rgb(202, 166, 105); stroke-opacity: 1; stroke-width: 5px; opacity: 1;"/></g><g class="points"/><g class="text"/></g></g></g><g class="overplot"/><path class="xlines-above crisp" d="M0,0" style="fill: none;"/><path class="ylines-above crisp" d="M0,0" style="fill: none;"/><g class="overlines-above"/><g class="xaxislayer-above"/><g class="yaxislayer-above"/><g class="overaxes-above"/></g></g><g class="polarlayer"/><g class="smithlayer"/><g class="ternarylayer"/><g class="geolayer"/><g class="funnelarealayer"/><g class="pielayer"/><g class="iciclelayer"/><g class="treemaplayer"/><g class="sunburstlayer"/><g class="glimages"/><defs id="topdefs-30f12e"><g class="clips"/></defs><g class="layer-above"><g class="imagelayer"/><g class="shapelayer"/></g><g class="infolayer"><g class="g-gtitle"><text class="gtitle" x="15" y="25" text-anchor="start" dy="0em" style="font-family: Ubuntu, verdana, arial, sans-serif; font-size: 16px; fill: rgb(233, 84, 32); opacity: 1; font-weight: normal; white-space: pre;">Prezident/ka 2024</text></g><g class="g-xtitle"/><g class="g-ytitle"/></g></svg>