<svg class="main-svg" xmlns="http://www.w3.org/2000/svg" xmlns:xlink="http://www.w3.org/1999/xlink" width="300" height="135" style="" viewBox="0 0 300 135"><rect x="0" y="0" width="300" height="135" style="fill: rgb(255, 255, 255); fill-opacity: 1;"/><defs id="defs-cfb22a"><g class="clips"><clipPath id="clipcfb22axyplot" class="plotclip"><rect width="280" height="75"/></clipPath><clipPath class="axesclip" id="clipcfb22ax"><rect x="10" y="0" width="280" height="135"/></clipPath><clipPath class="axesclip" id="clipcfb22ay"><rect x="0" y="50" width="300" height="75"/></clipPath><clipPath class="axesclip" id="clipcfb22axy"><rect x="10" y="50" width="280" height="75"/></clipPath></g><g class="gradients"/><g class="patterns"/></defs><g class="bglayer"/><g class="layer-below"><g class="imagelayer"/><g class="shapelayer"/></g><g class="cartesianlayer"><g class="subplot xy"><g class="layer-subplot"><g class="shapelayer"/><g class="imagelayer"/></g><g class="minor-gridlayer"><g class="x"/><g class="y"/></g><g class="gridlayer"><g class="x"><path class="xgrid crisp" transform="translate(22.84,0)" d="M0,50v75" style="stroke: rgb(235, 240, 248); stroke-opacity: 1; stroke-width: 1px;"/><path class="xgrid crisp" transform="translate(102.48,0)" d="M0,50v75" style="stroke: rgb(235, 240, 248); stroke-opacity: 1; stroke-width: 1px;"/><path class="xgrid crisp" transform="translate(180.83,0)" d="M0,50v75" style="stroke: rgb(235, 240, 248); stroke-opacity: 1; stroke-width: 1px;"/><path class="xgrid crisp" transform="translate(259.16999999999996,0)" d="M0,50v75" style="stroke: rgb(235, 240, 248); stroke-opacity: 1; stroke-width: 1px;"/></g><g class="y"><path class="ygrid crisp" transform="translate(0,102.77000000000001)" d="M10,0h280" style="stroke: rgb(235, 240, 248); stroke-opacity: 1; stroke-width: 1px;"/><path class="ygrid crisp" transform="translate(0,80.53999999999999)" d="M10,0h280" style="stroke: rgb(235, 240, 248); stroke-opacity: 1; stroke-width: 1px;"/><path class="ygrid crisp" transform="translate(0,58.31)" d="M10,0h280" style="stroke: rgb(235, 240, 248); stroke-opacity: 1; stroke-width: 1px;"/></g></g><g class="zerolinelayer"><path class="yzl zl crisp" transform="translate(0,125)" d="M10,0h280" style="stroke: rgb(235, 240, 248); stroke-opacity: 1; stroke-width: 2px;"/></g><path class="xlines-below"/><path class="ylines-below"/><g class="overlines-below"/><g class="xaxislayer-below"/><g class="yaxislayer-below"/><g class="overaxes-below"/><g class="plot" transform="translate(10,50)" clip-path="url(#clipcfb22axyplot)"><g class="scatterlayer mlayer"><g class="trace scatter trace422924" style="stroke-miterlimit: 2; opacity: 1;"><g class="fills"/><g class="errorbars"/><g class="lines"><path class="js-line" d="M0,51.77L3.85,48.88L5.14,48.88L10.28,49.1L11.56,48.32L29.54,47.43L30.83,46.77L55.23,45.99L56.51,41.32L71.93,41.32L74.5,44.54L78.35,43.88L79.63,43.88L88.62,43.65L89.91,46.1L92.48,47.32L93.76,46.88L95.05,46.43L96.33,47.43L129.72,46.77L131.01,44.54L133.58,45.43L134.86,45.43L136.15,45.21L137.43,41.54L140,39.32L141.28,39.32L142.57,38.76L143.85,35.1L146.42,32.98L147.71,32.98L151.56,32.32L152.84,31.32L156.7,28.87L157.98,28.87L168.26,29.2L169.54,30.32L179.82,30.32L181.1,28.76L182.39,28.76L183.67,26.09L188.81,26.09L190.09,23.09L197.8,23.09L199.08,21.31L206.79,18.42L208.07,18.42L210.64,14.64L211.93,14.64L213.21,12.75L214.5,8.2L226.06,8.2L227.34,9.86L229.91,10.64L231.19,10.64L233.76,12.86L235.05,13.53L240.18,12.31L241.47,12.31L250.46,12.42L251.74,8.75L254.31,5.08L255.6,4.97L259.45,5.86L260.73,3.75L264.59,4.75L265.87,5.64L268.44,6.75L269.72,10.53L271.01,11.86L272.29,10.53L274.86,10.64L276.15,8.86L278.72,8.97L280,9.09" style="vector-effect: none; fill: none; stroke: rgb(138, 44, 81); stroke-opacity: 1; stroke-width: 5px; opacity: 1;"/></g><g class="points"/><g class="text"/></g><g class="trace scatter trace13978b" style="stroke-miterlimit: 2; opacity: 1;"><g class="fills"/><g class="errorbars"/><g class="lines"><path class="js-line" d="M0,26.54L5.14,28.09L6.42,28.09L10.28,27.87L11.56,27.2L74.5,28.2L75.78,31.32L88.62,30.32L89.91,27.76L92.48,23.98L93.76,24.98L95.05,25.98L96.33,22.65L107.89,22.65L109.17,24.31L110.46,24.31L111.74,22.65L113.03,24.31L114.31,22.31L116.88,21.87L118.17,23.98L120.73,21.87L122.02,21.87L123.3,21.87L124.59,23.98L125.87,23.98L127.16,21.87L129.72,23.98L131.01,21.98L133.58,24.54L134.86,24.54L142.57,25.76L143.85,27.65L147.71,28.43L148.99,28.43L165.69,29.2L166.97,29.87L197.8,30.87L199.08,32.65L208.07,34.98L209.36,32.87L213.21,33.98L214.5,35.43L226.06,35.43L227.34,33.87L229.91,32.98L231.19,32.98L232.48,32.54L233.76,29.98L236.33,29.43L237.61,29.76L250.46,29.2L251.74,32.09L254.31,35.43L255.6,35.54L258.17,33.76L259.45,32.98L262.02,35.1L263.3,34.54L268.44,32.09L269.72,28.32L271.01,26.98L272.29,28.32L274.86,28.2L276.15,29.98L278.72,29.87L280,29.76" style="vector-effect: none; fill: none; stroke: rgb(0, 174, 239); stroke-opacity: 1; stroke-width: 5px; opacity: 1;"/></g><g class="points"/><g class="text"/></g><g class="trace scatter tracead872c" style="stroke-miterlimit: 2; opacity: 1;"><g class="fills"/><g class="errorbars"/><g class="lines"><path class="js-line" d="M0,67.22L14.13,67.33L15.41,67.33L55.23,68.55L56.51,69.44L71.93,69.44L74.5,68.11L75.78,71L78.35,71L95.05,71.89L96.33,72.33L151.56,73.11L152.84,73.55L188.81,73.55" style="vector-effect: none; fill: none; stroke: rgb(255, 192, 203); stroke-opacity: 1; stroke-width: 5px; opacity: 1;"/></g><g class="points"/><g class="text"/></g><g class="trace scatter trace3e5eb3" style="stroke-miterlimit: 2; opacity: 1;"><g class="fills"/><g class="errorbars"/><g class="lines"><path class="js-line" d="M0,66.22L7.71,66.44L8.99,64.88L11.56,68.33L12.84,68.33L92.48,68.89L93.76,69.33L96.33,69L97.61,69L137.43,70.11L138.72,70.33L152.84,71.55L154.13,71.78L159.27,72.11L160.55,72.11L208.07,73.33L209.36,73.67L213.21,73.89" style="vector-effect: none; fill: none; stroke: rgb(202, 166, 105); stroke-opacity: 1; stroke-width: 5px; opacity: 1;"/></g><g class="points"/><g class="text"/></g><g class="trace scatter traceb2e03c" style="stroke-miterlimit: 2; opacity: 1;"><g class="fills"/><g class="errorbars"/><g class="lines"><path class="js-line" d="M0,63.33L7.71,63.77L8.99,63.33L33.39,64.66L34.68,64.66L55.23,64.44L56.51,66.11L74.5,65.44L75.78,66.89L89.91,67.22L91.19,68.44L93.76,67.77L95.05,67.11L97.61,69L98.9,69L131.01,68.11L132.29,67.33L137.43,68.55L138.72,69.11L151.56,70.33L152.84,70.78L161.83,71.55L163.12,71.55L208.07,71.55L209.36,73.67L213.21,73.89" style="vector-effect: none; fill: none; stroke: rgb(238, 58, 67); stroke-opacity: 1; stroke-width: 5px; opacity: 1;"/></g><g class="points"/><g class="text"/></g></g></g><g class="overplot"/><path class="xlines-above crisp" d="M0,0" style="fill: none;"/><path class="ylines-above crisp" d="M0,0" style="fill: none;"/><g class="overlines-above"/><g class="xaxislayer-above"/><g class="yaxislayer-above"/><g class="overaxes-above"/></g></g><g class="polarlayer"/><g class="smithlayer"/><g class="ternarylayer"/><g class="geolayer"/><g class="funnelarealayer"/><g class="pielayer"/><g class="iciclelayer"/><g class="treemaplayer"/><g class="sunburstlayer"/><g class="glimages"/><defs id="topdefs-cfb22a"><g class="clips"/></defs><g class="layer-above"><g class="imagelayer"/><g class="shapelayer"/></g><g class="infolayer"><g class="g-gtitle"><text class="gtitle" x="15" y="25" text-anchor="start" dy="0em" style="font-family: Ubuntu, verdana, arial, sans-serif; font-size: 16px; fill: rgb(233, 84, 32); opacity: 1; font-weight: normal; white-space: pre;">Prezident/ka 2024</text></g><g class="g-xtitle"/><g class="g-ytitle"/></g></svg>