<svg class="main-svg" xmlns="http://www.w3.org/2000/svg" xmlns:xlink="http://www.w3.org/1999/xlink" width="400" height="400" style="" viewBox="0 0 400 400"><rect x="0" y="0" width="400" height="400" style="fill: rgb(255, 255, 255); fill-opacity: 1;"/><defs id="defs-1a8abc"><g class="clips"><clipPath id="clip1a8abcxyplot" class="plotclip"><rect width="206" height="330"/></clipPath><clipPath class="axesclip" id="clip1a8abcx"><rect x="50" y="0" width="206" height="400"/></clipPath><clipPath class="axesclip" id="clip1a8abcy"><rect x="0" y="20" width="400" height="330"/></clipPath><clipPath class="axesclip" id="clip1a8abcxy"><rect x="50" y="20" width="206" height="330"/></clipPath></g><g class="gradients"/><g class="patterns"/></defs><g class="bglayer"/><g class="layer-below"><g class="imagelayer"/><g class="shapelayer"/></g><g class="cartesianlayer"><g class="subplot xy"><g class="layer-subplot"><g class="shapelayer"/><g class="imagelayer"/></g><g class="minor-gridlayer"><g class="x"/><g class="y"/></g><g class="gridlayer"><g class="x"><path class="xgrid crisp" transform="translate(57.1,0)" d="M0,20v330" style="stroke: rgb(235, 240, 248); stroke-opacity: 1; stroke-width: 1px;"/><path class="xgrid crisp" transform="translate(101.14,0)" d="M0,20v330" style="stroke: rgb(235, 240, 248); stroke-opacity: 1; stroke-width: 1px;"/><path class="xgrid crisp" transform="translate(144.48000000000002,0)" d="M0,20v330" style="stroke: rgb(235, 240, 248); stroke-opacity: 1; stroke-width: 1px;"/><path class="xgrid crisp" transform="translate(187.81,0)" d="M0,20v330" style="stroke: rgb(235, 240, 248); stroke-opacity: 1; stroke-width: 1px;"/><path class="xgrid crisp" transform="translate(230.43,0)" d="M0,20v330" style="stroke: rgb(235, 240, 248); stroke-opacity: 1; stroke-width: 1px;"/></g><g class="y"><path class="ygrid crisp" transform="translate(0,303.14)" d="M50,0h206" style="stroke: rgb(235, 240, 248); stroke-opacity: 1; stroke-width: 1px;"/><path class="ygrid crisp" transform="translate(0,256.28)" d="M50,0h206" style="stroke: rgb(235, 240, 248); stroke-opacity: 1; stroke-width: 1px;"/><path class="ygrid crisp" transform="translate(0,209.42)" d="M50,0h206" style="stroke: rgb(235, 240, 248); stroke-opacity: 1; stroke-width: 1px;"/><path class="ygrid crisp" transform="translate(0,162.56)" d="M50,0h206" style="stroke: rgb(235, 240, 248); stroke-opacity: 1; stroke-width: 1px;"/><path class="ygrid crisp" transform="translate(0,115.7)" d="M50,0h206" style="stroke: rgb(235, 240, 248); stroke-opacity: 1; stroke-width: 1px;"/><path class="ygrid crisp" transform="translate(0,68.83)" d="M50,0h206" style="stroke: rgb(235, 240, 248); stroke-opacity: 1; stroke-width: 1px;"/><path class="ygrid crisp" transform="translate(0,21.97)" d="M50,0h206" style="stroke: rgb(235, 240, 248); stroke-opacity: 1; stroke-width: 1px;"/></g></g><g class="zerolinelayer"><path class="yzl zl crisp" transform="translate(0,350)" d="M50,0h206" style="stroke: rgb(235, 240, 248); stroke-opacity: 1; stroke-width: 2px;"/></g><path class="xlines-below"/><path class="ylines-below"/><g class="overlines-below"/><g class="xaxislayer-below"/><g class="yaxislayer-below"/><g class="overaxes-below"/><g class="plot" transform="translate(50,20)" clip-path="url(#clip1a8abcxyplot)"><g class="scatterlayer mlayer"><g class="trace scatter trace41e55f" style="stroke-miterlimit: 2; opacity: 1;"><g class="fills"/><g class="errorbars"/><g class="lines"><path class="js-line" d="M0,232.06L2.13,219.88L2.84,219.88L4.26,219.88L4.97,223.16L7.1,217.53L7.81,217.53L9.94,217.53L10.66,216.13L12.79,216.13L13.5,214.72L15.63,213.78L16.34,213.78L17.76,210.97L18.47,210.97L26.28,210.97L26.99,207.69L30.54,207.69L31.26,188.01L39.78,188.01L41.2,201.6L41.91,198.79L43.33,198.79L49.01,197.85L49.72,208.16L51.14,213.32L51.86,211.44L52.57,209.57L53.28,213.78L59.67,213.78L60.38,211.91L61.09,211.91L61.8,213.78L62.51,211.91L63.22,213.32L63.93,211.91L71.74,210.97L72.46,201.6L73.88,205.35L74.59,205.35L75.3,204.41L76.01,188.95L77.43,179.58L78.14,179.58L78.85,177.23L79.56,161.77L80.98,152.87L81.69,152.87L83.11,152.87L83.82,150.05L86.66,135.53L87.37,135.53L91.63,136L92.34,136.93L93.06,136.93L93.77,141.62L99.45,141.62L100.16,135.06L100.87,135.06L101.58,123.81L104.42,123.81L105.13,111.16L109.39,111.16L110.1,103.66L111.52,100.85L112.23,100.85L115.08,91.48L115.79,75.54L117.21,75.54L117.92,67.58L119.34,48.37L120.05,48.37L125.02,48.37L125.73,55.39L127.15,58.67L127.86,58.67L128.57,60.55L129.28,68.05L129.99,70.86L130.7,68.98L131.41,65.7L137.1,64.77L137.81,67.11L138.52,66.17L139.23,50.71L141.36,34.78L142.07,36.18L142.78,41.8L143.49,38.52L144.2,29.62L144.91,29.62L145.62,31.96L147.04,37.59L147.75,41.8L148.46,42.27L149.17,58.21L149.88,63.83L150.59,58.21L151.3,60.55L152.01,58.67L152.72,51.18L153.43,49.3L154.14,51.65L155.57,53.05L156.28,50.24L159.12,33.37L159.83,33.37L160.54,35.24L161.25,40.87L161.96,41.8L162.67,38.06L163.38,37.59L164.09,40.87L166.22,76.48L166.93,75.54L167.64,75.54L168.35,76.01L169.06,80.23L169.77,81.64L170.48,80.7L171.19,75.54L173.32,83.98L174.03,77.42L176.17,48.83L176.88,48.37L177.59,38.06L178.3,38.52L179.01,38.06L179.72,35.71L180.43,38.99L181.85,46.49L182.56,46.96L183.27,46.49L183.98,44.15L187.53,38.52L188.24,33.84L189.66,29.15L190.37,16.5" style="vector-effect: none; fill: none; stroke: rgb(138, 44, 81); stroke-opacity: 1; stroke-width: 5px; opacity: 1;"/></g><g class="points"/><g class="text"/></g><g class="trace scatter tracebbbe9b" style="stroke-miterlimit: 2; opacity: 1;"><g class="fills"/><g class="errorbars"/><g class="lines"><path class="js-line" d="M0,125.69L2.13,132.25L2.84,132.25L4.26,132.25L4.97,135.53L7.1,128.5L7.81,128.5L13.5,129.43L14.21,130.37L16.34,130.37L17.05,132.72L41.2,132.72L41.91,145.84L47.59,145.84L48.3,143.49L49.01,141.62L49.72,130.84L51.14,114.91L51.86,119.13L52.57,123.34L53.28,109.28L59.67,109.28L60.38,116.31L61.09,116.31L61.8,109.28L62.51,116.31L63.22,107.88L64.64,106L65.35,114.91L66.77,106L67.48,106L68.19,106L68.9,114.91L69.61,114.91L70.32,106L71.74,114.91L72.46,106.47L73.88,117.25L74.59,117.25L75.3,117.25L76.01,120.06L78.14,120.06L78.85,122.41L80.98,133.65L81.69,133.65L84.53,133.65L85.24,135.06L88.08,135.53L88.79,135.53L90.92,135.53L91.63,136.93L93.77,141.62L95.19,141.62L100.16,142.09L100.87,140.21L102.29,144.9L103,144.9L109.39,143.96L110.1,151.46L111.52,153.33L112.23,153.33L115.08,161.3L115.79,152.4L117.21,152.4L117.92,157.08L119.34,163.17L120.05,163.17L125.02,163.17L125.73,156.61L127.15,152.87L127.86,152.87L128.57,150.99L129.28,140.21L129.99,136.93L130.7,137.87L131.41,139.28L137.1,139.28L137.81,136.93L138.52,136.93L139.23,149.12L141.36,163.64L142.07,162.24L143.49,152.87L144.2,161.77L144.91,161.77L145.62,159.43L147.04,153.8L147.75,149.59L148.46,149.12L149.17,133.18L149.88,127.56L150.59,133.18L151.3,130.84L152.01,132.72L152.72,140.21L153.43,142.09L154.14,139.74L155.57,138.34L156.28,141.15L159.12,158.02L159.83,158.02L160.54,156.15L161.25,150.52L161.96,149.59L162.67,153.33L163.38,153.8L164.09,150.52L166.22,114.91L166.93,115.85L167.64,115.85L168.35,115.38L169.06,111.16L169.77,109.75L170.48,110.69L171.19,115.85L173.32,107.41L174.03,113.97L176.17,142.56L176.88,143.02L177.59,153.33L178.3,152.87L179.01,153.33L179.72,155.68L180.43,152.4L181.85,144.9L182.56,144.43L183.27,144.9L183.98,147.24L187.53,152.87L188.24,157.55L189.66,162.24L190.37,174.89" style="vector-effect: none; fill: none; stroke: rgb(0, 174, 239); stroke-opacity: 1; stroke-width: 5px; opacity: 1;"/></g><g class="points"/><g class="text"/></g><g class="trace scatter trace39e8f5" style="stroke-miterlimit: 2; opacity: 1;"><g class="fills"/><g class="errorbars"/><g class="lines"><path class="js-line" d="M0,282.67L2.13,284.08L2.84,284.08L4.26,284.08L4.97,287.36L7.1,281.73L7.81,281.73L30.54,282.67L31.26,288.29L39.78,288.29L41.2,284.54L41.91,254.09L43.33,254.09L47.59,254.09L48.3,255.49L51.14,259.71L51.86,258.3L52.57,256.43L53.28,260.18L59.67,260.18L60.38,258.3L61.09,258.3L61.8,260.18L62.51,258.3L63.22,261.11L64.64,262.99L65.35,259.71L66.77,262.99L67.48,262.99L68.19,262.99L68.9,259.71L69.61,259.71L70.32,262.99L71.74,259.71L72.46,273.3L73.88,263.93L74.59,263.93L75.3,264.39L76.01,271.42L77.43,277.05L78.14,277.05L78.85,275.64L79.56,280.33L81.69,281.26L82.4,281.26L85.24,281.26L85.95,283.14L90.92,283.14L91.63,281.26L93.77,270.49L95.19,270.49L99.45,270.49L100.16,276.58L100.87,278.45L101.58,285.01L104.42,285.01L105.13,288.76L113.66,289.7L114.37,290.17L115.08,290.17L115.79,304.7L117.21,304.7L117.92,306.57L119.34,309.38L120.05,309.38L128.57,309.38L129.28,313.6L130.7,314.54L131.41,316.41L137.81,317.35L138.52,318.28L140.65,322.97L141.36,322.97L142.78,323.91" style="vector-effect: none; fill: none; stroke: rgb(255, 1, 170); stroke-opacity: 1; stroke-width: 5px; opacity: 1;"/></g><g class="points"/><g class="text"/></g><g class="trace scatter trace857704" style="stroke-miterlimit: 2; opacity: 1;"><g class="fills"/><g class="errorbars"/><g class="lines"><path class="js-line" d="M0,280.8L2.84,282.67L3.55,282.67L4.26,282.67L4.97,280.8L5.68,281.26L6.39,283.61L12.79,284.08L13.5,285.48L15.63,286.42L16.34,286.42L30.54,285.48L31.26,292.51L39.78,292.51L41.2,289.7L41.91,295.79L43.33,295.79L48.3,296.26L49.01,297.2L49.72,297.2L50.43,302.35L51.14,302.35L51.86,299.54L52.57,296.73L53.28,304.7L59.67,304.7L60.38,300.95L61.09,300.95L61.8,304.7L62.51,300.95L63.22,304.23L64.64,304.23L65.35,300.48L66.77,304.23L67.48,304.23L68.19,304.23L68.9,300.48L69.61,300.48L70.32,304.23L71.74,300.48L72.46,300.95L73.88,297.67L74.59,297.67L75.3,298.13L76.01,302.82L77.43,305.16L78.14,305.16L81.69,309.38L82.4,309.38L83.82,310.32L84.53,312.19L87.37,315.47L88.08,315.47L115.08,315.47L115.79,324.38L117.92,325.31" style="vector-effect: none; fill: none; stroke: rgb(238, 58, 67); stroke-opacity: 1; stroke-width: 5px; opacity: 1;"/></g><g class="points"/><g class="text"/></g><g class="trace scatter trace0e2afa" style="stroke-miterlimit: 2; opacity: 1;"><g class="fills"/><g class="errorbars"/><g class="lines"><path class="js-line" d="M0,297.2L3.55,298.6L4.26,298.6L7.1,297.67L7.81,297.67L16.34,298.13L17.05,299.07L26.28,299.07L26.99,302.82L30.54,302.82L31.26,306.57L39.78,306.57L41.2,300.95L41.91,313.13L43.33,313.13L49.72,313.6L50.43,316.88L52.57,316.88L53.28,318.75L71.74,317.82L72.46,319.22L74.59,318.28L75.3,318.28L78.85,319.22L79.56,320.16L83.82,322.03L84.53,323.91L104.42,323.91" style="vector-effect: none; fill: none; stroke: rgb(255, 192, 203); stroke-opacity: 1; stroke-width: 5px; opacity: 1;"/></g><g class="points"/><g class="text"/></g><g class="trace scatter trace4cfbd7" style="stroke-miterlimit: 2; opacity: 1;"><g class="fills"/><g class="errorbars"/><g class="lines"><path class="js-line" d="M0,292.98L3.55,293.92L4.26,293.92L4.97,287.36L5.68,296.26L7.1,301.88L7.81,301.88L26.28,300.95L26.99,300.48L30.54,300.48L31.26,302.82L41.2,301.88L41.91,303.76L51.14,304.23L51.86,306.1L52.57,307.98L53.28,304.7L59.67,304.7L60.38,306.1L61.09,306.1L61.8,304.7L63.93,307.51L64.64,307.51L66.77,307.51L67.48,307.51L71.74,307.98L72.46,309.38L76.01,309.38L76.72,310.32L79.56,311.26L80.27,312.66L84.53,315.47L85.24,316.41L86.66,317.82L87.37,317.82L104.42,317.82L105.13,322.5L115.08,322.97L115.79,324.38L117.92,325.31" style="vector-effect: none; fill: none; stroke: rgb(202, 166, 105); stroke-opacity: 1; stroke-width: 5px; opacity: 1;"/></g><g class="points"/><g class="text"/></g></g></g><g class="overplot"/><path class="xlines-above crisp" d="M0,0" style="fill: none;"/><path class="ylines-above crisp" d="M0,0" style="fill: none;"/><g class="overlines-above"/><g class="xaxislayer-above"><g class="xtick"><text text-anchor="middle" x="0" y="363" transform="translate(57.1,0)" style="font-family: 'Open Sans', verdana, arial, sans-serif; font-size: 12px; fill: rgb(42, 63, 95); fill-opacity: 1; white-space: pre; opacity: 1;">1.7.23</text></g><g class="xtick"><text text-anchor="middle" x="0" y="363" style="font-family: 'Open Sans', verdana, arial, sans-serif; font-size: 12px; fill: rgb(42, 63, 95); fill-opacity: 1; white-space: pre; opacity: 1;" transform="translate(101.14,0)">1.9.23</text></g><g class="xtick"><text text-anchor="middle" x="0" y="363" style="font-family: 'Open Sans', verdana, arial, sans-serif; font-size: 12px; fill: rgb(42, 63, 95); fill-opacity: 1; white-space: pre; opacity: 1;" transform="translate(144.48000000000002,0)">1.11.23</text></g><g class="xtick"><text text-anchor="middle" x="0" y="363" style="font-family: 'Open Sans', verdana, arial, sans-serif; font-size: 12px; fill: rgb(42, 63, 95); fill-opacity: 1; white-space: pre; opacity: 1;" transform="translate(187.81,0)">1.1.24</text></g><g class="xtick"><text text-anchor="middle" x="0" y="363" style="font-family: 'Open Sans', verdana, arial, sans-serif; font-size: 12px; fill: rgb(42, 63, 95); fill-opacity: 1; white-space: pre; opacity: 1;" transform="translate(230.43,0)">1.3.24</text></g></g><g class="yaxislayer-above"><g class="ytick"><text text-anchor="end" x="49" y="4.199999999999999" transform="translate(0,350)" style="font-family: 'Open Sans', verdana, arial, sans-serif; font-size: 12px; fill: rgb(42, 63, 95); fill-opacity: 1; white-space: pre; opacity: 1;">0%</text></g><g class="ytick"><text text-anchor="end" x="49" y="4.199999999999999" style="font-family: 'Open Sans', verdana, arial, sans-serif; font-size: 12px; fill: rgb(42, 63, 95); fill-opacity: 1; white-space: pre; opacity: 1;" transform="translate(0,303.14)">10%</text></g><g class="ytick"><text text-anchor="end" x="49" y="4.199999999999999" style="font-family: 'Open Sans', verdana, arial, sans-serif; font-size: 12px; fill: rgb(42, 63, 95); fill-opacity: 1; white-space: pre; opacity: 1;" transform="translate(0,256.28)">20%</text></g><g class="ytick"><text text-anchor="end" x="49" y="4.199999999999999" style="font-family: 'Open Sans', verdana, arial, sans-serif; font-size: 12px; fill: rgb(42, 63, 95); fill-opacity: 1; white-space: pre; opacity: 1;" transform="translate(0,209.42)">30%</text></g><g class="ytick"><text text-anchor="end" x="49" y="4.199999999999999" style="font-family: 'Open Sans', verdana, arial, sans-serif; font-size: 12px; fill: rgb(42, 63, 95); fill-opacity: 1; white-space: pre; opacity: 1;" transform="translate(0,162.56)">40%</text></g><g class="ytick"><text text-anchor="end" x="49" y="4.199999999999999" style="font-family: 'Open Sans', verdana, arial, sans-serif; font-size: 12px; fill: rgb(42, 63, 95); fill-opacity: 1; white-space: pre; opacity: 1;" transform="translate(0,115.7)">50%</text></g><g class="ytick"><text text-anchor="end" x="49" y="4.199999999999999" style="font-family: 'Open Sans', verdana, arial, sans-serif; font-size: 12px; fill: rgb(42, 63, 95); fill-opacity: 1; white-space: pre; opacity: 1;" transform="translate(0,68.83)">60%</text></g><g class="ytick"><text text-anchor="end" x="49" y="4.199999999999999" style="font-family: 'Open Sans', verdana, arial, sans-serif; font-size: 12px; fill: rgb(42, 63, 95); fill-opacity: 1; white-space: pre; opacity: 1;" transform="translate(0,21.97)">70%</text></g></g><g class="overaxes-above"/></g></g><g class="polarlayer"/><g class="smithlayer"/><g class="ternarylayer"/><g class="geolayer"/><g class="funnelarealayer"/><g class="pielayer"/><g class="iciclelayer"/><g class="treemaplayer"/><g class="sunburstlayer"/><g class="glimages"/><defs id="topdefs-1a8abc"><g class="clips"/><clipPath id="legend1a8abc"><rect width="128" height="124" x="0" y="0"/></clipPath></defs><g class="layer-above"><g class="imagelayer"/><g class="shapelayer"/></g><g class="infolayer"><g class="legend" pointer-events="all" transform="translate(260.12,20)"><rect class="bg" shape-rendering="crispEdges" width="128" height="124" x="0" y="0" style="stroke: rgb(68, 68, 68); stroke-opacity: 1; fill: rgb(255, 255, 255); fill-opacity: 1; stroke-width: 0px;"/><g class="scrollbox" transform="" clip-path="url(#legend1a8abc)"><g class="groups"><g class="traces" transform="translate(0,14.5)" style="opacity: 1;"><text class="legendtext" text-anchor="start" x="40" y="4.680000000000001" style="font-family: 'Open Sans', verdana, arial, sans-serif; font-size: 12px; fill: rgb(42, 63, 95); fill-opacity: 1; white-space: pre;">Pellegrini Peter</text><g class="layers" style="opacity: 1;"><g class="legendfill"/><g class="legendlines"><path class="js-line" d="M5,0h30" style="fill: none; stroke: rgb(138, 44, 81); stroke-opacity: 1; stroke-width: 5px;"/></g><g class="legendsymbols"><g class="legendpoints"/></g></g><rect class="legendtoggle" x="0" y="-9.5" width="122.703125" height="19" style="fill: rgb(0, 0, 0); fill-opacity: 0;"/></g><g class="traces" transform="translate(0,33.5)" style="opacity: 1;"><text class="legendtext" text-anchor="start" x="40" y="4.680000000000001" style="font-family: 'Open Sans', verdana, arial, sans-serif; font-size: 12px; fill: rgb(42, 63, 95); fill-opacity: 1; white-space: pre;">Korčok Ivan</text><g class="layers" style="opacity: 1;"><g class="legendfill"/><g class="legendlines"><path class="js-line" d="M5,0h30" style="fill: none; stroke: rgb(0, 174, 239); stroke-opacity: 1; stroke-width: 5px;"/></g><g class="legendsymbols"><g class="legendpoints"/></g></g><rect class="legendtoggle" x="0" y="-9.5" width="122.703125" height="19" style="fill: rgb(0, 0, 0); fill-opacity: 0;"/></g><g class="traces" transform="translate(0,52.5)" style="opacity: 1;"><text class="legendtext" text-anchor="start" x="40" y="4.680000000000001" style="font-family: 'Open Sans', verdana, arial, sans-serif; font-size: 12px; fill: rgb(42, 63, 95); fill-opacity: 1; white-space: pre;">Kubiš Ján</text><g class="layers" style="opacity: 1;"><g class="legendfill"/><g class="legendlines"><path class="js-line" d="M5,0h30" style="fill: none; stroke: rgb(255, 1, 170); stroke-opacity: 1; stroke-width: 5px;"/></g><g class="legendsymbols"><g class="legendpoints"/></g></g><rect class="legendtoggle" x="0" y="-9.5" width="122.703125" height="19" style="fill: rgb(0, 0, 0); fill-opacity: 0;"/></g><g class="traces" transform="translate(0,71.5)" style="opacity: 1;"><text class="legendtext" text-anchor="start" x="40" y="4.680000000000001" style="font-family: 'Open Sans', verdana, arial, sans-serif; font-size: 12px; fill: rgb(42, 63, 95); fill-opacity: 1; white-space: pre;">Fico Robert</text><g class="layers" style="opacity: 1;"><g class="legendfill"/><g class="legendlines"><path class="js-line" d="M5,0h30" style="fill: none; stroke: rgb(238, 58, 67); stroke-opacity: 1; stroke-width: 5px;"/></g><g class="legendsymbols"><g class="legendpoints"/></g></g><rect class="legendtoggle" x="0" y="-9.5" width="122.703125" height="19" style="fill: rgb(0, 0, 0); fill-opacity: 0;"/></g><g class="traces" transform="translate(0,90.5)" style="opacity: 1;"><text class="legendtext" text-anchor="start" x="40" y="4.680000000000001" style="font-family: 'Open Sans', verdana, arial, sans-serif; font-size: 12px; fill: rgb(42, 63, 95); fill-opacity: 1; white-space: pre;">Lajčák Miroslav</text><g class="layers" style="opacity: 1;"><g class="legendfill"/><g class="legendlines"><path class="js-line" d="M5,0h30" style="fill: none; stroke: rgb(255, 192, 203); stroke-opacity: 1; stroke-width: 5px;"/></g><g class="legendsymbols"><g class="legendpoints"/></g></g><rect class="legendtoggle" x="0" y="-9.5" width="122.703125" height="19" style="fill: rgb(0, 0, 0); fill-opacity: 0;"/></g><g class="traces" transform="translate(0,109.5)" style="opacity: 1;"><text class="legendtext" text-anchor="start" x="40" y="4.680000000000001" style="font-family: 'Open Sans', verdana, arial, sans-serif; font-size: 12px; fill: rgb(42, 63, 95); fill-opacity: 1; white-space: pre;">Mistrík Robert</text><g class="layers" style="opacity: 1;"><g class="legendfill"/><g class="legendlines"><path class="js-line" d="M5,0h30" style="fill: none; stroke: rgb(202, 166, 105); stroke-opacity: 1; stroke-width: 5px;"/></g><g class="legendsymbols"><g class="legendpoints"/></g></g><rect class="legendtoggle" x="0" y="-9.5" width="122.703125" height="19" style="fill: rgb(0, 0, 0); fill-opacity: 0;"/></g></g></g><rect class="scrollbar" rx="20" ry="3" width="0" height="0" x="0" y="0" style="fill: rgb(128, 139, 164); fill-opacity: 1;"/></g><g class="g-gtitle"/><g class="g-xtitle"/><g class="g-ytitle"/></g></svg>