<svg class="main-svg" xmlns="http://www.w3.org/2000/svg" xmlns:xlink="http://www.w3.org/1999/xlink" width="300" height="135" style="" viewBox="0 0 300 135"><rect x="0" y="0" width="300" height="135" style="fill: rgb(255, 255, 255); fill-opacity: 1;"/><defs id="defs-9f219e"><g class="clips"><clipPath id="clip9f219exyplot" class="plotclip"><rect width="280" height="75"/></clipPath><clipPath class="axesclip" id="clip9f219ex"><rect x="10" y="0" width="280" height="135"/></clipPath><clipPath class="axesclip" id="clip9f219ey"><rect x="0" y="50" width="300" height="75"/></clipPath><clipPath class="axesclip" id="clip9f219exy"><rect x="10" y="50" width="280" height="75"/></clipPath></g><g class="gradients"/><g class="patterns"/></defs><g class="bglayer"/><g class="layer-below"><g class="imagelayer"/><g class="shapelayer"/></g><g class="cartesianlayer"><g class="subplot xy"><g class="layer-subplot"><g class="shapelayer"/><g class="imagelayer"/></g><g class="minor-gridlayer"><g class="x"/><g class="y"/></g><g class="gridlayer"><g class="x"><path class="xgrid crisp" transform="translate(22.79,0)" d="M0,50v75" style="stroke: rgb(235, 240, 248); stroke-opacity: 1; stroke-width: 1px;"/><path class="xgrid crisp" transform="translate(102.05,0)" d="M0,50v75" style="stroke: rgb(235, 240, 248); stroke-opacity: 1; stroke-width: 1px;"/><path class="xgrid crisp" transform="translate(180.05,0)" d="M0,50v75" style="stroke: rgb(235, 240, 248); stroke-opacity: 1; stroke-width: 1px;"/><path class="xgrid crisp" transform="translate(258.03999999999996,0)" d="M0,50v75" style="stroke: rgb(235, 240, 248); stroke-opacity: 1; stroke-width: 1px;"/></g><g class="y"><path class="ygrid crisp" transform="translate(0,102.77000000000001)" d="M10,0h280" style="stroke: rgb(235, 240, 248); stroke-opacity: 1; stroke-width: 1px;"/><path class="ygrid crisp" transform="translate(0,80.53999999999999)" d="M10,0h280" style="stroke: rgb(235, 240, 248); stroke-opacity: 1; stroke-width: 1px;"/><path class="ygrid crisp" transform="translate(0,58.31)" d="M10,0h280" style="stroke: rgb(235, 240, 248); stroke-opacity: 1; stroke-width: 1px;"/></g></g><g class="zerolinelayer"><path class="yzl zl crisp" transform="translate(0,125)" d="M10,0h280" style="stroke: rgb(235, 240, 248); stroke-opacity: 1; stroke-width: 2px;"/></g><path class="xlines-below"/><path class="ylines-below"/><g class="overlines-below"/><g class="xaxislayer-below"/><g class="yaxislayer-below"/><g class="overaxes-below"/><g class="plot" transform="translate(10,50)" clip-path="url(#clip9f219exyplot)"><g class="scatterlayer mlayer"><g class="trace scatter trace194722" style="stroke-miterlimit: 2; opacity: 1;"><g class="fills"/><g class="errorbars"/><g class="lines"><path class="js-line" d="M0,51.77L3.84,48.88L5.11,48.88L10.23,49.1L11.51,48.32L29.41,47.43L30.68,46.77L54.98,45.99L56.26,41.32L71.6,41.32L74.16,44.54L77.99,43.88L79.27,43.88L88.22,43.65L89.5,46.1L92.05,47.32L93.33,46.88L94.61,46.43L95.89,47.43L129.13,46.77L130.41,44.54L132.97,45.43L134.25,45.43L135.53,45.21L136.8,41.54L139.36,39.32L140.64,39.32L141.92,38.76L143.2,35.1L145.75,32.98L147.03,32.98L150.87,32.32L152.15,31.32L155.98,28.87L157.26,28.87L167.49,29.2L168.77,30.32L179,30.32L180.27,28.76L181.55,28.76L182.83,26.09L187.95,26.09L189.22,23.09L196.89,23.09L198.17,21.31L205.84,18.42L207.12,18.42L209.68,14.64L210.96,14.64L212.24,12.75L213.52,8.2L225.02,8.2L226.3,9.86L228.86,10.64L230.14,10.64L232.69,12.86L233.97,13.53L240.37,12.31L241.64,12.31L249.32,12.42L250.59,8.75L253.15,5.08L254.43,4.97L258.26,5.86L259.54,3.75L263.38,4.75L264.66,5.64L267.21,6.75L268.49,10.53L269.77,11.86L271.05,10.53L273.61,10.64L274.89,8.86L277.44,8.97L278.72,9.09L280,9.53" style="vector-effect: none; fill: none; stroke: rgb(138, 44, 81); stroke-opacity: 1; stroke-width: 5px; opacity: 1;"/></g><g class="points"/><g class="text"/></g><g class="trace scatter tracec842b9" style="stroke-miterlimit: 2; opacity: 1;"><g class="fills"/><g class="errorbars"/><g class="lines"><path class="js-line" d="M0,26.54L5.11,28.09L6.39,28.09L10.23,27.87L11.51,27.2L74.16,28.2L75.43,31.32L88.22,30.32L89.5,27.76L92.05,23.98L93.33,24.98L94.61,25.98L95.89,22.65L107.4,22.65L108.68,24.31L109.95,24.31L111.23,22.65L112.51,24.31L113.79,22.31L116.35,21.87L117.63,23.98L120.18,21.87L121.46,21.87L122.74,21.87L124.02,23.98L125.3,23.98L126.58,21.87L129.13,23.98L130.41,21.98L132.97,24.54L134.25,24.54L141.92,25.76L143.2,27.65L147.03,28.43L148.31,28.43L164.93,29.2L166.21,29.87L196.89,30.87L198.17,32.65L207.12,34.98L208.4,32.87L212.24,33.98L213.52,35.43L225.02,35.43L226.3,33.87L228.86,32.98L230.14,32.98L231.42,32.54L232.69,29.98L235.25,29.43L236.53,29.76L249.32,29.2L250.59,32.09L253.15,35.43L254.43,35.54L256.99,33.76L258.26,32.98L260.82,35.1L262.1,34.54L267.21,32.09L268.49,28.32L269.77,26.98L271.05,28.32L273.61,28.2L274.89,29.98L277.44,29.87L278.72,29.76L280,29.32" style="vector-effect: none; fill: none; stroke: rgb(0, 174, 239); stroke-opacity: 1; stroke-width: 5px; opacity: 1;"/></g><g class="points"/><g class="text"/></g><g class="trace scatter trace100842" style="stroke-miterlimit: 2; opacity: 1;"><g class="fills"/><g class="errorbars"/><g class="lines"><path class="js-line" d="M0,66.22L7.67,66.44L8.95,64.88L11.51,68.33L12.79,68.33L92.05,68.89L93.33,69.33L95.89,69L97.17,69L136.8,70.11L138.08,70.33L152.15,71.55L153.42,71.78L158.54,72.11L159.82,72.11L207.12,73.33L208.4,73.67L212.24,73.89" style="vector-effect: none; fill: none; stroke: rgb(202, 166, 105); stroke-opacity: 1; stroke-width: 5px; opacity: 1;"/></g><g class="points"/><g class="text"/></g><g class="trace scatter trace02037e" style="stroke-miterlimit: 2; opacity: 1;"><g class="fills"/><g class="errorbars"/><g class="lines"><path class="js-line" d="M0,63.77L8.95,64.88L10.23,64.22L14.06,63.55L15.34,63.55L54.98,63.77L56.26,65.11L74.16,64.22L75.43,56.99L89.5,57.66L90.78,58.33L113.79,58.66L115.07,59.1L129.13,58.33L130.41,61.55L132.97,59.33L134.25,59.33L135.53,59.44L136.8,61.11L139.36,62.44L140.64,62.44L141.92,62.11L143.2,63.22L150.87,63.33L152.15,63.22L161.1,63.88L162.37,63.88L164.93,63.44L166.21,62.44L167.49,62.44L168.77,60.88L179,60.88L180.27,62.33L186.67,64.33L187.95,64.33L190.5,65.22L191.78,65.22L207.12,65.55L208.4,69L231.42,70.11L232.69,71.11L249.32,72.22L250.59,73L256.99,73.55" style="vector-effect: none; fill: none; stroke: rgb(255, 1, 170); stroke-opacity: 1; stroke-width: 5px; opacity: 1;"/></g><g class="points"/><g class="text"/></g><g class="trace scatter trace86ebf2" style="stroke-miterlimit: 2; opacity: 1;"><g class="fills"/><g class="errorbars"/><g class="lines"><path class="js-line" d="M0,63.33L7.67,63.77L8.95,63.33L33.24,64.66L34.52,64.66L54.98,64.44L56.26,66.11L74.16,65.44L75.43,66.89L89.5,67.22L90.78,68.44L93.33,67.77L94.61,67.11L97.17,69L98.45,69L130.41,68.11L131.69,67.33L136.8,68.55L138.08,69.11L150.87,70.33L152.15,70.78L161.1,71.55L162.37,71.55L207.12,71.55L208.4,73.67L212.24,73.89" style="vector-effect: none; fill: none; stroke: rgb(238, 58, 67); stroke-opacity: 1; stroke-width: 5px; opacity: 1;"/></g><g class="points"/><g class="text"/></g></g></g><g class="overplot"/><path class="xlines-above crisp" d="M0,0" style="fill: none;"/><path class="ylines-above crisp" d="M0,0" style="fill: none;"/><g class="overlines-above"/><g class="xaxislayer-above"/><g class="yaxislayer-above"/><g class="overaxes-above"/></g></g><g class="polarlayer"/><g class="smithlayer"/><g class="ternarylayer"/><g class="geolayer"/><g class="funnelarealayer"/><g class="pielayer"/><g class="iciclelayer"/><g class="treemaplayer"/><g class="sunburstlayer"/><g class="glimages"/><defs id="topdefs-9f219e"><g class="clips"/></defs><g class="layer-above"><g class="imagelayer"/><g class="shapelayer"/></g><g class="infolayer"><g class="g-gtitle"><text class="gtitle" x="15" y="25" text-anchor="start" dy="0em" style="font-family: Ubuntu, verdana, arial, sans-serif; font-size: 16px; fill: rgb(233, 84, 32); opacity: 1; font-weight: normal; white-space: pre;">Prezident/ka 2024</text></g><g class="g-xtitle"/><g class="g-ytitle"/></g></svg>