<svg class="main-svg" xmlns="http://www.w3.org/2000/svg" xmlns:xlink="http://www.w3.org/1999/xlink" width="400" height="400" style="" viewBox="0 0 400 400"><rect x="0" y="0" width="400" height="400" style="fill: rgb(255, 255, 255); fill-opacity: 1;"/><defs id="defs-a4a5e5"><g class="clips"><clipPath id="clipa4a5e5xyplot" class="plotclip"><rect width="206" height="330"/></clipPath><clipPath class="axesclip" id="clipa4a5e5x"><rect x="50" y="0" width="206" height="400"/></clipPath><clipPath class="axesclip" id="clipa4a5e5y"><rect x="0" y="20" width="400" height="330"/></clipPath><clipPath class="axesclip" id="clipa4a5e5xy"><rect x="50" y="20" width="206" height="330"/></clipPath></g><g class="gradients"/><g class="patterns"/></defs><g class="bglayer"/><g class="layer-below"><g class="imagelayer"/><g class="shapelayer"/></g><g class="cartesianlayer"><g class="subplot xy"><g class="layer-subplot"><g class="shapelayer"/><g class="imagelayer"/></g><g class="minor-gridlayer"><g class="x"/><g class="y"/></g><g class="gridlayer"><g class="x"><path class="xgrid crisp" transform="translate(56.87,0)" d="M0,20v330" style="stroke: rgb(235, 240, 248); stroke-opacity: 1; stroke-width: 1px;"/><path class="xgrid crisp" transform="translate(99.44,0)" d="M0,20v330" style="stroke: rgb(235, 240, 248); stroke-opacity: 1; stroke-width: 1px;"/><path class="xgrid crisp" transform="translate(141.32999999999998,0)" d="M0,20v330" style="stroke: rgb(235, 240, 248); stroke-opacity: 1; stroke-width: 1px;"/><path class="xgrid crisp" transform="translate(183.21,0)" d="M0,20v330" style="stroke: rgb(235, 240, 248); stroke-opacity: 1; stroke-width: 1px;"/><path class="xgrid crisp" transform="translate(224.41,0)" d="M0,20v330" style="stroke: rgb(235, 240, 248); stroke-opacity: 1; stroke-width: 1px;"/></g><g class="y"><path class="ygrid crisp" transform="translate(0,281.25)" d="M50,0h206" style="stroke: rgb(235, 240, 248); stroke-opacity: 1; stroke-width: 1px;"/><path class="ygrid crisp" transform="translate(0,212.5)" d="M50,0h206" style="stroke: rgb(235, 240, 248); stroke-opacity: 1; stroke-width: 1px;"/><path class="ygrid crisp" transform="translate(0,143.75)" d="M50,0h206" style="stroke: rgb(235, 240, 248); stroke-opacity: 1; stroke-width: 1px;"/><path class="ygrid crisp" transform="translate(0,75)" d="M50,0h206" style="stroke: rgb(235, 240, 248); stroke-opacity: 1; stroke-width: 1px;"/></g></g><g class="zerolinelayer"><path class="yzl zl crisp" transform="translate(0,350)" d="M50,0h206" style="stroke: rgb(235, 240, 248); stroke-opacity: 1; stroke-width: 2px;"/></g><path class="xlines-below"/><path class="ylines-below"/><g class="overlines-below"/><g class="xaxislayer-below"/><g class="yaxislayer-below"/><g class="overaxes-below"/><g class="plot" transform="translate(50,20)" clip-path="url(#clipa4a5e5xyplot)"><g class="scatterlayer mlayer"><g class="trace scatter trace8399c4" style="stroke-miterlimit: 2; opacity: 1;"><g class="fills"/><g class="errorbars"/><g class="lines"><path class="js-line" d="M0,191.13L2.06,173.25L2.75,173.25L4.12,173.25L4.81,177.38L6.87,170.5L7.55,170.5L9.61,170.5L10.3,168.44L12.36,168.44L13.05,167.06L15.11,165.69L15.79,165.69L17.17,162.25L17.85,162.25L25.41,162.25L26.09,157.44L29.53,157.44L30.21,130.63L38.45,130.63L39.83,148.5L40.51,145.06L41.89,145.06L46.69,144.38L47.38,143.69L49.44,164.31L50.13,162.25L50.81,159.5L51.5,165.69L57.68,165.69L58.37,162.25L59.05,162.25L59.74,165.69L60.43,162.25L61.11,165L61.8,165L62.49,165L63.17,162.25L64.55,165L65.23,165L65.92,165L66.61,162.25L67.29,162.25L67.98,165L69.35,162.25L70.04,149.88L71.41,154L72.1,154L72.79,152.63L73.47,130.63L74.85,117.56L75.53,117.56L76.22,113.44L76.91,90.75L78.28,77.69L78.97,77.69L80.34,77.69L81.03,73.56L83.77,50.19L84.46,50.19L88.58,50.88L89.27,52.25L89.95,52.25L90.64,59.13L94.07,59.13" style="vector-effect: none; fill: none; stroke: rgb(138, 44, 81); stroke-opacity: 1; stroke-width: 5px; opacity: 1;"/></g><g class="points"/><g class="text"/></g><g class="trace scatter trace4173e2" style="stroke-miterlimit: 2; opacity: 1;"><g class="fills"/><g class="errorbars"/><g class="lines"><path class="js-line" d="M0,39.88L2.06,49.5L2.75,49.5L4.12,49.5L4.81,52.25L6.87,44.69L7.55,44.69L12.36,44.69L13.05,46.75L15.11,48.13L15.79,48.13L17.17,50.88L17.85,50.88L25.41,50.88L26.09,52.25L38.45,52.94L39.83,50.88L40.51,70.13L41.89,70.13L46.01,70.13L46.69,66.69L47.38,63.94L48.07,48.81L49.44,25.44L50.13,31.63L50.81,37.13L51.5,17.19L57.68,17.19L58.37,27.5L59.05,27.5L59.74,17.19L60.43,27.5L61.11,16.5L62.49,16.5L63.17,26.81L64.55,16.5L65.23,16.5L65.92,16.5L66.61,26.81L67.29,26.81L67.98,16.5L69.35,26.81L70.04,16.5L71.41,29.56L72.1,29.56L72.79,29.56L73.47,33.69L75.53,33.69L76.22,35.75L78.28,50.19L78.97,50.19L81.03,50.19L81.71,48.13L83.09,50.19L83.77,50.19L87.89,50.19L88.58,51.56L90.64,59.13L92.01,59.13L94.07,59.13" style="vector-effect: none; fill: none; stroke: rgb(0, 174, 239); stroke-opacity: 1; stroke-width: 5px; opacity: 1;"/></g><g class="points"/><g class="text"/></g><g class="trace scatter tracedf9fb6" style="stroke-miterlimit: 2; opacity: 1;"><g class="fills"/><g class="errorbars"/><g class="lines"><path class="js-line" d="M0,262.63L2.75,265.38L3.43,265.38L4.12,265.38L4.81,268.81L6.87,261.94L7.55,261.94L9.61,261.94L10.3,263.31L13.05,262.63L13.73,261.94L25.41,261.94L26.09,263.31L29.53,263.31L30.21,271.56L38.45,271.56L39.83,265.38L40.51,223.44L41.89,223.44L46.01,223.44L46.69,224.81L49.44,230.31L50.13,228.25L50.81,226.19L51.5,231L57.68,231L58.37,228.25L59.05,228.25L59.74,231L60.43,228.25L61.11,233.06L62.49,235.81L63.17,231L64.55,235.81L65.23,235.81L65.92,235.81L66.61,231L67.29,231L67.98,235.81L69.35,231L70.04,250.94L71.41,236.5L72.1,236.5L72.79,237.19L73.47,247.5L74.85,255.06L75.53,255.06L76.22,253L76.91,259.19L78.97,260.56L79.65,260.56L81.03,259.88L81.71,259.19L84.46,261.94L85.15,261.94L87.89,261.94L88.58,259.88L90.64,244.06L92.01,244.06L94.07,244.06" style="vector-effect: none; fill: none; stroke: rgb(255, 1, 170); stroke-opacity: 1; stroke-width: 5px; opacity: 1;"/></g><g class="points"/><g class="text"/></g><g class="trace scatter trace65ed10" style="stroke-miterlimit: 2; opacity: 1;"><g class="fills"/><g class="errorbars"/><g class="lines"><path class="js-line" d="M0,260.56L2.75,262.63L3.43,262.63L4.12,262.63L4.81,259.19L7.55,264L8.24,264L9.61,264L10.3,265.38L12.36,265.38L13.05,266.75L15.11,268.13L15.79,268.13L29.53,267.44L30.21,277.75L38.45,277.75L39.83,272.94L40.51,281.88L41.89,281.88L46.69,282.56L47.38,283.25L48.07,283.25L48.75,290.81L49.44,290.81L50.13,286.69L50.81,283.25L51.5,294.25L57.68,294.25L58.37,288.75L59.05,288.75L59.74,294.25L60.43,288.75L61.11,293.56L62.49,293.56L63.17,288.75L64.55,293.56L65.23,293.56L65.92,293.56L66.61,288.75L67.29,288.75L67.98,293.56L69.35,288.75L70.04,289.44L71.41,283.94L72.1,283.94L72.79,284.63L73.47,291.5L74.85,294.94L75.53,294.94L76.22,295.63L76.91,298.38L78.28,300.44L78.97,300.44L80.34,300.44L81.03,301.81L83.77,308.69L84.46,308.69L94.07,309.38" style="vector-effect: none; fill: none; stroke: rgb(238, 58, 67); stroke-opacity: 1; stroke-width: 5px; opacity: 1;"/></g><g class="points"/><g class="text"/></g><g class="trace scatter tracef48dbf" style="stroke-miterlimit: 2; opacity: 1;"><g class="fills"/><g class="errorbars"/><g class="lines"><path class="js-line" d="M0,277.06L2.75,279.13L3.43,279.13L4.12,279.13L4.81,268.81L6.87,290.13L7.55,290.13L13.05,289.44L13.73,288.75L29.53,288.06L30.21,291.5L38.45,291.5L39.83,290.13L40.51,292.88L41.89,292.88L46.69,293.56L47.38,294.25L49.44,293.56L50.13,296.31L50.81,299.06L51.5,294.25L57.68,294.25L58.37,296.31L59.05,296.31L59.74,294.25L61.8,298.38L62.49,298.38L69.35,298.38L70.04,301.13L72.1,300.44L72.79,300.44L79.65,305.94L80.34,305.94L84.46,312.81L85.15,312.81L94.07,312.81" style="vector-effect: none; fill: none; stroke: rgb(202, 166, 105); stroke-opacity: 1; stroke-width: 5px; opacity: 1;"/></g><g class="points"/><g class="text"/></g><g class="trace scatter tracea9df0d" style="stroke-miterlimit: 2; opacity: 1;"><g class="fills"/><g class="errorbars"/><g class="lines"><path class="js-line" d="M0,306.63L2.06,308L2.75,308L4.12,308L4.81,311.44L7.55,306.63L8.24,306.63L9.61,306.63L10.3,305.25L25.41,305.25L26.09,302.5L38.45,302.5L39.83,305.25L40.51,303.19L41.89,303.19L48.07,303.88L48.75,306.63L60.43,306.63L61.11,303.88L62.49,298.38L63.17,302.5L64.55,298.38L65.23,298.38L65.92,298.38L66.61,302.5L67.29,302.5L67.98,298.38L69.35,302.5L70.04,299.75L71.41,303.88L72.1,303.88L72.79,303.88L73.47,305.25L75.53,304.56L76.22,305.94L78.28,310.06L78.97,310.06L80.34,310.06L81.03,311.44L83.09,316.94L83.77,316.94L94.07,316.94" style="vector-effect: none; fill: none; stroke: rgb(1, 27, 58); stroke-opacity: 1; stroke-width: 5px; opacity: 1;"/></g><g class="points"/><g class="text"/></g><g class="trace scatter tracee845c7" style="stroke-miterlimit: 2; opacity: 1;"><g class="fills"/><g class="errorbars"/><g class="lines"><path class="js-line" d="M0,283.94L0.69,283.94L1.37,285.31L4.12,285.31L4.81,283.94L5.49,283.25L6.18,284.63L15.79,284.63L16.48,286L25.41,286L26.09,291.5L29.53,291.5L30.21,297L38.45,297L39.83,288.75L40.51,305.94L41.89,305.94L48.07,306.63L48.75,311.44L50.81,311.44L51.5,314.19L57.68,314.19L58.37,312.81L59.05,312.81L59.74,314.19L60.43,312.81L61.11,314.19L61.8,314.19L62.49,314.19L63.17,312.81L65.23,314.19L65.92,314.19L67.29,312.81L67.98,314.19L69.35,312.81L70.04,314.88L72.1,313.5L72.79,313.5L75.53,314.19L76.22,314.88L78.28,316.94L78.97,316.94L80.34,316.94L81.03,318.31L83.09,321.75L83.77,321.75L94.07,321.75" style="vector-effect: none; fill: none; stroke: rgb(255, 192, 203); stroke-opacity: 1; stroke-width: 5px; opacity: 1;"/></g><g class="points"/><g class="text"/></g></g></g><g class="overplot"/><path class="xlines-above crisp" d="M0,0" style="fill: none;"/><path class="ylines-above crisp" d="M0,0" style="fill: none;"/><g class="overlines-above"/><g class="xaxislayer-above"><g class="xtick"><text text-anchor="middle" x="0" y="363" transform="translate(56.87,0)" style="font-family: 'Open Sans', verdana, arial, sans-serif; font-size: 12px; fill: rgb(42, 63, 95); fill-opacity: 1; white-space: pre; opacity: 1;">1.7.23</text></g><g class="xtick"><text text-anchor="middle" x="0" y="363" style="font-family: 'Open Sans', verdana, arial, sans-serif; font-size: 12px; fill: rgb(42, 63, 95); fill-opacity: 1; white-space: pre; opacity: 1;" transform="translate(99.44,0)">1.9.23</text></g><g class="xtick"><text text-anchor="middle" x="0" y="363" style="font-family: 'Open Sans', verdana, arial, sans-serif; font-size: 12px; fill: rgb(42, 63, 95); fill-opacity: 1; white-space: pre; opacity: 1;" transform="translate(141.32999999999998,0)">1.11.23</text></g><g class="xtick"><text text-anchor="middle" x="0" y="363" style="font-family: 'Open Sans', verdana, arial, sans-serif; font-size: 12px; fill: rgb(42, 63, 95); fill-opacity: 1; white-space: pre; opacity: 1;" transform="translate(183.21,0)">1.1.24</text></g><g class="xtick"><text text-anchor="middle" x="0" y="363" style="font-family: 'Open Sans', verdana, arial, sans-serif; font-size: 12px; fill: rgb(42, 63, 95); fill-opacity: 1; white-space: pre; opacity: 1;" transform="translate(224.41,0)">1.3.24</text></g></g><g class="yaxislayer-above"><g class="ytick"><text text-anchor="end" x="49" y="4.199999999999999" transform="translate(0,350)" style="font-family: 'Open Sans', verdana, arial, sans-serif; font-size: 12px; fill: rgb(42, 63, 95); fill-opacity: 1; white-space: pre; opacity: 1;">0%</text></g><g class="ytick"><text text-anchor="end" x="49" y="4.199999999999999" style="font-family: 'Open Sans', verdana, arial, sans-serif; font-size: 12px; fill: rgb(42, 63, 95); fill-opacity: 1; white-space: pre; opacity: 1;" transform="translate(0,281.25)">10%</text></g><g class="ytick"><text text-anchor="end" x="49" y="4.199999999999999" style="font-family: 'Open Sans', verdana, arial, sans-serif; font-size: 12px; fill: rgb(42, 63, 95); fill-opacity: 1; white-space: pre; opacity: 1;" transform="translate(0,212.5)">20%</text></g><g class="ytick"><text text-anchor="end" x="49" y="4.199999999999999" style="font-family: 'Open Sans', verdana, arial, sans-serif; font-size: 12px; fill: rgb(42, 63, 95); fill-opacity: 1; white-space: pre; opacity: 1;" transform="translate(0,143.75)">30%</text></g><g class="ytick"><text text-anchor="end" x="49" y="4.199999999999999" style="font-family: 'Open Sans', verdana, arial, sans-serif; font-size: 12px; fill: rgb(42, 63, 95); fill-opacity: 1; white-space: pre; opacity: 1;" transform="translate(0,75)">40%</text></g></g><g class="overaxes-above"/></g></g><g class="polarlayer"/><g class="smithlayer"/><g class="ternarylayer"/><g class="geolayer"/><g class="funnelarealayer"/><g class="pielayer"/><g class="iciclelayer"/><g class="treemaplayer"/><g class="sunburstlayer"/><g class="glimages"/><defs id="topdefs-a4a5e5"><g class="clips"/><clipPath id="legenda4a5e5"><rect width="128" height="143" x="0" y="0"/></clipPath></defs><g class="layer-above"><g class="imagelayer"/><g class="shapelayer"/></g><g class="infolayer"><g class="legend" pointer-events="all" transform="translate(260.12,20)"><rect class="bg" shape-rendering="crispEdges" width="128" height="143" x="0" y="0" style="stroke: rgb(68, 68, 68); stroke-opacity: 1; fill: rgb(255, 255, 255); fill-opacity: 1; stroke-width: 0px;"/><g class="scrollbox" transform="" clip-path="url(#legenda4a5e5)"><g class="groups"><g class="traces" transform="translate(0,14.5)" style="opacity: 1;"><text class="legendtext" text-anchor="start" x="40" y="4.680000000000001" style="font-family: 'Open Sans', verdana, arial, sans-serif; font-size: 12px; fill: rgb(42, 63, 95); fill-opacity: 1; white-space: pre;">Pellegrini Peter</text><g class="layers" style="opacity: 1;"><g class="legendfill"/><g class="legendlines"><path class="js-line" d="M5,0h30" style="fill: none; stroke: rgb(138, 44, 81); stroke-opacity: 1; stroke-width: 5px;"/></g><g class="legendsymbols"><g class="legendpoints"/></g></g><rect class="legendtoggle" x="0" y="-9.5" width="122.703125" height="19" style="fill: rgb(0, 0, 0); fill-opacity: 0;"/></g><g class="traces" transform="translate(0,33.5)" style="opacity: 1;"><text class="legendtext" text-anchor="start" x="40" y="4.680000000000001" style="font-family: 'Open Sans', verdana, arial, sans-serif; font-size: 12px; fill: rgb(42, 63, 95); fill-opacity: 1; white-space: pre;">Korčok Ivan</text><g class="layers" style="opacity: 1;"><g class="legendfill"/><g class="legendlines"><path class="js-line" d="M5,0h30" style="fill: none; stroke: rgb(0, 174, 239); stroke-opacity: 1; stroke-width: 5px;"/></g><g class="legendsymbols"><g class="legendpoints"/></g></g><rect class="legendtoggle" x="0" y="-9.5" width="122.703125" height="19" style="fill: rgb(0, 0, 0); fill-opacity: 0;"/></g><g class="traces" transform="translate(0,52.5)" style="opacity: 1;"><text class="legendtext" text-anchor="start" x="40" y="4.680000000000001" style="font-family: 'Open Sans', verdana, arial, sans-serif; font-size: 12px; fill: rgb(42, 63, 95); fill-opacity: 1; white-space: pre;">Kubiš Ján</text><g class="layers" style="opacity: 1;"><g class="legendfill"/><g class="legendlines"><path class="js-line" d="M5,0h30" style="fill: none; stroke: rgb(255, 1, 170); stroke-opacity: 1; stroke-width: 5px;"/></g><g class="legendsymbols"><g class="legendpoints"/></g></g><rect class="legendtoggle" x="0" y="-9.5" width="122.703125" height="19" style="fill: rgb(0, 0, 0); fill-opacity: 0;"/></g><g class="traces" transform="translate(0,71.5)" style="opacity: 1;"><text class="legendtext" text-anchor="start" x="40" y="4.680000000000001" style="font-family: 'Open Sans', verdana, arial, sans-serif; font-size: 12px; fill: rgb(42, 63, 95); fill-opacity: 1; white-space: pre;">Fico Robert</text><g class="layers" style="opacity: 1;"><g class="legendfill"/><g class="legendlines"><path class="js-line" d="M5,0h30" style="fill: none; stroke: rgb(238, 58, 67); stroke-opacity: 1; stroke-width: 5px;"/></g><g class="legendsymbols"><g class="legendpoints"/></g></g><rect class="legendtoggle" x="0" y="-9.5" width="122.703125" height="19" style="fill: rgb(0, 0, 0); fill-opacity: 0;"/></g><g class="traces" transform="translate(0,90.5)" style="opacity: 1;"><text class="legendtext" text-anchor="start" x="40" y="4.680000000000001" style="font-family: 'Open Sans', verdana, arial, sans-serif; font-size: 12px; fill: rgb(42, 63, 95); fill-opacity: 1; white-space: pre;">Mistrík Robert</text><g class="layers" style="opacity: 1;"><g class="legendfill"/><g class="legendlines"><path class="js-line" d="M5,0h30" style="fill: none; stroke: rgb(202, 166, 105); stroke-opacity: 1; stroke-width: 5px;"/></g><g class="legendsymbols"><g class="legendpoints"/></g></g><rect class="legendtoggle" x="0" y="-9.5" width="122.703125" height="19" style="fill: rgb(0, 0, 0); fill-opacity: 0;"/></g><g class="traces" transform="translate(0,109.5)" style="opacity: 1;"><text class="legendtext" text-anchor="start" x="40" y="4.680000000000001" style="font-family: 'Open Sans', verdana, arial, sans-serif; font-size: 12px; fill: rgb(42, 63, 95); fill-opacity: 1; white-space: pre;">Žilinka Maroš</text><g class="layers" style="opacity: 1;"><g class="legendfill"/><g class="legendlines"><path class="js-line" d="M5,0h30" style="fill: none; stroke: rgb(1, 27, 58); stroke-opacity: 1; stroke-width: 5px;"/></g><g class="legendsymbols"><g class="legendpoints"/></g></g><rect class="legendtoggle" x="0" y="-9.5" width="122.703125" height="19" style="fill: rgb(0, 0, 0); fill-opacity: 0;"/></g><g class="traces" transform="translate(0,128.5)" style="opacity: 1;"><text class="legendtext" text-anchor="start" x="40" y="4.680000000000001" style="font-family: 'Open Sans', verdana, arial, sans-serif; font-size: 12px; fill: rgb(42, 63, 95); fill-opacity: 1; white-space: pre;">Lajčák Miroslav</text><g class="layers" style="opacity: 1;"><g class="legendfill"/><g class="legendlines"><path class="js-line" d="M5,0h30" style="fill: none; stroke: rgb(255, 192, 203); stroke-opacity: 1; stroke-width: 5px;"/></g><g class="legendsymbols"><g class="legendpoints"/></g></g><rect class="legendtoggle" x="0" y="-9.5" width="122.703125" height="19" style="fill: rgb(0, 0, 0); fill-opacity: 0;"/></g></g></g><rect class="scrollbar" rx="20" ry="3" width="0" height="0" x="0" y="0" style="fill: rgb(128, 139, 164); fill-opacity: 1;"/></g><g class="g-gtitle"/><g class="g-xtitle"/><g class="g-ytitle"/></g></svg>