<svg class="main-svg" xmlns="http://www.w3.org/2000/svg" xmlns:xlink="http://www.w3.org/1999/xlink" width="1200" height="600" style="" viewBox="0 0 1200 600"><rect x="0" y="0" width="1200" height="600" style="fill: rgb(255, 255, 255); fill-opacity: 1;"/><defs id="defs-234768"><g class="clips"><clipPath id="clip234768xyplot" class="plotclip"><rect width="764" height="530"/></clipPath><clipPath class="axesclip" id="clip234768x"><rect x="50" y="0" width="764" height="600"/></clipPath><clipPath class="axesclip" id="clip234768y"><rect x="0" y="20" width="1200" height="530"/></clipPath><clipPath class="axesclip" id="clip234768xy"><rect x="50" y="20" width="764" height="530"/></clipPath></g><g class="gradients"/><g class="patterns"/></defs><g class="bglayer"/><g class="layer-below"><g class="imagelayer"/><g class="shapelayer"/></g><g class="cartesianlayer"><g class="subplot xy"><g class="layer-subplot"><g class="shapelayer"/><g class="imagelayer"/></g><g class="minor-gridlayer"><g class="x"/><g class="y"/></g><g class="gridlayer"><g class="x"><path class="xgrid crisp" transform="translate(76.34,0)" d="M0,20v530" style="stroke: rgb(235, 240, 248); stroke-opacity: 1; stroke-width: 1px;"/><path class="xgrid crisp" transform="translate(158.01,0)" d="M0,20v530" style="stroke: rgb(235, 240, 248); stroke-opacity: 1; stroke-width: 1px;"/><path class="xgrid crisp" transform="translate(239.68,0)" d="M0,20v530" style="stroke: rgb(235, 240, 248); stroke-opacity: 1; stroke-width: 1px;"/><path class="xgrid crisp" transform="translate(318.72,0)" d="M0,20v530" style="stroke: rgb(235, 240, 248); stroke-opacity: 1; stroke-width: 1px;"/><path class="xgrid crisp" transform="translate(400.39,0)" d="M0,20v530" style="stroke: rgb(235, 240, 248); stroke-opacity: 1; stroke-width: 1px;"/><path class="xgrid crisp" transform="translate(479.42,0)" d="M0,20v530" style="stroke: rgb(235, 240, 248); stroke-opacity: 1; stroke-width: 1px;"/><path class="xgrid crisp" transform="translate(561.0899999999999,0)" d="M0,20v530" style="stroke: rgb(235, 240, 248); stroke-opacity: 1; stroke-width: 1px;"/><path class="xgrid crisp" transform="translate(642.76,0)" d="M0,20v530" style="stroke: rgb(235, 240, 248); stroke-opacity: 1; stroke-width: 1px;"/><path class="xgrid crisp" transform="translate(719.16,0)" d="M0,20v530" style="stroke: rgb(235, 240, 248); stroke-opacity: 1; stroke-width: 1px;"/><path class="xgrid crisp" transform="translate(800.83,0)" d="M0,20v530" style="stroke: rgb(235, 240, 248); stroke-opacity: 1; stroke-width: 1px;"/></g><g class="y"><path class="ygrid crisp" transform="translate(0,466.22)" d="M50,0h764" style="stroke: rgb(235, 240, 248); stroke-opacity: 1; stroke-width: 1px;"/><path class="ygrid crisp" transform="translate(0,382.45)" d="M50,0h764" style="stroke: rgb(235, 240, 248); stroke-opacity: 1; stroke-width: 1px;"/><path class="ygrid crisp" transform="translate(0,298.67)" d="M50,0h764" style="stroke: rgb(235, 240, 248); stroke-opacity: 1; stroke-width: 1px;"/><path class="ygrid crisp" transform="translate(0,214.89)" d="M50,0h764" style="stroke: rgb(235, 240, 248); stroke-opacity: 1; stroke-width: 1px;"/><path class="ygrid crisp" transform="translate(0,131.11)" d="M50,0h764" style="stroke: rgb(235, 240, 248); stroke-opacity: 1; stroke-width: 1px;"/><path class="ygrid crisp" transform="translate(0,47.34)" d="M50,0h764" style="stroke: rgb(235, 240, 248); stroke-opacity: 1; stroke-width: 1px;"/></g></g><g class="zerolinelayer"><path class="yzl zl crisp" transform="translate(0,550)" d="M50,0h764" style="stroke: rgb(235, 240, 248); stroke-opacity: 1; stroke-width: 2px;"/></g><path class="xlines-below"/><path class="ylines-below"/><g class="overlines-below"/><g class="xaxislayer-below"/><g class="yaxislayer-below"/><g class="overaxes-below"/><g class="plot" transform="translate(50,20)" clip-path="url(#clip234768xyplot)"><g class="scatterlayer mlayer"><g class="trace scatter trace200f02" style="stroke-miterlimit: 2; opacity: 1;"><g class="fills"/><g class="errorbars"/><g class="lines"><path class="js-line" d="M732.39,324.75L735.02,223.38" style="vector-effect: none; fill: none; stroke: rgb(187, 187, 187); stroke-opacity: 1; stroke-width: 5px; opacity: 1;"/></g><g class="points"/><g class="text"/></g><g class="trace scatter trace6dc015" style="stroke-miterlimit: 2; opacity: 1;"><g class="fills"/><g class="errorbars"/><g class="lines"><path class="js-line" d="M0,349.88L5.27,355.74L7.9,355.74L15.81,355.74" style="vector-effect: none; fill: none; stroke: rgb(187, 187, 187); stroke-opacity: 1; stroke-width: 5px; opacity: 1;"/><path class="js-line" d="M23.71,352.39L36.88,352.39L39.52,354.91L47.42,354.91L50.06,353.23L52.69,351.55L55.32,351.55L60.59,351.55L63.23,355.74L97.48,355.74L100.11,177.3L147.53,178.14L152.8,356.58L155.43,200.76L160.7,200.76L176.51,200.76L179.14,196.57L181.78,193.22L184.41,173.95L187.05,145.46L189.68,145.46L192.32,338.99" style="vector-effect: none; fill: none; stroke: rgb(187, 187, 187); stroke-opacity: 1; stroke-width: 5px; opacity: 1;"/><path class="js-line" d="M197.59,135.41L221.3,135.41L223.93,333.12L226.57,333.12L229.2,135.41L231.83,333.12L234.47,132.9L237.1,129.55L239.74,129.55L242.37,331.45L245.01,129.55L252.91,129.55L255.54,331.45L258.18,331.45L260.81,129.55L263.45,331.45L266.08,331.45L268.72,130.38L271.35,338.15L279.26,338.99L281.89,344.01L284.52,342.34L287.16,342.34L289.79,342.34L292.43,344.01L297.7,357.42L300.33,358.26L308.23,358.26L310.87,355.74L313.5,354.07L316.14,356.58L345.12,357.42" style="vector-effect: none; fill: none; stroke: rgb(187, 187, 187); stroke-opacity: 1; stroke-width: 5px; opacity: 1;"/><path class="js-line" d="M505.82,355.74L513.72,357.42L516.36,372.5L518.99,372.5L521.63,378.36L526.9,374.17L529.53,369.99L532.17,374.17L534.8,382.55L537.43,382.55L540.07,378.36L542.7,377.53L545.34,378.36L547.97,371.66L550.61,370.82L553.24,358.26L555.88,353.23L558.51,359.09L561.14,357.42L563.78,357.42L566.41,372.5L569.05,374.17L571.68,369.99L574.32,369.15L576.95,365.8L582.22,369.99L584.86,374.17L587.49,379.2L590.12,379.2L595.39,379.2L598.03,376.69L603.3,375.01L605.93,372.5L611.2,363.28L613.83,345.69L616.47,340.66L619.1,400.98L624.37,400.98L627.01,399.31L632.28,395.96L634.91,400.98L637.54,400.98L640.18,398.47L642.81,396.79L645.45,398.47L648.08,411.04L650.72,416.06L658.62,426.12L661.26,425.28L666.52,426.12L669.16,422.77L671.79,416.9L674.43,416.9L677.06,416.9L679.7,418.58L684.97,420.25L687.6,423.6L695.5,424.44L698.14,426.95L700.77,426.95L703.41,429.47L706.04,437.85L708.68,439.52L711.31,440.36L713.94,442.87L719.21,442.03L721.85,446.22L724.48,447.9L727.12,440.36L729.75,322.23L732.39,390.09L735.02,320.56" style="vector-effect: none; fill: none; stroke: rgb(187, 187, 187); stroke-opacity: 1; stroke-width: 5px; opacity: 1;"/></g><g class="points"/><g class="text"/></g><g class="trace scatter trace1c06c3" style="stroke-miterlimit: 2; opacity: 1;"><g class="fills"/><g class="errorbars"/><g class="lines"><path class="js-line" d="M0,427.79L5.27,431.14L7.9,431.14L15.81,431.14" style="vector-effect: none; fill: none; stroke: rgb(187, 187, 187); stroke-opacity: 1; stroke-width: 5px; opacity: 1;"/><path class="js-line" d="M23.71,429.47L36.88,429.47L39.52,427.79L50.06,426.95L52.69,426.12L60.59,426.12L63.23,421.93L97.48,421.93L100.11,311.34L113.28,311.34L115.92,276.16L147.53,276.16L152.8,405.17L155.43,295.42L160.7,295.42L179.14,294.59L181.78,293.75L184.41,312.18L187.05,321.4L189.68,321.4L192.32,426.12" style="vector-effect: none; fill: none; stroke: rgb(187, 187, 187); stroke-opacity: 1; stroke-width: 5px; opacity: 1;"/><path class="js-line" d="M197.59,322.23L221.3,322.23L223.93,426.12L226.57,426.12L229.2,322.23L231.83,426.12L234.47,321.4L237.1,318.88L239.74,318.88L242.37,425.28L245.01,318.88L252.91,318.88L255.54,425.28L258.18,425.28L260.81,318.88L263.45,425.28L266.08,425.28L268.72,300.45L271.35,416.06L279.26,415.23L281.89,395.12L287.16,394.28L289.79,394.28L292.43,387.58L295.06,374.17L297.7,364.96L300.33,362.45L308.23,362.45L310.87,359.93L316.14,357.42L318.77,351.55L339.85,351.55L342.48,353.23L345.12,353.23" style="vector-effect: none; fill: none; stroke: rgb(187, 187, 187); stroke-opacity: 1; stroke-width: 5px; opacity: 1;"/><path class="js-line" d="M505.82,291.24L508.46,292.91L511.09,292.91L513.72,292.07L516.36,272.8L521.63,259.4L524.26,260.24L526.9,263.59L529.53,269.45L534.8,256.89L537.43,256.89L540.07,261.91L542.7,260.24L545.34,259.4L547.97,268.62L550.61,271.97L553.24,279.51L555.88,287.88L558.51,281.18L561.14,279.51L563.78,279.51L566.41,267.78L569.05,267.78L571.68,274.48L574.32,275.32L576.95,276.16L579.59,270.29L587.49,256.05L590.12,256.05L595.39,256.05L598.03,261.08L600.66,263.59L603.3,263.59L605.93,266.1L608.57,271.13L611.2,276.99L613.83,293.75L616.47,297.94L619.1,371.66L624.37,370.82L627.01,372.5L632.28,376.69L634.91,371.66L637.54,371.66L640.18,374.17L642.81,375.85L645.45,373.34L650.72,356.58L653.35,353.23L655.99,351.55L658.62,347.37L661.26,349.04L663.89,348.2L666.52,348.2L669.16,351.55L671.79,354.91L674.43,354.91L679.7,356.58L682.33,354.91L684.97,353.23L687.6,349.88L698.14,349.88L700.77,348.2L708.68,335.64L711.31,334.8L713.94,331.45L716.58,331.45L719.21,332.29L721.85,328.94L724.48,328.94L727.12,338.15L729.75,318.88L732.39,393.44L735.02,324.75" style="vector-effect: none; fill: none; stroke: rgb(187, 187, 187); stroke-opacity: 1; stroke-width: 5px; opacity: 1;"/></g><g class="points"/><g class="text"/></g><g class="trace scatter trace8c1082" style="stroke-miterlimit: 2; opacity: 1;"><g class="fills"/><g class="errorbars"/><g class="lines"><path class="js-line" d="M732.39,452.09L735.02,413.55" style="vector-effect: none; fill: none; stroke: rgb(187, 187, 187); stroke-opacity: 1; stroke-width: 5px; opacity: 1;"/></g><g class="points"/><g class="text"/></g><g class="trace scatter trace0f6a08" style="stroke-miterlimit: 2; opacity: 1;"><g class="fills"/><g class="errorbars"/><g class="lines"><path class="js-line" d="M619.1,265.26L666.52,264.43L669.16,263.59L674.43,264.43L677.06,264.43L682.33,261.91L684.97,262.75L695.5,262.75L698.14,261.08L700.77,260.24L703.41,261.08L706.04,263.59L708.68,263.59L713.94,262.75L716.58,262.75L721.85,263.59L724.48,261.08L727.12,256.89" style="vector-effect: none; fill: none; stroke: rgb(187, 187, 187); stroke-opacity: 1; stroke-width: 5px; opacity: 1;"/></g><g class="points"/><g class="text"/></g><g class="trace scatter trace77ce60" style="stroke-miterlimit: 2; opacity: 1;"><g class="fills"/><g class="errorbars"/><g class="lines"><path class="js-line" d="M0,488.95L7.9,490.62L10.54,490.62L15.81,490.62L18.44,453.76L21.08,448.74L23.71,487.27L47.42,486.44L50.06,485.6L97.48,485.6" style="vector-effect: none; fill: none; stroke: rgb(255, 1, 170); stroke-opacity: 1; stroke-width: 5px; opacity: 1;"/><path class="js-line" d="M152.8,485.6" style="vector-effect: none; fill: none; stroke: rgb(255, 1, 170); stroke-opacity: 1; stroke-width: 5px; opacity: 1;"/><path class="js-line" d="M192.32,463.82L194.95,398.47" style="vector-effect: none; fill: none; stroke: rgb(255, 1, 170); stroke-opacity: 1; stroke-width: 5px; opacity: 1;"/><path class="js-line" d="M223.93,464.65L226.57,464.65" style="vector-effect: none; fill: none; stroke: rgb(255, 1, 170); stroke-opacity: 1; stroke-width: 5px; opacity: 1;"/><path class="js-line" d="M231.83,464.65" style="vector-effect: none; fill: none; stroke: rgb(255, 1, 170); stroke-opacity: 1; stroke-width: 5px; opacity: 1;"/><path class="js-line" d="M242.37,463.82" style="vector-effect: none; fill: none; stroke: rgb(255, 1, 170); stroke-opacity: 1; stroke-width: 5px; opacity: 1;"/><path class="js-line" d="M255.54,463.82L258.18,463.82" style="vector-effect: none; fill: none; stroke: rgb(255, 1, 170); stroke-opacity: 1; stroke-width: 5px; opacity: 1;"/><path class="js-line" d="M263.45,463.82L266.08,463.82" style="vector-effect: none; fill: none; stroke: rgb(255, 1, 170); stroke-opacity: 1; stroke-width: 5px; opacity: 1;"/><path class="js-line" d="M271.35,461.3L279.26,461.3L281.89,469.68L284.52,480.57L287.16,480.57L289.79,480.57L292.43,478.06L295.06,483.08L297.7,484.76L316.14,483.92L318.77,485.6L337.21,485.6L339.85,483.08L342.48,475.54L345.12,475.54L347.75,423.6L353.02,423.6L368.83,423.6L371.46,434.49L374.1,437.85L376.73,449.57L387.27,449.57L389.9,456.28L418.88,457.11L421.52,457.95L426.79,458.79L429.42,484.76L434.69,484.76L437.32,488.11L439.96,493.14L442.59,493.14L476.84,493.14L479.48,500.68L482.11,500.68L484.74,502.35L487.38,505.7L490.01,505.7L503.19,505.7L505.82,518.27L513.72,518.27L516.36,519.95" style="vector-effect: none; fill: none; stroke: rgb(255, 1, 170); stroke-opacity: 1; stroke-width: 5px; opacity: 1;"/></g><g class="points"/><g class="text"/></g><g class="trace scatter trace875036" style="stroke-miterlimit: 2; opacity: 1;"><g class="fills"/><g class="errorbars"/><g class="lines"><path class="js-line" d="M0,457.11L5.27,431.14L7.9,431.14L15.81,431.14L18.44,338.99L21.08,334.8L23.71,429.47L36.88,429.47L39.52,427.79L50.06,426.95L52.69,426.12L97.48,425.28" style="vector-effect: none; fill: none; stroke: rgb(138, 44, 81); stroke-opacity: 1; stroke-width: 5px; opacity: 1;"/><path class="js-line" d="M152.8,426.12" style="vector-effect: none; fill: none; stroke: rgb(138, 44, 81); stroke-opacity: 1; stroke-width: 5px; opacity: 1;"/><path class="js-line" d="M192.32,421.93L194.95,314.69" style="vector-effect: none; fill: none; stroke: rgb(138, 44, 81); stroke-opacity: 1; stroke-width: 5px; opacity: 1;"/><path class="js-line" d="M223.93,422.77L226.57,422.77" style="vector-effect: none; fill: none; stroke: rgb(138, 44, 81); stroke-opacity: 1; stroke-width: 5px; opacity: 1;"/><path class="js-line" d="M231.83,422.77" style="vector-effect: none; fill: none; stroke: rgb(138, 44, 81); stroke-opacity: 1; stroke-width: 5px; opacity: 1;"/><path class="js-line" d="M242.37,421.93" style="vector-effect: none; fill: none; stroke: rgb(138, 44, 81); stroke-opacity: 1; stroke-width: 5px; opacity: 1;"/><path class="js-line" d="M255.54,421.93L258.18,421.93" style="vector-effect: none; fill: none; stroke: rgb(138, 44, 81); stroke-opacity: 1; stroke-width: 5px; opacity: 1;"/><path class="js-line" d="M263.45,421.93L266.08,421.93" style="vector-effect: none; fill: none; stroke: rgb(138, 44, 81); stroke-opacity: 1; stroke-width: 5px; opacity: 1;"/><path class="js-line" d="M271.35,418.58L279.26,417.74L281.89,409.36L284.52,396.79L287.16,396.79L292.43,395.96L295.06,382.55L297.7,378.36L300.33,378.36L308.23,378.36L310.87,373.34L318.77,356.58L321.41,356.58L345.12,357.42L347.75,193.22L368.83,193.22L371.46,181.49L374.1,181.49L376.73,161.38L387.27,161.38L389.9,138.76L405.71,138.76L408.34,125.36L410.98,120.33L413.61,120.33L416.25,120.33L418.88,115.3L424.15,103.57L426.79,103.57L429.42,75.09L432.06,75.09L434.69,75.09L437.32,60.85L439.96,26.5L442.59,26.5L463.67,26.5L466.3,39.07L468.94,44.93L471.57,44.93L474.21,44.93L476.84,48.28L479.48,61.69L482.11,66.71L484.74,63.36L487.38,57.5L503.19,57.5L505.82,296.26L508.46,292.91L511.09,297.1L513.72,296.26L516.36,285.37L518.99,268.62L521.63,265.26L524.26,263.59L526.9,263.59L529.53,267.78L532.17,276.16L534.8,266.1L537.43,266.1L540.07,265.26L542.7,270.29L545.34,276.99L547.97,276.16L550.61,273.64L553.24,295.42L555.88,296.26L558.51,292.91L561.14,298.78L563.78,295.42L566.41,293.75L569.05,290.4L571.68,287.88L574.32,287.88L579.59,289.56L582.22,287.88L587.49,273.64L590.12,273.64L592.76,273.64L595.39,276.99L598.03,281.18L600.66,281.18L605.93,271.97L608.57,271.13L616.47,309.67L619.1,377.53L624.37,378.36L627.01,382.55L629.64,382.55L632.28,379.2L634.91,377.53L637.54,383.39L642.81,383.39L645.45,378.36L653.35,362.45L655.99,364.12L658.62,355.74L661.26,354.91L663.89,355.74L666.52,352.39L669.16,354.07L671.79,358.26L692.87,357.42L695.5,355.74L698.14,350.72L700.77,349.88L703.41,350.72L706.04,339.83L708.68,337.31L711.31,338.15L716.58,334.8L719.21,330.61L721.85,324.75L724.48,325.58L727.12,333.96L729.75,322.23L732.39,395.96" style="vector-effect: none; fill: none; stroke: rgb(138, 44, 81); stroke-opacity: 1; stroke-width: 5px; opacity: 1;"/></g><g class="points"/><g class="text"/></g><g class="trace scatter traceced1ee" style="stroke-miterlimit: 2; opacity: 1;"><g class="fills"/><g class="errorbars"/><g class="lines"><path class="js-line" d="M0,483.08L7.9,484.76L10.54,484.76L15.81,484.76L18.44,442.03L21.08,442.87L23.71,487.27L47.42,486.44L50.06,488.95L52.69,490.62L55.32,490.62L97.48,490.62" style="vector-effect: none; fill: none; stroke: rgb(238, 58, 67); stroke-opacity: 1; stroke-width: 5px; opacity: 1;"/><path class="js-line" d="M152.8,490.62" style="vector-effect: none; fill: none; stroke: rgb(238, 58, 67); stroke-opacity: 1; stroke-width: 5px; opacity: 1;"/><path class="js-line" d="M192.32,500.68L194.95,470.52" style="vector-effect: none; fill: none; stroke: rgb(238, 58, 67); stroke-opacity: 1; stroke-width: 5px; opacity: 1;"/><path class="js-line" d="M223.93,500.68L226.57,500.68" style="vector-effect: none; fill: none; stroke: rgb(238, 58, 67); stroke-opacity: 1; stroke-width: 5px; opacity: 1;"/><path class="js-line" d="M231.83,500.68" style="vector-effect: none; fill: none; stroke: rgb(238, 58, 67); stroke-opacity: 1; stroke-width: 5px; opacity: 1;"/><path class="js-line" d="M242.37,499.84" style="vector-effect: none; fill: none; stroke: rgb(238, 58, 67); stroke-opacity: 1; stroke-width: 5px; opacity: 1;"/><path class="js-line" d="M255.54,499.84L258.18,499.84" style="vector-effect: none; fill: none; stroke: rgb(238, 58, 67); stroke-opacity: 1; stroke-width: 5px; opacity: 1;"/><path class="js-line" d="M263.45,499.84L266.08,499.84" style="vector-effect: none; fill: none; stroke: rgb(238, 58, 67); stroke-opacity: 1; stroke-width: 5px; opacity: 1;"/><path class="js-line" d="M271.35,499L279.26,499L281.89,503.19L284.52,509.06L287.16,509.06L308.23,509.06L310.87,509.89L313.5,514.08L316.14,514.08L318.77,516.6L321.41,516.6L345.12,516.6L347.75,504.03L387.27,504.03L389.9,503.19L426.79,504.03L429.42,519.95L434.69,519.95L437.32,521.62" style="vector-effect: none; fill: none; stroke: rgb(238, 58, 67); stroke-opacity: 1; stroke-width: 5px; opacity: 1;"/></g><g class="points"/><g class="text"/></g><g class="trace scatter trace5da6e8" style="stroke-miterlimit: 2; opacity: 1;"><g class="fills"/><g class="errorbars"/><g class="lines"><path class="js-line" d="M0,488.95L7.9,490.62L10.54,490.62L15.81,490.62" style="vector-effect: none; fill: none; stroke: rgb(187, 187, 187); stroke-opacity: 1; stroke-width: 5px; opacity: 1;"/><path class="js-line" d="M23.71,489.79L36.88,489.79L39.52,491.46L97.48,490.62L100.11,450.41L113.28,450.41L115.92,462.98L147.53,462.98L152.8,497.33L155.43,468.84L160.7,468.84L179.14,469.68L181.78,471.36L184.41,471.36L187.05,480.57L189.68,480.57L192.32,504.87" style="vector-effect: none; fill: none; stroke: rgb(187, 187, 187); stroke-opacity: 1; stroke-width: 5px; opacity: 1;"/><path class="js-line" d="M197.59,484.76L221.3,484.76L223.93,507.38L226.57,507.38L229.2,484.76L231.83,507.38L234.47,483.92L239.74,483.92L242.37,507.38L245.01,483.92L247.64,483.92L252.91,483.92L255.54,507.38L258.18,507.38L260.81,483.92L263.45,507.38L266.08,507.38L268.72,478.06L271.35,502.35L279.26,503.19L281.89,507.38L292.43,508.22L295.06,510.73L300.33,514.08L302.97,514.08L316.14,514.92L318.77,516.6L345.12,516.6" style="vector-effect: none; fill: none; stroke: rgb(187, 187, 187); stroke-opacity: 1; stroke-width: 5px; opacity: 1;"/></g><g class="points"/><g class="text"/></g><g class="trace scatter trace38b1d6" style="stroke-miterlimit: 2; opacity: 1;"><g class="fills"/><g class="errorbars"/><g class="lines"><path class="js-line" d="M0,502.35L15.81,503.19" style="vector-effect: none; fill: none; stroke: rgb(187, 187, 187); stroke-opacity: 1; stroke-width: 5px; opacity: 1;"/><path class="js-line" d="M23.71,502.35L36.88,502.35L39.52,504.87L60.59,504.03L63.23,505.7L97.48,505.7L100.11,481.41L113.28,481.41L115.92,488.11L147.53,488.11L152.8,509.06L155.43,499.84L160.7,499.84L184.41,500.68L187.05,506.54L189.68,506.54L192.32,518.27" style="vector-effect: none; fill: none; stroke: rgb(187, 187, 187); stroke-opacity: 1; stroke-width: 5px; opacity: 1;"/><path class="js-line" d="M197.59,509.89L221.3,509.89L223.93,519.95L226.57,519.95L229.2,509.89L231.83,519.95L234.47,509.89L239.74,509.89L242.37,519.95L245.01,509.89L247.64,509.89L252.91,509.89L255.54,519.95L258.18,519.95L260.81,509.89L263.45,519.95L266.08,519.95L268.72,510.73" style="vector-effect: none; fill: none; stroke: rgb(187, 187, 187); stroke-opacity: 1; stroke-width: 5px; opacity: 1;"/><path class="js-line" d="M284.52,520.78L289.79,520.78" style="vector-effect: none; fill: none; stroke: rgb(187, 187, 187); stroke-opacity: 1; stroke-width: 5px; opacity: 1;"/></g><g class="points"/><g class="text"/></g><g class="trace scatter traceb34a08" style="stroke-miterlimit: 2; opacity: 1;"><g class="fills"/><g class="errorbars"/><g class="lines"><path class="js-line" d="M0,344.85L5.27,350.72L7.9,350.72L15.81,350.72L18.44,182.33L21.08,174.79L23.71,347.37L36.88,347.37L39.52,344.85L47.42,344.85L50.06,348.2L52.69,351.55L55.32,351.55L97.48,350.72" style="vector-effect: none; fill: none; stroke: rgb(0, 174, 239); stroke-opacity: 1; stroke-width: 5px; opacity: 1;"/><path class="js-line" d="M152.8,351.55" style="vector-effect: none; fill: none; stroke: rgb(0, 174, 239); stroke-opacity: 1; stroke-width: 5px; opacity: 1;"/><path class="js-line" d="M192.32,344.85L194.95,160.54" style="vector-effect: none; fill: none; stroke: rgb(0, 174, 239); stroke-opacity: 1; stroke-width: 5px; opacity: 1;"/><path class="js-line" d="M223.93,344.85L226.57,344.85" style="vector-effect: none; fill: none; stroke: rgb(0, 174, 239); stroke-opacity: 1; stroke-width: 5px; opacity: 1;"/><path class="js-line" d="M231.83,344.85" style="vector-effect: none; fill: none; stroke: rgb(0, 174, 239); stroke-opacity: 1; stroke-width: 5px; opacity: 1;"/><path class="js-line" d="M242.37,344.01" style="vector-effect: none; fill: none; stroke: rgb(0, 174, 239); stroke-opacity: 1; stroke-width: 5px; opacity: 1;"/><path class="js-line" d="M255.54,344.01L258.18,344.01" style="vector-effect: none; fill: none; stroke: rgb(0, 174, 239); stroke-opacity: 1; stroke-width: 5px; opacity: 1;"/><path class="js-line" d="M263.45,344.01L266.08,344.01" style="vector-effect: none; fill: none; stroke: rgb(0, 174, 239); stroke-opacity: 1; stroke-width: 5px; opacity: 1;"/><path class="js-line" d="M271.35,338.15L281.89,337.31L284.52,342.34L292.43,341.5L295.06,348.2L310.87,348.2L313.5,349.88L316.14,349.88L318.77,351.55L337.21,351.55L339.85,353.23L342.48,357.42L345.12,357.42L347.75,193.22L353.02,193.22L371.46,194.05L374.1,190.7L376.73,199.08L379.37,199.08L387.27,199.08L389.9,197.41L405.71,197.41L408.34,210.81L410.98,214.16L413.61,214.16L416.25,214.16L418.88,219.19L424.15,228.4L426.79,228.4L429.42,212.49L432.06,212.49L434.69,212.49L437.32,220.86L439.96,231.75L442.59,231.75L463.67,231.75L466.3,220.02L468.94,213.32L471.57,213.32L474.21,213.32L476.84,209.97L479.48,190.7L482.11,184.84L487.38,189.03L490.01,189.03L503.19,189.03L505.82,361.61L508.46,362.45L511.09,358.26L513.72,357.42L516.36,362.45L518.99,375.85L521.63,379.2L524.26,380.88L526.9,380.88L532.17,369.99L534.8,376.69L540.07,376.69L542.7,373.34L545.34,367.47L547.97,364.96L550.61,365.8L553.24,349.04L555.88,344.85L558.51,348.2L561.14,346.53L563.78,349.88L566.41,349.04L569.05,349.88L574.32,349.88L576.95,351.55L582.22,358.26L584.86,366.63L587.49,373.34L590.12,373.34L592.76,373.34L595.39,369.99L598.03,362.45L600.66,362.45L603.3,369.15L605.93,371.66L608.57,370.82L611.2,359.09L616.47,333.96L619.1,397.63L624.37,397.63L627.01,392.61L629.64,393.44L632.28,395.96L634.91,397.63L637.54,390.93L642.81,390.93L645.45,397.63L653.35,411.04L655.99,409.36L658.62,417.74L661.26,418.58L663.89,418.58L666.52,421.93L669.16,420.25L671.79,416.9L679.7,416.06L682.33,418.58L692.87,418.58L695.5,420.25L700.77,426.12L703.41,426.95L708.68,436.17L711.31,436.17L719.21,444.55L721.85,448.74L724.48,448.74L727.12,442.87L729.75,318.04L732.39,386.74" style="vector-effect: none; fill: none; stroke: rgb(0, 174, 239); stroke-opacity: 1; stroke-width: 5px; opacity: 1;"/></g><g class="points"/><g class="text"/></g><g class="trace scatter trace578bf4" style="stroke-miterlimit: 2; opacity: 1;"><g class="fills"/><g class="errorbars"/><g class="lines"><path class="js-line" d="M0,488.95L7.9,490.62L10.54,490.62L15.81,490.62L18.44,453.76L21.08,469.68L23.71,504.87L97.48,504.03" style="vector-effect: none; fill: none; stroke: rgb(202, 166, 105); stroke-opacity: 1; stroke-width: 5px; opacity: 1;"/><path class="js-line" d="M152.8,504.03" style="vector-effect: none; fill: none; stroke: rgb(202, 166, 105); stroke-opacity: 1; stroke-width: 5px; opacity: 1;"/><path class="js-line" d="M192.32,509.89L194.95,490.62" style="vector-effect: none; fill: none; stroke: rgb(202, 166, 105); stroke-opacity: 1; stroke-width: 5px; opacity: 1;"/><path class="js-line" d="M223.93,509.89L226.57,509.89" style="vector-effect: none; fill: none; stroke: rgb(202, 166, 105); stroke-opacity: 1; stroke-width: 5px; opacity: 1;"/><path class="js-line" d="M231.83,509.89" style="vector-effect: none; fill: none; stroke: rgb(202, 166, 105); stroke-opacity: 1; stroke-width: 5px; opacity: 1;"/><path class="js-line" d="M242.37,509.89" style="vector-effect: none; fill: none; stroke: rgb(202, 166, 105); stroke-opacity: 1; stroke-width: 5px; opacity: 1;"/><path class="js-line" d="M255.54,509.89L258.18,509.89" style="vector-effect: none; fill: none; stroke: rgb(202, 166, 105); stroke-opacity: 1; stroke-width: 5px; opacity: 1;"/><path class="js-line" d="M263.45,509.89L266.08,509.89" style="vector-effect: none; fill: none; stroke: rgb(202, 166, 105); stroke-opacity: 1; stroke-width: 5px; opacity: 1;"/><path class="js-line" d="M271.35,509.89L279.26,509.06L281.89,510.73L284.52,512.41L287.16,512.41L310.87,513.24L313.5,516.6L321.41,519.11L324.04,519.11L345.12,519.11L347.75,509.06L387.27,508.22L389.9,516.6L426.79,517.43L429.42,519.95L434.69,519.95L437.32,521.62" style="vector-effect: none; fill: none; stroke: rgb(202, 166, 105); stroke-opacity: 1; stroke-width: 5px; opacity: 1;"/></g><g class="points"/><g class="text"/></g><g class="trace scatter traceb40d09" style="stroke-miterlimit: 2; opacity: 1;"><g class="fills"/><g class="errorbars"/><g class="lines"><path class="js-line" d="M0,499L7.9,500.68L10.54,500.68L15.81,500.68L18.44,473.03L21.08,471.36L23.71,499.84L97.48,499" style="vector-effect: none; fill: none; stroke: rgb(255, 192, 203); stroke-opacity: 1; stroke-width: 5px; opacity: 1;"/><path class="js-line" d="M152.8,499" style="vector-effect: none; fill: none; stroke: rgb(255, 192, 203); stroke-opacity: 1; stroke-width: 5px; opacity: 1;"/><path class="js-line" d="M192.32,518.27L194.95,506.54" style="vector-effect: none; fill: none; stroke: rgb(255, 192, 203); stroke-opacity: 1; stroke-width: 5px; opacity: 1;"/><path class="js-line" d="M223.93,518.27L226.57,518.27" style="vector-effect: none; fill: none; stroke: rgb(255, 192, 203); stroke-opacity: 1; stroke-width: 5px; opacity: 1;"/><path class="js-line" d="M231.83,518.27" style="vector-effect: none; fill: none; stroke: rgb(255, 192, 203); stroke-opacity: 1; stroke-width: 5px; opacity: 1;"/><path class="js-line" d="M242.37,518.27" style="vector-effect: none; fill: none; stroke: rgb(255, 192, 203); stroke-opacity: 1; stroke-width: 5px; opacity: 1;"/><path class="js-line" d="M255.54,518.27L258.18,518.27" style="vector-effect: none; fill: none; stroke: rgb(255, 192, 203); stroke-opacity: 1; stroke-width: 5px; opacity: 1;"/><path class="js-line" d="M263.45,518.27L266.08,518.27" style="vector-effect: none; fill: none; stroke: rgb(255, 192, 203); stroke-opacity: 1; stroke-width: 5px; opacity: 1;"/><path class="js-line" d="M271.35,517.43L281.89,518.27L284.52,519.11L308.23,519.11" style="vector-effect: none; fill: none; stroke: rgb(255, 192, 203); stroke-opacity: 1; stroke-width: 5px; opacity: 1;"/><path class="js-line" d="M347.75,519.11L387.27,519.11" style="vector-effect: none; fill: none; stroke: rgb(255, 192, 203); stroke-opacity: 1; stroke-width: 5px; opacity: 1;"/></g><g class="points"/><g class="text"/></g><g class="trace scatter tracebd762d" style="stroke-miterlimit: 2; opacity: 1;"><g class="fills"/><g class="errorbars"/><g class="lines"><path class="js-line" d="M0,486.44L7.9,488.11L10.54,488.11L15.81,488.11" style="vector-effect: none; fill: none; stroke: rgb(187, 187, 187); stroke-opacity: 1; stroke-width: 5px; opacity: 1;"/><path class="js-line" d="M23.71,487.27L36.88,487.27L39.52,488.95L97.48,488.11L100.11,445.39L113.28,445.39L115.92,455.44L147.53,455.44L152.8,493.14L155.43,394.28L160.7,394.28L176.51,394.28L179.14,396.79L181.78,399.31L184.41,399.31L187.05,404.33L189.68,404.33L192.32,467.17" style="vector-effect: none; fill: none; stroke: rgb(187, 187, 187); stroke-opacity: 1; stroke-width: 5px; opacity: 1;"/><path class="js-line" d="M197.59,405.17L221.3,405.17L223.93,468L226.57,468L229.2,405.17L231.83,468L234.47,406.85L237.1,410.2L239.74,410.2L242.37,470.52L245.01,410.2L252.91,410.2L255.54,470.52L258.18,470.52L260.81,410.2L263.45,470.52L266.08,470.52L268.72,428.63L271.35,478.9L279.26,479.73L281.89,484.76L292.43,483.92L295.06,487.27L313.5,486.44L316.14,488.11L321.41,488.95L324.04,488.95L345.12,488.95" style="vector-effect: none; fill: none; stroke: rgb(187, 187, 187); stroke-opacity: 1; stroke-width: 5px; opacity: 1;"/><path class="js-line" d="M505.82,519.95L513.72,520.78" style="vector-effect: none; fill: none; stroke: rgb(187, 187, 187); stroke-opacity: 1; stroke-width: 5px; opacity: 1;"/></g><g class="points"/><g class="text"/></g><g class="trace scatter traceb49ae5" style="stroke-miterlimit: 2; opacity: 1;"><g class="fills"/><g class="errorbars"/><g class="lines"><path class="js-line" d="M0,504.87L15.81,505.7" style="vector-effect: none; fill: none; stroke: rgb(187, 187, 187); stroke-opacity: 1; stroke-width: 5px; opacity: 1;"/><path class="js-line" d="M23.71,504.87L97.48,504.03L100.11,477.22L113.28,477.22L115.92,481.41L147.53,481.41L152.8,505.7L155.43,483.08L160.7,483.08L179.14,483.92L181.78,484.76L189.68,483.92L192.32,507.38" style="vector-effect: none; fill: none; stroke: rgb(187, 187, 187); stroke-opacity: 1; stroke-width: 5px; opacity: 1;"/><path class="js-line" d="M197.59,484.76L221.3,484.76L223.93,507.38L226.57,507.38L229.2,484.76L231.83,507.38L234.47,486.44L237.1,489.79L239.74,489.79L242.37,509.89L245.01,489.79L252.91,489.79L255.54,509.89L258.18,509.89L260.81,489.79L263.45,509.89L266.08,509.89L268.72,493.14L271.35,513.24L292.43,513.24L295.06,514.08L300.33,517.43L302.97,517.43L313.5,516.6L316.14,518.27L321.41,519.11L324.04,519.11L345.12,519.11" style="vector-effect: none; fill: none; stroke: rgb(187, 187, 187); stroke-opacity: 1; stroke-width: 5px; opacity: 1;"/></g><g class="points"/><g class="text"/></g></g></g><g class="overplot"/><path class="xlines-above crisp" d="M0,0" style="fill: none;"/><path class="ylines-above crisp" d="M0,0" style="fill: none;"/><g class="overlines-above"/><g class="xaxislayer-above"><g class="xtick"><text text-anchor="middle" x="0" y="563" transform="translate(76.34,0)" style="font-family: 'Open Sans', verdana, arial, sans-serif; font-size: 12px; fill: rgb(42, 63, 95); fill-opacity: 1; white-space: pre; opacity: 1;">1.7.23</text></g><g class="xtick"><text text-anchor="middle" x="0" y="563" style="font-family: 'Open Sans', verdana, arial, sans-serif; font-size: 12px; fill: rgb(42, 63, 95); fill-opacity: 1; white-space: pre; opacity: 1;" transform="translate(158.01,0)">1.8.23</text></g><g class="xtick"><text text-anchor="middle" x="0" y="563" style="font-family: 'Open Sans', verdana, arial, sans-serif; font-size: 12px; fill: rgb(42, 63, 95); fill-opacity: 1; white-space: pre; opacity: 1;" transform="translate(239.68,0)">1.9.23</text></g><g class="xtick"><text text-anchor="middle" x="0" y="563" style="font-family: 'Open Sans', verdana, arial, sans-serif; font-size: 12px; fill: rgb(42, 63, 95); fill-opacity: 1; white-space: pre; opacity: 1;" transform="translate(318.72,0)">1.10.23</text></g><g class="xtick"><text text-anchor="middle" x="0" y="563" style="font-family: 'Open Sans', verdana, arial, sans-serif; font-size: 12px; fill: rgb(42, 63, 95); fill-opacity: 1; white-space: pre; opacity: 1;" transform="translate(400.39,0)">1.11.23</text></g><g class="xtick"><text text-anchor="middle" x="0" y="563" style="font-family: 'Open Sans', verdana, arial, sans-serif; font-size: 12px; fill: rgb(42, 63, 95); fill-opacity: 1; white-space: pre; opacity: 1;" transform="translate(479.42,0)">1.12.23</text></g><g class="xtick"><text text-anchor="middle" x="0" y="563" style="font-family: 'Open Sans', verdana, arial, sans-serif; font-size: 12px; fill: rgb(42, 63, 95); fill-opacity: 1; white-space: pre; opacity: 1;" transform="translate(561.0899999999999,0)">1.1.24</text></g><g class="xtick"><text text-anchor="middle" x="0" y="563" style="font-family: 'Open Sans', verdana, arial, sans-serif; font-size: 12px; fill: rgb(42, 63, 95); fill-opacity: 1; white-space: pre; opacity: 1;" transform="translate(642.76,0)">1.2.24</text></g><g class="xtick"><text text-anchor="middle" x="0" y="563" style="font-family: 'Open Sans', verdana, arial, sans-serif; font-size: 12px; fill: rgb(42, 63, 95); fill-opacity: 1; white-space: pre; opacity: 1;" transform="translate(719.16,0)">1.3.24</text></g><g class="xtick"><text text-anchor="middle" x="0" y="563" style="font-family: 'Open Sans', verdana, arial, sans-serif; font-size: 12px; fill: rgb(42, 63, 95); fill-opacity: 1; white-space: pre; opacity: 1;" transform="translate(800.83,0)">1.4.24</text></g></g><g class="yaxislayer-above"><g class="ytick"><text text-anchor="end" x="49" y="4.199999999999999" transform="translate(0,550)" style="font-family: 'Open Sans', verdana, arial, sans-serif; font-size: 12px; fill: rgb(42, 63, 95); fill-opacity: 1; white-space: pre; opacity: 1;">0%</text></g><g class="ytick"><text text-anchor="end" x="49" y="4.199999999999999" style="font-family: 'Open Sans', verdana, arial, sans-serif; font-size: 12px; fill: rgb(42, 63, 95); fill-opacity: 1; white-space: pre; opacity: 1;" transform="translate(0,466.22)">10%</text></g><g class="ytick"><text text-anchor="end" x="49" y="4.199999999999999" style="font-family: 'Open Sans', verdana, arial, sans-serif; font-size: 12px; fill: rgb(42, 63, 95); fill-opacity: 1; white-space: pre; opacity: 1;" transform="translate(0,382.45)">20%</text></g><g class="ytick"><text text-anchor="end" x="49" y="4.199999999999999" style="font-family: 'Open Sans', verdana, arial, sans-serif; font-size: 12px; fill: rgb(42, 63, 95); fill-opacity: 1; white-space: pre; opacity: 1;" transform="translate(0,298.67)">30%</text></g><g class="ytick"><text text-anchor="end" x="49" y="4.199999999999999" style="font-family: 'Open Sans', verdana, arial, sans-serif; font-size: 12px; fill: rgb(42, 63, 95); fill-opacity: 1; white-space: pre; opacity: 1;" transform="translate(0,214.89)">40%</text></g><g class="ytick"><text text-anchor="end" x="49" y="4.199999999999999" style="font-family: 'Open Sans', verdana, arial, sans-serif; font-size: 12px; fill: rgb(42, 63, 95); fill-opacity: 1; white-space: pre; opacity: 1;" transform="translate(0,131.11)">50%</text></g><g class="ytick"><text text-anchor="end" x="49" y="4.199999999999999" style="font-family: 'Open Sans', verdana, arial, sans-serif; font-size: 12px; fill: rgb(42, 63, 95); fill-opacity: 1; white-space: pre; opacity: 1;" transform="translate(0,47.34)">60%</text></g></g><g class="overaxes-above"/></g></g><g class="polarlayer"/><g class="smithlayer"/><g class="ternarylayer"/><g class="geolayer"/><g class="funnelarealayer"/><g class="pielayer"/><g class="iciclelayer"/><g class="treemaplayer"/><g class="sunburstlayer"/><g class="glimages"/><defs id="topdefs-234768"><g class="clips"/><clipPath id="legend234768"><rect width="359" height="295" x="0" y="0"/></clipPath></defs><g class="layer-above"><g class="imagelayer"/><g class="shapelayer"/></g><g class="infolayer"><g class="legend" pointer-events="all" transform="translate(829.28,20)"><rect class="bg" shape-rendering="crispEdges" style="stroke: rgb(68, 68, 68); stroke-opacity: 1; fill: rgb(255, 255, 255); fill-opacity: 1; stroke-width: 0px;" width="359" height="295" x="0" y="0"/><g class="scrollbox" transform="" clip-path="url(#legend234768)"><g class="groups"><g class="traces" transform="translate(0,14.5)" style="opacity: 1;"><text class="legendtext" text-anchor="start" x="40" y="4.680000000000001" style="font-family: 'Open Sans', verdana, arial, sans-serif; font-size: 12px; fill: rgb(42, 63, 95); fill-opacity: 1; white-space: pre;">Volební účast v procentech ve 2. kole - : 51.92% a více</text><g class="layers" style="opacity: 1;"><g class="legendfill"/><g class="legendlines"><path class="js-line" d="M5,0h30" style="fill: none; stroke: rgb(187, 187, 187); stroke-opacity: 1; stroke-width: 5px;"/></g><g class="legendsymbols"><g class="legendpoints"/></g></g><rect class="legendtoggle" x="0" y="-9.5" width="353.1875" height="19" style="fill: rgb(0, 0, 0); fill-opacity: 0;"/></g><g class="traces" transform="translate(0,33.5)" style="opacity: 1;"><text class="legendtext" text-anchor="start" x="40" y="4.680000000000001" style="font-family: 'Open Sans', verdana, arial, sans-serif; font-size: 12px; fill: rgb(42, 63, 95); fill-opacity: 1; white-space: pre;">Vítěz - : Korčok Ivan</text><g class="layers" style="opacity: 1;"><g class="legendfill"/><g class="legendlines"><path class="js-line" d="M5,0h30" style="fill: none; stroke: rgb(187, 187, 187); stroke-opacity: 1; stroke-width: 5px;"/></g><g class="legendsymbols"><g class="legendpoints"/></g></g><rect class="legendtoggle" x="0" y="-9.5" width="353.1875" height="19" style="fill: rgb(0, 0, 0); fill-opacity: 0;"/></g><g class="traces" transform="translate(0,52.5)" style="opacity: 1;"><text class="legendtext" text-anchor="start" x="40" y="4.680000000000001" style="font-family: 'Open Sans', verdana, arial, sans-serif; font-size: 12px; fill: rgb(42, 63, 95); fill-opacity: 1; white-space: pre;">Vítěz - : Pellegrini Peter</text><g class="layers" style="opacity: 1;"><g class="legendfill"/><g class="legendlines"><path class="js-line" d="M5,0h30" style="fill: none; stroke: rgb(187, 187, 187); stroke-opacity: 1; stroke-width: 5px;"/></g><g class="legendsymbols"><g class="legendpoints"/></g></g><rect class="legendtoggle" x="0" y="-9.5" width="353.1875" height="19" style="fill: rgb(0, 0, 0); fill-opacity: 0;"/></g><g class="traces" transform="translate(0,71.5)" style="opacity: 1;"><text class="legendtext" text-anchor="start" x="40" y="4.680000000000001" style="font-family: 'Open Sans', verdana, arial, sans-serif; font-size: 12px; fill: rgb(42, 63, 95); fill-opacity: 1; white-space: pre;">Volební účast v procentech ve 2. kole - : Méně než 51.92%</text><g class="layers" style="opacity: 1;"><g class="legendfill"/><g class="legendlines"><path class="js-line" d="M5,0h30" style="fill: none; stroke: rgb(187, 187, 187); stroke-opacity: 1; stroke-width: 5px;"/></g><g class="legendsymbols"><g class="legendpoints"/></g></g><rect class="legendtoggle" x="0" y="-9.5" width="353.1875" height="19" style="fill: rgb(0, 0, 0); fill-opacity: 0;"/></g><g class="traces" transform="translate(0,90.5)" style="opacity: 1;"><text class="legendtext" text-anchor="start" x="40" y="4.680000000000001" style="font-family: 'Open Sans', verdana, arial, sans-serif; font-size: 12px; fill: rgb(42, 63, 95); fill-opacity: 1; white-space: pre;">Prezident bude zvolen v 1.kole - : Ne</text><g class="layers" style="opacity: 1;"><g class="legendfill"/><g class="legendlines"><path class="js-line" d="M5,0h30" style="fill: none; stroke: rgb(187, 187, 187); stroke-opacity: 1; stroke-width: 5px;"/></g><g class="legendsymbols"><g class="legendpoints"/></g></g><rect class="legendtoggle" x="0" y="-9.5" width="353.1875" height="19" style="fill: rgb(0, 0, 0); fill-opacity: 0;"/></g><g class="traces" transform="translate(0,109.5)" style="opacity: 1;"><text class="legendtext" text-anchor="start" x="40" y="4.680000000000001" style="font-family: 'Open Sans', verdana, arial, sans-serif; font-size: 12px; fill: rgb(42, 63, 95); fill-opacity: 1; white-space: pre;">Kubiš Ján</text><g class="layers" style="opacity: 1;"><g class="legendfill"/><g class="legendlines"><path class="js-line" d="M5,0h30" style="fill: none; stroke: rgb(255, 1, 170); stroke-opacity: 1; stroke-width: 5px;"/></g><g class="legendsymbols"><g class="legendpoints"/></g></g><rect class="legendtoggle" x="0" y="-9.5" width="353.1875" height="19" style="fill: rgb(0, 0, 0); fill-opacity: 0;"/></g><g class="traces" transform="translate(0,128.5)" style="opacity: 1;"><text class="legendtext" text-anchor="start" x="40" y="4.680000000000001" style="font-family: 'Open Sans', verdana, arial, sans-serif; font-size: 12px; fill: rgb(42, 63, 95); fill-opacity: 1; white-space: pre;">Pellegrini Peter</text><g class="layers" style="opacity: 1;"><g class="legendfill"/><g class="legendlines"><path class="js-line" d="M5,0h30" style="fill: none; stroke: rgb(138, 44, 81); stroke-opacity: 1; stroke-width: 5px;"/></g><g class="legendsymbols"><g class="legendpoints"/></g></g><rect class="legendtoggle" x="0" y="-9.5" width="353.1875" height="19" style="fill: rgb(0, 0, 0); fill-opacity: 0;"/></g><g class="traces" transform="translate(0,147.5)" style="opacity: 1;"><text class="legendtext" text-anchor="start" x="40" y="4.680000000000001" style="font-family: 'Open Sans', verdana, arial, sans-serif; font-size: 12px; fill: rgb(42, 63, 95); fill-opacity: 1; white-space: pre;">Fico Robert</text><g class="layers" style="opacity: 1;"><g class="legendfill"/><g class="legendlines"><path class="js-line" d="M5,0h30" style="fill: none; stroke: rgb(238, 58, 67); stroke-opacity: 1; stroke-width: 5px;"/></g><g class="legendsymbols"><g class="legendpoints"/></g></g><rect class="legendtoggle" x="0" y="-9.5" width="353.1875" height="19" style="fill: rgb(0, 0, 0); fill-opacity: 0;"/></g><g class="traces" transform="translate(0,166.5)" style="opacity: 1;"><text class="legendtext" text-anchor="start" x="40" y="4.680000000000001" style="font-family: 'Open Sans', verdana, arial, sans-serif; font-size: 12px; fill: rgb(42, 63, 95); fill-opacity: 1; white-space: pre;">Vítěz - : Fico Robert</text><g class="layers" style="opacity: 1;"><g class="legendfill"/><g class="legendlines"><path class="js-line" d="M5,0h30" style="fill: none; stroke: rgb(187, 187, 187); stroke-opacity: 1; stroke-width: 5px;"/></g><g class="legendsymbols"><g class="legendpoints"/></g></g><rect class="legendtoggle" x="0" y="-9.5" width="353.1875" height="19" style="fill: rgb(0, 0, 0); fill-opacity: 0;"/></g><g class="traces" transform="translate(0,185.5)" style="opacity: 1;"><text class="legendtext" text-anchor="start" x="40" y="4.680000000000001" style="font-family: 'Open Sans', verdana, arial, sans-serif; font-size: 12px; fill: rgb(42, 63, 95); fill-opacity: 1; white-space: pre;">Vítěz - : Lajčák Miroslav</text><g class="layers" style="opacity: 1;"><g class="legendfill"/><g class="legendlines"><path class="js-line" d="M5,0h30" style="fill: none; stroke: rgb(187, 187, 187); stroke-opacity: 1; stroke-width: 5px;"/></g><g class="legendsymbols"><g class="legendpoints"/></g></g><rect class="legendtoggle" x="0" y="-9.5" width="353.1875" height="19" style="fill: rgb(0, 0, 0); fill-opacity: 0;"/></g><g class="traces" transform="translate(0,204.5)" style="opacity: 1;"><text class="legendtext" text-anchor="start" x="40" y="4.680000000000001" style="font-family: 'Open Sans', verdana, arial, sans-serif; font-size: 12px; fill: rgb(42, 63, 95); fill-opacity: 1; white-space: pre;">Korčok Ivan</text><g class="layers" style="opacity: 1;"><g class="legendfill"/><g class="legendlines"><path class="js-line" d="M5,0h30" style="fill: none; stroke: rgb(0, 174, 239); stroke-opacity: 1; stroke-width: 5px;"/></g><g class="legendsymbols"><g class="legendpoints"/></g></g><rect class="legendtoggle" x="0" y="-9.5" width="353.1875" height="19" style="fill: rgb(0, 0, 0); fill-opacity: 0;"/></g><g class="traces" transform="translate(0,223.5)" style="opacity: 1;"><text class="legendtext" text-anchor="start" x="40" y="4.680000000000001" style="font-family: 'Open Sans', verdana, arial, sans-serif; font-size: 12px; fill: rgb(42, 63, 95); fill-opacity: 1; white-space: pre;">Mistrík Robert</text><g class="layers" style="opacity: 1;"><g class="legendfill"/><g class="legendlines"><path class="js-line" d="M5,0h30" style="fill: none; stroke: rgb(202, 166, 105); stroke-opacity: 1; stroke-width: 5px;"/></g><g class="legendsymbols"><g class="legendpoints"/></g></g><rect class="legendtoggle" x="0" y="-9.5" width="353.1875" height="19" style="fill: rgb(0, 0, 0); fill-opacity: 0;"/></g><g class="traces" transform="translate(0,242.5)" style="opacity: 1;"><text class="legendtext" text-anchor="start" x="40" y="4.680000000000001" style="font-family: 'Open Sans', verdana, arial, sans-serif; font-size: 12px; fill: rgb(42, 63, 95); fill-opacity: 1; white-space: pre;">Lajčák Miroslav</text><g class="layers" style="opacity: 1;"><g class="legendfill"/><g class="legendlines"><path class="js-line" d="M5,0h30" style="fill: none; stroke: rgb(255, 192, 203); stroke-opacity: 1; stroke-width: 5px;"/></g><g class="legendsymbols"><g class="legendpoints"/></g></g><rect class="legendtoggle" x="0" y="-9.5" width="353.1875" height="19" style="fill: rgb(0, 0, 0); fill-opacity: 0;"/></g><g class="traces" transform="translate(0,261.5)" style="opacity: 1;"><text class="legendtext" text-anchor="start" x="40" y="4.680000000000001" style="font-family: 'Open Sans', verdana, arial, sans-serif; font-size: 12px; fill: rgb(42, 63, 95); fill-opacity: 1; white-space: pre;">Vítěz - : Kubiš Ján</text><g class="layers" style="opacity: 1;"><g class="legendfill"/><g class="legendlines"><path class="js-line" d="M5,0h30" style="fill: none; stroke: rgb(187, 187, 187); stroke-opacity: 1; stroke-width: 5px;"/></g><g class="legendsymbols"><g class="legendpoints"/></g></g><rect class="legendtoggle" x="0" y="-9.5" width="353.1875" height="19" style="fill: rgb(0, 0, 0); fill-opacity: 0;"/></g><g class="traces" transform="translate(0,280.5)" style="opacity: 1;"><text class="legendtext" text-anchor="start" x="40" y="4.680000000000001" style="font-family: 'Open Sans', verdana, arial, sans-serif; font-size: 12px; fill: rgb(42, 63, 95); fill-opacity: 1; white-space: pre;">Vítěz - : Mistrík Robert</text><g class="layers" style="opacity: 1;"><g class="legendfill"/><g class="legendlines"><path class="js-line" d="M5,0h30" style="fill: none; stroke: rgb(187, 187, 187); stroke-opacity: 1; stroke-width: 5px;"/></g><g class="legendsymbols"><g class="legendpoints"/></g></g><rect class="legendtoggle" x="0" y="-9.5" width="353.1875" height="19" style="fill: rgb(0, 0, 0); fill-opacity: 0;"/></g></g></g><rect class="scrollbar" rx="20" ry="3" width="0" height="0" style="fill: rgb(128, 139, 164); fill-opacity: 1;" x="0" y="0"/></g><g class="g-gtitle"/><g class="g-xtitle"/><g class="g-ytitle"/></g></svg>