<svg class="main-svg" xmlns="http://www.w3.org/2000/svg" xmlns:xlink="http://www.w3.org/1999/xlink" width="300" height="135" style="" viewBox="0 0 300 135"><rect x="0" y="0" width="300" height="135" style="fill: rgb(255, 255, 255); fill-opacity: 1;"/><defs id="defs-9d0d93"><g class="clips"><clipPath id="clip9d0d93xyplot" class="plotclip"><rect width="280" height="75"/></clipPath><clipPath class="axesclip" id="clip9d0d93x"><rect x="10" y="0" width="280" height="135"/></clipPath><clipPath class="axesclip" id="clip9d0d93y"><rect x="0" y="50" width="300" height="75"/></clipPath><clipPath class="axesclip" id="clip9d0d93xy"><rect x="10" y="50" width="280" height="75"/></clipPath></g><g class="gradients"/><g class="patterns"/></defs><g class="bglayer"/><g class="layer-below"><g class="imagelayer"/><g class="shapelayer"/></g><g class="cartesianlayer"><g class="subplot xy"><g class="layer-subplot"><g class="shapelayer"/><g class="imagelayer"/></g><g class="minor-gridlayer"><g class="x"/><g class="y"/></g><g class="gridlayer"><g class="x"><path class="xgrid crisp" transform="translate(23.15,0)" d="M0,50v75" style="stroke: rgb(235, 240, 248); stroke-opacity: 1; stroke-width: 1px;"/><path class="xgrid crisp" transform="translate(104.65,0)" d="M0,50v75" style="stroke: rgb(235, 240, 248); stroke-opacity: 1; stroke-width: 1px;"/><path class="xgrid crisp" transform="translate(184.84,0)" d="M0,50v75" style="stroke: rgb(235, 240, 248); stroke-opacity: 1; stroke-width: 1px;"/><path class="xgrid crisp" transform="translate(265.02,0)" d="M0,50v75" style="stroke: rgb(235, 240, 248); stroke-opacity: 1; stroke-width: 1px;"/></g><g class="y"><path class="ygrid crisp" transform="translate(0,102.77000000000001)" d="M10,0h280" style="stroke: rgb(235, 240, 248); stroke-opacity: 1; stroke-width: 1px;"/><path class="ygrid crisp" transform="translate(0,80.53999999999999)" d="M10,0h280" style="stroke: rgb(235, 240, 248); stroke-opacity: 1; stroke-width: 1px;"/><path class="ygrid crisp" transform="translate(0,58.31)" d="M10,0h280" style="stroke: rgb(235, 240, 248); stroke-opacity: 1; stroke-width: 1px;"/></g></g><g class="zerolinelayer"><path class="yzl zl crisp" transform="translate(0,125)" d="M10,0h280" style="stroke: rgb(235, 240, 248); stroke-opacity: 1; stroke-width: 2px;"/></g><path class="xlines-below"/><path class="ylines-below"/><g class="overlines-below"/><g class="xaxislayer-below"/><g class="yaxislayer-below"/><g class="overaxes-below"/><g class="plot" transform="translate(10,50)" clip-path="url(#clip9d0d93xyplot)"><g class="scatterlayer mlayer"><g class="trace scatter trace220d92" style="stroke-miterlimit: 2; opacity: 1;"><g class="fills"/><g class="errorbars"/><g class="lines"><path class="js-line" d="M0,51.77L3.94,48.88L5.26,48.88L10.52,49.1L11.83,48.32L30.23,47.43L31.55,46.77L56.53,45.99L57.84,41.32L73.62,41.32L76.24,44.54L80.19,43.88L81.5,43.88L90.7,43.65L92.02,46.1L94.65,47.32L95.96,46.88L97.28,46.43L98.59,47.43L132.77,46.77L134.08,44.54L136.71,45.43L138.03,45.43L139.34,45.21L140.66,41.54L143.29,39.32L144.6,39.32L145.92,38.76L147.23,35.1L149.86,32.98L151.17,32.98L155.12,32.32L156.43,31.32L160.38,28.87L161.69,28.87L172.21,29.2L173.52,30.32L184.04,30.32L185.35,28.76L186.67,28.76L187.98,26.09L193.24,26.09L194.55,23.09L202.44,23.09L203.76,21.31L211.64,18.42L212.96,18.42L215.59,14.64L216.9,14.64L218.22,12.75L219.53,8.2L231.36,8.2L232.68,9.86L235.31,10.64L236.62,10.64L239.25,12.86L240.56,13.53L247.14,12.31L248.45,12.31L256.34,12.42L257.65,8.75L260.28,5.08L261.6,4.97L265.54,5.86L266.85,3.75L270.8,4.75L272.11,5.64L274.74,6.75L276.06,10.53L277.37,11.86L278.69,10.53L280,11.31" style="vector-effect: none; fill: none; stroke: rgb(138, 44, 81); stroke-opacity: 1; stroke-width: 5px; opacity: 1;"/></g><g class="points"/><g class="text"/></g><g class="trace scatter trace1474ff" style="stroke-miterlimit: 2; opacity: 1;"><g class="fills"/><g class="errorbars"/><g class="lines"><path class="js-line" d="M0,26.54L5.26,28.09L6.57,28.09L10.52,27.87L11.83,27.2L76.24,28.2L77.56,31.32L90.7,30.32L92.02,27.76L94.65,23.98L95.96,24.98L97.28,25.98L98.59,22.65L110.42,22.65L111.74,24.31L113.05,24.31L114.37,22.65L115.68,24.31L117,22.31L119.62,21.87L120.94,23.98L123.57,21.87L124.88,21.87L126.2,21.87L127.51,23.98L128.83,23.98L130.14,21.87L132.77,23.98L134.08,21.98L136.71,24.54L138.03,24.54L145.92,25.76L147.23,27.65L151.17,28.43L152.49,28.43L169.58,29.2L170.89,29.87L202.44,30.87L203.76,32.65L212.96,34.98L214.27,32.87L218.22,33.98L219.53,35.43L231.36,35.43L232.68,33.87L235.31,32.98L236.62,32.98L237.93,32.54L239.25,29.98L241.88,29.43L243.19,29.76L256.34,29.2L257.65,32.09L260.28,35.43L261.6,35.54L264.23,33.76L265.54,32.98L268.17,35.1L269.48,34.54L274.74,32.09L276.06,28.32L277.37,26.98L278.69,28.32L280,27.54" style="vector-effect: none; fill: none; stroke: rgb(0, 174, 239); stroke-opacity: 1; stroke-width: 5px; opacity: 1;"/></g><g class="points"/><g class="text"/></g><g class="trace scatter tracebfe54c" style="stroke-miterlimit: 2; opacity: 1;"><g class="fills"/><g class="errorbars"/><g class="lines"><path class="js-line" d="M0,67.22L14.46,67.33L15.77,67.33L56.53,68.55L57.84,69.44L73.62,69.44L76.24,68.11L77.56,71L80.19,71L97.28,71.89L98.59,72.33L155.12,73.11L156.43,73.55L193.24,73.55" style="vector-effect: none; fill: none; stroke: rgb(255, 192, 203); stroke-opacity: 1; stroke-width: 5px; opacity: 1;"/></g><g class="points"/><g class="text"/></g><g class="trace scatter trace358498" style="stroke-miterlimit: 2; opacity: 1;"><g class="fills"/><g class="errorbars"/><g class="lines"><path class="js-line" d="M0,63.33L7.89,63.77L9.2,63.33L34.18,64.66L35.49,64.66L56.53,64.44L57.84,66.11L76.24,65.44L77.56,66.89L92.02,67.22L93.33,68.44L95.96,67.77L97.28,67.11L99.91,69L101.22,69L134.08,68.11L135.4,67.33L140.66,68.55L141.97,69.11L155.12,70.33L156.43,70.78L165.63,71.55L166.95,71.55L212.96,71.55L214.27,73.67L218.22,73.89" style="vector-effect: none; fill: none; stroke: rgb(238, 58, 67); stroke-opacity: 1; stroke-width: 5px; opacity: 1;"/></g><g class="points"/><g class="text"/></g><g class="trace scatter trace5a41ea" style="stroke-miterlimit: 2; opacity: 1;"><g class="fills"/><g class="errorbars"/><g class="lines"><path class="js-line" d="M0,66.22L7.89,66.44L9.2,64.88L11.83,68.33L13.15,68.33L94.65,68.89L95.96,69.33L98.59,69L99.91,69L140.66,70.11L141.97,70.33L156.43,71.55L157.75,71.78L163,72.11L164.32,72.11L212.96,73.33L214.27,73.67L218.22,73.89" style="vector-effect: none; fill: none; stroke: rgb(202, 166, 105); stroke-opacity: 1; stroke-width: 5px; opacity: 1;"/></g><g class="points"/><g class="text"/></g></g></g><g class="overplot"/><path class="xlines-above crisp" d="M0,0" style="fill: none;"/><path class="ylines-above crisp" d="M0,0" style="fill: none;"/><g class="overlines-above"/><g class="xaxislayer-above"/><g class="yaxislayer-above"/><g class="overaxes-above"/></g></g><g class="polarlayer"/><g class="smithlayer"/><g class="ternarylayer"/><g class="geolayer"/><g class="funnelarealayer"/><g class="pielayer"/><g class="iciclelayer"/><g class="treemaplayer"/><g class="sunburstlayer"/><g class="glimages"/><defs id="topdefs-9d0d93"><g class="clips"/></defs><g class="layer-above"><g class="imagelayer"/><g class="shapelayer"/></g><g class="infolayer"><g class="g-gtitle"><text class="gtitle" x="15" y="25" text-anchor="start" dy="0em" style="font-family: Ubuntu, verdana, arial, sans-serif; font-size: 16px; fill: rgb(233, 84, 32); opacity: 1; font-weight: normal; white-space: pre;">Prezident/ka 2024</text></g><g class="g-xtitle"/><g class="g-ytitle"/></g></svg>