<svg class="main-svg" xmlns="http://www.w3.org/2000/svg" xmlns:xlink="http://www.w3.org/1999/xlink" width="1200" height="600" style="" viewBox="0 0 1200 600"><rect x="0" y="0" width="1200" height="600" style="fill: rgb(255, 255, 255); fill-opacity: 1;"/><defs id="defs-2c7e46"><g class="clips"><clipPath id="clip2c7e46xyplot" class="plotclip"><rect width="990" height="530"/></clipPath><clipPath class="axesclip" id="clip2c7e46x"><rect x="50" y="0" width="990" height="600"/></clipPath><clipPath class="axesclip" id="clip2c7e46y"><rect x="0" y="20" width="1200" height="530"/></clipPath><clipPath class="axesclip" id="clip2c7e46xy"><rect x="50" y="20" width="990" height="530"/></clipPath></g><g class="gradients"/><g class="patterns"/></defs><g class="bglayer"/><g class="layer-below"><g class="imagelayer"/><g class="shapelayer"/></g><g class="cartesianlayer"><g class="subplot xy"><g class="layer-subplot"><g class="shapelayer"/><g class="imagelayer"/></g><g class="minor-gridlayer"><g class="x"/><g class="y"/></g><g class="gridlayer"><g class="x"><path class="xgrid crisp" transform="translate(83,0)" d="M0,20v530" style="stroke: rgb(235, 240, 248); stroke-opacity: 1; stroke-width: 1px;"/><path class="xgrid crisp" transform="translate(185.3,0)" d="M0,20v530" style="stroke: rgb(235, 240, 248); stroke-opacity: 1; stroke-width: 1px;"/><path class="xgrid crisp" transform="translate(287.6,0)" d="M0,20v530" style="stroke: rgb(235, 240, 248); stroke-opacity: 1; stroke-width: 1px;"/><path class="xgrid crisp" transform="translate(386.6,0)" d="M0,20v530" style="stroke: rgb(235, 240, 248); stroke-opacity: 1; stroke-width: 1px;"/><path class="xgrid crisp" transform="translate(488.9,0)" d="M0,20v530" style="stroke: rgb(235, 240, 248); stroke-opacity: 1; stroke-width: 1px;"/><path class="xgrid crisp" transform="translate(587.9,0)" d="M0,20v530" style="stroke: rgb(235, 240, 248); stroke-opacity: 1; stroke-width: 1px;"/><path class="xgrid crisp" transform="translate(690.2,0)" d="M0,20v530" style="stroke: rgb(235, 240, 248); stroke-opacity: 1; stroke-width: 1px;"/><path class="xgrid crisp" transform="translate(792.5,0)" d="M0,20v530" style="stroke: rgb(235, 240, 248); stroke-opacity: 1; stroke-width: 1px;"/><path class="xgrid crisp" transform="translate(888.2,0)" d="M0,20v530" style="stroke: rgb(235, 240, 248); stroke-opacity: 1; stroke-width: 1px;"/><path class="xgrid crisp" transform="translate(990.5,0)" d="M0,20v530" style="stroke: rgb(235, 240, 248); stroke-opacity: 1; stroke-width: 1px;"/></g><g class="y"><path class="ygrid crisp" transform="translate(0,451.08)" d="M50,0h990" style="stroke: rgb(235, 240, 248); stroke-opacity: 1; stroke-width: 1px;"/><path class="ygrid crisp" transform="translate(0,352.16)" d="M50,0h990" style="stroke: rgb(235, 240, 248); stroke-opacity: 1; stroke-width: 1px;"/><path class="ygrid crisp" transform="translate(0,253.24)" d="M50,0h990" style="stroke: rgb(235, 240, 248); stroke-opacity: 1; stroke-width: 1px;"/><path class="ygrid crisp" transform="translate(0,154.32)" d="M50,0h990" style="stroke: rgb(235, 240, 248); stroke-opacity: 1; stroke-width: 1px;"/><path class="ygrid crisp" transform="translate(0,55.4)" d="M50,0h990" style="stroke: rgb(235, 240, 248); stroke-opacity: 1; stroke-width: 1px;"/></g></g><g class="zerolinelayer"><path class="yzl zl crisp" transform="translate(0,550)" d="M50,0h990" style="stroke: rgb(235, 240, 248); stroke-opacity: 1; stroke-width: 2px;"/></g><path class="xlines-below"/><path class="ylines-below"/><g class="overlines-below"/><g class="xaxislayer-below"/><g class="yaxislayer-below"/><g class="overaxes-below"/><g class="plot" transform="translate(50,20)" clip-path="url(#clip2c7e46xyplot)"><g class="scatterlayer mlayer"><g class="trace scatter tracea6f180" style="stroke-miterlimit: 2; opacity: 1;"><g class="fills"/><g class="errorbars"/><g class="lines"><path class="js-line" d="M0,323.26L6.6,297.54L9.9,297.54L19.8,297.54L23.1,304.46L29.7,292.59L33,292.59L46.2,292.59L49.5,289.63L59.4,289.63L62.7,286.66L66,284.68L69.3,284.68L75.9,284.68L79.2,278.74L122.1,278.74L125.4,271.82L141.9,271.82L145.2,230.27L184.8,230.27L191.4,258.96L194.7,253.03L201.3,253.03L224.4,252.04L227.7,251.05L231,272.81L234.3,283.69L237.6,283.69L240.9,279.73L244.2,275.78L247.5,284.68L277.2,284.68L280.5,280.72L283.8,280.72L287.1,284.68L290.4,280.72L293.7,283.69L297,280.72L300.3,280.72L303.6,278.74L306.9,280.72L316.8,280.72L320.1,278.74L323.4,278.74L326.7,280.72L330,278.74L333.3,278.74L336.6,258.96L339.9,266.87L346.5,266.87L349.8,264.9L353.1,232.25L356.4,212.47L363,212.47L366.3,207.52L369.6,174.88L372.9,159.05L376.2,156.08L379.5,156.08L386.1,156.08L389.4,150.15L396,133.33L399.3,119.48L425.7,120.47L429,122.45L432.3,122.45L435.6,132.34L462,132.34L465.3,118.5L468.6,118.5L471.9,94.75L485.1,94.75L488.4,68.05L508.2,68.05L511.5,52.22L514.8,46.28L518.1,46.28L521.4,46.28L524.7,40.35L528,31.45L531.3,26.5" style="vector-effect: none; fill: none; stroke: rgb(138, 44, 81); stroke-opacity: 1; stroke-width: 5px; opacity: 1;"/></g><g class="points"/><g class="text"/></g><g class="trace scatter trace369c76" style="stroke-miterlimit: 2; opacity: 1;"><g class="fills"/><g class="errorbars"/><g class="lines"><path class="js-line" d="M0,98.71L6.6,112.56L9.9,112.56L19.8,112.56L23.1,119.48L29.7,104.65L33,104.65L59.4,104.65L62.7,106.62L66,108.6L69.3,108.6L75.9,108.6L79.2,113.55L191.4,113.55L194.7,141.25L221.1,141.25L224.4,136.3L227.7,132.34L231,109.59L234.3,75.96L237.6,75.96L244.2,93.77L247.5,64.09L277.2,64.09L280.5,78.93L283.8,78.93L287.1,64.09L290.4,78.93L293.7,61.12L297,57.17L300.3,57.17L303.6,75.96L306.9,57.17L316.8,57.17L320.1,75.96L323.4,75.96L326.7,57.17L330,75.96L333.3,75.96L336.6,58.15L339.9,80.91L349.8,80.91L353.1,86.84L363,86.84L366.3,91.79L369.6,108.6L372.9,114.54L379.5,115.53L382.8,115.53L392.7,115.53L396,118.5L402.6,119.48L405.9,119.48L422.4,119.48L425.7,122.45L429,128.39L432.3,128.39L435.6,132.34L442.2,132.34L465.3,133.33L468.6,129.38L471.9,139.27L475.2,139.27L485.1,139.27L488.4,137.29L508.2,137.29L511.5,153.12L514.8,157.07L518.1,157.07L521.4,157.07L524.7,163.01L528,169.93L531.3,173.89" style="vector-effect: none; fill: none; stroke: rgb(0, 174, 239); stroke-opacity: 1; stroke-width: 5px; opacity: 1;"/></g><g class="points"/><g class="text"/></g><g class="trace scatter trace6cf0ec" style="stroke-miterlimit: 2; opacity: 1;"><g class="fills"/><g class="errorbars"/><g class="lines"><path class="js-line" d="M0,430.09L6.6,433.06L9.9,433.06L19.8,433.06L23.1,439.98L29.7,428.11L33,428.11L46.2,428.11L49.5,430.09L62.7,429.1L66,428.11L122.1,428.11L125.4,430.09L141.9,430.09L145.2,441.96L184.8,441.96L191.4,434.05L194.7,369.75L201.3,369.75L221.1,369.75L224.4,372.72L227.7,375.69L231,375.69L234.3,381.62L237.6,381.62L244.2,374.7L247.5,382.61L277.2,382.61L280.5,378.65L283.8,378.65L287.1,382.61L290.4,378.65L293.7,384.59L297,388.55L300.3,388.55L303.6,381.62L306.9,388.55L316.8,388.55L320.1,381.62L323.4,381.62L326.7,388.55L330,381.62L333.3,381.62L336.6,410.31L339.9,390.52L349.8,391.51L353.1,406.35L356.4,418.22L359.7,418.22L363,418.22L366.3,415.25L369.6,425.15L372.9,427.12L389.4,426.13L392.7,425.15L396,427.12L399.3,431.08L422.4,431.08L425.7,427.12L429,418.22L432.3,418.22L435.6,404.37L442.2,404.37L462,404.37L465.3,417.23L468.6,421.19L471.9,435.04L485.1,435.04L488.4,442.95L524.7,443.94L528,444.93L531.3,445.92" style="vector-effect: none; fill: none; stroke: rgb(255, 1, 170); stroke-opacity: 1; stroke-width: 5px; opacity: 1;"/></g><g class="points"/><g class="text"/></g><g class="trace scatter trace9c0f73" style="stroke-miterlimit: 2; opacity: 1;"><g class="fills"/><g class="errorbars"/><g class="lines"><path class="js-line" d="M0,426.13L6.6,430.09L9.9,430.09L19.8,430.09L23.1,426.13L26.4,427.12L29.7,432.07L59.4,433.06L62.7,436.03L66,438L69.3,438L122.1,438L125.4,436.03L141.9,436.03L145.2,450.86L184.8,450.86L191.4,444.93L194.7,457.79L201.3,457.79L224.4,458.78L227.7,460.76L231,460.76L234.3,471.64L237.6,471.64L240.9,465.7L244.2,459.77L247.5,476.58L277.2,476.58L280.5,468.67L283.8,468.67L287.1,476.58L290.4,468.67L293.7,475.59L300.3,475.59L303.6,467.68L306.9,475.59L310.2,475.59L316.8,475.59L320.1,467.68L323.4,467.68L326.7,475.59L330,467.68L333.3,467.68L336.6,468.67L339.9,461.75L349.8,462.73L353.1,472.63L356.4,477.57L359.7,477.57L363,477.57L366.3,479.55L372.9,485.49L376.2,486.48L386.1,486.48L389.4,488.45L392.7,492.41L396,494.39L399.3,499.33L402.6,499.33L485.1,499.33L488.4,498.35L531.3,499.33" style="vector-effect: none; fill: none; stroke: rgb(238, 58, 67); stroke-opacity: 1; stroke-width: 5px; opacity: 1;"/></g><g class="points"/><g class="text"/></g><g class="trace scatter trace9d8f6c" style="stroke-miterlimit: 2; opacity: 1;"><g class="fills"/><g class="errorbars"/><g class="lines"><path class="js-line" d="M0,451.85L9.9,453.83L13.2,453.83L19.8,453.83L23.1,439.98L29.7,470.65L33,470.65L62.7,469.66L66,468.67L141.9,467.68L145.2,472.63L184.8,472.63L191.4,470.65L194.7,474.61L201.3,474.61L224.4,475.59L227.7,476.58L237.6,475.59L240.9,479.55L244.2,483.51L247.5,476.58L277.2,476.58L280.5,479.55L283.8,479.55L287.1,476.58L290.4,479.55L293.7,478.56L297,482.52L300.3,482.52L303.6,483.51L306.9,482.52L333.3,483.51L336.6,486.48L353.1,486.48L356.4,488.45L366.3,489.44L369.6,490.43L372.9,493.4L376.2,494.39L386.1,494.39L389.4,496.37L399.3,504.28L402.6,504.28L485.1,504.28L488.4,514.17L531.3,515.16" style="vector-effect: none; fill: none; stroke: rgb(202, 166, 105); stroke-opacity: 1; stroke-width: 5px; opacity: 1;"/></g><g class="points"/><g class="text"/></g><g class="trace scatter tracebddb63" style="stroke-miterlimit: 2; opacity: 1;"><g class="fills"/><g class="errorbars"/><g class="lines"><path class="js-line" d="M0,460.76L9.9,463.72L13.2,463.72L23.1,462.73L26.4,460.76L33,461.75L36.3,461.75L46.2,461.75L49.5,463.72L75.9,462.73L79.2,464.71L122.1,464.71L125.4,472.63L141.9,472.63L145.2,480.54L184.8,480.54L191.4,468.67L194.7,494.39L201.3,494.39L231,495.38L234.3,502.3L244.2,502.3L247.5,506.26L277.2,506.26L280.5,504.28L283.8,504.28L287.1,506.26L290.4,504.28L293.7,506.26L300.3,506.26L303.6,504.28L306.9,506.26L310.2,506.26L316.8,506.26L320.1,504.28L323.4,504.28L326.7,506.26L330,504.28L333.3,504.28L336.6,507.25L339.9,505.27L363,506.26L366.3,507.25L372.9,510.22L376.2,511.21L386.1,511.21L389.4,513.18L392.7,517.14L396,517.14L402.6,518.13L405.9,518.13L485.1,517.14" style="vector-effect: none; fill: none; stroke: rgb(255, 192, 203); stroke-opacity: 1; stroke-width: 5px; opacity: 1;"/></g><g class="points"/><g class="text"/></g></g></g><g class="overplot"/><path class="xlines-above crisp" d="M0,0" style="fill: none;"/><path class="ylines-above crisp" d="M0,0" style="fill: none;"/><g class="overlines-above"/><g class="xaxislayer-above"><g class="xtick"><text text-anchor="middle" x="0" y="563" transform="translate(83,0)" style="font-family: 'Open Sans', verdana, arial, sans-serif; font-size: 12px; fill: rgb(42, 63, 95); fill-opacity: 1; white-space: pre; opacity: 1;">1.7.23</text></g><g class="xtick"><text text-anchor="middle" x="0" y="563" style="font-family: 'Open Sans', verdana, arial, sans-serif; font-size: 12px; fill: rgb(42, 63, 95); fill-opacity: 1; white-space: pre; opacity: 1;" transform="translate(185.3,0)">1.8.23</text></g><g class="xtick"><text text-anchor="middle" x="0" y="563" style="font-family: 'Open Sans', verdana, arial, sans-serif; font-size: 12px; fill: rgb(42, 63, 95); fill-opacity: 1; white-space: pre; opacity: 1;" transform="translate(287.6,0)">1.9.23</text></g><g class="xtick"><text text-anchor="middle" x="0" y="563" style="font-family: 'Open Sans', verdana, arial, sans-serif; font-size: 12px; fill: rgb(42, 63, 95); fill-opacity: 1; white-space: pre; opacity: 1;" transform="translate(386.6,0)">1.10.23</text></g><g class="xtick"><text text-anchor="middle" x="0" y="563" style="font-family: 'Open Sans', verdana, arial, sans-serif; font-size: 12px; fill: rgb(42, 63, 95); fill-opacity: 1; white-space: pre; opacity: 1;" transform="translate(488.9,0)">1.11.23</text></g><g class="xtick"><text text-anchor="middle" x="0" y="563" style="font-family: 'Open Sans', verdana, arial, sans-serif; font-size: 12px; fill: rgb(42, 63, 95); fill-opacity: 1; white-space: pre; opacity: 1;" transform="translate(587.9,0)">1.12.23</text></g><g class="xtick"><text text-anchor="middle" x="0" y="563" style="font-family: 'Open Sans', verdana, arial, sans-serif; font-size: 12px; fill: rgb(42, 63, 95); fill-opacity: 1; white-space: pre; opacity: 1;" transform="translate(690.2,0)">1.1.24</text></g><g class="xtick"><text text-anchor="middle" x="0" y="563" style="font-family: 'Open Sans', verdana, arial, sans-serif; font-size: 12px; fill: rgb(42, 63, 95); fill-opacity: 1; white-space: pre; opacity: 1;" transform="translate(792.5,0)">1.2.24</text></g><g class="xtick"><text text-anchor="middle" x="0" y="563" style="font-family: 'Open Sans', verdana, arial, sans-serif; font-size: 12px; fill: rgb(42, 63, 95); fill-opacity: 1; white-space: pre; opacity: 1;" transform="translate(888.2,0)">1.3.24</text></g><g class="xtick"><text text-anchor="middle" x="0" y="563" style="font-family: 'Open Sans', verdana, arial, sans-serif; font-size: 12px; fill: rgb(42, 63, 95); fill-opacity: 1; white-space: pre; opacity: 1;" transform="translate(990.5,0)">1.4.24</text></g></g><g class="yaxislayer-above"><g class="ytick"><text text-anchor="end" x="49" y="4.199999999999999" transform="translate(0,550)" style="font-family: 'Open Sans', verdana, arial, sans-serif; font-size: 12px; fill: rgb(42, 63, 95); fill-opacity: 1; white-space: pre; opacity: 1;">0%</text></g><g class="ytick"><text text-anchor="end" x="49" y="4.199999999999999" style="font-family: 'Open Sans', verdana, arial, sans-serif; font-size: 12px; fill: rgb(42, 63, 95); fill-opacity: 1; white-space: pre; opacity: 1;" transform="translate(0,451.08)">10%</text></g><g class="ytick"><text text-anchor="end" x="49" y="4.199999999999999" style="font-family: 'Open Sans', verdana, arial, sans-serif; font-size: 12px; fill: rgb(42, 63, 95); fill-opacity: 1; white-space: pre; opacity: 1;" transform="translate(0,352.16)">20%</text></g><g class="ytick"><text text-anchor="end" x="49" y="4.199999999999999" style="font-family: 'Open Sans', verdana, arial, sans-serif; font-size: 12px; fill: rgb(42, 63, 95); fill-opacity: 1; white-space: pre; opacity: 1;" transform="translate(0,253.24)">30%</text></g><g class="ytick"><text text-anchor="end" x="49" y="4.199999999999999" style="font-family: 'Open Sans', verdana, arial, sans-serif; font-size: 12px; fill: rgb(42, 63, 95); fill-opacity: 1; white-space: pre; opacity: 1;" transform="translate(0,154.32)">40%</text></g><g class="ytick"><text text-anchor="end" x="49" y="4.199999999999999" style="font-family: 'Open Sans', verdana, arial, sans-serif; font-size: 12px; fill: rgb(42, 63, 95); fill-opacity: 1; white-space: pre; opacity: 1;" transform="translate(0,55.4)">50%</text></g></g><g class="overaxes-above"/></g></g><g class="polarlayer"/><g class="smithlayer"/><g class="ternarylayer"/><g class="geolayer"/><g class="funnelarealayer"/><g class="pielayer"/><g class="iciclelayer"/><g class="treemaplayer"/><g class="sunburstlayer"/><g class="glimages"/><defs id="topdefs-2c7e46"><g class="clips"/><clipPath id="legend2c7e46"><rect width="128" height="124" x="0" y="0"/></clipPath></defs><g class="layer-above"><g class="imagelayer"/><g class="shapelayer"/></g><g class="infolayer"><g class="legend" pointer-events="all" transform="translate(1059.8000000000002,20)"><rect class="bg" shape-rendering="crispEdges" style="stroke: rgb(68, 68, 68); stroke-opacity: 1; fill: rgb(255, 255, 255); fill-opacity: 1; stroke-width: 0px;" width="128" height="124" x="0" y="0"/><g class="scrollbox" transform="" clip-path="url(#legend2c7e46)"><g class="groups"><g class="traces" transform="translate(0,14.5)" style="opacity: 1;"><text class="legendtext" text-anchor="start" x="40" y="4.680000000000001" style="font-family: 'Open Sans', verdana, arial, sans-serif; font-size: 12px; fill: rgb(42, 63, 95); fill-opacity: 1; white-space: pre;">Pellegrini Peter</text><g class="layers" style="opacity: 1;"><g class="legendfill"/><g class="legendlines"><path class="js-line" d="M5,0h30" style="fill: none; stroke: rgb(138, 44, 81); stroke-opacity: 1; stroke-width: 5px;"/></g><g class="legendsymbols"><g class="legendpoints"/></g></g><rect class="legendtoggle" x="0" y="-9.5" width="122.703125" height="19" style="fill: rgb(0, 0, 0); fill-opacity: 0;"/></g><g class="traces" transform="translate(0,33.5)" style="opacity: 1;"><text class="legendtext" text-anchor="start" x="40" y="4.680000000000001" style="font-family: 'Open Sans', verdana, arial, sans-serif; font-size: 12px; fill: rgb(42, 63, 95); fill-opacity: 1; white-space: pre;">Korčok Ivan</text><g class="layers" style="opacity: 1;"><g class="legendfill"/><g class="legendlines"><path class="js-line" d="M5,0h30" style="fill: none; stroke: rgb(0, 174, 239); stroke-opacity: 1; stroke-width: 5px;"/></g><g class="legendsymbols"><g class="legendpoints"/></g></g><rect class="legendtoggle" x="0" y="-9.5" width="122.703125" height="19" style="fill: rgb(0, 0, 0); fill-opacity: 0;"/></g><g class="traces" transform="translate(0,52.5)" style="opacity: 1;"><text class="legendtext" text-anchor="start" x="40" y="4.680000000000001" style="font-family: 'Open Sans', verdana, arial, sans-serif; font-size: 12px; fill: rgb(42, 63, 95); fill-opacity: 1; white-space: pre;">Kubiš Ján</text><g class="layers" style="opacity: 1;"><g class="legendfill"/><g class="legendlines"><path class="js-line" d="M5,0h30" style="fill: none; stroke: rgb(255, 1, 170); stroke-opacity: 1; stroke-width: 5px;"/></g><g class="legendsymbols"><g class="legendpoints"/></g></g><rect class="legendtoggle" x="0" y="-9.5" width="122.703125" height="19" style="fill: rgb(0, 0, 0); fill-opacity: 0;"/></g><g class="traces" transform="translate(0,71.5)" style="opacity: 1;"><text class="legendtext" text-anchor="start" x="40" y="4.680000000000001" style="font-family: 'Open Sans', verdana, arial, sans-serif; font-size: 12px; fill: rgb(42, 63, 95); fill-opacity: 1; white-space: pre;">Fico Robert</text><g class="layers" style="opacity: 1;"><g class="legendfill"/><g class="legendlines"><path class="js-line" d="M5,0h30" style="fill: none; stroke: rgb(238, 58, 67); stroke-opacity: 1; stroke-width: 5px;"/></g><g class="legendsymbols"><g class="legendpoints"/></g></g><rect class="legendtoggle" x="0" y="-9.5" width="122.703125" height="19" style="fill: rgb(0, 0, 0); fill-opacity: 0;"/></g><g class="traces" transform="translate(0,90.5)" style="opacity: 1;"><text class="legendtext" text-anchor="start" x="40" y="4.680000000000001" style="font-family: 'Open Sans', verdana, arial, sans-serif; font-size: 12px; fill: rgb(42, 63, 95); fill-opacity: 1; white-space: pre;">Mistrík Robert</text><g class="layers" style="opacity: 1;"><g class="legendfill"/><g class="legendlines"><path class="js-line" d="M5,0h30" style="fill: none; stroke: rgb(202, 166, 105); stroke-opacity: 1; stroke-width: 5px;"/></g><g class="legendsymbols"><g class="legendpoints"/></g></g><rect class="legendtoggle" x="0" y="-9.5" width="122.703125" height="19" style="fill: rgb(0, 0, 0); fill-opacity: 0;"/></g><g class="traces" transform="translate(0,109.5)" style="opacity: 1;"><text class="legendtext" text-anchor="start" x="40" y="4.680000000000001" style="font-family: 'Open Sans', verdana, arial, sans-serif; font-size: 12px; fill: rgb(42, 63, 95); fill-opacity: 1; white-space: pre;">Lajčák Miroslav</text><g class="layers" style="opacity: 1;"><g class="legendfill"/><g class="legendlines"><path class="js-line" d="M5,0h30" style="fill: none; stroke: rgb(255, 192, 203); stroke-opacity: 1; stroke-width: 5px;"/></g><g class="legendsymbols"><g class="legendpoints"/></g></g><rect class="legendtoggle" x="0" y="-9.5" width="122.703125" height="19" style="fill: rgb(0, 0, 0); fill-opacity: 0;"/></g></g></g><rect class="scrollbar" rx="20" ry="3" width="0" height="0" style="fill: rgb(128, 139, 164); fill-opacity: 1;" x="0" y="0"/></g><g class="g-gtitle"/><g class="g-xtitle"/><g class="g-ytitle"/></g></svg>