<svg class="main-svg" xmlns="http://www.w3.org/2000/svg" xmlns:xlink="http://www.w3.org/1999/xlink" width="300" height="135" style="" viewBox="0 0 300 135"><rect x="0" y="0" width="300" height="135" style="fill: rgb(255, 255, 255); fill-opacity: 1;"/><defs id="defs-7b755a"><g class="clips"><clipPath id="clip7b755axyplot" class="plotclip"><rect width="280" height="75"/></clipPath><clipPath class="axesclip" id="clip7b755ax"><rect x="10" y="0" width="280" height="135"/></clipPath><clipPath class="axesclip" id="clip7b755ay"><rect x="0" y="50" width="300" height="75"/></clipPath><clipPath class="axesclip" id="clip7b755axy"><rect x="10" y="50" width="280" height="75"/></clipPath></g><g class="gradients"/><g class="patterns"/></defs><g class="bglayer"/><g class="layer-below"><g class="imagelayer"/><g class="shapelayer"/></g><g class="cartesianlayer"><g class="subplot xy"><g class="layer-subplot"><g class="shapelayer"/><g class="imagelayer"/></g><g class="minor-gridlayer"><g class="x"/><g class="y"/></g><g class="gridlayer"><g class="x"><path class="xgrid crisp" transform="translate(25.64,0)" d="M0,50v75" style="stroke: rgb(235, 240, 248); stroke-opacity: 1; stroke-width: 1px;"/><path class="xgrid crisp" transform="translate(122.63,0)" d="M0,50v75" style="stroke: rgb(235, 240, 248); stroke-opacity: 1; stroke-width: 1px;"/><path class="xgrid crisp" transform="translate(218.04,0)" d="M0,50v75" style="stroke: rgb(235, 240, 248); stroke-opacity: 1; stroke-width: 1px;"/></g><g class="y"><path class="ygrid crisp" transform="translate(0,101.28999999999999)" d="M10,0h280" style="stroke: rgb(235, 240, 248); stroke-opacity: 1; stroke-width: 1px;"/><path class="ygrid crisp" transform="translate(0,77.58)" d="M10,0h280" style="stroke: rgb(235, 240, 248); stroke-opacity: 1; stroke-width: 1px;"/><path class="ygrid crisp" transform="translate(0,53.87)" d="M10,0h280" style="stroke: rgb(235, 240, 248); stroke-opacity: 1; stroke-width: 1px;"/></g></g><g class="zerolinelayer"><path class="yzl zl crisp" transform="translate(0,125)" d="M10,0h280" style="stroke: rgb(235, 240, 248); stroke-opacity: 1; stroke-width: 2px;"/></g><path class="xlines-below"/><path class="ylines-below"/><g class="overlines-below"/><g class="xaxislayer-below"/><g class="yaxislayer-below"/><g class="overaxes-below"/><g class="plot" transform="translate(10,50)" clip-path="url(#clip7b755axyplot)"><g class="scatterlayer mlayer"><g class="trace scatter trace624545" style="stroke-miterlimit: 2; opacity: 1;"><g class="fills"/><g class="errorbars"/><g class="lines"><path class="js-line" d="M0,50.22L4.69,47.14L6.26,47.14L12.51,47.38L14.08,46.55L35.98,45.6L37.54,44.89L67.26,44.06L68.83,39.08L87.6,39.08L90.73,42.52L92.29,41.81L95.42,41.81L107.93,41.57L109.5,44.18L112.63,45.48L114.19,45.01L115.75,44.53L117.32,45.6L157.99,44.89L159.55,42.52L162.68,43.47L164.25,43.47L165.81,43.23L167.37,39.32L168.94,36.94L170.5,36.94L173.63,36.35L175.2,32.44L178.32,30.19L179.89,30.19L184.58,29.48L186.15,28.41L190.84,25.8L192.4,25.8L204.92,26.16L206.48,27.34L218.99,27.34L220.56,25.68L222.12,25.68L223.69,22.84L229.94,22.84L231.51,19.64L240.89,19.64L242.46,17.74L245.59,17.03L247.15,17.03L253.41,14.66L254.97,10.63L258.1,10.63L259.66,8.61L261.23,3.75L262.79,3.75L275.31,3.75L276.87,5.53L280,6.36" style="vector-effect: none; fill: none; stroke: rgb(138, 44, 81); stroke-opacity: 1; stroke-width: 5px; opacity: 1;"/></g><g class="points"/><g class="text"/></g><g class="trace scatter trace22e48d" style="stroke-miterlimit: 2; opacity: 1;"><g class="fills"/><g class="errorbars"/><g class="lines"><path class="js-line" d="M0,23.31L4.69,24.97L6.26,24.97L12.51,24.73L14.08,24.02L90.73,25.09L92.29,28.41L107.93,27.34L109.5,24.62L111.06,20.58L112.63,20.58L115.75,22.72L117.32,19.16L131.4,19.16L132.96,20.94L134.53,20.94L136.09,19.16L137.65,20.94L139.22,18.81L142.35,18.33L143.91,20.58L145.47,18.33L147.04,18.33L150.17,18.33L151.73,20.58L153.3,20.58L154.86,18.33L156.42,20.58L157.99,20.58L159.55,18.45L161.12,21.18L172.07,21.89L173.63,22.48L176.76,25.21L178.32,25.33L201.79,26.16L203.35,26.87L222.12,26.99L223.69,28.17L240.89,27.93L242.46,29.83L253.41,32.32L254.97,30.07L259.66,31.25L261.23,32.8L275.31,32.8L276.87,31.14L280,30.19" style="vector-effect: none; fill: none; stroke: rgb(0, 174, 239); stroke-opacity: 1; stroke-width: 5px; opacity: 1;"/></g><g class="points"/><g class="text"/></g><g class="trace scatter tracedaed41" style="stroke-miterlimit: 2; opacity: 1;"><g class="fills"/><g class="errorbars"/><g class="lines"><path class="js-line" d="M0,63.03L10.95,64.21L12.51,63.5L15.64,62.79L17.21,62.79L67.26,63.03L68.83,64.45L90.73,63.5L92.29,55.79L109.5,56.51L111.06,57.22L139.22,57.57L140.78,58.05L157.99,57.22L159.55,60.66L161.12,58.28L162.68,58.28L165.81,58.4L167.37,60.18L170.5,61.6L172.07,61.6L173.63,61.25L175.2,62.43L183.02,62.67L184.58,62.55L192.4,63.14L193.97,63.14L201.79,62.67L203.35,61.6L204.92,61.6L206.48,59.94L218.99,59.94L220.56,61.49L226.82,63.62L228.38,63.62L250.28,64.8L251.84,64.92L253.41,64.92L254.97,68.6L275.31,69.78L276.87,69.9L280,69.9" style="vector-effect: none; fill: none; stroke: rgb(255, 1, 170); stroke-opacity: 1; stroke-width: 5px; opacity: 1;"/></g><g class="points"/><g class="text"/></g><g class="trace scatter trace22bacd" style="stroke-miterlimit: 2; opacity: 1;"><g class="fills"/><g class="errorbars"/><g class="lines"><path class="js-line" d="M0,66.7L15.64,66.82L17.21,66.82L57.88,67.18L59.44,68.12L87.6,69.07L90.73,67.65L92.29,70.73L95.42,70.73L115.75,71.68L117.32,72.15L184.58,72.98L186.15,73.46L229.94,73.46" style="vector-effect: none; fill: none; stroke: rgb(255, 192, 203); stroke-opacity: 1; stroke-width: 5px; opacity: 1;"/></g><g class="points"/><g class="text"/></g><g class="trace scatter trace1a8cc1" style="stroke-miterlimit: 2; opacity: 1;"><g class="fills"/><g class="errorbars"/><g class="lines"><path class="js-line" d="M0,62.55L9.39,63.03L10.95,62.55L39.11,63.97L40.67,63.97L67.26,63.74L68.83,65.52L90.73,64.8L92.29,66.35L109.5,66.7L111.06,68.01L114.19,67.29L115.75,66.58L118.88,68.6L120.45,68.6L159.55,67.65L161.12,66.82L165.81,66.94L167.37,68.12L172.07,68.72L173.63,68.95L181.45,69.78L183.02,69.78L197.09,71.32L198.66,71.32L253.41,71.32L254.97,73.58L259.66,73.81" style="vector-effect: none; fill: none; stroke: rgb(238, 58, 67); stroke-opacity: 1; stroke-width: 5px; opacity: 1;"/></g><g class="points"/><g class="text"/></g></g></g><g class="overplot"/><path class="xlines-above crisp" d="M0,0" style="fill: none;"/><path class="ylines-above crisp" d="M0,0" style="fill: none;"/><g class="overlines-above"/><g class="xaxislayer-above"/><g class="yaxislayer-above"/><g class="overaxes-above"/></g></g><g class="polarlayer"/><g class="smithlayer"/><g class="ternarylayer"/><g class="geolayer"/><g class="funnelarealayer"/><g class="pielayer"/><g class="iciclelayer"/><g class="treemaplayer"/><g class="sunburstlayer"/><g class="glimages"/><defs id="topdefs-7b755a"><g class="clips"/></defs><g class="layer-above"><g class="imagelayer"/><g class="shapelayer"/></g><g class="infolayer"><g class="g-gtitle"><text class="gtitle" x="15" y="25" text-anchor="start" dy="0em" style="font-family: Ubuntu, verdana, arial, sans-serif; font-size: 16px; fill: rgb(233, 84, 32); opacity: 1; font-weight: normal; white-space: pre;">Prezident/ka 2024</text></g><g class="g-xtitle"/><g class="g-ytitle"/></g></svg>