<svg class="main-svg" xmlns="http://www.w3.org/2000/svg" xmlns:xlink="http://www.w3.org/1999/xlink" width="400" height="400" style="" viewBox="0 0 400 400"><rect x="0" y="0" width="400" height="400" style="fill: rgb(255, 255, 255); fill-opacity: 1;"/><defs id="defs-4f233b"><g class="clips"><clipPath id="clip4f233bxyplot" class="plotclip"><rect width="206" height="330"/></clipPath><clipPath class="axesclip" id="clip4f233bx"><rect x="50" y="0" width="206" height="400"/></clipPath><clipPath class="axesclip" id="clip4f233by"><rect x="0" y="20" width="400" height="330"/></clipPath><clipPath class="axesclip" id="clip4f233bxy"><rect x="50" y="20" width="206" height="330"/></clipPath></g><g class="gradients"/><g class="patterns"/></defs><g class="bglayer"/><g class="layer-below"><g class="imagelayer"/><g class="shapelayer"/></g><g class="cartesianlayer"><g class="subplot xy"><g class="layer-subplot"><g class="shapelayer"/><g class="imagelayer"/></g><g class="minor-gridlayer"><g class="x"/><g class="y"/></g><g class="gridlayer"><g class="x"><path class="xgrid crisp" transform="translate(57.1,0)" d="M0,20v330" style="stroke: rgb(235, 240, 248); stroke-opacity: 1; stroke-width: 1px;"/><path class="xgrid crisp" transform="translate(101.14,0)" d="M0,20v330" style="stroke: rgb(235, 240, 248); stroke-opacity: 1; stroke-width: 1px;"/><path class="xgrid crisp" transform="translate(144.48000000000002,0)" d="M0,20v330" style="stroke: rgb(235, 240, 248); stroke-opacity: 1; stroke-width: 1px;"/><path class="xgrid crisp" transform="translate(187.81,0)" d="M0,20v330" style="stroke: rgb(235, 240, 248); stroke-opacity: 1; stroke-width: 1px;"/><path class="xgrid crisp" transform="translate(230.43,0)" d="M0,20v330" style="stroke: rgb(235, 240, 248); stroke-opacity: 1; stroke-width: 1px;"/></g><g class="y"><path class="ygrid crisp" transform="translate(0,305.72)" d="M50,0h206" style="stroke: rgb(235, 240, 248); stroke-opacity: 1; stroke-width: 1px;"/><path class="ygrid crisp" transform="translate(0,261.44)" d="M50,0h206" style="stroke: rgb(235, 240, 248); stroke-opacity: 1; stroke-width: 1px;"/><path class="ygrid crisp" transform="translate(0,217.16)" d="M50,0h206" style="stroke: rgb(235, 240, 248); stroke-opacity: 1; stroke-width: 1px;"/><path class="ygrid crisp" transform="translate(0,172.88)" d="M50,0h206" style="stroke: rgb(235, 240, 248); stroke-opacity: 1; stroke-width: 1px;"/><path class="ygrid crisp" transform="translate(0,128.6)" d="M50,0h206" style="stroke: rgb(235, 240, 248); stroke-opacity: 1; stroke-width: 1px;"/><path class="ygrid crisp" transform="translate(0,84.32)" d="M50,0h206" style="stroke: rgb(235, 240, 248); stroke-opacity: 1; stroke-width: 1px;"/><path class="ygrid crisp" transform="translate(0,40.04)" d="M50,0h206" style="stroke: rgb(235, 240, 248); stroke-opacity: 1; stroke-width: 1px;"/></g></g><g class="zerolinelayer"><path class="yzl zl crisp" transform="translate(0,350)" d="M50,0h206" style="stroke: rgb(235, 240, 248); stroke-opacity: 1; stroke-width: 2px;"/></g><path class="xlines-below"/><path class="ylines-below"/><g class="overlines-below"/><g class="xaxislayer-below"/><g class="yaxislayer-below"/><g class="overaxes-below"/><g class="plot" transform="translate(50,20)" clip-path="url(#clip4f233bxyplot)"><g class="scatterlayer mlayer"><g class="trace scatter trace8f9cd5" style="stroke-miterlimit: 2; opacity: 1;"><g class="fills"/><g class="errorbars"/><g class="lines"><path class="js-line" d="M0,237.46L2.13,225.94L2.84,225.94L4.26,225.94L4.97,229.04L7.1,223.73L7.81,223.73L9.94,223.73L10.66,222.4L12.79,222.4L13.5,221.07L15.63,220.19L16.34,220.19L17.76,217.53L18.47,217.53L26.28,217.53L26.99,214.43L30.54,214.43L31.26,195.83L39.78,195.83L41.2,208.67L41.91,206.02L43.33,206.02L49.01,205.13L49.72,214.87L51.14,219.74L51.86,217.97L52.57,216.2L53.28,220.19L59.67,220.19L60.38,218.42L61.09,218.42L61.8,220.19L62.51,218.42L63.22,219.74L63.93,218.42L71.74,217.53L72.46,208.67L73.88,212.22L74.59,212.22L75.3,211.33L76.01,196.72L77.43,187.86L78.14,187.86L78.85,185.65L79.56,171.04L80.98,162.62L81.69,162.62L83.11,162.62L83.82,159.97L86.66,146.24L87.37,146.24L91.63,146.68L92.34,147.57L93.06,147.57L93.77,152L99.45,152L100.16,145.8L100.87,145.8L101.58,135.17L104.42,135.17L105.13,123.21L109.39,123.21L110.1,116.13L111.52,113.47L112.23,113.47L115.08,104.62L115.79,89.56L117.21,89.56L117.92,82.03L119.34,63.88L120.05,63.88L125.02,63.88L125.73,70.52L127.15,73.62L127.86,73.62L128.57,75.39L129.28,82.48L129.99,85.13L130.7,83.36L131.41,80.26L137.1,79.38L137.81,81.59L138.52,80.71L139.23,66.09L141.36,51.04L142.07,52.37L142.78,57.68L143.49,54.58L144.2,46.17L144.91,46.17L145.62,48.38L147.04,53.69L147.75,57.68L148.46,58.12L149.17,73.18L149.88,78.49L150.59,73.18L151.3,75.39L152.01,73.62L152.72,66.54L153.43,64.76L154.14,66.98L155.57,68.31L156.28,65.65L159.12,49.71L159.83,49.71L160.54,51.48L161.25,56.79L161.96,57.68L162.67,54.14L163.38,53.69L164.09,56.79L166.22,90.45L166.93,89.56L167.64,89.56L168.35,90L169.06,93.99L169.77,95.32L170.48,94.43L171.19,89.56L173.32,97.53L174.03,91.33L176.17,64.32L176.88,63.88L177.59,54.14L178.3,54.58L179.01,54.14L179.72,51.92L180.43,55.02L181.85,62.11L182.56,62.55L183.27,62.11L183.98,59.89L187.53,54.58L188.24,50.15L189.66,45.72L190.37,33.77L193.21,24.47L193.92,21.81L194.63,16.5" style="vector-effect: none; fill: none; stroke: rgb(138, 44, 81); stroke-opacity: 1; stroke-width: 5px; opacity: 1;"/></g><g class="points"/><g class="text"/></g><g class="trace scatter traced9205d" style="stroke-miterlimit: 2; opacity: 1;"><g class="fills"/><g class="errorbars"/><g class="lines"><path class="js-line" d="M0,136.94L2.13,143.14L2.84,143.14L4.26,143.14L4.97,146.24L7.1,139.6L7.81,139.6L13.5,140.48L14.21,141.37L16.34,141.37L17.05,143.58L41.2,143.58L41.91,155.98L47.59,155.98L48.3,153.77L49.01,152L49.72,141.81L51.14,126.76L51.86,130.74L52.57,134.73L53.28,121.44L59.67,121.44L60.38,128.08L61.09,128.08L61.8,121.44L62.51,128.08L63.22,120.11L64.64,118.34L65.35,126.76L66.77,118.34L67.48,118.34L68.19,118.34L68.9,126.76L69.61,126.76L70.32,118.34L71.74,126.76L72.46,118.79L73.88,128.97L74.59,128.97L75.3,128.97L76.01,131.63L78.14,131.63L78.85,133.84L80.98,144.47L81.69,144.47L84.53,144.47L85.24,145.8L88.08,146.24L88.79,146.24L90.92,146.24L91.63,147.57L93.77,152L95.19,152L100.16,152.44L100.87,150.67L102.29,155.1L103,155.1L109.39,154.21L110.1,161.29L111.52,163.07L112.23,163.07L115.08,170.59L115.79,162.18L117.21,162.18L117.92,166.61L119.34,172.36L120.05,172.36L125.02,172.36L125.73,166.17L127.15,162.62L127.86,162.62L128.57,160.85L129.28,150.67L129.99,147.57L130.7,148.45L131.41,149.78L137.1,149.78L137.81,147.57L138.52,147.57L139.23,159.08L141.36,172.81L142.07,171.48L143.49,162.62L144.2,171.04L144.91,171.04L145.62,168.82L147.04,163.51L147.75,159.52L148.46,159.08L149.17,144.03L149.88,138.71L150.59,144.03L151.3,141.81L152.01,143.58L152.72,150.67L153.43,152.44L154.14,150.22L155.57,148.9L156.28,151.55L159.12,167.49L159.83,167.49L160.54,165.72L161.25,160.41L161.96,159.52L162.67,163.07L163.38,163.51L164.09,160.41L166.22,126.76L166.93,127.64L167.64,127.64L168.35,127.2L169.06,123.21L169.77,121.89L170.48,122.77L171.19,127.64L173.32,119.67L174.03,125.87L176.17,152.88L176.88,153.32L177.59,163.07L178.3,162.62L179.01,163.07L179.72,165.28L180.43,162.18L181.85,155.1L182.56,154.65L183.27,155.1L183.98,157.31L187.53,162.62L188.24,167.05L189.66,171.48L190.37,183.43L193.21,192.73L193.92,195.39L194.63,200.7" style="vector-effect: none; fill: none; stroke: rgb(0, 174, 239); stroke-opacity: 1; stroke-width: 5px; opacity: 1;"/></g><g class="points"/><g class="text"/></g><g class="trace scatter trace1e517e" style="stroke-miterlimit: 2; opacity: 1;"><g class="fills"/><g class="errorbars"/><g class="lines"><path class="js-line" d="M0,295.02L3.55,295.9L4.26,295.9L4.97,289.71L5.68,298.12L7.1,303.43L7.81,303.43L26.28,302.55L26.99,302.1L30.54,302.1L31.26,304.32L41.2,303.43L41.91,305.2L51.14,305.65L51.86,307.42L52.57,309.19L53.28,306.09L59.67,306.09L60.38,307.42L61.09,307.42L61.8,306.09L63.93,308.75L64.64,308.75L66.77,308.75L67.48,308.75L71.74,309.19L72.46,310.52L76.01,310.52L76.72,311.4L79.56,312.29L80.27,313.62L84.53,316.27L85.24,317.16L86.66,318.49L87.37,318.49L104.42,318.49L105.13,322.92L115.08,323.36L115.79,324.69L117.92,325.57" style="vector-effect: none; fill: none; stroke: rgb(202, 166, 105); stroke-opacity: 1; stroke-width: 5px; opacity: 1;"/></g><g class="points"/><g class="text"/></g><g class="trace scatter trace35afed" style="stroke-miterlimit: 2; opacity: 1;"><g class="fills"/><g class="errorbars"/><g class="lines"><path class="js-line" d="M0,285.28L2.13,286.61L2.84,286.61L4.26,286.61L4.97,289.71L7.1,284.39L7.81,284.39L30.54,285.28L31.26,290.59L39.78,290.59L41.2,287.05L41.91,258.27L43.33,258.27L47.59,258.27L48.3,259.6L51.14,263.58L51.86,262.25L52.57,260.48L53.28,264.02L59.67,264.02L60.38,262.25L61.09,262.25L61.8,264.02L62.51,262.25L63.22,264.91L64.64,266.68L65.35,263.58L66.77,266.68L67.48,266.68L68.19,266.68L68.9,263.58L69.61,263.58L70.32,266.68L71.74,263.58L72.46,276.42L73.88,267.57L74.59,267.57L75.3,268.01L76.01,274.65L77.43,279.96L78.14,279.96L78.85,278.64L79.56,283.06L81.69,283.95L82.4,283.95L85.24,283.95L85.95,285.72L90.92,285.72L91.63,283.95L93.77,273.76L95.19,273.76L99.45,273.76L100.16,279.52L100.87,281.29L101.58,287.49L104.42,287.49L105.13,291.03L113.66,291.92L114.37,292.36L115.08,292.36L115.79,306.09L117.21,306.09L117.92,307.86L119.34,310.52L120.05,310.52L128.57,310.52L129.28,314.5L130.7,315.39L131.41,317.16L137.81,318.04L138.52,318.93L140.65,323.36L141.36,323.36L142.78,324.24" style="vector-effect: none; fill: none; stroke: rgb(255, 1, 170); stroke-opacity: 1; stroke-width: 5px; opacity: 1;"/></g><g class="points"/><g class="text"/></g><g class="trace scatter tracea4a3af" style="stroke-miterlimit: 2; opacity: 1;"><g class="fills"/><g class="errorbars"/><g class="lines"><path class="js-line" d="M0,299L3.55,300.33L4.26,300.33L7.1,299.45L7.81,299.45L16.34,299.89L17.05,300.78L26.28,300.78L26.99,304.32L30.54,304.32L31.26,307.86L39.78,307.86L41.2,302.55L41.91,314.06L43.33,314.06L49.72,314.5L50.43,317.6L52.57,317.6L53.28,319.37L71.74,318.49L72.46,319.82L74.59,318.93L75.3,318.93L78.85,319.82L79.56,320.7L83.82,322.47L84.53,324.24L104.42,324.24" style="vector-effect: none; fill: none; stroke: rgb(255, 192, 203); stroke-opacity: 1; stroke-width: 5px; opacity: 1;"/></g><g class="points"/><g class="text"/></g><g class="trace scatter trace8829cf" style="stroke-miterlimit: 2; opacity: 1;"><g class="fills"/><g class="errorbars"/><g class="lines"><path class="js-line" d="M0,283.51L2.84,285.28L3.55,285.28L4.26,285.28L4.97,283.51L5.68,283.95L6.39,286.16L12.79,286.61L13.5,287.93L15.63,288.82L16.34,288.82L30.54,287.93L31.26,294.58L39.78,294.58L41.2,291.92L41.91,297.68L43.33,297.68L48.3,298.12L49.01,299L49.72,299L50.43,303.88L51.14,303.88L51.86,301.22L52.57,298.56L53.28,306.09L59.67,306.09L60.38,302.55L61.09,302.55L61.8,306.09L62.51,302.55L63.22,305.65L64.64,305.65L65.35,302.1L66.77,305.65L67.48,305.65L68.19,305.65L68.9,302.1L69.61,302.1L70.32,305.65L71.74,302.1L72.46,302.55L73.88,299.45L74.59,299.45L75.3,299.89L76.01,304.32L77.43,306.53L78.14,306.53L81.69,310.52L82.4,310.52L83.82,311.4L84.53,313.17L87.37,316.27L88.08,316.27L115.08,316.27L115.79,324.69L117.92,325.57" style="vector-effect: none; fill: none; stroke: rgb(238, 58, 67); stroke-opacity: 1; stroke-width: 5px; opacity: 1;"/></g><g class="points"/><g class="text"/></g></g></g><g class="overplot"/><path class="xlines-above crisp" d="M0,0" style="fill: none;"/><path class="ylines-above crisp" d="M0,0" style="fill: none;"/><g class="overlines-above"/><g class="xaxislayer-above"><g class="xtick"><text text-anchor="middle" x="0" y="363" transform="translate(57.1,0)" style="font-family: 'Open Sans', verdana, arial, sans-serif; font-size: 12px; fill: rgb(42, 63, 95); fill-opacity: 1; white-space: pre; opacity: 1;">1.7.23</text></g><g class="xtick"><text text-anchor="middle" x="0" y="363" style="font-family: 'Open Sans', verdana, arial, sans-serif; font-size: 12px; fill: rgb(42, 63, 95); fill-opacity: 1; white-space: pre; opacity: 1;" transform="translate(101.14,0)">1.9.23</text></g><g class="xtick"><text text-anchor="middle" x="0" y="363" style="font-family: 'Open Sans', verdana, arial, sans-serif; font-size: 12px; fill: rgb(42, 63, 95); fill-opacity: 1; white-space: pre; opacity: 1;" transform="translate(144.48000000000002,0)">1.11.23</text></g><g class="xtick"><text text-anchor="middle" x="0" y="363" style="font-family: 'Open Sans', verdana, arial, sans-serif; font-size: 12px; fill: rgb(42, 63, 95); fill-opacity: 1; white-space: pre; opacity: 1;" transform="translate(187.81,0)">1.1.24</text></g><g class="xtick"><text text-anchor="middle" x="0" y="363" style="font-family: 'Open Sans', verdana, arial, sans-serif; font-size: 12px; fill: rgb(42, 63, 95); fill-opacity: 1; white-space: pre; opacity: 1;" transform="translate(230.43,0)">1.3.24</text></g></g><g class="yaxislayer-above"><g class="ytick"><text text-anchor="end" x="49" y="4.199999999999999" transform="translate(0,350)" style="font-family: 'Open Sans', verdana, arial, sans-serif; font-size: 12px; fill: rgb(42, 63, 95); fill-opacity: 1; white-space: pre; opacity: 1;">0%</text></g><g class="ytick"><text text-anchor="end" x="49" y="4.199999999999999" style="font-family: 'Open Sans', verdana, arial, sans-serif; font-size: 12px; fill: rgb(42, 63, 95); fill-opacity: 1; white-space: pre; opacity: 1;" transform="translate(0,305.72)">10%</text></g><g class="ytick"><text text-anchor="end" x="49" y="4.199999999999999" style="font-family: 'Open Sans', verdana, arial, sans-serif; font-size: 12px; fill: rgb(42, 63, 95); fill-opacity: 1; white-space: pre; opacity: 1;" transform="translate(0,261.44)">20%</text></g><g class="ytick"><text text-anchor="end" x="49" y="4.199999999999999" style="font-family: 'Open Sans', verdana, arial, sans-serif; font-size: 12px; fill: rgb(42, 63, 95); fill-opacity: 1; white-space: pre; opacity: 1;" transform="translate(0,217.16)">30%</text></g><g class="ytick"><text text-anchor="end" x="49" y="4.199999999999999" style="font-family: 'Open Sans', verdana, arial, sans-serif; font-size: 12px; fill: rgb(42, 63, 95); fill-opacity: 1; white-space: pre; opacity: 1;" transform="translate(0,172.88)">40%</text></g><g class="ytick"><text text-anchor="end" x="49" y="4.199999999999999" style="font-family: 'Open Sans', verdana, arial, sans-serif; font-size: 12px; fill: rgb(42, 63, 95); fill-opacity: 1; white-space: pre; opacity: 1;" transform="translate(0,128.6)">50%</text></g><g class="ytick"><text text-anchor="end" x="49" y="4.199999999999999" style="font-family: 'Open Sans', verdana, arial, sans-serif; font-size: 12px; fill: rgb(42, 63, 95); fill-opacity: 1; white-space: pre; opacity: 1;" transform="translate(0,84.32)">60%</text></g><g class="ytick"><text text-anchor="end" x="49" y="4.199999999999999" style="font-family: 'Open Sans', verdana, arial, sans-serif; font-size: 12px; fill: rgb(42, 63, 95); fill-opacity: 1; white-space: pre; opacity: 1;" transform="translate(0,40.04)">70%</text></g></g><g class="overaxes-above"/></g></g><g class="polarlayer"/><g class="smithlayer"/><g class="ternarylayer"/><g class="geolayer"/><g class="funnelarealayer"/><g class="pielayer"/><g class="iciclelayer"/><g class="treemaplayer"/><g class="sunburstlayer"/><g class="glimages"/><defs id="topdefs-4f233b"><g class="clips"/><clipPath id="legend4f233b"><rect width="128" height="124" x="0" y="0"/></clipPath></defs><g class="layer-above"><g class="imagelayer"/><g class="shapelayer"/></g><g class="infolayer"><g class="legend" pointer-events="all" transform="translate(260.12,20)"><rect class="bg" shape-rendering="crispEdges" width="128" height="124" x="0" y="0" style="stroke: rgb(68, 68, 68); stroke-opacity: 1; fill: rgb(255, 255, 255); fill-opacity: 1; stroke-width: 0px;"/><g class="scrollbox" transform="" clip-path="url(#legend4f233b)"><g class="groups"><g class="traces" transform="translate(0,14.5)" style="opacity: 1;"><text class="legendtext" text-anchor="start" x="40" y="4.680000000000001" style="font-family: 'Open Sans', verdana, arial, sans-serif; font-size: 12px; fill: rgb(42, 63, 95); fill-opacity: 1; white-space: pre;">Pellegrini Peter</text><g class="layers" style="opacity: 1;"><g class="legendfill"/><g class="legendlines"><path class="js-line" d="M5,0h30" style="fill: none; stroke: rgb(138, 44, 81); stroke-opacity: 1; stroke-width: 5px;"/></g><g class="legendsymbols"><g class="legendpoints"/></g></g><rect class="legendtoggle" x="0" y="-9.5" width="122.703125" height="19" style="fill: rgb(0, 0, 0); fill-opacity: 0;"/></g><g class="traces" transform="translate(0,33.5)" style="opacity: 1;"><text class="legendtext" text-anchor="start" x="40" y="4.680000000000001" style="font-family: 'Open Sans', verdana, arial, sans-serif; font-size: 12px; fill: rgb(42, 63, 95); fill-opacity: 1; white-space: pre;">Korčok Ivan</text><g class="layers" style="opacity: 1;"><g class="legendfill"/><g class="legendlines"><path class="js-line" d="M5,0h30" style="fill: none; stroke: rgb(0, 174, 239); stroke-opacity: 1; stroke-width: 5px;"/></g><g class="legendsymbols"><g class="legendpoints"/></g></g><rect class="legendtoggle" x="0" y="-9.5" width="122.703125" height="19" style="fill: rgb(0, 0, 0); fill-opacity: 0;"/></g><g class="traces" transform="translate(0,52.5)" style="opacity: 1;"><text class="legendtext" text-anchor="start" x="40" y="4.680000000000001" style="font-family: 'Open Sans', verdana, arial, sans-serif; font-size: 12px; fill: rgb(42, 63, 95); fill-opacity: 1; white-space: pre;">Mistrík Robert</text><g class="layers" style="opacity: 1;"><g class="legendfill"/><g class="legendlines"><path class="js-line" d="M5,0h30" style="fill: none; stroke: rgb(202, 166, 105); stroke-opacity: 1; stroke-width: 5px;"/></g><g class="legendsymbols"><g class="legendpoints"/></g></g><rect class="legendtoggle" x="0" y="-9.5" width="122.703125" height="19" style="fill: rgb(0, 0, 0); fill-opacity: 0;"/></g><g class="traces" transform="translate(0,71.5)" style="opacity: 1;"><text class="legendtext" text-anchor="start" x="40" y="4.680000000000001" style="font-family: 'Open Sans', verdana, arial, sans-serif; font-size: 12px; fill: rgb(42, 63, 95); fill-opacity: 1; white-space: pre;">Kubiš Ján</text><g class="layers" style="opacity: 1;"><g class="legendfill"/><g class="legendlines"><path class="js-line" d="M5,0h30" style="fill: none; stroke: rgb(255, 1, 170); stroke-opacity: 1; stroke-width: 5px;"/></g><g class="legendsymbols"><g class="legendpoints"/></g></g><rect class="legendtoggle" x="0" y="-9.5" width="122.703125" height="19" style="fill: rgb(0, 0, 0); fill-opacity: 0;"/></g><g class="traces" transform="translate(0,90.5)" style="opacity: 1;"><text class="legendtext" text-anchor="start" x="40" y="4.680000000000001" style="font-family: 'Open Sans', verdana, arial, sans-serif; font-size: 12px; fill: rgb(42, 63, 95); fill-opacity: 1; white-space: pre;">Lajčák Miroslav</text><g class="layers" style="opacity: 1;"><g class="legendfill"/><g class="legendlines"><path class="js-line" d="M5,0h30" style="fill: none; stroke: rgb(255, 192, 203); stroke-opacity: 1; stroke-width: 5px;"/></g><g class="legendsymbols"><g class="legendpoints"/></g></g><rect class="legendtoggle" x="0" y="-9.5" width="122.703125" height="19" style="fill: rgb(0, 0, 0); fill-opacity: 0;"/></g><g class="traces" transform="translate(0,109.5)" style="opacity: 1;"><text class="legendtext" text-anchor="start" x="40" y="4.680000000000001" style="font-family: 'Open Sans', verdana, arial, sans-serif; font-size: 12px; fill: rgb(42, 63, 95); fill-opacity: 1; white-space: pre;">Fico Robert</text><g class="layers" style="opacity: 1;"><g class="legendfill"/><g class="legendlines"><path class="js-line" d="M5,0h30" style="fill: none; stroke: rgb(238, 58, 67); stroke-opacity: 1; stroke-width: 5px;"/></g><g class="legendsymbols"><g class="legendpoints"/></g></g><rect class="legendtoggle" x="0" y="-9.5" width="122.703125" height="19" style="fill: rgb(0, 0, 0); fill-opacity: 0;"/></g></g></g><rect class="scrollbar" rx="20" ry="3" width="0" height="0" x="0" y="0" style="fill: rgb(128, 139, 164); fill-opacity: 1;"/></g><g class="g-gtitle"/><g class="g-xtitle"/><g class="g-ytitle"/></g></svg>