<svg class="main-svg" xmlns="http://www.w3.org/2000/svg" xmlns:xlink="http://www.w3.org/1999/xlink" width="1200" height="600" style="" viewBox="0 0 1200 600"><rect x="0" y="0" width="1200" height="600" style="fill: rgb(255, 255, 255); fill-opacity: 1;"/><defs id="defs-e44295"><g class="clips"><clipPath id="clipe44295xyplot" class="plotclip"><rect width="990" height="530"/></clipPath><clipPath class="axesclip" id="clipe44295x"><rect x="50" y="0" width="990" height="600"/></clipPath><clipPath class="axesclip" id="clipe44295y"><rect x="0" y="20" width="1200" height="530"/></clipPath><clipPath class="axesclip" id="clipe44295xy"><rect x="50" y="20" width="990" height="530"/></clipPath></g><g class="gradients"/><g class="patterns"/></defs><g class="bglayer"/><g class="layer-below"><g class="imagelayer"/><g class="shapelayer"/></g><g class="cartesianlayer"><g class="subplot xy"><g class="layer-subplot"><g class="shapelayer"/><g class="imagelayer"/></g><g class="minor-gridlayer"><g class="x"/><g class="y"/></g><g class="gridlayer"><g class="x"><path class="xgrid crisp" transform="translate(84.14,0)" d="M0,20v530" style="stroke: rgb(235, 240, 248); stroke-opacity: 1; stroke-width: 1px;"/><path class="xgrid crisp" transform="translate(189.97,0)" d="M0,20v530" style="stroke: rgb(235, 240, 248); stroke-opacity: 1; stroke-width: 1px;"/><path class="xgrid crisp" transform="translate(295.78999999999996,0)" d="M0,20v530" style="stroke: rgb(235, 240, 248); stroke-opacity: 1; stroke-width: 1px;"/><path class="xgrid crisp" transform="translate(398.21,0)" d="M0,20v530" style="stroke: rgb(235, 240, 248); stroke-opacity: 1; stroke-width: 1px;"/><path class="xgrid crisp" transform="translate(504.03,0)" d="M0,20v530" style="stroke: rgb(235, 240, 248); stroke-opacity: 1; stroke-width: 1px;"/><path class="xgrid crisp" transform="translate(606.45,0)" d="M0,20v530" style="stroke: rgb(235, 240, 248); stroke-opacity: 1; stroke-width: 1px;"/><path class="xgrid crisp" transform="translate(712.28,0)" d="M0,20v530" style="stroke: rgb(235, 240, 248); stroke-opacity: 1; stroke-width: 1px;"/><path class="xgrid crisp" transform="translate(818.1,0)" d="M0,20v530" style="stroke: rgb(235, 240, 248); stroke-opacity: 1; stroke-width: 1px;"/><path class="xgrid crisp" transform="translate(917.1,0)" d="M0,20v530" style="stroke: rgb(235, 240, 248); stroke-opacity: 1; stroke-width: 1px;"/><path class="xgrid crisp" transform="translate(1022.93,0)" d="M0,20v530" style="stroke: rgb(235, 240, 248); stroke-opacity: 1; stroke-width: 1px;"/></g><g class="y"><path class="ygrid crisp" transform="translate(0,474.74)" d="M50,0h990" style="stroke: rgb(235, 240, 248); stroke-opacity: 1; stroke-width: 1px;"/><path class="ygrid crisp" transform="translate(0,399.48)" d="M50,0h990" style="stroke: rgb(235, 240, 248); stroke-opacity: 1; stroke-width: 1px;"/><path class="ygrid crisp" transform="translate(0,324.22)" d="M50,0h990" style="stroke: rgb(235, 240, 248); stroke-opacity: 1; stroke-width: 1px;"/><path class="ygrid crisp" transform="translate(0,248.95)" d="M50,0h990" style="stroke: rgb(235, 240, 248); stroke-opacity: 1; stroke-width: 1px;"/><path class="ygrid crisp" transform="translate(0,173.69)" d="M50,0h990" style="stroke: rgb(235, 240, 248); stroke-opacity: 1; stroke-width: 1px;"/><path class="ygrid crisp" transform="translate(0,98.43)" d="M50,0h990" style="stroke: rgb(235, 240, 248); stroke-opacity: 1; stroke-width: 1px;"/><path class="ygrid crisp" transform="translate(0,23.17)" d="M50,0h990" style="stroke: rgb(235, 240, 248); stroke-opacity: 1; stroke-width: 1px;"/></g></g><g class="zerolinelayer"><path class="yzl zl crisp" transform="translate(0,550)" d="M50,0h990" style="stroke: rgb(235, 240, 248); stroke-opacity: 1; stroke-width: 2px;"/></g><path class="xlines-below"/><path class="ylines-below"/><g class="overlines-below"/><g class="xaxislayer-below"/><g class="yaxislayer-below"/><g class="overaxes-below"/><g class="plot" transform="translate(50,20)" clip-path="url(#clipe44295xyplot)"><g class="scatterlayer mlayer"><g class="trace scatter trace91555e" style="stroke-miterlimit: 2; opacity: 1;"><g class="fills"/><g class="errorbars"/><g class="lines"><path class="js-line" d="M0,372.7L6.83,353.14L10.24,353.14L20.48,353.14L23.9,358.4L30.72,349.37L34.14,349.37L47.79,349.37L51.21,347.11L61.45,347.11L64.86,344.86L68.28,343.35L71.69,343.35L78.52,343.35L81.93,338.84L126.31,338.84L129.72,333.57L146.79,333.57L150.21,301.96L191.17,301.96L198,323.78L201.41,319.27L208.24,319.27L232.14,318.51L235.55,317.76L238.97,334.32L242.38,342.6L245.79,342.6L249.21,339.59L252.62,336.58L256.03,343.35L286.76,343.35L290.17,340.34L293.59,340.34L297,343.35L300.41,340.34L303.83,342.6L307.24,340.34L310.66,340.34L314.07,338.84L317.48,340.34L327.72,340.34L331.14,338.84L334.55,338.84L337.97,340.34L341.38,338.84L344.79,338.84L348.21,323.78L351.62,329.8L358.45,329.8L361.86,328.3L365.28,303.46L368.69,288.41L375.52,288.41L378.93,284.65L382.34,259.81L385.76,247.77L389.17,245.51L392.59,245.51L399.41,245.51L402.83,241L409.66,228.2L413.07,217.66L440.38,218.42L443.79,219.92L447.21,219.92L450.62,227.45L477.93,227.45L481.34,216.91L484.76,216.91L488.17,198.85L501.83,198.85L505.24,178.53L525.72,178.53L529.14,166.49L532.55,161.97L535.97,161.97L539.38,161.97L542.79,157.46L546.21,150.68L549.62,146.92L553.03,146.92L556.45,121.33L563.28,121.33L566.69,108.54L570.1,77.68L573.52,77.68L600.83,77.68L604.24,88.97L607.66,94.24L611.07,94.24L614.48,94.24L617.9,97.25L621.31,109.29L624.72,113.8L628.14,110.79L631.55,105.52L655.45,105.52L658.86,104.02L662.28,107.78L665.69,106.28L672.52,64.88L675.93,56.6L679.34,55.85L682.76,58.11L686.17,67.14L689.59,61.87L693,47.57L696.41,47.57L703.24,54.35L706.66,60.37L710.07,67.14L713.48,67.89L716.9,93.48L720.31,102.51L723.72,93.48L727.14,97.25L730.55,94.24L733.97,82.19L737.38,79.18L740.79,82.95L747.62,85.2L751.03,80.69L754.45,74.67L757.86,64.13L761.28,53.59L764.69,53.59L768.1,53.59L771.52,56.6L774.93,65.64L778.34,67.14L781.76,61.12L785.17,60.37L788.59,65.64L792,80.69L795.41,110.04L798.83,122.83L802.24,121.33L805.66,121.33L809.07,122.08L812.48,128.86L815.9,131.11L819.31,129.61L822.72,121.33L826.14,129.61L832.97,134.88L836.38,124.34L839.79,101.76L843.21,88.21L846.62,78.43L850.03,77.68L853.45,61.12L856.86,61.87L860.28,61.12L863.69,57.36L867.1,62.63L870.52,74.67L880.76,74.67L884.17,70.9L887.59,69.4L891,64.88L897.83,64.88L901.24,61.87L904.66,54.35L908.07,51.34L911.48,46.82L914.9,26.5" style="vector-effect: none; fill: none; stroke: rgb(138, 44, 81); stroke-opacity: 1; stroke-width: 5px; opacity: 1;"/></g><g class="points"/><g class="text"/></g><g class="trace scatter trace87cf5b" style="stroke-miterlimit: 2; opacity: 1;"><g class="fills"/><g class="errorbars"/><g class="lines"><path class="js-line" d="M0,201.86L6.83,212.4L10.24,212.4L20.48,212.4L23.9,217.66L30.72,206.38L34.14,206.38L61.45,206.38L64.86,207.88L68.28,209.39L71.69,209.39L78.52,209.39L81.93,213.15L198,213.15L201.41,234.22L228.72,234.22L232.14,230.46L235.55,227.45L238.97,210.14L242.38,184.55L245.79,184.55L252.62,198.1L256.03,175.52L286.76,175.52L290.17,186.81L293.59,186.81L297,175.52L300.41,186.81L303.83,173.26L307.24,170.25L310.66,170.25L314.07,184.55L317.48,170.25L327.72,170.25L331.14,184.55L334.55,184.55L337.97,170.25L341.38,184.55L344.79,184.55L348.21,171L351.62,188.31L361.86,188.31L365.28,192.83L375.52,192.83L378.93,196.59L382.34,209.39L385.76,213.9L392.59,214.65L396,214.65L406.24,214.65L409.66,216.91L416.48,217.66L419.9,217.66L436.97,217.66L440.38,219.92L443.79,224.44L447.21,224.44L450.62,227.45L457.45,227.45L481.34,228.2L484.76,225.19L488.17,232.72L491.59,232.72L501.83,232.72L505.24,231.21L525.72,231.21L529.14,243.25L532.55,246.26L535.97,246.26L539.38,246.26L542.79,250.78L549.62,259.06L553.03,259.06L556.45,244.76L559.86,244.76L563.28,244.76L566.69,252.28L570.1,262.07L573.52,262.07L600.83,262.07L604.24,251.53L607.66,245.51L611.07,245.51L614.48,245.51L617.9,242.5L621.31,225.19L624.72,219.92L631.55,223.69L634.97,223.69L652.03,223.69L655.45,222.18L658.86,223.69L662.28,219.92L665.69,219.92L669.1,239.49L672.52,253.79L675.93,262.07L679.34,262.82L682.76,260.56L686.17,250.78L689.59,245.51L693,259.81L696.41,259.81L703.24,253.04L706.66,247.02L710.07,240.24L713.48,239.49L716.9,213.9L720.31,204.87L723.72,213.9L727.14,210.14L730.55,213.15L733.97,225.19L737.38,228.2L740.79,224.44L747.62,222.18L751.03,226.7L754.45,232.72L757.86,243.25L761.28,253.79L764.69,253.79L768.1,253.79L771.52,250.78L774.93,241.75L778.34,240.24L781.76,246.26L785.17,247.02L788.59,241.75L792,226.7L795.41,197.34L798.83,184.55L802.24,186.05L805.66,186.05L809.07,185.3L812.48,178.53L815.9,176.27L819.31,177.78L822.72,186.05L826.14,177.78L832.97,172.51L836.38,183.04L839.79,205.62L843.21,219.17L846.62,228.95L850.03,229.71L853.45,246.26L856.86,245.51L860.28,246.26L863.69,250.03L867.1,244.76L870.52,232.72L880.76,232.72L884.17,236.48L887.59,237.99L891,242.5L897.83,242.5L901.24,245.51L904.66,253.04L908.07,256.05L911.48,260.56L914.9,280.88" style="vector-effect: none; fill: none; stroke: rgb(0, 174, 239); stroke-opacity: 1; stroke-width: 5px; opacity: 1;"/></g><g class="points"/><g class="text"/></g><g class="trace scatter traceead0f5" style="stroke-miterlimit: 2; opacity: 1;"><g class="fills"/><g class="errorbars"/><g class="lines"><path class="js-line" d="M0,453.99L6.83,456.24L10.24,456.24L20.48,456.24L23.9,461.51L30.72,452.48L34.14,452.48L47.79,452.48L51.21,453.99L64.86,453.23L68.28,452.48L126.31,452.48L129.72,453.99L146.79,453.99L150.21,463.02L191.17,463.02L198,457L201.41,408.08L208.24,408.08L228.72,408.08L232.14,410.33L235.55,412.59L238.97,412.59L242.38,417.11L245.79,417.11L252.62,411.84L256.03,417.86L286.76,417.86L290.17,414.85L293.59,414.85L297,417.86L300.41,414.85L303.83,419.37L307.24,422.38L310.66,422.38L314.07,417.11L317.48,422.38L327.72,422.38L331.14,417.11L334.55,417.11L337.97,422.38L341.38,417.11L344.79,417.11L348.21,438.93L351.62,423.88L361.86,424.63L365.28,435.92L368.69,444.95L372.1,444.95L375.52,444.95L378.93,442.7L382.34,450.22L385.76,451.73L402.83,450.98L406.24,450.22L409.66,451.73L413.07,454.74L436.97,454.74L440.38,451.73L443.79,444.95L447.21,444.95L450.62,434.42L457.45,434.42L477.93,434.42L481.34,444.2L484.76,447.21L488.17,457.75L501.83,457.75L505.24,463.77L542.79,464.52L546.21,465.28L553.03,466.03L556.45,489.36L563.28,489.36L566.69,492.37L570.1,496.88L573.52,496.88L617.9,496.88L621.31,503.66L624.72,503.66L628.14,505.16L631.55,508.17L634.97,508.17L652.03,508.17L655.45,509.68L662.28,509.68L665.69,511.18L669.1,516.45L672.52,518.71L682.76,518.71L686.17,520.22" style="vector-effect: none; fill: none; stroke: rgb(255, 1, 170); stroke-opacity: 1; stroke-width: 5px; opacity: 1;"/></g><g class="points"/><g class="text"/></g><g class="trace scatter trace7537f1" style="stroke-miterlimit: 2; opacity: 1;"><g class="fills"/><g class="errorbars"/><g class="lines"><path class="js-line" d="M0,450.98L6.83,453.99L10.24,453.99L20.48,453.99L23.9,450.98L27.31,451.73L30.72,455.49L61.45,456.24L64.86,458.5L68.28,460.01L71.69,460.01L126.31,460.01L129.72,458.5L146.79,458.5L150.21,469.79L191.17,469.79L198,465.28L201.41,475.06L208.24,475.06L232.14,475.81L235.55,477.32L238.97,477.32L242.38,485.6L245.79,485.6L249.21,481.08L252.62,476.56L256.03,489.36L286.76,489.36L290.17,483.34L293.59,483.34L297,489.36L300.41,483.34L303.83,488.61L310.66,488.61L314.07,482.59L317.48,488.61L320.9,488.61L327.72,488.61L331.14,482.59L334.55,482.59L337.97,488.61L341.38,482.59L344.79,482.59L348.21,483.34L351.62,478.07L361.86,478.82L365.28,486.35L368.69,490.11L372.1,490.11L375.52,490.11L378.93,491.62L385.76,496.13L389.17,496.88L399.41,496.88L402.83,498.39L413.07,506.67L416.48,506.67L501.83,506.67L505.24,505.92L553.03,506.67L556.45,520.97L563.28,520.97L566.69,522.47" style="vector-effect: none; fill: none; stroke: rgb(238, 58, 67); stroke-opacity: 1; stroke-width: 5px; opacity: 1;"/></g><g class="points"/><g class="text"/></g><g class="trace scatter trace9ed204" style="stroke-miterlimit: 2; opacity: 1;"><g class="fills"/><g class="errorbars"/><g class="lines"><path class="js-line" d="M0,477.32L10.24,479.57L13.66,479.57L23.9,478.82L27.31,477.32L34.14,478.07L37.55,478.07L47.79,478.07L51.21,479.57L78.52,478.82L81.93,480.33L126.31,480.33L129.72,486.35L146.79,486.35L150.21,492.37L191.17,492.37L198,483.34L201.41,502.91L208.24,502.91L238.97,503.66L242.38,508.93L252.62,508.93L256.03,511.94L286.76,511.94L290.17,510.43L293.59,510.43L297,511.94L300.41,510.43L303.83,511.94L310.66,511.94L314.07,510.43L317.48,511.94L320.9,511.94L327.72,511.94L331.14,510.43L334.55,510.43L337.97,511.94L341.38,510.43L344.79,510.43L348.21,512.69L351.62,511.18L375.52,511.94L378.93,512.69L385.76,514.95L389.17,515.7L399.41,515.7L402.83,517.21L406.24,520.22L409.66,520.22L416.48,520.97L419.9,520.97L501.83,520.22" style="vector-effect: none; fill: none; stroke: rgb(255, 192, 203); stroke-opacity: 1; stroke-width: 5px; opacity: 1;"/></g><g class="points"/><g class="text"/></g><g class="trace scatter trace91343a" style="stroke-miterlimit: 2; opacity: 1;"><g class="fills"/><g class="errorbars"/><g class="lines"><path class="js-line" d="M0,470.54L10.24,472.05L13.66,472.05L20.48,472.05L23.9,461.51L30.72,484.84L34.14,484.84L64.86,484.09L68.28,483.34L146.79,482.59L150.21,486.35L191.17,486.35L198,484.84L201.41,487.85L208.24,487.85L232.14,488.61L235.55,489.36L245.79,488.61L249.21,491.62L252.62,494.63L256.03,489.36L286.76,489.36L290.17,491.62L293.59,491.62L297,489.36L300.41,491.62L303.83,490.86L307.24,493.87L310.66,493.87L314.07,494.63L317.48,493.87L344.79,494.63L348.21,496.88L365.28,496.88L368.69,498.39L378.93,499.14L382.34,499.9L389.17,502.91L392.59,502.91L399.41,502.91L402.83,504.41L413.07,510.43L416.48,510.43L501.83,510.43L505.24,517.96L553.03,518.71L556.45,520.97L563.28,520.97L566.69,522.47" style="vector-effect: none; fill: none; stroke: rgb(202, 166, 105); stroke-opacity: 1; stroke-width: 5px; opacity: 1;"/></g><g class="points"/><g class="text"/></g></g></g><g class="overplot"/><path class="xlines-above crisp" d="M0,0" style="fill: none;"/><path class="ylines-above crisp" d="M0,0" style="fill: none;"/><g class="overlines-above"/><g class="xaxislayer-above"><g class="xtick"><text text-anchor="middle" x="0" y="563" transform="translate(84.14,0)" style="font-family: 'Open Sans', verdana, arial, sans-serif; font-size: 12px; fill: rgb(42, 63, 95); fill-opacity: 1; white-space: pre; opacity: 1;">1.7.23</text></g><g class="xtick"><text text-anchor="middle" x="0" y="563" style="font-family: 'Open Sans', verdana, arial, sans-serif; font-size: 12px; fill: rgb(42, 63, 95); fill-opacity: 1; white-space: pre; opacity: 1;" transform="translate(189.97,0)">1.8.23</text></g><g class="xtick"><text text-anchor="middle" x="0" y="563" style="font-family: 'Open Sans', verdana, arial, sans-serif; font-size: 12px; fill: rgb(42, 63, 95); fill-opacity: 1; white-space: pre; opacity: 1;" transform="translate(295.78999999999996,0)">1.9.23</text></g><g class="xtick"><text text-anchor="middle" x="0" y="563" style="font-family: 'Open Sans', verdana, arial, sans-serif; font-size: 12px; fill: rgb(42, 63, 95); fill-opacity: 1; white-space: pre; opacity: 1;" transform="translate(398.21,0)">1.10.23</text></g><g class="xtick"><text text-anchor="middle" x="0" y="563" style="font-family: 'Open Sans', verdana, arial, sans-serif; font-size: 12px; fill: rgb(42, 63, 95); fill-opacity: 1; white-space: pre; opacity: 1;" transform="translate(504.03,0)">1.11.23</text></g><g class="xtick"><text text-anchor="middle" x="0" y="563" style="font-family: 'Open Sans', verdana, arial, sans-serif; font-size: 12px; fill: rgb(42, 63, 95); fill-opacity: 1; white-space: pre; opacity: 1;" transform="translate(606.45,0)">1.12.23</text></g><g class="xtick"><text text-anchor="middle" x="0" y="563" style="font-family: 'Open Sans', verdana, arial, sans-serif; font-size: 12px; fill: rgb(42, 63, 95); fill-opacity: 1; white-space: pre; opacity: 1;" transform="translate(712.28,0)">1.1.24</text></g><g class="xtick"><text text-anchor="middle" x="0" y="563" style="font-family: 'Open Sans', verdana, arial, sans-serif; font-size: 12px; fill: rgb(42, 63, 95); fill-opacity: 1; white-space: pre; opacity: 1;" transform="translate(818.1,0)">1.2.24</text></g><g class="xtick"><text text-anchor="middle" x="0" y="563" style="font-family: 'Open Sans', verdana, arial, sans-serif; font-size: 12px; fill: rgb(42, 63, 95); fill-opacity: 1; white-space: pre; opacity: 1;" transform="translate(917.1,0)">1.3.24</text></g><g class="xtick"><text text-anchor="middle" x="0" y="563" style="font-family: 'Open Sans', verdana, arial, sans-serif; font-size: 12px; fill: rgb(42, 63, 95); fill-opacity: 1; white-space: pre; opacity: 1;" transform="translate(1022.93,0)">1.4.24</text></g></g><g class="yaxislayer-above"><g class="ytick"><text text-anchor="end" x="49" y="4.199999999999999" transform="translate(0,550)" style="font-family: 'Open Sans', verdana, arial, sans-serif; font-size: 12px; fill: rgb(42, 63, 95); fill-opacity: 1; white-space: pre; opacity: 1;">0%</text></g><g class="ytick"><text text-anchor="end" x="49" y="4.199999999999999" style="font-family: 'Open Sans', verdana, arial, sans-serif; font-size: 12px; fill: rgb(42, 63, 95); fill-opacity: 1; white-space: pre; opacity: 1;" transform="translate(0,474.74)">10%</text></g><g class="ytick"><text text-anchor="end" x="49" y="4.199999999999999" style="font-family: 'Open Sans', verdana, arial, sans-serif; font-size: 12px; fill: rgb(42, 63, 95); fill-opacity: 1; white-space: pre; opacity: 1;" transform="translate(0,399.48)">20%</text></g><g class="ytick"><text text-anchor="end" x="49" y="4.199999999999999" style="font-family: 'Open Sans', verdana, arial, sans-serif; font-size: 12px; fill: rgb(42, 63, 95); fill-opacity: 1; white-space: pre; opacity: 1;" transform="translate(0,324.22)">30%</text></g><g class="ytick"><text text-anchor="end" x="49" y="4.199999999999999" style="font-family: 'Open Sans', verdana, arial, sans-serif; font-size: 12px; fill: rgb(42, 63, 95); fill-opacity: 1; white-space: pre; opacity: 1;" transform="translate(0,248.95)">40%</text></g><g class="ytick"><text text-anchor="end" x="49" y="4.199999999999999" style="font-family: 'Open Sans', verdana, arial, sans-serif; font-size: 12px; fill: rgb(42, 63, 95); fill-opacity: 1; white-space: pre; opacity: 1;" transform="translate(0,173.69)">50%</text></g><g class="ytick"><text text-anchor="end" x="49" y="4.199999999999999" style="font-family: 'Open Sans', verdana, arial, sans-serif; font-size: 12px; fill: rgb(42, 63, 95); fill-opacity: 1; white-space: pre; opacity: 1;" transform="translate(0,98.43)">60%</text></g><g class="ytick"><text text-anchor="end" x="49" y="4.199999999999999" style="font-family: 'Open Sans', verdana, arial, sans-serif; font-size: 12px; fill: rgb(42, 63, 95); fill-opacity: 1; white-space: pre; opacity: 1;" transform="translate(0,23.17)">70%</text></g></g><g class="overaxes-above"/></g></g><g class="polarlayer"/><g class="smithlayer"/><g class="ternarylayer"/><g class="geolayer"/><g class="funnelarealayer"/><g class="pielayer"/><g class="iciclelayer"/><g class="treemaplayer"/><g class="sunburstlayer"/><g class="glimages"/><defs id="topdefs-e44295"><g class="clips"/><clipPath id="legende44295"><rect width="128" height="124" x="0" y="0"/></clipPath></defs><g class="layer-above"><g class="imagelayer"/><g class="shapelayer"/></g><g class="infolayer"><g class="legend" pointer-events="all" transform="translate(1059.8000000000002,20)"><rect class="bg" shape-rendering="crispEdges" style="stroke: rgb(68, 68, 68); stroke-opacity: 1; fill: rgb(255, 255, 255); fill-opacity: 1; stroke-width: 0px;" width="128" height="124" x="0" y="0"/><g class="scrollbox" transform="" clip-path="url(#legende44295)"><g class="groups"><g class="traces" transform="translate(0,14.5)" style="opacity: 1;"><text class="legendtext" text-anchor="start" x="40" y="4.680000000000001" style="font-family: 'Open Sans', verdana, arial, sans-serif; font-size: 12px; fill: rgb(42, 63, 95); fill-opacity: 1; white-space: pre;">Pellegrini Peter</text><g class="layers" style="opacity: 1;"><g class="legendfill"/><g class="legendlines"><path class="js-line" d="M5,0h30" style="fill: none; stroke: rgb(138, 44, 81); stroke-opacity: 1; stroke-width: 5px;"/></g><g class="legendsymbols"><g class="legendpoints"/></g></g><rect class="legendtoggle" x="0" y="-9.5" width="122.703125" height="19" style="fill: rgb(0, 0, 0); fill-opacity: 0;"/></g><g class="traces" transform="translate(0,33.5)" style="opacity: 1;"><text class="legendtext" text-anchor="start" x="40" y="4.680000000000001" style="font-family: 'Open Sans', verdana, arial, sans-serif; font-size: 12px; fill: rgb(42, 63, 95); fill-opacity: 1; white-space: pre;">Korčok Ivan</text><g class="layers" style="opacity: 1;"><g class="legendfill"/><g class="legendlines"><path class="js-line" d="M5,0h30" style="fill: none; stroke: rgb(0, 174, 239); stroke-opacity: 1; stroke-width: 5px;"/></g><g class="legendsymbols"><g class="legendpoints"/></g></g><rect class="legendtoggle" x="0" y="-9.5" width="122.703125" height="19" style="fill: rgb(0, 0, 0); fill-opacity: 0;"/></g><g class="traces" transform="translate(0,52.5)" style="opacity: 1;"><text class="legendtext" text-anchor="start" x="40" y="4.680000000000001" style="font-family: 'Open Sans', verdana, arial, sans-serif; font-size: 12px; fill: rgb(42, 63, 95); fill-opacity: 1; white-space: pre;">Kubiš Ján</text><g class="layers" style="opacity: 1;"><g class="legendfill"/><g class="legendlines"><path class="js-line" d="M5,0h30" style="fill: none; stroke: rgb(255, 1, 170); stroke-opacity: 1; stroke-width: 5px;"/></g><g class="legendsymbols"><g class="legendpoints"/></g></g><rect class="legendtoggle" x="0" y="-9.5" width="122.703125" height="19" style="fill: rgb(0, 0, 0); fill-opacity: 0;"/></g><g class="traces" transform="translate(0,71.5)" style="opacity: 1;"><text class="legendtext" text-anchor="start" x="40" y="4.680000000000001" style="font-family: 'Open Sans', verdana, arial, sans-serif; font-size: 12px; fill: rgb(42, 63, 95); fill-opacity: 1; white-space: pre;">Fico Robert</text><g class="layers" style="opacity: 1;"><g class="legendfill"/><g class="legendlines"><path class="js-line" d="M5,0h30" style="fill: none; stroke: rgb(238, 58, 67); stroke-opacity: 1; stroke-width: 5px;"/></g><g class="legendsymbols"><g class="legendpoints"/></g></g><rect class="legendtoggle" x="0" y="-9.5" width="122.703125" height="19" style="fill: rgb(0, 0, 0); fill-opacity: 0;"/></g><g class="traces" transform="translate(0,90.5)" style="opacity: 1;"><text class="legendtext" text-anchor="start" x="40" y="4.680000000000001" style="font-family: 'Open Sans', verdana, arial, sans-serif; font-size: 12px; fill: rgb(42, 63, 95); fill-opacity: 1; white-space: pre;">Lajčák Miroslav</text><g class="layers" style="opacity: 1;"><g class="legendfill"/><g class="legendlines"><path class="js-line" d="M5,0h30" style="fill: none; stroke: rgb(255, 192, 203); stroke-opacity: 1; stroke-width: 5px;"/></g><g class="legendsymbols"><g class="legendpoints"/></g></g><rect class="legendtoggle" x="0" y="-9.5" width="122.703125" height="19" style="fill: rgb(0, 0, 0); fill-opacity: 0;"/></g><g class="traces" transform="translate(0,109.5)" style="opacity: 1;"><text class="legendtext" text-anchor="start" x="40" y="4.680000000000001" style="font-family: 'Open Sans', verdana, arial, sans-serif; font-size: 12px; fill: rgb(42, 63, 95); fill-opacity: 1; white-space: pre;">Mistrík Robert</text><g class="layers" style="opacity: 1;"><g class="legendfill"/><g class="legendlines"><path class="js-line" d="M5,0h30" style="fill: none; stroke: rgb(202, 166, 105); stroke-opacity: 1; stroke-width: 5px;"/></g><g class="legendsymbols"><g class="legendpoints"/></g></g><rect class="legendtoggle" x="0" y="-9.5" width="122.703125" height="19" style="fill: rgb(0, 0, 0); fill-opacity: 0;"/></g></g></g><rect class="scrollbar" rx="20" ry="3" width="0" height="0" style="fill: rgb(128, 139, 164); fill-opacity: 1;" x="0" y="0"/></g><g class="g-gtitle"/><g class="g-xtitle"/><g class="g-ytitle"/></g></svg>