<svg class="main-svg" xmlns="http://www.w3.org/2000/svg" xmlns:xlink="http://www.w3.org/1999/xlink" width="300" height="135" style="" viewBox="0 0 300 135"><rect x="0" y="0" width="300" height="135" style="fill: rgb(255, 255, 255); fill-opacity: 1;"/><defs id="defs-fea7e6"><g class="clips"><clipPath id="clipfea7e6xyplot" class="plotclip"><rect width="280" height="75"/></clipPath><clipPath class="axesclip" id="clipfea7e6x"><rect x="10" y="0" width="280" height="135"/></clipPath><clipPath class="axesclip" id="clipfea7e6y"><rect x="0" y="50" width="300" height="75"/></clipPath><clipPath class="axesclip" id="clipfea7e6xy"><rect x="10" y="50" width="280" height="75"/></clipPath></g><g class="gradients"/><g class="patterns"/></defs><g class="bglayer"/><g class="layer-below"><g class="imagelayer"/><g class="shapelayer"/></g><g class="cartesianlayer"><g class="subplot xy"><g class="layer-subplot"><g class="shapelayer"/><g class="imagelayer"/></g><g class="minor-gridlayer"><g class="x"/><g class="y"/></g><g class="gridlayer"><g class="x"><path class="xgrid crisp" transform="translate(26.47,0)" d="M0,50v75" style="stroke: rgb(235, 240, 248); stroke-opacity: 1; stroke-width: 1px;"/><path class="xgrid crisp" transform="translate(128.59,0)" d="M0,50v75" style="stroke: rgb(235, 240, 248); stroke-opacity: 1; stroke-width: 1px;"/><path class="xgrid crisp" transform="translate(229.06,0)" d="M0,50v75" style="stroke: rgb(235, 240, 248); stroke-opacity: 1; stroke-width: 1px;"/></g><g class="y"><path class="ygrid crisp" transform="translate(0,101.28999999999999)" d="M10,0h280" style="stroke: rgb(235, 240, 248); stroke-opacity: 1; stroke-width: 1px;"/><path class="ygrid crisp" transform="translate(0,77.58)" d="M10,0h280" style="stroke: rgb(235, 240, 248); stroke-opacity: 1; stroke-width: 1px;"/><path class="ygrid crisp" transform="translate(0,53.87)" d="M10,0h280" style="stroke: rgb(235, 240, 248); stroke-opacity: 1; stroke-width: 1px;"/></g></g><g class="zerolinelayer"><path class="yzl zl crisp" transform="translate(0,125)" d="M10,0h280" style="stroke: rgb(235, 240, 248); stroke-opacity: 1; stroke-width: 2px;"/></g><path class="xlines-below"/><path class="ylines-below"/><g class="overlines-below"/><g class="xaxislayer-below"/><g class="yaxislayer-below"/><g class="overaxes-below"/><g class="plot" transform="translate(10,50)" clip-path="url(#clipfea7e6xyplot)"><g class="scatterlayer mlayer"><g class="trace scatter trace05188b" style="stroke-miterlimit: 2; opacity: 1;"><g class="fills"/><g class="errorbars"/><g class="lines"><path class="js-line" d="M0,50.22L4.94,47.14L6.59,47.14L13.18,47.38L14.82,46.55L37.88,45.6L39.53,44.89L70.82,44.06L72.47,39.08L92.24,39.08L95.53,42.52L97.18,41.81L100.47,41.81L113.65,41.57L115.29,44.18L118.59,45.48L120.24,45.01L121.88,44.53L123.53,45.6L166.35,44.89L168,42.52L171.29,43.47L172.94,43.47L174.59,43.23L176.24,39.32L177.88,36.94L179.53,36.94L182.82,36.35L184.47,32.44L187.76,30.19L189.41,30.19L194.35,29.48L196,28.41L200.94,25.8L202.59,25.8L215.76,26.16L217.41,27.34L230.59,27.34L232.24,25.68L233.88,25.68L235.53,22.84L242.12,22.84L243.76,19.64L253.65,19.64L255.29,17.74L258.59,17.03L260.24,17.03L266.82,14.66L268.47,10.63L271.76,10.63L273.41,8.61L275.06,3.75L276.71,3.75L280,3.75" style="vector-effect: none; fill: none; stroke: rgb(138, 44, 81); stroke-opacity: 1; stroke-width: 5px; opacity: 1;"/></g><g class="points"/><g class="text"/></g><g class="trace scatter trace240264" style="stroke-miterlimit: 2; opacity: 1;"><g class="fills"/><g class="errorbars"/><g class="lines"><path class="js-line" d="M0,23.31L4.94,24.97L6.59,24.97L13.18,24.73L14.82,24.02L95.53,25.09L97.18,28.41L113.65,27.34L115.29,24.62L116.94,20.58L118.59,20.58L121.88,22.72L123.53,19.16L138.35,19.16L140,20.94L141.65,20.94L143.29,19.16L144.94,20.94L146.59,18.81L149.88,18.33L151.53,20.58L153.18,18.33L154.82,18.33L158.12,18.33L159.76,20.58L161.41,20.58L163.06,18.33L164.71,20.58L166.35,20.58L168,18.45L169.65,21.18L181.18,21.89L182.82,22.48L186.12,25.21L187.76,25.33L212.47,26.16L214.12,26.87L233.88,26.99L235.53,28.17L253.65,27.93L255.29,29.83L266.82,32.32L268.47,30.07L273.41,31.25L275.06,32.8L280,32.8" style="vector-effect: none; fill: none; stroke: rgb(0, 174, 239); stroke-opacity: 1; stroke-width: 5px; opacity: 1;"/></g><g class="points"/><g class="text"/></g><g class="trace scatter trace65b34d" style="stroke-miterlimit: 2; opacity: 1;"><g class="fills"/><g class="errorbars"/><g class="lines"><path class="js-line" d="M0,63.03L11.53,64.21L13.18,63.5L16.47,62.79L18.12,62.79L70.82,63.03L72.47,64.45L95.53,63.5L97.18,55.79L115.29,56.51L116.94,57.22L146.59,57.57L148.24,58.05L166.35,57.22L168,60.66L169.65,58.28L171.29,58.28L174.59,58.4L176.24,60.18L179.53,61.6L181.18,61.6L182.82,61.25L184.47,62.43L192.71,62.67L194.35,62.55L202.59,63.14L204.24,63.14L212.47,62.67L214.12,61.6L215.76,61.6L217.41,59.94L230.59,59.94L232.24,61.49L238.82,63.62L240.47,63.62L263.53,64.8L265.18,64.92L266.82,64.92L268.47,68.6L280,69.78" style="vector-effect: none; fill: none; stroke: rgb(255, 1, 170); stroke-opacity: 1; stroke-width: 5px; opacity: 1;"/></g><g class="points"/><g class="text"/></g><g class="trace scatter trace4e6a92" style="stroke-miterlimit: 2; opacity: 1;"><g class="fills"/><g class="errorbars"/><g class="lines"><path class="js-line" d="M0,66.7L16.47,66.82L18.12,66.82L60.94,67.18L62.59,68.12L92.24,69.07L95.53,67.65L97.18,70.73L100.47,70.73L121.88,71.68L123.53,72.15L194.35,72.98L196,73.46L242.12,73.46" style="vector-effect: none; fill: none; stroke: rgb(255, 192, 203); stroke-opacity: 1; stroke-width: 5px; opacity: 1;"/></g><g class="points"/><g class="text"/></g><g class="trace scatter trace592af5" style="stroke-miterlimit: 2; opacity: 1;"><g class="fills"/><g class="errorbars"/><g class="lines"><path class="js-line" d="M0,62.55L9.88,63.03L11.53,62.55L41.18,63.97L42.82,63.97L70.82,63.74L72.47,65.52L95.53,64.8L97.18,66.35L115.29,66.7L116.94,68.01L120.24,67.29L121.88,66.58L123.53,68.6L125.18,68.6L168,67.65L169.65,66.82L174.59,66.94L176.24,68.12L181.18,68.72L182.82,68.95L191.06,69.78L192.71,69.78L207.53,71.32L209.18,71.32L266.82,71.32L268.47,73.58L273.41,73.81" style="vector-effect: none; fill: none; stroke: rgb(238, 58, 67); stroke-opacity: 1; stroke-width: 5px; opacity: 1;"/></g><g class="points"/><g class="text"/></g></g></g><g class="overplot"/><path class="xlines-above crisp" d="M0,0" style="fill: none;"/><path class="ylines-above crisp" d="M0,0" style="fill: none;"/><g class="overlines-above"/><g class="xaxislayer-above"/><g class="yaxislayer-above"/><g class="overaxes-above"/></g></g><g class="polarlayer"/><g class="smithlayer"/><g class="ternarylayer"/><g class="geolayer"/><g class="funnelarealayer"/><g class="pielayer"/><g class="iciclelayer"/><g class="treemaplayer"/><g class="sunburstlayer"/><g class="glimages"/><defs id="topdefs-fea7e6"><g class="clips"/></defs><g class="layer-above"><g class="imagelayer"/><g class="shapelayer"/></g><g class="infolayer"><g class="g-gtitle"><text class="gtitle" x="15" y="25" text-anchor="start" dy="0em" style="font-family: Ubuntu, verdana, arial, sans-serif; font-size: 16px; fill: rgb(233, 84, 32); opacity: 1; font-weight: normal; white-space: pre;">Prezident/ka 2024</text></g><g class="g-xtitle"/><g class="g-ytitle"/></g></svg>