<svg class="main-svg" xmlns="http://www.w3.org/2000/svg" xmlns:xlink="http://www.w3.org/1999/xlink" width="300" height="135" style="" viewBox="0 0 300 135"><rect x="0" y="0" width="300" height="135" style="fill: rgb(255, 255, 255); fill-opacity: 1;"/><defs id="defs-4003d6"><g class="clips"><clipPath id="clip4003d6xyplot" class="plotclip"><rect width="280" height="75"/></clipPath><clipPath class="axesclip" id="clip4003d6x"><rect x="10" y="0" width="280" height="135"/></clipPath><clipPath class="axesclip" id="clip4003d6y"><rect x="0" y="50" width="300" height="75"/></clipPath><clipPath class="axesclip" id="clip4003d6xy"><rect x="10" y="50" width="280" height="75"/></clipPath></g><g class="gradients"/><g class="patterns"/></defs><g class="bglayer"/><g class="layer-below"><g class="imagelayer"/><g class="shapelayer"/></g><g class="cartesianlayer"><g class="subplot xy"><g class="layer-subplot"><g class="shapelayer"/><g class="imagelayer"/></g><g class="minor-gridlayer"><g class="x"/><g class="y"/></g><g class="gridlayer"><g class="x"><path class="xgrid crisp" transform="translate(20.259999999999998,0)" d="M0,50v75" style="stroke: rgb(235, 240, 248); stroke-opacity: 1; stroke-width: 1px;"/><path class="xgrid crisp" transform="translate(83.85,0)" d="M0,50v75" style="stroke: rgb(235, 240, 248); stroke-opacity: 1; stroke-width: 1px;"/><path class="xgrid crisp" transform="translate(146.41,0)" d="M0,50v75" style="stroke: rgb(235, 240, 248); stroke-opacity: 1; stroke-width: 1px;"/><path class="xgrid crisp" transform="translate(208.97,0)" d="M0,50v75" style="stroke: rgb(235, 240, 248); stroke-opacity: 1; stroke-width: 1px;"/><path class="xgrid crisp" transform="translate(270.51,0)" d="M0,50v75" style="stroke: rgb(235, 240, 248); stroke-opacity: 1; stroke-width: 1px;"/></g><g class="y"><path class="ygrid crisp" transform="translate(0,104.53)" d="M10,0h280" style="stroke: rgb(235, 240, 248); stroke-opacity: 1; stroke-width: 1px;"/><path class="ygrid crisp" transform="translate(0,84.05)" d="M10,0h280" style="stroke: rgb(235, 240, 248); stroke-opacity: 1; stroke-width: 1px;"/><path class="ygrid crisp" transform="translate(0,63.58)" d="M10,0h280" style="stroke: rgb(235, 240, 248); stroke-opacity: 1; stroke-width: 1px;"/></g></g><g class="zerolinelayer"><path class="yzl zl crisp" transform="translate(0,125)" d="M10,0h280" style="stroke: rgb(235, 240, 248); stroke-opacity: 1; stroke-width: 2px;"/></g><path class="xlines-below"/><path class="ylines-below"/><g class="overlines-below"/><g class="xaxislayer-below"/><g class="yaxislayer-below"/><g class="overaxes-below"/><g class="plot" transform="translate(10,50)" clip-path="url(#clip4003d6xyplot)"><g class="scatterlayer mlayer"><g class="trace scatter traceb15882" style="stroke-miterlimit: 2; opacity: 1;"><g class="fills"/><g class="errorbars"/><g class="lines"><path class="js-line" d="M0,53.6L3.08,50.94L4.1,50.94L14.36,50.43L15.38,50.12L37.95,49L38.97,48.28L44.1,48.28L45.13,43.98L57.44,43.98L59.49,46.95L62.56,46.34L63.59,46.34L70.77,46.13L71.79,48.38L73.85,49.51L74.87,49.1L76.92,49.61L77.95,49.61L103.59,49L104.62,46.95L106.67,47.77L107.69,47.77L108.72,47.56L109.74,44.19L111.79,42.14L112.82,42.14L113.85,41.63L114.87,38.25L116.92,36.3L117.95,36.3L121.03,35.69L122.05,34.77L125.13,32.52L126.15,32.52L134.36,32.82L135.38,33.85L143.59,33.85L144.62,32.41L145.64,32.41L146.67,29.96L150.77,29.96L151.79,27.19L157.95,27.19L158.97,25.55L165.13,22.89L166.15,22.89L168.21,19.41L169.23,19.41L170.26,17.67L171.28,13.48L180.51,13.48L181.54,15.01L184.62,15.73L185.64,16.14L187.69,18.39L188.72,17.98L191.79,17.26L192.82,17.26L200,17.37L201.03,13.99L203.08,10.61L204.1,10.51L207.18,11.33L208.21,9.38L211.28,10.3L212.31,11.12L214.36,12.14L215.38,15.63L216.41,16.85L217.44,15.63L219.49,15.73L220.51,14.09L222.56,14.19L223.59,14.29L225.64,13.88L226.67,13.07L229.74,10.2L230.77,10.2L233.85,12.04L234.87,11.22L236.92,11.84L237.95,13.88L240,19.62L241.03,19.41L244.1,20.44L245.13,20.74L247.18,19.41L248.21,20.54L250.26,21.26L251.28,19.82L254.36,13.58L255.38,13.48L257.44,11.33L258.46,11.22L260.51,11.43L261.54,13.07L266.67,12.35L267.69,11.73L270.77,11.33L271.79,10.3L273.85,9.28L274.87,6.51L278.97,4.36L280,3.75" style="vector-effect: none; fill: none; stroke: rgb(138, 44, 81); stroke-opacity: 1; stroke-width: 5px; opacity: 1;"/></g><g class="points"/><g class="text"/></g><g class="trace scatter tracea11b71" style="stroke-miterlimit: 2; opacity: 1;"><g class="fills"/><g class="errorbars"/><g class="lines"><path class="js-line" d="M0,30.37L4.1,31.8L5.13,31.8L8.21,31.59L9.23,30.98L59.49,31.9L60.51,34.77L70.77,33.85L71.79,31.49L73.85,28.01L74.87,28.93L75.9,29.85L76.92,26.78L86.15,26.78L87.18,28.32L88.21,28.32L89.23,26.78L90.26,28.32L91.28,26.48L93.33,26.07L94.36,28.01L96.41,26.07L97.44,26.07L98.46,26.07L99.49,28.01L100.51,28.01L101.54,26.07L103.59,28.01L104.62,26.17L106.67,28.52L107.69,28.52L113.85,29.65L114.87,31.39L117.95,32.11L118.97,32.11L132.31,32.82L133.33,33.44L157.95,34.36L158.97,36L166.15,38.15L167.18,36.2L170.26,37.23L171.28,38.56L180.51,38.56L181.54,37.12L183.59,36.3L184.62,36.3L185.64,35.89L186.67,33.54L188.72,33.03L189.74,33.34L200,32.82L201.03,35.48L204.1,38.66L205.13,38.35L207.18,36.3L208.21,38.25L211.28,37.33L212.31,36.51L214.36,35.48L215.38,32L216.41,30.78L217.44,32L219.49,31.9L220.51,33.54L222.56,33.44L223.59,33.34L225.64,33.74L226.67,34.56L229.74,37.43L230.77,37.43L233.85,35.59L234.87,36.41L236.92,35.79L237.95,33.74L240,28.01L241.03,28.22L244.1,27.19L245.13,26.89L247.18,28.22L248.21,27.09L250.26,26.37L251.28,27.81L254.36,34.05L255.38,34.15L257.44,36.3L258.46,36.41L260.51,36.2L261.54,34.56L266.67,35.28L267.69,35.89L270.77,36.3L271.79,37.33L273.85,38.35L274.87,41.12L278.97,43.27L280,43.88" style="vector-effect: none; fill: none; stroke: rgb(0, 174, 239); stroke-opacity: 1; stroke-width: 5px; opacity: 1;"/></g><g class="points"/><g class="text"/></g><g class="trace scatter trace7ca192" style="stroke-miterlimit: 2; opacity: 1;"><g class="fills"/><g class="errorbars"/><g class="lines"><path class="js-line" d="M0,64.66L8.21,65.07L9.23,64.46L44.1,64.66L45.13,65.89L59.49,65.07L60.51,58.42L75.9,58.93L76.92,59.75L103.59,59.64L104.62,62.61L106.67,60.57L107.69,60.57L108.72,60.67L109.74,62.2L111.79,63.43L112.82,63.43L113.85,63.13L114.87,64.15L121.03,64.25L122.05,64.15L130.26,64.76L131.28,64.76L138.46,62L139.49,62L143.59,62L144.62,63.33L149.74,65.17L150.77,65.17L152.82,65.99L153.85,65.99L166.15,66.3L167.18,69.47L185.64,70.5L186.67,71.42L200,72.44L201.03,73.16L206.15,73.67" style="vector-effect: none; fill: none; stroke: rgb(255, 1, 170); stroke-opacity: 1; stroke-width: 5px; opacity: 1;"/></g><g class="points"/><g class="text"/></g><g class="trace scatter traceab06e7" style="stroke-miterlimit: 2; opacity: 1;"><g class="fills"/><g class="errorbars"/><g class="lines"><path class="js-line" d="M0,66.91L6.15,67.12L7.18,65.68L10.26,68.86L11.28,68.86L74.87,69.78L75.9,70.19L78.97,69.47L80,69.47L112.82,70.7L113.85,70.8L135.38,72.44L137.44,72.44L166.15,73.46L167.18,73.77L170.26,73.98" style="vector-effect: none; fill: none; stroke: rgb(202, 166, 105); stroke-opacity: 1; stroke-width: 5px; opacity: 1;"/></g><g class="points"/><g class="text"/></g><g class="trace scatter trace4428f7" style="stroke-miterlimit: 2; opacity: 1;"><g class="fills"/><g class="errorbars"/><g class="lines"><path class="js-line" d="M0,64.25L6.15,64.66L7.18,64.25L27.69,65.48L28.72,65.48L44.1,65.27L45.13,66.81L59.49,66.2L60.51,67.53L71.79,67.83L72.82,68.96L75.9,67.73L76.92,69.47L104.62,68.65L105.64,67.94L109.74,69.06L110.77,69.57L121.03,70.7L122.05,71.11L130.26,71.83L131.28,71.83L166.15,71.83L167.18,73.77L170.26,73.98" style="vector-effect: none; fill: none; stroke: rgb(238, 58, 67); stroke-opacity: 1; stroke-width: 5px; opacity: 1;"/></g><g class="points"/><g class="text"/></g></g></g><g class="overplot"/><path class="xlines-above crisp" d="M0,0" style="fill: none;"/><path class="ylines-above crisp" d="M0,0" style="fill: none;"/><g class="overlines-above"/><g class="xaxislayer-above"/><g class="yaxislayer-above"/><g class="overaxes-above"/></g></g><g class="polarlayer"/><g class="smithlayer"/><g class="ternarylayer"/><g class="geolayer"/><g class="funnelarealayer"/><g class="pielayer"/><g class="iciclelayer"/><g class="treemaplayer"/><g class="sunburstlayer"/><g class="glimages"/><defs id="topdefs-4003d6"><g class="clips"/></defs><g class="layer-above"><g class="imagelayer"/><g class="shapelayer"/></g><g class="infolayer"><g class="g-gtitle"><text class="gtitle" x="15" y="25" text-anchor="start" dy="0em" style="font-family: Ubuntu, verdana, arial, sans-serif; font-size: 16px; fill: rgb(233, 84, 32); opacity: 1; font-weight: normal; white-space: pre;">Prezident/ka 2024</text></g><g class="g-xtitle"/><g class="g-ytitle"/></g></svg>