<svg class="main-svg" xmlns="http://www.w3.org/2000/svg" xmlns:xlink="http://www.w3.org/1999/xlink" width="300" height="135" style="" viewBox="0 0 300 135"><rect x="0" y="0" width="300" height="135" style="fill: rgb(255, 255, 255); fill-opacity: 1;"/><defs id="defs-ecd793"><g class="clips"><clipPath id="clipecd793xyplot" class="plotclip"><rect width="280" height="75"/></clipPath><clipPath class="axesclip" id="clipecd793x"><rect x="10" y="0" width="280" height="135"/></clipPath><clipPath class="axesclip" id="clipecd793y"><rect x="0" y="50" width="300" height="75"/></clipPath><clipPath class="axesclip" id="clipecd793xy"><rect x="10" y="50" width="280" height="75"/></clipPath></g><g class="gradients"/><g class="patterns"/></defs><g class="bglayer"/><g class="layer-below"><g class="imagelayer"/><g class="shapelayer"/></g><g class="cartesianlayer"><g class="subplot xy"><g class="layer-subplot"><g class="shapelayer"/><g class="imagelayer"/></g><g class="minor-gridlayer"><g class="x"/><g class="y"/></g><g class="gridlayer"><g class="x"><path class="xgrid crisp" transform="translate(21.29,0)" d="M0,50v75" style="stroke: rgb(235, 240, 248); stroke-opacity: 1; stroke-width: 1px;"/><path class="xgrid crisp" transform="translate(91.29,0)" d="M0,50v75" style="stroke: rgb(235, 240, 248); stroke-opacity: 1; stroke-width: 1px;"/><path class="xgrid crisp" transform="translate(160.16,0)" d="M0,50v75" style="stroke: rgb(235, 240, 248); stroke-opacity: 1; stroke-width: 1px;"/><path class="xgrid crisp" transform="translate(229.03,0)" d="M0,50v75" style="stroke: rgb(235, 240, 248); stroke-opacity: 1; stroke-width: 1px;"/></g><g class="y"><path class="ygrid crisp" transform="translate(0,102.77000000000001)" d="M10,0h280" style="stroke: rgb(235, 240, 248); stroke-opacity: 1; stroke-width: 1px;"/><path class="ygrid crisp" transform="translate(0,80.53999999999999)" d="M10,0h280" style="stroke: rgb(235, 240, 248); stroke-opacity: 1; stroke-width: 1px;"/><path class="ygrid crisp" transform="translate(0,58.31)" d="M10,0h280" style="stroke: rgb(235, 240, 248); stroke-opacity: 1; stroke-width: 1px;"/></g></g><g class="zerolinelayer"><path class="yzl zl crisp" transform="translate(0,125)" d="M10,0h280" style="stroke: rgb(235, 240, 248); stroke-opacity: 1; stroke-width: 2px;"/></g><path class="xlines-below"/><path class="ylines-below"/><g class="overlines-below"/><g class="xaxislayer-below"/><g class="yaxislayer-below"/><g class="overaxes-below"/><g class="plot" transform="translate(10,50)" clip-path="url(#clipecd793xyplot)"><g class="scatterlayer mlayer"><g class="trace scatter traceb341af" style="stroke-miterlimit: 2; opacity: 1;"><g class="fills"/><g class="errorbars"/><g class="lines"><path class="js-line" d="M265.32,21.65L280,21.65" style="vector-effect: none; fill: none; stroke: rgb(187, 187, 187); stroke-opacity: 1; stroke-width: 5px; opacity: 1;"/></g><g class="points"/><g class="text"/></g><g class="trace scatter trace9122a5" style="stroke-miterlimit: 2; opacity: 1;"><g class="fills"/><g class="errorbars"/><g class="lines"><path class="js-line" d="M0,51.77L3.39,48.88L4.52,48.88L9.03,49.1L10.16,48.32L25.97,47.43L27.1,46.77L48.55,45.99L49.68,41.32L63.23,41.32L65.48,44.54L68.87,43.88L70,43.88L77.9,43.65L79.03,46.1L81.29,47.32L82.42,46.88L83.55,46.43L84.68,47.43L114.03,46.77L115.16,44.54L117.42,45.43L118.55,45.43L119.68,45.21L120.81,41.54L123.06,39.32L124.19,39.32L125.32,38.76L126.45,35.1L128.71,32.98L129.84,32.98L133.23,32.32L134.35,31.32L137.74,28.87L138.87,28.87L147.9,29.2L149.03,30.32L158.06,30.32L159.19,28.76L160.32,28.76L161.45,26.09L165.97,26.09L167.1,23.09L173.87,23.09L175,21.31L181.77,18.42L182.9,18.42L185.16,14.64L186.29,14.64L187.42,12.75L188.55,8.2L198.71,8.2L199.84,9.86L202.1,10.64L203.23,10.64L205.48,12.86L206.61,13.53L212.26,12.31L213.39,12.31L220.16,12.42L221.29,8.75L223.55,5.08L224.68,4.97L228.06,5.86L229.19,3.75L232.58,4.75L233.71,5.64L235.97,6.75L237.1,10.53L238.23,11.86L239.35,10.53L241.61,10.64L242.74,8.86L245,8.97L246.13,9.09L248.39,8.64L249.52,7.75L252.9,4.64L254.03,4.64L257.42,6.64L258.55,5.75L260.81,6.42L261.94,8.64L264.19,14.87L265.32,43.65L276.61,43.88L277.74,42.21L280,40.54" style="vector-effect: none; fill: none; stroke: rgb(138, 44, 81); stroke-opacity: 1; stroke-width: 5px; opacity: 1;"/></g><g class="points"/><g class="text"/></g><g class="trace scatter trace663241" style="stroke-miterlimit: 2; opacity: 1;"><g class="fills"/><g class="errorbars"/><g class="lines"><path class="js-line" d="M0,26.54L4.52,28.09L5.65,28.09L9.03,27.87L10.16,27.2L65.48,28.2L66.61,31.32L77.9,30.32L79.03,27.76L81.29,23.98L82.42,24.98L83.55,25.98L84.68,22.65L94.84,22.65L95.97,24.31L97.1,24.31L98.23,22.65L99.35,24.31L100.48,22.31L102.74,21.87L103.87,23.98L106.13,21.87L107.26,21.87L108.39,21.87L109.52,23.98L110.65,23.98L111.77,21.87L114.03,23.98L115.16,21.98L117.42,24.54L118.55,24.54L125.32,25.76L126.45,27.65L129.84,28.43L130.97,28.43L145.65,29.2L146.77,29.87L173.87,30.87L175,32.65L182.9,34.98L184.03,32.87L187.42,33.98L188.55,35.43L198.71,35.43L199.84,33.87L202.1,32.98L203.23,32.98L204.35,32.54L205.48,29.98L207.74,29.43L208.87,29.76L220.16,29.2L221.29,32.09L223.55,35.43L224.68,35.54L226.94,33.76L228.06,32.98L230.32,35.1L231.45,34.54L235.97,32.09L237.1,28.32L238.23,26.98L239.35,28.32L241.61,28.2L242.74,29.98L245,29.87L246.13,29.76L248.39,30.2L249.52,31.09L252.9,34.21L254.03,34.21L257.42,32.21L258.55,33.09L260.81,32.43L261.94,30.2L264.19,23.98L265.32,48.66L276.61,48.43L277.74,50.21L280,51.77" style="vector-effect: none; fill: none; stroke: rgb(0, 174, 239); stroke-opacity: 1; stroke-width: 5px; opacity: 1;"/></g><g class="points"/><g class="text"/></g><g class="trace scatter trace2cb90c" style="stroke-miterlimit: 2; opacity: 1;"><g class="fills"/><g class="errorbars"/><g class="lines"><path class="js-line" d="M0,66.22L6.77,66.44L7.9,64.88L10.16,68.33L11.29,68.33L81.29,68.89L82.42,69.33L84.68,69L85.81,69L120.81,70.11L121.94,70.33L134.35,71.55L135.48,71.78L140,72.11L141.13,72.11L182.9,73.33L184.03,73.67L187.42,73.89" style="vector-effect: none; fill: none; stroke: rgb(202, 166, 105); stroke-opacity: 1; stroke-width: 5px; opacity: 1;"/></g><g class="points"/><g class="text"/></g><g class="trace scatter trace565831" style="stroke-miterlimit: 2; opacity: 1;"><g class="fills"/><g class="errorbars"/><g class="lines"><path class="js-line" d="M0,67.22L12.42,67.33L13.55,67.33L48.55,68.55L49.68,69.44L63.23,69.44L65.48,68.11L66.61,71L68.87,71L83.55,71.89L84.68,72.33L133.23,73.11L134.35,73.55L165.97,73.55" style="vector-effect: none; fill: none; stroke: rgb(255, 192, 203); stroke-opacity: 1; stroke-width: 5px; opacity: 1;"/></g><g class="points"/><g class="text"/></g></g></g><g class="overplot"/><path class="xlines-above crisp" d="M0,0" style="fill: none;"/><path class="ylines-above crisp" d="M0,0" style="fill: none;"/><g class="overlines-above"/><g class="xaxislayer-above"/><g class="yaxislayer-above"/><g class="overaxes-above"/></g></g><g class="polarlayer"/><g class="smithlayer"/><g class="ternarylayer"/><g class="geolayer"/><g class="funnelarealayer"/><g class="pielayer"/><g class="iciclelayer"/><g class="treemaplayer"/><g class="sunburstlayer"/><g class="glimages"/><defs id="topdefs-ecd793"><g class="clips"/></defs><g class="layer-above"><g class="imagelayer"/><g class="shapelayer"/></g><g class="infolayer"><g class="g-gtitle"><text class="gtitle" x="15" y="25" text-anchor="start" dy="0em" style="font-family: Ubuntu, verdana, arial, sans-serif; font-size: 16px; fill: rgb(233, 84, 32); opacity: 1; font-weight: normal; white-space: pre;">Prezident/ka 2024</text></g><g class="g-xtitle"/><g class="g-ytitle"/></g></svg>