<svg class="main-svg" xmlns="http://www.w3.org/2000/svg" xmlns:xlink="http://www.w3.org/1999/xlink" width="300" height="135" style="" viewBox="0 0 300 135"><rect x="0" y="0" width="300" height="135" style="fill: rgb(255, 255, 255); fill-opacity: 1;"/><defs id="defs-49e675"><g class="clips"><clipPath id="clip49e675xyplot" class="plotclip"><rect width="280" height="75"/></clipPath><clipPath class="axesclip" id="clip49e675x"><rect x="10" y="0" width="280" height="135"/></clipPath><clipPath class="axesclip" id="clip49e675y"><rect x="0" y="50" width="300" height="75"/></clipPath><clipPath class="axesclip" id="clip49e675xy"><rect x="10" y="50" width="280" height="75"/></clipPath></g><g class="gradients"/><g class="patterns"/></defs><g class="bglayer"/><g class="layer-below"><g class="imagelayer"/><g class="shapelayer"/></g><g class="cartesianlayer"><g class="subplot xy"><g class="layer-subplot"><g class="shapelayer"/><g class="imagelayer"/></g><g class="minor-gridlayer"><g class="x"/><g class="y"/></g><g class="gridlayer"><g class="x"><path class="xgrid crisp" transform="translate(26.37,0)" d="M0,50v75" style="stroke: rgb(235, 240, 248); stroke-opacity: 1; stroke-width: 1px;"/><path class="xgrid crisp" transform="translate(127.89,0)" d="M0,50v75" style="stroke: rgb(235, 240, 248); stroke-opacity: 1; stroke-width: 1px;"/><path class="xgrid crisp" transform="translate(227.78,0)" d="M0,50v75" style="stroke: rgb(235, 240, 248); stroke-opacity: 1; stroke-width: 1px;"/></g><g class="y"><path class="ygrid crisp" transform="translate(0,101.28999999999999)" d="M10,0h280" style="stroke: rgb(235, 240, 248); stroke-opacity: 1; stroke-width: 1px;"/><path class="ygrid crisp" transform="translate(0,77.58)" d="M10,0h280" style="stroke: rgb(235, 240, 248); stroke-opacity: 1; stroke-width: 1px;"/><path class="ygrid crisp" transform="translate(0,53.87)" d="M10,0h280" style="stroke: rgb(235, 240, 248); stroke-opacity: 1; stroke-width: 1px;"/></g></g><g class="zerolinelayer"><path class="yzl zl crisp" transform="translate(0,125)" d="M10,0h280" style="stroke: rgb(235, 240, 248); stroke-opacity: 1; stroke-width: 2px;"/></g><path class="xlines-below"/><path class="ylines-below"/><g class="overlines-below"/><g class="xaxislayer-below"/><g class="yaxislayer-below"/><g class="overaxes-below"/><g class="plot" transform="translate(10,50)" clip-path="url(#clip49e675xyplot)"><g class="scatterlayer mlayer"><g class="trace scatter tracef94248" style="stroke-miterlimit: 2; opacity: 1;"><g class="fills"/><g class="errorbars"/><g class="lines"><path class="js-line" d="M0,50.22L4.91,47.14L6.55,47.14L13.1,47.38L14.74,46.55L37.66,45.6L39.3,44.89L70.41,44.06L72.05,39.08L91.7,39.08L94.97,42.52L96.61,41.81L99.88,41.81L112.98,41.57L114.62,44.18L117.89,45.48L119.53,45.01L121.17,44.53L122.81,45.6L165.38,44.89L167.02,42.52L170.29,43.47L171.93,43.47L173.57,43.23L175.2,39.32L176.84,36.94L178.48,36.94L181.75,36.35L183.39,32.44L186.67,30.19L188.3,30.19L193.22,29.48L194.85,28.41L199.77,25.8L201.4,25.8L214.5,26.16L216.14,27.34L229.24,27.34L230.88,25.68L232.51,25.68L234.15,22.84L240.7,22.84L242.34,19.64L252.16,19.64L253.8,17.74L257.08,17.03L258.71,17.03L265.26,14.66L266.9,10.63L270.18,10.63L271.81,8.61L273.45,3.75L275.09,3.75L280,3.75" style="vector-effect: none; fill: none; stroke: rgb(138, 44, 81); stroke-opacity: 1; stroke-width: 5px; opacity: 1;"/></g><g class="points"/><g class="text"/></g><g class="trace scatter tracee7db14" style="stroke-miterlimit: 2; opacity: 1;"><g class="fills"/><g class="errorbars"/><g class="lines"><path class="js-line" d="M0,23.31L4.91,24.97L6.55,24.97L13.1,24.73L14.74,24.02L94.97,25.09L96.61,28.41L112.98,27.34L114.62,24.62L116.26,20.58L117.89,20.58L121.17,22.72L122.81,19.16L137.54,19.16L139.18,20.94L140.82,20.94L142.46,19.16L144.09,20.94L145.73,18.81L149.01,18.33L150.64,20.58L152.28,18.33L153.92,18.33L157.19,18.33L158.83,20.58L160.47,20.58L162.11,18.33L163.74,20.58L165.38,20.58L167.02,18.45L168.65,21.18L180.12,21.89L181.75,22.48L185.03,25.21L186.67,25.33L211.23,26.16L212.87,26.87L232.51,26.99L234.15,28.17L252.16,27.93L253.8,29.83L265.26,32.32L266.9,30.07L271.81,31.25L273.45,32.8L280,32.8" style="vector-effect: none; fill: none; stroke: rgb(0, 174, 239); stroke-opacity: 1; stroke-width: 5px; opacity: 1;"/></g><g class="points"/><g class="text"/></g><g class="trace scatter tracedacf5a" style="stroke-miterlimit: 2; opacity: 1;"><g class="fills"/><g class="errorbars"/><g class="lines"><path class="js-line" d="M0,63.03L11.46,64.21L13.1,63.5L16.37,62.79L18.01,62.79L70.41,63.03L72.05,64.45L94.97,63.5L96.61,55.79L114.62,56.51L116.26,57.22L145.73,57.57L147.37,58.05L165.38,57.22L167.02,60.66L168.65,58.28L170.29,58.28L173.57,58.4L175.2,60.18L178.48,61.6L180.12,61.6L181.75,61.25L183.39,62.43L191.58,62.67L193.22,62.55L201.4,63.14L203.04,63.14L211.23,62.67L212.87,61.6L214.5,61.6L216.14,59.94L229.24,59.94L230.88,61.49L237.43,63.62L239.06,63.62L261.99,64.8L263.63,64.92L265.26,64.92L266.9,68.6L280,69.78" style="vector-effect: none; fill: none; stroke: rgb(255, 1, 170); stroke-opacity: 1; stroke-width: 5px; opacity: 1;"/></g><g class="points"/><g class="text"/></g><g class="trace scatter trace7052b1" style="stroke-miterlimit: 2; opacity: 1;"><g class="fills"/><g class="errorbars"/><g class="lines"><path class="js-line" d="M0,65.63L9.82,65.87L11.46,64.21L14.74,67.89L16.37,67.89L117.89,68.48L119.53,68.95L121.17,69.43L122.81,68.6L175.2,69.78L176.84,70.02L193.22,70.97L194.85,71.32L206.32,71.92L207.95,71.92L260.35,73.1L261.99,73.22L271.81,73.81" style="vector-effect: none; fill: none; stroke: rgb(202, 166, 105); stroke-opacity: 1; stroke-width: 5px; opacity: 1;"/></g><g class="points"/><g class="text"/></g><g class="trace scatter trace234b69" style="stroke-miterlimit: 2; opacity: 1;"><g class="fills"/><g class="errorbars"/><g class="lines"><path class="js-line" d="M0,66.7L16.37,66.82L18.01,66.82L60.58,67.18L62.22,68.12L91.7,69.07L94.97,67.65L96.61,70.73L99.88,70.73L121.17,71.68L122.81,72.15L193.22,72.98L194.85,73.46L240.7,73.46" style="vector-effect: none; fill: none; stroke: rgb(255, 192, 203); stroke-opacity: 1; stroke-width: 5px; opacity: 1;"/></g><g class="points"/><g class="text"/></g></g></g><g class="overplot"/><path class="xlines-above crisp" d="M0,0" style="fill: none;"/><path class="ylines-above crisp" d="M0,0" style="fill: none;"/><g class="overlines-above"/><g class="xaxislayer-above"/><g class="yaxislayer-above"/><g class="overaxes-above"/></g></g><g class="polarlayer"/><g class="smithlayer"/><g class="ternarylayer"/><g class="geolayer"/><g class="funnelarealayer"/><g class="pielayer"/><g class="iciclelayer"/><g class="treemaplayer"/><g class="sunburstlayer"/><g class="glimages"/><defs id="topdefs-49e675"><g class="clips"/></defs><g class="layer-above"><g class="imagelayer"/><g class="shapelayer"/></g><g class="infolayer"><g class="g-gtitle"><text class="gtitle" x="15" y="25" text-anchor="start" dy="0em" style="font-family: Ubuntu, verdana, arial, sans-serif; font-size: 16px; fill: rgb(233, 84, 32); opacity: 1; font-weight: normal; white-space: pre;">Prezident/ka 2024</text></g><g class="g-xtitle"/><g class="g-ytitle"/></g></svg>