<svg class="main-svg" xmlns="http://www.w3.org/2000/svg" xmlns:xlink="http://www.w3.org/1999/xlink" width="300" height="135" style="" viewBox="0 0 300 135"><rect x="0" y="0" width="300" height="135" style="fill: rgb(255, 255, 255); fill-opacity: 1;"/><defs id="defs-2ed413"><g class="clips"><clipPath id="clip2ed413xyplot" class="plotclip"><rect width="280" height="75"/></clipPath><clipPath class="axesclip" id="clip2ed413x"><rect x="10" y="0" width="280" height="135"/></clipPath><clipPath class="axesclip" id="clip2ed413y"><rect x="0" y="50" width="300" height="75"/></clipPath><clipPath class="axesclip" id="clip2ed413xy"><rect x="10" y="50" width="280" height="75"/></clipPath></g><g class="gradients"/><g class="patterns"/></defs><g class="bglayer"/><g class="layer-below"><g class="imagelayer"/><g class="shapelayer"/></g><g class="cartesianlayer"><g class="subplot xy"><g class="layer-subplot"><g class="shapelayer"/><g class="imagelayer"/></g><g class="minor-gridlayer"><g class="x"/><g class="y"/></g><g class="gridlayer"><g class="x"><path class="xgrid crisp" transform="translate(20.259999999999998,0)" d="M0,50v75" style="stroke: rgb(235, 240, 248); stroke-opacity: 1; stroke-width: 1px;"/><path class="xgrid crisp" transform="translate(83.85,0)" d="M0,50v75" style="stroke: rgb(235, 240, 248); stroke-opacity: 1; stroke-width: 1px;"/><path class="xgrid crisp" transform="translate(146.41,0)" d="M0,50v75" style="stroke: rgb(235, 240, 248); stroke-opacity: 1; stroke-width: 1px;"/><path class="xgrid crisp" transform="translate(208.97,0)" d="M0,50v75" style="stroke: rgb(235, 240, 248); stroke-opacity: 1; stroke-width: 1px;"/><path class="xgrid crisp" transform="translate(270.51,0)" d="M0,50v75" style="stroke: rgb(235, 240, 248); stroke-opacity: 1; stroke-width: 1px;"/></g><g class="y"><path class="ygrid crisp" transform="translate(0,104.38)" d="M10,0h280" style="stroke: rgb(235, 240, 248); stroke-opacity: 1; stroke-width: 1px;"/><path class="ygrid crisp" transform="translate(0,83.75999999999999)" d="M10,0h280" style="stroke: rgb(235, 240, 248); stroke-opacity: 1; stroke-width: 1px;"/><path class="ygrid crisp" transform="translate(0,63.13)" d="M10,0h280" style="stroke: rgb(235, 240, 248); stroke-opacity: 1; stroke-width: 1px;"/></g></g><g class="zerolinelayer"><path class="yzl zl crisp" transform="translate(0,125)" d="M10,0h280" style="stroke: rgb(235, 240, 248); stroke-opacity: 1; stroke-width: 2px;"/></g><path class="xlines-below"/><path class="ylines-below"/><g class="overlines-below"/><g class="xaxislayer-below"/><g class="yaxislayer-below"/><g class="overaxes-below"/><g class="plot" transform="translate(10,50)" clip-path="url(#clip2ed413xyplot)"><g class="scatterlayer mlayer"><g class="trace scatter trace141978" style="stroke-miterlimit: 2; opacity: 1;"><g class="fills"/><g class="errorbars"/><g class="lines"><path class="js-line" d="M0,53.45L3.08,50.77L4.1,50.77L14.36,50.25L15.38,49.94L37.95,48.81L38.97,48.09L44.1,48.09L45.13,43.76L57.44,43.76L59.49,46.75L62.56,46.13L63.59,46.13L70.77,45.92L71.79,48.19L73.85,49.33L74.87,48.91L76.92,49.43L77.95,49.43L103.59,48.81L104.62,46.75L106.67,47.57L107.69,47.57L108.72,47.37L109.74,43.96L111.79,41.9L112.82,41.9L113.85,41.39L114.87,37.98L116.92,36.02L117.95,36.02L121.03,35.41L122.05,34.48L125.13,32.21L126.15,32.21L134.36,32.52L135.38,33.55L143.59,33.55L144.62,32.11L145.64,32.11L146.67,29.63L150.77,29.63L151.79,26.85L157.95,26.85L158.97,25.2L165.13,22.52L166.15,22.52L168.21,19.01L169.23,19.01L170.26,17.26L171.28,13.03L180.51,13.03L181.54,14.58L184.62,15.3L185.64,15.71L187.69,17.98L188.72,17.57L191.79,16.85L192.82,16.85L200,16.95L201.03,13.55L203.08,10.14L204.1,10.04L207.18,10.86L208.21,8.91L211.28,9.83L212.31,10.66L214.36,11.69L215.38,15.2L216.41,16.43L217.44,15.2L219.49,15.3L220.51,13.65L222.56,13.75L223.59,13.85L225.64,13.44L226.67,12.62L229.74,9.73L230.77,9.73L233.85,11.59L234.87,10.76L236.92,11.38L237.95,13.44L240,19.22L241.03,19.01L244.1,20.04L245.13,20.35L247.18,19.01L248.21,20.14L250.26,20.87L251.28,19.42L254.36,13.13L255.38,13.03L257.44,10.86L258.46,10.76L260.51,10.97L261.54,12.62L266.67,11.9L267.69,11.28L270.77,10.86L271.79,9.83L273.85,8.8L274.87,6.02L278.97,3.85L280,3.75" style="vector-effect: none; fill: none; stroke: rgb(138, 44, 81); stroke-opacity: 1; stroke-width: 5px; opacity: 1;"/></g><g class="points"/><g class="text"/></g><g class="trace scatter tracea9273c" style="stroke-miterlimit: 2; opacity: 1;"><g class="fills"/><g class="errorbars"/><g class="lines"><path class="js-line" d="M0,30.04L4.1,31.49L5.13,31.49L8.21,31.28L9.23,30.66L59.49,31.59L60.51,34.48L70.77,33.55L71.79,31.18L73.85,27.67L74.87,28.6L75.9,29.53L76.92,26.43L86.15,26.43L87.18,27.98L88.21,27.98L89.23,26.43L90.26,27.98L91.28,26.13L93.33,25.71L94.36,27.67L96.41,25.71L97.44,25.71L98.46,25.71L99.49,27.67L100.51,27.67L101.54,25.71L103.59,27.67L104.62,25.82L106.67,28.19L107.69,28.19L113.85,29.32L114.87,31.07L117.95,31.8L118.97,31.8L132.31,32.52L133.33,33.14L157.95,34.06L158.97,35.71L166.15,37.88L167.18,35.92L170.26,36.95L171.28,38.29L180.51,38.29L181.54,36.85L183.59,36.02L184.62,36.02L185.64,35.61L186.67,33.24L188.72,32.72L189.74,33.03L200,32.52L201.03,35.2L204.1,38.4L205.13,38.09L207.18,36.02L208.21,37.98L211.28,37.05L212.31,36.23L214.36,35.2L215.38,31.69L216.41,30.46L217.44,31.69L219.49,31.59L220.51,33.24L222.56,33.14L223.59,33.03L225.64,33.45L226.67,34.27L229.74,37.16L230.77,37.16L233.85,35.3L234.87,36.13L236.92,35.51L237.95,33.45L240,27.67L241.03,27.88L244.1,26.85L245.13,26.54L247.18,27.88L248.21,26.74L250.26,26.02L251.28,27.47L254.36,33.76L255.38,33.86L257.44,36.02L258.46,36.13L260.51,35.92L261.54,34.27L266.67,34.99L267.69,35.61L270.77,36.02L271.79,37.05L273.85,38.09L274.87,40.87L278.97,43.04L280,43.14" style="vector-effect: none; fill: none; stroke: rgb(0, 174, 239); stroke-opacity: 1; stroke-width: 5px; opacity: 1;"/></g><g class="points"/><g class="text"/></g><g class="trace scatter trace780e08" style="stroke-miterlimit: 2; opacity: 1;"><g class="fills"/><g class="errorbars"/><g class="lines"><path class="js-line" d="M0,64.17L6.15,64.59L7.18,64.17L26.67,65.41L27.69,65.41L44.1,65.2L45.13,66.75L59.49,66.13L60.51,67.47L71.79,67.78L72.82,68.92L75.9,67.68L76.92,69.43L104.62,68.61L105.64,67.89L109.74,69.02L110.77,69.54L121.03,70.67L122.05,71.08L130.26,71.8L131.28,71.8L166.15,71.8L167.18,73.76L170.26,73.97" style="vector-effect: none; fill: none; stroke: rgb(238, 58, 67); stroke-opacity: 1; stroke-width: 5px; opacity: 1;"/></g><g class="points"/><g class="text"/></g><g class="trace scatter trace579264" style="stroke-miterlimit: 2; opacity: 1;"><g class="fills"/><g class="errorbars"/><g class="lines"><path class="js-line" d="M0,67.78L11.28,67.89L12.31,67.89L44.1,69.02L45.13,69.84L59.49,68.61L60.51,71.29L103.59,72.32L104.62,72.63L110.77,72.53L111.79,72.53L150.77,73.66" style="vector-effect: none; fill: none; stroke: rgb(255, 192, 203); stroke-opacity: 1; stroke-width: 5px; opacity: 1;"/></g><g class="points"/><g class="text"/></g><g class="trace scatter tracefebe98" style="stroke-miterlimit: 2; opacity: 1;"><g class="fills"/><g class="errorbars"/><g class="lines"><path class="js-line" d="M0,64.59L8.21,65L9.23,64.38L44.1,64.59L45.13,65.82L59.49,65L60.51,58.3L75.9,58.81L76.92,59.64L103.59,59.53L104.62,62.52L106.67,60.46L107.69,60.46L108.72,60.56L109.74,62.11L111.79,63.35L112.82,63.35L113.85,63.04L114.87,64.07L121.03,64.17L122.05,64.07L130.26,64.69L131.28,64.69L138.46,61.9L139.49,61.9L143.59,61.9L144.62,63.25L149.74,65.1L150.77,65.1L152.82,65.93L153.85,65.93L166.15,66.24L167.18,69.43L185.64,70.46L186.67,71.39L200,72.42L201.03,73.14L206.15,73.66" style="vector-effect: none; fill: none; stroke: rgb(255, 1, 170); stroke-opacity: 1; stroke-width: 5px; opacity: 1;"/></g><g class="points"/><g class="text"/></g></g></g><g class="overplot"/><path class="xlines-above crisp" d="M0,0" style="fill: none;"/><path class="ylines-above crisp" d="M0,0" style="fill: none;"/><g class="overlines-above"/><g class="xaxislayer-above"/><g class="yaxislayer-above"/><g class="overaxes-above"/></g></g><g class="polarlayer"/><g class="smithlayer"/><g class="ternarylayer"/><g class="geolayer"/><g class="funnelarealayer"/><g class="pielayer"/><g class="iciclelayer"/><g class="treemaplayer"/><g class="sunburstlayer"/><g class="glimages"/><defs id="topdefs-2ed413"><g class="clips"/></defs><g class="layer-above"><g class="imagelayer"/><g class="shapelayer"/></g><g class="infolayer"><g class="g-gtitle"><text class="gtitle" x="15" y="25" text-anchor="start" dy="0em" style="font-family: Ubuntu, verdana, arial, sans-serif; font-size: 16px; fill: rgb(233, 84, 32); opacity: 1; font-weight: normal; white-space: pre;">Prezident/ka 2024</text></g><g class="g-xtitle"/><g class="g-ytitle"/></g></svg>