<svg class="main-svg" xmlns="http://www.w3.org/2000/svg" xmlns:xlink="http://www.w3.org/1999/xlink" width="400" height="400" style="" viewBox="0 0 400 400"><rect x="0" y="0" width="400" height="400" style="fill: rgb(255, 255, 255); fill-opacity: 1;"/><defs id="defs-9f6015"><g class="clips"><clipPath id="clip9f6015xyplot" class="plotclip"><rect width="196" height="330"/></clipPath><clipPath class="axesclip" id="clip9f6015x"><rect x="50" y="0" width="196" height="400"/></clipPath><clipPath class="axesclip" id="clip9f6015y"><rect x="0" y="20" width="400" height="330"/></clipPath><clipPath class="axesclip" id="clip9f6015xy"><rect x="50" y="20" width="196" height="330"/></clipPath></g><g class="gradients"/><g class="patterns"/></defs><g class="bglayer"/><g class="layer-below"><g class="imagelayer"/><g class="shapelayer"/></g><g class="cartesianlayer"><g class="subplot xy"><g class="layer-subplot"><g class="shapelayer"/><g class="imagelayer"/></g><g class="minor-gridlayer"><g class="x"/><g class="y"/></g><g class="gridlayer"><g class="x"><path class="xgrid crisp" transform="translate(56.53,0)" d="M0,20v330" style="stroke: rgb(235, 240, 248); stroke-opacity: 1; stroke-width: 1px;"/><path class="xgrid crisp" transform="translate(97.03999999999999,0)" d="M0,20v330" style="stroke: rgb(235, 240, 248); stroke-opacity: 1; stroke-width: 1px;"/><path class="xgrid crisp" transform="translate(136.89,0)" d="M0,20v330" style="stroke: rgb(235, 240, 248); stroke-opacity: 1; stroke-width: 1px;"/><path class="xgrid crisp" transform="translate(176.75,0)" d="M0,20v330" style="stroke: rgb(235, 240, 248); stroke-opacity: 1; stroke-width: 1px;"/><path class="xgrid crisp" transform="translate(215.95,0)" d="M0,20v330" style="stroke: rgb(235, 240, 248); stroke-opacity: 1; stroke-width: 1px;"/></g><g class="y"><path class="ygrid crisp" transform="translate(0,281.25)" d="M50,0h196" style="stroke: rgb(235, 240, 248); stroke-opacity: 1; stroke-width: 1px;"/><path class="ygrid crisp" transform="translate(0,212.5)" d="M50,0h196" style="stroke: rgb(235, 240, 248); stroke-opacity: 1; stroke-width: 1px;"/><path class="ygrid crisp" transform="translate(0,143.75)" d="M50,0h196" style="stroke: rgb(235, 240, 248); stroke-opacity: 1; stroke-width: 1px;"/><path class="ygrid crisp" transform="translate(0,75)" d="M50,0h196" style="stroke: rgb(235, 240, 248); stroke-opacity: 1; stroke-width: 1px;"/></g></g><g class="zerolinelayer"><path class="yzl zl crisp" transform="translate(0,350)" d="M50,0h196" style="stroke: rgb(235, 240, 248); stroke-opacity: 1; stroke-width: 2px;"/></g><path class="xlines-below"/><path class="ylines-below"/><g class="overlines-below"/><g class="xaxislayer-below"/><g class="yaxislayer-below"/><g class="overaxes-below"/><g class="plot" transform="translate(50,20)" clip-path="url(#clip9f6015xyplot)"><g class="scatterlayer mlayer"><g class="trace scatter traceaace4d" style="stroke-miterlimit: 2; opacity: 1;"><g class="fills"/><g class="errorbars"/><g class="lines"><path class="js-line" d="M0,191.13L1.96,173.25L2.61,173.25L3.92,173.25L4.57,177.38L6.53,170.5L7.19,170.5L9.15,170.5L9.8,168.44L11.76,168.44L12.41,167.06L14.37,165.69L15.03,165.69L16.33,162.25L16.99,162.25L24.17,162.25L24.83,157.44L28.09,157.44L28.75,130.63L36.59,130.63L37.89,148.5L38.55,145.06L39.85,145.06L44.43,144.38L45.08,143.69L47.04,164.31L47.69,162.25L48.35,159.5L49,165.69L54.88,165.69L55.53,162.25L56.19,162.25L56.84,165.69L57.49,162.25L58.15,165L58.8,165L59.45,165L60.11,162.25L61.41,165L62.07,165L62.72,165L63.37,162.25L64.03,162.25L64.68,165L65.99,162.25L66.64,149.88L67.95,154L68.6,154L69.25,152.63L69.91,130.63L71.21,117.56L71.87,117.56L72.52,113.44L73.17,90.75L75.13,77.69L75.79,77.69L76.44,77.69L77.09,73.56L79.71,50.19L80.36,50.19L84.28,50.88L84.93,52.25L85.59,52.25L86.24,59.13" style="vector-effect: none; fill: none; stroke: rgb(138, 44, 81); stroke-opacity: 1; stroke-width: 5px; opacity: 1;"/></g><g class="points"/><g class="text"/></g><g class="trace scatter tracec2ff7a" style="stroke-miterlimit: 2; opacity: 1;"><g class="fills"/><g class="errorbars"/><g class="lines"><path class="js-line" d="M0,39.88L1.96,49.5L2.61,49.5L3.92,49.5L4.57,52.25L6.53,44.69L7.19,44.69L11.76,44.69L12.41,46.75L14.37,48.13L15.03,48.13L16.33,50.88L16.99,50.88L24.17,50.88L24.83,52.25L36.59,52.94L37.89,50.88L38.55,70.13L39.85,70.13L43.77,70.13L44.43,66.69L45.08,63.94L45.73,48.81L47.04,25.44L47.69,31.63L48.35,37.13L49,17.19L54.88,17.19L55.53,27.5L56.19,27.5L56.84,17.19L57.49,27.5L58.15,16.5L59.45,16.5L60.11,26.81L61.41,16.5L62.07,16.5L62.72,16.5L63.37,26.81L64.03,26.81L64.68,16.5L65.99,26.81L66.64,16.5L67.95,29.56L68.6,29.56L69.25,29.56L69.91,33.69L71.87,33.69L72.52,35.75L74.48,50.19L75.13,50.19L77.09,50.19L77.75,48.13L79.71,50.19L80.36,50.19L83.63,50.19L84.28,51.56L86.24,59.13" style="vector-effect: none; fill: none; stroke: rgb(0, 174, 239); stroke-opacity: 1; stroke-width: 5px; opacity: 1;"/></g><g class="points"/><g class="text"/></g><g class="trace scatter trace55bb71" style="stroke-miterlimit: 2; opacity: 1;"><g class="fills"/><g class="errorbars"/><g class="lines"><path class="js-line" d="M0,262.63L2.61,265.38L3.27,265.38L3.92,265.38L4.57,268.81L6.53,261.94L7.19,261.94L9.15,261.94L9.8,263.31L12.41,262.63L13.07,261.94L24.17,261.94L24.83,263.31L28.09,263.31L28.75,271.56L36.59,271.56L37.89,265.38L38.55,223.44L39.85,223.44L43.77,223.44L44.43,224.81L47.04,230.31L47.69,228.25L48.35,226.19L49,231L54.88,231L55.53,228.25L56.19,228.25L56.84,231L57.49,228.25L58.15,233.06L59.45,235.81L60.11,231L61.41,235.81L62.07,235.81L62.72,235.81L63.37,231L64.03,231L64.68,235.81L65.99,231L66.64,250.94L67.95,236.5L68.6,236.5L69.25,237.19L69.91,247.5L71.21,255.06L71.87,255.06L72.52,253L73.17,259.19L75.13,260.56L75.79,260.56L77.09,259.88L77.75,259.19L80.36,261.94L81.01,261.94L83.63,261.94L84.28,259.88L86.24,244.06" style="vector-effect: none; fill: none; stroke: rgb(255, 1, 170); stroke-opacity: 1; stroke-width: 5px; opacity: 1;"/></g><g class="points"/><g class="text"/></g><g class="trace scatter tracef98519" style="stroke-miterlimit: 2; opacity: 1;"><g class="fills"/><g class="errorbars"/><g class="lines"><path class="js-line" d="M0,260.56L2.61,262.63L3.27,262.63L3.92,262.63L4.57,259.19L7.19,264L7.84,264L9.15,264L9.8,265.38L11.76,265.38L12.41,266.75L14.37,268.13L15.03,268.13L28.09,267.44L28.75,277.75L36.59,277.75L37.89,272.94L38.55,281.88L39.85,281.88L44.43,282.56L45.08,283.25L45.73,283.25L46.39,290.81L47.04,290.81L47.69,286.69L48.35,283.25L49,294.25L54.88,294.25L55.53,288.75L56.19,288.75L56.84,294.25L57.49,288.75L58.15,293.56L58.8,293.56L59.45,293.56L60.11,288.75L61.41,293.56L62.07,293.56L62.72,293.56L63.37,288.75L64.03,288.75L64.68,293.56L65.99,288.75L66.64,289.44L67.95,283.94L68.6,283.94L69.25,284.63L69.91,291.5L71.21,294.94L71.87,294.94L72.52,295.63L73.17,298.38L75.13,300.44L75.79,300.44L76.44,300.44L77.09,301.81L79.71,308.69L80.36,308.69L86.24,309.38" style="vector-effect: none; fill: none; stroke: rgb(238, 58, 67); stroke-opacity: 1; stroke-width: 5px; opacity: 1;"/></g><g class="points"/><g class="text"/></g><g class="trace scatter trace394235" style="stroke-miterlimit: 2; opacity: 1;"><g class="fills"/><g class="errorbars"/><g class="lines"><path class="js-line" d="M0,277.06L2.61,279.13L3.27,279.13L3.92,279.13L4.57,268.81L6.53,290.13L7.19,290.13L12.41,289.44L13.07,288.75L28.09,288.06L28.75,291.5L36.59,291.5L37.89,290.13L38.55,292.88L39.85,292.88L44.43,293.56L45.08,294.25L47.04,293.56L47.69,296.31L48.35,299.06L49,294.25L54.88,294.25L55.53,296.31L56.19,296.31L56.84,294.25L59.45,298.38L60.11,298.38L65.99,298.38L66.64,301.13L68.6,300.44L69.25,300.44L75.79,305.94L76.44,305.94L80.36,312.81L81.01,312.81L86.24,312.81" style="vector-effect: none; fill: none; stroke: rgb(202, 166, 105); stroke-opacity: 1; stroke-width: 5px; opacity: 1;"/></g><g class="points"/><g class="text"/></g><g class="trace scatter tracef13d88" style="stroke-miterlimit: 2; opacity: 1;"><g class="fills"/><g class="errorbars"/><g class="lines"><path class="js-line" d="M0,306.63L1.96,308L2.61,308L3.92,308L4.57,311.44L7.19,306.63L7.84,306.63L9.15,306.63L9.8,305.25L24.17,305.25L24.83,302.5L36.59,302.5L37.89,305.25L39.85,303.19L40.51,303.19L45.73,303.88L46.39,306.63L57.49,306.63L58.15,303.88L59.45,298.38L60.11,302.5L61.41,298.38L62.07,298.38L62.72,298.38L63.37,302.5L64.03,302.5L64.68,298.38L65.99,302.5L66.64,299.75L67.95,303.88L68.6,303.88L69.25,303.88L69.91,305.25L71.87,304.56L72.52,305.94L75.13,310.06L75.79,310.06L76.44,310.06L77.09,311.44L79.05,316.94L79.71,316.94L86.24,316.94" style="vector-effect: none; fill: none; stroke: rgb(1, 27, 58); stroke-opacity: 1; stroke-width: 5px; opacity: 1;"/></g><g class="points"/><g class="text"/></g><g class="trace scatter trace881bd8" style="stroke-miterlimit: 2; opacity: 1;"><g class="fills"/><g class="errorbars"/><g class="lines"><path class="js-line" d="M0,283.94L0.65,283.94L1.31,285.31L3.92,285.31L4.57,283.94L5.23,283.25L5.88,284.63L15.03,284.63L15.68,286L24.17,286L24.83,291.5L28.09,291.5L28.75,297L36.59,297L37.89,288.75L38.55,305.94L39.85,305.94L45.73,306.63L46.39,311.44L48.35,311.44L49,314.19L54.88,314.19L55.53,312.81L56.19,312.81L56.84,314.19L57.49,312.81L58.15,314.19L58.8,314.19L59.45,314.19L60.11,312.81L62.07,314.19L62.72,314.19L64.03,312.81L64.68,314.19L65.99,312.81L66.64,314.88L68.6,313.5L69.25,313.5L71.87,314.19L72.52,314.88L74.48,316.94L75.13,316.94L76.44,316.94L77.09,318.31L79.05,321.75L79.71,321.75L86.24,321.75" style="vector-effect: none; fill: none; stroke: rgb(255, 192, 203); stroke-opacity: 1; stroke-width: 5px; opacity: 1;"/></g><g class="points"/><g class="text"/></g></g></g><g class="overplot"/><path class="xlines-above crisp" d="M0,0" style="fill: none;"/><path class="ylines-above crisp" d="M0,0" style="fill: none;"/><g class="overlines-above"/><g class="xaxislayer-above"><g class="xtick"><text text-anchor="start" x="0" y="363" transform="translate(56.53,0) rotate(30,0,357)" style="font-family: 'Open Sans', verdana, arial, sans-serif; font-size: 12px; fill: rgb(42, 63, 95); fill-opacity: 1; white-space: pre; opacity: 1;">1.7.23</text></g><g class="xtick"><text text-anchor="start" x="0" y="363" style="font-family: 'Open Sans', verdana, arial, sans-serif; font-size: 12px; fill: rgb(42, 63, 95); fill-opacity: 1; white-space: pre; opacity: 1;" transform="translate(97.03999999999999,0) rotate(30,0,357)">1.9.23</text></g><g class="xtick"><text text-anchor="start" x="0" y="363" style="font-family: 'Open Sans', verdana, arial, sans-serif; font-size: 12px; fill: rgb(42, 63, 95); fill-opacity: 1; white-space: pre; opacity: 1;" transform="translate(136.89,0) rotate(30,0,357)">1.11.23</text></g><g class="xtick"><text text-anchor="start" x="0" y="363" style="font-family: 'Open Sans', verdana, arial, sans-serif; font-size: 12px; fill: rgb(42, 63, 95); fill-opacity: 1; white-space: pre; opacity: 1;" transform="translate(176.75,0) rotate(30,0,357)">1.1.24</text></g><g class="xtick"><text text-anchor="start" x="0" y="363" style="font-family: 'Open Sans', verdana, arial, sans-serif; font-size: 12px; fill: rgb(42, 63, 95); fill-opacity: 1; white-space: pre; opacity: 1;" transform="translate(215.95,0) rotate(30,0,357)">1.3.24</text></g></g><g class="yaxislayer-above"><g class="ytick"><text text-anchor="end" x="49" y="4.199999999999999" transform="translate(0,350)" style="font-family: 'Open Sans', verdana, arial, sans-serif; font-size: 12px; fill: rgb(42, 63, 95); fill-opacity: 1; white-space: pre; opacity: 1;">0%</text></g><g class="ytick"><text text-anchor="end" x="49" y="4.199999999999999" style="font-family: 'Open Sans', verdana, arial, sans-serif; font-size: 12px; fill: rgb(42, 63, 95); fill-opacity: 1; white-space: pre; opacity: 1;" transform="translate(0,281.25)">10%</text></g><g class="ytick"><text text-anchor="end" x="49" y="4.199999999999999" style="font-family: 'Open Sans', verdana, arial, sans-serif; font-size: 12px; fill: rgb(42, 63, 95); fill-opacity: 1; white-space: pre; opacity: 1;" transform="translate(0,212.5)">20%</text></g><g class="ytick"><text text-anchor="end" x="49" y="4.199999999999999" style="font-family: 'Open Sans', verdana, arial, sans-serif; font-size: 12px; fill: rgb(42, 63, 95); fill-opacity: 1; white-space: pre; opacity: 1;" transform="translate(0,143.75)">30%</text></g><g class="ytick"><text text-anchor="end" x="49" y="4.199999999999999" style="font-family: 'Open Sans', verdana, arial, sans-serif; font-size: 12px; fill: rgb(42, 63, 95); fill-opacity: 1; white-space: pre; opacity: 1;" transform="translate(0,75)">40%</text></g></g><g class="overaxes-above"/></g></g><g class="polarlayer"/><g class="smithlayer"/><g class="ternarylayer"/><g class="geolayer"/><g class="funnelarealayer"/><g class="pielayer"/><g class="iciclelayer"/><g class="treemaplayer"/><g class="sunburstlayer"/><g class="glimages"/><defs id="topdefs-9f6015"><g class="clips"/><clipPath id="legend9f6015"><rect width="138" height="143" x="0" y="0"/></clipPath></defs><g class="layer-above"><g class="imagelayer"/><g class="shapelayer"/></g><g class="infolayer"><g class="legend" pointer-events="all" transform="translate(249.92000000000002,20)"><rect class="bg" shape-rendering="crispEdges" width="138" height="143" x="0" y="0" style="stroke: rgb(68, 68, 68); stroke-opacity: 1; fill: rgb(255, 255, 255); fill-opacity: 1; stroke-width: 0px;"/><g class="scrollbox" transform="" clip-path="url(#legend9f6015)"><g class="groups"><g class="traces" transform="translate(0,14.5)" style="opacity: 1;"><text class="legendtext" text-anchor="start" x="40" y="4.680000000000001" style="font-family: 'Open Sans', verdana, arial, sans-serif; font-size: 12px; fill: rgb(42, 63, 95); fill-opacity: 1; white-space: pre;">Pellegrini Peter</text><g class="layers" style="opacity: 1;"><g class="legendfill"/><g class="legendlines"><path class="js-line" d="M5,0h30" style="fill: none; stroke: rgb(138, 44, 81); stroke-opacity: 1; stroke-width: 5px;"/></g><g class="legendsymbols"><g class="legendpoints"/></g></g><rect class="legendtoggle" x="0" y="-9.5" width="132.375" height="19" style="fill: rgb(0, 0, 0); fill-opacity: 0;"/></g><g class="traces" transform="translate(0,33.5)" style="opacity: 1;"><text class="legendtext" text-anchor="start" x="40" y="4.680000000000001" style="font-family: 'Open Sans', verdana, arial, sans-serif; font-size: 12px; fill: rgb(42, 63, 95); fill-opacity: 1; white-space: pre;">Korčok Ivan</text><g class="layers" style="opacity: 1;"><g class="legendfill"/><g class="legendlines"><path class="js-line" d="M5,0h30" style="fill: none; stroke: rgb(0, 174, 239); stroke-opacity: 1; stroke-width: 5px;"/></g><g class="legendsymbols"><g class="legendpoints"/></g></g><rect class="legendtoggle" x="0" y="-9.5" width="132.375" height="19" style="fill: rgb(0, 0, 0); fill-opacity: 0;"/></g><g class="traces" transform="translate(0,52.5)" style="opacity: 1;"><text class="legendtext" text-anchor="start" x="40" y="4.680000000000001" style="font-family: 'Open Sans', verdana, arial, sans-serif; font-size: 12px; fill: rgb(42, 63, 95); fill-opacity: 1; white-space: pre;">Kubiš Ján</text><g class="layers" style="opacity: 1;"><g class="legendfill"/><g class="legendlines"><path class="js-line" d="M5,0h30" style="fill: none; stroke: rgb(255, 1, 170); stroke-opacity: 1; stroke-width: 5px;"/></g><g class="legendsymbols"><g class="legendpoints"/></g></g><rect class="legendtoggle" x="0" y="-9.5" width="132.375" height="19" style="fill: rgb(0, 0, 0); fill-opacity: 0;"/></g><g class="traces" transform="translate(0,71.5)" style="opacity: 1;"><text class="legendtext" text-anchor="start" x="40" y="4.680000000000001" style="font-family: 'Open Sans', verdana, arial, sans-serif; font-size: 12px; fill: rgb(42, 63, 95); fill-opacity: 1; white-space: pre;">Fico Robert</text><g class="layers" style="opacity: 1;"><g class="legendfill"/><g class="legendlines"><path class="js-line" d="M5,0h30" style="fill: none; stroke: rgb(238, 58, 67); stroke-opacity: 1; stroke-width: 5px;"/></g><g class="legendsymbols"><g class="legendpoints"/></g></g><rect class="legendtoggle" x="0" y="-9.5" width="132.375" height="19" style="fill: rgb(0, 0, 0); fill-opacity: 0;"/></g><g class="traces" transform="translate(0,90.5)" style="opacity: 1;"><text class="legendtext" text-anchor="start" x="40" y="4.680000000000001" style="font-family: 'Open Sans', verdana, arial, sans-serif; font-size: 12px; fill: rgb(42, 63, 95); fill-opacity: 1; white-space: pre;">Mistrík Robert</text><g class="layers" style="opacity: 1;"><g class="legendfill"/><g class="legendlines"><path class="js-line" d="M5,0h30" style="fill: none; stroke: rgb(202, 166, 105); stroke-opacity: 1; stroke-width: 5px;"/></g><g class="legendsymbols"><g class="legendpoints"/></g></g><rect class="legendtoggle" x="0" y="-9.5" width="132.375" height="19" style="fill: rgb(0, 0, 0); fill-opacity: 0;"/></g><g class="traces" transform="translate(0,109.5)" style="opacity: 1;"><text class="legendtext" text-anchor="start" x="40" y="4.680000000000001" style="font-family: 'Open Sans', verdana, arial, sans-serif; font-size: 12px; fill: rgb(42, 63, 95); fill-opacity: 1; white-space: pre;">Žilinka Maroš</text><g class="layers" style="opacity: 1;"><g class="legendfill"/><g class="legendlines"><path class="js-line" d="M5,0h30" style="fill: none; stroke: rgb(1, 27, 58); stroke-opacity: 1; stroke-width: 5px;"/></g><g class="legendsymbols"><g class="legendpoints"/></g></g><rect class="legendtoggle" x="0" y="-9.5" width="132.375" height="19" style="fill: rgb(0, 0, 0); fill-opacity: 0;"/></g><g class="traces" transform="translate(0,128.5)" style="opacity: 1;"><text class="legendtext" text-anchor="start" x="40" y="4.680000000000001" style="font-family: 'Open Sans', verdana, arial, sans-serif; font-size: 12px; fill: rgb(42, 63, 95); fill-opacity: 1; white-space: pre;">Lajčák Miroslav</text><g class="layers" style="opacity: 1;"><g class="legendfill"/><g class="legendlines"><path class="js-line" d="M5,0h30" style="fill: none; stroke: rgb(255, 192, 203); stroke-opacity: 1; stroke-width: 5px;"/></g><g class="legendsymbols"><g class="legendpoints"/></g></g><rect class="legendtoggle" x="0" y="-9.5" width="132.375" height="19" style="fill: rgb(0, 0, 0); fill-opacity: 0;"/></g></g></g><rect class="scrollbar" rx="20" ry="3" width="0" height="0" x="0" y="0" style="fill: rgb(128, 139, 164); fill-opacity: 1;"/></g><g class="g-gtitle"/><g class="g-xtitle"/><g class="g-ytitle"/></g></svg>