<svg class="main-svg" xmlns="http://www.w3.org/2000/svg" xmlns:xlink="http://www.w3.org/1999/xlink" width="300" height="135" style="" viewBox="0 0 300 135"><rect x="0" y="0" width="300" height="135" style="fill: rgb(255, 255, 255); fill-opacity: 1;"/><defs id="defs-4a0678"><g class="clips"><clipPath id="clip4a0678xyplot" class="plotclip"><rect width="280" height="75"/></clipPath><clipPath class="axesclip" id="clip4a0678x"><rect x="10" y="0" width="280" height="135"/></clipPath><clipPath class="axesclip" id="clip4a0678y"><rect x="0" y="50" width="300" height="75"/></clipPath><clipPath class="axesclip" id="clip4a0678xy"><rect x="10" y="50" width="280" height="75"/></clipPath></g><g class="gradients"/><g class="patterns"/></defs><g class="bglayer"/><g class="layer-below"><g class="imagelayer"/><g class="shapelayer"/></g><g class="cartesianlayer"><g class="subplot xy"><g class="layer-subplot"><g class="shapelayer"/><g class="imagelayer"/></g><g class="minor-gridlayer"><g class="x"/><g class="y"/></g><g class="gridlayer"><g class="x"><path class="xgrid crisp" transform="translate(24.36,0)" d="M0,50v75" style="stroke: rgb(235, 240, 248); stroke-opacity: 1; stroke-width: 1px;"/><path class="xgrid crisp" transform="translate(113.38,0)" d="M0,50v75" style="stroke: rgb(235, 240, 248); stroke-opacity: 1; stroke-width: 1px;"/><path class="xgrid crisp" transform="translate(200.97,0)" d="M0,50v75" style="stroke: rgb(235, 240, 248); stroke-opacity: 1; stroke-width: 1px;"/><path class="xgrid crisp" transform="translate(288.56,0)" d="M0,50v75" style="stroke: rgb(235, 240, 248); stroke-opacity: 1; stroke-width: 1px;"/></g><g class="y"><path class="ygrid crisp" transform="translate(0,101.28999999999999)" d="M10,0h280" style="stroke: rgb(235, 240, 248); stroke-opacity: 1; stroke-width: 1px;"/><path class="ygrid crisp" transform="translate(0,77.58)" d="M10,0h280" style="stroke: rgb(235, 240, 248); stroke-opacity: 1; stroke-width: 1px;"/><path class="ygrid crisp" transform="translate(0,53.87)" d="M10,0h280" style="stroke: rgb(235, 240, 248); stroke-opacity: 1; stroke-width: 1px;"/></g></g><g class="zerolinelayer"><path class="yzl zl crisp" transform="translate(0,125)" d="M10,0h280" style="stroke: rgb(235, 240, 248); stroke-opacity: 1; stroke-width: 2px;"/></g><path class="xlines-below"/><path class="ylines-below"/><g class="overlines-below"/><g class="xaxislayer-below"/><g class="yaxislayer-below"/><g class="overaxes-below"/><g class="plot" transform="translate(10,50)" clip-path="url(#clip4a0678xyplot)"><g class="scatterlayer mlayer"><g class="trace scatter trace352442" style="stroke-miterlimit: 2; opacity: 1;"><g class="fills"/><g class="errorbars"/><g class="lines"><path class="js-line" d="M0,50.22L4.31,47.14L5.74,47.14L11.49,47.38L12.92,46.55L33.03,45.6L34.46,44.89L61.74,44.06L63.18,39.08L80.41,39.08L83.28,42.52L84.72,41.81L87.59,41.81L99.08,41.57L100.51,44.18L103.38,45.48L104.82,45.01L106.26,44.53L107.69,45.6L145.03,44.89L146.46,42.52L149.33,43.47L150.77,43.47L152.21,43.23L153.64,39.32L156.51,36.94L157.95,36.94L159.38,36.35L160.82,32.44L163.69,30.19L165.13,30.19L169.44,29.48L170.87,28.41L175.18,25.8L176.62,25.8L188.1,26.16L189.54,27.34L201.03,27.34L202.46,25.68L203.9,25.68L205.33,22.84L211.08,22.84L212.51,19.64L221.13,19.64L222.56,17.74L225.44,17.03L226.87,17.03L232.62,14.66L234.05,10.63L236.92,10.63L238.36,8.61L239.79,3.75L241.23,3.75L252.72,3.75L254.15,5.53L257.03,6.36L258.46,6.36L259.9,6.83L261.33,8.73L264.21,8.97L265.64,8.14L280,8.49" style="vector-effect: none; fill: none; stroke: rgb(138, 44, 81); stroke-opacity: 1; stroke-width: 5px; opacity: 1;"/></g><g class="points"/><g class="text"/></g><g class="trace scatter tracead3fc7" style="stroke-miterlimit: 2; opacity: 1;"><g class="fills"/><g class="errorbars"/><g class="lines"><path class="js-line" d="M0,23.31L4.31,24.97L5.74,24.97L11.49,24.73L12.92,24.02L83.28,25.09L84.72,28.41L99.08,27.34L100.51,24.62L101.95,20.58L103.38,20.58L106.26,22.72L107.69,19.16L120.62,19.16L122.05,20.94L123.49,20.94L124.92,19.16L126.36,20.94L127.79,18.81L130.67,18.33L132.1,20.58L134.97,18.33L136.41,18.33L137.85,18.33L139.28,20.58L140.72,20.58L142.15,18.33L145.03,20.58L146.46,18.45L147.9,21.18L149.33,21.18L157.95,21.89L159.38,22.48L162.26,25.21L163.69,25.33L185.23,26.16L186.67,26.87L203.9,26.99L205.33,28.17L221.13,27.93L222.56,29.83L232.62,32.32L234.05,30.07L238.36,31.25L239.79,32.8L252.72,32.8L254.15,31.14L257.03,30.19L258.46,30.19L259.9,29.71L261.33,26.99L264.21,26.39L265.64,26.75L280,26.16" style="vector-effect: none; fill: none; stroke: rgb(0, 174, 239); stroke-opacity: 1; stroke-width: 5px; opacity: 1;"/></g><g class="points"/><g class="text"/></g><g class="trace scatter trace280778" style="stroke-miterlimit: 2; opacity: 1;"><g class="fills"/><g class="errorbars"/><g class="lines"><path class="js-line" d="M0,63.03L10.05,64.21L11.49,63.5L14.36,62.79L15.79,62.79L61.74,63.03L63.18,64.45L83.28,63.5L84.72,55.79L100.51,56.51L101.95,57.22L127.79,57.57L129.23,58.05L145.03,57.22L146.46,60.66L149.33,58.28L150.77,58.28L152.21,58.4L153.64,60.18L156.51,61.6L157.95,61.6L159.38,61.25L160.82,62.43L168,62.67L169.44,62.55L176.62,63.14L178.05,63.14L185.23,62.67L186.67,61.6L188.1,61.6L189.54,59.94L201.03,59.94L202.46,61.49L208.21,63.62L209.64,63.62L229.74,64.8L231.18,64.92L232.62,64.92L234.05,68.6L252.72,69.78L254.15,69.9L262.77,70.85L264.21,71.09L268.51,71.56L269.95,71.56L280,71.8" style="vector-effect: none; fill: none; stroke: rgb(255, 1, 170); stroke-opacity: 1; stroke-width: 5px; opacity: 1;"/></g><g class="points"/><g class="text"/></g><g class="trace scatter trace2cb7b7" style="stroke-miterlimit: 2; opacity: 1;"><g class="fills"/><g class="errorbars"/><g class="lines"><path class="js-line" d="M0,65.63L8.62,65.87L10.05,64.21L12.92,67.89L14.36,67.89L103.38,68.48L104.82,68.95L107.69,68.6L109.13,68.6L153.64,69.78L155.08,70.02L169.44,70.97L170.87,71.32L180.92,71.92L182.36,71.92L228.31,73.1L229.74,73.22L238.36,73.81" style="vector-effect: none; fill: none; stroke: rgb(202, 166, 105); stroke-opacity: 1; stroke-width: 5px; opacity: 1;"/></g><g class="points"/><g class="text"/></g><g class="trace scatter traceb038ff" style="stroke-miterlimit: 2; opacity: 1;"><g class="fills"/><g class="errorbars"/><g class="lines"><path class="js-line" d="M0,62.55L8.62,63.03L10.05,62.55L35.9,63.97L37.33,63.97L61.74,63.74L63.18,65.52L83.28,64.8L84.72,66.35L100.51,66.7L101.95,68.01L104.82,67.29L106.26,66.58L109.13,68.6L110.56,68.6L146.46,67.65L147.9,66.82L152.21,66.94L153.64,68.12L157.95,68.72L159.38,68.95L166.56,69.78L168,69.78L180.92,71.32L182.36,71.32L232.62,71.32L234.05,73.58L238.36,73.81" style="vector-effect: none; fill: none; stroke: rgb(238, 58, 67); stroke-opacity: 1; stroke-width: 5px; opacity: 1;"/></g><g class="points"/><g class="text"/></g></g></g><g class="overplot"/><path class="xlines-above crisp" d="M0,0" style="fill: none;"/><path class="ylines-above crisp" d="M0,0" style="fill: none;"/><g class="overlines-above"/><g class="xaxislayer-above"/><g class="yaxislayer-above"/><g class="overaxes-above"/></g></g><g class="polarlayer"/><g class="smithlayer"/><g class="ternarylayer"/><g class="geolayer"/><g class="funnelarealayer"/><g class="pielayer"/><g class="iciclelayer"/><g class="treemaplayer"/><g class="sunburstlayer"/><g class="glimages"/><defs id="topdefs-4a0678"><g class="clips"/></defs><g class="layer-above"><g class="imagelayer"/><g class="shapelayer"/></g><g class="infolayer"><g class="g-gtitle"><text class="gtitle" x="15" y="25" text-anchor="start" dy="0em" style="font-family: Ubuntu, verdana, arial, sans-serif; font-size: 16px; fill: rgb(233, 84, 32); opacity: 1; font-weight: normal; white-space: pre;">Prezident/ka 2024</text></g><g class="g-xtitle"/><g class="g-ytitle"/></g></svg>