<svg class="main-svg" xmlns="http://www.w3.org/2000/svg" xmlns:xlink="http://www.w3.org/1999/xlink" width="300" height="135" style="" viewBox="0 0 300 135"><rect x="0" y="0" width="300" height="135" style="fill: rgb(255, 255, 255); fill-opacity: 1;"/><defs id="defs-f8950b"><g class="clips"><clipPath id="clipf8950bxyplot" class="plotclip"><rect width="280" height="75"/></clipPath><clipPath class="axesclip" id="clipf8950bx"><rect x="10" y="0" width="280" height="135"/></clipPath><clipPath class="axesclip" id="clipf8950by"><rect x="0" y="50" width="300" height="75"/></clipPath><clipPath class="axesclip" id="clipf8950bxy"><rect x="10" y="50" width="280" height="75"/></clipPath></g><g class="gradients"/><g class="patterns"/></defs><g class="bglayer"/><g class="layer-below"><g class="imagelayer"/><g class="shapelayer"/></g><g class="cartesianlayer"><g class="subplot xy"><g class="layer-subplot"><g class="shapelayer"/><g class="imagelayer"/></g><g class="minor-gridlayer"><g class="x"/><g class="y"/></g><g class="gridlayer"><g class="x"><path class="xgrid crisp" transform="translate(21.759999999999998,0)" d="M0,50v75" style="stroke: rgb(235, 240, 248); stroke-opacity: 1; stroke-width: 1px;"/><path class="xgrid crisp" transform="translate(94.71,0)" d="M0,50v75" style="stroke: rgb(235, 240, 248); stroke-opacity: 1; stroke-width: 1px;"/><path class="xgrid crisp" transform="translate(166.47,0)" d="M0,50v75" style="stroke: rgb(235, 240, 248); stroke-opacity: 1; stroke-width: 1px;"/><path class="xgrid crisp" transform="translate(238.24,0)" d="M0,50v75" style="stroke: rgb(235, 240, 248); stroke-opacity: 1; stroke-width: 1px;"/></g><g class="y"><path class="ygrid crisp" transform="translate(0,102.77000000000001)" d="M10,0h280" style="stroke: rgb(235, 240, 248); stroke-opacity: 1; stroke-width: 1px;"/><path class="ygrid crisp" transform="translate(0,80.53999999999999)" d="M10,0h280" style="stroke: rgb(235, 240, 248); stroke-opacity: 1; stroke-width: 1px;"/><path class="ygrid crisp" transform="translate(0,58.31)" d="M10,0h280" style="stroke: rgb(235, 240, 248); stroke-opacity: 1; stroke-width: 1px;"/></g></g><g class="zerolinelayer"><path class="yzl zl crisp" transform="translate(0,125)" d="M10,0h280" style="stroke: rgb(235, 240, 248); stroke-opacity: 1; stroke-width: 2px;"/></g><path class="xlines-below"/><path class="ylines-below"/><g class="overlines-below"/><g class="xaxislayer-below"/><g class="yaxislayer-below"/><g class="overaxes-below"/><g class="plot" transform="translate(10,50)" clip-path="url(#clipf8950bxyplot)"><g class="scatterlayer mlayer"><g class="trace scatter trace4091e8" style="stroke-miterlimit: 2; opacity: 1;"><g class="fills"/><g class="errorbars"/><g class="lines"><path class="js-line" d="M276.47,21.65L280,21.65" style="vector-effect: none; fill: none; stroke: rgb(187, 187, 187); stroke-opacity: 1; stroke-width: 5px; opacity: 1;"/></g><g class="points"/><g class="text"/></g><g class="trace scatter trace68876c" style="stroke-miterlimit: 2; opacity: 1;"><g class="fills"/><g class="errorbars"/><g class="lines"><path class="js-line" d="M0,51.77L3.53,48.88L4.71,48.88L9.41,49.1L10.59,48.32L27.06,47.43L28.24,46.77L50.59,45.99L51.76,41.32L65.88,41.32L68.24,44.54L71.76,43.88L72.94,43.88L81.18,43.65L82.35,46.1L84.71,47.32L85.88,46.88L87.06,46.43L88.24,47.43L118.82,46.77L120,44.54L122.35,45.43L123.53,45.43L124.71,45.21L125.88,41.54L128.24,39.32L129.41,39.32L130.59,38.76L131.76,35.1L134.12,32.98L135.29,32.98L138.82,32.32L140,31.32L143.53,28.87L144.71,28.87L154.12,29.2L155.29,30.32L164.71,30.32L165.88,28.76L167.06,28.76L168.24,26.09L172.94,26.09L174.12,23.09L181.18,23.09L182.35,21.31L189.41,18.42L190.59,18.42L192.94,14.64L194.12,14.64L195.29,12.75L196.47,8.2L207.06,8.2L208.24,9.86L210.59,10.64L211.76,10.64L214.12,12.86L215.29,13.53L221.18,12.31L222.35,12.31L229.41,12.42L230.59,8.75L232.94,5.08L234.12,4.97L237.65,5.86L238.82,3.75L242.35,4.75L243.53,5.64L245.88,6.75L247.06,10.53L248.24,11.86L249.41,10.53L251.76,10.64L252.94,8.86L255.29,8.97L256.47,9.09L258.82,8.64L260,7.75L263.53,4.64L264.71,4.64L268.24,6.64L269.41,5.75L271.76,6.42L272.94,8.64L275.29,14.87L276.47,43.65L280,44.21" style="vector-effect: none; fill: none; stroke: rgb(138, 44, 81); stroke-opacity: 1; stroke-width: 5px; opacity: 1;"/></g><g class="points"/><g class="text"/></g><g class="trace scatter trace825344" style="stroke-miterlimit: 2; opacity: 1;"><g class="fills"/><g class="errorbars"/><g class="lines"><path class="js-line" d="M0,26.54L4.71,28.09L5.88,28.09L9.41,27.87L10.59,27.2L68.24,28.2L69.41,31.32L81.18,30.32L82.35,27.76L84.71,23.98L85.88,24.98L87.06,25.98L88.24,22.65L98.82,22.65L100,24.31L101.18,24.31L102.35,22.65L103.53,24.31L104.71,22.31L107.06,21.87L108.24,23.98L110.59,21.87L111.76,21.87L112.94,21.87L114.12,23.98L115.29,23.98L116.47,21.87L118.82,23.98L120,21.98L122.35,24.54L123.53,24.54L130.59,25.76L131.76,27.65L135.29,28.43L136.47,28.43L151.76,29.2L152.94,29.87L181.18,30.87L182.35,32.65L190.59,34.98L191.76,32.87L195.29,33.98L196.47,35.43L207.06,35.43L208.24,33.87L210.59,32.98L211.76,32.98L212.94,32.54L214.12,29.98L216.47,29.43L217.65,29.76L229.41,29.2L230.59,32.09L232.94,35.43L234.12,35.54L236.47,33.76L237.65,32.98L240,35.1L241.18,34.54L245.88,32.09L247.06,28.32L248.24,26.98L249.41,28.32L251.76,28.2L252.94,29.98L255.29,29.87L256.47,29.76L258.82,30.2L260,31.09L263.53,34.21L264.71,34.21L268.24,32.21L269.41,33.09L271.76,32.43L272.94,30.2L275.29,23.98L276.47,48.66L280,47.99" style="vector-effect: none; fill: none; stroke: rgb(0, 174, 239); stroke-opacity: 1; stroke-width: 5px; opacity: 1;"/></g><g class="points"/><g class="text"/></g><g class="trace scatter trace3d68f2" style="stroke-miterlimit: 2; opacity: 1;"><g class="fills"/><g class="errorbars"/><g class="lines"><path class="js-line" d="M0,63.77L8.24,64.88L9.41,64.22L12.94,63.55L14.12,63.55L50.59,63.77L51.76,65.11L68.24,64.22L69.41,56.99L82.35,57.66L83.53,58.33L104.71,58.66L105.88,59.1L118.82,58.33L120,61.55L122.35,59.33L123.53,59.33L124.71,59.44L125.88,61.11L128.24,62.44L129.41,62.44L130.59,62.11L131.76,63.22L138.82,63.33L140,63.22L148.24,63.88L149.41,63.88L151.76,63.44L152.94,62.44L154.12,62.44L155.29,60.88L164.71,60.88L165.88,62.33L171.76,64.33L172.94,64.33L175.29,65.22L176.47,65.22L190.59,65.55L191.76,69L212.94,70.11L214.12,71.11L229.41,72.22L230.59,73L236.47,73.55" style="vector-effect: none; fill: none; stroke: rgb(255, 1, 170); stroke-opacity: 1; stroke-width: 5px; opacity: 1;"/></g><g class="points"/><g class="text"/></g><g class="trace scatter trace372c3a" style="stroke-miterlimit: 2; opacity: 1;"><g class="fills"/><g class="errorbars"/><g class="lines"><path class="js-line" d="M0,63.33L7.06,63.77L8.24,63.33L30.59,64.66L31.76,64.66L50.59,64.44L51.76,66.11L68.24,65.44L69.41,66.89L82.35,67.22L83.53,68.44L85.88,67.77L87.06,67.11L89.41,69L90.59,69L120,68.11L121.18,67.33L125.88,68.55L127.06,69.11L138.82,70.33L140,70.78L148.24,71.55L149.41,71.55L190.59,71.55L191.76,73.67L195.29,73.89" style="vector-effect: none; fill: none; stroke: rgb(238, 58, 67); stroke-opacity: 1; stroke-width: 5px; opacity: 1;"/></g><g class="points"/><g class="text"/></g></g></g><g class="overplot"/><path class="xlines-above crisp" d="M0,0" style="fill: none;"/><path class="ylines-above crisp" d="M0,0" style="fill: none;"/><g class="overlines-above"/><g class="xaxislayer-above"/><g class="yaxislayer-above"/><g class="overaxes-above"/></g></g><g class="polarlayer"/><g class="smithlayer"/><g class="ternarylayer"/><g class="geolayer"/><g class="funnelarealayer"/><g class="pielayer"/><g class="iciclelayer"/><g class="treemaplayer"/><g class="sunburstlayer"/><g class="glimages"/><defs id="topdefs-f8950b"><g class="clips"/></defs><g class="layer-above"><g class="imagelayer"/><g class="shapelayer"/></g><g class="infolayer"><g class="g-gtitle"><text class="gtitle" x="15" y="25" text-anchor="start" dy="0em" style="font-family: Ubuntu, verdana, arial, sans-serif; font-size: 16px; fill: rgb(233, 84, 32); opacity: 1; font-weight: normal; white-space: pre;">Prezident/ka 2024</text></g><g class="g-xtitle"/><g class="g-ytitle"/></g></svg>