<svg class="main-svg" xmlns="http://www.w3.org/2000/svg" xmlns:xlink="http://www.w3.org/1999/xlink" width="300" height="135" style="" viewBox="0 0 300 135"><rect x="0" y="0" width="300" height="135" style="fill: rgb(255, 255, 255); fill-opacity: 1;"/><defs id="defs-2930db"><g class="clips"><clipPath id="clip2930dbxyplot" class="plotclip"><rect width="280" height="75"/></clipPath><clipPath class="axesclip" id="clip2930dbx"><rect x="10" y="0" width="280" height="135"/></clipPath><clipPath class="axesclip" id="clip2930dby"><rect x="0" y="50" width="300" height="75"/></clipPath><clipPath class="axesclip" id="clip2930dbxy"><rect x="10" y="50" width="280" height="75"/></clipPath></g><g class="gradients"/><g class="patterns"/></defs><g class="bglayer"/><g class="layer-below"><g class="imagelayer"/><g class="shapelayer"/></g><g class="cartesianlayer"><g class="subplot xy"><g class="layer-subplot"><g class="shapelayer"/><g class="imagelayer"/></g><g class="minor-gridlayer"><g class="x"/><g class="y"/></g><g class="gridlayer"><g class="x"><path class="xgrid crisp" transform="translate(27.61,0)" d="M0,50v75" style="stroke: rgb(235, 240, 248); stroke-opacity: 1; stroke-width: 1px;"/><path class="xgrid crisp" transform="translate(136.79000000000002,0)" d="M0,50v75" style="stroke: rgb(235, 240, 248); stroke-opacity: 1; stroke-width: 1px;"/><path class="xgrid crisp" transform="translate(244.21,0)" d="M0,50v75" style="stroke: rgb(235, 240, 248); stroke-opacity: 1; stroke-width: 1px;"/></g><g class="y"><path class="ygrid crisp" transform="translate(0,95.86)" d="M10,0h280" style="stroke: rgb(235, 240, 248); stroke-opacity: 1; stroke-width: 1px;"/><path class="ygrid crisp" transform="translate(0,66.72)" d="M10,0h280" style="stroke: rgb(235, 240, 248); stroke-opacity: 1; stroke-width: 1px;"/></g></g><g class="zerolinelayer"><path class="yzl zl crisp" transform="translate(0,125)" d="M10,0h280" style="stroke: rgb(235, 240, 248); stroke-opacity: 1; stroke-width: 2px;"/></g><path class="xlines-below"/><path class="ylines-below"/><g class="overlines-below"/><g class="xaxislayer-below"/><g class="yaxislayer-below"/><g class="overaxes-below"/><g class="plot" transform="translate(10,50)" clip-path="url(#clip2930dbxyplot)"><g class="scatterlayer mlayer"><g class="trace scatter trace405d04" style="stroke-miterlimit: 2; opacity: 1;"><g class="fills"/><g class="errorbars"/><g class="lines"><path class="js-line" d="M0,44.55L5.28,40.76L7.04,40.76L14.09,41.05L15.85,40.03L40.5,38.87L42.26,37.99L75.72,36.97L77.48,30.85L98.62,30.85L102.14,35.08L103.9,34.2L107.42,34.2L121.51,33.91L123.27,37.12L126.79,38.72L128.55,38.14L130.31,37.55L132.08,38.87L177.86,37.99L179.62,35.08L183.14,36.24L184.91,36.24L186.67,35.95L188.43,31.14L190.19,28.23L191.95,28.23L195.47,27.5L197.23,22.69L200.75,19.92L202.52,19.92L207.8,19.05L209.56,17.74L214.84,14.53L216.6,14.53L230.69,14.97L232.45,16.43L246.54,16.43L248.3,14.39L250.06,14.39L251.82,10.89L258.87,10.89L260.63,6.96L271.19,6.96L272.96,4.62L276.48,3.75L278.24,3.75L280,3.75" style="vector-effect: none; fill: none; stroke: rgb(138, 44, 81); stroke-opacity: 1; stroke-width: 5px; opacity: 1;"/></g><g class="points"/><g class="text"/></g><g class="trace scatter trace99c208" style="stroke-miterlimit: 2; opacity: 1;"><g class="fills"/><g class="errorbars"/><g class="lines"><path class="js-line" d="M0,11.47L5.28,13.51L7.04,13.51L12.33,14.53L14.09,13.22L17.61,12.35L19.37,12.35L40.5,12.93L42.26,13.66L102.14,13.66L103.9,17.74L119.75,17.01L121.51,16.43L125.03,8.12L126.79,8.12L130.31,10.74L132.08,6.37L147.92,6.37L149.69,8.56L151.45,8.56L153.21,6.37L154.97,8.56L156.73,5.94L160.25,5.35L162.01,8.12L163.77,5.35L165.53,5.35L169.06,5.35L170.82,8.12L172.58,8.12L174.34,5.35L176.1,8.12L177.86,8.12L179.62,5.5L181.38,8.85L193.71,9.72L195.47,10.45L198.99,13.8L200.75,13.95L227.17,14.97L228.93,15.84L250.06,15.99L251.82,17.45L271.19,17.15L272.96,19.49L278.24,20.07L280,20.07" style="vector-effect: none; fill: none; stroke: rgb(0, 174, 239); stroke-opacity: 1; stroke-width: 5px; opacity: 1;"/></g><g class="points"/><g class="text"/></g><g class="trace scatter tracea56235" style="stroke-miterlimit: 2; opacity: 1;"><g class="fills"/><g class="errorbars"/><g class="lines"><path class="js-line" d="M0,60.28L8.81,60.72L10.57,60.72L12.33,61.74L14.09,60.87L17.61,59.99L19.37,59.99L75.72,60.28L77.48,62.03L102.14,60.87L103.9,51.4L123.27,52.27L125.03,53.14L154.97,52.71L156.73,53.58L160.25,54.16L162.01,53.14L165.53,54.16L167.3,54.16L177.86,53.14L179.62,57.37L181.38,54.46L183.14,54.46L186.67,54.6L188.43,56.79L191.95,58.54L193.71,58.54L195.47,58.1L197.23,59.56L206.04,59.85L207.8,59.7L213.08,60.43L214.84,60.43L227.17,59.85L228.93,58.54L230.69,58.54L232.45,56.5L246.54,56.5L248.3,58.39L250.06,58.97L251.82,61.01L272.96,62.18L274.72,62.32L280,62.32" style="vector-effect: none; fill: none; stroke: rgb(255, 1, 170); stroke-opacity: 1; stroke-width: 5px; opacity: 1;"/></g><g class="points"/><g class="text"/></g><g class="trace scatter trace2ffe33" style="stroke-miterlimit: 2; opacity: 1;"><g class="fills"/><g class="errorbars"/><g class="lines"><path class="js-line" d="M0,59.7L10.57,60.28L12.33,59.7L40.5,61.45L42.26,61.45L75.72,61.16L77.48,63.34L102.14,62.47L103.9,64.36L123.27,64.8L125.03,66.4L128.55,65.53L130.31,64.65L132.08,67.13L133.84,67.13L160.25,66.99L162.01,65.82L165.53,66.99L167.3,66.99L179.62,65.97L181.38,64.95L186.67,65.09L188.43,66.55L191.95,67.28L193.71,67.28L218.36,70.48L220.13,70.48L280,70.48" style="vector-effect: none; fill: none; stroke: rgb(238, 58, 67); stroke-opacity: 1; stroke-width: 5px; opacity: 1;"/></g><g class="points"/><g class="text"/></g><g class="trace scatter traceca98d3" style="stroke-miterlimit: 2; opacity: 1;"><g class="fills"/><g class="errorbars"/><g class="lines"><path class="js-line" d="M0,63.49L10.57,63.78L12.33,61.74L15.85,66.26L17.61,66.26L119.75,66.99L121.51,67.13L177.86,68.15L179.62,68.59L198.99,69.61L200.75,69.75L211.32,70.77L213.08,71.21L258.87,71.21L260.63,72.67L280,72.67" style="vector-effect: none; fill: none; stroke: rgb(202, 166, 105); stroke-opacity: 1; stroke-width: 5px; opacity: 1;"/></g><g class="points"/><g class="text"/></g></g></g><g class="overplot"/><path class="xlines-above crisp" d="M0,0" style="fill: none;"/><path class="ylines-above crisp" d="M0,0" style="fill: none;"/><g class="overlines-above"/><g class="xaxislayer-above"/><g class="yaxislayer-above"/><g class="overaxes-above"/></g></g><g class="polarlayer"/><g class="smithlayer"/><g class="ternarylayer"/><g class="geolayer"/><g class="funnelarealayer"/><g class="pielayer"/><g class="iciclelayer"/><g class="treemaplayer"/><g class="sunburstlayer"/><g class="glimages"/><defs id="topdefs-2930db"><g class="clips"/></defs><g class="layer-above"><g class="imagelayer"/><g class="shapelayer"/></g><g class="infolayer"><g class="g-gtitle"><text class="gtitle" x="15" y="25" text-anchor="start" dy="0em" style="font-family: Ubuntu, verdana, arial, sans-serif; font-size: 16px; fill: rgb(233, 84, 32); opacity: 1; font-weight: normal; white-space: pre;">Prezident/ka 2024</text></g><g class="g-xtitle"/><g class="g-ytitle"/></g></svg>