<svg class="main-svg" xmlns="http://www.w3.org/2000/svg" xmlns:xlink="http://www.w3.org/1999/xlink" width="400" height="400" style="" viewBox="0 0 400 400"><rect x="0" y="0" width="400" height="400" style="fill: rgb(255, 255, 255); fill-opacity: 1;"/><defs id="defs-770bfb"><g class="clips"><clipPath id="clip770bfbxyplot" class="plotclip"><rect width="196" height="330"/></clipPath><clipPath class="axesclip" id="clip770bfbx"><rect x="50" y="0" width="196" height="400"/></clipPath><clipPath class="axesclip" id="clip770bfby"><rect x="0" y="20" width="400" height="330"/></clipPath><clipPath class="axesclip" id="clip770bfbxy"><rect x="50" y="20" width="196" height="330"/></clipPath></g><g class="gradients"/><g class="patterns"/></defs><g class="bglayer"/><g class="layer-below"><g class="imagelayer"/><g class="shapelayer"/></g><g class="cartesianlayer"><g class="subplot xy"><g class="layer-subplot"><g class="shapelayer"/><g class="imagelayer"/></g><g class="minor-gridlayer"><g class="x"/><g class="y"/></g><g class="gridlayer"><g class="x"><path class="xgrid crisp" transform="translate(56.76,0)" d="M0,20v330" style="stroke: rgb(235, 240, 248); stroke-opacity: 1; stroke-width: 1px;"/><path class="xgrid crisp" transform="translate(98.66,0)" d="M0,20v330" style="stroke: rgb(235, 240, 248); stroke-opacity: 1; stroke-width: 1px;"/><path class="xgrid crisp" transform="translate(139.89,0)" d="M0,20v330" style="stroke: rgb(235, 240, 248); stroke-opacity: 1; stroke-width: 1px;"/><path class="xgrid crisp" transform="translate(181.12,0)" d="M0,20v330" style="stroke: rgb(235, 240, 248); stroke-opacity: 1; stroke-width: 1px;"/><path class="xgrid crisp" transform="translate(221.67,0)" d="M0,20v330" style="stroke: rgb(235, 240, 248); stroke-opacity: 1; stroke-width: 1px;"/></g><g class="y"><path class="ygrid crisp" transform="translate(0,301.09)" d="M50,0h196" style="stroke: rgb(235, 240, 248); stroke-opacity: 1; stroke-width: 1px;"/><path class="ygrid crisp" transform="translate(0,252.18)" d="M50,0h196" style="stroke: rgb(235, 240, 248); stroke-opacity: 1; stroke-width: 1px;"/><path class="ygrid crisp" transform="translate(0,203.28)" d="M50,0h196" style="stroke: rgb(235, 240, 248); stroke-opacity: 1; stroke-width: 1px;"/><path class="ygrid crisp" transform="translate(0,154.37)" d="M50,0h196" style="stroke: rgb(235, 240, 248); stroke-opacity: 1; stroke-width: 1px;"/><path class="ygrid crisp" transform="translate(0,105.46)" d="M50,0h196" style="stroke: rgb(235, 240, 248); stroke-opacity: 1; stroke-width: 1px;"/><path class="ygrid crisp" transform="translate(0,56.55)" d="M50,0h196" style="stroke: rgb(235, 240, 248); stroke-opacity: 1; stroke-width: 1px;"/></g></g><g class="zerolinelayer"><path class="yzl zl crisp" transform="translate(0,350)" d="M50,0h196" style="stroke: rgb(235, 240, 248); stroke-opacity: 1; stroke-width: 2px;"/></g><path class="xlines-below"/><path class="ylines-below"/><g class="overlines-below"/><g class="xaxislayer-below"/><g class="yaxislayer-below"/><g class="overaxes-below"/><g class="plot" transform="translate(50,20)" clip-path="url(#clip770bfbxyplot)"><g class="scatterlayer mlayer"><g class="trace scatter trace672008" style="stroke-miterlimit: 2; opacity: 1;"><g class="fills"/><g class="errorbars"/><g class="lines"><path class="js-line" d="M0,227.78L2.03,215.07L2.7,215.07L4.06,215.07L4.73,218.49L6.76,212.62L7.43,212.62L9.46,212.62L10.14,211.15L12.17,211.15L12.84,209.69L14.87,208.71L15.54,208.71L16.9,205.77L17.57,205.77L25.01,205.77L25.68,202.35L29.06,202.35L29.74,181.81L37.85,181.81L39.2,195.99L39.88,193.06L41.23,193.06L46.63,192.08L47.31,202.84L48.66,208.22L49.34,206.26L50.01,204.31L50.69,208.71L56.77,208.71L57.45,206.75L58.12,206.75L58.8,208.71L59.48,206.75L60.15,208.22L60.83,206.75L68.26,205.77L68.94,195.99L70.29,199.9L70.97,199.9L71.64,198.93L72.32,182.79L73.67,173.01L74.34,173.01L75.02,170.56L75.7,154.42L77.72,145.13L78.4,145.13L79.08,145.13L79.75,142.19L82.46,127.03L83.13,127.03L87.19,127.52L87.86,128.5L88.54,128.5L89.21,133.39L94.62,133.39L95.3,126.54L95.97,126.54L96.65,114.8L99.35,114.8L100.03,101.6L104.08,101.6L104.76,93.77L106.11,90.84L106.79,90.84L109.49,81.06L110.17,64.43L111.52,64.43L112.19,56.12L113.54,36.06L114.22,36.06L118.95,36.06L119.63,43.4L120.98,46.82L121.66,46.82L122.33,48.78L123.01,56.6L123.68,59.54L124.36,57.58L125.03,54.16L130.44,53.18L131.12,55.63L131.79,54.65L132.47,38.51L134.5,21.88L135.17,23.35L135.85,29.22L136.52,25.79L137.2,16.5L137.88,16.5L138.55,18.95L139.9,24.81L140.58,29.22L141.26,29.71L141.93,46.33L142.61,52.2L143.28,46.33L143.96,48.78L144.63,46.82L145.31,39L145.99,37.04L146.66,39.49L148.01,40.95L148.69,38.02L151.39,20.41L152.07,20.41L152.74,22.37L153.42,28.24L154.1,29.22L154.77,25.3L155.45,24.81L156.12,28.24L158.15,65.41L158.83,64.43L159.5,64.43L160.18,64.92L160.86,69.32L161.53,70.79L162.21,69.81L162.88,64.43L164.91,73.23L165.59,66.39L167.61,36.55L168.29,36.06L168.97,25.3L169.64,25.79L170.32,25.3L171.67,21.88" style="vector-effect: none; fill: none; stroke: rgb(138, 44, 81); stroke-opacity: 1; stroke-width: 5px; opacity: 1;"/></g><g class="points"/><g class="text"/></g><g class="trace scatter tracebd6ba6" style="stroke-miterlimit: 2; opacity: 1;"><g class="fills"/><g class="errorbars"/><g class="lines"><path class="js-line" d="M0,116.76L2.03,123.61L2.7,123.61L4.06,123.61L4.73,127.03L6.76,119.7L7.43,119.7L12.84,120.67L13.52,121.65L15.54,121.65L16.22,124.1L39.2,124.1L39.88,137.79L45.28,137.79L45.96,135.35L46.63,133.39L47.31,122.14L48.66,105.51L49.34,109.91L50.01,114.32L50.69,99.64L56.77,99.64L57.45,106.98L58.12,106.98L58.8,99.64L59.48,106.98L60.15,98.18L61.5,96.22L62.18,105.51L63.53,96.22L64.21,96.22L64.88,96.22L65.56,105.51L66.23,105.51L66.91,96.22L68.26,105.51L68.94,96.71L70.29,107.96L70.97,107.96L71.64,107.96L72.32,110.89L74.34,110.89L75.02,113.34L77.05,125.08L77.72,125.08L80.43,125.08L81.1,126.54L83.81,127.03L84.48,127.03L86.51,127.03L87.19,128.5L89.21,133.39L90.57,133.39L95.3,133.88L95.97,131.92L97.32,136.81L98,136.81L104.08,135.84L104.76,143.66L106.11,145.62L106.79,145.62L109.49,153.93L110.17,144.64L111.52,144.64L112.19,149.53L113.54,155.89L114.22,155.89L118.95,155.89L119.63,149.04L120.98,145.13L121.66,145.13L122.33,143.17L123.01,131.92L123.68,128.5L124.36,129.48L125.03,130.94L130.44,130.94L131.12,128.5L131.79,128.5L132.47,141.22L134.5,156.38L135.17,154.91L136.52,145.13L137.2,154.42L137.88,154.42L138.55,151.98L139.9,146.11L140.58,141.7L141.26,141.22L141.93,124.59L142.61,118.72L143.28,124.59L143.96,122.14L144.63,124.1L145.31,131.92L145.99,133.88L146.66,131.43L148.01,129.97L148.69,132.9L151.39,150.51L152.07,150.51L152.74,148.55L153.42,142.68L154.1,141.7L154.77,145.62L155.45,146.11L156.12,142.68L158.15,105.51L158.83,106.49L159.5,106.49L160.18,106L160.86,101.6L161.53,100.13L162.21,101.11L162.88,106.49L164.91,97.69L165.59,104.53L167.61,134.37L168.29,134.86L168.97,145.62L169.64,145.13L170.32,145.62L171.67,149.04" style="vector-effect: none; fill: none; stroke: rgb(0, 174, 239); stroke-opacity: 1; stroke-width: 5px; opacity: 1;"/></g><g class="points"/><g class="text"/></g><g class="trace scatter traced96426" style="stroke-miterlimit: 2; opacity: 1;"><g class="fills"/><g class="errorbars"/><g class="lines"><path class="js-line" d="M0,280.6L2.03,282.07L2.7,282.07L4.06,282.07L4.73,285.49L6.76,279.62L7.43,279.62L29.06,280.6L29.74,286.47L37.85,286.47L39.2,282.56L39.88,250.77L41.23,250.77L45.28,250.77L45.96,252.24L48.66,256.64L49.34,255.17L50.01,253.21L50.69,257.13L56.77,257.13L57.45,255.17L58.12,255.17L58.8,257.13L59.48,255.17L60.15,258.11L61.5,260.06L62.18,256.64L63.53,260.06L64.21,260.06L64.88,260.06L65.56,256.64L66.23,256.64L66.91,260.06L68.26,256.64L68.94,270.82L70.29,261.04L70.97,261.04L71.64,261.53L72.32,268.87L73.67,274.73L74.34,274.73L75.02,273.27L75.7,278.16L77.72,279.14L78.4,279.14L81.1,279.14L81.78,281.09L86.51,281.09L87.19,279.14L89.21,267.89L90.57,267.89L94.62,267.89L95.3,274.24L95.97,276.2L96.65,283.05L99.35,283.05L100.03,286.96L108.14,287.94L108.81,288.43L109.49,288.43L110.17,303.59L111.52,303.59L112.19,305.55L113.54,308.48L114.22,308.48L122.33,308.48L123.01,312.88L124.36,313.86L125.03,315.82L131.12,316.79L131.79,317.77L133.82,322.66L134.5,322.66L135.85,323.64" style="vector-effect: none; fill: none; stroke: rgb(255, 1, 170); stroke-opacity: 1; stroke-width: 5px; opacity: 1;"/></g><g class="points"/><g class="text"/></g><g class="trace scatter trace67895c" style="stroke-miterlimit: 2; opacity: 1;"><g class="fills"/><g class="errorbars"/><g class="lines"><path class="js-line" d="M0,291.36L3.38,292.34L4.06,292.34L4.73,285.49L5.41,294.79L6.76,300.66L7.43,300.66L25.01,299.68L25.68,299.19L29.06,299.19L29.74,301.63L39.2,300.66L39.88,302.61L48.66,303.1L49.34,305.06L50.01,307.01L50.69,303.59L56.77,303.59L57.45,305.06L58.12,305.06L58.8,303.59L61.5,306.52L62.18,307.01L64.88,306.52L65.56,307.01L68.26,307.01L68.94,308.48L72.32,308.48L72.99,309.46L75.7,310.44L76.37,311.9L80.43,314.84L81.1,315.82L83.13,317.28L83.81,317.28L99.35,317.28L100.03,322.17L109.49,322.66L110.17,324.13L112.19,325.11" style="vector-effect: none; fill: none; stroke: rgb(202, 166, 105); stroke-opacity: 1; stroke-width: 5px; opacity: 1;"/></g><g class="points"/><g class="text"/></g><g class="trace scatter tracebb4323" style="stroke-miterlimit: 2; opacity: 1;"><g class="fills"/><g class="errorbars"/><g class="lines"><path class="js-line" d="M0,278.65L2.7,280.6L3.38,280.6L4.06,280.6L4.73,278.65L5.41,279.14L6.08,281.58L12.17,282.07L12.84,283.54L14.87,284.52L15.54,284.52L29.06,283.54L29.74,290.87L37.85,290.87L39.2,287.94L39.88,294.3L41.23,294.3L45.96,294.79L46.63,295.76L47.31,295.76L47.99,301.14L48.66,301.14L49.34,298.21L50.01,295.28L50.69,303.59L56.77,303.59L57.45,299.68L58.12,299.68L58.8,303.59L59.48,299.68L60.15,303.1L60.83,303.1L61.5,303.1L62.18,299.19L63.53,303.1L64.21,303.1L64.88,303.1L65.56,299.19L66.23,299.19L66.91,303.1L68.26,299.19L68.94,299.68L70.29,296.25L70.97,296.25L71.64,296.74L72.32,301.63L73.67,304.08L74.34,304.08L77.72,308.48L78.4,308.48L79.75,309.46L80.43,311.41L83.13,314.84L83.81,314.84L109.49,314.84L110.17,324.13L112.19,325.11" style="vector-effect: none; fill: none; stroke: rgb(238, 58, 67); stroke-opacity: 1; stroke-width: 5px; opacity: 1;"/></g><g class="points"/><g class="text"/></g><g class="trace scatter tracee5ba6c" style="stroke-miterlimit: 2; opacity: 1;"><g class="fills"/><g class="errorbars"/><g class="lines"><path class="js-line" d="M0,295.76L3.38,297.23L4.06,297.23L6.76,296.25L7.43,296.25L15.54,296.74L16.22,297.72L25.01,297.72L25.68,301.63L29.06,301.63L29.74,305.55L37.85,305.55L39.2,299.68L39.88,312.39L41.23,312.39L47.31,312.88L47.99,316.31L50.01,316.31L50.69,318.26L68.26,317.28L68.94,318.75L70.97,317.77L71.64,317.77L75.02,318.75L75.7,319.73L79.75,321.69L80.43,323.64L99.35,323.64" style="vector-effect: none; fill: none; stroke: rgb(255, 192, 203); stroke-opacity: 1; stroke-width: 5px; opacity: 1;"/></g><g class="points"/><g class="text"/></g></g></g><g class="overplot"/><path class="xlines-above crisp" d="M0,0" style="fill: none;"/><path class="ylines-above crisp" d="M0,0" style="fill: none;"/><g class="overlines-above"/><g class="xaxislayer-above"><g class="xtick"><text text-anchor="start" x="0" y="363" transform="translate(56.76,0) rotate(30,0,357)" style="font-family: 'Open Sans', verdana, arial, sans-serif; font-size: 12px; fill: rgb(42, 63, 95); fill-opacity: 1; white-space: pre; opacity: 1;">1.7.23</text></g><g class="xtick"><text text-anchor="start" x="0" y="363" style="font-family: 'Open Sans', verdana, arial, sans-serif; font-size: 12px; fill: rgb(42, 63, 95); fill-opacity: 1; white-space: pre; opacity: 1;" transform="translate(98.66,0) rotate(30,0,357)">1.9.23</text></g><g class="xtick"><text text-anchor="start" x="0" y="363" style="font-family: 'Open Sans', verdana, arial, sans-serif; font-size: 12px; fill: rgb(42, 63, 95); fill-opacity: 1; white-space: pre; opacity: 1;" transform="translate(139.89,0) rotate(30,0,357)">1.11.23</text></g><g class="xtick"><text text-anchor="start" x="0" y="363" style="font-family: 'Open Sans', verdana, arial, sans-serif; font-size: 12px; fill: rgb(42, 63, 95); fill-opacity: 1; white-space: pre; opacity: 1;" transform="translate(181.12,0) rotate(30,0,357)">1.1.24</text></g><g class="xtick"><text text-anchor="start" x="0" y="363" style="font-family: 'Open Sans', verdana, arial, sans-serif; font-size: 12px; fill: rgb(42, 63, 95); fill-opacity: 1; white-space: pre; opacity: 1;" transform="translate(221.67,0) rotate(30,0,357)">1.3.24</text></g></g><g class="yaxislayer-above"><g class="ytick"><text text-anchor="end" x="49" y="4.199999999999999" transform="translate(0,350)" style="font-family: 'Open Sans', verdana, arial, sans-serif; font-size: 12px; fill: rgb(42, 63, 95); fill-opacity: 1; white-space: pre; opacity: 1;">0%</text></g><g class="ytick"><text text-anchor="end" x="49" y="4.199999999999999" style="font-family: 'Open Sans', verdana, arial, sans-serif; font-size: 12px; fill: rgb(42, 63, 95); fill-opacity: 1; white-space: pre; opacity: 1;" transform="translate(0,301.09)">10%</text></g><g class="ytick"><text text-anchor="end" x="49" y="4.199999999999999" style="font-family: 'Open Sans', verdana, arial, sans-serif; font-size: 12px; fill: rgb(42, 63, 95); fill-opacity: 1; white-space: pre; opacity: 1;" transform="translate(0,252.18)">20%</text></g><g class="ytick"><text text-anchor="end" x="49" y="4.199999999999999" style="font-family: 'Open Sans', verdana, arial, sans-serif; font-size: 12px; fill: rgb(42, 63, 95); fill-opacity: 1; white-space: pre; opacity: 1;" transform="translate(0,203.28)">30%</text></g><g class="ytick"><text text-anchor="end" x="49" y="4.199999999999999" style="font-family: 'Open Sans', verdana, arial, sans-serif; font-size: 12px; fill: rgb(42, 63, 95); fill-opacity: 1; white-space: pre; opacity: 1;" transform="translate(0,154.37)">40%</text></g><g class="ytick"><text text-anchor="end" x="49" y="4.199999999999999" style="font-family: 'Open Sans', verdana, arial, sans-serif; font-size: 12px; fill: rgb(42, 63, 95); fill-opacity: 1; white-space: pre; opacity: 1;" transform="translate(0,105.46)">50%</text></g><g class="ytick"><text text-anchor="end" x="49" y="4.199999999999999" style="font-family: 'Open Sans', verdana, arial, sans-serif; font-size: 12px; fill: rgb(42, 63, 95); fill-opacity: 1; white-space: pre; opacity: 1;" transform="translate(0,56.55)">60%</text></g></g><g class="overaxes-above"/></g></g><g class="polarlayer"/><g class="smithlayer"/><g class="ternarylayer"/><g class="geolayer"/><g class="funnelarealayer"/><g class="pielayer"/><g class="iciclelayer"/><g class="treemaplayer"/><g class="sunburstlayer"/><g class="glimages"/><defs id="topdefs-770bfb"><g class="clips"/><clipPath id="legend770bfb"><rect width="138" height="124" x="0" y="0"/></clipPath></defs><g class="layer-above"><g class="imagelayer"/><g class="shapelayer"/></g><g class="infolayer"><g class="legend" pointer-events="all" transform="translate(249.92000000000002,20)"><rect class="bg" shape-rendering="crispEdges" width="138" height="124" x="0" y="0" style="stroke: rgb(68, 68, 68); stroke-opacity: 1; fill: rgb(255, 255, 255); fill-opacity: 1; stroke-width: 0px;"/><g class="scrollbox" transform="" clip-path="url(#legend770bfb)"><g class="groups"><g class="traces" transform="translate(0,14.5)" style="opacity: 1;"><text class="legendtext" text-anchor="start" x="40" y="4.680000000000001" style="font-family: 'Open Sans', verdana, arial, sans-serif; font-size: 12px; fill: rgb(42, 63, 95); fill-opacity: 1; white-space: pre;">Pellegrini Peter</text><g class="layers" style="opacity: 1;"><g class="legendfill"/><g class="legendlines"><path class="js-line" d="M5,0h30" style="fill: none; stroke: rgb(138, 44, 81); stroke-opacity: 1; stroke-width: 5px;"/></g><g class="legendsymbols"><g class="legendpoints"/></g></g><rect class="legendtoggle" x="0" y="-9.5" width="132.375" height="19" style="fill: rgb(0, 0, 0); fill-opacity: 0;"/></g><g class="traces" transform="translate(0,33.5)" style="opacity: 1;"><text class="legendtext" text-anchor="start" x="40" y="4.680000000000001" style="font-family: 'Open Sans', verdana, arial, sans-serif; font-size: 12px; fill: rgb(42, 63, 95); fill-opacity: 1; white-space: pre;">Korčok Ivan</text><g class="layers" style="opacity: 1;"><g class="legendfill"/><g class="legendlines"><path class="js-line" d="M5,0h30" style="fill: none; stroke: rgb(0, 174, 239); stroke-opacity: 1; stroke-width: 5px;"/></g><g class="legendsymbols"><g class="legendpoints"/></g></g><rect class="legendtoggle" x="0" y="-9.5" width="132.375" height="19" style="fill: rgb(0, 0, 0); fill-opacity: 0;"/></g><g class="traces" transform="translate(0,52.5)" style="opacity: 1;"><text class="legendtext" text-anchor="start" x="40" y="4.680000000000001" style="font-family: 'Open Sans', verdana, arial, sans-serif; font-size: 12px; fill: rgb(42, 63, 95); fill-opacity: 1; white-space: pre;">Kubiš Ján</text><g class="layers" style="opacity: 1;"><g class="legendfill"/><g class="legendlines"><path class="js-line" d="M5,0h30" style="fill: none; stroke: rgb(255, 1, 170); stroke-opacity: 1; stroke-width: 5px;"/></g><g class="legendsymbols"><g class="legendpoints"/></g></g><rect class="legendtoggle" x="0" y="-9.5" width="132.375" height="19" style="fill: rgb(0, 0, 0); fill-opacity: 0;"/></g><g class="traces" transform="translate(0,71.5)" style="opacity: 1;"><text class="legendtext" text-anchor="start" x="40" y="4.680000000000001" style="font-family: 'Open Sans', verdana, arial, sans-serif; font-size: 12px; fill: rgb(42, 63, 95); fill-opacity: 1; white-space: pre;">Mistrík Robert</text><g class="layers" style="opacity: 1;"><g class="legendfill"/><g class="legendlines"><path class="js-line" d="M5,0h30" style="fill: none; stroke: rgb(202, 166, 105); stroke-opacity: 1; stroke-width: 5px;"/></g><g class="legendsymbols"><g class="legendpoints"/></g></g><rect class="legendtoggle" x="0" y="-9.5" width="132.375" height="19" style="fill: rgb(0, 0, 0); fill-opacity: 0;"/></g><g class="traces" transform="translate(0,90.5)" style="opacity: 1;"><text class="legendtext" text-anchor="start" x="40" y="4.680000000000001" style="font-family: 'Open Sans', verdana, arial, sans-serif; font-size: 12px; fill: rgb(42, 63, 95); fill-opacity: 1; white-space: pre;">Fico Robert</text><g class="layers" style="opacity: 1;"><g class="legendfill"/><g class="legendlines"><path class="js-line" d="M5,0h30" style="fill: none; stroke: rgb(238, 58, 67); stroke-opacity: 1; stroke-width: 5px;"/></g><g class="legendsymbols"><g class="legendpoints"/></g></g><rect class="legendtoggle" x="0" y="-9.5" width="132.375" height="19" style="fill: rgb(0, 0, 0); fill-opacity: 0;"/></g><g class="traces" transform="translate(0,109.5)" style="opacity: 1;"><text class="legendtext" text-anchor="start" x="40" y="4.680000000000001" style="font-family: 'Open Sans', verdana, arial, sans-serif; font-size: 12px; fill: rgb(42, 63, 95); fill-opacity: 1; white-space: pre;">Lajčák Miroslav</text><g class="layers" style="opacity: 1;"><g class="legendfill"/><g class="legendlines"><path class="js-line" d="M5,0h30" style="fill: none; stroke: rgb(255, 192, 203); stroke-opacity: 1; stroke-width: 5px;"/></g><g class="legendsymbols"><g class="legendpoints"/></g></g><rect class="legendtoggle" x="0" y="-9.5" width="132.375" height="19" style="fill: rgb(0, 0, 0); fill-opacity: 0;"/></g></g></g><rect class="scrollbar" rx="20" ry="3" width="0" height="0" x="0" y="0" style="fill: rgb(128, 139, 164); fill-opacity: 1;"/></g><g class="g-gtitle"/><g class="g-xtitle"/><g class="g-ytitle"/></g></svg>