<svg class="main-svg" xmlns="http://www.w3.org/2000/svg" xmlns:xlink="http://www.w3.org/1999/xlink" width="300" height="135" style="" viewBox="0 0 300 135"><rect x="0" y="0" width="300" height="135" style="fill: rgb(255, 255, 255); fill-opacity: 1;"/><defs id="defs-413fff"><g class="clips"><clipPath id="clip413fffxyplot" class="plotclip"><rect width="280" height="75"/></clipPath><clipPath class="axesclip" id="clip413fffx"><rect x="10" y="0" width="280" height="135"/></clipPath><clipPath class="axesclip" id="clip413fffy"><rect x="0" y="50" width="300" height="75"/></clipPath><clipPath class="axesclip" id="clip413fffxy"><rect x="10" y="50" width="280" height="75"/></clipPath></g><g class="gradients"/><g class="patterns"/></defs><g class="bglayer"/><g class="layer-below"><g class="imagelayer"/><g class="shapelayer"/></g><g class="cartesianlayer"><g class="subplot xy"><g class="layer-subplot"><g class="shapelayer"/><g class="imagelayer"/></g><g class="minor-gridlayer"><g class="x"/><g class="y"/></g><g class="gridlayer"><g class="x"><path class="xgrid crisp" transform="translate(21.07,0)" d="M0,50v75" style="stroke: rgb(235, 240, 248); stroke-opacity: 1; stroke-width: 1px;"/><path class="xgrid crisp" transform="translate(89.68,0)" d="M0,50v75" style="stroke: rgb(235, 240, 248); stroke-opacity: 1; stroke-width: 1px;"/><path class="xgrid crisp" transform="translate(157.19,0)" d="M0,50v75" style="stroke: rgb(235, 240, 248); stroke-opacity: 1; stroke-width: 1px;"/><path class="xgrid crisp" transform="translate(224.7,0)" d="M0,50v75" style="stroke: rgb(235, 240, 248); stroke-opacity: 1; stroke-width: 1px;"/></g><g class="y"><path class="ygrid crisp" transform="translate(0,102.77000000000001)" d="M10,0h280" style="stroke: rgb(235, 240, 248); stroke-opacity: 1; stroke-width: 1px;"/><path class="ygrid crisp" transform="translate(0,80.53999999999999)" d="M10,0h280" style="stroke: rgb(235, 240, 248); stroke-opacity: 1; stroke-width: 1px;"/><path class="ygrid crisp" transform="translate(0,58.31)" d="M10,0h280" style="stroke: rgb(235, 240, 248); stroke-opacity: 1; stroke-width: 1px;"/></g></g><g class="zerolinelayer"><path class="yzl zl crisp" transform="translate(0,125)" d="M10,0h280" style="stroke: rgb(235, 240, 248); stroke-opacity: 1; stroke-width: 2px;"/></g><path class="xlines-below"/><path class="ylines-below"/><g class="overlines-below"/><g class="xaxislayer-below"/><g class="yaxislayer-below"/><g class="overaxes-below"/><g class="plot" transform="translate(10,50)" clip-path="url(#clip413fffxyplot)"><g class="scatterlayer mlayer"><g class="trace scatter traced0b597" style="stroke-miterlimit: 2; opacity: 1;"><g class="fills"/><g class="errorbars"/><g class="lines"><path class="js-line" d="M260.08,21.65L280,21.42" style="vector-effect: none; fill: none; stroke: rgb(187, 187, 187); stroke-opacity: 1; stroke-width: 5px; opacity: 1;"/></g><g class="points"/><g class="text"/></g><g class="trace scatter trace2547c8" style="stroke-miterlimit: 2; opacity: 1;"><g class="fills"/><g class="errorbars"/><g class="lines"><path class="js-line" d="M0,51.77L3.32,48.88L4.43,48.88L8.85,49.1L9.96,48.32L25.45,47.43L26.56,46.77L47.59,45.99L48.7,41.32L61.98,41.32L64.19,44.54L67.51,43.88L68.62,43.88L76.36,43.65L77.47,46.1L79.68,47.32L80.79,46.88L81.9,46.43L83,47.43L111.78,46.77L112.89,44.54L115.1,45.43L116.21,45.43L117.31,45.21L118.42,41.54L120.63,39.32L121.74,39.32L122.85,38.76L123.95,35.1L126.17,32.98L127.27,32.98L130.59,32.32L131.7,31.32L135.02,28.87L136.13,28.87L144.98,29.2L146.09,30.32L154.94,30.32L156.05,28.76L157.15,28.76L158.26,26.09L162.69,26.09L163.79,23.09L170.43,23.09L171.54,21.31L178.18,18.42L179.29,18.42L181.5,14.64L182.61,14.64L183.72,12.75L184.82,8.2L194.78,8.2L195.89,9.86L198.1,10.64L199.21,10.64L201.42,12.86L202.53,13.53L208.06,12.31L209.17,12.31L215.81,12.42L216.92,8.75L219.13,5.08L220.24,4.97L223.56,5.86L224.66,3.75L227.98,4.75L229.09,5.64L231.3,6.75L232.41,10.53L233.52,11.86L234.62,10.53L236.84,10.64L237.94,8.86L240.16,8.97L241.26,9.09L243.48,8.64L244.58,7.75L247.91,4.64L249.01,4.64L252.33,6.64L253.44,5.75L255.65,6.42L256.76,8.64L258.97,14.87L260.08,43.65L271.15,43.88L272.25,42.21L276.68,38.99L277.79,39.1L280,38.76" style="vector-effect: none; fill: none; stroke: rgb(138, 44, 81); stroke-opacity: 1; stroke-width: 5px; opacity: 1;"/></g><g class="points"/><g class="text"/></g><g class="trace scatter tracebb363a" style="stroke-miterlimit: 2; opacity: 1;"><g class="fills"/><g class="errorbars"/><g class="lines"><path class="js-line" d="M0,26.54L4.43,28.09L5.53,28.09L8.85,27.87L9.96,27.2L64.19,28.2L65.3,31.32L76.36,30.32L77.47,27.76L79.68,23.98L80.79,24.98L81.9,25.98L83,22.65L92.96,22.65L94.07,24.31L95.18,24.31L96.28,22.65L97.39,24.31L98.5,22.31L100.71,21.87L101.82,23.98L104.03,21.87L105.14,21.87L106.25,21.87L107.35,23.98L108.46,23.98L109.57,21.87L111.78,23.98L112.89,21.98L115.1,24.54L116.21,24.54L122.85,25.76L123.95,27.65L127.27,28.43L128.38,28.43L142.77,29.2L143.87,29.87L170.43,30.87L171.54,32.65L179.29,34.98L180.4,32.87L183.72,33.98L184.82,35.43L194.78,35.43L195.89,33.87L198.1,32.98L199.21,32.98L200.32,32.54L201.42,29.98L203.64,29.43L204.74,29.76L215.81,29.2L216.92,32.09L219.13,35.43L220.24,35.54L222.45,33.76L223.56,32.98L225.77,35.1L226.88,34.54L231.3,32.09L232.41,28.32L233.52,26.98L234.62,28.32L236.84,28.2L237.94,29.98L240.16,29.87L241.26,29.76L243.48,30.2L244.58,31.09L247.91,34.21L249.01,34.21L252.33,32.21L253.44,33.09L255.65,32.43L256.76,30.2L258.97,23.98L260.08,48.66L271.15,48.43L272.25,50.21L276.68,53.21L277.79,53.21L280,53.55" style="vector-effect: none; fill: none; stroke: rgb(0, 174, 239); stroke-opacity: 1; stroke-width: 5px; opacity: 1;"/></g><g class="points"/><g class="text"/></g><g class="trace scatter tracede7c35" style="stroke-miterlimit: 2; opacity: 1;"><g class="fills"/><g class="errorbars"/><g class="lines"><path class="js-line" d="M0,67.22L12.17,67.33L13.28,67.33L47.59,68.55L48.7,69.44L61.98,69.44L64.19,68.11L65.3,71L67.51,71L81.9,71.89L83,72.33L130.59,73.11L131.7,73.55L162.69,73.55" style="vector-effect: none; fill: none; stroke: rgb(255, 192, 203); stroke-opacity: 1; stroke-width: 5px; opacity: 1;"/></g><g class="points"/><g class="text"/></g><g class="trace scatter tracec6343b" style="stroke-miterlimit: 2; opacity: 1;"><g class="fills"/><g class="errorbars"/><g class="lines"><path class="js-line" d="M0,63.33L6.64,63.77L7.75,63.33L28.77,64.66L29.88,64.66L47.59,64.44L48.7,66.11L64.19,65.44L65.3,66.89L77.47,67.22L78.58,68.44L80.79,67.77L81.9,67.11L84.11,69L85.22,69L112.89,68.11L113.99,67.33L118.42,68.55L119.53,69.11L130.59,70.33L131.7,70.78L139.45,71.55L140.55,71.55L179.29,71.55L180.4,73.67L183.72,73.89" style="vector-effect: none; fill: none; stroke: rgb(238, 58, 67); stroke-opacity: 1; stroke-width: 5px; opacity: 1;"/></g><g class="points"/><g class="text"/></g></g></g><g class="overplot"/><path class="xlines-above crisp" d="M0,0" style="fill: none;"/><path class="ylines-above crisp" d="M0,0" style="fill: none;"/><g class="overlines-above"/><g class="xaxislayer-above"/><g class="yaxislayer-above"/><g class="overaxes-above"/></g></g><g class="polarlayer"/><g class="smithlayer"/><g class="ternarylayer"/><g class="geolayer"/><g class="funnelarealayer"/><g class="pielayer"/><g class="iciclelayer"/><g class="treemaplayer"/><g class="sunburstlayer"/><g class="glimages"/><defs id="topdefs-413fff"><g class="clips"/></defs><g class="layer-above"><g class="imagelayer"/><g class="shapelayer"/></g><g class="infolayer"><g class="g-gtitle"><text class="gtitle" x="15" y="25" text-anchor="start" dy="0em" style="font-family: Ubuntu, verdana, arial, sans-serif; font-size: 16px; fill: rgb(233, 84, 32); opacity: 1; font-weight: normal; white-space: pre;">Prezident/ka 2024</text></g><g class="g-xtitle"/><g class="g-ytitle"/></g></svg>