<svg class="main-svg" xmlns="http://www.w3.org/2000/svg" xmlns:xlink="http://www.w3.org/1999/xlink" width="300" height="135" style="" viewBox="0 0 300 135"><rect x="0" y="0" width="300" height="135" style="fill: rgb(255, 255, 255); fill-opacity: 1;"/><defs id="defs-a59f80"><g class="clips"><clipPath id="clipa59f80xyplot" class="plotclip"><rect width="280" height="75"/></clipPath><clipPath class="axesclip" id="clipa59f80x"><rect x="10" y="0" width="280" height="135"/></clipPath><clipPath class="axesclip" id="clipa59f80y"><rect x="0" y="50" width="300" height="75"/></clipPath><clipPath class="axesclip" id="clipa59f80xy"><rect x="10" y="50" width="280" height="75"/></clipPath></g><g class="gradients"/><g class="patterns"/></defs><g class="bglayer"/><g class="layer-below"><g class="imagelayer"/><g class="shapelayer"/></g><g class="cartesianlayer"><g class="subplot xy"><g class="layer-subplot"><g class="shapelayer"/><g class="imagelayer"/></g><g class="minor-gridlayer"><g class="x"/><g class="y"/></g><g class="gridlayer"><g class="x"><path class="xgrid crisp" transform="translate(21.91,0)" d="M0,50v75" style="stroke: rgb(235, 240, 248); stroke-opacity: 1; stroke-width: 1px;"/><path class="xgrid crisp" transform="translate(95.79,0)" d="M0,50v75" style="stroke: rgb(235, 240, 248); stroke-opacity: 1; stroke-width: 1px;"/><path class="xgrid crisp" transform="translate(168.47,0)" d="M0,50v75" style="stroke: rgb(235, 240, 248); stroke-opacity: 1; stroke-width: 1px;"/><path class="xgrid crisp" transform="translate(241.15,0)" d="M0,50v75" style="stroke: rgb(235, 240, 248); stroke-opacity: 1; stroke-width: 1px;"/></g><g class="y"><path class="ygrid crisp" transform="translate(0,102.77000000000001)" d="M10,0h280" style="stroke: rgb(235, 240, 248); stroke-opacity: 1; stroke-width: 1px;"/><path class="ygrid crisp" transform="translate(0,80.53999999999999)" d="M10,0h280" style="stroke: rgb(235, 240, 248); stroke-opacity: 1; stroke-width: 1px;"/><path class="ygrid crisp" transform="translate(0,58.31)" d="M10,0h280" style="stroke: rgb(235, 240, 248); stroke-opacity: 1; stroke-width: 1px;"/></g></g><g class="zerolinelayer"><path class="yzl zl crisp" transform="translate(0,125)" d="M10,0h280" style="stroke: rgb(235, 240, 248); stroke-opacity: 1; stroke-width: 2px;"/></g><path class="xlines-below"/><path class="ylines-below"/><g class="overlines-below"/><g class="xaxislayer-below"/><g class="yaxislayer-below"/><g class="overaxes-below"/><g class="plot" transform="translate(10,50)" clip-path="url(#clipa59f80xyplot)"><g class="scatterlayer mlayer"><g class="trace scatter tracefa82b9" style="stroke-miterlimit: 2; opacity: 1;"><g class="fills"/><g class="errorbars"/><g class="lines"><path class="js-line" d="M0,51.77L3.57,48.88L4.77,48.88L9.53,49.1L10.72,48.32L27.4,47.43L28.6,46.77L51.23,45.99L52.43,41.32L66.72,41.32L69.11,44.54L72.68,43.88L73.87,43.88L82.21,43.65L83.4,46.1L85.79,47.32L86.98,46.88L88.17,46.43L89.36,47.43L120.34,46.77L121.53,44.54L123.91,45.43L125.11,45.43L126.3,45.21L127.49,41.54L129.87,39.32L131.06,39.32L132.26,38.76L133.45,35.1L135.83,32.98L137.02,32.98L140.6,32.32L141.79,31.32L145.36,28.87L146.55,28.87L156.09,29.2L157.28,30.32L166.81,30.32L168,28.76L169.19,28.76L170.38,26.09L175.15,26.09L176.34,23.09L183.49,23.09L184.68,21.31L191.83,18.42L193.02,18.42L195.4,14.64L196.6,14.64L197.79,12.75L198.98,8.2L209.7,8.2L210.89,9.86L213.28,10.64L214.47,10.64L216.85,12.86L218.04,13.53L224,12.31L225.19,12.31L232.34,12.42L233.53,8.75L235.91,5.08L237.11,4.97L240.68,5.86L241.87,3.75L245.45,4.75L246.64,5.64L249.02,6.75L250.21,10.53L251.4,11.86L252.6,10.53L254.98,10.64L256.17,8.86L258.55,8.97L259.74,9.09L262.13,8.64L263.32,7.75L266.89,4.64L268.09,4.64L271.66,6.64L272.85,5.75L275.23,6.42L276.43,8.64L278.81,14.87L280,14.75" style="vector-effect: none; fill: none; stroke: rgb(138, 44, 81); stroke-opacity: 1; stroke-width: 5px; opacity: 1;"/></g><g class="points"/><g class="text"/></g><g class="trace scatter trace1477cd" style="stroke-miterlimit: 2; opacity: 1;"><g class="fills"/><g class="errorbars"/><g class="lines"><path class="js-line" d="M0,26.54L4.77,28.09L5.96,28.09L9.53,27.87L10.72,27.2L69.11,28.2L70.3,31.32L82.21,30.32L83.4,27.76L85.79,23.98L86.98,24.98L88.17,25.98L89.36,22.65L100.09,22.65L101.28,24.31L102.47,24.31L103.66,22.65L104.85,24.31L106.04,22.31L108.43,21.87L109.62,23.98L112,21.87L113.19,21.87L114.38,21.87L115.57,23.98L116.77,23.98L117.96,21.87L120.34,23.98L121.53,21.98L123.91,24.54L125.11,24.54L132.26,25.76L133.45,27.65L137.02,28.43L138.21,28.43L153.7,29.2L154.89,29.87L183.49,30.87L184.68,32.65L193.02,34.98L194.21,32.87L197.79,33.98L198.98,35.43L209.7,35.43L210.89,33.87L213.28,32.98L214.47,32.98L215.66,32.54L216.85,29.98L219.23,29.43L220.43,29.76L232.34,29.2L233.53,32.09L235.91,35.43L237.11,35.54L239.49,33.76L240.68,32.98L243.06,35.1L244.26,34.54L249.02,32.09L250.21,28.32L251.4,26.98L252.6,28.32L254.98,28.2L256.17,29.98L258.55,29.87L259.74,29.76L262.13,30.2L263.32,31.09L266.89,34.21L268.09,34.21L271.66,32.21L272.85,33.09L275.23,32.43L276.43,30.2L278.81,23.98L280,24.09" style="vector-effect: none; fill: none; stroke: rgb(0, 174, 239); stroke-opacity: 1; stroke-width: 5px; opacity: 1;"/></g><g class="points"/><g class="text"/></g><g class="trace scatter trace80751c" style="stroke-miterlimit: 2; opacity: 1;"><g class="fills"/><g class="errorbars"/><g class="lines"><path class="js-line" d="M0,63.33L7.15,63.77L8.34,63.33L30.98,64.66L32.17,64.66L51.23,64.44L52.43,66.11L69.11,65.44L70.3,66.89L83.4,67.22L84.6,68.44L86.98,67.77L88.17,67.11L90.55,69L91.74,69L121.53,68.11L122.72,67.33L127.49,68.55L128.68,69.11L140.6,70.33L141.79,70.78L150.13,71.55L151.32,71.55L193.02,71.55L194.21,73.67L197.79,73.89" style="vector-effect: none; fill: none; stroke: rgb(238, 58, 67); stroke-opacity: 1; stroke-width: 5px; opacity: 1;"/></g><g class="points"/><g class="text"/></g><g class="trace scatter tracea67d81" style="stroke-miterlimit: 2; opacity: 1;"><g class="fills"/><g class="errorbars"/><g class="lines"><path class="js-line" d="M0,63.77L8.34,64.88L9.53,64.22L13.11,63.55L14.3,63.55L51.23,63.77L52.43,65.11L69.11,64.22L70.3,56.99L83.4,57.66L84.6,58.33L106.04,58.66L107.23,59.1L120.34,58.33L121.53,61.55L123.91,59.33L125.11,59.33L126.3,59.44L127.49,61.11L129.87,62.44L131.06,62.44L132.26,62.11L133.45,63.22L140.6,63.33L141.79,63.22L150.13,63.88L151.32,63.88L153.7,63.44L154.89,62.44L156.09,62.44L157.28,60.88L166.81,60.88L168,62.33L173.96,64.33L175.15,64.33L177.53,65.22L178.72,65.22L193.02,65.55L194.21,69L215.66,70.11L216.85,71.11L232.34,72.22L233.53,73L239.49,73.55" style="vector-effect: none; fill: none; stroke: rgb(255, 1, 170); stroke-opacity: 1; stroke-width: 5px; opacity: 1;"/></g><g class="points"/><g class="text"/></g><g class="trace scatter trace0e43a8" style="stroke-miterlimit: 2; opacity: 1;"><g class="fills"/><g class="errorbars"/><g class="lines"><path class="js-line" d="M0,66.22L7.15,66.44L8.34,64.88L10.72,68.33L11.91,68.33L85.79,68.89L86.98,69.33L89.36,69L90.55,69L127.49,70.11L128.68,70.33L141.79,71.55L142.98,71.78L147.74,72.11L148.94,72.11L193.02,73.33L194.21,73.67L197.79,73.89" style="vector-effect: none; fill: none; stroke: rgb(202, 166, 105); stroke-opacity: 1; stroke-width: 5px; opacity: 1;"/></g><g class="points"/><g class="text"/></g></g></g><g class="overplot"/><path class="xlines-above crisp" d="M0,0" style="fill: none;"/><path class="ylines-above crisp" d="M0,0" style="fill: none;"/><g class="overlines-above"/><g class="xaxislayer-above"/><g class="yaxislayer-above"/><g class="overaxes-above"/></g></g><g class="polarlayer"/><g class="smithlayer"/><g class="ternarylayer"/><g class="geolayer"/><g class="funnelarealayer"/><g class="pielayer"/><g class="iciclelayer"/><g class="treemaplayer"/><g class="sunburstlayer"/><g class="glimages"/><defs id="topdefs-a59f80"><g class="clips"/></defs><g class="layer-above"><g class="imagelayer"/><g class="shapelayer"/></g><g class="infolayer"><g class="g-gtitle"><text class="gtitle" x="15" y="25" text-anchor="start" dy="0em" style="font-family: Ubuntu, verdana, arial, sans-serif; font-size: 16px; fill: rgb(233, 84, 32); opacity: 1; font-weight: normal; white-space: pre;">Prezident/ka 2024</text></g><g class="g-xtitle"/><g class="g-ytitle"/></g></svg>