<svg class="main-svg" xmlns="http://www.w3.org/2000/svg" xmlns:xlink="http://www.w3.org/1999/xlink" width="300" height="135" style="" viewBox="0 0 300 135"><rect x="0" y="0" width="300" height="135" style="fill: rgb(255, 255, 255); fill-opacity: 1;"/><defs id="defs-1f3edc"><g class="clips"><clipPath id="clip1f3edcxyplot" class="plotclip"><rect width="280" height="75"/></clipPath><clipPath class="axesclip" id="clip1f3edcx"><rect x="10" y="0" width="280" height="135"/></clipPath><clipPath class="axesclip" id="clip1f3edcy"><rect x="0" y="50" width="300" height="75"/></clipPath><clipPath class="axesclip" id="clip1f3edcxy"><rect x="10" y="50" width="280" height="75"/></clipPath></g><g class="gradients"/><g class="patterns"/></defs><g class="bglayer"/><g class="layer-below"><g class="imagelayer"/><g class="shapelayer"/></g><g class="cartesianlayer"><g class="subplot xy"><g class="layer-subplot"><g class="shapelayer"/><g class="imagelayer"/></g><g class="minor-gridlayer"><g class="x"/><g class="y"/></g><g class="gridlayer"><g class="x"><path class="xgrid crisp" transform="translate(24.07,0)" d="M0,50v75" style="stroke: rgb(235, 240, 248); stroke-opacity: 1; stroke-width: 1px;"/><path class="xgrid crisp" transform="translate(111.31,0)" d="M0,50v75" style="stroke: rgb(235, 240, 248); stroke-opacity: 1; stroke-width: 1px;"/><path class="xgrid crisp" transform="translate(197.14,0)" d="M0,50v75" style="stroke: rgb(235, 240, 248); stroke-opacity: 1; stroke-width: 1px;"/><path class="xgrid crisp" transform="translate(282.96,0)" d="M0,50v75" style="stroke: rgb(235, 240, 248); stroke-opacity: 1; stroke-width: 1px;"/></g><g class="y"><path class="ygrid crisp" transform="translate(0,102.59)" d="M10,0h280" style="stroke: rgb(235, 240, 248); stroke-opacity: 1; stroke-width: 1px;"/><path class="ygrid crisp" transform="translate(0,80.19)" d="M10,0h280" style="stroke: rgb(235, 240, 248); stroke-opacity: 1; stroke-width: 1px;"/><path class="ygrid crisp" transform="translate(0,57.78)" d="M10,0h280" style="stroke: rgb(235, 240, 248); stroke-opacity: 1; stroke-width: 1px;"/></g></g><g class="zerolinelayer"><path class="yzl zl crisp" transform="translate(0,125)" d="M10,0h280" style="stroke: rgb(235, 240, 248); stroke-opacity: 1; stroke-width: 2px;"/></g><path class="xlines-below"/><path class="ylines-below"/><g class="overlines-below"/><g class="xaxislayer-below"/><g class="yaxislayer-below"/><g class="overaxes-below"/><g class="plot" transform="translate(10,50)" clip-path="url(#clip1f3edcxyplot)"><g class="scatterlayer mlayer"><g class="trace scatter tracef5afa9" style="stroke-miterlimit: 2; opacity: 1;"><g class="fills"/><g class="errorbars"/><g class="lines"><path class="js-line" d="M0,51.59L4.22,48.67L5.63,48.67L11.26,48.9L12.66,48.11L32.36,47.22L33.77,46.54L60.5,45.76L61.91,41.06L78.79,41.06L81.61,44.3L85.83,43.63L87.24,43.63L97.09,43.41L98.49,45.87L101.31,47.1L102.71,46.66L104.12,46.21L105.53,47.22L142.11,46.54L143.52,44.3L146.33,45.2L147.74,45.2L149.15,44.98L150.55,41.28L153.37,39.04L154.77,39.04L156.18,38.48L157.59,34.78L160.4,32.65L161.81,32.65L166.03,31.98L167.44,30.97L171.66,28.51L173.07,28.51L184.32,28.84L185.73,29.96L196.98,29.96L198.39,28.4L199.8,28.4L201.21,25.71L206.83,25.71L208.24,22.68L216.68,22.68L218.09,20.89L226.53,17.98L227.94,17.98L229.35,14.17L230.75,14.17L232.16,14.17L233.57,12.26L234.97,7.67L236.38,7.67L247.64,7.67L249.05,9.35L251.86,10.14L253.27,10.14L254.67,10.58L256.08,12.38L258.89,12.6L260.3,11.82L274.37,11.93L275.78,8.23L278.59,4.53L280,3.75" style="vector-effect: none; fill: none; stroke: rgb(138, 44, 81); stroke-opacity: 1; stroke-width: 5px; opacity: 1;"/></g><g class="points"/><g class="text"/></g><g class="trace scatter tracec49773" style="stroke-miterlimit: 2; opacity: 1;"><g class="fills"/><g class="errorbars"/><g class="lines"><path class="js-line" d="M0,26.16L5.63,27.72L7.04,27.72L11.26,27.5L12.66,26.83L81.61,27.84L83.02,30.97L97.09,29.96L98.49,27.39L99.9,23.58L101.31,23.58L104.12,25.6L105.53,22.23L118.19,22.23L119.6,23.92L121.01,23.92L122.41,22.23L123.82,23.92L125.23,21.9L128.04,21.45L129.45,23.58L132.26,21.45L133.67,21.45L135.08,21.45L136.48,23.58L137.89,23.58L139.3,21.45L142.11,23.58L143.52,21.56L146.33,24.14L147.74,24.14L156.18,25.37L157.59,27.28L161.81,28.06L163.22,28.06L181.51,28.84L182.91,29.52L216.68,30.52L218.09,32.32L227.94,34.67L229.35,32.54L233.57,33.66L234.97,35.12L247.64,35.12L249.05,33.55L251.86,32.65L253.27,32.65L254.67,32.21L256.08,29.63L258.89,29.07L260.3,29.4L274.37,28.84L275.78,31.76L278.59,35.12L280,35.79" style="vector-effect: none; fill: none; stroke: rgb(0, 174, 239); stroke-opacity: 1; stroke-width: 5px; opacity: 1;"/></g><g class="points"/><g class="text"/></g><g class="trace scatter trace158da5" style="stroke-miterlimit: 2; opacity: 1;"><g class="fills"/><g class="errorbars"/><g class="lines"><path class="js-line" d="M0,63.69L9.85,64.81L11.26,64.13L15.48,63.46L16.88,63.46L60.5,63.69L61.91,65.03L81.61,64.13L83.02,56.85L98.49,57.52L99.9,58.2L125.23,58.53L126.63,58.98L142.11,58.2L143.52,61.44L146.33,59.2L147.74,59.2L149.15,59.32L150.55,61L153.37,62.34L154.77,62.34L156.18,62L157.59,63.13L166.03,63.24L167.44,63.13L177.29,63.8L178.69,63.8L181.51,63.35L182.91,62.34L184.32,62.34L185.73,60.77L196.98,60.77L198.39,62.23L204.02,64.25L205.43,64.25L227.94,65.48L229.35,68.95L254.67,70.07L256.08,71.08L274.37,72.2L275.78,72.98L280,73.32" style="vector-effect: none; fill: none; stroke: rgb(255, 1, 170); stroke-opacity: 1; stroke-width: 5px; opacity: 1;"/></g><g class="points"/><g class="text"/></g><g class="trace scatter trace8f99c0" style="stroke-miterlimit: 2; opacity: 1;"><g class="fills"/><g class="errorbars"/><g class="lines"><path class="js-line" d="M0,67.16L15.48,67.27L16.88,67.27L60.5,68.5L61.91,69.4L78.79,69.4L81.61,68.05L83.02,70.97L85.83,70.97L104.12,71.86L105.53,72.31L166.03,73.1L167.44,73.54L206.83,73.54" style="vector-effect: none; fill: none; stroke: rgb(255, 192, 203); stroke-opacity: 1; stroke-width: 5px; opacity: 1;"/></g><g class="points"/><g class="text"/></g><g class="trace scatter traceedab19" style="stroke-miterlimit: 2; opacity: 1;"><g class="fills"/><g class="errorbars"/><g class="lines"><path class="js-line" d="M0,63.24L8.44,63.69L9.85,63.24L36.58,64.58L37.99,64.58L60.5,64.36L61.91,66.04L81.61,65.37L83.02,66.82L98.49,67.16L99.9,68.39L102.71,67.72L104.12,67.05L106.93,68.95L108.34,68.95L143.52,68.05L144.92,67.27L150.55,68.5L151.96,69.06L166.03,70.29L167.44,70.74L177.29,71.53L178.69,71.53L227.94,71.53L229.35,73.66L233.57,73.88" style="vector-effect: none; fill: none; stroke: rgb(238, 58, 67); stroke-opacity: 1; stroke-width: 5px; opacity: 1;"/></g><g class="points"/><g class="text"/></g></g></g><g class="overplot"/><path class="xlines-above crisp" d="M0,0" style="fill: none;"/><path class="ylines-above crisp" d="M0,0" style="fill: none;"/><g class="overlines-above"/><g class="xaxislayer-above"/><g class="yaxislayer-above"/><g class="overaxes-above"/></g></g><g class="polarlayer"/><g class="smithlayer"/><g class="ternarylayer"/><g class="geolayer"/><g class="funnelarealayer"/><g class="pielayer"/><g class="iciclelayer"/><g class="treemaplayer"/><g class="sunburstlayer"/><g class="glimages"/><defs id="topdefs-1f3edc"><g class="clips"/></defs><g class="layer-above"><g class="imagelayer"/><g class="shapelayer"/></g><g class="infolayer"><g class="g-gtitle"><text class="gtitle" x="15" y="25" text-anchor="start" dy="0em" style="font-family: Ubuntu, verdana, arial, sans-serif; font-size: 16px; fill: rgb(233, 84, 32); opacity: 1; font-weight: normal; white-space: pre;">Prezident/ka 2024</text></g><g class="g-xtitle"/><g class="g-ytitle"/></g></svg>