<svg class="main-svg" xmlns="http://www.w3.org/2000/svg" xmlns:xlink="http://www.w3.org/1999/xlink" width="300" height="135" style="" viewBox="0 0 300 135"><rect x="0" y="0" width="300" height="135" style="fill: rgb(255, 255, 255); fill-opacity: 1;"/><defs id="defs-fb2416"><g class="clips"><clipPath id="clipfb2416xyplot" class="plotclip"><rect width="280" height="75"/></clipPath><clipPath class="axesclip" id="clipfb2416x"><rect x="10" y="0" width="280" height="135"/></clipPath><clipPath class="axesclip" id="clipfb2416y"><rect x="0" y="50" width="300" height="75"/></clipPath><clipPath class="axesclip" id="clipfb2416xy"><rect x="10" y="50" width="280" height="75"/></clipPath></g><g class="gradients"/><g class="patterns"/></defs><g class="bglayer"/><g class="layer-below"><g class="imagelayer"/><g class="shapelayer"/></g><g class="cartesianlayer"><g class="subplot xy"><g class="layer-subplot"><g class="shapelayer"/><g class="imagelayer"/></g><g class="minor-gridlayer"><g class="x"/><g class="y"/></g><g class="gridlayer"><g class="x"><path class="xgrid crisp" transform="translate(20.29,0)" d="M0,50v75" style="stroke: rgb(235, 240, 248); stroke-opacity: 1; stroke-width: 1px;"/><path class="xgrid crisp" transform="translate(84.12,0)" d="M0,50v75" style="stroke: rgb(235, 240, 248); stroke-opacity: 1; stroke-width: 1px;"/><path class="xgrid crisp" transform="translate(146.91,0)" d="M0,50v75" style="stroke: rgb(235, 240, 248); stroke-opacity: 1; stroke-width: 1px;"/><path class="xgrid crisp" transform="translate(209.71,0)" d="M0,50v75" style="stroke: rgb(235, 240, 248); stroke-opacity: 1; stroke-width: 1px;"/><path class="xgrid crisp" transform="translate(271.47,0)" d="M0,50v75" style="stroke: rgb(235, 240, 248); stroke-opacity: 1; stroke-width: 1px;"/></g><g class="y"><path class="ygrid crisp" transform="translate(0,104.35)" d="M10,0h280" style="stroke: rgb(235, 240, 248); stroke-opacity: 1; stroke-width: 1px;"/><path class="ygrid crisp" transform="translate(0,83.7)" d="M10,0h280" style="stroke: rgb(235, 240, 248); stroke-opacity: 1; stroke-width: 1px;"/><path class="ygrid crisp" transform="translate(0,63.04)" d="M10,0h280" style="stroke: rgb(235, 240, 248); stroke-opacity: 1; stroke-width: 1px;"/></g></g><g class="zerolinelayer"><path class="yzl zl crisp" transform="translate(0,125)" d="M10,0h280" style="stroke: rgb(235, 240, 248); stroke-opacity: 1; stroke-width: 2px;"/></g><path class="xlines-below"/><path class="ylines-below"/><g class="overlines-below"/><g class="xaxislayer-below"/><g class="yaxislayer-below"/><g class="overaxes-below"/><g class="plot" transform="translate(10,50)" clip-path="url(#clipfb2416xyplot)"><g class="scatterlayer mlayer"><g class="trace scatter trace9d1c9d" style="stroke-miterlimit: 2; opacity: 1;"><g class="fills"/><g class="errorbars"/><g class="lines"><path class="js-line" d="M0,53.42L3.09,50.73L4.12,50.73L14.41,50.22L15.44,49.91L38.09,48.77L39.12,48.05L44.26,48.05L45.29,43.71L57.65,43.71L59.71,46.71L62.79,46.09L63.82,46.09L71.03,45.88L72.06,48.15L74.12,49.29L75.15,48.88L76.18,48.46L77.21,49.39L103.97,48.77L105,46.71L107.06,47.53L108.09,47.53L109.12,47.33L110.15,43.92L112.21,41.85L113.24,41.85L114.26,41.34L115.29,37.93L117.35,35.97L118.38,35.97L121.47,35.35L122.5,34.42L125.59,32.15L126.62,32.15L134.85,32.46L135.88,33.49L144.12,33.49L145.15,32.04L146.18,32.04L147.21,29.57L151.32,29.57L152.35,26.78L158.53,26.78L159.56,25.12L165.74,22.44L166.76,22.44L168.82,18.93L169.85,18.93L172.94,12.94L173.97,12.94L181.18,12.94L182.21,14.49L185.29,15.21L186.32,15.63L188.38,17.9L189.41,17.48L192.5,16.76L193.53,16.76L200.74,16.86L201.76,13.46L203.82,10.05L204.85,9.95L207.94,10.77L208.97,8.81L212.06,9.74L213.09,10.57L215.15,11.6L216.18,15.11L217.21,16.35L218.24,15.11L220.29,15.21L221.32,13.56L223.38,13.66L224.41,13.77L226.47,13.35L227.5,12.53L230.59,9.64L231.62,9.64L234.71,11.49L235.74,10.67L237.79,11.29L238.82,13.35L240.88,19.14L241.91,18.93L245,19.96L246.03,20.27L248.09,18.93L249.12,20.07L251.18,20.79L252.21,19.34L255.29,13.04L256.32,12.94L258.38,10.77L259.41,10.67L261.47,10.87L262.5,12.53L267.65,11.8L268.68,11.18L271.76,10.77L272.79,9.74L274.85,8.71L275.88,5.92L280,3.75" style="vector-effect: none; fill: none; stroke: rgb(138, 44, 81); stroke-opacity: 1; stroke-width: 5px; opacity: 1;"/></g><g class="points"/><g class="text"/></g><g class="trace scatter traceed6102" style="stroke-miterlimit: 2; opacity: 1;"><g class="fills"/><g class="errorbars"/><g class="lines"><path class="js-line" d="M0,29.98L4.12,31.42L5.15,31.42L8.24,31.22L9.26,30.6L59.71,31.53L60.74,34.42L71.03,33.49L72.06,31.11L74.12,27.6L75.15,28.53L76.18,29.46L77.21,26.36L86.47,26.36L87.5,27.91L88.53,27.91L89.56,26.36L90.59,27.91L91.62,26.05L93.68,25.64L94.71,27.6L96.76,25.64L97.79,25.64L98.82,25.64L99.85,27.6L100.88,27.6L101.91,25.64L103.97,27.6L105,25.74L107.06,28.12L108.09,28.12L114.26,29.26L115.29,31.01L118.38,31.73L119.41,31.73L132.79,32.46L133.82,33.08L158.53,34.01L159.56,35.66L166.76,37.83L167.79,35.86L170.88,36.9L171.91,38.24L181.18,38.24L182.21,36.79L184.26,35.97L185.29,35.97L186.32,35.55L187.35,33.18L189.41,32.66L190.44,32.97L200.74,32.46L201.76,35.14L204.85,38.34L205.88,38.03L207.94,35.97L208.97,37.93L212.06,37L213.09,36.17L215.15,35.14L216.18,31.63L217.21,30.39L218.24,31.63L220.29,31.53L221.32,33.18L223.38,33.08L224.41,32.97L226.47,33.39L227.5,34.21L230.59,37.1L231.62,37.1L234.71,35.24L235.74,36.07L237.79,35.45L238.82,33.39L240.88,27.6L241.91,27.81L245,26.78L246.03,26.47L248.09,27.81L249.12,26.67L251.18,25.95L252.21,27.4L255.29,33.7L256.32,33.8L258.38,35.97L259.41,36.07L261.47,35.86L262.5,34.21L267.65,34.93L268.68,35.55L271.76,35.97L272.79,37L274.85,38.03L275.88,40.82L280,42.99" style="vector-effect: none; fill: none; stroke: rgb(0, 174, 239); stroke-opacity: 1; stroke-width: 5px; opacity: 1;"/></g><g class="points"/><g class="text"/></g><g class="trace scatter trace42e41b" style="stroke-miterlimit: 2; opacity: 1;"><g class="fills"/><g class="errorbars"/><g class="lines"><path class="js-line" d="M0,67.77L11.32,67.88L12.35,67.88L44.26,69.01L45.29,69.84L59.71,68.6L60.74,71.28L103.97,72.32L105,72.63L111.18,72.52L112.21,72.52L151.32,73.66" style="vector-effect: none; fill: none; stroke: rgb(255, 192, 203); stroke-opacity: 1; stroke-width: 5px; opacity: 1;"/></g><g class="points"/><g class="text"/></g><g class="trace scatter traced937c1" style="stroke-miterlimit: 2; opacity: 1;"><g class="fills"/><g class="errorbars"/><g class="lines"><path class="js-line" d="M0,64.16L6.18,64.57L7.21,64.16L27.79,65.4L28.82,65.4L44.26,65.19L45.29,66.74L59.71,66.12L60.74,67.46L72.06,67.77L73.09,68.91L76.18,67.67L77.21,69.42L105,68.6L106.03,67.88L110.15,69.01L111.18,69.53L121.47,70.66L122.5,71.08L130.74,71.8L131.76,71.8L166.76,71.8L167.79,73.76L170.88,73.97" style="vector-effect: none; fill: none; stroke: rgb(238, 58, 67); stroke-opacity: 1; stroke-width: 5px; opacity: 1;"/></g><g class="points"/><g class="text"/></g><g class="trace scatter trace3ea859" style="stroke-miterlimit: 2; opacity: 1;"><g class="fills"/><g class="errorbars"/><g class="lines"><path class="js-line" d="M0,66.84L6.18,67.05L7.21,65.6L10.29,68.8L11.32,68.8L75.15,69.73L76.18,70.15L79.26,69.42L80.29,69.42L113.24,70.66L114.26,70.77L137.94,72.42L138.97,72.42L166.76,73.45L167.79,73.76L170.88,73.97" style="vector-effect: none; fill: none; stroke: rgb(202, 166, 105); stroke-opacity: 1; stroke-width: 5px; opacity: 1;"/></g><g class="points"/><g class="text"/></g></g></g><g class="overplot"/><path class="xlines-above crisp" d="M0,0" style="fill: none;"/><path class="ylines-above crisp" d="M0,0" style="fill: none;"/><g class="overlines-above"/><g class="xaxislayer-above"/><g class="yaxislayer-above"/><g class="overaxes-above"/></g></g><g class="polarlayer"/><g class="smithlayer"/><g class="ternarylayer"/><g class="geolayer"/><g class="funnelarealayer"/><g class="pielayer"/><g class="iciclelayer"/><g class="treemaplayer"/><g class="sunburstlayer"/><g class="glimages"/><defs id="topdefs-fb2416"><g class="clips"/></defs><g class="layer-above"><g class="imagelayer"/><g class="shapelayer"/></g><g class="infolayer"><g class="g-gtitle"><text class="gtitle" x="15" y="25" text-anchor="start" dy="0em" style="font-family: Ubuntu, verdana, arial, sans-serif; font-size: 16px; fill: rgb(233, 84, 32); opacity: 1; font-weight: normal; white-space: pre;">Prezident/ka 2024</text></g><g class="g-xtitle"/><g class="g-ytitle"/></g></svg>