<svg class="main-svg" xmlns="http://www.w3.org/2000/svg" xmlns:xlink="http://www.w3.org/1999/xlink" width="400" height="400" style="" viewBox="0 0 400 400"><rect x="0" y="0" width="400" height="400" style="fill: rgb(255, 255, 255); fill-opacity: 1;"/><defs id="defs-f0f943"><g class="clips"><clipPath id="clipf0f943xyplot" class="plotclip"><rect width="206" height="330"/></clipPath><clipPath class="axesclip" id="clipf0f943x"><rect x="50" y="0" width="206" height="400"/></clipPath><clipPath class="axesclip" id="clipf0f943y"><rect x="0" y="20" width="400" height="330"/></clipPath><clipPath class="axesclip" id="clipf0f943xy"><rect x="50" y="20" width="206" height="330"/></clipPath></g><g class="gradients"/><g class="patterns"/></defs><g class="bglayer"/><g class="layer-below"><g class="imagelayer"/><g class="shapelayer"/></g><g class="cartesianlayer"><g class="subplot xy"><g class="layer-subplot"><g class="shapelayer"/><g class="imagelayer"/></g><g class="minor-gridlayer"><g class="x"/><g class="y"/></g><g class="gridlayer"><g class="x"><path class="xgrid crisp" transform="translate(57.1,0)" d="M0,20v330" style="stroke: rgb(235, 240, 248); stroke-opacity: 1; stroke-width: 1px;"/><path class="xgrid crisp" transform="translate(101.14,0)" d="M0,20v330" style="stroke: rgb(235, 240, 248); stroke-opacity: 1; stroke-width: 1px;"/><path class="xgrid crisp" transform="translate(144.48000000000002,0)" d="M0,20v330" style="stroke: rgb(235, 240, 248); stroke-opacity: 1; stroke-width: 1px;"/><path class="xgrid crisp" transform="translate(187.81,0)" d="M0,20v330" style="stroke: rgb(235, 240, 248); stroke-opacity: 1; stroke-width: 1px;"/><path class="xgrid crisp" transform="translate(230.43,0)" d="M0,20v330" style="stroke: rgb(235, 240, 248); stroke-opacity: 1; stroke-width: 1px;"/></g><g class="y"><path class="ygrid crisp" transform="translate(0,301.09)" d="M50,0h206" style="stroke: rgb(235, 240, 248); stroke-opacity: 1; stroke-width: 1px;"/><path class="ygrid crisp" transform="translate(0,252.18)" d="M50,0h206" style="stroke: rgb(235, 240, 248); stroke-opacity: 1; stroke-width: 1px;"/><path class="ygrid crisp" transform="translate(0,203.28)" d="M50,0h206" style="stroke: rgb(235, 240, 248); stroke-opacity: 1; stroke-width: 1px;"/><path class="ygrid crisp" transform="translate(0,154.37)" d="M50,0h206" style="stroke: rgb(235, 240, 248); stroke-opacity: 1; stroke-width: 1px;"/><path class="ygrid crisp" transform="translate(0,105.46)" d="M50,0h206" style="stroke: rgb(235, 240, 248); stroke-opacity: 1; stroke-width: 1px;"/><path class="ygrid crisp" transform="translate(0,56.55)" d="M50,0h206" style="stroke: rgb(235, 240, 248); stroke-opacity: 1; stroke-width: 1px;"/></g></g><g class="zerolinelayer"><path class="yzl zl crisp" transform="translate(0,350)" d="M50,0h206" style="stroke: rgb(235, 240, 248); stroke-opacity: 1; stroke-width: 2px;"/></g><path class="xlines-below"/><path class="ylines-below"/><g class="overlines-below"/><g class="xaxislayer-below"/><g class="yaxislayer-below"/><g class="overaxes-below"/><g class="plot" transform="translate(50,20)" clip-path="url(#clipf0f943xyplot)"><g class="scatterlayer mlayer"><g class="trace scatter trace547a7c" style="stroke-miterlimit: 2; opacity: 1;"><g class="fills"/><g class="errorbars"/><g class="lines"><path class="js-line" d="M0,227.78L2.13,215.07L2.84,215.07L4.26,215.07L4.97,218.49L7.1,212.62L7.81,212.62L9.94,212.62L10.66,211.15L12.79,211.15L13.5,209.69L15.63,208.71L16.34,208.71L17.76,205.77L18.47,205.77L26.28,205.77L26.99,202.35L30.54,202.35L31.26,181.81L39.78,181.81L41.2,195.99L41.91,193.06L43.33,193.06L49.01,192.08L49.72,202.84L51.14,208.22L51.86,206.26L52.57,204.31L53.28,208.71L59.67,208.71L60.38,206.75L61.09,206.75L61.8,208.71L62.51,206.75L63.22,208.22L63.93,206.75L71.74,205.77L72.46,195.99L73.88,199.9L74.59,199.9L75.3,198.93L76.01,182.79L77.43,173.01L78.14,173.01L78.85,170.56L79.56,154.42L80.98,145.13L81.69,145.13L83.11,145.13L83.82,142.19L86.66,127.03L87.37,127.03L91.63,127.52L92.34,128.5L93.06,128.5L93.77,133.39L99.45,133.39L100.16,126.54L100.87,126.54L101.58,114.8L104.42,114.8L105.13,101.6L109.39,101.6L110.1,93.77L111.52,90.84L112.23,90.84L115.08,81.06L115.79,64.43L117.21,64.43L117.92,56.12L119.34,36.06L120.05,36.06L125.02,36.06L125.73,43.4L127.15,46.82L127.86,46.82L128.57,48.78L129.28,56.6L129.99,59.54L130.7,57.58L131.41,54.16L137.1,53.18L137.81,55.63L138.52,54.65L139.23,38.51L141.36,21.88L142.07,23.35L142.78,29.22L143.49,25.79L144.2,16.5L144.91,16.5L145.62,18.95L147.04,24.81L147.75,29.22L148.46,29.71L149.17,46.33L149.88,52.2L150.59,46.33L151.3,48.78L152.01,46.82L152.72,39L153.43,37.04L154.14,39.49L155.57,40.95L156.28,38.02L159.12,20.41L159.83,20.41L160.54,22.37L161.25,28.24L161.96,29.22L162.67,25.3L163.38,24.81L164.09,28.24L166.22,65.41L166.93,64.43L167.64,64.43L168.35,64.92L169.06,69.32L169.77,70.79L170.48,69.81L171.19,64.43L173.32,73.23L174.03,66.39L176.17,36.55L176.88,36.06L177.59,25.3L178.3,25.79L179.01,25.3L179.72,22.86L180.43,26.28L181.14,34.11" style="vector-effect: none; fill: none; stroke: rgb(138, 44, 81); stroke-opacity: 1; stroke-width: 5px; opacity: 1;"/></g><g class="points"/><g class="text"/></g><g class="trace scatter tracef4cb4f" style="stroke-miterlimit: 2; opacity: 1;"><g class="fills"/><g class="errorbars"/><g class="lines"><path class="js-line" d="M0,116.76L2.13,123.61L2.84,123.61L4.26,123.61L4.97,127.03L7.1,119.7L7.81,119.7L13.5,120.67L14.21,121.65L16.34,121.65L17.05,124.1L41.2,124.1L41.91,137.79L47.59,137.79L48.3,135.35L49.01,133.39L49.72,122.14L51.14,105.51L51.86,109.91L52.57,114.32L53.28,99.64L59.67,99.64L60.38,106.98L61.09,106.98L61.8,99.64L62.51,106.98L63.22,98.18L64.64,96.22L65.35,105.51L66.77,96.22L67.48,96.22L68.19,96.22L68.9,105.51L69.61,105.51L70.32,96.22L71.74,105.51L72.46,96.71L73.88,107.96L74.59,107.96L75.3,107.96L76.01,110.89L78.14,110.89L78.85,113.34L80.98,125.08L81.69,125.08L84.53,125.08L85.24,126.54L88.08,127.03L88.79,127.03L90.92,127.03L91.63,128.5L93.77,133.39L95.19,133.39L100.16,133.88L100.87,131.92L102.29,136.81L103,136.81L109.39,135.84L110.1,143.66L111.52,145.62L112.23,145.62L115.08,153.93L115.79,144.64L117.21,144.64L117.92,149.53L119.34,155.89L120.05,155.89L125.02,155.89L125.73,149.04L127.15,145.13L127.86,145.13L128.57,143.17L129.28,131.92L129.99,128.5L130.7,129.48L131.41,130.94L137.1,130.94L137.81,128.5L138.52,128.5L139.23,141.22L141.36,156.38L142.07,154.91L143.49,145.13L144.2,154.42L144.91,154.42L145.62,151.98L147.04,146.11L147.75,141.7L148.46,141.22L149.17,124.59L149.88,118.72L150.59,124.59L151.3,122.14L152.01,124.1L152.72,131.92L153.43,133.88L154.14,131.43L155.57,129.97L156.28,132.9L159.12,150.51L159.83,150.51L160.54,148.55L161.25,142.68L161.96,141.7L162.67,145.62L163.38,146.11L164.09,142.68L166.22,105.51L166.93,106.49L167.64,106.49L168.35,106L169.06,101.6L169.77,100.13L170.48,101.11L171.19,106.49L173.32,97.69L174.03,104.53L176.17,134.37L176.88,134.86L177.59,145.62L178.3,145.13L179.01,145.62L179.72,148.06L180.43,144.64L181.14,136.81" style="vector-effect: none; fill: none; stroke: rgb(0, 174, 239); stroke-opacity: 1; stroke-width: 5px; opacity: 1;"/></g><g class="points"/><g class="text"/></g><g class="trace scatter traceffa27a" style="stroke-miterlimit: 2; opacity: 1;"><g class="fills"/><g class="errorbars"/><g class="lines"><path class="js-line" d="M0,278.65L2.84,280.6L3.55,280.6L4.26,280.6L4.97,278.65L5.68,279.14L6.39,281.58L12.79,282.07L13.5,283.54L15.63,284.52L16.34,284.52L30.54,283.54L31.26,290.87L39.78,290.87L41.2,287.94L41.91,294.3L43.33,294.3L48.3,294.79L49.01,295.76L49.72,295.76L50.43,301.14L51.14,301.14L51.86,298.21L52.57,295.28L53.28,303.59L59.67,303.59L60.38,299.68L61.09,299.68L61.8,303.59L62.51,299.68L63.22,303.1L64.64,303.1L65.35,299.19L66.77,303.1L67.48,303.1L68.19,303.1L68.9,299.19L69.61,299.19L70.32,303.1L71.74,299.19L72.46,299.68L73.88,296.25L74.59,296.25L75.3,296.74L76.01,301.63L77.43,304.08L78.14,304.08L81.69,308.48L82.4,308.48L83.82,309.46L84.53,311.41L87.37,314.84L88.08,314.84L115.08,314.84L115.79,324.13L117.92,325.11" style="vector-effect: none; fill: none; stroke: rgb(238, 58, 67); stroke-opacity: 1; stroke-width: 5px; opacity: 1;"/></g><g class="points"/><g class="text"/></g><g class="trace scatter trace75863b" style="stroke-miterlimit: 2; opacity: 1;"><g class="fills"/><g class="errorbars"/><g class="lines"><path class="js-line" d="M0,280.6L2.13,282.07L2.84,282.07L4.26,282.07L4.97,285.49L7.1,279.62L7.81,279.62L30.54,280.6L31.26,286.47L39.78,286.47L41.2,282.56L41.91,250.77L43.33,250.77L47.59,250.77L48.3,252.24L51.14,256.64L51.86,255.17L52.57,253.21L53.28,257.13L59.67,257.13L60.38,255.17L61.09,255.17L61.8,257.13L62.51,255.17L63.22,258.11L64.64,260.06L65.35,256.64L66.77,260.06L67.48,260.06L68.19,260.06L68.9,256.64L69.61,256.64L70.32,260.06L71.74,256.64L72.46,270.82L73.88,261.04L74.59,261.04L75.3,261.53L76.01,268.87L77.43,274.73L78.14,274.73L78.85,273.27L79.56,278.16L81.69,279.14L82.4,279.14L85.24,279.14L85.95,281.09L90.92,281.09L91.63,279.14L93.77,267.89L95.19,267.89L99.45,267.89L100.16,274.24L100.87,276.2L101.58,283.05L104.42,283.05L105.13,286.96L113.66,287.94L114.37,288.43L115.08,288.43L115.79,303.59L117.21,303.59L117.92,305.55L119.34,308.48L120.05,308.48L128.57,308.48L129.28,312.88L130.7,313.86L131.41,315.82L137.81,316.79L138.52,317.77L140.65,322.66L141.36,322.66L142.78,323.64" style="vector-effect: none; fill: none; stroke: rgb(255, 1, 170); stroke-opacity: 1; stroke-width: 5px; opacity: 1;"/></g><g class="points"/><g class="text"/></g><g class="trace scatter trace98ee90" style="stroke-miterlimit: 2; opacity: 1;"><g class="fills"/><g class="errorbars"/><g class="lines"><path class="js-line" d="M0,291.36L3.55,292.34L4.26,292.34L4.97,285.49L5.68,294.79L7.1,300.66L7.81,300.66L26.28,299.68L26.99,299.19L30.54,299.19L31.26,301.63L41.2,300.66L41.91,302.61L51.14,303.1L51.86,305.06L52.57,307.01L53.28,303.59L59.67,303.59L60.38,305.06L61.09,305.06L61.8,303.59L63.93,306.52L64.64,306.52L66.77,306.52L67.48,306.52L71.74,307.01L72.46,308.48L76.01,308.48L76.72,309.46L79.56,310.44L80.27,311.9L84.53,314.84L85.24,315.82L86.66,317.28L87.37,317.28L104.42,317.28L105.13,322.17L115.08,322.66L115.79,324.13L117.92,325.11" style="vector-effect: none; fill: none; stroke: rgb(202, 166, 105); stroke-opacity: 1; stroke-width: 5px; opacity: 1;"/></g><g class="points"/><g class="text"/></g><g class="trace scatter tracee9613f" style="stroke-miterlimit: 2; opacity: 1;"><g class="fills"/><g class="errorbars"/><g class="lines"><path class="js-line" d="M0,295.76L3.55,297.23L4.26,297.23L7.1,296.25L7.81,296.25L16.34,296.74L17.05,297.72L26.28,297.72L26.99,301.63L30.54,301.63L31.26,305.55L39.78,305.55L41.2,299.68L41.91,312.39L43.33,312.39L49.72,312.88L50.43,316.31L52.57,316.31L53.28,318.26L71.74,317.28L72.46,318.75L74.59,317.77L75.3,317.77L78.85,318.75L79.56,319.73L83.82,321.69L84.53,323.64L104.42,323.64" style="vector-effect: none; fill: none; stroke: rgb(255, 192, 203); stroke-opacity: 1; stroke-width: 5px; opacity: 1;"/></g><g class="points"/><g class="text"/></g></g></g><g class="overplot"/><path class="xlines-above crisp" d="M0,0" style="fill: none;"/><path class="ylines-above crisp" d="M0,0" style="fill: none;"/><g class="overlines-above"/><g class="xaxislayer-above"><g class="xtick"><text text-anchor="middle" x="0" y="363" transform="translate(57.1,0)" style="font-family: 'Open Sans', verdana, arial, sans-serif; font-size: 12px; fill: rgb(42, 63, 95); fill-opacity: 1; white-space: pre; opacity: 1;">1.7.23</text></g><g class="xtick"><text text-anchor="middle" x="0" y="363" style="font-family: 'Open Sans', verdana, arial, sans-serif; font-size: 12px; fill: rgb(42, 63, 95); fill-opacity: 1; white-space: pre; opacity: 1;" transform="translate(101.14,0)">1.9.23</text></g><g class="xtick"><text text-anchor="middle" x="0" y="363" style="font-family: 'Open Sans', verdana, arial, sans-serif; font-size: 12px; fill: rgb(42, 63, 95); fill-opacity: 1; white-space: pre; opacity: 1;" transform="translate(144.48000000000002,0)">1.11.23</text></g><g class="xtick"><text text-anchor="middle" x="0" y="363" style="font-family: 'Open Sans', verdana, arial, sans-serif; font-size: 12px; fill: rgb(42, 63, 95); fill-opacity: 1; white-space: pre; opacity: 1;" transform="translate(187.81,0)">1.1.24</text></g><g class="xtick"><text text-anchor="middle" x="0" y="363" style="font-family: 'Open Sans', verdana, arial, sans-serif; font-size: 12px; fill: rgb(42, 63, 95); fill-opacity: 1; white-space: pre; opacity: 1;" transform="translate(230.43,0)">1.3.24</text></g></g><g class="yaxislayer-above"><g class="ytick"><text text-anchor="end" x="49" y="4.199999999999999" transform="translate(0,350)" style="font-family: 'Open Sans', verdana, arial, sans-serif; font-size: 12px; fill: rgb(42, 63, 95); fill-opacity: 1; white-space: pre; opacity: 1;">0%</text></g><g class="ytick"><text text-anchor="end" x="49" y="4.199999999999999" style="font-family: 'Open Sans', verdana, arial, sans-serif; font-size: 12px; fill: rgb(42, 63, 95); fill-opacity: 1; white-space: pre; opacity: 1;" transform="translate(0,301.09)">10%</text></g><g class="ytick"><text text-anchor="end" x="49" y="4.199999999999999" style="font-family: 'Open Sans', verdana, arial, sans-serif; font-size: 12px; fill: rgb(42, 63, 95); fill-opacity: 1; white-space: pre; opacity: 1;" transform="translate(0,252.18)">20%</text></g><g class="ytick"><text text-anchor="end" x="49" y="4.199999999999999" style="font-family: 'Open Sans', verdana, arial, sans-serif; font-size: 12px; fill: rgb(42, 63, 95); fill-opacity: 1; white-space: pre; opacity: 1;" transform="translate(0,203.28)">30%</text></g><g class="ytick"><text text-anchor="end" x="49" y="4.199999999999999" style="font-family: 'Open Sans', verdana, arial, sans-serif; font-size: 12px; fill: rgb(42, 63, 95); fill-opacity: 1; white-space: pre; opacity: 1;" transform="translate(0,154.37)">40%</text></g><g class="ytick"><text text-anchor="end" x="49" y="4.199999999999999" style="font-family: 'Open Sans', verdana, arial, sans-serif; font-size: 12px; fill: rgb(42, 63, 95); fill-opacity: 1; white-space: pre; opacity: 1;" transform="translate(0,105.46)">50%</text></g><g class="ytick"><text text-anchor="end" x="49" y="4.199999999999999" style="font-family: 'Open Sans', verdana, arial, sans-serif; font-size: 12px; fill: rgb(42, 63, 95); fill-opacity: 1; white-space: pre; opacity: 1;" transform="translate(0,56.55)">60%</text></g></g><g class="overaxes-above"/></g></g><g class="polarlayer"/><g class="smithlayer"/><g class="ternarylayer"/><g class="geolayer"/><g class="funnelarealayer"/><g class="pielayer"/><g class="iciclelayer"/><g class="treemaplayer"/><g class="sunburstlayer"/><g class="glimages"/><defs id="topdefs-f0f943"><g class="clips"/><clipPath id="legendf0f943"><rect width="128" height="124" x="0" y="0"/></clipPath></defs><g class="layer-above"><g class="imagelayer"/><g class="shapelayer"/></g><g class="infolayer"><g class="legend" pointer-events="all" transform="translate(260.12,20)"><rect class="bg" shape-rendering="crispEdges" width="128" height="124" x="0" y="0" style="stroke: rgb(68, 68, 68); stroke-opacity: 1; fill: rgb(255, 255, 255); fill-opacity: 1; stroke-width: 0px;"/><g class="scrollbox" transform="" clip-path="url(#legendf0f943)"><g class="groups"><g class="traces" transform="translate(0,14.5)" style="opacity: 1;"><text class="legendtext" text-anchor="start" x="40" y="4.680000000000001" style="font-family: 'Open Sans', verdana, arial, sans-serif; font-size: 12px; fill: rgb(42, 63, 95); fill-opacity: 1; white-space: pre;">Pellegrini Peter</text><g class="layers" style="opacity: 1;"><g class="legendfill"/><g class="legendlines"><path class="js-line" d="M5,0h30" style="fill: none; stroke: rgb(138, 44, 81); stroke-opacity: 1; stroke-width: 5px;"/></g><g class="legendsymbols"><g class="legendpoints"/></g></g><rect class="legendtoggle" x="0" y="-9.5" width="122.703125" height="19" style="fill: rgb(0, 0, 0); fill-opacity: 0;"/></g><g class="traces" transform="translate(0,33.5)" style="opacity: 1;"><text class="legendtext" text-anchor="start" x="40" y="4.680000000000001" style="font-family: 'Open Sans', verdana, arial, sans-serif; font-size: 12px; fill: rgb(42, 63, 95); fill-opacity: 1; white-space: pre;">Korčok Ivan</text><g class="layers" style="opacity: 1;"><g class="legendfill"/><g class="legendlines"><path class="js-line" d="M5,0h30" style="fill: none; stroke: rgb(0, 174, 239); stroke-opacity: 1; stroke-width: 5px;"/></g><g class="legendsymbols"><g class="legendpoints"/></g></g><rect class="legendtoggle" x="0" y="-9.5" width="122.703125" height="19" style="fill: rgb(0, 0, 0); fill-opacity: 0;"/></g><g class="traces" transform="translate(0,52.5)" style="opacity: 1;"><text class="legendtext" text-anchor="start" x="40" y="4.680000000000001" style="font-family: 'Open Sans', verdana, arial, sans-serif; font-size: 12px; fill: rgb(42, 63, 95); fill-opacity: 1; white-space: pre;">Fico Robert</text><g class="layers" style="opacity: 1;"><g class="legendfill"/><g class="legendlines"><path class="js-line" d="M5,0h30" style="fill: none; stroke: rgb(238, 58, 67); stroke-opacity: 1; stroke-width: 5px;"/></g><g class="legendsymbols"><g class="legendpoints"/></g></g><rect class="legendtoggle" x="0" y="-9.5" width="122.703125" height="19" style="fill: rgb(0, 0, 0); fill-opacity: 0;"/></g><g class="traces" transform="translate(0,71.5)" style="opacity: 1;"><text class="legendtext" text-anchor="start" x="40" y="4.680000000000001" style="font-family: 'Open Sans', verdana, arial, sans-serif; font-size: 12px; fill: rgb(42, 63, 95); fill-opacity: 1; white-space: pre;">Kubiš Ján</text><g class="layers" style="opacity: 1;"><g class="legendfill"/><g class="legendlines"><path class="js-line" d="M5,0h30" style="fill: none; stroke: rgb(255, 1, 170); stroke-opacity: 1; stroke-width: 5px;"/></g><g class="legendsymbols"><g class="legendpoints"/></g></g><rect class="legendtoggle" x="0" y="-9.5" width="122.703125" height="19" style="fill: rgb(0, 0, 0); fill-opacity: 0;"/></g><g class="traces" transform="translate(0,90.5)" style="opacity: 1;"><text class="legendtext" text-anchor="start" x="40" y="4.680000000000001" style="font-family: 'Open Sans', verdana, arial, sans-serif; font-size: 12px; fill: rgb(42, 63, 95); fill-opacity: 1; white-space: pre;">Mistrík Robert</text><g class="layers" style="opacity: 1;"><g class="legendfill"/><g class="legendlines"><path class="js-line" d="M5,0h30" style="fill: none; stroke: rgb(202, 166, 105); stroke-opacity: 1; stroke-width: 5px;"/></g><g class="legendsymbols"><g class="legendpoints"/></g></g><rect class="legendtoggle" x="0" y="-9.5" width="122.703125" height="19" style="fill: rgb(0, 0, 0); fill-opacity: 0;"/></g><g class="traces" transform="translate(0,109.5)" style="opacity: 1;"><text class="legendtext" text-anchor="start" x="40" y="4.680000000000001" style="font-family: 'Open Sans', verdana, arial, sans-serif; font-size: 12px; fill: rgb(42, 63, 95); fill-opacity: 1; white-space: pre;">Lajčák Miroslav</text><g class="layers" style="opacity: 1;"><g class="legendfill"/><g class="legendlines"><path class="js-line" d="M5,0h30" style="fill: none; stroke: rgb(255, 192, 203); stroke-opacity: 1; stroke-width: 5px;"/></g><g class="legendsymbols"><g class="legendpoints"/></g></g><rect class="legendtoggle" x="0" y="-9.5" width="122.703125" height="19" style="fill: rgb(0, 0, 0); fill-opacity: 0;"/></g></g></g><rect class="scrollbar" rx="20" ry="3" width="0" height="0" x="0" y="0" style="fill: rgb(128, 139, 164); fill-opacity: 1;"/></g><g class="g-gtitle"/><g class="g-xtitle"/><g class="g-ytitle"/></g></svg>