<svg class="main-svg" xmlns="http://www.w3.org/2000/svg" xmlns:xlink="http://www.w3.org/1999/xlink" width="1200" height="600" style="" viewBox="0 0 1200 600"><rect x="0" y="0" width="1200" height="600" style="fill: rgb(255, 255, 255); fill-opacity: 1;"/><defs id="defs-6b5a39"><g class="clips"><clipPath id="clip6b5a39xyplot" class="plotclip"><rect width="990" height="530"/></clipPath><clipPath class="axesclip" id="clip6b5a39x"><rect x="50" y="0" width="990" height="600"/></clipPath><clipPath class="axesclip" id="clip6b5a39y"><rect x="0" y="20" width="1200" height="530"/></clipPath><clipPath class="axesclip" id="clip6b5a39xy"><rect x="50" y="20" width="990" height="530"/></clipPath></g><g class="gradients"/><g class="patterns"/></defs><g class="bglayer"/><g class="layer-below"><g class="imagelayer"/><g class="shapelayer"/></g><g class="cartesianlayer"><g class="subplot xy"><g class="layer-subplot"><g class="shapelayer"/><g class="imagelayer"/></g><g class="minor-gridlayer"><g class="x"/><g class="y"/></g><g class="gridlayer"><g class="x"><path class="xgrid crisp" transform="translate(84.14,0)" d="M0,20v530" style="stroke: rgb(235, 240, 248); stroke-opacity: 1; stroke-width: 1px;"/><path class="xgrid crisp" transform="translate(189.97,0)" d="M0,20v530" style="stroke: rgb(235, 240, 248); stroke-opacity: 1; stroke-width: 1px;"/><path class="xgrid crisp" transform="translate(295.78999999999996,0)" d="M0,20v530" style="stroke: rgb(235, 240, 248); stroke-opacity: 1; stroke-width: 1px;"/><path class="xgrid crisp" transform="translate(398.21,0)" d="M0,20v530" style="stroke: rgb(235, 240, 248); stroke-opacity: 1; stroke-width: 1px;"/><path class="xgrid crisp" transform="translate(504.03,0)" d="M0,20v530" style="stroke: rgb(235, 240, 248); stroke-opacity: 1; stroke-width: 1px;"/><path class="xgrid crisp" transform="translate(606.45,0)" d="M0,20v530" style="stroke: rgb(235, 240, 248); stroke-opacity: 1; stroke-width: 1px;"/><path class="xgrid crisp" transform="translate(712.28,0)" d="M0,20v530" style="stroke: rgb(235, 240, 248); stroke-opacity: 1; stroke-width: 1px;"/><path class="xgrid crisp" transform="translate(818.1,0)" d="M0,20v530" style="stroke: rgb(235, 240, 248); stroke-opacity: 1; stroke-width: 1px;"/><path class="xgrid crisp" transform="translate(917.1,0)" d="M0,20v530" style="stroke: rgb(235, 240, 248); stroke-opacity: 1; stroke-width: 1px;"/><path class="xgrid crisp" transform="translate(1022.93,0)" d="M0,20v530" style="stroke: rgb(235, 240, 248); stroke-opacity: 1; stroke-width: 1px;"/></g><g class="y"><path class="ygrid crisp" transform="translate(0,479.48)" d="M50,0h990" style="stroke: rgb(235, 240, 248); stroke-opacity: 1; stroke-width: 1px;"/><path class="ygrid crisp" transform="translate(0,408.96)" d="M50,0h990" style="stroke: rgb(235, 240, 248); stroke-opacity: 1; stroke-width: 1px;"/><path class="ygrid crisp" transform="translate(0,338.45)" d="M50,0h990" style="stroke: rgb(235, 240, 248); stroke-opacity: 1; stroke-width: 1px;"/><path class="ygrid crisp" transform="translate(0,267.93)" d="M50,0h990" style="stroke: rgb(235, 240, 248); stroke-opacity: 1; stroke-width: 1px;"/><path class="ygrid crisp" transform="translate(0,197.41)" d="M50,0h990" style="stroke: rgb(235, 240, 248); stroke-opacity: 1; stroke-width: 1px;"/><path class="ygrid crisp" transform="translate(0,126.89)" d="M50,0h990" style="stroke: rgb(235, 240, 248); stroke-opacity: 1; stroke-width: 1px;"/><path class="ygrid crisp" transform="translate(0,56.37)" d="M50,0h990" style="stroke: rgb(235, 240, 248); stroke-opacity: 1; stroke-width: 1px;"/></g></g><g class="zerolinelayer"><path class="yzl zl crisp" transform="translate(0,550)" d="M50,0h990" style="stroke: rgb(235, 240, 248); stroke-opacity: 1; stroke-width: 2px;"/></g><path class="xlines-below"/><path class="ylines-below"/><g class="overlines-below"/><g class="xaxislayer-below"/><g class="yaxislayer-below"/><g class="overaxes-below"/><g class="plot" transform="translate(50,20)" clip-path="url(#clip6b5a39xyplot)"><g class="scatterlayer mlayer"><g class="trace scatter tracefb6f9c" style="stroke-miterlimit: 2; opacity: 1;"><g class="fills"/><g class="errorbars"/><g class="lines"><path class="js-line" d="M0,222.54L6.83,232.41L10.24,232.41L20.48,232.41L23.9,237.35L30.72,226.77L34.14,226.77L61.45,226.77L64.86,228.18L68.28,229.59L71.69,229.59L78.52,229.59L81.93,233.12L198,233.12L201.41,252.86L228.72,252.86L232.14,249.34L235.55,246.52L238.97,230.3L242.38,206.32L245.79,206.32L252.62,219.01L256.03,197.86L286.76,197.86L290.17,208.44L293.59,208.44L297,197.86L300.41,208.44L303.83,195.74L307.24,192.92L310.66,192.92L314.07,206.32L317.48,192.92L327.72,192.92L331.14,206.32L334.55,206.32L337.97,192.92L341.38,206.32L344.79,206.32L348.21,193.63L351.62,209.85L361.86,209.85L365.28,214.08L375.52,214.08L378.93,217.6L382.34,229.59L385.76,233.82L392.59,234.53L396,234.53L406.24,234.53L409.66,236.64L416.48,237.35L419.9,237.35L436.97,237.35L440.38,239.46L443.79,243.7L447.21,243.7L450.62,246.52L457.45,246.52L481.34,247.22L484.76,244.4L488.17,251.45L491.59,251.45L501.83,251.45L505.24,250.04L525.72,250.04L529.14,261.33L532.55,264.15L535.97,264.15L539.38,264.15L542.79,268.38L549.62,276.13L553.03,276.13L556.45,262.74L559.86,262.74L563.28,262.74L566.69,269.79L570.1,278.96L573.52,278.96L600.83,278.96L604.24,269.08L607.66,263.44L611.07,263.44L614.48,263.44L617.9,260.62L621.31,244.4L624.72,239.46L631.55,242.99L634.97,242.99L652.03,242.99L655.45,241.58L658.86,242.99L662.28,239.46L665.69,239.46L669.1,257.8L672.52,271.2L675.93,278.96L679.34,279.66L682.76,277.54L686.17,268.38L689.59,263.44L693,276.84L696.41,276.84L703.24,270.49L706.66,264.85L710.07,258.5L713.48,257.8L716.9,233.82L720.31,225.36L723.72,233.82L727.14,230.3L730.55,233.12L733.97,244.4L737.38,247.22L740.79,243.7L747.62,241.58L751.03,245.81L754.45,251.45L757.86,261.33L761.28,271.2L764.69,271.2L768.1,271.2L771.52,268.38L774.93,259.92L778.34,258.5L781.76,264.15L785.17,264.85L788.59,259.92L792,245.81L795.41,218.31L798.83,206.32L802.24,207.73L805.66,207.73L809.07,207.03L812.48,200.68L815.9,198.56L819.31,199.97L822.72,207.73L826.14,199.97L832.97,195.04L836.38,204.91L839.79,226.07L843.21,238.76L846.62,247.93L850.03,248.63L853.45,264.15L856.86,263.44L860.28,264.15L863.69,267.67L867.1,262.74L870.52,251.45L880.76,251.45L884.17,254.98L887.59,256.39L891,260.62L897.83,260.62L901.24,263.44L904.66,270.49L908.07,273.31L911.48,277.54L914.9,296.58L918.31,302.93L921.72,302.93L925.14,309.98L928.55,311.39L931.97,315.62L935.38,326.2L938.79,328.32L942.21,309.28L945.62,176.7L949.03,169.65L952.45,171.77L955.86,167.54L959.28,168.95L962.69,168.24L969.52,140.03" style="vector-effect: none; fill: none; stroke: rgb(0, 174, 239); stroke-opacity: 1; stroke-width: 5px; opacity: 1;"/></g><g class="points"/><g class="text"/></g><g class="trace scatter trace0959d6" style="stroke-miterlimit: 2; opacity: 1;"><g class="fills"/><g class="errorbars"/><g class="lines"><path class="js-line" d="M0,382.62L6.83,364.28L10.24,364.28L20.48,364.28L23.9,369.22L30.72,360.76L34.14,360.76L47.79,360.76L51.21,358.64L61.45,358.64L64.86,356.53L68.28,355.11L71.69,355.11L78.52,355.11L81.93,350.88L126.31,350.88L129.72,345.95L146.79,345.95L150.21,316.33L191.17,316.33L198,336.78L201.41,332.55L208.24,332.55L232.14,331.84L235.55,331.14L238.97,346.65L242.38,354.41L245.79,354.41L249.21,351.59L252.62,348.77L256.03,355.11L286.76,355.11L290.17,352.29L293.59,352.29L297,355.11L300.41,352.29L303.83,354.41L307.24,352.29L310.66,352.29L314.07,350.88L317.48,352.29L327.72,352.29L331.14,350.88L334.55,350.88L337.97,352.29L341.38,350.88L344.79,350.88L348.21,336.78L351.62,342.42L358.45,342.42L361.86,341.01L365.28,317.74L368.69,303.64L375.52,303.64L378.93,300.11L382.34,276.84L385.76,265.56L389.17,263.44L392.59,263.44L399.41,263.44L402.83,259.21L409.66,247.22L413.07,237.35L440.38,238.05L443.79,239.46L447.21,239.46L450.62,246.52L477.93,246.52L481.34,236.64L484.76,236.64L488.17,219.72L501.83,219.72L505.24,200.68L525.72,200.68L529.14,189.4L532.55,185.17L535.97,185.17L539.38,185.17L542.79,180.93L546.21,174.59L549.62,171.06L553.03,171.06L556.45,147.09L563.28,147.09L566.69,135.1L570.1,106.19L573.52,106.19L600.83,106.19L604.24,116.76L607.66,121.7L611.07,121.7L614.48,121.7L617.9,124.52L621.31,135.8L624.72,140.03L628.14,137.21L631.55,132.28L655.45,132.28L658.86,130.87L662.28,134.39L665.69,132.98L672.52,94.2L675.93,86.44L679.34,85.74L682.76,87.85L686.17,96.31L689.59,91.38L693,77.98L696.41,77.98L703.24,84.32L706.66,89.97L710.07,96.31L713.48,97.02L716.9,120.99L720.31,129.46L723.72,120.99L727.14,124.52L730.55,121.7L733.97,110.42L737.38,107.6L740.79,111.12L747.62,113.24L751.03,109.01L754.45,103.36L757.86,93.49L761.28,83.62L764.69,83.62L768.1,83.62L771.52,86.44L774.93,94.9L778.34,96.31L781.76,90.67L785.17,89.97L788.59,94.9L792,109.01L795.41,136.51L798.83,148.5L802.24,147.09L805.66,147.09L809.07,147.79L812.48,154.14L815.9,156.25L819.31,154.84L822.72,147.09L826.14,154.84L832.97,159.78L836.38,149.91L839.79,128.75L843.21,116.06L846.62,106.89L850.03,106.19L853.45,90.67L856.86,91.38L860.28,90.67L863.69,87.15L867.1,92.08L870.52,103.36L880.76,103.36L884.17,99.84L887.59,98.43L891,94.2L897.83,94.2L901.24,91.38L904.66,84.32L908.07,81.5L911.48,77.27L914.9,58.23L918.31,51.89L921.72,51.89L925.14,44.83L928.55,43.42L931.97,39.19L935.38,28.62L938.79,26.5L942.21,45.54L945.62,178.11L949.03,185.17L952.45,183.05L955.86,187.28L959.28,185.87L962.69,186.58L969.52,214.78" style="vector-effect: none; fill: none; stroke: rgb(138, 44, 81); stroke-opacity: 1; stroke-width: 5px; opacity: 1;"/></g><g class="points"/><g class="text"/></g><g class="trace scatter trace112e41" style="stroke-miterlimit: 2; opacity: 1;"><g class="fills"/><g class="errorbars"/><g class="lines"><path class="js-line" d="M0,455.96L6.83,458.78L10.24,458.78L20.48,458.78L23.9,455.96L27.31,456.66L30.72,460.19L61.45,460.89L64.86,463.01L68.28,464.42L71.69,464.42L126.31,464.42L129.72,463.01L146.79,463.01L150.21,473.59L191.17,473.59L198,469.35L201.41,478.52L208.24,478.52L232.14,479.23L235.55,480.64L238.97,480.64L242.38,488.39L245.79,488.39L249.21,484.16L252.62,479.93L256.03,491.92L286.76,491.92L290.17,486.28L293.59,486.28L297,491.92L300.41,486.28L303.83,491.21L310.66,491.21L314.07,485.57L317.48,491.21L320.9,491.21L327.72,491.21L331.14,485.57L334.55,485.57L337.97,491.21L341.38,485.57L344.79,485.57L348.21,486.28L351.62,481.34L361.86,482.05L365.28,489.1L368.69,492.63L372.1,492.63L375.52,492.63L378.93,494.04L389.17,498.97L392.59,498.97L399.41,498.97L402.83,500.38L413.07,508.14L416.48,508.14L501.83,508.14L505.24,507.43L553.03,508.14L556.45,521.54L563.28,521.54L566.69,522.95" style="vector-effect: none; fill: none; stroke: rgb(238, 58, 67); stroke-opacity: 1; stroke-width: 5px; opacity: 1;"/></g><g class="points"/><g class="text"/></g><g class="trace scatter trace542a7a" style="stroke-miterlimit: 2; opacity: 1;"><g class="fills"/><g class="errorbars"/><g class="lines"><path class="js-line" d="M0,480.64L10.24,482.75L13.66,482.75L23.9,482.05L27.31,480.64L34.14,481.34L37.55,481.34L47.79,481.34L51.21,482.75L78.52,482.05L81.93,483.46L126.31,483.46L129.72,489.1L146.79,489.1L150.21,494.74L191.17,494.74L198,486.28L201.41,504.61L208.24,504.61L238.97,505.32L242.38,510.25L252.62,510.25L256.03,513.08L286.76,513.08L290.17,511.67L293.59,511.67L297,513.08L300.41,511.67L303.83,513.08L310.66,513.08L314.07,511.67L317.48,513.08L320.9,513.08L327.72,513.08L331.14,511.67L334.55,511.67L337.97,513.08L341.38,511.67L344.79,511.67L348.21,513.78L351.62,512.37L375.52,513.08L378.93,513.78L385.76,515.9L389.17,516.6L399.41,516.6L402.83,518.01L406.24,520.83L409.66,520.83L416.48,521.54L419.9,521.54L501.83,520.83" style="vector-effect: none; fill: none; stroke: rgb(255, 192, 203); stroke-opacity: 1; stroke-width: 5px; opacity: 1;"/></g><g class="points"/><g class="text"/></g><g class="trace scatter trace566da1" style="stroke-miterlimit: 2; opacity: 1;"><g class="fills"/><g class="errorbars"/><g class="lines"><path class="js-line" d="M0,474.29L10.24,475.7L13.66,475.7L20.48,475.7L23.9,465.83L30.72,487.69L34.14,487.69L64.86,486.98L68.28,486.28L146.79,485.57L150.21,489.1L191.17,489.1L198,487.69L201.41,490.51L208.24,490.51L232.14,491.21L235.55,491.92L245.79,491.21L249.21,494.04L252.62,496.86L256.03,491.92L286.76,491.92L290.17,494.04L293.59,494.04L297,491.92L300.41,494.04L303.83,493.33L307.24,496.15L310.66,496.15L314.07,496.86L317.48,496.15L344.79,496.86L348.21,498.97L365.28,498.97L368.69,500.38L378.93,501.09L382.34,501.79L389.17,504.61L392.59,504.61L399.41,504.61L402.83,506.02L413.07,511.67L416.48,511.67L501.83,511.67L505.24,518.72L553.03,519.42L556.45,521.54L563.28,521.54L566.69,522.95" style="vector-effect: none; fill: none; stroke: rgb(202, 166, 105); stroke-opacity: 1; stroke-width: 5px; opacity: 1;"/></g><g class="points"/><g class="text"/></g><g class="trace scatter trace40dff1" style="stroke-miterlimit: 2; opacity: 1;"><g class="fills"/><g class="errorbars"/><g class="lines"><path class="js-line" d="M0,458.78L6.83,460.89L10.24,460.89L20.48,460.89L23.9,465.83L30.72,457.37L34.14,457.37L47.79,457.37L51.21,458.78L64.86,458.07L68.28,457.37L126.31,457.37L129.72,458.78L146.79,458.78L150.21,467.24L191.17,467.24L198,461.6L201.41,415.76L208.24,415.76L228.72,415.76L232.14,417.88L235.55,419.99L238.97,419.99L242.38,424.22L245.79,424.22L252.62,419.29L256.03,424.93L286.76,424.93L290.17,422.11L293.59,422.11L297,424.93L300.41,422.11L303.83,426.34L307.24,429.16L310.66,429.16L314.07,424.22L317.48,429.16L327.72,429.16L331.14,424.22L334.55,424.22L337.97,429.16L341.38,424.22L344.79,424.22L348.21,444.67L351.62,430.57L361.86,431.27L365.28,441.85L368.69,450.31L372.1,450.31L375.52,450.31L378.93,448.2L382.34,455.25L385.76,456.66L402.83,455.96L406.24,455.25L409.66,456.66L413.07,459.48L436.97,459.48L440.38,456.66L443.79,450.31L447.21,450.31L450.62,440.44L457.45,440.44L477.93,440.44L481.34,449.61L484.76,452.43L488.17,462.3L501.83,462.3L505.24,467.94L542.79,468.65L546.21,469.35L553.03,470.06L556.45,491.92L563.28,491.92L566.69,494.74L570.1,498.97L573.52,498.97L617.9,498.97L621.31,505.32L624.72,505.32L628.14,506.73L631.55,509.55L634.97,509.55L652.03,509.55L655.45,510.96L662.28,510.96L665.69,512.37L669.1,517.31L672.52,519.42L682.76,519.42L686.17,520.83" style="vector-effect: none; fill: none; stroke: rgb(255, 1, 170); stroke-opacity: 1; stroke-width: 5px; opacity: 1;"/></g><g class="points"/><g class="text"/></g></g></g><g class="overplot"/><path class="xlines-above crisp" d="M0,0" style="fill: none;"/><path class="ylines-above crisp" d="M0,0" style="fill: none;"/><g class="overlines-above"/><g class="xaxislayer-above"><g class="xtick"><text text-anchor="middle" x="0" y="563" transform="translate(84.14,0)" style="font-family: 'Open Sans', verdana, arial, sans-serif; font-size: 12px; fill: rgb(42, 63, 95); fill-opacity: 1; white-space: pre; opacity: 1;">1.7.23</text></g><g class="xtick"><text text-anchor="middle" x="0" y="563" style="font-family: 'Open Sans', verdana, arial, sans-serif; font-size: 12px; fill: rgb(42, 63, 95); fill-opacity: 1; white-space: pre; opacity: 1;" transform="translate(189.97,0)">1.8.23</text></g><g class="xtick"><text text-anchor="middle" x="0" y="563" style="font-family: 'Open Sans', verdana, arial, sans-serif; font-size: 12px; fill: rgb(42, 63, 95); fill-opacity: 1; white-space: pre; opacity: 1;" transform="translate(295.78999999999996,0)">1.9.23</text></g><g class="xtick"><text text-anchor="middle" x="0" y="563" style="font-family: 'Open Sans', verdana, arial, sans-serif; font-size: 12px; fill: rgb(42, 63, 95); fill-opacity: 1; white-space: pre; opacity: 1;" transform="translate(398.21,0)">1.10.23</text></g><g class="xtick"><text text-anchor="middle" x="0" y="563" style="font-family: 'Open Sans', verdana, arial, sans-serif; font-size: 12px; fill: rgb(42, 63, 95); fill-opacity: 1; white-space: pre; opacity: 1;" transform="translate(504.03,0)">1.11.23</text></g><g class="xtick"><text text-anchor="middle" x="0" y="563" style="font-family: 'Open Sans', verdana, arial, sans-serif; font-size: 12px; fill: rgb(42, 63, 95); fill-opacity: 1; white-space: pre; opacity: 1;" transform="translate(606.45,0)">1.12.23</text></g><g class="xtick"><text text-anchor="middle" x="0" y="563" style="font-family: 'Open Sans', verdana, arial, sans-serif; font-size: 12px; fill: rgb(42, 63, 95); fill-opacity: 1; white-space: pre; opacity: 1;" transform="translate(712.28,0)">1.1.24</text></g><g class="xtick"><text text-anchor="middle" x="0" y="563" style="font-family: 'Open Sans', verdana, arial, sans-serif; font-size: 12px; fill: rgb(42, 63, 95); fill-opacity: 1; white-space: pre; opacity: 1;" transform="translate(818.1,0)">1.2.24</text></g><g class="xtick"><text text-anchor="middle" x="0" y="563" style="font-family: 'Open Sans', verdana, arial, sans-serif; font-size: 12px; fill: rgb(42, 63, 95); fill-opacity: 1; white-space: pre; opacity: 1;" transform="translate(917.1,0)">1.3.24</text></g><g class="xtick"><text text-anchor="middle" x="0" y="563" style="font-family: 'Open Sans', verdana, arial, sans-serif; font-size: 12px; fill: rgb(42, 63, 95); fill-opacity: 1; white-space: pre; opacity: 1;" transform="translate(1022.93,0)">1.4.24</text></g></g><g class="yaxislayer-above"><g class="ytick"><text text-anchor="end" x="49" y="4.199999999999999" transform="translate(0,550)" style="font-family: 'Open Sans', verdana, arial, sans-serif; font-size: 12px; fill: rgb(42, 63, 95); fill-opacity: 1; white-space: pre; opacity: 1;">0%</text></g><g class="ytick"><text text-anchor="end" x="49" y="4.199999999999999" style="font-family: 'Open Sans', verdana, arial, sans-serif; font-size: 12px; fill: rgb(42, 63, 95); fill-opacity: 1; white-space: pre; opacity: 1;" transform="translate(0,479.48)">10%</text></g><g class="ytick"><text text-anchor="end" x="49" y="4.199999999999999" style="font-family: 'Open Sans', verdana, arial, sans-serif; font-size: 12px; fill: rgb(42, 63, 95); fill-opacity: 1; white-space: pre; opacity: 1;" transform="translate(0,408.96)">20%</text></g><g class="ytick"><text text-anchor="end" x="49" y="4.199999999999999" style="font-family: 'Open Sans', verdana, arial, sans-serif; font-size: 12px; fill: rgb(42, 63, 95); fill-opacity: 1; white-space: pre; opacity: 1;" transform="translate(0,338.45)">30%</text></g><g class="ytick"><text text-anchor="end" x="49" y="4.199999999999999" style="font-family: 'Open Sans', verdana, arial, sans-serif; font-size: 12px; fill: rgb(42, 63, 95); fill-opacity: 1; white-space: pre; opacity: 1;" transform="translate(0,267.93)">40%</text></g><g class="ytick"><text text-anchor="end" x="49" y="4.199999999999999" style="font-family: 'Open Sans', verdana, arial, sans-serif; font-size: 12px; fill: rgb(42, 63, 95); fill-opacity: 1; white-space: pre; opacity: 1;" transform="translate(0,197.41)">50%</text></g><g class="ytick"><text text-anchor="end" x="49" y="4.199999999999999" style="font-family: 'Open Sans', verdana, arial, sans-serif; font-size: 12px; fill: rgb(42, 63, 95); fill-opacity: 1; white-space: pre; opacity: 1;" transform="translate(0,126.89)">60%</text></g><g class="ytick"><text text-anchor="end" x="49" y="4.199999999999999" style="font-family: 'Open Sans', verdana, arial, sans-serif; font-size: 12px; fill: rgb(42, 63, 95); fill-opacity: 1; white-space: pre; opacity: 1;" transform="translate(0,56.37)">70%</text></g></g><g class="overaxes-above"/></g></g><g class="polarlayer"/><g class="smithlayer"/><g class="ternarylayer"/><g class="geolayer"/><g class="funnelarealayer"/><g class="pielayer"/><g class="iciclelayer"/><g class="treemaplayer"/><g class="sunburstlayer"/><g class="glimages"/><defs id="topdefs-6b5a39"><g class="clips"/><clipPath id="legend6b5a39"><rect width="128" height="124" x="0" y="0"/></clipPath></defs><g class="layer-above"><g class="imagelayer"/><g class="shapelayer"/></g><g class="infolayer"><g class="legend" pointer-events="all" transform="translate(1059.8000000000002,20)"><rect class="bg" shape-rendering="crispEdges" style="stroke: rgb(68, 68, 68); stroke-opacity: 1; fill: rgb(255, 255, 255); fill-opacity: 1; stroke-width: 0px;" width="128" height="124" x="0" y="0"/><g class="scrollbox" transform="" clip-path="url(#legend6b5a39)"><g class="groups"><g class="traces" transform="translate(0,14.5)" style="opacity: 1;"><text class="legendtext" text-anchor="start" x="40" y="4.680000000000001" style="font-family: 'Open Sans', verdana, arial, sans-serif; font-size: 12px; fill: rgb(42, 63, 95); fill-opacity: 1; white-space: pre;">Korčok Ivan</text><g class="layers" style="opacity: 1;"><g class="legendfill"/><g class="legendlines"><path class="js-line" d="M5,0h30" style="fill: none; stroke: rgb(0, 174, 239); stroke-opacity: 1; stroke-width: 5px;"/></g><g class="legendsymbols"><g class="legendpoints"/></g></g><rect class="legendtoggle" x="0" y="-9.5" width="122.703125" height="19" style="fill: rgb(0, 0, 0); fill-opacity: 0;"/></g><g class="traces" transform="translate(0,33.5)" style="opacity: 1;"><text class="legendtext" text-anchor="start" x="40" y="4.680000000000001" style="font-family: 'Open Sans', verdana, arial, sans-serif; font-size: 12px; fill: rgb(42, 63, 95); fill-opacity: 1; white-space: pre;">Pellegrini Peter</text><g class="layers" style="opacity: 1;"><g class="legendfill"/><g class="legendlines"><path class="js-line" d="M5,0h30" style="fill: none; stroke: rgb(138, 44, 81); stroke-opacity: 1; stroke-width: 5px;"/></g><g class="legendsymbols"><g class="legendpoints"/></g></g><rect class="legendtoggle" x="0" y="-9.5" width="122.703125" height="19" style="fill: rgb(0, 0, 0); fill-opacity: 0;"/></g><g class="traces" transform="translate(0,52.5)" style="opacity: 1;"><text class="legendtext" text-anchor="start" x="40" y="4.680000000000001" style="font-family: 'Open Sans', verdana, arial, sans-serif; font-size: 12px; fill: rgb(42, 63, 95); fill-opacity: 1; white-space: pre;">Fico Robert</text><g class="layers" style="opacity: 1;"><g class="legendfill"/><g class="legendlines"><path class="js-line" d="M5,0h30" style="fill: none; stroke: rgb(238, 58, 67); stroke-opacity: 1; stroke-width: 5px;"/></g><g class="legendsymbols"><g class="legendpoints"/></g></g><rect class="legendtoggle" x="0" y="-9.5" width="122.703125" height="19" style="fill: rgb(0, 0, 0); fill-opacity: 0;"/></g><g class="traces" transform="translate(0,71.5)" style="opacity: 1;"><text class="legendtext" text-anchor="start" x="40" y="4.680000000000001" style="font-family: 'Open Sans', verdana, arial, sans-serif; font-size: 12px; fill: rgb(42, 63, 95); fill-opacity: 1; white-space: pre;">Lajčák Miroslav</text><g class="layers" style="opacity: 1;"><g class="legendfill"/><g class="legendlines"><path class="js-line" d="M5,0h30" style="fill: none; stroke: rgb(255, 192, 203); stroke-opacity: 1; stroke-width: 5px;"/></g><g class="legendsymbols"><g class="legendpoints"/></g></g><rect class="legendtoggle" x="0" y="-9.5" width="122.703125" height="19" style="fill: rgb(0, 0, 0); fill-opacity: 0;"/></g><g class="traces" transform="translate(0,90.5)" style="opacity: 1;"><text class="legendtext" text-anchor="start" x="40" y="4.680000000000001" style="font-family: 'Open Sans', verdana, arial, sans-serif; font-size: 12px; fill: rgb(42, 63, 95); fill-opacity: 1; white-space: pre;">Mistrík Robert</text><g class="layers" style="opacity: 1;"><g class="legendfill"/><g class="legendlines"><path class="js-line" d="M5,0h30" style="fill: none; stroke: rgb(202, 166, 105); stroke-opacity: 1; stroke-width: 5px;"/></g><g class="legendsymbols"><g class="legendpoints"/></g></g><rect class="legendtoggle" x="0" y="-9.5" width="122.703125" height="19" style="fill: rgb(0, 0, 0); fill-opacity: 0;"/></g><g class="traces" transform="translate(0,109.5)" style="opacity: 1;"><text class="legendtext" text-anchor="start" x="40" y="4.680000000000001" style="font-family: 'Open Sans', verdana, arial, sans-serif; font-size: 12px; fill: rgb(42, 63, 95); fill-opacity: 1; white-space: pre;">Kubiš Ján</text><g class="layers" style="opacity: 1;"><g class="legendfill"/><g class="legendlines"><path class="js-line" d="M5,0h30" style="fill: none; stroke: rgb(255, 1, 170); stroke-opacity: 1; stroke-width: 5px;"/></g><g class="legendsymbols"><g class="legendpoints"/></g></g><rect class="legendtoggle" x="0" y="-9.5" width="122.703125" height="19" style="fill: rgb(0, 0, 0); fill-opacity: 0;"/></g></g></g><rect class="scrollbar" rx="20" ry="3" width="0" height="0" style="fill: rgb(128, 139, 164); fill-opacity: 1;" x="0" y="0"/></g><g class="g-gtitle"/><g class="g-xtitle"/><g class="g-ytitle"/></g></svg>