<svg class="main-svg" xmlns="http://www.w3.org/2000/svg" xmlns:xlink="http://www.w3.org/1999/xlink" width="300" height="135" style="" viewBox="0 0 300 135"><rect x="0" y="0" width="300" height="135" style="fill: rgb(255, 255, 255); fill-opacity: 1;"/><defs id="defs-cc001e"><g class="clips"><clipPath id="clipcc001exyplot" class="plotclip"><rect width="280" height="75"/></clipPath><clipPath class="axesclip" id="clipcc001ex"><rect x="10" y="0" width="280" height="135"/></clipPath><clipPath class="axesclip" id="clipcc001ey"><rect x="0" y="50" width="300" height="75"/></clipPath><clipPath class="axesclip" id="clipcc001exy"><rect x="10" y="50" width="280" height="75"/></clipPath></g><g class="gradients"/><g class="patterns"/></defs><g class="bglayer"/><g class="layer-below"><g class="imagelayer"/><g class="shapelayer"/></g><g class="cartesianlayer"><g class="subplot xy"><g class="layer-subplot"><g class="shapelayer"/><g class="imagelayer"/></g><g class="minor-gridlayer"><g class="x"/><g class="y"/></g><g class="gridlayer"><g class="x"><path class="xgrid crisp" transform="translate(24.29,0)" d="M0,50v75" style="stroke: rgb(235, 240, 248); stroke-opacity: 1; stroke-width: 1px;"/><path class="xgrid crisp" transform="translate(112.86,0)" d="M0,50v75" style="stroke: rgb(235, 240, 248); stroke-opacity: 1; stroke-width: 1px;"/><path class="xgrid crisp" transform="translate(200,0)" d="M0,50v75" style="stroke: rgb(235, 240, 248); stroke-opacity: 1; stroke-width: 1px;"/><path class="xgrid crisp" transform="translate(287.14,0)" d="M0,50v75" style="stroke: rgb(235, 240, 248); stroke-opacity: 1; stroke-width: 1px;"/></g><g class="y"><path class="ygrid crisp" transform="translate(0,101.28999999999999)" d="M10,0h280" style="stroke: rgb(235, 240, 248); stroke-opacity: 1; stroke-width: 1px;"/><path class="ygrid crisp" transform="translate(0,77.58)" d="M10,0h280" style="stroke: rgb(235, 240, 248); stroke-opacity: 1; stroke-width: 1px;"/><path class="ygrid crisp" transform="translate(0,53.87)" d="M10,0h280" style="stroke: rgb(235, 240, 248); stroke-opacity: 1; stroke-width: 1px;"/></g></g><g class="zerolinelayer"><path class="yzl zl crisp" transform="translate(0,125)" d="M10,0h280" style="stroke: rgb(235, 240, 248); stroke-opacity: 1; stroke-width: 2px;"/></g><path class="xlines-below"/><path class="ylines-below"/><g class="overlines-below"/><g class="xaxislayer-below"/><g class="yaxislayer-below"/><g class="overaxes-below"/><g class="plot" transform="translate(10,50)" clip-path="url(#clipcc001exyplot)"><g class="scatterlayer mlayer"><g class="trace scatter tracedb398c" style="stroke-miterlimit: 2; opacity: 1;"><g class="fills"/><g class="errorbars"/><g class="lines"><path class="js-line" d="M0,50.22L4.29,47.14L5.71,47.14L11.43,47.38L12.86,46.55L32.86,45.6L34.29,44.89L61.43,44.06L62.86,39.08L80,39.08L82.86,42.52L84.29,41.81L87.14,41.81L98.57,41.57L100,44.18L102.86,45.48L104.29,45.01L105.71,44.53L107.14,45.6L144.29,44.89L145.71,42.52L148.57,43.47L150,43.47L151.43,43.23L152.86,39.32L155.71,36.94L157.14,36.94L158.57,36.35L160,32.44L162.86,30.19L164.29,30.19L168.57,29.48L170,28.41L174.29,25.8L175.71,25.8L187.14,26.16L188.57,27.34L200,27.34L201.43,25.68L202.86,25.68L204.29,22.84L210,22.84L211.43,19.64L220,19.64L221.43,17.74L224.29,17.03L225.71,17.03L231.43,14.66L232.86,10.63L235.71,10.63L237.14,8.61L238.57,3.75L240,3.75L251.43,3.75L252.86,5.53L255.71,6.36L257.14,6.36L258.57,6.83L260,8.73L262.86,8.97L264.29,8.14L278.57,8.25L280,6.71" style="vector-effect: none; fill: none; stroke: rgb(138, 44, 81); stroke-opacity: 1; stroke-width: 5px; opacity: 1;"/></g><g class="points"/><g class="text"/></g><g class="trace scatter trace0467d1" style="stroke-miterlimit: 2; opacity: 1;"><g class="fills"/><g class="errorbars"/><g class="lines"><path class="js-line" d="M0,23.31L4.29,24.97L5.71,24.97L11.43,24.73L12.86,24.02L82.86,25.09L84.29,28.41L98.57,27.34L100,24.62L101.43,20.58L102.86,20.58L105.71,22.72L107.14,19.16L120,19.16L121.43,20.94L122.86,20.94L124.29,19.16L125.71,20.94L127.14,18.81L130,18.33L131.43,20.58L134.29,18.33L135.71,18.33L137.14,18.33L138.57,20.58L140,20.58L141.43,18.33L144.29,20.58L145.71,18.45L147.14,21.18L148.57,21.18L157.14,21.89L158.57,22.48L161.43,25.21L162.86,25.33L184.29,26.16L185.71,26.87L202.86,26.99L204.29,28.17L220,27.93L221.43,29.83L231.43,32.32L232.86,30.07L237.14,31.25L238.57,32.8L251.43,32.8L252.86,31.14L255.71,30.19L257.14,30.19L258.57,29.71L260,26.99L262.86,26.39L264.29,26.75L278.57,26.16L280,27.46" style="vector-effect: none; fill: none; stroke: rgb(0, 174, 239); stroke-opacity: 1; stroke-width: 5px; opacity: 1;"/></g><g class="points"/><g class="text"/></g><g class="trace scatter tracee46935" style="stroke-miterlimit: 2; opacity: 1;"><g class="fills"/><g class="errorbars"/><g class="lines"><path class="js-line" d="M0,63.03L10,64.21L11.43,63.5L14.29,62.79L15.71,62.79L61.43,63.03L62.86,64.45L82.86,63.5L84.29,55.79L100,56.51L101.43,57.22L127.14,57.57L128.57,58.05L144.29,57.22L145.71,60.66L148.57,58.28L150,58.28L151.43,58.4L152.86,60.18L155.71,61.6L157.14,61.6L158.57,61.25L160,62.43L167.14,62.67L168.57,62.55L175.71,63.14L177.14,63.14L184.29,62.67L185.71,61.6L187.14,61.6L188.57,59.94L200,59.94L201.43,61.49L207.14,63.62L208.57,63.62L228.57,64.8L230,64.92L231.43,64.92L232.86,68.6L251.43,69.78L252.86,69.9L261.43,70.85L262.86,71.09L267.14,71.56L268.57,71.56L280,72.27" style="vector-effect: none; fill: none; stroke: rgb(255, 1, 170); stroke-opacity: 1; stroke-width: 5px; opacity: 1;"/></g><g class="points"/><g class="text"/></g><g class="trace scatter trace409174" style="stroke-miterlimit: 2; opacity: 1;"><g class="fills"/><g class="errorbars"/><g class="lines"><path class="js-line" d="M0,62.55L8.57,63.03L10,62.55L35.71,63.97L37.14,63.97L61.43,63.74L62.86,65.52L82.86,64.8L84.29,66.35L100,66.7L101.43,68.01L104.29,67.29L105.71,66.58L108.57,68.6L110,68.6L145.71,67.65L147.14,66.82L151.43,66.94L152.86,68.12L157.14,68.72L158.57,68.95L165.71,69.78L167.14,69.78L180,71.32L181.43,71.32L231.43,71.32L232.86,73.58L237.14,73.81" style="vector-effect: none; fill: none; stroke: rgb(238, 58, 67); stroke-opacity: 1; stroke-width: 5px; opacity: 1;"/></g><g class="points"/><g class="text"/></g><g class="trace scatter tracebb2ee9" style="stroke-miterlimit: 2; opacity: 1;"><g class="fills"/><g class="errorbars"/><g class="lines"><path class="js-line" d="M0,65.63L8.57,65.87L10,64.21L12.86,67.89L14.29,67.89L102.86,68.48L104.29,68.95L107.14,68.6L108.57,68.6L152.86,69.78L154.29,70.02L168.57,70.97L170,71.32L180,71.92L181.43,71.92L227.14,73.1L228.57,73.22L237.14,73.81" style="vector-effect: none; fill: none; stroke: rgb(202, 166, 105); stroke-opacity: 1; stroke-width: 5px; opacity: 1;"/></g><g class="points"/><g class="text"/></g></g></g><g class="overplot"/><path class="xlines-above crisp" d="M0,0" style="fill: none;"/><path class="ylines-above crisp" d="M0,0" style="fill: none;"/><g class="overlines-above"/><g class="xaxislayer-above"/><g class="yaxislayer-above"/><g class="overaxes-above"/></g></g><g class="polarlayer"/><g class="smithlayer"/><g class="ternarylayer"/><g class="geolayer"/><g class="funnelarealayer"/><g class="pielayer"/><g class="iciclelayer"/><g class="treemaplayer"/><g class="sunburstlayer"/><g class="glimages"/><defs id="topdefs-cc001e"><g class="clips"/></defs><g class="layer-above"><g class="imagelayer"/><g class="shapelayer"/></g><g class="infolayer"><g class="g-gtitle"><text class="gtitle" x="15" y="25" text-anchor="start" dy="0em" style="font-family: Ubuntu, verdana, arial, sans-serif; font-size: 16px; fill: rgb(233, 84, 32); opacity: 1; font-weight: normal; white-space: pre;">Prezident/ka 2024</text></g><g class="g-xtitle"/><g class="g-ytitle"/></g></svg>