<svg class="main-svg" xmlns="http://www.w3.org/2000/svg" xmlns:xlink="http://www.w3.org/1999/xlink" width="300" height="135" style="" viewBox="0 0 300 135"><rect x="0" y="0" width="300" height="135" style="fill: rgb(255, 255, 255); fill-opacity: 1;"/><defs id="defs-b4ea1b"><g class="clips"><clipPath id="clipb4ea1bxyplot" class="plotclip"><rect width="280" height="75"/></clipPath><clipPath class="axesclip" id="clipb4ea1bx"><rect x="10" y="0" width="280" height="135"/></clipPath><clipPath class="axesclip" id="clipb4ea1by"><rect x="0" y="50" width="300" height="75"/></clipPath><clipPath class="axesclip" id="clipb4ea1bxy"><rect x="10" y="50" width="280" height="75"/></clipPath></g><g class="gradients"/><g class="patterns"/></defs><g class="bglayer"/><g class="layer-below"><g class="imagelayer"/><g class="shapelayer"/></g><g class="cartesianlayer"><g class="subplot xy"><g class="layer-subplot"><g class="shapelayer"/><g class="imagelayer"/></g><g class="minor-gridlayer"><g class="x"/><g class="y"/></g><g class="gridlayer"><g class="x"><path class="xgrid crisp" transform="translate(20.57,0)" d="M0,50v75" style="stroke: rgb(235, 240, 248); stroke-opacity: 1; stroke-width: 1px;"/><path class="xgrid crisp" transform="translate(86.08,0)" d="M0,50v75" style="stroke: rgb(235, 240, 248); stroke-opacity: 1; stroke-width: 1px;"/><path class="xgrid crisp" transform="translate(150.53,0)" d="M0,50v75" style="stroke: rgb(235, 240, 248); stroke-opacity: 1; stroke-width: 1px;"/><path class="xgrid crisp" transform="translate(214.98,0)" d="M0,50v75" style="stroke: rgb(235, 240, 248); stroke-opacity: 1; stroke-width: 1px;"/><path class="xgrid crisp" transform="translate(278.38,0)" d="M0,50v75" style="stroke: rgb(235, 240, 248); stroke-opacity: 1; stroke-width: 1px;"/></g><g class="y"><path class="ygrid crisp" transform="translate(0,102.77000000000001)" d="M10,0h280" style="stroke: rgb(235, 240, 248); stroke-opacity: 1; stroke-width: 1px;"/><path class="ygrid crisp" transform="translate(0,80.53999999999999)" d="M10,0h280" style="stroke: rgb(235, 240, 248); stroke-opacity: 1; stroke-width: 1px;"/><path class="ygrid crisp" transform="translate(0,58.31)" d="M10,0h280" style="stroke: rgb(235, 240, 248); stroke-opacity: 1; stroke-width: 1px;"/></g></g><g class="zerolinelayer"><path class="yzl zl crisp" transform="translate(0,125)" d="M10,0h280" style="stroke: rgb(235, 240, 248); stroke-opacity: 1; stroke-width: 2px;"/></g><path class="xlines-below"/><path class="ylines-below"/><g class="overlines-below"/><g class="xaxislayer-below"/><g class="yaxislayer-below"/><g class="overaxes-below"/><g class="plot" transform="translate(10,50)" clip-path="url(#clipb4ea1bxyplot)"><g class="scatterlayer mlayer"><g class="trace scatter trace6ab5b0" style="stroke-miterlimit: 2; opacity: 1;"><g class="fills"/><g class="errorbars"/><g class="lines"><path class="js-line" d="M0,51.77L3.17,48.88L4.23,48.88L8.45,49.1L9.51,48.32L24.3,47.43L25.36,46.77L45.43,45.99L46.49,41.32L59.17,41.32L61.28,44.54L64.45,43.88L65.51,43.88L72.91,43.65L73.96,46.1L76.08,47.32L77.13,46.88L78.19,46.43L79.25,47.43L106.72,46.77L107.77,44.54L109.89,45.43L110.94,45.43L112,45.21L113.06,41.54L115.17,39.32L116.23,39.32L117.28,38.76L118.34,35.1L120.45,32.98L121.51,32.98L124.68,32.32L125.74,31.32L128.91,28.87L129.96,28.87L138.42,29.2L139.47,30.32L147.92,30.32L148.98,28.76L150.04,28.76L151.09,26.09L155.32,26.09L156.38,23.09L162.72,23.09L163.77,21.31L170.11,18.42L171.17,18.42L173.28,14.64L174.34,14.64L175.4,12.75L176.45,8.2L185.96,8.2L187.02,9.86L189.13,10.64L190.19,10.64L192.3,12.86L193.36,13.53L198.64,12.31L199.7,12.31L206.04,12.42L207.09,8.75L209.21,5.08L210.26,4.97L213.43,5.86L214.49,3.75L217.66,4.75L218.72,5.64L220.83,6.75L221.89,10.53L222.94,11.86L224,10.53L226.11,10.64L227.17,8.86L229.28,8.97L230.34,9.09L232.45,8.64L233.51,7.75L236.68,4.64L237.74,4.64L240.91,6.64L241.96,5.75L244.08,6.42L245.13,8.64L247.25,14.87L248.3,14.64L251.47,15.75L252.53,16.09L254.64,14.64L255.7,15.87L257.81,16.64L258.87,15.09L262.04,8.31L263.09,8.2L265.21,5.86L266.26,5.75L268.38,5.97L269.43,7.75L274.72,6.97L275.77,6.31L278.94,5.86L280,4.97" style="vector-effect: none; fill: none; stroke: rgb(138, 44, 81); stroke-opacity: 1; stroke-width: 5px; opacity: 1;"/></g><g class="points"/><g class="text"/></g><g class="trace scatter trace30d042" style="stroke-miterlimit: 2; opacity: 1;"><g class="fills"/><g class="errorbars"/><g class="lines"><path class="js-line" d="M0,26.54L4.23,28.09L5.28,28.09L8.45,27.87L9.51,27.2L61.28,28.2L62.34,31.32L72.91,30.32L73.96,27.76L76.08,23.98L77.13,24.98L78.19,25.98L79.25,22.65L88.75,22.65L89.81,24.31L90.87,24.31L91.92,22.65L92.98,24.31L94.04,22.31L96.15,21.87L97.21,23.98L99.32,21.87L100.38,21.87L101.43,21.87L102.49,23.98L103.55,23.98L104.6,21.87L106.72,23.98L107.77,21.98L109.89,24.54L110.94,24.54L117.28,25.76L118.34,27.65L121.51,28.43L122.57,28.43L136.3,29.2L137.36,29.87L162.72,30.87L163.77,32.65L171.17,34.98L172.23,32.87L175.4,33.98L176.45,35.43L185.96,35.43L187.02,33.87L189.13,32.98L190.19,32.98L191.25,32.54L192.3,29.98L194.42,29.43L195.47,29.76L206.04,29.2L207.09,32.09L209.21,35.43L210.26,35.54L212.38,33.76L213.43,32.98L215.55,35.1L216.6,34.54L220.83,32.09L221.89,28.32L222.94,26.98L224,28.32L226.11,28.2L227.17,29.98L229.28,29.87L230.34,29.76L232.45,30.2L233.51,31.09L236.68,34.21L237.74,34.21L240.91,32.21L241.96,33.09L244.08,32.43L245.13,30.2L247.25,23.98L248.3,24.2L251.47,23.09L252.53,22.76L254.64,24.2L255.7,22.98L257.81,22.2L258.87,23.76L262.04,30.54L263.09,30.65L265.21,32.98L266.26,33.09L268.38,32.87L269.43,31.09L274.72,31.87L275.77,32.54L278.94,32.98L280,33.87" style="vector-effect: none; fill: none; stroke: rgb(0, 174, 239); stroke-opacity: 1; stroke-width: 5px; opacity: 1;"/></g><g class="points"/><g class="text"/></g><g class="trace scatter trace5cf5c1" style="stroke-miterlimit: 2; opacity: 1;"><g class="fills"/><g class="errorbars"/><g class="lines"><path class="js-line" d="M0,63.77L7.4,64.88L8.45,64.22L11.62,63.55L12.68,63.55L45.43,63.77L46.49,65.11L61.28,64.22L62.34,56.99L73.96,57.66L75.02,58.33L94.04,58.66L95.09,59.1L106.72,58.33L107.77,61.55L109.89,59.33L110.94,59.33L112,59.44L113.06,61.11L115.17,62.44L116.23,62.44L117.28,62.11L118.34,63.22L124.68,63.33L125.74,63.22L133.13,63.88L134.19,63.88L136.3,63.44L137.36,62.44L138.42,62.44L139.47,60.88L147.92,60.88L148.98,62.33L154.26,64.33L155.32,64.33L157.43,65.22L158.49,65.22L171.17,65.55L172.23,69L191.25,70.11L192.3,71.11L206.04,72.22L207.09,73L212.38,73.55" style="vector-effect: none; fill: none; stroke: rgb(255, 1, 170); stroke-opacity: 1; stroke-width: 5px; opacity: 1;"/></g><g class="points"/><g class="text"/></g><g class="trace scatter tracec191b8" style="stroke-miterlimit: 2; opacity: 1;"><g class="fills"/><g class="errorbars"/><g class="lines"><path class="js-line" d="M0,63.33L6.34,63.77L7.4,63.33L27.47,64.66L28.53,64.66L45.43,64.44L46.49,66.11L61.28,65.44L62.34,66.89L73.96,67.22L75.02,68.44L77.13,67.77L78.19,67.11L80.3,69L81.36,69L107.77,68.11L108.83,67.33L113.06,68.55L114.11,69.11L124.68,70.33L125.74,70.78L133.13,71.55L134.19,71.55L171.17,71.55L172.23,73.67L175.4,73.89" style="vector-effect: none; fill: none; stroke: rgb(238, 58, 67); stroke-opacity: 1; stroke-width: 5px; opacity: 1;"/></g><g class="points"/><g class="text"/></g><g class="trace scatter traced72ee4" style="stroke-miterlimit: 2; opacity: 1;"><g class="fills"/><g class="errorbars"/><g class="lines"><path class="js-line" d="M0,66.22L6.34,66.44L7.4,64.88L9.51,68.33L10.57,68.33L76.08,68.89L77.13,69.33L79.25,69L80.3,69L113.06,70.11L114.11,70.33L125.74,71.55L126.79,71.78L131.02,72.11L132.08,72.11L171.17,73.33L172.23,73.67L175.4,73.89" style="vector-effect: none; fill: none; stroke: rgb(202, 166, 105); stroke-opacity: 1; stroke-width: 5px; opacity: 1;"/></g><g class="points"/><g class="text"/></g></g></g><g class="overplot"/><path class="xlines-above crisp" d="M0,0" style="fill: none;"/><path class="ylines-above crisp" d="M0,0" style="fill: none;"/><g class="overlines-above"/><g class="xaxislayer-above"/><g class="yaxislayer-above"/><g class="overaxes-above"/></g></g><g class="polarlayer"/><g class="smithlayer"/><g class="ternarylayer"/><g class="geolayer"/><g class="funnelarealayer"/><g class="pielayer"/><g class="iciclelayer"/><g class="treemaplayer"/><g class="sunburstlayer"/><g class="glimages"/><defs id="topdefs-b4ea1b"><g class="clips"/></defs><g class="layer-above"><g class="imagelayer"/><g class="shapelayer"/></g><g class="infolayer"><g class="g-gtitle"><text class="gtitle" x="15" y="25" text-anchor="start" dy="0em" style="font-family: Ubuntu, verdana, arial, sans-serif; font-size: 16px; fill: rgb(233, 84, 32); opacity: 1; font-weight: normal; white-space: pre;">Prezident/ka 2024</text></g><g class="g-xtitle"/><g class="g-ytitle"/></g></svg>