<svg class="main-svg" xmlns="http://www.w3.org/2000/svg" xmlns:xlink="http://www.w3.org/1999/xlink" width="300" height="135" style="" viewBox="0 0 300 135"><rect x="0" y="0" width="300" height="135" style="fill: rgb(255, 255, 255); fill-opacity: 1;"/><defs id="defs-98a362"><g class="clips"><clipPath id="clip98a362xyplot" class="plotclip"><rect width="280" height="75"/></clipPath><clipPath class="axesclip" id="clip98a362x"><rect x="10" y="0" width="280" height="135"/></clipPath><clipPath class="axesclip" id="clip98a362y"><rect x="0" y="50" width="300" height="75"/></clipPath><clipPath class="axesclip" id="clip98a362xy"><rect x="10" y="50" width="280" height="75"/></clipPath></g><g class="gradients"/><g class="patterns"/></defs><g class="bglayer"/><g class="layer-below"><g class="imagelayer"/><g class="shapelayer"/></g><g class="cartesianlayer"><g class="subplot xy"><g class="layer-subplot"><g class="shapelayer"/><g class="imagelayer"/></g><g class="minor-gridlayer"><g class="x"/><g class="y"/></g><g class="gridlayer"><g class="x"><path class="xgrid crisp" transform="translate(29.86,0)" d="M0,50v75" style="stroke: rgb(235, 240, 248); stroke-opacity: 1; stroke-width: 1px;"/><path class="xgrid crisp" transform="translate(91.42,0)" d="M0,50v75" style="stroke: rgb(235, 240, 248); stroke-opacity: 1; stroke-width: 1px;"/><path class="xgrid crisp" transform="translate(152.98,0)" d="M0,50v75" style="stroke: rgb(235, 240, 248); stroke-opacity: 1; stroke-width: 1px;"/><path class="xgrid crisp" transform="translate(212.55,0)" d="M0,50v75" style="stroke: rgb(235, 240, 248); stroke-opacity: 1; stroke-width: 1px;"/><path class="xgrid crisp" transform="translate(274.11,0)" d="M0,50v75" style="stroke: rgb(235, 240, 248); stroke-opacity: 1; stroke-width: 1px;"/></g><g class="y"><path class="ygrid crisp" transform="translate(0,109.38)" d="M10,0h280" style="stroke: rgb(235, 240, 248); stroke-opacity: 1; stroke-width: 1px;"/><path class="ygrid crisp" transform="translate(0,93.75)" d="M10,0h280" style="stroke: rgb(235, 240, 248); stroke-opacity: 1; stroke-width: 1px;"/><path class="ygrid crisp" transform="translate(0,78.13)" d="M10,0h280" style="stroke: rgb(235, 240, 248); stroke-opacity: 1; stroke-width: 1px;"/><path class="ygrid crisp" transform="translate(0,62.5)" d="M10,0h280" style="stroke: rgb(235, 240, 248); stroke-opacity: 1; stroke-width: 1px;"/></g></g><g class="zerolinelayer"><path class="yzl zl crisp" transform="translate(0,125)" d="M10,0h280" style="stroke: rgb(235, 240, 248); stroke-opacity: 1; stroke-width: 2px;"/></g><path class="xlines-below"/><path class="ylines-below"/><g class="overlines-below"/><g class="xaxislayer-below"/><g class="yaxislayer-below"/><g class="overaxes-below"/><g class="plot" transform="translate(10,50)" clip-path="url(#clip98a362xyplot)"><g class="scatterlayer mlayer"><g class="trace scatter trace6e895f" style="stroke-miterlimit: 2; opacity: 1;"><g class="fills"/><g class="errorbars"/><g class="lines"><path class="js-line" d="M0,43.44L3.97,39.38L5.96,39.38L15.89,39.53L17.87,38.75L45.67,37.66L47.66,36.88L85.39,35.78L87.38,29.69L111.21,29.69L115.18,33.75L117.16,32.97L121.13,32.97L137.02,32.66L139.01,35.94L142.98,37.34L144.96,36.88L146.95,36.25L148.94,37.66L200.57,36.88L202.55,34.06L206.52,35L208.51,35L210.5,34.69L212.48,29.69L214.47,26.72L216.45,26.72L220.43,25.78L222.41,20.63L224.4,18.13L226.38,17.66L234.33,16.72L236.31,15L242.27,11.41L244.26,11.41L260.14,11.87L262.13,13.44L278.01,13.44L280,11.25" style="vector-effect: none; fill: none; stroke: rgb(138, 44, 81); stroke-opacity: 1; stroke-width: 5px; opacity: 1;"/></g><g class="points"/><g class="text"/></g><g class="trace scatter trace4b09ab" style="stroke-miterlimit: 2; opacity: 1;"><g class="fills"/><g class="errorbars"/><g class="lines"><path class="js-line" d="M0,9.06L5.96,11.25L7.94,11.25L15.89,10.63L17.87,10.16L45.67,10.94L47.66,11.56L115.18,11.56L117.16,15.94L135.04,15.16L137.02,14.53L140.99,5.78L142.98,5.78L146.95,8.44L148.94,3.91L166.81,3.91L168.79,6.25L170.78,6.25L172.77,3.91L174.75,6.25L176.74,3.75L180.71,3.75L182.7,6.09L184.68,3.75L186.67,3.75L190.64,3.75L192.62,6.09L194.61,6.09L196.6,3.75L198.58,6.09L200.57,6.09L202.55,3.75L204.54,6.72L218.44,7.66L220.43,8.13L224.4,11.41L226.38,11.41L256.17,11.72L258.16,12.66L280,13.75" style="vector-effect: none; fill: none; stroke: rgb(0, 174, 239); stroke-opacity: 1; stroke-width: 5px; opacity: 1;"/></g><g class="points"/><g class="text"/></g><g class="trace scatter tracea08909" style="stroke-miterlimit: 2; opacity: 1;"><g class="fills"/><g class="errorbars"/><g class="lines"><path class="js-line" d="M0,59.69L13.9,61.09L15.89,60.31L19.86,59.53L21.84,59.53L85.39,59.84L87.38,61.72L111.21,61.72L115.18,60.31L117.16,50.78L121.13,50.78L139.01,51.56L140.99,52.34L174.75,51.88L176.74,52.97L180.71,53.59L182.7,52.5L186.67,53.59L188.65,53.59L200.57,52.5L202.55,57.03L204.54,53.75L206.52,53.75L210.5,53.91L212.48,56.25L214.47,57.97L216.45,57.97L220.43,57.5L222.41,58.91L232.34,59.22L234.33,59.06L244.26,59.53L246.24,59.53L256.17,59.06L258.16,57.81L260.14,57.81L262.13,55.47L278.01,55.47L280,57.03" style="vector-effect: none; fill: none; stroke: rgb(255, 1, 170); stroke-opacity: 1; stroke-width: 5px; opacity: 1;"/></g><g class="points"/><g class="text"/></g><g class="trace scatter trace1b4076" style="stroke-miterlimit: 2; opacity: 1;"><g class="fills"/><g class="errorbars"/><g class="lines"><path class="js-line" d="M0,59.22L11.91,59.69L13.9,58.91L25.82,60L27.8,60L41.7,60.94L43.69,60.94L85.39,60.78L87.38,63.13L115.18,62.03L117.16,64.06L139.01,64.38L140.99,66.09L144.96,65.16L146.95,64.38L148.94,66.88L150.92,66.88L202.55,65.78L204.54,64.53L210.5,64.69L212.48,66.25L216.45,67.03L218.44,67.03L238.3,69.38L240.28,70.16L280,70.31" style="vector-effect: none; fill: none; stroke: rgb(238, 58, 67); stroke-opacity: 1; stroke-width: 5px; opacity: 1;"/></g><g class="points"/><g class="text"/></g><g class="trace scatter traceaee95b" style="stroke-miterlimit: 2; opacity: 1;"><g class="fills"/><g class="errorbars"/><g class="lines"><path class="js-line" d="M0,62.97L11.91,63.44L13.9,61.09L17.87,65.94L19.86,65.94L135.04,66.72L137.02,66.88L200.57,67.81L202.55,68.44L214.47,68.59L216.45,68.59L234.33,69.84L236.31,70.31L254.18,71.09L256.17,71.09L280,71.09" style="vector-effect: none; fill: none; stroke: rgb(202, 166, 105); stroke-opacity: 1; stroke-width: 5px; opacity: 1;"/></g><g class="points"/><g class="text"/></g></g></g><g class="overplot"/><path class="xlines-above crisp" d="M0,0" style="fill: none;"/><path class="ylines-above crisp" d="M0,0" style="fill: none;"/><g class="overlines-above"/><g class="xaxislayer-above"/><g class="yaxislayer-above"/><g class="overaxes-above"/></g></g><g class="polarlayer"/><g class="smithlayer"/><g class="ternarylayer"/><g class="geolayer"/><g class="funnelarealayer"/><g class="pielayer"/><g class="iciclelayer"/><g class="treemaplayer"/><g class="sunburstlayer"/><g class="glimages"/><defs id="topdefs-98a362"><g class="clips"/></defs><g class="layer-above"><g class="imagelayer"/><g class="shapelayer"/></g><g class="infolayer"><g class="g-gtitle"><text class="gtitle" x="15" y="25" text-anchor="start" dy="0em" style="font-family: Ubuntu, verdana, arial, sans-serif; font-size: 16px; fill: rgb(233, 84, 32); opacity: 1; font-weight: normal; white-space: pre;">Prezident/ka 2024</text></g><g class="g-xtitle"/><g class="g-ytitle"/></g></svg>