<svg class="main-svg" xmlns="http://www.w3.org/2000/svg" xmlns:xlink="http://www.w3.org/1999/xlink" width="300" height="135" style="" viewBox="0 0 300 135"><rect x="0" y="0" width="300" height="135" style="fill: rgb(255, 255, 255); fill-opacity: 1;"/><defs id="defs-1c67cb"><g class="clips"><clipPath id="clip1c67cbxyplot" class="plotclip"><rect width="280" height="75"/></clipPath><clipPath class="axesclip" id="clip1c67cbx"><rect x="10" y="0" width="280" height="135"/></clipPath><clipPath class="axesclip" id="clip1c67cby"><rect x="0" y="50" width="300" height="75"/></clipPath><clipPath class="axesclip" id="clip1c67cbxy"><rect x="10" y="50" width="280" height="75"/></clipPath></g><g class="gradients"/><g class="patterns"/></defs><g class="bglayer"/><g class="layer-below"><g class="imagelayer"/><g class="shapelayer"/></g><g class="cartesianlayer"><g class="subplot xy"><g class="layer-subplot"><g class="shapelayer"/><g class="imagelayer"/></g><g class="minor-gridlayer"><g class="x"/><g class="y"/></g><g class="gridlayer"><g class="x"><path class="xgrid crisp" transform="translate(20.14,0)" d="M0,50v75" style="stroke: rgb(235, 240, 248); stroke-opacity: 1; stroke-width: 1px;"/><path class="xgrid crisp" transform="translate(83.04,0)" d="M0,50v75" style="stroke: rgb(235, 240, 248); stroke-opacity: 1; stroke-width: 1px;"/><path class="xgrid crisp" transform="translate(144.93,0)" d="M0,50v75" style="stroke: rgb(235, 240, 248); stroke-opacity: 1; stroke-width: 1px;"/><path class="xgrid crisp" transform="translate(206.81,0)" d="M0,50v75" style="stroke: rgb(235, 240, 248); stroke-opacity: 1; stroke-width: 1px;"/><path class="xgrid crisp" transform="translate(267.68,0)" d="M0,50v75" style="stroke: rgb(235, 240, 248); stroke-opacity: 1; stroke-width: 1px;"/></g><g class="y"><path class="ygrid crisp" transform="translate(0,105.03999999999999)" d="M10,0h280" style="stroke: rgb(235, 240, 248); stroke-opacity: 1; stroke-width: 1px;"/><path class="ygrid crisp" transform="translate(0,85.08)" d="M10,0h280" style="stroke: rgb(235, 240, 248); stroke-opacity: 1; stroke-width: 1px;"/><path class="ygrid crisp" transform="translate(0,65.13)" d="M10,0h280" style="stroke: rgb(235, 240, 248); stroke-opacity: 1; stroke-width: 1px;"/></g></g><g class="zerolinelayer"><path class="yzl zl crisp" transform="translate(0,125)" d="M10,0h280" style="stroke: rgb(235, 240, 248); stroke-opacity: 1; stroke-width: 2px;"/></g><path class="xlines-below"/><path class="ylines-below"/><g class="overlines-below"/><g class="xaxislayer-below"/><g class="yaxislayer-below"/><g class="overaxes-below"/><g class="plot" transform="translate(10,50)" clip-path="url(#clip1c67cbxyplot)"><g class="scatterlayer mlayer"><g class="trace scatter trace7fff42" style="stroke-miterlimit: 2; opacity: 1;"><g class="fills"/><g class="errorbars"/><g class="lines"><path class="js-line" d="M0,54.14L3.04,51.55L4.06,51.55L14.2,51.05L15.22,50.75L37.54,49.65L38.55,48.95L43.62,48.95L44.64,44.76L56.81,44.76L58.84,47.66L61.88,47.06L62.9,47.06L70,46.86L71.01,49.05L73.04,50.15L74.06,49.75L76.09,50.25L77.1,50.25L102.46,49.65L103.48,47.66L105.51,48.46L106.52,48.46L107.54,48.26L108.55,44.96L110.58,42.97L111.59,42.97L112.61,42.47L113.62,39.18L115.65,37.28L116.67,37.28L119.71,36.68L120.72,35.78L123.77,33.59L124.78,33.59L132.9,33.89L133.91,34.88L142.03,34.88L143.04,33.49L144.06,33.49L145.07,31.09L149.13,31.09L150.14,28.4L156.23,28.4L157.25,26.8L163.33,24.21L164.35,24.21L166.38,20.81L167.39,20.81L170.43,15.03L171.45,15.03L178.55,15.03L179.57,16.52L182.61,17.22L183.62,17.62L185.65,19.82L186.67,19.42L189.71,18.72L190.72,18.72L197.83,18.82L198.84,15.53L200.87,12.23L201.88,12.13L204.93,12.93L205.94,11.03L208.99,11.93L210,12.73L212.03,13.73L213.04,17.12L214.06,18.32L215.07,17.12L217.1,17.22L218.12,15.63L220.14,15.72L221.16,15.82L223.19,15.43L224.2,14.63L227.25,11.83L228.26,11.83L231.3,13.63L232.32,12.83L234.35,13.43L235.36,15.43L237.39,21.01L238.41,20.81L241.45,21.81L242.46,22.11L244.49,20.81L245.51,21.91L247.54,22.61L248.55,21.21L251.59,15.13L252.61,15.03L254.64,12.93L255.65,12.83L257.68,13.03L258.7,14.63L263.77,13.93L264.78,13.33L267.83,12.93L268.84,11.93L270.87,10.93L271.88,8.24L275.94,6.14L276.96,5.55L278.99,3.75L280,4.45" style="vector-effect: none; fill: none; stroke: rgb(138, 44, 81); stroke-opacity: 1; stroke-width: 5px; opacity: 1;"/></g><g class="points"/><g class="text"/></g><g class="trace scatter tracedf6bc2" style="stroke-miterlimit: 2; opacity: 1;"><g class="fills"/><g class="errorbars"/><g class="lines"><path class="js-line" d="M0,31.49L4.06,32.89L5.07,32.89L8.12,32.69L9.13,32.09L58.84,32.99L59.86,35.78L70,34.88L71.01,32.59L73.04,29.2L74.06,30.09L75.07,30.99L76.09,28L85.22,28L86.23,29.5L87.25,29.5L88.26,28L89.28,29.5L90.29,27.7L92.32,27.3L93.33,29.2L95.36,27.3L96.38,27.3L97.39,27.3L98.41,29.2L99.42,29.2L100.43,27.3L102.46,29.2L103.48,27.4L105.51,29.7L106.52,29.7L112.61,30.79L113.62,32.49L116.67,33.19L117.68,33.19L130.87,33.89L131.88,34.49L156.23,35.38L157.25,36.98L164.35,39.08L165.36,37.18L168.41,38.18L169.42,39.47L178.55,39.47L179.57,38.08L181.59,37.28L182.61,37.28L183.62,36.88L184.64,34.59L186.67,34.09L187.68,34.39L197.83,33.89L198.84,36.48L201.88,39.57L202.9,39.28L204.93,37.28L205.94,39.18L208.99,38.28L210,37.48L212.03,36.48L213.04,33.09L214.06,31.89L215.07,33.09L217.1,32.99L218.12,34.59L220.14,34.49L221.16,34.39L223.19,34.78L224.2,35.58L227.25,38.38L228.26,38.38L231.3,36.58L232.32,37.38L234.35,36.78L235.36,34.78L237.39,29.2L238.41,29.4L241.45,28.4L242.46,28.1L244.49,29.4L245.51,28.3L247.54,27.6L248.55,29L251.59,35.08L252.61,35.18L254.64,37.28L255.65,37.38L257.68,37.18L258.7,35.58L263.77,36.28L264.78,36.88L267.83,37.28L268.84,38.28L270.87,39.28L271.88,41.97L275.94,44.07L276.96,44.66L278.99,46.46L280,45.76" style="vector-effect: none; fill: none; stroke: rgb(0, 174, 239); stroke-opacity: 1; stroke-width: 5px; opacity: 1;"/></g><g class="points"/><g class="text"/></g><g class="trace scatter trace209c61" style="stroke-miterlimit: 2; opacity: 1;"><g class="fills"/><g class="errorbars"/><g class="lines"><path class="js-line" d="M0,64.52L6.09,64.92L7.1,64.52L27.39,65.72L28.41,65.72L43.62,65.52L44.64,67.02L58.84,66.42L59.86,67.72L71.01,68.01L72.03,69.11L75.07,67.91L76.09,69.61L103.48,68.81L104.49,68.11L108.55,69.21L109.57,69.71L119.71,70.81L120.72,71.21L128.84,71.91L129.86,71.91L164.35,71.91L165.36,73.8L168.41,74" style="vector-effect: none; fill: none; stroke: rgb(238, 58, 67); stroke-opacity: 1; stroke-width: 5px; opacity: 1;"/></g><g class="points"/><g class="text"/></g><g class="trace scatter trace2e9a25" style="stroke-miterlimit: 2; opacity: 1;"><g class="fills"/><g class="errorbars"/><g class="lines"><path class="js-line" d="M0,68.01L12.17,68.11L13.19,68.11L43.62,69.21L44.64,70.01L58.84,68.81L59.86,71.41L102.46,72.41L103.48,72.7L110.58,72.61L111.59,72.61L133.91,73.7L135.94,73.7L149.13,73.7" style="vector-effect: none; fill: none; stroke: rgb(255, 192, 203); stroke-opacity: 1; stroke-width: 5px; opacity: 1;"/></g><g class="points"/><g class="text"/></g><g class="trace scatter trace5a0614" style="stroke-miterlimit: 2; opacity: 1;"><g class="fills"/><g class="errorbars"/><g class="lines"><path class="js-line" d="M0,64.92L8.12,65.32L9.13,64.72L43.62,64.92L44.64,66.12L58.84,65.32L59.86,58.83L75.07,59.33L76.09,60.13L102.46,60.03L103.48,62.93L105.51,60.93L106.52,60.93L107.54,61.03L108.55,62.53L110.58,63.72L111.59,63.72L113.62,64.42L114.64,64.62L130.87,64.62L131.88,63.72L132.9,63.72L133.91,62.33L142.03,62.33L143.04,63.62L148.12,65.42L149.13,65.42L151.16,66.22L152.17,66.22L164.35,66.52L165.36,69.61L183.62,70.61L184.64,71.51L197.83,72.51L198.84,73.2L203.91,73.7" style="vector-effect: none; fill: none; stroke: rgb(255, 1, 170); stroke-opacity: 1; stroke-width: 5px; opacity: 1;"/></g><g class="points"/><g class="text"/></g></g></g><g class="overplot"/><path class="xlines-above crisp" d="M0,0" style="fill: none;"/><path class="ylines-above crisp" d="M0,0" style="fill: none;"/><g class="overlines-above"/><g class="xaxislayer-above"/><g class="yaxislayer-above"/><g class="overaxes-above"/></g></g><g class="polarlayer"/><g class="smithlayer"/><g class="ternarylayer"/><g class="geolayer"/><g class="funnelarealayer"/><g class="pielayer"/><g class="iciclelayer"/><g class="treemaplayer"/><g class="sunburstlayer"/><g class="glimages"/><defs id="topdefs-1c67cb"><g class="clips"/></defs><g class="layer-above"><g class="imagelayer"/><g class="shapelayer"/></g><g class="infolayer"><g class="g-gtitle"><text class="gtitle" x="15" y="25" text-anchor="start" dy="0em" style="font-family: Ubuntu, verdana, arial, sans-serif; font-size: 16px; fill: rgb(233, 84, 32); opacity: 1; font-weight: normal; white-space: pre;">Prezident/ka 2024</text></g><g class="g-xtitle"/><g class="g-ytitle"/></g></svg>