<svg class="main-svg" xmlns="http://www.w3.org/2000/svg" xmlns:xlink="http://www.w3.org/1999/xlink" width="300" height="135" style="" viewBox="0 0 300 135"><rect x="0" y="0" width="300" height="135" style="fill: rgb(255, 255, 255); fill-opacity: 1;"/><defs id="defs-4095d6"><g class="clips"><clipPath id="clip4095d6xyplot" class="plotclip"><rect width="280" height="75"/></clipPath><clipPath class="axesclip" id="clip4095d6x"><rect x="10" y="0" width="280" height="135"/></clipPath><clipPath class="axesclip" id="clip4095d6y"><rect x="0" y="50" width="300" height="75"/></clipPath><clipPath class="axesclip" id="clip4095d6xy"><rect x="10" y="50" width="280" height="75"/></clipPath></g><g class="gradients"/><g class="patterns"/></defs><g class="bglayer"/><g class="layer-below"><g class="imagelayer"/><g class="shapelayer"/></g><g class="cartesianlayer"><g class="subplot xy"><g class="layer-subplot"><g class="shapelayer"/><g class="imagelayer"/></g><g class="minor-gridlayer"><g class="x"/><g class="y"/></g><g class="gridlayer"><g class="x"><path class="xgrid crisp" transform="translate(20.45,0)" d="M0,50v75" style="stroke: rgb(235, 240, 248); stroke-opacity: 1; stroke-width: 1px;"/><path class="xgrid crisp" transform="translate(85.22,0)" d="M0,50v75" style="stroke: rgb(235, 240, 248); stroke-opacity: 1; stroke-width: 1px;"/><path class="xgrid crisp" transform="translate(148.96,0)" d="M0,50v75" style="stroke: rgb(235, 240, 248); stroke-opacity: 1; stroke-width: 1px;"/><path class="xgrid crisp" transform="translate(212.69,0)" d="M0,50v75" style="stroke: rgb(235, 240, 248); stroke-opacity: 1; stroke-width: 1px;"/><path class="xgrid crisp" transform="translate(275.37,0)" d="M0,50v75" style="stroke: rgb(235, 240, 248); stroke-opacity: 1; stroke-width: 1px;"/></g><g class="y"><path class="ygrid crisp" transform="translate(0,103.7)" d="M10,0h280" style="stroke: rgb(235, 240, 248); stroke-opacity: 1; stroke-width: 1px;"/><path class="ygrid crisp" transform="translate(0,82.4)" d="M10,0h280" style="stroke: rgb(235, 240, 248); stroke-opacity: 1; stroke-width: 1px;"/><path class="ygrid crisp" transform="translate(0,61.1)" d="M10,0h280" style="stroke: rgb(235, 240, 248); stroke-opacity: 1; stroke-width: 1px;"/></g></g><g class="zerolinelayer"><path class="yzl zl crisp" transform="translate(0,125)" d="M10,0h280" style="stroke: rgb(235, 240, 248); stroke-opacity: 1; stroke-width: 2px;"/></g><path class="xlines-below"/><path class="ylines-below"/><g class="overlines-below"/><g class="xaxislayer-below"/><g class="yaxislayer-below"/><g class="overaxes-below"/><g class="plot" transform="translate(10,50)" clip-path="url(#clip4095d6xyplot)"><g class="scatterlayer mlayer"><g class="trace scatter tracec88dc6" style="stroke-miterlimit: 2; opacity: 1;"><g class="fills"/><g class="errorbars"/><g class="lines"><path class="js-line" d="M0,52.74L3.13,49.97L4.18,49.97L8.36,50.18L9.4,49.44L24.03,48.59L25.07,47.95L44.93,47.2L45.97,42.73L58.51,42.73L60.6,45.82L63.73,45.18L64.78,45.18L72.09,44.97L73.13,47.31L75.22,48.48L76.27,48.05L77.31,47.63L78.36,48.59L105.52,47.95L106.57,45.82L108.66,46.67L109.7,46.67L110.75,46.46L111.79,42.94L113.88,40.81L114.93,40.81L115.97,40.28L117.01,36.77L119.1,34.74L120.15,34.74L123.28,34.1L124.33,33.14L127.46,30.8L128.51,30.8L136.87,31.12L137.91,32.19L146.27,32.19L147.31,30.7L148.36,30.7L149.4,28.14L153.58,28.14L154.63,25.26L160.9,25.26L161.94,23.56L168.21,20.79L169.25,20.79L171.34,17.17L172.39,17.17L173.43,15.36L174.48,10.99L183.88,10.99L184.93,12.59L188.06,13.34L189.1,13.76L191.19,16.1L192.24,15.68L195.37,14.93L196.42,14.93L203.73,15.04L204.78,11.52L206.87,8.01L207.91,7.9L211.04,8.76L212.09,6.73L215.22,7.69L216.27,8.54L218.36,9.61L219.4,13.23L220.45,14.51L221.49,13.23L223.58,13.34L224.63,11.63L226.72,11.74L227.76,11.84L229.85,11.42L230.9,10.57L234.03,7.58L235.07,7.58L238.21,9.5L239.25,8.65L241.34,9.29L242.39,11.42L244.48,17.38L245.52,17.17L248.66,18.23L249.7,18.55L251.79,17.17L252.84,18.34L254.93,19.09L255.97,17.6L259.1,11.1L260.15,10.99L262.24,8.76L263.28,8.65L265.37,8.86L266.42,10.57L271.64,9.82L272.69,9.18L275.82,8.76L276.87,7.69L278.96,6.63L280,3.75" style="vector-effect: none; fill: none; stroke: rgb(138, 44, 81); stroke-opacity: 1; stroke-width: 5px; opacity: 1;"/></g><g class="points"/><g class="text"/></g><g class="trace scatter trace2bee9e" style="stroke-miterlimit: 2; opacity: 1;"><g class="fills"/><g class="errorbars"/><g class="lines"><path class="js-line" d="M0,28.57L4.18,30.06L5.22,30.06L8.36,29.84L9.4,29.2L60.6,30.16L61.64,33.14L72.09,32.19L73.13,29.74L75.22,26.12L76.27,27.07L77.31,28.03L78.36,24.84L87.76,24.84L88.81,26.43L89.85,26.43L90.9,24.84L91.94,26.43L92.99,24.52L95.07,24.09L96.12,26.12L98.21,24.09L99.25,24.09L100.3,24.09L101.34,26.12L102.39,26.12L103.43,24.09L105.52,26.12L106.57,24.2L108.66,26.65L109.7,26.65L115.97,27.82L117.01,29.63L120.15,30.38L121.19,30.38L134.78,31.12L135.82,31.76L160.9,32.72L161.94,34.42L169.25,36.66L170.3,34.64L173.43,35.7L174.48,37.09L183.88,37.09L184.93,35.59L187.01,34.74L188.06,34.74L189.1,34.32L190.15,31.87L192.24,31.33L193.28,31.65L203.73,31.12L204.78,33.89L206.87,37.09L207.91,37.19L210,35.49L211.04,34.74L213.13,36.77L214.18,36.23L218.36,33.89L219.4,30.27L220.45,28.99L221.49,30.27L223.58,30.16L224.63,31.87L226.72,31.76L227.76,31.65L229.85,32.08L230.9,32.93L234.03,35.91L235.07,35.91L238.21,34L239.25,34.85L241.34,34.21L242.39,32.08L244.48,26.12L245.52,26.33L248.66,25.26L249.7,24.94L251.79,26.33L252.84,25.16L254.93,24.41L255.97,25.9L259.1,32.4L260.15,32.51L262.24,34.74L263.28,34.85L265.37,34.64L266.42,32.93L271.64,33.68L272.69,34.32L275.82,34.74L276.87,35.81L278.96,36.87L280,39.75" style="vector-effect: none; fill: none; stroke: rgb(0, 174, 239); stroke-opacity: 1; stroke-width: 5px; opacity: 1;"/></g><g class="points"/><g class="text"/></g><g class="trace scatter tracef9a523" style="stroke-miterlimit: 2; opacity: 1;"><g class="fills"/><g class="errorbars"/><g class="lines"><path class="js-line" d="M0,64.24L7.31,65.31L8.36,64.67L11.49,64.03L12.54,64.03L44.93,64.24L45.97,65.52L60.6,64.67L61.64,57.75L73.13,58.39L74.18,59.02L92.99,59.34L94.03,59.77L105.52,59.02L106.57,62.11L108.66,59.98L109.7,59.98L110.75,60.09L111.79,61.69L113.88,62.97L114.93,62.97L115.97,62.65L117.01,63.71L123.28,63.82L124.33,63.71L132.69,64.35L133.73,64.35L141.04,61.47L142.09,61.47L146.27,61.47L147.31,62.86L152.54,64.78L153.58,64.78L155.67,65.63L156.72,65.63L169.25,65.95L170.3,69.25L189.1,70.31L190.15,71.27L203.73,72.34L204.78,73.08L210,73.62" style="vector-effect: none; fill: none; stroke: rgb(255, 1, 170); stroke-opacity: 1; stroke-width: 5px; opacity: 1;"/></g><g class="points"/><g class="text"/></g><g class="trace scatter trace9b4e93" style="stroke-miterlimit: 2; opacity: 1;"><g class="fills"/><g class="errorbars"/><g class="lines"><path class="js-line" d="M0,63.82L6.27,64.24L7.31,63.82L29.25,65.1L30.3,65.1L44.93,64.88L45.97,66.48L60.6,65.84L61.64,67.23L73.13,67.54L74.18,68.72L76.27,68.08L77.31,67.44L79.4,69.25L80.45,69.25L106.57,68.4L107.61,67.65L111.79,68.82L112.84,69.36L123.28,70.53L124.33,70.95L131.64,71.7L132.69,71.7L169.25,71.7L170.3,73.72L173.43,73.93" style="vector-effect: none; fill: none; stroke: rgb(238, 58, 67); stroke-opacity: 1; stroke-width: 5px; opacity: 1;"/></g><g class="points"/><g class="text"/></g><g class="trace scatter trace8c0eaf" style="stroke-miterlimit: 2; opacity: 1;"><g class="fills"/><g class="errorbars"/><g class="lines"><path class="js-line" d="M0,67.54L11.49,67.65L12.54,67.65L44.93,68.82L45.97,69.67L58.51,69.67L60.6,68.4L61.64,71.17L63.73,71.17L77.31,72.02L78.36,72.44L123.28,73.19L124.33,73.62L153.58,73.62" style="vector-effect: none; fill: none; stroke: rgb(255, 192, 203); stroke-opacity: 1; stroke-width: 5px; opacity: 1;"/></g><g class="points"/><g class="text"/></g></g></g><g class="overplot"/><path class="xlines-above crisp" d="M0,0" style="fill: none;"/><path class="ylines-above crisp" d="M0,0" style="fill: none;"/><g class="overlines-above"/><g class="xaxislayer-above"/><g class="yaxislayer-above"/><g class="overaxes-above"/></g></g><g class="polarlayer"/><g class="smithlayer"/><g class="ternarylayer"/><g class="geolayer"/><g class="funnelarealayer"/><g class="pielayer"/><g class="iciclelayer"/><g class="treemaplayer"/><g class="sunburstlayer"/><g class="glimages"/><defs id="topdefs-4095d6"><g class="clips"/></defs><g class="layer-above"><g class="imagelayer"/><g class="shapelayer"/></g><g class="infolayer"><g class="g-gtitle"><text class="gtitle" x="15" y="25" text-anchor="start" dy="0em" style="font-family: Ubuntu, verdana, arial, sans-serif; font-size: 16px; fill: rgb(233, 84, 32); opacity: 1; font-weight: normal; white-space: pre;">Prezident/ka 2024</text></g><g class="g-xtitle"/><g class="g-ytitle"/></g></svg>