<svg class="main-svg" xmlns="http://www.w3.org/2000/svg" xmlns:xlink="http://www.w3.org/1999/xlink" width="300" height="135" style="" viewBox="0 0 300 135"><rect x="0" y="0" width="300" height="135" style="fill: rgb(255, 255, 255); fill-opacity: 1;"/><defs id="defs-1ac808"><g class="clips"><clipPath id="clip1ac808xyplot" class="plotclip"><rect width="280" height="75"/></clipPath><clipPath class="axesclip" id="clip1ac808x"><rect x="10" y="0" width="280" height="135"/></clipPath><clipPath class="axesclip" id="clip1ac808y"><rect x="0" y="50" width="300" height="75"/></clipPath><clipPath class="axesclip" id="clip1ac808xy"><rect x="10" y="50" width="280" height="75"/></clipPath></g><g class="gradients"/><g class="patterns"/></defs><g class="bglayer"/><g class="layer-below"><g class="imagelayer"/><g class="shapelayer"/></g><g class="cartesianlayer"><g class="subplot xy"><g class="layer-subplot"><g class="shapelayer"/><g class="imagelayer"/></g><g class="minor-gridlayer"><g class="x"/><g class="y"/></g><g class="gridlayer"><g class="x"><path class="xgrid crisp" transform="translate(22.07,0)" d="M0,50v75" style="stroke: rgb(235, 240, 248); stroke-opacity: 1; stroke-width: 1px;"/><path class="xgrid crisp" transform="translate(96.9,0)" d="M0,50v75" style="stroke: rgb(235, 240, 248); stroke-opacity: 1; stroke-width: 1px;"/><path class="xgrid crisp" transform="translate(170.52,0)" d="M0,50v75" style="stroke: rgb(235, 240, 248); stroke-opacity: 1; stroke-width: 1px;"/><path class="xgrid crisp" transform="translate(244.14,0)" d="M0,50v75" style="stroke: rgb(235, 240, 248); stroke-opacity: 1; stroke-width: 1px;"/></g><g class="y"><path class="ygrid crisp" transform="translate(0,102.77000000000001)" d="M10,0h280" style="stroke: rgb(235, 240, 248); stroke-opacity: 1; stroke-width: 1px;"/><path class="ygrid crisp" transform="translate(0,80.53999999999999)" d="M10,0h280" style="stroke: rgb(235, 240, 248); stroke-opacity: 1; stroke-width: 1px;"/><path class="ygrid crisp" transform="translate(0,58.31)" d="M10,0h280" style="stroke: rgb(235, 240, 248); stroke-opacity: 1; stroke-width: 1px;"/></g></g><g class="zerolinelayer"><path class="yzl zl crisp" transform="translate(0,125)" d="M10,0h280" style="stroke: rgb(235, 240, 248); stroke-opacity: 1; stroke-width: 2px;"/></g><path class="xlines-below"/><path class="ylines-below"/><g class="overlines-below"/><g class="xaxislayer-below"/><g class="yaxislayer-below"/><g class="overaxes-below"/><g class="plot" transform="translate(10,50)" clip-path="url(#clip1ac808xyplot)"><g class="scatterlayer mlayer"><g class="trace scatter tracee618c6" style="stroke-miterlimit: 2; opacity: 1;"><g class="fills"/><g class="errorbars"/><g class="lines"><path class="js-line" d="M0,51.77L3.62,48.88L4.83,48.88L9.66,49.1L10.86,48.32L27.76,47.43L28.97,46.77L51.9,45.99L53.1,41.32L67.59,41.32L70,44.54L73.62,43.88L74.83,43.88L83.28,43.65L84.48,46.1L86.9,47.32L88.1,46.88L89.31,46.43L90.52,47.43L121.9,46.77L123.1,44.54L125.52,45.43L126.72,45.43L127.93,45.21L129.14,41.54L131.55,39.32L132.76,39.32L133.97,38.76L135.17,35.1L137.59,32.98L138.79,32.98L142.41,32.32L143.62,31.32L147.24,28.87L148.45,28.87L158.1,29.2L159.31,30.32L168.97,30.32L170.17,28.76L171.38,28.76L172.59,26.09L177.41,26.09L178.62,23.09L185.86,23.09L187.07,21.31L194.31,18.42L195.52,18.42L197.93,14.64L199.14,14.64L200.34,12.75L201.55,8.2L212.41,8.2L213.62,9.86L216.03,10.64L217.24,10.64L219.66,12.86L220.86,13.53L226.9,12.31L228.1,12.31L235.34,12.42L236.55,8.75L238.97,5.08L240.17,4.97L243.79,5.86L245,3.75L248.62,4.75L249.83,5.64L252.24,6.75L253.45,10.53L254.66,11.86L255.86,10.53L258.28,10.64L259.48,8.86L261.9,8.97L263.1,9.09L265.52,8.64L266.72,7.75L270.34,4.64L271.55,4.64L275.17,6.64L276.38,5.75L278.79,6.42L280,8.2" style="vector-effect: none; fill: none; stroke: rgb(138, 44, 81); stroke-opacity: 1; stroke-width: 5px; opacity: 1;"/></g><g class="points"/><g class="text"/></g><g class="trace scatter tracec55ab6" style="stroke-miterlimit: 2; opacity: 1;"><g class="fills"/><g class="errorbars"/><g class="lines"><path class="js-line" d="M0,26.54L4.83,28.09L6.03,28.09L9.66,27.87L10.86,27.2L70,28.2L71.21,31.32L83.28,30.32L84.48,27.76L86.9,23.98L88.1,24.98L89.31,25.98L90.52,22.65L101.38,22.65L102.59,24.31L103.79,24.31L105,22.65L106.21,24.31L107.41,22.31L109.83,21.87L111.03,23.98L113.45,21.87L114.66,21.87L115.86,21.87L117.07,23.98L118.28,23.98L119.48,21.87L121.9,23.98L123.1,21.98L125.52,24.54L126.72,24.54L133.97,25.76L135.17,27.65L138.79,28.43L140,28.43L155.69,29.2L156.9,29.87L185.86,30.87L187.07,32.65L195.52,34.98L196.72,32.87L200.34,33.98L201.55,35.43L212.41,35.43L213.62,33.87L216.03,32.98L217.24,32.98L218.45,32.54L219.66,29.98L222.07,29.43L223.28,29.76L235.34,29.2L236.55,32.09L238.97,35.43L240.17,35.54L242.59,33.76L243.79,32.98L246.21,35.1L247.41,34.54L252.24,32.09L253.45,28.32L254.66,26.98L255.86,28.32L258.28,28.2L259.48,29.98L261.9,29.87L263.1,29.76L265.52,30.2L266.72,31.09L270.34,34.21L271.55,34.21L275.17,32.21L276.38,33.09L278.79,32.43L280,30.65" style="vector-effect: none; fill: none; stroke: rgb(0, 174, 239); stroke-opacity: 1; stroke-width: 5px; opacity: 1;"/></g><g class="points"/><g class="text"/></g><g class="trace scatter traceebf93e" style="stroke-miterlimit: 2; opacity: 1;"><g class="fills"/><g class="errorbars"/><g class="lines"><path class="js-line" d="M0,63.77L8.45,64.88L9.66,64.22L13.28,63.55L14.48,63.55L51.9,63.77L53.1,65.11L70,64.22L71.21,56.99L84.48,57.66L85.69,58.33L107.41,58.66L108.62,59.1L121.9,58.33L123.1,61.55L125.52,59.33L126.72,59.33L127.93,59.44L129.14,61.11L131.55,62.44L132.76,62.44L133.97,62.11L135.17,63.22L142.41,63.33L143.62,63.22L152.07,63.88L153.28,63.88L155.69,63.44L156.9,62.44L158.1,62.44L159.31,60.88L168.97,60.88L170.17,62.33L176.21,64.33L177.41,64.33L179.83,65.22L181.03,65.22L195.52,65.55L196.72,69L218.45,70.11L219.66,71.11L235.34,72.22L236.55,73L242.59,73.55" style="vector-effect: none; fill: none; stroke: rgb(255, 1, 170); stroke-opacity: 1; stroke-width: 5px; opacity: 1;"/></g><g class="points"/><g class="text"/></g><g class="trace scatter trace866fb3" style="stroke-miterlimit: 2; opacity: 1;"><g class="fills"/><g class="errorbars"/><g class="lines"><path class="js-line" d="M0,63.33L7.24,63.77L8.45,63.33L31.38,64.66L32.59,64.66L51.9,64.44L53.1,66.11L70,65.44L71.21,66.89L84.48,67.22L85.69,68.44L88.1,67.77L89.31,67.11L91.72,69L92.93,69L123.1,68.11L124.31,67.33L129.14,68.55L130.34,69.11L142.41,70.33L143.62,70.78L152.07,71.55L153.28,71.55L195.52,71.55L196.72,73.67L200.34,73.89" style="vector-effect: none; fill: none; stroke: rgb(238, 58, 67); stroke-opacity: 1; stroke-width: 5px; opacity: 1;"/></g><g class="points"/><g class="text"/></g><g class="trace scatter trace36ca8c" style="stroke-miterlimit: 2; opacity: 1;"><g class="fills"/><g class="errorbars"/><g class="lines"><path class="js-line" d="M0,66.22L7.24,66.44L8.45,64.88L10.86,68.33L12.07,68.33L86.9,68.89L88.1,69.33L90.52,69L91.72,69L129.14,70.11L130.34,70.33L143.62,71.55L144.83,71.78L149.66,72.11L150.86,72.11L195.52,73.33L196.72,73.67L200.34,73.89" style="vector-effect: none; fill: none; stroke: rgb(202, 166, 105); stroke-opacity: 1; stroke-width: 5px; opacity: 1;"/></g><g class="points"/><g class="text"/></g></g></g><g class="overplot"/><path class="xlines-above crisp" d="M0,0" style="fill: none;"/><path class="ylines-above crisp" d="M0,0" style="fill: none;"/><g class="overlines-above"/><g class="xaxislayer-above"/><g class="yaxislayer-above"/><g class="overaxes-above"/></g></g><g class="polarlayer"/><g class="smithlayer"/><g class="ternarylayer"/><g class="geolayer"/><g class="funnelarealayer"/><g class="pielayer"/><g class="iciclelayer"/><g class="treemaplayer"/><g class="sunburstlayer"/><g class="glimages"/><defs id="topdefs-1ac808"><g class="clips"/></defs><g class="layer-above"><g class="imagelayer"/><g class="shapelayer"/></g><g class="infolayer"><g class="g-gtitle"><text class="gtitle" x="15" y="25" text-anchor="start" dy="0em" style="font-family: Ubuntu, verdana, arial, sans-serif; font-size: 16px; fill: rgb(233, 84, 32); opacity: 1; font-weight: normal; white-space: pre;">Prezident/ka 2024</text></g><g class="g-xtitle"/><g class="g-ytitle"/></g></svg>