<svg class="main-svg" xmlns="http://www.w3.org/2000/svg" xmlns:xlink="http://www.w3.org/1999/xlink" width="300" height="135" style="" viewBox="0 0 300 135"><rect x="0" y="0" width="300" height="135" style="fill: rgb(255, 255, 255); fill-opacity: 1;"/><defs id="defs-10b98c"><g class="clips"><clipPath id="clip10b98cxyplot" class="plotclip"><rect width="280" height="75"/></clipPath><clipPath class="axesclip" id="clip10b98cx"><rect x="10" y="0" width="280" height="135"/></clipPath><clipPath class="axesclip" id="clip10b98cy"><rect x="0" y="50" width="300" height="75"/></clipPath><clipPath class="axesclip" id="clip10b98cxy"><rect x="10" y="50" width="280" height="75"/></clipPath></g><g class="gradients"/><g class="patterns"/></defs><g class="bglayer"/><g class="layer-below"><g class="imagelayer"/><g class="shapelayer"/></g><g class="cartesianlayer"><g class="subplot xy"><g class="layer-subplot"><g class="shapelayer"/><g class="imagelayer"/></g><g class="minor-gridlayer"><g class="x"/><g class="y"/></g><g class="gridlayer"><g class="x"><path class="xgrid crisp" transform="translate(20.41,0)" d="M0,50v75" style="stroke: rgb(235, 240, 248); stroke-opacity: 1; stroke-width: 1px;"/><path class="xgrid crisp" transform="translate(84.94,0)" d="M0,50v75" style="stroke: rgb(235, 240, 248); stroke-opacity: 1; stroke-width: 1px;"/><path class="xgrid crisp" transform="translate(148.44,0)" d="M0,50v75" style="stroke: rgb(235, 240, 248); stroke-opacity: 1; stroke-width: 1px;"/><path class="xgrid crisp" transform="translate(211.93,0)" d="M0,50v75" style="stroke: rgb(235, 240, 248); stroke-opacity: 1; stroke-width: 1px;"/><path class="xgrid crisp" transform="translate(274.39,0)" d="M0,50v75" style="stroke: rgb(235, 240, 248); stroke-opacity: 1; stroke-width: 1px;"/></g><g class="y"><path class="ygrid crisp" transform="translate(0,103.97999999999999)" d="M10,0h280" style="stroke: rgb(235, 240, 248); stroke-opacity: 1; stroke-width: 1px;"/><path class="ygrid crisp" transform="translate(0,82.96000000000001)" d="M10,0h280" style="stroke: rgb(235, 240, 248); stroke-opacity: 1; stroke-width: 1px;"/><path class="ygrid crisp" transform="translate(0,61.95)" d="M10,0h280" style="stroke: rgb(235, 240, 248); stroke-opacity: 1; stroke-width: 1px;"/></g></g><g class="zerolinelayer"><path class="yzl zl crisp" transform="translate(0,125)" d="M10,0h280" style="stroke: rgb(235, 240, 248); stroke-opacity: 1; stroke-width: 2px;"/></g><path class="xlines-below"/><path class="ylines-below"/><g class="overlines-below"/><g class="xaxislayer-below"/><g class="yaxislayer-below"/><g class="overaxes-below"/><g class="plot" transform="translate(10,50)" clip-path="url(#clip10b98cxyplot)"><g class="scatterlayer mlayer"><g class="trace scatter tracedbd8f4" style="stroke-miterlimit: 2; opacity: 1;"><g class="fills"/><g class="errorbars"/><g class="lines"><path class="js-line" d="M0,53.04L3.12,50.3L4.16,50.3L8.33,50.51L9.37,49.78L23.94,48.94L24.98,48.31L44.76,47.57L45.8,43.16L58.29,43.16L60.37,46.21L63.49,45.58L64.54,45.58L71.82,45.37L72.86,47.68L74.94,48.83L75.99,48.41L77.03,47.99L78.07,48.94L105.13,48.31L106.17,46.21L108.25,47.05L109.29,47.05L110.33,46.84L111.38,43.37L113.46,41.27L114.5,41.27L115.54,40.74L116.58,37.27L118.66,35.28L119.7,35.28L122.83,34.65L123.87,33.7L126.99,31.39L128.03,31.39L136.36,31.7L137.4,32.75L145.72,32.75L146.77,31.28L147.81,31.28L148.85,28.76L153.01,28.76L154.05,25.92L160.3,25.92L161.34,24.24L167.58,21.51L168.62,21.51L170.71,17.94L171.75,17.94L172.79,16.15L173.83,11.84L183.2,11.84L184.24,13.42L187.36,14.15L188.4,14.57L190.48,16.89L191.52,16.47L194.65,15.73L195.69,15.73L202.97,15.84L204.01,12.37L206.1,8.9L207.14,8.79L210.26,9.63L211.3,7.64L214.42,8.58L215.46,9.42L217.55,10.48L218.59,14.05L219.63,15.31L220.67,14.05L222.75,14.15L223.79,12.47L225.87,12.58L226.91,12.68L229,12.26L230.04,11.42L233.16,8.48L234.2,8.48L237.32,10.37L238.36,9.53L240.45,10.16L241.49,12.26L243.57,18.15L244.61,17.94L247.73,18.99L248.77,19.3L250.86,17.94L251.9,19.09L253.98,19.83L255.02,18.36L258.14,11.95L259.18,11.84L261.26,9.63L262.3,9.53L264.39,9.74L265.43,11.42L270.63,10.69L271.67,10.06L274.8,9.63L275.84,8.58L277.92,7.53L278.96,4.7L280,3.75" style="vector-effect: none; fill: none; stroke: rgb(138, 44, 81); stroke-opacity: 1; stroke-width: 5px; opacity: 1;"/></g><g class="points"/><g class="text"/></g><g class="trace scatter tracebdaafa" style="stroke-miterlimit: 2; opacity: 1;"><g class="fills"/><g class="errorbars"/><g class="lines"><path class="js-line" d="M0,29.18L4.16,30.65L5.2,30.65L8.33,30.44L9.37,29.81L60.37,30.76L61.41,33.7L71.82,32.75L72.86,30.34L74.94,26.76L75.99,27.71L77.03,28.66L78.07,25.5L87.43,25.5L88.48,27.08L89.52,27.08L90.56,25.5L91.6,27.08L92.64,25.19L94.72,24.77L95.76,26.76L97.84,24.77L98.88,24.77L99.93,24.77L100.97,26.76L102.01,26.76L103.05,24.77L105.13,26.76L106.17,24.87L108.25,27.29L109.29,27.29L115.54,28.45L116.58,30.23L119.7,30.97L120.74,30.97L134.28,31.7L135.32,32.33L160.3,33.28L161.34,34.96L168.62,37.17L169.67,35.17L172.79,36.22L173.83,37.59L183.2,37.59L184.24,36.12L186.32,35.28L187.36,35.28L188.4,34.86L189.44,32.44L191.52,31.91L192.57,32.23L202.97,31.7L204.01,34.44L206.1,37.59L207.14,37.69L209.22,36.01L210.26,35.28L212.34,37.27L213.38,36.75L217.55,34.44L218.59,30.86L219.63,29.6L220.67,30.86L222.75,30.76L223.79,32.44L225.87,32.33L226.91,32.23L229,32.65L230.04,33.49L233.16,36.43L234.2,36.43L237.32,34.54L238.36,35.38L240.45,34.75L241.49,32.65L243.57,26.76L244.61,26.97L247.73,25.92L248.77,25.61L250.86,26.97L251.9,25.82L253.98,25.08L255.02,26.55L258.14,32.96L259.18,33.07L261.26,35.28L262.3,35.38L264.39,35.17L265.43,33.49L270.63,34.23L271.67,34.86L274.8,35.28L275.84,36.33L277.92,37.38L278.96,40.22L280,41.16" style="vector-effect: none; fill: none; stroke: rgb(0, 174, 239); stroke-opacity: 1; stroke-width: 5px; opacity: 1;"/></g><g class="points"/><g class="text"/></g><g class="trace scatter trace873035" style="stroke-miterlimit: 2; opacity: 1;"><g class="fills"/><g class="errorbars"/><g class="lines"><path class="js-line" d="M0,67.64L11.45,67.75L12.49,67.75L44.76,68.9L45.8,69.75L58.29,69.75L60.37,68.48L61.41,71.22L63.49,71.22L77.03,72.06L78.07,72.48L122.83,73.21L123.87,73.63L153.01,73.63" style="vector-effect: none; fill: none; stroke: rgb(255, 192, 203); stroke-opacity: 1; stroke-width: 5px; opacity: 1;"/></g><g class="points"/><g class="text"/></g><g class="trace scatter traceb0fc7a" style="stroke-miterlimit: 2; opacity: 1;"><g class="fills"/><g class="errorbars"/><g class="lines"><path class="js-line" d="M0,64.39L8.33,64.81L9.37,64.18L44.76,64.39L45.8,65.65L60.37,64.81L61.41,57.98L72.86,58.61L73.9,59.24L92.64,59.55L93.68,59.97L105.13,59.24L106.17,62.28L108.25,60.18L109.29,60.18L110.33,60.29L111.38,61.86L113.46,63.13L114.5,63.13L115.54,62.81L116.58,63.86L122.83,63.97L123.87,63.86L132.19,64.49L133.23,64.49L140.52,61.65L141.56,61.65L145.72,61.65L146.77,63.02L151.97,64.91L153.01,64.91L155.09,65.75L156.13,65.75L168.62,66.07L169.67,69.33L188.4,70.38L189.44,71.32L202.97,72.37L204.01,73.11L209.22,73.63" style="vector-effect: none; fill: none; stroke: rgb(255, 1, 170); stroke-opacity: 1; stroke-width: 5px; opacity: 1;"/></g><g class="points"/><g class="text"/></g><g class="trace scatter tracefec01a" style="stroke-miterlimit: 2; opacity: 1;"><g class="fills"/><g class="errorbars"/><g class="lines"><path class="js-line" d="M0,63.97L6.25,64.39L7.29,63.97L28.1,65.23L29.14,65.23L44.76,65.02L45.8,66.59L60.37,65.96L61.41,67.33L72.86,67.64L73.9,68.8L75.99,68.17L77.03,67.54L79.11,69.33L80.15,69.33L106.17,68.48L107.21,67.75L111.38,68.9L112.42,69.43L122.83,70.59L123.87,71.01L132.19,71.74L133.23,71.74L168.62,71.74L169.67,73.74L172.79,73.95" style="vector-effect: none; fill: none; stroke: rgb(238, 58, 67); stroke-opacity: 1; stroke-width: 5px; opacity: 1;"/></g><g class="points"/><g class="text"/></g></g></g><g class="overplot"/><path class="xlines-above crisp" d="M0,0" style="fill: none;"/><path class="ylines-above crisp" d="M0,0" style="fill: none;"/><g class="overlines-above"/><g class="xaxislayer-above"/><g class="yaxislayer-above"/><g class="overaxes-above"/></g></g><g class="polarlayer"/><g class="smithlayer"/><g class="ternarylayer"/><g class="geolayer"/><g class="funnelarealayer"/><g class="pielayer"/><g class="iciclelayer"/><g class="treemaplayer"/><g class="sunburstlayer"/><g class="glimages"/><defs id="topdefs-10b98c"><g class="clips"/></defs><g class="layer-above"><g class="imagelayer"/><g class="shapelayer"/></g><g class="infolayer"><g class="g-gtitle"><text class="gtitle" x="15" y="25" text-anchor="start" dy="0em" style="font-family: Ubuntu, verdana, arial, sans-serif; font-size: 16px; fill: rgb(233, 84, 32); opacity: 1; font-weight: normal; white-space: pre;">Prezident/ka 2024</text></g><g class="g-xtitle"/><g class="g-ytitle"/></g></svg>