<svg class="main-svg" xmlns="http://www.w3.org/2000/svg" xmlns:xlink="http://www.w3.org/1999/xlink" width="1200" height="600" style="" viewBox="0 0 1200 600"><rect x="0" y="0" width="1200" height="600" style="fill: rgb(255, 255, 255); fill-opacity: 1;"/><defs id="defs-ef0bc9"><g class="clips"><clipPath id="clipef0bc9xyplot" class="plotclip"><rect width="990" height="530"/></clipPath><clipPath class="axesclip" id="clipef0bc9x"><rect x="50" y="0" width="990" height="600"/></clipPath><clipPath class="axesclip" id="clipef0bc9y"><rect x="0" y="20" width="1200" height="530"/></clipPath><clipPath class="axesclip" id="clipef0bc9xy"><rect x="50" y="20" width="990" height="530"/></clipPath></g><g class="gradients"/><g class="patterns"/></defs><g class="bglayer"/><g class="layer-below"><g class="imagelayer"/><g class="shapelayer"/></g><g class="cartesianlayer"><g class="subplot xy"><g class="layer-subplot"><g class="shapelayer"/><g class="imagelayer"/></g><g class="minor-gridlayer"><g class="x"/><g class="y"/></g><g class="gridlayer"><g class="x"><path class="xgrid crisp" transform="translate(84.14,0)" d="M0,20v530" style="stroke: rgb(235, 240, 248); stroke-opacity: 1; stroke-width: 1px;"/><path class="xgrid crisp" transform="translate(189.97,0)" d="M0,20v530" style="stroke: rgb(235, 240, 248); stroke-opacity: 1; stroke-width: 1px;"/><path class="xgrid crisp" transform="translate(295.78999999999996,0)" d="M0,20v530" style="stroke: rgb(235, 240, 248); stroke-opacity: 1; stroke-width: 1px;"/><path class="xgrid crisp" transform="translate(398.21,0)" d="M0,20v530" style="stroke: rgb(235, 240, 248); stroke-opacity: 1; stroke-width: 1px;"/><path class="xgrid crisp" transform="translate(504.03,0)" d="M0,20v530" style="stroke: rgb(235, 240, 248); stroke-opacity: 1; stroke-width: 1px;"/><path class="xgrid crisp" transform="translate(606.45,0)" d="M0,20v530" style="stroke: rgb(235, 240, 248); stroke-opacity: 1; stroke-width: 1px;"/><path class="xgrid crisp" transform="translate(712.28,0)" d="M0,20v530" style="stroke: rgb(235, 240, 248); stroke-opacity: 1; stroke-width: 1px;"/><path class="xgrid crisp" transform="translate(818.1,0)" d="M0,20v530" style="stroke: rgb(235, 240, 248); stroke-opacity: 1; stroke-width: 1px;"/><path class="xgrid crisp" transform="translate(917.1,0)" d="M0,20v530" style="stroke: rgb(235, 240, 248); stroke-opacity: 1; stroke-width: 1px;"/><path class="xgrid crisp" transform="translate(1022.93,0)" d="M0,20v530" style="stroke: rgb(235, 240, 248); stroke-opacity: 1; stroke-width: 1px;"/></g><g class="y"><path class="ygrid crisp" transform="translate(0,471.45)" d="M50,0h990" style="stroke: rgb(235, 240, 248); stroke-opacity: 1; stroke-width: 1px;"/><path class="ygrid crisp" transform="translate(0,392.9)" d="M50,0h990" style="stroke: rgb(235, 240, 248); stroke-opacity: 1; stroke-width: 1px;"/><path class="ygrid crisp" transform="translate(0,314.35)" d="M50,0h990" style="stroke: rgb(235, 240, 248); stroke-opacity: 1; stroke-width: 1px;"/><path class="ygrid crisp" transform="translate(0,235.8)" d="M50,0h990" style="stroke: rgb(235, 240, 248); stroke-opacity: 1; stroke-width: 1px;"/><path class="ygrid crisp" transform="translate(0,157.25)" d="M50,0h990" style="stroke: rgb(235, 240, 248); stroke-opacity: 1; stroke-width: 1px;"/><path class="ygrid crisp" transform="translate(0,78.71000000000001)" d="M50,0h990" style="stroke: rgb(235, 240, 248); stroke-opacity: 1; stroke-width: 1px;"/></g></g><g class="zerolinelayer"><path class="yzl zl crisp" transform="translate(0,550)" d="M50,0h990" style="stroke: rgb(235, 240, 248); stroke-opacity: 1; stroke-width: 2px;"/></g><path class="xlines-below"/><path class="ylines-below"/><g class="overlines-below"/><g class="xaxislayer-below"/><g class="yaxislayer-below"/><g class="overaxes-below"/><g class="plot" transform="translate(50,20)" clip-path="url(#clipef0bc9xyplot)"><g class="scatterlayer mlayer"><g class="trace scatter trace182e6c" style="stroke-miterlimit: 2; opacity: 1;"><g class="fills"/><g class="errorbars"/><g class="lines"><path class="js-line" d="M0,365.83L6.83,345.41L10.24,345.41L20.48,345.41L23.9,350.91L30.72,341.48L34.14,341.48L47.79,341.48L51.21,339.13L61.45,339.13L64.86,336.77L68.28,335.2L71.69,335.2L78.52,335.2L81.93,330.49L126.31,330.49L129.72,324.99L146.79,324.99L150.21,292L191.17,292L198,314.78L201.41,310.06L208.24,310.06L232.14,309.28L235.55,308.49L238.97,325.77L242.38,334.41L245.79,334.41L249.21,331.27L252.62,328.13L256.03,335.2L286.76,335.2L290.17,332.06L293.59,332.06L297,335.2L300.41,332.06L303.83,334.41L307.24,332.06L310.66,332.06L314.07,330.49L317.48,332.06L327.72,332.06L331.14,330.49L334.55,330.49L337.97,332.06L341.38,330.49L344.79,330.49L348.21,314.78L351.62,321.06L358.45,321.06L361.86,319.49L365.28,293.57L368.69,277.86L375.52,277.86L378.93,273.93L382.34,248.01L385.76,235.44L389.17,233.08L392.59,233.08L399.41,233.08L402.83,228.37L409.66,215.02L413.07,204.02L440.38,204.81L443.79,206.38L447.21,206.38L450.62,214.23L477.93,214.23L481.34,203.24L484.76,203.24L488.17,184.38L501.83,184.38L505.24,163.18L525.72,163.18L529.14,150.61L532.55,145.89L535.97,145.89L539.38,145.89L542.79,141.18L546.21,134.11L549.62,130.18L553.03,130.18L556.45,103.48L563.28,103.48L566.69,90.12L570.1,57.92L573.52,57.92L600.83,57.92L604.24,69.7L607.66,75.2L611.07,75.2L614.48,75.2L617.9,78.34L621.31,90.91L624.72,95.62L628.14,92.48L631.55,86.98L655.45,86.98L658.86,85.41L662.28,89.34L665.69,87.77L672.52,44.57L675.93,35.93L679.34,35.14L682.76,37.5L686.17,46.92L689.59,41.42L693,26.5L696.41,26.5L703.24,33.57L706.66,39.85L710.07,46.92L713.48,47.71L716.9,74.41L720.31,83.84L723.72,74.41L727.14,78.34L730.55,75.2L733.97,62.63L737.38,59.49L740.79,63.42L747.62,65.77L751.03,61.06L754.45,54.78L757.86,43.78L761.28,32.78L764.69,32.78L768.1,32.78L771.52,35.93L774.93,45.35L778.34,46.92L781.76,40.64L785.17,39.85L788.59,45.35L792,61.06L795.41,91.7L798.83,105.05L802.24,103.48L805.66,103.48L809.07,104.26L812.48,111.33L815.9,113.69L819.31,112.12L822.72,103.48L826.14,112.12L832.97,117.62L836.38,106.62L839.79,83.06L843.21,68.92L846.62,58.71L850.03,57.92L853.45,40.64L856.86,41.42L860.28,40.64L863.69,36.71L867.1,42.21L870.52,54.78L880.76,54.78L884.17,50.85L887.59,50.85" style="vector-effect: none; fill: none; stroke: rgb(138, 44, 81); stroke-opacity: 1; stroke-width: 5px; opacity: 1;"/></g><g class="points"/><g class="text"/></g><g class="trace scatter trace9f4b48" style="stroke-miterlimit: 2; opacity: 1;"><g class="fills"/><g class="errorbars"/><g class="lines"><path class="js-line" d="M0,187.53L6.83,198.52L10.24,198.52L20.48,198.52L23.9,204.02L30.72,192.24L34.14,192.24L61.45,192.24L64.86,193.81L68.28,195.38L71.69,195.38L78.52,195.38L81.93,199.31L198,199.31L201.41,221.3L228.72,221.3L232.14,217.37L235.55,214.23L238.97,196.17L242.38,169.46L245.79,169.46L252.62,183.6L256.03,160.03L286.76,160.03L290.17,171.82L293.59,171.82L297,160.03L300.41,171.82L303.83,157.68L307.24,154.54L310.66,154.54L314.07,169.46L317.48,154.54L327.72,154.54L331.14,169.46L334.55,169.46L337.97,154.54L341.38,169.46L344.79,169.46L348.21,155.32L351.62,173.39L361.86,173.39L365.28,178.1L375.52,178.1L378.93,182.03L382.34,195.38L385.76,200.09L392.59,200.88L396,200.88L406.24,200.88L409.66,203.24L416.48,204.02L419.9,204.02L436.97,204.02L440.38,206.38L443.79,211.09L447.21,211.09L450.62,214.23L457.45,214.23L481.34,215.02L484.76,211.88L488.17,219.73L491.59,219.73L501.83,219.73L505.24,218.16L525.72,218.16L529.14,230.73L532.55,233.87L535.97,233.87L539.38,233.87L542.79,238.58L549.62,247.22L553.03,247.22L556.45,232.3L559.86,232.3L563.28,232.3L566.69,240.15L570.1,250.37L573.52,250.37L600.83,250.37L604.24,239.37L607.66,233.08L611.07,233.08L614.48,233.08L617.9,229.94L621.31,211.88L624.72,206.38L631.55,210.3L634.97,210.3L652.03,210.3L655.45,208.73L658.86,210.3L662.28,206.38L665.69,206.38L669.1,226.8L672.52,241.72L675.93,250.37L679.34,251.15L682.76,248.79L686.17,238.58L689.59,233.08L693,248.01L696.41,248.01L703.24,240.94L706.66,234.66L710.07,227.59L713.48,226.8L716.9,200.09L720.31,190.67L723.72,200.09L727.14,196.17L730.55,199.31L733.97,211.88L737.38,215.02L740.79,211.09L747.62,208.73L751.03,213.45L754.45,219.73L757.86,230.73L761.28,241.72L764.69,241.72L768.1,241.72L771.52,238.58L774.93,229.16L778.34,227.59L781.76,233.87L785.17,234.66L788.59,229.16L792,213.45L795.41,182.81L798.83,169.46L802.24,171.03L805.66,171.03L809.07,170.24L812.48,163.18L815.9,160.82L819.31,162.39L822.72,171.03L826.14,162.39L832.97,156.89L836.38,167.89L839.79,191.45L843.21,205.59L846.62,215.8L850.03,216.59L853.45,233.87L856.86,233.08L860.28,233.87L863.69,237.8L867.1,232.3L870.52,219.73L880.76,219.73L884.17,223.66L887.59,223.66" style="vector-effect: none; fill: none; stroke: rgb(0, 174, 239); stroke-opacity: 1; stroke-width: 5px; opacity: 1;"/></g><g class="points"/><g class="text"/></g><g class="trace scatter trace98cd19" style="stroke-miterlimit: 2; opacity: 1;"><g class="fills"/><g class="errorbars"/><g class="lines"><path class="js-line" d="M0,450.67L6.83,453.02L10.24,453.02L20.48,453.02L23.9,458.52L30.72,449.09L34.14,449.09L47.79,449.09L51.21,450.67L64.86,449.88L68.28,449.09L126.31,449.09L129.72,450.67L146.79,450.67L150.21,460.09L191.17,460.09L198,453.81L201.41,402.75L208.24,402.75L228.72,402.75L232.14,405.11L235.55,407.46L238.97,407.46L242.38,412.18L245.79,412.18L252.62,406.68L256.03,412.96L286.76,412.96L290.17,409.82L293.59,409.82L297,412.96L300.41,409.82L303.83,414.53L307.24,417.67L310.66,417.67L314.07,412.18L317.48,417.67L327.72,417.67L331.14,412.18L334.55,412.18L337.97,417.67L341.38,412.18L344.79,412.18L348.21,434.96L351.62,419.25L361.86,420.03L365.28,431.81L368.69,441.24L372.1,441.24L375.52,441.24L378.93,438.88L382.34,446.74L385.76,448.31L402.83,447.52L406.24,446.74L409.66,448.31L413.07,451.45L436.97,451.45L440.38,448.31L443.79,441.24L447.21,441.24L450.62,430.24L457.45,430.24L477.93,430.24L481.34,440.45L484.76,443.6L488.17,454.59L501.83,454.59L505.24,460.88L542.79,461.66L546.21,462.45L553.03,463.23L556.45,487.58L563.28,487.58L566.69,490.73L570.1,495.44L573.52,495.44L617.9,495.44L621.31,502.51L624.72,502.51L628.14,504.08L631.55,507.22L634.97,507.22L652.03,507.22L655.45,508.79L662.28,508.79L665.69,510.36L669.1,515.86L672.52,518.22L682.76,518.22L686.17,519.79" style="vector-effect: none; fill: none; stroke: rgb(255, 1, 170); stroke-opacity: 1; stroke-width: 5px; opacity: 1;"/></g><g class="points"/><g class="text"/></g><g class="trace scatter tracee06006" style="stroke-miterlimit: 2; opacity: 1;"><g class="fills"/><g class="errorbars"/><g class="lines"><path class="js-line" d="M0,447.52L6.83,450.67L10.24,450.67L20.48,450.67L23.9,447.52L27.31,448.31L30.72,452.24L61.45,453.02L64.86,455.38L68.28,456.95L71.69,456.95L126.31,456.95L129.72,455.38L146.79,455.38L150.21,467.16L191.17,467.16L198,462.45L201.41,472.66L208.24,472.66L232.14,473.44L235.55,475.02L238.97,475.02L242.38,483.66L245.79,483.66L249.21,478.94L252.62,474.23L256.03,487.58L286.76,487.58L290.17,481.3L293.59,481.3L297,487.58L300.41,481.3L303.83,486.8L310.66,486.8L314.07,480.51L317.48,486.8L320.9,486.8L327.72,486.8L331.14,480.51L334.55,480.51L337.97,486.8L341.38,480.51L344.79,480.51L348.21,481.3L351.62,475.8L361.86,476.59L365.28,484.44L368.69,488.37L372.1,488.37L375.52,488.37L378.93,489.94L385.76,494.65L389.17,495.44L399.41,495.44L402.83,497.01L413.07,505.65L416.48,505.65L501.83,505.65L505.24,504.86L553.03,505.65L556.45,520.57L563.28,520.57L566.69,522.15" style="vector-effect: none; fill: none; stroke: rgb(238, 58, 67); stroke-opacity: 1; stroke-width: 5px; opacity: 1;"/></g><g class="points"/><g class="text"/></g><g class="trace scatter trace5fa95d" style="stroke-miterlimit: 2; opacity: 1;"><g class="fills"/><g class="errorbars"/><g class="lines"><path class="js-line" d="M0,467.95L10.24,469.52L13.66,469.52L20.48,469.52L23.9,458.52L30.72,482.87L34.14,482.87L64.86,482.09L68.28,481.3L146.79,480.51L150.21,484.44L191.17,484.44L198,482.87L201.41,486.01L208.24,486.01L232.14,486.8L235.55,487.58L245.79,486.8L249.21,489.94L252.62,493.08L256.03,487.58L286.76,487.58L290.17,489.94L293.59,489.94L297,487.58L300.41,489.94L303.83,489.15L307.24,492.3L310.66,492.3L314.07,493.08L317.48,492.3L344.79,493.08L348.21,495.44L365.28,495.44L368.69,497.01L378.93,497.79L382.34,498.58L385.76,500.94L389.17,501.72L399.41,501.72L402.83,503.29L413.07,509.58L416.48,509.58L501.83,509.58L505.24,517.43L553.03,518.22L556.45,520.57L563.28,520.57L566.69,522.15" style="vector-effect: none; fill: none; stroke: rgb(202, 166, 105); stroke-opacity: 1; stroke-width: 5px; opacity: 1;"/></g><g class="points"/><g class="text"/></g><g class="trace scatter trace60c560" style="stroke-miterlimit: 2; opacity: 1;"><g class="fills"/><g class="errorbars"/><g class="lines"><path class="js-line" d="M0,475.02L10.24,477.37L13.66,477.37L23.9,476.59L27.31,475.02L34.14,475.8L37.55,475.8L47.79,475.8L51.21,477.37L78.52,476.59L81.93,478.16L126.31,478.16L129.72,484.44L146.79,484.44L150.21,490.73L191.17,490.73L198,481.3L201.41,501.72L208.24,501.72L238.97,502.51L242.38,508.01L252.62,508.01L256.03,511.15L286.76,511.15L290.17,509.58L293.59,509.58L297,511.15L300.41,509.58L303.83,511.15L310.66,511.15L314.07,509.58L317.48,511.15L320.9,511.15L327.72,511.15L331.14,509.58L334.55,509.58L337.97,511.15L341.38,509.58L344.79,509.58L348.21,511.93L351.62,510.36L375.52,511.15L378.93,511.93L385.76,514.29L389.17,515.08L399.41,515.08L402.83,516.65L406.24,519.79L409.66,519.79L416.48,520.57L419.9,520.57L501.83,519.79" style="vector-effect: none; fill: none; stroke: rgb(255, 192, 203); stroke-opacity: 1; stroke-width: 5px; opacity: 1;"/></g><g class="points"/><g class="text"/></g></g></g><g class="overplot"/><path class="xlines-above crisp" d="M0,0" style="fill: none;"/><path class="ylines-above crisp" d="M0,0" style="fill: none;"/><g class="overlines-above"/><g class="xaxislayer-above"><g class="xtick"><text text-anchor="middle" x="0" y="563" transform="translate(84.14,0)" style="font-family: 'Open Sans', verdana, arial, sans-serif; font-size: 12px; fill: rgb(42, 63, 95); fill-opacity: 1; white-space: pre; opacity: 1;">1.7.23</text></g><g class="xtick"><text text-anchor="middle" x="0" y="563" style="font-family: 'Open Sans', verdana, arial, sans-serif; font-size: 12px; fill: rgb(42, 63, 95); fill-opacity: 1; white-space: pre; opacity: 1;" transform="translate(189.97,0)">1.8.23</text></g><g class="xtick"><text text-anchor="middle" x="0" y="563" style="font-family: 'Open Sans', verdana, arial, sans-serif; font-size: 12px; fill: rgb(42, 63, 95); fill-opacity: 1; white-space: pre; opacity: 1;" transform="translate(295.78999999999996,0)">1.9.23</text></g><g class="xtick"><text text-anchor="middle" x="0" y="563" style="font-family: 'Open Sans', verdana, arial, sans-serif; font-size: 12px; fill: rgb(42, 63, 95); fill-opacity: 1; white-space: pre; opacity: 1;" transform="translate(398.21,0)">1.10.23</text></g><g class="xtick"><text text-anchor="middle" x="0" y="563" style="font-family: 'Open Sans', verdana, arial, sans-serif; font-size: 12px; fill: rgb(42, 63, 95); fill-opacity: 1; white-space: pre; opacity: 1;" transform="translate(504.03,0)">1.11.23</text></g><g class="xtick"><text text-anchor="middle" x="0" y="563" style="font-family: 'Open Sans', verdana, arial, sans-serif; font-size: 12px; fill: rgb(42, 63, 95); fill-opacity: 1; white-space: pre; opacity: 1;" transform="translate(606.45,0)">1.12.23</text></g><g class="xtick"><text text-anchor="middle" x="0" y="563" style="font-family: 'Open Sans', verdana, arial, sans-serif; font-size: 12px; fill: rgb(42, 63, 95); fill-opacity: 1; white-space: pre; opacity: 1;" transform="translate(712.28,0)">1.1.24</text></g><g class="xtick"><text text-anchor="middle" x="0" y="563" style="font-family: 'Open Sans', verdana, arial, sans-serif; font-size: 12px; fill: rgb(42, 63, 95); fill-opacity: 1; white-space: pre; opacity: 1;" transform="translate(818.1,0)">1.2.24</text></g><g class="xtick"><text text-anchor="middle" x="0" y="563" style="font-family: 'Open Sans', verdana, arial, sans-serif; font-size: 12px; fill: rgb(42, 63, 95); fill-opacity: 1; white-space: pre; opacity: 1;" transform="translate(917.1,0)">1.3.24</text></g><g class="xtick"><text text-anchor="middle" x="0" y="563" style="font-family: 'Open Sans', verdana, arial, sans-serif; font-size: 12px; fill: rgb(42, 63, 95); fill-opacity: 1; white-space: pre; opacity: 1;" transform="translate(1022.93,0)">1.4.24</text></g></g><g class="yaxislayer-above"><g class="ytick"><text text-anchor="end" x="49" y="4.199999999999999" transform="translate(0,550)" style="font-family: 'Open Sans', verdana, arial, sans-serif; font-size: 12px; fill: rgb(42, 63, 95); fill-opacity: 1; white-space: pre; opacity: 1;">0%</text></g><g class="ytick"><text text-anchor="end" x="49" y="4.199999999999999" style="font-family: 'Open Sans', verdana, arial, sans-serif; font-size: 12px; fill: rgb(42, 63, 95); fill-opacity: 1; white-space: pre; opacity: 1;" transform="translate(0,471.45)">10%</text></g><g class="ytick"><text text-anchor="end" x="49" y="4.199999999999999" style="font-family: 'Open Sans', verdana, arial, sans-serif; font-size: 12px; fill: rgb(42, 63, 95); fill-opacity: 1; white-space: pre; opacity: 1;" transform="translate(0,392.9)">20%</text></g><g class="ytick"><text text-anchor="end" x="49" y="4.199999999999999" style="font-family: 'Open Sans', verdana, arial, sans-serif; font-size: 12px; fill: rgb(42, 63, 95); fill-opacity: 1; white-space: pre; opacity: 1;" transform="translate(0,314.35)">30%</text></g><g class="ytick"><text text-anchor="end" x="49" y="4.199999999999999" style="font-family: 'Open Sans', verdana, arial, sans-serif; font-size: 12px; fill: rgb(42, 63, 95); fill-opacity: 1; white-space: pre; opacity: 1;" transform="translate(0,235.8)">40%</text></g><g class="ytick"><text text-anchor="end" x="49" y="4.199999999999999" style="font-family: 'Open Sans', verdana, arial, sans-serif; font-size: 12px; fill: rgb(42, 63, 95); fill-opacity: 1; white-space: pre; opacity: 1;" transform="translate(0,157.25)">50%</text></g><g class="ytick"><text text-anchor="end" x="49" y="4.199999999999999" style="font-family: 'Open Sans', verdana, arial, sans-serif; font-size: 12px; fill: rgb(42, 63, 95); fill-opacity: 1; white-space: pre; opacity: 1;" transform="translate(0,78.71000000000001)">60%</text></g></g><g class="overaxes-above"/></g></g><g class="polarlayer"/><g class="smithlayer"/><g class="ternarylayer"/><g class="geolayer"/><g class="funnelarealayer"/><g class="pielayer"/><g class="iciclelayer"/><g class="treemaplayer"/><g class="sunburstlayer"/><g class="glimages"/><defs id="topdefs-ef0bc9"><g class="clips"/><clipPath id="legendef0bc9"><rect width="128" height="124" x="0" y="0"/></clipPath></defs><g class="layer-above"><g class="imagelayer"/><g class="shapelayer"/></g><g class="infolayer"><g class="legend" pointer-events="all" transform="translate(1059.8000000000002,20)"><rect class="bg" shape-rendering="crispEdges" style="stroke: rgb(68, 68, 68); stroke-opacity: 1; fill: rgb(255, 255, 255); fill-opacity: 1; stroke-width: 0px;" width="128" height="124" x="0" y="0"/><g class="scrollbox" transform="" clip-path="url(#legendef0bc9)"><g class="groups"><g class="traces" transform="translate(0,14.5)" style="opacity: 1;"><text class="legendtext" text-anchor="start" x="40" y="4.680000000000001" style="font-family: 'Open Sans', verdana, arial, sans-serif; font-size: 12px; fill: rgb(42, 63, 95); fill-opacity: 1; white-space: pre;">Pellegrini Peter</text><g class="layers" style="opacity: 1;"><g class="legendfill"/><g class="legendlines"><path class="js-line" d="M5,0h30" style="fill: none; stroke: rgb(138, 44, 81); stroke-opacity: 1; stroke-width: 5px;"/></g><g class="legendsymbols"><g class="legendpoints"/></g></g><rect class="legendtoggle" x="0" y="-9.5" width="122.703125" height="19" style="fill: rgb(0, 0, 0); fill-opacity: 0;"/></g><g class="traces" transform="translate(0,33.5)" style="opacity: 1;"><text class="legendtext" text-anchor="start" x="40" y="4.680000000000001" style="font-family: 'Open Sans', verdana, arial, sans-serif; font-size: 12px; fill: rgb(42, 63, 95); fill-opacity: 1; white-space: pre;">Korčok Ivan</text><g class="layers" style="opacity: 1;"><g class="legendfill"/><g class="legendlines"><path class="js-line" d="M5,0h30" style="fill: none; stroke: rgb(0, 174, 239); stroke-opacity: 1; stroke-width: 5px;"/></g><g class="legendsymbols"><g class="legendpoints"/></g></g><rect class="legendtoggle" x="0" y="-9.5" width="122.703125" height="19" style="fill: rgb(0, 0, 0); fill-opacity: 0;"/></g><g class="traces" transform="translate(0,52.5)" style="opacity: 1;"><text class="legendtext" text-anchor="start" x="40" y="4.680000000000001" style="font-family: 'Open Sans', verdana, arial, sans-serif; font-size: 12px; fill: rgb(42, 63, 95); fill-opacity: 1; white-space: pre;">Kubiš Ján</text><g class="layers" style="opacity: 1;"><g class="legendfill"/><g class="legendlines"><path class="js-line" d="M5,0h30" style="fill: none; stroke: rgb(255, 1, 170); stroke-opacity: 1; stroke-width: 5px;"/></g><g class="legendsymbols"><g class="legendpoints"/></g></g><rect class="legendtoggle" x="0" y="-9.5" width="122.703125" height="19" style="fill: rgb(0, 0, 0); fill-opacity: 0;"/></g><g class="traces" transform="translate(0,71.5)" style="opacity: 1;"><text class="legendtext" text-anchor="start" x="40" y="4.680000000000001" style="font-family: 'Open Sans', verdana, arial, sans-serif; font-size: 12px; fill: rgb(42, 63, 95); fill-opacity: 1; white-space: pre;">Fico Robert</text><g class="layers" style="opacity: 1;"><g class="legendfill"/><g class="legendlines"><path class="js-line" d="M5,0h30" style="fill: none; stroke: rgb(238, 58, 67); stroke-opacity: 1; stroke-width: 5px;"/></g><g class="legendsymbols"><g class="legendpoints"/></g></g><rect class="legendtoggle" x="0" y="-9.5" width="122.703125" height="19" style="fill: rgb(0, 0, 0); fill-opacity: 0;"/></g><g class="traces" transform="translate(0,90.5)" style="opacity: 1;"><text class="legendtext" text-anchor="start" x="40" y="4.680000000000001" style="font-family: 'Open Sans', verdana, arial, sans-serif; font-size: 12px; fill: rgb(42, 63, 95); fill-opacity: 1; white-space: pre;">Mistrík Robert</text><g class="layers" style="opacity: 1;"><g class="legendfill"/><g class="legendlines"><path class="js-line" d="M5,0h30" style="fill: none; stroke: rgb(202, 166, 105); stroke-opacity: 1; stroke-width: 5px;"/></g><g class="legendsymbols"><g class="legendpoints"/></g></g><rect class="legendtoggle" x="0" y="-9.5" width="122.703125" height="19" style="fill: rgb(0, 0, 0); fill-opacity: 0;"/></g><g class="traces" transform="translate(0,109.5)" style="opacity: 1;"><text class="legendtext" text-anchor="start" x="40" y="4.680000000000001" style="font-family: 'Open Sans', verdana, arial, sans-serif; font-size: 12px; fill: rgb(42, 63, 95); fill-opacity: 1; white-space: pre;">Lajčák Miroslav</text><g class="layers" style="opacity: 1;"><g class="legendfill"/><g class="legendlines"><path class="js-line" d="M5,0h30" style="fill: none; stroke: rgb(255, 192, 203); stroke-opacity: 1; stroke-width: 5px;"/></g><g class="legendsymbols"><g class="legendpoints"/></g></g><rect class="legendtoggle" x="0" y="-9.5" width="122.703125" height="19" style="fill: rgb(0, 0, 0); fill-opacity: 0;"/></g></g></g><rect class="scrollbar" rx="20" ry="3" width="0" height="0" style="fill: rgb(128, 139, 164); fill-opacity: 1;" x="0" y="0"/></g><g class="g-gtitle"/><g class="g-xtitle"/><g class="g-ytitle"/></g></svg>