<svg class="main-svg" xmlns="http://www.w3.org/2000/svg" xmlns:xlink="http://www.w3.org/1999/xlink" width="300" height="135" style="" viewBox="0 0 300 135"><rect x="0" y="0" width="300" height="135" style="fill: rgb(255, 255, 255); fill-opacity: 1;"/><defs id="defs-fac577"><g class="clips"><clipPath id="clipfac577xyplot" class="plotclip"><rect width="280" height="75"/></clipPath><clipPath class="axesclip" id="clipfac577x"><rect x="10" y="0" width="280" height="135"/></clipPath><clipPath class="axesclip" id="clipfac577y"><rect x="0" y="50" width="300" height="75"/></clipPath><clipPath class="axesclip" id="clipfac577xy"><rect x="10" y="50" width="280" height="75"/></clipPath></g><g class="gradients"/><g class="patterns"/></defs><g class="bglayer"/><g class="layer-below"><g class="imagelayer"/><g class="shapelayer"/></g><g class="cartesianlayer"><g class="subplot xy"><g class="layer-subplot"><g class="shapelayer"/><g class="imagelayer"/></g><g class="minor-gridlayer"><g class="x"/><g class="y"/></g><g class="gridlayer"><g class="x"><path class="xgrid crisp" transform="translate(21.02,0)" d="M0,50v75" style="stroke: rgb(235, 240, 248); stroke-opacity: 1; stroke-width: 1px;"/><path class="xgrid crisp" transform="translate(89.37,0)" d="M0,50v75" style="stroke: rgb(235, 240, 248); stroke-opacity: 1; stroke-width: 1px;"/><path class="xgrid crisp" transform="translate(156.61,0)" d="M0,50v75" style="stroke: rgb(235, 240, 248); stroke-opacity: 1; stroke-width: 1px;"/><path class="xgrid crisp" transform="translate(223.86,0)" d="M0,50v75" style="stroke: rgb(235, 240, 248); stroke-opacity: 1; stroke-width: 1px;"/></g><g class="y"><path class="ygrid crisp" transform="translate(0,102.77000000000001)" d="M10,0h280" style="stroke: rgb(235, 240, 248); stroke-opacity: 1; stroke-width: 1px;"/><path class="ygrid crisp" transform="translate(0,80.53999999999999)" d="M10,0h280" style="stroke: rgb(235, 240, 248); stroke-opacity: 1; stroke-width: 1px;"/><path class="ygrid crisp" transform="translate(0,58.31)" d="M10,0h280" style="stroke: rgb(235, 240, 248); stroke-opacity: 1; stroke-width: 1px;"/></g></g><g class="zerolinelayer"><path class="yzl zl crisp" transform="translate(0,125)" d="M10,0h280" style="stroke: rgb(235, 240, 248); stroke-opacity: 1; stroke-width: 2px;"/></g><path class="xlines-below"/><path class="ylines-below"/><g class="overlines-below"/><g class="xaxislayer-below"/><g class="yaxislayer-below"/><g class="overaxes-below"/><g class="plot" transform="translate(10,50)" clip-path="url(#clipfac577xyplot)"><g class="scatterlayer mlayer"><g class="trace scatter trace99eb87" style="stroke-miterlimit: 2; opacity: 1;"><g class="fills"/><g class="errorbars"/><g class="lines"><path class="js-line" d="M259.06,21.65L280,21.42" style="vector-effect: none; fill: none; stroke: rgb(187, 187, 187); stroke-opacity: 1; stroke-width: 5px; opacity: 1;"/></g><g class="points"/><g class="text"/></g><g class="trace scatter trace29ed24" style="stroke-miterlimit: 2; opacity: 1;"><g class="fills"/><g class="errorbars"/><g class="lines"><path class="js-line" d="M0,51.77L3.31,48.88L4.41,48.88L8.82,49.1L9.92,48.32L25.35,47.43L26.46,46.77L47.4,45.99L48.5,41.32L61.73,41.32L63.94,44.54L67.24,43.88L68.35,43.88L76.06,43.65L77.17,46.1L79.37,47.32L80.47,46.88L81.57,46.43L82.68,47.43L111.34,46.77L112.44,44.54L114.65,45.43L115.75,45.43L116.85,45.21L117.95,41.54L120.16,39.32L121.26,39.32L122.36,38.76L123.46,35.1L125.67,32.98L126.77,32.98L130.08,32.32L131.18,31.32L134.49,28.87L135.59,28.87L144.41,29.2L145.51,30.32L154.33,30.32L155.43,28.76L156.54,28.76L157.64,26.09L162.05,26.09L163.15,23.09L169.76,23.09L170.87,21.31L177.48,18.42L178.58,18.42L180.79,14.64L181.89,14.64L182.99,12.75L184.09,8.2L194.02,8.2L195.12,9.86L197.32,10.64L198.43,10.64L200.63,12.86L201.73,13.53L207.24,12.31L208.35,12.31L214.96,12.42L216.06,8.75L218.27,5.08L219.37,4.97L222.68,5.86L223.78,3.75L227.09,4.75L228.19,5.64L230.39,6.75L231.5,10.53L232.6,11.86L233.7,10.53L235.91,10.64L237.01,8.86L239.21,8.97L240.31,9.09L242.52,8.64L243.62,7.75L246.93,4.64L248.03,4.64L251.34,6.64L252.44,5.75L254.65,6.42L255.75,8.64L257.95,14.87L259.06,43.65L270.08,43.88L271.18,42.21L275.59,38.99L276.69,39.1L280,38.76" style="vector-effect: none; fill: none; stroke: rgb(138, 44, 81); stroke-opacity: 1; stroke-width: 5px; opacity: 1;"/></g><g class="points"/><g class="text"/></g><g class="trace scatter trace0aaef5" style="stroke-miterlimit: 2; opacity: 1;"><g class="fills"/><g class="errorbars"/><g class="lines"><path class="js-line" d="M0,26.54L4.41,28.09L5.51,28.09L8.82,27.87L9.92,27.2L63.94,28.2L65.04,31.32L76.06,30.32L77.17,27.76L79.37,23.98L80.47,24.98L81.57,25.98L82.68,22.65L92.6,22.65L93.7,24.31L94.8,24.31L95.91,22.65L97.01,24.31L98.11,22.31L100.31,21.87L101.42,23.98L103.62,21.87L104.72,21.87L105.83,21.87L106.93,23.98L108.03,23.98L109.13,21.87L111.34,23.98L112.44,21.98L114.65,24.54L115.75,24.54L122.36,25.76L123.46,27.65L126.77,28.43L127.87,28.43L142.2,29.2L143.31,29.87L169.76,30.87L170.87,32.65L178.58,34.98L179.69,32.87L182.99,33.98L184.09,35.43L194.02,35.43L195.12,33.87L197.32,32.98L198.43,32.98L199.53,32.54L200.63,29.98L202.83,29.43L203.94,29.76L214.96,29.2L216.06,32.09L218.27,35.43L219.37,35.54L221.57,33.76L222.68,32.98L224.88,35.1L225.98,34.54L230.39,32.09L231.5,28.32L232.6,26.98L233.7,28.32L235.91,28.2L237.01,29.98L239.21,29.87L240.31,29.76L242.52,30.2L243.62,31.09L246.93,34.21L248.03,34.21L251.34,32.21L252.44,33.09L254.65,32.43L255.75,30.2L257.95,23.98L259.06,48.66L270.08,48.43L271.18,50.21L275.59,53.21L276.69,53.21L280,53.55" style="vector-effect: none; fill: none; stroke: rgb(0, 174, 239); stroke-opacity: 1; stroke-width: 5px; opacity: 1;"/></g><g class="points"/><g class="text"/></g><g class="trace scatter tracec583e0" style="stroke-miterlimit: 2; opacity: 1;"><g class="fills"/><g class="errorbars"/><g class="lines"><path class="js-line" d="M0,63.33L6.61,63.77L7.72,63.33L28.66,64.66L29.76,64.66L47.4,64.44L48.5,66.11L63.94,65.44L65.04,66.89L77.17,67.22L78.27,68.44L80.47,67.77L81.57,67.11L83.78,69L84.88,69L112.44,68.11L113.54,67.33L117.95,68.55L119.06,69.11L130.08,70.33L131.18,70.78L138.9,71.55L140,71.55L178.58,71.55L179.69,73.67L182.99,73.89" style="vector-effect: none; fill: none; stroke: rgb(238, 58, 67); stroke-opacity: 1; stroke-width: 5px; opacity: 1;"/></g><g class="points"/><g class="text"/></g><g class="trace scatter trace1001b4" style="stroke-miterlimit: 2; opacity: 1;"><g class="fills"/><g class="errorbars"/><g class="lines"><path class="js-line" d="M0,66.22L6.61,66.44L7.72,64.88L9.92,68.33L11.02,68.33L79.37,68.89L80.47,69.33L82.68,69L83.78,69L117.95,70.11L119.06,70.33L131.18,71.55L132.28,71.78L136.69,72.11L137.8,72.11L178.58,73.33L179.69,73.67L182.99,73.89" style="vector-effect: none; fill: none; stroke: rgb(202, 166, 105); stroke-opacity: 1; stroke-width: 5px; opacity: 1;"/></g><g class="points"/><g class="text"/></g></g></g><g class="overplot"/><path class="xlines-above crisp" d="M0,0" style="fill: none;"/><path class="ylines-above crisp" d="M0,0" style="fill: none;"/><g class="overlines-above"/><g class="xaxislayer-above"/><g class="yaxislayer-above"/><g class="overaxes-above"/></g></g><g class="polarlayer"/><g class="smithlayer"/><g class="ternarylayer"/><g class="geolayer"/><g class="funnelarealayer"/><g class="pielayer"/><g class="iciclelayer"/><g class="treemaplayer"/><g class="sunburstlayer"/><g class="glimages"/><defs id="topdefs-fac577"><g class="clips"/></defs><g class="layer-above"><g class="imagelayer"/><g class="shapelayer"/></g><g class="infolayer"><g class="g-gtitle"><text class="gtitle" x="15" y="25" text-anchor="start" dy="0em" style="font-family: Ubuntu, verdana, arial, sans-serif; font-size: 16px; fill: rgb(233, 84, 32); opacity: 1; font-weight: normal; white-space: pre;">Prezident/ka 2024</text></g><g class="g-xtitle"/><g class="g-ytitle"/></g></svg>