<svg class="main-svg" xmlns="http://www.w3.org/2000/svg" xmlns:xlink="http://www.w3.org/1999/xlink" width="1200" height="600" style="" viewBox="0 0 1200 600"><rect x="0" y="0" width="1200" height="600" style="fill: rgb(255, 255, 255); fill-opacity: 1;"/><defs id="defs-bd91f0"><g class="clips"><clipPath id="clipbd91f0xyplot" class="plotclip"><rect width="990" height="530"/></clipPath><clipPath class="axesclip" id="clipbd91f0x"><rect x="50" y="0" width="990" height="600"/></clipPath><clipPath class="axesclip" id="clipbd91f0y"><rect x="0" y="20" width="1200" height="530"/></clipPath><clipPath class="axesclip" id="clipbd91f0xy"><rect x="50" y="20" width="990" height="530"/></clipPath></g><g class="gradients"/><g class="patterns"/></defs><g class="bglayer"/><g class="layer-below"><g class="imagelayer"/><g class="shapelayer"/></g><g class="cartesianlayer"><g class="subplot xy"><g class="layer-subplot"><g class="shapelayer"/><g class="imagelayer"/></g><g class="minor-gridlayer"><g class="x"/><g class="y"/></g><g class="gridlayer"><g class="x"><path class="xgrid crisp" transform="translate(83,0)" d="M0,20v530" style="stroke: rgb(235, 240, 248); stroke-opacity: 1; stroke-width: 1px;"/><path class="xgrid crisp" transform="translate(185.3,0)" d="M0,20v530" style="stroke: rgb(235, 240, 248); stroke-opacity: 1; stroke-width: 1px;"/><path class="xgrid crisp" transform="translate(287.6,0)" d="M0,20v530" style="stroke: rgb(235, 240, 248); stroke-opacity: 1; stroke-width: 1px;"/><path class="xgrid crisp" transform="translate(386.6,0)" d="M0,20v530" style="stroke: rgb(235, 240, 248); stroke-opacity: 1; stroke-width: 1px;"/><path class="xgrid crisp" transform="translate(488.9,0)" d="M0,20v530" style="stroke: rgb(235, 240, 248); stroke-opacity: 1; stroke-width: 1px;"/><path class="xgrid crisp" transform="translate(587.9,0)" d="M0,20v530" style="stroke: rgb(235, 240, 248); stroke-opacity: 1; stroke-width: 1px;"/><path class="xgrid crisp" transform="translate(690.2,0)" d="M0,20v530" style="stroke: rgb(235, 240, 248); stroke-opacity: 1; stroke-width: 1px;"/><path class="xgrid crisp" transform="translate(792.5,0)" d="M0,20v530" style="stroke: rgb(235, 240, 248); stroke-opacity: 1; stroke-width: 1px;"/><path class="xgrid crisp" transform="translate(888.2,0)" d="M0,20v530" style="stroke: rgb(235, 240, 248); stroke-opacity: 1; stroke-width: 1px;"/><path class="xgrid crisp" transform="translate(990.5,0)" d="M0,20v530" style="stroke: rgb(235, 240, 248); stroke-opacity: 1; stroke-width: 1px;"/></g><g class="y"><path class="ygrid crisp" transform="translate(0,468.66)" d="M50,0h990" style="stroke: rgb(235, 240, 248); stroke-opacity: 1; stroke-width: 1px;"/><path class="ygrid crisp" transform="translate(0,387.32)" d="M50,0h990" style="stroke: rgb(235, 240, 248); stroke-opacity: 1; stroke-width: 1px;"/><path class="ygrid crisp" transform="translate(0,305.98)" d="M50,0h990" style="stroke: rgb(235, 240, 248); stroke-opacity: 1; stroke-width: 1px;"/><path class="ygrid crisp" transform="translate(0,224.64)" d="M50,0h990" style="stroke: rgb(235, 240, 248); stroke-opacity: 1; stroke-width: 1px;"/><path class="ygrid crisp" transform="translate(0,143.3)" d="M50,0h990" style="stroke: rgb(235, 240, 248); stroke-opacity: 1; stroke-width: 1px;"/><path class="ygrid crisp" transform="translate(0,61.95)" d="M50,0h990" style="stroke: rgb(235, 240, 248); stroke-opacity: 1; stroke-width: 1px;"/></g></g><g class="zerolinelayer"><path class="yzl zl crisp" transform="translate(0,550)" d="M50,0h990" style="stroke: rgb(235, 240, 248); stroke-opacity: 1; stroke-width: 2px;"/></g><path class="xlines-below"/><path class="ylines-below"/><g class="overlines-below"/><g class="xaxislayer-below"/><g class="yaxislayer-below"/><g class="overaxes-below"/><g class="plot" transform="translate(50,20)" clip-path="url(#clipbd91f0xyplot)"><g class="scatterlayer mlayer"><g class="trace scatter trace1822e9" style="stroke-miterlimit: 2; opacity: 1;"><g class="fills"/><g class="errorbars"/><g class="lines"><path class="js-line" d="M0,360L6.6,338.85L9.9,338.85L19.8,338.85L23.1,344.54L29.7,334.78L33,334.78L46.2,334.78L49.5,332.34L59.4,332.34L62.7,329.9L66,328.27L69.3,328.27L75.9,328.27L79.2,323.39L122.1,323.39L125.4,317.7L141.9,317.7L145.2,283.54L184.8,283.54L191.4,307.13L194.7,302.25L201.3,302.25L224.4,301.43L227.7,300.62L231,318.51L234.3,327.46L237.6,327.46L240.9,324.21L244.2,320.95L247.5,328.27L277.2,328.27L280.5,325.02L283.8,325.02L287.1,328.27L290.4,325.02L293.7,327.46L297,325.02L300.3,325.02L303.6,323.39L306.9,325.02L316.8,325.02L320.1,323.39L323.4,323.39L326.7,325.02L330,323.39L333.3,323.39L336.6,307.13L339.9,313.63L346.5,313.63L349.8,312.01L353.1,285.16L356.4,268.9L363,268.9L366.3,264.83L369.6,237.99L372.9,224.97L376.2,222.53L379.5,222.53L386.1,222.53L389.4,217.65L396,203.82L399.3,192.44L425.7,193.25L429,194.88L432.3,194.88L435.6,203.01L462,203.01L465.3,191.62L468.6,191.62L471.9,172.1L485.1,172.1L488.4,150.14L508.2,150.14L511.5,137.12L514.8,132.24L518.1,132.24L521.4,132.24L524.7,127.36L528,120.04L531.3,115.97L534.6,115.97L537.9,88.32L544.5,88.32L547.8,74.49L551.1,41.14L554.4,41.14L580.8,41.14L584.1,53.34L587.4,59.04L590.7,59.04L594,59.04L597.3,62.29L600.6,75.3L603.9,80.18L607.2,76.93L610.5,71.24L633.6,71.24L636.9,69.61L640.2,73.68L643.5,72.05L650.1,26.5" style="vector-effect: none; fill: none; stroke: rgb(138, 44, 81); stroke-opacity: 1; stroke-width: 5px; opacity: 1;"/></g><g class="points"/><g class="text"/></g><g class="trace scatter tracea5499d" style="stroke-miterlimit: 2; opacity: 1;"><g class="fills"/><g class="errorbars"/><g class="lines"><path class="js-line" d="M0,175.35L6.6,186.74L9.9,186.74L19.8,186.74L23.1,192.44L29.7,180.23L33,180.23L59.4,180.23L62.7,181.86L66,183.49L69.3,183.49L75.9,183.49L79.2,187.55L191.4,187.55L194.7,210.33L221.1,210.33L224.4,206.26L227.7,203.01L231,184.3L234.3,156.65L237.6,156.65L244.2,171.29L247.5,146.88L277.2,146.88L280.5,159.09L283.8,159.09L287.1,146.88L290.4,159.09L293.7,144.44L297,141.19L300.3,141.19L303.6,156.65L306.9,141.19L316.8,141.19L320.1,156.65L323.4,156.65L326.7,141.19L330,156.65L333.3,156.65L336.6,142L339.9,160.71L349.8,160.71L353.1,165.59L363,165.59L366.3,169.66L369.6,183.49L372.9,188.37L379.5,189.18L382.8,189.18L392.7,189.18L396,191.62L402.6,192.44L405.9,192.44L422.4,192.44L425.7,194.88L429,199.76L432.3,199.76L435.6,203.01L442.2,203.01L465.3,203.82L468.6,200.57L471.9,208.7L475.2,208.7L485.1,208.7L488.4,207.08L508.2,207.08L511.5,220.09L514.8,223.34L518.1,223.34L521.4,223.34L524.7,228.23L531.3,237.17L534.6,237.17L537.9,221.72L541.2,221.72L544.5,221.72L547.8,229.85L551.1,240.43L554.4,240.43L580.8,240.43L584.1,229.04L587.4,222.53L590.7,222.53L594,222.53L597.3,219.28L600.6,200.57L603.9,194.88L610.5,198.94L613.8,198.94L630.3,198.94L633.6,197.32L636.9,198.94L640.2,194.88L643.5,194.88L646.8,216.02L650.1,232.29" style="vector-effect: none; fill: none; stroke: rgb(0, 174, 239); stroke-opacity: 1; stroke-width: 5px; opacity: 1;"/></g><g class="points"/><g class="text"/></g><g class="trace scatter trace1488bb" style="stroke-miterlimit: 2; opacity: 1;"><g class="fills"/><g class="errorbars"/><g class="lines"><path class="js-line" d="M0,447.85L6.6,450.29L9.9,450.29L19.8,450.29L23.1,455.98L29.7,446.22L33,446.22L46.2,446.22L49.5,447.85L62.7,447.03L66,446.22L122.1,446.22L125.4,447.85L141.9,447.85L145.2,457.61L184.8,457.61L191.4,451.1L194.7,398.23L201.3,398.23L221.1,398.23L224.4,400.67L227.7,403.11L231,403.11L234.3,407.99L237.6,407.99L244.2,402.29L247.5,408.8L277.2,408.8L280.5,405.55L283.8,405.55L287.1,408.8L290.4,405.55L293.7,410.43L297,413.68L300.3,413.68L303.6,407.99L306.9,413.68L316.8,413.68L320.1,407.99L323.4,407.99L326.7,413.68L330,407.99L333.3,407.99L336.6,431.58L339.9,415.31L349.8,416.12L353.1,428.32L356.4,438.08L359.7,438.08L363,438.08L366.3,435.64L369.6,443.78L372.9,445.41L389.4,444.59L392.7,443.78L396,445.41L399.3,448.66L422.4,448.66L425.7,445.41L429,438.08L432.3,438.08L435.6,426.7L442.2,426.7L462,426.7L465.3,437.27L468.6,440.53L471.9,451.91L485.1,451.91L488.4,458.42L524.7,459.23L528,460.05L534.6,460.86L537.9,486.08L544.5,486.08L547.8,489.33L551.1,494.21L554.4,494.21L597.3,494.21L600.6,501.53L603.9,501.53L607.2,503.16L610.5,506.41L613.8,506.41L630.3,506.41L633.6,508.04L640.2,508.04L643.5,509.66L646.8,515.36L650.1,517.8" style="vector-effect: none; fill: none; stroke: rgb(255, 1, 170); stroke-opacity: 1; stroke-width: 5px; opacity: 1;"/></g><g class="points"/><g class="text"/></g><g class="trace scatter trace578db8" style="stroke-miterlimit: 2; opacity: 1;"><g class="fills"/><g class="errorbars"/><g class="lines"><path class="js-line" d="M0,473.06L9.9,475.5L13.2,475.5L23.1,474.69L26.4,473.06L33,473.87L36.3,473.87L46.2,473.87L49.5,475.5L75.9,474.69L79.2,476.32L122.1,476.32L125.4,482.82L141.9,482.82L145.2,489.33L184.8,489.33L191.4,479.57L194.7,500.72L201.3,500.72L231,501.53L234.3,507.22L244.2,507.22L247.5,510.48L277.2,510.48L280.5,508.85L283.8,508.85L287.1,510.48L290.4,508.85L293.7,510.48L300.3,510.48L303.6,508.85L306.9,510.48L310.2,510.48L316.8,510.48L320.1,508.85L323.4,508.85L326.7,510.48L330,508.85L333.3,508.85L336.6,511.29L339.9,509.66L363,510.48L366.3,511.29L372.9,513.73L376.2,514.55L386.1,514.55L389.4,516.17L392.7,519.43L396,519.43L402.6,520.24L405.9,520.24L485.1,519.43" style="vector-effect: none; fill: none; stroke: rgb(255, 192, 203); stroke-opacity: 1; stroke-width: 5px; opacity: 1;"/></g><g class="points"/><g class="text"/></g><g class="trace scatter trace74b61c" style="stroke-miterlimit: 2; opacity: 1;"><g class="fills"/><g class="errorbars"/><g class="lines"><path class="js-line" d="M0,465.74L9.9,467.37L13.2,467.37L19.8,467.37L23.1,455.98L29.7,481.2L33,481.2L62.7,480.38L66,479.57L141.9,478.76L145.2,482.82L184.8,482.82L191.4,481.2L194.7,484.45L201.3,484.45L224.4,485.26L227.7,486.08L237.6,485.26L240.9,488.52L244.2,491.77L247.5,486.08L277.2,486.08L280.5,488.52L283.8,488.52L287.1,486.08L290.4,488.52L293.7,487.7L297,490.96L300.3,490.96L303.6,491.77L306.9,490.96L333.3,491.77L336.6,494.21L353.1,494.21L356.4,495.84L366.3,496.65L369.6,497.46L372.9,499.9L376.2,500.72L386.1,500.72L389.4,502.34L399.3,508.85L402.6,508.85L485.1,508.85L488.4,516.99L534.6,517.8L537.9,520.24L544.5,520.24L547.8,521.87" style="vector-effect: none; fill: none; stroke: rgb(202, 166, 105); stroke-opacity: 1; stroke-width: 5px; opacity: 1;"/></g><g class="points"/><g class="text"/></g><g class="trace scatter trace435eaf" style="stroke-miterlimit: 2; opacity: 1;"><g class="fills"/><g class="errorbars"/><g class="lines"><path class="js-line" d="M0,444.59L6.6,447.85L9.9,447.85L19.8,447.85L23.1,444.59L26.4,445.41L29.7,449.47L59.4,450.29L62.7,452.73L66,454.35L69.3,454.35L122.1,454.35L125.4,452.73L141.9,452.73L145.2,464.93L184.8,464.93L191.4,460.05L194.7,470.62L201.3,470.62L224.4,471.43L227.7,473.06L231,473.06L234.3,482.01L237.6,482.01L240.9,477.13L244.2,472.25L247.5,486.08L277.2,486.08L280.5,479.57L283.8,479.57L287.1,486.08L290.4,479.57L293.7,485.26L300.3,485.26L303.6,478.76L306.9,485.26L310.2,485.26L316.8,485.26L320.1,478.76L323.4,478.76L326.7,485.26L330,478.76L333.3,478.76L336.6,479.57L339.9,473.87L349.8,474.69L353.1,482.82L356.4,486.89L359.7,486.89L363,486.89L366.3,488.52L372.9,493.4L376.2,494.21L386.1,494.21L389.4,495.84L399.3,504.78L402.6,504.78L485.1,504.78L488.4,503.97L534.6,504.78L537.9,520.24L544.5,520.24L547.8,521.87" style="vector-effect: none; fill: none; stroke: rgb(238, 58, 67); stroke-opacity: 1; stroke-width: 5px; opacity: 1;"/></g><g class="points"/><g class="text"/></g></g></g><g class="overplot"/><path class="xlines-above crisp" d="M0,0" style="fill: none;"/><path class="ylines-above crisp" d="M0,0" style="fill: none;"/><g class="overlines-above"/><g class="xaxislayer-above"><g class="xtick"><text text-anchor="middle" x="0" y="563" transform="translate(83,0)" style="font-family: 'Open Sans', verdana, arial, sans-serif; font-size: 12px; fill: rgb(42, 63, 95); fill-opacity: 1; white-space: pre; opacity: 1;">1.7.23</text></g><g class="xtick"><text text-anchor="middle" x="0" y="563" style="font-family: 'Open Sans', verdana, arial, sans-serif; font-size: 12px; fill: rgb(42, 63, 95); fill-opacity: 1; white-space: pre; opacity: 1;" transform="translate(185.3,0)">1.8.23</text></g><g class="xtick"><text text-anchor="middle" x="0" y="563" style="font-family: 'Open Sans', verdana, arial, sans-serif; font-size: 12px; fill: rgb(42, 63, 95); fill-opacity: 1; white-space: pre; opacity: 1;" transform="translate(287.6,0)">1.9.23</text></g><g class="xtick"><text text-anchor="middle" x="0" y="563" style="font-family: 'Open Sans', verdana, arial, sans-serif; font-size: 12px; fill: rgb(42, 63, 95); fill-opacity: 1; white-space: pre; opacity: 1;" transform="translate(386.6,0)">1.10.23</text></g><g class="xtick"><text text-anchor="middle" x="0" y="563" style="font-family: 'Open Sans', verdana, arial, sans-serif; font-size: 12px; fill: rgb(42, 63, 95); fill-opacity: 1; white-space: pre; opacity: 1;" transform="translate(488.9,0)">1.11.23</text></g><g class="xtick"><text text-anchor="middle" x="0" y="563" style="font-family: 'Open Sans', verdana, arial, sans-serif; font-size: 12px; fill: rgb(42, 63, 95); fill-opacity: 1; white-space: pre; opacity: 1;" transform="translate(587.9,0)">1.12.23</text></g><g class="xtick"><text text-anchor="middle" x="0" y="563" style="font-family: 'Open Sans', verdana, arial, sans-serif; font-size: 12px; fill: rgb(42, 63, 95); fill-opacity: 1; white-space: pre; opacity: 1;" transform="translate(690.2,0)">1.1.24</text></g><g class="xtick"><text text-anchor="middle" x="0" y="563" style="font-family: 'Open Sans', verdana, arial, sans-serif; font-size: 12px; fill: rgb(42, 63, 95); fill-opacity: 1; white-space: pre; opacity: 1;" transform="translate(792.5,0)">1.2.24</text></g><g class="xtick"><text text-anchor="middle" x="0" y="563" style="font-family: 'Open Sans', verdana, arial, sans-serif; font-size: 12px; fill: rgb(42, 63, 95); fill-opacity: 1; white-space: pre; opacity: 1;" transform="translate(888.2,0)">1.3.24</text></g><g class="xtick"><text text-anchor="middle" x="0" y="563" style="font-family: 'Open Sans', verdana, arial, sans-serif; font-size: 12px; fill: rgb(42, 63, 95); fill-opacity: 1; white-space: pre; opacity: 1;" transform="translate(990.5,0)">1.4.24</text></g></g><g class="yaxislayer-above"><g class="ytick"><text text-anchor="end" x="49" y="4.199999999999999" transform="translate(0,550)" style="font-family: 'Open Sans', verdana, arial, sans-serif; font-size: 12px; fill: rgb(42, 63, 95); fill-opacity: 1; white-space: pre; opacity: 1;">0%</text></g><g class="ytick"><text text-anchor="end" x="49" y="4.199999999999999" style="font-family: 'Open Sans', verdana, arial, sans-serif; font-size: 12px; fill: rgb(42, 63, 95); fill-opacity: 1; white-space: pre; opacity: 1;" transform="translate(0,468.66)">10%</text></g><g class="ytick"><text text-anchor="end" x="49" y="4.199999999999999" style="font-family: 'Open Sans', verdana, arial, sans-serif; font-size: 12px; fill: rgb(42, 63, 95); fill-opacity: 1; white-space: pre; opacity: 1;" transform="translate(0,387.32)">20%</text></g><g class="ytick"><text text-anchor="end" x="49" y="4.199999999999999" style="font-family: 'Open Sans', verdana, arial, sans-serif; font-size: 12px; fill: rgb(42, 63, 95); fill-opacity: 1; white-space: pre; opacity: 1;" transform="translate(0,305.98)">30%</text></g><g class="ytick"><text text-anchor="end" x="49" y="4.199999999999999" style="font-family: 'Open Sans', verdana, arial, sans-serif; font-size: 12px; fill: rgb(42, 63, 95); fill-opacity: 1; white-space: pre; opacity: 1;" transform="translate(0,224.64)">40%</text></g><g class="ytick"><text text-anchor="end" x="49" y="4.199999999999999" style="font-family: 'Open Sans', verdana, arial, sans-serif; font-size: 12px; fill: rgb(42, 63, 95); fill-opacity: 1; white-space: pre; opacity: 1;" transform="translate(0,143.3)">50%</text></g><g class="ytick"><text text-anchor="end" x="49" y="4.199999999999999" style="font-family: 'Open Sans', verdana, arial, sans-serif; font-size: 12px; fill: rgb(42, 63, 95); fill-opacity: 1; white-space: pre; opacity: 1;" transform="translate(0,61.95)">60%</text></g></g><g class="overaxes-above"/></g></g><g class="polarlayer"/><g class="smithlayer"/><g class="ternarylayer"/><g class="geolayer"/><g class="funnelarealayer"/><g class="pielayer"/><g class="iciclelayer"/><g class="treemaplayer"/><g class="sunburstlayer"/><g class="glimages"/><defs id="topdefs-bd91f0"><g class="clips"/><clipPath id="legendbd91f0"><rect width="128" height="124" x="0" y="0"/></clipPath></defs><g class="layer-above"><g class="imagelayer"/><g class="shapelayer"/></g><g class="infolayer"><g class="legend" pointer-events="all" transform="translate(1059.8000000000002,20)"><rect class="bg" shape-rendering="crispEdges" style="stroke: rgb(68, 68, 68); stroke-opacity: 1; fill: rgb(255, 255, 255); fill-opacity: 1; stroke-width: 0px;" width="128" height="124" x="0" y="0"/><g class="scrollbox" transform="" clip-path="url(#legendbd91f0)"><g class="groups"><g class="traces" transform="translate(0,14.5)" style="opacity: 1;"><text class="legendtext" text-anchor="start" x="40" y="4.680000000000001" style="font-family: 'Open Sans', verdana, arial, sans-serif; font-size: 12px; fill: rgb(42, 63, 95); fill-opacity: 1; white-space: pre;">Pellegrini Peter</text><g class="layers" style="opacity: 1;"><g class="legendfill"/><g class="legendlines"><path class="js-line" d="M5,0h30" style="fill: none; stroke: rgb(138, 44, 81); stroke-opacity: 1; stroke-width: 5px;"/></g><g class="legendsymbols"><g class="legendpoints"/></g></g><rect class="legendtoggle" x="0" y="-9.5" width="122.703125" height="19" style="fill: rgb(0, 0, 0); fill-opacity: 0;"/></g><g class="traces" transform="translate(0,33.5)" style="opacity: 1;"><text class="legendtext" text-anchor="start" x="40" y="4.680000000000001" style="font-family: 'Open Sans', verdana, arial, sans-serif; font-size: 12px; fill: rgb(42, 63, 95); fill-opacity: 1; white-space: pre;">Korčok Ivan</text><g class="layers" style="opacity: 1;"><g class="legendfill"/><g class="legendlines"><path class="js-line" d="M5,0h30" style="fill: none; stroke: rgb(0, 174, 239); stroke-opacity: 1; stroke-width: 5px;"/></g><g class="legendsymbols"><g class="legendpoints"/></g></g><rect class="legendtoggle" x="0" y="-9.5" width="122.703125" height="19" style="fill: rgb(0, 0, 0); fill-opacity: 0;"/></g><g class="traces" transform="translate(0,52.5)" style="opacity: 1;"><text class="legendtext" text-anchor="start" x="40" y="4.680000000000001" style="font-family: 'Open Sans', verdana, arial, sans-serif; font-size: 12px; fill: rgb(42, 63, 95); fill-opacity: 1; white-space: pre;">Kubiš Ján</text><g class="layers" style="opacity: 1;"><g class="legendfill"/><g class="legendlines"><path class="js-line" d="M5,0h30" style="fill: none; stroke: rgb(255, 1, 170); stroke-opacity: 1; stroke-width: 5px;"/></g><g class="legendsymbols"><g class="legendpoints"/></g></g><rect class="legendtoggle" x="0" y="-9.5" width="122.703125" height="19" style="fill: rgb(0, 0, 0); fill-opacity: 0;"/></g><g class="traces" transform="translate(0,71.5)" style="opacity: 1;"><text class="legendtext" text-anchor="start" x="40" y="4.680000000000001" style="font-family: 'Open Sans', verdana, arial, sans-serif; font-size: 12px; fill: rgb(42, 63, 95); fill-opacity: 1; white-space: pre;">Lajčák Miroslav</text><g class="layers" style="opacity: 1;"><g class="legendfill"/><g class="legendlines"><path class="js-line" d="M5,0h30" style="fill: none; stroke: rgb(255, 192, 203); stroke-opacity: 1; stroke-width: 5px;"/></g><g class="legendsymbols"><g class="legendpoints"/></g></g><rect class="legendtoggle" x="0" y="-9.5" width="122.703125" height="19" style="fill: rgb(0, 0, 0); fill-opacity: 0;"/></g><g class="traces" transform="translate(0,90.5)" style="opacity: 1;"><text class="legendtext" text-anchor="start" x="40" y="4.680000000000001" style="font-family: 'Open Sans', verdana, arial, sans-serif; font-size: 12px; fill: rgb(42, 63, 95); fill-opacity: 1; white-space: pre;">Mistrík Robert</text><g class="layers" style="opacity: 1;"><g class="legendfill"/><g class="legendlines"><path class="js-line" d="M5,0h30" style="fill: none; stroke: rgb(202, 166, 105); stroke-opacity: 1; stroke-width: 5px;"/></g><g class="legendsymbols"><g class="legendpoints"/></g></g><rect class="legendtoggle" x="0" y="-9.5" width="122.703125" height="19" style="fill: rgb(0, 0, 0); fill-opacity: 0;"/></g><g class="traces" transform="translate(0,109.5)" style="opacity: 1;"><text class="legendtext" text-anchor="start" x="40" y="4.680000000000001" style="font-family: 'Open Sans', verdana, arial, sans-serif; font-size: 12px; fill: rgb(42, 63, 95); fill-opacity: 1; white-space: pre;">Fico Robert</text><g class="layers" style="opacity: 1;"><g class="legendfill"/><g class="legendlines"><path class="js-line" d="M5,0h30" style="fill: none; stroke: rgb(238, 58, 67); stroke-opacity: 1; stroke-width: 5px;"/></g><g class="legendsymbols"><g class="legendpoints"/></g></g><rect class="legendtoggle" x="0" y="-9.5" width="122.703125" height="19" style="fill: rgb(0, 0, 0); fill-opacity: 0;"/></g></g></g><rect class="scrollbar" rx="20" ry="3" width="0" height="0" style="fill: rgb(128, 139, 164); fill-opacity: 1;" x="0" y="0"/></g><g class="g-gtitle"/><g class="g-xtitle"/><g class="g-ytitle"/></g></svg>