<svg class="main-svg" xmlns="http://www.w3.org/2000/svg" xmlns:xlink="http://www.w3.org/1999/xlink" width="300" height="135" style="" viewBox="0 0 300 135"><rect x="0" y="0" width="300" height="135" style="fill: rgb(255, 255, 255); fill-opacity: 1;"/><defs id="defs-3a3c09"><g class="clips"><clipPath id="clip3a3c09xyplot" class="plotclip"><rect width="280" height="75"/></clipPath><clipPath class="axesclip" id="clip3a3c09x"><rect x="10" y="0" width="280" height="135"/></clipPath><clipPath class="axesclip" id="clip3a3c09y"><rect x="0" y="50" width="300" height="75"/></clipPath><clipPath class="axesclip" id="clip3a3c09xy"><rect x="10" y="50" width="280" height="75"/></clipPath></g><g class="gradients"/><g class="patterns"/></defs><g class="bglayer"/><g class="layer-below"><g class="imagelayer"/><g class="shapelayer"/></g><g class="cartesianlayer"><g class="subplot xy"><g class="layer-subplot"><g class="shapelayer"/><g class="imagelayer"/></g><g class="minor-gridlayer"><g class="x"/><g class="y"/></g><g class="gridlayer"><g class="x"><path class="xgrid crisp" transform="translate(25.05,0)" d="M0,50v75" style="stroke: rgb(235, 240, 248); stroke-opacity: 1; stroke-width: 1px;"/><path class="xgrid crisp" transform="translate(118.39,0)" d="M0,50v75" style="stroke: rgb(235, 240, 248); stroke-opacity: 1; stroke-width: 1px;"/><path class="xgrid crisp" transform="translate(210.22,0)" d="M0,50v75" style="stroke: rgb(235, 240, 248); stroke-opacity: 1; stroke-width: 1px;"/></g><g class="y"><path class="ygrid crisp" transform="translate(0,101.28999999999999)" d="M10,0h280" style="stroke: rgb(235, 240, 248); stroke-opacity: 1; stroke-width: 1px;"/><path class="ygrid crisp" transform="translate(0,77.58)" d="M10,0h280" style="stroke: rgb(235, 240, 248); stroke-opacity: 1; stroke-width: 1px;"/><path class="ygrid crisp" transform="translate(0,53.87)" d="M10,0h280" style="stroke: rgb(235, 240, 248); stroke-opacity: 1; stroke-width: 1px;"/></g></g><g class="zerolinelayer"><path class="yzl zl crisp" transform="translate(0,125)" d="M10,0h280" style="stroke: rgb(235, 240, 248); stroke-opacity: 1; stroke-width: 2px;"/></g><path class="xlines-below"/><path class="ylines-below"/><g class="overlines-below"/><g class="xaxislayer-below"/><g class="yaxislayer-below"/><g class="overaxes-below"/><g class="plot" transform="translate(10,50)" clip-path="url(#clip3a3c09xyplot)"><g class="scatterlayer mlayer"><g class="trace scatter traceb4405d" style="stroke-miterlimit: 2; opacity: 1;"><g class="fills"/><g class="errorbars"/><g class="lines"><path class="js-line" d="M0,50.22L4.52,47.14L6.02,47.14L12.04,47.38L13.55,46.55L34.62,45.6L36.13,44.89L64.73,44.06L66.24,39.08L84.3,39.08L87.31,42.52L88.82,41.81L91.83,41.81L103.87,41.57L105.38,44.18L108.39,45.48L109.89,45.01L111.4,44.53L112.9,45.6L152.04,44.89L153.55,42.52L156.56,43.47L158.06,43.47L159.57,43.23L161.08,39.32L162.58,36.94L164.09,36.94L167.1,36.35L168.6,32.44L171.61,30.19L173.12,30.19L177.63,29.48L179.14,28.41L183.66,25.8L185.16,25.8L197.2,26.16L198.71,27.34L210.75,27.34L212.26,25.68L213.76,25.68L215.27,22.84L221.29,22.84L222.8,19.64L231.83,19.64L233.33,17.74L236.34,17.03L237.85,17.03L243.87,14.66L245.38,10.63L248.39,10.63L249.89,8.61L251.4,3.75L252.9,3.75L264.95,3.75L266.45,5.53L269.46,6.36L270.97,6.36L272.47,6.83L273.98,8.73L276.99,8.97L278.49,8.14L280,8.14" style="vector-effect: none; fill: none; stroke: rgb(138, 44, 81); stroke-opacity: 1; stroke-width: 5px; opacity: 1;"/></g><g class="points"/><g class="text"/></g><g class="trace scatter tracea562fb" style="stroke-miterlimit: 2; opacity: 1;"><g class="fills"/><g class="errorbars"/><g class="lines"><path class="js-line" d="M0,23.31L4.52,24.97L6.02,24.97L12.04,24.73L13.55,24.02L87.31,25.09L88.82,28.41L103.87,27.34L105.38,24.62L106.88,20.58L108.39,20.58L111.4,22.72L112.9,19.16L126.45,19.16L127.96,20.94L129.46,20.94L130.97,19.16L132.47,20.94L133.98,18.81L136.99,18.33L138.49,20.58L140,18.33L141.51,18.33L144.52,18.33L146.02,20.58L147.53,20.58L149.03,18.33L152.04,20.58L153.55,18.45L155.05,21.18L156.56,21.18L165.59,21.89L167.1,22.48L170.11,25.21L171.61,25.33L194.19,26.16L195.7,26.87L213.76,26.99L215.27,28.17L231.83,27.93L233.33,29.83L243.87,32.32L245.38,30.07L249.89,31.25L251.4,32.8L264.95,32.8L266.45,31.14L269.46,30.19L270.97,30.19L272.47,29.71L273.98,26.99L276.99,26.39L278.49,26.75L280,26.75" style="vector-effect: none; fill: none; stroke: rgb(0, 174, 239); stroke-opacity: 1; stroke-width: 5px; opacity: 1;"/></g><g class="points"/><g class="text"/></g><g class="trace scatter traceb4588b" style="stroke-miterlimit: 2; opacity: 1;"><g class="fills"/><g class="errorbars"/><g class="lines"><path class="js-line" d="M0,63.03L10.54,64.21L12.04,63.5L15.05,62.79L16.56,62.79L64.73,63.03L66.24,64.45L87.31,63.5L88.82,55.79L105.38,56.51L106.88,57.22L133.98,57.57L135.48,58.05L152.04,57.22L153.55,60.66L155.05,58.28L156.56,58.28L159.57,58.4L161.08,60.18L164.09,61.6L165.59,61.6L167.1,61.25L168.6,62.43L176.13,62.67L177.63,62.55L185.16,63.14L186.67,63.14L194.19,62.67L195.7,61.6L197.2,61.6L198.71,59.94L210.75,59.94L212.26,61.49L218.28,63.62L219.78,63.62L240.86,64.8L242.37,64.92L243.87,64.92L245.38,68.6L264.95,69.78L266.45,69.9L275.48,70.85L276.99,71.09L280,71.56" style="vector-effect: none; fill: none; stroke: rgb(255, 1, 170); stroke-opacity: 1; stroke-width: 5px; opacity: 1;"/></g><g class="points"/><g class="text"/></g><g class="trace scatter tracef643b2" style="stroke-miterlimit: 2; opacity: 1;"><g class="fills"/><g class="errorbars"/><g class="lines"><path class="js-line" d="M0,66.7L15.05,66.82L16.56,66.82L55.7,67.18L57.2,68.12L84.3,69.07L87.31,67.65L88.82,70.73L91.83,70.73L111.4,71.68L112.9,72.15L177.63,72.98L179.14,73.46L221.29,73.46" style="vector-effect: none; fill: none; stroke: rgb(255, 192, 203); stroke-opacity: 1; stroke-width: 5px; opacity: 1;"/></g><g class="points"/><g class="text"/></g><g class="trace scatter tracec6eddf" style="stroke-miterlimit: 2; opacity: 1;"><g class="fills"/><g class="errorbars"/><g class="lines"><path class="js-line" d="M0,65.63L9.03,65.87L10.54,64.21L13.55,67.89L15.05,67.89L108.39,68.48L109.89,68.95L112.9,68.6L114.41,68.6L161.08,69.78L162.58,70.02L177.63,70.97L179.14,71.32L189.68,71.92L191.18,71.92L239.35,73.1L240.86,73.22L249.89,73.81" style="vector-effect: none; fill: none; stroke: rgb(202, 166, 105); stroke-opacity: 1; stroke-width: 5px; opacity: 1;"/></g><g class="points"/><g class="text"/></g></g></g><g class="overplot"/><path class="xlines-above crisp" d="M0,0" style="fill: none;"/><path class="ylines-above crisp" d="M0,0" style="fill: none;"/><g class="overlines-above"/><g class="xaxislayer-above"/><g class="yaxislayer-above"/><g class="overaxes-above"/></g></g><g class="polarlayer"/><g class="smithlayer"/><g class="ternarylayer"/><g class="geolayer"/><g class="funnelarealayer"/><g class="pielayer"/><g class="iciclelayer"/><g class="treemaplayer"/><g class="sunburstlayer"/><g class="glimages"/><defs id="topdefs-3a3c09"><g class="clips"/></defs><g class="layer-above"><g class="imagelayer"/><g class="shapelayer"/></g><g class="infolayer"><g class="g-gtitle"><text class="gtitle" x="15" y="25" text-anchor="start" dy="0em" style="font-family: Ubuntu, verdana, arial, sans-serif; font-size: 16px; fill: rgb(233, 84, 32); opacity: 1; font-weight: normal; white-space: pre;">Prezident/ka 2024</text></g><g class="g-xtitle"/><g class="g-ytitle"/></g></svg>