<svg class="main-svg" xmlns="http://www.w3.org/2000/svg" xmlns:xlink="http://www.w3.org/1999/xlink" width="1200" height="600" style="" viewBox="0 0 1200 600"><rect x="0" y="0" width="1200" height="600" style="fill: rgb(255, 255, 255); fill-opacity: 1;"/><defs id="defs-0157cd"><g class="clips"><clipPath id="clip0157cdxyplot" class="plotclip"><rect width="990" height="530"/></clipPath><clipPath class="axesclip" id="clip0157cdx"><rect x="50" y="0" width="990" height="600"/></clipPath><clipPath class="axesclip" id="clip0157cdy"><rect x="0" y="20" width="1200" height="530"/></clipPath><clipPath class="axesclip" id="clip0157cdxy"><rect x="50" y="20" width="990" height="530"/></clipPath></g><g class="gradients"/><g class="patterns"/></defs><g class="bglayer"/><g class="layer-below"><g class="imagelayer"/><g class="shapelayer"/></g><g class="cartesianlayer"><g class="subplot xy"><g class="layer-subplot"><g class="shapelayer"/><g class="imagelayer"/></g><g class="minor-gridlayer"><g class="x"/><g class="y"/></g><g class="gridlayer"><g class="x"><path class="xgrid crisp" transform="translate(84.14,0)" d="M0,20v530" style="stroke: rgb(235, 240, 248); stroke-opacity: 1; stroke-width: 1px;"/><path class="xgrid crisp" transform="translate(189.97,0)" d="M0,20v530" style="stroke: rgb(235, 240, 248); stroke-opacity: 1; stroke-width: 1px;"/><path class="xgrid crisp" transform="translate(295.78999999999996,0)" d="M0,20v530" style="stroke: rgb(235, 240, 248); stroke-opacity: 1; stroke-width: 1px;"/><path class="xgrid crisp" transform="translate(398.21,0)" d="M0,20v530" style="stroke: rgb(235, 240, 248); stroke-opacity: 1; stroke-width: 1px;"/><path class="xgrid crisp" transform="translate(504.03,0)" d="M0,20v530" style="stroke: rgb(235, 240, 248); stroke-opacity: 1; stroke-width: 1px;"/><path class="xgrid crisp" transform="translate(606.45,0)" d="M0,20v530" style="stroke: rgb(235, 240, 248); stroke-opacity: 1; stroke-width: 1px;"/><path class="xgrid crisp" transform="translate(712.28,0)" d="M0,20v530" style="stroke: rgb(235, 240, 248); stroke-opacity: 1; stroke-width: 1px;"/><path class="xgrid crisp" transform="translate(818.1,0)" d="M0,20v530" style="stroke: rgb(235, 240, 248); stroke-opacity: 1; stroke-width: 1px;"/><path class="xgrid crisp" transform="translate(917.1,0)" d="M0,20v530" style="stroke: rgb(235, 240, 248); stroke-opacity: 1; stroke-width: 1px;"/><path class="xgrid crisp" transform="translate(1022.93,0)" d="M0,20v530" style="stroke: rgb(235, 240, 248); stroke-opacity: 1; stroke-width: 1px;"/></g><g class="y"><path class="ygrid crisp" transform="translate(0,479.87)" d="M50,0h990" style="stroke: rgb(235, 240, 248); stroke-opacity: 1; stroke-width: 1px;"/><path class="ygrid crisp" transform="translate(0,409.75)" d="M50,0h990" style="stroke: rgb(235, 240, 248); stroke-opacity: 1; stroke-width: 1px;"/><path class="ygrid crisp" transform="translate(0,339.62)" d="M50,0h990" style="stroke: rgb(235, 240, 248); stroke-opacity: 1; stroke-width: 1px;"/><path class="ygrid crisp" transform="translate(0,269.5)" d="M50,0h990" style="stroke: rgb(235, 240, 248); stroke-opacity: 1; stroke-width: 1px;"/><path class="ygrid crisp" transform="translate(0,199.37)" d="M50,0h990" style="stroke: rgb(235, 240, 248); stroke-opacity: 1; stroke-width: 1px;"/><path class="ygrid crisp" transform="translate(0,129.25)" d="M50,0h990" style="stroke: rgb(235, 240, 248); stroke-opacity: 1; stroke-width: 1px;"/><path class="ygrid crisp" transform="translate(0,59.12)" d="M50,0h990" style="stroke: rgb(235, 240, 248); stroke-opacity: 1; stroke-width: 1px;"/></g></g><g class="zerolinelayer"><path class="yzl zl crisp" transform="translate(0,550)" d="M50,0h990" style="stroke: rgb(235, 240, 248); stroke-opacity: 1; stroke-width: 2px;"/></g><path class="xlines-below"/><path class="ylines-below"/><g class="overlines-below"/><g class="xaxislayer-below"/><g class="yaxislayer-below"/><g class="overaxes-below"/><g class="plot" transform="translate(50,20)" clip-path="url(#clip0157cdxyplot)"><g class="scatterlayer mlayer"><g class="trace scatter trace096029" style="stroke-miterlimit: 2; opacity: 1;"><g class="fills"/><g class="errorbars"/><g class="lines"><path class="js-line" d="M0,383.44L6.83,365.21L10.24,365.21L20.48,365.21L23.9,370.11L30.72,361.7L34.14,361.7L47.79,361.7L51.21,359.6L61.45,359.6L64.86,357.49L68.28,356.09L71.69,356.09L78.52,356.09L81.93,351.88L126.31,351.88L129.72,346.97L146.79,346.97L150.21,317.52L191.17,317.52L198,337.86L201.41,333.65L208.24,333.65L232.14,332.95L235.55,332.25L238.97,347.67L242.38,355.39L245.79,355.39L249.21,352.58L252.62,349.78L256.03,356.09L286.76,356.09L290.17,353.28L293.59,353.28L297,356.09L300.41,353.28L303.83,355.39L307.24,353.28L310.66,353.28L314.07,351.88L317.48,353.28L327.72,353.28L331.14,351.88L334.55,351.88L337.97,353.28L341.38,351.88L344.79,351.88L348.21,337.86L351.62,343.47L358.45,343.47L361.86,342.06L365.28,318.92L368.69,304.9L375.52,304.9L378.93,301.39L382.34,278.25L385.76,267.03L389.17,264.93L392.59,264.93L399.41,264.93L402.83,260.72L409.66,248.8L413.07,238.98L440.38,239.68L443.79,241.08L447.21,241.08L450.62,248.1L477.93,248.1L481.34,238.28L484.76,238.28L488.17,221.45L501.83,221.45L505.24,202.51L525.72,202.51L529.14,191.29L532.55,187.09L535.97,187.09L539.38,187.09L542.79,182.88L546.21,176.57L549.62,173.06L553.03,173.06L556.45,149.22L563.28,149.22L566.69,137.3L570.1,108.55L573.52,108.55L600.83,108.55L604.24,119.07L607.66,123.97L611.07,123.97L614.48,123.97L617.9,126.78L621.31,138L624.72,142.21L628.14,139.4L631.55,134.49L655.45,134.49L658.86,133.09L662.28,136.6L665.69,135.19L672.52,96.63L675.93,88.91L679.34,88.21L682.76,90.31L686.17,98.73L689.59,93.82L693,80.5L696.41,80.5L703.24,86.81L706.66,92.42L710.07,98.73L713.48,99.43L716.9,123.27L720.31,131.69L723.72,123.27L727.14,126.78L730.55,123.97L733.97,112.75L737.38,109.95L740.79,113.46L747.62,115.56L751.03,111.35L754.45,105.74L757.86,95.92L761.28,86.11L764.69,86.11L768.1,86.11L771.52,88.91L774.93,97.33L778.34,98.73L781.76,93.12L785.17,92.42L788.59,97.33L792,111.35L795.41,138.7L798.83,150.62L802.24,149.22L805.66,149.22L809.07,149.92L812.48,156.23L815.9,158.34L819.31,156.93L822.72,149.22L826.14,156.93L832.97,161.84L836.38,152.02L839.79,130.99L843.21,118.36L846.62,109.25L850.03,108.55L853.45,93.12L856.86,93.82L860.28,93.12L863.69,89.61L867.1,94.52L870.52,105.74L880.76,105.74L884.17,102.24L887.59,100.83L891,96.63L897.83,96.63L901.24,93.82L904.66,86.81L908.07,84L911.48,79.8L914.9,60.86L918.31,54.55L921.72,54.55L925.14,47.54L928.55,46.14L931.97,41.93L935.38,31.41L938.79,26.5" style="vector-effect: none; fill: none; stroke: rgb(138, 44, 81); stroke-opacity: 1; stroke-width: 5px; opacity: 1;"/></g><g class="points"/><g class="text"/></g><g class="trace scatter trace568dba" style="stroke-miterlimit: 2; opacity: 1;"><g class="fills"/><g class="errorbars"/><g class="lines"><path class="js-line" d="M0,224.25L6.83,234.07L10.24,234.07L20.48,234.07L23.9,238.98L30.72,228.46L34.14,228.46L61.45,228.46L64.86,229.86L68.28,231.27L71.69,231.27L78.52,231.27L81.93,234.77L198,234.77L201.41,254.41L228.72,254.41L232.14,250.9L235.55,248.1L238.97,231.97L242.38,208.12L245.79,208.12L252.62,220.75L256.03,199.71L286.76,199.71L290.17,210.23L293.59,210.23L297,199.71L300.41,210.23L303.83,197.61L307.24,194.8L310.66,194.8L314.07,208.12L317.48,194.8L327.72,194.8L331.14,208.12L334.55,208.12L337.97,194.8L341.38,208.12L344.79,208.12L348.21,195.5L351.62,211.63L361.86,211.63L365.28,215.84L375.52,215.84L378.93,219.34L382.34,231.27L385.76,235.47L392.59,236.17L396,236.17L406.24,236.17L409.66,238.28L416.48,238.98L419.9,238.98L436.97,238.98L440.38,241.08L443.79,245.29L447.21,245.29L450.62,248.1L457.45,248.1L481.34,248.8L484.76,245.99L488.17,253L491.59,253L501.83,253L505.24,251.6L525.72,251.6L529.14,262.82L532.55,265.63L535.97,265.63L539.38,265.63L542.79,269.83L549.62,277.55L553.03,277.55L556.45,264.22L559.86,264.22L563.28,264.22L566.69,271.24L570.1,280.35L573.52,280.35L600.83,280.35L604.24,270.54L607.66,264.93L611.07,264.93L614.48,264.93L617.9,262.12L621.31,245.99L624.72,241.08L631.55,244.59L634.97,244.59L652.03,244.59L655.45,243.19L658.86,244.59L662.28,241.08L665.69,241.08L669.1,259.32L672.52,272.64L675.93,280.35L679.34,281.06L682.76,278.95L686.17,269.83L689.59,264.93L693,278.25L696.41,278.25L703.24,271.94L706.66,266.33L710.07,260.02L713.48,259.32L716.9,235.47L720.31,227.06L723.72,235.47L727.14,231.97L730.55,234.77L733.97,245.99L737.38,248.8L740.79,245.29L747.62,243.19L751.03,247.39L754.45,253L757.86,262.82L761.28,272.64L764.69,272.64L768.1,272.64L771.52,269.83L774.93,261.42L778.34,260.02L781.76,265.63L785.17,266.33L788.59,261.42L792,247.39L795.41,220.05L798.83,208.12L802.24,209.53L805.66,209.53L809.07,208.83L812.48,202.51L815.9,200.41L819.31,201.81L822.72,209.53L826.14,201.81L832.97,196.9L836.38,206.72L839.79,227.76L843.21,240.38L846.62,249.5L850.03,250.2L853.45,265.63L856.86,264.93L860.28,265.63L863.69,269.13L867.1,264.22L870.52,253L880.76,253L884.17,256.51L887.59,257.91L891,262.12L897.83,262.12L901.24,264.93L904.66,271.94L908.07,274.74L911.48,278.95L914.9,297.89L918.31,304.2L921.72,304.2L925.14,311.21L928.55,312.61L931.97,316.82L935.38,327.34L938.79,332.25" style="vector-effect: none; fill: none; stroke: rgb(0, 174, 239); stroke-opacity: 1; stroke-width: 5px; opacity: 1;"/></g><g class="points"/><g class="text"/></g><g class="trace scatter tracef3710c" style="stroke-miterlimit: 2; opacity: 1;"><g class="fills"/><g class="errorbars"/><g class="lines"><path class="js-line" d="M0,456.37L6.83,459.17L10.24,459.17L20.48,459.17L23.9,456.37L27.31,457.07L30.72,460.58L61.45,461.28L64.86,463.38L68.28,464.78L71.69,464.78L126.31,464.78L129.72,463.38L146.79,463.38L150.21,473.9L191.17,473.9L198,469.69L201.41,478.81L208.24,478.81L232.14,479.51L235.55,480.91L238.97,480.91L242.38,488.63L245.79,488.63L249.21,484.42L252.62,480.21L256.03,492.13L286.76,492.13L290.17,486.52L293.59,486.52L297,492.13L300.41,486.52L303.83,491.43L310.66,491.43L314.07,485.82L317.48,491.43L320.9,491.43L327.72,491.43L331.14,485.82L334.55,485.82L337.97,491.43L341.38,485.82L344.79,485.82L348.21,486.52L351.62,481.61L361.86,482.31L365.28,489.33L368.69,492.83L372.1,492.83L375.52,492.83L378.93,494.24L389.17,499.14L392.59,499.14L399.41,499.14L402.83,500.55L413.07,508.26L416.48,508.26L501.83,508.26L505.24,507.56L553.03,508.26L556.45,521.58L563.28,521.58L566.69,522.99" style="vector-effect: none; fill: none; stroke: rgb(238, 58, 67); stroke-opacity: 1; stroke-width: 5px; opacity: 1;"/></g><g class="points"/><g class="text"/></g><g class="trace scatter trace1c6e53" style="stroke-miterlimit: 2; opacity: 1;"><g class="fills"/><g class="errorbars"/><g class="lines"><path class="js-line" d="M0,480.91L10.24,483.02L13.66,483.02L23.9,482.31L27.31,480.91L34.14,481.61L37.55,481.61L47.79,481.61L51.21,483.02L78.52,482.31L81.93,483.72L126.31,483.72L129.72,489.33L146.79,489.33L150.21,494.94L191.17,494.94L198,486.52L201.41,504.75L208.24,504.75L238.97,505.46L242.38,510.36L252.62,510.36L256.03,513.17L286.76,513.17L290.17,511.77L293.59,511.77L297,513.17L300.41,511.77L303.83,513.17L310.66,513.17L314.07,511.77L317.48,513.17L320.9,513.17L327.72,513.17L331.14,511.77L334.55,511.77L337.97,513.17L341.38,511.77L344.79,511.77L348.21,513.87L351.62,512.47L375.52,513.17L378.93,513.87L385.76,515.97L389.17,516.68L399.41,516.68L402.83,518.08L406.24,520.88L409.66,520.88L416.48,521.58L419.9,521.58L501.83,520.88" style="vector-effect: none; fill: none; stroke: rgb(255, 192, 203); stroke-opacity: 1; stroke-width: 5px; opacity: 1;"/></g><g class="points"/><g class="text"/></g><g class="trace scatter tracede2931" style="stroke-miterlimit: 2; opacity: 1;"><g class="fills"/><g class="errorbars"/><g class="lines"><path class="js-line" d="M0,474.6L10.24,476L13.66,476L20.48,476L23.9,466.19L30.72,487.92L34.14,487.92L64.86,487.22L68.28,486.52L146.79,485.82L150.21,489.33L191.17,489.33L198,487.92L201.41,490.73L208.24,490.73L232.14,491.43L235.55,492.13L245.79,491.43L249.21,494.24L252.62,497.04L256.03,492.13L286.76,492.13L290.17,494.24L293.59,494.24L297,492.13L300.41,494.24L303.83,493.53L307.24,496.34L310.66,496.34L314.07,497.04L317.48,496.34L344.79,497.04L348.21,499.14L365.28,499.14L368.69,500.55L378.93,501.25L382.34,501.95L389.17,504.75L392.59,504.75L399.41,504.75L402.83,506.16L413.07,511.77L416.48,511.77L501.83,511.77L505.24,518.78L553.03,519.48L556.45,521.58L563.28,521.58L566.69,522.99" style="vector-effect: none; fill: none; stroke: rgb(202, 166, 105); stroke-opacity: 1; stroke-width: 5px; opacity: 1;"/></g><g class="points"/><g class="text"/></g><g class="trace scatter trace1aa34a" style="stroke-miterlimit: 2; opacity: 1;"><g class="fills"/><g class="errorbars"/><g class="lines"><path class="js-line" d="M0,459.17L6.83,461.28L10.24,461.28L20.48,461.28L23.9,466.19L30.72,457.77L34.14,457.77L47.79,457.77L51.21,459.17L64.86,458.47L68.28,457.77L126.31,457.77L129.72,459.17L146.79,459.17L150.21,467.59L191.17,467.59L198,461.98L201.41,416.4L208.24,416.4L228.72,416.4L232.14,418.5L235.55,420.6L238.97,420.6L242.38,424.81L245.79,424.81L252.62,419.9L256.03,425.51L286.76,425.51L290.17,422.71L293.59,422.71L297,425.51L300.41,422.71L303.83,426.92L307.24,429.72L310.66,429.72L314.07,424.81L317.48,429.72L327.72,429.72L331.14,424.81L334.55,424.81L337.97,429.72L341.38,424.81L344.79,424.81L348.21,445.15L351.62,431.12L361.86,431.82L365.28,442.34L368.69,450.76L372.1,450.76L375.52,450.76L378.93,448.65L382.34,455.67L385.76,457.07L402.83,456.37L406.24,455.67L409.66,457.07L413.07,459.87L436.97,459.87L440.38,457.07L443.79,450.76L447.21,450.76L450.62,440.94L457.45,440.94L477.93,440.94L481.34,450.06L484.76,452.86L488.17,462.68L501.83,462.68L505.24,468.29L542.79,468.99L546.21,469.69L553.03,470.39L556.45,492.13L563.28,492.13L566.69,494.94L570.1,499.14L573.52,499.14L617.9,499.14L621.31,505.46L624.72,505.46L628.14,506.86L631.55,509.66L634.97,509.66L652.03,509.66L655.45,511.07L662.28,511.07L665.69,512.47L669.1,517.38L672.52,519.48L682.76,519.48L686.17,520.88" style="vector-effect: none; fill: none; stroke: rgb(255, 1, 170); stroke-opacity: 1; stroke-width: 5px; opacity: 1;"/></g><g class="points"/><g class="text"/></g></g></g><g class="overplot"/><path class="xlines-above crisp" d="M0,0" style="fill: none;"/><path class="ylines-above crisp" d="M0,0" style="fill: none;"/><g class="overlines-above"/><g class="xaxislayer-above"><g class="xtick"><text text-anchor="middle" x="0" y="563" transform="translate(84.14,0)" style="font-family: 'Open Sans', verdana, arial, sans-serif; font-size: 12px; fill: rgb(42, 63, 95); fill-opacity: 1; white-space: pre; opacity: 1;">1.7.23</text></g><g class="xtick"><text text-anchor="middle" x="0" y="563" style="font-family: 'Open Sans', verdana, arial, sans-serif; font-size: 12px; fill: rgb(42, 63, 95); fill-opacity: 1; white-space: pre; opacity: 1;" transform="translate(189.97,0)">1.8.23</text></g><g class="xtick"><text text-anchor="middle" x="0" y="563" style="font-family: 'Open Sans', verdana, arial, sans-serif; font-size: 12px; fill: rgb(42, 63, 95); fill-opacity: 1; white-space: pre; opacity: 1;" transform="translate(295.78999999999996,0)">1.9.23</text></g><g class="xtick"><text text-anchor="middle" x="0" y="563" style="font-family: 'Open Sans', verdana, arial, sans-serif; font-size: 12px; fill: rgb(42, 63, 95); fill-opacity: 1; white-space: pre; opacity: 1;" transform="translate(398.21,0)">1.10.23</text></g><g class="xtick"><text text-anchor="middle" x="0" y="563" style="font-family: 'Open Sans', verdana, arial, sans-serif; font-size: 12px; fill: rgb(42, 63, 95); fill-opacity: 1; white-space: pre; opacity: 1;" transform="translate(504.03,0)">1.11.23</text></g><g class="xtick"><text text-anchor="middle" x="0" y="563" style="font-family: 'Open Sans', verdana, arial, sans-serif; font-size: 12px; fill: rgb(42, 63, 95); fill-opacity: 1; white-space: pre; opacity: 1;" transform="translate(606.45,0)">1.12.23</text></g><g class="xtick"><text text-anchor="middle" x="0" y="563" style="font-family: 'Open Sans', verdana, arial, sans-serif; font-size: 12px; fill: rgb(42, 63, 95); fill-opacity: 1; white-space: pre; opacity: 1;" transform="translate(712.28,0)">1.1.24</text></g><g class="xtick"><text text-anchor="middle" x="0" y="563" style="font-family: 'Open Sans', verdana, arial, sans-serif; font-size: 12px; fill: rgb(42, 63, 95); fill-opacity: 1; white-space: pre; opacity: 1;" transform="translate(818.1,0)">1.2.24</text></g><g class="xtick"><text text-anchor="middle" x="0" y="563" style="font-family: 'Open Sans', verdana, arial, sans-serif; font-size: 12px; fill: rgb(42, 63, 95); fill-opacity: 1; white-space: pre; opacity: 1;" transform="translate(917.1,0)">1.3.24</text></g><g class="xtick"><text text-anchor="middle" x="0" y="563" style="font-family: 'Open Sans', verdana, arial, sans-serif; font-size: 12px; fill: rgb(42, 63, 95); fill-opacity: 1; white-space: pre; opacity: 1;" transform="translate(1022.93,0)">1.4.24</text></g></g><g class="yaxislayer-above"><g class="ytick"><text text-anchor="end" x="49" y="4.199999999999999" transform="translate(0,550)" style="font-family: 'Open Sans', verdana, arial, sans-serif; font-size: 12px; fill: rgb(42, 63, 95); fill-opacity: 1; white-space: pre; opacity: 1;">0%</text></g><g class="ytick"><text text-anchor="end" x="49" y="4.199999999999999" style="font-family: 'Open Sans', verdana, arial, sans-serif; font-size: 12px; fill: rgb(42, 63, 95); fill-opacity: 1; white-space: pre; opacity: 1;" transform="translate(0,479.87)">10%</text></g><g class="ytick"><text text-anchor="end" x="49" y="4.199999999999999" style="font-family: 'Open Sans', verdana, arial, sans-serif; font-size: 12px; fill: rgb(42, 63, 95); fill-opacity: 1; white-space: pre; opacity: 1;" transform="translate(0,409.75)">20%</text></g><g class="ytick"><text text-anchor="end" x="49" y="4.199999999999999" style="font-family: 'Open Sans', verdana, arial, sans-serif; font-size: 12px; fill: rgb(42, 63, 95); fill-opacity: 1; white-space: pre; opacity: 1;" transform="translate(0,339.62)">30%</text></g><g class="ytick"><text text-anchor="end" x="49" y="4.199999999999999" style="font-family: 'Open Sans', verdana, arial, sans-serif; font-size: 12px; fill: rgb(42, 63, 95); fill-opacity: 1; white-space: pre; opacity: 1;" transform="translate(0,269.5)">40%</text></g><g class="ytick"><text text-anchor="end" x="49" y="4.199999999999999" style="font-family: 'Open Sans', verdana, arial, sans-serif; font-size: 12px; fill: rgb(42, 63, 95); fill-opacity: 1; white-space: pre; opacity: 1;" transform="translate(0,199.37)">50%</text></g><g class="ytick"><text text-anchor="end" x="49" y="4.199999999999999" style="font-family: 'Open Sans', verdana, arial, sans-serif; font-size: 12px; fill: rgb(42, 63, 95); fill-opacity: 1; white-space: pre; opacity: 1;" transform="translate(0,129.25)">60%</text></g><g class="ytick"><text text-anchor="end" x="49" y="4.199999999999999" style="font-family: 'Open Sans', verdana, arial, sans-serif; font-size: 12px; fill: rgb(42, 63, 95); fill-opacity: 1; white-space: pre; opacity: 1;" transform="translate(0,59.12)">70%</text></g></g><g class="overaxes-above"/></g></g><g class="polarlayer"/><g class="smithlayer"/><g class="ternarylayer"/><g class="geolayer"/><g class="funnelarealayer"/><g class="pielayer"/><g class="iciclelayer"/><g class="treemaplayer"/><g class="sunburstlayer"/><g class="glimages"/><defs id="topdefs-0157cd"><g class="clips"/><clipPath id="legend0157cd"><rect width="128" height="124" x="0" y="0"/></clipPath></defs><g class="layer-above"><g class="imagelayer"/><g class="shapelayer"/></g><g class="infolayer"><g class="legend" pointer-events="all" transform="translate(1059.8000000000002,20)"><rect class="bg" shape-rendering="crispEdges" style="stroke: rgb(68, 68, 68); stroke-opacity: 1; fill: rgb(255, 255, 255); fill-opacity: 1; stroke-width: 0px;" width="128" height="124" x="0" y="0"/><g class="scrollbox" transform="" clip-path="url(#legend0157cd)"><g class="groups"><g class="traces" transform="translate(0,14.5)" style="opacity: 1;"><text class="legendtext" text-anchor="start" x="40" y="4.680000000000001" style="font-family: 'Open Sans', verdana, arial, sans-serif; font-size: 12px; fill: rgb(42, 63, 95); fill-opacity: 1; white-space: pre;">Pellegrini Peter</text><g class="layers" style="opacity: 1;"><g class="legendfill"/><g class="legendlines"><path class="js-line" d="M5,0h30" style="fill: none; stroke: rgb(138, 44, 81); stroke-opacity: 1; stroke-width: 5px;"/></g><g class="legendsymbols"><g class="legendpoints"/></g></g><rect class="legendtoggle" x="0" y="-9.5" width="122.703125" height="19" style="fill: rgb(0, 0, 0); fill-opacity: 0;"/></g><g class="traces" transform="translate(0,33.5)" style="opacity: 1;"><text class="legendtext" text-anchor="start" x="40" y="4.680000000000001" style="font-family: 'Open Sans', verdana, arial, sans-serif; font-size: 12px; fill: rgb(42, 63, 95); fill-opacity: 1; white-space: pre;">Korčok Ivan</text><g class="layers" style="opacity: 1;"><g class="legendfill"/><g class="legendlines"><path class="js-line" d="M5,0h30" style="fill: none; stroke: rgb(0, 174, 239); stroke-opacity: 1; stroke-width: 5px;"/></g><g class="legendsymbols"><g class="legendpoints"/></g></g><rect class="legendtoggle" x="0" y="-9.5" width="122.703125" height="19" style="fill: rgb(0, 0, 0); fill-opacity: 0;"/></g><g class="traces" transform="translate(0,52.5)" style="opacity: 1;"><text class="legendtext" text-anchor="start" x="40" y="4.680000000000001" style="font-family: 'Open Sans', verdana, arial, sans-serif; font-size: 12px; fill: rgb(42, 63, 95); fill-opacity: 1; white-space: pre;">Fico Robert</text><g class="layers" style="opacity: 1;"><g class="legendfill"/><g class="legendlines"><path class="js-line" d="M5,0h30" style="fill: none; stroke: rgb(238, 58, 67); stroke-opacity: 1; stroke-width: 5px;"/></g><g class="legendsymbols"><g class="legendpoints"/></g></g><rect class="legendtoggle" x="0" y="-9.5" width="122.703125" height="19" style="fill: rgb(0, 0, 0); fill-opacity: 0;"/></g><g class="traces" transform="translate(0,71.5)" style="opacity: 1;"><text class="legendtext" text-anchor="start" x="40" y="4.680000000000001" style="font-family: 'Open Sans', verdana, arial, sans-serif; font-size: 12px; fill: rgb(42, 63, 95); fill-opacity: 1; white-space: pre;">Lajčák Miroslav</text><g class="layers" style="opacity: 1;"><g class="legendfill"/><g class="legendlines"><path class="js-line" d="M5,0h30" style="fill: none; stroke: rgb(255, 192, 203); stroke-opacity: 1; stroke-width: 5px;"/></g><g class="legendsymbols"><g class="legendpoints"/></g></g><rect class="legendtoggle" x="0" y="-9.5" width="122.703125" height="19" style="fill: rgb(0, 0, 0); fill-opacity: 0;"/></g><g class="traces" transform="translate(0,90.5)" style="opacity: 1;"><text class="legendtext" text-anchor="start" x="40" y="4.680000000000001" style="font-family: 'Open Sans', verdana, arial, sans-serif; font-size: 12px; fill: rgb(42, 63, 95); fill-opacity: 1; white-space: pre;">Mistrík Robert</text><g class="layers" style="opacity: 1;"><g class="legendfill"/><g class="legendlines"><path class="js-line" d="M5,0h30" style="fill: none; stroke: rgb(202, 166, 105); stroke-opacity: 1; stroke-width: 5px;"/></g><g class="legendsymbols"><g class="legendpoints"/></g></g><rect class="legendtoggle" x="0" y="-9.5" width="122.703125" height="19" style="fill: rgb(0, 0, 0); fill-opacity: 0;"/></g><g class="traces" transform="translate(0,109.5)" style="opacity: 1;"><text class="legendtext" text-anchor="start" x="40" y="4.680000000000001" style="font-family: 'Open Sans', verdana, arial, sans-serif; font-size: 12px; fill: rgb(42, 63, 95); fill-opacity: 1; white-space: pre;">Kubiš Ján</text><g class="layers" style="opacity: 1;"><g class="legendfill"/><g class="legendlines"><path class="js-line" d="M5,0h30" style="fill: none; stroke: rgb(255, 1, 170); stroke-opacity: 1; stroke-width: 5px;"/></g><g class="legendsymbols"><g class="legendpoints"/></g></g><rect class="legendtoggle" x="0" y="-9.5" width="122.703125" height="19" style="fill: rgb(0, 0, 0); fill-opacity: 0;"/></g></g></g><rect class="scrollbar" rx="20" ry="3" width="0" height="0" style="fill: rgb(128, 139, 164); fill-opacity: 1;" x="0" y="0"/></g><g class="g-gtitle"/><g class="g-xtitle"/><g class="g-ytitle"/></g></svg>