<svg class="main-svg" xmlns="http://www.w3.org/2000/svg" xmlns:xlink="http://www.w3.org/1999/xlink" width="300" height="135" style="" viewBox="0 0 300 135"><rect x="0" y="0" width="300" height="135" style="fill: rgb(255, 255, 255); fill-opacity: 1;"/><defs id="defs-48dec9"><g class="clips"><clipPath id="clip48dec9xyplot" class="plotclip"><rect width="280" height="75"/></clipPath><clipPath class="axesclip" id="clip48dec9x"><rect x="10" y="0" width="280" height="135"/></clipPath><clipPath class="axesclip" id="clip48dec9y"><rect x="0" y="50" width="300" height="75"/></clipPath><clipPath class="axesclip" id="clip48dec9xy"><rect x="10" y="50" width="280" height="75"/></clipPath></g><g class="gradients"/><g class="patterns"/></defs><g class="bglayer"/><g class="layer-below"><g class="imagelayer"/><g class="shapelayer"/></g><g class="cartesianlayer"><g class="subplot xy"><g class="layer-subplot"><g class="shapelayer"/><g class="imagelayer"/></g><g class="minor-gridlayer"><g class="x"/><g class="y"/></g><g class="gridlayer"><g class="x"><path class="xgrid crisp" transform="translate(20.33,0)" d="M0,50v75" style="stroke: rgb(235, 240, 248); stroke-opacity: 1; stroke-width: 1px;"/><path class="xgrid crisp" transform="translate(84.39,0)" d="M0,50v75" style="stroke: rgb(235, 240, 248); stroke-opacity: 1; stroke-width: 1px;"/><path class="xgrid crisp" transform="translate(147.42,0)" d="M0,50v75" style="stroke: rgb(235, 240, 248); stroke-opacity: 1; stroke-width: 1px;"/><path class="xgrid crisp" transform="translate(210.44,0)" d="M0,50v75" style="stroke: rgb(235, 240, 248); stroke-opacity: 1; stroke-width: 1px;"/><path class="xgrid crisp" transform="translate(272.44,0)" d="M0,50v75" style="stroke: rgb(235, 240, 248); stroke-opacity: 1; stroke-width: 1px;"/></g><g class="y"><path class="ygrid crisp" transform="translate(0,104.11)" d="M10,0h280" style="stroke: rgb(235, 240, 248); stroke-opacity: 1; stroke-width: 1px;"/><path class="ygrid crisp" transform="translate(0,83.21000000000001)" d="M10,0h280" style="stroke: rgb(235, 240, 248); stroke-opacity: 1; stroke-width: 1px;"/><path class="ygrid crisp" transform="translate(0,62.32)" d="M10,0h280" style="stroke: rgb(235, 240, 248); stroke-opacity: 1; stroke-width: 1px;"/></g></g><g class="zerolinelayer"><path class="yzl zl crisp" transform="translate(0,125)" d="M10,0h280" style="stroke: rgb(235, 240, 248); stroke-opacity: 1; stroke-width: 2px;"/></g><path class="xlines-below"/><path class="ylines-below"/><g class="overlines-below"/><g class="xaxislayer-below"/><g class="yaxislayer-below"/><g class="overaxes-below"/><g class="plot" transform="translate(10,50)" clip-path="url(#clip48dec9xyplot)"><g class="scatterlayer mlayer"><g class="trace scatter traceee35ae" style="stroke-miterlimit: 2; opacity: 1;"><g class="fills"/><g class="errorbars"/><g class="lines"><path class="js-line" d="M0,53.17L3.1,50.45L4.13,50.45L14.46,49.93L15.5,49.61L38.23,48.46L39.26,47.73L44.43,47.73L45.46,43.34L57.86,43.34L59.93,46.37L63.03,45.75L64.06,45.75L71.29,45.54L72.32,47.84L74.39,48.99L75.42,48.57L76.46,48.15L77.49,49.09L104.35,48.46L105.39,46.37L107.45,47.21L108.49,47.21L109.52,47L110.55,43.55L112.62,41.46L113.65,41.46L114.69,40.94L115.72,37.49L117.79,35.51L118.82,35.51L121.92,34.88L122.95,33.94L126.05,31.64L127.08,31.64L135.35,31.96L136.38,33L144.65,33L145.68,31.54L146.72,31.54L147.75,29.03L151.88,29.03L152.92,26.21L159.11,26.21L160.15,24.54L166.35,21.82L167.38,21.82L169.45,18.27L170.48,18.27L171.51,16.5L172.55,12.21L181.85,12.21L182.88,13.78L185.98,14.51L187.01,14.93L189.08,17.23L190.11,16.81L193.21,16.08L194.24,16.08L201.48,16.18L202.51,12.73L204.58,9.29L205.61,9.18L208.71,10.02L209.74,8.03L212.84,8.97L213.87,9.81L215.94,10.85L216.97,14.41L218.01,15.66L219.04,14.41L221.11,14.51L222.14,12.84L224.21,12.94L225.24,13.05L227.31,12.63L228.34,11.79L231.44,8.87L232.47,8.87L235.57,10.75L236.61,9.91L238.67,10.54L239.7,12.63L241.77,18.48L242.8,18.27L245.9,19.32L246.94,19.63L249,18.27L250.04,19.42L252.1,20.15L253.14,18.69L256.24,12.32L257.27,12.21L259.34,10.02L260.37,9.91L262.44,10.12L263.47,11.79L268.63,11.06L269.67,10.44L272.77,10.02L273.8,8.97L275.87,7.93L276.9,5.11L280,3.75" style="vector-effect: none; fill: none; stroke: rgb(138, 44, 81); stroke-opacity: 1; stroke-width: 5px; opacity: 1;"/></g><g class="points"/><g class="text"/></g><g class="trace scatter trace63e81d" style="stroke-miterlimit: 2; opacity: 1;"><g class="fills"/><g class="errorbars"/><g class="lines"><path class="js-line" d="M0,29.45L4.13,30.91L5.17,30.91L8.27,30.7L9.3,30.08L59.93,31.02L60.96,33.94L71.29,33L72.32,30.6L74.39,27.05L75.42,27.99L76.46,28.93L77.49,25.79L86.79,25.79L87.82,27.36L88.86,27.36L89.89,25.79L90.92,27.36L91.96,25.48L94.02,25.06L95.06,27.05L97.12,25.06L98.15,25.06L99.19,25.06L100.22,27.05L101.25,27.05L102.29,25.06L104.35,27.05L105.39,25.17L107.45,27.57L108.49,27.57L114.69,28.72L115.72,30.49L118.82,31.23L119.85,31.23L133.28,31.96L134.32,32.58L159.11,33.52L160.15,35.2L167.38,37.39L168.41,35.41L171.51,36.45L172.55,37.81L181.85,37.81L182.88,36.35L184.94,35.51L185.98,35.51L187.01,35.09L188.04,32.69L190.11,32.17L191.14,32.48L201.48,31.96L202.51,34.67L204.58,37.81L205.61,37.91L207.68,36.24L208.71,35.51L210.77,37.49L211.81,36.97L215.94,34.67L216.97,31.12L218.01,29.87L219.04,31.12L221.11,31.02L222.14,32.69L224.21,32.58L225.24,32.48L227.31,32.9L228.34,33.73L231.44,36.66L232.47,36.66L235.57,34.78L236.61,35.61L238.67,34.99L239.7,32.9L241.77,27.05L242.8,27.26L245.9,26.21L246.94,25.9L249,27.26L250.04,26.11L252.1,25.38L253.14,26.84L256.24,33.21L257.27,33.32L259.34,35.51L260.37,35.61L262.44,35.41L263.47,33.73L268.63,34.46L269.67,35.09L272.77,35.51L273.8,36.55L275.87,37.6L276.9,40.42L280,41.78" style="vector-effect: none; fill: none; stroke: rgb(0, 174, 239); stroke-opacity: 1; stroke-width: 5px; opacity: 1;"/></g><g class="points"/><g class="text"/></g><g class="trace scatter trace3179fb" style="stroke-miterlimit: 2; opacity: 1;"><g class="fills"/><g class="errorbars"/><g class="lines"><path class="js-line" d="M0,67.69L12.4,67.79L13.43,67.79L44.43,68.94L45.46,69.78L57.86,69.78L59.93,68.52L60.96,71.24L63.03,71.24L104.35,72.28L105.39,72.6L111.59,72.49L112.62,72.49L123.99,73.64L125.02,73.75L151.88,73.64" style="vector-effect: none; fill: none; stroke: rgb(255, 192, 203); stroke-opacity: 1; stroke-width: 5px; opacity: 1;"/></g><g class="points"/><g class="text"/></g><g class="trace scatter tracee9d4c9" style="stroke-miterlimit: 2; opacity: 1;"><g class="fills"/><g class="errorbars"/><g class="lines"><path class="js-line" d="M0,66.75L6.2,66.96L7.23,65.49L10.33,68.73L11.37,68.73L75.42,69.67L76.46,70.09L79.56,69.36L80.59,69.36L113.65,70.61L114.69,70.72L138.45,72.39L139.48,72.39L167.38,73.43L168.41,73.75L171.51,73.96" style="vector-effect: none; fill: none; stroke: rgb(202, 166, 105); stroke-opacity: 1; stroke-width: 5px; opacity: 1;"/></g><g class="points"/><g class="text"/></g><g class="trace scatter tracef981eb" style="stroke-miterlimit: 2; opacity: 1;"><g class="fills"/><g class="errorbars"/><g class="lines"><path class="js-line" d="M0,64.03L6.2,64.45L7.23,64.03L27.9,65.28L28.93,65.28L44.43,65.08L45.46,66.64L59.93,66.02L60.96,67.37L72.32,67.69L73.36,68.84L75.42,68.21L76.46,67.58L78.52,69.36L79.56,69.36L105.39,68.52L106.42,67.79L110.55,68.94L111.59,69.46L121.92,70.61L122.95,71.03L131.22,71.76L132.25,71.76L167.38,71.76L168.41,73.75L171.51,73.96" style="vector-effect: none; fill: none; stroke: rgb(238, 58, 67); stroke-opacity: 1; stroke-width: 5px; opacity: 1;"/></g><g class="points"/><g class="text"/></g></g></g><g class="overplot"/><path class="xlines-above crisp" d="M0,0" style="fill: none;"/><path class="ylines-above crisp" d="M0,0" style="fill: none;"/><g class="overlines-above"/><g class="xaxislayer-above"/><g class="yaxislayer-above"/><g class="overaxes-above"/></g></g><g class="polarlayer"/><g class="smithlayer"/><g class="ternarylayer"/><g class="geolayer"/><g class="funnelarealayer"/><g class="pielayer"/><g class="iciclelayer"/><g class="treemaplayer"/><g class="sunburstlayer"/><g class="glimages"/><defs id="topdefs-48dec9"><g class="clips"/></defs><g class="layer-above"><g class="imagelayer"/><g class="shapelayer"/></g><g class="infolayer"><g class="g-gtitle"><text class="gtitle" x="15" y="25" text-anchor="start" dy="0em" style="font-family: Ubuntu, verdana, arial, sans-serif; font-size: 16px; fill: rgb(233, 84, 32); opacity: 1; font-weight: normal; white-space: pre;">Prezident/ka 2024</text></g><g class="g-xtitle"/><g class="g-ytitle"/></g></svg>