<svg class="main-svg" xmlns="http://www.w3.org/2000/svg" xmlns:xlink="http://www.w3.org/1999/xlink" width="300" height="135" style="" viewBox="0 0 300 135"><rect x="0" y="0" width="300" height="135" style="fill: rgb(255, 255, 255); fill-opacity: 1;"/><defs id="defs-3d2d72"><g class="clips"><clipPath id="clip3d2d72xyplot" class="plotclip"><rect width="280" height="75"/></clipPath><clipPath class="axesclip" id="clip3d2d72x"><rect x="10" y="0" width="280" height="135"/></clipPath><clipPath class="axesclip" id="clip3d2d72y"><rect x="0" y="50" width="300" height="75"/></clipPath><clipPath class="axesclip" id="clip3d2d72xy"><rect x="10" y="50" width="280" height="75"/></clipPath></g><g class="gradients"/><g class="patterns"/></defs><g class="bglayer"/><g class="layer-below"><g class="imagelayer"/><g class="shapelayer"/></g><g class="cartesianlayer"><g class="subplot xy"><g class="layer-subplot"><g class="shapelayer"/><g class="imagelayer"/></g><g class="minor-gridlayer"><g class="x"/><g class="y"/></g><g class="gridlayer"><g class="x"><path class="xgrid crisp" transform="translate(23.02,0)" d="M0,50v75" style="stroke: rgb(235, 240, 248); stroke-opacity: 1; stroke-width: 1px;"/><path class="xgrid crisp" transform="translate(103.77,0)" d="M0,50v75" style="stroke: rgb(235, 240, 248); stroke-opacity: 1; stroke-width: 1px;"/><path class="xgrid crisp" transform="translate(183.21,0)" d="M0,50v75" style="stroke: rgb(235, 240, 248); stroke-opacity: 1; stroke-width: 1px;"/><path class="xgrid crisp" transform="translate(262.65,0)" d="M0,50v75" style="stroke: rgb(235, 240, 248); stroke-opacity: 1; stroke-width: 1px;"/></g><g class="y"><path class="ygrid crisp" transform="translate(0,102.77000000000001)" d="M10,0h280" style="stroke: rgb(235, 240, 248); stroke-opacity: 1; stroke-width: 1px;"/><path class="ygrid crisp" transform="translate(0,80.53999999999999)" d="M10,0h280" style="stroke: rgb(235, 240, 248); stroke-opacity: 1; stroke-width: 1px;"/><path class="ygrid crisp" transform="translate(0,58.31)" d="M10,0h280" style="stroke: rgb(235, 240, 248); stroke-opacity: 1; stroke-width: 1px;"/></g></g><g class="zerolinelayer"><path class="yzl zl crisp" transform="translate(0,125)" d="M10,0h280" style="stroke: rgb(235, 240, 248); stroke-opacity: 1; stroke-width: 2px;"/></g><path class="xlines-below"/><path class="ylines-below"/><g class="overlines-below"/><g class="xaxislayer-below"/><g class="yaxislayer-below"/><g class="overaxes-below"/><g class="plot" transform="translate(10,50)" clip-path="url(#clip3d2d72xyplot)"><g class="scatterlayer mlayer"><g class="trace scatter tracec50c57" style="stroke-miterlimit: 2; opacity: 1;"><g class="fills"/><g class="errorbars"/><g class="lines"><path class="js-line" d="M0,51.77L3.91,48.88L5.21,48.88L10.42,49.1L11.72,48.32L29.95,47.43L31.26,46.77L56,45.99L57.3,41.32L72.93,41.32L75.53,44.54L79.44,43.88L80.74,43.88L89.86,43.65L91.16,46.1L93.77,47.32L95.07,46.88L96.37,46.43L97.67,47.43L131.53,46.77L132.84,44.54L135.44,45.43L136.74,45.43L138.05,45.21L139.35,41.54L141.95,39.32L143.26,39.32L144.56,38.76L145.86,35.1L148.47,32.98L149.77,32.98L153.67,32.32L154.98,31.32L158.88,28.87L160.19,28.87L170.6,29.2L171.91,30.32L182.33,30.32L183.63,28.76L184.93,28.76L186.23,26.09L191.44,26.09L192.74,23.09L200.56,23.09L201.86,21.31L209.67,18.42L210.98,18.42L213.58,14.64L214.88,14.64L216.19,12.75L217.49,8.2L229.21,8.2L230.51,9.86L233.12,10.64L234.42,10.64L237.02,12.86L238.33,13.53L243.53,12.31L244.84,12.31L253.95,12.42L255.26,8.75L257.86,5.08L259.16,4.97L263.07,5.86L264.37,3.75L268.28,4.75L269.58,5.64L272.19,6.75L273.49,10.53L274.79,11.86L276.09,10.53L278.7,10.64L280,9.31" style="vector-effect: none; fill: none; stroke: rgb(138, 44, 81); stroke-opacity: 1; stroke-width: 5px; opacity: 1;"/></g><g class="points"/><g class="text"/></g><g class="trace scatter trace6d97c8" style="stroke-miterlimit: 2; opacity: 1;"><g class="fills"/><g class="errorbars"/><g class="lines"><path class="js-line" d="M0,26.54L5.21,28.09L6.51,28.09L10.42,27.87L11.72,27.2L75.53,28.2L76.84,31.32L89.86,30.32L91.16,27.76L93.77,23.98L95.07,24.98L96.37,25.98L97.67,22.65L109.4,22.65L110.7,24.31L112,24.31L113.3,22.65L114.6,24.31L115.91,22.31L118.51,21.87L119.81,23.98L122.42,21.87L123.72,21.87L125.02,21.87L126.33,23.98L127.63,23.98L128.93,21.87L131.53,23.98L132.84,21.98L135.44,24.54L136.74,24.54L144.56,25.76L145.86,27.65L149.77,28.43L151.07,28.43L168,29.2L169.3,29.87L200.56,30.87L201.86,32.65L210.98,34.98L212.28,32.87L216.19,33.98L217.49,35.43L229.21,35.43L230.51,33.87L233.12,32.98L234.42,32.98L235.72,32.54L237.02,29.98L239.63,29.43L240.93,29.76L253.95,29.2L255.26,32.09L257.86,35.43L259.16,35.54L261.77,33.76L263.07,32.98L265.67,35.1L266.98,34.54L272.19,32.09L273.49,28.32L274.79,26.98L276.09,28.32L278.7,28.2L280,29.54" style="vector-effect: none; fill: none; stroke: rgb(0, 174, 239); stroke-opacity: 1; stroke-width: 5px; opacity: 1;"/></g><g class="points"/><g class="text"/></g><g class="trace scatter trace38198d" style="stroke-miterlimit: 2; opacity: 1;"><g class="fills"/><g class="errorbars"/><g class="lines"><path class="js-line" d="M0,66.22L7.81,66.44L9.12,64.88L11.72,68.33L13.02,68.33L93.77,68.89L95.07,69.33L97.67,69L98.98,69L139.35,70.11L140.65,70.33L154.98,71.55L156.28,71.78L161.49,72.11L162.79,72.11L210.98,73.33L212.28,73.67L216.19,73.89" style="vector-effect: none; fill: none; stroke: rgb(202, 166, 105); stroke-opacity: 1; stroke-width: 5px; opacity: 1;"/></g><g class="points"/><g class="text"/></g><g class="trace scatter traced72b82" style="stroke-miterlimit: 2; opacity: 1;"><g class="fills"/><g class="errorbars"/><g class="lines"><path class="js-line" d="M0,63.77L9.12,64.88L10.42,64.22L14.33,63.55L15.63,63.55L56,63.77L57.3,65.11L75.53,64.22L76.84,56.99L91.16,57.66L92.47,58.33L115.91,58.66L117.21,59.1L131.53,58.33L132.84,61.55L135.44,59.33L136.74,59.33L138.05,59.44L139.35,61.11L141.95,62.44L143.26,62.44L144.56,62.11L145.86,63.22L153.67,63.33L154.98,63.22L164.09,63.88L165.4,63.88L168,63.44L169.3,62.44L170.6,62.44L171.91,60.88L182.33,60.88L183.63,62.33L188.84,64.33L190.14,64.33L210.98,65.55L212.28,69L235.72,70.11L237.02,71.11L253.95,72.22L255.26,73L261.77,73.55" style="vector-effect: none; fill: none; stroke: rgb(255, 1, 170); stroke-opacity: 1; stroke-width: 5px; opacity: 1;"/></g><g class="points"/><g class="text"/></g><g class="trace scatter trace933ac0" style="stroke-miterlimit: 2; opacity: 1;"><g class="fills"/><g class="errorbars"/><g class="lines"><path class="js-line" d="M0,67.22L14.33,67.33L15.63,67.33L56,68.55L57.3,69.44L72.93,69.44L75.53,68.11L76.84,71L79.44,71L96.37,71.89L97.67,72.33L153.67,73.11L154.98,73.55L191.44,73.55" style="vector-effect: none; fill: none; stroke: rgb(255, 192, 203); stroke-opacity: 1; stroke-width: 5px; opacity: 1;"/></g><g class="points"/><g class="text"/></g></g></g><g class="overplot"/><path class="xlines-above crisp" d="M0,0" style="fill: none;"/><path class="ylines-above crisp" d="M0,0" style="fill: none;"/><g class="overlines-above"/><g class="xaxislayer-above"/><g class="yaxislayer-above"/><g class="overaxes-above"/></g></g><g class="polarlayer"/><g class="smithlayer"/><g class="ternarylayer"/><g class="geolayer"/><g class="funnelarealayer"/><g class="pielayer"/><g class="iciclelayer"/><g class="treemaplayer"/><g class="sunburstlayer"/><g class="glimages"/><defs id="topdefs-3d2d72"><g class="clips"/></defs><g class="layer-above"><g class="imagelayer"/><g class="shapelayer"/></g><g class="infolayer"><g class="g-gtitle"><text class="gtitle" x="15" y="25" text-anchor="start" dy="0em" style="font-family: Ubuntu, verdana, arial, sans-serif; font-size: 16px; fill: rgb(233, 84, 32); opacity: 1; font-weight: normal; white-space: pre;">Prezident/ka 2024</text></g><g class="g-xtitle"/><g class="g-ytitle"/></g></svg>