<svg class="main-svg" xmlns="http://www.w3.org/2000/svg" xmlns:xlink="http://www.w3.org/1999/xlink" width="400" height="400" style="" viewBox="0 0 400 400"><rect x="0" y="0" width="400" height="400" style="fill: rgb(255, 255, 255); fill-opacity: 1;"/><defs id="defs-3aba2b"><g class="clips"><clipPath id="clip3aba2bxyplot" class="plotclip"><rect width="206" height="330"/></clipPath><clipPath class="axesclip" id="clip3aba2bx"><rect x="50" y="0" width="206" height="400"/></clipPath><clipPath class="axesclip" id="clip3aba2by"><rect x="0" y="20" width="400" height="330"/></clipPath><clipPath class="axesclip" id="clip3aba2bxy"><rect x="50" y="20" width="206" height="330"/></clipPath></g><g class="gradients"/><g class="patterns"/></defs><g class="bglayer"/><g class="layer-below"><g class="imagelayer"/><g class="shapelayer"/></g><g class="cartesianlayer"><g class="subplot xy"><g class="layer-subplot"><g class="shapelayer"/><g class="imagelayer"/></g><g class="minor-gridlayer"><g class="x"/><g class="y"/></g><g class="gridlayer"><g class="x"><path class="xgrid crisp" transform="translate(56.87,0)" d="M0,20v330" style="stroke: rgb(235, 240, 248); stroke-opacity: 1; stroke-width: 1px;"/><path class="xgrid crisp" transform="translate(99.44,0)" d="M0,20v330" style="stroke: rgb(235, 240, 248); stroke-opacity: 1; stroke-width: 1px;"/><path class="xgrid crisp" transform="translate(141.32999999999998,0)" d="M0,20v330" style="stroke: rgb(235, 240, 248); stroke-opacity: 1; stroke-width: 1px;"/><path class="xgrid crisp" transform="translate(183.21,0)" d="M0,20v330" style="stroke: rgb(235, 240, 248); stroke-opacity: 1; stroke-width: 1px;"/><path class="xgrid crisp" transform="translate(224.41,0)" d="M0,20v330" style="stroke: rgb(235, 240, 248); stroke-opacity: 1; stroke-width: 1px;"/></g><g class="y"><path class="ygrid crisp" transform="translate(0,300.71)" d="M50,0h206" style="stroke: rgb(235, 240, 248); stroke-opacity: 1; stroke-width: 1px;"/><path class="ygrid crisp" transform="translate(0,251.42)" d="M50,0h206" style="stroke: rgb(235, 240, 248); stroke-opacity: 1; stroke-width: 1px;"/><path class="ygrid crisp" transform="translate(0,202.12)" d="M50,0h206" style="stroke: rgb(235, 240, 248); stroke-opacity: 1; stroke-width: 1px;"/><path class="ygrid crisp" transform="translate(0,152.83)" d="M50,0h206" style="stroke: rgb(235, 240, 248); stroke-opacity: 1; stroke-width: 1px;"/><path class="ygrid crisp" transform="translate(0,103.54)" d="M50,0h206" style="stroke: rgb(235, 240, 248); stroke-opacity: 1; stroke-width: 1px;"/><path class="ygrid crisp" transform="translate(0,54.25)" d="M50,0h206" style="stroke: rgb(235, 240, 248); stroke-opacity: 1; stroke-width: 1px;"/></g></g><g class="zerolinelayer"><path class="yzl zl crisp" transform="translate(0,350)" d="M50,0h206" style="stroke: rgb(235, 240, 248); stroke-opacity: 1; stroke-width: 2px;"/></g><path class="xlines-below"/><path class="ylines-below"/><g class="overlines-below"/><g class="xaxislayer-below"/><g class="yaxislayer-below"/><g class="overaxes-below"/><g class="plot" transform="translate(50,20)" clip-path="url(#clip3aba2bxyplot)"><g class="scatterlayer mlayer"><g class="trace scatter traceade844" style="stroke-miterlimit: 2; opacity: 1;"><g class="fills"/><g class="errorbars"/><g class="lines"><path class="js-line" d="M0,226.98L2.06,214.16L2.75,214.16L4.12,214.16L4.81,217.61L6.87,211.7L7.55,211.7L9.61,211.7L10.3,210.22L12.36,210.22L13.05,208.74L15.11,207.75L15.79,207.75L17.17,204.8L17.85,204.8L25.41,204.8L26.09,201.35L29.53,201.35L30.21,180.64L38.45,180.64L39.83,194.94L40.51,191.98L41.89,191.98L47.38,191L48.07,201.84L49.44,207.26L50.13,205.29L50.81,203.32L51.5,207.75L57.68,207.75L58.37,205.78L59.05,205.78L59.74,207.75L60.43,205.78L61.11,207.26L61.8,205.78L69.35,204.8L70.04,194.94L71.41,198.88L72.1,198.88L72.79,197.9L73.47,181.63L74.85,171.77L75.53,171.77L76.22,169.31L76.91,153.04L78.97,143.67L79.65,143.67L80.34,143.67L81.03,140.72L83.77,125.44L84.46,125.44L88.58,125.93L89.27,126.92L89.95,126.92L90.64,131.84L96.13,131.84L96.82,124.94L97.51,124.94L98.19,113.11L100.94,113.11L101.63,99.8L105.75,99.8L106.43,91.92L107.81,88.96L108.49,88.96L111.24,79.1L111.93,62.34L113.3,62.34L113.99,53.96L115.36,33.75L116.05,33.75L120.85,33.75L121.54,41.15L122.91,44.6L123.6,44.6L124.29,46.57L124.97,54.46L125.66,57.41L126.35,55.44L127.03,51.99L132.53,51L133.21,53.47L133.9,52.48L134.59,36.22L136.65,16.5" style="vector-effect: none; fill: none; stroke: rgb(138, 44, 81); stroke-opacity: 1; stroke-width: 5px; opacity: 1;"/></g><g class="points"/><g class="text"/></g><g class="trace scatter trace46d1a1" style="stroke-miterlimit: 2; opacity: 1;"><g class="fills"/><g class="errorbars"/><g class="lines"><path class="js-line" d="M0,115.08L2.06,121.99L2.75,121.99L4.12,121.99L4.81,125.44L6.87,118.04L7.55,118.04L13.05,119.03L13.73,120.01L15.79,120.01L16.48,122.48L39.83,122.48L40.51,136.28L46.01,136.28L46.69,133.82L47.38,131.84L48.07,120.51L49.44,103.75L50.13,108.18L50.81,112.62L51.5,97.83L57.68,97.83L58.37,105.23L59.05,105.23L59.74,97.83L60.43,105.23L61.11,96.35L62.49,94.38L63.17,103.75L64.55,94.38L65.23,94.38L65.92,94.38L66.61,103.75L67.29,103.75L67.98,94.38L69.35,103.75L70.04,94.88L71.41,106.21L72.1,106.21L72.79,106.21L73.47,109.17L75.53,109.17L76.22,111.63L78.28,123.46L78.97,123.46L81.71,123.46L82.4,124.94L85.15,125.44L85.83,125.44L87.89,125.44L88.58,126.92L90.64,131.84L92.01,131.84L96.82,132.34L97.51,130.37L98.88,135.29L99.57,135.29L105.75,134.31L106.43,142.2L107.81,144.17L108.49,144.17L111.24,152.55L111.93,143.18L113.3,143.18L113.99,148.11L115.36,154.52L116.05,154.52L120.85,154.52L121.54,147.62L122.91,143.67L123.6,143.67L124.29,141.7L124.97,130.37L125.66,126.92L126.35,127.9L127.03,129.38L132.53,129.38L133.21,126.92L133.9,126.92L134.59,139.73L136.65,157.48" style="vector-effect: none; fill: none; stroke: rgb(0, 174, 239); stroke-opacity: 1; stroke-width: 5px; opacity: 1;"/></g><g class="points"/><g class="text"/></g><g class="trace scatter traceea6c6a" style="stroke-miterlimit: 2; opacity: 1;"><g class="fills"/><g class="errorbars"/><g class="lines"><path class="js-line" d="M0,280.21L2.06,281.69L2.75,281.69L4.12,281.69L4.81,285.14L6.87,279.23L7.55,279.23L29.53,280.21L30.21,286.13L38.45,286.13L39.83,282.19L40.51,250.15L41.89,250.15L46.01,250.15L46.69,251.63L49.44,256.06L50.13,254.58L50.81,252.61L51.5,256.55L57.68,256.55L58.37,254.58L59.05,254.58L59.74,256.55L60.43,254.58L61.11,257.54L62.49,259.51L63.17,256.06L64.55,259.51L65.23,259.51L65.92,259.51L66.61,256.06L67.29,256.06L67.98,259.51L69.35,256.06L70.04,270.36L71.41,260.5L72.1,260.5L72.79,260.99L73.47,268.38L74.85,274.3L75.53,274.3L76.22,272.82L76.91,277.75L78.97,278.74L79.65,278.74L82.4,278.74L83.09,280.71L87.89,280.71L88.58,278.74L90.64,267.4L92.01,267.4L96.13,267.4L96.82,273.81L97.51,275.78L98.19,282.68L100.94,282.68L101.63,286.62L109.87,287.61L110.55,288.1L111.24,288.1L111.93,303.38L113.3,303.38L113.99,305.35L115.36,308.31L116.05,308.31L124.29,308.31L124.97,312.75L126.35,313.73L127.03,315.71L133.21,316.69L133.9,317.68L135.96,322.61L136.65,322.61" style="vector-effect: none; fill: none; stroke: rgb(255, 1, 170); stroke-opacity: 1; stroke-width: 5px; opacity: 1;"/></g><g class="points"/><g class="text"/></g><g class="trace scatter trace69c96c" style="stroke-miterlimit: 2; opacity: 1;"><g class="fills"/><g class="errorbars"/><g class="lines"><path class="js-line" d="M0,295.5L3.43,296.97L4.12,296.97L6.87,295.99L7.55,295.99L15.79,296.48L16.48,297.47L25.41,297.47L26.09,301.41L29.53,301.41L30.21,305.35L38.45,305.35L39.83,299.44L40.51,312.25L41.89,312.25L48.07,312.75L48.75,316.2L50.81,316.2L51.5,318.17L69.35,317.18L70.04,318.66L72.1,317.68L72.79,317.68L76.22,318.66L76.91,319.65L81.03,321.62L81.71,323.59L100.94,323.59" style="vector-effect: none; fill: none; stroke: rgb(255, 192, 203); stroke-opacity: 1; stroke-width: 5px; opacity: 1;"/></g><g class="points"/><g class="text"/></g><g class="trace scatter trace5e3ac5" style="stroke-miterlimit: 2; opacity: 1;"><g class="fills"/><g class="errorbars"/><g class="lines"><path class="js-line" d="M0,278.24L2.75,280.21L3.43,280.21L4.12,280.21L4.81,278.24L5.49,278.74L6.18,281.2L12.36,281.69L13.05,283.17L15.11,284.16L15.79,284.16L29.53,283.17L30.21,290.57L38.45,290.57L39.83,287.61L40.51,294.02L41.89,294.02L46.69,294.51L47.38,295.5L48.07,295.5L48.75,300.92L49.44,300.92L50.13,297.96L50.81,295L51.5,303.38L57.68,303.38L58.37,299.44L59.05,299.44L59.74,303.38L60.43,299.44L61.11,302.89L62.49,302.89L63.17,298.95L64.55,302.89L65.23,302.89L65.92,302.89L66.61,298.95L67.29,298.95L67.98,302.89L69.35,298.95L70.04,299.44L71.41,295.99L72.1,295.99L72.79,296.48L73.47,301.41L74.85,303.88L75.53,303.88L78.97,308.31L79.65,308.31L81.03,309.3L81.71,311.27L84.46,314.72L85.15,314.72L111.24,314.72L111.93,324.08L113.99,325.07" style="vector-effect: none; fill: none; stroke: rgb(238, 58, 67); stroke-opacity: 1; stroke-width: 5px; opacity: 1;"/></g><g class="points"/><g class="text"/></g><g class="trace scatter traced34acb" style="stroke-miterlimit: 2; opacity: 1;"><g class="fills"/><g class="errorbars"/><g class="lines"><path class="js-line" d="M0,291.06L3.43,292.04L4.12,292.04L4.81,285.14L5.49,294.51L6.87,300.42L7.55,300.42L25.41,299.44L26.09,298.95L29.53,298.95L30.21,301.41L39.83,300.42L40.51,302.4L49.44,302.89L50.13,304.86L50.81,306.83L51.5,303.38L57.68,303.38L58.37,304.86L59.05,304.86L59.74,303.38L62.49,306.34L63.17,306.83L65.92,306.34L66.61,306.83L69.35,306.83L70.04,308.31L73.47,308.31L74.16,309.3L76.91,310.28L77.59,311.76L81.71,314.72L82.4,315.71L84.46,317.18L85.15,317.18L100.94,317.18L101.63,322.11L111.24,322.61L111.93,324.08L113.99,325.07" style="vector-effect: none; fill: none; stroke: rgb(202, 166, 105); stroke-opacity: 1; stroke-width: 5px; opacity: 1;"/></g><g class="points"/><g class="text"/></g></g></g><g class="overplot"/><path class="xlines-above crisp" d="M0,0" style="fill: none;"/><path class="ylines-above crisp" d="M0,0" style="fill: none;"/><g class="overlines-above"/><g class="xaxislayer-above"><g class="xtick"><text text-anchor="middle" x="0" y="363" transform="translate(56.87,0)" style="font-family: 'Open Sans', verdana, arial, sans-serif; font-size: 12px; fill: rgb(42, 63, 95); fill-opacity: 1; white-space: pre; opacity: 1;">1.7.23</text></g><g class="xtick"><text text-anchor="middle" x="0" y="363" style="font-family: 'Open Sans', verdana, arial, sans-serif; font-size: 12px; fill: rgb(42, 63, 95); fill-opacity: 1; white-space: pre; opacity: 1;" transform="translate(99.44,0)">1.9.23</text></g><g class="xtick"><text text-anchor="middle" x="0" y="363" style="font-family: 'Open Sans', verdana, arial, sans-serif; font-size: 12px; fill: rgb(42, 63, 95); fill-opacity: 1; white-space: pre; opacity: 1;" transform="translate(141.32999999999998,0)">1.11.23</text></g><g class="xtick"><text text-anchor="middle" x="0" y="363" style="font-family: 'Open Sans', verdana, arial, sans-serif; font-size: 12px; fill: rgb(42, 63, 95); fill-opacity: 1; white-space: pre; opacity: 1;" transform="translate(183.21,0)">1.1.24</text></g><g class="xtick"><text text-anchor="middle" x="0" y="363" style="font-family: 'Open Sans', verdana, arial, sans-serif; font-size: 12px; fill: rgb(42, 63, 95); fill-opacity: 1; white-space: pre; opacity: 1;" transform="translate(224.41,0)">1.3.24</text></g></g><g class="yaxislayer-above"><g class="ytick"><text text-anchor="end" x="49" y="4.199999999999999" transform="translate(0,350)" style="font-family: 'Open Sans', verdana, arial, sans-serif; font-size: 12px; fill: rgb(42, 63, 95); fill-opacity: 1; white-space: pre; opacity: 1;">0%</text></g><g class="ytick"><text text-anchor="end" x="49" y="4.199999999999999" style="font-family: 'Open Sans', verdana, arial, sans-serif; font-size: 12px; fill: rgb(42, 63, 95); fill-opacity: 1; white-space: pre; opacity: 1;" transform="translate(0,300.71)">10%</text></g><g class="ytick"><text text-anchor="end" x="49" y="4.199999999999999" style="font-family: 'Open Sans', verdana, arial, sans-serif; font-size: 12px; fill: rgb(42, 63, 95); fill-opacity: 1; white-space: pre; opacity: 1;" transform="translate(0,251.42)">20%</text></g><g class="ytick"><text text-anchor="end" x="49" y="4.199999999999999" style="font-family: 'Open Sans', verdana, arial, sans-serif; font-size: 12px; fill: rgb(42, 63, 95); fill-opacity: 1; white-space: pre; opacity: 1;" transform="translate(0,202.12)">30%</text></g><g class="ytick"><text text-anchor="end" x="49" y="4.199999999999999" style="font-family: 'Open Sans', verdana, arial, sans-serif; font-size: 12px; fill: rgb(42, 63, 95); fill-opacity: 1; white-space: pre; opacity: 1;" transform="translate(0,152.83)">40%</text></g><g class="ytick"><text text-anchor="end" x="49" y="4.199999999999999" style="font-family: 'Open Sans', verdana, arial, sans-serif; font-size: 12px; fill: rgb(42, 63, 95); fill-opacity: 1; white-space: pre; opacity: 1;" transform="translate(0,103.54)">50%</text></g><g class="ytick"><text text-anchor="end" x="49" y="4.199999999999999" style="font-family: 'Open Sans', verdana, arial, sans-serif; font-size: 12px; fill: rgb(42, 63, 95); fill-opacity: 1; white-space: pre; opacity: 1;" transform="translate(0,54.25)">60%</text></g></g><g class="overaxes-above"/></g></g><g class="polarlayer"/><g class="smithlayer"/><g class="ternarylayer"/><g class="geolayer"/><g class="funnelarealayer"/><g class="pielayer"/><g class="iciclelayer"/><g class="treemaplayer"/><g class="sunburstlayer"/><g class="glimages"/><defs id="topdefs-3aba2b"><g class="clips"/><clipPath id="legend3aba2b"><rect width="128" height="124" x="0" y="0"/></clipPath></defs><g class="layer-above"><g class="imagelayer"/><g class="shapelayer"/></g><g class="infolayer"><g class="legend" pointer-events="all" transform="translate(260.12,20)"><rect class="bg" shape-rendering="crispEdges" width="128" height="124" x="0" y="0" style="stroke: rgb(68, 68, 68); stroke-opacity: 1; fill: rgb(255, 255, 255); fill-opacity: 1; stroke-width: 0px;"/><g class="scrollbox" transform="" clip-path="url(#legend3aba2b)"><g class="groups"><g class="traces" transform="translate(0,14.5)" style="opacity: 1;"><text class="legendtext" text-anchor="start" x="40" y="4.680000000000001" style="font-family: 'Open Sans', verdana, arial, sans-serif; font-size: 12px; fill: rgb(42, 63, 95); fill-opacity: 1; white-space: pre;">Pellegrini Peter</text><g class="layers" style="opacity: 1;"><g class="legendfill"/><g class="legendlines"><path class="js-line" d="M5,0h30" style="fill: none; stroke: rgb(138, 44, 81); stroke-opacity: 1; stroke-width: 5px;"/></g><g class="legendsymbols"><g class="legendpoints"/></g></g><rect class="legendtoggle" x="0" y="-9.5" width="122.703125" height="19" style="fill: rgb(0, 0, 0); fill-opacity: 0;"/></g><g class="traces" transform="translate(0,33.5)" style="opacity: 1;"><text class="legendtext" text-anchor="start" x="40" y="4.680000000000001" style="font-family: 'Open Sans', verdana, arial, sans-serif; font-size: 12px; fill: rgb(42, 63, 95); fill-opacity: 1; white-space: pre;">Korčok Ivan</text><g class="layers" style="opacity: 1;"><g class="legendfill"/><g class="legendlines"><path class="js-line" d="M5,0h30" style="fill: none; stroke: rgb(0, 174, 239); stroke-opacity: 1; stroke-width: 5px;"/></g><g class="legendsymbols"><g class="legendpoints"/></g></g><rect class="legendtoggle" x="0" y="-9.5" width="122.703125" height="19" style="fill: rgb(0, 0, 0); fill-opacity: 0;"/></g><g class="traces" transform="translate(0,52.5)" style="opacity: 1;"><text class="legendtext" text-anchor="start" x="40" y="4.680000000000001" style="font-family: 'Open Sans', verdana, arial, sans-serif; font-size: 12px; fill: rgb(42, 63, 95); fill-opacity: 1; white-space: pre;">Kubiš Ján</text><g class="layers" style="opacity: 1;"><g class="legendfill"/><g class="legendlines"><path class="js-line" d="M5,0h30" style="fill: none; stroke: rgb(255, 1, 170); stroke-opacity: 1; stroke-width: 5px;"/></g><g class="legendsymbols"><g class="legendpoints"/></g></g><rect class="legendtoggle" x="0" y="-9.5" width="122.703125" height="19" style="fill: rgb(0, 0, 0); fill-opacity: 0;"/></g><g class="traces" transform="translate(0,71.5)" style="opacity: 1;"><text class="legendtext" text-anchor="start" x="40" y="4.680000000000001" style="font-family: 'Open Sans', verdana, arial, sans-serif; font-size: 12px; fill: rgb(42, 63, 95); fill-opacity: 1; white-space: pre;">Lajčák Miroslav</text><g class="layers" style="opacity: 1;"><g class="legendfill"/><g class="legendlines"><path class="js-line" d="M5,0h30" style="fill: none; stroke: rgb(255, 192, 203); stroke-opacity: 1; stroke-width: 5px;"/></g><g class="legendsymbols"><g class="legendpoints"/></g></g><rect class="legendtoggle" x="0" y="-9.5" width="122.703125" height="19" style="fill: rgb(0, 0, 0); fill-opacity: 0;"/></g><g class="traces" transform="translate(0,90.5)" style="opacity: 1;"><text class="legendtext" text-anchor="start" x="40" y="4.680000000000001" style="font-family: 'Open Sans', verdana, arial, sans-serif; font-size: 12px; fill: rgb(42, 63, 95); fill-opacity: 1; white-space: pre;">Fico Robert</text><g class="layers" style="opacity: 1;"><g class="legendfill"/><g class="legendlines"><path class="js-line" d="M5,0h30" style="fill: none; stroke: rgb(238, 58, 67); stroke-opacity: 1; stroke-width: 5px;"/></g><g class="legendsymbols"><g class="legendpoints"/></g></g><rect class="legendtoggle" x="0" y="-9.5" width="122.703125" height="19" style="fill: rgb(0, 0, 0); fill-opacity: 0;"/></g><g class="traces" transform="translate(0,109.5)" style="opacity: 1;"><text class="legendtext" text-anchor="start" x="40" y="4.680000000000001" style="font-family: 'Open Sans', verdana, arial, sans-serif; font-size: 12px; fill: rgb(42, 63, 95); fill-opacity: 1; white-space: pre;">Mistrík Robert</text><g class="layers" style="opacity: 1;"><g class="legendfill"/><g class="legendlines"><path class="js-line" d="M5,0h30" style="fill: none; stroke: rgb(202, 166, 105); stroke-opacity: 1; stroke-width: 5px;"/></g><g class="legendsymbols"><g class="legendpoints"/></g></g><rect class="legendtoggle" x="0" y="-9.5" width="122.703125" height="19" style="fill: rgb(0, 0, 0); fill-opacity: 0;"/></g></g></g><rect class="scrollbar" rx="20" ry="3" width="0" height="0" x="0" y="0" style="fill: rgb(128, 139, 164); fill-opacity: 1;"/></g><g class="g-gtitle"/><g class="g-xtitle"/><g class="g-ytitle"/></g></svg>