<svg class="main-svg" xmlns="http://www.w3.org/2000/svg" xmlns:xlink="http://www.w3.org/1999/xlink" width="400" height="400" style="" viewBox="0 0 400 400"><rect x="0" y="0" width="400" height="400" style="fill: rgb(255, 255, 255); fill-opacity: 1;"/><defs id="defs-31db46"><g class="clips"><clipPath id="clip31db46xyplot" class="plotclip"><rect width="206" height="330"/></clipPath><clipPath class="axesclip" id="clip31db46x"><rect x="50" y="0" width="206" height="400"/></clipPath><clipPath class="axesclip" id="clip31db46y"><rect x="0" y="20" width="400" height="330"/></clipPath><clipPath class="axesclip" id="clip31db46xy"><rect x="50" y="20" width="206" height="330"/></clipPath></g><g class="gradients"/><g class="patterns"/></defs><g class="bglayer"/><g class="layer-below"><g class="imagelayer"/><g class="shapelayer"/></g><g class="cartesianlayer"><g class="subplot xy"><g class="layer-subplot"><g class="shapelayer"/><g class="imagelayer"/></g><g class="minor-gridlayer"><g class="x"/><g class="y"/></g><g class="gridlayer"><g class="x"><path class="xgrid crisp" transform="translate(57.1,0)" d="M0,20v330" style="stroke: rgb(235, 240, 248); stroke-opacity: 1; stroke-width: 1px;"/><path class="xgrid crisp" transform="translate(101.14,0)" d="M0,20v330" style="stroke: rgb(235, 240, 248); stroke-opacity: 1; stroke-width: 1px;"/><path class="xgrid crisp" transform="translate(144.48000000000002,0)" d="M0,20v330" style="stroke: rgb(235, 240, 248); stroke-opacity: 1; stroke-width: 1px;"/><path class="xgrid crisp" transform="translate(187.81,0)" d="M0,20v330" style="stroke: rgb(235, 240, 248); stroke-opacity: 1; stroke-width: 1px;"/><path class="xgrid crisp" transform="translate(230.43,0)" d="M0,20v330" style="stroke: rgb(235, 240, 248); stroke-opacity: 1; stroke-width: 1px;"/></g><g class="y"><path class="ygrid crisp" transform="translate(0,303.76)" d="M50,0h206" style="stroke: rgb(235, 240, 248); stroke-opacity: 1; stroke-width: 1px;"/><path class="ygrid crisp" transform="translate(0,257.52)" d="M50,0h206" style="stroke: rgb(235, 240, 248); stroke-opacity: 1; stroke-width: 1px;"/><path class="ygrid crisp" transform="translate(0,211.28)" d="M50,0h206" style="stroke: rgb(235, 240, 248); stroke-opacity: 1; stroke-width: 1px;"/><path class="ygrid crisp" transform="translate(0,165.04)" d="M50,0h206" style="stroke: rgb(235, 240, 248); stroke-opacity: 1; stroke-width: 1px;"/><path class="ygrid crisp" transform="translate(0,118.81)" d="M50,0h206" style="stroke: rgb(235, 240, 248); stroke-opacity: 1; stroke-width: 1px;"/><path class="ygrid crisp" transform="translate(0,72.57)" d="M50,0h206" style="stroke: rgb(235, 240, 248); stroke-opacity: 1; stroke-width: 1px;"/><path class="ygrid crisp" transform="translate(0,26.33)" d="M50,0h206" style="stroke: rgb(235, 240, 248); stroke-opacity: 1; stroke-width: 1px;"/></g></g><g class="zerolinelayer"><path class="yzl zl crisp" transform="translate(0,350)" d="M50,0h206" style="stroke: rgb(235, 240, 248); stroke-opacity: 1; stroke-width: 2px;"/></g><path class="xlines-below"/><path class="ylines-below"/><g class="overlines-below"/><g class="xaxislayer-below"/><g class="yaxislayer-below"/><g class="overaxes-below"/><g class="plot" transform="translate(50,20)" clip-path="url(#clip31db46xyplot)"><g class="scatterlayer mlayer"><g class="trace scatter trace40c203" style="stroke-miterlimit: 2; opacity: 1;"><g class="fills"/><g class="errorbars"/><g class="lines"><path class="js-line" d="M0,233.36L2.13,221.34L2.84,221.34L4.26,221.34L4.97,224.58L7.1,219.03L7.81,219.03L9.94,219.03L10.66,217.64L12.79,217.64L13.5,216.25L15.63,215.33L16.34,215.33L17.76,212.55L18.47,212.55L26.28,212.55L26.99,209.32L30.54,209.32L31.26,189.9L39.78,189.9L41.2,203.31L41.91,200.53L43.33,200.53L49.01,199.61L49.72,209.78L51.14,214.87L51.86,213.02L52.57,211.17L53.28,215.33L59.67,215.33L60.38,213.48L61.09,213.48L61.8,215.33L62.51,213.48L63.22,214.87L63.93,213.48L71.74,212.55L72.46,203.31L73.88,207L74.59,207L75.3,206.08L76.01,190.82L77.43,181.57L78.14,181.57L78.85,179.26L79.56,164L80.98,155.22L81.69,155.22L83.11,155.22L83.82,152.44L86.66,138.11L87.37,138.11L91.63,138.57L92.34,139.5L93.06,139.5L93.77,144.12L99.45,144.12L100.16,137.65L100.87,137.65L101.58,126.55L104.42,126.55L105.13,114.06L109.39,114.06L110.1,106.67L111.52,103.89L112.23,103.89L115.08,94.64L115.79,78.92L117.21,78.92L117.92,71.06L119.34,52.1L120.05,52.1L125.02,52.1L125.73,59.04L127.15,62.28L127.86,62.28L128.57,64.13L129.28,71.52L129.99,74.3L130.7,72.45L131.41,69.21L137.1,68.29L137.81,70.6L138.52,69.67L139.23,54.42L141.36,38.69L142.07,40.08L142.78,45.63L143.49,42.39L144.2,33.61L144.91,33.61L145.62,35.92L147.04,41.47L147.75,45.63L148.46,46.09L149.17,61.81L149.88,67.36L150.59,61.81L151.3,64.13L152.01,62.28L152.72,54.88L153.43,53.03L154.14,55.34L155.57,56.73L156.28,53.95L159.12,37.31L159.83,37.31L160.54,39.16L161.25,44.71L161.96,45.63L162.67,41.93L163.38,41.47L164.09,44.71L166.22,79.85L166.93,78.92L167.64,78.92L168.35,79.38L169.06,83.55L169.77,84.93L170.48,84.01L171.19,78.92L173.32,87.25L174.03,80.77L176.17,52.57L176.88,52.1L177.59,41.93L178.3,42.39L179.01,41.93L179.72,39.62L180.43,42.86L181.85,50.25L182.56,50.72L183.27,50.25L183.98,47.94L187.53,42.39L188.24,37.77L189.66,33.15L190.37,20.66L191.79,16.5" style="vector-effect: none; fill: none; stroke: rgb(138, 44, 81); stroke-opacity: 1; stroke-width: 5px; opacity: 1;"/></g><g class="points"/><g class="text"/></g><g class="trace scatter trace18462d" style="stroke-miterlimit: 2; opacity: 1;"><g class="fills"/><g class="errorbars"/><g class="lines"><path class="js-line" d="M0,128.4L2.13,134.87L2.84,134.87L4.26,134.87L4.97,138.11L7.1,131.17L7.81,131.17L13.5,132.1L14.21,133.02L16.34,133.02L17.05,135.33L41.2,135.33L41.91,148.28L47.59,148.28L48.3,145.97L49.01,144.12L49.72,133.48L51.14,117.76L51.86,121.92L52.57,126.09L53.28,112.21L59.67,112.21L60.38,119.15L61.09,119.15L61.8,112.21L62.51,119.15L63.22,110.83L64.64,108.98L65.35,117.76L66.77,108.98L67.48,108.98L68.19,108.98L68.9,117.76L69.61,117.76L70.32,108.98L71.74,117.76L72.46,109.44L73.88,120.08L74.59,120.08L75.3,120.08L76.01,122.85L78.14,122.85L78.85,125.16L80.98,136.26L81.69,136.26L84.53,136.26L85.24,137.65L88.08,138.11L88.79,138.11L90.92,138.11L91.63,139.5L93.77,144.12L95.19,144.12L100.16,144.58L100.87,142.73L102.29,147.36L103,147.36L109.39,146.43L110.1,153.83L111.52,155.68L112.23,155.68L115.08,163.54L115.79,154.75L117.21,154.75L117.92,159.38L119.34,165.39L120.05,165.39L125.02,165.39L125.73,158.92L127.15,155.22L127.86,155.22L128.57,153.37L129.28,142.73L129.99,139.5L130.7,140.42L131.41,141.81L137.1,141.81L137.81,139.5L138.52,139.5L139.23,151.52L141.36,165.85L142.07,164.46L143.49,155.22L144.2,164L144.91,164L145.62,161.69L147.04,156.14L147.75,151.98L148.46,151.52L149.17,135.8L149.88,130.25L150.59,135.8L151.3,133.48L152.01,135.33L152.72,142.73L153.43,144.58L154.14,142.27L155.57,140.88L156.28,143.66L159.12,160.3L159.83,160.3L160.54,158.45L161.25,152.9L161.96,151.98L162.67,155.68L163.38,156.14L164.09,152.9L166.22,117.76L166.93,118.69L167.64,118.69L168.35,118.23L169.06,114.06L169.77,112.68L170.48,113.6L171.19,118.69L173.32,110.37L174.03,116.84L176.17,145.04L176.88,145.51L177.59,155.68L178.3,155.22L179.01,155.68L179.72,157.99L180.43,154.75L181.85,147.36L182.56,146.89L183.27,147.36L183.98,149.67L187.53,155.22L188.24,159.84L189.66,164.46L190.37,176.95L191.79,181.11" style="vector-effect: none; fill: none; stroke: rgb(0, 174, 239); stroke-opacity: 1; stroke-width: 5px; opacity: 1;"/></g><g class="points"/><g class="text"/></g><g class="trace scatter trace5c94de" style="stroke-miterlimit: 2; opacity: 1;"><g class="fills"/><g class="errorbars"/><g class="lines"><path class="js-line" d="M0,293.47L3.55,294.4L4.26,294.4L4.97,287.92L5.68,296.71L7.1,302.26L7.81,302.26L26.28,301.33L26.99,300.87L30.54,300.87L31.26,303.18L41.2,302.26L41.91,304.11L51.14,304.57L51.86,306.42L52.57,308.27L53.28,305.03L59.67,305.03L60.38,306.42L61.09,306.42L61.8,305.03L63.93,307.81L64.64,307.81L66.77,307.81L67.48,307.81L71.74,308.27L72.46,309.65L76.01,309.65L76.72,310.58L79.56,311.5L80.27,312.89L84.53,315.67L85.24,316.59L86.66,317.98L87.37,317.98L104.42,317.98L105.13,322.6L115.08,323.06L115.79,324.45L117.92,325.38" style="vector-effect: none; fill: none; stroke: rgb(202, 166, 105); stroke-opacity: 1; stroke-width: 5px; opacity: 1;"/></g><g class="points"/><g class="text"/></g><g class="trace scatter traced287c3" style="stroke-miterlimit: 2; opacity: 1;"><g class="fills"/><g class="errorbars"/><g class="lines"><path class="js-line" d="M0,283.3L2.13,284.69L2.84,284.69L4.26,284.69L4.97,287.92L7.1,282.37L7.81,282.37L30.54,283.3L31.26,288.85L39.78,288.85L41.2,285.15L41.91,255.09L43.33,255.09L47.59,255.09L48.3,256.48L51.14,260.64L51.86,259.25L52.57,257.4L53.28,261.1L59.67,261.1L60.38,259.25L61.09,259.25L61.8,261.1L62.51,259.25L63.22,262.03L64.64,263.88L65.35,260.64L66.77,263.88L67.48,263.88L68.19,263.88L68.9,260.64L69.61,260.64L70.32,263.88L71.74,260.64L72.46,274.05L73.88,264.8L74.59,264.8L75.3,265.27L76.01,272.2L77.43,277.75L78.14,277.75L78.85,276.36L79.56,280.99L81.69,281.91L82.4,281.91L85.24,281.91L85.95,283.76L90.92,283.76L91.63,281.91L93.77,271.28L95.19,271.28L99.45,271.28L100.16,277.29L100.87,279.14L101.58,285.61L104.42,285.61L105.13,289.31L113.66,290.23L114.37,290.7L115.08,290.7L115.79,305.03L117.21,305.03L117.92,306.88L119.34,309.65L120.05,309.65L128.57,309.65L129.28,313.82L130.7,314.74L131.41,316.59L137.81,317.52L138.52,318.44L140.65,323.06L141.36,323.06L142.78,323.99" style="vector-effect: none; fill: none; stroke: rgb(255, 1, 170); stroke-opacity: 1; stroke-width: 5px; opacity: 1;"/></g><g class="points"/><g class="text"/></g><g class="trace scatter trace813780" style="stroke-miterlimit: 2; opacity: 1;"><g class="fills"/><g class="errorbars"/><g class="lines"><path class="js-line" d="M0,281.45L2.84,283.3L3.55,283.3L4.26,283.3L4.97,281.45L5.68,281.91L6.39,284.22L12.79,284.69L13.5,286.07L15.63,287L16.34,287L30.54,286.07L31.26,293.01L39.78,293.01L41.2,290.23L41.91,296.25L43.33,296.25L48.3,296.71L49.01,297.63L49.72,297.63L50.43,302.72L51.14,302.72L51.86,299.94L52.57,297.17L53.28,305.03L59.67,305.03L60.38,301.33L61.09,301.33L61.8,305.03L62.51,301.33L63.22,304.57L64.64,304.57L65.35,300.87L66.77,304.57L67.48,304.57L68.19,304.57L68.9,300.87L69.61,300.87L70.32,304.57L71.74,300.87L72.46,301.33L73.88,298.1L74.59,298.1L75.3,298.56L76.01,303.18L77.43,305.49L78.14,305.49L81.69,309.65L82.4,309.65L83.82,310.58L84.53,312.43L87.37,315.67L88.08,315.67L115.08,315.67L115.79,324.45L117.92,325.38" style="vector-effect: none; fill: none; stroke: rgb(238, 58, 67); stroke-opacity: 1; stroke-width: 5px; opacity: 1;"/></g><g class="points"/><g class="text"/></g><g class="trace scatter traced157b9" style="stroke-miterlimit: 2; opacity: 1;"><g class="fills"/><g class="errorbars"/><g class="lines"><path class="js-line" d="M0,297.63L3.55,299.02L4.26,299.02L7.1,298.1L7.81,298.1L16.34,298.56L17.05,299.48L26.28,299.48L26.99,303.18L30.54,303.18L31.26,306.88L39.78,306.88L41.2,301.33L41.91,313.35L43.33,313.35L49.72,313.82L50.43,317.05L52.57,317.05L53.28,318.9L71.74,317.98L72.46,319.37L74.59,318.44L75.3,318.44L78.85,319.37L79.56,320.29L83.82,322.14L84.53,323.99L104.42,323.99" style="vector-effect: none; fill: none; stroke: rgb(255, 192, 203); stroke-opacity: 1; stroke-width: 5px; opacity: 1;"/></g><g class="points"/><g class="text"/></g></g></g><g class="overplot"/><path class="xlines-above crisp" d="M0,0" style="fill: none;"/><path class="ylines-above crisp" d="M0,0" style="fill: none;"/><g class="overlines-above"/><g class="xaxislayer-above"><g class="xtick"><text text-anchor="middle" x="0" y="363" transform="translate(57.1,0)" style="font-family: 'Open Sans', verdana, arial, sans-serif; font-size: 12px; fill: rgb(42, 63, 95); fill-opacity: 1; white-space: pre; opacity: 1;">1.7.23</text></g><g class="xtick"><text text-anchor="middle" x="0" y="363" style="font-family: 'Open Sans', verdana, arial, sans-serif; font-size: 12px; fill: rgb(42, 63, 95); fill-opacity: 1; white-space: pre; opacity: 1;" transform="translate(101.14,0)">1.9.23</text></g><g class="xtick"><text text-anchor="middle" x="0" y="363" style="font-family: 'Open Sans', verdana, arial, sans-serif; font-size: 12px; fill: rgb(42, 63, 95); fill-opacity: 1; white-space: pre; opacity: 1;" transform="translate(144.48000000000002,0)">1.11.23</text></g><g class="xtick"><text text-anchor="middle" x="0" y="363" style="font-family: 'Open Sans', verdana, arial, sans-serif; font-size: 12px; fill: rgb(42, 63, 95); fill-opacity: 1; white-space: pre; opacity: 1;" transform="translate(187.81,0)">1.1.24</text></g><g class="xtick"><text text-anchor="middle" x="0" y="363" style="font-family: 'Open Sans', verdana, arial, sans-serif; font-size: 12px; fill: rgb(42, 63, 95); fill-opacity: 1; white-space: pre; opacity: 1;" transform="translate(230.43,0)">1.3.24</text></g></g><g class="yaxislayer-above"><g class="ytick"><text text-anchor="end" x="49" y="4.199999999999999" transform="translate(0,350)" style="font-family: 'Open Sans', verdana, arial, sans-serif; font-size: 12px; fill: rgb(42, 63, 95); fill-opacity: 1; white-space: pre; opacity: 1;">0%</text></g><g class="ytick"><text text-anchor="end" x="49" y="4.199999999999999" style="font-family: 'Open Sans', verdana, arial, sans-serif; font-size: 12px; fill: rgb(42, 63, 95); fill-opacity: 1; white-space: pre; opacity: 1;" transform="translate(0,303.76)">10%</text></g><g class="ytick"><text text-anchor="end" x="49" y="4.199999999999999" style="font-family: 'Open Sans', verdana, arial, sans-serif; font-size: 12px; fill: rgb(42, 63, 95); fill-opacity: 1; white-space: pre; opacity: 1;" transform="translate(0,257.52)">20%</text></g><g class="ytick"><text text-anchor="end" x="49" y="4.199999999999999" style="font-family: 'Open Sans', verdana, arial, sans-serif; font-size: 12px; fill: rgb(42, 63, 95); fill-opacity: 1; white-space: pre; opacity: 1;" transform="translate(0,211.28)">30%</text></g><g class="ytick"><text text-anchor="end" x="49" y="4.199999999999999" style="font-family: 'Open Sans', verdana, arial, sans-serif; font-size: 12px; fill: rgb(42, 63, 95); fill-opacity: 1; white-space: pre; opacity: 1;" transform="translate(0,165.04)">40%</text></g><g class="ytick"><text text-anchor="end" x="49" y="4.199999999999999" style="font-family: 'Open Sans', verdana, arial, sans-serif; font-size: 12px; fill: rgb(42, 63, 95); fill-opacity: 1; white-space: pre; opacity: 1;" transform="translate(0,118.81)">50%</text></g><g class="ytick"><text text-anchor="end" x="49" y="4.199999999999999" style="font-family: 'Open Sans', verdana, arial, sans-serif; font-size: 12px; fill: rgb(42, 63, 95); fill-opacity: 1; white-space: pre; opacity: 1;" transform="translate(0,72.57)">60%</text></g><g class="ytick"><text text-anchor="end" x="49" y="4.199999999999999" style="font-family: 'Open Sans', verdana, arial, sans-serif; font-size: 12px; fill: rgb(42, 63, 95); fill-opacity: 1; white-space: pre; opacity: 1;" transform="translate(0,26.33)">70%</text></g></g><g class="overaxes-above"/></g></g><g class="polarlayer"/><g class="smithlayer"/><g class="ternarylayer"/><g class="geolayer"/><g class="funnelarealayer"/><g class="pielayer"/><g class="iciclelayer"/><g class="treemaplayer"/><g class="sunburstlayer"/><g class="glimages"/><defs id="topdefs-31db46"><g class="clips"/><clipPath id="legend31db46"><rect width="128" height="124" x="0" y="0"/></clipPath></defs><g class="layer-above"><g class="imagelayer"/><g class="shapelayer"/></g><g class="infolayer"><g class="legend" pointer-events="all" transform="translate(260.12,20)"><rect class="bg" shape-rendering="crispEdges" width="128" height="124" x="0" y="0" style="stroke: rgb(68, 68, 68); stroke-opacity: 1; fill: rgb(255, 255, 255); fill-opacity: 1; stroke-width: 0px;"/><g class="scrollbox" transform="" clip-path="url(#legend31db46)"><g class="groups"><g class="traces" transform="translate(0,14.5)" style="opacity: 1;"><text class="legendtext" text-anchor="start" x="40" y="4.680000000000001" style="font-family: 'Open Sans', verdana, arial, sans-serif; font-size: 12px; fill: rgb(42, 63, 95); fill-opacity: 1; white-space: pre;">Pellegrini Peter</text><g class="layers" style="opacity: 1;"><g class="legendfill"/><g class="legendlines"><path class="js-line" d="M5,0h30" style="fill: none; stroke: rgb(138, 44, 81); stroke-opacity: 1; stroke-width: 5px;"/></g><g class="legendsymbols"><g class="legendpoints"/></g></g><rect class="legendtoggle" x="0" y="-9.5" width="122.703125" height="19" style="fill: rgb(0, 0, 0); fill-opacity: 0;"/></g><g class="traces" transform="translate(0,33.5)" style="opacity: 1;"><text class="legendtext" text-anchor="start" x="40" y="4.680000000000001" style="font-family: 'Open Sans', verdana, arial, sans-serif; font-size: 12px; fill: rgb(42, 63, 95); fill-opacity: 1; white-space: pre;">Korčok Ivan</text><g class="layers" style="opacity: 1;"><g class="legendfill"/><g class="legendlines"><path class="js-line" d="M5,0h30" style="fill: none; stroke: rgb(0, 174, 239); stroke-opacity: 1; stroke-width: 5px;"/></g><g class="legendsymbols"><g class="legendpoints"/></g></g><rect class="legendtoggle" x="0" y="-9.5" width="122.703125" height="19" style="fill: rgb(0, 0, 0); fill-opacity: 0;"/></g><g class="traces" transform="translate(0,52.5)" style="opacity: 1;"><text class="legendtext" text-anchor="start" x="40" y="4.680000000000001" style="font-family: 'Open Sans', verdana, arial, sans-serif; font-size: 12px; fill: rgb(42, 63, 95); fill-opacity: 1; white-space: pre;">Mistrík Robert</text><g class="layers" style="opacity: 1;"><g class="legendfill"/><g class="legendlines"><path class="js-line" d="M5,0h30" style="fill: none; stroke: rgb(202, 166, 105); stroke-opacity: 1; stroke-width: 5px;"/></g><g class="legendsymbols"><g class="legendpoints"/></g></g><rect class="legendtoggle" x="0" y="-9.5" width="122.703125" height="19" style="fill: rgb(0, 0, 0); fill-opacity: 0;"/></g><g class="traces" transform="translate(0,71.5)" style="opacity: 1;"><text class="legendtext" text-anchor="start" x="40" y="4.680000000000001" style="font-family: 'Open Sans', verdana, arial, sans-serif; font-size: 12px; fill: rgb(42, 63, 95); fill-opacity: 1; white-space: pre;">Kubiš Ján</text><g class="layers" style="opacity: 1;"><g class="legendfill"/><g class="legendlines"><path class="js-line" d="M5,0h30" style="fill: none; stroke: rgb(255, 1, 170); stroke-opacity: 1; stroke-width: 5px;"/></g><g class="legendsymbols"><g class="legendpoints"/></g></g><rect class="legendtoggle" x="0" y="-9.5" width="122.703125" height="19" style="fill: rgb(0, 0, 0); fill-opacity: 0;"/></g><g class="traces" transform="translate(0,90.5)" style="opacity: 1;"><text class="legendtext" text-anchor="start" x="40" y="4.680000000000001" style="font-family: 'Open Sans', verdana, arial, sans-serif; font-size: 12px; fill: rgb(42, 63, 95); fill-opacity: 1; white-space: pre;">Fico Robert</text><g class="layers" style="opacity: 1;"><g class="legendfill"/><g class="legendlines"><path class="js-line" d="M5,0h30" style="fill: none; stroke: rgb(238, 58, 67); stroke-opacity: 1; stroke-width: 5px;"/></g><g class="legendsymbols"><g class="legendpoints"/></g></g><rect class="legendtoggle" x="0" y="-9.5" width="122.703125" height="19" style="fill: rgb(0, 0, 0); fill-opacity: 0;"/></g><g class="traces" transform="translate(0,109.5)" style="opacity: 1;"><text class="legendtext" text-anchor="start" x="40" y="4.680000000000001" style="font-family: 'Open Sans', verdana, arial, sans-serif; font-size: 12px; fill: rgb(42, 63, 95); fill-opacity: 1; white-space: pre;">Lajčák Miroslav</text><g class="layers" style="opacity: 1;"><g class="legendfill"/><g class="legendlines"><path class="js-line" d="M5,0h30" style="fill: none; stroke: rgb(255, 192, 203); stroke-opacity: 1; stroke-width: 5px;"/></g><g class="legendsymbols"><g class="legendpoints"/></g></g><rect class="legendtoggle" x="0" y="-9.5" width="122.703125" height="19" style="fill: rgb(0, 0, 0); fill-opacity: 0;"/></g></g></g><rect class="scrollbar" rx="20" ry="3" width="0" height="0" x="0" y="0" style="fill: rgb(128, 139, 164); fill-opacity: 1;"/></g><g class="g-gtitle"/><g class="g-xtitle"/><g class="g-ytitle"/></g></svg>