<svg class="main-svg" xmlns="http://www.w3.org/2000/svg" xmlns:xlink="http://www.w3.org/1999/xlink" width="300" height="135" style="" viewBox="0 0 300 135"><rect x="0" y="0" width="300" height="135" style="fill: rgb(255, 255, 255); fill-opacity: 1;"/><defs id="defs-7f0c58"><g class="clips"><clipPath id="clip7f0c58xyplot" class="plotclip"><rect width="280" height="75"/></clipPath><clipPath class="axesclip" id="clip7f0c58x"><rect x="10" y="0" width="280" height="135"/></clipPath><clipPath class="axesclip" id="clip7f0c58y"><rect x="0" y="50" width="300" height="75"/></clipPath><clipPath class="axesclip" id="clip7f0c58xy"><rect x="10" y="50" width="280" height="75"/></clipPath></g><g class="gradients"/><g class="patterns"/></defs><g class="bglayer"/><g class="layer-below"><g class="imagelayer"/><g class="shapelayer"/></g><g class="cartesianlayer"><g class="subplot xy"><g class="layer-subplot"><g class="shapelayer"/><g class="imagelayer"/></g><g class="minor-gridlayer"><g class="x"/><g class="y"/></g><g class="gridlayer"><g class="x"><path class="xgrid crisp" transform="translate(21.97,0)" d="M0,50v75" style="stroke: rgb(235, 240, 248); stroke-opacity: 1; stroke-width: 1px;"/><path class="xgrid crisp" transform="translate(96.15,0)" d="M0,50v75" style="stroke: rgb(235, 240, 248); stroke-opacity: 1; stroke-width: 1px;"/><path class="xgrid crisp" transform="translate(169.15,0)" d="M0,50v75" style="stroke: rgb(235, 240, 248); stroke-opacity: 1; stroke-width: 1px;"/><path class="xgrid crisp" transform="translate(242.14,0)" d="M0,50v75" style="stroke: rgb(235, 240, 248); stroke-opacity: 1; stroke-width: 1px;"/></g><g class="y"><path class="ygrid crisp" transform="translate(0,102.77000000000001)" d="M10,0h280" style="stroke: rgb(235, 240, 248); stroke-opacity: 1; stroke-width: 1px;"/><path class="ygrid crisp" transform="translate(0,80.53999999999999)" d="M10,0h280" style="stroke: rgb(235, 240, 248); stroke-opacity: 1; stroke-width: 1px;"/><path class="ygrid crisp" transform="translate(0,58.31)" d="M10,0h280" style="stroke: rgb(235, 240, 248); stroke-opacity: 1; stroke-width: 1px;"/></g></g><g class="zerolinelayer"><path class="yzl zl crisp" transform="translate(0,125)" d="M10,0h280" style="stroke: rgb(235, 240, 248); stroke-opacity: 1; stroke-width: 2px;"/></g><path class="xlines-below"/><path class="ylines-below"/><g class="overlines-below"/><g class="xaxislayer-below"/><g class="yaxislayer-below"/><g class="overaxes-below"/><g class="plot" transform="translate(10,50)" clip-path="url(#clip7f0c58xyplot)"><g class="scatterlayer mlayer"><g class="trace scatter trace194814" style="stroke-miterlimit: 2; opacity: 1;"><g class="fills"/><g class="errorbars"/><g class="lines"><path class="js-line" d="M0,51.77L3.59,48.88L4.79,48.88L9.57,49.1L10.77,48.32L27.52,47.43L28.72,46.77L51.45,45.99L52.65,41.32L67.01,41.32L69.4,44.54L72.99,43.88L74.19,43.88L82.56,43.65L83.76,46.1L86.15,47.32L87.35,46.88L88.55,46.43L89.74,47.43L120.85,46.77L122.05,44.54L124.44,45.43L125.64,45.43L126.84,45.21L128.03,41.54L130.43,39.32L131.62,39.32L132.82,38.76L134.02,35.1L136.41,32.98L137.61,32.98L141.2,32.32L142.39,31.32L145.98,28.87L147.18,28.87L156.75,29.2L157.95,30.32L167.52,30.32L168.72,28.76L169.91,28.76L171.11,26.09L175.9,26.09L177.09,23.09L184.27,23.09L185.47,21.31L192.65,18.42L193.85,18.42L196.24,14.64L197.44,14.64L198.63,12.75L199.83,8.2L210.6,8.2L211.79,9.86L214.19,10.64L215.38,10.64L217.78,12.86L218.97,13.53L224.96,12.31L226.15,12.31L233.33,12.42L234.53,8.75L236.92,5.08L238.12,4.97L241.71,5.86L242.91,3.75L246.5,4.75L247.69,5.64L250.09,6.75L251.28,10.53L252.48,11.86L253.68,10.53L256.07,10.64L257.26,8.86L259.66,8.97L260.85,9.09L263.25,8.64L264.44,7.75L268.03,4.64L269.23,4.64L272.82,6.64L274.02,5.75L276.41,6.42L277.61,8.64L280,15.31" style="vector-effect: none; fill: none; stroke: rgb(138, 44, 81); stroke-opacity: 1; stroke-width: 5px; opacity: 1;"/></g><g class="points"/><g class="text"/></g><g class="trace scatter tracec42edf" style="stroke-miterlimit: 2; opacity: 1;"><g class="fills"/><g class="errorbars"/><g class="lines"><path class="js-line" d="M0,26.54L4.79,28.09L5.98,28.09L9.57,27.87L10.77,27.2L69.4,28.2L70.6,31.32L82.56,30.32L83.76,27.76L86.15,23.98L87.35,24.98L88.55,25.98L89.74,22.65L100.51,22.65L101.71,24.31L102.91,24.31L104.1,22.65L105.3,24.31L106.5,22.31L108.89,21.87L110.09,23.98L112.48,21.87L113.68,21.87L114.87,21.87L116.07,23.98L117.26,23.98L118.46,21.87L120.85,23.98L122.05,21.98L124.44,24.54L125.64,24.54L132.82,25.76L134.02,27.65L137.61,28.43L138.8,28.43L154.36,29.2L155.56,29.87L184.27,30.87L185.47,32.65L193.85,34.98L195.04,32.87L198.63,33.98L199.83,35.43L210.6,35.43L211.79,33.87L214.19,32.98L215.38,32.98L216.58,32.54L217.78,29.98L220.17,29.43L221.37,29.76L233.33,29.2L234.53,32.09L236.92,35.43L238.12,35.54L240.51,33.76L241.71,32.98L244.1,35.1L245.3,34.54L250.09,32.09L251.28,28.32L252.48,26.98L253.68,28.32L256.07,28.2L257.26,29.98L259.66,29.87L260.85,29.76L263.25,30.2L264.44,31.09L268.03,34.21L269.23,34.21L272.82,32.21L274.02,33.09L276.41,32.43L277.61,30.2L280,23.54" style="vector-effect: none; fill: none; stroke: rgb(0, 174, 239); stroke-opacity: 1; stroke-width: 5px; opacity: 1;"/></g><g class="points"/><g class="text"/></g><g class="trace scatter trace084de8" style="stroke-miterlimit: 2; opacity: 1;"><g class="fills"/><g class="errorbars"/><g class="lines"><path class="js-line" d="M0,67.22L13.16,67.33L14.36,67.33L51.45,68.55L52.65,69.44L67.01,69.44L69.4,68.11L70.6,71L72.99,71L88.55,71.89L89.74,72.33L141.2,73.11L142.39,73.55L175.9,73.55" style="vector-effect: none; fill: none; stroke: rgb(255, 192, 203); stroke-opacity: 1; stroke-width: 5px; opacity: 1;"/></g><g class="points"/><g class="text"/></g><g class="trace scatter tracea664b0" style="stroke-miterlimit: 2; opacity: 1;"><g class="fills"/><g class="errorbars"/><g class="lines"><path class="js-line" d="M0,63.33L7.18,63.77L8.38,63.33L31.11,64.66L32.31,64.66L51.45,64.44L52.65,66.11L69.4,65.44L70.6,66.89L83.76,67.22L84.96,68.44L87.35,67.77L88.55,67.11L90.94,69L92.14,69L122.05,68.11L123.25,67.33L128.03,68.55L129.23,69.11L141.2,70.33L142.39,70.78L150.77,71.55L151.97,71.55L193.85,71.55L195.04,73.67L198.63,73.89" style="vector-effect: none; fill: none; stroke: rgb(238, 58, 67); stroke-opacity: 1; stroke-width: 5px; opacity: 1;"/></g><g class="points"/><g class="text"/></g><g class="trace scatter tracef58ee5" style="stroke-miterlimit: 2; opacity: 1;"><g class="fills"/><g class="errorbars"/><g class="lines"><path class="js-line" d="M0,66.22L7.18,66.44L8.38,64.88L10.77,68.33L11.97,68.33L86.15,68.89L87.35,69.33L89.74,69L90.94,69L128.03,70.11L129.23,70.33L142.39,71.55L143.59,71.78L148.38,72.11L149.57,72.11L193.85,73.33L195.04,73.67L198.63,73.89" style="vector-effect: none; fill: none; stroke: rgb(202, 166, 105); stroke-opacity: 1; stroke-width: 5px; opacity: 1;"/></g><g class="points"/><g class="text"/></g></g></g><g class="overplot"/><path class="xlines-above crisp" d="M0,0" style="fill: none;"/><path class="ylines-above crisp" d="M0,0" style="fill: none;"/><g class="overlines-above"/><g class="xaxislayer-above"/><g class="yaxislayer-above"/><g class="overaxes-above"/></g></g><g class="polarlayer"/><g class="smithlayer"/><g class="ternarylayer"/><g class="geolayer"/><g class="funnelarealayer"/><g class="pielayer"/><g class="iciclelayer"/><g class="treemaplayer"/><g class="sunburstlayer"/><g class="glimages"/><defs id="topdefs-7f0c58"><g class="clips"/></defs><g class="layer-above"><g class="imagelayer"/><g class="shapelayer"/></g><g class="infolayer"><g class="g-gtitle"><text class="gtitle" x="15" y="25" text-anchor="start" dy="0em" style="font-family: Ubuntu, verdana, arial, sans-serif; font-size: 16px; fill: rgb(233, 84, 32); opacity: 1; font-weight: normal; white-space: pre;">Prezident/ka 2024</text></g><g class="g-xtitle"/><g class="g-ytitle"/></g></svg>