<svg class="main-svg" xmlns="http://www.w3.org/2000/svg" xmlns:xlink="http://www.w3.org/1999/xlink" width="300" height="135" style="" viewBox="0 0 300 135"><rect x="0" y="0" width="300" height="135" style="fill: rgb(255, 255, 255); fill-opacity: 1;"/><defs id="defs-bb59fd"><g class="clips"><clipPath id="clipbb59fdxyplot" class="plotclip"><rect width="280" height="75"/></clipPath><clipPath class="axesclip" id="clipbb59fdx"><rect x="10" y="0" width="280" height="135"/></clipPath><clipPath class="axesclip" id="clipbb59fdy"><rect x="0" y="50" width="300" height="75"/></clipPath><clipPath class="axesclip" id="clipbb59fdxy"><rect x="10" y="50" width="280" height="75"/></clipPath></g><g class="gradients"/><g class="patterns"/></defs><g class="bglayer"/><g class="layer-below"><g class="imagelayer"/><g class="shapelayer"/></g><g class="cartesianlayer"><g class="subplot xy"><g class="layer-subplot"><g class="shapelayer"/><g class="imagelayer"/></g><g class="minor-gridlayer"><g class="x"/><g class="y"/></g><g class="gridlayer"><g class="x"><path class="xgrid crisp" transform="translate(22.23,0)" d="M0,50v75" style="stroke: rgb(235, 240, 248); stroke-opacity: 1; stroke-width: 1px;"/><path class="xgrid crisp" transform="translate(98.03,0)" d="M0,50v75" style="stroke: rgb(235, 240, 248); stroke-opacity: 1; stroke-width: 1px;"/><path class="xgrid crisp" transform="translate(172.62,0)" d="M0,50v75" style="stroke: rgb(235, 240, 248); stroke-opacity: 1; stroke-width: 1px;"/><path class="xgrid crisp" transform="translate(247.21,0)" d="M0,50v75" style="stroke: rgb(235, 240, 248); stroke-opacity: 1; stroke-width: 1px;"/></g><g class="y"><path class="ygrid crisp" transform="translate(0,102.77000000000001)" d="M10,0h280" style="stroke: rgb(235, 240, 248); stroke-opacity: 1; stroke-width: 1px;"/><path class="ygrid crisp" transform="translate(0,80.53999999999999)" d="M10,0h280" style="stroke: rgb(235, 240, 248); stroke-opacity: 1; stroke-width: 1px;"/><path class="ygrid crisp" transform="translate(0,58.31)" d="M10,0h280" style="stroke: rgb(235, 240, 248); stroke-opacity: 1; stroke-width: 1px;"/></g></g><g class="zerolinelayer"><path class="yzl zl crisp" transform="translate(0,125)" d="M10,0h280" style="stroke: rgb(235, 240, 248); stroke-opacity: 1; stroke-width: 2px;"/></g><path class="xlines-below"/><path class="ylines-below"/><g class="overlines-below"/><g class="xaxislayer-below"/><g class="yaxislayer-below"/><g class="overaxes-below"/><g class="plot" transform="translate(10,50)" clip-path="url(#clipbb59fdxyplot)"><g class="scatterlayer mlayer"><g class="trace scatter trace33b440" style="stroke-miterlimit: 2; opacity: 1;"><g class="fills"/><g class="errorbars"/><g class="lines"><path class="js-line" d="M0,51.77L3.67,48.88L4.89,48.88L9.78,49.1L11,48.32L28.12,47.43L29.34,46.77L52.58,45.99L53.8,41.32L68.47,41.32L70.92,44.54L74.59,43.88L75.81,43.88L84.37,43.65L85.59,46.1L88.03,47.32L89.26,46.88L90.48,46.43L91.7,47.43L123.49,46.77L124.72,44.54L127.16,45.43L128.38,45.43L129.61,45.21L130.83,41.54L133.28,39.32L134.5,39.32L135.72,38.76L136.94,35.1L139.39,32.98L140.61,32.98L144.28,32.32L145.5,31.32L149.17,28.87L150.39,28.87L160.17,29.2L161.4,30.32L171.18,30.32L172.4,28.76L173.62,28.76L174.85,26.09L179.74,26.09L180.96,23.09L188.3,23.09L189.52,21.31L196.86,18.42L198.08,18.42L200.52,14.64L201.75,14.64L202.97,12.75L204.19,8.2L215.2,8.2L216.42,9.86L218.86,10.64L220.09,10.64L222.53,12.86L223.76,13.53L229.87,12.31L231.09,12.31L238.43,12.42L239.65,8.75L242.1,5.08L243.32,4.97L246.99,5.86L248.21,3.75L251.88,4.75L253.1,5.64L255.55,6.75L256.77,10.53L257.99,11.86L259.21,10.53L261.66,10.64L262.88,8.86L265.33,8.97L266.55,9.09L269,8.64L270.22,7.75L273.89,4.64L275.11,4.64L280,6.64" style="vector-effect: none; fill: none; stroke: rgb(138, 44, 81); stroke-opacity: 1; stroke-width: 5px; opacity: 1;"/></g><g class="points"/><g class="text"/></g><g class="trace scatter tracef829f9" style="stroke-miterlimit: 2; opacity: 1;"><g class="fills"/><g class="errorbars"/><g class="lines"><path class="js-line" d="M0,26.54L4.89,28.09L6.11,28.09L9.78,27.87L11,27.2L70.92,28.2L72.14,31.32L84.37,30.32L85.59,27.76L88.03,23.98L89.26,24.98L90.48,25.98L91.7,22.65L102.71,22.65L103.93,24.31L105.15,24.31L106.38,22.65L107.6,24.31L108.82,22.31L111.27,21.87L112.49,23.98L114.93,21.87L116.16,21.87L117.38,21.87L118.6,23.98L119.83,23.98L121.05,21.87L123.49,23.98L124.72,21.98L127.16,24.54L128.38,24.54L135.72,25.76L136.94,27.65L140.61,28.43L141.83,28.43L157.73,29.2L158.95,29.87L188.3,30.87L189.52,32.65L198.08,34.98L199.3,32.87L202.97,33.98L204.19,35.43L215.2,35.43L216.42,33.87L218.86,32.98L220.09,32.98L221.31,32.54L222.53,29.98L224.98,29.43L226.2,29.76L238.43,29.2L239.65,32.09L242.1,35.43L243.32,35.54L245.76,33.76L246.99,32.98L249.43,35.1L250.66,34.54L255.55,32.09L256.77,28.32L257.99,26.98L259.21,28.32L261.66,28.2L262.88,29.98L265.33,29.87L266.55,29.76L269,30.2L270.22,31.09L273.89,34.21L275.11,34.21L280,32.21" style="vector-effect: none; fill: none; stroke: rgb(0, 174, 239); stroke-opacity: 1; stroke-width: 5px; opacity: 1;"/></g><g class="points"/><g class="text"/></g><g class="trace scatter trace12fae1" style="stroke-miterlimit: 2; opacity: 1;"><g class="fills"/><g class="errorbars"/><g class="lines"><path class="js-line" d="M0,63.33L7.34,63.77L8.56,63.33L31.79,64.66L33.01,64.66L52.58,64.44L53.8,66.11L70.92,65.44L72.14,66.89L85.59,67.22L86.81,68.44L89.26,67.77L90.48,67.11L92.93,69L94.15,69L124.72,68.11L125.94,67.33L130.83,68.55L132.05,69.11L144.28,70.33L145.5,70.78L154.06,71.55L155.28,71.55L198.08,71.55L199.3,73.67L202.97,73.89" style="vector-effect: none; fill: none; stroke: rgb(238, 58, 67); stroke-opacity: 1; stroke-width: 5px; opacity: 1;"/></g><g class="points"/><g class="text"/></g><g class="trace scatter trace1d1c92" style="stroke-miterlimit: 2; opacity: 1;"><g class="fills"/><g class="errorbars"/><g class="lines"><path class="js-line" d="M0,66.22L7.34,66.44L8.56,64.88L11,68.33L12.23,68.33L88.03,68.89L89.26,69.33L91.7,69L92.93,69L130.83,70.11L132.05,70.33L145.5,71.55L146.72,71.78L151.62,72.11L152.84,72.11L198.08,73.33L199.3,73.67L202.97,73.89" style="vector-effect: none; fill: none; stroke: rgb(202, 166, 105); stroke-opacity: 1; stroke-width: 5px; opacity: 1;"/></g><g class="points"/><g class="text"/></g><g class="trace scatter tracebad877" style="stroke-miterlimit: 2; opacity: 1;"><g class="fills"/><g class="errorbars"/><g class="lines"><path class="js-line" d="M0,63.77L8.56,64.88L9.78,64.22L13.45,63.55L14.67,63.55L52.58,63.77L53.8,65.11L70.92,64.22L72.14,56.99L85.59,57.66L86.81,58.33L108.82,58.66L110.04,59.1L123.49,58.33L124.72,61.55L127.16,59.33L128.38,59.33L129.61,59.44L130.83,61.11L133.28,62.44L134.5,62.44L135.72,62.11L136.94,63.22L144.28,63.33L145.5,63.22L154.06,63.88L155.28,63.88L157.73,63.44L158.95,62.44L160.17,62.44L161.4,60.88L171.18,60.88L172.4,62.33L178.52,64.33L179.74,64.33L182.18,65.22L183.41,65.22L198.08,65.55L199.3,69L221.31,70.11L222.53,71.11L238.43,72.22L239.65,73L245.76,73.55" style="vector-effect: none; fill: none; stroke: rgb(255, 1, 170); stroke-opacity: 1; stroke-width: 5px; opacity: 1;"/></g><g class="points"/><g class="text"/></g></g></g><g class="overplot"/><path class="xlines-above crisp" d="M0,0" style="fill: none;"/><path class="ylines-above crisp" d="M0,0" style="fill: none;"/><g class="overlines-above"/><g class="xaxislayer-above"/><g class="yaxislayer-above"/><g class="overaxes-above"/></g></g><g class="polarlayer"/><g class="smithlayer"/><g class="ternarylayer"/><g class="geolayer"/><g class="funnelarealayer"/><g class="pielayer"/><g class="iciclelayer"/><g class="treemaplayer"/><g class="sunburstlayer"/><g class="glimages"/><defs id="topdefs-bb59fd"><g class="clips"/></defs><g class="layer-above"><g class="imagelayer"/><g class="shapelayer"/></g><g class="infolayer"><g class="g-gtitle"><text class="gtitle" x="15" y="25" text-anchor="start" dy="0em" style="font-family: Ubuntu, verdana, arial, sans-serif; font-size: 16px; fill: rgb(233, 84, 32); opacity: 1; font-weight: normal; white-space: pre;">Prezident/ka 2024</text></g><g class="g-xtitle"/><g class="g-ytitle"/></g></svg>