<svg class="main-svg" xmlns="http://www.w3.org/2000/svg" xmlns:xlink="http://www.w3.org/1999/xlink" width="300" height="135" style="" viewBox="0 0 300 135"><rect x="0" y="0" width="300" height="135" style="fill: rgb(255, 255, 255); fill-opacity: 1;"/><defs id="defs-bdbdb3"><g class="clips"><clipPath id="clipbdbdb3xyplot" class="plotclip"><rect width="280" height="75"/></clipPath><clipPath class="axesclip" id="clipbdbdb3x"><rect x="10" y="0" width="280" height="135"/></clipPath><clipPath class="axesclip" id="clipbdbdb3y"><rect x="0" y="50" width="300" height="75"/></clipPath><clipPath class="axesclip" id="clipbdbdb3xy"><rect x="10" y="50" width="280" height="75"/></clipPath></g><g class="gradients"/><g class="patterns"/></defs><g class="bglayer"/><g class="layer-below"><g class="imagelayer"/><g class="shapelayer"/></g><g class="cartesianlayer"><g class="subplot xy"><g class="layer-subplot"><g class="shapelayer"/><g class="imagelayer"/></g><g class="minor-gridlayer"><g class="x"/><g class="y"/></g><g class="gridlayer"><g class="x"><path class="xgrid crisp" transform="translate(26.28,0)" d="M0,50v75" style="stroke: rgb(235, 240, 248); stroke-opacity: 1; stroke-width: 1px;"/><path class="xgrid crisp" transform="translate(127.21,0)" d="M0,50v75" style="stroke: rgb(235, 240, 248); stroke-opacity: 1; stroke-width: 1px;"/><path class="xgrid crisp" transform="translate(226.51,0)" d="M0,50v75" style="stroke: rgb(235, 240, 248); stroke-opacity: 1; stroke-width: 1px;"/></g><g class="y"><path class="ygrid crisp" transform="translate(0,101.28999999999999)" d="M10,0h280" style="stroke: rgb(235, 240, 248); stroke-opacity: 1; stroke-width: 1px;"/><path class="ygrid crisp" transform="translate(0,77.58)" d="M10,0h280" style="stroke: rgb(235, 240, 248); stroke-opacity: 1; stroke-width: 1px;"/><path class="ygrid crisp" transform="translate(0,53.87)" d="M10,0h280" style="stroke: rgb(235, 240, 248); stroke-opacity: 1; stroke-width: 1px;"/></g></g><g class="zerolinelayer"><path class="yzl zl crisp" transform="translate(0,125)" d="M10,0h280" style="stroke: rgb(235, 240, 248); stroke-opacity: 1; stroke-width: 2px;"/></g><path class="xlines-below"/><path class="ylines-below"/><g class="overlines-below"/><g class="xaxislayer-below"/><g class="yaxislayer-below"/><g class="overaxes-below"/><g class="plot" transform="translate(10,50)" clip-path="url(#clipbdbdb3xyplot)"><g class="scatterlayer mlayer"><g class="trace scatter trace111c73" style="stroke-miterlimit: 2; opacity: 1;"><g class="fills"/><g class="errorbars"/><g class="lines"><path class="js-line" d="M0,50.22L4.88,47.14L6.51,47.14L13.02,47.38L14.65,46.55L37.44,45.6L39.07,44.89L70,44.06L71.63,39.08L91.16,39.08L94.42,42.52L96.05,41.81L99.3,41.81L112.33,41.57L113.95,44.18L117.21,45.48L118.84,45.01L120.47,44.53L122.09,45.6L164.42,44.89L166.05,42.52L169.3,43.47L170.93,43.47L172.56,43.23L174.19,39.32L175.81,36.94L177.44,36.94L180.7,36.35L182.33,32.44L185.58,30.19L187.21,30.19L192.09,29.48L193.72,28.41L198.6,25.8L200.23,25.8L213.26,26.16L214.88,27.34L227.91,27.34L229.53,25.68L231.16,25.68L232.79,22.84L239.3,22.84L240.93,19.64L250.7,19.64L252.33,17.74L255.58,17.03L257.21,17.03L263.72,14.66L265.35,10.63L268.6,10.63L270.23,8.61L271.86,3.75L273.49,3.75L280,3.75" style="vector-effect: none; fill: none; stroke: rgb(138, 44, 81); stroke-opacity: 1; stroke-width: 5px; opacity: 1;"/></g><g class="points"/><g class="text"/></g><g class="trace scatter traceca021f" style="stroke-miterlimit: 2; opacity: 1;"><g class="fills"/><g class="errorbars"/><g class="lines"><path class="js-line" d="M0,23.31L4.88,24.97L6.51,24.97L13.02,24.73L14.65,24.02L94.42,25.09L96.05,28.41L112.33,27.34L113.95,24.62L115.58,20.58L117.21,20.58L120.47,22.72L122.09,19.16L136.74,19.16L138.37,20.94L140,20.94L141.63,19.16L143.26,20.94L144.88,18.81L148.14,18.33L149.77,20.58L151.4,18.33L153.02,18.33L156.28,18.33L157.91,20.58L159.53,20.58L161.16,18.33L162.79,20.58L164.42,20.58L166.05,18.45L167.67,21.18L179.07,21.89L180.7,22.48L183.95,25.21L185.58,25.33L210,26.16L211.63,26.87L231.16,26.99L232.79,28.17L250.7,27.93L252.33,29.83L263.72,32.32L265.35,30.07L270.23,31.25L271.86,32.8L280,32.8" style="vector-effect: none; fill: none; stroke: rgb(0, 174, 239); stroke-opacity: 1; stroke-width: 5px; opacity: 1;"/></g><g class="points"/><g class="text"/></g><g class="trace scatter trace715ef2" style="stroke-miterlimit: 2; opacity: 1;"><g class="fills"/><g class="errorbars"/><g class="lines"><path class="js-line" d="M0,63.03L11.4,64.21L13.02,63.5L16.28,62.79L17.91,62.79L70,63.03L71.63,64.45L94.42,63.5L96.05,55.79L113.95,56.51L115.58,57.22L144.88,57.57L146.51,58.05L164.42,57.22L166.05,60.66L167.67,58.28L169.3,58.28L172.56,58.4L174.19,60.18L177.44,61.6L179.07,61.6L180.7,61.25L182.33,62.43L190.47,62.67L192.09,62.55L200.23,63.14L201.86,63.14L210,62.67L211.63,61.6L213.26,61.6L214.88,59.94L227.91,59.94L229.53,61.49L236.05,63.62L237.67,63.62L260.47,64.8L262.09,64.92L263.72,64.92L265.35,68.6L280,69.78" style="vector-effect: none; fill: none; stroke: rgb(255, 1, 170); stroke-opacity: 1; stroke-width: 5px; opacity: 1;"/></g><g class="points"/><g class="text"/></g><g class="trace scatter trace93dff6" style="stroke-miterlimit: 2; opacity: 1;"><g class="fills"/><g class="errorbars"/><g class="lines"><path class="js-line" d="M0,66.7L16.28,66.82L17.91,66.82L60.23,67.18L61.86,68.12L91.16,69.07L94.42,67.65L96.05,70.73L99.3,70.73L120.47,71.68L122.09,72.15L192.09,72.98L193.72,73.46L239.3,73.46" style="vector-effect: none; fill: none; stroke: rgb(255, 192, 203); stroke-opacity: 1; stroke-width: 5px; opacity: 1;"/></g><g class="points"/><g class="text"/></g><g class="trace scatter traceea4a3d" style="stroke-miterlimit: 2; opacity: 1;"><g class="fills"/><g class="errorbars"/><g class="lines"><path class="js-line" d="M0,62.55L9.77,63.03L11.4,62.55L40.7,63.97L42.33,63.97L70,63.74L71.63,65.52L94.42,64.8L96.05,66.35L113.95,66.7L115.58,68.01L118.84,67.29L120.47,66.58L122.09,68.6L123.72,68.6L166.05,67.65L167.67,66.82L172.56,66.94L174.19,68.12L179.07,68.72L180.7,68.95L188.84,69.78L190.47,69.78L205.12,71.32L206.74,71.32L263.72,71.32L265.35,73.58L270.23,73.81" style="vector-effect: none; fill: none; stroke: rgb(238, 58, 67); stroke-opacity: 1; stroke-width: 5px; opacity: 1;"/></g><g class="points"/><g class="text"/></g></g></g><g class="overplot"/><path class="xlines-above crisp" d="M0,0" style="fill: none;"/><path class="ylines-above crisp" d="M0,0" style="fill: none;"/><g class="overlines-above"/><g class="xaxislayer-above"/><g class="yaxislayer-above"/><g class="overaxes-above"/></g></g><g class="polarlayer"/><g class="smithlayer"/><g class="ternarylayer"/><g class="geolayer"/><g class="funnelarealayer"/><g class="pielayer"/><g class="iciclelayer"/><g class="treemaplayer"/><g class="sunburstlayer"/><g class="glimages"/><defs id="topdefs-bdbdb3"><g class="clips"/></defs><g class="layer-above"><g class="imagelayer"/><g class="shapelayer"/></g><g class="infolayer"><g class="g-gtitle"><text class="gtitle" x="15" y="25" text-anchor="start" dy="0em" style="font-family: Ubuntu, verdana, arial, sans-serif; font-size: 16px; fill: rgb(233, 84, 32); opacity: 1; font-weight: normal; white-space: pre;">Prezident/ka 2024</text></g><g class="g-xtitle"/><g class="g-ytitle"/></g></svg>