<svg class="main-svg" xmlns="http://www.w3.org/2000/svg" xmlns:xlink="http://www.w3.org/1999/xlink" width="1200" height="600" style="" viewBox="0 0 1200 600"><rect x="0" y="0" width="1200" height="600" style="fill: rgb(255, 255, 255); fill-opacity: 1;"/><defs id="defs-e051fb"><g class="clips"><clipPath id="clipe051fbxyplot" class="plotclip"><rect width="990" height="530"/></clipPath><clipPath class="axesclip" id="clipe051fbx"><rect x="50" y="0" width="990" height="600"/></clipPath><clipPath class="axesclip" id="clipe051fby"><rect x="0" y="20" width="1200" height="530"/></clipPath><clipPath class="axesclip" id="clipe051fbxy"><rect x="50" y="20" width="990" height="530"/></clipPath></g><g class="gradients"/><g class="patterns"/></defs><g class="bglayer"/><g class="layer-below"><g class="imagelayer"/><g class="shapelayer"/></g><g class="cartesianlayer"><g class="subplot xy"><g class="layer-subplot"><g class="shapelayer"/><g class="imagelayer"/></g><g class="minor-gridlayer"><g class="x"/><g class="y"/></g><g class="gridlayer"><g class="x"><path class="xgrid crisp" transform="translate(84.14,0)" d="M0,20v530" style="stroke: rgb(235, 240, 248); stroke-opacity: 1; stroke-width: 1px;"/><path class="xgrid crisp" transform="translate(189.97,0)" d="M0,20v530" style="stroke: rgb(235, 240, 248); stroke-opacity: 1; stroke-width: 1px;"/><path class="xgrid crisp" transform="translate(295.78999999999996,0)" d="M0,20v530" style="stroke: rgb(235, 240, 248); stroke-opacity: 1; stroke-width: 1px;"/><path class="xgrid crisp" transform="translate(398.21,0)" d="M0,20v530" style="stroke: rgb(235, 240, 248); stroke-opacity: 1; stroke-width: 1px;"/><path class="xgrid crisp" transform="translate(504.03,0)" d="M0,20v530" style="stroke: rgb(235, 240, 248); stroke-opacity: 1; stroke-width: 1px;"/><path class="xgrid crisp" transform="translate(606.45,0)" d="M0,20v530" style="stroke: rgb(235, 240, 248); stroke-opacity: 1; stroke-width: 1px;"/><path class="xgrid crisp" transform="translate(712.28,0)" d="M0,20v530" style="stroke: rgb(235, 240, 248); stroke-opacity: 1; stroke-width: 1px;"/><path class="xgrid crisp" transform="translate(818.1,0)" d="M0,20v530" style="stroke: rgb(235, 240, 248); stroke-opacity: 1; stroke-width: 1px;"/><path class="xgrid crisp" transform="translate(917.1,0)" d="M0,20v530" style="stroke: rgb(235, 240, 248); stroke-opacity: 1; stroke-width: 1px;"/><path class="xgrid crisp" transform="translate(1022.93,0)" d="M0,20v530" style="stroke: rgb(235, 240, 248); stroke-opacity: 1; stroke-width: 1px;"/></g><g class="y"><path class="ygrid crisp" transform="translate(0,476.17)" d="M50,0h990" style="stroke: rgb(235, 240, 248); stroke-opacity: 1; stroke-width: 1px;"/><path class="ygrid crisp" transform="translate(0,402.35)" d="M50,0h990" style="stroke: rgb(235, 240, 248); stroke-opacity: 1; stroke-width: 1px;"/><path class="ygrid crisp" transform="translate(0,328.52)" d="M50,0h990" style="stroke: rgb(235, 240, 248); stroke-opacity: 1; stroke-width: 1px;"/><path class="ygrid crisp" transform="translate(0,254.69)" d="M50,0h990" style="stroke: rgb(235, 240, 248); stroke-opacity: 1; stroke-width: 1px;"/><path class="ygrid crisp" transform="translate(0,180.87)" d="M50,0h990" style="stroke: rgb(235, 240, 248); stroke-opacity: 1; stroke-width: 1px;"/><path class="ygrid crisp" transform="translate(0,107.04)" d="M50,0h990" style="stroke: rgb(235, 240, 248); stroke-opacity: 1; stroke-width: 1px;"/><path class="ygrid crisp" transform="translate(0,33.21)" d="M50,0h990" style="stroke: rgb(235, 240, 248); stroke-opacity: 1; stroke-width: 1px;"/></g></g><g class="zerolinelayer"><path class="yzl zl crisp" transform="translate(0,550)" d="M50,0h990" style="stroke: rgb(235, 240, 248); stroke-opacity: 1; stroke-width: 2px;"/></g><path class="xlines-below"/><path class="ylines-below"/><g class="overlines-below"/><g class="xaxislayer-below"/><g class="yaxislayer-below"/><g class="overaxes-below"/><g class="plot" transform="translate(50,20)" clip-path="url(#clipe051fbxyplot)"><g class="scatterlayer mlayer"><g class="trace scatter trace957d57" style="stroke-miterlimit: 2; opacity: 1;"><g class="fills"/><g class="errorbars"/><g class="lines"><path class="js-line" d="M0,375.7L6.83,356.51L10.24,356.51L20.48,356.51L23.9,361.67L30.72,352.82L34.14,352.82L47.79,352.82L51.21,350.6L61.45,350.6L64.86,348.39L68.28,346.91L71.69,346.91L78.52,346.91L81.93,342.48L126.31,342.48L129.72,337.31L146.79,337.31L150.21,306.3L191.17,306.3L198,327.71L201.41,323.28L208.24,323.28L232.14,322.55L235.55,321.81L238.97,338.05L242.38,346.17L245.79,346.17L249.21,343.22L252.62,340.26L256.03,346.91L286.76,346.91L290.17,343.96L293.59,343.96L297,346.91L300.41,343.96L303.83,346.17L307.24,343.96L310.66,343.96L314.07,342.48L317.48,343.96L327.72,343.96L331.14,342.48L334.55,342.48L337.97,343.96L341.38,342.48L344.79,342.48L348.21,327.71L351.62,333.62L358.45,333.62L361.86,332.14L365.28,307.78L368.69,293.02L375.52,293.02L378.93,289.32L382.34,264.96L385.76,253.15L389.17,250.93L392.59,250.93L399.41,250.93L402.83,246.5L409.66,233.95L413.07,223.62L440.38,224.36L443.79,225.83L447.21,225.83L450.62,233.22L477.93,233.22L481.34,222.88L484.76,222.88L488.17,205.16L501.83,205.16L505.24,185.23L525.72,185.23L529.14,173.42L532.55,168.99L535.97,168.99L539.38,168.99L542.79,164.56L546.21,157.91L549.62,154.22L553.03,154.22L556.45,129.12L563.28,129.12L566.69,116.57L570.1,86.3L573.52,86.3L600.83,86.3L604.24,97.37L607.66,102.54L611.07,102.54L614.48,102.54L617.9,105.49L621.31,117.31L624.72,121.74L628.14,118.78L631.55,113.62L655.45,113.62L658.86,112.14L662.28,115.83L665.69,114.35L672.52,73.75L675.93,65.63L679.34,64.89L682.76,67.1L686.17,75.96L689.59,70.8L693,56.77L696.41,56.77L703.24,63.41L706.66,69.32L710.07,75.96L713.48,76.7L716.9,101.8L720.31,110.66L723.72,101.8L727.14,105.49L730.55,102.54L733.97,90.73L737.38,87.78L740.79,91.47L747.62,93.68L751.03,89.25L754.45,83.35L757.86,73.01L761.28,62.68L764.69,62.68L768.1,62.68L771.52,65.63L774.93,74.49L778.34,75.96L781.76,70.06L785.17,69.32L788.59,74.49L792,89.25L795.41,118.05L798.83,130.6L802.24,129.12L805.66,129.12L809.07,129.86L812.48,136.5L815.9,138.72L819.31,137.24L822.72,129.12L826.14,137.24L832.97,142.41L836.38,132.07L839.79,109.92L843.21,96.64L846.62,87.04L850.03,86.3L853.45,70.06L856.86,70.8L860.28,70.06L863.69,66.37L867.1,71.53L870.52,83.35L880.76,83.35L884.17,79.66L887.59,78.18L891,73.75L897.83,73.75L901.24,70.8L904.66,63.41L908.07,60.46L911.48,56.03L914.9,36.1L918.31,29.45L921.72,29.45L925.14,26.5" style="vector-effect: none; fill: none; stroke: rgb(138, 44, 81); stroke-opacity: 1; stroke-width: 5px; opacity: 1;"/></g><g class="points"/><g class="text"/></g><g class="trace scatter traced02f12" style="stroke-miterlimit: 2; opacity: 1;"><g class="fills"/><g class="errorbars"/><g class="lines"><path class="js-line" d="M0,208.11L6.83,218.45L10.24,218.45L20.48,218.45L23.9,223.62L30.72,212.54L34.14,212.54L61.45,212.54L64.86,214.02L68.28,215.5L71.69,215.5L78.52,215.5L81.93,219.19L198,219.19L201.41,239.86L228.72,239.86L232.14,236.17L235.55,233.22L238.97,216.24L242.38,191.13L245.79,191.13L252.62,204.42L256.03,182.27L286.76,182.27L290.17,193.35L293.59,193.35L297,182.27L300.41,193.35L303.83,180.06L307.24,177.11L310.66,177.11L314.07,191.13L317.48,177.11L327.72,177.11L331.14,191.13L334.55,191.13L337.97,177.11L341.38,191.13L344.79,191.13L348.21,177.85L351.62,194.83L361.86,194.83L365.28,199.26L375.52,199.26L378.93,202.95L382.34,215.5L385.76,219.93L392.59,220.66L396,220.66L406.24,220.66L409.66,222.88L416.48,223.62L419.9,223.62L436.97,223.62L440.38,225.83L443.79,230.26L447.21,230.26L450.62,233.22L457.45,233.22L481.34,233.95L484.76,231L488.17,238.38L491.59,238.38L501.83,238.38L505.24,236.91L525.72,236.91L529.14,248.72L532.55,251.67L535.97,251.67L539.38,251.67L542.79,256.1L549.62,264.22L553.03,264.22L556.45,250.2L559.86,250.2L563.28,250.2L566.69,257.58L570.1,267.18L573.52,267.18L600.83,267.18L604.24,256.84L607.66,250.93L611.07,250.93L614.48,250.93L617.9,247.98L621.31,231L624.72,225.83L631.55,229.52L634.97,229.52L652.03,229.52L655.45,228.05L658.86,229.52L662.28,225.83L665.69,225.83L669.1,245.03L672.52,259.05L675.93,267.18L679.34,267.91L682.76,265.7L686.17,256.1L689.59,250.93L693,264.96L696.41,264.96L703.24,258.32L706.66,252.41L710.07,245.77L713.48,245.03L716.9,219.93L720.31,211.07L723.72,219.93L727.14,216.24L730.55,219.19L733.97,231L737.38,233.95L740.79,230.26L747.62,228.05L751.03,232.48L754.45,238.38L757.86,248.72L761.28,259.05L764.69,259.05L768.1,259.05L771.52,256.1L774.93,247.24L778.34,245.77L781.76,251.67L785.17,252.41L788.59,247.24L792,232.48L795.41,203.68L798.83,191.13L802.24,192.61L805.66,192.61L809.07,191.87L812.48,185.23L815.9,183.01L819.31,184.49L822.72,192.61L826.14,184.49L832.97,179.32L836.38,189.66L839.79,211.81L843.21,225.09L846.62,234.69L850.03,235.43L853.45,251.67L856.86,250.93L860.28,251.67L863.69,255.36L867.1,250.2L870.52,238.38L880.76,238.38L884.17,242.07L887.59,243.55L891,247.98L897.83,247.98L901.24,250.93L904.66,258.32L908.07,261.27L911.48,265.7L914.9,285.63L918.31,292.28L921.72,292.28L925.14,295.23" style="vector-effect: none; fill: none; stroke: rgb(0, 174, 239); stroke-opacity: 1; stroke-width: 5px; opacity: 1;"/></g><g class="points"/><g class="text"/></g><g class="trace scatter trace6b3228" style="stroke-miterlimit: 2; opacity: 1;"><g class="fills"/><g class="errorbars"/><g class="lines"><path class="js-line" d="M0,478.32L10.24,480.54L13.66,480.54L23.9,479.8L27.31,478.32L34.14,479.06L37.55,479.06L47.79,479.06L51.21,480.54L78.52,479.8L81.93,481.27L126.31,481.27L129.72,487.18L146.79,487.18L150.21,493.09L191.17,493.09L198,484.23L201.41,503.42L208.24,503.42L238.97,504.16L242.38,509.33L252.62,509.33L256.03,512.28L286.76,512.28L290.17,510.8L293.59,510.8L297,512.28L300.41,510.8L303.83,512.28L310.66,512.28L314.07,510.8L317.48,512.28L320.9,512.28L327.72,512.28L331.14,510.8L334.55,510.8L337.97,512.28L341.38,510.8L344.79,510.8L348.21,513.02L351.62,511.54L375.52,512.28L378.93,513.02L385.76,515.23L389.17,515.97L399.41,515.97L402.83,517.45L406.24,520.4L409.66,520.4L416.48,521.14L419.9,521.14L501.83,520.4" style="vector-effect: none; fill: none; stroke: rgb(255, 192, 203); stroke-opacity: 1; stroke-width: 5px; opacity: 1;"/></g><g class="points"/><g class="text"/></g><g class="trace scatter trace2d1432" style="stroke-miterlimit: 2; opacity: 1;"><g class="fills"/><g class="errorbars"/><g class="lines"><path class="js-line" d="M0,471.68L10.24,473.15L13.66,473.15L20.48,473.15L23.9,462.82L30.72,485.7L34.14,485.7L64.86,484.97L68.28,484.23L146.79,483.49L150.21,487.18L191.17,487.18L198,485.7L201.41,488.66L208.24,488.66L232.14,489.4L235.55,490.13L245.79,489.4L249.21,492.35L252.62,495.3L256.03,490.13L286.76,490.13L290.17,492.35L293.59,492.35L297,490.13L300.41,492.35L303.83,491.61L307.24,494.56L310.66,494.56L314.07,495.3L317.48,494.56L344.79,495.3L348.21,497.52L365.28,497.52L368.69,498.99L378.93,499.73L382.34,500.47L389.17,503.42L392.59,503.42L399.41,503.42L402.83,504.9L413.07,510.8L416.48,510.8L501.83,510.8L505.24,518.19L553.03,518.93L556.45,521.14L563.28,521.14L566.69,522.62" style="vector-effect: none; fill: none; stroke: rgb(202, 166, 105); stroke-opacity: 1; stroke-width: 5px; opacity: 1;"/></g><g class="points"/><g class="text"/></g><g class="trace scatter trace9b3ace" style="stroke-miterlimit: 2; opacity: 1;"><g class="fills"/><g class="errorbars"/><g class="lines"><path class="js-line" d="M0,452.48L6.83,455.43L10.24,455.43L20.48,455.43L23.9,452.48L27.31,453.22L30.72,456.91L61.45,457.65L64.86,459.86L68.28,461.34L71.69,461.34L126.31,461.34L129.72,459.86L146.79,459.86L150.21,470.94L191.17,470.94L198,466.51L201.41,476.11L208.24,476.11L232.14,476.84L235.55,478.32L238.97,478.32L242.38,486.44L245.79,486.44L249.21,482.01L252.62,477.58L256.03,490.13L286.76,490.13L290.17,484.23L293.59,484.23L297,490.13L300.41,484.23L303.83,489.4L310.66,489.4L314.07,483.49L317.48,489.4L320.9,489.4L327.72,489.4L331.14,483.49L334.55,483.49L337.97,489.4L341.38,483.49L344.79,483.49L348.21,484.23L351.62,479.06L361.86,479.8L365.28,487.18L368.69,490.87L372.1,490.87L375.52,490.87L378.93,492.35L389.17,497.52L392.59,497.52L399.41,497.52L402.83,498.99L413.07,507.11L416.48,507.11L501.83,507.11L505.24,506.38L553.03,507.11L556.45,521.14L563.28,521.14L566.69,522.62" style="vector-effect: none; fill: none; stroke: rgb(238, 58, 67); stroke-opacity: 1; stroke-width: 5px; opacity: 1;"/></g><g class="points"/><g class="text"/></g><g class="trace scatter traced0c8d6" style="stroke-miterlimit: 2; opacity: 1;"><g class="fills"/><g class="errorbars"/><g class="lines"><path class="js-line" d="M0,455.43L6.83,457.65L10.24,457.65L20.48,457.65L23.9,462.82L30.72,453.96L34.14,453.96L47.79,453.96L51.21,455.43L64.86,454.7L68.28,453.96L126.31,453.96L129.72,455.43L146.79,455.43L150.21,464.29L191.17,464.29L198,458.39L201.41,410.4L208.24,410.4L228.72,410.4L232.14,412.62L235.55,414.83L238.97,414.83L242.38,419.26L245.79,419.26L252.62,414.09L256.03,420L286.76,420L290.17,417.04L293.59,417.04L297,420L300.41,417.04L303.83,421.47L307.24,424.43L310.66,424.43L314.07,419.26L317.48,424.43L327.72,424.43L331.14,419.26L334.55,419.26L337.97,424.43L341.38,419.26L344.79,419.26L348.21,440.67L351.62,425.9L361.86,426.64L365.28,437.72L368.69,446.58L372.1,446.58L375.52,446.58L378.93,444.36L382.34,451.74L385.76,453.22L402.83,452.48L406.24,451.74L409.66,453.22L413.07,456.17L436.97,456.17L440.38,453.22L443.79,446.58L447.21,446.58L450.62,436.24L457.45,436.24L477.93,436.24L481.34,445.84L484.76,448.79L488.17,459.13L501.83,459.13L505.24,465.03L542.79,465.77L546.21,466.51L553.03,467.25L556.45,490.13L563.28,490.13L566.69,493.09L570.1,497.52L573.52,497.52L617.9,497.52L621.31,504.16L624.72,504.16L628.14,505.64L631.55,508.59L634.97,508.59L652.03,508.59L655.45,510.07L662.28,510.07L665.69,511.54L669.1,516.71L672.52,518.93L682.76,518.93L686.17,520.4" style="vector-effect: none; fill: none; stroke: rgb(255, 1, 170); stroke-opacity: 1; stroke-width: 5px; opacity: 1;"/></g><g class="points"/><g class="text"/></g></g></g><g class="overplot"/><path class="xlines-above crisp" d="M0,0" style="fill: none;"/><path class="ylines-above crisp" d="M0,0" style="fill: none;"/><g class="overlines-above"/><g class="xaxislayer-above"><g class="xtick"><text text-anchor="middle" x="0" y="563" transform="translate(84.14,0)" style="font-family: 'Open Sans', verdana, arial, sans-serif; font-size: 12px; fill: rgb(42, 63, 95); fill-opacity: 1; white-space: pre; opacity: 1;">1.7.23</text></g><g class="xtick"><text text-anchor="middle" x="0" y="563" style="font-family: 'Open Sans', verdana, arial, sans-serif; font-size: 12px; fill: rgb(42, 63, 95); fill-opacity: 1; white-space: pre; opacity: 1;" transform="translate(189.97,0)">1.8.23</text></g><g class="xtick"><text text-anchor="middle" x="0" y="563" style="font-family: 'Open Sans', verdana, arial, sans-serif; font-size: 12px; fill: rgb(42, 63, 95); fill-opacity: 1; white-space: pre; opacity: 1;" transform="translate(295.78999999999996,0)">1.9.23</text></g><g class="xtick"><text text-anchor="middle" x="0" y="563" style="font-family: 'Open Sans', verdana, arial, sans-serif; font-size: 12px; fill: rgb(42, 63, 95); fill-opacity: 1; white-space: pre; opacity: 1;" transform="translate(398.21,0)">1.10.23</text></g><g class="xtick"><text text-anchor="middle" x="0" y="563" style="font-family: 'Open Sans', verdana, arial, sans-serif; font-size: 12px; fill: rgb(42, 63, 95); fill-opacity: 1; white-space: pre; opacity: 1;" transform="translate(504.03,0)">1.11.23</text></g><g class="xtick"><text text-anchor="middle" x="0" y="563" style="font-family: 'Open Sans', verdana, arial, sans-serif; font-size: 12px; fill: rgb(42, 63, 95); fill-opacity: 1; white-space: pre; opacity: 1;" transform="translate(606.45,0)">1.12.23</text></g><g class="xtick"><text text-anchor="middle" x="0" y="563" style="font-family: 'Open Sans', verdana, arial, sans-serif; font-size: 12px; fill: rgb(42, 63, 95); fill-opacity: 1; white-space: pre; opacity: 1;" transform="translate(712.28,0)">1.1.24</text></g><g class="xtick"><text text-anchor="middle" x="0" y="563" style="font-family: 'Open Sans', verdana, arial, sans-serif; font-size: 12px; fill: rgb(42, 63, 95); fill-opacity: 1; white-space: pre; opacity: 1;" transform="translate(818.1,0)">1.2.24</text></g><g class="xtick"><text text-anchor="middle" x="0" y="563" style="font-family: 'Open Sans', verdana, arial, sans-serif; font-size: 12px; fill: rgb(42, 63, 95); fill-opacity: 1; white-space: pre; opacity: 1;" transform="translate(917.1,0)">1.3.24</text></g><g class="xtick"><text text-anchor="middle" x="0" y="563" style="font-family: 'Open Sans', verdana, arial, sans-serif; font-size: 12px; fill: rgb(42, 63, 95); fill-opacity: 1; white-space: pre; opacity: 1;" transform="translate(1022.93,0)">1.4.24</text></g></g><g class="yaxislayer-above"><g class="ytick"><text text-anchor="end" x="49" y="4.199999999999999" transform="translate(0,550)" style="font-family: 'Open Sans', verdana, arial, sans-serif; font-size: 12px; fill: rgb(42, 63, 95); fill-opacity: 1; white-space: pre; opacity: 1;">0%</text></g><g class="ytick"><text text-anchor="end" x="49" y="4.199999999999999" style="font-family: 'Open Sans', verdana, arial, sans-serif; font-size: 12px; fill: rgb(42, 63, 95); fill-opacity: 1; white-space: pre; opacity: 1;" transform="translate(0,476.17)">10%</text></g><g class="ytick"><text text-anchor="end" x="49" y="4.199999999999999" style="font-family: 'Open Sans', verdana, arial, sans-serif; font-size: 12px; fill: rgb(42, 63, 95); fill-opacity: 1; white-space: pre; opacity: 1;" transform="translate(0,402.35)">20%</text></g><g class="ytick"><text text-anchor="end" x="49" y="4.199999999999999" style="font-family: 'Open Sans', verdana, arial, sans-serif; font-size: 12px; fill: rgb(42, 63, 95); fill-opacity: 1; white-space: pre; opacity: 1;" transform="translate(0,328.52)">30%</text></g><g class="ytick"><text text-anchor="end" x="49" y="4.199999999999999" style="font-family: 'Open Sans', verdana, arial, sans-serif; font-size: 12px; fill: rgb(42, 63, 95); fill-opacity: 1; white-space: pre; opacity: 1;" transform="translate(0,254.69)">40%</text></g><g class="ytick"><text text-anchor="end" x="49" y="4.199999999999999" style="font-family: 'Open Sans', verdana, arial, sans-serif; font-size: 12px; fill: rgb(42, 63, 95); fill-opacity: 1; white-space: pre; opacity: 1;" transform="translate(0,180.87)">50%</text></g><g class="ytick"><text text-anchor="end" x="49" y="4.199999999999999" style="font-family: 'Open Sans', verdana, arial, sans-serif; font-size: 12px; fill: rgb(42, 63, 95); fill-opacity: 1; white-space: pre; opacity: 1;" transform="translate(0,107.04)">60%</text></g><g class="ytick"><text text-anchor="end" x="49" y="4.199999999999999" style="font-family: 'Open Sans', verdana, arial, sans-serif; font-size: 12px; fill: rgb(42, 63, 95); fill-opacity: 1; white-space: pre; opacity: 1;" transform="translate(0,33.21)">70%</text></g></g><g class="overaxes-above"/></g></g><g class="polarlayer"/><g class="smithlayer"/><g class="ternarylayer"/><g class="geolayer"/><g class="funnelarealayer"/><g class="pielayer"/><g class="iciclelayer"/><g class="treemaplayer"/><g class="sunburstlayer"/><g class="glimages"/><defs id="topdefs-e051fb"><g class="clips"/><clipPath id="legende051fb"><rect width="128" height="124" x="0" y="0"/></clipPath></defs><g class="layer-above"><g class="imagelayer"/><g class="shapelayer"/></g><g class="infolayer"><g class="legend" pointer-events="all" transform="translate(1059.8000000000002,20)"><rect class="bg" shape-rendering="crispEdges" style="stroke: rgb(68, 68, 68); stroke-opacity: 1; fill: rgb(255, 255, 255); fill-opacity: 1; stroke-width: 0px;" width="128" height="124" x="0" y="0"/><g class="scrollbox" transform="" clip-path="url(#legende051fb)"><g class="groups"><g class="traces" transform="translate(0,14.5)" style="opacity: 1;"><text class="legendtext" text-anchor="start" x="40" y="4.680000000000001" style="font-family: 'Open Sans', verdana, arial, sans-serif; font-size: 12px; fill: rgb(42, 63, 95); fill-opacity: 1; white-space: pre;">Pellegrini Peter</text><g class="layers" style="opacity: 1;"><g class="legendfill"/><g class="legendlines"><path class="js-line" d="M5,0h30" style="fill: none; stroke: rgb(138, 44, 81); stroke-opacity: 1; stroke-width: 5px;"/></g><g class="legendsymbols"><g class="legendpoints"/></g></g><rect class="legendtoggle" x="0" y="-9.5" width="122.703125" height="19" style="fill: rgb(0, 0, 0); fill-opacity: 0;"/></g><g class="traces" transform="translate(0,33.5)" style="opacity: 1;"><text class="legendtext" text-anchor="start" x="40" y="4.680000000000001" style="font-family: 'Open Sans', verdana, arial, sans-serif; font-size: 12px; fill: rgb(42, 63, 95); fill-opacity: 1; white-space: pre;">Korčok Ivan</text><g class="layers" style="opacity: 1;"><g class="legendfill"/><g class="legendlines"><path class="js-line" d="M5,0h30" style="fill: none; stroke: rgb(0, 174, 239); stroke-opacity: 1; stroke-width: 5px;"/></g><g class="legendsymbols"><g class="legendpoints"/></g></g><rect class="legendtoggle" x="0" y="-9.5" width="122.703125" height="19" style="fill: rgb(0, 0, 0); fill-opacity: 0;"/></g><g class="traces" transform="translate(0,52.5)" style="opacity: 1;"><text class="legendtext" text-anchor="start" x="40" y="4.680000000000001" style="font-family: 'Open Sans', verdana, arial, sans-serif; font-size: 12px; fill: rgb(42, 63, 95); fill-opacity: 1; white-space: pre;">Lajčák Miroslav</text><g class="layers" style="opacity: 1;"><g class="legendfill"/><g class="legendlines"><path class="js-line" d="M5,0h30" style="fill: none; stroke: rgb(255, 192, 203); stroke-opacity: 1; stroke-width: 5px;"/></g><g class="legendsymbols"><g class="legendpoints"/></g></g><rect class="legendtoggle" x="0" y="-9.5" width="122.703125" height="19" style="fill: rgb(0, 0, 0); fill-opacity: 0;"/></g><g class="traces" transform="translate(0,71.5)" style="opacity: 1;"><text class="legendtext" text-anchor="start" x="40" y="4.680000000000001" style="font-family: 'Open Sans', verdana, arial, sans-serif; font-size: 12px; fill: rgb(42, 63, 95); fill-opacity: 1; white-space: pre;">Mistrík Robert</text><g class="layers" style="opacity: 1;"><g class="legendfill"/><g class="legendlines"><path class="js-line" d="M5,0h30" style="fill: none; stroke: rgb(202, 166, 105); stroke-opacity: 1; stroke-width: 5px;"/></g><g class="legendsymbols"><g class="legendpoints"/></g></g><rect class="legendtoggle" x="0" y="-9.5" width="122.703125" height="19" style="fill: rgb(0, 0, 0); fill-opacity: 0;"/></g><g class="traces" transform="translate(0,90.5)" style="opacity: 1;"><text class="legendtext" text-anchor="start" x="40" y="4.680000000000001" style="font-family: 'Open Sans', verdana, arial, sans-serif; font-size: 12px; fill: rgb(42, 63, 95); fill-opacity: 1; white-space: pre;">Fico Robert</text><g class="layers" style="opacity: 1;"><g class="legendfill"/><g class="legendlines"><path class="js-line" d="M5,0h30" style="fill: none; stroke: rgb(238, 58, 67); stroke-opacity: 1; stroke-width: 5px;"/></g><g class="legendsymbols"><g class="legendpoints"/></g></g><rect class="legendtoggle" x="0" y="-9.5" width="122.703125" height="19" style="fill: rgb(0, 0, 0); fill-opacity: 0;"/></g><g class="traces" transform="translate(0,109.5)" style="opacity: 1;"><text class="legendtext" text-anchor="start" x="40" y="4.680000000000001" style="font-family: 'Open Sans', verdana, arial, sans-serif; font-size: 12px; fill: rgb(42, 63, 95); fill-opacity: 1; white-space: pre;">Kubiš Ján</text><g class="layers" style="opacity: 1;"><g class="legendfill"/><g class="legendlines"><path class="js-line" d="M5,0h30" style="fill: none; stroke: rgb(255, 1, 170); stroke-opacity: 1; stroke-width: 5px;"/></g><g class="legendsymbols"><g class="legendpoints"/></g></g><rect class="legendtoggle" x="0" y="-9.5" width="122.703125" height="19" style="fill: rgb(0, 0, 0); fill-opacity: 0;"/></g></g></g><rect class="scrollbar" rx="20" ry="3" width="0" height="0" style="fill: rgb(128, 139, 164); fill-opacity: 1;" x="0" y="0"/></g><g class="g-gtitle"/><g class="g-xtitle"/><g class="g-ytitle"/></g></svg>