<svg class="main-svg" xmlns="http://www.w3.org/2000/svg" xmlns:xlink="http://www.w3.org/1999/xlink" width="300" height="135" style="" viewBox="0 0 300 135"><rect x="0" y="0" width="300" height="135" style="fill: rgb(255, 255, 255); fill-opacity: 1;"/><defs id="defs-cc3efb"><g class="clips"><clipPath id="clipcc3efbxyplot" class="plotclip"><rect width="280" height="75"/></clipPath><clipPath class="axesclip" id="clipcc3efbx"><rect x="10" y="0" width="280" height="135"/></clipPath><clipPath class="axesclip" id="clipcc3efby"><rect x="0" y="50" width="300" height="75"/></clipPath><clipPath class="axesclip" id="clipcc3efbxy"><rect x="10" y="50" width="280" height="75"/></clipPath></g><g class="gradients"/><g class="patterns"/></defs><g class="bglayer"/><g class="layer-below"><g class="imagelayer"/><g class="shapelayer"/></g><g class="cartesianlayer"><g class="subplot xy"><g class="layer-subplot"><g class="shapelayer"/><g class="imagelayer"/></g><g class="minor-gridlayer"><g class="x"/><g class="y"/></g><g class="gridlayer"><g class="x"><path class="xgrid crisp" transform="translate(21.48,0)" d="M0,50v75" style="stroke: rgb(235, 240, 248); stroke-opacity: 1; stroke-width: 1px;"/><path class="xgrid crisp" transform="translate(92.62,0)" d="M0,50v75" style="stroke: rgb(235, 240, 248); stroke-opacity: 1; stroke-width: 1px;"/><path class="xgrid crisp" transform="translate(162.62,0)" d="M0,50v75" style="stroke: rgb(235, 240, 248); stroke-opacity: 1; stroke-width: 1px;"/><path class="xgrid crisp" transform="translate(232.62,0)" d="M0,50v75" style="stroke: rgb(235, 240, 248); stroke-opacity: 1; stroke-width: 1px;"/></g><g class="y"><path class="ygrid crisp" transform="translate(0,102.77000000000001)" d="M10,0h280" style="stroke: rgb(235, 240, 248); stroke-opacity: 1; stroke-width: 1px;"/><path class="ygrid crisp" transform="translate(0,80.53999999999999)" d="M10,0h280" style="stroke: rgb(235, 240, 248); stroke-opacity: 1; stroke-width: 1px;"/><path class="ygrid crisp" transform="translate(0,58.31)" d="M10,0h280" style="stroke: rgb(235, 240, 248); stroke-opacity: 1; stroke-width: 1px;"/></g></g><g class="zerolinelayer"><path class="yzl zl crisp" transform="translate(0,125)" d="M10,0h280" style="stroke: rgb(235, 240, 248); stroke-opacity: 1; stroke-width: 2px;"/></g><path class="xlines-below"/><path class="ylines-below"/><g class="overlines-below"/><g class="xaxislayer-below"/><g class="yaxislayer-below"/><g class="overaxes-below"/><g class="plot" transform="translate(10,50)" clip-path="url(#clipcc3efbxyplot)"><g class="scatterlayer mlayer"><g class="trace scatter tracea6c9f3" style="stroke-miterlimit: 2; opacity: 1;"><g class="fills"/><g class="errorbars"/><g class="lines"><path class="js-line" d="M269.67,21.65L280,21.65" style="vector-effect: none; fill: none; stroke: rgb(187, 187, 187); stroke-opacity: 1; stroke-width: 5px; opacity: 1;"/></g><g class="points"/><g class="text"/></g><g class="trace scatter tracea4c1fb" style="stroke-miterlimit: 2; opacity: 1;"><g class="fills"/><g class="errorbars"/><g class="lines"><path class="js-line" d="M0,51.77L3.44,48.88L4.59,48.88L9.18,49.1L10.33,48.32L26.39,47.43L27.54,46.77L49.34,45.99L50.49,41.32L64.26,41.32L66.56,44.54L70,43.88L71.15,43.88L79.18,43.65L80.33,46.1L82.62,47.32L83.77,46.88L84.92,46.43L86.07,47.43L115.9,46.77L117.05,44.54L119.34,45.43L120.49,45.43L121.64,45.21L122.79,41.54L125.08,39.32L126.23,39.32L127.38,38.76L128.52,35.1L130.82,32.98L131.97,32.98L135.41,32.32L136.56,31.32L140,28.87L141.15,28.87L150.33,29.2L151.48,30.32L160.66,30.32L161.8,28.76L162.95,28.76L164.1,26.09L168.69,26.09L169.84,23.09L176.72,23.09L177.87,21.31L184.75,18.42L185.9,18.42L188.2,14.64L189.34,14.64L190.49,12.75L191.64,8.2L201.97,8.2L203.11,9.86L205.41,10.64L206.56,10.64L208.85,12.86L210,13.53L215.74,12.31L216.89,12.31L223.77,12.42L224.92,8.75L227.21,5.08L228.36,4.97L231.8,5.86L232.95,3.75L236.39,4.75L237.54,5.64L239.84,6.75L240.98,10.53L242.13,11.86L243.28,10.53L245.57,10.64L246.72,8.86L249.02,8.97L250.16,9.09L252.46,8.64L253.61,7.75L257.05,4.64L258.2,4.64L261.64,6.64L262.79,5.75L265.08,6.42L266.23,8.64L268.52,14.87L269.67,43.65L280,44.77" style="vector-effect: none; fill: none; stroke: rgb(138, 44, 81); stroke-opacity: 1; stroke-width: 5px; opacity: 1;"/></g><g class="points"/><g class="text"/></g><g class="trace scatter traced1ba2b" style="stroke-miterlimit: 2; opacity: 1;"><g class="fills"/><g class="errorbars"/><g class="lines"><path class="js-line" d="M0,26.54L4.59,28.09L5.74,28.09L9.18,27.87L10.33,27.2L66.56,28.2L67.7,31.32L79.18,30.32L80.33,27.76L82.62,23.98L83.77,24.98L84.92,25.98L86.07,22.65L96.39,22.65L97.54,24.31L98.69,24.31L99.84,22.65L100.98,24.31L102.13,22.31L104.43,21.87L105.57,23.98L107.87,21.87L109.02,21.87L110.16,21.87L111.31,23.98L112.46,23.98L113.61,21.87L115.9,23.98L117.05,21.98L119.34,24.54L120.49,24.54L127.38,25.76L128.52,27.65L131.97,28.43L133.11,28.43L148.03,29.2L149.18,29.87L176.72,30.87L177.87,32.65L185.9,34.98L187.05,32.87L190.49,33.98L191.64,35.43L201.97,35.43L203.11,33.87L205.41,32.98L206.56,32.98L207.7,32.54L208.85,29.98L211.15,29.43L212.3,29.76L223.77,29.2L224.92,32.09L227.21,35.43L228.36,35.54L230.66,33.76L231.8,32.98L234.1,35.1L235.25,34.54L239.84,32.09L240.98,28.32L242.13,26.98L243.28,28.32L245.57,28.2L246.72,29.98L249.02,29.87L250.16,29.76L252.46,30.2L253.61,31.09L257.05,34.21L258.2,34.21L261.64,32.21L262.79,33.09L265.08,32.43L266.23,30.2L268.52,23.98L269.67,48.66L280,47.43" style="vector-effect: none; fill: none; stroke: rgb(0, 174, 239); stroke-opacity: 1; stroke-width: 5px; opacity: 1;"/></g><g class="points"/><g class="text"/></g><g class="trace scatter traced88494" style="stroke-miterlimit: 2; opacity: 1;"><g class="fills"/><g class="errorbars"/><g class="lines"><path class="js-line" d="M0,67.22L12.62,67.33L13.77,67.33L49.34,68.55L50.49,69.44L64.26,69.44L66.56,68.11L67.7,71L70,71L84.92,71.89L86.07,72.33L135.41,73.11L136.56,73.55L168.69,73.55" style="vector-effect: none; fill: none; stroke: rgb(255, 192, 203); stroke-opacity: 1; stroke-width: 5px; opacity: 1;"/></g><g class="points"/><g class="text"/></g><g class="trace scatter traceea81a6" style="stroke-miterlimit: 2; opacity: 1;"><g class="fills"/><g class="errorbars"/><g class="lines"><path class="js-line" d="M0,63.77L8.03,64.88L9.18,64.22L12.62,63.55L13.77,63.55L49.34,63.77L50.49,65.11L66.56,64.22L67.7,56.99L80.33,57.66L81.48,58.33L102.13,58.66L103.28,59.1L115.9,58.33L117.05,61.55L119.34,59.33L120.49,59.33L121.64,59.44L122.79,61.11L125.08,62.44L126.23,62.44L127.38,62.11L128.52,63.22L135.41,63.33L136.56,63.22L144.59,63.88L145.74,63.88L148.03,63.44L149.18,62.44L150.33,62.44L151.48,60.88L160.66,60.88L161.8,62.33L167.54,64.33L168.69,64.33L170.98,65.22L172.13,65.22L185.9,65.55L187.05,69L207.7,70.11L208.85,71.11L223.77,72.22L224.92,73L230.66,73.55" style="vector-effect: none; fill: none; stroke: rgb(255, 1, 170); stroke-opacity: 1; stroke-width: 5px; opacity: 1;"/></g><g class="points"/><g class="text"/></g></g></g><g class="overplot"/><path class="xlines-above crisp" d="M0,0" style="fill: none;"/><path class="ylines-above crisp" d="M0,0" style="fill: none;"/><g class="overlines-above"/><g class="xaxislayer-above"/><g class="yaxislayer-above"/><g class="overaxes-above"/></g></g><g class="polarlayer"/><g class="smithlayer"/><g class="ternarylayer"/><g class="geolayer"/><g class="funnelarealayer"/><g class="pielayer"/><g class="iciclelayer"/><g class="treemaplayer"/><g class="sunburstlayer"/><g class="glimages"/><defs id="topdefs-cc3efb"><g class="clips"/></defs><g class="layer-above"><g class="imagelayer"/><g class="shapelayer"/></g><g class="infolayer"><g class="g-gtitle"><text class="gtitle" x="15" y="25" text-anchor="start" dy="0em" style="font-family: Ubuntu, verdana, arial, sans-serif; font-size: 16px; fill: rgb(233, 84, 32); opacity: 1; font-weight: normal; white-space: pre;">Prezident/ka 2024</text></g><g class="g-xtitle"/><g class="g-ytitle"/></g></svg>