<svg class="main-svg" xmlns="http://www.w3.org/2000/svg" xmlns:xlink="http://www.w3.org/1999/xlink" width="300" height="135" style="" viewBox="0 0 300 135"><rect x="0" y="0" width="300" height="135" style="fill: rgb(255, 255, 255); fill-opacity: 1;"/><defs id="defs-6ef38b"><g class="clips"><clipPath id="clip6ef38bxyplot" class="plotclip"><rect width="280" height="75"/></clipPath><clipPath class="axesclip" id="clip6ef38bx"><rect x="10" y="0" width="280" height="135"/></clipPath><clipPath class="axesclip" id="clip6ef38by"><rect x="0" y="50" width="300" height="75"/></clipPath><clipPath class="axesclip" id="clip6ef38bxy"><rect x="10" y="50" width="280" height="75"/></clipPath></g><g class="gradients"/><g class="patterns"/></defs><g class="bglayer"/><g class="layer-below"><g class="imagelayer"/><g class="shapelayer"/></g><g class="cartesianlayer"><g class="subplot xy"><g class="layer-subplot"><g class="shapelayer"/><g class="imagelayer"/></g><g class="minor-gridlayer"><g class="x"/><g class="y"/></g><g class="gridlayer"><g class="x"><path class="xgrid crisp" transform="translate(28.42,0)" d="M0,50v75" style="stroke: rgb(235, 240, 248); stroke-opacity: 1; stroke-width: 1px;"/><path class="xgrid crisp" transform="translate(85.53,0)" d="M0,50v75" style="stroke: rgb(235, 240, 248); stroke-opacity: 1; stroke-width: 1px;"/><path class="xgrid crisp" transform="translate(142.63,0)" d="M0,50v75" style="stroke: rgb(235, 240, 248); stroke-opacity: 1; stroke-width: 1px;"/><path class="xgrid crisp" transform="translate(197.89,0)" d="M0,50v75" style="stroke: rgb(235, 240, 248); stroke-opacity: 1; stroke-width: 1px;"/><path class="xgrid crisp" transform="translate(255,0)" d="M0,50v75" style="stroke: rgb(235, 240, 248); stroke-opacity: 1; stroke-width: 1px;"/></g><g class="y"><path class="ygrid crisp" transform="translate(0,95.19)" d="M10,0h280" style="stroke: rgb(235, 240, 248); stroke-opacity: 1; stroke-width: 1px;"/><path class="ygrid crisp" transform="translate(0,65.38)" d="M10,0h280" style="stroke: rgb(235, 240, 248); stroke-opacity: 1; stroke-width: 1px;"/></g></g><g class="zerolinelayer"><path class="yzl zl crisp" transform="translate(0,125)" d="M10,0h280" style="stroke: rgb(235, 240, 248); stroke-opacity: 1; stroke-width: 2px;"/></g><path class="xlines-below"/><path class="ylines-below"/><g class="overlines-below"/><g class="xaxislayer-below"/><g class="yaxislayer-below"/><g class="overaxes-below"/><g class="plot" transform="translate(10,50)" clip-path="url(#clip6ef38bxyplot)"><g class="scatterlayer mlayer"><g class="trace scatter trace10c65c" style="stroke-miterlimit: 2; opacity: 1;"><g class="fills"/><g class="errorbars"/><g class="lines"><path class="js-line" d="M0,43.85L5.53,39.97L7.37,39.97L14.74,40.27L16.58,39.23L42.37,38.03L44.21,37.14L79.21,36.1L81.05,29.84L103.16,29.84L106.84,34.16L108.68,33.26L112.37,33.26L127.11,32.97L128.95,36.24L132.63,37.88L134.47,37.29L136.32,36.69L138.16,38.03L186.05,37.14L187.89,34.16L191.58,35.35L193.42,35.35L195.26,35.05L197.11,30.13L198.95,27.15L200.79,27.15L204.47,26.41L206.32,21.49L210,18.66L211.84,18.66L217.37,17.76L219.21,16.42L224.74,13.14L226.58,13.14L241.32,13.59L243.16,15.08L257.89,15.08L259.74,12.99L261.58,12.99L263.42,9.41L270.79,9.41L272.63,5.39L280,5.39" style="vector-effect: none; fill: none; stroke: rgb(138, 44, 81); stroke-opacity: 1; stroke-width: 5px; opacity: 1;"/></g><g class="points"/><g class="text"/></g><g class="trace scatter tracea9fcc6" style="stroke-miterlimit: 2; opacity: 1;"><g class="fills"/><g class="errorbars"/><g class="lines"><path class="js-line" d="M0,10.01L5.53,12.1L7.37,12.1L12.89,13.14L14.74,11.8L18.42,10.9L20.26,10.9L42.37,11.5L44.21,12.25L106.84,12.25L108.68,16.42L125.26,15.67L127.11,15.08L130.79,6.58L132.63,6.58L136.32,9.27L138.16,4.79L154.74,4.79L156.58,7.03L158.42,7.03L160.26,4.79L162.11,7.03L163.95,4.35L167.63,3.75L169.47,6.58L171.32,3.75L173.16,3.75L176.84,3.75L178.68,6.58L180.53,6.58L182.37,3.75L184.21,6.58L186.05,6.58L187.89,3.9L189.74,7.33L202.63,8.22L204.47,8.97L208.16,12.4L210,12.54L237.63,13.59L239.47,14.48L261.58,14.63L263.42,16.12L280,15.82" style="vector-effect: none; fill: none; stroke: rgb(0, 174, 239); stroke-opacity: 1; stroke-width: 5px; opacity: 1;"/></g><g class="points"/><g class="text"/></g><g class="trace scatter tracec5989f" style="stroke-miterlimit: 2; opacity: 1;"><g class="fills"/><g class="errorbars"/><g class="lines"><path class="js-line" d="M0,59.95L9.21,60.39L11.05,60.39L12.89,61.44L14.74,60.54L18.42,59.65L20.26,59.65L79.21,59.95L81.05,61.73L106.84,60.54L108.68,50.85L128.95,51.75L130.79,52.64L162.11,52.19L163.95,53.09L167.63,53.68L169.47,52.64L173.16,53.68L175,53.68L186.05,52.64L187.89,56.96L189.74,53.98L191.58,53.98L195.26,54.13L197.11,56.37L198.95,58.16L200.79,58.16L204.47,57.71L206.32,59.2L215.53,59.5L217.37,59.35L222.89,60.09L224.74,60.09L237.63,59.5L239.47,58.16L241.32,58.16L243.16,56.07L257.89,56.07L259.74,58.01L261.58,58.6L263.42,60.69L280,61.88" style="vector-effect: none; fill: none; stroke: rgb(255, 1, 170); stroke-opacity: 1; stroke-width: 5px; opacity: 1;"/></g><g class="points"/><g class="text"/></g><g class="trace scatter trace27d7af" style="stroke-miterlimit: 2; opacity: 1;"><g class="fills"/><g class="errorbars"/><g class="lines"><path class="js-line" d="M0,59.35L11.05,59.95L12.89,59.35L42.37,61.14L44.21,61.14L79.21,60.84L81.05,63.08L106.84,62.18L108.68,64.12L128.95,64.57L130.79,66.21L134.47,65.31L136.32,64.42L138.16,66.95L140,66.95L167.63,66.8L169.47,65.61L173.16,66.8L175,66.8L187.89,65.76L189.74,64.71L195.26,64.86L197.11,66.35L200.79,67.1L202.63,67.1L228.42,70.38L230.26,70.38L280,70.23" style="vector-effect: none; fill: none; stroke: rgb(238, 58, 67); stroke-opacity: 1; stroke-width: 5px; opacity: 1;"/></g><g class="points"/><g class="text"/></g><g class="trace scatter trace6bc9b3" style="stroke-miterlimit: 2; opacity: 1;"><g class="fills"/><g class="errorbars"/><g class="lines"><path class="js-line" d="M0,63.22L11.05,63.52L12.89,61.44L16.58,66.06L18.42,66.06L125.26,66.8L127.11,66.95L186.05,67.99L187.89,68.44L208.16,69.48L210,69.63L221.05,70.68L222.89,71.12L270.79,71.12L272.63,72.62L280,72.62" style="vector-effect: none; fill: none; stroke: rgb(202, 166, 105); stroke-opacity: 1; stroke-width: 5px; opacity: 1;"/></g><g class="points"/><g class="text"/></g></g></g><g class="overplot"/><path class="xlines-above crisp" d="M0,0" style="fill: none;"/><path class="ylines-above crisp" d="M0,0" style="fill: none;"/><g class="overlines-above"/><g class="xaxislayer-above"/><g class="yaxislayer-above"/><g class="overaxes-above"/></g></g><g class="polarlayer"/><g class="smithlayer"/><g class="ternarylayer"/><g class="geolayer"/><g class="funnelarealayer"/><g class="pielayer"/><g class="iciclelayer"/><g class="treemaplayer"/><g class="sunburstlayer"/><g class="glimages"/><defs id="topdefs-6ef38b"><g class="clips"/></defs><g class="layer-above"><g class="imagelayer"/><g class="shapelayer"/></g><g class="infolayer"><g class="g-gtitle"><text class="gtitle" x="15" y="25" text-anchor="start" dy="0em" style="font-family: Ubuntu, verdana, arial, sans-serif; font-size: 16px; fill: rgb(233, 84, 32); opacity: 1; font-weight: normal; white-space: pre;">Prezident/ka 2024</text></g><g class="g-xtitle"/><g class="g-ytitle"/></g></svg>