<svg class="main-svg" xmlns="http://www.w3.org/2000/svg" xmlns:xlink="http://www.w3.org/1999/xlink" width="400" height="400" style="" viewBox="0 0 400 400"><rect x="0" y="0" width="400" height="400" style="fill: rgb(255, 255, 255); fill-opacity: 1;"/><defs id="defs-7b9f95"><g class="clips"><clipPath id="clip7b9f95xyplot" class="plotclip"><rect width="206" height="330"/></clipPath><clipPath class="axesclip" id="clip7b9f95x"><rect x="50" y="0" width="206" height="400"/></clipPath><clipPath class="axesclip" id="clip7b9f95y"><rect x="0" y="20" width="400" height="330"/></clipPath><clipPath class="axesclip" id="clip7b9f95xy"><rect x="50" y="20" width="206" height="330"/></clipPath></g><g class="gradients"/><g class="patterns"/></defs><g class="bglayer"/><g class="layer-below"><g class="imagelayer"/><g class="shapelayer"/></g><g class="cartesianlayer"><g class="subplot xy"><g class="layer-subplot"><g class="shapelayer"/><g class="imagelayer"/></g><g class="minor-gridlayer"><g class="x"/><g class="y"/></g><g class="gridlayer"><g class="x"><path class="xgrid crisp" transform="translate(57.1,0)" d="M0,20v330" style="stroke: rgb(235, 240, 248); stroke-opacity: 1; stroke-width: 1px;"/><path class="xgrid crisp" transform="translate(101.14,0)" d="M0,20v330" style="stroke: rgb(235, 240, 248); stroke-opacity: 1; stroke-width: 1px;"/><path class="xgrid crisp" transform="translate(144.48000000000002,0)" d="M0,20v330" style="stroke: rgb(235, 240, 248); stroke-opacity: 1; stroke-width: 1px;"/><path class="xgrid crisp" transform="translate(187.81,0)" d="M0,20v330" style="stroke: rgb(235, 240, 248); stroke-opacity: 1; stroke-width: 1px;"/><path class="xgrid crisp" transform="translate(230.43,0)" d="M0,20v330" style="stroke: rgb(235, 240, 248); stroke-opacity: 1; stroke-width: 1px;"/></g><g class="y"><path class="ygrid crisp" transform="translate(0,304.03)" d="M50,0h206" style="stroke: rgb(235, 240, 248); stroke-opacity: 1; stroke-width: 1px;"/><path class="ygrid crisp" transform="translate(0,258.06)" d="M50,0h206" style="stroke: rgb(235, 240, 248); stroke-opacity: 1; stroke-width: 1px;"/><path class="ygrid crisp" transform="translate(0,212.1)" d="M50,0h206" style="stroke: rgb(235, 240, 248); stroke-opacity: 1; stroke-width: 1px;"/><path class="ygrid crisp" transform="translate(0,166.13)" d="M50,0h206" style="stroke: rgb(235, 240, 248); stroke-opacity: 1; stroke-width: 1px;"/><path class="ygrid crisp" transform="translate(0,120.16)" d="M50,0h206" style="stroke: rgb(235, 240, 248); stroke-opacity: 1; stroke-width: 1px;"/><path class="ygrid crisp" transform="translate(0,74.19)" d="M50,0h206" style="stroke: rgb(235, 240, 248); stroke-opacity: 1; stroke-width: 1px;"/><path class="ygrid crisp" transform="translate(0,28.23)" d="M50,0h206" style="stroke: rgb(235, 240, 248); stroke-opacity: 1; stroke-width: 1px;"/></g></g><g class="zerolinelayer"><path class="yzl zl crisp" transform="translate(0,350)" d="M50,0h206" style="stroke: rgb(235, 240, 248); stroke-opacity: 1; stroke-width: 2px;"/></g><path class="xlines-below"/><path class="ylines-below"/><g class="overlines-below"/><g class="xaxislayer-below"/><g class="yaxislayer-below"/><g class="overaxes-below"/><g class="plot" transform="translate(50,20)" clip-path="url(#clip7b9f95xyplot)"><g class="scatterlayer mlayer"><g class="trace scatter trace30ff12" style="stroke-miterlimit: 2; opacity: 1;"><g class="fills"/><g class="errorbars"/><g class="lines"><path class="js-line" d="M0,233.93L2.13,221.98L2.84,221.98L4.26,221.98L4.97,225.19L7.1,219.68L7.81,219.68L9.94,219.68L10.66,218.3L12.79,218.3L13.5,216.92L15.63,216L16.34,216L17.76,213.24L18.47,213.24L26.28,213.24L26.99,210.02L30.54,210.02L31.26,190.72L39.78,190.72L41.2,204.05L41.91,201.29L43.33,201.29L49.01,200.37L49.72,210.48L51.14,215.54L51.86,213.7L52.57,211.86L53.28,216L59.67,216L60.38,214.16L61.09,214.16L61.8,216L62.51,214.16L63.22,215.54L63.93,214.16L71.74,213.24L72.46,204.05L73.88,207.73L74.59,207.73L75.3,206.81L76.01,191.64L77.43,182.44L78.14,182.44L78.85,180.15L79.56,164.98L80.98,156.24L81.69,156.24L83.11,156.24L83.82,153.48L86.66,139.23L87.37,139.23L91.63,139.69L92.34,140.61L93.06,140.61L93.77,145.21L99.45,145.21L100.16,138.77L100.87,138.77L101.58,127.74L104.42,127.74L105.13,115.33L109.39,115.33L110.1,107.98L111.52,105.22L112.23,105.22L115.08,96.02L115.79,80.4L117.21,80.4L117.92,72.58L119.34,53.73L120.05,53.73L125.02,53.73L125.73,60.63L127.15,63.85L127.86,63.85L128.57,65.69L129.28,73.04L129.99,75.8L130.7,73.96L131.41,70.74L137.1,69.82L137.81,72.12L138.52,71.2L139.23,56.03L141.36,40.4L142.07,41.78L142.78,47.3L143.49,44.08L144.2,35.35L144.91,35.35L145.62,37.65L147.04,43.16L147.75,47.3L148.46,47.76L149.17,63.39L149.88,68.9L150.59,63.39L151.3,65.69L152.01,63.85L152.72,56.49L153.43,54.65L154.14,56.95L155.57,58.33L156.28,55.57L159.12,39.02L159.83,39.02L160.54,40.86L161.25,46.38L161.96,47.3L162.67,43.62L163.38,43.16L164.09,46.38L166.22,81.31L166.93,80.4L167.64,80.4L168.35,80.85L169.06,84.99L169.77,86.37L170.48,85.45L171.19,80.4L173.32,88.67L174.03,82.23L176.17,54.19L176.88,53.73L177.59,43.62L178.3,44.08L179.01,43.62L179.72,41.32L180.43,44.54L181.85,51.9L182.56,52.35L183.27,51.9L183.98,49.6L187.53,44.08L188.24,39.48L189.66,34.89L190.37,22.48L192.5,16.5" style="vector-effect: none; fill: none; stroke: rgb(138, 44, 81); stroke-opacity: 1; stroke-width: 5px; opacity: 1;"/></g><g class="points"/><g class="text"/></g><g class="trace scatter trace56e99b" style="stroke-miterlimit: 2; opacity: 1;"><g class="fills"/><g class="errorbars"/><g class="lines"><path class="js-line" d="M0,129.58L2.13,136.02L2.84,136.02L4.26,136.02L4.97,139.23L7.1,132.34L7.81,132.34L13.5,133.26L14.21,134.18L16.34,134.18L17.05,136.48L41.2,136.48L41.91,149.35L47.59,149.35L48.3,147.05L49.01,145.21L49.72,134.64L51.14,119.01L51.86,123.15L52.57,127.28L53.28,113.49L59.67,113.49L60.38,120.39L61.09,120.39L61.8,113.49L62.51,120.39L63.22,112.11L64.64,110.27L65.35,119.01L66.77,110.27L67.48,110.27L68.19,110.27L68.9,119.01L69.61,119.01L70.32,110.27L71.74,119.01L72.46,110.73L73.88,121.31L74.59,121.31L75.3,121.31L76.01,124.06L78.14,124.06L78.85,126.36L80.98,137.4L81.69,137.4L84.53,137.4L85.24,138.77L88.08,139.23L88.79,139.23L90.92,139.23L91.63,140.61L93.77,145.21L95.19,145.21L100.16,145.67L100.87,143.83L102.29,148.43L103,148.43L109.39,147.51L110.1,154.86L111.52,156.7L112.23,156.7L115.08,164.52L115.79,155.78L117.21,155.78L117.92,160.38L119.34,166.35L120.05,166.35L125.02,166.35L125.73,159.92L127.15,156.24L127.86,156.24L128.57,154.4L129.28,143.83L129.99,140.61L130.7,141.53L131.41,142.91L137.1,142.91L137.81,140.61L138.52,140.61L139.23,152.56L141.36,166.81L142.07,165.44L143.49,156.24L144.2,164.98L144.91,164.98L145.62,162.68L147.04,157.16L147.75,153.02L148.46,152.56L149.17,136.94L149.88,131.42L150.59,136.94L151.3,134.64L152.01,136.48L152.72,143.83L153.43,145.67L154.14,143.37L155.57,141.99L156.28,144.75L159.12,161.3L159.83,161.3L160.54,159.46L161.25,153.94L161.96,153.02L162.67,156.7L163.38,157.16L164.09,153.94L166.22,119.01L166.93,119.93L167.64,119.93L168.35,119.47L169.06,115.33L169.77,113.95L170.48,114.87L171.19,119.93L173.32,111.65L174.03,118.09L176.17,146.13L176.88,146.59L177.59,156.7L178.3,156.24L179.01,156.7L179.72,159L180.43,155.78L181.85,148.43L182.56,147.97L183.27,148.43L183.98,150.73L187.53,156.24L188.24,160.84L189.66,165.44L190.37,177.85L192.5,183.82" style="vector-effect: none; fill: none; stroke: rgb(0, 174, 239); stroke-opacity: 1; stroke-width: 5px; opacity: 1;"/></g><g class="points"/><g class="text"/></g><g class="trace scatter traceb49683" style="stroke-miterlimit: 2; opacity: 1;"><g class="fills"/><g class="errorbars"/><g class="lines"><path class="js-line" d="M0,297.82L3.55,299.2L4.26,299.2L7.1,298.28L7.81,298.28L16.34,298.74L17.05,299.66L26.28,299.66L26.99,303.34L30.54,303.34L31.26,307.02L39.78,307.02L41.2,301.5L41.91,313.45L43.33,313.45L49.72,313.91L50.43,317.13L52.57,317.13L53.28,318.97L71.74,318.05L72.46,319.43L74.59,318.51L75.3,318.51L78.85,319.43L79.56,320.35L83.82,322.19L84.53,324.02L104.42,324.02" style="vector-effect: none; fill: none; stroke: rgb(255, 192, 203); stroke-opacity: 1; stroke-width: 5px; opacity: 1;"/></g><g class="points"/><g class="text"/></g><g class="trace scatter trace549407" style="stroke-miterlimit: 2; opacity: 1;"><g class="fills"/><g class="errorbars"/><g class="lines"><path class="js-line" d="M0,293.69L3.55,294.6L4.26,294.6L4.97,288.17L5.68,296.9L7.1,302.42L7.81,302.42L26.28,301.5L26.99,301.04L30.54,301.04L31.26,303.34L41.2,302.42L41.91,304.26L51.14,304.72L51.86,306.56L52.57,308.4L53.28,305.18L59.67,305.18L60.38,306.56L61.09,306.56L61.8,305.18L63.93,307.94L64.64,307.94L66.77,307.94L67.48,307.94L71.74,308.4L72.46,309.77L76.01,309.77L76.72,310.69L79.56,311.61L80.27,312.99L84.53,315.75L85.24,316.67L86.66,318.05L87.37,318.05L104.42,318.05L105.13,322.65L115.08,323.1L115.79,324.48L117.92,325.4" style="vector-effect: none; fill: none; stroke: rgb(202, 166, 105); stroke-opacity: 1; stroke-width: 5px; opacity: 1;"/></g><g class="points"/><g class="text"/></g><g class="trace scatter tracee2e3e7" style="stroke-miterlimit: 2; opacity: 1;"><g class="fills"/><g class="errorbars"/><g class="lines"><path class="js-line" d="M0,281.73L2.84,283.57L3.55,283.57L4.26,283.57L4.97,281.73L5.68,282.19L6.39,284.49L12.79,284.95L13.5,286.33L15.63,287.25L16.34,287.25L30.54,286.33L31.26,293.23L39.78,293.23L41.2,290.47L41.91,296.44L43.33,296.44L48.3,296.9L49.01,297.82L49.72,297.82L50.43,302.88L51.14,302.88L51.86,300.12L52.57,297.36L53.28,305.18L59.67,305.18L60.38,301.5L61.09,301.5L61.8,305.18L62.51,301.5L63.22,304.72L64.64,304.72L65.35,301.04L66.77,304.72L67.48,304.72L68.19,304.72L68.9,301.04L69.61,301.04L70.32,304.72L71.74,301.04L72.46,301.5L73.88,298.28L74.59,298.28L75.3,298.74L76.01,303.34L77.43,305.64L78.14,305.64L81.69,309.77L82.4,309.77L83.82,310.69L84.53,312.53L87.37,315.75L88.08,315.75L115.08,315.75L115.79,324.48L117.92,325.4" style="vector-effect: none; fill: none; stroke: rgb(238, 58, 67); stroke-opacity: 1; stroke-width: 5px; opacity: 1;"/></g><g class="points"/><g class="text"/></g><g class="trace scatter trace26e5ed" style="stroke-miterlimit: 2; opacity: 1;"><g class="fills"/><g class="errorbars"/><g class="lines"><path class="js-line" d="M0,283.57L2.13,284.95L2.84,284.95L4.26,284.95L4.97,288.17L7.1,282.65L7.81,282.65L30.54,283.57L31.26,289.09L39.78,289.09L41.2,285.41L41.91,255.53L43.33,255.53L47.59,255.53L48.3,256.91L51.14,261.05L51.86,259.67L52.57,257.83L53.28,261.51L59.67,261.51L60.38,259.67L61.09,259.67L61.8,261.51L62.51,259.67L63.22,262.43L64.64,264.27L65.35,261.05L66.77,264.27L67.48,264.27L68.19,264.27L68.9,261.05L69.61,261.05L70.32,264.27L71.74,261.05L72.46,274.38L73.88,265.19L74.59,265.19L75.3,265.65L76.01,272.54L77.43,278.06L78.14,278.06L78.85,276.68L79.56,281.27L81.69,282.19L82.4,282.19L85.24,282.19L85.95,284.03L90.92,284.03L91.63,282.19L93.77,271.62L95.19,271.62L99.45,271.62L100.16,277.6L100.87,279.44L101.58,285.87L104.42,285.87L105.13,289.55L113.66,290.47L114.37,290.93L115.08,290.93L115.79,305.18L117.21,305.18L117.92,307.02L119.34,309.77L120.05,309.77L128.57,309.77L129.28,313.91L130.7,314.83L131.41,316.67L137.81,317.59L138.52,318.51L140.65,323.1L141.36,323.1L142.78,324.02" style="vector-effect: none; fill: none; stroke: rgb(255, 1, 170); stroke-opacity: 1; stroke-width: 5px; opacity: 1;"/></g><g class="points"/><g class="text"/></g></g></g><g class="overplot"/><path class="xlines-above crisp" d="M0,0" style="fill: none;"/><path class="ylines-above crisp" d="M0,0" style="fill: none;"/><g class="overlines-above"/><g class="xaxislayer-above"><g class="xtick"><text text-anchor="middle" x="0" y="363" transform="translate(57.1,0)" style="font-family: 'Open Sans', verdana, arial, sans-serif; font-size: 12px; fill: rgb(42, 63, 95); fill-opacity: 1; white-space: pre; opacity: 1;">1.7.23</text></g><g class="xtick"><text text-anchor="middle" x="0" y="363" style="font-family: 'Open Sans', verdana, arial, sans-serif; font-size: 12px; fill: rgb(42, 63, 95); fill-opacity: 1; white-space: pre; opacity: 1;" transform="translate(101.14,0)">1.9.23</text></g><g class="xtick"><text text-anchor="middle" x="0" y="363" style="font-family: 'Open Sans', verdana, arial, sans-serif; font-size: 12px; fill: rgb(42, 63, 95); fill-opacity: 1; white-space: pre; opacity: 1;" transform="translate(144.48000000000002,0)">1.11.23</text></g><g class="xtick"><text text-anchor="middle" x="0" y="363" style="font-family: 'Open Sans', verdana, arial, sans-serif; font-size: 12px; fill: rgb(42, 63, 95); fill-opacity: 1; white-space: pre; opacity: 1;" transform="translate(187.81,0)">1.1.24</text></g><g class="xtick"><text text-anchor="middle" x="0" y="363" style="font-family: 'Open Sans', verdana, arial, sans-serif; font-size: 12px; fill: rgb(42, 63, 95); fill-opacity: 1; white-space: pre; opacity: 1;" transform="translate(230.43,0)">1.3.24</text></g></g><g class="yaxislayer-above"><g class="ytick"><text text-anchor="end" x="49" y="4.199999999999999" transform="translate(0,350)" style="font-family: 'Open Sans', verdana, arial, sans-serif; font-size: 12px; fill: rgb(42, 63, 95); fill-opacity: 1; white-space: pre; opacity: 1;">0%</text></g><g class="ytick"><text text-anchor="end" x="49" y="4.199999999999999" style="font-family: 'Open Sans', verdana, arial, sans-serif; font-size: 12px; fill: rgb(42, 63, 95); fill-opacity: 1; white-space: pre; opacity: 1;" transform="translate(0,304.03)">10%</text></g><g class="ytick"><text text-anchor="end" x="49" y="4.199999999999999" style="font-family: 'Open Sans', verdana, arial, sans-serif; font-size: 12px; fill: rgb(42, 63, 95); fill-opacity: 1; white-space: pre; opacity: 1;" transform="translate(0,258.06)">20%</text></g><g class="ytick"><text text-anchor="end" x="49" y="4.199999999999999" style="font-family: 'Open Sans', verdana, arial, sans-serif; font-size: 12px; fill: rgb(42, 63, 95); fill-opacity: 1; white-space: pre; opacity: 1;" transform="translate(0,212.1)">30%</text></g><g class="ytick"><text text-anchor="end" x="49" y="4.199999999999999" style="font-family: 'Open Sans', verdana, arial, sans-serif; font-size: 12px; fill: rgb(42, 63, 95); fill-opacity: 1; white-space: pre; opacity: 1;" transform="translate(0,166.13)">40%</text></g><g class="ytick"><text text-anchor="end" x="49" y="4.199999999999999" style="font-family: 'Open Sans', verdana, arial, sans-serif; font-size: 12px; fill: rgb(42, 63, 95); fill-opacity: 1; white-space: pre; opacity: 1;" transform="translate(0,120.16)">50%</text></g><g class="ytick"><text text-anchor="end" x="49" y="4.199999999999999" style="font-family: 'Open Sans', verdana, arial, sans-serif; font-size: 12px; fill: rgb(42, 63, 95); fill-opacity: 1; white-space: pre; opacity: 1;" transform="translate(0,74.19)">60%</text></g><g class="ytick"><text text-anchor="end" x="49" y="4.199999999999999" style="font-family: 'Open Sans', verdana, arial, sans-serif; font-size: 12px; fill: rgb(42, 63, 95); fill-opacity: 1; white-space: pre; opacity: 1;" transform="translate(0,28.23)">70%</text></g></g><g class="overaxes-above"/></g></g><g class="polarlayer"/><g class="smithlayer"/><g class="ternarylayer"/><g class="geolayer"/><g class="funnelarealayer"/><g class="pielayer"/><g class="iciclelayer"/><g class="treemaplayer"/><g class="sunburstlayer"/><g class="glimages"/><defs id="topdefs-7b9f95"><g class="clips"/><clipPath id="legend7b9f95"><rect width="128" height="124" x="0" y="0"/></clipPath></defs><g class="layer-above"><g class="imagelayer"/><g class="shapelayer"/></g><g class="infolayer"><g class="legend" pointer-events="all" transform="translate(260.12,20)"><rect class="bg" shape-rendering="crispEdges" width="128" height="124" x="0" y="0" style="stroke: rgb(68, 68, 68); stroke-opacity: 1; fill: rgb(255, 255, 255); fill-opacity: 1; stroke-width: 0px;"/><g class="scrollbox" transform="" clip-path="url(#legend7b9f95)"><g class="groups"><g class="traces" transform="translate(0,14.5)" style="opacity: 1;"><text class="legendtext" text-anchor="start" x="40" y="4.680000000000001" style="font-family: 'Open Sans', verdana, arial, sans-serif; font-size: 12px; fill: rgb(42, 63, 95); fill-opacity: 1; white-space: pre;">Pellegrini Peter</text><g class="layers" style="opacity: 1;"><g class="legendfill"/><g class="legendlines"><path class="js-line" d="M5,0h30" style="fill: none; stroke: rgb(138, 44, 81); stroke-opacity: 1; stroke-width: 5px;"/></g><g class="legendsymbols"><g class="legendpoints"/></g></g><rect class="legendtoggle" x="0" y="-9.5" width="122.703125" height="19" style="fill: rgb(0, 0, 0); fill-opacity: 0;"/></g><g class="traces" transform="translate(0,33.5)" style="opacity: 1;"><text class="legendtext" text-anchor="start" x="40" y="4.680000000000001" style="font-family: 'Open Sans', verdana, arial, sans-serif; font-size: 12px; fill: rgb(42, 63, 95); fill-opacity: 1; white-space: pre;">Korčok Ivan</text><g class="layers" style="opacity: 1;"><g class="legendfill"/><g class="legendlines"><path class="js-line" d="M5,0h30" style="fill: none; stroke: rgb(0, 174, 239); stroke-opacity: 1; stroke-width: 5px;"/></g><g class="legendsymbols"><g class="legendpoints"/></g></g><rect class="legendtoggle" x="0" y="-9.5" width="122.703125" height="19" style="fill: rgb(0, 0, 0); fill-opacity: 0;"/></g><g class="traces" transform="translate(0,52.5)" style="opacity: 1;"><text class="legendtext" text-anchor="start" x="40" y="4.680000000000001" style="font-family: 'Open Sans', verdana, arial, sans-serif; font-size: 12px; fill: rgb(42, 63, 95); fill-opacity: 1; white-space: pre;">Lajčák Miroslav</text><g class="layers" style="opacity: 1;"><g class="legendfill"/><g class="legendlines"><path class="js-line" d="M5,0h30" style="fill: none; stroke: rgb(255, 192, 203); stroke-opacity: 1; stroke-width: 5px;"/></g><g class="legendsymbols"><g class="legendpoints"/></g></g><rect class="legendtoggle" x="0" y="-9.5" width="122.703125" height="19" style="fill: rgb(0, 0, 0); fill-opacity: 0;"/></g><g class="traces" transform="translate(0,71.5)" style="opacity: 1;"><text class="legendtext" text-anchor="start" x="40" y="4.680000000000001" style="font-family: 'Open Sans', verdana, arial, sans-serif; font-size: 12px; fill: rgb(42, 63, 95); fill-opacity: 1; white-space: pre;">Mistrík Robert</text><g class="layers" style="opacity: 1;"><g class="legendfill"/><g class="legendlines"><path class="js-line" d="M5,0h30" style="fill: none; stroke: rgb(202, 166, 105); stroke-opacity: 1; stroke-width: 5px;"/></g><g class="legendsymbols"><g class="legendpoints"/></g></g><rect class="legendtoggle" x="0" y="-9.5" width="122.703125" height="19" style="fill: rgb(0, 0, 0); fill-opacity: 0;"/></g><g class="traces" transform="translate(0,90.5)" style="opacity: 1;"><text class="legendtext" text-anchor="start" x="40" y="4.680000000000001" style="font-family: 'Open Sans', verdana, arial, sans-serif; font-size: 12px; fill: rgb(42, 63, 95); fill-opacity: 1; white-space: pre;">Fico Robert</text><g class="layers" style="opacity: 1;"><g class="legendfill"/><g class="legendlines"><path class="js-line" d="M5,0h30" style="fill: none; stroke: rgb(238, 58, 67); stroke-opacity: 1; stroke-width: 5px;"/></g><g class="legendsymbols"><g class="legendpoints"/></g></g><rect class="legendtoggle" x="0" y="-9.5" width="122.703125" height="19" style="fill: rgb(0, 0, 0); fill-opacity: 0;"/></g><g class="traces" transform="translate(0,109.5)" style="opacity: 1;"><text class="legendtext" text-anchor="start" x="40" y="4.680000000000001" style="font-family: 'Open Sans', verdana, arial, sans-serif; font-size: 12px; fill: rgb(42, 63, 95); fill-opacity: 1; white-space: pre;">Kubiš Ján</text><g class="layers" style="opacity: 1;"><g class="legendfill"/><g class="legendlines"><path class="js-line" d="M5,0h30" style="fill: none; stroke: rgb(255, 1, 170); stroke-opacity: 1; stroke-width: 5px;"/></g><g class="legendsymbols"><g class="legendpoints"/></g></g><rect class="legendtoggle" x="0" y="-9.5" width="122.703125" height="19" style="fill: rgb(0, 0, 0); fill-opacity: 0;"/></g></g></g><rect class="scrollbar" rx="20" ry="3" width="0" height="0" x="0" y="0" style="fill: rgb(128, 139, 164); fill-opacity: 1;"/></g><g class="g-gtitle"/><g class="g-xtitle"/><g class="g-ytitle"/></g></svg>