<svg class="main-svg" xmlns="http://www.w3.org/2000/svg" xmlns:xlink="http://www.w3.org/1999/xlink" width="300" height="135" style="" viewBox="0 0 300 135"><rect x="0" y="0" width="300" height="135" style="fill: rgb(255, 255, 255); fill-opacity: 1;"/><defs id="defs-4c37c5"><g class="clips"><clipPath id="clip4c37c5xyplot" class="plotclip"><rect width="280" height="75"/></clipPath><clipPath class="axesclip" id="clip4c37c5x"><rect x="10" y="0" width="280" height="135"/></clipPath><clipPath class="axesclip" id="clip4c37c5y"><rect x="0" y="50" width="300" height="75"/></clipPath><clipPath class="axesclip" id="clip4c37c5xy"><rect x="10" y="50" width="280" height="75"/></clipPath></g><g class="gradients"/><g class="patterns"/></defs><g class="bglayer"/><g class="layer-below"><g class="imagelayer"/><g class="shapelayer"/></g><g class="cartesianlayer"><g class="subplot xy"><g class="layer-subplot"><g class="shapelayer"/><g class="imagelayer"/></g><g class="minor-gridlayer"><g class="x"/><g class="y"/></g><g class="gridlayer"><g class="x"><path class="xgrid crisp" transform="translate(22.560000000000002,0)" d="M0,50v75" style="stroke: rgb(235, 240, 248); stroke-opacity: 1; stroke-width: 1px;"/><path class="xgrid crisp" transform="translate(100.4,0)" d="M0,50v75" style="stroke: rgb(235, 240, 248); stroke-opacity: 1; stroke-width: 1px;"/><path class="xgrid crisp" transform="translate(177,0)" d="M0,50v75" style="stroke: rgb(235, 240, 248); stroke-opacity: 1; stroke-width: 1px;"/><path class="xgrid crisp" transform="translate(253.59,0)" d="M0,50v75" style="stroke: rgb(235, 240, 248); stroke-opacity: 1; stroke-width: 1px;"/></g><g class="y"><path class="ygrid crisp" transform="translate(0,102.77000000000001)" d="M10,0h280" style="stroke: rgb(235, 240, 248); stroke-opacity: 1; stroke-width: 1px;"/><path class="ygrid crisp" transform="translate(0,80.53999999999999)" d="M10,0h280" style="stroke: rgb(235, 240, 248); stroke-opacity: 1; stroke-width: 1px;"/><path class="ygrid crisp" transform="translate(0,58.31)" d="M10,0h280" style="stroke: rgb(235, 240, 248); stroke-opacity: 1; stroke-width: 1px;"/></g></g><g class="zerolinelayer"><path class="yzl zl crisp" transform="translate(0,125)" d="M10,0h280" style="stroke: rgb(235, 240, 248); stroke-opacity: 1; stroke-width: 2px;"/></g><path class="xlines-below"/><path class="ylines-below"/><g class="overlines-below"/><g class="xaxislayer-below"/><g class="yaxislayer-below"/><g class="overaxes-below"/><g class="plot" transform="translate(10,50)" clip-path="url(#clip4c37c5xyplot)"><g class="scatterlayer mlayer"><g class="trace scatter trace7edb57" style="stroke-miterlimit: 2; opacity: 1;"><g class="fills"/><g class="errorbars"/><g class="lines"><path class="js-line" d="M0,51.77L3.77,48.88L5.02,48.88L10.04,49.1L11.3,48.32L28.88,47.43L30.13,46.77L53.99,45.99L55.25,41.32L70.31,41.32L72.83,44.54L76.59,43.88L77.85,43.88L86.64,43.65L87.89,46.1L90.4,47.32L91.66,46.88L92.91,46.43L94.17,47.43L126.82,46.77L128.07,44.54L130.58,45.43L131.84,45.43L133.09,45.21L134.35,41.54L136.86,39.32L138.12,39.32L139.37,38.76L140.63,35.1L143.14,32.98L144.39,32.98L148.16,32.32L149.42,31.32L153.18,28.87L154.44,28.87L164.48,29.2L165.74,30.32L175.78,30.32L177.04,28.76L178.3,28.76L179.55,26.09L184.57,26.09L185.83,23.09L193.36,23.09L194.62,21.31L202.15,18.42L203.41,18.42L205.92,14.64L207.17,14.64L208.43,12.75L209.69,8.2L220.99,8.2L222.24,9.86L224.75,10.64L226.01,10.64L228.52,12.86L229.78,13.53L236.05,12.31L237.31,12.31L244.84,12.42L246.1,8.75L248.61,5.08L249.87,4.97L253.63,5.86L254.89,3.75L258.65,4.75L259.91,5.64L262.42,6.75L263.68,10.53L264.93,11.86L266.19,10.53L268.7,10.64L269.96,8.86L272.47,8.97L273.72,9.09L276.23,8.64L277.49,7.75L280,4.64" style="vector-effect: none; fill: none; stroke: rgb(138, 44, 81); stroke-opacity: 1; stroke-width: 5px; opacity: 1;"/></g><g class="points"/><g class="text"/></g><g class="trace scatter trace5f9b53" style="stroke-miterlimit: 2; opacity: 1;"><g class="fills"/><g class="errorbars"/><g class="lines"><path class="js-line" d="M0,26.54L5.02,28.09L6.28,28.09L10.04,27.87L11.3,27.2L72.83,28.2L74.08,31.32L86.64,30.32L87.89,27.76L90.4,23.98L91.66,24.98L92.91,25.98L94.17,22.65L105.47,22.65L106.73,24.31L107.98,24.31L109.24,22.65L110.49,24.31L111.75,22.31L114.26,21.87L115.52,23.98L118.03,21.87L119.28,21.87L120.54,21.87L121.79,23.98L123.05,23.98L124.3,21.87L126.82,23.98L128.07,21.98L130.58,24.54L131.84,24.54L139.37,25.76L140.63,27.65L144.39,28.43L145.65,28.43L161.97,29.2L163.23,29.87L193.36,30.87L194.62,32.65L203.41,34.98L204.66,32.87L208.43,33.98L209.69,35.43L220.99,35.43L222.24,33.87L224.75,32.98L226.01,32.98L227.26,32.54L228.52,29.98L231.03,29.43L232.29,29.76L244.84,29.2L246.1,32.09L248.61,35.43L249.87,35.54L252.38,33.76L253.63,32.98L256.14,35.1L257.4,34.54L262.42,32.09L263.68,28.32L264.93,26.98L266.19,28.32L268.7,28.2L269.96,29.98L272.47,29.87L273.72,29.76L276.23,30.2L277.49,31.09L280,34.21" style="vector-effect: none; fill: none; stroke: rgb(0, 174, 239); stroke-opacity: 1; stroke-width: 5px; opacity: 1;"/></g><g class="points"/><g class="text"/></g><g class="trace scatter trace204e23" style="stroke-miterlimit: 2; opacity: 1;"><g class="fills"/><g class="errorbars"/><g class="lines"><path class="js-line" d="M0,67.22L13.81,67.33L15.07,67.33L53.99,68.55L55.25,69.44L70.31,69.44L72.83,68.11L74.08,71L76.59,71L92.91,71.89L94.17,72.33L148.16,73.11L149.42,73.55L184.57,73.55" style="vector-effect: none; fill: none; stroke: rgb(255, 192, 203); stroke-opacity: 1; stroke-width: 5px; opacity: 1;"/></g><g class="points"/><g class="text"/></g><g class="trace scatter tracee09c89" style="stroke-miterlimit: 2; opacity: 1;"><g class="fills"/><g class="errorbars"/><g class="lines"><path class="js-line" d="M0,66.22L7.53,66.44L8.79,64.88L11.3,68.33L12.56,68.33L90.4,68.89L91.66,69.33L94.17,69L95.43,69L134.35,70.11L135.61,70.33L149.42,71.55L150.67,71.78L155.7,72.11L156.95,72.11L203.41,73.33L204.66,73.67L208.43,73.89" style="vector-effect: none; fill: none; stroke: rgb(202, 166, 105); stroke-opacity: 1; stroke-width: 5px; opacity: 1;"/></g><g class="points"/><g class="text"/></g><g class="trace scatter traceb74b89" style="stroke-miterlimit: 2; opacity: 1;"><g class="fills"/><g class="errorbars"/><g class="lines"><path class="js-line" d="M0,63.33L7.53,63.77L8.79,63.33L32.65,64.66L33.9,64.66L53.99,64.44L55.25,66.11L72.83,65.44L74.08,66.89L87.89,67.22L89.15,68.44L91.66,67.77L92.91,67.11L95.43,69L96.68,69L128.07,68.11L129.33,67.33L134.35,68.55L135.61,69.11L148.16,70.33L149.42,70.78L158.21,71.55L159.46,71.55L203.41,71.55L204.66,73.67L208.43,73.89" style="vector-effect: none; fill: none; stroke: rgb(238, 58, 67); stroke-opacity: 1; stroke-width: 5px; opacity: 1;"/></g><g class="points"/><g class="text"/></g></g></g><g class="overplot"/><path class="xlines-above crisp" d="M0,0" style="fill: none;"/><path class="ylines-above crisp" d="M0,0" style="fill: none;"/><g class="overlines-above"/><g class="xaxislayer-above"/><g class="yaxislayer-above"/><g class="overaxes-above"/></g></g><g class="polarlayer"/><g class="smithlayer"/><g class="ternarylayer"/><g class="geolayer"/><g class="funnelarealayer"/><g class="pielayer"/><g class="iciclelayer"/><g class="treemaplayer"/><g class="sunburstlayer"/><g class="glimages"/><defs id="topdefs-4c37c5"><g class="clips"/></defs><g class="layer-above"><g class="imagelayer"/><g class="shapelayer"/></g><g class="infolayer"><g class="g-gtitle"><text class="gtitle" x="15" y="25" text-anchor="start" dy="0em" style="font-family: Ubuntu, verdana, arial, sans-serif; font-size: 16px; fill: rgb(233, 84, 32); opacity: 1; font-weight: normal; white-space: pre;">Prezident/ka 2024</text></g><g class="g-xtitle"/><g class="g-ytitle"/></g></svg>