<svg class="main-svg" xmlns="http://www.w3.org/2000/svg" xmlns:xlink="http://www.w3.org/1999/xlink" width="300" height="135" style="" viewBox="0 0 300 135"><rect x="0" y="0" width="300" height="135" style="fill: rgb(255, 255, 255); fill-opacity: 1;"/><defs id="defs-2a3ee7"><g class="clips"><clipPath id="clip2a3ee7xyplot" class="plotclip"><rect width="280" height="75"/></clipPath><clipPath class="axesclip" id="clip2a3ee7x"><rect x="10" y="0" width="280" height="135"/></clipPath><clipPath class="axesclip" id="clip2a3ee7y"><rect x="0" y="50" width="300" height="75"/></clipPath><clipPath class="axesclip" id="clip2a3ee7xy"><rect x="10" y="50" width="280" height="75"/></clipPath></g><g class="gradients"/><g class="patterns"/></defs><g class="bglayer"/><g class="layer-below"><g class="imagelayer"/><g class="shapelayer"/></g><g class="cartesianlayer"><g class="subplot xy"><g class="layer-subplot"><g class="shapelayer"/><g class="imagelayer"/></g><g class="minor-gridlayer"><g class="x"/><g class="y"/></g><g class="gridlayer"><g class="x"><path class="xgrid crisp" transform="translate(26.18,0)" d="M0,50v75" style="stroke: rgb(235, 240, 248); stroke-opacity: 1; stroke-width: 1px;"/><path class="xgrid crisp" transform="translate(126.53,0)" d="M0,50v75" style="stroke: rgb(235, 240, 248); stroke-opacity: 1; stroke-width: 1px;"/><path class="xgrid crisp" transform="translate(225.26,0)" d="M0,50v75" style="stroke: rgb(235, 240, 248); stroke-opacity: 1; stroke-width: 1px;"/></g><g class="y"><path class="ygrid crisp" transform="translate(0,101.28999999999999)" d="M10,0h280" style="stroke: rgb(235, 240, 248); stroke-opacity: 1; stroke-width: 1px;"/><path class="ygrid crisp" transform="translate(0,77.58)" d="M10,0h280" style="stroke: rgb(235, 240, 248); stroke-opacity: 1; stroke-width: 1px;"/><path class="ygrid crisp" transform="translate(0,53.87)" d="M10,0h280" style="stroke: rgb(235, 240, 248); stroke-opacity: 1; stroke-width: 1px;"/></g></g><g class="zerolinelayer"><path class="yzl zl crisp" transform="translate(0,125)" d="M10,0h280" style="stroke: rgb(235, 240, 248); stroke-opacity: 1; stroke-width: 2px;"/></g><path class="xlines-below"/><path class="ylines-below"/><g class="overlines-below"/><g class="xaxislayer-below"/><g class="yaxislayer-below"/><g class="overaxes-below"/><g class="plot" transform="translate(10,50)" clip-path="url(#clip2a3ee7xyplot)"><g class="scatterlayer mlayer"><g class="trace scatter trace15d4e7" style="stroke-miterlimit: 2; opacity: 1;"><g class="fills"/><g class="errorbars"/><g class="lines"><path class="js-line" d="M0,50.22L4.86,47.14L6.47,47.14L12.95,47.38L14.57,46.55L37.23,45.6L38.84,44.89L69.6,44.06L71.21,39.08L90.64,39.08L93.87,42.52L95.49,41.81L98.73,41.81L111.68,41.57L113.29,44.18L116.53,45.48L118.15,45.01L119.77,44.53L121.39,45.6L163.47,44.89L165.09,42.52L168.32,43.47L169.94,43.47L171.56,43.23L173.18,39.32L174.8,36.94L176.42,36.94L179.65,36.35L181.27,32.44L184.51,30.19L186.13,30.19L190.98,29.48L192.6,28.41L197.46,25.8L199.08,25.8L212.02,26.16L213.64,27.34L226.59,27.34L228.21,25.68L229.83,25.68L231.45,22.84L237.92,22.84L239.54,19.64L249.25,19.64L250.87,17.74L254.1,17.03L255.72,17.03L262.2,14.66L263.82,10.63L267.05,10.63L268.67,8.61L270.29,3.75L271.91,3.75L280,3.75" style="vector-effect: none; fill: none; stroke: rgb(138, 44, 81); stroke-opacity: 1; stroke-width: 5px; opacity: 1;"/></g><g class="points"/><g class="text"/></g><g class="trace scatter trace80b861" style="stroke-miterlimit: 2; opacity: 1;"><g class="fills"/><g class="errorbars"/><g class="lines"><path class="js-line" d="M0,23.31L4.86,24.97L6.47,24.97L12.95,24.73L14.57,24.02L93.87,25.09L95.49,28.41L111.68,27.34L113.29,24.62L114.91,20.58L116.53,20.58L119.77,22.72L121.39,19.16L135.95,19.16L137.57,20.94L139.19,20.94L140.81,19.16L142.43,20.94L144.05,18.81L147.28,18.33L148.9,20.58L150.52,18.33L152.14,18.33L155.38,18.33L156.99,20.58L158.61,20.58L160.23,18.33L161.85,20.58L163.47,20.58L165.09,18.45L166.71,21.18L178.03,21.89L179.65,22.48L182.89,25.21L184.51,25.33L208.79,26.16L210.4,26.87L229.83,26.99L231.45,28.17L249.25,27.93L250.87,29.83L262.2,32.32L263.82,30.07L268.67,31.25L270.29,32.8L280,32.8" style="vector-effect: none; fill: none; stroke: rgb(0, 174, 239); stroke-opacity: 1; stroke-width: 5px; opacity: 1;"/></g><g class="points"/><g class="text"/></g><g class="trace scatter trace6ca4f8" style="stroke-miterlimit: 2; opacity: 1;"><g class="fills"/><g class="errorbars"/><g class="lines"><path class="js-line" d="M0,63.03L11.33,64.21L12.95,63.5L16.18,62.79L17.8,62.79L69.6,63.03L71.21,64.45L93.87,63.5L95.49,55.79L113.29,56.51L114.91,57.22L144.05,57.57L145.66,58.05L163.47,57.22L165.09,60.66L166.71,58.28L168.32,58.28L171.56,58.4L173.18,60.18L176.42,61.6L178.03,61.6L179.65,61.25L181.27,62.43L189.36,62.67L190.98,62.55L199.08,63.14L200.69,63.14L208.79,62.67L210.4,61.6L212.02,61.6L213.64,59.94L226.59,59.94L228.21,61.49L234.68,63.62L236.3,63.62L258.96,64.8L260.58,64.92L262.2,64.92L263.82,68.6L280,69.78" style="vector-effect: none; fill: none; stroke: rgb(255, 1, 170); stroke-opacity: 1; stroke-width: 5px; opacity: 1;"/></g><g class="points"/><g class="text"/></g><g class="trace scatter tracea5d08f" style="stroke-miterlimit: 2; opacity: 1;"><g class="fills"/><g class="errorbars"/><g class="lines"><path class="js-line" d="M0,62.55L9.71,63.03L11.33,62.55L40.46,63.97L42.08,63.97L69.6,63.74L71.21,65.52L93.87,64.8L95.49,66.35L113.29,66.7L114.91,68.01L118.15,67.29L119.77,66.58L121.39,68.6L123.01,68.6L165.09,67.65L166.71,66.82L171.56,66.94L173.18,68.12L178.03,68.72L179.65,68.95L187.75,69.78L189.36,69.78L203.93,71.32L205.55,71.32L262.2,71.32L263.82,73.58L268.67,73.81" style="vector-effect: none; fill: none; stroke: rgb(238, 58, 67); stroke-opacity: 1; stroke-width: 5px; opacity: 1;"/></g><g class="points"/><g class="text"/></g><g class="trace scatter trace5a2763" style="stroke-miterlimit: 2; opacity: 1;"><g class="fills"/><g class="errorbars"/><g class="lines"><path class="js-line" d="M0,65.63L9.71,65.87L11.33,64.21L14.57,67.89L16.18,67.89L116.53,68.48L118.15,68.95L119.77,69.43L121.39,68.6L173.18,69.78L174.8,70.02L190.98,70.97L192.6,71.32L203.93,71.92L205.55,71.92L257.34,73.1L258.96,73.22L268.67,73.81" style="vector-effect: none; fill: none; stroke: rgb(202, 166, 105); stroke-opacity: 1; stroke-width: 5px; opacity: 1;"/></g><g class="points"/><g class="text"/></g></g></g><g class="overplot"/><path class="xlines-above crisp" d="M0,0" style="fill: none;"/><path class="ylines-above crisp" d="M0,0" style="fill: none;"/><g class="overlines-above"/><g class="xaxislayer-above"/><g class="yaxislayer-above"/><g class="overaxes-above"/></g></g><g class="polarlayer"/><g class="smithlayer"/><g class="ternarylayer"/><g class="geolayer"/><g class="funnelarealayer"/><g class="pielayer"/><g class="iciclelayer"/><g class="treemaplayer"/><g class="sunburstlayer"/><g class="glimages"/><defs id="topdefs-2a3ee7"><g class="clips"/></defs><g class="layer-above"><g class="imagelayer"/><g class="shapelayer"/></g><g class="infolayer"><g class="g-gtitle"><text class="gtitle" x="15" y="25" text-anchor="start" dy="0em" style="font-family: Ubuntu, verdana, arial, sans-serif; font-size: 16px; fill: rgb(233, 84, 32); opacity: 1; font-weight: normal; white-space: pre;">Prezident/ka 2024</text></g><g class="g-xtitle"/><g class="g-ytitle"/></g></svg>