<svg class="main-svg" xmlns="http://www.w3.org/2000/svg" xmlns:xlink="http://www.w3.org/1999/xlink" width="1200" height="600" style="" viewBox="0 0 1200 600"><rect x="0" y="0" width="1200" height="600" style="fill: rgb(255, 255, 255); fill-opacity: 1;"/><defs id="defs-83d412"><g class="clips"><clipPath id="clip83d412xyplot" class="plotclip"><rect width="990" height="530"/></clipPath><clipPath class="axesclip" id="clip83d412x"><rect x="50" y="0" width="990" height="600"/></clipPath><clipPath class="axesclip" id="clip83d412y"><rect x="0" y="20" width="1200" height="530"/></clipPath><clipPath class="axesclip" id="clip83d412xy"><rect x="50" y="20" width="990" height="530"/></clipPath></g><g class="gradients"/><g class="patterns"/></defs><g class="bglayer"/><g class="layer-below"><g class="imagelayer"/><g class="shapelayer"/></g><g class="cartesianlayer"><g class="subplot xy"><g class="layer-subplot"><g class="shapelayer"/><g class="imagelayer"/></g><g class="minor-gridlayer"><g class="x"/><g class="y"/></g><g class="gridlayer"><g class="x"><path class="xgrid crisp" transform="translate(84.14,0)" d="M0,20v530" style="stroke: rgb(235, 240, 248); stroke-opacity: 1; stroke-width: 1px;"/><path class="xgrid crisp" transform="translate(189.97,0)" d="M0,20v530" style="stroke: rgb(235, 240, 248); stroke-opacity: 1; stroke-width: 1px;"/><path class="xgrid crisp" transform="translate(295.78999999999996,0)" d="M0,20v530" style="stroke: rgb(235, 240, 248); stroke-opacity: 1; stroke-width: 1px;"/><path class="xgrid crisp" transform="translate(398.21,0)" d="M0,20v530" style="stroke: rgb(235, 240, 248); stroke-opacity: 1; stroke-width: 1px;"/><path class="xgrid crisp" transform="translate(504.03,0)" d="M0,20v530" style="stroke: rgb(235, 240, 248); stroke-opacity: 1; stroke-width: 1px;"/><path class="xgrid crisp" transform="translate(606.45,0)" d="M0,20v530" style="stroke: rgb(235, 240, 248); stroke-opacity: 1; stroke-width: 1px;"/><path class="xgrid crisp" transform="translate(712.28,0)" d="M0,20v530" style="stroke: rgb(235, 240, 248); stroke-opacity: 1; stroke-width: 1px;"/><path class="xgrid crisp" transform="translate(818.1,0)" d="M0,20v530" style="stroke: rgb(235, 240, 248); stroke-opacity: 1; stroke-width: 1px;"/><path class="xgrid crisp" transform="translate(917.1,0)" d="M0,20v530" style="stroke: rgb(235, 240, 248); stroke-opacity: 1; stroke-width: 1px;"/><path class="xgrid crisp" transform="translate(1022.93,0)" d="M0,20v530" style="stroke: rgb(235, 240, 248); stroke-opacity: 1; stroke-width: 1px;"/></g><g class="y"><path class="ygrid crisp" transform="translate(0,477.03)" d="M50,0h990" style="stroke: rgb(235, 240, 248); stroke-opacity: 1; stroke-width: 1px;"/><path class="ygrid crisp" transform="translate(0,404.06)" d="M50,0h990" style="stroke: rgb(235, 240, 248); stroke-opacity: 1; stroke-width: 1px;"/><path class="ygrid crisp" transform="translate(0,331.09)" d="M50,0h990" style="stroke: rgb(235, 240, 248); stroke-opacity: 1; stroke-width: 1px;"/><path class="ygrid crisp" transform="translate(0,258.12)" d="M50,0h990" style="stroke: rgb(235, 240, 248); stroke-opacity: 1; stroke-width: 1px;"/><path class="ygrid crisp" transform="translate(0,185.14)" d="M50,0h990" style="stroke: rgb(235, 240, 248); stroke-opacity: 1; stroke-width: 1px;"/><path class="ygrid crisp" transform="translate(0,112.17)" d="M50,0h990" style="stroke: rgb(235, 240, 248); stroke-opacity: 1; stroke-width: 1px;"/><path class="ygrid crisp" transform="translate(0,39.2)" d="M50,0h990" style="stroke: rgb(235, 240, 248); stroke-opacity: 1; stroke-width: 1px;"/></g></g><g class="zerolinelayer"><path class="yzl zl crisp" transform="translate(0,550)" d="M50,0h990" style="stroke: rgb(235, 240, 248); stroke-opacity: 1; stroke-width: 2px;"/></g><path class="xlines-below"/><path class="ylines-below"/><g class="overlines-below"/><g class="xaxislayer-below"/><g class="yaxislayer-below"/><g class="overaxes-below"/><g class="plot" transform="translate(50,20)" clip-path="url(#clip83d412xyplot)"><g class="scatterlayer mlayer"><g class="trace scatter trace4507f6" style="stroke-miterlimit: 2; opacity: 1;"><g class="fills"/><g class="errorbars"/><g class="lines"><path class="js-line" d="M0,377.49L6.83,358.52L10.24,358.52L20.48,358.52L23.9,363.63L30.72,354.87L34.14,354.87L47.79,354.87L51.21,352.68L61.45,352.68L64.86,350.49L68.28,349.03L71.69,349.03L78.52,349.03L81.93,344.65L126.31,344.65L129.72,339.55L146.79,339.55L150.21,308.9L191.17,308.9L198,330.06L201.41,325.68L208.24,325.68L232.14,324.95L235.55,324.22L238.97,340.28L242.38,348.3L245.79,348.3L249.21,345.38L252.62,342.46L256.03,349.03L286.76,349.03L290.17,346.11L293.59,346.11L297,349.03L300.41,346.11L303.83,348.3L307.24,346.11L310.66,346.11L314.07,344.65L317.48,346.11L327.72,346.11L331.14,344.65L334.55,344.65L337.97,346.11L341.38,344.65L344.79,344.65L348.21,330.06L351.62,335.9L358.45,335.9L361.86,334.44L365.28,310.36L368.69,295.76L375.52,295.76L378.93,292.11L382.34,268.03L385.76,256.36L389.17,254.17L392.59,254.17L399.41,254.17L402.83,249.79L409.66,237.39L413.07,227.17L440.38,227.9L443.79,229.36L447.21,229.36L450.62,236.66L477.93,236.66L481.34,226.44L484.76,226.44L488.17,208.93L501.83,208.93L505.24,189.23L525.72,189.23L529.14,177.55L532.55,173.17L535.97,173.17L539.38,173.17L542.79,168.79L546.21,162.23L549.62,158.58L553.03,158.58L556.45,133.77L563.28,133.77L566.69,121.36L570.1,91.44L573.52,91.44L600.83,91.44L604.24,102.39L607.66,107.5L611.07,107.5L614.48,107.5L617.9,110.42L621.31,122.09L624.72,126.47L628.14,123.55L631.55,118.44L655.45,118.44L658.86,116.98L662.28,120.63L665.69,119.17L672.52,79.04L675.93,71.01L679.34,70.28L682.76,72.47L686.17,81.23L689.59,76.12L693,62.26L696.41,62.26L703.24,68.82L706.66,74.66L710.07,81.23L713.48,81.96L716.9,106.77L720.31,115.52L723.72,106.77L727.14,110.42L730.55,107.5L733.97,95.82L737.38,92.9L740.79,96.55L747.62,98.74L751.03,94.36L754.45,88.53L757.86,78.31L761.28,68.09L764.69,68.09L768.1,68.09L771.52,71.01L774.93,79.77L778.34,81.23L781.76,75.39L785.17,74.66L788.59,79.77L792,94.36L795.41,122.82L798.83,135.23L802.24,133.77L805.66,133.77L809.07,134.5L812.48,141.06L815.9,143.25L819.31,141.79L822.72,133.77L826.14,141.79L832.97,146.9L836.38,136.69L839.79,114.79L843.21,101.66L846.62,92.17L850.03,91.44L853.45,75.39L856.86,76.12L860.28,75.39L863.69,71.74L867.1,76.85L870.52,88.53L880.76,88.53L884.17,84.88L887.59,83.42L891,79.04L897.83,79.04L901.24,76.12L904.66,68.82L908.07,65.9L911.48,61.53L914.9,41.82L918.31,35.26L921.72,35.26L925.14,27.96L928.55,26.5" style="vector-effect: none; fill: none; stroke: rgb(138, 44, 81); stroke-opacity: 1; stroke-width: 5px; opacity: 1;"/></g><g class="points"/><g class="text"/></g><g class="trace scatter traceb4ffa6" style="stroke-miterlimit: 2; opacity: 1;"><g class="fills"/><g class="errorbars"/><g class="lines"><path class="js-line" d="M0,211.85L6.83,222.06L10.24,222.06L20.48,222.06L23.9,227.17L30.72,216.22L34.14,216.22L61.45,216.22L64.86,217.68L68.28,219.14L71.69,219.14L78.52,219.14L81.93,222.79L198,222.79L201.41,243.22L228.72,243.22L232.14,239.58L235.55,236.66L238.97,219.87L242.38,195.06L245.79,195.06L252.62,208.2L256.03,186.31L286.76,186.31L290.17,197.25L293.59,197.25L297,186.31L300.41,197.25L303.83,184.12L307.24,181.2L310.66,181.2L314.07,195.06L317.48,181.2L327.72,181.2L331.14,195.06L334.55,195.06L337.97,181.2L341.38,195.06L344.79,195.06L348.21,181.93L351.62,198.71L361.86,198.71L365.28,203.09L375.52,203.09L378.93,206.74L382.34,219.14L385.76,223.52L392.59,224.25L396,224.25L406.24,224.25L409.66,226.44L416.48,227.17L419.9,227.17L436.97,227.17L440.38,229.36L443.79,233.74L447.21,233.74L450.62,236.66L457.45,236.66L481.34,237.39L484.76,234.47L488.17,241.76L491.59,241.76L501.83,241.76L505.24,240.31L525.72,240.31L529.14,251.98L532.55,254.9L535.97,254.9L539.38,254.9L542.79,259.28L549.62,267.3L553.03,267.3L556.45,253.44L559.86,253.44L563.28,253.44L566.69,260.74L570.1,270.22L573.52,270.22L600.83,270.22L604.24,260.01L607.66,254.17L611.07,254.17L614.48,254.17L617.9,251.25L621.31,234.47L624.72,229.36L631.55,233.01L634.97,233.01L652.03,233.01L655.45,231.55L658.86,233.01L662.28,229.36L665.69,229.36L669.1,248.33L672.52,262.2L675.93,270.22L679.34,270.95L682.76,268.76L686.17,259.28L689.59,254.17L693,268.03L696.41,268.03L703.24,261.47L706.66,255.63L710.07,249.06L713.48,248.33L716.9,223.52L720.31,214.77L723.72,223.52L727.14,219.87L730.55,222.79L733.97,234.47L737.38,237.39L740.79,233.74L747.62,231.55L751.03,235.93L754.45,241.76L757.86,251.98L761.28,262.2L764.69,262.2L768.1,262.2L771.52,259.28L774.93,250.52L778.34,249.06L781.76,254.9L785.17,255.63L788.59,250.52L792,235.93L795.41,207.47L798.83,195.06L802.24,196.52L805.66,196.52L809.07,195.79L812.48,189.23L815.9,187.04L819.31,188.5L822.72,196.52L826.14,188.5L832.97,183.39L836.38,193.6L839.79,215.49L843.21,228.63L846.62,238.12L850.03,238.85L853.45,254.9L856.86,254.17L860.28,254.9L863.69,258.55L867.1,253.44L870.52,241.76L880.76,241.76L884.17,245.41L887.59,246.87L891,251.25L897.83,251.25L901.24,254.17L904.66,261.47L908.07,264.39L911.48,268.76L914.9,288.47L918.31,295.03L921.72,295.03L925.14,302.33L928.55,303.79" style="vector-effect: none; fill: none; stroke: rgb(0, 174, 239); stroke-opacity: 1; stroke-width: 5px; opacity: 1;"/></g><g class="points"/><g class="text"/></g><g class="trace scatter trace050180" style="stroke-miterlimit: 2; opacity: 1;"><g class="fills"/><g class="errorbars"/><g class="lines"><path class="js-line" d="M0,478.92L10.24,481.11L13.66,481.11L23.9,480.38L27.31,478.92L34.14,479.65L37.55,479.65L47.79,479.65L51.21,481.11L78.52,480.38L81.93,481.84L126.31,481.84L129.72,487.68L146.79,487.68L150.21,493.51L191.17,493.51L198,484.76L201.41,503.73L208.24,503.73L238.97,504.46L242.38,509.57L252.62,509.57L256.03,512.49L286.76,512.49L290.17,511.03L293.59,511.03L297,512.49L300.41,511.03L303.83,512.49L310.66,512.49L314.07,511.03L317.48,512.49L320.9,512.49L327.72,512.49L331.14,511.03L334.55,511.03L337.97,512.49L341.38,511.03L344.79,511.03L348.21,513.22L351.62,511.76L375.52,512.49L378.93,513.22L385.76,515.41L389.17,516.14L399.41,516.14L402.83,517.59L406.24,520.51L409.66,520.51L416.48,521.24L419.9,521.24L501.83,520.51" style="vector-effect: none; fill: none; stroke: rgb(255, 192, 203); stroke-opacity: 1; stroke-width: 5px; opacity: 1;"/></g><g class="points"/><g class="text"/></g><g class="trace scatter trace04c76a" style="stroke-miterlimit: 2; opacity: 1;"><g class="fills"/><g class="errorbars"/><g class="lines"><path class="js-line" d="M0,453.38L6.83,456.3L10.24,456.3L20.48,456.3L23.9,453.38L27.31,454.11L30.72,457.76L61.45,458.49L64.86,460.68L68.28,462.14L71.69,462.14L126.31,462.14L129.72,460.68L146.79,460.68L150.21,471.62L191.17,471.62L198,467.24L201.41,476.73L208.24,476.73L232.14,477.46L235.55,478.92L238.97,478.92L242.38,486.95L245.79,486.95L249.21,482.57L252.62,478.19L256.03,490.6L286.76,490.6L290.17,484.76L293.59,484.76L297,490.6L300.41,484.76L303.83,489.87L310.66,489.87L314.07,484.03L317.48,489.87L320.9,489.87L327.72,489.87L331.14,484.03L334.55,484.03L337.97,489.87L341.38,484.03L344.79,484.03L348.21,484.76L351.62,479.65L361.86,480.38L365.28,487.68L368.69,491.33L372.1,491.33L375.52,491.33L378.93,492.78L389.17,497.89L392.59,497.89L399.41,497.89L402.83,499.35L413.07,507.38L416.48,507.38L501.83,507.38L505.24,506.65L553.03,507.38L556.45,521.24L563.28,521.24L566.69,522.7" style="vector-effect: none; fill: none; stroke: rgb(238, 58, 67); stroke-opacity: 1; stroke-width: 5px; opacity: 1;"/></g><g class="points"/><g class="text"/></g><g class="trace scatter traceeb4c54" style="stroke-miterlimit: 2; opacity: 1;"><g class="fills"/><g class="errorbars"/><g class="lines"><path class="js-line" d="M0,472.35L10.24,473.81L13.66,473.81L20.48,473.81L23.9,463.6L30.72,486.22L34.14,486.22L64.86,485.49L68.28,484.76L146.79,484.03L150.21,487.68L191.17,487.68L198,486.22L201.41,489.14L208.24,489.14L232.14,489.87L235.55,490.6L245.79,489.87L249.21,492.78L252.62,495.7L256.03,490.6L286.76,490.6L290.17,492.78L293.59,492.78L297,490.6L300.41,492.78L303.83,492.06L307.24,494.97L310.66,494.97L314.07,495.7L317.48,494.97L344.79,495.7L348.21,497.89L365.28,497.89L368.69,499.35L378.93,500.08L382.34,500.81L389.17,503.73L392.59,503.73L399.41,503.73L402.83,505.19L413.07,511.03L416.48,511.03L501.83,511.03L505.24,518.32L553.03,519.05L556.45,521.24L563.28,521.24L566.69,522.7" style="vector-effect: none; fill: none; stroke: rgb(202, 166, 105); stroke-opacity: 1; stroke-width: 5px; opacity: 1;"/></g><g class="points"/><g class="text"/></g><g class="trace scatter tracede7ba0" style="stroke-miterlimit: 2; opacity: 1;"><g class="fills"/><g class="errorbars"/><g class="lines"><path class="js-line" d="M0,456.3L6.83,458.49L10.24,458.49L20.48,458.49L23.9,463.6L30.72,454.84L34.14,454.84L47.79,454.84L51.21,456.3L64.86,455.57L68.28,454.84L126.31,454.84L129.72,456.3L146.79,456.3L150.21,465.06L191.17,465.06L198,459.22L201.41,411.79L208.24,411.79L228.72,411.79L232.14,413.98L235.55,416.17L238.97,416.17L242.38,420.54L245.79,420.54L252.62,415.44L256.03,421.27L286.76,421.27L290.17,418.35L293.59,418.35L297,421.27L300.41,418.35L303.83,422.73L307.24,425.65L310.66,425.65L314.07,420.54L317.48,425.65L327.72,425.65L331.14,420.54L334.55,420.54L337.97,425.65L341.38,420.54L344.79,420.54L348.21,441.71L351.62,427.11L361.86,427.84L365.28,438.79L368.69,447.54L372.1,447.54L375.52,447.54L378.93,445.35L382.34,452.65L385.76,454.11L402.83,453.38L406.24,452.65L409.66,454.11L413.07,457.03L436.97,457.03L440.38,454.11L443.79,447.54L447.21,447.54L450.62,437.33L457.45,437.33L477.93,437.33L481.34,446.81L484.76,449.73L488.17,459.95L501.83,459.95L505.24,465.79L542.79,466.52L546.21,467.24L553.03,467.97L556.45,490.6L563.28,490.6L566.69,493.51L570.1,497.89L573.52,497.89L617.9,497.89L621.31,504.46L624.72,504.46L628.14,505.92L631.55,508.84L634.97,508.84L652.03,508.84L655.45,510.3L662.28,510.3L665.69,511.76L669.1,516.87L672.52,519.05L682.76,519.05L686.17,520.51" style="vector-effect: none; fill: none; stroke: rgb(255, 1, 170); stroke-opacity: 1; stroke-width: 5px; opacity: 1;"/></g><g class="points"/><g class="text"/></g></g></g><g class="overplot"/><path class="xlines-above crisp" d="M0,0" style="fill: none;"/><path class="ylines-above crisp" d="M0,0" style="fill: none;"/><g class="overlines-above"/><g class="xaxislayer-above"><g class="xtick"><text text-anchor="middle" x="0" y="563" transform="translate(84.14,0)" style="font-family: 'Open Sans', verdana, arial, sans-serif; font-size: 12px; fill: rgb(42, 63, 95); fill-opacity: 1; white-space: pre; opacity: 1;">1.7.23</text></g><g class="xtick"><text text-anchor="middle" x="0" y="563" style="font-family: 'Open Sans', verdana, arial, sans-serif; font-size: 12px; fill: rgb(42, 63, 95); fill-opacity: 1; white-space: pre; opacity: 1;" transform="translate(189.97,0)">1.8.23</text></g><g class="xtick"><text text-anchor="middle" x="0" y="563" style="font-family: 'Open Sans', verdana, arial, sans-serif; font-size: 12px; fill: rgb(42, 63, 95); fill-opacity: 1; white-space: pre; opacity: 1;" transform="translate(295.78999999999996,0)">1.9.23</text></g><g class="xtick"><text text-anchor="middle" x="0" y="563" style="font-family: 'Open Sans', verdana, arial, sans-serif; font-size: 12px; fill: rgb(42, 63, 95); fill-opacity: 1; white-space: pre; opacity: 1;" transform="translate(398.21,0)">1.10.23</text></g><g class="xtick"><text text-anchor="middle" x="0" y="563" style="font-family: 'Open Sans', verdana, arial, sans-serif; font-size: 12px; fill: rgb(42, 63, 95); fill-opacity: 1; white-space: pre; opacity: 1;" transform="translate(504.03,0)">1.11.23</text></g><g class="xtick"><text text-anchor="middle" x="0" y="563" style="font-family: 'Open Sans', verdana, arial, sans-serif; font-size: 12px; fill: rgb(42, 63, 95); fill-opacity: 1; white-space: pre; opacity: 1;" transform="translate(606.45,0)">1.12.23</text></g><g class="xtick"><text text-anchor="middle" x="0" y="563" style="font-family: 'Open Sans', verdana, arial, sans-serif; font-size: 12px; fill: rgb(42, 63, 95); fill-opacity: 1; white-space: pre; opacity: 1;" transform="translate(712.28,0)">1.1.24</text></g><g class="xtick"><text text-anchor="middle" x="0" y="563" style="font-family: 'Open Sans', verdana, arial, sans-serif; font-size: 12px; fill: rgb(42, 63, 95); fill-opacity: 1; white-space: pre; opacity: 1;" transform="translate(818.1,0)">1.2.24</text></g><g class="xtick"><text text-anchor="middle" x="0" y="563" style="font-family: 'Open Sans', verdana, arial, sans-serif; font-size: 12px; fill: rgb(42, 63, 95); fill-opacity: 1; white-space: pre; opacity: 1;" transform="translate(917.1,0)">1.3.24</text></g><g class="xtick"><text text-anchor="middle" x="0" y="563" style="font-family: 'Open Sans', verdana, arial, sans-serif; font-size: 12px; fill: rgb(42, 63, 95); fill-opacity: 1; white-space: pre; opacity: 1;" transform="translate(1022.93,0)">1.4.24</text></g></g><g class="yaxislayer-above"><g class="ytick"><text text-anchor="end" x="49" y="4.199999999999999" transform="translate(0,550)" style="font-family: 'Open Sans', verdana, arial, sans-serif; font-size: 12px; fill: rgb(42, 63, 95); fill-opacity: 1; white-space: pre; opacity: 1;">0%</text></g><g class="ytick"><text text-anchor="end" x="49" y="4.199999999999999" style="font-family: 'Open Sans', verdana, arial, sans-serif; font-size: 12px; fill: rgb(42, 63, 95); fill-opacity: 1; white-space: pre; opacity: 1;" transform="translate(0,477.03)">10%</text></g><g class="ytick"><text text-anchor="end" x="49" y="4.199999999999999" style="font-family: 'Open Sans', verdana, arial, sans-serif; font-size: 12px; fill: rgb(42, 63, 95); fill-opacity: 1; white-space: pre; opacity: 1;" transform="translate(0,404.06)">20%</text></g><g class="ytick"><text text-anchor="end" x="49" y="4.199999999999999" style="font-family: 'Open Sans', verdana, arial, sans-serif; font-size: 12px; fill: rgb(42, 63, 95); fill-opacity: 1; white-space: pre; opacity: 1;" transform="translate(0,331.09)">30%</text></g><g class="ytick"><text text-anchor="end" x="49" y="4.199999999999999" style="font-family: 'Open Sans', verdana, arial, sans-serif; font-size: 12px; fill: rgb(42, 63, 95); fill-opacity: 1; white-space: pre; opacity: 1;" transform="translate(0,258.12)">40%</text></g><g class="ytick"><text text-anchor="end" x="49" y="4.199999999999999" style="font-family: 'Open Sans', verdana, arial, sans-serif; font-size: 12px; fill: rgb(42, 63, 95); fill-opacity: 1; white-space: pre; opacity: 1;" transform="translate(0,185.14)">50%</text></g><g class="ytick"><text text-anchor="end" x="49" y="4.199999999999999" style="font-family: 'Open Sans', verdana, arial, sans-serif; font-size: 12px; fill: rgb(42, 63, 95); fill-opacity: 1; white-space: pre; opacity: 1;" transform="translate(0,112.17)">60%</text></g><g class="ytick"><text text-anchor="end" x="49" y="4.199999999999999" style="font-family: 'Open Sans', verdana, arial, sans-serif; font-size: 12px; fill: rgb(42, 63, 95); fill-opacity: 1; white-space: pre; opacity: 1;" transform="translate(0,39.2)">70%</text></g></g><g class="overaxes-above"/></g></g><g class="polarlayer"/><g class="smithlayer"/><g class="ternarylayer"/><g class="geolayer"/><g class="funnelarealayer"/><g class="pielayer"/><g class="iciclelayer"/><g class="treemaplayer"/><g class="sunburstlayer"/><g class="glimages"/><defs id="topdefs-83d412"><g class="clips"/><clipPath id="legend83d412"><rect width="128" height="124" x="0" y="0"/></clipPath></defs><g class="layer-above"><g class="imagelayer"/><g class="shapelayer"/></g><g class="infolayer"><g class="legend" pointer-events="all" transform="translate(1059.8000000000002,20)"><rect class="bg" shape-rendering="crispEdges" style="stroke: rgb(68, 68, 68); stroke-opacity: 1; fill: rgb(255, 255, 255); fill-opacity: 1; stroke-width: 0px;" width="128" height="124" x="0" y="0"/><g class="scrollbox" transform="" clip-path="url(#legend83d412)"><g class="groups"><g class="traces" transform="translate(0,14.5)" style="opacity: 1;"><text class="legendtext" text-anchor="start" x="40" y="4.680000000000001" style="font-family: 'Open Sans', verdana, arial, sans-serif; font-size: 12px; fill: rgb(42, 63, 95); fill-opacity: 1; white-space: pre;">Pellegrini Peter</text><g class="layers" style="opacity: 1;"><g class="legendfill"/><g class="legendlines"><path class="js-line" d="M5,0h30" style="fill: none; stroke: rgb(138, 44, 81); stroke-opacity: 1; stroke-width: 5px;"/></g><g class="legendsymbols"><g class="legendpoints"/></g></g><rect class="legendtoggle" x="0" y="-9.5" width="122.703125" height="19" style="fill: rgb(0, 0, 0); fill-opacity: 0;"/></g><g class="traces" transform="translate(0,33.5)" style="opacity: 1;"><text class="legendtext" text-anchor="start" x="40" y="4.680000000000001" style="font-family: 'Open Sans', verdana, arial, sans-serif; font-size: 12px; fill: rgb(42, 63, 95); fill-opacity: 1; white-space: pre;">Korčok Ivan</text><g class="layers" style="opacity: 1;"><g class="legendfill"/><g class="legendlines"><path class="js-line" d="M5,0h30" style="fill: none; stroke: rgb(0, 174, 239); stroke-opacity: 1; stroke-width: 5px;"/></g><g class="legendsymbols"><g class="legendpoints"/></g></g><rect class="legendtoggle" x="0" y="-9.5" width="122.703125" height="19" style="fill: rgb(0, 0, 0); fill-opacity: 0;"/></g><g class="traces" transform="translate(0,52.5)" style="opacity: 1;"><text class="legendtext" text-anchor="start" x="40" y="4.680000000000001" style="font-family: 'Open Sans', verdana, arial, sans-serif; font-size: 12px; fill: rgb(42, 63, 95); fill-opacity: 1; white-space: pre;">Lajčák Miroslav</text><g class="layers" style="opacity: 1;"><g class="legendfill"/><g class="legendlines"><path class="js-line" d="M5,0h30" style="fill: none; stroke: rgb(255, 192, 203); stroke-opacity: 1; stroke-width: 5px;"/></g><g class="legendsymbols"><g class="legendpoints"/></g></g><rect class="legendtoggle" x="0" y="-9.5" width="122.703125" height="19" style="fill: rgb(0, 0, 0); fill-opacity: 0;"/></g><g class="traces" transform="translate(0,71.5)" style="opacity: 1;"><text class="legendtext" text-anchor="start" x="40" y="4.680000000000001" style="font-family: 'Open Sans', verdana, arial, sans-serif; font-size: 12px; fill: rgb(42, 63, 95); fill-opacity: 1; white-space: pre;">Fico Robert</text><g class="layers" style="opacity: 1;"><g class="legendfill"/><g class="legendlines"><path class="js-line" d="M5,0h30" style="fill: none; stroke: rgb(238, 58, 67); stroke-opacity: 1; stroke-width: 5px;"/></g><g class="legendsymbols"><g class="legendpoints"/></g></g><rect class="legendtoggle" x="0" y="-9.5" width="122.703125" height="19" style="fill: rgb(0, 0, 0); fill-opacity: 0;"/></g><g class="traces" transform="translate(0,90.5)" style="opacity: 1;"><text class="legendtext" text-anchor="start" x="40" y="4.680000000000001" style="font-family: 'Open Sans', verdana, arial, sans-serif; font-size: 12px; fill: rgb(42, 63, 95); fill-opacity: 1; white-space: pre;">Mistrík Robert</text><g class="layers" style="opacity: 1;"><g class="legendfill"/><g class="legendlines"><path class="js-line" d="M5,0h30" style="fill: none; stroke: rgb(202, 166, 105); stroke-opacity: 1; stroke-width: 5px;"/></g><g class="legendsymbols"><g class="legendpoints"/></g></g><rect class="legendtoggle" x="0" y="-9.5" width="122.703125" height="19" style="fill: rgb(0, 0, 0); fill-opacity: 0;"/></g><g class="traces" transform="translate(0,109.5)" style="opacity: 1;"><text class="legendtext" text-anchor="start" x="40" y="4.680000000000001" style="font-family: 'Open Sans', verdana, arial, sans-serif; font-size: 12px; fill: rgb(42, 63, 95); fill-opacity: 1; white-space: pre;">Kubiš Ján</text><g class="layers" style="opacity: 1;"><g class="legendfill"/><g class="legendlines"><path class="js-line" d="M5,0h30" style="fill: none; stroke: rgb(255, 1, 170); stroke-opacity: 1; stroke-width: 5px;"/></g><g class="legendsymbols"><g class="legendpoints"/></g></g><rect class="legendtoggle" x="0" y="-9.5" width="122.703125" height="19" style="fill: rgb(0, 0, 0); fill-opacity: 0;"/></g></g></g><rect class="scrollbar" rx="20" ry="3" width="0" height="0" style="fill: rgb(128, 139, 164); fill-opacity: 1;" x="0" y="0"/></g><g class="g-gtitle"/><g class="g-xtitle"/><g class="g-ytitle"/></g></svg>