<svg class="main-svg" xmlns="http://www.w3.org/2000/svg" xmlns:xlink="http://www.w3.org/1999/xlink" width="300" height="135" style="" viewBox="0 0 300 135"><rect x="0" y="0" width="300" height="135" style="fill: rgb(255, 255, 255); fill-opacity: 1;"/><defs id="defs-00a4ff"><g class="clips"><clipPath id="clip00a4ffxyplot" class="plotclip"><rect width="280" height="75"/></clipPath><clipPath class="axesclip" id="clip00a4ffx"><rect x="10" y="0" width="280" height="135"/></clipPath><clipPath class="axesclip" id="clip00a4ffy"><rect x="0" y="50" width="300" height="75"/></clipPath><clipPath class="axesclip" id="clip00a4ffxy"><rect x="10" y="50" width="280" height="75"/></clipPath></g><g class="gradients"/><g class="patterns"/></defs><g class="bglayer"/><g class="layer-below"><g class="imagelayer"/><g class="shapelayer"/></g><g class="cartesianlayer"><g class="subplot xy"><g class="layer-subplot"><g class="shapelayer"/><g class="imagelayer"/></g><g class="minor-gridlayer"><g class="x"/><g class="y"/></g><g class="gridlayer"><g class="x"><path class="xgrid crisp" transform="translate(25.73,0)" d="M0,50v75" style="stroke: rgb(235, 240, 248); stroke-opacity: 1; stroke-width: 1px;"/><path class="xgrid crisp" transform="translate(123.26,0)" d="M0,50v75" style="stroke: rgb(235, 240, 248); stroke-opacity: 1; stroke-width: 1px;"/><path class="xgrid crisp" transform="translate(219.21,0)" d="M0,50v75" style="stroke: rgb(235, 240, 248); stroke-opacity: 1; stroke-width: 1px;"/></g><g class="y"><path class="ygrid crisp" transform="translate(0,101.28999999999999)" d="M10,0h280" style="stroke: rgb(235, 240, 248); stroke-opacity: 1; stroke-width: 1px;"/><path class="ygrid crisp" transform="translate(0,77.58)" d="M10,0h280" style="stroke: rgb(235, 240, 248); stroke-opacity: 1; stroke-width: 1px;"/><path class="ygrid crisp" transform="translate(0,53.87)" d="M10,0h280" style="stroke: rgb(235, 240, 248); stroke-opacity: 1; stroke-width: 1px;"/></g></g><g class="zerolinelayer"><path class="yzl zl crisp" transform="translate(0,125)" d="M10,0h280" style="stroke: rgb(235, 240, 248); stroke-opacity: 1; stroke-width: 2px;"/></g><path class="xlines-below"/><path class="ylines-below"/><g class="overlines-below"/><g class="xaxislayer-below"/><g class="yaxislayer-below"/><g class="overaxes-below"/><g class="plot" transform="translate(10,50)" clip-path="url(#clip00a4ffxyplot)"><g class="scatterlayer mlayer"><g class="trace scatter traced91639" style="stroke-miterlimit: 2; opacity: 1;"><g class="fills"/><g class="errorbars"/><g class="lines"><path class="js-line" d="M0,50.22L4.72,47.14L6.29,47.14L12.58,47.38L14.16,46.55L36.18,45.6L37.75,44.89L67.64,44.06L69.21,39.08L88.09,39.08L91.24,42.52L92.81,41.81L95.96,41.81L108.54,41.57L110.11,44.18L113.26,45.48L114.83,45.01L116.4,44.53L117.98,45.6L158.88,44.89L160.45,42.52L163.6,43.47L165.17,43.47L166.74,43.23L168.31,39.32L169.89,36.94L171.46,36.94L174.61,36.35L176.18,32.44L179.33,30.19L180.9,30.19L185.62,29.48L187.19,28.41L191.91,25.8L193.48,25.8L206.07,26.16L207.64,27.34L220.22,27.34L221.8,25.68L223.37,25.68L224.94,22.84L231.24,22.84L232.81,19.64L242.25,19.64L243.82,17.74L246.97,17.03L248.54,17.03L254.83,14.66L256.4,10.63L259.55,10.63L261.12,8.61L262.7,3.75L264.27,3.75L276.85,3.75L278.43,5.53L280,6.36" style="vector-effect: none; fill: none; stroke: rgb(138, 44, 81); stroke-opacity: 1; stroke-width: 5px; opacity: 1;"/></g><g class="points"/><g class="text"/></g><g class="trace scatter trace7c142a" style="stroke-miterlimit: 2; opacity: 1;"><g class="fills"/><g class="errorbars"/><g class="lines"><path class="js-line" d="M0,23.31L4.72,24.97L6.29,24.97L12.58,24.73L14.16,24.02L91.24,25.09L92.81,28.41L108.54,27.34L110.11,24.62L111.69,20.58L113.26,20.58L116.4,22.72L117.98,19.16L132.13,19.16L133.71,20.94L135.28,20.94L136.85,19.16L138.43,20.94L140,18.81L143.15,18.33L144.72,20.58L146.29,18.33L147.87,18.33L151.01,18.33L152.58,20.58L154.16,20.58L155.73,18.33L157.3,20.58L158.88,20.58L160.45,18.45L162.02,21.18L173.03,21.89L174.61,22.48L177.75,25.21L179.33,25.33L202.92,26.16L204.49,26.87L223.37,26.99L224.94,28.17L242.25,27.93L243.82,29.83L254.83,32.32L256.4,30.07L261.12,31.25L262.7,32.8L276.85,32.8L278.43,31.14L280,30.19" style="vector-effect: none; fill: none; stroke: rgb(0, 174, 239); stroke-opacity: 1; stroke-width: 5px; opacity: 1;"/></g><g class="points"/><g class="text"/></g><g class="trace scatter trace4509c5" style="stroke-miterlimit: 2; opacity: 1;"><g class="fills"/><g class="errorbars"/><g class="lines"><path class="js-line" d="M0,63.03L11.01,64.21L12.58,63.5L15.73,62.79L17.3,62.79L67.64,63.03L69.21,64.45L91.24,63.5L92.81,55.79L110.11,56.51L111.69,57.22L140,57.57L141.57,58.05L158.88,57.22L160.45,60.66L162.02,58.28L163.6,58.28L166.74,58.4L168.31,60.18L171.46,61.6L173.03,61.6L174.61,61.25L176.18,62.43L184.04,62.67L185.62,62.55L193.48,63.14L195.06,63.14L202.92,62.67L204.49,61.6L206.07,61.6L207.64,59.94L220.22,59.94L221.8,61.49L228.09,63.62L229.66,63.62L251.69,64.8L253.26,64.92L254.83,64.92L256.4,68.6L276.85,69.78L278.43,69.9L280,69.9" style="vector-effect: none; fill: none; stroke: rgb(255, 1, 170); stroke-opacity: 1; stroke-width: 5px; opacity: 1;"/></g><g class="points"/><g class="text"/></g><g class="trace scatter trace735c48" style="stroke-miterlimit: 2; opacity: 1;"><g class="fills"/><g class="errorbars"/><g class="lines"><path class="js-line" d="M0,65.63L9.44,65.87L11.01,64.21L14.16,67.89L15.73,67.89L113.26,68.48L114.83,68.95L116.4,69.43L117.98,68.6L168.31,69.78L169.89,70.02L185.62,70.97L187.19,71.32L198.2,71.92L199.78,71.92L250.11,73.1L251.69,73.22L261.12,73.81" style="vector-effect: none; fill: none; stroke: rgb(202, 166, 105); stroke-opacity: 1; stroke-width: 5px; opacity: 1;"/></g><g class="points"/><g class="text"/></g><g class="trace scatter tracef0576f" style="stroke-miterlimit: 2; opacity: 1;"><g class="fills"/><g class="errorbars"/><g class="lines"><path class="js-line" d="M0,66.7L15.73,66.82L17.3,66.82L58.2,67.18L59.78,68.12L88.09,69.07L91.24,67.65L92.81,70.73L95.96,70.73L116.4,71.68L117.98,72.15L185.62,72.98L187.19,73.46L231.24,73.46" style="vector-effect: none; fill: none; stroke: rgb(255, 192, 203); stroke-opacity: 1; stroke-width: 5px; opacity: 1;"/></g><g class="points"/><g class="text"/></g></g></g><g class="overplot"/><path class="xlines-above crisp" d="M0,0" style="fill: none;"/><path class="ylines-above crisp" d="M0,0" style="fill: none;"/><g class="overlines-above"/><g class="xaxislayer-above"/><g class="yaxislayer-above"/><g class="overaxes-above"/></g></g><g class="polarlayer"/><g class="smithlayer"/><g class="ternarylayer"/><g class="geolayer"/><g class="funnelarealayer"/><g class="pielayer"/><g class="iciclelayer"/><g class="treemaplayer"/><g class="sunburstlayer"/><g class="glimages"/><defs id="topdefs-00a4ff"><g class="clips"/></defs><g class="layer-above"><g class="imagelayer"/><g class="shapelayer"/></g><g class="infolayer"><g class="g-gtitle"><text class="gtitle" x="15" y="25" text-anchor="start" dy="0em" style="font-family: Ubuntu, verdana, arial, sans-serif; font-size: 16px; fill: rgb(233, 84, 32); opacity: 1; font-weight: normal; white-space: pre;">Prezident/ka 2024</text></g><g class="g-xtitle"/><g class="g-ytitle"/></g></svg>