<svg class="main-svg" xmlns="http://www.w3.org/2000/svg" xmlns:xlink="http://www.w3.org/1999/xlink" width="400" height="400" style="" viewBox="0 0 400 400"><rect x="0" y="0" width="400" height="400" style="fill: rgb(255, 255, 255); fill-opacity: 1;"/><defs id="defs-0deb6e"><g class="clips"><clipPath id="clip0deb6exyplot" class="plotclip"><rect width="206" height="330"/></clipPath><clipPath class="axesclip" id="clip0deb6ex"><rect x="50" y="0" width="206" height="400"/></clipPath><clipPath class="axesclip" id="clip0deb6ey"><rect x="0" y="20" width="400" height="330"/></clipPath><clipPath class="axesclip" id="clip0deb6exy"><rect x="50" y="20" width="206" height="330"/></clipPath></g><g class="gradients"/><g class="patterns"/></defs><g class="bglayer"/><g class="layer-below"><g class="imagelayer"/><g class="shapelayer"/></g><g class="cartesianlayer"><g class="subplot xy"><g class="layer-subplot"><g class="shapelayer"/><g class="imagelayer"/></g><g class="minor-gridlayer"><g class="x"/><g class="y"/></g><g class="gridlayer"><g class="x"><path class="xgrid crisp" transform="translate(57.1,0)" d="M0,20v330" style="stroke: rgb(235, 240, 248); stroke-opacity: 1; stroke-width: 1px;"/><path class="xgrid crisp" transform="translate(101.14,0)" d="M0,20v330" style="stroke: rgb(235, 240, 248); stroke-opacity: 1; stroke-width: 1px;"/><path class="xgrid crisp" transform="translate(144.48000000000002,0)" d="M0,20v330" style="stroke: rgb(235, 240, 248); stroke-opacity: 1; stroke-width: 1px;"/><path class="xgrid crisp" transform="translate(187.81,0)" d="M0,20v330" style="stroke: rgb(235, 240, 248); stroke-opacity: 1; stroke-width: 1px;"/><path class="xgrid crisp" transform="translate(230.43,0)" d="M0,20v330" style="stroke: rgb(235, 240, 248); stroke-opacity: 1; stroke-width: 1px;"/></g><g class="y"><path class="ygrid crisp" transform="translate(0,304.3)" d="M50,0h206" style="stroke: rgb(235, 240, 248); stroke-opacity: 1; stroke-width: 1px;"/><path class="ygrid crisp" transform="translate(0,258.6)" d="M50,0h206" style="stroke: rgb(235, 240, 248); stroke-opacity: 1; stroke-width: 1px;"/><path class="ygrid crisp" transform="translate(0,212.9)" d="M50,0h206" style="stroke: rgb(235, 240, 248); stroke-opacity: 1; stroke-width: 1px;"/><path class="ygrid crisp" transform="translate(0,167.2)" d="M50,0h206" style="stroke: rgb(235, 240, 248); stroke-opacity: 1; stroke-width: 1px;"/><path class="ygrid crisp" transform="translate(0,121.5)" d="M50,0h206" style="stroke: rgb(235, 240, 248); stroke-opacity: 1; stroke-width: 1px;"/><path class="ygrid crisp" transform="translate(0,75.8)" d="M50,0h206" style="stroke: rgb(235, 240, 248); stroke-opacity: 1; stroke-width: 1px;"/><path class="ygrid crisp" transform="translate(0,30.1)" d="M50,0h206" style="stroke: rgb(235, 240, 248); stroke-opacity: 1; stroke-width: 1px;"/></g></g><g class="zerolinelayer"><path class="yzl zl crisp" transform="translate(0,350)" d="M50,0h206" style="stroke: rgb(235, 240, 248); stroke-opacity: 1; stroke-width: 2px;"/></g><path class="xlines-below"/><path class="ylines-below"/><g class="overlines-below"/><g class="xaxislayer-below"/><g class="yaxislayer-below"/><g class="overaxes-below"/><g class="plot" transform="translate(50,20)" clip-path="url(#clip0deb6exyplot)"><g class="scatterlayer mlayer"><g class="trace scatter trace87d83f" style="stroke-miterlimit: 2; opacity: 1;"><g class="fills"/><g class="errorbars"/><g class="lines"><path class="js-line" d="M0,234.49L2.13,222.61L2.84,222.61L4.26,222.61L4.97,225.8L7.1,220.32L7.81,220.32L9.94,220.32L10.66,218.95L12.79,218.95L13.5,217.58L15.63,216.66L16.34,216.66L17.76,213.92L18.47,213.92L26.28,213.92L26.99,210.72L30.54,210.72L31.26,191.53L39.78,191.53L41.2,204.78L41.91,202.04L43.33,202.04L49.01,201.13L49.72,211.18L51.14,216.21L51.86,214.38L52.57,212.55L53.28,216.66L59.67,216.66L60.38,214.84L61.09,214.84L61.8,216.66L62.51,214.84L63.22,216.21L63.93,214.84L71.74,213.92L72.46,204.78L73.88,208.44L74.59,208.44L75.3,207.52L76.01,192.44L77.43,183.3L78.14,183.3L78.85,181.02L79.56,165.94L80.98,157.26L81.69,157.26L83.11,157.26L83.82,154.51L86.66,140.35L87.37,140.35L91.63,140.8L92.34,141.72L93.06,141.72L93.77,146.29L99.45,146.29L100.16,139.89L100.87,139.89L101.58,128.92L104.42,128.92L105.13,116.58L109.39,116.58L110.1,109.27L111.52,106.53L112.23,106.53L115.08,97.39L115.79,81.85L117.21,81.85L117.92,74.08L119.34,55.34L120.05,55.34L125.02,55.34L125.73,62.2L127.15,65.4L127.86,65.4L128.57,67.23L129.28,74.54L129.99,77.28L130.7,75.45L131.41,72.25L137.1,71.34L137.81,73.62L138.52,72.71L139.23,57.63L141.36,42.09L142.07,43.46L142.78,48.95L143.49,45.75L144.2,37.06L144.91,37.06L145.62,39.35L147.04,44.83L147.75,48.95L148.46,49.4L149.17,64.94L149.88,70.43L150.59,64.94L151.3,67.23L152.01,65.4L152.72,58.09L153.43,56.26L154.14,58.54L155.57,59.91L156.28,57.17L159.12,40.72L159.83,40.72L160.54,42.55L161.25,48.03L161.96,48.95L162.67,45.29L163.38,44.83L164.09,48.03L166.22,82.76L166.93,81.85L167.64,81.85L168.35,82.31L169.06,86.42L169.77,87.79L170.48,86.88L171.19,81.85L173.32,90.08L174.03,83.68L176.17,55.8L176.88,55.34L177.59,45.29L178.3,45.75L179.01,45.29L179.72,43.01L180.43,46.2L181.85,53.52L182.56,53.97L183.27,53.52L183.98,51.23L187.53,45.75L188.24,41.18L189.66,36.61L190.37,24.27L192.5,16.5" style="vector-effect: none; fill: none; stroke: rgb(138, 44, 81); stroke-opacity: 1; stroke-width: 5px; opacity: 1;"/></g><g class="points"/><g class="text"/></g><g class="trace scatter trace13e9a9" style="stroke-miterlimit: 2; opacity: 1;"><g class="fills"/><g class="errorbars"/><g class="lines"><path class="js-line" d="M0,130.75L2.13,137.15L2.84,137.15L4.26,137.15L4.97,140.35L7.1,133.49L7.81,133.49L13.5,134.41L14.21,135.32L16.34,135.32L17.05,137.6L41.2,137.6L41.91,150.4L47.59,150.4L48.3,148.12L49.01,146.29L49.72,135.78L51.14,120.24L51.86,124.35L52.57,128.46L53.28,114.75L59.67,114.75L60.38,121.61L61.09,121.61L61.8,114.75L62.51,121.61L63.22,113.38L64.64,111.56L65.35,120.24L66.77,111.56L67.48,111.56L68.19,111.56L68.9,120.24L69.61,120.24L70.32,111.56L71.74,120.24L72.46,112.01L73.88,122.52L74.59,122.52L75.3,122.52L76.01,125.27L78.14,125.27L78.85,127.55L80.98,138.52L81.69,138.52L84.53,138.52L85.24,139.89L88.08,140.35L88.79,140.35L90.92,140.35L91.63,141.72L93.77,146.29L95.19,146.29L100.16,146.74L100.87,144.92L102.29,149.49L103,149.49L109.39,148.57L110.1,155.88L111.52,157.71L112.23,157.71L115.08,165.48L115.79,156.8L117.21,156.8L117.92,161.37L119.34,167.31L120.05,167.31L125.02,167.31L125.73,160.91L127.15,157.26L127.86,157.26L128.57,155.43L129.28,144.92L129.99,141.72L130.7,142.63L131.41,144L137.1,144L137.81,141.72L138.52,141.72L139.23,153.6L141.36,167.77L142.07,166.4L143.49,157.26L144.2,165.94L144.91,165.94L145.62,163.65L147.04,158.17L147.75,154.06L148.46,153.6L149.17,138.06L149.88,132.58L150.59,138.06L151.3,135.78L152.01,137.6L152.72,144.92L153.43,146.74L154.14,144.46L155.57,143.09L156.28,145.83L159.12,162.28L159.83,162.28L160.54,160.45L161.25,154.97L161.96,154.06L162.67,157.71L163.38,158.17L164.09,154.97L166.22,120.24L166.93,121.15L167.64,121.15L168.35,120.7L169.06,116.58L169.77,115.21L170.48,116.13L171.19,121.15L173.32,112.93L174.03,119.32L176.17,147.2L176.88,147.66L177.59,157.71L178.3,157.26L179.01,157.71L179.72,160L180.43,156.8L181.85,149.49L182.56,149.03L183.27,149.49L183.98,151.77L187.53,157.26L188.24,161.83L189.66,166.4L190.37,178.73L192.5,186.5" style="vector-effect: none; fill: none; stroke: rgb(0, 174, 239); stroke-opacity: 1; stroke-width: 5px; opacity: 1;"/></g><g class="points"/><g class="text"/></g><g class="trace scatter trace00aaff" style="stroke-miterlimit: 2; opacity: 1;"><g class="fills"/><g class="errorbars"/><g class="lines"><path class="js-line" d="M0,282.02L2.84,283.84L3.55,283.84L4.26,283.84L4.97,282.02L5.68,282.47L6.39,284.76L12.79,285.21L13.5,286.59L15.63,287.5L16.34,287.5L30.54,286.59L31.26,293.44L39.78,293.44L41.2,290.7L41.91,296.64L43.33,296.64L48.3,297.1L49.01,298.01L49.72,298.01L50.43,303.04L51.14,303.04L51.86,300.3L52.57,297.55L53.28,305.32L59.67,305.32L60.38,301.67L61.09,301.67L61.8,305.32L62.51,301.67L63.22,304.87L64.64,304.87L65.35,301.21L66.77,304.87L67.48,304.87L68.19,304.87L68.9,301.21L69.61,301.21L70.32,304.87L71.74,301.21L72.46,301.67L73.88,298.47L74.59,298.47L75.3,298.92L76.01,303.49L77.43,305.78L78.14,305.78L81.69,309.89L82.4,309.89L83.82,310.81L84.53,312.63L87.37,315.83L88.08,315.83L115.08,315.83L115.79,324.52L117.92,325.43" style="vector-effect: none; fill: none; stroke: rgb(238, 58, 67); stroke-opacity: 1; stroke-width: 5px; opacity: 1;"/></g><g class="points"/><g class="text"/></g><g class="trace scatter trace492de5" style="stroke-miterlimit: 2; opacity: 1;"><g class="fills"/><g class="errorbars"/><g class="lines"><path class="js-line" d="M0,293.9L3.55,294.81L4.26,294.81L4.97,288.41L5.68,297.1L7.1,302.58L7.81,302.58L26.28,301.67L26.99,301.21L30.54,301.21L31.26,303.49L41.2,302.58L41.91,304.41L51.14,304.87L51.86,306.69L52.57,308.52L53.28,305.32L59.67,305.32L60.38,306.69L61.09,306.69L61.8,305.32L63.93,308.06L64.64,308.06L66.77,308.06L67.48,308.06L71.74,308.52L72.46,309.89L76.01,309.89L76.72,310.81L79.56,311.72L80.27,313.09L84.53,315.83L85.24,316.75L86.66,318.12L87.37,318.12L104.42,318.12L105.13,322.69L115.08,323.15L115.79,324.52L117.92,325.43" style="vector-effect: none; fill: none; stroke: rgb(202, 166, 105); stroke-opacity: 1; stroke-width: 5px; opacity: 1;"/></g><g class="points"/><g class="text"/></g><g class="trace scatter trace0a470c" style="stroke-miterlimit: 2; opacity: 1;"><g class="fills"/><g class="errorbars"/><g class="lines"><path class="js-line" d="M0,283.84L2.13,285.21L2.84,285.21L4.26,285.21L4.97,288.41L7.1,282.93L7.81,282.93L30.54,283.84L31.26,289.33L39.78,289.33L41.2,285.67L41.91,255.97L43.33,255.97L47.59,255.97L48.3,257.34L51.14,261.45L51.86,260.08L52.57,258.25L53.28,261.91L59.67,261.91L60.38,260.08L61.09,260.08L61.8,261.91L62.51,260.08L63.22,262.82L64.64,264.65L65.35,261.45L66.77,264.65L67.48,264.65L68.19,264.65L68.9,261.45L69.61,261.45L70.32,264.65L71.74,261.45L72.46,274.7L73.88,265.56L74.59,265.56L75.3,266.02L76.01,272.88L77.43,278.36L78.14,278.36L78.85,276.99L79.56,281.56L81.69,282.47L82.4,282.47L85.24,282.47L85.95,284.3L90.92,284.3L91.63,282.47L93.77,271.96L95.19,271.96L99.45,271.96L100.16,277.9L100.87,279.73L101.58,286.13L104.42,286.13L105.13,289.78L113.66,290.7L114.37,291.16L115.08,291.16L115.79,305.32L117.21,305.32L117.92,307.15L119.34,309.89L120.05,309.89L128.57,309.89L129.28,314.01L130.7,314.92L131.41,316.75L137.81,317.66L138.52,318.58L140.65,323.15L141.36,323.15L142.78,324.06" style="vector-effect: none; fill: none; stroke: rgb(255, 1, 170); stroke-opacity: 1; stroke-width: 5px; opacity: 1;"/></g><g class="points"/><g class="text"/></g><g class="trace scatter traceca1661" style="stroke-miterlimit: 2; opacity: 1;"><g class="fills"/><g class="errorbars"/><g class="lines"><path class="js-line" d="M0,298.01L3.55,299.38L4.26,299.38L7.1,298.47L7.81,298.47L16.34,298.92L17.05,299.84L26.28,299.84L26.99,303.49L30.54,303.49L31.26,307.15L39.78,307.15L41.2,301.67L41.91,313.55L43.33,313.55L49.72,314.01L50.43,317.2L52.57,317.2L53.28,319.03L71.74,318.12L72.46,319.49L74.59,318.58L75.3,318.58L78.85,319.49L79.56,320.4L83.82,322.23L84.53,324.06L104.42,324.06" style="vector-effect: none; fill: none; stroke: rgb(255, 192, 203); stroke-opacity: 1; stroke-width: 5px; opacity: 1;"/></g><g class="points"/><g class="text"/></g></g></g><g class="overplot"/><path class="xlines-above crisp" d="M0,0" style="fill: none;"/><path class="ylines-above crisp" d="M0,0" style="fill: none;"/><g class="overlines-above"/><g class="xaxislayer-above"><g class="xtick"><text text-anchor="middle" x="0" y="363" transform="translate(57.1,0)" style="font-family: 'Open Sans', verdana, arial, sans-serif; font-size: 12px; fill: rgb(42, 63, 95); fill-opacity: 1; white-space: pre; opacity: 1;">1.7.23</text></g><g class="xtick"><text text-anchor="middle" x="0" y="363" style="font-family: 'Open Sans', verdana, arial, sans-serif; font-size: 12px; fill: rgb(42, 63, 95); fill-opacity: 1; white-space: pre; opacity: 1;" transform="translate(101.14,0)">1.9.23</text></g><g class="xtick"><text text-anchor="middle" x="0" y="363" style="font-family: 'Open Sans', verdana, arial, sans-serif; font-size: 12px; fill: rgb(42, 63, 95); fill-opacity: 1; white-space: pre; opacity: 1;" transform="translate(144.48000000000002,0)">1.11.23</text></g><g class="xtick"><text text-anchor="middle" x="0" y="363" style="font-family: 'Open Sans', verdana, arial, sans-serif; font-size: 12px; fill: rgb(42, 63, 95); fill-opacity: 1; white-space: pre; opacity: 1;" transform="translate(187.81,0)">1.1.24</text></g><g class="xtick"><text text-anchor="middle" x="0" y="363" style="font-family: 'Open Sans', verdana, arial, sans-serif; font-size: 12px; fill: rgb(42, 63, 95); fill-opacity: 1; white-space: pre; opacity: 1;" transform="translate(230.43,0)">1.3.24</text></g></g><g class="yaxislayer-above"><g class="ytick"><text text-anchor="end" x="49" y="4.199999999999999" transform="translate(0,350)" style="font-family: 'Open Sans', verdana, arial, sans-serif; font-size: 12px; fill: rgb(42, 63, 95); fill-opacity: 1; white-space: pre; opacity: 1;">0%</text></g><g class="ytick"><text text-anchor="end" x="49" y="4.199999999999999" style="font-family: 'Open Sans', verdana, arial, sans-serif; font-size: 12px; fill: rgb(42, 63, 95); fill-opacity: 1; white-space: pre; opacity: 1;" transform="translate(0,304.3)">10%</text></g><g class="ytick"><text text-anchor="end" x="49" y="4.199999999999999" style="font-family: 'Open Sans', verdana, arial, sans-serif; font-size: 12px; fill: rgb(42, 63, 95); fill-opacity: 1; white-space: pre; opacity: 1;" transform="translate(0,258.6)">20%</text></g><g class="ytick"><text text-anchor="end" x="49" y="4.199999999999999" style="font-family: 'Open Sans', verdana, arial, sans-serif; font-size: 12px; fill: rgb(42, 63, 95); fill-opacity: 1; white-space: pre; opacity: 1;" transform="translate(0,212.9)">30%</text></g><g class="ytick"><text text-anchor="end" x="49" y="4.199999999999999" style="font-family: 'Open Sans', verdana, arial, sans-serif; font-size: 12px; fill: rgb(42, 63, 95); fill-opacity: 1; white-space: pre; opacity: 1;" transform="translate(0,167.2)">40%</text></g><g class="ytick"><text text-anchor="end" x="49" y="4.199999999999999" style="font-family: 'Open Sans', verdana, arial, sans-serif; font-size: 12px; fill: rgb(42, 63, 95); fill-opacity: 1; white-space: pre; opacity: 1;" transform="translate(0,121.5)">50%</text></g><g class="ytick"><text text-anchor="end" x="49" y="4.199999999999999" style="font-family: 'Open Sans', verdana, arial, sans-serif; font-size: 12px; fill: rgb(42, 63, 95); fill-opacity: 1; white-space: pre; opacity: 1;" transform="translate(0,75.8)">60%</text></g><g class="ytick"><text text-anchor="end" x="49" y="4.199999999999999" style="font-family: 'Open Sans', verdana, arial, sans-serif; font-size: 12px; fill: rgb(42, 63, 95); fill-opacity: 1; white-space: pre; opacity: 1;" transform="translate(0,30.1)">70%</text></g></g><g class="overaxes-above"/></g></g><g class="polarlayer"/><g class="smithlayer"/><g class="ternarylayer"/><g class="geolayer"/><g class="funnelarealayer"/><g class="pielayer"/><g class="iciclelayer"/><g class="treemaplayer"/><g class="sunburstlayer"/><g class="glimages"/><defs id="topdefs-0deb6e"><g class="clips"/><clipPath id="legend0deb6e"><rect width="128" height="124" x="0" y="0"/></clipPath></defs><g class="layer-above"><g class="imagelayer"/><g class="shapelayer"/></g><g class="infolayer"><g class="legend" pointer-events="all" transform="translate(260.12,20)"><rect class="bg" shape-rendering="crispEdges" width="128" height="124" x="0" y="0" style="stroke: rgb(68, 68, 68); stroke-opacity: 1; fill: rgb(255, 255, 255); fill-opacity: 1; stroke-width: 0px;"/><g class="scrollbox" transform="" clip-path="url(#legend0deb6e)"><g class="groups"><g class="traces" transform="translate(0,14.5)" style="opacity: 1;"><text class="legendtext" text-anchor="start" x="40" y="4.680000000000001" style="font-family: 'Open Sans', verdana, arial, sans-serif; font-size: 12px; fill: rgb(42, 63, 95); fill-opacity: 1; white-space: pre;">Pellegrini Peter</text><g class="layers" style="opacity: 1;"><g class="legendfill"/><g class="legendlines"><path class="js-line" d="M5,0h30" style="fill: none; stroke: rgb(138, 44, 81); stroke-opacity: 1; stroke-width: 5px;"/></g><g class="legendsymbols"><g class="legendpoints"/></g></g><rect class="legendtoggle" x="0" y="-9.5" width="122.703125" height="19" style="fill: rgb(0, 0, 0); fill-opacity: 0;"/></g><g class="traces" transform="translate(0,33.5)" style="opacity: 1;"><text class="legendtext" text-anchor="start" x="40" y="4.680000000000001" style="font-family: 'Open Sans', verdana, arial, sans-serif; font-size: 12px; fill: rgb(42, 63, 95); fill-opacity: 1; white-space: pre;">Korčok Ivan</text><g class="layers" style="opacity: 1;"><g class="legendfill"/><g class="legendlines"><path class="js-line" d="M5,0h30" style="fill: none; stroke: rgb(0, 174, 239); stroke-opacity: 1; stroke-width: 5px;"/></g><g class="legendsymbols"><g class="legendpoints"/></g></g><rect class="legendtoggle" x="0" y="-9.5" width="122.703125" height="19" style="fill: rgb(0, 0, 0); fill-opacity: 0;"/></g><g class="traces" transform="translate(0,52.5)" style="opacity: 1;"><text class="legendtext" text-anchor="start" x="40" y="4.680000000000001" style="font-family: 'Open Sans', verdana, arial, sans-serif; font-size: 12px; fill: rgb(42, 63, 95); fill-opacity: 1; white-space: pre;">Fico Robert</text><g class="layers" style="opacity: 1;"><g class="legendfill"/><g class="legendlines"><path class="js-line" d="M5,0h30" style="fill: none; stroke: rgb(238, 58, 67); stroke-opacity: 1; stroke-width: 5px;"/></g><g class="legendsymbols"><g class="legendpoints"/></g></g><rect class="legendtoggle" x="0" y="-9.5" width="122.703125" height="19" style="fill: rgb(0, 0, 0); fill-opacity: 0;"/></g><g class="traces" transform="translate(0,71.5)" style="opacity: 1;"><text class="legendtext" text-anchor="start" x="40" y="4.680000000000001" style="font-family: 'Open Sans', verdana, arial, sans-serif; font-size: 12px; fill: rgb(42, 63, 95); fill-opacity: 1; white-space: pre;">Mistrík Robert</text><g class="layers" style="opacity: 1;"><g class="legendfill"/><g class="legendlines"><path class="js-line" d="M5,0h30" style="fill: none; stroke: rgb(202, 166, 105); stroke-opacity: 1; stroke-width: 5px;"/></g><g class="legendsymbols"><g class="legendpoints"/></g></g><rect class="legendtoggle" x="0" y="-9.5" width="122.703125" height="19" style="fill: rgb(0, 0, 0); fill-opacity: 0;"/></g><g class="traces" transform="translate(0,90.5)" style="opacity: 1;"><text class="legendtext" text-anchor="start" x="40" y="4.680000000000001" style="font-family: 'Open Sans', verdana, arial, sans-serif; font-size: 12px; fill: rgb(42, 63, 95); fill-opacity: 1; white-space: pre;">Kubiš Ján</text><g class="layers" style="opacity: 1;"><g class="legendfill"/><g class="legendlines"><path class="js-line" d="M5,0h30" style="fill: none; stroke: rgb(255, 1, 170); stroke-opacity: 1; stroke-width: 5px;"/></g><g class="legendsymbols"><g class="legendpoints"/></g></g><rect class="legendtoggle" x="0" y="-9.5" width="122.703125" height="19" style="fill: rgb(0, 0, 0); fill-opacity: 0;"/></g><g class="traces" transform="translate(0,109.5)" style="opacity: 1;"><text class="legendtext" text-anchor="start" x="40" y="4.680000000000001" style="font-family: 'Open Sans', verdana, arial, sans-serif; font-size: 12px; fill: rgb(42, 63, 95); fill-opacity: 1; white-space: pre;">Lajčák Miroslav</text><g class="layers" style="opacity: 1;"><g class="legendfill"/><g class="legendlines"><path class="js-line" d="M5,0h30" style="fill: none; stroke: rgb(255, 192, 203); stroke-opacity: 1; stroke-width: 5px;"/></g><g class="legendsymbols"><g class="legendpoints"/></g></g><rect class="legendtoggle" x="0" y="-9.5" width="122.703125" height="19" style="fill: rgb(0, 0, 0); fill-opacity: 0;"/></g></g></g><rect class="scrollbar" rx="20" ry="3" width="0" height="0" x="0" y="0" style="fill: rgb(128, 139, 164); fill-opacity: 1;"/></g><g class="g-gtitle"/><g class="g-xtitle"/><g class="g-ytitle"/></g></svg>