<svg class="main-svg" xmlns="http://www.w3.org/2000/svg" xmlns:xlink="http://www.w3.org/1999/xlink" width="300" height="135" style="" viewBox="0 0 300 135"><rect x="0" y="0" width="300" height="135" style="fill: rgb(255, 255, 255); fill-opacity: 1;"/><defs id="defs-1fd6e7"><g class="clips"><clipPath id="clip1fd6e7xyplot" class="plotclip"><rect width="280" height="75"/></clipPath><clipPath class="axesclip" id="clip1fd6e7x"><rect x="10" y="0" width="280" height="135"/></clipPath><clipPath class="axesclip" id="clip1fd6e7y"><rect x="0" y="50" width="300" height="75"/></clipPath><clipPath class="axesclip" id="clip1fd6e7xy"><rect x="10" y="50" width="280" height="75"/></clipPath></g><g class="gradients"/><g class="patterns"/></defs><g class="bglayer"/><g class="layer-below"><g class="imagelayer"/><g class="shapelayer"/></g><g class="cartesianlayer"><g class="subplot xy"><g class="layer-subplot"><g class="shapelayer"/><g class="imagelayer"/></g><g class="minor-gridlayer"><g class="x"/><g class="y"/></g><g class="gridlayer"><g class="x"><path class="xgrid crisp" transform="translate(25.560000000000002,0)" d="M0,50v75" style="stroke: rgb(235, 240, 248); stroke-opacity: 1; stroke-width: 1px;"/><path class="xgrid crisp" transform="translate(122,0)" d="M0,50v75" style="stroke: rgb(235, 240, 248); stroke-opacity: 1; stroke-width: 1px;"/><path class="xgrid crisp" transform="translate(216.89,0)" d="M0,50v75" style="stroke: rgb(235, 240, 248); stroke-opacity: 1; stroke-width: 1px;"/></g><g class="y"><path class="ygrid crisp" transform="translate(0,101.28999999999999)" d="M10,0h280" style="stroke: rgb(235, 240, 248); stroke-opacity: 1; stroke-width: 1px;"/><path class="ygrid crisp" transform="translate(0,77.58)" d="M10,0h280" style="stroke: rgb(235, 240, 248); stroke-opacity: 1; stroke-width: 1px;"/><path class="ygrid crisp" transform="translate(0,53.87)" d="M10,0h280" style="stroke: rgb(235, 240, 248); stroke-opacity: 1; stroke-width: 1px;"/></g></g><g class="zerolinelayer"><path class="yzl zl crisp" transform="translate(0,125)" d="M10,0h280" style="stroke: rgb(235, 240, 248); stroke-opacity: 1; stroke-width: 2px;"/></g><path class="xlines-below"/><path class="ylines-below"/><g class="overlines-below"/><g class="xaxislayer-below"/><g class="yaxislayer-below"/><g class="overaxes-below"/><g class="plot" transform="translate(10,50)" clip-path="url(#clip1fd6e7xyplot)"><g class="scatterlayer mlayer"><g class="trace scatter traceb7e372" style="stroke-miterlimit: 2; opacity: 1;"><g class="fills"/><g class="errorbars"/><g class="lines"><path class="js-line" d="M0,50.22L4.67,47.14L6.22,47.14L12.44,47.38L14,46.55L35.78,45.6L37.33,44.89L66.89,44.06L68.44,39.08L87.11,39.08L90.22,42.52L91.78,41.81L94.89,41.81L107.33,41.57L108.89,44.18L112,45.48L113.56,45.01L115.11,44.53L116.67,45.6L157.11,44.89L158.67,42.52L161.78,43.47L163.33,43.47L164.89,43.23L166.44,39.32L168,36.94L169.56,36.94L172.67,36.35L174.22,32.44L177.33,30.19L178.89,30.19L183.56,29.48L185.11,28.41L189.78,25.8L191.33,25.8L203.78,26.16L205.33,27.34L217.78,27.34L219.33,25.68L220.89,25.68L222.44,22.84L228.67,22.84L230.22,19.64L239.56,19.64L241.11,17.74L244.22,17.03L245.78,17.03L252,14.66L253.56,10.63L256.67,10.63L258.22,8.61L259.78,3.75L261.33,3.75L273.78,3.75L275.33,5.53L278.44,6.36L280,6.36" style="vector-effect: none; fill: none; stroke: rgb(138, 44, 81); stroke-opacity: 1; stroke-width: 5px; opacity: 1;"/></g><g class="points"/><g class="text"/></g><g class="trace scatter trace844873" style="stroke-miterlimit: 2; opacity: 1;"><g class="fills"/><g class="errorbars"/><g class="lines"><path class="js-line" d="M0,23.31L4.67,24.97L6.22,24.97L12.44,24.73L14,24.02L90.22,25.09L91.78,28.41L107.33,27.34L108.89,24.62L110.44,20.58L112,20.58L115.11,22.72L116.67,19.16L130.67,19.16L132.22,20.94L133.78,20.94L135.33,19.16L136.89,20.94L138.44,18.81L141.56,18.33L143.11,20.58L144.67,18.33L146.22,18.33L149.33,18.33L150.89,20.58L152.44,20.58L154,18.33L155.56,20.58L157.11,20.58L158.67,18.45L160.22,21.18L171.11,21.89L172.67,22.48L175.78,25.21L177.33,25.33L200.67,26.16L202.22,26.87L220.89,26.99L222.44,28.17L239.56,27.93L241.11,29.83L252,32.32L253.56,30.07L258.22,31.25L259.78,32.8L273.78,32.8L275.33,31.14L278.44,30.19L280,30.19" style="vector-effect: none; fill: none; stroke: rgb(0, 174, 239); stroke-opacity: 1; stroke-width: 5px; opacity: 1;"/></g><g class="points"/><g class="text"/></g><g class="trace scatter trace17b308" style="stroke-miterlimit: 2; opacity: 1;"><g class="fills"/><g class="errorbars"/><g class="lines"><path class="js-line" d="M0,63.03L10.89,64.21L12.44,63.5L15.56,62.79L17.11,62.79L66.89,63.03L68.44,64.45L90.22,63.5L91.78,55.79L108.89,56.51L110.44,57.22L138.44,57.57L140,58.05L157.11,57.22L158.67,60.66L160.22,58.28L161.78,58.28L164.89,58.4L166.44,60.18L169.56,61.6L171.11,61.6L172.67,61.25L174.22,62.43L182,62.67L183.56,62.55L191.33,63.14L192.89,63.14L200.67,62.67L202.22,61.6L203.78,61.6L205.33,59.94L217.78,59.94L219.33,61.49L225.56,63.62L227.11,63.62L248.89,64.8L250.44,64.92L252,64.92L253.56,68.6L273.78,69.78L275.33,69.9L280,69.9" style="vector-effect: none; fill: none; stroke: rgb(255, 1, 170); stroke-opacity: 1; stroke-width: 5px; opacity: 1;"/></g><g class="points"/><g class="text"/></g><g class="trace scatter trace5e8e19" style="stroke-miterlimit: 2; opacity: 1;"><g class="fills"/><g class="errorbars"/><g class="lines"><path class="js-line" d="M0,62.55L9.33,63.03L10.89,62.55L38.89,63.97L40.44,63.97L66.89,63.74L68.44,65.52L90.22,64.8L91.78,66.35L108.89,66.7L110.44,68.01L113.56,67.29L115.11,66.58L118.22,68.6L119.78,68.6L158.67,67.65L160.22,66.82L164.89,66.94L166.44,68.12L171.11,68.72L172.67,68.95L180.44,69.78L182,69.78L196,71.32L197.56,71.32L252,71.32L253.56,73.58L258.22,73.81" style="vector-effect: none; fill: none; stroke: rgb(238, 58, 67); stroke-opacity: 1; stroke-width: 5px; opacity: 1;"/></g><g class="points"/><g class="text"/></g><g class="trace scatter trace8fe923" style="stroke-miterlimit: 2; opacity: 1;"><g class="fills"/><g class="errorbars"/><g class="lines"><path class="js-line" d="M0,66.7L15.56,66.82L17.11,66.82L57.56,67.18L59.11,68.12L87.11,69.07L90.22,67.65L91.78,70.73L94.89,70.73L115.11,71.68L116.67,72.15L183.56,72.98L185.11,73.46L228.67,73.46" style="vector-effect: none; fill: none; stroke: rgb(255, 192, 203); stroke-opacity: 1; stroke-width: 5px; opacity: 1;"/></g><g class="points"/><g class="text"/></g></g></g><g class="overplot"/><path class="xlines-above crisp" d="M0,0" style="fill: none;"/><path class="ylines-above crisp" d="M0,0" style="fill: none;"/><g class="overlines-above"/><g class="xaxislayer-above"/><g class="yaxislayer-above"/><g class="overaxes-above"/></g></g><g class="polarlayer"/><g class="smithlayer"/><g class="ternarylayer"/><g class="geolayer"/><g class="funnelarealayer"/><g class="pielayer"/><g class="iciclelayer"/><g class="treemaplayer"/><g class="sunburstlayer"/><g class="glimages"/><defs id="topdefs-1fd6e7"><g class="clips"/></defs><g class="layer-above"><g class="imagelayer"/><g class="shapelayer"/></g><g class="infolayer"><g class="g-gtitle"><text class="gtitle" x="15" y="25" text-anchor="start" dy="0em" style="font-family: Ubuntu, verdana, arial, sans-serif; font-size: 16px; fill: rgb(233, 84, 32); opacity: 1; font-weight: normal; white-space: pre;">Prezident/ka 2024</text></g><g class="g-xtitle"/><g class="g-ytitle"/></g></svg>