<svg class="main-svg" xmlns="http://www.w3.org/2000/svg" xmlns:xlink="http://www.w3.org/1999/xlink" width="300" height="135" style="" viewBox="0 0 300 135"><rect x="0" y="0" width="300" height="135" style="fill: rgb(255, 255, 255); fill-opacity: 1;"/><defs id="defs-c02248"><g class="clips"><clipPath id="clipc02248xyplot" class="plotclip"><rect width="280" height="75"/></clipPath><clipPath class="axesclip" id="clipc02248x"><rect x="10" y="0" width="280" height="135"/></clipPath><clipPath class="axesclip" id="clipc02248y"><rect x="0" y="50" width="300" height="75"/></clipPath><clipPath class="axesclip" id="clipc02248xy"><rect x="10" y="50" width="280" height="75"/></clipPath></g><g class="gradients"/><g class="patterns"/></defs><g class="bglayer"/><g class="layer-below"><g class="imagelayer"/><g class="shapelayer"/></g><g class="cartesianlayer"><g class="subplot xy"><g class="layer-subplot"><g class="shapelayer"/><g class="imagelayer"/></g><g class="minor-gridlayer"><g class="x"/><g class="y"/></g><g class="gridlayer"><g class="x"><path class="xgrid crisp" transform="translate(23.59,0)" d="M0,50v75" style="stroke: rgb(235, 240, 248); stroke-opacity: 1; stroke-width: 1px;"/><path class="xgrid crisp" transform="translate(107.86,0)" d="M0,50v75" style="stroke: rgb(235, 240, 248); stroke-opacity: 1; stroke-width: 1px;"/><path class="xgrid crisp" transform="translate(190.78,0)" d="M0,50v75" style="stroke: rgb(235, 240, 248); stroke-opacity: 1; stroke-width: 1px;"/><path class="xgrid crisp" transform="translate(273.69,0)" d="M0,50v75" style="stroke: rgb(235, 240, 248); stroke-opacity: 1; stroke-width: 1px;"/></g><g class="y"><path class="ygrid crisp" transform="translate(0,102.77000000000001)" d="M10,0h280" style="stroke: rgb(235, 240, 248); stroke-opacity: 1; stroke-width: 1px;"/><path class="ygrid crisp" transform="translate(0,80.53999999999999)" d="M10,0h280" style="stroke: rgb(235, 240, 248); stroke-opacity: 1; stroke-width: 1px;"/><path class="ygrid crisp" transform="translate(0,58.31)" d="M10,0h280" style="stroke: rgb(235, 240, 248); stroke-opacity: 1; stroke-width: 1px;"/></g></g><g class="zerolinelayer"><path class="yzl zl crisp" transform="translate(0,125)" d="M10,0h280" style="stroke: rgb(235, 240, 248); stroke-opacity: 1; stroke-width: 2px;"/></g><path class="xlines-below"/><path class="ylines-below"/><g class="overlines-below"/><g class="xaxislayer-below"/><g class="yaxislayer-below"/><g class="overaxes-below"/><g class="plot" transform="translate(10,50)" clip-path="url(#clipc02248xyplot)"><g class="scatterlayer mlayer"><g class="trace scatter trace1131b1" style="stroke-miterlimit: 2; opacity: 1;"><g class="fills"/><g class="errorbars"/><g class="lines"><path class="js-line" d="M0,51.77L4.08,48.88L5.44,48.88L10.87,49.1L12.23,48.32L31.26,47.43L32.62,46.77L58.45,45.99L59.81,41.32L76.12,41.32L78.83,44.54L82.91,43.88L84.27,43.88L93.79,43.65L95.15,46.1L97.86,47.32L99.22,46.88L100.58,46.43L101.94,47.43L137.28,46.77L138.64,44.54L141.36,45.43L142.72,45.43L144.08,45.21L145.44,41.54L148.16,39.32L149.51,39.32L150.87,38.76L152.23,35.1L154.95,32.98L156.31,32.98L160.39,32.32L161.75,31.32L165.83,28.87L167.18,28.87L178.06,29.2L179.42,30.32L190.29,30.32L191.65,28.76L193.01,28.76L194.37,26.09L199.81,26.09L201.17,23.09L209.32,23.09L210.68,21.31L218.83,18.42L220.19,18.42L221.55,14.64L222.91,14.64L224.27,14.64L225.63,12.75L226.99,8.2L228.35,8.2L239.22,8.2L240.58,9.86L243.3,10.64L244.66,10.64L246.02,11.09L247.38,12.86L250.1,13.09L251.46,12.31L265.05,12.42L266.41,8.75L269.13,5.08L270.49,4.97L274.56,5.86L275.92,3.75L280,4.75" style="vector-effect: none; fill: none; stroke: rgb(138, 44, 81); stroke-opacity: 1; stroke-width: 5px; opacity: 1;"/></g><g class="points"/><g class="text"/></g><g class="trace scatter trace589d09" style="stroke-miterlimit: 2; opacity: 1;"><g class="fills"/><g class="errorbars"/><g class="lines"><path class="js-line" d="M0,26.54L5.44,28.09L6.8,28.09L10.87,27.87L12.23,27.2L78.83,28.2L80.19,31.32L93.79,30.32L95.15,27.76L96.5,23.98L97.86,23.98L100.58,25.98L101.94,22.65L114.17,22.65L115.53,24.31L116.89,24.31L118.25,22.65L119.61,24.31L120.97,22.31L123.69,21.87L125.05,23.98L127.77,21.87L129.13,21.87L130.49,21.87L131.84,23.98L133.2,23.98L134.56,21.87L137.28,23.98L138.64,21.98L141.36,24.54L142.72,24.54L150.87,25.76L152.23,27.65L156.31,28.43L157.67,28.43L175.34,29.2L176.7,29.87L209.32,30.87L210.68,32.65L220.19,34.98L221.55,32.87L225.63,33.98L226.99,35.43L239.22,35.43L240.58,33.87L243.3,32.98L244.66,32.98L246.02,32.54L247.38,29.98L250.1,29.43L251.46,29.76L265.05,29.2L266.41,32.09L269.13,35.43L270.49,35.54L273.2,33.76L274.56,32.98L277.28,35.1L278.64,34.54L280,34.1" style="vector-effect: none; fill: none; stroke: rgb(0, 174, 239); stroke-opacity: 1; stroke-width: 5px; opacity: 1;"/></g><g class="points"/><g class="text"/></g><g class="trace scatter trace74dcf2" style="stroke-miterlimit: 2; opacity: 1;"><g class="fills"/><g class="errorbars"/><g class="lines"><path class="js-line" d="M0,63.33L8.16,63.77L9.51,63.33L35.34,64.66L36.7,64.66L58.45,64.44L59.81,66.11L78.83,65.44L80.19,66.89L95.15,67.22L96.5,68.44L99.22,67.77L100.58,67.11L103.3,69L104.66,69L138.64,68.11L140,67.33L145.44,68.55L146.8,69.11L160.39,70.33L161.75,70.78L171.26,71.55L172.62,71.55L220.19,71.55L221.55,73.67L225.63,73.89" style="vector-effect: none; fill: none; stroke: rgb(238, 58, 67); stroke-opacity: 1; stroke-width: 5px; opacity: 1;"/></g><g class="points"/><g class="text"/></g><g class="trace scatter tracea52512" style="stroke-miterlimit: 2; opacity: 1;"><g class="fills"/><g class="errorbars"/><g class="lines"><path class="js-line" d="M0,67.22L14.95,67.33L16.31,67.33L58.45,68.55L59.81,69.44L76.12,69.44L78.83,68.11L80.19,71L82.91,71L100.58,71.89L101.94,72.33L160.39,73.11L161.75,73.55L199.81,73.55" style="vector-effect: none; fill: none; stroke: rgb(255, 192, 203); stroke-opacity: 1; stroke-width: 5px; opacity: 1;"/></g><g class="points"/><g class="text"/></g><g class="trace scatter trace107934" style="stroke-miterlimit: 2; opacity: 1;"><g class="fills"/><g class="errorbars"/><g class="lines"><path class="js-line" d="M0,63.77L9.51,64.88L10.87,64.22L14.95,63.55L16.31,63.55L58.45,63.77L59.81,65.11L78.83,64.22L80.19,56.99L95.15,57.66L96.5,58.33L120.97,58.66L122.33,59.1L137.28,58.33L138.64,61.55L141.36,59.33L142.72,59.33L144.08,59.44L145.44,61.11L148.16,62.44L149.51,62.44L150.87,62.11L152.23,63.22L160.39,63.33L161.75,63.22L171.26,63.88L172.62,63.88L175.34,63.44L176.7,62.44L178.06,62.44L179.42,60.88L190.29,60.88L191.65,62.33L197.09,64.33L198.45,64.33L220.19,65.55L221.55,69L246.02,70.11L247.38,71.11L265.05,72.22L266.41,73L273.2,73.55" style="vector-effect: none; fill: none; stroke: rgb(255, 1, 170); stroke-opacity: 1; stroke-width: 5px; opacity: 1;"/></g><g class="points"/><g class="text"/></g></g></g><g class="overplot"/><path class="xlines-above crisp" d="M0,0" style="fill: none;"/><path class="ylines-above crisp" d="M0,0" style="fill: none;"/><g class="overlines-above"/><g class="xaxislayer-above"/><g class="yaxislayer-above"/><g class="overaxes-above"/></g></g><g class="polarlayer"/><g class="smithlayer"/><g class="ternarylayer"/><g class="geolayer"/><g class="funnelarealayer"/><g class="pielayer"/><g class="iciclelayer"/><g class="treemaplayer"/><g class="sunburstlayer"/><g class="glimages"/><defs id="topdefs-c02248"><g class="clips"/></defs><g class="layer-above"><g class="imagelayer"/><g class="shapelayer"/></g><g class="infolayer"><g class="g-gtitle"><text class="gtitle" x="15" y="25" text-anchor="start" dy="0em" style="font-family: Ubuntu, verdana, arial, sans-serif; font-size: 16px; fill: rgb(233, 84, 32); opacity: 1; font-weight: normal; white-space: pre;">Prezident/ka 2024</text></g><g class="g-xtitle"/><g class="g-ytitle"/></g></svg>