<svg class="main-svg" xmlns="http://www.w3.org/2000/svg" xmlns:xlink="http://www.w3.org/1999/xlink" width="300" height="135" style="" viewBox="0 0 300 135"><rect x="0" y="0" width="300" height="135" style="fill: rgb(255, 255, 255); fill-opacity: 1;"/><defs id="defs-f4d99f"><g class="clips"><clipPath id="clipf4d99fxyplot" class="plotclip"><rect width="280" height="75"/></clipPath><clipPath class="axesclip" id="clipf4d99fx"><rect x="10" y="0" width="280" height="135"/></clipPath><clipPath class="axesclip" id="clipf4d99fy"><rect x="0" y="50" width="300" height="75"/></clipPath><clipPath class="axesclip" id="clipf4d99fxy"><rect x="10" y="50" width="280" height="75"/></clipPath></g><g class="gradients"/><g class="patterns"/></defs><g class="bglayer"/><g class="layer-below"><g class="imagelayer"/><g class="shapelayer"/></g><g class="cartesianlayer"><g class="subplot xy"><g class="layer-subplot"><g class="shapelayer"/><g class="imagelayer"/></g><g class="minor-gridlayer"><g class="x"/><g class="y"/></g><g class="gridlayer"><g class="x"><path class="xgrid crisp" transform="translate(23.86,0)" d="M0,50v75" style="stroke: rgb(235, 240, 248); stroke-opacity: 1; stroke-width: 1px;"/><path class="xgrid crisp" transform="translate(109.8,0)" d="M0,50v75" style="stroke: rgb(235, 240, 248); stroke-opacity: 1; stroke-width: 1px;"/><path class="xgrid crisp" transform="translate(194.36,0)" d="M0,50v75" style="stroke: rgb(235, 240, 248); stroke-opacity: 1; stroke-width: 1px;"/><path class="xgrid crisp" transform="translate(278.91,0)" d="M0,50v75" style="stroke: rgb(235, 240, 248); stroke-opacity: 1; stroke-width: 1px;"/></g><g class="y"><path class="ygrid crisp" transform="translate(0,102.38)" d="M10,0h280" style="stroke: rgb(235, 240, 248); stroke-opacity: 1; stroke-width: 1px;"/><path class="ygrid crisp" transform="translate(0,79.76)" d="M10,0h280" style="stroke: rgb(235, 240, 248); stroke-opacity: 1; stroke-width: 1px;"/><path class="ygrid crisp" transform="translate(0,57.14)" d="M10,0h280" style="stroke: rgb(235, 240, 248); stroke-opacity: 1; stroke-width: 1px;"/></g></g><g class="zerolinelayer"><path class="yzl zl crisp" transform="translate(0,125)" d="M10,0h280" style="stroke: rgb(235, 240, 248); stroke-opacity: 1; stroke-width: 2px;"/></g><path class="xlines-below"/><path class="ylines-below"/><g class="overlines-below"/><g class="xaxislayer-below"/><g class="yaxislayer-below"/><g class="overaxes-below"/><g class="plot" transform="translate(10,50)" clip-path="url(#clipf4d99fxyplot)"><g class="scatterlayer mlayer"><g class="trace scatter trace2eb952" style="stroke-miterlimit: 2; opacity: 1;"><g class="fills"/><g class="errorbars"/><g class="lines"><path class="js-line" d="M0,51.36L4.16,48.42L5.54,48.42L11.09,48.65L12.48,47.86L31.88,46.95L33.27,46.27L59.6,45.48L60.99,40.73L77.62,40.73L80.4,44.01L84.55,43.33L85.94,43.33L95.64,43.11L97.03,45.6L99.8,46.84L101.19,46.39L102.57,45.93L103.96,46.95L140,46.27L141.39,44.01L144.16,44.92L145.54,44.92L146.93,44.69L148.32,40.96L151.09,38.7L152.48,38.7L153.86,38.13L155.25,34.4L158.02,32.25L159.41,32.25L163.56,31.57L164.95,30.55L169.11,28.07L170.5,28.07L181.58,28.4L182.97,29.54L194.06,29.54L195.45,27.95L196.83,27.95L198.22,25.24L203.76,25.24L205.15,22.18L213.47,22.18L214.85,20.38L223.17,17.43L224.55,17.43L225.94,13.59L227.33,13.59L228.71,13.59L230.1,11.67L231.49,7.03L232.87,7.03L243.96,7.03L245.35,8.73L248.12,9.52L249.5,9.52L250.89,9.97L252.28,11.78L255.05,12.01L256.44,11.21L270.3,11.33L271.68,7.6L274.46,3.86L275.84,3.75L278.61,5.45L280,6.46" style="vector-effect: none; fill: none; stroke: rgb(138, 44, 81); stroke-opacity: 1; stroke-width: 5px; opacity: 1;"/></g><g class="points"/><g class="text"/></g><g class="trace scatter tracef36d28" style="stroke-miterlimit: 2; opacity: 1;"><g class="fills"/><g class="errorbars"/><g class="lines"><path class="js-line" d="M0,25.69L5.54,27.27L6.93,27.27L11.09,27.05L12.48,26.37L80.4,27.39L81.78,30.55L95.64,29.54L97.03,26.93L98.42,23.09L99.8,23.09L102.57,25.13L103.96,21.73L116.44,21.73L117.82,23.43L119.21,23.43L120.59,21.73L121.98,23.43L123.37,21.39L126.14,20.94L127.52,23.09L130.3,20.94L131.68,20.94L133.07,20.94L134.46,23.09L135.84,23.09L137.23,20.94L140,23.09L141.39,21.05L144.16,23.65L145.54,23.65L153.86,24.9L155.25,26.82L159.41,27.61L160.79,27.61L178.81,28.4L180.2,29.08L213.47,30.1L214.85,31.91L224.55,34.29L225.94,32.14L230.1,33.27L231.49,34.74L243.96,34.74L245.35,33.15L248.12,32.25L249.5,32.25L250.89,31.8L252.28,29.2L255.05,28.63L256.44,28.97L270.3,28.4L271.68,31.35L274.46,34.74L275.84,34.85L278.61,33.04L280,31.68" style="vector-effect: none; fill: none; stroke: rgb(0, 174, 239); stroke-opacity: 1; stroke-width: 5px; opacity: 1;"/></g><g class="points"/><g class="text"/></g><g class="trace scatter trace5f7800" style="stroke-miterlimit: 2; opacity: 1;"><g class="fills"/><g class="errorbars"/><g class="lines"><path class="js-line" d="M0,63.58L9.7,64.71L11.09,64.03L15.25,63.35L16.63,63.35L59.6,63.58L60.99,64.93L80.4,64.03L81.78,56.68L97.03,57.36L98.42,58.04L123.37,58.38L124.75,58.83L140,58.04L141.39,61.32L144.16,59.05L145.54,59.05L146.93,59.17L148.32,60.86L151.09,62.22L152.48,62.22L153.86,61.88L155.25,63.01L163.56,63.13L164.95,63.01L174.65,63.69L176.04,63.69L178.81,63.24L180.2,62.22L181.58,62.22L182.97,60.64L194.06,60.64L195.45,62.11L200.99,64.14L202.38,64.14L224.55,65.39L225.94,68.89L250.89,70.02L252.28,71.04L270.3,72.17L271.68,72.96L280,73.76" style="vector-effect: none; fill: none; stroke: rgb(255, 1, 170); stroke-opacity: 1; stroke-width: 5px; opacity: 1;"/></g><g class="points"/><g class="text"/></g><g class="trace scatter tracedf5848" style="stroke-miterlimit: 2; opacity: 1;"><g class="fills"/><g class="errorbars"/><g class="lines"><path class="js-line" d="M0,66.07L8.32,66.29L9.7,64.71L12.48,68.21L13.86,68.21L99.8,68.78L101.19,69.23L103.96,68.89L105.35,68.89L148.32,70.02L149.7,70.25L164.95,71.49L166.34,71.72L171.88,72.06L173.27,72.06L224.55,73.3L225.94,73.64L230.1,73.87" style="vector-effect: none; fill: none; stroke: rgb(202, 166, 105); stroke-opacity: 1; stroke-width: 5px; opacity: 1;"/></g><g class="points"/><g class="text"/></g><g class="trace scatter trace4b2ede" style="stroke-miterlimit: 2; opacity: 1;"><g class="fills"/><g class="errorbars"/><g class="lines"><path class="js-line" d="M0,63.13L8.32,63.58L9.7,63.13L36.04,64.48L37.43,64.48L59.6,64.26L60.99,65.95L80.4,65.27L81.78,66.74L97.03,67.08L98.42,68.33L101.19,67.65L102.57,66.97L105.35,68.89L106.73,68.89L141.39,67.99L142.77,67.2L148.32,68.44L149.7,69.01L163.56,70.25L164.95,70.7L174.65,71.49L176.04,71.49L224.55,71.49L225.94,73.64L230.1,73.87" style="vector-effect: none; fill: none; stroke: rgb(238, 58, 67); stroke-opacity: 1; stroke-width: 5px; opacity: 1;"/></g><g class="points"/><g class="text"/></g></g></g><g class="overplot"/><path class="xlines-above crisp" d="M0,0" style="fill: none;"/><path class="ylines-above crisp" d="M0,0" style="fill: none;"/><g class="overlines-above"/><g class="xaxislayer-above"/><g class="yaxislayer-above"/><g class="overaxes-above"/></g></g><g class="polarlayer"/><g class="smithlayer"/><g class="ternarylayer"/><g class="geolayer"/><g class="funnelarealayer"/><g class="pielayer"/><g class="iciclelayer"/><g class="treemaplayer"/><g class="sunburstlayer"/><g class="glimages"/><defs id="topdefs-f4d99f"><g class="clips"/></defs><g class="layer-above"><g class="imagelayer"/><g class="shapelayer"/></g><g class="infolayer"><g class="g-gtitle"><text class="gtitle" x="15" y="25" text-anchor="start" dy="0em" style="font-family: Ubuntu, verdana, arial, sans-serif; font-size: 16px; fill: rgb(233, 84, 32); opacity: 1; font-weight: normal; white-space: pre;">Prezident/ka 2024</text></g><g class="g-xtitle"/><g class="g-ytitle"/></g></svg>