<svg class="main-svg" xmlns="http://www.w3.org/2000/svg" xmlns:xlink="http://www.w3.org/1999/xlink" width="300" height="135" style="" viewBox="0 0 300 135"><rect x="0" y="0" width="300" height="135" style="fill: rgb(255, 255, 255); fill-opacity: 1;"/><defs id="defs-dae441"><g class="clips"><clipPath id="clipdae441xyplot" class="plotclip"><rect width="280" height="75"/></clipPath><clipPath class="axesclip" id="clipdae441x"><rect x="10" y="0" width="280" height="135"/></clipPath><clipPath class="axesclip" id="clipdae441y"><rect x="0" y="50" width="300" height="75"/></clipPath><clipPath class="axesclip" id="clipdae441xy"><rect x="10" y="50" width="280" height="75"/></clipPath></g><g class="gradients"/><g class="patterns"/></defs><g class="bglayer"/><g class="layer-below"><g class="imagelayer"/><g class="shapelayer"/></g><g class="cartesianlayer"><g class="subplot xy"><g class="layer-subplot"><g class="shapelayer"/><g class="imagelayer"/></g><g class="minor-gridlayer"><g class="x"/><g class="y"/></g><g class="gridlayer"><g class="x"><path class="xgrid crisp" transform="translate(27.83,0)" d="M0,50v75" style="stroke: rgb(235, 240, 248); stroke-opacity: 1; stroke-width: 1px;"/><path class="xgrid crisp" transform="translate(138.41,0)" d="M0,50v75" style="stroke: rgb(235, 240, 248); stroke-opacity: 1; stroke-width: 1px;"/><path class="xgrid crisp" transform="translate(247.2,0)" d="M0,50v75" style="stroke: rgb(235, 240, 248); stroke-opacity: 1; stroke-width: 1px;"/></g><g class="y"><path class="ygrid crisp" transform="translate(0,95.86)" d="M10,0h280" style="stroke: rgb(235, 240, 248); stroke-opacity: 1; stroke-width: 1px;"/><path class="ygrid crisp" transform="translate(0,66.72)" d="M10,0h280" style="stroke: rgb(235, 240, 248); stroke-opacity: 1; stroke-width: 1px;"/></g></g><g class="zerolinelayer"><path class="yzl zl crisp" transform="translate(0,125)" d="M10,0h280" style="stroke: rgb(235, 240, 248); stroke-opacity: 1; stroke-width: 2px;"/></g><path class="xlines-below"/><path class="ylines-below"/><g class="overlines-below"/><g class="xaxislayer-below"/><g class="yaxislayer-below"/><g class="overaxes-below"/><g class="plot" transform="translate(10,50)" clip-path="url(#clipdae441xyplot)"><g class="scatterlayer mlayer"><g class="trace scatter trace01dbaf" style="stroke-miterlimit: 2; opacity: 1;"><g class="fills"/><g class="errorbars"/><g class="lines"><path class="js-line" d="M0,44.55L5.35,40.76L7.13,40.76L14.27,41.05L16.05,40.03L41.02,38.87L42.8,37.99L76.69,36.97L78.47,30.85L99.87,30.85L103.44,35.08L105.22,34.2L108.79,34.2L123.06,33.91L124.84,37.12L128.41,38.72L130.19,38.14L131.97,37.55L133.76,38.87L180.13,37.99L181.91,35.08L185.48,36.24L187.26,36.24L189.04,35.95L190.83,31.14L192.61,28.23L194.39,28.23L197.96,27.5L199.75,22.69L203.31,19.92L205.1,19.92L210.45,19.05L212.23,17.74L217.58,14.53L219.36,14.53L233.63,14.97L235.41,16.43L249.68,16.43L251.46,14.39L253.25,14.39L255.03,10.89L262.17,10.89L263.95,6.96L274.65,6.96L276.43,4.62L280,3.75" style="vector-effect: none; fill: none; stroke: rgb(138, 44, 81); stroke-opacity: 1; stroke-width: 5px; opacity: 1;"/></g><g class="points"/><g class="text"/></g><g class="trace scatter trace77bf0a" style="stroke-miterlimit: 2; opacity: 1;"><g class="fills"/><g class="errorbars"/><g class="lines"><path class="js-line" d="M0,11.47L5.35,13.51L7.13,13.51L12.48,14.53L14.27,13.22L17.83,12.35L19.62,12.35L41.02,12.93L42.8,13.66L103.44,13.66L105.22,17.74L121.27,17.01L123.06,16.43L126.62,8.12L128.41,8.12L131.97,10.74L133.76,6.37L149.81,6.37L151.59,8.56L153.38,8.56L155.16,6.37L156.94,8.56L158.73,5.94L162.29,5.35L164.08,8.12L165.86,5.35L167.64,5.35L171.21,5.35L172.99,8.12L174.78,8.12L176.56,5.35L178.34,8.12L180.13,8.12L181.91,5.5L183.69,8.85L196.18,9.72L197.96,10.45L201.53,13.8L203.31,13.95L230.06,14.97L231.85,15.84L253.25,15.99L255.03,17.45L274.65,17.15L276.43,19.49L280,20.07" style="vector-effect: none; fill: none; stroke: rgb(0, 174, 239); stroke-opacity: 1; stroke-width: 5px; opacity: 1;"/></g><g class="points"/><g class="text"/></g><g class="trace scatter trace4237ea" style="stroke-miterlimit: 2; opacity: 1;"><g class="fills"/><g class="errorbars"/><g class="lines"><path class="js-line" d="M0,60.28L8.92,60.72L10.7,60.72L12.48,61.74L14.27,60.87L17.83,59.99L19.62,59.99L76.69,60.28L78.47,62.03L103.44,60.87L105.22,51.4L124.84,52.27L126.62,53.14L156.94,52.71L158.73,53.58L162.29,54.16L164.08,53.14L167.64,54.16L169.43,54.16L180.13,53.14L181.91,57.37L183.69,54.46L185.48,54.46L189.04,54.6L190.83,56.79L194.39,58.54L196.18,58.54L197.96,58.1L199.75,59.56L208.66,59.85L210.45,59.7L215.8,60.43L217.58,60.43L230.06,59.85L231.85,58.54L233.63,58.54L235.41,56.5L249.68,56.5L251.46,58.39L253.25,58.97L255.03,61.01L276.43,62.18L278.22,62.32L280,62.32" style="vector-effect: none; fill: none; stroke: rgb(255, 1, 170); stroke-opacity: 1; stroke-width: 5px; opacity: 1;"/></g><g class="points"/><g class="text"/></g><g class="trace scatter trace99c79c" style="stroke-miterlimit: 2; opacity: 1;"><g class="fills"/><g class="errorbars"/><g class="lines"><path class="js-line" d="M0,59.7L10.7,60.28L12.48,59.7L41.02,61.45L42.8,61.45L76.69,61.16L78.47,63.34L103.44,62.47L105.22,64.36L124.84,64.8L126.62,66.4L130.19,65.53L131.97,64.65L133.76,67.13L135.54,67.13L162.29,66.99L164.08,65.82L167.64,66.99L169.43,66.99L181.91,65.97L183.69,64.95L189.04,65.09L190.83,66.55L194.39,67.28L196.18,67.28L221.15,70.48L222.93,70.48L280,70.48" style="vector-effect: none; fill: none; stroke: rgb(238, 58, 67); stroke-opacity: 1; stroke-width: 5px; opacity: 1;"/></g><g class="points"/><g class="text"/></g><g class="trace scatter trace77f99e" style="stroke-miterlimit: 2; opacity: 1;"><g class="fills"/><g class="errorbars"/><g class="lines"><path class="js-line" d="M0,63.49L10.7,63.78L12.48,61.74L16.05,66.26L17.83,66.26L121.27,66.99L123.06,67.13L180.13,68.15L181.91,68.59L201.53,69.61L203.31,69.75L214.01,70.77L215.8,71.21L262.17,71.21L263.95,72.67L280,72.67" style="vector-effect: none; fill: none; stroke: rgb(202, 166, 105); stroke-opacity: 1; stroke-width: 5px; opacity: 1;"/></g><g class="points"/><g class="text"/></g></g></g><g class="overplot"/><path class="xlines-above crisp" d="M0,0" style="fill: none;"/><path class="ylines-above crisp" d="M0,0" style="fill: none;"/><g class="overlines-above"/><g class="xaxislayer-above"/><g class="yaxislayer-above"/><g class="overaxes-above"/></g></g><g class="polarlayer"/><g class="smithlayer"/><g class="ternarylayer"/><g class="geolayer"/><g class="funnelarealayer"/><g class="pielayer"/><g class="iciclelayer"/><g class="treemaplayer"/><g class="sunburstlayer"/><g class="glimages"/><defs id="topdefs-dae441"><g class="clips"/></defs><g class="layer-above"><g class="imagelayer"/><g class="shapelayer"/></g><g class="infolayer"><g class="g-gtitle"><text class="gtitle" x="15" y="25" text-anchor="start" dy="0em" style="font-family: Ubuntu, verdana, arial, sans-serif; font-size: 16px; fill: rgb(233, 84, 32); opacity: 1; font-weight: normal; white-space: pre;">Prezident/ka 2024</text></g><g class="g-xtitle"/><g class="g-ytitle"/></g></svg>