<svg class="main-svg" xmlns="http://www.w3.org/2000/svg" xmlns:xlink="http://www.w3.org/1999/xlink" width="300" height="135" style="" viewBox="0 0 300 135"><rect x="0" y="0" width="300" height="135" style="fill: rgb(255, 255, 255); fill-opacity: 1;"/><defs id="defs-89858e"><g class="clips"><clipPath id="clip89858exyplot" class="plotclip"><rect width="280" height="75"/></clipPath><clipPath class="axesclip" id="clip89858ex"><rect x="10" y="0" width="280" height="135"/></clipPath><clipPath class="axesclip" id="clip89858ey"><rect x="0" y="50" width="300" height="75"/></clipPath><clipPath class="axesclip" id="clip89858exy"><rect x="10" y="50" width="280" height="75"/></clipPath></g><g class="gradients"/><g class="patterns"/></defs><g class="bglayer"/><g class="layer-below"><g class="imagelayer"/><g class="shapelayer"/></g><g class="cartesianlayer"><g class="subplot xy"><g class="layer-subplot"><g class="shapelayer"/><g class="imagelayer"/></g><g class="minor-gridlayer"><g class="x"/><g class="y"/></g><g class="gridlayer"><g class="x"><path class="xgrid crisp" transform="translate(28.3,0)" d="M0,50v75" style="stroke: rgb(235, 240, 248); stroke-opacity: 1; stroke-width: 1px;"/><path class="xgrid crisp" transform="translate(141.76,0)" d="M0,50v75" style="stroke: rgb(235, 240, 248); stroke-opacity: 1; stroke-width: 1px;"/><path class="xgrid crisp" transform="translate(253.4,0)" d="M0,50v75" style="stroke: rgb(235, 240, 248); stroke-opacity: 1; stroke-width: 1px;"/></g><g class="y"><path class="ygrid crisp" transform="translate(0,95.19)" d="M10,0h280" style="stroke: rgb(235, 240, 248); stroke-opacity: 1; stroke-width: 1px;"/><path class="ygrid crisp" transform="translate(0,65.38)" d="M10,0h280" style="stroke: rgb(235, 240, 248); stroke-opacity: 1; stroke-width: 1px;"/></g></g><g class="zerolinelayer"><path class="yzl zl crisp" transform="translate(0,125)" d="M10,0h280" style="stroke: rgb(235, 240, 248); stroke-opacity: 1; stroke-width: 2px;"/></g><path class="xlines-below"/><path class="ylines-below"/><g class="overlines-below"/><g class="xaxislayer-below"/><g class="yaxislayer-below"/><g class="overaxes-below"/><g class="plot" transform="translate(10,50)" clip-path="url(#clip89858exyplot)"><g class="scatterlayer mlayer"><g class="trace scatter trace719d7c" style="stroke-miterlimit: 2; opacity: 1;"><g class="fills"/><g class="errorbars"/><g class="lines"><path class="js-line" d="M0,43.85L5.49,39.97L7.32,39.97L14.64,40.27L16.47,39.23L42.09,38.03L43.92,37.14L78.69,36.1L80.52,29.84L102.48,29.84L106.14,34.16L107.97,33.26L111.63,33.26L126.27,32.97L128.1,36.24L131.76,37.88L133.59,37.29L135.42,36.69L137.25,38.03L184.84,37.14L186.67,34.16L190.33,35.35L192.16,35.35L193.99,35.05L195.82,30.13L197.65,27.15L199.48,27.15L203.14,26.41L204.97,21.49L208.63,18.66L210.46,18.66L215.95,17.76L217.78,16.42L223.27,13.14L225.1,13.14L239.74,13.59L241.57,15.08L256.21,15.08L258.04,12.99L259.87,12.99L261.7,9.41L269.02,9.41L270.85,5.39L280,5.39" style="vector-effect: none; fill: none; stroke: rgb(138, 44, 81); stroke-opacity: 1; stroke-width: 5px; opacity: 1;"/></g><g class="points"/><g class="text"/></g><g class="trace scatter trace0f1467" style="stroke-miterlimit: 2; opacity: 1;"><g class="fills"/><g class="errorbars"/><g class="lines"><path class="js-line" d="M0,10.01L5.49,12.1L7.32,12.1L12.81,13.14L14.64,11.8L18.3,10.9L20.13,10.9L42.09,11.5L43.92,12.25L106.14,12.25L107.97,16.42L124.44,15.67L126.27,15.08L129.93,6.58L131.76,6.58L135.42,9.27L137.25,4.79L153.73,4.79L155.56,7.03L157.39,7.03L159.22,4.79L161.05,7.03L162.88,4.35L166.54,3.75L168.37,6.58L170.2,3.75L172.03,3.75L175.69,3.75L177.52,6.58L179.35,6.58L181.18,3.75L183.01,6.58L184.84,6.58L186.67,3.9L188.5,7.33L201.31,8.22L203.14,8.97L206.8,12.4L208.63,12.54L236.08,13.59L237.91,14.48L259.87,14.63L261.7,16.12L280,15.82" style="vector-effect: none; fill: none; stroke: rgb(0, 174, 239); stroke-opacity: 1; stroke-width: 5px; opacity: 1;"/></g><g class="points"/><g class="text"/></g><g class="trace scatter trace0f7237" style="stroke-miterlimit: 2; opacity: 1;"><g class="fills"/><g class="errorbars"/><g class="lines"><path class="js-line" d="M0,59.95L9.15,60.39L10.98,60.39L12.81,61.44L14.64,60.54L18.3,59.65L20.13,59.65L78.69,59.95L80.52,61.73L106.14,60.54L107.97,50.85L128.1,51.75L129.93,52.64L161.05,52.19L162.88,53.09L166.54,53.68L168.37,52.64L172.03,53.68L173.86,53.68L184.84,52.64L186.67,56.96L188.5,53.98L190.33,53.98L193.99,54.13L195.82,56.37L197.65,58.16L199.48,58.16L203.14,57.71L204.97,59.2L214.12,59.5L215.95,59.35L221.44,60.09L223.27,60.09L236.08,59.5L237.91,58.16L239.74,58.16L241.57,56.07L256.21,56.07L258.04,58.01L259.87,58.6L261.7,60.69L280,61.88" style="vector-effect: none; fill: none; stroke: rgb(255, 1, 170); stroke-opacity: 1; stroke-width: 5px; opacity: 1;"/></g><g class="points"/><g class="text"/></g><g class="trace scatter trace6f869b" style="stroke-miterlimit: 2; opacity: 1;"><g class="fills"/><g class="errorbars"/><g class="lines"><path class="js-line" d="M0,59.35L10.98,59.95L12.81,59.35L42.09,61.14L43.92,61.14L78.69,60.84L80.52,63.08L106.14,62.18L107.97,64.12L128.1,64.57L129.93,66.21L133.59,65.31L135.42,64.42L137.25,66.95L139.08,66.95L166.54,66.8L168.37,65.61L172.03,66.8L173.86,66.8L186.67,65.76L188.5,64.71L193.99,64.86L195.82,66.35L199.48,67.1L201.31,67.1L226.93,70.38L228.76,70.38L280,70.23" style="vector-effect: none; fill: none; stroke: rgb(238, 58, 67); stroke-opacity: 1; stroke-width: 5px; opacity: 1;"/></g><g class="points"/><g class="text"/></g><g class="trace scatter trace65c107" style="stroke-miterlimit: 2; opacity: 1;"><g class="fills"/><g class="errorbars"/><g class="lines"><path class="js-line" d="M0,63.22L10.98,63.52L12.81,61.44L16.47,66.06L18.3,66.06L124.44,66.8L126.27,66.95L184.84,67.99L186.67,68.44L206.8,69.48L208.63,69.63L219.61,70.68L221.44,71.12L269.02,71.12L270.85,72.62L280,72.62" style="vector-effect: none; fill: none; stroke: rgb(202, 166, 105); stroke-opacity: 1; stroke-width: 5px; opacity: 1;"/></g><g class="points"/><g class="text"/></g></g></g><g class="overplot"/><path class="xlines-above crisp" d="M0,0" style="fill: none;"/><path class="ylines-above crisp" d="M0,0" style="fill: none;"/><g class="overlines-above"/><g class="xaxislayer-above"/><g class="yaxislayer-above"/><g class="overaxes-above"/></g></g><g class="polarlayer"/><g class="smithlayer"/><g class="ternarylayer"/><g class="geolayer"/><g class="funnelarealayer"/><g class="pielayer"/><g class="iciclelayer"/><g class="treemaplayer"/><g class="sunburstlayer"/><g class="glimages"/><defs id="topdefs-89858e"><g class="clips"/></defs><g class="layer-above"><g class="imagelayer"/><g class="shapelayer"/></g><g class="infolayer"><g class="g-gtitle"><text class="gtitle" x="15" y="25" text-anchor="start" dy="0em" style="font-family: Ubuntu, verdana, arial, sans-serif; font-size: 16px; fill: rgb(233, 84, 32); opacity: 1; font-weight: normal; white-space: pre;">Prezident/ka 2024</text></g><g class="g-xtitle"/><g class="g-ytitle"/></g></svg>