<svg class="main-svg" xmlns="http://www.w3.org/2000/svg" xmlns:xlink="http://www.w3.org/1999/xlink" width="300" height="135" style="" viewBox="0 0 300 135"><rect x="0" y="0" width="300" height="135" style="fill: rgb(255, 255, 255); fill-opacity: 1;"/><defs id="defs-d1698d"><g class="clips"><clipPath id="clipd1698dxyplot" class="plotclip"><rect width="280" height="75"/></clipPath><clipPath class="axesclip" id="clipd1698dx"><rect x="10" y="0" width="280" height="135"/></clipPath><clipPath class="axesclip" id="clipd1698dy"><rect x="0" y="50" width="300" height="75"/></clipPath><clipPath class="axesclip" id="clipd1698dxy"><rect x="10" y="50" width="280" height="75"/></clipPath></g><g class="gradients"/><g class="patterns"/></defs><g class="bglayer"/><g class="layer-below"><g class="imagelayer"/><g class="shapelayer"/></g><g class="cartesianlayer"><g class="subplot xy"><g class="layer-subplot"><g class="shapelayer"/><g class="imagelayer"/></g><g class="minor-gridlayer"><g class="x"/><g class="y"/></g><g class="gridlayer"><g class="x"><path class="xgrid crisp" transform="translate(27.5,0)" d="M0,50v75" style="stroke: rgb(235, 240, 248); stroke-opacity: 1; stroke-width: 1px;"/><path class="xgrid crisp" transform="translate(136,0)" d="M0,50v75" style="stroke: rgb(235, 240, 248); stroke-opacity: 1; stroke-width: 1px;"/><path class="xgrid crisp" transform="translate(242.75,0)" d="M0,50v75" style="stroke: rgb(235, 240, 248); stroke-opacity: 1; stroke-width: 1px;"/></g><g class="y"><path class="ygrid crisp" transform="translate(0,96.56)" d="M10,0h280" style="stroke: rgb(235, 240, 248); stroke-opacity: 1; stroke-width: 1px;"/><path class="ygrid crisp" transform="translate(0,68.11)" d="M10,0h280" style="stroke: rgb(235, 240, 248); stroke-opacity: 1; stroke-width: 1px;"/></g></g><g class="zerolinelayer"><path class="yzl zl crisp" transform="translate(0,125)" d="M10,0h280" style="stroke: rgb(235, 240, 248); stroke-opacity: 1; stroke-width: 2px;"/></g><path class="xlines-below"/><path class="ylines-below"/><g class="overlines-below"/><g class="xaxislayer-below"/><g class="yaxislayer-below"/><g class="overaxes-below"/><g class="plot" transform="translate(10,50)" clip-path="url(#clipd1698dxyplot)"><g class="scatterlayer mlayer"><g class="trace scatter tracec278c7" style="stroke-miterlimit: 2; opacity: 1;"><g class="fills"/><g class="errorbars"/><g class="lines"><path class="js-line" d="M0,45.28L5.25,41.58L7,41.58L14,41.86L15.75,40.87L40.25,39.73L42,38.88L75.25,37.88L77,31.91L98,31.91L101.5,36.03L103.25,35.18L106.75,35.18L120.75,34.9L122.5,38.02L126,39.59L127.75,39.02L129.5,38.45L131.25,39.73L176.75,38.88L178.5,36.03L182,37.17L183.75,37.17L185.5,36.89L187.25,32.19L189,29.35L190.75,29.35L194.25,28.64L196,23.94L199.5,21.24L201.25,21.24L206.5,20.39L208.25,19.11L213.5,15.98L215.25,15.98L229.25,16.41L231,17.83L245,17.83L246.75,15.84L248.5,15.84L250.25,12.43L257.25,12.43L259,8.59L269.5,8.59L271.25,6.31L274.75,5.46L276.5,5.46L280,3.75" style="vector-effect: none; fill: none; stroke: rgb(138, 44, 81); stroke-opacity: 1; stroke-width: 5px; opacity: 1;"/></g><g class="points"/><g class="text"/></g><g class="trace scatter trace8ed5e1" style="stroke-miterlimit: 2; opacity: 1;"><g class="fills"/><g class="errorbars"/><g class="lines"><path class="js-line" d="M0,12.99L5.25,14.99L7,14.99L12.25,15.98L14,14.7L17.5,13.85L19.25,13.85L40.25,14.42L42,15.13L101.5,15.13L103.25,19.11L119,18.4L120.75,17.83L124.25,9.72L126,9.72L129.5,12.28L131.25,8.02L147,8.02L148.75,10.15L150.5,10.15L152.25,8.02L154,10.15L155.75,7.59L159.25,7.02L161,9.72L162.75,7.02L164.5,7.02L168,7.02L169.75,9.72L171.5,9.72L173.25,7.02L175,9.72L176.75,9.72L178.5,7.16L180.25,10.43L192.5,11.29L194.25,12L197.75,15.27L199.5,15.41L225.75,16.41L227.5,17.26L248.5,17.4L250.25,18.82L269.5,18.54L271.25,20.82L280,22.95" style="vector-effect: none; fill: none; stroke: rgb(0, 174, 239); stroke-opacity: 1; stroke-width: 5px; opacity: 1;"/></g><g class="points"/><g class="text"/></g><g class="trace scatter trace056445" style="stroke-miterlimit: 2; opacity: 1;"><g class="fills"/><g class="errorbars"/><g class="lines"><path class="js-line" d="M0,60.64L12.25,62.06L14,61.21L17.5,60.35L19.25,60.35L75.25,60.64L77,62.34L101.5,61.21L103.25,51.96L122.5,52.81L124.25,53.67L154,53.24L155.75,54.09L159.25,54.66L161,53.67L164.5,54.66L166.25,54.66L176.75,53.67L178.5,57.79L180.25,54.95L182,54.95L185.5,55.09L187.25,57.22L190.75,58.93L192.5,58.93L194.25,58.5L196,59.93L204.75,60.21L206.5,60.07L211.75,60.78L213.5,60.78L225.75,60.21L227.5,58.93L229.25,58.93L231,56.94L245,56.94L246.75,58.79L248.5,59.36L250.25,61.35L271.25,62.49L273,62.63L280,62.77" style="vector-effect: none; fill: none; stroke: rgb(255, 1, 170); stroke-opacity: 1; stroke-width: 5px; opacity: 1;"/></g><g class="points"/><g class="text"/></g><g class="trace scatter trace0f2bf5" style="stroke-miterlimit: 2; opacity: 1;"><g class="fills"/><g class="errorbars"/><g class="lines"><path class="js-line" d="M0,60.07L10.5,60.64L12.25,60.07L42,61.77L43.75,61.77L75.25,61.49L77,63.62L101.5,62.77L103.25,64.62L122.5,65.04L124.25,66.61L127.75,65.76L129.5,64.9L131.25,67.32L133,67.32L159.25,67.18L161,66.04L164.5,67.18L166.25,67.18L178.5,66.18L180.25,65.19L185.5,65.33L187.25,66.75L190.75,67.46L192.5,67.46L217,70.59L218.75,70.59L280,70.59" style="vector-effect: none; fill: none; stroke: rgb(238, 58, 67); stroke-opacity: 1; stroke-width: 5px; opacity: 1;"/></g><g class="points"/><g class="text"/></g><g class="trace scatter traceba2eb7" style="stroke-miterlimit: 2; opacity: 1;"><g class="fills"/><g class="errorbars"/><g class="lines"><path class="js-line" d="M0,63.76L10.5,64.05L12.25,62.06L15.75,66.47L17.5,66.47L119,67.18L120.75,67.32L176.75,68.32L178.5,68.74L197.75,69.74L199.5,69.88L210,70.88L211.75,71.3L257.25,71.3L259,72.72L280,72.72" style="vector-effect: none; fill: none; stroke: rgb(202, 166, 105); stroke-opacity: 1; stroke-width: 5px; opacity: 1;"/></g><g class="points"/><g class="text"/></g></g></g><g class="overplot"/><path class="xlines-above crisp" d="M0,0" style="fill: none;"/><path class="ylines-above crisp" d="M0,0" style="fill: none;"/><g class="overlines-above"/><g class="xaxislayer-above"/><g class="yaxislayer-above"/><g class="overaxes-above"/></g></g><g class="polarlayer"/><g class="smithlayer"/><g class="ternarylayer"/><g class="geolayer"/><g class="funnelarealayer"/><g class="pielayer"/><g class="iciclelayer"/><g class="treemaplayer"/><g class="sunburstlayer"/><g class="glimages"/><defs id="topdefs-d1698d"><g class="clips"/></defs><g class="layer-above"><g class="imagelayer"/><g class="shapelayer"/></g><g class="infolayer"><g class="g-gtitle"><text class="gtitle" x="15" y="25" text-anchor="start" dy="0em" style="font-family: Ubuntu, verdana, arial, sans-serif; font-size: 16px; fill: rgb(233, 84, 32); opacity: 1; font-weight: normal; white-space: pre;">Prezident/ka 2024</text></g><g class="g-xtitle"/><g class="g-ytitle"/></g></svg>