<svg class="main-svg" xmlns="http://www.w3.org/2000/svg" xmlns:xlink="http://www.w3.org/1999/xlink" width="300" height="135" style="" viewBox="0 0 300 135"><rect x="0" y="0" width="300" height="135" style="fill: rgb(255, 255, 255); fill-opacity: 1;"/><defs id="defs-408a55"><g class="clips"><clipPath id="clip408a55xyplot" class="plotclip"><rect width="280" height="75"/></clipPath><clipPath class="axesclip" id="clip408a55x"><rect x="10" y="0" width="280" height="135"/></clipPath><clipPath class="axesclip" id="clip408a55y"><rect x="0" y="50" width="300" height="75"/></clipPath><clipPath class="axesclip" id="clip408a55xy"><rect x="10" y="50" width="280" height="75"/></clipPath></g><g class="gradients"/><g class="patterns"/></defs><g class="bglayer"/><g class="layer-below"><g class="imagelayer"/><g class="shapelayer"/></g><g class="cartesianlayer"><g class="subplot xy"><g class="layer-subplot"><g class="shapelayer"/><g class="imagelayer"/></g><g class="minor-gridlayer"><g class="x"/><g class="y"/></g><g class="gridlayer"><g class="x"><path class="xgrid crisp" transform="translate(31.21,0)" d="M0,50v75" style="stroke: rgb(235, 240, 248); stroke-opacity: 1; stroke-width: 1px;"/><path class="xgrid crisp" transform="translate(96.97,0)" d="M0,50v75" style="stroke: rgb(235, 240, 248); stroke-opacity: 1; stroke-width: 1px;"/><path class="xgrid crisp" transform="translate(162.73,0)" d="M0,50v75" style="stroke: rgb(235, 240, 248); stroke-opacity: 1; stroke-width: 1px;"/><path class="xgrid crisp" transform="translate(226.36,0)" d="M0,50v75" style="stroke: rgb(235, 240, 248); stroke-opacity: 1; stroke-width: 1px;"/></g><g class="y"><path class="ygrid crisp" transform="translate(0,109.38)" d="M10,0h280" style="stroke: rgb(235, 240, 248); stroke-opacity: 1; stroke-width: 1px;"/><path class="ygrid crisp" transform="translate(0,93.75)" d="M10,0h280" style="stroke: rgb(235, 240, 248); stroke-opacity: 1; stroke-width: 1px;"/><path class="ygrid crisp" transform="translate(0,78.13)" d="M10,0h280" style="stroke: rgb(235, 240, 248); stroke-opacity: 1; stroke-width: 1px;"/><path class="ygrid crisp" transform="translate(0,62.5)" d="M10,0h280" style="stroke: rgb(235, 240, 248); stroke-opacity: 1; stroke-width: 1px;"/></g></g><g class="zerolinelayer"><path class="yzl zl crisp" transform="translate(0,125)" d="M10,0h280" style="stroke: rgb(235, 240, 248); stroke-opacity: 1; stroke-width: 2px;"/></g><path class="xlines-below"/><path class="ylines-below"/><g class="overlines-below"/><g class="xaxislayer-below"/><g class="yaxislayer-below"/><g class="overaxes-below"/><g class="plot" transform="translate(10,50)" clip-path="url(#clip408a55xyplot)"><g class="scatterlayer mlayer"><g class="trace scatter trace2c52d4" style="stroke-miterlimit: 2; opacity: 1;"><g class="fills"/><g class="errorbars"/><g class="lines"><path class="js-line" d="M0,43.44L4.24,39.38L6.36,39.38L16.97,39.53L19.09,38.75L48.79,37.66L50.91,36.88L91.21,35.78L93.33,29.69L118.79,29.69L123.03,33.75L125.15,32.97L129.39,32.97L146.36,32.66L148.48,35.94L152.73,37.34L154.85,36.88L156.97,36.25L159.09,37.66L214.24,36.88L216.36,34.06L220.61,35L222.73,35L224.85,34.69L226.97,29.69L229.09,26.72L231.21,26.72L235.45,25.78L237.58,20.63L239.7,18.13L241.82,17.66L250.3,16.72L252.42,15L258.79,11.41L260.91,11.41L277.88,11.87L280,13.44" style="vector-effect: none; fill: none; stroke: rgb(138, 44, 81); stroke-opacity: 1; stroke-width: 5px; opacity: 1;"/></g><g class="points"/><g class="text"/></g><g class="trace scatter trace89751a" style="stroke-miterlimit: 2; opacity: 1;"><g class="fills"/><g class="errorbars"/><g class="lines"><path class="js-line" d="M0,9.06L6.36,11.25L8.48,11.25L16.97,10.63L19.09,10.16L48.79,10.94L50.91,11.56L123.03,11.56L125.15,15.94L144.24,15.16L146.36,14.53L150.61,5.78L152.73,5.78L156.97,8.44L159.09,3.91L178.18,3.91L180.3,6.25L182.42,6.25L184.55,3.91L186.67,6.25L188.79,3.75L193.03,3.75L195.15,6.09L197.27,3.75L199.39,3.75L203.64,3.75L205.76,6.09L207.88,6.09L210,3.75L212.12,6.09L214.24,6.09L216.36,3.75L218.48,6.72L233.33,7.66L235.45,8.13L239.7,11.41L241.82,11.41L273.64,11.72L275.76,12.66L280,13.44" style="vector-effect: none; fill: none; stroke: rgb(0, 174, 239); stroke-opacity: 1; stroke-width: 5px; opacity: 1;"/></g><g class="points"/><g class="text"/></g><g class="trace scatter tracec9f6cb" style="stroke-miterlimit: 2; opacity: 1;"><g class="fills"/><g class="errorbars"/><g class="lines"><path class="js-line" d="M0,59.69L14.85,61.09L16.97,60.31L21.21,59.53L23.33,59.53L91.21,59.84L93.33,61.72L118.79,61.72L123.03,60.31L125.15,50.78L129.39,50.78L148.48,51.56L150.61,52.34L186.67,51.88L188.79,52.97L193.03,53.59L195.15,52.5L199.39,53.59L201.52,53.59L214.24,52.5L216.36,57.03L218.48,53.75L220.61,53.75L224.85,53.91L226.97,56.25L229.09,57.97L231.21,57.97L235.45,57.5L237.58,58.91L248.18,59.22L250.3,59.06L260.91,59.53L263.03,59.53L273.64,59.06L275.76,57.81L277.88,57.81L280,55.47" style="vector-effect: none; fill: none; stroke: rgb(255, 1, 170); stroke-opacity: 1; stroke-width: 5px; opacity: 1;"/></g><g class="points"/><g class="text"/></g><g class="trace scatter trace70e0c7" style="stroke-miterlimit: 2; opacity: 1;"><g class="fills"/><g class="errorbars"/><g class="lines"><path class="js-line" d="M0,59.22L12.73,59.69L14.85,58.91L27.58,60L29.7,60L44.55,60.94L46.67,60.94L91.21,60.78L93.33,63.13L123.03,62.03L125.15,64.06L148.48,64.38L150.61,66.09L154.85,65.16L156.97,64.38L159.09,66.88L161.21,66.88L216.36,65.78L218.48,64.53L224.85,64.69L226.97,66.25L231.21,67.03L233.33,67.03L254.55,69.38L256.67,70.16L280,70.31" style="vector-effect: none; fill: none; stroke: rgb(238, 58, 67); stroke-opacity: 1; stroke-width: 5px; opacity: 1;"/></g><g class="points"/><g class="text"/></g><g class="trace scatter trace4f4593" style="stroke-miterlimit: 2; opacity: 1;"><g class="fills"/><g class="errorbars"/><g class="lines"><path class="js-line" d="M0,62.97L12.73,63.44L14.85,61.09L19.09,65.94L21.21,65.94L144.24,66.72L146.36,66.88L214.24,67.81L216.36,68.44L229.09,68.59L231.21,68.59L250.3,69.84L252.42,70.31L271.52,71.09L273.64,71.09L280,71.09" style="vector-effect: none; fill: none; stroke: rgb(202, 166, 105); stroke-opacity: 1; stroke-width: 5px; opacity: 1;"/></g><g class="points"/><g class="text"/></g></g></g><g class="overplot"/><path class="xlines-above crisp" d="M0,0" style="fill: none;"/><path class="ylines-above crisp" d="M0,0" style="fill: none;"/><g class="overlines-above"/><g class="xaxislayer-above"/><g class="yaxislayer-above"/><g class="overaxes-above"/></g></g><g class="polarlayer"/><g class="smithlayer"/><g class="ternarylayer"/><g class="geolayer"/><g class="funnelarealayer"/><g class="pielayer"/><g class="iciclelayer"/><g class="treemaplayer"/><g class="sunburstlayer"/><g class="glimages"/><defs id="topdefs-408a55"><g class="clips"/></defs><g class="layer-above"><g class="imagelayer"/><g class="shapelayer"/></g><g class="infolayer"><g class="g-gtitle"><text class="gtitle" x="15" y="25" text-anchor="start" dy="0em" style="font-family: Ubuntu, verdana, arial, sans-serif; font-size: 16px; fill: rgb(233, 84, 32); opacity: 1; font-weight: normal; white-space: pre;">Prezident/ka 2024</text></g><g class="g-xtitle"/><g class="g-ytitle"/></g></svg>